<?xml version="1.0" encoding="UTF-8" standalone="no"?>
<!DOCTYPE svg PUBLIC "-//W3C//DTD SVG 1.1//EN"
 "http://www.w3.org/Graphics/SVG/1.1/DTD/svg11.dtd">
<!-- Generated by graphviz version 2.38.0 (20140413.2041)
 -->
<!-- Title: RoR::GUI::MultiplayerSelector Pages: 1 -->
<svg width="241pt" height="106pt"
 viewBox="0.00 0.00 241.00 106.00" xmlns="http://www.w3.org/2000/svg" xmlns:xlink="http://www.w3.org/1999/xlink">
<g id="graph0" class="graph" transform="scale(1 1) rotate(0) translate(4 102)">
<title>RoR::GUI::MultiplayerSelector</title>
<polygon fill="white" stroke="none" points="-4,4 -4,-102 237,-102 237,4 -4,4"/>
<!-- Node1 -->
<g id="node1" class="node"><title>Node1</title>
<polygon fill="#bfbfbf" stroke="black" points="24.5,-0.5 24.5,-19.5 171.5,-19.5 171.5,-0.5 24.5,-0.5"/>
<text text-anchor="middle" x="98" y="-7.5" font-family="Helvetica,sans-Serif" font-size="10.00">RoR::GUI::MultiplayerSelector</text>
</g>
<!-- Node2 -->
<g id="node2" class="node"><title>Node2</title>
<g id="a_node2"><a xlink:href="../../d0/d28/class_ro_r_1_1_str.html" target="_top" xlink:title="RoR::Str\&lt; 200 \&gt;">
<polygon fill="white" stroke="black" points="0,-78.5 0,-97.5 88,-97.5 88,-78.5 0,-78.5"/>
<text text-anchor="middle" x="44" y="-85.5" font-family="Helvetica,sans-Serif" font-size="10.00">RoR::Str&lt; 200 &gt;</text>
</a>
</g>
</g>
<!-- Node2&#45;&gt;Node1 -->
<g id="edge1" class="edge"><title>Node2&#45;&gt;Node1</title>
<path fill="none" stroke="#9a32cd" stroke-dasharray="5,2" d="M40.0407,-68.3673C38.9889,-58.6229 39.4173,-46.9042 45,-38 50.2661,-29.6008 59.0357,-23.7041 67.9407,-19.6142"/>
<polygon fill="#9a32cd" stroke="#9a32cd" points="36.5929,-68.9712 41.6613,-78.275 43.5011,-67.8411 36.5929,-68.9712"/>
<text text-anchor="middle" x="87.5" y="-52" font-family="Helvetica,sans-Serif" font-size="10.00"> m_server_host_buf</text>
<text text-anchor="middle" x="87.5" y="-41" font-family="Helvetica,sans-Serif" font-size="10.00">m_user_token_buf</text>
</g>
<!-- Node3 -->
<g id="node3" class="node"><title>Node3</title>
<g id="a_node3"><a xlink:href="../../d0/d28/class_ro_r_1_1_str.html" target="_top" xlink:title="RoR::Str\&lt; 100 \&gt;">
<polygon fill="white" stroke="black" points="108,-78.5 108,-97.5 196,-97.5 196,-78.5 108,-78.5"/>
<text text-anchor="middle" x="152" y="-85.5" font-family="Helvetica,sans-Serif" font-size="10.00">RoR::Str&lt; 100 &gt;</text>
</a>
</g>
</g>
<!-- Node3&#45;&gt;Node1 -->
<g id="edge2" class="edge"><title>Node3&#45;&gt;Node1</title>
<path fill="none" stroke="#9a32cd" stroke-dasharray="5,2" d="M146.112,-68.9141C142.413,-59.1786 137.008,-47.2961 130,-38 124.662,-30.9187 117.144,-24.4548 110.736,-19.628"/>
<polygon fill="#9a32cd" stroke="#9a32cd" points="142.832,-70.1384 149.451,-78.4115 149.436,-67.8167 142.832,-70.1384"/>
<text text-anchor="middle" x="187.5" y="-52" font-family="Helvetica,sans-Serif" font-size="10.00"> m_player_name_buf</text>
<text text-anchor="middle" x="187.5" y="-41" font-family="Helvetica,sans-Serif" font-size="10.00">m_password_buf</text>
</g>
</g>
</svg>
