<?xml version="1.0" encoding="UTF-8" standalone="no"?>
<!DOCTYPE svg PUBLIC "-//W3C//DTD SVG 1.1//EN"
 "http://www.w3.org/Graphics/SVG/1.1/DTD/svg11.dtd">
<!-- Generated by graphviz version 2.38.0 (20140413.2041)
 -->
<!-- Title: TerrainGeometryManager::getTerrainPositionAlign Pages: 1 -->
<svg width="628pt" height="39pt"
 viewBox="0.00 0.00 628.00 39.00" xmlns="http://www.w3.org/2000/svg" xmlns:xlink="http://www.w3.org/1999/xlink">
<g id="graph0" class="graph" transform="scale(1 1) rotate(0) translate(4 35)">
<title>TerrainGeometryManager::getTerrainPositionAlign</title>
<polygon fill="white" stroke="none" points="-4,4 -4,-35 624,-35 624,4 -4,4"/>
<!-- Node392 -->
<g id="node1" class="node"><title>Node392</title>
<polygon fill="#bfbfbf" stroke="black" points="0,-0.5 0,-30.5 126,-30.5 126,-0.5 0,-0.5"/>
<text text-anchor="start" x="8" y="-18.5" font-family="Helvetica,sans-Serif" font-size="10.00">TerrainGeometryManager</text>
<text text-anchor="middle" x="63" y="-7.5" font-family="Helvetica,sans-Serif" font-size="10.00">::getTerrainPositionAlign</text>
</g>
<!-- Node393 -->
<g id="node2" class="node"><title>Node393</title>
<g id="a_node2"><a xlink:href="../../d2/d9a/class_terrain_geometry_manager.html#a0b29da6ca8332db2e5ea1d261dc48cf2" target="_top" xlink:title="TerrainGeometryManager\l::getHeightAtWorldPosition">
<polygon fill="white" stroke="black" points="162,-0.5 162,-30.5 296,-30.5 296,-0.5 162,-0.5"/>
<text text-anchor="start" x="170" y="-18.5" font-family="Helvetica,sans-Serif" font-size="10.00">TerrainGeometryManager</text>
<text text-anchor="middle" x="229" y="-7.5" font-family="Helvetica,sans-Serif" font-size="10.00">::getHeightAtWorldPosition</text>
</a>
</g>
</g>
<!-- Node392&#45;&gt;Node393 -->
<g id="edge1" class="edge"><title>Node392&#45;&gt;Node393</title>
<path fill="none" stroke="midnightblue" d="M136.269,-15.5C144.764,-15.5 153.4,-15.5 161.806,-15.5"/>
<polygon fill="midnightblue" stroke="midnightblue" points="136.001,-12.0001 126.001,-15.5 136.001,-19.0001 136.001,-12.0001"/>
</g>
<!-- Node394 -->
<g id="node3" class="node"><title>Node394</title>
<g id="a_node3"><a xlink:href="../../d2/d9a/class_terrain_geometry_manager.html#a57cfde0ce76cbb55021a6838a6e69987" target="_top" xlink:title="TerrainGeometryManager\l::getHeightAt">
<polygon fill="white" stroke="black" points="332,-0.5 332,-30.5 458,-30.5 458,-0.5 332,-0.5"/>
<text text-anchor="start" x="340" y="-18.5" font-family="Helvetica,sans-Serif" font-size="10.00">TerrainGeometryManager</text>
<text text-anchor="middle" x="395" y="-7.5" font-family="Helvetica,sans-Serif" font-size="10.00">::getHeightAt</text>
</a>
</g>
</g>
<!-- Node393&#45;&gt;Node394 -->
<g id="edge2" class="edge"><title>Node393&#45;&gt;Node394</title>
<path fill="none" stroke="midnightblue" d="M306.496,-15.5C314.963,-15.5 323.508,-15.5 331.768,-15.5"/>
<polygon fill="midnightblue" stroke="midnightblue" points="306.232,-12.0001 296.232,-15.5 306.232,-19.0001 306.232,-12.0001"/>
</g>
<!-- Node395 -->
<g id="node4" class="node"><title>Node395</title>
<g id="a_node4"><a xlink:href="../../d2/d9a/class_terrain_geometry_manager.html#a70da6461cb8d86d360f970b2677716da" target="_top" xlink:title="TerrainGeometryManager\l::getNormalAt">
<polygon fill="white" stroke="black" points="494,-0.5 494,-30.5 620,-30.5 620,-0.5 494,-0.5"/>
<text text-anchor="start" x="502" y="-18.5" font-family="Helvetica,sans-Serif" font-size="10.00">TerrainGeometryManager</text>
<text text-anchor="middle" x="557" y="-7.5" font-family="Helvetica,sans-Serif" font-size="10.00">::getNormalAt</text>
</a>
</g>
</g>
<!-- Node394&#45;&gt;Node395 -->
<g id="edge3" class="edge"><title>Node394&#45;&gt;Node395</title>
<path fill="none" stroke="midnightblue" d="M468.545,-15.5C476.996,-15.5 485.559,-15.5 493.852,-15.5"/>
<polygon fill="midnightblue" stroke="midnightblue" points="468.318,-12.0001 458.318,-15.5 468.318,-19.0001 468.318,-12.0001"/>
</g>
</g>
</svg>
