<?xml version="1.0" encoding="UTF-8" standalone="no"?>
<!DOCTYPE svg PUBLIC "-//W3C//DTD SVG 1.1//EN"
 "http://www.w3.org/Graphics/SVG/1.1/DTD/svg11.dtd">
<!-- Generated by graphviz version 2.38.0 (20140413.2041)
 -->
<!-- Title: CScriptArray::RemoveRange Pages: 1 -->
<svg width="747pt" height="66pt"
 viewBox="0.00 0.00 747.00 66.00" xmlns="http://www.w3.org/2000/svg" xmlns:xlink="http://www.w3.org/1999/xlink">
<g id="graph0" class="graph" transform="scale(1 1) rotate(0) translate(4 62)">
<title>CScriptArray::RemoveRange</title>
<polygon fill="white" stroke="none" points="-4,4 -4,-62 743,-62 743,4 -4,4"/>
<!-- Node191 -->
<g id="node1" class="node"><title>Node191</title>
<polygon fill="#bfbfbf" stroke="black" points="0,-19.5 0,-38.5 140,-38.5 140,-19.5 0,-19.5"/>
<text text-anchor="middle" x="70" y="-26.5" font-family="Helvetica,sans-Serif" font-size="10.00">CScriptArray::RemoveRange</text>
</g>
<!-- Node192 -->
<g id="node2" class="node"><title>Node192</title>
<g id="a_node2"><a xlink:href="../../d7/d58/scriptarray_8cpp.html#aaa5bcbfbad33f5d3b5fca478b3be9543" target="_top" xlink:title="ScriptArrayRemoveRange\l_Generic">
<polygon fill="white" stroke="black" points="176,-14 176,-44 304,-44 304,-14 176,-14"/>
<text text-anchor="start" x="184" y="-32" font-family="Helvetica,sans-Serif" font-size="10.00">ScriptArrayRemoveRange</text>
<text text-anchor="middle" x="240" y="-21" font-family="Helvetica,sans-Serif" font-size="10.00">_Generic</text>
</a>
</g>
</g>
<!-- Node191&#45;&gt;Node192 -->
<g id="edge1" class="edge"><title>Node191&#45;&gt;Node192</title>
<path fill="none" stroke="midnightblue" d="M150.568,-29C159.027,-29 167.547,-29 175.782,-29"/>
<polygon fill="midnightblue" stroke="midnightblue" points="150.302,-25.5001 140.302,-29 150.302,-32.5001 150.302,-25.5001"/>
</g>
<!-- Node193 -->
<g id="node3" class="node"><title>Node193</title>
<g id="a_node3"><a xlink:href="../../d7/d58/scriptarray_8cpp.html#a3f10cc670a493480c2a665a984710480" target="_top" xlink:title="RegisterScriptArray\l_Generic">
<polygon fill="white" stroke="black" points="340,-14 340,-44 441,-44 441,-14 340,-14"/>
<text text-anchor="start" x="348" y="-32" font-family="Helvetica,sans-Serif" font-size="10.00">RegisterScriptArray</text>
<text text-anchor="middle" x="390.5" y="-21" font-family="Helvetica,sans-Serif" font-size="10.00">_Generic</text>
</a>
</g>
</g>
<!-- Node192&#45;&gt;Node193 -->
<g id="edge2" class="edge"><title>Node192&#45;&gt;Node193</title>
<path fill="none" stroke="midnightblue" d="M314.447,-29C323.027,-29 331.622,-29 339.773,-29"/>
<polygon fill="midnightblue" stroke="midnightblue" points="314.408,-25.5001 304.408,-29 314.408,-32.5001 314.408,-25.5001"/>
</g>
<!-- Node194 -->
<g id="node4" class="node"><title>Node194</title>
<g id="a_node4"><a xlink:href="../../d8/d22/class_c_script_array.html#a04daa9f9f1234fc48adacc5369df736d" target="_top" xlink:title="CScriptArray::SetMemoryFunctions">
<polygon fill="white" stroke="black" points="477,-38.5 477,-57.5 648,-57.5 648,-38.5 477,-38.5"/>
<text text-anchor="middle" x="562.5" y="-45.5" font-family="Helvetica,sans-Serif" font-size="10.00">CScriptArray::SetMemoryFunctions</text>
</a>
</g>
</g>
<!-- Node193&#45;&gt;Node194 -->
<g id="edge3" class="edge"><title>Node193&#45;&gt;Node194</title>
<path fill="none" stroke="midnightblue" d="M451.13,-35.6645C459.497,-36.5997 468.225,-37.5751 476.946,-38.5499"/>
<polygon fill="midnightblue" stroke="midnightblue" points="451.455,-32.1791 441.128,-34.5467 450.677,-39.1358 451.455,-32.1791"/>
</g>
<!-- Node195 -->
<g id="node5" class="node"><title>Node195</title>
<g id="a_node5"><a xlink:href="../../d9/dd7/scriptarray_8h.html#ac97e4fe44bf13c876d66eadb481369da" target="_top" xlink:title="RegisterScriptArray">
<polygon fill="white" stroke="black" points="512,-0.5 512,-19.5 613,-19.5 613,-0.5 512,-0.5"/>
<text text-anchor="middle" x="562.5" y="-7.5" font-family="Helvetica,sans-Serif" font-size="10.00">RegisterScriptArray</text>
</a>
</g>
</g>
<!-- Node193&#45;&gt;Node195 -->
<g id="edge4" class="edge"><title>Node193&#45;&gt;Node195</title>
<path fill="none" stroke="midnightblue" d="M451.269,-22.3199C471.061,-20.1079 492.86,-17.6716 511.81,-15.5536"/>
<polygon fill="midnightblue" stroke="midnightblue" points="450.677,-18.8642 441.128,-23.4533 451.455,-25.8209 450.677,-18.8642"/>
</g>
<!-- Node196 -->
<g id="node6" class="node"><title>Node196</title>
<g id="a_node6"><a xlink:href="../../d4/d5f/_script_engine_8cpp.html#a72e7735b6ca109323b2aa797f7b7b45d" target="_top" xlink:title="logString">
<polygon fill="white" stroke="black" points="684,-0.5 684,-19.5 739,-19.5 739,-0.5 684,-0.5"/>
<text text-anchor="middle" x="711.5" y="-7.5" font-family="Helvetica,sans-Serif" font-size="10.00">logString</text>
</a>
</g>
</g>
<!-- Node195&#45;&gt;Node196 -->
<g id="edge5" class="edge"><title>Node195&#45;&gt;Node196</title>
<path fill="none" stroke="midnightblue" d="M623.433,-10C644.457,-10 667.015,-10 683.901,-10"/>
<polygon fill="midnightblue" stroke="midnightblue" points="623.268,-6.5001 613.267,-10 623.267,-13.5001 623.268,-6.5001"/>
</g>
</g>
</svg>
