<?xml version="1.0" encoding="UTF-8" standalone="no"?>
<!DOCTYPE svg PUBLIC "-//W3C//DTD SVG 1.1//EN"
 "http://www.w3.org/Graphics/SVG/1.1/DTD/svg11.dtd">
<!-- Generated by graphviz version 2.38.0 (20140413.2041)
 -->
<!-- Title: CScriptArray::ReleaseAllHandles Pages: 1 -->
<svg width="751pt" height="66pt"
 viewBox="0.00 0.00 751.00 66.00" xmlns="http://www.w3.org/2000/svg" xmlns:xlink="http://www.w3.org/1999/xlink">
<g id="graph0" class="graph" transform="scale(1 1) rotate(0) translate(4 62)">
<title>CScriptArray::ReleaseAllHandles</title>
<polygon fill="white" stroke="none" points="-4,4 -4,-62 747,-62 747,4 -4,4"/>
<!-- Node170 -->
<g id="node1" class="node"><title>Node170</title>
<polygon fill="#bfbfbf" stroke="black" points="0,-14 0,-44 125,-44 125,-14 0,-14"/>
<text text-anchor="start" x="8" y="-32" font-family="Helvetica,sans-Serif" font-size="10.00">CScriptArray::ReleaseAll</text>
<text text-anchor="middle" x="62.5" y="-21" font-family="Helvetica,sans-Serif" font-size="10.00">Handles</text>
</g>
<!-- Node171 -->
<g id="node2" class="node"><title>Node171</title>
<g id="a_node2"><a xlink:href="../../d7/d58/scriptarray_8cpp.html#a46e30461188d9773eeef37ae6987a40f" target="_top" xlink:title="ScriptArrayReleaseAllHandles\l_Generic">
<polygon fill="white" stroke="black" points="161,-14 161,-44 308,-44 308,-14 161,-14"/>
<text text-anchor="start" x="169" y="-32" font-family="Helvetica,sans-Serif" font-size="10.00">ScriptArrayReleaseAllHandles</text>
<text text-anchor="middle" x="234.5" y="-21" font-family="Helvetica,sans-Serif" font-size="10.00">_Generic</text>
</a>
</g>
</g>
<!-- Node170&#45;&gt;Node171 -->
<g id="edge1" class="edge"><title>Node170&#45;&gt;Node171</title>
<path fill="none" stroke="midnightblue" d="M135.447,-29C143.809,-29 152.344,-29 160.718,-29"/>
<polygon fill="midnightblue" stroke="midnightblue" points="135.355,-25.5001 125.355,-29 135.355,-32.5001 135.355,-25.5001"/>
</g>
<!-- Node172 -->
<g id="node3" class="node"><title>Node172</title>
<g id="a_node3"><a xlink:href="../../d7/d58/scriptarray_8cpp.html#a3f10cc670a493480c2a665a984710480" target="_top" xlink:title="RegisterScriptArray\l_Generic">
<polygon fill="white" stroke="black" points="344,-14 344,-44 445,-44 445,-14 344,-14"/>
<text text-anchor="start" x="352" y="-32" font-family="Helvetica,sans-Serif" font-size="10.00">RegisterScriptArray</text>
<text text-anchor="middle" x="394.5" y="-21" font-family="Helvetica,sans-Serif" font-size="10.00">_Generic</text>
</a>
</g>
</g>
<!-- Node171&#45;&gt;Node172 -->
<g id="edge2" class="edge"><title>Node171&#45;&gt;Node172</title>
<path fill="none" stroke="midnightblue" d="M318.031,-29C326.89,-29 335.691,-29 343.985,-29"/>
<polygon fill="midnightblue" stroke="midnightblue" points="318.026,-25.5001 308.026,-29 318.026,-32.5001 318.026,-25.5001"/>
</g>
<!-- Node173 -->
<g id="node4" class="node"><title>Node173</title>
<g id="a_node4"><a xlink:href="../../d8/d22/class_c_script_array.html#a04daa9f9f1234fc48adacc5369df736d" target="_top" xlink:title="CScriptArray::SetMemoryFunctions">
<polygon fill="white" stroke="black" points="481,-38.5 481,-57.5 652,-57.5 652,-38.5 481,-38.5"/>
<text text-anchor="middle" x="566.5" y="-45.5" font-family="Helvetica,sans-Serif" font-size="10.00">CScriptArray::SetMemoryFunctions</text>
</a>
</g>
</g>
<!-- Node172&#45;&gt;Node173 -->
<g id="edge3" class="edge"><title>Node172&#45;&gt;Node173</title>
<path fill="none" stroke="midnightblue" d="M455.13,-35.6645C463.497,-36.5997 472.225,-37.5751 480.946,-38.5499"/>
<polygon fill="midnightblue" stroke="midnightblue" points="455.455,-32.1791 445.128,-34.5467 454.677,-39.1358 455.455,-32.1791"/>
</g>
<!-- Node174 -->
<g id="node5" class="node"><title>Node174</title>
<g id="a_node5"><a xlink:href="../../d9/dd7/scriptarray_8h.html#ac97e4fe44bf13c876d66eadb481369da" target="_top" xlink:title="RegisterScriptArray">
<polygon fill="white" stroke="black" points="516,-0.5 516,-19.5 617,-19.5 617,-0.5 516,-0.5"/>
<text text-anchor="middle" x="566.5" y="-7.5" font-family="Helvetica,sans-Serif" font-size="10.00">RegisterScriptArray</text>
</a>
</g>
</g>
<!-- Node172&#45;&gt;Node174 -->
<g id="edge4" class="edge"><title>Node172&#45;&gt;Node174</title>
<path fill="none" stroke="midnightblue" d="M455.269,-22.3199C475.061,-20.1079 496.86,-17.6716 515.81,-15.5536"/>
<polygon fill="midnightblue" stroke="midnightblue" points="454.677,-18.8642 445.128,-23.4533 455.455,-25.8209 454.677,-18.8642"/>
</g>
<!-- Node175 -->
<g id="node6" class="node"><title>Node175</title>
<g id="a_node6"><a xlink:href="../../d4/d5f/_script_engine_8cpp.html#a72e7735b6ca109323b2aa797f7b7b45d" target="_top" xlink:title="logString">
<polygon fill="white" stroke="black" points="688,-0.5 688,-19.5 743,-19.5 743,-0.5 688,-0.5"/>
<text text-anchor="middle" x="715.5" y="-7.5" font-family="Helvetica,sans-Serif" font-size="10.00">logString</text>
</a>
</g>
</g>
<!-- Node174&#45;&gt;Node175 -->
<g id="edge5" class="edge"><title>Node174&#45;&gt;Node175</title>
<path fill="none" stroke="midnightblue" d="M627.433,-10C648.457,-10 671.015,-10 687.901,-10"/>
<polygon fill="midnightblue" stroke="midnightblue" points="627.268,-6.5001 617.267,-10 627.267,-13.5001 627.268,-6.5001"/>
</g>
</g>
</svg>
