<?xml version="1.0" encoding="UTF-8" standalone="no"?>
<!DOCTYPE svg PUBLIC "-//W3C//DTD SVG 1.1//EN"
 "http://www.w3.org/Graphics/SVG/1.1/DTD/svg11.dtd">
<!-- Generated by graphviz version 2.38.0 (20140413.2041)
 -->
<!-- Title: CScriptArray::EnumReferences Pages: 1 -->
<svg width="771pt" height="66pt"
 viewBox="0.00 0.00 771.00 66.00" xmlns="http://www.w3.org/2000/svg" xmlns:xlink="http://www.w3.org/1999/xlink">
<g id="graph0" class="graph" transform="scale(1 1) rotate(0) translate(4 62)">
<title>CScriptArray::EnumReferences</title>
<polygon fill="white" stroke="none" points="-4,4 -4,-62 767,-62 767,4 -4,4"/>
<!-- Node72 -->
<g id="node1" class="node"><title>Node72</title>
<polygon fill="#bfbfbf" stroke="black" points="0,-19.5 0,-38.5 152,-38.5 152,-19.5 0,-19.5"/>
<text text-anchor="middle" x="76" y="-26.5" font-family="Helvetica,sans-Serif" font-size="10.00">CScriptArray::EnumReferences</text>
</g>
<!-- Node73 -->
<g id="node2" class="node"><title>Node73</title>
<g id="a_node2"><a xlink:href="../../d7/d58/scriptarray_8cpp.html#af91dcd8a248fb548a6ac2bbadba75810" target="_top" xlink:title="ScriptArrayEnumReferences\l_Generic">
<polygon fill="white" stroke="black" points="188,-14 188,-44 328,-44 328,-14 188,-14"/>
<text text-anchor="start" x="196" y="-32" font-family="Helvetica,sans-Serif" font-size="10.00">ScriptArrayEnumReferences</text>
<text text-anchor="middle" x="258" y="-21" font-family="Helvetica,sans-Serif" font-size="10.00">_Generic</text>
</a>
</g>
</g>
<!-- Node72&#45;&gt;Node73 -->
<g id="edge1" class="edge"><title>Node72&#45;&gt;Node73</title>
<path fill="none" stroke="midnightblue" d="M162.11,-29C170.733,-29 179.417,-29 187.843,-29"/>
<polygon fill="midnightblue" stroke="midnightblue" points="162.033,-25.5001 152.033,-29 162.033,-32.5001 162.033,-25.5001"/>
</g>
<!-- Node74 -->
<g id="node3" class="node"><title>Node74</title>
<g id="a_node3"><a xlink:href="../../d7/d58/scriptarray_8cpp.html#a3f10cc670a493480c2a665a984710480" target="_top" xlink:title="RegisterScriptArray\l_Generic">
<polygon fill="white" stroke="black" points="364,-14 364,-44 465,-44 465,-14 364,-14"/>
<text text-anchor="start" x="372" y="-32" font-family="Helvetica,sans-Serif" font-size="10.00">RegisterScriptArray</text>
<text text-anchor="middle" x="414.5" y="-21" font-family="Helvetica,sans-Serif" font-size="10.00">_Generic</text>
</a>
</g>
</g>
<!-- Node73&#45;&gt;Node74 -->
<g id="edge2" class="edge"><title>Node73&#45;&gt;Node74</title>
<path fill="none" stroke="midnightblue" d="M338.321,-29C347.024,-29 355.691,-29 363.881,-29"/>
<polygon fill="midnightblue" stroke="midnightblue" points="338.116,-25.5001 328.116,-29 338.116,-32.5001 338.116,-25.5001"/>
</g>
<!-- Node75 -->
<g id="node4" class="node"><title>Node75</title>
<g id="a_node4"><a xlink:href="../../d8/d22/class_c_script_array.html#a04daa9f9f1234fc48adacc5369df736d" target="_top" xlink:title="CScriptArray::SetMemoryFunctions">
<polygon fill="white" stroke="black" points="501,-38.5 501,-57.5 672,-57.5 672,-38.5 501,-38.5"/>
<text text-anchor="middle" x="586.5" y="-45.5" font-family="Helvetica,sans-Serif" font-size="10.00">CScriptArray::SetMemoryFunctions</text>
</a>
</g>
</g>
<!-- Node74&#45;&gt;Node75 -->
<g id="edge3" class="edge"><title>Node74&#45;&gt;Node75</title>
<path fill="none" stroke="midnightblue" d="M475.13,-35.6645C483.497,-36.5997 492.225,-37.5751 500.946,-38.5499"/>
<polygon fill="midnightblue" stroke="midnightblue" points="475.455,-32.1791 465.128,-34.5467 474.677,-39.1358 475.455,-32.1791"/>
</g>
<!-- Node76 -->
<g id="node5" class="node"><title>Node76</title>
<g id="a_node5"><a xlink:href="../../d9/dd7/scriptarray_8h.html#ac97e4fe44bf13c876d66eadb481369da" target="_top" xlink:title="RegisterScriptArray">
<polygon fill="white" stroke="black" points="536,-0.5 536,-19.5 637,-19.5 637,-0.5 536,-0.5"/>
<text text-anchor="middle" x="586.5" y="-7.5" font-family="Helvetica,sans-Serif" font-size="10.00">RegisterScriptArray</text>
</a>
</g>
</g>
<!-- Node74&#45;&gt;Node76 -->
<g id="edge4" class="edge"><title>Node74&#45;&gt;Node76</title>
<path fill="none" stroke="midnightblue" d="M475.269,-22.3199C495.061,-20.1079 516.86,-17.6716 535.81,-15.5536"/>
<polygon fill="midnightblue" stroke="midnightblue" points="474.677,-18.8642 465.128,-23.4533 475.455,-25.8209 474.677,-18.8642"/>
</g>
<!-- Node77 -->
<g id="node6" class="node"><title>Node77</title>
<g id="a_node6"><a xlink:href="../../d4/d5f/_script_engine_8cpp.html#a72e7735b6ca109323b2aa797f7b7b45d" target="_top" xlink:title="logString">
<polygon fill="white" stroke="black" points="708,-0.5 708,-19.5 763,-19.5 763,-0.5 708,-0.5"/>
<text text-anchor="middle" x="735.5" y="-7.5" font-family="Helvetica,sans-Serif" font-size="10.00">logString</text>
</a>
</g>
</g>
<!-- Node76&#45;&gt;Node77 -->
<g id="edge5" class="edge"><title>Node76&#45;&gt;Node77</title>
<path fill="none" stroke="midnightblue" d="M647.433,-10C668.457,-10 691.015,-10 707.901,-10"/>
<polygon fill="midnightblue" stroke="midnightblue" points="647.268,-6.5001 637.267,-10 647.267,-13.5001 647.268,-6.5001"/>
</g>
</g>
</svg>
