<?xml version="1.0" encoding="UTF-8" standalone="no"?>
<!DOCTYPE svg PUBLIC "-//W3C//DTD SVG 1.1//EN"
 "http://www.w3.org/Graphics/SVG/1.1/DTD/svg11.dtd">
<!-- Generated by graphviz version 2.38.0 (20140413.2041)
 -->
<!-- Title: utf8::internal::mask16 Pages: 1 -->
<svg width="280pt" height="104pt"
 viewBox="0.00 0.00 280.00 104.00" xmlns="http://www.w3.org/2000/svg" xmlns:xlink="http://www.w3.org/1999/xlink">
<g id="graph0" class="graph" transform="scale(1 1) rotate(0) translate(4 100)">
<title>utf8::internal::mask16</title>
<polygon fill="white" stroke="none" points="-4,4 -4,-100 276,-100 276,4 -4,4"/>
<!-- Node1531 -->
<g id="node1" class="node"><title>Node1531</title>
<polygon fill="#bfbfbf" stroke="black" points="0,-38.5 0,-57.5 110,-57.5 110,-38.5 0,-38.5"/>
<text text-anchor="middle" x="55" y="-45.5" font-family="Helvetica,sans-Serif" font-size="10.00">utf8::internal::mask16</text>
</g>
<!-- Node1532 -->
<g id="node2" class="node"><title>Node1532</title>
<g id="a_node2"><a xlink:href="../../dd/de8/namespaceutf8.html#a13db09b6629724205302c623b76db028" target="_top" xlink:title="utf8::replace_invalid">
<polygon fill="white" stroke="black" points="158.5,-76.5 158.5,-95.5 259.5,-95.5 259.5,-76.5 158.5,-76.5"/>
<text text-anchor="middle" x="209" y="-83.5" font-family="Helvetica,sans-Serif" font-size="10.00">utf8::replace_invalid</text>
</a>
</g>
</g>
<!-- Node1531&#45;&gt;Node1532 -->
<g id="edge1" class="edge"><title>Node1531&#45;&gt;Node1532</title>
<path fill="none" stroke="midnightblue" d="M104.16,-60.04C125.395,-65.3488 149.995,-71.4988 169.92,-76.4799"/>
<polygon fill="midnightblue" stroke="midnightblue" points="104.906,-56.6189 94.356,-57.589 103.209,-63.4099 104.906,-56.6189"/>
</g>
<!-- Node1533 -->
<g id="node3" class="node"><title>Node1533</title>
<g id="a_node3"><a xlink:href="../../dd/de8/namespaceutf8.html#acb68503442bd2e797e8fc8a960f54cf8" target="_top" xlink:title="utf8::utf16to8">
<polygon fill="white" stroke="black" points="172.5,-38.5 172.5,-57.5 245.5,-57.5 245.5,-38.5 172.5,-38.5"/>
<text text-anchor="middle" x="209" y="-45.5" font-family="Helvetica,sans-Serif" font-size="10.00">utf8::utf16to8</text>
</a>
</g>
</g>
<!-- Node1531&#45;&gt;Node1533 -->
<g id="edge2" class="edge"><title>Node1531&#45;&gt;Node1533</title>
<path fill="none" stroke="midnightblue" d="M120.342,-48C138.1,-48 156.727,-48 172.222,-48"/>
<polygon fill="midnightblue" stroke="midnightblue" points="120.018,-44.5001 110.017,-48 120.017,-51.5001 120.018,-44.5001"/>
</g>
<!-- Node1534 -->
<g id="node4" class="node"><title>Node1534</title>
<g id="a_node4"><a xlink:href="../../d1/d1d/namespaceutf8_1_1unchecked.html#adfbd29a875d0aafeeaae511dc1aa5d77" target="_top" xlink:title="utf8::unchecked::utf16to8">
<polygon fill="white" stroke="black" points="146,-0.5 146,-19.5 272,-19.5 272,-0.5 146,-0.5"/>
<text text-anchor="middle" x="209" y="-7.5" font-family="Helvetica,sans-Serif" font-size="10.00">utf8::unchecked::utf16to8</text>
</a>
</g>
</g>
<!-- Node1531&#45;&gt;Node1534 -->
<g id="edge3" class="edge"><title>Node1531&#45;&gt;Node1534</title>
<path fill="none" stroke="midnightblue" d="M104.16,-35.96C125.395,-30.6512 149.995,-24.5012 169.92,-19.5201"/>
<polygon fill="midnightblue" stroke="midnightblue" points="103.209,-32.5901 94.356,-38.411 104.906,-39.3811 103.209,-32.5901"/>
</g>
</g>
</svg>
