<?xml version="1.0" encoding="UTF-8" standalone="no"?>
<!DOCTYPE svg PUBLIC "-//W3C//DTD SVG 1.1//EN"
 "http://www.w3.org/Graphics/SVG/1.1/DTD/svg11.dtd">
<!-- Generated by graphviz version 2.38.0 (20140413.2041)
 -->
<!-- Title: RigDef::Serializer::ProcessNodes Pages: 1 -->
<!--zoomable 165 -->
<svg id="main" version="1.1" xmlns="http://www.w3.org/2000/svg" xmlns:xlink="http://www.w3.org/1999/xlink" xml:space="preserve" onload="init(evt)">
<style type="text/css"><![CDATA[
.edge:hover path { stroke: red; }
.edge:hover polygon { stroke: red; fill: red; }
]]></style>
<script type="text/javascript"><![CDATA[
var edges = document.getElementsByTagName('g');
if (edges && edges.length) {
  for (var i=0;i<edges.length;i++) {
    if (edges[i].id.substr(0,4)=='edge') {
      edges[i].setAttribute('class','edge');
    }
  }
}
]]></script>
        <defs>
                <circle id="rim" cx="0" cy="0" r="7"/>
                <circle id="rim2" cx="0" cy="0" r="3.5"/>
                <g id="zoomPlus">
                        <use xlink:href="#rim" fill="#404040">
                                <set attributeName="fill" to="#808080" begin="zoomplus.mouseover" end="zoomplus.mouseout"/>
                        </use>
                        <path d="M-4,0h8M0,-4v8" fill="none" stroke="white" stroke-width="1.5" pointer-events="none"/>
                </g>
                <g id="zoomMin">
                        <use xlink:href="#rim" fill="#404040">
                                <set attributeName="fill" to="#808080" begin="zoomminus.mouseover" end="zoomminus.mouseout"/>
                        </use>
                        <path d="M-4,0h8" fill="none" stroke="white" stroke-width="1.5" pointer-events="none"/>
                </g>
                <g id="dirArrow">
                        <path fill="none" stroke="white" stroke-width="1.5" d="M0,-3.0v7 M-2.5,-0.5L0,-3.0L2.5,-0.5"/>
                </g>
               <g id="resetDef">
                       <use xlink:href="#rim2" fill="#404040">
                               <set attributeName="fill" to="#808080" begin="reset.mouseover" end="reset.mouseout"/>
                       </use>
               </g>
        </defs>

<script type="text/javascript">
var viewWidth = 570;
var viewHeight = 165;
var sectionId = 'dynsection-54';
</script>
<script xlink:href="../../svgpan.js"/>
<svg id="graph" class="graph">
<g id="viewport">
<title>RigDef::Serializer::ProcessNodes</title>
<polygon fill="white" stroke="none" points="-4,4 -4,-160.5 566,-160.5 566,4 -4,4"/>
<!-- Node166 -->
<g id="node1" class="node"><title>Node166</title>
<polygon fill="#bfbfbf" stroke="black" points="0,-71.5 0,-101.5 92,-101.5 92,-71.5 0,-71.5"/>
<text text-anchor="start" x="8" y="-89.5" font-family="Helvetica,sans-Serif" font-size="10.00">RigDef::Serializer</text>
<text text-anchor="middle" x="46" y="-78.5" font-family="Helvetica,sans-Serif" font-size="10.00">::ProcessNodes</text>
</g>
<!-- Node167 -->
<g id="node2" class="node"><title>Node167</title>
<g id="a_node2"><a xlink:href="../../de/db5/class_rig_def_1_1_node_1_1_id.html#a043ed90f247e9501bd275a43f625d69e" target="_top" xlink:title="RigDef::Node::Id::Str">
<polygon fill="white" stroke="black" points="133,-137 133,-156 239,-156 239,-137 133,-137"/>
<text text-anchor="middle" x="186" y="-144" font-family="Helvetica,sans-Serif" font-size="10.00">RigDef::Node::Id::Str</text>
</a>
</g>
</g>
<!-- Node166&#45;&gt;Node167 -->
<g id="edge1" class="edge"><title>Node166&#45;&gt;Node167</title>
<path fill="none" stroke="midnightblue" d="M74.2696,-101.566C89.7626,-109.803 109.671,-119.855 128,-127.5 133.114,-129.633 138.561,-131.699 143.981,-133.634"/>
<polygon fill="midnightblue" stroke="midnightblue" points="143.038,-137.011 153.632,-136.962 145.319,-130.393 143.038,-137.011"/>
</g>
<!-- Node168 -->
<g id="node3" class="node"><title>Node168</title>
<g id="a_node3"><a xlink:href="../../de/db5/class_rig_def_1_1_node_1_1_id.html#aa25736a01a4ca045abbd01c08c825e31" target="_top" xlink:title="RigDef::Node::Id::Num">
<polygon fill="white" stroke="black" points="129.5,-99 129.5,-118 242.5,-118 242.5,-99 129.5,-99"/>
<text text-anchor="middle" x="186" y="-106" font-family="Helvetica,sans-Serif" font-size="10.00">RigDef::Node::Id::Num</text>
</a>
</g>
</g>
<!-- Node166&#45;&gt;Node168 -->
<g id="edge2" class="edge"><title>Node166&#45;&gt;Node168</title>
<path fill="none" stroke="midnightblue" d="M92.1864,-93.7036C100.753,-95.0694 109.878,-96.5241 118.936,-97.968"/>
<polygon fill="midnightblue" stroke="midnightblue" points="118.674,-101.47 129.1,-99.5884 119.776,-94.5577 118.674,-101.47"/>
</g>
<!-- Node172 -->
<g id="node7" class="node"><title>Node172</title>
<g id="a_node7"><a xlink:href="../../db/d08/class_rig_def_1_1_serializer.html#a3ade0fe6ada67faf9374877081daf9d4" target="_top" xlink:title="RigDef::Serializer\l::ProcessNodeDefaults">
<polygon fill="white" stroke="black" points="128,-0.5 128,-30.5 244,-30.5 244,-0.5 128,-0.5"/>
<text text-anchor="start" x="136" y="-18.5" font-family="Helvetica,sans-Serif" font-size="10.00">RigDef::Serializer</text>
<text text-anchor="middle" x="186" y="-7.5" font-family="Helvetica,sans-Serif" font-size="10.00">::ProcessNodeDefaults</text>
</a>
</g>
</g>
<!-- Node166&#45;&gt;Node172 -->
<g id="edge6" class="edge"><title>Node166&#45;&gt;Node172</title>
<path fill="none" stroke="midnightblue" d="M71.0138,-71.4847C86.9027,-61.8214 108.354,-49.2863 128,-39.5 131.268,-37.8723 134.673,-36.2536 138.121,-34.6702"/>
<polygon fill="midnightblue" stroke="midnightblue" points="139.581,-37.8516 147.286,-30.5796 136.728,-31.4594 139.581,-37.8516"/>
</g>
<!-- Node174 -->
<g id="node9" class="node"><title>Node174</title>
<g id="a_node9"><a xlink:href="../../db/d08/class_rig_def_1_1_serializer.html#a3380d217628f4e98d4b83db314de6fae" target="_top" xlink:title="RigDef::Serializer\l::ProcessNode">
<polygon fill="white" stroke="black" points="140,-49.5 140,-79.5 232,-79.5 232,-49.5 140,-49.5"/>
<text text-anchor="start" x="148" y="-67.5" font-family="Helvetica,sans-Serif" font-size="10.00">RigDef::Serializer</text>
<text text-anchor="middle" x="186" y="-56.5" font-family="Helvetica,sans-Serif" font-size="10.00">::ProcessNode</text>
</a>
</g>
</g>
<!-- Node166&#45;&gt;Node174 -->
<g id="edge8" class="edge"><title>Node166&#45;&gt;Node174</title>
<path fill="none" stroke="midnightblue" d="M92.1864,-79.2964C104.1,-77.3971 117.094,-75.3257 129.484,-73.3505"/>
<polygon fill="midnightblue" stroke="midnightblue" points="130.388,-76.7506 139.712,-71.7198 129.286,-69.8379 130.388,-76.7506"/>
</g>
<!-- Node169 -->
<g id="node4" class="node"><title>Node169</title>
<g id="a_node4"><a xlink:href="../../de/db5/class_rig_def_1_1_node_1_1_id.html#aa44f90fa58c88412b19a3500a8c8866c" target="_top" xlink:title="RigDef::Node::Id::Invalidate">
<polygon fill="white" stroke="black" points="280,-99 280,-118 413,-118 413,-99 280,-99"/>
<text text-anchor="middle" x="346.5" y="-106" font-family="Helvetica,sans-Serif" font-size="10.00">RigDef::Node::Id::Invalidate</text>
</a>
</g>
</g>
<!-- Node168&#45;&gt;Node169 -->
<g id="edge3" class="edge"><title>Node168&#45;&gt;Node169</title>
<path fill="none" stroke="midnightblue" d="M242.881,-108.5C251.559,-108.5 260.646,-108.5 269.675,-108.5"/>
<polygon fill="midnightblue" stroke="midnightblue" points="269.818,-112 279.818,-108.5 269.818,-105 269.818,-112"/>
</g>
<!-- Node170 -->
<g id="node5" class="node"><title>Node170</title>
<g id="a_node5"><a xlink:href="../../de/db5/class_rig_def_1_1_node_1_1_id.html#ad1f6fc5f5438b596e3296582154341fc" target="_top" xlink:title="RigDef::Node::Id::ToString">
<polygon fill="white" stroke="black" points="282,-58 282,-77 411,-77 411,-58 282,-58"/>
<text text-anchor="middle" x="346.5" y="-65" font-family="Helvetica,sans-Serif" font-size="10.00">RigDef::Node::Id::ToString</text>
</a>
</g>
</g>
<!-- Node168&#45;&gt;Node170 -->
<g id="edge4" class="edge"><title>Node168&#45;&gt;Node170</title>
<path fill="none" stroke="midnightblue" d="M223.761,-98.9907C246.087,-93.2157 274.799,-85.7886 298.732,-79.5977"/>
<polygon fill="midnightblue" stroke="midnightblue" points="299.859,-82.9215 308.664,-77.0286 298.106,-76.1446 299.859,-82.9215"/>
</g>
<!-- Node171 -->
<g id="node6" class="node"><title>Node171</title>
<g id="a_node6"><a xlink:href="../../d2/dad/class_rig_def_1_1_node_1_1_ref.html#a1d96ed1deceb63351be15c250a67ea08" target="_top" xlink:title="RigDef::Node::Ref::Str">
<polygon fill="white" stroke="black" points="449,-58 449,-77 562,-77 562,-58 449,-58"/>
<text text-anchor="middle" x="505.5" y="-65" font-family="Helvetica,sans-Serif" font-size="10.00">RigDef::Node::Ref::Str</text>
</a>
</g>
</g>
<!-- Node170&#45;&gt;Node171 -->
<g id="edge5" class="edge"><title>Node170&#45;&gt;Node171</title>
<path fill="none" stroke="midnightblue" d="M411.358,-67.5C420.363,-67.5 429.635,-67.5 438.677,-67.5"/>
<polygon fill="midnightblue" stroke="midnightblue" points="438.761,-71.0001 448.761,-67.5 438.761,-64.0001 438.761,-71.0001"/>
</g>
<!-- Node173 -->
<g id="node8" class="node"><title>Node173</title>
<g id="a_node8"><a xlink:href="../../db/d08/class_rig_def_1_1_serializer.html#aa11d814db6fa5b7c1d3549641a432f06" target="_top" xlink:title="RigDef::Serializer\l::ProcessNodeOptions">
<polygon fill="white" stroke="black" points="289,-6.5 289,-36.5 404,-36.5 404,-6.5 289,-6.5"/>
<text text-anchor="start" x="297" y="-24.5" font-family="Helvetica,sans-Serif" font-size="10.00">RigDef::Serializer</text>
<text text-anchor="middle" x="346.5" y="-13.5" font-family="Helvetica,sans-Serif" font-size="10.00">::ProcessNodeOptions</text>
</a>
</g>
</g>
<!-- Node172&#45;&gt;Node173 -->
<g id="edge7" class="edge"><title>Node172&#45;&gt;Node173</title>
<path fill="none" stroke="midnightblue" d="M244.222,-17.6661C255.47,-18.0919 267.36,-18.542 278.885,-18.9783"/>
<polygon fill="midnightblue" stroke="midnightblue" points="278.768,-22.4763 288.893,-19.3572 279.033,-15.4813 278.768,-22.4763"/>
</g>
<!-- Node174&#45;&gt;Node170 -->
<g id="edge9" class="edge"><title>Node174&#45;&gt;Node170</title>
<path fill="none" stroke="midnightblue" d="M232.42,-65.3597C244.666,-65.5915 258.24,-65.8484 271.609,-66.1014"/>
<polygon fill="midnightblue" stroke="midnightblue" points="271.703,-69.6037 281.767,-66.2937 271.835,-62.605 271.703,-69.6037"/>
</g>
<!-- Node174&#45;&gt;Node173 -->
<g id="edge10" class="edge"><title>Node174&#45;&gt;Node173</title>
<path fill="none" stroke="midnightblue" d="M232.42,-52.1779C247.268,-48.1498 264.066,-43.5925 280.086,-39.2464"/>
<polygon fill="midnightblue" stroke="midnightblue" points="281.201,-42.5705 289.936,-36.5742 279.368,-35.8147 281.201,-42.5705"/>
</g>
</g>
</svg>
        <g id="navigator" transform="translate(0 0)" fill="#404254">
                <rect fill="#f2f5e9" fill-opacity="0.5" stroke="#606060" stroke-width=".5" x="0" y="0" width="60" height="60"/>
                <use id="zoomplus" xlink:href="#zoomPlus" x="17" y="9" onmousedown="handleZoom(evt,'in')"/>
                <use id="zoomminus" xlink:href="#zoomMin" x="42" y="9" onmousedown="handleZoom(evt,'out')"/>
                <use id="reset" xlink:href="#resetDef" x="30" y="36" onmousedown="handleReset()"/>
                <g id="arrowUp" xlink:href="#dirArrow" transform="translate(30 24)" onmousedown="handlePan(0,-1)">
                  <use xlink:href="#rim" fill="#404040">
                        <set attributeName="fill" to="#808080" begin="arrowUp.mouseover" end="arrowUp.mouseout"/>
                  </use>
                  <path fill="none" stroke="white" stroke-width="1.5" d="M0,-3.0v7 M-2.5,-0.5L0,-3.0L2.5,-0.5"/>
                </g>
                <g id="arrowRight" xlink:href="#dirArrow" transform="rotate(90) translate(36 -43)" onmousedown="handlePan(1,0)">
                  <use xlink:href="#rim" fill="#404040">
                        <set attributeName="fill" to="#808080" begin="arrowRight.mouseover" end="arrowRight.mouseout"/>
                  </use>
                  <path fill="none" stroke="white" stroke-width="1.5" d="M0,-3.0v7 M-2.5,-0.5L0,-3.0L2.5,-0.5"/>
                </g>
                <g id="arrowDown" xlink:href="#dirArrow" transform="rotate(180) translate(-30 -48)" onmousedown="handlePan(0,1)">
                  <use xlink:href="#rim" fill="#404040">
                        <set attributeName="fill" to="#808080" begin="arrowDown.mouseover" end="arrowDown.mouseout"/>
                  </use>
                  <path fill="none" stroke="white" stroke-width="1.5" d="M0,-3.0v7 M-2.5,-0.5L0,-3.0L2.5,-0.5"/>
                </g>
                <g id="arrowLeft" xlink:href="#dirArrow" transform="rotate(270) translate(-36 17)" onmousedown="handlePan(-1,0)">
                  <use xlink:href="#rim" fill="#404040">
                        <set attributeName="fill" to="#808080" begin="arrowLeft.mouseover" end="arrowLeft.mouseout"/>
                  </use>
                  <path fill="none" stroke="white" stroke-width="1.5" d="M0,-3.0v7 M-2.5,-0.5L0,-3.0L2.5,-0.5"/>
                </g>
        </g>
        <svg viewBox="0 0 15 15" width="100%" height="30px" preserveAspectRatio="xMaxYMin meet">
         <g id="arrow_out" transform="scale(0.3 0.3)">
          <a xlink:href="class_rig_def_1_1_serializer_a8c9186f75ca10d02b4557395a8076f02_cgraph_org.svg" target="_base">
           <rect id="button" ry="5" rx="5" y="6" x="6" height="38" width="38"
                fill="#f2f5e9" fill-opacity="0.5" stroke="#606060" stroke-width="1.0"/>
           <path id="arrow"
             d="M 11.500037,31.436501 C 11.940474,20.09759 22.043105,11.32322 32.158766,21.979434 L 37.068811,17.246167 C 37.068811,17.246167 37.088388,32 37.088388,32 L 22.160133,31.978069 C 22.160133,31.978069 26.997745,27.140456 26.997745,27.140456 C 18.528582,18.264221 13.291696,25.230495 11.500037,31.436501 z"
             style="fill:#404040;"/>
          </a>
         </g>
        </svg>
</svg>
