<?xml version="1.0" encoding="UTF-8" standalone="no"?>
<!DOCTYPE svg PUBLIC "-//W3C//DTD SVG 1.1//EN"
 "http://www.w3.org/Graphics/SVG/1.1/DTD/svg11.dtd">
<!-- Generated by graphviz version 2.38.0 (20140413.2041)
 -->
<!-- Title: RigDef::Serializer::ProcessFlexBodyWheels Pages: 1 -->
<svg width="269pt" height="39pt"
 viewBox="0.00 0.00 269.00 39.00" xmlns="http://www.w3.org/2000/svg" xmlns:xlink="http://www.w3.org/1999/xlink">
<g id="graph0" class="graph" transform="scale(1 1) rotate(0) translate(4 35)">
<title>RigDef::Serializer::ProcessFlexBodyWheels</title>
<polygon fill="white" stroke="none" points="-4,4 -4,-35 265,-35 265,4 -4,4"/>
<!-- Node106 -->
<g id="node1" class="node"><title>Node106</title>
<polygon fill="#bfbfbf" stroke="black" points="0,-0.5 0,-30.5 133,-30.5 133,-0.5 0,-0.5"/>
<text text-anchor="start" x="8" y="-18.5" font-family="Helvetica,sans-Serif" font-size="10.00">RigDef::Serializer</text>
<text text-anchor="middle" x="66.5" y="-7.5" font-family="Helvetica,sans-Serif" font-size="10.00">::ProcessFlexBodyWheels</text>
</g>
<!-- Node107 -->
<g id="node2" class="node"><title>Node107</title>
<g id="a_node2"><a xlink:href="../../db/d08/class_rig_def_1_1_serializer.html#a0d25ba7124bac77109b3251d0d5014ec" target="_top" xlink:title="RigDef::Serializer\l::Serialize">
<polygon fill="white" stroke="black" points="169,-0.5 169,-30.5 261,-30.5 261,-0.5 169,-0.5"/>
<text text-anchor="start" x="177" y="-18.5" font-family="Helvetica,sans-Serif" font-size="10.00">RigDef::Serializer</text>
<text text-anchor="middle" x="215" y="-7.5" font-family="Helvetica,sans-Serif" font-size="10.00">::Serialize</text>
</a>
</g>
</g>
<!-- Node106&#45;&gt;Node107 -->
<g id="edge1" class="edge"><title>Node106&#45;&gt;Node107</title>
<path fill="none" stroke="midnightblue" d="M143.231,-15.5C151.921,-15.5 160.565,-15.5 168.672,-15.5"/>
<polygon fill="midnightblue" stroke="midnightblue" points="143.037,-12.0001 133.037,-15.5 143.037,-19.0001 143.037,-12.0001"/>
</g>
</g>
</svg>
