<?xml version="1.0" encoding="UTF-8" standalone="no"?>
<!DOCTYPE svg PUBLIC "-//W3C//DTD SVG 1.1//EN"
 "http://www.w3.org/Graphics/SVG/1.1/DTD/svg11.dtd">
<!-- Generated by graphviz version 2.38.0 (20140413.2041)
 -->
<!-- Title: RoR::ContentManager::exploreFolders Pages: 1 -->
<svg width="437pt" height="88pt"
 viewBox="0.00 0.00 437.00 88.00" xmlns="http://www.w3.org/2000/svg" xmlns:xlink="http://www.w3.org/1999/xlink">
<g id="graph0" class="graph" transform="scale(1 1) rotate(0) translate(4 84)">
<title>RoR::ContentManager::exploreFolders</title>
<polygon fill="white" stroke="none" points="-4,4 -4,-84 433,-84 433,4 -4,4"/>
<!-- Node19 -->
<g id="node1" class="node"><title>Node19</title>
<polygon fill="#bfbfbf" stroke="black" points="0,-24.5 0,-54.5 113,-54.5 113,-24.5 0,-24.5"/>
<text text-anchor="start" x="8" y="-42.5" font-family="Helvetica,sans-Serif" font-size="10.00">RoR::ContentManager</text>
<text text-anchor="middle" x="56.5" y="-31.5" font-family="Helvetica,sans-Serif" font-size="10.00">::exploreFolders</text>
</g>
<!-- Node20 -->
<g id="node2" class="node"><title>Node20</title>
<g id="a_node2"><a xlink:href="../../da/d05/class_ro_r_1_1_content_manager.html#afd91e67eae97f2a794e77a743b0a26ef" target="_top" xlink:title="RoR::ContentManager\l::OnApplicationStartup">
<polygon fill="white" stroke="black" points="149,-49.5 149,-79.5 264,-79.5 264,-49.5 149,-49.5"/>
<text text-anchor="start" x="157" y="-67.5" font-family="Helvetica,sans-Serif" font-size="10.00">RoR::ContentManager</text>
<text text-anchor="middle" x="206.5" y="-56.5" font-family="Helvetica,sans-Serif" font-size="10.00">::OnApplicationStartup</text>
</a>
</g>
</g>
<!-- Node19&#45;&gt;Node20 -->
<g id="edge1" class="edge"><title>Node19&#45;&gt;Node20</title>
<path fill="none" stroke="midnightblue" d="M122.985,-50.5616C131.549,-52.0082 140.266,-53.4808 148.671,-54.9005"/>
<polygon fill="midnightblue" stroke="midnightblue" points="123.474,-47.0948 113.031,-48.8802 122.308,-53.997 123.474,-47.0948"/>
</g>
<!-- Node23 -->
<g id="node5" class="node"><title>Node23</title>
<g id="a_node5"><a xlink:href="../../da/d05/class_ro_r_1_1_content_manager.html#a2d8d546a820463b02e67b24426f5b58c" target="_top" xlink:title="RoR::ContentManager\l::GetSkinManager">
<polygon fill="white" stroke="black" points="150,-0.5 150,-30.5 263,-30.5 263,-0.5 150,-0.5"/>
<text text-anchor="start" x="158" y="-18.5" font-family="Helvetica,sans-Serif" font-size="10.00">RoR::ContentManager</text>
<text text-anchor="middle" x="206.5" y="-7.5" font-family="Helvetica,sans-Serif" font-size="10.00">::GetSkinManager</text>
</a>
</g>
</g>
<!-- Node19&#45;&gt;Node23 -->
<g id="edge4" class="edge"><title>Node19&#45;&gt;Node23</title>
<path fill="none" stroke="midnightblue" d="M122.981,-28.8815C131.881,-27.4381 140.949,-25.9678 149.658,-24.5555"/>
<polygon fill="midnightblue" stroke="midnightblue" points="122.342,-25.4393 113.031,-30.495 123.462,-32.3491 122.342,-25.4393"/>
</g>
<!-- Node21 -->
<g id="node3" class="node"><title>Node21</title>
<g id="a_node3"><a xlink:href="../../df/d0a/main_8cpp.html#a0ddf1224851353fc92bfbff6f499fa97" target="_top" xlink:title="main">
<polygon fill="white" stroke="black" points="300,-55 300,-74 338,-74 338,-55 300,-55"/>
<text text-anchor="middle" x="319" y="-62" font-family="Helvetica,sans-Serif" font-size="10.00">main</text>
</a>
</g>
</g>
<!-- Node20&#45;&gt;Node21 -->
<g id="edge2" class="edge"><title>Node20&#45;&gt;Node21</title>
<path fill="none" stroke="midnightblue" d="M274.296,-64.5C283.626,-64.5 292.496,-64.5 299.776,-64.5"/>
<polygon fill="midnightblue" stroke="midnightblue" points="274.045,-61.0001 264.045,-64.5 274.045,-68.0001 274.045,-61.0001"/>
</g>
<!-- Node22 -->
<g id="node4" class="node"><title>Node22</title>
<g id="a_node4"><a xlink:href="../../df/d0a/main_8cpp.html#a2922bc5d5c2d77a3020cfbf9df12aab0" target="_top" xlink:title="WinMain">
<polygon fill="white" stroke="black" points="374,-55 374,-74 429,-74 429,-55 374,-55"/>
<text text-anchor="middle" x="401.5" y="-62" font-family="Helvetica,sans-Serif" font-size="10.00">WinMain</text>
</a>
</g>
</g>
<!-- Node21&#45;&gt;Node22 -->
<g id="edge3" class="edge"><title>Node21&#45;&gt;Node22</title>
<path fill="none" stroke="midnightblue" d="M348.519,-64.5C356.73,-64.5 365.653,-64.5 373.752,-64.5"/>
<polygon fill="midnightblue" stroke="midnightblue" points="348.267,-61.0001 338.267,-64.5 348.267,-68.0001 348.267,-61.0001"/>
</g>
</g>
</svg>
