<?xml version="1.0" encoding="UTF-8" standalone="no"?>
<!DOCTYPE svg PUBLIC "-//W3C//DTD SVG 1.1//EN"
 "http://www.w3.org/Graphics/SVG/1.1/DTD/svg11.dtd">
<!-- Generated by graphviz version 2.38.0 (20140413.2041)
 -->
<!-- Title: RoR::ContentManager::AddResourcePack Pages: 1 -->
<svg width="347pt" height="127pt"
 viewBox="0.00 0.00 347.00 127.00" xmlns="http://www.w3.org/2000/svg" xmlns:xlink="http://www.w3.org/1999/xlink">
<g id="graph0" class="graph" transform="scale(1 1) rotate(0) translate(4 123)">
<title>RoR::ContentManager::AddResourcePack</title>
<polygon fill="white" stroke="none" points="-4,4 -4,-123 343,-123 343,4 -4,4"/>
<!-- Node4 -->
<g id="node1" class="node"><title>Node4</title>
<polygon fill="#bfbfbf" stroke="black" points="0,-44.5 0,-74.5 113,-74.5 113,-44.5 0,-44.5"/>
<text text-anchor="start" x="8" y="-62.5" font-family="Helvetica,sans-Serif" font-size="10.00">RoR::ContentManager</text>
<text text-anchor="middle" x="56.5" y="-51.5" font-family="Helvetica,sans-Serif" font-size="10.00">::AddResourcePack</text>
</g>
<!-- Node5 -->
<g id="node2" class="node"><title>Node5</title>
<g id="a_node2"><a xlink:href="../../db/dab/struct_ro_r_1_1_platform_utils.html#a4cce0acacfc7fcb262da2e7abcc38355" target="_top" xlink:title="RoR::PlatformUtils\l::FileExists">
<polygon fill="white" stroke="black" points="149,-88.5 149,-118.5 246,-118.5 246,-88.5 149,-88.5"/>
<text text-anchor="start" x="157" y="-106.5" font-family="Helvetica,sans-Serif" font-size="10.00">RoR::PlatformUtils</text>
<text text-anchor="middle" x="197.5" y="-95.5" font-family="Helvetica,sans-Serif" font-size="10.00">::FileExists</text>
</a>
</g>
</g>
<!-- Node4&#45;&gt;Node5 -->
<g id="edge1" class="edge"><title>Node4&#45;&gt;Node5</title>
<path fill="none" stroke="midnightblue" d="M104.947,-74.5192C115.896,-77.9852 127.66,-81.7089 138.986,-85.2941"/>
<polygon fill="midnightblue" stroke="midnightblue" points="138.205,-88.7179 148.795,-88.3991 140.317,-82.0443 138.205,-88.7179"/>
</g>
<!-- Node6 -->
<g id="node3" class="node"><title>Node6</title>
<g id="a_node3"><a xlink:href="../../d9/da3/_application_8h.html#ac91efe9de379ef0fde6e0c6f369dfb35" target="_top" xlink:title="Legacy alias &#45; formerly a macro. ">
<polygon fill="white" stroke="black" points="179,-50 179,-69 216,-69 216,-50 179,-50"/>
<text text-anchor="middle" x="197.5" y="-57" font-family="Helvetica,sans-Serif" font-size="10.00">LOG</text>
</a>
</g>
</g>
<!-- Node4&#45;&gt;Node6 -->
<g id="edge2" class="edge"><title>Node4&#45;&gt;Node6</title>
<path fill="none" stroke="midnightblue" d="M113.236,-59.5C132.26,-59.5 152.717,-59.5 168.593,-59.5"/>
<polygon fill="midnightblue" stroke="midnightblue" points="168.779,-63.0001 178.779,-59.5 168.779,-56.0001 168.779,-63.0001"/>
</g>
<!-- Node8 -->
<g id="node5" class="node"><title>Node8</title>
<g id="a_node5"><a xlink:href="../../db/dab/struct_ro_r_1_1_platform_utils.html#a1bf4d0b15332a9d583e75b25d5b16cab" target="_top" xlink:title="RoR::PlatformUtils\l::FolderExists">
<polygon fill="white" stroke="black" points="149,-0.5 149,-30.5 246,-30.5 246,-0.5 149,-0.5"/>
<text text-anchor="start" x="157" y="-18.5" font-family="Helvetica,sans-Serif" font-size="10.00">RoR::PlatformUtils</text>
<text text-anchor="middle" x="197.5" y="-7.5" font-family="Helvetica,sans-Serif" font-size="10.00">::FolderExists</text>
</a>
</g>
</g>
<!-- Node4&#45;&gt;Node8 -->
<g id="edge4" class="edge"><title>Node4&#45;&gt;Node8</title>
<path fill="none" stroke="midnightblue" d="M104.947,-44.4808C115.896,-41.0148 127.66,-37.2911 138.986,-33.7059"/>
<polygon fill="midnightblue" stroke="midnightblue" points="140.317,-36.9557 148.795,-30.6009 138.205,-30.2821 140.317,-36.9557"/>
</g>
<!-- Node7 -->
<g id="node4" class="node"><title>Node7</title>
<g id="a_node4"><a xlink:href="../../dd/dd2/namespace_ro_r.html#a15fdb48aba128c41a9c75357c2282694" target="_top" xlink:title="The ultimate, application&#45;wide logging function. Adds a line (any length) in &#39;RoR.log&#39; file. ">
<polygon fill="white" stroke="black" points="282,-50 282,-69 339,-69 339,-50 282,-50"/>
<text text-anchor="middle" x="310.5" y="-57" font-family="Helvetica,sans-Serif" font-size="10.00">RoR::Log</text>
</a>
</g>
</g>
<!-- Node6&#45;&gt;Node7 -->
<g id="edge3" class="edge"><title>Node6&#45;&gt;Node7</title>
<path fill="none" stroke="midnightblue" d="M216.334,-59.5C231.226,-59.5 252.968,-59.5 271.704,-59.5"/>
<polygon fill="midnightblue" stroke="midnightblue" points="271.741,-63.0001 281.741,-59.5 271.741,-56.0001 271.741,-63.0001"/>
</g>
</g>
</svg>
