<?xml version="1.0" encoding="UTF-8" standalone="no"?>
<!DOCTYPE svg PUBLIC "-//W3C//DTD SVG 1.1//EN"
 "http://www.w3.org/Graphics/SVG/1.1/DTD/svg11.dtd">
<!-- Generated by graphviz version 2.38.0 (20140413.2041)
 -->
<!-- Title: RoR::ContentManager::AddResourcePack Pages: 1 -->
<svg width="786pt" height="101pt"
 viewBox="0.00 0.00 786.00 101.30" xmlns="http://www.w3.org/2000/svg" xmlns:xlink="http://www.w3.org/1999/xlink">
<g id="graph0" class="graph" transform="scale(1 1) rotate(0) translate(4 97.305)">
<title>RoR::ContentManager::AddResourcePack</title>
<polygon fill="white" stroke="none" points="-4,4 -4,-97.305 782,-97.305 782,4 -4,4"/>
<!-- Node9 -->
<g id="node1" class="node"><title>Node9</title>
<polygon fill="#bfbfbf" stroke="black" points="0,-44.5 0,-74.5 113,-74.5 113,-44.5 0,-44.5"/>
<text text-anchor="start" x="8" y="-62.5" font-family="Helvetica,sans-Serif" font-size="10.00">RoR::ContentManager</text>
<text text-anchor="middle" x="56.5" y="-51.5" font-family="Helvetica,sans-Serif" font-size="10.00">::AddResourcePack</text>
</g>
<!-- Node10 -->
<g id="node2" class="node"><title>Node10</title>
<g id="a_node2"><a xlink:href="../../df/d0a/main_8cpp.html#a0ddf1224851353fc92bfbff6f499fa97" target="_top" xlink:title="main">
<polygon fill="white" stroke="black" points="599,-50 599,-69 637,-69 637,-50 599,-50"/>
<text text-anchor="middle" x="618" y="-57" font-family="Helvetica,sans-Serif" font-size="10.00">main</text>
</a>
</g>
</g>
<!-- Node9&#45;&gt;Node10 -->
<g id="edge1" class="edge"><title>Node9&#45;&gt;Node10</title>
<path fill="none" stroke="midnightblue" d="M123.144,-70.2963C131.823,-71.5028 140.615,-72.6138 149,-73.5 309.943,-90.5088 352.201,-101.813 513,-83.5 543.562,-80.0193 578.218,-70.9613 598.808,-65.0226"/>
<polygon fill="midnightblue" stroke="midnightblue" points="123.434,-66.8022 113.038,-68.844 122.438,-73.731 123.434,-66.8022"/>
</g>
<!-- Node12 -->
<g id="node4" class="node"><title>Node12</title>
<g id="a_node4"><a xlink:href="../../da/d05/class_ro_r_1_1_content_manager.html#afd91e67eae97f2a794e77a743b0a26ef" target="_top" xlink:title="RoR::ContentManager\l::OnApplicationStartup">
<polygon fill="white" stroke="black" points="358.5,-44.5 358.5,-74.5 473.5,-74.5 473.5,-44.5 358.5,-44.5"/>
<text text-anchor="start" x="366.5" y="-62.5" font-family="Helvetica,sans-Serif" font-size="10.00">RoR::ContentManager</text>
<text text-anchor="middle" x="416" y="-51.5" font-family="Helvetica,sans-Serif" font-size="10.00">::OnApplicationStartup</text>
</a>
</g>
</g>
<!-- Node9&#45;&gt;Node12 -->
<g id="edge3" class="edge"><title>Node9&#45;&gt;Node12</title>
<path fill="none" stroke="midnightblue" d="M123.447,-59.5C190.874,-59.5 294.514,-59.5 358.353,-59.5"/>
<polygon fill="midnightblue" stroke="midnightblue" points="123.359,-56.0001 113.359,-59.5 123.359,-63.0001 123.359,-56.0001"/>
</g>
<!-- Node13 -->
<g id="node5" class="node"><title>Node13</title>
<g id="a_node5"><a xlink:href="../../da/d05/class_ro_r_1_1_content_manager.html#ae6150028ad80e4349d382256ba399377" target="_top" xlink:title="Checks GVar settings and loads required resources. ">
<polygon fill="white" stroke="black" points="149,-0.5 149,-30.5 283,-30.5 283,-0.5 149,-0.5"/>
<text text-anchor="start" x="157" y="-18.5" font-family="Helvetica,sans-Serif" font-size="10.00">RoR::ContentManager</text>
<text text-anchor="middle" x="216" y="-7.5" font-family="Helvetica,sans-Serif" font-size="10.00">::LoadGameplayResources</text>
</a>
</g>
</g>
<!-- Node9&#45;&gt;Node13 -->
<g id="edge5" class="edge"><title>Node9&#45;&gt;Node13</title>
<path fill="none" stroke="midnightblue" d="M121.258,-41.6882C134.514,-37.985 148.358,-34.1173 161.213,-30.5262"/>
<polygon fill="midnightblue" stroke="midnightblue" points="119.952,-38.4191 111.262,-44.4808 121.835,-45.161 119.952,-38.4191"/>
</g>
<!-- Node11 -->
<g id="node3" class="node"><title>Node11</title>
<g id="a_node3"><a xlink:href="../../df/d0a/main_8cpp.html#a2922bc5d5c2d77a3020cfbf9df12aab0" target="_top" xlink:title="WinMain">
<polygon fill="white" stroke="black" points="723,-50 723,-69 778,-69 778,-50 723,-50"/>
<text text-anchor="middle" x="750.5" y="-57" font-family="Helvetica,sans-Serif" font-size="10.00">WinMain</text>
</a>
</g>
</g>
<!-- Node10&#45;&gt;Node11 -->
<g id="edge2" class="edge"><title>Node10&#45;&gt;Node11</title>
<path fill="none" stroke="midnightblue" d="M647.393,-59.5C669.844,-59.5 700.959,-59.5 722.924,-59.5"/>
<polygon fill="midnightblue" stroke="midnightblue" points="647.146,-56.0001 637.145,-59.5 647.145,-63.0001 647.146,-56.0001"/>
</g>
<!-- Node12&#45;&gt;Node10 -->
<g id="edge4" class="edge"><title>Node12&#45;&gt;Node10</title>
<path fill="none" stroke="midnightblue" d="M483.636,-59.5C524.24,-59.5 573.134,-59.5 598.964,-59.5"/>
<polygon fill="midnightblue" stroke="midnightblue" points="483.51,-56.0001 473.51,-59.5 483.51,-63.0001 483.51,-56.0001"/>
</g>
<!-- Node14 -->
<g id="node6" class="node"><title>Node14</title>
<g id="a_node6"><a xlink:href="../../dd/dbe/class_ro_r_frame_listener.html#aca3931d7a75f2ad4b9d36c4fcd03a3c9" target="_top" xlink:title="RoRFrameListener::SetupGameplayLoop">
<polygon fill="white" stroke="black" points="319,-6 319,-25 513,-25 513,-6 319,-6"/>
<text text-anchor="middle" x="416" y="-13" font-family="Helvetica,sans-Serif" font-size="10.00">RoRFrameListener::SetupGameplayLoop</text>
</a>
</g>
</g>
<!-- Node13&#45;&gt;Node14 -->
<g id="edge6" class="edge"><title>Node13&#45;&gt;Node14</title>
<path fill="none" stroke="midnightblue" d="M293.299,-15.5C301.681,-15.5 310.292,-15.5 318.874,-15.5"/>
<polygon fill="midnightblue" stroke="midnightblue" points="293.206,-12.0001 283.206,-15.5 293.206,-19.0001 293.206,-12.0001"/>
</g>
<!-- Node14&#45;&gt;Node10 -->
<g id="edge8" class="edge"><title>Node14&#45;&gt;Node10</title>
<path fill="none" stroke="midnightblue" d="M477.234,-27.033C489.107,-29.4158 501.46,-31.9722 513,-34.5 543.112,-41.0962 577.902,-49.6498 598.641,-54.8487"/>
<polygon fill="midnightblue" stroke="midnightblue" points="477.892,-23.5954 467.401,-25.0766 476.526,-30.4609 477.892,-23.5954"/>
</g>
<!-- Node15 -->
<g id="node7" class="node"><title>Node15</title>
<g id="a_node7"><a xlink:href="../../dd/dbe/class_ro_r_frame_listener.html#ad598075b5f183208c0de43b9248bb44b" target="_top" xlink:title="RoRFrameListener::getTime">
<polygon fill="white" stroke="black" points="549,-6 549,-25 687,-25 687,-6 549,-6"/>
<text text-anchor="middle" x="618" y="-13" font-family="Helvetica,sans-Serif" font-size="10.00">RoRFrameListener::getTime</text>
</a>
</g>
</g>
<!-- Node14&#45;&gt;Node15 -->
<g id="edge7" class="edge"><title>Node14&#45;&gt;Node15</title>
<path fill="none" stroke="midnightblue" d="M523.326,-15.5C531.948,-15.5 540.506,-15.5 548.744,-15.5"/>
<polygon fill="midnightblue" stroke="midnightblue" points="523.192,-12.0001 513.192,-15.5 523.192,-19.0001 523.192,-12.0001"/>
</g>
</g>
</svg>
