<?xml version="1.0" encoding="UTF-8" standalone="no"?>
<!DOCTYPE svg PUBLIC "-//W3C//DTD SVG 1.1//EN"
 "http://www.w3.org/Graphics/SVG/1.1/DTD/svg11.dtd">
<!-- Generated by graphviz version 2.38.0 (20140413.2041)
 -->
<!-- Title: CacheSystem::resourceExistsInAllGroups Pages: 1 -->
<!--zoomable 338 -->
<svg id="main" version="1.1" xmlns="http://www.w3.org/2000/svg" xmlns:xlink="http://www.w3.org/1999/xlink" xml:space="preserve" onload="init(evt)">
<style type="text/css"><![CDATA[
.edge:hover path { stroke: red; }
.edge:hover polygon { stroke: red; fill: red; }
]]></style>
<script type="text/javascript"><![CDATA[
var edges = document.getElementsByTagName('g');
if (edges && edges.length) {
  for (var i=0;i<edges.length;i++) {
    if (edges[i].id.substr(0,4)=='edge') {
      edges[i].setAttribute('class','edge');
    }
  }
}
]]></script>
        <defs>
                <circle id="rim" cx="0" cy="0" r="7"/>
                <circle id="rim2" cx="0" cy="0" r="3.5"/>
                <g id="zoomPlus">
                        <use xlink:href="#rim" fill="#404040">
                                <set attributeName="fill" to="#808080" begin="zoomplus.mouseover" end="zoomplus.mouseout"/>
                        </use>
                        <path d="M-4,0h8M0,-4v8" fill="none" stroke="white" stroke-width="1.5" pointer-events="none"/>
                </g>
                <g id="zoomMin">
                        <use xlink:href="#rim" fill="#404040">
                                <set attributeName="fill" to="#808080" begin="zoomminus.mouseover" end="zoomminus.mouseout"/>
                        </use>
                        <path d="M-4,0h8" fill="none" stroke="white" stroke-width="1.5" pointer-events="none"/>
                </g>
                <g id="dirArrow">
                        <path fill="none" stroke="white" stroke-width="1.5" d="M0,-3.0v7 M-2.5,-0.5L0,-3.0L2.5,-0.5"/>
                </g>
               <g id="resetDef">
                       <use xlink:href="#rim2" fill="#404040">
                               <set attributeName="fill" to="#808080" begin="reset.mouseover" end="reset.mouseout"/>
                       </use>
               </g>
        </defs>

<script type="text/javascript">
var viewWidth = 1402;
var viewHeight = 338;
var sectionId = 'dynsection-90';
</script>
<script xlink:href="../../svgpan.js"/>
<svg id="graph" class="graph">
<g id="viewport">
<title>CacheSystem::resourceExistsInAllGroups</title>
<polygon fill="white" stroke="none" points="-4,4 -4,-334 1398,-334 1398,4 -4,4"/>
<!-- Node1207 -->
<g id="node1" class="node"><title>Node1207</title>
<polygon fill="#bfbfbf" stroke="black" points="0,-179 0,-209 149,-209 149,-179 0,-179"/>
<text text-anchor="start" x="8" y="-197" font-family="Helvetica,sans-Serif" font-size="10.00">CacheSystem::resourceExists</text>
<text text-anchor="middle" x="74.5" y="-186" font-family="Helvetica,sans-Serif" font-size="10.00">InAllGroups</text>
</g>
<!-- Node1208 -->
<g id="node2" class="node"><title>Node1208</title>
<g id="a_node2"><a xlink:href="../../d7/d35/class_cache_system.html#a51fe1554d751cdaeab716e7a4255bd8a" target="_top" xlink:title="Checks if update is needed. ">
<polygon fill="white" stroke="black" points="387,-310.5 387,-329.5 528,-329.5 528,-310.5 387,-310.5"/>
<text text-anchor="middle" x="457.5" y="-317.5" font-family="Helvetica,sans-Serif" font-size="10.00">CacheSystem::IsCacheValid</text>
</a>
</g>
</g>
<!-- Node1207&#45;&gt;Node1208 -->
<g id="edge1" class="edge"><title>Node1207&#45;&gt;Node1208</title>
<path fill="none" stroke="midnightblue" d="M105.781,-214.675C127.111,-228.409 156.786,-245.893 185,-257 253.099,-283.81 335.502,-300.931 391.535,-310.454"/>
<polygon fill="midnightblue" stroke="midnightblue" points="107.463,-211.593 97.1787,-209.048 103.631,-217.451 107.463,-211.593"/>
</g>
<!-- Node1213 -->
<g id="node7" class="node"><title>Node1213</title>
<g id="a_node7"><a xlink:href="../../d7/d35/class_cache_system.html#a737df1810a418779f48e0fd8fb669bc4" target="_top" xlink:title="CacheSystem::loadCache">
<polygon fill="white" stroke="black" points="195.5,-228.5 195.5,-247.5 325.5,-247.5 325.5,-228.5 195.5,-228.5"/>
<text text-anchor="middle" x="260.5" y="-235.5" font-family="Helvetica,sans-Serif" font-size="10.00">CacheSystem::loadCache</text>
</a>
</g>
</g>
<!-- Node1207&#45;&gt;Node1213 -->
<g id="edge7" class="edge"><title>Node1207&#45;&gt;Node1213</title>
<path fill="none" stroke="midnightblue" d="M148.248,-211.396C172.604,-217.221 198.844,-223.495 219.721,-228.488"/>
<polygon fill="midnightblue" stroke="midnightblue" points="148.848,-207.941 138.308,-209.019 147.219,-214.749 148.848,-207.941"/>
</g>
<!-- Node1216 -->
<g id="node10" class="node"><title>Node1216</title>
<g id="a_node10"><a xlink:href="../../d7/d35/class_cache_system.html#a20bd63ee907dd205ccef715db6dc9b5c" target="_top" xlink:title="CacheSystem::getUIDfromString">
<polygon fill="white" stroke="black" points="1145,-124.5 1145,-143.5 1303,-143.5 1303,-124.5 1145,-124.5"/>
<text text-anchor="middle" x="1224" y="-131.5" font-family="Helvetica,sans-Serif" font-size="10.00">CacheSystem::getUIDfromString</text>
</a>
</g>
</g>
<!-- Node1207&#45;&gt;Node1216 -->
<g id="edge12" class="edge"><title>Node1207&#45;&gt;Node1216</title>
<path fill="none" stroke="midnightblue" d="M159.4,-194C236.598,-194 354.265,-194 456.5,-194 456.5,-194 456.5,-194 845.5,-194 972.581,-194 1120.78,-160.426 1187.39,-143.507"/>
<polygon fill="midnightblue" stroke="midnightblue" points="159.252,-190.5 149.252,-194 159.252,-197.5 159.252,-190.5"/>
</g>
<!-- Node1217 -->
<g id="node11" class="node"><title>Node1217</title>
<g id="a_node11"><a xlink:href="../../d7/d35/class_cache_system.html#ac4859d57b61190b38e7f999ca09bf09e" target="_top" xlink:title="CacheSystem::detectFiles\lMiniType">
<polygon fill="white" stroke="black" points="778.5,-135 778.5,-165 910.5,-165 910.5,-135 778.5,-135"/>
<text text-anchor="start" x="786.5" y="-153" font-family="Helvetica,sans-Serif" font-size="10.00">CacheSystem::detectFiles</text>
<text text-anchor="middle" x="844.5" y="-142" font-family="Helvetica,sans-Serif" font-size="10.00">MiniType</text>
</a>
</g>
</g>
<!-- Node1207&#45;&gt;Node1217 -->
<g id="edge13" class="edge"><title>Node1207&#45;&gt;Node1217</title>
<path fill="none" stroke="midnightblue" d="M159.216,-182.584C167.913,-181.612 176.629,-180.725 185,-180 401.914,-161.224 660.107,-153.786 778.425,-151.205"/>
<polygon fill="midnightblue" stroke="midnightblue" points="158.57,-179.136 149.038,-183.761 159.373,-186.089 158.57,-179.136"/>
</g>
<!-- Node1219 -->
<g id="node13" class="node"><title>Node1219</title>
<g id="a_node13"><a xlink:href="../../d1/da8/class_rig_def_1_1_parser.html#a0950beb92131d37d8dcb82d4b1812990" target="_top" xlink:title="RigDef::Parser::ParseManaged\lMaterials">
<polygon fill="white" stroke="black" points="185,-52 185,-82 336,-82 336,-52 185,-52"/>
<text text-anchor="start" x="193" y="-70" font-family="Helvetica,sans-Serif" font-size="10.00">RigDef::Parser::ParseManaged</text>
<text text-anchor="middle" x="260.5" y="-59" font-family="Helvetica,sans-Serif" font-size="10.00">Materials</text>
</a>
</g>
</g>
<!-- Node1207&#45;&gt;Node1219 -->
<g id="edge17" class="edge"><title>Node1207&#45;&gt;Node1219</title>
<path fill="none" stroke="midnightblue" d="M105.751,-173.12C142.88,-147.493 204.931,-104.664 237.699,-82.0477"/>
<polygon fill="midnightblue" stroke="midnightblue" points="103.572,-170.372 97.3298,-178.933 107.548,-176.133 103.572,-170.372"/>
</g>
<!-- Node1209 -->
<g id="node3" class="node"><title>Node1209</title>
<g id="a_node3"><a xlink:href="../../d7/d35/class_cache_system.html#ae010322c2422bf8f8dbfce904257da31" target="_top" xlink:title="CacheSystem::Startup">
<polygon fill="white" stroke="black" points="786.5,-272.5 786.5,-291.5 902.5,-291.5 902.5,-272.5 786.5,-272.5"/>
<text text-anchor="middle" x="844.5" y="-279.5" font-family="Helvetica,sans-Serif" font-size="10.00">CacheSystem::Startup</text>
</a>
</g>
</g>
<!-- Node1208&#45;&gt;Node1209 -->
<g id="edge2" class="edge"><title>Node1208&#45;&gt;Node1209</title>
<path fill="none" stroke="midnightblue" d="M538.277,-314.078C594.011,-309.707 670.121,-303.274 737,-296 753.037,-294.256 770.395,-292.092 786.351,-289.991"/>
<polygon fill="midnightblue" stroke="midnightblue" points="537.812,-310.603 528.114,-314.87 538.356,-317.582 537.812,-310.603"/>
</g>
<!-- Node1210 -->
<g id="node4" class="node"><title>Node1210</title>
<g id="a_node4"><a xlink:href="../../df/d0a/main_8cpp.html#a0ddf1224851353fc92bfbff6f499fa97" target="_top" xlink:title="main">
<polygon fill="white" stroke="black" points="1205,-272.5 1205,-291.5 1243,-291.5 1243,-272.5 1205,-272.5"/>
<text text-anchor="middle" x="1224" y="-279.5" font-family="Helvetica,sans-Serif" font-size="10.00">main</text>
</a>
</g>
</g>
<!-- Node1209&#45;&gt;Node1210 -->
<g id="edge3" class="edge"><title>Node1209&#45;&gt;Node1210</title>
<path fill="none" stroke="midnightblue" d="M912.956,-284.187C925.914,-284.526 939.376,-284.822 952,-285 1021.77,-285.982 1039.23,-285.918 1109,-285 1142.85,-284.555 1182.34,-283.366 1204.84,-282.625"/>
<polygon fill="midnightblue" stroke="midnightblue" points="912.791,-280.681 902.699,-283.908 912.6,-287.679 912.791,-280.681"/>
</g>
<!-- Node1212 -->
<g id="node6" class="node"><title>Node1212</title>
<g id="a_node6"><a xlink:href="../../da/d05/class_ro_r_1_1_content_manager.html#a861b35694f428e463a800052ac0e9f90" target="_top" xlink:title="RoR::ContentManager\l::RegenCache">
<polygon fill="white" stroke="black" points="974,-245 974,-275 1087,-275 1087,-245 974,-245"/>
<text text-anchor="start" x="982" y="-263" font-family="Helvetica,sans-Serif" font-size="10.00">RoR::ContentManager</text>
<text text-anchor="middle" x="1030.5" y="-252" font-family="Helvetica,sans-Serif" font-size="10.00">::RegenCache</text>
</a>
</g>
</g>
<!-- Node1209&#45;&gt;Node1212 -->
<g id="edge5" class="edge"><title>Node1209&#45;&gt;Node1212</title>
<path fill="none" stroke="midnightblue" d="M912.732,-273.961C932.832,-271.558 954.637,-268.951 973.902,-266.648"/>
<polygon fill="midnightblue" stroke="midnightblue" points="912.224,-270.497 902.71,-275.16 913.055,-277.448 912.224,-270.497"/>
</g>
<!-- Node1211 -->
<g id="node5" class="node"><title>Node1211</title>
<g id="a_node5"><a xlink:href="../../df/d0a/main_8cpp.html#a2922bc5d5c2d77a3020cfbf9df12aab0" target="_top" xlink:title="WinMain">
<polygon fill="white" stroke="black" points="1339,-272.5 1339,-291.5 1394,-291.5 1394,-272.5 1339,-272.5"/>
<text text-anchor="middle" x="1366.5" y="-279.5" font-family="Helvetica,sans-Serif" font-size="10.00">WinMain</text>
</a>
</g>
</g>
<!-- Node1210&#45;&gt;Node1211 -->
<g id="edge4" class="edge"><title>Node1210&#45;&gt;Node1211</title>
<path fill="none" stroke="midnightblue" d="M1253.36,-282C1278.33,-282 1314.41,-282 1338.85,-282"/>
<polygon fill="midnightblue" stroke="midnightblue" points="1253.08,-278.5 1243.08,-282 1253.08,-285.5 1253.08,-278.5"/>
</g>
<!-- Node1212&#45;&gt;Node1210 -->
<g id="edge6" class="edge"><title>Node1212&#45;&gt;Node1210</title>
<path fill="none" stroke="midnightblue" d="M1097.14,-267.541C1135.11,-271.903 1180.11,-277.073 1204.7,-279.898"/>
<polygon fill="midnightblue" stroke="midnightblue" points="1097.48,-264.057 1087.15,-266.393 1096.68,-271.011 1097.48,-264.057"/>
</g>
<!-- Node1213&#45;&gt;Node1209 -->
<g id="edge8" class="edge"><title>Node1213&#45;&gt;Node1209</title>
<path fill="none" stroke="midnightblue" d="M321.433,-249.673C326.371,-250.755 331.276,-251.87 336,-253 352.15,-256.864 355.595,-260.426 372,-263 520.11,-286.235 697.406,-285.96 786.477,-283.914"/>
<polygon fill="midnightblue" stroke="midnightblue" points="321.812,-246.175 311.301,-247.508 320.349,-253.021 321.812,-246.175"/>
</g>
<!-- Node1214 -->
<g id="node8" class="node"><title>Node1214</title>
<g id="a_node8"><a xlink:href="../../d7/d35/class_cache_system.html#a4439130b97404a54bca3ca9768586c48" target="_top" xlink:title="CacheSystem::incremental\lCacheUpdate">
<polygon fill="white" stroke="black" points="390.5,-223 390.5,-253 524.5,-253 524.5,-223 390.5,-223"/>
<text text-anchor="start" x="398.5" y="-241" font-family="Helvetica,sans-Serif" font-size="10.00">CacheSystem::incremental</text>
<text text-anchor="middle" x="457.5" y="-230" font-family="Helvetica,sans-Serif" font-size="10.00">CacheUpdate</text>
</a>
</g>
</g>
<!-- Node1213&#45;&gt;Node1214 -->
<g id="edge9" class="edge"><title>Node1213&#45;&gt;Node1214</title>
<path fill="none" stroke="midnightblue" d="M335.752,-238C353.708,-238 372.78,-238 390.336,-238"/>
<polygon fill="midnightblue" stroke="midnightblue" points="335.62,-234.5 325.62,-238 335.62,-241.5 335.62,-234.5"/>
</g>
<!-- Node1215 -->
<g id="node9" class="node"><title>Node1215</title>
<g id="a_node9"><a xlink:href="../../d7/d35/class_cache_system.html#a37e784da57c57f56a428f61a53b4d618" target="_top" xlink:title="CacheSystem::generateCache">
<polygon fill="white" stroke="black" points="583.5,-231.5 583.5,-250.5 732.5,-250.5 732.5,-231.5 583.5,-231.5"/>
<text text-anchor="middle" x="658" y="-238.5" font-family="Helvetica,sans-Serif" font-size="10.00">CacheSystem::generateCache</text>
</a>
</g>
</g>
<!-- Node1214&#45;&gt;Node1215 -->
<g id="edge10" class="edge"><title>Node1214&#45;&gt;Node1215</title>
<path fill="none" stroke="midnightblue" d="M534.906,-239.155C550.803,-239.395 567.526,-239.648 583.322,-239.886"/>
<polygon fill="midnightblue" stroke="midnightblue" points="534.649,-235.651 524.598,-238.999 534.544,-242.65 534.649,-235.651"/>
</g>
<!-- Node1215&#45;&gt;Node1209 -->
<g id="edge11" class="edge"><title>Node1215&#45;&gt;Node1209</title>
<path fill="none" stroke="midnightblue" d="M711.86,-252.747C739.997,-258.999 774.153,-266.589 800.621,-272.471"/>
<polygon fill="midnightblue" stroke="midnightblue" points="712.313,-249.262 701.792,-250.509 710.794,-256.095 712.313,-249.262"/>
</g>
<!-- Node1217&#45;&gt;Node1216 -->
<g id="edge14" class="edge"><title>Node1217&#45;&gt;Node1216</title>
<path fill="none" stroke="midnightblue" d="M920.987,-146.801C985.874,-144.05 1079.1,-140.099 1144.77,-137.316"/>
<polygon fill="midnightblue" stroke="midnightblue" points="920.667,-143.311 910.825,-147.231 920.964,-150.305 920.667,-143.311"/>
</g>
<!-- Node1218 -->
<g id="node12" class="node"><title>Node1218</title>
<g id="a_node12"><a xlink:href="../../d7/d35/class_cache_system.html#ab2574f48bbb2956d4a280c27ffdb8917" target="_top" xlink:title="CacheSystem::generateFile\lCache">
<polygon fill="white" stroke="black" points="962,-97 962,-127 1099,-127 1099,-97 962,-97"/>
<text text-anchor="start" x="970" y="-115" font-family="Helvetica,sans-Serif" font-size="10.00">CacheSystem::generateFile</text>
<text text-anchor="middle" x="1030.5" y="-104" font-family="Helvetica,sans-Serif" font-size="10.00">Cache</text>
</a>
</g>
</g>
<!-- Node1217&#45;&gt;Node1218 -->
<g id="edge15" class="edge"><title>Node1217&#45;&gt;Node1218</title>
<path fill="none" stroke="midnightblue" d="M920.512,-134.508C934.234,-131.674 948.479,-128.733 961.967,-125.947"/>
<polygon fill="midnightblue" stroke="midnightblue" points="919.716,-131.099 910.63,-136.549 921.132,-137.954 919.716,-131.099"/>
</g>
<!-- Node1218&#45;&gt;Node1216 -->
<g id="edge16" class="edge"><title>Node1218&#45;&gt;Node1216</title>
<path fill="none" stroke="midnightblue" d="M1109.25,-120.932C1121.03,-122.285 1133.18,-123.682 1144.97,-125.036"/>
<polygon fill="midnightblue" stroke="midnightblue" points="1109.35,-117.421 1099.02,-119.756 1108.55,-124.375 1109.35,-117.421"/>
</g>
<!-- Node1220 -->
<g id="node14" class="node"><title>Node1220</title>
<g id="a_node14"><a xlink:href="../../d1/da8/class_rig_def_1_1_parser.html#a99a49d75798b1fa5dfbd00873455fbeb" target="_top" xlink:title="RigDef::Parser::ProcessCurrentLine">
<polygon fill="white" stroke="black" points="372,-57.5 372,-76.5 543,-76.5 543,-57.5 372,-57.5"/>
<text text-anchor="middle" x="457.5" y="-64.5" font-family="Helvetica,sans-Serif" font-size="10.00">RigDef::Parser::ProcessCurrentLine</text>
</a>
</g>
</g>
<!-- Node1219&#45;&gt;Node1220 -->
<g id="edge18" class="edge"><title>Node1219&#45;&gt;Node1220</title>
<path fill="none" stroke="midnightblue" d="M346.319,-67C354.8,-67 363.411,-67 371.89,-67"/>
<polygon fill="midnightblue" stroke="midnightblue" points="346.056,-63.5001 336.056,-67 346.056,-70.5001 346.056,-63.5001"/>
</g>
<!-- Node1227 -->
<g id="node21" class="node"><title>Node1227</title>
<g id="a_node21"><a xlink:href="../../d1/da8/class_rig_def_1_1_parser.html#a5ab95d1e21230f5477cc7c6cfca95c0e" target="_top" xlink:title="RigDef::Parser::GetMessages\lNumOther">
<polygon fill="white" stroke="black" points="585,-11 585,-41 731,-41 731,-11 585,-11"/>
<text text-anchor="start" x="593" y="-29" font-family="Helvetica,sans-Serif" font-size="10.00">RigDef::Parser::GetMessages</text>
<text text-anchor="middle" x="658" y="-18" font-family="Helvetica,sans-Serif" font-size="10.00">NumOther</text>
</a>
</g>
</g>
<!-- Node1219&#45;&gt;Node1227 -->
<g id="edge28" class="edge"><title>Node1219&#45;&gt;Node1227</title>
<path fill="none" stroke="midnightblue" d="M346.369,-51.5838C355.01,-50.2612 363.67,-49.0354 372,-48 444.147,-39.0325 527.054,-33.1238 584.778,-29.7098"/>
<polygon fill="midnightblue" stroke="midnightblue" points="345.588,-48.1634 336.254,-53.1752 346.676,-55.0784 345.588,-48.1634"/>
</g>
<!-- Node1221 -->
<g id="node15" class="node"><title>Node1221</title>
<g id="a_node15"><a xlink:href="../../d1/da8/class_rig_def_1_1_parser.html#ad1920ba0a8dc23ac5043b2c270ef5f47" target="_top" xlink:title="RigDef::Parser::ProcessRawLine">
<polygon fill="white" stroke="black" points="579,-60.5 579,-79.5 737,-79.5 737,-60.5 579,-60.5"/>
<text text-anchor="middle" x="658" y="-67.5" font-family="Helvetica,sans-Serif" font-size="10.00">RigDef::Parser::ProcessRawLine</text>
</a>
</g>
</g>
<!-- Node1220&#45;&gt;Node1221 -->
<g id="edge19" class="edge"><title>Node1220&#45;&gt;Node1221</title>
<path fill="none" stroke="midnightblue" d="M553.267,-68.4322C561.823,-68.5616 570.424,-68.6915 578.815,-68.8184"/>
<polygon fill="midnightblue" stroke="midnightblue" points="553.309,-64.9326 543.258,-68.281 553.204,-71.9318 553.309,-64.9326"/>
</g>
<!-- Node1220&#45;&gt;Node1227 -->
<g id="edge26" class="edge"><title>Node1220&#45;&gt;Node1227</title>
<path fill="none" stroke="midnightblue" d="M514.613,-55.4099C536.409,-50.9079 561.652,-45.6941 584.775,-40.9179"/>
<polygon fill="midnightblue" stroke="midnightblue" points="513.624,-52.0402 504.539,-57.4907 515.04,-58.8955 513.624,-52.0402"/>
</g>
<!-- Node1222 -->
<g id="node16" class="node"><title>Node1222</title>
<g id="a_node16"><a xlink:href="../../d1/da8/class_rig_def_1_1_parser.html#ab08d0ba4ffb90b72cb351014bb7861bd" target="_top" xlink:title="RigDef::Parser::ProcessOgre\lStream">
<polygon fill="white" stroke="black" points="773,-55 773,-85 916,-85 916,-55 773,-55"/>
<text text-anchor="start" x="781" y="-73" font-family="Helvetica,sans-Serif" font-size="10.00">RigDef::Parser::ProcessOgre</text>
<text text-anchor="middle" x="844.5" y="-62" font-family="Helvetica,sans-Serif" font-size="10.00">Stream</text>
</a>
</g>
</g>
<!-- Node1221&#45;&gt;Node1222 -->
<g id="edge20" class="edge"><title>Node1221&#45;&gt;Node1222</title>
<path fill="none" stroke="midnightblue" d="M747.245,-70C755.797,-70 764.395,-70 772.745,-70"/>
<polygon fill="midnightblue" stroke="midnightblue" points="747.245,-66.5001 737.245,-70 747.245,-73.5001 747.245,-66.5001"/>
</g>
<!-- Node1223 -->
<g id="node17" class="node"><title>Node1223</title>
<g id="a_node17"><a xlink:href="../../df/df9/class_beam.html#ab0cbc6c4e3822fc5786af2c8036f7efb" target="_top" xlink:title="Beam::LoadTruck">
<polygon fill="white" stroke="black" points="984,-19.5 984,-38.5 1077,-38.5 1077,-19.5 984,-19.5"/>
<text text-anchor="middle" x="1030.5" y="-26.5" font-family="Helvetica,sans-Serif" font-size="10.00">Beam::LoadTruck</text>
</a>
</g>
</g>
<!-- Node1222&#45;&gt;Node1223 -->
<g id="edge21" class="edge"><title>Node1222&#45;&gt;Node1223</title>
<path fill="none" stroke="midnightblue" d="M922.893,-52.7547C944.703,-47.895 967.637,-42.7848 986.621,-38.5545"/>
<polygon fill="midnightblue" stroke="midnightblue" points="921.969,-49.3747 912.97,-54.9659 923.492,-56.2071 921.969,-49.3747"/>
</g>
<!-- Node1226 -->
<g id="node20" class="node"><title>Node1226</title>
<g id="a_node20"><a xlink:href="../../d7/d35/class_cache_system.html#ad640fd28c3075eb6310d8d8f3475cefb" target="_top" xlink:title="CacheSystem::fillTruckDetailInfo">
<polygon fill="white" stroke="black" points="952,-58.5 952,-77.5 1109,-77.5 1109,-58.5 952,-58.5"/>
<text text-anchor="middle" x="1030.5" y="-65.5" font-family="Helvetica,sans-Serif" font-size="10.00">CacheSystem::fillTruckDetailInfo</text>
</a>
</g>
</g>
<!-- Node1222&#45;&gt;Node1226 -->
<g id="edge24" class="edge"><title>Node1222&#45;&gt;Node1226</title>
<path fill="none" stroke="midnightblue" d="M926.322,-69.1215C934.759,-69.0298 943.324,-68.9367 951.726,-68.8454"/>
<polygon fill="midnightblue" stroke="midnightblue" points="926.074,-65.6239 916.113,-69.2325 926.15,-72.6235 926.074,-65.6239"/>
</g>
<!-- Node1224 -->
<g id="node18" class="node"><title>Node1224</title>
<g id="a_node18"><a xlink:href="../../df/df9/class_beam.html#a0d55b25fa0d1623305f3ac51694cbd42" target="_top" xlink:title="Beam::Beam">
<polygon fill="white" stroke="black" points="1187,-38.5 1187,-57.5 1261,-57.5 1261,-38.5 1187,-38.5"/>
<text text-anchor="middle" x="1224" y="-45.5" font-family="Helvetica,sans-Serif" font-size="10.00">Beam::Beam</text>
</a>
</g>
</g>
<!-- Node1223&#45;&gt;Node1224 -->
<g id="edge22" class="edge"><title>Node1223&#45;&gt;Node1224</title>
<path fill="none" stroke="midnightblue" d="M1087.49,-34.5553C1119.52,-37.7335 1158.77,-41.6278 1186.77,-44.4056"/>
<polygon fill="midnightblue" stroke="midnightblue" points="1087.67,-31.0555 1077.37,-33.551 1086.97,-38.0213 1087.67,-31.0555"/>
</g>
<!-- Node1225 -->
<g id="node19" class="node"><title>Node1225</title>
<g id="a_node19"><a xlink:href="../../df/df9/class_beam.html#a3176be8102041493ae018fd5d66607dd" target="_top" xlink:title="Beam::getVelocity">
<polygon fill="white" stroke="black" points="1175.5,-0.5 1175.5,-19.5 1272.5,-19.5 1272.5,-0.5 1175.5,-0.5"/>
<text text-anchor="middle" x="1224" y="-7.5" font-family="Helvetica,sans-Serif" font-size="10.00">Beam::getVelocity</text>
</a>
</g>
</g>
<!-- Node1223&#45;&gt;Node1225 -->
<g id="edge23" class="edge"><title>Node1223&#45;&gt;Node1225</title>
<path fill="none" stroke="midnightblue" d="M1087.36,-23.4581C1115.2,-20.6958 1148.52,-17.3897 1175.17,-14.7456"/>
<polygon fill="midnightblue" stroke="midnightblue" points="1086.97,-19.9787 1077.37,-24.449 1087.67,-26.9445 1086.97,-19.9787"/>
</g>
<!-- Node1226&#45;&gt;Node1216 -->
<g id="edge25" class="edge"><title>Node1226&#45;&gt;Node1216</title>
<path fill="none" stroke="midnightblue" d="M1085.04,-80.006C1093.12,-82.1414 1101.32,-84.4923 1109,-87 1142.37,-97.9017 1179.77,-114.124 1202.34,-124.377"/>
<polygon fill="midnightblue" stroke="midnightblue" points="1085.83,-76.5957 1075.27,-77.512 1084.1,-83.378 1085.83,-76.5957"/>
</g>
<!-- Node1227&#45;&gt;Node1223 -->
<g id="edge27" class="edge"><title>Node1227&#45;&gt;Node1223</title>
<path fill="none" stroke="midnightblue" d="M741.637,-26.6691C816.378,-27.2743 923.673,-28.1431 983.937,-28.6311"/>
<polygon fill="midnightblue" stroke="midnightblue" points="741.344,-23.1667 731.316,-26.5856 741.287,-30.1665 741.344,-23.1667"/>
</g>
</g>
</svg>
        <g id="navigator" transform="translate(0 0)" fill="#404254">
                <rect fill="#f2f5e9" fill-opacity="0.5" stroke="#606060" stroke-width=".5" x="0" y="0" width="60" height="60"/>
                <use id="zoomplus" xlink:href="#zoomPlus" x="17" y="9" onmousedown="handleZoom(evt,'in')"/>
                <use id="zoomminus" xlink:href="#zoomMin" x="42" y="9" onmousedown="handleZoom(evt,'out')"/>
                <use id="reset" xlink:href="#resetDef" x="30" y="36" onmousedown="handleReset()"/>
                <g id="arrowUp" xlink:href="#dirArrow" transform="translate(30 24)" onmousedown="handlePan(0,-1)">
                  <use xlink:href="#rim" fill="#404040">
                        <set attributeName="fill" to="#808080" begin="arrowUp.mouseover" end="arrowUp.mouseout"/>
                  </use>
                  <path fill="none" stroke="white" stroke-width="1.5" d="M0,-3.0v7 M-2.5,-0.5L0,-3.0L2.5,-0.5"/>
                </g>
                <g id="arrowRight" xlink:href="#dirArrow" transform="rotate(90) translate(36 -43)" onmousedown="handlePan(1,0)">
                  <use xlink:href="#rim" fill="#404040">
                        <set attributeName="fill" to="#808080" begin="arrowRight.mouseover" end="arrowRight.mouseout"/>
                  </use>
                  <path fill="none" stroke="white" stroke-width="1.5" d="M0,-3.0v7 M-2.5,-0.5L0,-3.0L2.5,-0.5"/>
                </g>
                <g id="arrowDown" xlink:href="#dirArrow" transform="rotate(180) translate(-30 -48)" onmousedown="handlePan(0,1)">
                  <use xlink:href="#rim" fill="#404040">
                        <set attributeName="fill" to="#808080" begin="arrowDown.mouseover" end="arrowDown.mouseout"/>
                  </use>
                  <path fill="none" stroke="white" stroke-width="1.5" d="M0,-3.0v7 M-2.5,-0.5L0,-3.0L2.5,-0.5"/>
                </g>
                <g id="arrowLeft" xlink:href="#dirArrow" transform="rotate(270) translate(-36 17)" onmousedown="handlePan(-1,0)">
                  <use xlink:href="#rim" fill="#404040">
                        <set attributeName="fill" to="#808080" begin="arrowLeft.mouseover" end="arrowLeft.mouseout"/>
                  </use>
                  <path fill="none" stroke="white" stroke-width="1.5" d="M0,-3.0v7 M-2.5,-0.5L0,-3.0L2.5,-0.5"/>
                </g>
        </g>
        <svg viewBox="0 0 15 15" width="100%" height="30px" preserveAspectRatio="xMaxYMin meet">
         <g id="arrow_out" transform="scale(0.3 0.3)">
          <a xlink:href="class_cache_system_aa025222e89657b72478453191ee04878_icgraph_org.svg" target="_base">
           <rect id="button" ry="5" rx="5" y="6" x="6" height="38" width="38"
                fill="#f2f5e9" fill-opacity="0.5" stroke="#606060" stroke-width="1.0"/>
           <path id="arrow"
             d="M 11.500037,31.436501 C 11.940474,20.09759 22.043105,11.32322 32.158766,21.979434 L 37.068811,17.246167 C 37.068811,17.246167 37.088388,32 37.088388,32 L 22.160133,31.978069 C 22.160133,31.978069 26.997745,27.140456 26.997745,27.140456 C 18.528582,18.264221 13.291696,25.230495 11.500037,31.436501 z"
             style="fill:#404040;"/>
          </a>
         </g>
        </svg>
</svg>
