<?xml version="1.0" encoding="UTF-8" standalone="no"?>
<!DOCTYPE svg PUBLIC "-//W3C//DTD SVG 1.1//EN"
 "http://www.w3.org/Graphics/SVG/1.1/DTD/svg11.dtd">
<!-- Generated by graphviz version 2.38.0 (20140413.2041)
 -->
<!-- Title: CacheSystem::IsCacheValid Pages: 1 -->
<svg width="615pt" height="56pt"
 viewBox="0.00 0.00 615.00 55.50" xmlns="http://www.w3.org/2000/svg" xmlns:xlink="http://www.w3.org/1999/xlink">
<g id="graph0" class="graph" transform="scale(1 1) rotate(0) translate(4 51.5)">
<title>CacheSystem::IsCacheValid</title>
<polygon fill="white" stroke="none" points="-4,4 -4,-51.5 611,-51.5 611,4 -4,4"/>
<!-- Node869 -->
<g id="node1" class="node"><title>Node869</title>
<polygon fill="#bfbfbf" stroke="black" points="0,-28 0,-47 141,-47 141,-28 0,-28"/>
<text text-anchor="middle" x="70.5" y="-35" font-family="Helvetica,sans-Serif" font-size="10.00">CacheSystem::IsCacheValid</text>
</g>
<!-- Node870 -->
<g id="node2" class="node"><title>Node870</title>
<g id="a_node2"><a xlink:href="../../d7/d35/class_cache_system.html#ae010322c2422bf8f8dbfce904257da31" target="_top" xlink:title="CacheSystem::Startup">
<polygon fill="white" stroke="black" points="177,-28 177,-47 293,-47 293,-28 177,-28"/>
<text text-anchor="middle" x="235" y="-35" font-family="Helvetica,sans-Serif" font-size="10.00">CacheSystem::Startup</text>
</a>
</g>
</g>
<!-- Node869&#45;&gt;Node870 -->
<g id="edge1" class="edge"><title>Node869&#45;&gt;Node870</title>
<path fill="none" stroke="midnightblue" d="M151.429,-37.5C160.036,-37.5 168.663,-37.5 176.923,-37.5"/>
<polygon fill="midnightblue" stroke="midnightblue" points="151.358,-34.0001 141.358,-37.5 151.358,-41.0001 151.358,-34.0001"/>
</g>
<!-- Node871 -->
<g id="node3" class="node"><title>Node871</title>
<g id="a_node3"><a xlink:href="../../df/d0a/main_8cpp.html#a0ddf1224851353fc92bfbff6f499fa97" target="_top" xlink:title="main">
<polygon fill="white" stroke="black" points="478,-28 478,-47 516,-47 516,-28 478,-28"/>
<text text-anchor="middle" x="497" y="-35" font-family="Helvetica,sans-Serif" font-size="10.00">main</text>
</a>
</g>
</g>
<!-- Node870&#45;&gt;Node871 -->
<g id="edge2" class="edge"><title>Node870&#45;&gt;Node871</title>
<path fill="none" stroke="midnightblue" d="M303.507,-39.9214C343.729,-41.0054 395.788,-41.7827 442,-40.5 453.826,-40.1717 467.092,-39.4399 477.516,-38.7812"/>
<polygon fill="midnightblue" stroke="midnightblue" points="303.379,-36.4164 293.284,-39.6324 303.181,-43.4136 303.379,-36.4164"/>
</g>
<!-- Node873 -->
<g id="node5" class="node"><title>Node873</title>
<g id="a_node5"><a xlink:href="../../da/d05/class_ro_r_1_1_content_manager.html#a861b35694f428e463a800052ac0e9f90" target="_top" xlink:title="RoR::ContentManager\l::RegenCache">
<polygon fill="white" stroke="black" points="329,-0.5 329,-30.5 442,-30.5 442,-0.5 329,-0.5"/>
<text text-anchor="start" x="337" y="-18.5" font-family="Helvetica,sans-Serif" font-size="10.00">RoR::ContentManager</text>
<text text-anchor="middle" x="385.5" y="-7.5" font-family="Helvetica,sans-Serif" font-size="10.00">::RegenCache</text>
</a>
</g>
</g>
<!-- Node870&#45;&gt;Node873 -->
<g id="edge4" class="edge"><title>Node870&#45;&gt;Node873</title>
<path fill="none" stroke="midnightblue" d="M303.58,-27.4882C311.985,-26.243 320.505,-24.9808 328.704,-23.7661"/>
<polygon fill="midnightblue" stroke="midnightblue" points="302.793,-24.0664 293.414,-28.9942 303.819,-30.9909 302.793,-24.0664"/>
</g>
<!-- Node872 -->
<g id="node4" class="node"><title>Node872</title>
<g id="a_node4"><a xlink:href="../../df/d0a/main_8cpp.html#a2922bc5d5c2d77a3020cfbf9df12aab0" target="_top" xlink:title="WinMain">
<polygon fill="white" stroke="black" points="552,-28 552,-47 607,-47 607,-28 552,-28"/>
<text text-anchor="middle" x="579.5" y="-35" font-family="Helvetica,sans-Serif" font-size="10.00">WinMain</text>
</a>
</g>
</g>
<!-- Node871&#45;&gt;Node872 -->
<g id="edge3" class="edge"><title>Node871&#45;&gt;Node872</title>
<path fill="none" stroke="midnightblue" d="M526.519,-37.5C534.73,-37.5 543.653,-37.5 551.752,-37.5"/>
<polygon fill="midnightblue" stroke="midnightblue" points="526.267,-34.0001 516.267,-37.5 526.267,-41.0001 526.267,-34.0001"/>
</g>
<!-- Node873&#45;&gt;Node871 -->
<g id="edge5" class="edge"><title>Node873&#45;&gt;Node871</title>
<path fill="none" stroke="midnightblue" d="M452.12,-28.6839C461.519,-30.5723 470.473,-32.3713 477.813,-33.8459"/>
<polygon fill="midnightblue" stroke="midnightblue" points="452.706,-25.2318 442.212,-26.6934 451.327,-32.0946 452.706,-25.2318"/>
</g>
</g>
</svg>
