<?xml version="1.0" encoding="UTF-8" standalone="no"?>
<!DOCTYPE svg PUBLIC "-//W3C//DTD SVG 1.1//EN"
 "http://www.w3.org/Graphics/SVG/1.1/DTD/svg11.dtd">
<!-- Generated by graphviz version 2.38.0 (20140413.2041)
 -->
<!-- Title: CacheSystem::loadCache Pages: 1 -->
<!--zoomable 253 -->
<svg id="main" version="1.1" xmlns="http://www.w3.org/2000/svg" xmlns:xlink="http://www.w3.org/1999/xlink" xml:space="preserve" onload="init(evt)">
<style type="text/css"><![CDATA[
.edge:hover path { stroke: red; }
.edge:hover polygon { stroke: red; fill: red; }
]]></style>
<script type="text/javascript"><![CDATA[
var edges = document.getElementsByTagName('g');
if (edges && edges.length) {
  for (var i=0;i<edges.length;i++) {
    if (edges[i].id.substr(0,4)=='edge') {
      edges[i].setAttribute('class','edge');
    }
  }
}
]]></script>
        <defs>
                <circle id="rim" cx="0" cy="0" r="7"/>
                <circle id="rim2" cx="0" cy="0" r="3.5"/>
                <g id="zoomPlus">
                        <use xlink:href="#rim" fill="#404040">
                                <set attributeName="fill" to="#808080" begin="zoomplus.mouseover" end="zoomplus.mouseout"/>
                        </use>
                        <path d="M-4,0h8M0,-4v8" fill="none" stroke="white" stroke-width="1.5" pointer-events="none"/>
                </g>
                <g id="zoomMin">
                        <use xlink:href="#rim" fill="#404040">
                                <set attributeName="fill" to="#808080" begin="zoomminus.mouseover" end="zoomminus.mouseout"/>
                        </use>
                        <path d="M-4,0h8" fill="none" stroke="white" stroke-width="1.5" pointer-events="none"/>
                </g>
                <g id="dirArrow">
                        <path fill="none" stroke="white" stroke-width="1.5" d="M0,-3.0v7 M-2.5,-0.5L0,-3.0L2.5,-0.5"/>
                </g>
               <g id="resetDef">
                       <use xlink:href="#rim2" fill="#404040">
                               <set attributeName="fill" to="#808080" begin="reset.mouseover" end="reset.mouseout"/>
                       </use>
               </g>
        </defs>

<script type="text/javascript">
var viewWidth = 697;
var viewHeight = 253;
var sectionId = 'dynsection-65';
</script>
<script xlink:href="../../svgpan.js"/>
<svg id="graph" class="graph">
<g id="viewport">
<title>CacheSystem::loadCache</title>
<polygon fill="white" stroke="none" points="-4,4 -4,-248.5 693,-248.5 693,4 -4,4"/>
<!-- Node1021 -->
<g id="node1" class="node"><title>Node1021</title>
<polygon fill="#bfbfbf" stroke="black" points="0,-148.5 0,-167.5 130,-167.5 130,-148.5 0,-148.5"/>
<text text-anchor="middle" x="65" y="-155.5" font-family="Helvetica,sans-Serif" font-size="10.00">CacheSystem::loadCache</text>
</g>
<!-- Node1022 -->
<g id="node2" class="node"><title>Node1022</title>
<g id="a_node2"><a xlink:href="../../d7/d35/class_cache_system.html#a48763a6f943698105e8f2947d07e8110" target="_top" xlink:title="CacheSystem::getCacheConfig\lFilename">
<polygon fill="white" stroke="black" points="172,-214 172,-244 324,-244 324,-214 172,-214"/>
<text text-anchor="start" x="180" y="-232" font-family="Helvetica,sans-Serif" font-size="10.00">CacheSystem::getCacheConfig</text>
<text text-anchor="middle" x="248" y="-221" font-family="Helvetica,sans-Serif" font-size="10.00">Filename</text>
</a>
</g>
</g>
<!-- Node1021&#45;&gt;Node1022 -->
<g id="edge1" class="edge"><title>Node1021&#45;&gt;Node1022</title>
<path fill="none" stroke="midnightblue" d="M84.0705,-167.511C103.827,-177.667 136.598,-193.808 166,-205 171.357,-207.039 176.965,-209.015 182.624,-210.899"/>
<polygon fill="midnightblue" stroke="midnightblue" points="181.568,-214.236 192.16,-213.979 183.719,-207.575 181.568,-214.236"/>
</g>
<!-- Node1023 -->
<g id="node3" class="node"><title>Node1023</title>
<g id="a_node3"><a xlink:href="../../d7/d35/class_cache_system.html#aa025222e89657b72478453191ee04878" target="_top" xlink:title="CacheSystem::resourceExists\lInAllGroups">
<polygon fill="white" stroke="black" points="173.5,-165 173.5,-195 322.5,-195 322.5,-165 173.5,-165"/>
<text text-anchor="start" x="181.5" y="-183" font-family="Helvetica,sans-Serif" font-size="10.00">CacheSystem::resourceExists</text>
<text text-anchor="middle" x="248" y="-172" font-family="Helvetica,sans-Serif" font-size="10.00">InAllGroups</text>
</a>
</g>
</g>
<!-- Node1021&#45;&gt;Node1023 -->
<g id="edge2" class="edge"><title>Node1021&#45;&gt;Node1023</title>
<path fill="none" stroke="midnightblue" d="M130.069,-165.787C140.813,-167.093 152.103,-168.466 163.255,-169.821"/>
<polygon fill="midnightblue" stroke="midnightblue" points="163.089,-173.327 173.438,-171.059 163.934,-166.378 163.089,-173.327"/>
</g>
<!-- Node1024 -->
<g id="node4" class="node"><title>Node1024</title>
<g id="a_node4"><a xlink:href="../../d9/da3/_application_8h.html#ac91efe9de379ef0fde6e0c6f369dfb35" target="_top" xlink:title="Legacy alias &#45; formerly a macro. ">
<polygon fill="white" stroke="black" points="559,-104.5 559,-123.5 596,-123.5 596,-104.5 559,-104.5"/>
<text text-anchor="middle" x="577.5" y="-111.5" font-family="Helvetica,sans-Serif" font-size="10.00">LOG</text>
</a>
</g>
</g>
<!-- Node1021&#45;&gt;Node1024 -->
<g id="edge3" class="edge"><title>Node1021&#45;&gt;Node1024</title>
<path fill="none" stroke="midnightblue" d="M130.138,-152.472C242.162,-142.817 469.101,-123.257 548.392,-116.423"/>
<polygon fill="midnightblue" stroke="midnightblue" points="548.911,-119.891 558.573,-115.545 548.31,-112.917 548.911,-119.891"/>
</g>
<!-- Node1026 -->
<g id="node6" class="node"><title>Node1026</title>
<g id="a_node6"><a xlink:href="../../d7/d35/class_cache_system.html#a56c6220bad73c66209212753882d7f82" target="_top" xlink:title="CacheSystem::parseModAttribute">
<polygon fill="white" stroke="black" points="166,-60.5 166,-79.5 330,-79.5 330,-60.5 166,-60.5"/>
<text text-anchor="middle" x="248" y="-67.5" font-family="Helvetica,sans-Serif" font-size="10.00">CacheSystem::parseModAttribute</text>
</a>
</g>
</g>
<!-- Node1021&#45;&gt;Node1026 -->
<g id="edge5" class="edge"><title>Node1021&#45;&gt;Node1026</title>
<path fill="none" stroke="midnightblue" d="M85.7147,-148.415C117.676,-132.876 180.951,-102.112 218.036,-84.0819"/>
<polygon fill="midnightblue" stroke="midnightblue" points="219.847,-87.0935 227.31,-79.5732 216.786,-80.7981 219.847,-87.0935"/>
</g>
<!-- Node1025 -->
<g id="node5" class="node"><title>Node1025</title>
<g id="a_node5"><a xlink:href="../../dd/dd2/namespace_ro_r.html#a15fdb48aba128c41a9c75357c2282694" target="_top" xlink:title="The ultimate, application&#45;wide logging function. Adds a line (any length) in &#39;RoR.log&#39; file. ">
<polygon fill="white" stroke="black" points="632,-104.5 632,-123.5 689,-123.5 689,-104.5 632,-104.5"/>
<text text-anchor="middle" x="660.5" y="-111.5" font-family="Helvetica,sans-Serif" font-size="10.00">RoR::Log</text>
</a>
</g>
</g>
<!-- Node1024&#45;&gt;Node1025 -->
<g id="edge4" class="edge"><title>Node1024&#45;&gt;Node1025</title>
<path fill="none" stroke="midnightblue" d="M596.076,-114C603.567,-114 612.618,-114 621.508,-114"/>
<polygon fill="midnightblue" stroke="midnightblue" points="621.766,-117.5 631.766,-114 621.766,-110.5 621.766,-117.5"/>
</g>
<!-- Node1027 -->
<g id="node7" class="node"><title>Node1027</title>
<g id="a_node7"><a xlink:href="../../d7/d35/class_cache_system.html#aac096285e86a0452ef689f6a50e4b6d8" target="_top" xlink:title="CacheSystem::logBadTruck\lAttrib">
<polygon fill="white" stroke="black" points="375.5,-77 375.5,-107 513.5,-107 513.5,-77 375.5,-77"/>
<text text-anchor="start" x="383.5" y="-95" font-family="Helvetica,sans-Serif" font-size="10.00">CacheSystem::logBadTruck</text>
<text text-anchor="middle" x="444.5" y="-84" font-family="Helvetica,sans-Serif" font-size="10.00">Attrib</text>
</a>
</g>
</g>
<!-- Node1026&#45;&gt;Node1027 -->
<g id="edge6" class="edge"><title>Node1026&#45;&gt;Node1027</title>
<path fill="none" stroke="midnightblue" d="M330.077,-79.1707C341.686,-80.4838 353.612,-81.8327 365.167,-83.1397"/>
<polygon fill="midnightblue" stroke="midnightblue" points="364.879,-86.6293 375.209,-84.2755 365.665,-79.6737 364.879,-86.6293"/>
</g>
<!-- Node1028 -->
<g id="node8" class="node"><title>Node1028</title>
<g id="a_node8"><a xlink:href="../../df/d8c/scriptstdstring_8cpp.html#ab33d705eee9afd65e8991f82d9c71fe3" target="_top" xlink:title="parseInt">
<polygon fill="white" stroke="black" points="419,-38.5 419,-57.5 470,-57.5 470,-38.5 419,-38.5"/>
<text text-anchor="middle" x="444.5" y="-45.5" font-family="Helvetica,sans-Serif" font-size="10.00">parseInt</text>
</a>
</g>
</g>
<!-- Node1026&#45;&gt;Node1028 -->
<g id="edge8" class="edge"><title>Node1026&#45;&gt;Node1028</title>
<path fill="none" stroke="midnightblue" d="M330.077,-60.8293C357.488,-57.7289 386.662,-54.429 408.558,-51.9523"/>
<polygon fill="midnightblue" stroke="midnightblue" points="409.139,-55.409 418.682,-50.8072 408.352,-48.4534 409.139,-55.409"/>
</g>
<!-- Node1030 -->
<g id="node10" class="node"><title>Node1030</title>
<g id="a_node10"><a xlink:href="../../d7/d35/class_cache_system.html#a184e43c9fc5e12003e0f3895de93060f" target="_top" xlink:title="CacheSystem::deNormalizeText">
<polygon fill="white" stroke="black" points="366,-0.5 366,-19.5 523,-19.5 523,-0.5 366,-0.5"/>
<text text-anchor="middle" x="444.5" y="-7.5" font-family="Helvetica,sans-Serif" font-size="10.00">CacheSystem::deNormalizeText</text>
</a>
</g>
</g>
<!-- Node1026&#45;&gt;Node1030 -->
<g id="edge10" class="edge"><title>Node1026&#45;&gt;Node1030</title>
<path fill="none" stroke="midnightblue" d="M273.877,-60.4958C297.407,-51.6942 333.813,-38.5607 366,-29 374.209,-26.5617 382.971,-24.1932 391.542,-22.0029"/>
<polygon fill="midnightblue" stroke="midnightblue" points="392.619,-25.3416 401.471,-19.5201 390.921,-18.5507 392.619,-25.3416"/>
</g>
<!-- Node1027&#45;&gt;Node1024 -->
<g id="edge7" class="edge"><title>Node1027&#45;&gt;Node1024</title>
<path fill="none" stroke="midnightblue" d="M513.686,-103.451C526.144,-105.543 538.472,-107.614 548.864,-109.359"/>
<polygon fill="midnightblue" stroke="midnightblue" points="548.475,-112.842 558.917,-111.047 549.634,-105.939 548.475,-112.842"/>
</g>
<!-- Node1029 -->
<g id="node9" class="node"><title>Node1029</title>
<g id="a_node9"><a xlink:href="../../df/d52/_approx_math_8h.html#ad685178dbcfdd207c7306561512e1582" target="_top" xlink:title="sign">
<polygon fill="white" stroke="black" points="560,-38.5 560,-57.5 595,-57.5 595,-38.5 560,-38.5"/>
<text text-anchor="middle" x="577.5" y="-45.5" font-family="Helvetica,sans-Serif" font-size="10.00">sign</text>
</a>
</g>
</g>
<!-- Node1028&#45;&gt;Node1029 -->
<g id="edge9" class="edge"><title>Node1028&#45;&gt;Node1029</title>
<path fill="none" stroke="midnightblue" d="M470.14,-48C492.79,-48 526.294,-48 549.625,-48"/>
<polygon fill="midnightblue" stroke="midnightblue" points="549.861,-51.5001 559.861,-48 549.861,-44.5001 549.861,-51.5001"/>
</g>
</g>
</svg>
        <g id="navigator" transform="translate(0 0)" fill="#404254">
                <rect fill="#f2f5e9" fill-opacity="0.5" stroke="#606060" stroke-width=".5" x="0" y="0" width="60" height="60"/>
                <use id="zoomplus" xlink:href="#zoomPlus" x="17" y="9" onmousedown="handleZoom(evt,'in')"/>
                <use id="zoomminus" xlink:href="#zoomMin" x="42" y="9" onmousedown="handleZoom(evt,'out')"/>
                <use id="reset" xlink:href="#resetDef" x="30" y="36" onmousedown="handleReset()"/>
                <g id="arrowUp" xlink:href="#dirArrow" transform="translate(30 24)" onmousedown="handlePan(0,-1)">
                  <use xlink:href="#rim" fill="#404040">
                        <set attributeName="fill" to="#808080" begin="arrowUp.mouseover" end="arrowUp.mouseout"/>
                  </use>
                  <path fill="none" stroke="white" stroke-width="1.5" d="M0,-3.0v7 M-2.5,-0.5L0,-3.0L2.5,-0.5"/>
                </g>
                <g id="arrowRight" xlink:href="#dirArrow" transform="rotate(90) translate(36 -43)" onmousedown="handlePan(1,0)">
                  <use xlink:href="#rim" fill="#404040">
                        <set attributeName="fill" to="#808080" begin="arrowRight.mouseover" end="arrowRight.mouseout"/>
                  </use>
                  <path fill="none" stroke="white" stroke-width="1.5" d="M0,-3.0v7 M-2.5,-0.5L0,-3.0L2.5,-0.5"/>
                </g>
                <g id="arrowDown" xlink:href="#dirArrow" transform="rotate(180) translate(-30 -48)" onmousedown="handlePan(0,1)">
                  <use xlink:href="#rim" fill="#404040">
                        <set attributeName="fill" to="#808080" begin="arrowDown.mouseover" end="arrowDown.mouseout"/>
                  </use>
                  <path fill="none" stroke="white" stroke-width="1.5" d="M0,-3.0v7 M-2.5,-0.5L0,-3.0L2.5,-0.5"/>
                </g>
                <g id="arrowLeft" xlink:href="#dirArrow" transform="rotate(270) translate(-36 17)" onmousedown="handlePan(-1,0)">
                  <use xlink:href="#rim" fill="#404040">
                        <set attributeName="fill" to="#808080" begin="arrowLeft.mouseover" end="arrowLeft.mouseout"/>
                  </use>
                  <path fill="none" stroke="white" stroke-width="1.5" d="M0,-3.0v7 M-2.5,-0.5L0,-3.0L2.5,-0.5"/>
                </g>
        </g>
        <svg viewBox="0 0 15 15" width="100%" height="30px" preserveAspectRatio="xMaxYMin meet">
         <g id="arrow_out" transform="scale(0.3 0.3)">
          <a xlink:href="class_cache_system_a737df1810a418779f48e0fd8fb669bc4_cgraph_org.svg" target="_base">
           <rect id="button" ry="5" rx="5" y="6" x="6" height="38" width="38"
                fill="#f2f5e9" fill-opacity="0.5" stroke="#606060" stroke-width="1.0"/>
           <path id="arrow"
             d="M 11.500037,31.436501 C 11.940474,20.09759 22.043105,11.32322 32.158766,21.979434 L 37.068811,17.246167 C 37.068811,17.246167 37.088388,32 37.088388,32 L 22.160133,31.978069 C 22.160133,31.978069 26.997745,27.140456 26.997745,27.140456 C 18.528582,18.264221 13.291696,25.230495 11.500037,31.436501 z"
             style="fill:#404040;"/>
          </a>
         </g>
        </svg>
</svg>
