<?xml version="1.0" encoding="UTF-8" standalone="no"?>
<!DOCTYPE svg PUBLIC "-//W3C//DTD SVG 1.1//EN"
 "http://www.w3.org/Graphics/SVG/1.1/DTD/svg11.dtd">
<!-- Generated by graphviz version 2.38.0 (20140413.2041)
 -->
<!-- Title: CacheSystem::logBadTruckAttrib Pages: 1 -->
<svg width="312pt" height="39pt"
 viewBox="0.00 0.00 312.00 39.00" xmlns="http://www.w3.org/2000/svg" xmlns:xlink="http://www.w3.org/1999/xlink">
<g id="graph0" class="graph" transform="scale(1 1) rotate(0) translate(4 35)">
<title>CacheSystem::logBadTruckAttrib</title>
<polygon fill="white" stroke="none" points="-4,4 -4,-35 308,-35 308,4 -4,4"/>
<!-- Node1086 -->
<g id="node1" class="node"><title>Node1086</title>
<polygon fill="#bfbfbf" stroke="black" points="0,-0.5 0,-30.5 138,-30.5 138,-0.5 0,-0.5"/>
<text text-anchor="start" x="8" y="-18.5" font-family="Helvetica,sans-Serif" font-size="10.00">CacheSystem::logBadTruck</text>
<text text-anchor="middle" x="69" y="-7.5" font-family="Helvetica,sans-Serif" font-size="10.00">Attrib</text>
</g>
<!-- Node1087 -->
<g id="node2" class="node"><title>Node1087</title>
<g id="a_node2"><a xlink:href="../../d9/da3/_application_8h.html#ac91efe9de379ef0fde6e0c6f369dfb35" target="_top" xlink:title="Legacy alias &#45; formerly a macro. ">
<polygon fill="white" stroke="black" points="174,-6 174,-25 211,-25 211,-6 174,-6"/>
<text text-anchor="middle" x="192.5" y="-13" font-family="Helvetica,sans-Serif" font-size="10.00">LOG</text>
</a>
</g>
</g>
<!-- Node1086&#45;&gt;Node1087 -->
<g id="edge1" class="edge"><title>Node1086&#45;&gt;Node1087</title>
<path fill="none" stroke="midnightblue" d="M138.208,-15.5C147.179,-15.5 155.93,-15.5 163.662,-15.5"/>
<polygon fill="midnightblue" stroke="midnightblue" points="163.831,-19.0001 173.831,-15.5 163.831,-12.0001 163.831,-19.0001"/>
</g>
<!-- Node1088 -->
<g id="node3" class="node"><title>Node1088</title>
<g id="a_node3"><a xlink:href="../../dd/dd2/namespace_ro_r.html#a15fdb48aba128c41a9c75357c2282694" target="_top" xlink:title="The ultimate, application&#45;wide logging function. Adds a line (any length) in &#39;RoR.log&#39; file. ">
<polygon fill="white" stroke="black" points="247,-6 247,-25 304,-25 304,-6 247,-6"/>
<text text-anchor="middle" x="275.5" y="-13" font-family="Helvetica,sans-Serif" font-size="10.00">RoR::Log</text>
</a>
</g>
</g>
<!-- Node1087&#45;&gt;Node1088 -->
<g id="edge2" class="edge"><title>Node1087&#45;&gt;Node1088</title>
<path fill="none" stroke="midnightblue" d="M211.076,-15.5C218.567,-15.5 227.618,-15.5 236.508,-15.5"/>
<polygon fill="midnightblue" stroke="midnightblue" points="236.766,-19.0001 246.766,-15.5 236.766,-12.0001 236.766,-19.0001"/>
</g>
</g>
</svg>
