<?xml version="1.0" encoding="UTF-8" standalone="no"?>
<!DOCTYPE svg PUBLIC "-//W3C//DTD SVG 1.1//EN"
 "http://www.w3.org/Graphics/SVG/1.1/DTD/svg11.dtd">
<!-- Generated by graphviz version 2.38.0 (20140413.2041)
 -->
<!-- Title: CacheSystem::loadAllDirectoriesInResourceGroup Pages: 1 -->
<svg width="986pt" height="61pt"
 viewBox="0.00 0.00 986.00 61.00" xmlns="http://www.w3.org/2000/svg" xmlns:xlink="http://www.w3.org/1999/xlink">
<g id="graph0" class="graph" transform="scale(1 1) rotate(0) translate(4 57)">
<title>CacheSystem::loadAllDirectoriesInResourceGroup</title>
<polygon fill="white" stroke="none" points="-4,4 -4,-57 982,-57 982,4 -4,4"/>
<!-- Node932 -->
<g id="node1" class="node"><title>Node932</title>
<polygon fill="#bfbfbf" stroke="black" points="0,-22.5 0,-52.5 160,-52.5 160,-22.5 0,-22.5"/>
<text text-anchor="start" x="8" y="-40.5" font-family="Helvetica,sans-Serif" font-size="10.00">CacheSystem::loadAllDirectories</text>
<text text-anchor="middle" x="80" y="-29.5" font-family="Helvetica,sans-Serif" font-size="10.00">InResourceGroup</text>
</g>
<!-- Node933 -->
<g id="node2" class="node"><title>Node933</title>
<g id="a_node2"><a xlink:href="../../d7/d35/class_cache_system.html#a2f2307345ec188913271a4cc5220c1bb" target="_top" xlink:title="CacheSystem::loadAllZips">
<polygon fill="white" stroke="black" points="196,-28 196,-47 327,-47 327,-28 196,-28"/>
<text text-anchor="middle" x="261.5" y="-35" font-family="Helvetica,sans-Serif" font-size="10.00">CacheSystem::loadAllZips</text>
</a>
</g>
</g>
<!-- Node932&#45;&gt;Node933 -->
<g id="edge1" class="edge"><title>Node932&#45;&gt;Node933</title>
<path fill="none" stroke="midnightblue" d="M170.358,-37.5C178.983,-37.5 187.614,-37.5 195.93,-37.5"/>
<polygon fill="midnightblue" stroke="midnightblue" points="170.254,-34.0001 160.254,-37.5 170.254,-41.0001 170.254,-34.0001"/>
</g>
<!-- Node934 -->
<g id="node3" class="node"><title>Node934</title>
<g id="a_node3"><a xlink:href="../../d7/d35/class_cache_system.html#a37e784da57c57f56a428f61a53b4d618" target="_top" xlink:title="CacheSystem::generateCache">
<polygon fill="white" stroke="black" points="363,-28 363,-47 512,-47 512,-28 363,-28"/>
<text text-anchor="middle" x="437.5" y="-35" font-family="Helvetica,sans-Serif" font-size="10.00">CacheSystem::generateCache</text>
</a>
</g>
</g>
<!-- Node933&#45;&gt;Node934 -->
<g id="edge2" class="edge"><title>Node933&#45;&gt;Node934</title>
<path fill="none" stroke="midnightblue" d="M337.466,-37.5C345.887,-37.5 354.462,-37.5 362.866,-37.5"/>
<polygon fill="midnightblue" stroke="midnightblue" points="337.291,-34.0001 327.291,-37.5 337.291,-41.0001 337.291,-34.0001"/>
</g>
<!-- Node935 -->
<g id="node4" class="node"><title>Node935</title>
<g id="a_node4"><a xlink:href="../../d7/d35/class_cache_system.html#ae010322c2422bf8f8dbfce904257da31" target="_top" xlink:title="CacheSystem::Startup">
<polygon fill="white" stroke="black" points="548,-28 548,-47 664,-47 664,-28 548,-28"/>
<text text-anchor="middle" x="606" y="-35" font-family="Helvetica,sans-Serif" font-size="10.00">CacheSystem::Startup</text>
</a>
</g>
</g>
<!-- Node934&#45;&gt;Node935 -->
<g id="edge3" class="edge"><title>Node934&#45;&gt;Node935</title>
<path fill="none" stroke="midnightblue" d="M522.2,-37.5C530.894,-37.5 539.581,-37.5 547.882,-37.5"/>
<polygon fill="midnightblue" stroke="midnightblue" points="522.014,-34.0001 512.014,-37.5 522.014,-41.0001 522.014,-34.0001"/>
</g>
<!-- Node936 -->
<g id="node5" class="node"><title>Node936</title>
<g id="a_node5"><a xlink:href="../../df/d0a/main_8cpp.html#a0ddf1224851353fc92bfbff6f499fa97" target="_top" xlink:title="main">
<polygon fill="white" stroke="black" points="849,-28 849,-47 887,-47 887,-28 849,-28"/>
<text text-anchor="middle" x="868" y="-35" font-family="Helvetica,sans-Serif" font-size="10.00">main</text>
</a>
</g>
</g>
<!-- Node935&#45;&gt;Node936 -->
<g id="edge4" class="edge"><title>Node935&#45;&gt;Node936</title>
<path fill="none" stroke="midnightblue" d="M674.507,-39.9214C714.729,-41.0054 766.788,-41.7827 813,-40.5 824.826,-40.1717 838.092,-39.4399 848.516,-38.7812"/>
<polygon fill="midnightblue" stroke="midnightblue" points="674.379,-36.4164 664.284,-39.6324 674.181,-43.4136 674.379,-36.4164"/>
</g>
<!-- Node938 -->
<g id="node7" class="node"><title>Node938</title>
<g id="a_node7"><a xlink:href="../../da/d05/class_ro_r_1_1_content_manager.html#a861b35694f428e463a800052ac0e9f90" target="_top" xlink:title="RoR::ContentManager\l::RegenCache">
<polygon fill="white" stroke="black" points="700,-0.5 700,-30.5 813,-30.5 813,-0.5 700,-0.5"/>
<text text-anchor="start" x="708" y="-18.5" font-family="Helvetica,sans-Serif" font-size="10.00">RoR::ContentManager</text>
<text text-anchor="middle" x="756.5" y="-7.5" font-family="Helvetica,sans-Serif" font-size="10.00">::RegenCache</text>
</a>
</g>
</g>
<!-- Node935&#45;&gt;Node938 -->
<g id="edge6" class="edge"><title>Node935&#45;&gt;Node938</title>
<path fill="none" stroke="midnightblue" d="M674.58,-27.4882C682.985,-26.243 691.505,-24.9808 699.704,-23.7661"/>
<polygon fill="midnightblue" stroke="midnightblue" points="673.793,-24.0664 664.414,-28.9942 674.819,-30.9909 673.793,-24.0664"/>
</g>
<!-- Node937 -->
<g id="node6" class="node"><title>Node937</title>
<g id="a_node6"><a xlink:href="../../df/d0a/main_8cpp.html#a2922bc5d5c2d77a3020cfbf9df12aab0" target="_top" xlink:title="WinMain">
<polygon fill="white" stroke="black" points="923,-28 923,-47 978,-47 978,-28 923,-28"/>
<text text-anchor="middle" x="950.5" y="-35" font-family="Helvetica,sans-Serif" font-size="10.00">WinMain</text>
</a>
</g>
</g>
<!-- Node936&#45;&gt;Node937 -->
<g id="edge5" class="edge"><title>Node936&#45;&gt;Node937</title>
<path fill="none" stroke="midnightblue" d="M897.519,-37.5C905.73,-37.5 914.653,-37.5 922.752,-37.5"/>
<polygon fill="midnightblue" stroke="midnightblue" points="897.267,-34.0001 887.267,-37.5 897.267,-41.0001 897.267,-34.0001"/>
</g>
<!-- Node938&#45;&gt;Node936 -->
<g id="edge7" class="edge"><title>Node938&#45;&gt;Node936</title>
<path fill="none" stroke="midnightblue" d="M823.12,-28.6839C832.519,-30.5723 841.473,-32.3713 848.813,-33.8459"/>
<polygon fill="midnightblue" stroke="midnightblue" points="823.706,-25.2318 813.212,-26.6934 822.327,-32.0946 823.706,-25.2318"/>
</g>
</g>
</svg>
