<?xml version="1.0" encoding="UTF-8" standalone="no"?>
<!DOCTYPE svg PUBLIC "-//W3C//DTD SVG 1.1//EN"
 "http://www.w3.org/Graphics/SVG/1.1/DTD/svg11.dtd">
<!-- Generated by graphviz version 2.38.0 (20140413.2041)
 -->
<!-- Title: CacheSystem::checkForNewFiles Pages: 1 -->
<!--zoomable 61 -->
<svg id="main" version="1.1" xmlns="http://www.w3.org/2000/svg" xmlns:xlink="http://www.w3.org/1999/xlink" xml:space="preserve" onload="init(evt)">
<style type="text/css"><![CDATA[
.edge:hover path { stroke: red; }
.edge:hover polygon { stroke: red; fill: red; }
]]></style>
<script type="text/javascript"><![CDATA[
var edges = document.getElementsByTagName('g');
if (edges && edges.length) {
  for (var i=0;i<edges.length;i++) {
    if (edges[i].id.substr(0,4)=='edge') {
      edges[i].setAttribute('class','edge');
    }
  }
}
]]></script>
        <defs>
                <circle id="rim" cx="0" cy="0" r="7"/>
                <circle id="rim2" cx="0" cy="0" r="3.5"/>
                <g id="zoomPlus">
                        <use xlink:href="#rim" fill="#404040">
                                <set attributeName="fill" to="#808080" begin="zoomplus.mouseover" end="zoomplus.mouseout"/>
                        </use>
                        <path d="M-4,0h8M0,-4v8" fill="none" stroke="white" stroke-width="1.5" pointer-events="none"/>
                </g>
                <g id="zoomMin">
                        <use xlink:href="#rim" fill="#404040">
                                <set attributeName="fill" to="#808080" begin="zoomminus.mouseover" end="zoomminus.mouseout"/>
                        </use>
                        <path d="M-4,0h8" fill="none" stroke="white" stroke-width="1.5" pointer-events="none"/>
                </g>
                <g id="dirArrow">
                        <path fill="none" stroke="white" stroke-width="1.5" d="M0,-3.0v7 M-2.5,-0.5L0,-3.0L2.5,-0.5"/>
                </g>
               <g id="resetDef">
                       <use xlink:href="#rim2" fill="#404040">
                               <set attributeName="fill" to="#808080" begin="reset.mouseover" end="reset.mouseout"/>
                       </use>
               </g>
        </defs>

<script type="text/javascript">
var viewWidth = 1151;
var viewHeight = 61;
var sectionId = 'dynsection-11';
</script>
<script xlink:href="../../svgpan.js"/>
<svg id="graph" class="graph">
<g id="viewport">
<title>CacheSystem::checkForNewFiles</title>
<polygon fill="white" stroke="none" points="-4,4 -4,-57 1147,-57 1147,4 -4,4"/>
<!-- Node111 -->
<g id="node1" class="node"><title>Node111</title>
<polygon fill="#bfbfbf" stroke="black" points="0,-22.5 0,-52.5 143,-52.5 143,-22.5 0,-22.5"/>
<text text-anchor="start" x="8" y="-40.5" font-family="Helvetica,sans-Serif" font-size="10.00">CacheSystem::checkForNew</text>
<text text-anchor="middle" x="71.5" y="-29.5" font-family="Helvetica,sans-Serif" font-size="10.00">Files</text>
</g>
<!-- Node112 -->
<g id="node2" class="node"><title>Node112</title>
<g id="a_node2"><a xlink:href="../../d7/d35/class_cache_system.html#ad98137fe76d0e353a8f6efcd91e6430f" target="_top" xlink:title="CacheSystem::checkForNew\lKnownFiles">
<polygon fill="white" stroke="black" points="179,-22.5 179,-52.5 322,-52.5 322,-22.5 179,-22.5"/>
<text text-anchor="start" x="187" y="-40.5" font-family="Helvetica,sans-Serif" font-size="10.00">CacheSystem::checkForNew</text>
<text text-anchor="middle" x="250.5" y="-29.5" font-family="Helvetica,sans-Serif" font-size="10.00">KnownFiles</text>
</a>
</g>
</g>
<!-- Node111&#45;&gt;Node112 -->
<g id="edge1" class="edge"><title>Node111&#45;&gt;Node112</title>
<path fill="none" stroke="midnightblue" d="M153.494,-37.5C161.973,-37.5 170.544,-37.5 178.894,-37.5"/>
<polygon fill="midnightblue" stroke="midnightblue" points="153.218,-34.0001 143.218,-37.5 153.218,-41.0001 153.218,-34.0001"/>
</g>
<!-- Node113 -->
<g id="node3" class="node"><title>Node113</title>
<g id="a_node3"><a xlink:href="../../d7/d35/class_cache_system.html#a4439130b97404a54bca3ca9768586c48" target="_top" xlink:title="CacheSystem::incremental\lCacheUpdate">
<polygon fill="white" stroke="black" points="358,-22.5 358,-52.5 492,-52.5 492,-22.5 358,-22.5"/>
<text text-anchor="start" x="366" y="-40.5" font-family="Helvetica,sans-Serif" font-size="10.00">CacheSystem::incremental</text>
<text text-anchor="middle" x="425" y="-29.5" font-family="Helvetica,sans-Serif" font-size="10.00">CacheUpdate</text>
</a>
</g>
</g>
<!-- Node112&#45;&gt;Node113 -->
<g id="edge2" class="edge"><title>Node112&#45;&gt;Node113</title>
<path fill="none" stroke="midnightblue" d="M332.205,-37.5C340.809,-37.5 349.487,-37.5 357.894,-37.5"/>
<polygon fill="midnightblue" stroke="midnightblue" points="332.16,-34.0001 322.16,-37.5 332.16,-41.0001 332.16,-34.0001"/>
</g>
<!-- Node114 -->
<g id="node4" class="node"><title>Node114</title>
<g id="a_node4"><a xlink:href="../../d7/d35/class_cache_system.html#a37e784da57c57f56a428f61a53b4d618" target="_top" xlink:title="CacheSystem::generateCache">
<polygon fill="white" stroke="black" points="528,-28 528,-47 677,-47 677,-28 528,-28"/>
<text text-anchor="middle" x="602.5" y="-35" font-family="Helvetica,sans-Serif" font-size="10.00">CacheSystem::generateCache</text>
</a>
</g>
</g>
<!-- Node113&#45;&gt;Node114 -->
<g id="edge3" class="edge"><title>Node113&#45;&gt;Node114</title>
<path fill="none" stroke="midnightblue" d="M502.477,-37.5C510.854,-37.5 519.37,-37.5 527.714,-37.5"/>
<polygon fill="midnightblue" stroke="midnightblue" points="502.349,-34.0001 492.349,-37.5 502.349,-41.0001 502.349,-34.0001"/>
</g>
<!-- Node115 -->
<g id="node5" class="node"><title>Node115</title>
<g id="a_node5"><a xlink:href="../../d7/d35/class_cache_system.html#ae010322c2422bf8f8dbfce904257da31" target="_top" xlink:title="CacheSystem::Startup">
<polygon fill="white" stroke="black" points="713,-28 713,-47 829,-47 829,-28 713,-28"/>
<text text-anchor="middle" x="771" y="-35" font-family="Helvetica,sans-Serif" font-size="10.00">CacheSystem::Startup</text>
</a>
</g>
</g>
<!-- Node114&#45;&gt;Node115 -->
<g id="edge4" class="edge"><title>Node114&#45;&gt;Node115</title>
<path fill="none" stroke="midnightblue" d="M687.2,-37.5C695.894,-37.5 704.581,-37.5 712.882,-37.5"/>
<polygon fill="midnightblue" stroke="midnightblue" points="687.014,-34.0001 677.014,-37.5 687.014,-41.0001 687.014,-34.0001"/>
</g>
<!-- Node116 -->
<g id="node6" class="node"><title>Node116</title>
<g id="a_node6"><a xlink:href="../../df/d0a/main_8cpp.html#a0ddf1224851353fc92bfbff6f499fa97" target="_top" xlink:title="main">
<polygon fill="white" stroke="black" points="1014,-28 1014,-47 1052,-47 1052,-28 1014,-28"/>
<text text-anchor="middle" x="1033" y="-35" font-family="Helvetica,sans-Serif" font-size="10.00">main</text>
</a>
</g>
</g>
<!-- Node115&#45;&gt;Node116 -->
<g id="edge5" class="edge"><title>Node115&#45;&gt;Node116</title>
<path fill="none" stroke="midnightblue" d="M839.507,-39.9214C879.729,-41.0054 931.788,-41.7827 978,-40.5 989.826,-40.1717 1003.09,-39.4399 1013.52,-38.7812"/>
<polygon fill="midnightblue" stroke="midnightblue" points="839.379,-36.4164 829.284,-39.6324 839.181,-43.4136 839.379,-36.4164"/>
</g>
<!-- Node118 -->
<g id="node8" class="node"><title>Node118</title>
<g id="a_node8"><a xlink:href="../../da/d05/class_ro_r_1_1_content_manager.html#a861b35694f428e463a800052ac0e9f90" target="_top" xlink:title="RoR::ContentManager\l::RegenCache">
<polygon fill="white" stroke="black" points="865,-0.5 865,-30.5 978,-30.5 978,-0.5 865,-0.5"/>
<text text-anchor="start" x="873" y="-18.5" font-family="Helvetica,sans-Serif" font-size="10.00">RoR::ContentManager</text>
<text text-anchor="middle" x="921.5" y="-7.5" font-family="Helvetica,sans-Serif" font-size="10.00">::RegenCache</text>
</a>
</g>
</g>
<!-- Node115&#45;&gt;Node118 -->
<g id="edge7" class="edge"><title>Node115&#45;&gt;Node118</title>
<path fill="none" stroke="midnightblue" d="M839.58,-27.4882C847.985,-26.243 856.505,-24.9808 864.704,-23.7661"/>
<polygon fill="midnightblue" stroke="midnightblue" points="838.793,-24.0664 829.414,-28.9942 839.819,-30.9909 838.793,-24.0664"/>
</g>
<!-- Node117 -->
<g id="node7" class="node"><title>Node117</title>
<g id="a_node7"><a xlink:href="../../df/d0a/main_8cpp.html#a2922bc5d5c2d77a3020cfbf9df12aab0" target="_top" xlink:title="WinMain">
<polygon fill="white" stroke="black" points="1088,-28 1088,-47 1143,-47 1143,-28 1088,-28"/>
<text text-anchor="middle" x="1115.5" y="-35" font-family="Helvetica,sans-Serif" font-size="10.00">WinMain</text>
</a>
</g>
</g>
<!-- Node116&#45;&gt;Node117 -->
<g id="edge6" class="edge"><title>Node116&#45;&gt;Node117</title>
<path fill="none" stroke="midnightblue" d="M1062.52,-37.5C1070.73,-37.5 1079.65,-37.5 1087.75,-37.5"/>
<polygon fill="midnightblue" stroke="midnightblue" points="1062.27,-34.0001 1052.27,-37.5 1062.27,-41.0001 1062.27,-34.0001"/>
</g>
<!-- Node118&#45;&gt;Node116 -->
<g id="edge8" class="edge"><title>Node118&#45;&gt;Node116</title>
<path fill="none" stroke="midnightblue" d="M988.12,-28.6839C997.519,-30.5723 1006.47,-32.3713 1013.81,-33.8459"/>
<polygon fill="midnightblue" stroke="midnightblue" points="988.706,-25.2318 978.212,-26.6934 987.327,-32.0946 988.706,-25.2318"/>
</g>
</g>
</svg>
        <g id="navigator" transform="translate(0 0)" fill="#404254">
                <rect fill="#f2f5e9" fill-opacity="0.5" stroke="#606060" stroke-width=".5" x="0" y="0" width="60" height="60"/>
                <use id="zoomplus" xlink:href="#zoomPlus" x="17" y="9" onmousedown="handleZoom(evt,'in')"/>
                <use id="zoomminus" xlink:href="#zoomMin" x="42" y="9" onmousedown="handleZoom(evt,'out')"/>
                <use id="reset" xlink:href="#resetDef" x="30" y="36" onmousedown="handleReset()"/>
                <g id="arrowUp" xlink:href="#dirArrow" transform="translate(30 24)" onmousedown="handlePan(0,-1)">
                  <use xlink:href="#rim" fill="#404040">
                        <set attributeName="fill" to="#808080" begin="arrowUp.mouseover" end="arrowUp.mouseout"/>
                  </use>
                  <path fill="none" stroke="white" stroke-width="1.5" d="M0,-3.0v7 M-2.5,-0.5L0,-3.0L2.5,-0.5"/>
                </g>
                <g id="arrowRight" xlink:href="#dirArrow" transform="rotate(90) translate(36 -43)" onmousedown="handlePan(1,0)">
                  <use xlink:href="#rim" fill="#404040">
                        <set attributeName="fill" to="#808080" begin="arrowRight.mouseover" end="arrowRight.mouseout"/>
                  </use>
                  <path fill="none" stroke="white" stroke-width="1.5" d="M0,-3.0v7 M-2.5,-0.5L0,-3.0L2.5,-0.5"/>
                </g>
                <g id="arrowDown" xlink:href="#dirArrow" transform="rotate(180) translate(-30 -48)" onmousedown="handlePan(0,1)">
                  <use xlink:href="#rim" fill="#404040">
                        <set attributeName="fill" to="#808080" begin="arrowDown.mouseover" end="arrowDown.mouseout"/>
                  </use>
                  <path fill="none" stroke="white" stroke-width="1.5" d="M0,-3.0v7 M-2.5,-0.5L0,-3.0L2.5,-0.5"/>
                </g>
                <g id="arrowLeft" xlink:href="#dirArrow" transform="rotate(270) translate(-36 17)" onmousedown="handlePan(-1,0)">
                  <use xlink:href="#rim" fill="#404040">
                        <set attributeName="fill" to="#808080" begin="arrowLeft.mouseover" end="arrowLeft.mouseout"/>
                  </use>
                  <path fill="none" stroke="white" stroke-width="1.5" d="M0,-3.0v7 M-2.5,-0.5L0,-3.0L2.5,-0.5"/>
                </g>
        </g>
        <svg viewBox="0 0 15 15" width="100%" height="30px" preserveAspectRatio="xMaxYMin meet">
         <g id="arrow_out" transform="scale(0.3 0.3)">
          <a xlink:href="class_cache_system_a781ef15649528f1e6f969d5bf1c258bd_icgraph_org.svg" target="_base">
           <rect id="button" ry="5" rx="5" y="6" x="6" height="38" width="38"
                fill="#f2f5e9" fill-opacity="0.5" stroke="#606060" stroke-width="1.0"/>
           <path id="arrow"
             d="M 11.500037,31.436501 C 11.940474,20.09759 22.043105,11.32322 32.158766,21.979434 L 37.068811,17.246167 C 37.068811,17.246167 37.088388,32 37.088388,32 L 22.160133,31.978069 C 22.160133,31.978069 26.997745,27.140456 26.997745,27.140456 C 18.528582,18.264221 13.291696,25.230495 11.500037,31.436501 z"
             style="fill:#404040;"/>
          </a>
         </g>
        </svg>
</svg>
