<?xml version="1.0" encoding="UTF-8" standalone="no"?>
<!DOCTYPE svg PUBLIC "-//W3C//DTD SVG 1.1//EN"
 "http://www.w3.org/Graphics/SVG/1.1/DTD/svg11.dtd">
<!-- Generated by graphviz version 2.38.0 (20140413.2041)
 -->
<!-- Title: QuaternionDefaultConstructor Pages: 1 -->
<svg width="536pt" height="28pt"
 viewBox="0.00 0.00 536.00 28.00" xmlns="http://www.w3.org/2000/svg" xmlns:xlink="http://www.w3.org/1999/xlink">
<g id="graph0" class="graph" transform="scale(1 1) rotate(0) translate(4 24)">
<title>QuaternionDefaultConstructor</title>
<polygon fill="white" stroke="none" points="-4,4 -4,-24 532,-24 532,4 -4,4"/>
<!-- Node26 -->
<g id="node1" class="node"><title>Node26</title>
<polygon fill="#bfbfbf" stroke="black" points="0,-0.5 0,-19.5 144,-19.5 144,-0.5 0,-0.5"/>
<text text-anchor="middle" x="72" y="-7.5" font-family="Helvetica,sans-Serif" font-size="10.00">QuaternionDefaultConstructor</text>
</g>
<!-- Node27 -->
<g id="node2" class="node"><title>Node27</title>
<g id="a_node2"><a xlink:href="../../da/dc6/_ogre_angelscript_8h.html#ab5e28d4115607b1699a8feb6d395a570" target="_top" xlink:title="registerOgreQuaternion">
<polygon fill="white" stroke="black" points="180,-0.5 180,-19.5 297,-19.5 297,-0.5 180,-0.5"/>
<text text-anchor="middle" x="238.5" y="-7.5" font-family="Helvetica,sans-Serif" font-size="10.00">registerOgreQuaternion</text>
</a>
</g>
</g>
<!-- Node26&#45;&gt;Node27 -->
<g id="edge1" class="edge"><title>Node26&#45;&gt;Node27</title>
<path fill="none" stroke="midnightblue" d="M154.284,-10C162.904,-10 171.537,-10 179.806,-10"/>
<polygon fill="midnightblue" stroke="midnightblue" points="154.195,-6.5001 144.195,-10 154.195,-13.5001 154.195,-6.5001"/>
</g>
<!-- Node28 -->
<g id="node3" class="node"><title>Node28</title>
<g id="a_node3"><a xlink:href="../../da/dc6/_ogre_angelscript_8h.html#ad3e04f5b1c46ddcd6e319022a61e3f1d" target="_top" xlink:title="registerOgreObjects">
<polygon fill="white" stroke="black" points="333,-0.5 333,-19.5 437,-19.5 437,-0.5 333,-0.5"/>
<text text-anchor="middle" x="385" y="-7.5" font-family="Helvetica,sans-Serif" font-size="10.00">registerOgreObjects</text>
</a>
</g>
</g>
<!-- Node27&#45;&gt;Node28 -->
<g id="edge2" class="edge"><title>Node27&#45;&gt;Node28</title>
<path fill="none" stroke="midnightblue" d="M307.087,-10C315.718,-10 324.438,-10 332.751,-10"/>
<polygon fill="midnightblue" stroke="midnightblue" points="307.025,-6.5001 297.025,-10 307.025,-13.5001 307.025,-6.5001"/>
</g>
<!-- Node29 -->
<g id="node4" class="node"><title>Node29</title>
<g id="a_node4"><a xlink:href="../../d4/d5f/_script_engine_8cpp.html#a72e7735b6ca109323b2aa797f7b7b45d" target="_top" xlink:title="logString">
<polygon fill="white" stroke="black" points="473,-0.5 473,-19.5 528,-19.5 528,-0.5 473,-0.5"/>
<text text-anchor="middle" x="500.5" y="-7.5" font-family="Helvetica,sans-Serif" font-size="10.00">logString</text>
</a>
</g>
</g>
<!-- Node28&#45;&gt;Node29 -->
<g id="edge3" class="edge"><title>Node28&#45;&gt;Node29</title>
<path fill="none" stroke="midnightblue" d="M447.274,-10C456.266,-10 465.105,-10 472.881,-10"/>
<polygon fill="midnightblue" stroke="midnightblue" points="447.106,-6.5001 437.105,-10 447.105,-13.5001 447.106,-6.5001"/>
</g>
</g>
</svg>
