<?xml version="1.0" encoding="UTF-8" standalone="no"?>
<!DOCTYPE svg PUBLIC "-//W3C//DTD SVG 1.1//EN"
 "http://www.w3.org/Graphics/SVG/1.1/DTD/svg11.dtd">
<!-- Generated by graphviz version 2.38.0 (20140413.2041)
 -->
<!-- Title: utf8::unchecked::utf16to8 Pages: 1 -->
<svg width="293pt" height="116pt"
 viewBox="0.00 0.00 293.00 116.00" xmlns="http://www.w3.org/2000/svg" xmlns:xlink="http://www.w3.org/1999/xlink">
<g id="graph0" class="graph" transform="scale(1 1) rotate(0) translate(4 112)">
<title>utf8::unchecked::utf16to8</title>
<polygon fill="white" stroke="none" points="-4,4 -4,-112 289,-112 289,4 -4,4"/>
<!-- Node49 -->
<g id="node1" class="node"><title>Node49</title>
<polygon fill="#bfbfbf" stroke="black" points="0,-44.5 0,-63.5 126,-63.5 126,-44.5 0,-44.5"/>
<text text-anchor="middle" x="63" y="-51.5" font-family="Helvetica,sans-Serif" font-size="10.00">utf8::unchecked::utf16to8</text>
</g>
<!-- Node50 -->
<g id="node2" class="node"><title>Node50</title>
<g id="a_node2"><a xlink:href="../../d0/d96/namespaceutf8_1_1internal.html#ab1e3c2fe2296ac185993a183d1bd0678" target="_top" xlink:title="utf8::internal::mask16">
<polygon fill="white" stroke="black" points="168.5,-88.5 168.5,-107.5 278.5,-107.5 278.5,-88.5 168.5,-88.5"/>
<text text-anchor="middle" x="223.5" y="-95.5" font-family="Helvetica,sans-Serif" font-size="10.00">utf8::internal::mask16</text>
</a>
</g>
</g>
<!-- Node49&#45;&gt;Node50 -->
<g id="edge1" class="edge"><title>Node49&#45;&gt;Node50</title>
<path fill="none" stroke="midnightblue" d="M98.3921,-63.5473C121.862,-70.0627 153.159,-78.7508 178.452,-85.7722"/>
<polygon fill="midnightblue" stroke="midnightblue" points="177.603,-89.1688 188.175,-88.4713 179.476,-82.4239 177.603,-89.1688"/>
</g>
<!-- Node51 -->
<g id="node3" class="node"><title>Node51</title>
<g id="a_node3"><a xlink:href="../../d0/d96/namespaceutf8_1_1internal.html#a1a4095fb207096e04f94f21eb23d2723" target="_top" xlink:title="utf8::internal::is\l_lead_surrogate">
<polygon fill="white" stroke="black" points="180.5,-39 180.5,-69 266.5,-69 266.5,-39 180.5,-39"/>
<text text-anchor="start" x="188.5" y="-57" font-family="Helvetica,sans-Serif" font-size="10.00">utf8::internal::is</text>
<text text-anchor="middle" x="223.5" y="-46" font-family="Helvetica,sans-Serif" font-size="10.00">_lead_surrogate</text>
</a>
</g>
</g>
<!-- Node49&#45;&gt;Node51 -->
<g id="edge2" class="edge"><title>Node49&#45;&gt;Node51</title>
<path fill="none" stroke="midnightblue" d="M126.188,-54C140.564,-54 155.725,-54 169.657,-54"/>
<polygon fill="midnightblue" stroke="midnightblue" points="170.038,-57.5001 180.038,-54 170.038,-50.5001 170.038,-57.5001"/>
</g>
<!-- Node52 -->
<g id="node4" class="node"><title>Node52</title>
<g id="a_node4"><a xlink:href="../../d1/d1d/namespaceutf8_1_1unchecked.html#acab3a56b1772ed871f36757883d63788" target="_top" xlink:title="utf8::unchecked::append">
<polygon fill="white" stroke="black" points="162,-0.5 162,-19.5 285,-19.5 285,-0.5 162,-0.5"/>
<text text-anchor="middle" x="223.5" y="-7.5" font-family="Helvetica,sans-Serif" font-size="10.00">utf8::unchecked::append</text>
</a>
</g>
</g>
<!-- Node49&#45;&gt;Node52 -->
<g id="edge3" class="edge"><title>Node49&#45;&gt;Node52</title>
<path fill="none" stroke="midnightblue" d="M98.3921,-44.4527C121.862,-37.9373 153.159,-29.2492 178.452,-22.2278"/>
<polygon fill="midnightblue" stroke="midnightblue" points="179.476,-25.5761 188.175,-19.5287 177.603,-18.8312 179.476,-25.5761"/>
</g>
</g>
</svg>
