<?xml version="1.0" encoding="UTF-8" standalone="no"?>
<!DOCTYPE svg PUBLIC "-//W3C//DTD SVG 1.1//EN"
 "http://www.w3.org/Graphics/SVG/1.1/DTD/svg11.dtd">
<!-- Generated by graphviz version 2.38.0 (20140413.2041)
 -->
<!-- Title: utf8::unchecked::peek_next Pages: 1 -->
<svg width="586pt" height="56pt"
 viewBox="0.00 0.00 586.00 55.50" xmlns="http://www.w3.org/2000/svg" xmlns:xlink="http://www.w3.org/1999/xlink">
<g id="graph0" class="graph" transform="scale(1 1) rotate(0) translate(4 51.5)">
<title>utf8::unchecked::peek_next</title>
<polygon fill="white" stroke="none" points="-4,4 -4,-51.5 582,-51.5 582,4 -4,4"/>
<!-- Node29 -->
<g id="node1" class="node"><title>Node29</title>
<polygon fill="#bfbfbf" stroke="black" points="0,-28 0,-47 137,-47 137,-28 0,-28"/>
<text text-anchor="middle" x="68.5" y="-35" font-family="Helvetica,sans-Serif" font-size="10.00">utf8::unchecked::peek_next</text>
</g>
<!-- Node30 -->
<g id="node2" class="node"><title>Node30</title>
<g id="a_node2"><a xlink:href="../../d1/d1d/namespaceutf8_1_1unchecked.html#ac5932c0cbb2498a111d53d26fd82f260" target="_top" xlink:title="utf8::unchecked::next">
<polygon fill="white" stroke="black" points="173,-28 173,-47 283,-47 283,-28 173,-28"/>
<text text-anchor="middle" x="228" y="-35" font-family="Helvetica,sans-Serif" font-size="10.00">utf8::unchecked::next</text>
</a>
</g>
</g>
<!-- Node29&#45;&gt;Node30 -->
<g id="edge1" class="edge"><title>Node29&#45;&gt;Node30</title>
<path fill="none" stroke="midnightblue" d="M137.208,-37.5C145.625,-37.5 154.214,-37.5 162.579,-37.5"/>
<polygon fill="midnightblue" stroke="midnightblue" points="162.646,-41.0001 172.646,-37.5 162.646,-34.0001 162.646,-41.0001"/>
</g>
<!-- Node31 -->
<g id="node3" class="node"><title>Node31</title>
<g id="a_node3"><a xlink:href="../../d0/d96/namespaceutf8_1_1internal.html#adf6e0469e279b9562aa461b4c3c1e7e4" target="_top" xlink:title="utf8::internal::mask8">
<polygon fill="white" stroke="black" points="473,-28 473,-47 578,-47 578,-28 473,-28"/>
<text text-anchor="middle" x="525.5" y="-35" font-family="Helvetica,sans-Serif" font-size="10.00">utf8::internal::mask8</text>
</a>
</g>
</g>
<!-- Node30&#45;&gt;Node31 -->
<g id="edge2" class="edge"><title>Node30&#45;&gt;Node31</title>
<path fill="none" stroke="midnightblue" d="M283.248,-39.6007C295.033,-39.9753 307.433,-40.3073 319,-40.5 371.437,-41.3737 384.563,-41.3987 437,-40.5 445.302,-40.3577 454.045,-40.1396 462.662,-39.8844"/>
<polygon fill="midnightblue" stroke="midnightblue" points="462.802,-43.3819 472.687,-39.5702 462.582,-36.3853 462.802,-43.3819"/>
</g>
<!-- Node32 -->
<g id="node4" class="node"><title>Node32</title>
<g id="a_node4"><a xlink:href="../../d0/d96/namespaceutf8_1_1internal.html#aadbe437cba7bfcc4df2638f633e9787c" target="_top" xlink:title="utf8::internal::sequence\l_length">
<polygon fill="white" stroke="black" points="319,-0.5 319,-30.5 437,-30.5 437,-0.5 319,-0.5"/>
<text text-anchor="start" x="327" y="-18.5" font-family="Helvetica,sans-Serif" font-size="10.00">utf8::internal::sequence</text>
<text text-anchor="middle" x="378" y="-7.5" font-family="Helvetica,sans-Serif" font-size="10.00">_length</text>
</a>
</g>
</g>
<!-- Node30&#45;&gt;Node32 -->
<g id="edge3" class="edge"><title>Node30&#45;&gt;Node32</title>
<path fill="none" stroke="midnightblue" d="M283.269,-29.4329C291.571,-28.1989 300.23,-26.9118 308.785,-25.6401"/>
<polygon fill="midnightblue" stroke="midnightblue" points="309.375,-29.0908 318.752,-24.1585 308.346,-22.1669 309.375,-29.0908"/>
</g>
<!-- Node32&#45;&gt;Node31 -->
<g id="edge4" class="edge"><title>Node32&#45;&gt;Node31</title>
<path fill="none" stroke="midnightblue" d="M437.342,-24.3215C445.661,-25.5793 454.241,-26.8767 462.625,-28.1443"/>
<polygon fill="midnightblue" stroke="midnightblue" points="462.311,-31.6366 472.722,-29.671 463.358,-24.7152 462.311,-31.6366"/>
</g>
</g>
</svg>
