<?xml version="1.0" encoding="UTF-8" standalone="no"?>
<!DOCTYPE svg PUBLIC "-//W3C//DTD SVG 1.1//EN"
 "http://www.w3.org/Graphics/SVG/1.1/DTD/svg11.dtd">
<!-- Generated by graphviz version 2.38.0 (20140413.2041)
 -->
<!-- Title: source/main/gfx/hydrax/Image.cpp Pages: 1 -->
<svg width="126pt" height="263pt"
 viewBox="0.00 0.00 126.00 263.00" xmlns="http://www.w3.org/2000/svg" xmlns:xlink="http://www.w3.org/1999/xlink">
<g id="graph0" class="graph" transform="scale(1 1) rotate(0) translate(4 259)">
<title>source/main/gfx/hydrax/Image.cpp</title>
<polygon fill="white" stroke="none" points="-4,4 -4,-259 122,-259 122,4 -4,4"/>
<!-- Node0 -->
<g id="node1" class="node"><title>Node0</title>
<polygon fill="#bfbfbf" stroke="black" points="0,-224.5 0,-254.5 118,-254.5 118,-224.5 0,-224.5"/>
<text text-anchor="start" x="8" y="-242.5" font-family="Helvetica,sans-Serif" font-size="10.00">source/main/gfx/hydrax</text>
<text text-anchor="middle" x="59" y="-231.5" font-family="Helvetica,sans-Serif" font-size="10.00">/Image.cpp</text>
</g>
<!-- Node1 -->
<g id="node2" class="node"><title>Node1</title>
<g id="a_node2"><a xlink:href="../../d9/de5/_image_8h.html" target="_top" xlink:title="Image.h">
<polygon fill="white" stroke="black" points="33.5,-168.5 33.5,-187.5 84.5,-187.5 84.5,-168.5 33.5,-168.5"/>
<text text-anchor="middle" x="59" y="-175.5" font-family="Helvetica,sans-Serif" font-size="10.00">Image.h</text>
</a>
</g>
</g>
<!-- Node0&#45;&gt;Node1 -->
<g id="edge1" class="edge"><title>Node0&#45;&gt;Node1</title>
<path fill="none" stroke="midnightblue" d="M59,-224.399C59,-216.466 59,-206.458 59,-197.858"/>
<polygon fill="midnightblue" stroke="midnightblue" points="62.5001,-197.658 59,-187.658 55.5001,-197.658 62.5001,-197.658"/>
</g>
<!-- Node2 -->
<g id="node3" class="node"><title>Node2</title>
<g id="a_node3"><a xlink:href="../../dc/d89/hydrax_2_prerequisites_8h.html" target="_top" xlink:title="Prerequisites.h">
<polygon fill="white" stroke="black" points="18,-56.5 18,-75.5 100,-75.5 100,-56.5 18,-56.5"/>
<text text-anchor="middle" x="59" y="-63.5" font-family="Helvetica,sans-Serif" font-size="10.00">Prerequisites.h</text>
</a>
</g>
</g>
<!-- Node1&#45;&gt;Node2 -->
<g id="edge2" class="edge"><title>Node1&#45;&gt;Node2</title>
<path fill="none" stroke="midnightblue" d="M57.5092,-168.407C56.0237,-159.376 53.8456,-144.74 53,-132 51.9667,-116.432 53.7801,-98.8101 55.6771,-85.8454"/>
<polygon fill="midnightblue" stroke="midnightblue" points="59.157,-86.2501 57.2963,-75.8199 52.2466,-85.1339 59.157,-86.2501"/>
</g>
<!-- Node4 -->
<g id="node5" class="node"><title>Node4</title>
<g id="a_node5"><a xlink:href="../../d7/d8e/_help_8h.html" target="_top" xlink:title="Help.h">
<polygon fill="white" stroke="black" points="62,-112.5 62,-131.5 106,-131.5 106,-112.5 62,-112.5"/>
<text text-anchor="middle" x="84" y="-119.5" font-family="Helvetica,sans-Serif" font-size="10.00">Help.h</text>
</a>
</g>
</g>
<!-- Node1&#45;&gt;Node4 -->
<g id="edge4" class="edge"><title>Node1&#45;&gt;Node4</title>
<path fill="none" stroke="midnightblue" d="M63.1282,-168.083C66.5139,-160.77 71.416,-150.181 75.6188,-141.103"/>
<polygon fill="midnightblue" stroke="midnightblue" points="78.9234,-142.296 79.9486,-131.751 72.5711,-139.355 78.9234,-142.296"/>
</g>
<!-- Node3 -->
<g id="node4" class="node"><title>Node3</title>
<polygon fill="white" stroke="#bfbfbf" points="36,-0.5 36,-19.5 82,-19.5 82,-0.5 36,-0.5"/>
<text text-anchor="middle" x="59" y="-7.5" font-family="Helvetica,sans-Serif" font-size="10.00">Ogre.h</text>
</g>
<!-- Node2&#45;&gt;Node3 -->
<g id="edge3" class="edge"><title>Node2&#45;&gt;Node3</title>
<path fill="none" stroke="midnightblue" d="M59,-56.083C59,-49.0059 59,-38.8611 59,-29.9865"/>
<polygon fill="midnightblue" stroke="midnightblue" points="62.5001,-29.751 59,-19.7511 55.5001,-29.7511 62.5001,-29.751"/>
</g>
<!-- Node4&#45;&gt;Node2 -->
<g id="edge5" class="edge"><title>Node4&#45;&gt;Node2</title>
<path fill="none" stroke="midnightblue" d="M79.8718,-112.083C76.4861,-104.77 71.584,-94.1814 67.3812,-85.1034"/>
<polygon fill="midnightblue" stroke="midnightblue" points="70.4289,-83.3553 63.0514,-75.7511 64.0766,-86.2962 70.4289,-83.3553"/>
</g>
</g>
</svg>
