<?xml version="1.0" encoding="UTF-8" standalone="no"?>
<!DOCTYPE svg PUBLIC "-//W3C//DTD SVG 1.1//EN"
 "http://www.w3.org/Graphics/SVG/1.1/DTD/svg11.dtd">
<!-- Generated by graphviz version 2.38.0 (20140413.2041)
 -->
<!-- Title: Collisions::parseGroundConfig Pages: 1 -->
<svg width="1733pt" height="217pt"
 viewBox="0.00 0.00 1733.00 217.00" xmlns="http://www.w3.org/2000/svg" xmlns:xlink="http://www.w3.org/1999/xlink">
<g id="graph0" class="graph" transform="scale(1 1) rotate(0) translate(4 213)">
<title>Collisions::parseGroundConfig</title>
<polygon fill="white" stroke="none" points="-4,4 -4,-213 1729,-213 1729,4 -4,4"/>
<!-- Node893 -->
<g id="node1" class="node"><title>Node893</title>
<polygon fill="#bfbfbf" stroke="black" points="0,-151.5 0,-170.5 147,-170.5 147,-151.5 0,-151.5"/>
<text text-anchor="middle" x="73.5" y="-158.5" font-family="Helvetica,sans-Serif" font-size="10.00">Collisions::parseGroundConfig</text>
</g>
<!-- Node894 -->
<g id="node2" class="node"><title>Node894</title>
<g id="a_node2"><a xlink:href="../../d9/d39/class_collisions.html#a3f2acd0249632458dd92a551210f83a1" target="_top" xlink:title="Collisions::loadGroundModels\lConfigFile">
<polygon fill="white" stroke="black" points="183,-146 183,-176 329,-176 329,-146 183,-146"/>
<text text-anchor="start" x="191" y="-164" font-family="Helvetica,sans-Serif" font-size="10.00">Collisions::loadGroundModels</text>
<text text-anchor="middle" x="256" y="-153" font-family="Helvetica,sans-Serif" font-size="10.00">ConfigFile</text>
</a>
</g>
</g>
<!-- Node893&#45;&gt;Node894 -->
<g id="edge1" class="edge"><title>Node893&#45;&gt;Node894</title>
<path fill="none" stroke="midnightblue" d="M157.414,-161C165.892,-161 174.457,-161 182.806,-161"/>
<polygon fill="midnightblue" stroke="midnightblue" points="157.136,-157.5 147.136,-161 157.136,-164.5 157.136,-157.5"/>
</g>
<!-- Node895 -->
<g id="node3" class="node"><title>Node895</title>
<g id="a_node3"><a xlink:href="../../da/dea/class_landusemap.html#a15032fdc9b8480990b2d102d91c50122" target="_top" xlink:title="Landusemap::loadConfig">
<polygon fill="white" stroke="black" points="375.5,-189.5 375.5,-208.5 498.5,-208.5 498.5,-189.5 375.5,-189.5"/>
<text text-anchor="middle" x="437" y="-196.5" font-family="Helvetica,sans-Serif" font-size="10.00">Landusemap::loadConfig</text>
</a>
</g>
</g>
<!-- Node894&#45;&gt;Node895 -->
<g id="edge2" class="edge"><title>Node894&#45;&gt;Node895</title>
<path fill="none" stroke="midnightblue" d="M337.612,-178.113C356.038,-182.025 374.971,-186.044 391.246,-189.499"/>
<polygon fill="midnightblue" stroke="midnightblue" points="338.254,-174.672 327.746,-176.019 336.801,-181.519 338.254,-174.672"/>
</g>
<!-- Node897 -->
<g id="node5" class="node"><title>Node897</title>
<g id="a_node5"><a xlink:href="../../d9/d39/class_collisions.html#ab787df47353b8b839cf2187ab61ee514" target="_top" xlink:title="Collisions::loadDefaultModels">
<polygon fill="white" stroke="black" points="365,-151.5 365,-170.5 509,-170.5 509,-151.5 365,-151.5"/>
<text text-anchor="middle" x="437" y="-158.5" font-family="Helvetica,sans-Serif" font-size="10.00">Collisions::loadDefaultModels</text>
</a>
</g>
</g>
<!-- Node894&#45;&gt;Node897 -->
<g id="edge4" class="edge"><title>Node894&#45;&gt;Node897</title>
<path fill="none" stroke="midnightblue" d="M339.114,-161C347.755,-161 356.488,-161 364.988,-161"/>
<polygon fill="midnightblue" stroke="midnightblue" points="339.032,-157.5 329.032,-161 339.032,-164.5 339.032,-157.5"/>
</g>
<!-- Node899 -->
<g id="node7" class="node"><title>Node899</title>
<g id="a_node7"><a xlink:href="../../d6/d14/class_terrain_object_manager.html#a62a108ad201e16585ab3115befedae60" target="_top" xlink:title="TerrainObjectManager\l::loadObject">
<polygon fill="white" stroke="black" points="381,-80 381,-110 493,-110 493,-80 381,-80"/>
<text text-anchor="start" x="389" y="-98" font-family="Helvetica,sans-Serif" font-size="10.00">TerrainObjectManager</text>
<text text-anchor="middle" x="437" y="-87" font-family="Helvetica,sans-Serif" font-size="10.00">::loadObject</text>
</a>
</g>
</g>
<!-- Node894&#45;&gt;Node899 -->
<g id="edge6" class="edge"><title>Node894&#45;&gt;Node899</title>
<path fill="none" stroke="midnightblue" d="M307.579,-142.351C335.267,-132.142 369.126,-119.657 395.125,-110.071"/>
<polygon fill="midnightblue" stroke="midnightblue" points="306.238,-139.115 298.066,-145.858 308.66,-145.683 306.238,-139.115"/>
</g>
<!-- Node896 -->
<g id="node4" class="node"><title>Node896</title>
<g id="a_node4"><a xlink:href="../../da/dea/class_landusemap.html#ac804af3e0f5a61516c7de9e4eb8165f5" target="_top" xlink:title="Landusemap::Landusemap">
<polygon fill="white" stroke="black" points="552.5,-189.5 552.5,-208.5 686.5,-208.5 686.5,-189.5 552.5,-189.5"/>
<text text-anchor="middle" x="619.5" y="-196.5" font-family="Helvetica,sans-Serif" font-size="10.00">Landusemap::Landusemap</text>
</a>
</g>
</g>
<!-- Node895&#45;&gt;Node896 -->
<g id="edge3" class="edge"><title>Node895&#45;&gt;Node896</title>
<path fill="none" stroke="midnightblue" d="M508.913,-199C523.264,-199 538.3,-199 552.474,-199"/>
<polygon fill="midnightblue" stroke="midnightblue" points="508.606,-195.5 498.606,-199 508.606,-202.5 508.606,-195.5"/>
</g>
<!-- Node898 -->
<g id="node6" class="node"><title>Node898</title>
<g id="a_node6"><a xlink:href="../../d9/d39/class_collisions.html#a25e934bf8896b7707b5b005403dd67a9" target="_top" xlink:title="Collisions::Collisions">
<polygon fill="white" stroke="black" points="566,-151.5 566,-170.5 673,-170.5 673,-151.5 566,-151.5"/>
<text text-anchor="middle" x="619.5" y="-158.5" font-family="Helvetica,sans-Serif" font-size="10.00">Collisions::Collisions</text>
</a>
</g>
</g>
<!-- Node897&#45;&gt;Node898 -->
<g id="edge5" class="edge"><title>Node897&#45;&gt;Node898</title>
<path fill="none" stroke="midnightblue" d="M519.384,-161C535.176,-161 551.334,-161 565.898,-161"/>
<polygon fill="midnightblue" stroke="midnightblue" points="519.079,-157.5 509.079,-161 519.079,-164.5 519.079,-157.5"/>
</g>
<!-- Node900 -->
<g id="node8" class="node"><title>Node900</title>
<g id="a_node8"><a xlink:href="../../d0/d9f/class_ro_r_1_1_console.html#a39381023fb19b10edfad9592ce2e1554" target="_top" xlink:title="RoR::Console::eventCommand\lAccept">
<polygon fill="white" stroke="black" points="545,-102 545,-132 694,-132 694,-102 545,-102"/>
<text text-anchor="start" x="553" y="-120" font-family="Helvetica,sans-Serif" font-size="10.00">RoR::Console::eventCommand</text>
<text text-anchor="middle" x="619.5" y="-109" font-family="Helvetica,sans-Serif" font-size="10.00">Accept</text>
</a>
</g>
</g>
<!-- Node899&#45;&gt;Node900 -->
<g id="edge7" class="edge"><title>Node899&#45;&gt;Node900</title>
<path fill="none" stroke="midnightblue" d="M503.257,-102.954C516.725,-104.595 531,-106.335 544.746,-108.011"/>
<polygon fill="midnightblue" stroke="midnightblue" points="503.487,-99.4559 493.137,-101.72 502.64,-106.405 503.487,-99.4559"/>
</g>
<!-- Node902 -->
<g id="node10" class="node"><title>Node902</title>
<g id="a_node10"><a xlink:href="../../d5/de5/class_game_script.html#adc155d46516906fb9bfddde649c02ee6" target="_top" xlink:title="GameScript::spawnObject">
<polygon fill="white" stroke="black" points="554,-63.5 554,-82.5 685,-82.5 685,-63.5 554,-63.5"/>
<text text-anchor="middle" x="619.5" y="-70.5" font-family="Helvetica,sans-Serif" font-size="10.00">GameScript::spawnObject</text>
</a>
</g>
</g>
<!-- Node899&#45;&gt;Node902 -->
<g id="edge9" class="edge"><title>Node899&#45;&gt;Node902</title>
<path fill="none" stroke="midnightblue" d="M503.227,-87.0499C519.718,-85.0399 537.42,-82.8824 553.881,-80.876"/>
<polygon fill="midnightblue" stroke="midnightblue" points="502.64,-83.5955 493.137,-88.2797 503.487,-90.5441 502.64,-83.5955"/>
</g>
<!-- Node903 -->
<g id="node11" class="node"><title>Node903</title>
<g id="a_node11"><a xlink:href="../../d6/d14/class_terrain_object_manager.html#a45ccbf51f9c0ecac68927fed5e52eaa4" target="_top" xlink:title="TerrainObjectManager\l::loadObjectConfigFile">
<polygon fill="white" stroke="black" points="563.5,-14 563.5,-44 675.5,-44 675.5,-14 563.5,-14"/>
<text text-anchor="start" x="571.5" y="-32" font-family="Helvetica,sans-Serif" font-size="10.00">TerrainObjectManager</text>
<text text-anchor="middle" x="619.5" y="-21" font-family="Helvetica,sans-Serif" font-size="10.00">::loadObjectConfigFile</text>
</a>
</g>
</g>
<!-- Node899&#45;&gt;Node903 -->
<g id="edge10" class="edge"><title>Node899&#45;&gt;Node903</title>
<path fill="none" stroke="midnightblue" d="M485.851,-76.2185C504.281,-69.1022 525.564,-61.0264 545,-54 554.126,-50.7007 563.933,-47.2798 573.316,-44.0665"/>
<polygon fill="midnightblue" stroke="midnightblue" points="484.559,-72.9656 476.498,-79.8418 487.087,-79.4929 484.559,-72.9656"/>
</g>
<!-- Node901 -->
<g id="node9" class="node"><title>Node901</title>
<g id="a_node9"><a xlink:href="../../d0/d9f/class_ro_r_1_1_console.html#aba16cfd9f0894eb1312b1bc1155b6646" target="_top" xlink:title="RoR::Console::Console">
<polygon fill="white" stroke="black" points="739.5,-107.5 739.5,-126.5 857.5,-126.5 857.5,-107.5 739.5,-107.5"/>
<text text-anchor="middle" x="798.5" y="-114.5" font-family="Helvetica,sans-Serif" font-size="10.00">RoR::Console::Console</text>
</a>
</g>
</g>
<!-- Node900&#45;&gt;Node901 -->
<g id="edge8" class="edge"><title>Node900&#45;&gt;Node901</title>
<path fill="none" stroke="midnightblue" d="M704.362,-117C716.18,-117 728.108,-117 739.301,-117"/>
<polygon fill="midnightblue" stroke="midnightblue" points="704.026,-113.5 694.026,-117 704.026,-120.5 704.026,-113.5"/>
</g>
<!-- Node904 -->
<g id="node12" class="node"><title>Node904</title>
<g id="a_node12"><a xlink:href="../../d3/d16/class_terrain_manager.html#a4ad87b973cb6af52daaf530a5feff167" target="_top" xlink:title="TerrainManager::loadTerrain\lObjects">
<polygon fill="white" stroke="black" points="730,-14 730,-44 867,-44 867,-14 730,-14"/>
<text text-anchor="start" x="738" y="-32" font-family="Helvetica,sans-Serif" font-size="10.00">TerrainManager::loadTerrain</text>
<text text-anchor="middle" x="798.5" y="-21" font-family="Helvetica,sans-Serif" font-size="10.00">Objects</text>
</a>
</g>
</g>
<!-- Node903&#45;&gt;Node904 -->
<g id="edge11" class="edge"><title>Node903&#45;&gt;Node904</title>
<path fill="none" stroke="midnightblue" d="M685.784,-29C700.106,-29 715.3,-29 729.718,-29"/>
<polygon fill="midnightblue" stroke="midnightblue" points="685.534,-25.5001 675.534,-29 685.534,-32.5001 685.534,-25.5001"/>
</g>
<!-- Node905 -->
<g id="node13" class="node"><title>Node905</title>
<g id="a_node13"><a xlink:href="../../d3/d16/class_terrain_manager.html#a9a04c837bf2ea6528c465b27ca62f730" target="_top" xlink:title="TerrainManager::loadTerrain">
<polygon fill="white" stroke="black" points="903,-19.5 903,-38.5 1040,-38.5 1040,-19.5 903,-19.5"/>
<text text-anchor="middle" x="971.5" y="-26.5" font-family="Helvetica,sans-Serif" font-size="10.00">TerrainManager::loadTerrain</text>
</a>
</g>
</g>
<!-- Node904&#45;&gt;Node905 -->
<g id="edge12" class="edge"><title>Node904&#45;&gt;Node905</title>
<path fill="none" stroke="midnightblue" d="M877.1,-29C885.692,-29 894.391,-29 902.847,-29"/>
<polygon fill="midnightblue" stroke="midnightblue" points="877.084,-25.5001 867.084,-29 877.084,-32.5001 877.084,-25.5001"/>
</g>
<!-- Node906 -->
<g id="node14" class="node"><title>Node906</title>
<g id="a_node14"><a xlink:href="../../dd/dbe/class_ro_r_frame_listener.html#a9757c059e840019a3e2659d5ef63ea02" target="_top" xlink:title="Reads GVar &#39;sim_terrain_pending&#39;. ">
<polygon fill="white" stroke="black" points="1076,-19.5 1076,-38.5 1230,-38.5 1230,-19.5 1076,-19.5"/>
<text text-anchor="middle" x="1153" y="-26.5" font-family="Helvetica,sans-Serif" font-size="10.00">RoRFrameListener::LoadTerrain</text>
</a>
</g>
</g>
<!-- Node905&#45;&gt;Node906 -->
<g id="edge13" class="edge"><title>Node905&#45;&gt;Node906</title>
<path fill="none" stroke="midnightblue" d="M1050.3,-29C1058.73,-29 1067.31,-29 1075.73,-29"/>
<polygon fill="midnightblue" stroke="midnightblue" points="1050.11,-25.5001 1040.11,-29 1050.11,-32.5001 1050.11,-25.5001"/>
</g>
<!-- Node907 -->
<g id="node15" class="node"><title>Node907</title>
<g id="a_node15"><a xlink:href="../../dd/dbe/class_ro_r_frame_listener.html#aca3931d7a75f2ad4b9d36c4fcd03a3c9" target="_top" xlink:title="RoRFrameListener::SetupGameplayLoop">
<polygon fill="white" stroke="black" points="1266,-0.5 1266,-19.5 1460,-19.5 1460,-0.5 1266,-0.5"/>
<text text-anchor="middle" x="1363" y="-7.5" font-family="Helvetica,sans-Serif" font-size="10.00">RoRFrameListener::SetupGameplayLoop</text>
</a>
</g>
</g>
<!-- Node906&#45;&gt;Node907 -->
<g id="edge14" class="edge"><title>Node906&#45;&gt;Node907</title>
<path fill="none" stroke="midnightblue" d="M1240.43,-21.1046C1248.84,-20.3365 1257.41,-19.5539 1265.91,-18.7779"/>
<polygon fill="midnightblue" stroke="midnightblue" points="1239.91,-17.6377 1230.27,-22.033 1240.55,-24.6087 1239.91,-17.6377"/>
</g>
<!-- Node908 -->
<g id="node16" class="node"><title>Node908</title>
<g id="a_node16"><a xlink:href="../../dd/dbe/class_ro_r_frame_listener.html#ad598075b5f183208c0de43b9248bb44b" target="_top" xlink:title="RoRFrameListener::getTime">
<polygon fill="white" stroke="black" points="1496,-38.5 1496,-57.5 1634,-57.5 1634,-38.5 1496,-38.5"/>
<text text-anchor="middle" x="1565" y="-45.5" font-family="Helvetica,sans-Serif" font-size="10.00">RoRFrameListener::getTime</text>
</a>
</g>
</g>
<!-- Node906&#45;&gt;Node908 -->
<g id="edge18" class="edge"><title>Node906&#45;&gt;Node908</title>
<path fill="none" stroke="midnightblue" d="M1240.19,-32.9943C1316.25,-36.5188 1425.62,-41.5871 1495.74,-44.8368"/>
<polygon fill="midnightblue" stroke="midnightblue" points="1240.31,-29.496 1230.16,-32.5292 1239.98,-36.4885 1240.31,-29.496"/>
</g>
<!-- Node907&#45;&gt;Node908 -->
<g id="edge15" class="edge"><title>Node907&#45;&gt;Node908</title>
<path fill="none" stroke="midnightblue" d="M1424.1,-21.4181C1452.71,-26.8552 1486.54,-33.2832 1513.77,-38.4561"/>
<polygon fill="midnightblue" stroke="midnightblue" points="1424.69,-17.9682 1414.21,-19.54 1423.38,-24.8451 1424.69,-17.9682"/>
</g>
<!-- Node909 -->
<g id="node17" class="node"><title>Node909</title>
<g id="a_node17"><a xlink:href="../../df/d0a/main_8cpp.html#a0ddf1224851353fc92bfbff6f499fa97" target="_top" xlink:title="main">
<polygon fill="white" stroke="black" points="1546,-0.5 1546,-19.5 1584,-19.5 1584,-0.5 1546,-0.5"/>
<text text-anchor="middle" x="1565" y="-7.5" font-family="Helvetica,sans-Serif" font-size="10.00">main</text>
</a>
</g>
</g>
<!-- Node907&#45;&gt;Node909 -->
<g id="edge16" class="edge"><title>Node907&#45;&gt;Node909</title>
<path fill="none" stroke="midnightblue" d="M1470.52,-10C1499.66,-10 1528.07,-10 1545.77,-10"/>
<polygon fill="midnightblue" stroke="midnightblue" points="1470.19,-6.5001 1460.19,-10 1470.19,-13.5001 1470.19,-6.5001"/>
</g>
<!-- Node910 -->
<g id="node18" class="node"><title>Node910</title>
<g id="a_node18"><a xlink:href="../../df/d0a/main_8cpp.html#a2922bc5d5c2d77a3020cfbf9df12aab0" target="_top" xlink:title="WinMain">
<polygon fill="white" stroke="black" points="1670,-0.5 1670,-19.5 1725,-19.5 1725,-0.5 1670,-0.5"/>
<text text-anchor="middle" x="1697.5" y="-7.5" font-family="Helvetica,sans-Serif" font-size="10.00">WinMain</text>
</a>
</g>
</g>
<!-- Node909&#45;&gt;Node910 -->
<g id="edge17" class="edge"><title>Node909&#45;&gt;Node910</title>
<path fill="none" stroke="midnightblue" d="M1594.39,-10C1616.84,-10 1647.96,-10 1669.92,-10"/>
<polygon fill="midnightblue" stroke="midnightblue" points="1594.15,-6.5001 1584.15,-10 1594.15,-13.5001 1594.15,-6.5001"/>
</g>
</g>
</svg>
