<?xml version="1.0" encoding="UTF-8" standalone="no"?>
<!DOCTYPE svg PUBLIC "-//W3C//DTD SVG 1.1//EN"
 "http://www.w3.org/Graphics/SVG/1.1/DTD/svg11.dtd">
<!-- Generated by graphviz version 2.38.0 (20140413.2041)
 -->
<!-- Title: Collisions::getBox Pages: 1 -->
<svg width="486pt" height="66pt"
 viewBox="0.00 0.00 486.00 66.00" xmlns="http://www.w3.org/2000/svg" xmlns:xlink="http://www.w3.org/1999/xlink">
<g id="graph0" class="graph" transform="scale(1 1) rotate(0) translate(4 62)">
<title>Collisions::getBox</title>
<polygon fill="white" stroke="none" points="-4,4 -4,-62 482,-62 482,4 -4,4"/>
<!-- Node436 -->
<g id="node1" class="node"><title>Node436</title>
<polygon fill="#bfbfbf" stroke="black" points="0,-19.5 0,-38.5 95,-38.5 95,-19.5 0,-19.5"/>
<text text-anchor="middle" x="47.5" y="-26.5" font-family="Helvetica,sans-Serif" font-size="10.00">Collisions::getBox</text>
</g>
<!-- Node437 -->
<g id="node2" class="node"><title>Node437</title>
<g id="a_node2"><a xlink:href="../../dd/dbe/class_ro_r_frame_listener.html#a57679664f6f2299add5b6ba7fcbb1b11" target="_top" xlink:title="RoRFrameListener::ShowLoaderGUI">
<polygon fill="white" stroke="black" points="131,-38.5 131,-57.5 304,-57.5 304,-38.5 131,-38.5"/>
<text text-anchor="middle" x="217.5" y="-45.5" font-family="Helvetica,sans-Serif" font-size="10.00">RoRFrameListener::ShowLoaderGUI</text>
</a>
</g>
</g>
<!-- Node436&#45;&gt;Node437 -->
<g id="edge1" class="edge"><title>Node436&#45;&gt;Node437</title>
<path fill="none" stroke="midnightblue" d="M105.299,-35.4237C114.012,-36.4091 123.163,-37.4441 132.317,-38.4793"/>
<polygon fill="midnightblue" stroke="midnightblue" points="105.627,-31.9386 95.2974,-34.2926 104.841,-38.8943 105.627,-31.9386"/>
</g>
<!-- Node439 -->
<g id="node4" class="node"><title>Node439</title>
<g id="a_node4"><a xlink:href="../../d9/d39/class_collisions.html#a1d36e847666bf0e04f58b0c0ec0453c5" target="_top" xlink:title="Collisions::isTruckInEventBox">
<polygon fill="white" stroke="black" points="145,-0.5 145,-19.5 290,-19.5 290,-0.5 145,-0.5"/>
<text text-anchor="middle" x="217.5" y="-7.5" font-family="Helvetica,sans-Serif" font-size="10.00">Collisions::isTruckInEventBox</text>
</a>
</g>
</g>
<!-- Node436&#45;&gt;Node439 -->
<g id="edge3" class="edge"><title>Node436&#45;&gt;Node439</title>
<path fill="none" stroke="midnightblue" d="M105.256,-22.5812C117.955,-21.145 131.585,-19.6035 144.8,-18.1089"/>
<polygon fill="midnightblue" stroke="midnightblue" points="104.841,-19.1057 95.2974,-23.7074 105.627,-26.0614 104.841,-19.1057"/>
</g>
<!-- Node438 -->
<g id="node3" class="node"><title>Node438</title>
<g id="a_node3"><a xlink:href="../../dd/dbe/class_ro_r_frame_listener.html#ad598075b5f183208c0de43b9248bb44b" target="_top" xlink:title="RoRFrameListener::getTime">
<polygon fill="white" stroke="black" points="340,-38.5 340,-57.5 478,-57.5 478,-38.5 340,-38.5"/>
<text text-anchor="middle" x="409" y="-45.5" font-family="Helvetica,sans-Serif" font-size="10.00">RoRFrameListener::getTime</text>
</a>
</g>
</g>
<!-- Node437&#45;&gt;Node438 -->
<g id="edge2" class="edge"><title>Node437&#45;&gt;Node438</title>
<path fill="none" stroke="midnightblue" d="M314.228,-48C322.864,-48 331.49,-48 339.817,-48"/>
<polygon fill="midnightblue" stroke="midnightblue" points="314.102,-44.5001 304.102,-48 314.102,-51.5001 314.102,-44.5001"/>
</g>
</g>
</svg>
