<?xml version="1.0" encoding="UTF-8" standalone="no"?>
<!DOCTYPE svg PUBLIC "-//W3C//DTD SVG 1.1//EN"
 "http://www.w3.org/Graphics/SVG/1.1/DTD/svg11.dtd">
<!-- Generated by graphviz version 2.38.0 (20140413.2041)
 -->
<!-- Title: Collisions::removeCollisionTri Pages: 1 -->
<svg width="601pt" height="94pt"
 viewBox="0.00 0.00 601.00 93.50" xmlns="http://www.w3.org/2000/svg" xmlns:xlink="http://www.w3.org/1999/xlink">
<g id="graph0" class="graph" transform="scale(1 1) rotate(0) translate(4 89.5)">
<title>Collisions::removeCollisionTri</title>
<polygon fill="white" stroke="none" points="-4,4 -4,-89.5 597,-89.5 597,4 -4,4"/>
<!-- Node1003 -->
<g id="node1" class="node"><title>Node1003</title>
<polygon fill="#bfbfbf" stroke="black" points="0,-47 0,-66 143,-66 143,-47 0,-47"/>
<text text-anchor="middle" x="71.5" y="-54" font-family="Helvetica,sans-Serif" font-size="10.00">Collisions::removeCollisionTri</text>
</g>
<!-- Node1004 -->
<g id="node2" class="node"><title>Node1004</title>
<g id="a_node2"><a xlink:href="../../d0/d42/class_road2.html#ac9acc1c075562fdf4f6078b4fc867858" target="_top" xlink:title="Road2::~Road2">
<polygon fill="white" stroke="black" points="184.5,-66 184.5,-85 268.5,-85 268.5,-66 184.5,-66"/>
<text text-anchor="middle" x="226.5" y="-73" font-family="Helvetica,sans-Serif" font-size="10.00">Road2::~Road2</text>
</a>
</g>
</g>
<!-- Node1003&#45;&gt;Node1004 -->
<g id="edge1" class="edge"><title>Node1003&#45;&gt;Node1004</title>
<path fill="none" stroke="midnightblue" d="M153.106,-66.5099C163.911,-67.8517 174.606,-69.1798 184.326,-70.3869"/>
<polygon fill="midnightblue" stroke="midnightblue" points="153.533,-63.0361 143.178,-65.277 152.67,-69.9828 153.533,-63.0361"/>
</g>
<!-- Node1005 -->
<g id="node3" class="node"><title>Node1005</title>
<g id="a_node3"><a xlink:href="../../d2/d0a/_terrain_object_manager_8cpp.html#a10b3ef92e6788c5d406f238715b3de93" target="_top" xlink:title="removeCollisionTri">
<polygon fill="white" stroke="black" points="179,-28 179,-47 274,-47 274,-28 179,-28"/>
<text text-anchor="middle" x="226.5" y="-35" font-family="Helvetica,sans-Serif" font-size="10.00">removeCollisionTri</text>
</a>
</g>
</g>
<!-- Node1003&#45;&gt;Node1005 -->
<g id="edge2" class="edge"><title>Node1003&#45;&gt;Node1005</title>
<path fill="none" stroke="midnightblue" d="M153.371,-46.4572C162.047,-45.3797 170.649,-44.3116 178.726,-43.3085"/>
<polygon fill="midnightblue" stroke="midnightblue" points="152.67,-43.0172 143.178,-47.723 153.533,-49.9639 152.67,-43.0172"/>
</g>
<!-- Node1006 -->
<g id="node4" class="node"><title>Node1006</title>
<g id="a_node4"><a xlink:href="../../d9/d39/class_collisions.html#a1fa156bf0bab59802a6f1724d8801151" target="_top" xlink:title="Collisions::getEvent">
<polygon fill="white" stroke="black" points="315,-50 315,-69 417,-69 417,-50 315,-50"/>
<text text-anchor="middle" x="366" y="-57" font-family="Helvetica,sans-Serif" font-size="10.00">Collisions::getEvent</text>
</a>
</g>
</g>
<!-- Node1005&#45;&gt;Node1006 -->
<g id="edge3" class="edge"><title>Node1005&#45;&gt;Node1006</title>
<path fill="none" stroke="midnightblue" d="M284.059,-46.5494C294.224,-48.1758 304.755,-49.8609 314.727,-51.4563"/>
<polygon fill="midnightblue" stroke="midnightblue" points="284.479,-43.0721 274.051,-44.9482 283.373,-49.9842 284.479,-43.0721"/>
</g>
<!-- Node1007 -->
<g id="node5" class="node"><title>Node1007</title>
<g id="a_node5"><a xlink:href="../../d6/d14/class_terrain_object_manager.html#a810b822abfbab9dd498a884f1787512c" target="_top" xlink:title="TerrainObjectManager\l::unloadObject">
<polygon fill="white" stroke="black" points="310,-0.5 310,-30.5 422,-30.5 422,-0.5 310,-0.5"/>
<text text-anchor="start" x="318" y="-18.5" font-family="Helvetica,sans-Serif" font-size="10.00">TerrainObjectManager</text>
<text text-anchor="middle" x="366" y="-7.5" font-family="Helvetica,sans-Serif" font-size="10.00">::unloadObject</text>
</a>
</g>
</g>
<!-- Node1005&#45;&gt;Node1007 -->
<g id="edge4" class="edge"><title>Node1005&#45;&gt;Node1007</title>
<path fill="none" stroke="midnightblue" d="M283.968,-28.4651C292.548,-27.0924 301.391,-25.6774 309.94,-24.3096"/>
<polygon fill="midnightblue" stroke="midnightblue" points="283.373,-25.0158 274.051,-30.0518 284.479,-31.9279 283.373,-25.0158"/>
</g>
<!-- Node1008 -->
<g id="node6" class="node"><title>Node1008</title>
<g id="a_node6"><a xlink:href="../../d5/de5/class_game_script.html#ac9ef8b95e5fd759b73ef414e9ae9a6a8" target="_top" xlink:title="GameScript::destroyObject">
<polygon fill="white" stroke="black" points="458,-6 458,-25 593,-25 593,-6 458,-6"/>
<text text-anchor="middle" x="525.5" y="-13" font-family="Helvetica,sans-Serif" font-size="10.00">GameScript::destroyObject</text>
</a>
</g>
</g>
<!-- Node1007&#45;&gt;Node1008 -->
<g id="edge5" class="edge"><title>Node1007&#45;&gt;Node1008</title>
<path fill="none" stroke="midnightblue" d="M432.246,-15.5C440.685,-15.5 449.337,-15.5 457.799,-15.5"/>
<polygon fill="midnightblue" stroke="midnightblue" points="432.086,-12.0001 422.086,-15.5 432.086,-19.0001 432.086,-12.0001"/>
</g>
</g>
</svg>
