<?xml version="1.0" encoding="UTF-8" standalone="no"?>
<!DOCTYPE svg PUBLIC "-//W3C//DTD SVG 1.1//EN"
 "http://www.w3.org/Graphics/SVG/1.1/DTD/svg11.dtd">
<!-- Generated by graphviz version 2.38.0 (20140413.2041)
 -->
<!-- Title: Collisions::loadGroundModelsConfigFile Pages: 1 -->
<!--zoomable 217 -->
<svg id="main" version="1.1" xmlns="http://www.w3.org/2000/svg" xmlns:xlink="http://www.w3.org/1999/xlink" xml:space="preserve" onload="init(evt)">
<style type="text/css"><![CDATA[
.edge:hover path { stroke: red; }
.edge:hover polygon { stroke: red; fill: red; }
]]></style>
<script type="text/javascript"><![CDATA[
var edges = document.getElementsByTagName('g');
if (edges && edges.length) {
  for (var i=0;i<edges.length;i++) {
    if (edges[i].id.substr(0,4)=='edge') {
      edges[i].setAttribute('class','edge');
    }
  }
}
]]></script>
        <defs>
                <circle id="rim" cx="0" cy="0" r="7"/>
                <circle id="rim2" cx="0" cy="0" r="3.5"/>
                <g id="zoomPlus">
                        <use xlink:href="#rim" fill="#404040">
                                <set attributeName="fill" to="#808080" begin="zoomplus.mouseover" end="zoomplus.mouseout"/>
                        </use>
                        <path d="M-4,0h8M0,-4v8" fill="none" stroke="white" stroke-width="1.5" pointer-events="none"/>
                </g>
                <g id="zoomMin">
                        <use xlink:href="#rim" fill="#404040">
                                <set attributeName="fill" to="#808080" begin="zoomminus.mouseover" end="zoomminus.mouseout"/>
                        </use>
                        <path d="M-4,0h8" fill="none" stroke="white" stroke-width="1.5" pointer-events="none"/>
                </g>
                <g id="dirArrow">
                        <path fill="none" stroke="white" stroke-width="1.5" d="M0,-3.0v7 M-2.5,-0.5L0,-3.0L2.5,-0.5"/>
                </g>
               <g id="resetDef">
                       <use xlink:href="#rim2" fill="#404040">
                               <set attributeName="fill" to="#808080" begin="reset.mouseover" end="reset.mouseout"/>
                       </use>
               </g>
        </defs>

<script type="text/javascript">
var viewWidth = 1550;
var viewHeight = 217;
var sectionId = 'dynsection-42';
</script>
<script xlink:href="../../svgpan.js"/>
<svg id="graph" class="graph">
<g id="viewport">
<title>Collisions::loadGroundModelsConfigFile</title>
<polygon fill="white" stroke="none" points="-4,4 -4,-213 1546,-213 1546,4 -4,4"/>
<!-- Node853 -->
<g id="node1" class="node"><title>Node853</title>
<polygon fill="#bfbfbf" stroke="black" points="0,-146 0,-176 146,-176 146,-146 0,-146"/>
<text text-anchor="start" x="8" y="-164" font-family="Helvetica,sans-Serif" font-size="10.00">Collisions::loadGroundModels</text>
<text text-anchor="middle" x="73" y="-153" font-family="Helvetica,sans-Serif" font-size="10.00">ConfigFile</text>
</g>
<!-- Node854 -->
<g id="node2" class="node"><title>Node854</title>
<g id="a_node2"><a xlink:href="../../da/dea/class_landusemap.html#a15032fdc9b8480990b2d102d91c50122" target="_top" xlink:title="Landusemap::loadConfig">
<polygon fill="white" stroke="black" points="192.5,-189.5 192.5,-208.5 315.5,-208.5 315.5,-189.5 192.5,-189.5"/>
<text text-anchor="middle" x="254" y="-196.5" font-family="Helvetica,sans-Serif" font-size="10.00">Landusemap::loadConfig</text>
</a>
</g>
</g>
<!-- Node853&#45;&gt;Node854 -->
<g id="edge1" class="edge"><title>Node853&#45;&gt;Node854</title>
<path fill="none" stroke="midnightblue" d="M154.612,-178.113C173.038,-182.025 191.971,-186.044 208.246,-189.499"/>
<polygon fill="midnightblue" stroke="midnightblue" points="155.254,-174.672 144.746,-176.019 153.801,-181.519 155.254,-174.672"/>
</g>
<!-- Node856 -->
<g id="node4" class="node"><title>Node856</title>
<g id="a_node4"><a xlink:href="../../d9/d39/class_collisions.html#ab787df47353b8b839cf2187ab61ee514" target="_top" xlink:title="Collisions::loadDefaultModels">
<polygon fill="white" stroke="black" points="182,-151.5 182,-170.5 326,-170.5 326,-151.5 182,-151.5"/>
<text text-anchor="middle" x="254" y="-158.5" font-family="Helvetica,sans-Serif" font-size="10.00">Collisions::loadDefaultModels</text>
</a>
</g>
</g>
<!-- Node853&#45;&gt;Node856 -->
<g id="edge3" class="edge"><title>Node853&#45;&gt;Node856</title>
<path fill="none" stroke="midnightblue" d="M156.114,-161C164.755,-161 173.488,-161 181.988,-161"/>
<polygon fill="midnightblue" stroke="midnightblue" points="156.032,-157.5 146.032,-161 156.032,-164.5 156.032,-157.5"/>
</g>
<!-- Node858 -->
<g id="node6" class="node"><title>Node858</title>
<g id="a_node6"><a xlink:href="../../d6/d14/class_terrain_object_manager.html#a62a108ad201e16585ab3115befedae60" target="_top" xlink:title="TerrainObjectManager\l::loadObject">
<polygon fill="white" stroke="black" points="198,-80 198,-110 310,-110 310,-80 198,-80"/>
<text text-anchor="start" x="206" y="-98" font-family="Helvetica,sans-Serif" font-size="10.00">TerrainObjectManager</text>
<text text-anchor="middle" x="254" y="-87" font-family="Helvetica,sans-Serif" font-size="10.00">::loadObject</text>
</a>
</g>
</g>
<!-- Node853&#45;&gt;Node858 -->
<g id="edge5" class="edge"><title>Node853&#45;&gt;Node858</title>
<path fill="none" stroke="midnightblue" d="M124.579,-142.351C152.267,-132.142 186.126,-119.657 212.125,-110.071"/>
<polygon fill="midnightblue" stroke="midnightblue" points="123.238,-139.115 115.066,-145.858 125.66,-145.683 123.238,-139.115"/>
</g>
<!-- Node855 -->
<g id="node3" class="node"><title>Node855</title>
<g id="a_node3"><a xlink:href="../../da/dea/class_landusemap.html#ac804af3e0f5a61516c7de9e4eb8165f5" target="_top" xlink:title="Landusemap::Landusemap">
<polygon fill="white" stroke="black" points="369.5,-189.5 369.5,-208.5 503.5,-208.5 503.5,-189.5 369.5,-189.5"/>
<text text-anchor="middle" x="436.5" y="-196.5" font-family="Helvetica,sans-Serif" font-size="10.00">Landusemap::Landusemap</text>
</a>
</g>
</g>
<!-- Node854&#45;&gt;Node855 -->
<g id="edge2" class="edge"><title>Node854&#45;&gt;Node855</title>
<path fill="none" stroke="midnightblue" d="M325.913,-199C340.264,-199 355.3,-199 369.474,-199"/>
<polygon fill="midnightblue" stroke="midnightblue" points="325.606,-195.5 315.606,-199 325.606,-202.5 325.606,-195.5"/>
</g>
<!-- Node857 -->
<g id="node5" class="node"><title>Node857</title>
<g id="a_node5"><a xlink:href="../../d9/d39/class_collisions.html#a25e934bf8896b7707b5b005403dd67a9" target="_top" xlink:title="Collisions::Collisions">
<polygon fill="white" stroke="black" points="383,-151.5 383,-170.5 490,-170.5 490,-151.5 383,-151.5"/>
<text text-anchor="middle" x="436.5" y="-158.5" font-family="Helvetica,sans-Serif" font-size="10.00">Collisions::Collisions</text>
</a>
</g>
</g>
<!-- Node856&#45;&gt;Node857 -->
<g id="edge4" class="edge"><title>Node856&#45;&gt;Node857</title>
<path fill="none" stroke="midnightblue" d="M336.384,-161C352.176,-161 368.334,-161 382.898,-161"/>
<polygon fill="midnightblue" stroke="midnightblue" points="336.079,-157.5 326.079,-161 336.079,-164.5 336.079,-157.5"/>
</g>
<!-- Node859 -->
<g id="node7" class="node"><title>Node859</title>
<g id="a_node7"><a xlink:href="../../d0/d9f/class_ro_r_1_1_console.html#a39381023fb19b10edfad9592ce2e1554" target="_top" xlink:title="RoR::Console::eventCommand\lAccept">
<polygon fill="white" stroke="black" points="362,-102 362,-132 511,-132 511,-102 362,-102"/>
<text text-anchor="start" x="370" y="-120" font-family="Helvetica,sans-Serif" font-size="10.00">RoR::Console::eventCommand</text>
<text text-anchor="middle" x="436.5" y="-109" font-family="Helvetica,sans-Serif" font-size="10.00">Accept</text>
</a>
</g>
</g>
<!-- Node858&#45;&gt;Node859 -->
<g id="edge6" class="edge"><title>Node858&#45;&gt;Node859</title>
<path fill="none" stroke="midnightblue" d="M320.257,-102.954C333.725,-104.595 348,-106.335 361.746,-108.011"/>
<polygon fill="midnightblue" stroke="midnightblue" points="320.487,-99.4559 310.137,-101.72 319.64,-106.405 320.487,-99.4559"/>
</g>
<!-- Node861 -->
<g id="node9" class="node"><title>Node861</title>
<g id="a_node9"><a xlink:href="../../d5/de5/class_game_script.html#adc155d46516906fb9bfddde649c02ee6" target="_top" xlink:title="GameScript::spawnObject">
<polygon fill="white" stroke="black" points="371,-63.5 371,-82.5 502,-82.5 502,-63.5 371,-63.5"/>
<text text-anchor="middle" x="436.5" y="-70.5" font-family="Helvetica,sans-Serif" font-size="10.00">GameScript::spawnObject</text>
</a>
</g>
</g>
<!-- Node858&#45;&gt;Node861 -->
<g id="edge8" class="edge"><title>Node858&#45;&gt;Node861</title>
<path fill="none" stroke="midnightblue" d="M320.227,-87.0499C336.718,-85.0399 354.42,-82.8824 370.881,-80.876"/>
<polygon fill="midnightblue" stroke="midnightblue" points="319.64,-83.5955 310.137,-88.2797 320.487,-90.5441 319.64,-83.5955"/>
</g>
<!-- Node862 -->
<g id="node10" class="node"><title>Node862</title>
<g id="a_node10"><a xlink:href="../../d6/d14/class_terrain_object_manager.html#a45ccbf51f9c0ecac68927fed5e52eaa4" target="_top" xlink:title="TerrainObjectManager\l::loadObjectConfigFile">
<polygon fill="white" stroke="black" points="380.5,-14 380.5,-44 492.5,-44 492.5,-14 380.5,-14"/>
<text text-anchor="start" x="388.5" y="-32" font-family="Helvetica,sans-Serif" font-size="10.00">TerrainObjectManager</text>
<text text-anchor="middle" x="436.5" y="-21" font-family="Helvetica,sans-Serif" font-size="10.00">::loadObjectConfigFile</text>
</a>
</g>
</g>
<!-- Node858&#45;&gt;Node862 -->
<g id="edge9" class="edge"><title>Node858&#45;&gt;Node862</title>
<path fill="none" stroke="midnightblue" d="M302.851,-76.2185C321.281,-69.1022 342.564,-61.0264 362,-54 371.126,-50.7007 380.933,-47.2798 390.316,-44.0665"/>
<polygon fill="midnightblue" stroke="midnightblue" points="301.559,-72.9656 293.498,-79.8418 304.087,-79.4929 301.559,-72.9656"/>
</g>
<!-- Node860 -->
<g id="node8" class="node"><title>Node860</title>
<g id="a_node8"><a xlink:href="../../d0/d9f/class_ro_r_1_1_console.html#aba16cfd9f0894eb1312b1bc1155b6646" target="_top" xlink:title="RoR::Console::Console">
<polygon fill="white" stroke="black" points="556.5,-107.5 556.5,-126.5 674.5,-126.5 674.5,-107.5 556.5,-107.5"/>
<text text-anchor="middle" x="615.5" y="-114.5" font-family="Helvetica,sans-Serif" font-size="10.00">RoR::Console::Console</text>
</a>
</g>
</g>
<!-- Node859&#45;&gt;Node860 -->
<g id="edge7" class="edge"><title>Node859&#45;&gt;Node860</title>
<path fill="none" stroke="midnightblue" d="M521.362,-117C533.18,-117 545.108,-117 556.301,-117"/>
<polygon fill="midnightblue" stroke="midnightblue" points="521.026,-113.5 511.026,-117 521.026,-120.5 521.026,-113.5"/>
</g>
<!-- Node863 -->
<g id="node11" class="node"><title>Node863</title>
<g id="a_node11"><a xlink:href="../../d3/d16/class_terrain_manager.html#a4ad87b973cb6af52daaf530a5feff167" target="_top" xlink:title="TerrainManager::loadTerrain\lObjects">
<polygon fill="white" stroke="black" points="547,-14 547,-44 684,-44 684,-14 547,-14"/>
<text text-anchor="start" x="555" y="-32" font-family="Helvetica,sans-Serif" font-size="10.00">TerrainManager::loadTerrain</text>
<text text-anchor="middle" x="615.5" y="-21" font-family="Helvetica,sans-Serif" font-size="10.00">Objects</text>
</a>
</g>
</g>
<!-- Node862&#45;&gt;Node863 -->
<g id="edge10" class="edge"><title>Node862&#45;&gt;Node863</title>
<path fill="none" stroke="midnightblue" d="M502.784,-29C517.106,-29 532.3,-29 546.718,-29"/>
<polygon fill="midnightblue" stroke="midnightblue" points="502.534,-25.5001 492.534,-29 502.534,-32.5001 502.534,-25.5001"/>
</g>
<!-- Node864 -->
<g id="node12" class="node"><title>Node864</title>
<g id="a_node12"><a xlink:href="../../d3/d16/class_terrain_manager.html#a9a04c837bf2ea6528c465b27ca62f730" target="_top" xlink:title="TerrainManager::loadTerrain">
<polygon fill="white" stroke="black" points="720,-19.5 720,-38.5 857,-38.5 857,-19.5 720,-19.5"/>
<text text-anchor="middle" x="788.5" y="-26.5" font-family="Helvetica,sans-Serif" font-size="10.00">TerrainManager::loadTerrain</text>
</a>
</g>
</g>
<!-- Node863&#45;&gt;Node864 -->
<g id="edge11" class="edge"><title>Node863&#45;&gt;Node864</title>
<path fill="none" stroke="midnightblue" d="M694.1,-29C702.692,-29 711.391,-29 719.847,-29"/>
<polygon fill="midnightblue" stroke="midnightblue" points="694.084,-25.5001 684.084,-29 694.084,-32.5001 694.084,-25.5001"/>
</g>
<!-- Node865 -->
<g id="node13" class="node"><title>Node865</title>
<g id="a_node13"><a xlink:href="../../dd/dbe/class_ro_r_frame_listener.html#a9757c059e840019a3e2659d5ef63ea02" target="_top" xlink:title="Reads GVar &#39;sim_terrain_pending&#39;. ">
<polygon fill="white" stroke="black" points="893,-19.5 893,-38.5 1047,-38.5 1047,-19.5 893,-19.5"/>
<text text-anchor="middle" x="970" y="-26.5" font-family="Helvetica,sans-Serif" font-size="10.00">RoRFrameListener::LoadTerrain</text>
</a>
</g>
</g>
<!-- Node864&#45;&gt;Node865 -->
<g id="edge12" class="edge"><title>Node864&#45;&gt;Node865</title>
<path fill="none" stroke="midnightblue" d="M867.301,-29C875.734,-29 884.311,-29 892.726,-29"/>
<polygon fill="midnightblue" stroke="midnightblue" points="867.106,-25.5001 857.105,-29 867.105,-32.5001 867.106,-25.5001"/>
</g>
<!-- Node866 -->
<g id="node14" class="node"><title>Node866</title>
<g id="a_node14"><a xlink:href="../../dd/dbe/class_ro_r_frame_listener.html#aca3931d7a75f2ad4b9d36c4fcd03a3c9" target="_top" xlink:title="RoRFrameListener::SetupGameplayLoop">
<polygon fill="white" stroke="black" points="1083,-0.5 1083,-19.5 1277,-19.5 1277,-0.5 1083,-0.5"/>
<text text-anchor="middle" x="1180" y="-7.5" font-family="Helvetica,sans-Serif" font-size="10.00">RoRFrameListener::SetupGameplayLoop</text>
</a>
</g>
</g>
<!-- Node865&#45;&gt;Node866 -->
<g id="edge13" class="edge"><title>Node865&#45;&gt;Node866</title>
<path fill="none" stroke="midnightblue" d="M1057.43,-21.1046C1065.84,-20.3365 1074.41,-19.5539 1082.91,-18.7779"/>
<polygon fill="midnightblue" stroke="midnightblue" points="1056.91,-17.6377 1047.27,-22.033 1057.55,-24.6087 1056.91,-17.6377"/>
</g>
<!-- Node867 -->
<g id="node15" class="node"><title>Node867</title>
<g id="a_node15"><a xlink:href="../../dd/dbe/class_ro_r_frame_listener.html#ad598075b5f183208c0de43b9248bb44b" target="_top" xlink:title="RoRFrameListener::getTime">
<polygon fill="white" stroke="black" points="1313,-38.5 1313,-57.5 1451,-57.5 1451,-38.5 1313,-38.5"/>
<text text-anchor="middle" x="1382" y="-45.5" font-family="Helvetica,sans-Serif" font-size="10.00">RoRFrameListener::getTime</text>
</a>
</g>
</g>
<!-- Node865&#45;&gt;Node867 -->
<g id="edge17" class="edge"><title>Node865&#45;&gt;Node867</title>
<path fill="none" stroke="midnightblue" d="M1057.19,-32.9943C1133.25,-36.5188 1242.62,-41.5871 1312.74,-44.8368"/>
<polygon fill="midnightblue" stroke="midnightblue" points="1057.31,-29.496 1047.16,-32.5292 1056.98,-36.4885 1057.31,-29.496"/>
</g>
<!-- Node866&#45;&gt;Node867 -->
<g id="edge14" class="edge"><title>Node866&#45;&gt;Node867</title>
<path fill="none" stroke="midnightblue" d="M1241.1,-21.4181C1269.71,-26.8552 1303.54,-33.2832 1330.77,-38.4561"/>
<polygon fill="midnightblue" stroke="midnightblue" points="1241.69,-17.9682 1231.21,-19.54 1240.38,-24.8451 1241.69,-17.9682"/>
</g>
<!-- Node868 -->
<g id="node16" class="node"><title>Node868</title>
<g id="a_node16"><a xlink:href="../../df/d0a/main_8cpp.html#a0ddf1224851353fc92bfbff6f499fa97" target="_top" xlink:title="main">
<polygon fill="white" stroke="black" points="1363,-0.5 1363,-19.5 1401,-19.5 1401,-0.5 1363,-0.5"/>
<text text-anchor="middle" x="1382" y="-7.5" font-family="Helvetica,sans-Serif" font-size="10.00">main</text>
</a>
</g>
</g>
<!-- Node866&#45;&gt;Node868 -->
<g id="edge15" class="edge"><title>Node866&#45;&gt;Node868</title>
<path fill="none" stroke="midnightblue" d="M1287.52,-10C1316.66,-10 1345.07,-10 1362.77,-10"/>
<polygon fill="midnightblue" stroke="midnightblue" points="1287.19,-6.5001 1277.19,-10 1287.19,-13.5001 1287.19,-6.5001"/>
</g>
<!-- Node869 -->
<g id="node17" class="node"><title>Node869</title>
<g id="a_node17"><a xlink:href="../../df/d0a/main_8cpp.html#a2922bc5d5c2d77a3020cfbf9df12aab0" target="_top" xlink:title="WinMain">
<polygon fill="white" stroke="black" points="1487,-0.5 1487,-19.5 1542,-19.5 1542,-0.5 1487,-0.5"/>
<text text-anchor="middle" x="1514.5" y="-7.5" font-family="Helvetica,sans-Serif" font-size="10.00">WinMain</text>
</a>
</g>
</g>
<!-- Node868&#45;&gt;Node869 -->
<g id="edge16" class="edge"><title>Node868&#45;&gt;Node869</title>
<path fill="none" stroke="midnightblue" d="M1411.39,-10C1433.84,-10 1464.96,-10 1486.92,-10"/>
<polygon fill="midnightblue" stroke="midnightblue" points="1411.15,-6.5001 1401.15,-10 1411.15,-13.5001 1411.15,-6.5001"/>
</g>
</g>
</svg>
        <g id="navigator" transform="translate(0 0)" fill="#404254">
                <rect fill="#f2f5e9" fill-opacity="0.5" stroke="#606060" stroke-width=".5" x="0" y="0" width="60" height="60"/>
                <use id="zoomplus" xlink:href="#zoomPlus" x="17" y="9" onmousedown="handleZoom(evt,'in')"/>
                <use id="zoomminus" xlink:href="#zoomMin" x="42" y="9" onmousedown="handleZoom(evt,'out')"/>
                <use id="reset" xlink:href="#resetDef" x="30" y="36" onmousedown="handleReset()"/>
                <g id="arrowUp" xlink:href="#dirArrow" transform="translate(30 24)" onmousedown="handlePan(0,-1)">
                  <use xlink:href="#rim" fill="#404040">
                        <set attributeName="fill" to="#808080" begin="arrowUp.mouseover" end="arrowUp.mouseout"/>
                  </use>
                  <path fill="none" stroke="white" stroke-width="1.5" d="M0,-3.0v7 M-2.5,-0.5L0,-3.0L2.5,-0.5"/>
                </g>
                <g id="arrowRight" xlink:href="#dirArrow" transform="rotate(90) translate(36 -43)" onmousedown="handlePan(1,0)">
                  <use xlink:href="#rim" fill="#404040">
                        <set attributeName="fill" to="#808080" begin="arrowRight.mouseover" end="arrowRight.mouseout"/>
                  </use>
                  <path fill="none" stroke="white" stroke-width="1.5" d="M0,-3.0v7 M-2.5,-0.5L0,-3.0L2.5,-0.5"/>
                </g>
                <g id="arrowDown" xlink:href="#dirArrow" transform="rotate(180) translate(-30 -48)" onmousedown="handlePan(0,1)">
                  <use xlink:href="#rim" fill="#404040">
                        <set attributeName="fill" to="#808080" begin="arrowDown.mouseover" end="arrowDown.mouseout"/>
                  </use>
                  <path fill="none" stroke="white" stroke-width="1.5" d="M0,-3.0v7 M-2.5,-0.5L0,-3.0L2.5,-0.5"/>
                </g>
                <g id="arrowLeft" xlink:href="#dirArrow" transform="rotate(270) translate(-36 17)" onmousedown="handlePan(-1,0)">
                  <use xlink:href="#rim" fill="#404040">
                        <set attributeName="fill" to="#808080" begin="arrowLeft.mouseover" end="arrowLeft.mouseout"/>
                  </use>
                  <path fill="none" stroke="white" stroke-width="1.5" d="M0,-3.0v7 M-2.5,-0.5L0,-3.0L2.5,-0.5"/>
                </g>
        </g>
        <svg viewBox="0 0 15 15" width="100%" height="30px" preserveAspectRatio="xMaxYMin meet">
         <g id="arrow_out" transform="scale(0.3 0.3)">
          <a xlink:href="class_collisions_a3f2acd0249632458dd92a551210f83a1_icgraph_org.svg" target="_base">
           <rect id="button" ry="5" rx="5" y="6" x="6" height="38" width="38"
                fill="#f2f5e9" fill-opacity="0.5" stroke="#606060" stroke-width="1.0"/>
           <path id="arrow"
             d="M 11.500037,31.436501 C 11.940474,20.09759 22.043105,11.32322 32.158766,21.979434 L 37.068811,17.246167 C 37.068811,17.246167 37.088388,32 37.088388,32 L 22.160133,31.978069 C 22.160133,31.978069 26.997745,27.140456 26.997745,27.140456 C 18.528582,18.264221 13.291696,25.230495 11.500037,31.436501 z"
             style="fill:#404040;"/>
          </a>
         </g>
        </svg>
</svg>
