<?xml version="1.0" encoding="UTF-8" standalone="no"?>
<!DOCTYPE svg PUBLIC "-//W3C//DTD SVG 1.1//EN"
 "http://www.w3.org/Graphics/SVG/1.1/DTD/svg11.dtd">
<!-- Generated by graphviz version 2.38.0 (20140413.2041)
 -->
<!-- Title: Collisions::addCollisionBox Pages: 1 -->
<svg width="1506pt" height="141pt"
 viewBox="0.00 0.00 1506.00 140.50" xmlns="http://www.w3.org/2000/svg" xmlns:xlink="http://www.w3.org/1999/xlink">
<g id="graph0" class="graph" transform="scale(1 1) rotate(0) translate(4 136.5)">
<title>Collisions::addCollisionBox</title>
<polygon fill="white" stroke="none" points="-4,4 -4,-136.5 1502,-136.5 1502,4 -4,4"/>
<!-- Node24 -->
<g id="node1" class="node"><title>Node24</title>
<polygon fill="#bfbfbf" stroke="black" points="0,-63.5 0,-82.5 134,-82.5 134,-63.5 0,-63.5"/>
<text text-anchor="middle" x="67" y="-70.5" font-family="Helvetica,sans-Serif" font-size="10.00">Collisions::addCollisionBox</text>
</g>
<!-- Node25 -->
<g id="node2" class="node"><title>Node25</title>
<g id="a_node2"><a xlink:href="../../d6/d14/class_terrain_object_manager.html#a62a108ad201e16585ab3115befedae60" target="_top" xlink:title="TerrainObjectManager\l::loadObject">
<polygon fill="white" stroke="black" points="170,-58 170,-88 282,-88 282,-58 170,-58"/>
<text text-anchor="start" x="178" y="-76" font-family="Helvetica,sans-Serif" font-size="10.00">TerrainObjectManager</text>
<text text-anchor="middle" x="226" y="-65" font-family="Helvetica,sans-Serif" font-size="10.00">::loadObject</text>
</a>
</g>
</g>
<!-- Node24&#45;&gt;Node25 -->
<g id="edge1" class="edge"><title>Node24&#45;&gt;Node25</title>
<path fill="none" stroke="midnightblue" d="M144.235,-73C152.881,-73 161.564,-73 169.863,-73"/>
<polygon fill="midnightblue" stroke="midnightblue" points="144.127,-69.5001 134.127,-73 144.127,-76.5001 144.127,-69.5001"/>
</g>
<!-- Node26 -->
<g id="node3" class="node"><title>Node26</title>
<g id="a_node3"><a xlink:href="../../d0/d9f/class_ro_r_1_1_console.html#a39381023fb19b10edfad9592ce2e1554" target="_top" xlink:title="RoR::Console::eventCommand\lAccept">
<polygon fill="white" stroke="black" points="318,-102 318,-132 467,-132 467,-102 318,-102"/>
<text text-anchor="start" x="326" y="-120" font-family="Helvetica,sans-Serif" font-size="10.00">RoR::Console::eventCommand</text>
<text text-anchor="middle" x="392.5" y="-109" font-family="Helvetica,sans-Serif" font-size="10.00">Accept</text>
</a>
</g>
</g>
<!-- Node25&#45;&gt;Node26 -->
<g id="edge2" class="edge"><title>Node25&#45;&gt;Node26</title>
<path fill="none" stroke="midnightblue" d="M292.004,-90.387C306.316,-94.2153 321.359,-98.2389 335.29,-101.965"/>
<polygon fill="midnightblue" stroke="midnightblue" points="292.799,-86.9766 282.234,-87.7738 290.99,-93.7389 292.799,-86.9766"/>
</g>
<!-- Node28 -->
<g id="node5" class="node"><title>Node28</title>
<g id="a_node5"><a xlink:href="../../d5/de5/class_game_script.html#adc155d46516906fb9bfddde649c02ee6" target="_top" xlink:title="GameScript::spawnObject">
<polygon fill="white" stroke="black" points="327,-63.5 327,-82.5 458,-82.5 458,-63.5 327,-63.5"/>
<text text-anchor="middle" x="392.5" y="-70.5" font-family="Helvetica,sans-Serif" font-size="10.00">GameScript::spawnObject</text>
</a>
</g>
</g>
<!-- Node25&#45;&gt;Node28 -->
<g id="edge4" class="edge"><title>Node25&#45;&gt;Node28</title>
<path fill="none" stroke="midnightblue" d="M292.45,-73C303.738,-73 315.467,-73 326.737,-73"/>
<polygon fill="midnightblue" stroke="midnightblue" points="292.234,-69.5001 282.234,-73 292.234,-76.5001 292.234,-69.5001"/>
</g>
<!-- Node29 -->
<g id="node6" class="node"><title>Node29</title>
<g id="a_node6"><a xlink:href="../../d6/d14/class_terrain_object_manager.html#a45ccbf51f9c0ecac68927fed5e52eaa4" target="_top" xlink:title="TerrainObjectManager\l::loadObjectConfigFile">
<polygon fill="white" stroke="black" points="336.5,-14 336.5,-44 448.5,-44 448.5,-14 336.5,-14"/>
<text text-anchor="start" x="344.5" y="-32" font-family="Helvetica,sans-Serif" font-size="10.00">TerrainObjectManager</text>
<text text-anchor="middle" x="392.5" y="-21" font-family="Helvetica,sans-Serif" font-size="10.00">::loadObjectConfigFile</text>
</a>
</g>
</g>
<!-- Node25&#45;&gt;Node29 -->
<g id="edge5" class="edge"><title>Node25&#45;&gt;Node29</title>
<path fill="none" stroke="midnightblue" d="M292.22,-55.5551C306.853,-51.641 322.239,-47.5258 336.412,-43.7348"/>
<polygon fill="midnightblue" stroke="midnightblue" points="290.99,-52.2611 282.234,-58.2262 292.799,-59.0234 290.99,-52.2611"/>
</g>
<!-- Node27 -->
<g id="node4" class="node"><title>Node27</title>
<g id="a_node4"><a xlink:href="../../d0/d9f/class_ro_r_1_1_console.html#aba16cfd9f0894eb1312b1bc1155b6646" target="_top" xlink:title="RoR::Console::Console">
<polygon fill="white" stroke="black" points="512.5,-107.5 512.5,-126.5 630.5,-126.5 630.5,-107.5 512.5,-107.5"/>
<text text-anchor="middle" x="571.5" y="-114.5" font-family="Helvetica,sans-Serif" font-size="10.00">RoR::Console::Console</text>
</a>
</g>
</g>
<!-- Node26&#45;&gt;Node27 -->
<g id="edge3" class="edge"><title>Node26&#45;&gt;Node27</title>
<path fill="none" stroke="midnightblue" d="M477.362,-117C489.18,-117 501.108,-117 512.301,-117"/>
<polygon fill="midnightblue" stroke="midnightblue" points="477.026,-113.5 467.026,-117 477.026,-120.5 477.026,-113.5"/>
</g>
<!-- Node30 -->
<g id="node7" class="node"><title>Node30</title>
<g id="a_node7"><a xlink:href="../../d3/d16/class_terrain_manager.html#a4ad87b973cb6af52daaf530a5feff167" target="_top" xlink:title="TerrainManager::loadTerrain\lObjects">
<polygon fill="white" stroke="black" points="503,-14 503,-44 640,-44 640,-14 503,-14"/>
<text text-anchor="start" x="511" y="-32" font-family="Helvetica,sans-Serif" font-size="10.00">TerrainManager::loadTerrain</text>
<text text-anchor="middle" x="571.5" y="-21" font-family="Helvetica,sans-Serif" font-size="10.00">Objects</text>
</a>
</g>
</g>
<!-- Node29&#45;&gt;Node30 -->
<g id="edge6" class="edge"><title>Node29&#45;&gt;Node30</title>
<path fill="none" stroke="midnightblue" d="M458.784,-29C473.106,-29 488.3,-29 502.718,-29"/>
<polygon fill="midnightblue" stroke="midnightblue" points="458.534,-25.5001 448.534,-29 458.534,-32.5001 458.534,-25.5001"/>
</g>
<!-- Node31 -->
<g id="node8" class="node"><title>Node31</title>
<g id="a_node8"><a xlink:href="../../d3/d16/class_terrain_manager.html#a9a04c837bf2ea6528c465b27ca62f730" target="_top" xlink:title="TerrainManager::loadTerrain">
<polygon fill="white" stroke="black" points="676,-19.5 676,-38.5 813,-38.5 813,-19.5 676,-19.5"/>
<text text-anchor="middle" x="744.5" y="-26.5" font-family="Helvetica,sans-Serif" font-size="10.00">TerrainManager::loadTerrain</text>
</a>
</g>
</g>
<!-- Node30&#45;&gt;Node31 -->
<g id="edge7" class="edge"><title>Node30&#45;&gt;Node31</title>
<path fill="none" stroke="midnightblue" d="M650.1,-29C658.692,-29 667.391,-29 675.847,-29"/>
<polygon fill="midnightblue" stroke="midnightblue" points="650.084,-25.5001 640.084,-29 650.084,-32.5001 650.084,-25.5001"/>
</g>
<!-- Node32 -->
<g id="node9" class="node"><title>Node32</title>
<g id="a_node9"><a xlink:href="../../dd/dbe/class_ro_r_frame_listener.html#a9757c059e840019a3e2659d5ef63ea02" target="_top" xlink:title="Reads GVar &#39;sim_terrain_pending&#39;. ">
<polygon fill="white" stroke="black" points="849,-19.5 849,-38.5 1003,-38.5 1003,-19.5 849,-19.5"/>
<text text-anchor="middle" x="926" y="-26.5" font-family="Helvetica,sans-Serif" font-size="10.00">RoRFrameListener::LoadTerrain</text>
</a>
</g>
</g>
<!-- Node31&#45;&gt;Node32 -->
<g id="edge8" class="edge"><title>Node31&#45;&gt;Node32</title>
<path fill="none" stroke="midnightblue" d="M823.301,-29C831.734,-29 840.311,-29 848.726,-29"/>
<polygon fill="midnightblue" stroke="midnightblue" points="823.106,-25.5001 813.105,-29 823.105,-32.5001 823.106,-25.5001"/>
</g>
<!-- Node33 -->
<g id="node10" class="node"><title>Node33</title>
<g id="a_node10"><a xlink:href="../../dd/dbe/class_ro_r_frame_listener.html#aca3931d7a75f2ad4b9d36c4fcd03a3c9" target="_top" xlink:title="RoRFrameListener::SetupGameplayLoop">
<polygon fill="white" stroke="black" points="1039,-0.5 1039,-19.5 1233,-19.5 1233,-0.5 1039,-0.5"/>
<text text-anchor="middle" x="1136" y="-7.5" font-family="Helvetica,sans-Serif" font-size="10.00">RoRFrameListener::SetupGameplayLoop</text>
</a>
</g>
</g>
<!-- Node32&#45;&gt;Node33 -->
<g id="edge9" class="edge"><title>Node32&#45;&gt;Node33</title>
<path fill="none" stroke="midnightblue" d="M1013.43,-21.1046C1021.84,-20.3365 1030.41,-19.5539 1038.91,-18.7779"/>
<polygon fill="midnightblue" stroke="midnightblue" points="1012.91,-17.6377 1003.27,-22.033 1013.55,-24.6087 1012.91,-17.6377"/>
</g>
<!-- Node34 -->
<g id="node11" class="node"><title>Node34</title>
<g id="a_node11"><a xlink:href="../../dd/dbe/class_ro_r_frame_listener.html#ad598075b5f183208c0de43b9248bb44b" target="_top" xlink:title="RoRFrameListener::getTime">
<polygon fill="white" stroke="black" points="1269,-38.5 1269,-57.5 1407,-57.5 1407,-38.5 1269,-38.5"/>
<text text-anchor="middle" x="1338" y="-45.5" font-family="Helvetica,sans-Serif" font-size="10.00">RoRFrameListener::getTime</text>
</a>
</g>
</g>
<!-- Node32&#45;&gt;Node34 -->
<g id="edge13" class="edge"><title>Node32&#45;&gt;Node34</title>
<path fill="none" stroke="midnightblue" d="M1013.19,-32.9943C1089.25,-36.5188 1198.62,-41.5871 1268.74,-44.8368"/>
<polygon fill="midnightblue" stroke="midnightblue" points="1013.31,-29.496 1003.16,-32.5292 1012.98,-36.4885 1013.31,-29.496"/>
</g>
<!-- Node33&#45;&gt;Node34 -->
<g id="edge10" class="edge"><title>Node33&#45;&gt;Node34</title>
<path fill="none" stroke="midnightblue" d="M1197.1,-21.4181C1225.71,-26.8552 1259.54,-33.2832 1286.77,-38.4561"/>
<polygon fill="midnightblue" stroke="midnightblue" points="1197.69,-17.9682 1187.21,-19.54 1196.38,-24.8451 1197.69,-17.9682"/>
</g>
<!-- Node35 -->
<g id="node12" class="node"><title>Node35</title>
<g id="a_node12"><a xlink:href="../../df/d0a/main_8cpp.html#a0ddf1224851353fc92bfbff6f499fa97" target="_top" xlink:title="main">
<polygon fill="white" stroke="black" points="1319,-0.5 1319,-19.5 1357,-19.5 1357,-0.5 1319,-0.5"/>
<text text-anchor="middle" x="1338" y="-7.5" font-family="Helvetica,sans-Serif" font-size="10.00">main</text>
</a>
</g>
</g>
<!-- Node33&#45;&gt;Node35 -->
<g id="edge11" class="edge"><title>Node33&#45;&gt;Node35</title>
<path fill="none" stroke="midnightblue" d="M1243.52,-10C1272.66,-10 1301.07,-10 1318.77,-10"/>
<polygon fill="midnightblue" stroke="midnightblue" points="1243.19,-6.5001 1233.19,-10 1243.19,-13.5001 1243.19,-6.5001"/>
</g>
<!-- Node36 -->
<g id="node13" class="node"><title>Node36</title>
<g id="a_node13"><a xlink:href="../../df/d0a/main_8cpp.html#a2922bc5d5c2d77a3020cfbf9df12aab0" target="_top" xlink:title="WinMain">
<polygon fill="white" stroke="black" points="1443,-0.5 1443,-19.5 1498,-19.5 1498,-0.5 1443,-0.5"/>
<text text-anchor="middle" x="1470.5" y="-7.5" font-family="Helvetica,sans-Serif" font-size="10.00">WinMain</text>
</a>
</g>
</g>
<!-- Node35&#45;&gt;Node36 -->
<g id="edge12" class="edge"><title>Node35&#45;&gt;Node36</title>
<path fill="none" stroke="midnightblue" d="M1367.39,-10C1389.84,-10 1420.96,-10 1442.92,-10"/>
<polygon fill="midnightblue" stroke="midnightblue" points="1367.15,-6.5001 1357.15,-10 1367.15,-13.5001 1367.15,-6.5001"/>
</g>
</g>
</svg>
