<?xml version="1.0" encoding="UTF-8" standalone="no"?>
<!DOCTYPE svg PUBLIC "-//W3C//DTD SVG 1.1//EN"
 "http://www.w3.org/Graphics/SVG/1.1/DTD/svg11.dtd">
<!-- Generated by graphviz version 2.38.0 (20140413.2041)
 -->
<!-- Title: Collisions::loadDefaultModels Pages: 1 -->
<!--zoomable 104 -->
<svg id="main" version="1.1" xmlns="http://www.w3.org/2000/svg" xmlns:xlink="http://www.w3.org/1999/xlink" xml:space="preserve" onload="init(evt)">
<style type="text/css"><![CDATA[
.edge:hover path { stroke: red; }
.edge:hover polygon { stroke: red; fill: red; }
]]></style>
<script type="text/javascript"><![CDATA[
var edges = document.getElementsByTagName('g');
if (edges && edges.length) {
  for (var i=0;i<edges.length;i++) {
    if (edges[i].id.substr(0,4)=='edge') {
      edges[i].setAttribute('class','edge');
    }
  }
}
]]></script>
        <defs>
                <circle id="rim" cx="0" cy="0" r="7"/>
                <circle id="rim2" cx="0" cy="0" r="3.5"/>
                <g id="zoomPlus">
                        <use xlink:href="#rim" fill="#404040">
                                <set attributeName="fill" to="#808080" begin="zoomplus.mouseover" end="zoomplus.mouseout"/>
                        </use>
                        <path d="M-4,0h8M0,-4v8" fill="none" stroke="white" stroke-width="1.5" pointer-events="none"/>
                </g>
                <g id="zoomMin">
                        <use xlink:href="#rim" fill="#404040">
                                <set attributeName="fill" to="#808080" begin="zoomminus.mouseover" end="zoomminus.mouseout"/>
                        </use>
                        <path d="M-4,0h8" fill="none" stroke="white" stroke-width="1.5" pointer-events="none"/>
                </g>
                <g id="dirArrow">
                        <path fill="none" stroke="white" stroke-width="1.5" d="M0,-3.0v7 M-2.5,-0.5L0,-3.0L2.5,-0.5"/>
                </g>
               <g id="resetDef">
                       <use xlink:href="#rim2" fill="#404040">
                               <set attributeName="fill" to="#808080" begin="reset.mouseover" end="reset.mouseout"/>
                       </use>
               </g>
        </defs>

<script type="text/javascript">
var viewWidth = 747;
var viewHeight = 104;
var sectionId = 'dynsection-39';
</script>
<script xlink:href="../../svgpan.js"/>
<svg id="graph" class="graph">
<g id="viewport">
<title>Collisions::loadDefaultModels</title>
<polygon fill="white" stroke="none" points="-4,4 -4,-100 743,-100 743,4 -4,4"/>
<!-- Node836 -->
<g id="node1" class="node"><title>Node836</title>
<polygon fill="#bfbfbf" stroke="black" points="0,-38.5 0,-57.5 144,-57.5 144,-38.5 0,-38.5"/>
<text text-anchor="middle" x="72" y="-45.5" font-family="Helvetica,sans-Serif" font-size="10.00">Collisions::loadDefaultModels</text>
</g>
<!-- Node837 -->
<g id="node2" class="node"><title>Node837</title>
<g id="a_node2"><a xlink:href="../../d9/d39/class_collisions.html#a3f2acd0249632458dd92a551210f83a1" target="_top" xlink:title="Collisions::loadGroundModels\lConfigFile">
<polygon fill="white" stroke="black" points="180,-33 180,-63 326,-63 326,-33 180,-33"/>
<text text-anchor="start" x="188" y="-51" font-family="Helvetica,sans-Serif" font-size="10.00">Collisions::loadGroundModels</text>
<text text-anchor="middle" x="253" y="-40" font-family="Helvetica,sans-Serif" font-size="10.00">ConfigFile</text>
</a>
</g>
</g>
<!-- Node836&#45;&gt;Node837 -->
<g id="edge1" class="edge"><title>Node836&#45;&gt;Node837</title>
<path fill="none" stroke="midnightblue" d="M144.003,-48C152.492,-48 161.213,-48 169.842,-48"/>
<polygon fill="midnightblue" stroke="midnightblue" points="169.911,-51.5001 179.911,-48 169.911,-44.5001 169.911,-51.5001"/>
</g>
<!-- Node838 -->
<g id="node3" class="node"><title>Node838</title>
<g id="a_node3"><a xlink:href="../../d9/de9/struct_error_utils.html#aec73b03c7829838888bbecf9acda1b98" target="_top" xlink:title="ErrorUtils::ShowError">
<polygon fill="white" stroke="black" points="381.5,-76.5 381.5,-95.5 489.5,-95.5 489.5,-76.5 381.5,-76.5"/>
<text text-anchor="middle" x="435.5" y="-83.5" font-family="Helvetica,sans-Serif" font-size="10.00">ErrorUtils::ShowError</text>
</a>
</g>
</g>
<!-- Node837&#45;&gt;Node838 -->
<g id="edge2" class="edge"><title>Node837&#45;&gt;Node838</title>
<path fill="none" stroke="midnightblue" d="M325.338,-63.0186C343.378,-66.8165 362.474,-70.8366 379.563,-74.4344"/>
<polygon fill="midnightblue" stroke="midnightblue" points="378.864,-77.8638 389.371,-76.4991 380.306,-71.014 378.864,-77.8638"/>
</g>
<!-- Node840 -->
<g id="node5" class="node"><title>Node840</title>
<g id="a_node5"><a xlink:href="../../d9/d39/class_collisions.html#aaa893c509f9b9b77459d50e3bef2c6ff" target="_top" xlink:title="Collisions::parseGroundConfig">
<polygon fill="white" stroke="black" points="362,-38.5 362,-57.5 509,-57.5 509,-38.5 362,-38.5"/>
<text text-anchor="middle" x="435.5" y="-45.5" font-family="Helvetica,sans-Serif" font-size="10.00">Collisions::parseGroundConfig</text>
</a>
</g>
</g>
<!-- Node837&#45;&gt;Node840 -->
<g id="edge4" class="edge"><title>Node837&#45;&gt;Node840</title>
<path fill="none" stroke="midnightblue" d="M326.117,-48C334.586,-48 343.278,-48 351.876,-48"/>
<polygon fill="midnightblue" stroke="midnightblue" points="351.909,-51.5001 361.909,-48 351.909,-44.5001 351.909,-51.5001"/>
</g>
<!-- Node843 -->
<g id="node8" class="node"><title>Node843</title>
<g id="a_node8"><a xlink:href="../../d8/d18/namespace_profiler.html#af79bb59414ef3ba134213bb6f2f2d292" target="_top" xlink:title="Profiler::exit">
<polygon fill="white" stroke="black" points="401.5,-0.5 401.5,-19.5 469.5,-19.5 469.5,-0.5 401.5,-0.5"/>
<text text-anchor="middle" x="435.5" y="-7.5" font-family="Helvetica,sans-Serif" font-size="10.00">Profiler::exit</text>
</a>
</g>
</g>
<!-- Node837&#45;&gt;Node843 -->
<g id="edge7" class="edge"><title>Node837&#45;&gt;Node843</title>
<path fill="none" stroke="midnightblue" d="M325.338,-32.9814C347.659,-28.2822 371.596,-23.2429 391.351,-19.0841"/>
<polygon fill="midnightblue" stroke="midnightblue" points="392.204,-22.4812 401.269,-16.9961 390.762,-15.6313 392.204,-22.4812"/>
</g>
<!-- Node839 -->
<g id="node4" class="node"><title>Node839</title>
<g id="a_node4"><a xlink:href="../../d9/de9/struct_error_utils.html#a3250a36825c8b55b26d1565addb7e922" target="_top" xlink:title="ErrorUtils::ShowMsgBox">
<polygon fill="white" stroke="black" points="545,-76.5 545,-95.5 668,-95.5 668,-76.5 545,-76.5"/>
<text text-anchor="middle" x="606.5" y="-83.5" font-family="Helvetica,sans-Serif" font-size="10.00">ErrorUtils::ShowMsgBox</text>
</a>
</g>
</g>
<!-- Node838&#45;&gt;Node839 -->
<g id="edge3" class="edge"><title>Node838&#45;&gt;Node839</title>
<path fill="none" stroke="midnightblue" d="M489.509,-86C503.745,-86 519.372,-86 534.417,-86"/>
<polygon fill="midnightblue" stroke="midnightblue" points="534.716,-89.5001 544.716,-86 534.716,-82.5001 534.716,-89.5001"/>
</g>
<!-- Node841 -->
<g id="node6" class="node"><title>Node841</title>
<g id="a_node6"><a xlink:href="../../df/d8c/scriptstdstring_8cpp.html#ab33d705eee9afd65e8991f82d9c71fe3" target="_top" xlink:title="parseInt">
<polygon fill="white" stroke="black" points="581,-38.5 581,-57.5 632,-57.5 632,-38.5 581,-38.5"/>
<text text-anchor="middle" x="606.5" y="-45.5" font-family="Helvetica,sans-Serif" font-size="10.00">parseInt</text>
</a>
</g>
</g>
<!-- Node840&#45;&gt;Node841 -->
<g id="edge5" class="edge"><title>Node840&#45;&gt;Node841</title>
<path fill="none" stroke="midnightblue" d="M509.152,-48C530.441,-48 552.753,-48 570.538,-48"/>
<polygon fill="midnightblue" stroke="midnightblue" points="570.711,-51.5001 580.711,-48 570.711,-44.5001 570.711,-51.5001"/>
</g>
<!-- Node842 -->
<g id="node7" class="node"><title>Node842</title>
<g id="a_node7"><a xlink:href="../../df/d52/_approx_math_8h.html#ad685178dbcfdd207c7306561512e1582" target="_top" xlink:title="sign">
<polygon fill="white" stroke="black" points="704,-38.5 704,-57.5 739,-57.5 739,-38.5 704,-38.5"/>
<text text-anchor="middle" x="721.5" y="-45.5" font-family="Helvetica,sans-Serif" font-size="10.00">sign</text>
</a>
</g>
</g>
<!-- Node841&#45;&gt;Node842 -->
<g id="edge6" class="edge"><title>Node841&#45;&gt;Node842</title>
<path fill="none" stroke="midnightblue" d="M632.019,-48C650.143,-48 674.812,-48 693.498,-48"/>
<polygon fill="midnightblue" stroke="midnightblue" points="693.714,-51.5001 703.714,-48 693.714,-44.5001 693.714,-51.5001"/>
</g>
</g>
</svg>
        <g id="navigator" transform="translate(0 0)" fill="#404254">
                <rect fill="#f2f5e9" fill-opacity="0.5" stroke="#606060" stroke-width=".5" x="0" y="0" width="60" height="60"/>
                <use id="zoomplus" xlink:href="#zoomPlus" x="17" y="9" onmousedown="handleZoom(evt,'in')"/>
                <use id="zoomminus" xlink:href="#zoomMin" x="42" y="9" onmousedown="handleZoom(evt,'out')"/>
                <use id="reset" xlink:href="#resetDef" x="30" y="36" onmousedown="handleReset()"/>
                <g id="arrowUp" xlink:href="#dirArrow" transform="translate(30 24)" onmousedown="handlePan(0,-1)">
                  <use xlink:href="#rim" fill="#404040">
                        <set attributeName="fill" to="#808080" begin="arrowUp.mouseover" end="arrowUp.mouseout"/>
                  </use>
                  <path fill="none" stroke="white" stroke-width="1.5" d="M0,-3.0v7 M-2.5,-0.5L0,-3.0L2.5,-0.5"/>
                </g>
                <g id="arrowRight" xlink:href="#dirArrow" transform="rotate(90) translate(36 -43)" onmousedown="handlePan(1,0)">
                  <use xlink:href="#rim" fill="#404040">
                        <set attributeName="fill" to="#808080" begin="arrowRight.mouseover" end="arrowRight.mouseout"/>
                  </use>
                  <path fill="none" stroke="white" stroke-width="1.5" d="M0,-3.0v7 M-2.5,-0.5L0,-3.0L2.5,-0.5"/>
                </g>
                <g id="arrowDown" xlink:href="#dirArrow" transform="rotate(180) translate(-30 -48)" onmousedown="handlePan(0,1)">
                  <use xlink:href="#rim" fill="#404040">
                        <set attributeName="fill" to="#808080" begin="arrowDown.mouseover" end="arrowDown.mouseout"/>
                  </use>
                  <path fill="none" stroke="white" stroke-width="1.5" d="M0,-3.0v7 M-2.5,-0.5L0,-3.0L2.5,-0.5"/>
                </g>
                <g id="arrowLeft" xlink:href="#dirArrow" transform="rotate(270) translate(-36 17)" onmousedown="handlePan(-1,0)">
                  <use xlink:href="#rim" fill="#404040">
                        <set attributeName="fill" to="#808080" begin="arrowLeft.mouseover" end="arrowLeft.mouseout"/>
                  </use>
                  <path fill="none" stroke="white" stroke-width="1.5" d="M0,-3.0v7 M-2.5,-0.5L0,-3.0L2.5,-0.5"/>
                </g>
        </g>
        <svg viewBox="0 0 15 15" width="100%" height="30px" preserveAspectRatio="xMaxYMin meet">
         <g id="arrow_out" transform="scale(0.3 0.3)">
          <a xlink:href="class_collisions_ab787df47353b8b839cf2187ab61ee514_cgraph_org.svg" target="_base">
           <rect id="button" ry="5" rx="5" y="6" x="6" height="38" width="38"
                fill="#f2f5e9" fill-opacity="0.5" stroke="#606060" stroke-width="1.0"/>
           <path id="arrow"
             d="M 11.500037,31.436501 C 11.940474,20.09759 22.043105,11.32322 32.158766,21.979434 L 37.068811,17.246167 C 37.068811,17.246167 37.088388,32 37.088388,32 L 22.160133,31.978069 C 22.160133,31.978069 26.997745,27.140456 26.997745,27.140456 C 18.528582,18.264221 13.291696,25.230495 11.500037,31.436501 z"
             style="fill:#404040;"/>
          </a>
         </g>
        </svg>
</svg>
