<?xml version="1.0" encoding="UTF-8" standalone="no"?>
<!DOCTYPE svg PUBLIC "-//W3C//DTD SVG 1.1//EN"
 "http://www.w3.org/Graphics/SVG/1.1/DTD/svg11.dtd">
<!-- Generated by graphviz version 2.38.0 (20140413.2041)
 -->
<!-- Title: RoR::GVarBase::LogSetPending Pages: 1 -->
<svg width="383pt" height="28pt"
 viewBox="0.00 0.00 383.00 28.00" xmlns="http://www.w3.org/2000/svg" xmlns:xlink="http://www.w3.org/1999/xlink">
<g id="graph0" class="graph" transform="scale(1 1) rotate(0) translate(4 24)">
<title>RoR::GVarBase::LogSetPending</title>
<polygon fill="white" stroke="none" points="-4,4 -4,-24 379,-24 379,4 -4,4"/>
<!-- Node87 -->
<g id="node1" class="node"><title>Node87</title>
<polygon fill="#bfbfbf" stroke="black" points="0,-0.5 0,-19.5 158,-19.5 158,-0.5 0,-0.5"/>
<text text-anchor="middle" x="79" y="-7.5" font-family="Helvetica,sans-Serif" font-size="10.00">RoR::GVarBase::LogSetPending</text>
</g>
<!-- Node88 -->
<g id="node2" class="node"><title>Node88</title>
<g id="a_node2"><a xlink:href="../../dd/dd2/namespace_ro_r.html#a6523130e147fb219ca2b3a07479e0392" target="_top" xlink:title="Improved logging utility. Uses fixed 2Kb buffer. ">
<polygon fill="white" stroke="black" points="194,-0.5 194,-19.5 282,-19.5 282,-0.5 194,-0.5"/>
<text text-anchor="middle" x="238" y="-7.5" font-family="Helvetica,sans-Serif" font-size="10.00">RoR::LogFormat</text>
</a>
</g>
</g>
<!-- Node87&#45;&gt;Node88 -->
<g id="edge1" class="edge"><title>Node87&#45;&gt;Node88</title>
<path fill="none" stroke="midnightblue" d="M158.04,-10C166.698,-10 175.363,-10 183.615,-10"/>
<polygon fill="midnightblue" stroke="midnightblue" points="183.813,-13.5001 193.813,-10 183.813,-6.5001 183.813,-13.5001"/>
</g>
<!-- Node89 -->
<g id="node3" class="node"><title>Node89</title>
<g id="a_node3"><a xlink:href="../../dd/dd2/namespace_ro_r.html#a15fdb48aba128c41a9c75357c2282694" target="_top" xlink:title="The ultimate, application&#45;wide logging function. Adds a line (any length) in &#39;RoR.log&#39; file. ">
<polygon fill="white" stroke="black" points="318,-0.5 318,-19.5 375,-19.5 375,-0.5 318,-0.5"/>
<text text-anchor="middle" x="346.5" y="-7.5" font-family="Helvetica,sans-Serif" font-size="10.00">RoR::Log</text>
</a>
</g>
</g>
<!-- Node88&#45;&gt;Node89 -->
<g id="edge2" class="edge"><title>Node88&#45;&gt;Node89</title>
<path fill="none" stroke="midnightblue" d="M282.011,-10C290.535,-10 299.423,-10 307.756,-10"/>
<polygon fill="midnightblue" stroke="midnightblue" points="307.945,-13.5001 317.945,-10 307.945,-6.5001 307.945,-13.5001"/>
</g>
</g>
</svg>
