<?xml version="1.0" encoding="UTF-8" standalone="no"?>
<!DOCTYPE svg PUBLIC "-//W3C//DTD SVG 1.1//EN"
 "http://www.w3.org/Graphics/SVG/1.1/DTD/svg11.dtd">
<!-- Generated by graphviz version 2.38.0 (20140413.2041)
 -->
<!-- Title: RoR::GVarBase::LogResetPending Pages: 1 -->
<svg width="388pt" height="104pt"
 viewBox="0.00 0.00 388.00 104.00" xmlns="http://www.w3.org/2000/svg" xmlns:xlink="http://www.w3.org/1999/xlink">
<g id="graph0" class="graph" transform="scale(1 1) rotate(0) translate(4 100)">
<title>RoR::GVarBase::LogResetPending</title>
<polygon fill="white" stroke="none" points="-4,4 -4,-100 384,-100 384,4 -4,4"/>
<!-- Node26 -->
<g id="node1" class="node"><title>Node26</title>
<polygon fill="#bfbfbf" stroke="black" points="0,-38.5 0,-57.5 169,-57.5 169,-38.5 0,-38.5"/>
<text text-anchor="middle" x="84.5" y="-45.5" font-family="Helvetica,sans-Serif" font-size="10.00">RoR::GVarBase::LogResetPending</text>
</g>
<!-- Node27 -->
<g id="node2" class="node"><title>Node27</title>
<g id="a_node2"><a xlink:href="../../dd/d2c/class_ro_r_1_1_g_var_pod___a_p.html#a6abde086d89d03d4e43606fe29d5bc49" target="_top" xlink:title="RoR::GVarPod_AP::ResetPending">
<polygon fill="white" stroke="black" points="209,-76.5 209,-95.5 376,-95.5 376,-76.5 209,-76.5"/>
<text text-anchor="middle" x="292.5" y="-83.5" font-family="Helvetica,sans-Serif" font-size="10.00">RoR::GVarPod_AP::ResetPending</text>
</a>
</g>
</g>
<!-- Node26&#45;&gt;Node27 -->
<g id="edge1" class="edge"><title>Node26&#45;&gt;Node27</title>
<path fill="none" stroke="midnightblue" d="M147.398,-59.4181C176.873,-64.8552 211.72,-71.2832 239.762,-76.4561"/>
<polygon fill="midnightblue" stroke="midnightblue" points="147.686,-55.9122 137.217,-57.54 146.416,-62.796 147.686,-55.9122"/>
</g>
<!-- Node28 -->
<g id="node3" class="node"><title>Node28</title>
<g id="a_node3"><a xlink:href="../../db/da3/class_ro_r_1_1_g_var_enum___a_p.html#ab0e9fcae3fc12244328823bf7cd7aa7a" target="_top" xlink:title="RoR::GVarEnum_AP::ResetPending">
<polygon fill="white" stroke="black" points="205,-38.5 205,-57.5 380,-57.5 380,-38.5 205,-38.5"/>
<text text-anchor="middle" x="292.5" y="-45.5" font-family="Helvetica,sans-Serif" font-size="10.00">RoR::GVarEnum_AP::ResetPending</text>
</a>
</g>
</g>
<!-- Node26&#45;&gt;Node28 -->
<g id="edge2" class="edge"><title>Node26&#45;&gt;Node28</title>
<path fill="none" stroke="midnightblue" d="M179.501,-48C187.92,-48 196.419,-48 204.772,-48"/>
<polygon fill="midnightblue" stroke="midnightblue" points="179.288,-44.5001 169.288,-48 179.288,-51.5001 179.288,-44.5001"/>
</g>
<!-- Node29 -->
<g id="node4" class="node"><title>Node29</title>
<g id="a_node4"><a xlink:href="../../d0/d80/class_ro_r_1_1_g_var_str___a_p.html#a80ea414e2322cb9f9e4514e485f5ce25" target="_top" xlink:title="RoR::GVarStr_AP::ResetPending">
<polygon fill="white" stroke="black" points="211.5,-0.5 211.5,-19.5 373.5,-19.5 373.5,-0.5 211.5,-0.5"/>
<text text-anchor="middle" x="292.5" y="-7.5" font-family="Helvetica,sans-Serif" font-size="10.00">RoR::GVarStr_AP::ResetPending</text>
</a>
</g>
</g>
<!-- Node26&#45;&gt;Node29 -->
<g id="edge3" class="edge"><title>Node26&#45;&gt;Node29</title>
<path fill="none" stroke="midnightblue" d="M147.398,-36.5819C176.873,-31.1448 211.72,-24.7168 239.762,-19.5439"/>
<polygon fill="midnightblue" stroke="midnightblue" points="146.416,-33.204 137.217,-38.46 147.686,-40.0878 146.416,-33.204"/>
</g>
</g>
</svg>
