<?xml version="1.0" encoding="UTF-8" standalone="no"?>
<!DOCTYPE svg PUBLIC "-//W3C//DTD SVG 1.1//EN"
 "http://www.w3.org/Graphics/SVG/1.1/DTD/svg11.dtd">
<!-- Generated by graphviz version 2.38.0 (20140413.2041)
 -->
<!-- Title: RoR::GVarBase::LogSetPending Pages: 1 -->
<svg width="366pt" height="142pt"
 viewBox="0.00 0.00 366.00 142.00" xmlns="http://www.w3.org/2000/svg" xmlns:xlink="http://www.w3.org/1999/xlink">
<g id="graph0" class="graph" transform="scale(1 1) rotate(0) translate(4 138)">
<title>RoR::GVarBase::LogSetPending</title>
<polygon fill="white" stroke="none" points="-4,4 -4,-138 362,-138 362,4 -4,4"/>
<!-- Node90 -->
<g id="node1" class="node"><title>Node90</title>
<polygon fill="#bfbfbf" stroke="black" points="0,-57.5 0,-76.5 158,-76.5 158,-57.5 0,-57.5"/>
<text text-anchor="middle" x="79" y="-64.5" font-family="Helvetica,sans-Serif" font-size="10.00">RoR::GVarBase::LogSetPending</text>
</g>
<!-- Node91 -->
<g id="node2" class="node"><title>Node91</title>
<g id="a_node2"><a xlink:href="../../dd/d2c/class_ro_r_1_1_g_var_pod___a_p.html#aff3591e534a641949ead4edb5c326142" target="_top" xlink:title="RoR::GVarPod_AP::SetPending">
<polygon fill="white" stroke="black" points="198,-114.5 198,-133.5 354,-133.5 354,-114.5 198,-114.5"/>
<text text-anchor="middle" x="276" y="-121.5" font-family="Helvetica,sans-Serif" font-size="10.00">RoR::GVarPod_AP::SetPending</text>
</a>
</g>
</g>
<!-- Node90&#45;&gt;Node91 -->
<g id="edge1" class="edge"><title>Node90&#45;&gt;Node91</title>
<path fill="none" stroke="midnightblue" d="M116.217,-80.0135C138.494,-87.7827 167.716,-97.5535 194,-105 205.952,-108.386 219.014,-111.641 231.093,-114.472"/>
<polygon fill="midnightblue" stroke="midnightblue" points="117.1,-76.6142 106.506,-76.6003 114.779,-83.2182 117.1,-76.6142"/>
</g>
<!-- Node92 -->
<g id="node3" class="node"><title>Node92</title>
<g id="a_node3"><a xlink:href="../../db/da3/class_ro_r_1_1_g_var_enum___a_p.html#a8be8c8af4df85a2351a9f4ca3b429d4e" target="_top" xlink:title="RoR::GVarEnum_AP::SetPending">
<polygon fill="white" stroke="black" points="194,-76.5 194,-95.5 358,-95.5 358,-76.5 194,-76.5"/>
<text text-anchor="middle" x="276" y="-83.5" font-family="Helvetica,sans-Serif" font-size="10.00">RoR::GVarEnum_AP::SetPending</text>
</a>
</g>
</g>
<!-- Node90&#45;&gt;Node92 -->
<g id="edge2" class="edge"><title>Node90&#45;&gt;Node92</title>
<path fill="none" stroke="midnightblue" d="M168.191,-75.5929C176.761,-76.428 185.428,-77.2725 193.924,-78.1003"/>
<polygon fill="midnightblue" stroke="midnightblue" points="168.483,-72.1049 158.19,-74.6185 167.804,-79.0719 168.483,-72.1049"/>
</g>
<!-- Node93 -->
<g id="node4" class="node"><title>Node93</title>
<g id="a_node4"><a xlink:href="../../db/da3/class_ro_r_1_1_g_var_enum___a_p.html#a08c368605e7c50f803a80d2ab3362927" target="_top" xlink:title="RoR::GVarEnum_AP::SetActive">
<polygon fill="white" stroke="black" points="198.5,-38.5 198.5,-57.5 353.5,-57.5 353.5,-38.5 198.5,-38.5"/>
<text text-anchor="middle" x="276" y="-45.5" font-family="Helvetica,sans-Serif" font-size="10.00">RoR::GVarEnum_AP::SetActive</text>
</a>
</g>
</g>
<!-- Node90&#45;&gt;Node93 -->
<g id="edge3" class="edge"><title>Node90&#45;&gt;Node93</title>
<path fill="none" stroke="midnightblue" d="M168.201,-58.4061C178.272,-57.4248 188.476,-56.4305 198.379,-55.4656"/>
<polygon fill="midnightblue" stroke="midnightblue" points="167.804,-54.9281 158.19,-59.3815 168.483,-61.8951 167.804,-54.9281"/>
</g>
<!-- Node94 -->
<g id="node5" class="node"><title>Node94</title>
<g id="a_node5"><a xlink:href="../../d0/d80/class_ro_r_1_1_g_var_str___a_p.html#aa16eec38c18df5c9f413d84558fefd70" target="_top" xlink:title="RoR::GVarStr_AP::SetPending">
<polygon fill="white" stroke="black" points="200,-0.5 200,-19.5 352,-19.5 352,-0.5 200,-0.5"/>
<text text-anchor="middle" x="276" y="-7.5" font-family="Helvetica,sans-Serif" font-size="10.00">RoR::GVarStr_AP::SetPending</text>
</a>
</g>
</g>
<!-- Node90&#45;&gt;Node94 -->
<g id="edge4" class="edge"><title>Node90&#45;&gt;Node94</title>
<path fill="none" stroke="midnightblue" d="M116.217,-53.9865C138.494,-46.2173 167.716,-36.4465 194,-29 205.952,-25.614 219.014,-22.3587 231.093,-19.5285"/>
<polygon fill="midnightblue" stroke="midnightblue" points="114.779,-50.7818 106.506,-57.3997 117.1,-57.3858 114.779,-50.7818"/>
</g>
</g>
</svg>
