<?xml version="1.0" encoding="UTF-8" standalone="no"?>
<!DOCTYPE svg PUBLIC "-//W3C//DTD SVG 1.1//EN"
 "http://www.w3.org/Graphics/SVG/1.1/DTD/svg11.dtd">
<!-- Generated by graphviz version 2.38.0 (20140413.2041)
 -->
<!-- Title: ImprovedConfigFile::getSettingBool Pages: 1 -->
<svg width="1040pt" height="356pt"
 viewBox="0.00 0.00 1040.00 355.96" xmlns="http://www.w3.org/2000/svg" xmlns:xlink="http://www.w3.org/1999/xlink">
<g id="graph0" class="graph" transform="scale(1 1) rotate(0) translate(4 351.96)">
<title>ImprovedConfigFile::getSettingBool</title>
<polygon fill="white" stroke="none" points="-4,4 -4,-351.96 1036,-351.96 1036,4 -4,4"/>
<!-- Node4 -->
<g id="node1" class="node"><title>Node4</title>
<polygon fill="#bfbfbf" stroke="black" points="0,-147.5 0,-177.5 98,-177.5 98,-147.5 0,-147.5"/>
<text text-anchor="start" x="8" y="-165.5" font-family="Helvetica,sans-Serif" font-size="10.00">ImprovedConfigFile</text>
<text text-anchor="middle" x="49" y="-154.5" font-family="Helvetica,sans-Serif" font-size="10.00">::getSettingBool</text>
</g>
<!-- Node5 -->
<g id="node2" class="node"><title>Node5</title>
<g id="a_node2"><a xlink:href="../../d5/d25/class_ro_r_1_1_config_file.html#abfd892376697c81b3636c52a19fd89a4" target="_top" xlink:title="RoR::ConfigFile::GetStringEx">
<polygon fill="white" stroke="black" points="134,-153 134,-172 277,-172 277,-153 134,-153"/>
<text text-anchor="middle" x="205.5" y="-160" font-family="Helvetica,sans-Serif" font-size="10.00">RoR::ConfigFile::GetStringEx</text>
</a>
</g>
</g>
<!-- Node4&#45;&gt;Node5 -->
<g id="edge1" class="edge"><title>Node4&#45;&gt;Node5</title>
<path fill="none" stroke="midnightblue" d="M98.0379,-162.5C106.187,-162.5 114.846,-162.5 123.566,-162.5"/>
<polygon fill="midnightblue" stroke="midnightblue" points="123.806,-166 133.806,-162.5 123.806,-159 123.806,-166"/>
</g>
<!-- Node6 -->
<g id="node3" class="node"><title>Node6</title>
<g id="a_node3"><a xlink:href="../../da/d4c/namespace_ro_r_1_1_utils.html#ac62ee4a4a513a67cba1bdc7d9eb9c7a4" target="_top" xlink:title="RoR::Utils::SanitizeUtf8\lString">
<polygon fill="white" stroke="black" points="313,-147.5 313,-177.5 432,-177.5 432,-147.5 313,-147.5"/>
<text text-anchor="start" x="321" y="-165.5" font-family="Helvetica,sans-Serif" font-size="10.00">RoR::Utils::SanitizeUtf8</text>
<text text-anchor="middle" x="372.5" y="-154.5" font-family="Helvetica,sans-Serif" font-size="10.00">String</text>
</a>
</g>
</g>
<!-- Node5&#45;&gt;Node6 -->
<g id="edge2" class="edge"><title>Node5&#45;&gt;Node6</title>
<path fill="none" stroke="midnightblue" d="M277.432,-162.5C285.816,-162.5 294.361,-162.5 302.714,-162.5"/>
<polygon fill="midnightblue" stroke="midnightblue" points="302.783,-166 312.783,-162.5 302.783,-159 302.783,-166"/>
</g>
<!-- Node7 -->
<g id="node4" class="node"><title>Node7</title>
<g id="a_node4"><a xlink:href="../../dd/de8/namespaceutf8.html#a07dcd36a2185e5c9f0b19dd88859cd6c" target="_top" xlink:title="utf8::replace_invalid">
<polygon fill="white" stroke="black" points="468,-153 468,-172 569,-172 569,-153 468,-153"/>
<text text-anchor="middle" x="518.5" y="-160" font-family="Helvetica,sans-Serif" font-size="10.00">utf8::replace_invalid</text>
</a>
</g>
</g>
<!-- Node6&#45;&gt;Node7 -->
<g id="edge3" class="edge"><title>Node6&#45;&gt;Node7</title>
<path fill="none" stroke="midnightblue" d="M432.07,-162.5C440.485,-162.5 449.153,-162.5 457.593,-162.5"/>
<polygon fill="midnightblue" stroke="midnightblue" points="457.742,-166 467.742,-162.5 457.742,-159 457.742,-166"/>
</g>
<!-- Node8 -->
<g id="node5" class="node"><title>Node8</title>
<g id="a_node5"><a xlink:href="../../d0/d96/namespaceutf8_1_1internal.html#abe95547575fcc81911e381df03f8ebfe" target="_top" xlink:title="utf8::internal::validate_next">
<polygon fill="white" stroke="black" points="605,-153 605,-172 737,-172 737,-153 605,-153"/>
<text text-anchor="middle" x="671" y="-160" font-family="Helvetica,sans-Serif" font-size="10.00">utf8::internal::validate_next</text>
</a>
</g>
</g>
<!-- Node7&#45;&gt;Node8 -->
<g id="edge4" class="edge"><title>Node7&#45;&gt;Node8</title>
<path fill="none" stroke="midnightblue" d="M569.196,-162.5C577.381,-162.5 586.024,-162.5 594.667,-162.5"/>
<polygon fill="midnightblue" stroke="midnightblue" points="594.788,-166 604.788,-162.5 594.788,-159 594.788,-166"/>
</g>
<!-- Node18 -->
<g id="node15" class="node"><title>Node18</title>
<g id="a_node15"><a xlink:href="../../dd/de8/namespaceutf8.html#a3827e78596fc38cfdebd721e9c45c901" target="_top" xlink:title="The library API &#45; functions intended to be called by the users. ">
<polygon fill="white" stroke="black" points="636,-61 636,-80 706,-80 706,-61 636,-61"/>
<text text-anchor="middle" x="671" y="-68" font-family="Helvetica,sans-Serif" font-size="10.00">utf8::append</text>
</a>
</g>
</g>
<!-- Node7&#45;&gt;Node18 -->
<g id="edge18" class="edge"><title>Node7&#45;&gt;Node18</title>
<path fill="none" stroke="midnightblue" d="M535.322,-152.828C561.585,-136.774 614.365,-104.51 645.482,-85.4877"/>
<polygon fill="midnightblue" stroke="midnightblue" points="647.684,-88.2441 654.39,-80.0421 644.033,-82.2716 647.684,-88.2441"/>
</g>
<!-- Node19 -->
<g id="node16" class="node"><title>Node19</title>
<g id="a_node16"><a xlink:href="../../d0/d96/namespaceutf8_1_1internal.html#ab4820484159ba613b4901476ceb24516" target="_top" xlink:title="utf8::internal::is\l_trail">
<polygon fill="white" stroke="black" points="629.5,-264.5 629.5,-294.5 712.5,-294.5 712.5,-264.5 629.5,-264.5"/>
<text text-anchor="start" x="637.5" y="-282.5" font-family="Helvetica,sans-Serif" font-size="10.00">utf8::internal::is</text>
<text text-anchor="middle" x="671" y="-271.5" font-family="Helvetica,sans-Serif" font-size="10.00">_trail</text>
</a>
</g>
</g>
<!-- Node7&#45;&gt;Node19 -->
<g id="edge20" class="edge"><title>Node7&#45;&gt;Node19</title>
<path fill="none" stroke="midnightblue" d="M531.816,-172.075C555.789,-190.712 609.253,-232.275 642.206,-257.893"/>
<polygon fill="midnightblue" stroke="midnightblue" points="640.47,-260.976 650.513,-264.35 644.766,-255.45 640.47,-260.976"/>
</g>
<!-- Node9 -->
<g id="node6" class="node"><title>Node9</title>
<g id="a_node6"><a xlink:href="../../d0/d96/namespaceutf8_1_1internal.html#aadbe437cba7bfcc4df2638f633e9787c" target="_top" xlink:title="utf8::internal::sequence\l_length">
<polygon fill="white" stroke="black" points="773,-147.5 773,-177.5 891,-177.5 891,-147.5 773,-147.5"/>
<text text-anchor="start" x="781" y="-165.5" font-family="Helvetica,sans-Serif" font-size="10.00">utf8::internal::sequence</text>
<text text-anchor="middle" x="832" y="-154.5" font-family="Helvetica,sans-Serif" font-size="10.00">_length</text>
</a>
</g>
</g>
<!-- Node8&#45;&gt;Node9 -->
<g id="edge5" class="edge"><title>Node8&#45;&gt;Node9</title>
<path fill="none" stroke="midnightblue" d="M737.13,-162.5C745.544,-162.5 754.18,-162.5 762.645,-162.5"/>
<polygon fill="midnightblue" stroke="midnightblue" points="762.857,-166 772.857,-162.5 762.857,-159 762.857,-166"/>
</g>
<!-- Node11 -->
<g id="node8" class="node"><title>Node11</title>
<g id="a_node8"><a xlink:href="../../d0/d96/namespaceutf8_1_1internal.html#a6e5df73716136aec55e8fcf3309038b6" target="_top" xlink:title="get_sequence_x functions decode utf&#45;8 sequences of the length x ">
<polygon fill="white" stroke="black" points="787.5,-98.5 787.5,-128.5 876.5,-128.5 876.5,-98.5 787.5,-98.5"/>
<text text-anchor="start" x="795.5" y="-116.5" font-family="Helvetica,sans-Serif" font-size="10.00">utf8::internal::get</text>
<text text-anchor="middle" x="832" y="-105.5" font-family="Helvetica,sans-Serif" font-size="10.00">_sequence_1</text>
</a>
</g>
</g>
<!-- Node8&#45;&gt;Node11 -->
<g id="edge7" class="edge"><title>Node8&#45;&gt;Node11</title>
<path fill="none" stroke="midnightblue" d="M703.034,-152.936C724.257,-146.396 752.931,-137.559 777.756,-129.908"/>
<polygon fill="midnightblue" stroke="midnightblue" points="778.887,-133.222 787.413,-126.932 776.826,-126.533 778.887,-133.222"/>
</g>
<!-- Node12 -->
<g id="node9" class="node"><title>Node12</title>
<g id="a_node9"><a xlink:href="../../d0/d96/namespaceutf8_1_1internal.html#a9d641b9546be985f9f0fd4955ac42a24" target="_top" xlink:title="utf8::internal::get\l_sequence_2">
<polygon fill="white" stroke="black" points="787.5,-49.5 787.5,-79.5 876.5,-79.5 876.5,-49.5 787.5,-49.5"/>
<text text-anchor="start" x="795.5" y="-67.5" font-family="Helvetica,sans-Serif" font-size="10.00">utf8::internal::get</text>
<text text-anchor="middle" x="832" y="-56.5" font-family="Helvetica,sans-Serif" font-size="10.00">_sequence_2</text>
</a>
</g>
</g>
<!-- Node8&#45;&gt;Node12 -->
<g id="edge9" class="edge"><title>Node8&#45;&gt;Node12</title>
<path fill="none" stroke="midnightblue" d="M683.201,-152.885C701.214,-137.757 738.138,-108.107 773,-88.5 775.849,-86.8974 778.828,-85.3408 781.865,-83.8415"/>
<polygon fill="midnightblue" stroke="midnightblue" points="783.513,-86.9349 791.087,-79.5264 780.546,-80.5947 783.513,-86.9349"/>
</g>
<!-- Node13 -->
<g id="node10" class="node"><title>Node13</title>
<g id="a_node10"><a xlink:href="../../d0/d96/namespaceutf8_1_1internal.html#ac1809a1fb3fa6983d64a0d3a39646008" target="_top" xlink:title="utf8::internal::get\l_sequence_3">
<polygon fill="white" stroke="black" points="787.5,-294.5 787.5,-324.5 876.5,-324.5 876.5,-294.5 787.5,-294.5"/>
<text text-anchor="start" x="795.5" y="-312.5" font-family="Helvetica,sans-Serif" font-size="10.00">utf8::internal::get</text>
<text text-anchor="middle" x="832" y="-301.5" font-family="Helvetica,sans-Serif" font-size="10.00">_sequence_3</text>
</a>
</g>
</g>
<!-- Node8&#45;&gt;Node13 -->
<g id="edge11" class="edge"><title>Node8&#45;&gt;Node13</title>
<path fill="none" stroke="midnightblue" d="M677.6,-172.173C691.198,-194.897 728.159,-252.266 773,-285.5 774.849,-286.871 776.789,-288.179 778.79,-289.425"/>
<polygon fill="midnightblue" stroke="midnightblue" points="777.442,-292.68 787.88,-294.496 780.852,-286.568 777.442,-292.68"/>
</g>
<!-- Node14 -->
<g id="node11" class="node"><title>Node14</title>
<g id="a_node11"><a xlink:href="../../d0/d96/namespaceutf8_1_1internal.html#ad1958e7c6746ba6b1fbb0d81b88b346c" target="_top" xlink:title="utf8::internal::get\l_sequence_4">
<polygon fill="white" stroke="black" points="787.5,-196.5 787.5,-226.5 876.5,-226.5 876.5,-196.5 787.5,-196.5"/>
<text text-anchor="start" x="795.5" y="-214.5" font-family="Helvetica,sans-Serif" font-size="10.00">utf8::internal::get</text>
<text text-anchor="middle" x="832" y="-203.5" font-family="Helvetica,sans-Serif" font-size="10.00">_sequence_4</text>
</a>
</g>
</g>
<!-- Node8&#45;&gt;Node14 -->
<g id="edge13" class="edge"><title>Node8&#45;&gt;Node14</title>
<path fill="none" stroke="midnightblue" d="M703.034,-172.064C724.257,-178.604 752.931,-187.441 777.756,-195.092"/>
<polygon fill="midnightblue" stroke="midnightblue" points="776.826,-198.467 787.413,-198.068 778.887,-191.778 776.826,-198.467"/>
</g>
<!-- Node15 -->
<g id="node12" class="node"><title>Node15</title>
<g id="a_node12"><a xlink:href="../../d0/d96/namespaceutf8_1_1internal.html#a97b553137aaeda6e8ca6f8d46f78fd79" target="_top" xlink:title="utf8::internal::is\l_code_point_valid">
<polygon fill="white" stroke="black" points="785.5,-0.5 785.5,-30.5 878.5,-30.5 878.5,-0.5 785.5,-0.5"/>
<text text-anchor="start" x="793.5" y="-18.5" font-family="Helvetica,sans-Serif" font-size="10.00">utf8::internal::is</text>
<text text-anchor="middle" x="832" y="-7.5" font-family="Helvetica,sans-Serif" font-size="10.00">_code_point_valid</text>
</a>
</g>
</g>
<!-- Node8&#45;&gt;Node15 -->
<g id="edge15" class="edge"><title>Node8&#45;&gt;Node15</title>
<path fill="none" stroke="midnightblue" d="M681.164,-152.863C694.062,-139.154 718.107,-113.068 737,-89.5 754.128,-68.1349 751.529,-56.4949 773,-39.5 774.602,-38.2319 776.281,-37.0207 778.016,-35.8651"/>
<polygon fill="midnightblue" stroke="midnightblue" points="780.225,-38.6265 787.073,-30.5419 776.678,-32.5917 780.225,-38.6265"/>
</g>
<!-- Node17 -->
<g id="node14" class="node"><title>Node17</title>
<g id="a_node14"><a xlink:href="../../d0/d96/namespaceutf8_1_1internal.html#a3160f6f24dff465f64f83cb0e66995c6" target="_top" xlink:title="utf8::internal::is\l_overlong_sequence">
<polygon fill="white" stroke="black" points="780,-245.5 780,-275.5 884,-275.5 884,-245.5 780,-245.5"/>
<text text-anchor="start" x="788" y="-263.5" font-family="Helvetica,sans-Serif" font-size="10.00">utf8::internal::is</text>
<text text-anchor="middle" x="832" y="-252.5" font-family="Helvetica,sans-Serif" font-size="10.00">_overlong_sequence</text>
</a>
</g>
</g>
<!-- Node8&#45;&gt;Node17 -->
<g id="edge17" class="edge"><title>Node8&#45;&gt;Node17</title>
<path fill="none" stroke="midnightblue" d="M683.201,-172.115C701.214,-187.243 738.138,-216.893 773,-236.5 775.849,-238.103 778.828,-239.659 781.865,-241.159"/>
<polygon fill="midnightblue" stroke="midnightblue" points="780.546,-244.405 791.087,-245.474 783.513,-238.065 780.546,-244.405"/>
</g>
<!-- Node10 -->
<g id="node7" class="node"><title>Node10</title>
<g id="a_node7"><a xlink:href="../../d0/d96/namespaceutf8_1_1internal.html#adf6e0469e279b9562aa461b4c3c1e7e4" target="_top" xlink:title="utf8::internal::mask8">
<polygon fill="white" stroke="black" points="927,-177 927,-196 1032,-196 1032,-177 927,-177"/>
<text text-anchor="middle" x="979.5" y="-184" font-family="Helvetica,sans-Serif" font-size="10.00">utf8::internal::mask8</text>
</a>
</g>
</g>
<!-- Node9&#45;&gt;Node10 -->
<g id="edge6" class="edge"><title>Node9&#45;&gt;Node10</title>
<path fill="none" stroke="midnightblue" d="M891.342,-172.123C899.661,-173.496 908.241,-174.911 916.625,-176.294"/>
<polygon fill="midnightblue" stroke="midnightblue" points="916.286,-179.785 926.722,-177.959 917.425,-172.878 916.286,-179.785"/>
</g>
<!-- Node11&#45;&gt;Node10 -->
<g id="edge8" class="edge"><title>Node11&#45;&gt;Node10</title>
<path fill="none" stroke="midnightblue" d="M869.44,-128.58C876.642,-131.736 884.103,-135.131 891,-138.5 912.28,-148.894 935.781,-161.873 953.065,-171.713"/>
<polygon fill="midnightblue" stroke="midnightblue" points="951.557,-174.883 961.973,-176.82 955.039,-168.81 951.557,-174.883"/>
</g>
<!-- Node12&#45;&gt;Node10 -->
<g id="edge10" class="edge"><title>Node12&#45;&gt;Node10</title>
<path fill="none" stroke="midnightblue" d="M875.686,-79.5348C881.044,-82.1705 886.29,-85.1576 891,-88.5 922.739,-111.022 951.039,-147.056 966.386,-168.586"/>
<polygon fill="midnightblue" stroke="midnightblue" points="963.552,-170.641 972.142,-176.843 969.294,-166.638 963.552,-170.641"/>
</g>
<!-- Node13&#45;&gt;Node10 -->
<g id="edge12" class="edge"><title>Node13&#45;&gt;Node10</title>
<path fill="none" stroke="midnightblue" d="M875.702,-294.488C881.057,-291.848 886.298,-288.854 891,-285.5 922.862,-262.77 951.122,-226.361 966.427,-204.604"/>
<polygon fill="midnightblue" stroke="midnightblue" points="969.383,-206.482 972.166,-196.259 963.615,-202.516 969.383,-206.482"/>
</g>
<!-- Node14&#45;&gt;Node10 -->
<g id="edge14" class="edge"><title>Node14&#45;&gt;Node10</title>
<path fill="none" stroke="midnightblue" d="M876.655,-203.999C889.262,-201.833 903.265,-199.427 916.751,-197.11"/>
<polygon fill="midnightblue" stroke="midnightblue" points="917.669,-200.503 926.932,-195.361 916.483,-193.605 917.669,-200.503"/>
</g>
<!-- Node16 -->
<g id="node13" class="node"><title>Node16</title>
<g id="a_node13"><a xlink:href="../../d0/d96/namespaceutf8_1_1internal.html#a31a185a6bc8b9bf454191a8a95a93595" target="_top" xlink:title="utf8::internal::is\l_surrogate">
<polygon fill="white" stroke="black" points="938,-0.5 938,-30.5 1021,-30.5 1021,-0.5 938,-0.5"/>
<text text-anchor="start" x="946" y="-18.5" font-family="Helvetica,sans-Serif" font-size="10.00">utf8::internal::is</text>
<text text-anchor="middle" x="979.5" y="-7.5" font-family="Helvetica,sans-Serif" font-size="10.00">_surrogate</text>
</a>
</g>
</g>
<!-- Node15&#45;&gt;Node16 -->
<g id="edge16" class="edge"><title>Node15&#45;&gt;Node16</title>
<path fill="none" stroke="midnightblue" d="M878.638,-15.5C894.225,-15.5 911.75,-15.5 927.717,-15.5"/>
<polygon fill="midnightblue" stroke="midnightblue" points="927.949,-19.0001 937.949,-15.5 927.949,-12.0001 927.949,-19.0001"/>
</g>
<!-- Node18&#45;&gt;Node15 -->
<g id="edge19" class="edge"><title>Node18&#45;&gt;Node15</title>
<path fill="none" stroke="midnightblue" d="M699.696,-60.9197C721.155,-53.4967 751.534,-42.9883 777.667,-33.9485"/>
<polygon fill="midnightblue" stroke="midnightblue" points="779.141,-37.1422 787.447,-30.5654 776.853,-30.5268 779.141,-37.1422"/>
</g>
<!-- Node19&#45;&gt;Node10 -->
<g id="edge21" class="edge"><title>Node19&#45;&gt;Node10</title>
<path fill="none" stroke="midnightblue" d="M693.321,-294.665C734.181,-321.692 825.283,-371.99 891,-334.5 939.917,-306.594 964.257,-239.433 973.677,-206.036"/>
<polygon fill="midnightblue" stroke="midnightblue" points="977.129,-206.673 976.314,-196.11 970.364,-204.876 977.129,-206.673"/>
</g>
</g>
</svg>
