<?xml version="1.0" encoding="UTF-8" standalone="no"?>
<!DOCTYPE svg PUBLIC "-//W3C//DTD SVG 1.1//EN"
 "http://www.w3.org/Graphics/SVG/1.1/DTD/svg11.dtd">
<!-- Generated by graphviz version 2.38.0 (20140413.2041)
 -->
<!-- Title: parseInt_Generic Pages: 1 -->
<svg width="486pt" height="28pt"
 viewBox="0.00 0.00 486.00 28.00" xmlns="http://www.w3.org/2000/svg" xmlns:xlink="http://www.w3.org/1999/xlink">
<g id="graph0" class="graph" transform="scale(1 1) rotate(0) translate(4 24)">
<title>parseInt_Generic</title>
<polygon fill="white" stroke="none" points="-4,4 -4,-24 482,-24 482,4 -4,4"/>
<!-- Node364 -->
<g id="node1" class="node"><title>Node364</title>
<polygon fill="#bfbfbf" stroke="black" points="0,-0.5 0,-19.5 90,-19.5 90,-0.5 0,-0.5"/>
<text text-anchor="middle" x="45" y="-7.5" font-family="Helvetica,sans-Serif" font-size="10.00">parseInt_Generic</text>
</g>
<!-- Node365 -->
<g id="node2" class="node"><title>Node365</title>
<g id="a_node2"><a xlink:href="../../df/d8c/scriptstdstring_8cpp.html#a62c6497c981bdc5911e1167e4252cfdb" target="_top" xlink:title="RegisterStdString_Generic">
<polygon fill="white" stroke="black" points="126,-0.5 126,-19.5 258,-19.5 258,-0.5 126,-0.5"/>
<text text-anchor="middle" x="192" y="-7.5" font-family="Helvetica,sans-Serif" font-size="10.00">RegisterStdString_Generic</text>
</a>
</g>
</g>
<!-- Node364&#45;&gt;Node365 -->
<g id="edge1" class="edge"><title>Node364&#45;&gt;Node365</title>
<path fill="none" stroke="midnightblue" d="M100.555,-10C108.824,-10 117.427,-10 125.893,-10"/>
<polygon fill="midnightblue" stroke="midnightblue" points="100.293,-6.5001 90.2927,-10 100.293,-13.5001 100.293,-6.5001"/>
</g>
<!-- Node366 -->
<g id="node3" class="node"><title>Node366</title>
<g id="a_node3"><a xlink:href="../../d0/d74/scriptstdstring_8h.html#a287e4fc1f4c8621cfd2f1793f9e70f39" target="_top" xlink:title="RegisterStdString">
<polygon fill="white" stroke="black" points="294,-0.5 294,-19.5 387,-19.5 387,-0.5 294,-0.5"/>
<text text-anchor="middle" x="340.5" y="-7.5" font-family="Helvetica,sans-Serif" font-size="10.00">RegisterStdString</text>
</a>
</g>
</g>
<!-- Node365&#45;&gt;Node366 -->
<g id="edge2" class="edge"><title>Node365&#45;&gt;Node366</title>
<path fill="none" stroke="midnightblue" d="M268.339,-10C277.062,-10 285.746,-10 293.895,-10"/>
<polygon fill="midnightblue" stroke="midnightblue" points="268.11,-6.5001 258.11,-10 268.11,-13.5001 268.11,-6.5001"/>
</g>
<!-- Node367 -->
<g id="node4" class="node"><title>Node367</title>
<g id="a_node4"><a xlink:href="../../d4/d5f/_script_engine_8cpp.html#a72e7735b6ca109323b2aa797f7b7b45d" target="_top" xlink:title="logString">
<polygon fill="white" stroke="black" points="423,-0.5 423,-19.5 478,-19.5 478,-0.5 423,-0.5"/>
<text text-anchor="middle" x="450.5" y="-7.5" font-family="Helvetica,sans-Serif" font-size="10.00">logString</text>
</a>
</g>
</g>
<!-- Node366&#45;&gt;Node367 -->
<g id="edge3" class="edge"><title>Node366&#45;&gt;Node367</title>
<path fill="none" stroke="midnightblue" d="M397.566,-10C406.328,-10 415.018,-10 422.71,-10"/>
<polygon fill="midnightblue" stroke="midnightblue" points="397.302,-6.5001 387.302,-10 397.302,-13.5001 397.302,-6.5001"/>
</g>
</g>
</svg>
