<?xml version="1.0" encoding="UTF-8" standalone="no"?>
<!DOCTYPE svg PUBLIC "-//W3C//DTD SVG 1.1//EN"
 "http://www.w3.org/Graphics/SVG/1.1/DTD/svg11.dtd">
<!-- Generated by graphviz version 2.38.0 (20140413.2041)
 -->
<!-- Title: StringInsert_Generic Pages: 1 -->
<svg width="501pt" height="28pt"
 viewBox="0.00 0.00 501.00 28.00" xmlns="http://www.w3.org/2000/svg" xmlns:xlink="http://www.w3.org/1999/xlink">
<g id="graph0" class="graph" transform="scale(1 1) rotate(0) translate(4 24)">
<title>StringInsert_Generic</title>
<polygon fill="white" stroke="none" points="-4,4 -4,-24 497,-24 497,4 -4,4"/>
<!-- Node754 -->
<g id="node1" class="node"><title>Node754</title>
<polygon fill="#bfbfbf" stroke="black" points="0,-0.5 0,-19.5 105,-19.5 105,-0.5 0,-0.5"/>
<text text-anchor="middle" x="52.5" y="-7.5" font-family="Helvetica,sans-Serif" font-size="10.00">StringInsert_Generic</text>
</g>
<!-- Node755 -->
<g id="node2" class="node"><title>Node755</title>
<g id="a_node2"><a xlink:href="../../df/d8c/scriptstdstring_8cpp.html#a62c6497c981bdc5911e1167e4252cfdb" target="_top" xlink:title="RegisterStdString_Generic">
<polygon fill="white" stroke="black" points="141,-0.5 141,-19.5 273,-19.5 273,-0.5 141,-0.5"/>
<text text-anchor="middle" x="207" y="-7.5" font-family="Helvetica,sans-Serif" font-size="10.00">RegisterStdString_Generic</text>
</a>
</g>
</g>
<!-- Node754&#45;&gt;Node755 -->
<g id="edge1" class="edge"><title>Node754&#45;&gt;Node755</title>
<path fill="none" stroke="midnightblue" d="M115.276,-10C123.718,-10 132.406,-10 140.905,-10"/>
<polygon fill="midnightblue" stroke="midnightblue" points="115.13,-6.5001 105.13,-10 115.13,-13.5001 115.13,-6.5001"/>
</g>
<!-- Node756 -->
<g id="node3" class="node"><title>Node756</title>
<g id="a_node3"><a xlink:href="../../d0/d74/scriptstdstring_8h.html#a287e4fc1f4c8621cfd2f1793f9e70f39" target="_top" xlink:title="RegisterStdString">
<polygon fill="white" stroke="black" points="309,-0.5 309,-19.5 402,-19.5 402,-0.5 309,-0.5"/>
<text text-anchor="middle" x="355.5" y="-7.5" font-family="Helvetica,sans-Serif" font-size="10.00">RegisterStdString</text>
</a>
</g>
</g>
<!-- Node755&#45;&gt;Node756 -->
<g id="edge2" class="edge"><title>Node755&#45;&gt;Node756</title>
<path fill="none" stroke="midnightblue" d="M283.339,-10C292.062,-10 300.746,-10 308.895,-10"/>
<polygon fill="midnightblue" stroke="midnightblue" points="283.11,-6.5001 273.11,-10 283.11,-13.5001 283.11,-6.5001"/>
</g>
<!-- Node757 -->
<g id="node4" class="node"><title>Node757</title>
<g id="a_node4"><a xlink:href="../../d4/d5f/_script_engine_8cpp.html#a72e7735b6ca109323b2aa797f7b7b45d" target="_top" xlink:title="logString">
<polygon fill="white" stroke="black" points="438,-0.5 438,-19.5 493,-19.5 493,-0.5 438,-0.5"/>
<text text-anchor="middle" x="465.5" y="-7.5" font-family="Helvetica,sans-Serif" font-size="10.00">logString</text>
</a>
</g>
</g>
<!-- Node756&#45;&gt;Node757 -->
<g id="edge3" class="edge"><title>Node756&#45;&gt;Node757</title>
<path fill="none" stroke="midnightblue" d="M412.566,-10C421.328,-10 430.018,-10 437.71,-10"/>
<polygon fill="midnightblue" stroke="midnightblue" points="412.302,-6.5001 402.302,-10 412.302,-13.5001 412.302,-6.5001"/>
</g>
</g>
</svg>
