<?xml version="1.0" encoding="UTF-8" standalone="no"?>
<!DOCTYPE svg PUBLIC "-//W3C//DTD SVG 1.1//EN"
 "http://www.w3.org/Graphics/SVG/1.1/DTD/svg11.dtd">
<!-- Generated by graphviz version 2.38.0 (20140413.2041)
 -->
<!-- Title: AssignBool2StringGeneric Pages: 1 -->
<svg width="527pt" height="28pt"
 viewBox="0.00 0.00 527.00 28.00" xmlns="http://www.w3.org/2000/svg" xmlns:xlink="http://www.w3.org/1999/xlink">
<g id="graph0" class="graph" transform="scale(1 1) rotate(0) translate(4 24)">
<title>AssignBool2StringGeneric</title>
<polygon fill="white" stroke="none" points="-4,4 -4,-24 523,-24 523,4 -4,4"/>
<!-- Node161 -->
<g id="node1" class="node"><title>Node161</title>
<polygon fill="#bfbfbf" stroke="black" points="0,-0.5 0,-19.5 131,-19.5 131,-0.5 0,-0.5"/>
<text text-anchor="middle" x="65.5" y="-7.5" font-family="Helvetica,sans-Serif" font-size="10.00">AssignBool2StringGeneric</text>
</g>
<!-- Node162 -->
<g id="node2" class="node"><title>Node162</title>
<g id="a_node2"><a xlink:href="../../df/d8c/scriptstdstring_8cpp.html#a62c6497c981bdc5911e1167e4252cfdb" target="_top" xlink:title="RegisterStdString_Generic">
<polygon fill="white" stroke="black" points="167,-0.5 167,-19.5 299,-19.5 299,-0.5 167,-0.5"/>
<text text-anchor="middle" x="233" y="-7.5" font-family="Helvetica,sans-Serif" font-size="10.00">RegisterStdString_Generic</text>
</a>
</g>
</g>
<!-- Node161&#45;&gt;Node162 -->
<g id="edge1" class="edge"><title>Node161&#45;&gt;Node162</title>
<path fill="none" stroke="midnightblue" d="M141.666,-10C150.117,-10 158.674,-10 166.981,-10"/>
<polygon fill="midnightblue" stroke="midnightblue" points="141.435,-6.5001 131.435,-10 141.435,-13.5001 141.435,-6.5001"/>
</g>
<!-- Node163 -->
<g id="node3" class="node"><title>Node163</title>
<g id="a_node3"><a xlink:href="../../d0/d74/scriptstdstring_8h.html#a287e4fc1f4c8621cfd2f1793f9e70f39" target="_top" xlink:title="RegisterStdString">
<polygon fill="white" stroke="black" points="335,-0.5 335,-19.5 428,-19.5 428,-0.5 335,-0.5"/>
<text text-anchor="middle" x="381.5" y="-7.5" font-family="Helvetica,sans-Serif" font-size="10.00">RegisterStdString</text>
</a>
</g>
</g>
<!-- Node162&#45;&gt;Node163 -->
<g id="edge2" class="edge"><title>Node162&#45;&gt;Node163</title>
<path fill="none" stroke="midnightblue" d="M309.339,-10C318.062,-10 326.746,-10 334.895,-10"/>
<polygon fill="midnightblue" stroke="midnightblue" points="309.11,-6.5001 299.11,-10 309.11,-13.5001 309.11,-6.5001"/>
</g>
<!-- Node164 -->
<g id="node4" class="node"><title>Node164</title>
<g id="a_node4"><a xlink:href="../../d4/d5f/_script_engine_8cpp.html#a72e7735b6ca109323b2aa797f7b7b45d" target="_top" xlink:title="logString">
<polygon fill="white" stroke="black" points="464,-0.5 464,-19.5 519,-19.5 519,-0.5 464,-0.5"/>
<text text-anchor="middle" x="491.5" y="-7.5" font-family="Helvetica,sans-Serif" font-size="10.00">logString</text>
</a>
</g>
</g>
<!-- Node163&#45;&gt;Node164 -->
<g id="edge3" class="edge"><title>Node163&#45;&gt;Node164</title>
<path fill="none" stroke="midnightblue" d="M438.566,-10C447.328,-10 456.018,-10 463.71,-10"/>
<polygon fill="midnightblue" stroke="midnightblue" points="438.302,-6.5001 428.302,-10 438.302,-13.5001 438.302,-6.5001"/>
</g>
</g>
</svg>
