<?xml version="1.0" encoding="UTF-8" standalone="no"?>
<!DOCTYPE svg PUBLIC "-//W3C//DTD SVG 1.1//EN"
 "http://www.w3.org/Graphics/SVG/1.1/DTD/svg11.dtd">
<!-- Generated by graphviz version 2.38.0 (20140413.2041)
 -->
<!-- Title: StringInsert Pages: 1 -->
<svg width="603pt" height="66pt"
 viewBox="0.00 0.00 603.00 66.00" xmlns="http://www.w3.org/2000/svg" xmlns:xlink="http://www.w3.org/1999/xlink">
<g id="graph0" class="graph" transform="scale(1 1) rotate(0) translate(4 62)">
<title>StringInsert</title>
<polygon fill="white" stroke="none" points="-4,4 -4,-62 599,-62 599,4 -4,4"/>
<!-- Node746 -->
<g id="node1" class="node"><title>Node746</title>
<polygon fill="#bfbfbf" stroke="black" points="0,-19.5 0,-38.5 66,-38.5 66,-19.5 0,-19.5"/>
<text text-anchor="middle" x="33" y="-26.5" font-family="Helvetica,sans-Serif" font-size="10.00">StringInsert</text>
</g>
<!-- Node747 -->
<g id="node2" class="node"><title>Node747</title>
<g id="a_node2"><a xlink:href="../../df/d8c/scriptstdstring_8cpp.html#a657654b75330de77f99c893c3961e7a4" target="_top" xlink:title="RegisterStdString_Native">
<polygon fill="white" stroke="black" points="246.5,-38.5 246.5,-57.5 371.5,-57.5 371.5,-38.5 246.5,-38.5"/>
<text text-anchor="middle" x="309" y="-45.5" font-family="Helvetica,sans-Serif" font-size="10.00">RegisterStdString_Native</text>
</a>
</g>
</g>
<!-- Node746&#45;&gt;Node747 -->
<g id="edge1" class="edge"><title>Node746&#45;&gt;Node747</title>
<path fill="none" stroke="midnightblue" d="M76.3468,-31.9365C121.827,-35.0902 194.531,-40.1317 246.354,-43.7253"/>
<polygon fill="midnightblue" stroke="midnightblue" points="76.4552,-28.4357 66.237,-31.2354 75.9709,-35.4189 76.4552,-28.4357"/>
</g>
<!-- Node750 -->
<g id="node5" class="node"><title>Node750</title>
<g id="a_node5"><a xlink:href="../../df/d8c/scriptstdstring_8cpp.html#a9a59c06b1cbdac63992a28addd927637" target="_top" xlink:title="StringInsert_Generic">
<polygon fill="white" stroke="black" points="102,-0.5 102,-19.5 207,-19.5 207,-0.5 102,-0.5"/>
<text text-anchor="middle" x="154.5" y="-7.5" font-family="Helvetica,sans-Serif" font-size="10.00">StringInsert_Generic</text>
</a>
</g>
</g>
<!-- Node746&#45;&gt;Node750 -->
<g id="edge4" class="edge"><title>Node746&#45;&gt;Node750</title>
<path fill="none" stroke="midnightblue" d="M75.974,-22.3263C84.3831,-20.9893 93.3089,-19.5701 101.998,-18.1887"/>
<polygon fill="midnightblue" stroke="midnightblue" points="75.3501,-18.8814 66.0238,-23.9083 76.4494,-25.7946 75.3501,-18.8814"/>
</g>
<!-- Node748 -->
<g id="node3" class="node"><title>Node748</title>
<g id="a_node3"><a xlink:href="../../d0/d74/scriptstdstring_8h.html#a287e4fc1f4c8621cfd2f1793f9e70f39" target="_top" xlink:title="RegisterStdString">
<polygon fill="white" stroke="black" points="411,-19.5 411,-38.5 504,-38.5 504,-19.5 411,-19.5"/>
<text text-anchor="middle" x="457.5" y="-26.5" font-family="Helvetica,sans-Serif" font-size="10.00">RegisterStdString</text>
</a>
</g>
</g>
<!-- Node747&#45;&gt;Node748 -->
<g id="edge2" class="edge"><title>Node747&#45;&gt;Node748</title>
<path fill="none" stroke="midnightblue" d="M381.626,-38.7107C391.587,-37.4187 401.589,-36.1216 410.893,-34.9149"/>
<polygon fill="midnightblue" stroke="midnightblue" points="381.171,-35.2402 371.705,-39.9974 382.072,-42.182 381.171,-35.2402"/>
</g>
<!-- Node749 -->
<g id="node4" class="node"><title>Node749</title>
<g id="a_node4"><a xlink:href="../../d4/d5f/_script_engine_8cpp.html#a72e7735b6ca109323b2aa797f7b7b45d" target="_top" xlink:title="logString">
<polygon fill="white" stroke="black" points="540,-19.5 540,-38.5 595,-38.5 595,-19.5 540,-19.5"/>
<text text-anchor="middle" x="567.5" y="-26.5" font-family="Helvetica,sans-Serif" font-size="10.00">logString</text>
</a>
</g>
</g>
<!-- Node748&#45;&gt;Node749 -->
<g id="edge3" class="edge"><title>Node748&#45;&gt;Node749</title>
<path fill="none" stroke="midnightblue" d="M514.566,-29C523.328,-29 532.018,-29 539.71,-29"/>
<polygon fill="midnightblue" stroke="midnightblue" points="514.302,-25.5001 504.302,-29 514.302,-32.5001 514.302,-25.5001"/>
</g>
<!-- Node751 -->
<g id="node6" class="node"><title>Node751</title>
<g id="a_node6"><a xlink:href="../../df/d8c/scriptstdstring_8cpp.html#a62c6497c981bdc5911e1167e4252cfdb" target="_top" xlink:title="RegisterStdString_Generic">
<polygon fill="white" stroke="black" points="243,-0.5 243,-19.5 375,-19.5 375,-0.5 243,-0.5"/>
<text text-anchor="middle" x="309" y="-7.5" font-family="Helvetica,sans-Serif" font-size="10.00">RegisterStdString_Generic</text>
</a>
</g>
</g>
<!-- Node750&#45;&gt;Node751 -->
<g id="edge5" class="edge"><title>Node750&#45;&gt;Node751</title>
<path fill="none" stroke="midnightblue" d="M217.276,-10C225.718,-10 234.406,-10 242.905,-10"/>
<polygon fill="midnightblue" stroke="midnightblue" points="217.13,-6.5001 207.13,-10 217.13,-13.5001 217.13,-6.5001"/>
</g>
<!-- Node751&#45;&gt;Node748 -->
<g id="edge6" class="edge"><title>Node751&#45;&gt;Node748</title>
<path fill="none" stroke="midnightblue" d="M385.055,-19.734C393.873,-20.8778 402.657,-22.017 410.895,-23.0853"/>
<polygon fill="midnightblue" stroke="midnightblue" points="385.477,-16.2596 375.11,-18.4443 384.577,-23.2015 385.477,-16.2596"/>
</g>
</g>
</svg>
