<?xml version="1.0" encoding="UTF-8" standalone="no"?>
<!DOCTYPE svg PUBLIC "-//W3C//DTD SVG 1.1//EN"
 "http://www.w3.org/Graphics/SVG/1.1/DTD/svg11.dtd">
<!-- Generated by graphviz version 2.38.0 (20140413.2041)
 -->
<!-- Title: StringCharAtGeneric Pages: 1 -->
<svg width="502pt" height="28pt"
 viewBox="0.00 0.00 502.00 28.00" xmlns="http://www.w3.org/2000/svg" xmlns:xlink="http://www.w3.org/1999/xlink">
<g id="graph0" class="graph" transform="scale(1 1) rotate(0) translate(4 24)">
<title>StringCharAtGeneric</title>
<polygon fill="white" stroke="none" points="-4,4 -4,-24 498,-24 498,4 -4,4"/>
<!-- Node616 -->
<g id="node1" class="node"><title>Node616</title>
<polygon fill="#bfbfbf" stroke="black" points="0,-0.5 0,-19.5 106,-19.5 106,-0.5 0,-0.5"/>
<text text-anchor="middle" x="53" y="-7.5" font-family="Helvetica,sans-Serif" font-size="10.00">StringCharAtGeneric</text>
</g>
<!-- Node617 -->
<g id="node2" class="node"><title>Node617</title>
<g id="a_node2"><a xlink:href="../../df/d8c/scriptstdstring_8cpp.html#a62c6497c981bdc5911e1167e4252cfdb" target="_top" xlink:title="RegisterStdString_Generic">
<polygon fill="white" stroke="black" points="142,-0.5 142,-19.5 274,-19.5 274,-0.5 142,-0.5"/>
<text text-anchor="middle" x="208" y="-7.5" font-family="Helvetica,sans-Serif" font-size="10.00">RegisterStdString_Generic</text>
</a>
</g>
</g>
<!-- Node616&#45;&gt;Node617 -->
<g id="edge1" class="edge"><title>Node616&#45;&gt;Node617</title>
<path fill="none" stroke="midnightblue" d="M116.309,-10C124.694,-10 133.316,-10 141.75,-10"/>
<polygon fill="midnightblue" stroke="midnightblue" points="116.226,-6.5001 106.226,-10 116.226,-13.5001 116.226,-6.5001"/>
</g>
<!-- Node618 -->
<g id="node3" class="node"><title>Node618</title>
<g id="a_node3"><a xlink:href="../../d0/d74/scriptstdstring_8h.html#a287e4fc1f4c8621cfd2f1793f9e70f39" target="_top" xlink:title="RegisterStdString">
<polygon fill="white" stroke="black" points="310,-0.5 310,-19.5 403,-19.5 403,-0.5 310,-0.5"/>
<text text-anchor="middle" x="356.5" y="-7.5" font-family="Helvetica,sans-Serif" font-size="10.00">RegisterStdString</text>
</a>
</g>
</g>
<!-- Node617&#45;&gt;Node618 -->
<g id="edge2" class="edge"><title>Node617&#45;&gt;Node618</title>
<path fill="none" stroke="midnightblue" d="M284.339,-10C293.062,-10 301.746,-10 309.895,-10"/>
<polygon fill="midnightblue" stroke="midnightblue" points="284.11,-6.5001 274.11,-10 284.11,-13.5001 284.11,-6.5001"/>
</g>
<!-- Node619 -->
<g id="node4" class="node"><title>Node619</title>
<g id="a_node4"><a xlink:href="../../d4/d5f/_script_engine_8cpp.html#a72e7735b6ca109323b2aa797f7b7b45d" target="_top" xlink:title="logString">
<polygon fill="white" stroke="black" points="439,-0.5 439,-19.5 494,-19.5 494,-0.5 439,-0.5"/>
<text text-anchor="middle" x="466.5" y="-7.5" font-family="Helvetica,sans-Serif" font-size="10.00">logString</text>
</a>
</g>
</g>
<!-- Node618&#45;&gt;Node619 -->
<g id="edge3" class="edge"><title>Node618&#45;&gt;Node619</title>
<path fill="none" stroke="midnightblue" d="M413.566,-10C422.328,-10 431.018,-10 438.71,-10"/>
<polygon fill="midnightblue" stroke="midnightblue" points="413.302,-6.5001 403.302,-10 413.302,-13.5001 413.302,-6.5001"/>
</g>
</g>
</svg>
