<?xml version="1.0" encoding="UTF-8" standalone="no"?>
<!DOCTYPE svg PUBLIC "-//W3C//DTD SVG 1.1//EN"
 "http://www.w3.org/Graphics/SVG/1.1/DTD/svg11.dtd">
<!-- Generated by graphviz version 2.38.0 (20140413.2041)
 -->
<!-- Title: RegisterScriptDictionary_Native Pages: 1 -->
<!--zoomable 361 -->
<svg id="main" version="1.1" xmlns="http://www.w3.org/2000/svg" xmlns:xlink="http://www.w3.org/1999/xlink" xml:space="preserve" onload="init(evt)">
<style type="text/css"><![CDATA[
.edge:hover path { stroke: red; }
.edge:hover polygon { stroke: red; fill: red; }
]]></style>
<script type="text/javascript"><![CDATA[
var edges = document.getElementsByTagName('g');
if (edges && edges.length) {
  for (var i=0;i<edges.length;i++) {
    if (edges[i].id.substr(0,4)=='edge') {
      edges[i].setAttribute('class','edge');
    }
  }
}
]]></script>
        <defs>
                <circle id="rim" cx="0" cy="0" r="7"/>
                <circle id="rim2" cx="0" cy="0" r="3.5"/>
                <g id="zoomPlus">
                        <use xlink:href="#rim" fill="#404040">
                                <set attributeName="fill" to="#808080" begin="zoomplus.mouseover" end="zoomplus.mouseout"/>
                        </use>
                        <path d="M-4,0h8M0,-4v8" fill="none" stroke="white" stroke-width="1.5" pointer-events="none"/>
                </g>
                <g id="zoomMin">
                        <use xlink:href="#rim" fill="#404040">
                                <set attributeName="fill" to="#808080" begin="zoomminus.mouseover" end="zoomminus.mouseout"/>
                        </use>
                        <path d="M-4,0h8" fill="none" stroke="white" stroke-width="1.5" pointer-events="none"/>
                </g>
                <g id="dirArrow">
                        <path fill="none" stroke="white" stroke-width="1.5" d="M0,-3.0v7 M-2.5,-0.5L0,-3.0L2.5,-0.5"/>
                </g>
               <g id="resetDef">
                       <use xlink:href="#rim2" fill="#404040">
                               <set attributeName="fill" to="#808080" begin="reset.mouseover" end="reset.mouseout"/>
                       </use>
               </g>
        </defs>

<script type="text/javascript">
var viewWidth = 650;
var viewHeight = 361;
var sectionId = 'dynsection-6';
</script>
<script xlink:href="../../svgpan.js"/>
<svg id="graph" class="graph">
<g id="viewport">
<title>RegisterScriptDictionary_Native</title>
<polygon fill="white" stroke="none" points="-4,4 -4,-357 646,-357 646,4 -4,4"/>
<!-- Node132 -->
<g id="node1" class="node"><title>Node132</title>
<polygon fill="#bfbfbf" stroke="black" points="0,-170 0,-200 122,-200 122,-170 0,-170"/>
<text text-anchor="start" x="8" y="-188" font-family="Helvetica,sans-Serif" font-size="10.00">RegisterScriptDictionary</text>
<text text-anchor="middle" x="61" y="-177" font-family="Helvetica,sans-Serif" font-size="10.00">_Native</text>
</g>
<!-- Node133 -->
<g id="node2" class="node"><title>Node133</title>
<g id="a_node2"><a xlink:href="../../d0/dc5/scriptdictionary_8cpp.html#a81aae34345ef962efdf2718aa2c40381" target="_top" xlink:title="CScriptDictValue_Construct">
<polygon fill="white" stroke="black" points="168,-327.5 168,-346.5 306,-346.5 306,-327.5 168,-327.5"/>
<text text-anchor="middle" x="237" y="-334.5" font-family="Helvetica,sans-Serif" font-size="10.00">CScriptDictValue_Construct</text>
</a>
</g>
</g>
<!-- Node132&#45;&gt;Node133 -->
<g id="edge1" class="edge"><title>Node132&#45;&gt;Node133</title>
<path fill="none" stroke="midnightblue" d="M68.4944,-200.058C81.3183,-227.926 112.637,-287.478 158,-318 161.072,-320.067 164.346,-321.909 167.747,-323.551"/>
<polygon fill="midnightblue" stroke="midnightblue" points="166.421,-326.791 176.996,-327.448 169.139,-320.34 166.421,-326.791"/>
</g>
<!-- Node134 -->
<g id="node3" class="node"><title>Node134</title>
<g id="a_node3"><a xlink:href="../../d0/dc5/scriptdictionary_8cpp.html#a45ef46c66b7517fdba2c61f683c51326" target="_top" xlink:title="CScriptDictValue_Destruct">
<polygon fill="white" stroke="black" points="170.5,-289.5 170.5,-308.5 303.5,-308.5 303.5,-289.5 170.5,-289.5"/>
<text text-anchor="middle" x="237" y="-296.5" font-family="Helvetica,sans-Serif" font-size="10.00">CScriptDictValue_Destruct</text>
</a>
</g>
</g>
<!-- Node132&#45;&gt;Node134 -->
<g id="edge2" class="edge"><title>Node132&#45;&gt;Node134</title>
<path fill="none" stroke="midnightblue" d="M72.8863,-200.057C89.0239,-221.238 121.36,-259.527 158,-280 162.009,-282.24 166.279,-284.219 170.676,-285.965"/>
<polygon fill="midnightblue" stroke="midnightblue" points="169.856,-289.388 180.451,-289.431 172.195,-282.791 169.856,-289.388"/>
</g>
<!-- Node137 -->
<g id="node6" class="node"><title>Node137</title>
<g id="a_node6"><a xlink:href="../../d0/dc5/scriptdictionary_8cpp.html#a90584122e96a1423e7d61890a18c5c3b" target="_top" xlink:title="CScriptDictValue_opAssign">
<polygon fill="white" stroke="black" points="168.5,-251.5 168.5,-270.5 305.5,-270.5 305.5,-251.5 168.5,-251.5"/>
<text text-anchor="middle" x="237" y="-258.5" font-family="Helvetica,sans-Serif" font-size="10.00">CScriptDictValue_opAssign</text>
</a>
</g>
</g>
<!-- Node132&#45;&gt;Node137 -->
<g id="edge5" class="edge"><title>Node132&#45;&gt;Node137</title>
<path fill="none" stroke="midnightblue" d="M86.5955,-200.084C105.604,-211.302 132.833,-226.435 158,-237 168.202,-241.283 179.438,-245.186 190.128,-248.543"/>
<polygon fill="midnightblue" stroke="midnightblue" points="189.161,-251.907 199.747,-251.467 191.197,-245.209 189.161,-251.907"/>
</g>
<!-- Node139 -->
<g id="node8" class="node"><title>Node139</title>
<g id="a_node8"><a xlink:href="../../d0/dc5/scriptdictionary_8cpp.html#a8ee0587817c32daec77c68547a362eed" target="_top" xlink:title="CScriptDictValue_opCast">
<polygon fill="white" stroke="black" points="359,-175.5 359,-194.5 486,-194.5 486,-175.5 359,-175.5"/>
<text text-anchor="middle" x="422.5" y="-182.5" font-family="Helvetica,sans-Serif" font-size="10.00">CScriptDictValue_opCast</text>
</a>
</g>
</g>
<!-- Node132&#45;&gt;Node139 -->
<g id="edge7" class="edge"><title>Node132&#45;&gt;Node139</title>
<path fill="none" stroke="midnightblue" d="M122.161,-198.773C133.981,-200.949 146.333,-202.857 158,-204 227.887,-210.85 246.056,-210.248 316,-204 333.193,-202.464 351.776,-199.547 368.485,-196.451"/>
<polygon fill="midnightblue" stroke="midnightblue" points="369.454,-199.83 378.618,-194.512 368.138,-192.954 369.454,-199.83"/>
</g>
<!-- Node141 -->
<g id="node10" class="node"><title>Node141</title>
<g id="a_node10"><a xlink:href="../../d0/dc5/scriptdictionary_8cpp.html#a3910fccc4dc26fca723645de69e3e0f9" target="_top" xlink:title="CScriptDictValue_opConvInt">
<polygon fill="white" stroke="black" points="168,-175.5 168,-194.5 306,-194.5 306,-175.5 168,-175.5"/>
<text text-anchor="middle" x="237" y="-182.5" font-family="Helvetica,sans-Serif" font-size="10.00">CScriptDictValue_opConvInt</text>
</a>
</g>
</g>
<!-- Node132&#45;&gt;Node141 -->
<g id="edge9" class="edge"><title>Node132&#45;&gt;Node141</title>
<path fill="none" stroke="midnightblue" d="M122.368,-185C133.756,-185 145.817,-185 157.662,-185"/>
<polygon fill="midnightblue" stroke="midnightblue" points="157.993,-188.5 167.993,-185 157.993,-181.5 157.993,-188.5"/>
</g>
<!-- Node142 -->
<g id="node11" class="node"><title>Node142</title>
<g id="a_node11"><a xlink:href="../../d0/dc5/scriptdictionary_8cpp.html#aab890491cac45d4e0a8c82b701f8b36f" target="_top" xlink:title="CScriptDictValue_opConvDouble">
<polygon fill="white" stroke="black" points="158,-137.5 158,-156.5 316,-156.5 316,-137.5 158,-137.5"/>
<text text-anchor="middle" x="237" y="-144.5" font-family="Helvetica,sans-Serif" font-size="10.00">CScriptDictValue_opConvDouble</text>
</a>
</g>
</g>
<!-- Node132&#45;&gt;Node142 -->
<g id="edge11" class="edge"><title>Node132&#45;&gt;Node142</title>
<path fill="none" stroke="midnightblue" d="M122.368,-171.816C141.921,-167.546 163.459,-162.842 182.479,-158.689"/>
<polygon fill="midnightblue" stroke="midnightblue" points="183.44,-162.061 192.463,-156.508 181.947,-155.222 183.44,-162.061"/>
</g>
<!-- Node143 -->
<g id="node12" class="node"><title>Node143</title>
<g id="a_node12"><a xlink:href="../../d0/dc5/scriptdictionary_8cpp.html#a1c9811cdaf34449862b9ef270ca343e6" target="_top" xlink:title="ScriptDictionaryFactory\l_Generic">
<polygon fill="white" stroke="black" points="177.5,-88 177.5,-118 296.5,-118 296.5,-88 177.5,-88"/>
<text text-anchor="start" x="185.5" y="-106" font-family="Helvetica,sans-Serif" font-size="10.00">ScriptDictionaryFactory</text>
<text text-anchor="middle" x="237" y="-95" font-family="Helvetica,sans-Serif" font-size="10.00">_Generic</text>
</a>
</g>
</g>
<!-- Node132&#45;&gt;Node143 -->
<g id="edge13" class="edge"><title>Node132&#45;&gt;Node143</title>
<path fill="none" stroke="midnightblue" d="M84.1105,-169.914C103.086,-157.453 131.488,-139.935 158,-128 163.025,-125.738 168.315,-123.588 173.676,-121.568"/>
<polygon fill="midnightblue" stroke="midnightblue" points="175.14,-124.761 183.36,-118.076 172.766,-118.176 175.14,-124.761"/>
</g>
<!-- Node145 -->
<g id="node14" class="node"><title>Node145</title>
<g id="a_node14"><a xlink:href="../../d0/dc5/scriptdictionary_8cpp.html#a2fee48e56c541a4c9daaaa9df568fee1" target="_top" xlink:title="ScriptDictionaryListFactory\l_Generic">
<polygon fill="white" stroke="black" points="170,-39 170,-69 304,-69 304,-39 170,-39"/>
<text text-anchor="start" x="178" y="-57" font-family="Helvetica,sans-Serif" font-size="10.00">ScriptDictionaryListFactory</text>
<text text-anchor="middle" x="237" y="-46" font-family="Helvetica,sans-Serif" font-size="10.00">_Generic</text>
</a>
</g>
</g>
<!-- Node132&#45;&gt;Node145 -->
<g id="edge15" class="edge"><title>Node132&#45;&gt;Node145</title>
<path fill="none" stroke="midnightblue" d="M71.5808,-169.863C87.001,-146.711 119.525,-102.608 158,-78 160.602,-76.3361 163.326,-74.7815 166.132,-73.3297"/>
<polygon fill="midnightblue" stroke="midnightblue" points="167.75,-76.4374 175.329,-69.0349 164.788,-70.0949 167.75,-76.4374"/>
</g>
<!-- Node146 -->
<g id="node15" class="node"><title>Node146</title>
<g id="a_node15"><a xlink:href="../../dd/d49/struct_s_dictionary_cache.html#aed0745fb0d5721fbc369398db76cf759" target="_top" xlink:title="SDictionaryCache::Setup">
<polygon fill="white" stroke="black" points="174,-0.5 174,-19.5 300,-19.5 300,-0.5 174,-0.5"/>
<text text-anchor="middle" x="237" y="-7.5" font-family="Helvetica,sans-Serif" font-size="10.00">SDictionaryCache::Setup</text>
</a>
</g>
</g>
<!-- Node132&#45;&gt;Node146 -->
<g id="edge17" class="edge"><title>Node132&#45;&gt;Node146</title>
<path fill="none" stroke="midnightblue" d="M66.875,-169.835C77.8015,-138.37 107.344,-65.8597 158,-29 160.648,-27.0729 163.468,-25.3395 166.405,-23.7805"/>
<polygon fill="midnightblue" stroke="midnightblue" points="167.88,-26.9545 175.513,-19.6072 164.964,-20.5906 167.88,-26.9545"/>
</g>
<!-- Node135 -->
<g id="node4" class="node"><title>Node135</title>
<g id="a_node4"><a xlink:href="../../d7/d4b/class_c_script_dict_value.html#aa0097577af2cd01456fc183d4d20119e" target="_top" xlink:title="CScriptDictValue::FreeValue">
<polygon fill="white" stroke="black" points="352,-333.5 352,-352.5 493,-352.5 493,-333.5 352,-333.5"/>
<text text-anchor="middle" x="422.5" y="-340.5" font-family="Helvetica,sans-Serif" font-size="10.00">CScriptDictValue::FreeValue</text>
</a>
</g>
</g>
<!-- Node134&#45;&gt;Node135 -->
<g id="edge3" class="edge"><title>Node134&#45;&gt;Node135</title>
<path fill="none" stroke="midnightblue" d="M277.817,-308.547C305.35,-315.149 342.186,-323.982 371.667,-331.051"/>
<polygon fill="midnightblue" stroke="midnightblue" points="371.22,-334.543 381.761,-333.471 372.853,-327.736 371.22,-334.543"/>
</g>
<!-- Node136 -->
<g id="node5" class="node"><title>Node136</title>
<g id="a_node5"><a xlink:href="../../d7/d4b/class_c_script_dict_value.html#a60ad93d89e502577a1d941f528ea3d47" target="_top" xlink:title="CScriptDictValue::\l~CScriptDictValue">
<polygon fill="white" stroke="black" points="374,-284 374,-314 471,-314 471,-284 374,-284"/>
<text text-anchor="start" x="382" y="-302" font-family="Helvetica,sans-Serif" font-size="10.00">CScriptDictValue::</text>
<text text-anchor="middle" x="422.5" y="-291" font-family="Helvetica,sans-Serif" font-size="10.00">~CScriptDictValue</text>
</a>
</g>
</g>
<!-- Node134&#45;&gt;Node136 -->
<g id="edge4" class="edge"><title>Node134&#45;&gt;Node136</title>
<path fill="none" stroke="midnightblue" d="M303.729,-299C323.343,-299 344.686,-299 363.749,-299"/>
<polygon fill="midnightblue" stroke="midnightblue" points="363.782,-302.5 373.782,-299 363.782,-295.5 363.782,-302.5"/>
</g>
<!-- Node138 -->
<g id="node7" class="node"><title>Node138</title>
<g id="a_node7"><a xlink:href="../../d7/d4b/class_c_script_dict_value.html#ae04fbec1567208c893e8dbb8741300fe" target="_top" xlink:title="CScriptDictValue::Set">
<polygon fill="white" stroke="black" points="366.5,-245.5 366.5,-264.5 478.5,-264.5 478.5,-245.5 366.5,-245.5"/>
<text text-anchor="middle" x="422.5" y="-252.5" font-family="Helvetica,sans-Serif" font-size="10.00">CScriptDictValue::Set</text>
</a>
</g>
</g>
<!-- Node137&#45;&gt;Node138 -->
<g id="edge6" class="edge"><title>Node137&#45;&gt;Node138</title>
<path fill="none" stroke="midnightblue" d="M305.547,-258.791C322.134,-258.249 339.857,-257.67 356.33,-257.131"/>
<polygon fill="midnightblue" stroke="midnightblue" points="356.523,-260.627 366.403,-256.802 356.294,-253.63 356.523,-260.627"/>
</g>
<!-- Node140 -->
<g id="node9" class="node"><title>Node140</title>
<g id="a_node9"><a xlink:href="../../d7/d4b/class_c_script_dict_value.html#a870bba9dfa8e30fc2ac6b2082570d99a" target="_top" xlink:title="CScriptDictValue::Get">
<polygon fill="white" stroke="black" points="529,-175.5 529,-194.5 642,-194.5 642,-175.5 529,-175.5"/>
<text text-anchor="middle" x="585.5" y="-182.5" font-family="Helvetica,sans-Serif" font-size="10.00">CScriptDictValue::Get</text>
</a>
</g>
</g>
<!-- Node139&#45;&gt;Node140 -->
<g id="edge8" class="edge"><title>Node139&#45;&gt;Node140</title>
<path fill="none" stroke="midnightblue" d="M486.208,-185C496.846,-185 507.922,-185 518.638,-185"/>
<polygon fill="midnightblue" stroke="midnightblue" points="518.778,-188.5 528.778,-185 518.778,-181.5 518.778,-188.5"/>
</g>
<!-- Node141&#45;&gt;Node139 -->
<g id="edge10" class="edge"><title>Node141&#45;&gt;Node139</title>
<path fill="none" stroke="midnightblue" d="M306.068,-185C319.939,-185 334.584,-185 348.615,-185"/>
<polygon fill="midnightblue" stroke="midnightblue" points="348.703,-188.5 358.703,-185 348.703,-181.5 348.703,-188.5"/>
</g>
<!-- Node142&#45;&gt;Node139 -->
<g id="edge12" class="edge"><title>Node142&#45;&gt;Node139</title>
<path fill="none" stroke="midnightblue" d="M284.305,-156.589C308.956,-161.694 339.463,-168.011 365.445,-173.392"/>
<polygon fill="midnightblue" stroke="midnightblue" points="365.026,-176.879 375.528,-175.48 366.446,-170.025 365.026,-176.879"/>
</g>
<!-- Node144 -->
<g id="node13" class="node"><title>Node144</title>
<g id="a_node13"><a xlink:href="../../dc/d3b/class_c_script_dictionary.html#a187a2ddc0cfccf43a3cbfaee3063ace5" target="_top" xlink:title="CScriptDictionary::\lCreate">
<polygon fill="white" stroke="black" points="373.5,-63 373.5,-93 471.5,-93 471.5,-63 373.5,-63"/>
<text text-anchor="start" x="381.5" y="-81" font-family="Helvetica,sans-Serif" font-size="10.00">CScriptDictionary::</text>
<text text-anchor="middle" x="422.5" y="-70" font-family="Helvetica,sans-Serif" font-size="10.00">Create</text>
</a>
</g>
</g>
<!-- Node143&#45;&gt;Node144 -->
<g id="edge14" class="edge"><title>Node143&#45;&gt;Node144</title>
<path fill="none" stroke="midnightblue" d="M296.565,-95.0211C317.838,-92.1229 341.861,-88.85 363.118,-85.954"/>
<polygon fill="midnightblue" stroke="midnightblue" points="363.87,-89.3839 373.306,-84.5659 362.925,-82.448 363.87,-89.3839"/>
</g>
<!-- Node145&#45;&gt;Node144 -->
<g id="edge16" class="edge"><title>Node145&#45;&gt;Node144</title>
<path fill="none" stroke="midnightblue" d="M304.248,-62.6646C323.653,-65.2026 344.712,-67.9568 363.558,-70.4217"/>
<polygon fill="midnightblue" stroke="midnightblue" points="363.113,-73.8933 373.482,-71.7198 364.021,-66.9524 363.113,-73.8933"/>
</g>
<!-- Node147 -->
<g id="node16" class="node"><title>Node147</title>
<g id="a_node16"><a xlink:href="../../dd/d49/struct_s_dictionary_cache.html#aa7d5e6712a4553d5eb45ede6695633e1" target="_top" xlink:title="SDictionaryCache::Cleanup">
<polygon fill="white" stroke="black" points="354.5,-0.5 354.5,-19.5 490.5,-19.5 490.5,-0.5 354.5,-0.5"/>
<text text-anchor="middle" x="422.5" y="-7.5" font-family="Helvetica,sans-Serif" font-size="10.00">SDictionaryCache::Cleanup</text>
</a>
</g>
</g>
<!-- Node146&#45;&gt;Node147 -->
<g id="edge18" class="edge"><title>Node146&#45;&gt;Node147</title>
<path fill="none" stroke="midnightblue" d="M300.125,-10C314.317,-10 329.569,-10 344.307,-10"/>
<polygon fill="midnightblue" stroke="midnightblue" points="344.408,-13.5001 354.408,-10 344.408,-6.5001 344.408,-13.5001"/>
</g>
</g>
</svg>
        <g id="navigator" transform="translate(0 0)" fill="#404254">
                <rect fill="#f2f5e9" fill-opacity="0.5" stroke="#606060" stroke-width=".5" x="0" y="0" width="60" height="60"/>
                <use id="zoomplus" xlink:href="#zoomPlus" x="17" y="9" onmousedown="handleZoom(evt,'in')"/>
                <use id="zoomminus" xlink:href="#zoomMin" x="42" y="9" onmousedown="handleZoom(evt,'out')"/>
                <use id="reset" xlink:href="#resetDef" x="30" y="36" onmousedown="handleReset()"/>
                <g id="arrowUp" xlink:href="#dirArrow" transform="translate(30 24)" onmousedown="handlePan(0,-1)">
                  <use xlink:href="#rim" fill="#404040">
                        <set attributeName="fill" to="#808080" begin="arrowUp.mouseover" end="arrowUp.mouseout"/>
                  </use>
                  <path fill="none" stroke="white" stroke-width="1.5" d="M0,-3.0v7 M-2.5,-0.5L0,-3.0L2.5,-0.5"/>
                </g>
                <g id="arrowRight" xlink:href="#dirArrow" transform="rotate(90) translate(36 -43)" onmousedown="handlePan(1,0)">
                  <use xlink:href="#rim" fill="#404040">
                        <set attributeName="fill" to="#808080" begin="arrowRight.mouseover" end="arrowRight.mouseout"/>
                  </use>
                  <path fill="none" stroke="white" stroke-width="1.5" d="M0,-3.0v7 M-2.5,-0.5L0,-3.0L2.5,-0.5"/>
                </g>
                <g id="arrowDown" xlink:href="#dirArrow" transform="rotate(180) translate(-30 -48)" onmousedown="handlePan(0,1)">
                  <use xlink:href="#rim" fill="#404040">
                        <set attributeName="fill" to="#808080" begin="arrowDown.mouseover" end="arrowDown.mouseout"/>
                  </use>
                  <path fill="none" stroke="white" stroke-width="1.5" d="M0,-3.0v7 M-2.5,-0.5L0,-3.0L2.5,-0.5"/>
                </g>
                <g id="arrowLeft" xlink:href="#dirArrow" transform="rotate(270) translate(-36 17)" onmousedown="handlePan(-1,0)">
                  <use xlink:href="#rim" fill="#404040">
                        <set attributeName="fill" to="#808080" begin="arrowLeft.mouseover" end="arrowLeft.mouseout"/>
                  </use>
                  <path fill="none" stroke="white" stroke-width="1.5" d="M0,-3.0v7 M-2.5,-0.5L0,-3.0L2.5,-0.5"/>
                </g>
        </g>
        <svg viewBox="0 0 15 15" width="100%" height="30px" preserveAspectRatio="xMaxYMin meet">
         <g id="arrow_out" transform="scale(0.3 0.3)">
          <a xlink:href="scriptdictionary_8h_a7c41a379d66a350e692e11acfea995cb_cgraph_org.svg" target="_base">
           <rect id="button" ry="5" rx="5" y="6" x="6" height="38" width="38"
                fill="#f2f5e9" fill-opacity="0.5" stroke="#606060" stroke-width="1.0"/>
           <path id="arrow"
             d="M 11.500037,31.436501 C 11.940474,20.09759 22.043105,11.32322 32.158766,21.979434 L 37.068811,17.246167 C 37.068811,17.246167 37.088388,32 37.088388,32 L 22.160133,31.978069 C 22.160133,31.978069 26.997745,27.140456 26.997745,27.140456 C 18.528582,18.264221 13.291696,25.230495 11.500037,31.436501 z"
             style="fill:#404040;"/>
          </a>
         </g>
        </svg>
</svg>
