<?xml version="1.0" encoding="UTF-8" standalone="no"?>
<!DOCTYPE svg PUBLIC "-//W3C//DTD SVG 1.1//EN"
 "http://www.w3.org/Graphics/SVG/1.1/DTD/svg11.dtd">
<!-- Generated by graphviz version 2.38.0 (20140413.2041)
 -->
<!-- Title: ImGui::CalcItemRectClosestPoint Pages: 1 -->
<svg width="481pt" height="39pt"
 viewBox="0.00 0.00 481.00 39.00" xmlns="http://www.w3.org/2000/svg" xmlns:xlink="http://www.w3.org/1999/xlink">
<g id="graph0" class="graph" transform="scale(1 1) rotate(0) translate(4 35)">
<title>ImGui::CalcItemRectClosestPoint</title>
<polygon fill="white" stroke="none" points="-4,4 -4,-35 477,-35 477,4 -4,4"/>
<!-- Node6417 -->
<g id="node1" class="node"><title>Node6417</title>
<polygon fill="#bfbfbf" stroke="black" points="0,-0.5 0,-30.5 140,-30.5 140,-0.5 0,-0.5"/>
<text text-anchor="start" x="8" y="-18.5" font-family="Helvetica,sans-Serif" font-size="10.00">ImGui::CalcItemRectClosest</text>
<text text-anchor="middle" x="70" y="-7.5" font-family="Helvetica,sans-Serif" font-size="10.00">Point</text>
</g>
<!-- Node6418 -->
<g id="node2" class="node"><title>Node6418</title>
<g id="a_node2"><a xlink:href="../../df/d13/namespace_im_gui.html#a52880ae1ecdd704a083558d31c9bfa50" target="_top" xlink:title="ImGui::ShowTestWindow">
<polygon fill="white" stroke="black" points="176,-6 176,-25 301,-25 301,-6 176,-6"/>
<text text-anchor="middle" x="238.5" y="-13" font-family="Helvetica,sans-Serif" font-size="10.00">ImGui::ShowTestWindow</text>
</a>
</g>
</g>
<!-- Node6417&#45;&gt;Node6418 -->
<g id="edge1" class="edge"><title>Node6417&#45;&gt;Node6418</title>
<path fill="none" stroke="midnightblue" d="M150.262,-15.5C158.905,-15.5 167.606,-15.5 175.99,-15.5"/>
<polygon fill="midnightblue" stroke="midnightblue" points="150.165,-12.0001 140.165,-15.5 150.164,-19.0001 150.165,-12.0001"/>
</g>
<!-- Node6419 -->
<g id="node3" class="node"><title>Node6419</title>
<g id="a_node3"><a xlink:href="../../d5/d0a/imgui__demo_8cpp.html#a4dadf5e7b393795666d19af9694037cf" target="_top" xlink:title="ShowExampleAppLongText">
<polygon fill="white" stroke="black" points="337,-6 337,-25 473,-25 473,-6 337,-6"/>
<text text-anchor="middle" x="405" y="-13" font-family="Helvetica,sans-Serif" font-size="10.00">ShowExampleAppLongText</text>
</a>
</g>
</g>
<!-- Node6418&#45;&gt;Node6419 -->
<g id="edge2" class="edge"><title>Node6418&#45;&gt;Node6419</title>
<path fill="none" stroke="midnightblue" d="M311.464,-8.79714C319.942,-8.71907 328.567,-8.73797 336.973,-8.85383"/>
<polygon fill="midnightblue" stroke="midnightblue" points="311.172,-5.30079 301.222,-8.94044 311.27,-12.3001 311.172,-5.30079"/>
</g>
<!-- Node6419&#45;&gt;Node6418 -->
<g id="edge3" class="edge"><title>Node6419&#45;&gt;Node6418</title>
<path fill="none" stroke="midnightblue" d="M326.916,-22.2381C318.301,-22.2777 309.609,-22.2182 301.222,-22.0596"/>
<polygon fill="midnightblue" stroke="midnightblue" points="327.005,-25.7376 336.973,-22.1462 326.941,-18.7379 327.005,-25.7376"/>
</g>
</g>
</svg>
