<?xml version="1.0" encoding="UTF-8" standalone="no"?>
<!DOCTYPE svg PUBLIC "-//W3C//DTD SVG 1.1//EN"
 "http://www.w3.org/Graphics/SVG/1.1/DTD/svg11.dtd">
<!-- Generated by graphviz version 2.38.0 (20140413.2041)
 -->
<!-- Title: ImGui::SetNextWindowSize Pages: 1 -->
<svg width="1079pt" height="522pt"
 viewBox="0.00 0.00 1079.00 522.00" xmlns="http://www.w3.org/2000/svg" xmlns:xlink="http://www.w3.org/1999/xlink">
<g id="graph0" class="graph" transform="scale(1 1) rotate(0) translate(4 518)">
<title>ImGui::SetNextWindowSize</title>
<polygon fill="white" stroke="none" points="-4,4 -4,-518 1075,-518 1075,4 -4,4"/>
<!-- Node57137 -->
<g id="node1" class="node"><title>Node57137</title>
<polygon fill="#bfbfbf" stroke="black" points="0,-221 0,-240 137,-240 137,-221 0,-221"/>
<text text-anchor="middle" x="68.5" y="-228" font-family="Helvetica,sans-Serif" font-size="10.00">ImGui::SetNextWindowSize</text>
</g>
<!-- Node57138 -->
<g id="node2" class="node"><title>Node57138</title>
<g id="a_node2"><a xlink:href="../../df/d13/namespace_im_gui.html#ab3f1fc018f903b7ad79fd10663375774" target="_top" xlink:title="ImGui::NewFrame">
<polygon fill="white" stroke="black" points="199,-443 199,-462 294,-462 294,-443 199,-443"/>
<text text-anchor="middle" x="246.5" y="-450" font-family="Helvetica,sans-Serif" font-size="10.00">ImGui::NewFrame</text>
</a>
</g>
</g>
<!-- Node57137&#45;&gt;Node57138 -->
<g id="edge1" class="edge"><title>Node57137&#45;&gt;Node57138</title>
<path fill="none" stroke="midnightblue" d="M73.9389,-250.227C84.0994,-290.742 112.943,-383.612 173,-432.5 180.392,-438.517 189.464,-442.729 198.656,-445.676"/>
<polygon fill="midnightblue" stroke="midnightblue" points="77.2874,-249.181 71.5581,-240.269 70.4792,-250.808 77.2874,-249.181"/>
</g>
<!-- Node57146 -->
<g id="node10" class="node"><title>Node57146</title>
<g id="a_node10"><a xlink:href="../../df/d13/namespace_im_gui.html#ae80520312b19a7039b77d2bafcbda8e5" target="_top" xlink:title="ImGui::Combo">
<polygon fill="white" stroke="black" points="207,-354 207,-373 286,-373 286,-354 207,-354"/>
<text text-anchor="middle" x="246.5" y="-361" font-family="Helvetica,sans-Serif" font-size="10.00">ImGui::Combo</text>
</a>
</g>
</g>
<!-- Node57137&#45;&gt;Node57146 -->
<g id="edge9" class="edge"><title>Node57137&#45;&gt;Node57146</title>
<path fill="none" stroke="midnightblue" d="M82.0066,-248.384C99.6649,-272.38 134.121,-314.827 173,-339.5 183.187,-345.965 195.293,-350.866 206.666,-354.499"/>
<polygon fill="midnightblue" stroke="midnightblue" points="84.772,-246.235 76.0872,-240.167 79.0921,-250.326 84.772,-246.235"/>
</g>
<!-- Node57147 -->
<g id="node11" class="node"><title>Node57147</title>
<g id="a_node11"><a xlink:href="../../df/d13/namespace_im_gui.html#a55cb9cfb9865204ac6fb21c965784f78" target="_top" xlink:title="ImGui::BeginMainMenuBar">
<polygon fill="white" stroke="black" points="180,-240 180,-259 313,-259 313,-240 180,-240"/>
<text text-anchor="middle" x="246.5" y="-247" font-family="Helvetica,sans-Serif" font-size="10.00">ImGui::BeginMainMenuBar</text>
</a>
</g>
</g>
<!-- Node57137&#45;&gt;Node57147 -->
<g id="edge10" class="edge"><title>Node57137&#45;&gt;Node57147</title>
<path fill="none" stroke="midnightblue" d="M147.028,-238.869C157.989,-240.053 169.17,-241.26 179.878,-242.416"/>
<polygon fill="midnightblue" stroke="midnightblue" points="147.361,-235.385 137.043,-237.792 146.609,-242.345 147.361,-235.385"/>
</g>
<!-- Node57149 -->
<g id="node13" class="node"><title>Node57149</title>
<g id="a_node13"><a xlink:href="../../df/d13/namespace_im_gui.html#a52880ae1ecdd704a083558d31c9bfa50" target="_top" xlink:title="ImGui::ShowTestWindow">
<polygon fill="white" stroke="black" points="575.5,-183 575.5,-202 700.5,-202 700.5,-183 575.5,-183"/>
<text text-anchor="middle" x="638" y="-190" font-family="Helvetica,sans-Serif" font-size="10.00">ImGui::ShowTestWindow</text>
</a>
</g>
</g>
<!-- Node57137&#45;&gt;Node57149 -->
<g id="edge15" class="edge"><title>Node57137&#45;&gt;Node57149</title>
<path fill="none" stroke="midnightblue" d="M98.4623,-244.262C118.802,-253.14 146.925,-263.865 173,-268.5 328.78,-296.193 378.157,-316.255 529,-268.5 570.749,-255.283 610.319,-219.482 627.722,-202.154"/>
<polygon fill="midnightblue" stroke="midnightblue" points="99.7023,-240.982 89.1454,-240.087 96.8397,-247.37 99.7023,-240.982"/>
</g>
<!-- Node57150 -->
<g id="node14" class="node"><title>Node57150</title>
<g id="a_node14"><a xlink:href="../../d5/d0a/imgui__demo_8cpp.html#a4dadf5e7b393795666d19af9694037cf" target="_top" xlink:title="ShowExampleAppLongText">
<polygon fill="white" stroke="black" points="758.5,-183 758.5,-202 894.5,-202 894.5,-183 758.5,-183"/>
<text text-anchor="middle" x="826.5" y="-190" font-family="Helvetica,sans-Serif" font-size="10.00">ShowExampleAppLongText</text>
</a>
</g>
</g>
<!-- Node57137&#45;&gt;Node57150 -->
<g id="edge28" class="edge"><title>Node57137&#45;&gt;Node57150</title>
<path fill="none" stroke="midnightblue" d="M88.1293,-246.439C107.757,-262.109 140.302,-285.014 173,-294.5 324.959,-338.586 373.021,-323.062 529,-296.5 637.359,-278.047 758.831,-224.211 805.641,-202.125"/>
<polygon fill="midnightblue" stroke="midnightblue" points="90.258,-243.659 80.3057,-240.025 85.8198,-249.072 90.258,-243.659"/>
</g>
<!-- Node57151 -->
<g id="node15" class="node"><title>Node57151</title>
<g id="a_node15"><a xlink:href="../../d5/d0a/imgui__demo_8cpp.html#a0729207a285af6ef57ce5a31d1a60348" target="_top" xlink:title="ShowExampleAppCustomRendering">
<polygon fill="white" stroke="black" points="356,-202 356,-221 529,-221 529,-202 356,-202"/>
<text text-anchor="middle" x="442.5" y="-209" font-family="Helvetica,sans-Serif" font-size="10.00">ShowExampleAppCustomRendering</text>
</a>
</g>
</g>
<!-- Node57137&#45;&gt;Node57151 -->
<g id="edge16" class="edge"><title>Node57137&#45;&gt;Node57151</title>
<path fill="none" stroke="midnightblue" d="M147.626,-226.51C208.553,-223.398 293.08,-219.081 355.847,-215.875"/>
<polygon fill="midnightblue" stroke="midnightblue" points="147.106,-223.032 137.298,-227.037 147.464,-230.022 147.106,-223.032"/>
</g>
<!-- Node57152 -->
<g id="node16" class="node"><title>Node57152</title>
<g id="a_node16"><a xlink:href="../../de/d1c/struct_example_app_console.html#a0518a09c7e8648dd52c7c06df19ac17a" target="_top" xlink:title="ExampleAppConsole::Draw">
<polygon fill="white" stroke="black" points="179,-164 179,-183 314,-183 314,-164 179,-164"/>
<text text-anchor="middle" x="246.5" y="-171" font-family="Helvetica,sans-Serif" font-size="10.00">ExampleAppConsole::Draw</text>
</a>
</g>
</g>
<!-- Node57137&#45;&gt;Node57152 -->
<g id="edge18" class="edge"><title>Node57137&#45;&gt;Node57152</title>
<path fill="none" stroke="midnightblue" d="M108.577,-217.844C141.021,-207.337 186.468,-192.618 215.945,-183.072"/>
<polygon fill="midnightblue" stroke="midnightblue" points="107.394,-214.549 98.9584,-220.959 109.55,-221.208 107.394,-214.549"/>
</g>
<!-- Node57154 -->
<g id="node18" class="node"><title>Node57154</title>
<g id="a_node18"><a xlink:href="../../d1/db8/struct_example_app_log.html#a5ad3a4bdb89171b84aeaff96948a1f77" target="_top" xlink:title="ExampleAppLog::Draw">
<polygon fill="white" stroke="black" points="188.5,-126 188.5,-145 304.5,-145 304.5,-126 188.5,-126"/>
<text text-anchor="middle" x="246.5" y="-133" font-family="Helvetica,sans-Serif" font-size="10.00">ExampleAppLog::Draw</text>
</a>
</g>
</g>
<!-- Node57137&#45;&gt;Node57154 -->
<g id="edge21" class="edge"><title>Node57137&#45;&gt;Node57154</title>
<path fill="none" stroke="midnightblue" d="M87.3415,-214.086C106.955,-196.876 140.073,-170.196 173,-154.5 180.987,-150.693 189.846,-147.567 198.551,-145.03"/>
<polygon fill="midnightblue" stroke="midnightblue" points="84.9273,-211.549 79.8025,-220.822 89.5914,-216.769 84.9273,-211.549"/>
</g>
<!-- Node57156 -->
<g id="node20" class="node"><title>Node57156</title>
<g id="a_node20"><a xlink:href="../../d5/d0a/imgui__demo_8cpp.html#adfe8516f13b623adbf78b024efd5bb6e" target="_top" xlink:title="ShowExampleAppLayout">
<polygon fill="white" stroke="black" points="380,-88 380,-107 505,-107 505,-88 380,-88"/>
<text text-anchor="middle" x="442.5" y="-95" font-family="Helvetica,sans-Serif" font-size="10.00">ShowExampleAppLayout</text>
</a>
</g>
</g>
<!-- Node57137&#45;&gt;Node57156 -->
<g id="edge24" class="edge"><title>Node57137&#45;&gt;Node57156</title>
<path fill="none" stroke="midnightblue" d="M79.7926,-212.233C95.8353,-185.766 129.526,-137.615 173,-116.5 238.26,-84.8034 323.114,-84.5636 379.797,-89.2841"/>
<polygon fill="midnightblue" stroke="midnightblue" points="76.7412,-210.518 74.6952,-220.913 82.7773,-214.062 76.7412,-210.518"/>
</g>
<!-- Node57157 -->
<g id="node21" class="node"><title>Node57157</title>
<g id="a_node21"><a xlink:href="../../d5/d0a/imgui__demo_8cpp.html#a4d8ba8c6a1febc3053bd843c150305da" target="_top" xlink:title="ShowExampleAppPropertyEditor">
<polygon fill="white" stroke="black" points="363.5,-50 363.5,-69 521.5,-69 521.5,-50 363.5,-50"/>
<text text-anchor="middle" x="442.5" y="-57" font-family="Helvetica,sans-Serif" font-size="10.00">ShowExampleAppPropertyEditor</text>
</a>
</g>
</g>
<!-- Node57137&#45;&gt;Node57157 -->
<g id="edge26" class="edge"><title>Node57137&#45;&gt;Node57157</title>
<path fill="none" stroke="midnightblue" d="M76.5941,-211.262C89.8528,-178.373 121.773,-112.034 173,-82.5 233.595,-47.565 314.985,-45.5891 372.218,-49.9913"/>
<polygon fill="midnightblue" stroke="midnightblue" points="73.296,-210.087 72.9443,-220.676 79.8226,-212.617 73.296,-210.087"/>
</g>
<!-- Node57158 -->
<g id="node22" class="node"><title>Node57158</title>
<g id="a_node22"><a xlink:href="../../d8/d2c/class_ro_r_1_1_g_u_i_1_1_game_settings.html#a97a07e0573bf956e386722ef6b776ff3" target="_top" xlink:title="RoR::GUI::GameSettings\l::Draw">
<polygon fill="white" stroke="black" points="183.5,-392.5 183.5,-422.5 309.5,-422.5 309.5,-392.5 183.5,-392.5"/>
<text text-anchor="start" x="191.5" y="-410.5" font-family="Helvetica,sans-Serif" font-size="10.00">RoR::GUI::GameSettings</text>
<text text-anchor="middle" x="246.5" y="-399.5" font-family="Helvetica,sans-Serif" font-size="10.00">::Draw</text>
</a>
</g>
</g>
<!-- Node57137&#45;&gt;Node57158 -->
<g id="edge29" class="edge"><title>Node57137&#45;&gt;Node57158</title>
<path fill="none" stroke="midnightblue" d="M77.6947,-249.839C92.2478,-281.94 125.596,-346.274 173,-382.5 178.078,-386.38 183.8,-389.685 189.747,-392.492"/>
<polygon fill="midnightblue" stroke="midnightblue" points="80.7177,-248.018 73.4867,-240.275 74.3105,-250.838 80.7177,-248.018"/>
</g>
<!-- Node57161 -->
<g id="node25" class="node"><title>Node57161</title>
<g id="a_node25"><a xlink:href="../../d4/d8f/class_ro_r_1_1_g_u_i_1_1_multiplayer_selector.html#a8c98e9ba03c8afb1d1a26ec06192862e" target="_top" xlink:title="RoR::GUI::MultiplayerSelector\l::~MultiplayerSelector">
<polygon fill="white" stroke="black" points="173,-0.5 173,-30.5 320,-30.5 320,-0.5 173,-0.5"/>
<text text-anchor="start" x="181" y="-18.5" font-family="Helvetica,sans-Serif" font-size="10.00">RoR::GUI::MultiplayerSelector</text>
<text text-anchor="middle" x="246.5" y="-7.5" font-family="Helvetica,sans-Serif" font-size="10.00">::~MultiplayerSelector</text>
</a>
</g>
</g>
<!-- Node57137&#45;&gt;Node57161 -->
<g id="edge33" class="edge"><title>Node57137&#45;&gt;Node57161</title>
<path fill="none" stroke="midnightblue" d="M75.5822,-210.948C88.0568,-173.833 119.92,-92.6719 173,-45.5 179.72,-39.5279 187.794,-34.6411 196.077,-30.677"/>
<polygon fill="midnightblue" stroke="midnightblue" points="72.2152,-209.984 72.453,-220.577 78.8725,-212.148 72.2152,-209.984"/>
</g>
<!-- Node57139 -->
<g id="node3" class="node"><title>Node57139</title>
<g id="a_node3"><a xlink:href="../../d5/d56/class_ogre_im_gui.html#a6c64d0f1f8c3b156e8a5cbe02ccb93eb" target="_top" xlink:title="OgreImGui::NewFrame">
<polygon fill="white" stroke="black" points="384.5,-445 384.5,-464 500.5,-464 500.5,-445 384.5,-445"/>
<text text-anchor="middle" x="442.5" y="-452" font-family="Helvetica,sans-Serif" font-size="10.00">OgreImGui::NewFrame</text>
</a>
</g>
</g>
<!-- Node57138&#45;&gt;Node57139 -->
<g id="edge2" class="edge"><title>Node57138&#45;&gt;Node57139</title>
<path fill="none" stroke="midnightblue" d="M304.571,-453.088C329.679,-453.347 359.111,-453.651 384.241,-453.91"/>
<polygon fill="midnightblue" stroke="midnightblue" points="304.498,-449.588 294.462,-452.984 304.425,-456.587 304.498,-449.588"/>
</g>
<!-- Node57140 -->
<g id="node4" class="node"><title>Node57140</title>
<g id="a_node4"><a xlink:href="../../d8/d11/class_ro_r_1_1_g_u_i_manager.html#a19dfcebef9a9cbb45429c6cc218a8759" target="_top" xlink:title="RoR::GUIManager::NewImGui\lFrame">
<polygon fill="white" stroke="black" points="565,-483.5 565,-513.5 711,-513.5 711,-483.5 565,-483.5"/>
<text text-anchor="start" x="573" y="-501.5" font-family="Helvetica,sans-Serif" font-size="10.00">RoR::GUIManager::NewImGui</text>
<text text-anchor="middle" x="638" y="-490.5" font-family="Helvetica,sans-Serif" font-size="10.00">Frame</text>
</a>
</g>
</g>
<!-- Node57139&#45;&gt;Node57140 -->
<g id="edge3" class="edge"><title>Node57139&#45;&gt;Node57140</title>
<path fill="none" stroke="midnightblue" d="M495.451,-466.313C518.6,-471.577 546.139,-477.839 570.747,-483.435"/>
<polygon fill="midnightblue" stroke="midnightblue" points="496.014,-462.852 485.487,-464.047 494.462,-469.678 496.014,-462.852"/>
</g>
<!-- Node57145 -->
<g id="node9" class="node"><title>Node57145</title>
<g id="a_node9"><a xlink:href="../../d5/d56/class_ogre_im_gui.html#ad19fd285bb4aaa44039201a20c39a75f" target="_top" xlink:title="OgreImGui::OgreImGui">
<polygon fill="white" stroke="black" points="580,-445 580,-464 696,-464 696,-445 580,-445"/>
<text text-anchor="middle" x="638" y="-452" font-family="Helvetica,sans-Serif" font-size="10.00">OgreImGui::OgreImGui</text>
</a>
</g>
</g>
<!-- Node57139&#45;&gt;Node57145 -->
<g id="edge8" class="edge"><title>Node57139&#45;&gt;Node57145</title>
<path fill="none" stroke="midnightblue" d="M510.666,-454.5C533.175,-454.5 558.048,-454.5 579.729,-454.5"/>
<polygon fill="midnightblue" stroke="midnightblue" points="510.51,-451 500.51,-454.5 510.51,-458 510.51,-451"/>
</g>
<!-- Node57141 -->
<g id="node5" class="node"><title>Node57141</title>
<g id="a_node5"><a xlink:href="../../dd/dbe/class_ro_r_frame_listener.html#acdda0026f9324c3b7f48568624e07115" target="_top" xlink:title="RoRFrameListener::frameStarted">
<polygon fill="white" stroke="black" points="747,-489 747,-508 906,-508 906,-489 747,-489"/>
<text text-anchor="middle" x="826.5" y="-496" font-family="Helvetica,sans-Serif" font-size="10.00">RoRFrameListener::frameStarted</text>
</a>
</g>
</g>
<!-- Node57140&#45;&gt;Node57141 -->
<g id="edge4" class="edge"><title>Node57140&#45;&gt;Node57141</title>
<path fill="none" stroke="midnightblue" d="M721.337,-498.5C729.79,-498.5 738.364,-498.5 746.777,-498.5"/>
<polygon fill="midnightblue" stroke="midnightblue" points="721.106,-495 711.106,-498.5 721.106,-502 721.106,-495"/>
</g>
<!-- Node57142 -->
<g id="node6" class="node"><title>Node57142</title>
<g id="a_node6"><a xlink:href="../../d4/d14/class_ro_r_1_1_main_menu.html#a582e508f1bb1578d1124260de49e438b" target="_top" xlink:title="RoR::MainMenu::EnterMain\lMenuLoop">
<polygon fill="white" stroke="black" points="758,-417.5 758,-447.5 895,-447.5 895,-417.5 758,-417.5"/>
<text text-anchor="start" x="766" y="-435.5" font-family="Helvetica,sans-Serif" font-size="10.00">RoR::MainMenu::EnterMain</text>
<text text-anchor="middle" x="826.5" y="-424.5" font-family="Helvetica,sans-Serif" font-size="10.00">MenuLoop</text>
</a>
</g>
</g>
<!-- Node57140&#45;&gt;Node57142 -->
<g id="edge5" class="edge"><title>Node57140&#45;&gt;Node57142</title>
<path fill="none" stroke="midnightblue" d="M692.273,-480.067C698.588,-477.863 704.94,-475.637 711,-473.5 735.094,-465.003 761.992,-455.379 783.66,-447.591"/>
<polygon fill="midnightblue" stroke="midnightblue" points="690.72,-476.902 682.428,-483.497 693.022,-483.512 690.72,-476.902"/>
</g>
<!-- Node57143 -->
<g id="node7" class="node"><title>Node57143</title>
<g id="a_node7"><a xlink:href="../../df/d0a/main_8cpp.html#a0ddf1224851353fc92bfbff6f499fa97" target="_top" xlink:title="main">
<polygon fill="white" stroke="black" points="942,-423 942,-442 980,-442 980,-423 942,-423"/>
<text text-anchor="middle" x="961" y="-430" font-family="Helvetica,sans-Serif" font-size="10.00">main</text>
</a>
</g>
</g>
<!-- Node57142&#45;&gt;Node57143 -->
<g id="edge6" class="edge"><title>Node57142&#45;&gt;Node57143</title>
<path fill="none" stroke="midnightblue" d="M905.325,-432.5C918.972,-432.5 931.944,-432.5 941.824,-432.5"/>
<polygon fill="midnightblue" stroke="midnightblue" points="905.303,-429 895.303,-432.5 905.303,-436 905.303,-429"/>
</g>
<!-- Node57144 -->
<g id="node8" class="node"><title>Node57144</title>
<g id="a_node8"><a xlink:href="../../df/d0a/main_8cpp.html#a2922bc5d5c2d77a3020cfbf9df12aab0" target="_top" xlink:title="WinMain">
<polygon fill="white" stroke="black" points="1016,-423 1016,-442 1071,-442 1071,-423 1016,-423"/>
<text text-anchor="middle" x="1043.5" y="-430" font-family="Helvetica,sans-Serif" font-size="10.00">WinMain</text>
</a>
</g>
</g>
<!-- Node57143&#45;&gt;Node57144 -->
<g id="edge7" class="edge"><title>Node57143&#45;&gt;Node57144</title>
<path fill="none" stroke="midnightblue" d="M990.519,-432.5C998.73,-432.5 1007.65,-432.5 1015.75,-432.5"/>
<polygon fill="midnightblue" stroke="midnightblue" points="990.267,-429 980.267,-432.5 990.267,-436 990.267,-429"/>
</g>
<!-- Node57148 -->
<g id="node12" class="node"><title>Node57148</title>
<g id="a_node12"><a xlink:href="../../d5/d0a/imgui__demo_8cpp.html#a41fc5e36f317b1e9f66bdd2d7bca7764" target="_top" xlink:title="ShowExampleAppMainMenuBar">
<polygon fill="white" stroke="black" points="364.5,-240 364.5,-259 520.5,-259 520.5,-240 364.5,-240"/>
<text text-anchor="middle" x="442.5" y="-247" font-family="Helvetica,sans-Serif" font-size="10.00">ShowExampleAppMainMenuBar</text>
</a>
</g>
</g>
<!-- Node57147&#45;&gt;Node57148 -->
<g id="edge11" class="edge"><title>Node57147&#45;&gt;Node57148</title>
<path fill="none" stroke="midnightblue" d="M323.376,-249.5C336.881,-249.5 350.959,-249.5 364.495,-249.5"/>
<polygon fill="midnightblue" stroke="midnightblue" points="323.18,-246 313.18,-249.5 323.18,-253 323.18,-246"/>
</g>
<!-- Node57148&#45;&gt;Node57149 -->
<g id="edge12" class="edge"><title>Node57148&#45;&gt;Node57149</title>
<path fill="none" stroke="midnightblue" d="M501.248,-237.656C510.574,-235.46 520.089,-233.048 529,-230.5 558.049,-222.194 590.676,-210.355 612.392,-202.107"/>
<polygon fill="midnightblue" stroke="midnightblue" points="500.205,-234.304 491.24,-239.95 501.77,-241.127 500.205,-234.304"/>
</g>
<!-- Node57149&#45;&gt;Node57150 -->
<g id="edge13" class="edge"><title>Node57149&#45;&gt;Node57150</title>
<path fill="none" stroke="midnightblue" d="M710.698,-185.913C726.306,-185.673 742.766,-185.698 758.196,-185.988"/>
<polygon fill="midnightblue" stroke="midnightblue" points="710.514,-182.416 700.584,-186.109 710.65,-189.414 710.514,-182.416"/>
</g>
<!-- Node57150&#45;&gt;Node57149 -->
<g id="edge14" class="edge"><title>Node57150&#45;&gt;Node57149</title>
<path fill="none" stroke="midnightblue" d="M747.928,-199.164C732.137,-199.338 715.728,-199.247 700.584,-198.891"/>
<polygon fill="midnightblue" stroke="midnightblue" points="748.249,-202.66 758.196,-199.012 748.145,-195.661 748.249,-202.66"/>
</g>
<!-- Node57151&#45;&gt;Node57149 -->
<g id="edge17" class="edge"><title>Node57151&#45;&gt;Node57149</title>
<path fill="none" stroke="midnightblue" d="M539.472,-202.076C551.704,-200.875 563.954,-199.672 575.438,-198.545"/>
<polygon fill="midnightblue" stroke="midnightblue" points="538.827,-198.623 529.217,-203.083 539.511,-205.589 538.827,-198.623"/>
</g>
<!-- Node57153 -->
<g id="node17" class="node"><title>Node57153</title>
<g id="a_node17"><a xlink:href="../../d5/d0a/imgui__demo_8cpp.html#a8e5624314ae6402dd0ddf2a62aa91473" target="_top" xlink:title="ShowExampleAppConsole">
<polygon fill="white" stroke="black" points="377,-164 377,-183 508,-183 508,-164 377,-164"/>
<text text-anchor="middle" x="442.5" y="-171" font-family="Helvetica,sans-Serif" font-size="10.00">ShowExampleAppConsole</text>
</a>
</g>
</g>
<!-- Node57152&#45;&gt;Node57153 -->
<g id="edge19" class="edge"><title>Node57152&#45;&gt;Node57153</title>
<path fill="none" stroke="midnightblue" d="M324.384,-173.5C341.78,-173.5 360.079,-173.5 376.907,-173.5"/>
<polygon fill="midnightblue" stroke="midnightblue" points="324.264,-170 314.264,-173.5 324.264,-177 324.264,-170"/>
</g>
<!-- Node57153&#45;&gt;Node57149 -->
<g id="edge20" class="edge"><title>Node57153&#45;&gt;Node57149</title>
<path fill="none" stroke="midnightblue" d="M518.244,-180.839C537.114,-182.692 557.163,-184.661 575.309,-186.443"/>
<polygon fill="midnightblue" stroke="midnightblue" points="518.496,-177.347 508.202,-179.853 517.812,-184.314 518.496,-177.347"/>
</g>
<!-- Node57155 -->
<g id="node19" class="node"><title>Node57155</title>
<g id="a_node19"><a xlink:href="../../d5/d0a/imgui__demo_8cpp.html#ad0303cf1f675002eb4e68c17a47b3f88" target="_top" xlink:title="ShowExampleAppLog">
<polygon fill="white" stroke="black" points="386.5,-126 386.5,-145 498.5,-145 498.5,-126 386.5,-126"/>
<text text-anchor="middle" x="442.5" y="-133" font-family="Helvetica,sans-Serif" font-size="10.00">ShowExampleAppLog</text>
</a>
</g>
</g>
<!-- Node57154&#45;&gt;Node57155 -->
<g id="edge22" class="edge"><title>Node57154&#45;&gt;Node57155</title>
<path fill="none" stroke="midnightblue" d="M314.849,-135.5C338.227,-135.5 364.148,-135.5 386.418,-135.5"/>
<polygon fill="midnightblue" stroke="midnightblue" points="314.657,-132 304.657,-135.5 314.657,-139 314.657,-132"/>
</g>
<!-- Node57155&#45;&gt;Node57149 -->
<g id="edge23" class="edge"><title>Node57155&#45;&gt;Node57149</title>
<path fill="none" stroke="midnightblue" d="M501.248,-147.344C510.574,-149.54 520.089,-151.952 529,-154.5 558.049,-162.806 590.676,-174.645 612.392,-182.893"/>
<polygon fill="midnightblue" stroke="midnightblue" points="501.77,-143.873 491.24,-145.05 500.205,-150.696 501.77,-143.873"/>
</g>
<!-- Node57156&#45;&gt;Node57149 -->
<g id="edge25" class="edge"><title>Node57156&#45;&gt;Node57149</title>
<path fill="none" stroke="midnightblue" d="M510.901,-109.816C517.126,-111.745 523.249,-113.96 529,-116.5 568.428,-133.916 608.191,-166.739 626.534,-182.948"/>
<polygon fill="midnightblue" stroke="midnightblue" points="511.649,-106.39 501.073,-107.014 509.73,-113.121 511.649,-106.39"/>
</g>
<!-- Node57157&#45;&gt;Node57149 -->
<g id="edge27" class="edge"><title>Node57157&#45;&gt;Node57149</title>
<path fill="none" stroke="midnightblue" d="M516.446,-72.5092C520.801,-74.26 525.023,-76.2463 529,-78.5 576.676,-105.516 616.065,-160.386 630.789,-182.716"/>
<polygon fill="midnightblue" stroke="midnightblue" points="517.339,-69.1116 506.745,-69.0404 514.983,-75.7029 517.339,-69.1116"/>
</g>
<!-- Node57159 -->
<g id="node23" class="node"><title>Node57159</title>
<g id="a_node23"><a xlink:href="../../d8/d11/class_ro_r_1_1_g_u_i_manager.html#af75908cee15c6ce99cce1752387fca4f" target="_top" xlink:title="RoR::GUIManager::DrawMain\lMenuGui">
<polygon fill="white" stroke="black" points="566,-395.5 566,-425.5 710,-425.5 710,-395.5 566,-395.5"/>
<text text-anchor="start" x="574" y="-413.5" font-family="Helvetica,sans-Serif" font-size="10.00">RoR::GUIManager::DrawMain</text>
<text text-anchor="middle" x="638" y="-402.5" font-family="Helvetica,sans-Serif" font-size="10.00">MenuGui</text>
</a>
</g>
</g>
<!-- Node57158&#45;&gt;Node57159 -->
<g id="edge30" class="edge"><title>Node57158&#45;&gt;Node57159</title>
<path fill="none" stroke="midnightblue" d="M319.741,-408.056C389.965,-408.597 495.972,-409.414 565.83,-409.952"/>
<polygon fill="midnightblue" stroke="midnightblue" points="319.675,-404.556 309.648,-407.979 319.621,-411.556 319.675,-404.556"/>
</g>
<!-- Node57160 -->
<g id="node24" class="node"><title>Node57160</title>
<g id="a_node24"><a xlink:href="../../d8/d2c/class_ro_r_1_1_g_u_i_1_1_game_settings.html#aeb21469250c1f403cfc4e281271b339f" target="_top" xlink:title="RoR::GUI::GameSettings\l::GameSettings">
<polygon fill="white" stroke="black" points="379.5,-354.5 379.5,-384.5 505.5,-384.5 505.5,-354.5 379.5,-354.5"/>
<text text-anchor="start" x="387.5" y="-372.5" font-family="Helvetica,sans-Serif" font-size="10.00">RoR::GUI::GameSettings</text>
<text text-anchor="middle" x="442.5" y="-361.5" font-family="Helvetica,sans-Serif" font-size="10.00">::GameSettings</text>
</a>
</g>
</g>
<!-- Node57158&#45;&gt;Node57160 -->
<g id="edge32" class="edge"><title>Node57158&#45;&gt;Node57160</title>
<path fill="none" stroke="midnightblue" d="M319.502,-393.396C339.157,-389.547 360.281,-385.409 379.336,-381.676"/>
<polygon fill="midnightblue" stroke="midnightblue" points="318.824,-389.963 309.683,-395.32 320.17,-396.832 318.824,-389.963"/>
</g>
<!-- Node57159&#45;&gt;Node57142 -->
<g id="edge31" class="edge"><title>Node57159&#45;&gt;Node57142</title>
<path fill="none" stroke="midnightblue" d="M720.041,-420.06C732.616,-421.543 745.491,-423.062 757.732,-424.506"/>
<polygon fill="midnightblue" stroke="midnightblue" points="720.381,-416.576 710.04,-418.88 719.561,-423.528 720.381,-416.576"/>
</g>
</g>
</svg>
