<?xml version="1.0" encoding="UTF-8" standalone="no"?>
<!DOCTYPE svg PUBLIC "-//W3C//DTD SVG 1.1//EN"
 "http://www.w3.org/Graphics/SVG/1.1/DTD/svg11.dtd">
<!-- Generated by graphviz version 2.38.0 (20140413.2041)
 -->
<!-- Title: ImGui::ImageButton Pages: 1 -->
<svg width="444pt" height="28pt"
 viewBox="0.00 0.00 444.00 28.00" xmlns="http://www.w3.org/2000/svg" xmlns:xlink="http://www.w3.org/1999/xlink">
<g id="graph0" class="graph" transform="scale(1 1) rotate(0) translate(4 24)">
<title>ImGui::ImageButton</title>
<polygon fill="white" stroke="none" points="-4,4 -4,-24 440,-24 440,4 -4,4"/>
<!-- Node26162 -->
<g id="node1" class="node"><title>Node26162</title>
<polygon fill="#bfbfbf" stroke="black" points="0,-0.5 0,-19.5 103,-19.5 103,-0.5 0,-0.5"/>
<text text-anchor="middle" x="51.5" y="-7.5" font-family="Helvetica,sans-Serif" font-size="10.00">ImGui::ImageButton</text>
</g>
<!-- Node26163 -->
<g id="node2" class="node"><title>Node26163</title>
<g id="a_node2"><a xlink:href="../../df/d13/namespace_im_gui.html#a52880ae1ecdd704a083558d31c9bfa50" target="_top" xlink:title="ImGui::ShowTestWindow">
<polygon fill="white" stroke="black" points="139,-0.5 139,-19.5 264,-19.5 264,-0.5 139,-0.5"/>
<text text-anchor="middle" x="201.5" y="-7.5" font-family="Helvetica,sans-Serif" font-size="10.00">ImGui::ShowTestWindow</text>
</a>
</g>
</g>
<!-- Node26162&#45;&gt;Node26163 -->
<g id="edge1" class="edge"><title>Node26162&#45;&gt;Node26163</title>
<path fill="none" stroke="midnightblue" d="M113.223,-10C121.711,-10 130.441,-10 138.945,-10"/>
<polygon fill="midnightblue" stroke="midnightblue" points="113.019,-6.5001 103.019,-10 113.019,-13.5001 113.019,-6.5001"/>
</g>
<!-- Node26164 -->
<g id="node3" class="node"><title>Node26164</title>
<g id="a_node3"><a xlink:href="../../d5/d0a/imgui__demo_8cpp.html#a4dadf5e7b393795666d19af9694037cf" target="_top" xlink:title="ShowExampleAppLongText">
<polygon fill="white" stroke="black" points="300,-0.5 300,-19.5 436,-19.5 436,-0.5 300,-0.5"/>
<text text-anchor="middle" x="368" y="-7.5" font-family="Helvetica,sans-Serif" font-size="10.00">ShowExampleAppLongText</text>
</a>
</g>
</g>
<!-- Node26163&#45;&gt;Node26164 -->
<g id="edge2" class="edge"><title>Node26163&#45;&gt;Node26164</title>
<path fill="none" stroke="midnightblue" d="M274.464,-3.29714C282.942,-3.21907 291.567,-3.23797 299.973,-3.35383"/>
<polygon fill="midnightblue" stroke="midnightblue" points="274.172,0.199212 264.222,-3.44044 274.27,-6.8001 274.172,0.199212"/>
</g>
<!-- Node26164&#45;&gt;Node26163 -->
<g id="edge3" class="edge"><title>Node26164&#45;&gt;Node26163</title>
<path fill="none" stroke="midnightblue" d="M289.916,-16.7381C281.301,-16.7777 272.609,-16.7182 264.222,-16.5596"/>
<polygon fill="midnightblue" stroke="midnightblue" points="290.005,-20.2376 299.973,-16.6462 289.941,-13.2379 290.005,-20.2376"/>
</g>
</g>
</svg>
