<?xml version="1.0" encoding="UTF-8" standalone="no"?>
<!DOCTYPE svg PUBLIC "-//W3C//DTD SVG 1.1//EN"
 "http://www.w3.org/Graphics/SVG/1.1/DTD/svg11.dtd">
<!-- Generated by graphviz version 2.38.0 (20140413.2041)
 -->
<!-- Title: ImGui::GetItemsLineHeightWithSpacing Pages: 1 -->
<svg width="825pt" height="140pt"
 viewBox="0.00 0.00 825.00 139.52" xmlns="http://www.w3.org/2000/svg" xmlns:xlink="http://www.w3.org/1999/xlink">
<g id="graph0" class="graph" transform="scale(1 1) rotate(0) translate(4 135.519)">
<title>ImGui::GetItemsLineHeightWithSpacing</title>
<polygon fill="white" stroke="none" points="-4,4 -4,-135.519 821,-135.519 821,4 -4,4"/>
<!-- Node23947 -->
<g id="node1" class="node"><title>Node23947</title>
<polygon fill="#bfbfbf" stroke="black" points="0,-63.5 0,-93.5 134,-93.5 134,-63.5 0,-63.5"/>
<text text-anchor="start" x="8" y="-81.5" font-family="Helvetica,sans-Serif" font-size="10.00">ImGui::GetItemsLineHeight</text>
<text text-anchor="middle" x="67" y="-70.5" font-family="Helvetica,sans-Serif" font-size="10.00">WithSpacing</text>
</g>
<!-- Node23948 -->
<g id="node2" class="node"><title>Node23948</title>
<g id="a_node2"><a xlink:href="../../df/d13/namespace_im_gui.html#a52880ae1ecdd704a083558d31c9bfa50" target="_top" xlink:title="ImGui::ShowTestWindow">
<polygon fill="white" stroke="black" points="520,-88 520,-107 645,-107 645,-88 520,-88"/>
<text text-anchor="middle" x="582.5" y="-95" font-family="Helvetica,sans-Serif" font-size="10.00">ImGui::ShowTestWindow</text>
</a>
</g>
</g>
<!-- Node23947&#45;&gt;Node23948 -->
<g id="edge1" class="edge"><title>Node23947&#45;&gt;Node23948</title>
<path fill="none" stroke="midnightblue" d="M109.211,-97.6735C127.422,-105.135 149.349,-112.778 170,-116.5 307.343,-141.253 345.09,-129.909 484,-116.5 503.226,-114.644 524.291,-110.775 541.906,-107.01"/>
<polygon fill="midnightblue" stroke="midnightblue" points="110.355,-94.3576 99.7816,-93.6916 107.632,-100.806 110.355,-94.3576"/>
</g>
<!-- Node23950 -->
<g id="node4" class="node"><title>Node23950</title>
<g id="a_node4"><a xlink:href="../../de/d1c/struct_example_app_console.html#a0518a09c7e8648dd52c7c06df19ac17a" target="_top" xlink:title="ExampleAppConsole::Draw">
<polygon fill="white" stroke="black" points="176,-88 176,-107 311,-107 311,-88 176,-88"/>
<text text-anchor="middle" x="243.5" y="-95" font-family="Helvetica,sans-Serif" font-size="10.00">ExampleAppConsole::Draw</text>
</a>
</g>
</g>
<!-- Node23947&#45;&gt;Node23950 -->
<g id="edge4" class="edge"><title>Node23947&#45;&gt;Node23950</title>
<path fill="none" stroke="midnightblue" d="M144.441,-86.8231C154.931,-87.9653 165.633,-89.1305 175.927,-90.2514"/>
<polygon fill="midnightblue" stroke="midnightblue" points="144.789,-83.3404 134.469,-85.7373 144.031,-90.2992 144.789,-83.3404"/>
</g>
<!-- Node23952 -->
<g id="node6" class="node"><title>Node23952</title>
<g id="a_node6"><a xlink:href="../../d5/d0a/imgui__demo_8cpp.html#adfe8516f13b623adbf78b024efd5bb6e" target="_top" xlink:title="ShowExampleAppLayout">
<polygon fill="white" stroke="black" points="356,-50 356,-69 481,-69 481,-50 356,-50"/>
<text text-anchor="middle" x="418.5" y="-57" font-family="Helvetica,sans-Serif" font-size="10.00">ShowExampleAppLayout</text>
</a>
</g>
</g>
<!-- Node23947&#45;&gt;Node23952 -->
<g id="edge7" class="edge"><title>Node23947&#45;&gt;Node23952</title>
<path fill="none" stroke="midnightblue" d="M144.487,-74.3419C207.867,-70.8964 296.796,-66.0619 355.725,-62.8583"/>
<polygon fill="midnightblue" stroke="midnightblue" points="143.944,-70.8661 134.149,-74.9039 144.324,-77.8558 143.944,-70.8661"/>
</g>
<!-- Node23953 -->
<g id="node7" class="node"><title>Node23953</title>
<g id="a_node7"><a xlink:href="../../d4/d8f/class_ro_r_1_1_g_u_i_1_1_multiplayer_selector.html#a8c98e9ba03c8afb1d1a26ec06192862e" target="_top" xlink:title="RoR::GUI::MultiplayerSelector\l::~MultiplayerSelector">
<polygon fill="white" stroke="black" points="170,-0.5 170,-30.5 317,-30.5 317,-0.5 170,-0.5"/>
<text text-anchor="start" x="178" y="-18.5" font-family="Helvetica,sans-Serif" font-size="10.00">RoR::GUI::MultiplayerSelector</text>
<text text-anchor="middle" x="243.5" y="-7.5" font-family="Helvetica,sans-Serif" font-size="10.00">::~MultiplayerSelector</text>
</a>
</g>
</g>
<!-- Node23947&#45;&gt;Node23953 -->
<g id="edge9" class="edge"><title>Node23947&#45;&gt;Node23953</title>
<path fill="none" stroke="midnightblue" d="M119.45,-59.925C145.349,-50.5744 176.341,-39.3855 200.742,-30.576"/>
<polygon fill="midnightblue" stroke="midnightblue" points="118.014,-56.7221 109.797,-63.4099 120.391,-63.3061 118.014,-56.7221"/>
</g>
<!-- Node23949 -->
<g id="node3" class="node"><title>Node23949</title>
<g id="a_node3"><a xlink:href="../../d5/d0a/imgui__demo_8cpp.html#a4dadf5e7b393795666d19af9694037cf" target="_top" xlink:title="ShowExampleAppLongText">
<polygon fill="white" stroke="black" points="681,-88 681,-107 817,-107 817,-88 681,-88"/>
<text text-anchor="middle" x="749" y="-95" font-family="Helvetica,sans-Serif" font-size="10.00">ShowExampleAppLongText</text>
</a>
</g>
</g>
<!-- Node23948&#45;&gt;Node23949 -->
<g id="edge2" class="edge"><title>Node23948&#45;&gt;Node23949</title>
<path fill="none" stroke="midnightblue" d="M655.464,-90.7971C663.942,-90.7191 672.567,-90.738 680.973,-90.8538"/>
<polygon fill="midnightblue" stroke="midnightblue" points="655.172,-87.3008 645.222,-90.9404 655.27,-94.3001 655.172,-87.3008"/>
</g>
<!-- Node23949&#45;&gt;Node23948 -->
<g id="edge3" class="edge"><title>Node23949&#45;&gt;Node23948</title>
<path fill="none" stroke="midnightblue" d="M670.916,-104.238C662.301,-104.278 653.609,-104.218 645.222,-104.06"/>
<polygon fill="midnightblue" stroke="midnightblue" points="671.005,-107.738 680.973,-104.146 670.941,-100.738 671.005,-107.738"/>
</g>
<!-- Node23951 -->
<g id="node5" class="node"><title>Node23951</title>
<g id="a_node5"><a xlink:href="../../d5/d0a/imgui__demo_8cpp.html#a8e5624314ae6402dd0ddf2a62aa91473" target="_top" xlink:title="ShowExampleAppConsole">
<polygon fill="white" stroke="black" points="353,-88 353,-107 484,-107 484,-88 353,-88"/>
<text text-anchor="middle" x="418.5" y="-95" font-family="Helvetica,sans-Serif" font-size="10.00">ShowExampleAppConsole</text>
</a>
</g>
</g>
<!-- Node23950&#45;&gt;Node23951 -->
<g id="edge5" class="edge"><title>Node23950&#45;&gt;Node23951</title>
<path fill="none" stroke="midnightblue" d="M321.689,-97.5C332.075,-97.5 342.642,-97.5 352.782,-97.5"/>
<polygon fill="midnightblue" stroke="midnightblue" points="321.386,-94.0001 311.386,-97.5 321.386,-101 321.386,-94.0001"/>
</g>
<!-- Node23951&#45;&gt;Node23948 -->
<g id="edge6" class="edge"><title>Node23951&#45;&gt;Node23948</title>
<path fill="none" stroke="midnightblue" d="M494.703,-97.5C503.156,-97.5 511.694,-97.5 519.946,-97.5"/>
<polygon fill="midnightblue" stroke="midnightblue" points="494.458,-94.0001 484.458,-97.5 494.458,-101 494.458,-94.0001"/>
</g>
<!-- Node23952&#45;&gt;Node23948 -->
<g id="edge8" class="edge"><title>Node23952&#45;&gt;Node23948</title>
<path fill="none" stroke="midnightblue" d="M470.215,-71.3961C492.986,-76.7374 519.487,-82.9537 540.915,-87.9799"/>
<polygon fill="midnightblue" stroke="midnightblue" points="470.915,-67.9653 460.379,-69.089 469.316,-74.7803 470.915,-67.9653"/>
</g>
</g>
</svg>
