<?xml version="1.0" encoding="UTF-8" standalone="no"?>
<!DOCTYPE svg PUBLIC "-//W3C//DTD SVG 1.1//EN"
 "http://www.w3.org/Graphics/SVG/1.1/DTD/svg11.dtd">
<!-- Generated by graphviz version 2.38.0 (20140413.2041)
 -->
<!-- Title: ImGui::IsAnyItemActive Pages: 1 -->
<svg width="797pt" height="28pt"
 viewBox="0.00 0.00 797.00 28.00" xmlns="http://www.w3.org/2000/svg" xmlns:xlink="http://www.w3.org/1999/xlink">
<g id="graph0" class="graph" transform="scale(1 1) rotate(0) translate(4 24)">
<title>ImGui::IsAnyItemActive</title>
<polygon fill="white" stroke="none" points="-4,4 -4,-24 793,-24 793,4 -4,4"/>
<!-- Node32349 -->
<g id="node1" class="node"><title>Node32349</title>
<polygon fill="#bfbfbf" stroke="black" points="0,-0.5 0,-19.5 118,-19.5 118,-0.5 0,-0.5"/>
<text text-anchor="middle" x="59" y="-7.5" font-family="Helvetica,sans-Serif" font-size="10.00">ImGui::IsAnyItemActive</text>
</g>
<!-- Node32350 -->
<g id="node2" class="node"><title>Node32350</title>
<g id="a_node2"><a xlink:href="../../de/d1c/struct_example_app_console.html#a0518a09c7e8648dd52c7c06df19ac17a" target="_top" xlink:title="ExampleAppConsole::Draw">
<polygon fill="white" stroke="black" points="154,-0.5 154,-19.5 289,-19.5 289,-0.5 154,-0.5"/>
<text text-anchor="middle" x="221.5" y="-7.5" font-family="Helvetica,sans-Serif" font-size="10.00">ExampleAppConsole::Draw</text>
</a>
</g>
</g>
<!-- Node32349&#45;&gt;Node32350 -->
<g id="edge1" class="edge"><title>Node32349&#45;&gt;Node32350</title>
<path fill="none" stroke="midnightblue" d="M128.563,-10C136.99,-10 145.591,-10 153.987,-10"/>
<polygon fill="midnightblue" stroke="midnightblue" points="128.398,-6.5001 118.398,-10 128.398,-13.5001 128.398,-6.5001"/>
</g>
<!-- Node32351 -->
<g id="node3" class="node"><title>Node32351</title>
<g id="a_node3"><a xlink:href="../../d5/d0a/imgui__demo_8cpp.html#a8e5624314ae6402dd0ddf2a62aa91473" target="_top" xlink:title="ShowExampleAppConsole">
<polygon fill="white" stroke="black" points="325,-0.5 325,-19.5 456,-19.5 456,-0.5 325,-0.5"/>
<text text-anchor="middle" x="390.5" y="-7.5" font-family="Helvetica,sans-Serif" font-size="10.00">ShowExampleAppConsole</text>
</a>
</g>
</g>
<!-- Node32350&#45;&gt;Node32351 -->
<g id="edge2" class="edge"><title>Node32350&#45;&gt;Node32351</title>
<path fill="none" stroke="midnightblue" d="M299.704,-10C308.154,-10 316.691,-10 324.965,-10"/>
<polygon fill="midnightblue" stroke="midnightblue" points="299.463,-6.5001 289.463,-10 299.463,-13.5001 299.463,-6.5001"/>
</g>
<!-- Node32352 -->
<g id="node4" class="node"><title>Node32352</title>
<g id="a_node4"><a xlink:href="../../df/d13/namespace_im_gui.html#a52880ae1ecdd704a083558d31c9bfa50" target="_top" xlink:title="ImGui::ShowTestWindow">
<polygon fill="white" stroke="black" points="492,-0.5 492,-19.5 617,-19.5 617,-0.5 492,-0.5"/>
<text text-anchor="middle" x="554.5" y="-7.5" font-family="Helvetica,sans-Serif" font-size="10.00">ImGui::ShowTestWindow</text>
</a>
</g>
</g>
<!-- Node32351&#45;&gt;Node32352 -->
<g id="edge3" class="edge"><title>Node32351&#45;&gt;Node32352</title>
<path fill="none" stroke="midnightblue" d="M466.703,-10C475.156,-10 483.694,-10 491.946,-10"/>
<polygon fill="midnightblue" stroke="midnightblue" points="466.458,-6.5001 456.458,-10 466.458,-13.5001 466.458,-6.5001"/>
</g>
<!-- Node32353 -->
<g id="node5" class="node"><title>Node32353</title>
<g id="a_node5"><a xlink:href="../../d5/d0a/imgui__demo_8cpp.html#a4dadf5e7b393795666d19af9694037cf" target="_top" xlink:title="ShowExampleAppLongText">
<polygon fill="white" stroke="black" points="653,-0.5 653,-19.5 789,-19.5 789,-0.5 653,-0.5"/>
<text text-anchor="middle" x="721" y="-7.5" font-family="Helvetica,sans-Serif" font-size="10.00">ShowExampleAppLongText</text>
</a>
</g>
</g>
<!-- Node32352&#45;&gt;Node32353 -->
<g id="edge4" class="edge"><title>Node32352&#45;&gt;Node32353</title>
<path fill="none" stroke="midnightblue" d="M627.464,-3.29714C635.942,-3.21907 644.567,-3.23797 652.973,-3.35383"/>
<polygon fill="midnightblue" stroke="midnightblue" points="627.172,0.199212 617.222,-3.44044 627.27,-6.8001 627.172,0.199212"/>
</g>
<!-- Node32353&#45;&gt;Node32352 -->
<g id="edge5" class="edge"><title>Node32353&#45;&gt;Node32352</title>
<path fill="none" stroke="midnightblue" d="M642.916,-16.7381C634.301,-16.7777 625.609,-16.7182 617.222,-16.5596"/>
<polygon fill="midnightblue" stroke="midnightblue" points="643.005,-20.2376 652.973,-16.6462 642.941,-13.2379 643.005,-20.2376"/>
</g>
</g>
</svg>
