<?xml version="1.0" encoding="UTF-8" standalone="no"?>
<!DOCTYPE svg PUBLIC "-//W3C//DTD SVG 1.1//EN"
 "http://www.w3.org/Graphics/SVG/1.1/DTD/svg11.dtd">
<!-- Generated by graphviz version 2.38.0 (20140413.2041)
 -->
<!-- Title: ImGui::GetStyleColName Pages: 1 -->
<svg width="814pt" height="104pt"
 viewBox="0.00 0.00 814.00 104.00" xmlns="http://www.w3.org/2000/svg" xmlns:xlink="http://www.w3.org/1999/xlink">
<g id="graph0" class="graph" transform="scale(1 1) rotate(0) translate(4 100)">
<title>ImGui::GetStyleColName</title>
<polygon fill="white" stroke="none" points="-4,4 -4,-100 810,-100 810,4 -4,4"/>
<!-- Node24840 -->
<g id="node1" class="node"><title>Node24840</title>
<polygon fill="#bfbfbf" stroke="black" points="0,-57.5 0,-76.5 126,-76.5 126,-57.5 0,-57.5"/>
<text text-anchor="middle" x="63" y="-64.5" font-family="Helvetica,sans-Serif" font-size="10.00">ImGui::GetStyleColName</text>
</g>
<!-- Node24841 -->
<g id="node2" class="node"><title>Node24841</title>
<g id="a_node2"><a xlink:href="../../df/d13/namespace_im_gui.html#ab2eb3dec78d054fe3feab1c091ec5de5" target="_top" xlink:title="ImGui::ShowStyleEditor">
<polygon fill="white" stroke="black" points="335,-76.5 335,-95.5 455,-95.5 455,-76.5 335,-76.5"/>
<text text-anchor="middle" x="395" y="-83.5" font-family="Helvetica,sans-Serif" font-size="10.00">ImGui::ShowStyleEditor</text>
</a>
</g>
</g>
<!-- Node24840&#45;&gt;Node24841 -->
<g id="edge1" class="edge"><title>Node24840&#45;&gt;Node24841</title>
<path fill="none" stroke="midnightblue" d="M136.164,-71.1549C195.764,-74.5864 279.321,-79.3973 334.982,-82.602"/>
<polygon fill="midnightblue" stroke="midnightblue" points="136.255,-67.6544 126.07,-70.5738 135.853,-74.6429 136.255,-67.6544"/>
</g>
<!-- Node24844 -->
<g id="node5" class="node"><title>Node24844</title>
<g id="a_node5"><a xlink:href="../../d5/d0a/imgui__demo_8cpp.html#af6ff107f662e23ad39345a8192d782eb" target="_top" xlink:title="ShowExampleMenuFile">
<polygon fill="white" stroke="black" points="162,-38.5 162,-57.5 281,-57.5 281,-38.5 162,-38.5"/>
<text text-anchor="middle" x="221.5" y="-45.5" font-family="Helvetica,sans-Serif" font-size="10.00">ShowExampleMenuFile</text>
</a>
</g>
</g>
<!-- Node24840&#45;&gt;Node24844 -->
<g id="edge6" class="edge"><title>Node24840&#45;&gt;Node24844</title>
<path fill="none" stroke="midnightblue" d="M136.322,-58.2197C144.916,-57.1764 153.605,-56.1214 161.973,-55.1055"/>
<polygon fill="midnightblue" stroke="midnightblue" points="135.808,-54.7563 126.303,-59.4361 136.652,-61.7053 135.808,-54.7563"/>
</g>
<!-- Node24842 -->
<g id="node3" class="node"><title>Node24842</title>
<g id="a_node3"><a xlink:href="../../df/d13/namespace_im_gui.html#a52880ae1ecdd704a083558d31c9bfa50" target="_top" xlink:title="ImGui::ShowTestWindow">
<polygon fill="white" stroke="black" points="509,-38.5 509,-57.5 634,-57.5 634,-38.5 509,-38.5"/>
<text text-anchor="middle" x="571.5" y="-45.5" font-family="Helvetica,sans-Serif" font-size="10.00">ImGui::ShowTestWindow</text>
</a>
</g>
</g>
<!-- Node24841&#45;&gt;Node24842 -->
<g id="edge2" class="edge"><title>Node24841&#45;&gt;Node24842</title>
<path fill="none" stroke="midnightblue" d="M449.969,-74.2474C474.643,-68.8742 503.495,-62.5914 526.783,-57.5201"/>
<polygon fill="midnightblue" stroke="midnightblue" points="449.06,-70.8633 440.034,-76.411 450.549,-77.703 449.06,-70.8633"/>
</g>
<!-- Node24843 -->
<g id="node4" class="node"><title>Node24843</title>
<g id="a_node4"><a xlink:href="../../d5/d0a/imgui__demo_8cpp.html#a4dadf5e7b393795666d19af9694037cf" target="_top" xlink:title="ShowExampleAppLongText">
<polygon fill="white" stroke="black" points="670,-38.5 670,-57.5 806,-57.5 806,-38.5 670,-38.5"/>
<text text-anchor="middle" x="738" y="-45.5" font-family="Helvetica,sans-Serif" font-size="10.00">ShowExampleAppLongText</text>
</a>
</g>
</g>
<!-- Node24841&#45;&gt;Node24843 -->
<g id="edge5" class="edge"><title>Node24841&#45;&gt;Node24843</title>
<path fill="none" stroke="midnightblue" d="M465.54,-82.3374C513.106,-79.3698 577.528,-74.4427 634,-67 652.749,-64.529 673.263,-60.93 691.014,-57.5272"/>
<polygon fill="midnightblue" stroke="midnightblue" points="465.12,-78.8564 455.352,-82.9592 465.546,-85.8434 465.12,-78.8564"/>
</g>
<!-- Node24842&#45;&gt;Node24843 -->
<g id="edge3" class="edge"><title>Node24842&#45;&gt;Node24843</title>
<path fill="none" stroke="midnightblue" d="M644.464,-41.2971C652.942,-41.2191 661.567,-41.238 669.973,-41.3538"/>
<polygon fill="midnightblue" stroke="midnightblue" points="644.172,-37.8008 634.222,-41.4404 644.27,-44.8001 644.172,-37.8008"/>
</g>
<!-- Node24843&#45;&gt;Node24842 -->
<g id="edge4" class="edge"><title>Node24843&#45;&gt;Node24842</title>
<path fill="none" stroke="midnightblue" d="M659.916,-54.7381C651.301,-54.7777 642.609,-54.7182 634.222,-54.5596"/>
<polygon fill="midnightblue" stroke="midnightblue" points="660.005,-58.2376 669.973,-54.6462 659.941,-51.2379 660.005,-58.2376"/>
</g>
<!-- Node24844&#45;&gt;Node24842 -->
<g id="edge7" class="edge"><title>Node24844&#45;&gt;Node24842</title>
<path fill="none" stroke="midnightblue" d="M291.444,-48C354.859,-48 448.031,-48 508.98,-48"/>
<polygon fill="midnightblue" stroke="midnightblue" points="291.14,-44.5001 281.14,-48 291.14,-51.5001 291.14,-44.5001"/>
</g>
<!-- Node24845 -->
<g id="node6" class="node"><title>Node24845</title>
<g id="a_node6"><a xlink:href="../../d5/d0a/imgui__demo_8cpp.html#a41fc5e36f317b1e9f66bdd2d7bca7764" target="_top" xlink:title="ShowExampleAppMainMenuBar">
<polygon fill="white" stroke="black" points="317,-0.5 317,-19.5 473,-19.5 473,-0.5 317,-0.5"/>
<text text-anchor="middle" x="395" y="-7.5" font-family="Helvetica,sans-Serif" font-size="10.00">ShowExampleAppMainMenuBar</text>
</a>
</g>
</g>
<!-- Node24844&#45;&gt;Node24845 -->
<g id="edge8" class="edge"><title>Node24844&#45;&gt;Node24845</title>
<path fill="none" stroke="midnightblue" d="M275.541,-36.2474C299.791,-30.8742 328.147,-24.5914 351.035,-19.5201"/>
<polygon fill="midnightblue" stroke="midnightblue" points="274.783,-32.8305 265.777,-38.411 276.297,-39.6648 274.783,-32.8305"/>
</g>
<!-- Node24845&#45;&gt;Node24842 -->
<g id="edge9" class="edge"><title>Node24845&#45;&gt;Node24842</title>
<path fill="none" stroke="midnightblue" d="M449.969,-21.7526C474.643,-27.1258 503.495,-33.4086 526.783,-38.4799"/>
<polygon fill="midnightblue" stroke="midnightblue" points="450.549,-18.297 440.034,-19.589 449.06,-25.1367 450.549,-18.297"/>
</g>
</g>
</svg>
