<?xml version="1.0" encoding="UTF-8" standalone="no"?>
<!DOCTYPE svg PUBLIC "-//W3C//DTD SVG 1.1//EN"
 "http://www.w3.org/Graphics/SVG/1.1/DTD/svg11.dtd">
<!-- Generated by graphviz version 2.38.0 (20140413.2041)
 -->
<!-- Title: ImGui::SetWindowFocus Pages: 1 -->
<!--zoomable 218 -->
<svg id="main" version="1.1" xmlns="http://www.w3.org/2000/svg" xmlns:xlink="http://www.w3.org/1999/xlink" xml:space="preserve" onload="init(evt)">
<style type="text/css"><![CDATA[
.edge:hover path { stroke: red; }
.edge:hover polygon { stroke: red; fill: red; }
]]></style>
<script type="text/javascript"><![CDATA[
var edges = document.getElementsByTagName('g');
if (edges && edges.length) {
  for (var i=0;i<edges.length;i++) {
    if (edges[i].id.substr(0,4)=='edge') {
      edges[i].setAttribute('class','edge');
    }
  }
}
]]></script>
        <defs>
                <circle id="rim" cx="0" cy="0" r="7"/>
                <circle id="rim2" cx="0" cy="0" r="3.5"/>
                <g id="zoomPlus">
                        <use xlink:href="#rim" fill="#404040">
                                <set attributeName="fill" to="#808080" begin="zoomplus.mouseover" end="zoomplus.mouseout"/>
                        </use>
                        <path d="M-4,0h8M0,-4v8" fill="none" stroke="white" stroke-width="1.5" pointer-events="none"/>
                </g>
                <g id="zoomMin">
                        <use xlink:href="#rim" fill="#404040">
                                <set attributeName="fill" to="#808080" begin="zoomminus.mouseover" end="zoomminus.mouseout"/>
                        </use>
                        <path d="M-4,0h8" fill="none" stroke="white" stroke-width="1.5" pointer-events="none"/>
                </g>
                <g id="dirArrow">
                        <path fill="none" stroke="white" stroke-width="1.5" d="M0,-3.0v7 M-2.5,-0.5L0,-3.0L2.5,-0.5"/>
                </g>
               <g id="resetDef">
                       <use xlink:href="#rim2" fill="#404040">
                               <set attributeName="fill" to="#808080" begin="reset.mouseover" end="reset.mouseout"/>
                       </use>
               </g>
        </defs>

<script type="text/javascript">
var viewWidth = 587;
var viewHeight = 218;
var sectionId = 'dynsection-444';
</script>
<script xlink:href="../../svgpan.js"/>
<svg id="graph" class="graph">
<g id="viewport">
<title>ImGui::SetWindowFocus</title>
<polygon fill="white" stroke="none" points="-4,4 -4,-214 583,-214 583,4 -4,4"/>
<!-- Node59071 -->
<g id="node1" class="node"><title>Node59071</title>
<polygon fill="#bfbfbf" stroke="black" points="0,-133.5 0,-152.5 125,-152.5 125,-133.5 0,-133.5"/>
<text text-anchor="middle" x="62.5" y="-140.5" font-family="Helvetica,sans-Serif" font-size="10.00">ImGui::SetWindowFocus</text>
</g>
<!-- Node59072 -->
<g id="node2" class="node"><title>Node59072</title>
<g id="a_node2"><a xlink:href="../../df/d13/namespace_im_gui.html#abca25f22c02e73d5eb2e9c72c4557813" target="_top" xlink:title="ImGui::FindWindowByName">
<polygon fill="white" stroke="black" points="161,-171.5 161,-190.5 300,-190.5 300,-171.5 161,-171.5"/>
<text text-anchor="middle" x="230.5" y="-178.5" font-family="Helvetica,sans-Serif" font-size="10.00">ImGui::FindWindowByName</text>
</a>
</g>
</g>
<!-- Node59071&#45;&gt;Node59072 -->
<g id="edge1" class="edge"><title>Node59071&#45;&gt;Node59072</title>
<path fill="none" stroke="midnightblue" d="M105.389,-152.589C127.393,-157.626 154.555,-163.844 177.852,-169.177"/>
<polygon fill="midnightblue" stroke="midnightblue" points="177.384,-172.66 187.912,-171.48 178.946,-165.837 177.384,-172.66"/>
</g>
<!-- Node59074 -->
<g id="node4" class="node"><title>Node59074</title>
<g id="a_node4"><a xlink:href="../../df/d13/namespace_im_gui.html#ade4c08e7e7ad7bbfa4835248f5f3a7c6" target="_top" xlink:title="ImGui::FocusWindow">
<polygon fill="white" stroke="black" points="175.5,-95.5 175.5,-114.5 285.5,-114.5 285.5,-95.5 175.5,-95.5"/>
<text text-anchor="middle" x="230.5" y="-102.5" font-family="Helvetica,sans-Serif" font-size="10.00">ImGui::FocusWindow</text>
</a>
</g>
</g>
<!-- Node59071&#45;&gt;Node59074 -->
<g id="edge3" class="edge"><title>Node59071&#45;&gt;Node59074</title>
<path fill="none" stroke="midnightblue" d="M105.389,-133.411C127.393,-128.374 154.555,-122.156 177.852,-116.823"/>
<polygon fill="midnightblue" stroke="midnightblue" points="178.946,-120.163 187.912,-114.52 177.384,-113.34 178.946,-120.163"/>
</g>
<!-- Node59073 -->
<g id="node3" class="node"><title>Node59073</title>
<g id="a_node3"><a xlink:href="../../da/d72/imgui_8cpp.html#aa55e55e944172fc87494a342da489970" target="_top" xlink:title="ImHash">
<polygon fill="white" stroke="black" points="365.5,-190.5 365.5,-209.5 415.5,-209.5 415.5,-190.5 365.5,-190.5"/>
<text text-anchor="middle" x="390.5" y="-197.5" font-family="Helvetica,sans-Serif" font-size="10.00">ImHash</text>
</a>
</g>
</g>
<!-- Node59072&#45;&gt;Node59073 -->
<g id="edge2" class="edge"><title>Node59072&#45;&gt;Node59073</title>
<path fill="none" stroke="midnightblue" d="M300.341,-189.278C319.306,-191.559 339.064,-193.935 355.147,-195.869"/>
<polygon fill="midnightblue" stroke="midnightblue" points="354.793,-199.352 365.14,-197.071 355.629,-192.402 354.793,-199.352"/>
</g>
<!-- Node59075 -->
<g id="node5" class="node"><title>Node59075</title>
<g id="a_node5"><a xlink:href="../../df/d13/namespace_im_gui.html#a17ff60ad1e2669130ac38a04d16eb354" target="_top" xlink:title="ImGui::ClearActiveID">
<polygon fill="white" stroke="black" points="337.5,-152.5 337.5,-171.5 443.5,-171.5 443.5,-152.5 337.5,-152.5"/>
<text text-anchor="middle" x="390.5" y="-159.5" font-family="Helvetica,sans-Serif" font-size="10.00">ImGui::ClearActiveID</text>
</a>
</g>
</g>
<!-- Node59074&#45;&gt;Node59075 -->
<g id="edge4" class="edge"><title>Node59074&#45;&gt;Node59075</title>
<path fill="none" stroke="midnightblue" d="M257.677,-114.581C278.802,-122.297 309.294,-133.402 336,-143 341.526,-144.986 347.378,-147.077 353.104,-149.116"/>
<polygon fill="midnightblue" stroke="midnightblue" points="351.949,-152.42 362.543,-152.471 354.293,-145.824 351.949,-152.42"/>
</g>
<!-- Node59077 -->
<g id="node7" class="node"><title>Node59077</title>
<g id="a_node7"><a xlink:href="../../d9/de0/class_im_vector.html#a3e4424d3fca190894598a6575f9d2401" target="_top" xlink:title="ImVector::back">
<polygon fill="white" stroke="black" points="349,-114.5 349,-133.5 432,-133.5 432,-114.5 349,-114.5"/>
<text text-anchor="middle" x="390.5" y="-121.5" font-family="Helvetica,sans-Serif" font-size="10.00">ImVector::back</text>
</a>
</g>
</g>
<!-- Node59074&#45;&gt;Node59077 -->
<g id="edge6" class="edge"><title>Node59074&#45;&gt;Node59077</title>
<path fill="none" stroke="midnightblue" d="M285.875,-111.539C302.877,-113.583 321.57,-115.831 338.343,-117.848"/>
<polygon fill="midnightblue" stroke="midnightblue" points="338.16,-121.351 348.506,-119.07 338.995,-114.401 338.16,-121.351"/>
</g>
<!-- Node59078 -->
<g id="node8" class="node"><title>Node59078</title>
<g id="a_node8"><a xlink:href="../../d9/de0/class_im_vector.html#a1e1fd9b678be9d4b4432fbefde976045" target="_top" xlink:title="ImVector::erase">
<polygon fill="white" stroke="black" points="347.5,-76.5 347.5,-95.5 433.5,-95.5 433.5,-76.5 347.5,-76.5"/>
<text text-anchor="middle" x="390.5" y="-83.5" font-family="Helvetica,sans-Serif" font-size="10.00">ImVector::erase</text>
</a>
</g>
</g>
<!-- Node59074&#45;&gt;Node59078 -->
<g id="edge7" class="edge"><title>Node59074&#45;&gt;Node59078</title>
<path fill="none" stroke="midnightblue" d="M285.875,-98.4613C302.507,-96.4612 320.758,-94.2664 337.246,-92.2837"/>
<polygon fill="midnightblue" stroke="midnightblue" points="337.744,-95.7491 347.255,-91.0801 336.908,-88.7992 337.744,-95.7491"/>
</g>
<!-- Node59079 -->
<g id="node9" class="node"><title>Node59079</title>
<g id="a_node9"><a xlink:href="../../d9/de0/class_im_vector.html#a300a8b559cd87a78063046ef81151bce" target="_top" xlink:title="ImVector::begin">
<polygon fill="white" stroke="black" points="348,-38.5 348,-57.5 433,-57.5 433,-38.5 348,-38.5"/>
<text text-anchor="middle" x="390.5" y="-45.5" font-family="Helvetica,sans-Serif" font-size="10.00">ImVector::begin</text>
</a>
</g>
</g>
<!-- Node59074&#45;&gt;Node59079 -->
<g id="edge8" class="edge"><title>Node59074&#45;&gt;Node59079</title>
<path fill="none" stroke="midnightblue" d="M257.677,-95.4192C278.802,-87.7025 309.294,-76.5975 336,-67 341.526,-65.0139 347.378,-62.9232 353.104,-60.8841"/>
<polygon fill="midnightblue" stroke="midnightblue" points="354.293,-64.1761 362.543,-57.5288 351.949,-57.5804 354.293,-64.1761"/>
</g>
<!-- Node59080 -->
<g id="node10" class="node"><title>Node59080</title>
<g id="a_node10"><a xlink:href="../../d9/de0/class_im_vector.html#a68387993f2a5f5c3b2a7139d9ab778b8" target="_top" xlink:title="ImVector::push_back">
<polygon fill="white" stroke="black" points="336,-0.5 336,-19.5 445,-19.5 445,-0.5 336,-0.5"/>
<text text-anchor="middle" x="390.5" y="-7.5" font-family="Helvetica,sans-Serif" font-size="10.00">ImVector::push_back</text>
</a>
</g>
</g>
<!-- Node59074&#45;&gt;Node59080 -->
<g id="edge9" class="edge"><title>Node59074&#45;&gt;Node59080</title>
<path fill="none" stroke="midnightblue" d="M242.387,-95.4239C260.648,-79.7585 299.087,-48.4535 336,-29 339.932,-26.9278 344.139,-24.996 348.402,-23.2196"/>
<polygon fill="midnightblue" stroke="midnightblue" points="349.689,-26.4743 357.738,-19.5845 347.149,-19.9513 349.689,-26.4743"/>
</g>
<!-- Node59076 -->
<g id="node6" class="node"><title>Node59076</title>
<g id="a_node6"><a xlink:href="../../df/d13/namespace_im_gui.html#a27b8ace13a8c421ee8405f0cbebe4ead" target="_top" xlink:title="ImGui::SetActiveID">
<polygon fill="white" stroke="black" points="481,-152.5 481,-171.5 579,-171.5 579,-152.5 481,-152.5"/>
<text text-anchor="middle" x="530" y="-159.5" font-family="Helvetica,sans-Serif" font-size="10.00">ImGui::SetActiveID</text>
</a>
</g>
</g>
<!-- Node59075&#45;&gt;Node59076 -->
<g id="edge5" class="edge"><title>Node59075&#45;&gt;Node59076</title>
<path fill="none" stroke="midnightblue" d="M443.875,-162C452.603,-162 461.704,-162 470.572,-162"/>
<polygon fill="midnightblue" stroke="midnightblue" points="470.837,-165.5 480.837,-162 470.837,-158.5 470.837,-165.5"/>
</g>
</g>
</svg>
        <g id="navigator" transform="translate(0 0)" fill="#404254">
                <rect fill="#f2f5e9" fill-opacity="0.5" stroke="#606060" stroke-width=".5" x="0" y="0" width="60" height="60"/>
                <use id="zoomplus" xlink:href="#zoomPlus" x="17" y="9" onmousedown="handleZoom(evt,'in')"/>
                <use id="zoomminus" xlink:href="#zoomMin" x="42" y="9" onmousedown="handleZoom(evt,'out')"/>
                <use id="reset" xlink:href="#resetDef" x="30" y="36" onmousedown="handleReset()"/>
                <g id="arrowUp" xlink:href="#dirArrow" transform="translate(30 24)" onmousedown="handlePan(0,-1)">
                  <use xlink:href="#rim" fill="#404040">
                        <set attributeName="fill" to="#808080" begin="arrowUp.mouseover" end="arrowUp.mouseout"/>
                  </use>
                  <path fill="none" stroke="white" stroke-width="1.5" d="M0,-3.0v7 M-2.5,-0.5L0,-3.0L2.5,-0.5"/>
                </g>
                <g id="arrowRight" xlink:href="#dirArrow" transform="rotate(90) translate(36 -43)" onmousedown="handlePan(1,0)">
                  <use xlink:href="#rim" fill="#404040">
                        <set attributeName="fill" to="#808080" begin="arrowRight.mouseover" end="arrowRight.mouseout"/>
                  </use>
                  <path fill="none" stroke="white" stroke-width="1.5" d="M0,-3.0v7 M-2.5,-0.5L0,-3.0L2.5,-0.5"/>
                </g>
                <g id="arrowDown" xlink:href="#dirArrow" transform="rotate(180) translate(-30 -48)" onmousedown="handlePan(0,1)">
                  <use xlink:href="#rim" fill="#404040">
                        <set attributeName="fill" to="#808080" begin="arrowDown.mouseover" end="arrowDown.mouseout"/>
                  </use>
                  <path fill="none" stroke="white" stroke-width="1.5" d="M0,-3.0v7 M-2.5,-0.5L0,-3.0L2.5,-0.5"/>
                </g>
                <g id="arrowLeft" xlink:href="#dirArrow" transform="rotate(270) translate(-36 17)" onmousedown="handlePan(-1,0)">
                  <use xlink:href="#rim" fill="#404040">
                        <set attributeName="fill" to="#808080" begin="arrowLeft.mouseover" end="arrowLeft.mouseout"/>
                  </use>
                  <path fill="none" stroke="white" stroke-width="1.5" d="M0,-3.0v7 M-2.5,-0.5L0,-3.0L2.5,-0.5"/>
                </g>
        </g>
        <svg viewBox="0 0 15 15" width="100%" height="30px" preserveAspectRatio="xMaxYMin meet">
         <g id="arrow_out" transform="scale(0.3 0.3)">
          <a xlink:href="namespace_im_gui_aa612adbb975051090898f094a1608f24_cgraph_org.svg" target="_base">
           <rect id="button" ry="5" rx="5" y="6" x="6" height="38" width="38"
                fill="#f2f5e9" fill-opacity="0.5" stroke="#606060" stroke-width="1.0"/>
           <path id="arrow"
             d="M 11.500037,31.436501 C 11.940474,20.09759 22.043105,11.32322 32.158766,21.979434 L 37.068811,17.246167 C 37.068811,17.246167 37.088388,32 37.088388,32 L 22.160133,31.978069 C 22.160133,31.978069 26.997745,27.140456 26.997745,27.140456 C 18.528582,18.264221 13.291696,25.230495 11.500037,31.436501 z"
             style="fill:#404040;"/>
          </a>
         </g>
        </svg>
</svg>
