<?xml version="1.0" encoding="UTF-8" standalone="no"?>
<!DOCTYPE svg PUBLIC "-//W3C//DTD SVG 1.1//EN"
 "http://www.w3.org/Graphics/SVG/1.1/DTD/svg11.dtd">
<!-- Generated by graphviz version 2.38.0 (20140413.2041)
 -->
<!-- Title: ImGui::LogToClipboard Pages: 1 -->
<!--zoomable 104 -->
<svg id="main" version="1.1" xmlns="http://www.w3.org/2000/svg" xmlns:xlink="http://www.w3.org/1999/xlink" xml:space="preserve" onload="init(evt)">
<style type="text/css"><![CDATA[
.edge:hover path { stroke: red; }
.edge:hover polygon { stroke: red; fill: red; }
]]></style>
<script type="text/javascript"><![CDATA[
var edges = document.getElementsByTagName('g');
if (edges && edges.length) {
  for (var i=0;i<edges.length;i++) {
    if (edges[i].id.substr(0,4)=='edge') {
      edges[i].setAttribute('class','edge');
    }
  }
}
]]></script>
        <defs>
                <circle id="rim" cx="0" cy="0" r="7"/>
                <circle id="rim2" cx="0" cy="0" r="3.5"/>
                <g id="zoomPlus">
                        <use xlink:href="#rim" fill="#404040">
                                <set attributeName="fill" to="#808080" begin="zoomplus.mouseover" end="zoomplus.mouseout"/>
                        </use>
                        <path d="M-4,0h8M0,-4v8" fill="none" stroke="white" stroke-width="1.5" pointer-events="none"/>
                </g>
                <g id="zoomMin">
                        <use xlink:href="#rim" fill="#404040">
                                <set attributeName="fill" to="#808080" begin="zoomminus.mouseover" end="zoomminus.mouseout"/>
                        </use>
                        <path d="M-4,0h8" fill="none" stroke="white" stroke-width="1.5" pointer-events="none"/>
                </g>
                <g id="dirArrow">
                        <path fill="none" stroke="white" stroke-width="1.5" d="M0,-3.0v7 M-2.5,-0.5L0,-3.0L2.5,-0.5"/>
                </g>
               <g id="resetDef">
                       <use xlink:href="#rim2" fill="#404040">
                               <set attributeName="fill" to="#808080" begin="reset.mouseover" end="reset.mouseout"/>
                       </use>
               </g>
        </defs>

<script type="text/javascript">
var viewWidth = 764;
var viewHeight = 104;
var sectionId = 'dynsection-310';
</script>
<script xlink:href="../../svgpan.js"/>
<svg id="graph" class="graph">
<g id="viewport">
<title>ImGui::LogToClipboard</title>
<polygon fill="white" stroke="none" points="-4,4 -4,-100 760,-100 760,4 -4,4"/>
<!-- Node37803 -->
<g id="node1" class="node"><title>Node37803</title>
<polygon fill="#bfbfbf" stroke="black" points="0,-38.5 0,-57.5 115,-57.5 115,-38.5 0,-38.5"/>
<text text-anchor="middle" x="57.5" y="-45.5" font-family="Helvetica,sans-Serif" font-size="10.00">ImGui::LogToClipboard</text>
</g>
<!-- Node37804 -->
<g id="node2" class="node"><title>Node37804</title>
<g id="a_node2"><a xlink:href="../../df/d13/namespace_im_gui.html#a7bd295da4be19bab98262c76fcaeb4fb" target="_top" xlink:title="ImGui::LogButtons">
<polygon fill="white" stroke="black" points="160,-38.5 160,-57.5 258,-57.5 258,-38.5 160,-38.5"/>
<text text-anchor="middle" x="209" y="-45.5" font-family="Helvetica,sans-Serif" font-size="10.00">ImGui::LogButtons</text>
</a>
</g>
</g>
<!-- Node37803&#45;&gt;Node37804 -->
<g id="edge1" class="edge"><title>Node37803&#45;&gt;Node37804</title>
<path fill="none" stroke="midnightblue" d="M125.149,-48C136.787,-48 148.689,-48 159.71,-48"/>
<polygon fill="midnightblue" stroke="midnightblue" points="125.02,-44.5001 115.02,-48 125.02,-51.5001 125.02,-44.5001"/>
</g>
<!-- Node37807 -->
<g id="node5" class="node"><title>Node37807</title>
<g id="a_node5"><a xlink:href="../../df/d13/namespace_im_gui.html#ab2eb3dec78d054fe3feab1c091ec5de5" target="_top" xlink:title="ImGui::ShowStyleEditor">
<polygon fill="white" stroke="black" points="303,-0.5 303,-19.5 423,-19.5 423,-0.5 303,-0.5"/>
<text text-anchor="middle" x="363" y="-7.5" font-family="Helvetica,sans-Serif" font-size="10.00">ImGui::ShowStyleEditor</text>
</a>
</g>
</g>
<!-- Node37803&#45;&gt;Node37807 -->
<g id="edge5" class="edge"><title>Node37803&#45;&gt;Node37807</title>
<path fill="none" stroke="midnightblue" d="M109.752,-36.4C123.125,-33.6683 137.558,-30.9793 151,-29 201.943,-21.4988 260.271,-16.5197 302.672,-13.5475"/>
<polygon fill="midnightblue" stroke="midnightblue" points="108.838,-33.0152 99.7653,-38.4863 110.27,-39.8673 108.838,-33.0152"/>
</g>
<!-- Node37808 -->
<g id="node6" class="node"><title>Node37808</title>
<g id="a_node6"><a xlink:href="../../d1/db8/struct_example_app_log.html#a5ad3a4bdb89171b84aeaff96948a1f77" target="_top" xlink:title="ExampleAppLog::Draw">
<polygon fill="white" stroke="black" points="151,-76.5 151,-95.5 267,-95.5 267,-76.5 151,-76.5"/>
<text text-anchor="middle" x="209" y="-83.5" font-family="Helvetica,sans-Serif" font-size="10.00">ExampleAppLog::Draw</text>
</a>
</g>
</g>
<!-- Node37803&#45;&gt;Node37808 -->
<g id="edge8" class="edge"><title>Node37803&#45;&gt;Node37808</title>
<path fill="none" stroke="midnightblue" d="M106.152,-60.1121C126.973,-65.4044 151.038,-71.5213 170.546,-76.4799"/>
<polygon fill="midnightblue" stroke="midnightblue" points="106.779,-56.6604 96.2252,-57.589 105.055,-63.4447 106.779,-56.6604"/>
</g>
<!-- Node37805 -->
<g id="node3" class="node"><title>Node37805</title>
<g id="a_node3"><a xlink:href="../../df/d13/namespace_im_gui.html#a52880ae1ecdd704a083558d31c9bfa50" target="_top" xlink:title="ImGui::ShowTestWindow">
<polygon fill="white" stroke="black" points="459,-38.5 459,-57.5 584,-57.5 584,-38.5 459,-38.5"/>
<text text-anchor="middle" x="521.5" y="-45.5" font-family="Helvetica,sans-Serif" font-size="10.00">ImGui::ShowTestWindow</text>
</a>
</g>
</g>
<!-- Node37804&#45;&gt;Node37805 -->
<g id="edge2" class="edge"><title>Node37804&#45;&gt;Node37805</title>
<path fill="none" stroke="midnightblue" d="M268.34,-48C322.686,-48 403.434,-48 458.828,-48"/>
<polygon fill="midnightblue" stroke="midnightblue" points="268.175,-44.5001 258.175,-48 268.175,-51.5001 268.175,-44.5001"/>
</g>
<!-- Node37806 -->
<g id="node4" class="node"><title>Node37806</title>
<g id="a_node4"><a xlink:href="../../d5/d0a/imgui__demo_8cpp.html#a4dadf5e7b393795666d19af9694037cf" target="_top" xlink:title="ShowExampleAppLongText">
<polygon fill="white" stroke="black" points="620,-38.5 620,-57.5 756,-57.5 756,-38.5 620,-38.5"/>
<text text-anchor="middle" x="688" y="-45.5" font-family="Helvetica,sans-Serif" font-size="10.00">ShowExampleAppLongText</text>
</a>
</g>
</g>
<!-- Node37805&#45;&gt;Node37806 -->
<g id="edge3" class="edge"><title>Node37805&#45;&gt;Node37806</title>
<path fill="none" stroke="midnightblue" d="M594.464,-41.2971C602.942,-41.2191 611.567,-41.238 619.973,-41.3538"/>
<polygon fill="midnightblue" stroke="midnightblue" points="594.172,-37.8008 584.222,-41.4404 594.27,-44.8001 594.172,-37.8008"/>
</g>
<!-- Node37806&#45;&gt;Node37805 -->
<g id="edge4" class="edge"><title>Node37806&#45;&gt;Node37805</title>
<path fill="none" stroke="midnightblue" d="M609.916,-54.7381C601.301,-54.7777 592.609,-54.7182 584.222,-54.5596"/>
<polygon fill="midnightblue" stroke="midnightblue" points="610.005,-58.2376 619.973,-54.6462 609.941,-51.2379 610.005,-58.2376"/>
</g>
<!-- Node37807&#45;&gt;Node37805 -->
<g id="edge6" class="edge"><title>Node37807&#45;&gt;Node37805</title>
<path fill="none" stroke="midnightblue" d="M413.289,-21.968C435.22,-27.2931 460.685,-33.4762 481.292,-38.4799"/>
<polygon fill="midnightblue" stroke="midnightblue" points="414.035,-18.5475 403.492,-19.589 412.383,-25.3498 414.035,-18.5475"/>
</g>
<!-- Node37807&#45;&gt;Node37806 -->
<g id="edge7" class="edge"><title>Node37807&#45;&gt;Node37806</title>
<path fill="none" stroke="midnightblue" d="M433.623,-14.2916C476.993,-17.3909 533.88,-22.229 584,-29 602.651,-31.5196 623.056,-35.1076 640.75,-38.4881"/>
<polygon fill="midnightblue" stroke="midnightblue" points="433.684,-10.7874 423.463,-13.5797 433.194,-17.7703 433.684,-10.7874"/>
</g>
<!-- Node37809 -->
<g id="node7" class="node"><title>Node37809</title>
<g id="a_node7"><a xlink:href="../../d5/d0a/imgui__demo_8cpp.html#ad0303cf1f675002eb4e68c17a47b3f88" target="_top" xlink:title="ShowExampleAppLog">
<polygon fill="white" stroke="black" points="307,-76.5 307,-95.5 419,-95.5 419,-76.5 307,-76.5"/>
<text text-anchor="middle" x="363" y="-83.5" font-family="Helvetica,sans-Serif" font-size="10.00">ShowExampleAppLog</text>
</a>
</g>
</g>
<!-- Node37808&#45;&gt;Node37809 -->
<g id="edge9" class="edge"><title>Node37808&#45;&gt;Node37809</title>
<path fill="none" stroke="midnightblue" d="M277.261,-86C287.174,-86 297.289,-86 306.917,-86"/>
<polygon fill="midnightblue" stroke="midnightblue" points="277.032,-82.5001 267.032,-86 277.032,-89.5001 277.032,-82.5001"/>
</g>
<!-- Node37809&#45;&gt;Node37805 -->
<g id="edge10" class="edge"><title>Node37809&#45;&gt;Node37805</title>
<path fill="none" stroke="midnightblue" d="M413.289,-74.032C435.22,-68.7069 460.685,-62.5238 481.292,-57.5201"/>
<polygon fill="midnightblue" stroke="midnightblue" points="412.383,-70.6502 403.492,-76.411 414.035,-77.4525 412.383,-70.6502"/>
</g>
</g>
</svg>
        <g id="navigator" transform="translate(0 0)" fill="#404254">
                <rect fill="#f2f5e9" fill-opacity="0.5" stroke="#606060" stroke-width=".5" x="0" y="0" width="60" height="60"/>
                <use id="zoomplus" xlink:href="#zoomPlus" x="17" y="9" onmousedown="handleZoom(evt,'in')"/>
                <use id="zoomminus" xlink:href="#zoomMin" x="42" y="9" onmousedown="handleZoom(evt,'out')"/>
                <use id="reset" xlink:href="#resetDef" x="30" y="36" onmousedown="handleReset()"/>
                <g id="arrowUp" xlink:href="#dirArrow" transform="translate(30 24)" onmousedown="handlePan(0,-1)">
                  <use xlink:href="#rim" fill="#404040">
                        <set attributeName="fill" to="#808080" begin="arrowUp.mouseover" end="arrowUp.mouseout"/>
                  </use>
                  <path fill="none" stroke="white" stroke-width="1.5" d="M0,-3.0v7 M-2.5,-0.5L0,-3.0L2.5,-0.5"/>
                </g>
                <g id="arrowRight" xlink:href="#dirArrow" transform="rotate(90) translate(36 -43)" onmousedown="handlePan(1,0)">
                  <use xlink:href="#rim" fill="#404040">
                        <set attributeName="fill" to="#808080" begin="arrowRight.mouseover" end="arrowRight.mouseout"/>
                  </use>
                  <path fill="none" stroke="white" stroke-width="1.5" d="M0,-3.0v7 M-2.5,-0.5L0,-3.0L2.5,-0.5"/>
                </g>
                <g id="arrowDown" xlink:href="#dirArrow" transform="rotate(180) translate(-30 -48)" onmousedown="handlePan(0,1)">
                  <use xlink:href="#rim" fill="#404040">
                        <set attributeName="fill" to="#808080" begin="arrowDown.mouseover" end="arrowDown.mouseout"/>
                  </use>
                  <path fill="none" stroke="white" stroke-width="1.5" d="M0,-3.0v7 M-2.5,-0.5L0,-3.0L2.5,-0.5"/>
                </g>
                <g id="arrowLeft" xlink:href="#dirArrow" transform="rotate(270) translate(-36 17)" onmousedown="handlePan(-1,0)">
                  <use xlink:href="#rim" fill="#404040">
                        <set attributeName="fill" to="#808080" begin="arrowLeft.mouseover" end="arrowLeft.mouseout"/>
                  </use>
                  <path fill="none" stroke="white" stroke-width="1.5" d="M0,-3.0v7 M-2.5,-0.5L0,-3.0L2.5,-0.5"/>
                </g>
        </g>
        <svg viewBox="0 0 15 15" width="100%" height="30px" preserveAspectRatio="xMaxYMin meet">
         <g id="arrow_out" transform="scale(0.3 0.3)">
          <a xlink:href="namespace_im_gui_a81add991d176834b8a6e315dfc78e4f7_icgraph_org.svg" target="_base">
           <rect id="button" ry="5" rx="5" y="6" x="6" height="38" width="38"
                fill="#f2f5e9" fill-opacity="0.5" stroke="#606060" stroke-width="1.0"/>
           <path id="arrow"
             d="M 11.500037,31.436501 C 11.940474,20.09759 22.043105,11.32322 32.158766,21.979434 L 37.068811,17.246167 C 37.068811,17.246167 37.088388,32 37.088388,32 L 22.160133,31.978069 C 22.160133,31.978069 26.997745,27.140456 26.997745,27.140456 C 18.528582,18.264221 13.291696,25.230495 11.500037,31.436501 z"
             style="fill:#404040;"/>
          </a>
         </g>
        </svg>
</svg>
