<?xml version="1.0" encoding="UTF-8" standalone="no"?>
<!DOCTYPE svg PUBLIC "-//W3C//DTD SVG 1.1//EN"
 "http://www.w3.org/Graphics/SVG/1.1/DTD/svg11.dtd">
<!-- Generated by graphviz version 2.38.0 (20140413.2041)
 -->
<!-- Title: ImGui::LogToTTY Pages: 1 -->
<svg width="589pt" height="66pt"
 viewBox="0.00 0.00 589.00 66.00" xmlns="http://www.w3.org/2000/svg" xmlns:xlink="http://www.w3.org/1999/xlink">
<g id="graph0" class="graph" transform="scale(1 1) rotate(0) translate(4 62)">
<title>ImGui::LogToTTY</title>
<polygon fill="white" stroke="none" points="-4,4 -4,-62 585,-62 585,4 -4,4"/>
<!-- Node37819 -->
<g id="node1" class="node"><title>Node37819</title>
<polygon fill="#bfbfbf" stroke="black" points="0,-19.5 0,-38.5 92,-38.5 92,-19.5 0,-19.5"/>
<text text-anchor="middle" x="46" y="-26.5" font-family="Helvetica,sans-Serif" font-size="10.00">ImGui::LogToTTY</text>
</g>
<!-- Node37820 -->
<g id="node2" class="node"><title>Node37820</title>
<g id="a_node2"><a xlink:href="../../df/d13/namespace_im_gui.html#a7bd295da4be19bab98262c76fcaeb4fb" target="_top" xlink:title="ImGui::LogButtons">
<polygon fill="white" stroke="black" points="139,-38.5 139,-57.5 237,-57.5 237,-38.5 139,-38.5"/>
<text text-anchor="middle" x="188" y="-45.5" font-family="Helvetica,sans-Serif" font-size="10.00">ImGui::LogButtons</text>
</a>
</g>
</g>
<!-- Node37819&#45;&gt;Node37820 -->
<g id="edge1" class="edge"><title>Node37819&#45;&gt;Node37820</title>
<path fill="none" stroke="midnightblue" d="M102.039,-36.4695C114.124,-38.1097 126.833,-39.8345 138.633,-41.4359"/>
<polygon fill="midnightblue" stroke="midnightblue" points="102.447,-32.993 92.0675,-35.1163 101.506,-39.9294 102.447,-32.993"/>
</g>
<!-- Node37823 -->
<g id="node5" class="node"><title>Node37823</title>
<g id="a_node5"><a xlink:href="../../df/d13/namespace_im_gui.html#ab2eb3dec78d054fe3feab1c091ec5de5" target="_top" xlink:title="ImGui::ShowStyleEditor">
<polygon fill="white" stroke="black" points="128,-0.5 128,-19.5 248,-19.5 248,-0.5 128,-0.5"/>
<text text-anchor="middle" x="188" y="-7.5" font-family="Helvetica,sans-Serif" font-size="10.00">ImGui::ShowStyleEditor</text>
</a>
</g>
</g>
<!-- Node37819&#45;&gt;Node37823 -->
<g id="edge5" class="edge"><title>Node37819&#45;&gt;Node37823</title>
<path fill="none" stroke="midnightblue" d="M102.2,-21.5085C110.659,-20.3605 119.421,-19.1715 127.959,-18.0127"/>
<polygon fill="midnightblue" stroke="midnightblue" points="101.506,-18.0706 92.0675,-22.8837 102.447,-25.007 101.506,-18.0706"/>
</g>
<!-- Node37821 -->
<g id="node3" class="node"><title>Node37821</title>
<g id="a_node3"><a xlink:href="../../df/d13/namespace_im_gui.html#a52880ae1ecdd704a083558d31c9bfa50" target="_top" xlink:title="ImGui::ShowTestWindow">
<polygon fill="white" stroke="black" points="284,-38.5 284,-57.5 409,-57.5 409,-38.5 284,-38.5"/>
<text text-anchor="middle" x="346.5" y="-45.5" font-family="Helvetica,sans-Serif" font-size="10.00">ImGui::ShowTestWindow</text>
</a>
</g>
</g>
<!-- Node37820&#45;&gt;Node37821 -->
<g id="edge2" class="edge"><title>Node37820&#45;&gt;Node37821</title>
<path fill="none" stroke="midnightblue" d="M247.471,-48C259.346,-48 271.873,-48 283.854,-48"/>
<polygon fill="midnightblue" stroke="midnightblue" points="247.232,-44.5001 237.232,-48 247.232,-51.5001 247.232,-44.5001"/>
</g>
<!-- Node37822 -->
<g id="node4" class="node"><title>Node37822</title>
<g id="a_node4"><a xlink:href="../../d5/d0a/imgui__demo_8cpp.html#a4dadf5e7b393795666d19af9694037cf" target="_top" xlink:title="ShowExampleAppLongText">
<polygon fill="white" stroke="black" points="445,-38.5 445,-57.5 581,-57.5 581,-38.5 445,-38.5"/>
<text text-anchor="middle" x="513" y="-45.5" font-family="Helvetica,sans-Serif" font-size="10.00">ShowExampleAppLongText</text>
</a>
</g>
</g>
<!-- Node37821&#45;&gt;Node37822 -->
<g id="edge3" class="edge"><title>Node37821&#45;&gt;Node37822</title>
<path fill="none" stroke="midnightblue" d="M419.464,-41.2971C427.942,-41.2191 436.567,-41.238 444.973,-41.3538"/>
<polygon fill="midnightblue" stroke="midnightblue" points="419.172,-37.8008 409.222,-41.4404 419.27,-44.8001 419.172,-37.8008"/>
</g>
<!-- Node37822&#45;&gt;Node37821 -->
<g id="edge4" class="edge"><title>Node37822&#45;&gt;Node37821</title>
<path fill="none" stroke="midnightblue" d="M434.916,-54.7381C426.301,-54.7777 417.609,-54.7182 409.222,-54.5596"/>
<polygon fill="midnightblue" stroke="midnightblue" points="435.005,-58.2376 444.973,-54.6462 434.941,-51.2379 435.005,-58.2376"/>
</g>
<!-- Node37823&#45;&gt;Node37821 -->
<g id="edge6" class="edge"><title>Node37823&#45;&gt;Node37821</title>
<path fill="none" stroke="midnightblue" d="M238.289,-21.968C260.22,-27.2931 285.685,-33.4762 306.292,-38.4799"/>
<polygon fill="midnightblue" stroke="midnightblue" points="239.035,-18.5475 228.492,-19.589 237.383,-25.3498 239.035,-18.5475"/>
</g>
<!-- Node37823&#45;&gt;Node37822 -->
<g id="edge7" class="edge"><title>Node37823&#45;&gt;Node37822</title>
<path fill="none" stroke="midnightblue" d="M258.623,-14.2916C301.993,-17.3909 358.88,-22.229 409,-29 427.651,-31.5196 448.056,-35.1076 465.75,-38.4881"/>
<polygon fill="midnightblue" stroke="midnightblue" points="258.684,-10.7874 248.463,-13.5797 258.194,-17.7703 258.684,-10.7874"/>
</g>
</g>
</svg>
