<?xml version="1.0" encoding="UTF-8" standalone="no"?>
<!DOCTYPE svg PUBLIC "-//W3C//DTD SVG 1.1//EN"
 "http://www.w3.org/Graphics/SVG/1.1/DTD/svg11.dtd">
<!-- Generated by graphviz version 2.38.0 (20140413.2041)
 -->
<!-- Title: ImGui::IsMouseHoveringWindow Pages: 1 -->
<!--zoomable 39 -->
<svg id="main" version="1.1" xmlns="http://www.w3.org/2000/svg" xmlns:xlink="http://www.w3.org/1999/xlink" xml:space="preserve" onload="init(evt)">
<style type="text/css"><![CDATA[
.edge:hover path { stroke: red; }
.edge:hover polygon { stroke: red; fill: red; }
]]></style>
<script type="text/javascript"><![CDATA[
var edges = document.getElementsByTagName('g');
if (edges && edges.length) {
  for (var i=0;i<edges.length;i++) {
    if (edges[i].id.substr(0,4)=='edge') {
      edges[i].setAttribute('class','edge');
    }
  }
}
]]></script>
        <defs>
                <circle id="rim" cx="0" cy="0" r="7"/>
                <circle id="rim2" cx="0" cy="0" r="3.5"/>
                <g id="zoomPlus">
                        <use xlink:href="#rim" fill="#404040">
                                <set attributeName="fill" to="#808080" begin="zoomplus.mouseover" end="zoomplus.mouseout"/>
                        </use>
                        <path d="M-4,0h8M0,-4v8" fill="none" stroke="white" stroke-width="1.5" pointer-events="none"/>
                </g>
                <g id="zoomMin">
                        <use xlink:href="#rim" fill="#404040">
                                <set attributeName="fill" to="#808080" begin="zoomminus.mouseover" end="zoomminus.mouseout"/>
                        </use>
                        <path d="M-4,0h8" fill="none" stroke="white" stroke-width="1.5" pointer-events="none"/>
                </g>
                <g id="dirArrow">
                        <path fill="none" stroke="white" stroke-width="1.5" d="M0,-3.0v7 M-2.5,-0.5L0,-3.0L2.5,-0.5"/>
                </g>
               <g id="resetDef">
                       <use xlink:href="#rim2" fill="#404040">
                               <set attributeName="fill" to="#808080" begin="reset.mouseover" end="reset.mouseout"/>
                       </use>
               </g>
        </defs>

<script type="text/javascript">
var viewWidth = 1005;
var viewHeight = 39;
var sectionId = 'dynsection-274';
</script>
<script xlink:href="../../svgpan.js"/>
<svg id="graph" class="graph">
<g id="viewport">
<title>ImGui::IsMouseHoveringWindow</title>
<polygon fill="white" stroke="none" points="-4,4 -4,-35 1001,-35 1001,4 -4,4"/>
<!-- Node33853 -->
<g id="node1" class="node"><title>Node33853</title>
<polygon fill="#bfbfbf" stroke="black" points="0,-6 0,-25 156,-25 156,-6 0,-6"/>
<text text-anchor="middle" x="78" y="-13" font-family="Helvetica,sans-Serif" font-size="10.00">ImGui::IsMouseHoveringWindow</text>
</g>
<!-- Node33854 -->
<g id="node2" class="node"><title>Node33854</title>
<g id="a_node2"><a xlink:href="../../df/d13/namespace_im_gui.html#a920b5420019fe800abae14da3067b326" target="_top" xlink:title="ImGui::BeginPopupContext\lWindow">
<polygon fill="white" stroke="black" points="192,-0.5 192,-30.5 326,-30.5 326,-0.5 192,-0.5"/>
<text text-anchor="start" x="200" y="-18.5" font-family="Helvetica,sans-Serif" font-size="10.00">ImGui::BeginPopupContext</text>
<text text-anchor="middle" x="259" y="-7.5" font-family="Helvetica,sans-Serif" font-size="10.00">Window</text>
</a>
</g>
</g>
<!-- Node33853&#45;&gt;Node33854 -->
<g id="edge1" class="edge"><title>Node33853&#45;&gt;Node33854</title>
<path fill="none" stroke="midnightblue" d="M166.321,-15.5C174.961,-15.5 183.628,-15.5 191.999,-15.5"/>
<polygon fill="midnightblue" stroke="midnightblue" points="166.211,-12.0001 156.211,-15.5 166.211,-19.0001 166.211,-12.0001"/>
</g>
<!-- Node33855 -->
<g id="node3" class="node"><title>Node33855</title>
<g id="a_node3"><a xlink:href="../../de/d1c/struct_example_app_console.html#a0518a09c7e8648dd52c7c06df19ac17a" target="_top" xlink:title="ExampleAppConsole::Draw">
<polygon fill="white" stroke="black" points="362,-6 362,-25 497,-25 497,-6 362,-6"/>
<text text-anchor="middle" x="429.5" y="-13" font-family="Helvetica,sans-Serif" font-size="10.00">ExampleAppConsole::Draw</text>
</a>
</g>
</g>
<!-- Node33854&#45;&gt;Node33855 -->
<g id="edge2" class="edge"><title>Node33854&#45;&gt;Node33855</title>
<path fill="none" stroke="midnightblue" d="M336.366,-15.5C344.835,-15.5 353.411,-15.5 361.748,-15.5"/>
<polygon fill="midnightblue" stroke="midnightblue" points="336.112,-12.0001 326.112,-15.5 336.112,-19.0001 336.112,-12.0001"/>
</g>
<!-- Node33856 -->
<g id="node4" class="node"><title>Node33856</title>
<g id="a_node4"><a xlink:href="../../d5/d0a/imgui__demo_8cpp.html#a8e5624314ae6402dd0ddf2a62aa91473" target="_top" xlink:title="ShowExampleAppConsole">
<polygon fill="white" stroke="black" points="533,-6 533,-25 664,-25 664,-6 533,-6"/>
<text text-anchor="middle" x="598.5" y="-13" font-family="Helvetica,sans-Serif" font-size="10.00">ShowExampleAppConsole</text>
</a>
</g>
</g>
<!-- Node33855&#45;&gt;Node33856 -->
<g id="edge3" class="edge"><title>Node33855&#45;&gt;Node33856</title>
<path fill="none" stroke="midnightblue" d="M507.704,-15.5C516.154,-15.5 524.691,-15.5 532.965,-15.5"/>
<polygon fill="midnightblue" stroke="midnightblue" points="507.463,-12.0001 497.463,-15.5 507.463,-19.0001 507.463,-12.0001"/>
</g>
<!-- Node33857 -->
<g id="node5" class="node"><title>Node33857</title>
<g id="a_node5"><a xlink:href="../../df/d13/namespace_im_gui.html#a52880ae1ecdd704a083558d31c9bfa50" target="_top" xlink:title="ImGui::ShowTestWindow">
<polygon fill="white" stroke="black" points="700,-6 700,-25 825,-25 825,-6 700,-6"/>
<text text-anchor="middle" x="762.5" y="-13" font-family="Helvetica,sans-Serif" font-size="10.00">ImGui::ShowTestWindow</text>
</a>
</g>
</g>
<!-- Node33856&#45;&gt;Node33857 -->
<g id="edge4" class="edge"><title>Node33856&#45;&gt;Node33857</title>
<path fill="none" stroke="midnightblue" d="M674.703,-15.5C683.156,-15.5 691.694,-15.5 699.946,-15.5"/>
<polygon fill="midnightblue" stroke="midnightblue" points="674.458,-12.0001 664.458,-15.5 674.458,-19.0001 674.458,-12.0001"/>
</g>
<!-- Node33858 -->
<g id="node6" class="node"><title>Node33858</title>
<g id="a_node6"><a xlink:href="../../d5/d0a/imgui__demo_8cpp.html#a4dadf5e7b393795666d19af9694037cf" target="_top" xlink:title="ShowExampleAppLongText">
<polygon fill="white" stroke="black" points="861,-6 861,-25 997,-25 997,-6 861,-6"/>
<text text-anchor="middle" x="929" y="-13" font-family="Helvetica,sans-Serif" font-size="10.00">ShowExampleAppLongText</text>
</a>
</g>
</g>
<!-- Node33857&#45;&gt;Node33858 -->
<g id="edge5" class="edge"><title>Node33857&#45;&gt;Node33858</title>
<path fill="none" stroke="midnightblue" d="M835.464,-8.79714C843.942,-8.71907 852.567,-8.73797 860.973,-8.85383"/>
<polygon fill="midnightblue" stroke="midnightblue" points="835.172,-5.30079 825.222,-8.94044 835.27,-12.3001 835.172,-5.30079"/>
</g>
<!-- Node33858&#45;&gt;Node33857 -->
<g id="edge6" class="edge"><title>Node33858&#45;&gt;Node33857</title>
<path fill="none" stroke="midnightblue" d="M850.916,-22.2381C842.301,-22.2777 833.609,-22.2182 825.222,-22.0596"/>
<polygon fill="midnightblue" stroke="midnightblue" points="851.005,-25.7376 860.973,-22.1462 850.941,-18.7379 851.005,-25.7376"/>
</g>
</g>
</svg>
        <g id="navigator" transform="translate(0 0)" fill="#404254">
                <rect fill="#f2f5e9" fill-opacity="0.5" stroke="#606060" stroke-width=".5" x="0" y="0" width="60" height="60"/>
                <use id="zoomplus" xlink:href="#zoomPlus" x="17" y="9" onmousedown="handleZoom(evt,'in')"/>
                <use id="zoomminus" xlink:href="#zoomMin" x="42" y="9" onmousedown="handleZoom(evt,'out')"/>
                <use id="reset" xlink:href="#resetDef" x="30" y="36" onmousedown="handleReset()"/>
                <g id="arrowUp" xlink:href="#dirArrow" transform="translate(30 24)" onmousedown="handlePan(0,-1)">
                  <use xlink:href="#rim" fill="#404040">
                        <set attributeName="fill" to="#808080" begin="arrowUp.mouseover" end="arrowUp.mouseout"/>
                  </use>
                  <path fill="none" stroke="white" stroke-width="1.5" d="M0,-3.0v7 M-2.5,-0.5L0,-3.0L2.5,-0.5"/>
                </g>
                <g id="arrowRight" xlink:href="#dirArrow" transform="rotate(90) translate(36 -43)" onmousedown="handlePan(1,0)">
                  <use xlink:href="#rim" fill="#404040">
                        <set attributeName="fill" to="#808080" begin="arrowRight.mouseover" end="arrowRight.mouseout"/>
                  </use>
                  <path fill="none" stroke="white" stroke-width="1.5" d="M0,-3.0v7 M-2.5,-0.5L0,-3.0L2.5,-0.5"/>
                </g>
                <g id="arrowDown" xlink:href="#dirArrow" transform="rotate(180) translate(-30 -48)" onmousedown="handlePan(0,1)">
                  <use xlink:href="#rim" fill="#404040">
                        <set attributeName="fill" to="#808080" begin="arrowDown.mouseover" end="arrowDown.mouseout"/>
                  </use>
                  <path fill="none" stroke="white" stroke-width="1.5" d="M0,-3.0v7 M-2.5,-0.5L0,-3.0L2.5,-0.5"/>
                </g>
                <g id="arrowLeft" xlink:href="#dirArrow" transform="rotate(270) translate(-36 17)" onmousedown="handlePan(-1,0)">
                  <use xlink:href="#rim" fill="#404040">
                        <set attributeName="fill" to="#808080" begin="arrowLeft.mouseover" end="arrowLeft.mouseout"/>
                  </use>
                  <path fill="none" stroke="white" stroke-width="1.5" d="M0,-3.0v7 M-2.5,-0.5L0,-3.0L2.5,-0.5"/>
                </g>
        </g>
        <svg viewBox="0 0 15 15" width="100%" height="30px" preserveAspectRatio="xMaxYMin meet">
         <g id="arrow_out" transform="scale(0.3 0.3)">
          <a xlink:href="namespace_im_gui_a447ac76da5763f4dd044db7eaa7c79b4_icgraph_org.svg" target="_base">
           <rect id="button" ry="5" rx="5" y="6" x="6" height="38" width="38"
                fill="#f2f5e9" fill-opacity="0.5" stroke="#606060" stroke-width="1.0"/>
           <path id="arrow"
             d="M 11.500037,31.436501 C 11.940474,20.09759 22.043105,11.32322 32.158766,21.979434 L 37.068811,17.246167 C 37.068811,17.246167 37.088388,32 37.088388,32 L 22.160133,31.978069 C 22.160133,31.978069 26.997745,27.140456 26.997745,27.140456 C 18.528582,18.264221 13.291696,25.230495 11.500037,31.436501 z"
             style="fill:#404040;"/>
          </a>
         </g>
        </svg>
</svg>
