<?xml version="1.0" encoding="UTF-8" standalone="no"?>
<!DOCTYPE svg PUBLIC "-//W3C//DTD SVG 1.1//EN"
 "http://www.w3.org/Graphics/SVG/1.1/DTD/svg11.dtd">
<!-- Generated by graphviz version 2.38.0 (20140413.2041)
 -->
<!-- Title: ImGui::SetWindowSize Pages: 1 -->
<svg width="386pt" height="66pt"
 viewBox="0.00 0.00 386.00 66.00" xmlns="http://www.w3.org/2000/svg" xmlns:xlink="http://www.w3.org/1999/xlink">
<g id="graph0" class="graph" transform="scale(1 1) rotate(0) translate(4 62)">
<title>ImGui::SetWindowSize</title>
<polygon fill="white" stroke="none" points="-4,4 -4,-62 382,-62 382,4 -4,4"/>
<!-- Node59315 -->
<g id="node1" class="node"><title>Node59315</title>
<polygon fill="#bfbfbf" stroke="black" points="0,-19.5 0,-38.5 117,-38.5 117,-19.5 0,-19.5"/>
<text text-anchor="middle" x="58.5" y="-26.5" font-family="Helvetica,sans-Serif" font-size="10.00">ImGui::SetWindowSize</text>
</g>
<!-- Node59316 -->
<g id="node2" class="node"><title>Node59316</title>
<g id="a_node2"><a xlink:href="../../df/d13/namespace_im_gui.html#abca25f22c02e73d5eb2e9c72c4557813" target="_top" xlink:title="ImGui::FindWindowByName">
<polygon fill="white" stroke="black" points="153,-38.5 153,-57.5 292,-57.5 292,-38.5 153,-38.5"/>
<text text-anchor="middle" x="222.5" y="-45.5" font-family="Helvetica,sans-Serif" font-size="10.00">ImGui::FindWindowByName</text>
</a>
</g>
</g>
<!-- Node59315&#45;&gt;Node59316 -->
<g id="edge1" class="edge"><title>Node59315&#45;&gt;Node59316</title>
<path fill="none" stroke="midnightblue" d="M117.071,-35.7522C125.373,-36.7258 134.034,-37.7416 142.662,-38.7535"/>
<polygon fill="midnightblue" stroke="midnightblue" points="142.412,-42.2481 152.752,-39.9369 143.227,-35.2958 142.412,-42.2481"/>
</g>
<!-- Node59318 -->
<g id="node4" class="node"><title>Node59318</title>
<g id="a_node4"><a xlink:href="../../da/d72/imgui_8cpp.html#a5fd5dd78eb93539d340f2f2f5636b8d3" target="_top" xlink:title="SetWindowSize">
<polygon fill="white" stroke="black" points="179.5,-0.5 179.5,-19.5 265.5,-19.5 265.5,-0.5 179.5,-0.5"/>
<text text-anchor="middle" x="222.5" y="-7.5" font-family="Helvetica,sans-Serif" font-size="10.00">SetWindowSize</text>
</a>
</g>
</g>
<!-- Node59315&#45;&gt;Node59318 -->
<g id="edge3" class="edge"><title>Node59315&#45;&gt;Node59318</title>
<path fill="none" stroke="midnightblue" d="M117.071,-22.2478C134.092,-20.2515 152.623,-18.0782 169.286,-16.1239"/>
<polygon fill="midnightblue" stroke="midnightblue" points="169.865,-19.5801 179.389,-14.9389 169.049,-12.6277 169.865,-19.5801"/>
</g>
<!-- Node59317 -->
<g id="node3" class="node"><title>Node59317</title>
<g id="a_node3"><a xlink:href="../../da/d72/imgui_8cpp.html#aa55e55e944172fc87494a342da489970" target="_top" xlink:title="ImHash">
<polygon fill="white" stroke="black" points="328,-38.5 328,-57.5 378,-57.5 378,-38.5 328,-38.5"/>
<text text-anchor="middle" x="353" y="-45.5" font-family="Helvetica,sans-Serif" font-size="10.00">ImHash</text>
</a>
</g>
</g>
<!-- Node59316&#45;&gt;Node59317 -->
<g id="edge2" class="edge"><title>Node59316&#45;&gt;Node59317</title>
<path fill="none" stroke="midnightblue" d="M292.264,-48C301.043,-48 309.71,-48 317.603,-48"/>
<polygon fill="midnightblue" stroke="midnightblue" points="317.825,-51.5001 327.825,-48 317.825,-44.5001 317.825,-51.5001"/>
</g>
</g>
</svg>
