<?xml version="1.0" encoding="UTF-8" standalone="no"?>
<!DOCTYPE svg PUBLIC "-//W3C//DTD SVG 1.1//EN"
 "http://www.w3.org/Graphics/SVG/1.1/DTD/svg11.dtd">
<!-- Generated by graphviz version 2.38.0 (20140413.2041)
 -->
<!-- Title: ImGui::GetTextLineHeightWithSpacing Pages: 1 -->
<svg width="765pt" height="104pt"
 viewBox="0.00 0.00 765.00 104.00" xmlns="http://www.w3.org/2000/svg" xmlns:xlink="http://www.w3.org/1999/xlink">
<g id="graph0" class="graph" transform="scale(1 1) rotate(0) translate(4 100)">
<title>ImGui::GetTextLineHeightWithSpacing</title>
<polygon fill="white" stroke="none" points="-4,4 -4,-100 761,-100 761,4 -4,4"/>
<!-- Node25130 -->
<g id="node1" class="node"><title>Node25130</title>
<polygon fill="#bfbfbf" stroke="black" points="0,-14 0,-44 128,-44 128,-14 0,-14"/>
<text text-anchor="start" x="8" y="-32" font-family="Helvetica,sans-Serif" font-size="10.00">ImGui::GetTextLineHeight</text>
<text text-anchor="middle" x="64" y="-21" font-family="Helvetica,sans-Serif" font-size="10.00">WithSpacing</text>
</g>
<!-- Node25131 -->
<g id="node2" class="node"><title>Node25131</title>
<g id="a_node2"><a xlink:href="../../df/d13/namespace_im_gui.html#a4003d6a6ab57f2fb43db80c6339a1aed" target="_top" xlink:title="ImGui::ListBoxHeader">
<polygon fill="white" stroke="black" points="164,-38.5 164,-57.5 276,-57.5 276,-38.5 164,-38.5"/>
<text text-anchor="middle" x="220" y="-45.5" font-family="Helvetica,sans-Serif" font-size="10.00">ImGui::ListBoxHeader</text>
</a>
</g>
</g>
<!-- Node25130&#45;&gt;Node25131 -->
<g id="edge1" class="edge"><title>Node25130&#45;&gt;Node25131</title>
<path fill="none" stroke="midnightblue" d="M138.115,-38.0207C146.71,-39.0811 155.369,-40.1494 163.663,-41.1726"/>
<polygon fill="midnightblue" stroke="midnightblue" points="138.435,-34.5338 128.082,-36.7828 137.578,-41.4811 138.435,-34.5338"/>
</g>
<!-- Node25133 -->
<g id="node4" class="node"><title>Node25133</title>
<g id="a_node4"><a xlink:href="../../df/d13/namespace_im_gui.html#a93d68a6602e155134405ce17085501e9" target="_top" xlink:title="ImGui::ListBox">
<polygon fill="white" stroke="black" points="327.5,-0.5 327.5,-19.5 408.5,-19.5 408.5,-0.5 327.5,-0.5"/>
<text text-anchor="middle" x="368" y="-7.5" font-family="Helvetica,sans-Serif" font-size="10.00">ImGui::ListBox</text>
</a>
</g>
</g>
<!-- Node25130&#45;&gt;Node25133 -->
<g id="edge8" class="edge"><title>Node25130&#45;&gt;Node25133</title>
<path fill="none" stroke="midnightblue" d="M138.399,-24.3822C197.872,-20.6405 279.4,-15.5112 327.309,-12.4971"/>
<polygon fill="midnightblue" stroke="midnightblue" points="138.07,-20.8959 128.309,-25.017 138.509,-27.8821 138.07,-20.8959"/>
</g>
<!-- Node25132 -->
<g id="node3" class="node"><title>Node25132</title>
<g id="a_node3"><a xlink:href="../../df/d13/namespace_im_gui.html#a6c5c48e5e5b90365f3f6faaa3307af26" target="_top" xlink:title="ImGui::ListBoxHeader">
<polygon fill="white" stroke="black" points="312,-76.5 312,-95.5 424,-95.5 424,-76.5 312,-76.5"/>
<text text-anchor="middle" x="368" y="-83.5" font-family="Helvetica,sans-Serif" font-size="10.00">ImGui::ListBoxHeader</text>
</a>
</g>
</g>
<!-- Node25131&#45;&gt;Node25132 -->
<g id="edge2" class="edge"><title>Node25131&#45;&gt;Node25132</title>
<path fill="none" stroke="midnightblue" d="M267.536,-60.1121C287.87,-65.4044 311.371,-71.5213 330.423,-76.4799"/>
<polygon fill="midnightblue" stroke="midnightblue" points="268.401,-56.7207 257.842,-57.589 266.638,-63.4951 268.401,-56.7207"/>
</g>
<!-- Node25131&#45;&gt;Node25133 -->
<g id="edge3" class="edge"><title>Node25131&#45;&gt;Node25133</title>
<path fill="none" stroke="midnightblue" d="M267.536,-35.8879C287.87,-30.5956 311.371,-24.4787 330.423,-19.5201"/>
<polygon fill="midnightblue" stroke="midnightblue" points="266.638,-32.5049 257.842,-38.411 268.401,-39.2793 266.638,-32.5049"/>
</g>
<!-- Node25134 -->
<g id="node5" class="node"><title>Node25134</title>
<g id="a_node5"><a xlink:href="../../df/d13/namespace_im_gui.html#a52880ae1ecdd704a083558d31c9bfa50" target="_top" xlink:title="ImGui::ShowTestWindow">
<polygon fill="white" stroke="black" points="460,-19.5 460,-38.5 585,-38.5 585,-19.5 460,-19.5"/>
<text text-anchor="middle" x="522.5" y="-26.5" font-family="Helvetica,sans-Serif" font-size="10.00">ImGui::ShowTestWindow</text>
</a>
</g>
</g>
<!-- Node25131&#45;&gt;Node25134 -->
<g id="edge7" class="edge"><title>Node25131&#45;&gt;Node25134</title>
<path fill="none" stroke="midnightblue" d="M286.143,-43.8811C337.668,-40.6233 409.115,-36.1059 459.74,-32.905"/>
<polygon fill="midnightblue" stroke="midnightblue" points="285.876,-40.391 276.116,-44.5151 286.317,-47.377 285.876,-40.391"/>
</g>
<!-- Node25133&#45;&gt;Node25134 -->
<g id="edge4" class="edge"><title>Node25133&#45;&gt;Node25134</title>
<path fill="none" stroke="midnightblue" d="M418.878,-16.2143C431.966,-17.845 446.237,-19.623 459.861,-21.3204"/>
<polygon fill="midnightblue" stroke="midnightblue" points="419.026,-12.7057 408.669,-14.9424 418.16,-19.652 419.026,-12.7057"/>
</g>
<!-- Node25135 -->
<g id="node6" class="node"><title>Node25135</title>
<g id="a_node6"><a xlink:href="../../d5/d0a/imgui__demo_8cpp.html#a4dadf5e7b393795666d19af9694037cf" target="_top" xlink:title="ShowExampleAppLongText">
<polygon fill="white" stroke="black" points="621,-19.5 621,-38.5 757,-38.5 757,-19.5 621,-19.5"/>
<text text-anchor="middle" x="689" y="-26.5" font-family="Helvetica,sans-Serif" font-size="10.00">ShowExampleAppLongText</text>
</a>
</g>
</g>
<!-- Node25134&#45;&gt;Node25135 -->
<g id="edge5" class="edge"><title>Node25134&#45;&gt;Node25135</title>
<path fill="none" stroke="midnightblue" d="M595.464,-22.2971C603.942,-22.2191 612.567,-22.238 620.973,-22.3538"/>
<polygon fill="midnightblue" stroke="midnightblue" points="595.172,-18.8008 585.222,-22.4404 595.27,-25.8001 595.172,-18.8008"/>
</g>
<!-- Node25135&#45;&gt;Node25134 -->
<g id="edge6" class="edge"><title>Node25135&#45;&gt;Node25134</title>
<path fill="none" stroke="midnightblue" d="M610.916,-35.7381C602.301,-35.7777 593.609,-35.7182 585.222,-35.5596"/>
<polygon fill="midnightblue" stroke="midnightblue" points="611.005,-39.2376 620.973,-35.6462 610.941,-32.2379 611.005,-39.2376"/>
</g>
</g>
</svg>
