<?xml version="1.0" encoding="UTF-8" standalone="no"?>
<!DOCTYPE svg PUBLIC "-//W3C//DTD SVG 1.1//EN"
 "http://www.w3.org/Graphics/SVG/1.1/DTD/svg11.dtd">
<!-- Generated by graphviz version 2.38.0 (20140413.2041)
 -->
<!-- Title: ImGui::IsItemVisible Pages: 1 -->
<svg width="300pt" height="66pt"
 viewBox="0.00 0.00 300.00 66.00" xmlns="http://www.w3.org/2000/svg" xmlns:xlink="http://www.w3.org/1999/xlink">
<g id="graph0" class="graph" transform="scale(1 1) rotate(0) translate(4 62)">
<title>ImGui::IsItemVisible</title>
<polygon fill="white" stroke="none" points="-4,4 -4,-62 296,-62 296,4 -4,4"/>
<!-- Node32973 -->
<g id="node1" class="node"><title>Node32973</title>
<polygon fill="#bfbfbf" stroke="black" points="0,-19.5 0,-38.5 104,-38.5 104,-19.5 0,-19.5"/>
<text text-anchor="middle" x="52" y="-26.5" font-family="Helvetica,sans-Serif" font-size="10.00">ImGui::IsItemVisible</text>
</g>
<!-- Node32974 -->
<g id="node2" class="node"><title>Node32974</title>
<g id="a_node2"><a xlink:href="../../df/d13/namespace_im_gui.html#a408f9ddac92f8629a7e273ced5f8c3aa" target="_top" xlink:title="ImGui::GetCurrentWindowRead">
<polygon fill="white" stroke="black" points="140,-38.5 140,-57.5 292,-57.5 292,-38.5 140,-38.5"/>
<text text-anchor="middle" x="216" y="-45.5" font-family="Helvetica,sans-Serif" font-size="10.00">ImGui::GetCurrentWindowRead</text>
</a>
</g>
</g>
<!-- Node32973&#45;&gt;Node32974 -->
<g id="edge1" class="edge"><title>Node32973&#45;&gt;Node32974</title>
<path fill="none" stroke="midnightblue" d="M104.258,-35.0117C112.386,-35.965 120.979,-36.9728 129.638,-37.9884"/>
<polygon fill="midnightblue" stroke="midnightblue" points="129.47,-41.4926 139.81,-39.1814 130.285,-34.5402 129.47,-41.4926"/>
</g>
<!-- Node32975 -->
<g id="node3" class="node"><title>Node32975</title>
<g id="a_node3"><a xlink:href="../../df/d8d/struct_im_rect.html#a0af3bade3781e5e7c6afdf71ccfb0d43" target="_top" xlink:title="ImRect::Overlaps">
<polygon fill="white" stroke="black" points="170.5,-0.5 170.5,-19.5 261.5,-19.5 261.5,-0.5 170.5,-0.5"/>
<text text-anchor="middle" x="216" y="-7.5" font-family="Helvetica,sans-Serif" font-size="10.00">ImRect::Overlaps</text>
</a>
</g>
</g>
<!-- Node32973&#45;&gt;Node32975 -->
<g id="edge2" class="edge"><title>Node32973&#45;&gt;Node32975</title>
<path fill="none" stroke="midnightblue" d="M104.258,-22.9883C122.086,-20.8974 142.146,-18.5446 160.246,-16.4218"/>
<polygon fill="midnightblue" stroke="midnightblue" points="160.833,-19.877 170.358,-15.2358 160.018,-12.9246 160.833,-19.877"/>
</g>
</g>
</svg>
