<?xml version="1.0" encoding="UTF-8" standalone="no"?>
<!DOCTYPE svg PUBLIC "-//W3C//DTD SVG 1.1//EN"
 "http://www.w3.org/Graphics/SVG/1.1/DTD/svg11.dtd">
<!-- Generated by graphviz version 2.38.0 (20140413.2041)
 -->
<!-- Title: ImGui::TextColored Pages: 1 -->
<svg width="624pt" height="116pt"
 viewBox="0.00 0.00 624.00 115.50" xmlns="http://www.w3.org/2000/svg" xmlns:xlink="http://www.w3.org/1999/xlink">
<g id="graph0" class="graph" transform="scale(1 1) rotate(0) translate(4 111.5)">
<title>ImGui::TextColored</title>
<polygon fill="white" stroke="none" points="-4,4 -4,-111.5 620,-111.5 620,4 -4,4"/>
<!-- Node65408 -->
<g id="node1" class="node"><title>Node65408</title>
<polygon fill="#bfbfbf" stroke="black" points="0,-50 0,-69 100,-69 100,-50 0,-50"/>
<text text-anchor="middle" x="50" y="-57" font-family="Helvetica,sans-Serif" font-size="10.00">ImGui::TextColored</text>
</g>
<!-- Node65409 -->
<g id="node2" class="node"><title>Node65409</title>
<g id="a_node2"><a xlink:href="../../df/d13/namespace_im_gui.html#afe7a28c6eb52fff3cc27d5a698fea4ff" target="_top" xlink:title="ImGui::ShowMetricsWindow">
<polygon fill="white" stroke="black" points="140,-88 140,-107 279,-107 279,-88 140,-88"/>
<text text-anchor="middle" x="209.5" y="-95" font-family="Helvetica,sans-Serif" font-size="10.00">ImGui::ShowMetricsWindow</text>
</a>
</g>
</g>
<!-- Node65408&#45;&gt;Node65409 -->
<g id="edge1" class="edge"><title>Node65408&#45;&gt;Node65409</title>
<path fill="none" stroke="midnightblue" d="M100.604,-71.468C122.675,-76.7931 148.303,-82.9762 169.042,-87.9799"/>
<polygon fill="midnightblue" stroke="midnightblue" points="101.286,-68.0321 90.7439,-69.089 99.6441,-74.8369 101.286,-68.0321"/>
</g>
<!-- Node65410 -->
<g id="node3" class="node"><title>Node65410</title>
<g id="a_node3"><a xlink:href="../../df/d13/namespace_im_gui.html#a52880ae1ecdd704a083558d31c9bfa50" target="_top" xlink:title="ImGui::ShowTestWindow">
<polygon fill="white" stroke="black" points="319,-69 319,-88 444,-88 444,-69 319,-69"/>
<text text-anchor="middle" x="381.5" y="-76" font-family="Helvetica,sans-Serif" font-size="10.00">ImGui::ShowTestWindow</text>
</a>
</g>
</g>
<!-- Node65408&#45;&gt;Node65410 -->
<g id="edge5" class="edge"><title>Node65408&#45;&gt;Node65410</title>
<path fill="none" stroke="midnightblue" d="M110.588,-62.936C169.462,-66.3309 259.119,-71.5008 318.737,-74.9386"/>
<polygon fill="midnightblue" stroke="midnightblue" points="110.514,-59.4261 100.329,-62.3445 110.111,-66.4145 110.514,-59.4261"/>
</g>
<!-- Node65412 -->
<g id="node5" class="node"><title>Node65412</title>
<g id="a_node5"><a xlink:href="../../d4/d8f/class_ro_r_1_1_g_u_i_1_1_multiplayer_selector.html#a8c98e9ba03c8afb1d1a26ec06192862e" target="_top" xlink:title="RoR::GUI::MultiplayerSelector\l::~MultiplayerSelector">
<polygon fill="white" stroke="black" points="136,-0.5 136,-30.5 283,-30.5 283,-0.5 136,-0.5"/>
<text text-anchor="start" x="144" y="-18.5" font-family="Helvetica,sans-Serif" font-size="10.00">RoR::GUI::MultiplayerSelector</text>
<text text-anchor="middle" x="209.5" y="-7.5" font-family="Helvetica,sans-Serif" font-size="10.00">::~MultiplayerSelector</text>
</a>
</g>
</g>
<!-- Node65408&#45;&gt;Node65412 -->
<g id="edge6" class="edge"><title>Node65408&#45;&gt;Node65412</title>
<path fill="none" stroke="midnightblue" d="M94.8143,-47.2598C113.332,-42.0866 135.082,-36.0103 154.573,-30.5654"/>
<polygon fill="midnightblue" stroke="midnightblue" points="93.8646,-43.891 85.1752,-49.9527 95.7481,-50.6329 93.8646,-43.891"/>
</g>
<!-- Node65409&#45;&gt;Node65410 -->
<g id="edge2" class="edge"><title>Node65409&#45;&gt;Node65410</title>
<path fill="none" stroke="midnightblue" d="M289.12,-88.7131C299.145,-87.5926 309.289,-86.4589 318.99,-85.3746"/>
<polygon fill="midnightblue" stroke="midnightblue" points="288.705,-85.2376 279.155,-89.8267 289.482,-92.1943 288.705,-85.2376"/>
</g>
<!-- Node65411 -->
<g id="node4" class="node"><title>Node65411</title>
<g id="a_node4"><a xlink:href="../../d5/d0a/imgui__demo_8cpp.html#a4dadf5e7b393795666d19af9694037cf" target="_top" xlink:title="ShowExampleAppLongText">
<polygon fill="white" stroke="black" points="480,-69 480,-88 616,-88 616,-69 480,-69"/>
<text text-anchor="middle" x="548" y="-76" font-family="Helvetica,sans-Serif" font-size="10.00">ShowExampleAppLongText</text>
</a>
</g>
</g>
<!-- Node65410&#45;&gt;Node65411 -->
<g id="edge3" class="edge"><title>Node65410&#45;&gt;Node65411</title>
<path fill="none" stroke="midnightblue" d="M454.464,-71.7971C462.942,-71.7191 471.567,-71.738 479.973,-71.8538"/>
<polygon fill="midnightblue" stroke="midnightblue" points="454.172,-68.3008 444.222,-71.9404 454.27,-75.3001 454.172,-68.3008"/>
</g>
<!-- Node65411&#45;&gt;Node65410 -->
<g id="edge4" class="edge"><title>Node65411&#45;&gt;Node65410</title>
<path fill="none" stroke="midnightblue" d="M469.916,-85.2381C461.301,-85.2777 452.609,-85.2182 444.222,-85.0596"/>
<polygon fill="midnightblue" stroke="midnightblue" points="470.005,-88.7376 479.973,-85.1462 469.941,-81.7379 470.005,-88.7376"/>
</g>
</g>
</svg>
