<?xml version="1.0" encoding="UTF-8" standalone="no"?>
<!DOCTYPE svg PUBLIC "-//W3C//DTD SVG 1.1//EN"
 "http://www.w3.org/Graphics/SVG/1.1/DTD/svg11.dtd">
<!-- Generated by graphviz version 2.38.0 (20140413.2041)
 -->
<!-- Title: ImGui::Bullet Pages: 1 -->
<!--zoomable 47 -->
<svg id="main" version="1.1" xmlns="http://www.w3.org/2000/svg" xmlns:xlink="http://www.w3.org/1999/xlink" xml:space="preserve" onload="init(evt)">
<style type="text/css"><![CDATA[
.edge:hover path { stroke: red; }
.edge:hover polygon { stroke: red; fill: red; }
]]></style>
<script type="text/javascript"><![CDATA[
var edges = document.getElementsByTagName('g');
if (edges && edges.length) {
  for (var i=0;i<edges.length;i++) {
    if (edges[i].id.substr(0,4)=='edge') {
      edges[i].setAttribute('class','edge');
    }
  }
}
]]></script>
        <defs>
                <circle id="rim" cx="0" cy="0" r="7"/>
                <circle id="rim2" cx="0" cy="0" r="3.5"/>
                <g id="zoomPlus">
                        <use xlink:href="#rim" fill="#404040">
                                <set attributeName="fill" to="#808080" begin="zoomplus.mouseover" end="zoomplus.mouseout"/>
                        </use>
                        <path d="M-4,0h8M0,-4v8" fill="none" stroke="white" stroke-width="1.5" pointer-events="none"/>
                </g>
                <g id="zoomMin">
                        <use xlink:href="#rim" fill="#404040">
                                <set attributeName="fill" to="#808080" begin="zoomminus.mouseover" end="zoomminus.mouseout"/>
                        </use>
                        <path d="M-4,0h8" fill="none" stroke="white" stroke-width="1.5" pointer-events="none"/>
                </g>
                <g id="dirArrow">
                        <path fill="none" stroke="white" stroke-width="1.5" d="M0,-3.0v7 M-2.5,-0.5L0,-3.0L2.5,-0.5"/>
                </g>
               <g id="resetDef">
                       <use xlink:href="#rim2" fill="#404040">
                               <set attributeName="fill" to="#808080" begin="reset.mouseover" end="reset.mouseout"/>
                       </use>
               </g>
        </defs>

<script type="text/javascript">
var viewWidth = 608;
var viewHeight = 47;
var sectionId = 'dynsection-30';
</script>
<script xlink:href="../../svgpan.js"/>
<svg id="graph" class="graph">
<g id="viewport">
<title>ImGui::Bullet</title>
<polygon fill="white" stroke="none" points="-4,4 -4,-43 604,-43 604,4 -4,4"/>
<!-- Node4747 -->
<g id="node1" class="node"><title>Node4747</title>
<polygon fill="#bfbfbf" stroke="black" points="0,-19.5 0,-38.5 73,-38.5 73,-19.5 0,-19.5"/>
<text text-anchor="middle" x="36.5" y="-26.5" font-family="Helvetica,sans-Serif" font-size="10.00">ImGui::Bullet</text>
</g>
<!-- Node4748 -->
<g id="node2" class="node"><title>Node4748</title>
<g id="a_node2"><a xlink:href="../../df/d13/namespace_im_gui.html#a52880ae1ecdd704a083558d31c9bfa50" target="_top" xlink:title="ImGui::ShowTestWindow">
<polygon fill="white" stroke="black" points="303,-19.5 303,-38.5 428,-38.5 428,-19.5 303,-19.5"/>
<text text-anchor="middle" x="365.5" y="-26.5" font-family="Helvetica,sans-Serif" font-size="10.00">ImGui::ShowTestWindow</text>
</a>
</g>
</g>
<!-- Node4747&#45;&gt;Node4748 -->
<g id="edge1" class="edge"><title>Node4747&#45;&gt;Node4748</title>
<path fill="none" stroke="midnightblue" d="M83.3194,-29C140.607,-29 238.892,-29 302.77,-29"/>
<polygon fill="midnightblue" stroke="midnightblue" points="83.1173,-25.5001 73.1172,-29 83.1172,-32.5001 83.1173,-25.5001"/>
</g>
<!-- Node4750 -->
<g id="node4" class="node"><title>Node4750</title>
<g id="a_node4"><a xlink:href="../../d5/d0a/imgui__demo_8cpp.html#a4d8ba8c6a1febc3053bd843c150305da" target="_top" xlink:title="ShowExampleAppPropertyEditor">
<polygon fill="white" stroke="black" points="109,-0.5 109,-19.5 267,-19.5 267,-0.5 109,-0.5"/>
<text text-anchor="middle" x="188" y="-7.5" font-family="Helvetica,sans-Serif" font-size="10.00">ShowExampleAppPropertyEditor</text>
</a>
</g>
</g>
<!-- Node4747&#45;&gt;Node4750 -->
<g id="edge4" class="edge"><title>Node4747&#45;&gt;Node4750</title>
<path fill="none" stroke="midnightblue" d="M83.3092,-23.1781C92.456,-22.0156 102.286,-20.7663 112.12,-19.5165"/>
<polygon fill="midnightblue" stroke="midnightblue" points="82.7879,-19.7161 73.309,-24.449 83.6705,-26.6603 82.7879,-19.7161"/>
</g>
<!-- Node4749 -->
<g id="node3" class="node"><title>Node4749</title>
<g id="a_node3"><a xlink:href="../../d5/d0a/imgui__demo_8cpp.html#a4dadf5e7b393795666d19af9694037cf" target="_top" xlink:title="ShowExampleAppLongText">
<polygon fill="white" stroke="black" points="464,-19.5 464,-38.5 600,-38.5 600,-19.5 464,-19.5"/>
<text text-anchor="middle" x="532" y="-26.5" font-family="Helvetica,sans-Serif" font-size="10.00">ShowExampleAppLongText</text>
</a>
</g>
</g>
<!-- Node4748&#45;&gt;Node4749 -->
<g id="edge2" class="edge"><title>Node4748&#45;&gt;Node4749</title>
<path fill="none" stroke="midnightblue" d="M438.464,-22.2971C446.942,-22.2191 455.567,-22.238 463.973,-22.3538"/>
<polygon fill="midnightblue" stroke="midnightblue" points="438.172,-18.8008 428.222,-22.4404 438.27,-25.8001 438.172,-18.8008"/>
</g>
<!-- Node4749&#45;&gt;Node4748 -->
<g id="edge3" class="edge"><title>Node4749&#45;&gt;Node4748</title>
<path fill="none" stroke="midnightblue" d="M453.916,-35.7381C445.301,-35.7777 436.609,-35.7182 428.222,-35.5596"/>
<polygon fill="midnightblue" stroke="midnightblue" points="454.005,-39.2376 463.973,-35.6462 453.941,-32.2379 454.005,-39.2376"/>
</g>
<!-- Node4750&#45;&gt;Node4748 -->
<g id="edge5" class="edge"><title>Node4750&#45;&gt;Node4748</title>
<path fill="none" stroke="midnightblue" d="M277.394,-19.5698C286.046,-20.5064 294.689,-21.4421 302.987,-22.3405"/>
<polygon fill="midnightblue" stroke="midnightblue" points="277.573,-16.0688 267.255,-18.472 276.82,-23.0281 277.573,-16.0688"/>
</g>
</g>
</svg>
        <g id="navigator" transform="translate(0 0)" fill="#404254">
                <rect fill="#f2f5e9" fill-opacity="0.5" stroke="#606060" stroke-width=".5" x="0" y="0" width="60" height="60"/>
                <use id="zoomplus" xlink:href="#zoomPlus" x="17" y="9" onmousedown="handleZoom(evt,'in')"/>
                <use id="zoomminus" xlink:href="#zoomMin" x="42" y="9" onmousedown="handleZoom(evt,'out')"/>
                <use id="reset" xlink:href="#resetDef" x="30" y="36" onmousedown="handleReset()"/>
                <g id="arrowUp" xlink:href="#dirArrow" transform="translate(30 24)" onmousedown="handlePan(0,-1)">
                  <use xlink:href="#rim" fill="#404040">
                        <set attributeName="fill" to="#808080" begin="arrowUp.mouseover" end="arrowUp.mouseout"/>
                  </use>
                  <path fill="none" stroke="white" stroke-width="1.5" d="M0,-3.0v7 M-2.5,-0.5L0,-3.0L2.5,-0.5"/>
                </g>
                <g id="arrowRight" xlink:href="#dirArrow" transform="rotate(90) translate(36 -43)" onmousedown="handlePan(1,0)">
                  <use xlink:href="#rim" fill="#404040">
                        <set attributeName="fill" to="#808080" begin="arrowRight.mouseover" end="arrowRight.mouseout"/>
                  </use>
                  <path fill="none" stroke="white" stroke-width="1.5" d="M0,-3.0v7 M-2.5,-0.5L0,-3.0L2.5,-0.5"/>
                </g>
                <g id="arrowDown" xlink:href="#dirArrow" transform="rotate(180) translate(-30 -48)" onmousedown="handlePan(0,1)">
                  <use xlink:href="#rim" fill="#404040">
                        <set attributeName="fill" to="#808080" begin="arrowDown.mouseover" end="arrowDown.mouseout"/>
                  </use>
                  <path fill="none" stroke="white" stroke-width="1.5" d="M0,-3.0v7 M-2.5,-0.5L0,-3.0L2.5,-0.5"/>
                </g>
                <g id="arrowLeft" xlink:href="#dirArrow" transform="rotate(270) translate(-36 17)" onmousedown="handlePan(-1,0)">
                  <use xlink:href="#rim" fill="#404040">
                        <set attributeName="fill" to="#808080" begin="arrowLeft.mouseover" end="arrowLeft.mouseout"/>
                  </use>
                  <path fill="none" stroke="white" stroke-width="1.5" d="M0,-3.0v7 M-2.5,-0.5L0,-3.0L2.5,-0.5"/>
                </g>
        </g>
        <svg viewBox="0 0 15 15" width="100%" height="30px" preserveAspectRatio="xMaxYMin meet">
         <g id="arrow_out" transform="scale(0.3 0.3)">
          <a xlink:href="namespace_im_gui_ae2d22212681556d2c2398dfd152f3121_icgraph_org.svg" target="_base">
           <rect id="button" ry="5" rx="5" y="6" x="6" height="38" width="38"
                fill="#f2f5e9" fill-opacity="0.5" stroke="#606060" stroke-width="1.0"/>
           <path id="arrow"
             d="M 11.500037,31.436501 C 11.940474,20.09759 22.043105,11.32322 32.158766,21.979434 L 37.068811,17.246167 C 37.068811,17.246167 37.088388,32 37.088388,32 L 22.160133,31.978069 C 22.160133,31.978069 26.997745,27.140456 26.997745,27.140456 C 18.528582,18.264221 13.291696,25.230495 11.500037,31.436501 z"
             style="fill:#404040;"/>
          </a>
         </g>
        </svg>
</svg>
