<?xml version="1.0" encoding="UTF-8" standalone="no"?>
<!DOCTYPE svg PUBLIC "-//W3C//DTD SVG 1.1//EN"
 "http://www.w3.org/Graphics/SVG/1.1/DTD/svg11.dtd">
<!-- Generated by graphviz version 2.38.0 (20140413.2041)
 -->
<!-- Title: ImGui::Checkbox Pages: 1 -->
<!--zoomable 229 -->
<svg id="main" version="1.1" xmlns="http://www.w3.org/2000/svg" xmlns:xlink="http://www.w3.org/1999/xlink" xml:space="preserve" onload="init(evt)">
<style type="text/css"><![CDATA[
.edge:hover path { stroke: red; }
.edge:hover polygon { stroke: red; fill: red; }
]]></style>
<script type="text/javascript"><![CDATA[
var edges = document.getElementsByTagName('g');
if (edges && edges.length) {
  for (var i=0;i<edges.length;i++) {
    if (edges[i].id.substr(0,4)=='edge') {
      edges[i].setAttribute('class','edge');
    }
  }
}
]]></script>
        <defs>
                <circle id="rim" cx="0" cy="0" r="7"/>
                <circle id="rim2" cx="0" cy="0" r="3.5"/>
                <g id="zoomPlus">
                        <use xlink:href="#rim" fill="#404040">
                                <set attributeName="fill" to="#808080" begin="zoomplus.mouseover" end="zoomplus.mouseout"/>
                        </use>
                        <path d="M-4,0h8M0,-4v8" fill="none" stroke="white" stroke-width="1.5" pointer-events="none"/>
                </g>
                <g id="zoomMin">
                        <use xlink:href="#rim" fill="#404040">
                                <set attributeName="fill" to="#808080" begin="zoomminus.mouseover" end="zoomminus.mouseout"/>
                        </use>
                        <path d="M-4,0h8" fill="none" stroke="white" stroke-width="1.5" pointer-events="none"/>
                </g>
                <g id="dirArrow">
                        <path fill="none" stroke="white" stroke-width="1.5" d="M0,-3.0v7 M-2.5,-0.5L0,-3.0L2.5,-0.5"/>
                </g>
               <g id="resetDef">
                       <use xlink:href="#rim2" fill="#404040">
                               <set attributeName="fill" to="#808080" begin="reset.mouseover" end="reset.mouseout"/>
                       </use>
               </g>
        </defs>

<script type="text/javascript">
var viewWidth = 955;
var viewHeight = 229;
var sectionId = 'dynsection-55';
</script>
<script xlink:href="../../svgpan.js"/>
<svg id="graph" class="graph">
<g id="viewport">
<title>ImGui::Checkbox</title>
<polygon fill="white" stroke="none" points="-4,4 -4,-224.5 951,-224.5 951,4 -4,4"/>
<!-- Node7802 -->
<g id="node1" class="node"><title>Node7802</title>
<polygon fill="#bfbfbf" stroke="black" points="0,-95.5 0,-114.5 92,-114.5 92,-95.5 0,-95.5"/>
<text text-anchor="middle" x="46" y="-102.5" font-family="Helvetica,sans-Serif" font-size="10.00">ImGui::Checkbox</text>
</g>
<!-- Node7803 -->
<g id="node2" class="node"><title>Node7803</title>
<g id="a_node2"><a xlink:href="../../dd/dd2/namespace_ro_r.html#a01ca07a2a9c54c18adfaac2d8132dc95" target="_top" xlink:title="RoR::DrawGCheckbox">
<polygon fill="white" stroke="black" points="140.5,-190.5 140.5,-209.5 254.5,-209.5 254.5,-190.5 140.5,-190.5"/>
<text text-anchor="middle" x="197.5" y="-197.5" font-family="Helvetica,sans-Serif" font-size="10.00">RoR::DrawGCheckbox</text>
</a>
</g>
</g>
<!-- Node7802&#45;&gt;Node7803 -->
<g id="edge1" class="edge"><title>Node7802&#45;&gt;Node7803</title>
<path fill="none" stroke="midnightblue" d="M61.0863,-122.442C75.9685,-139.746 100.986,-165.816 128,-181 134.885,-184.87 142.609,-187.993 150.322,-190.5"/>
<polygon fill="midnightblue" stroke="midnightblue" points="63.7355,-120.154 54.6303,-114.737 58.37,-124.649 63.7355,-120.154"/>
</g>
<!-- Node7810 -->
<g id="node9" class="node"><title>Node7810</title>
<g id="a_node9"><a xlink:href="../../dd/dd2/namespace_ro_r.html#aa474a81980d428b18213d667282e747b" target="_top" xlink:title="RoR::DrawGIntCheck">
<polygon fill="white" stroke="black" points="143,-152.5 143,-171.5 252,-171.5 252,-152.5 143,-152.5"/>
<text text-anchor="middle" x="197.5" y="-159.5" font-family="Helvetica,sans-Serif" font-size="10.00">RoR::DrawGIntCheck</text>
</a>
</g>
</g>
<!-- Node7802&#45;&gt;Node7810 -->
<g id="edge8" class="edge"><title>Node7802&#45;&gt;Node7810</title>
<path fill="none" stroke="midnightblue" d="M74.2962,-119.211C89.7766,-126.911 109.664,-136.211 128,-143 137.49,-146.514 147.929,-149.726 157.735,-152.469"/>
<polygon fill="midnightblue" stroke="midnightblue" points="75.7847,-116.042 65.2803,-114.66 72.6303,-122.291 75.7847,-116.042"/>
</g>
<!-- Node7811 -->
<g id="node10" class="node"><title>Node7811</title>
<g id="a_node10"><a xlink:href="../../df/d13/namespace_im_gui.html#aeca400dcf5a82c312b3e669d2fe6e88d" target="_top" xlink:title="ImGui::CheckboxFlags">
<polygon fill="white" stroke="black" points="139.5,-114.5 139.5,-133.5 255.5,-133.5 255.5,-114.5 139.5,-114.5"/>
<text text-anchor="middle" x="197.5" y="-121.5" font-family="Helvetica,sans-Serif" font-size="10.00">ImGui::CheckboxFlags</text>
</a>
</g>
</g>
<!-- Node7802&#45;&gt;Node7811 -->
<g id="edge10" class="edge"><title>Node7802&#45;&gt;Node7811</title>
<path fill="none" stroke="midnightblue" d="M102.253,-112.022C114.392,-113.565 127.268,-115.201 139.475,-116.753"/>
<polygon fill="midnightblue" stroke="midnightblue" points="102.622,-108.541 92.2606,-110.752 101.74,-115.485 102.622,-108.541"/>
</g>
<!-- Node7812 -->
<g id="node11" class="node"><title>Node7812</title>
<g id="a_node11"><a xlink:href="../../df/d13/namespace_im_gui.html#afe7a28c6eb52fff3cc27d5a698fea4ff" target="_top" xlink:title="ImGui::ShowMetricsWindow">
<polygon fill="white" stroke="black" points="128,-76.5 128,-95.5 267,-95.5 267,-76.5 128,-76.5"/>
<text text-anchor="middle" x="197.5" y="-83.5" font-family="Helvetica,sans-Serif" font-size="10.00">ImGui::ShowMetricsWindow</text>
</a>
</g>
</g>
<!-- Node7802&#45;&gt;Node7812 -->
<g id="edge11" class="edge"><title>Node7802&#45;&gt;Node7812</title>
<path fill="none" stroke="midnightblue" d="M102.259,-97.9771C110.624,-96.914 119.339,-95.8065 127.943,-94.7129"/>
<polygon fill="midnightblue" stroke="midnightblue" points="101.74,-94.5149 92.2606,-99.2478 102.622,-101.459 101.74,-94.5149"/>
</g>
<!-- Node7813 -->
<g id="node12" class="node"><title>Node7813</title>
<g id="a_node12"><a xlink:href="../../df/d13/namespace_im_gui.html#a52880ae1ecdd704a083558d31c9bfa50" target="_top" xlink:title="ImGui::ShowTestWindow">
<polygon fill="white" stroke="black" points="303.5,-38.5 303.5,-57.5 428.5,-57.5 428.5,-38.5 303.5,-38.5"/>
<text text-anchor="middle" x="366" y="-45.5" font-family="Helvetica,sans-Serif" font-size="10.00">ImGui::ShowTestWindow</text>
</a>
</g>
</g>
<!-- Node7802&#45;&gt;Node7813 -->
<g id="edge15" class="edge"><title>Node7802&#45;&gt;Node7813</title>
<path fill="none" stroke="midnightblue" d="M71.7696,-90.5284C87.3698,-82.1471 108.231,-72.2447 128,-67 186.051,-51.5991 254.673,-47.5671 303.097,-46.9557"/>
<polygon fill="midnightblue" stroke="midnightblue" points="69.8484,-87.5913 62.7929,-95.4952 73.2374,-93.7163 69.8484,-87.5913"/>
</g>
<!-- Node7815 -->
<g id="node14" class="node"><title>Node7815</title>
<g id="a_node14"><a xlink:href="../../df/d13/namespace_im_gui.html#ab2eb3dec78d054fe3feab1c091ec5de5" target="_top" xlink:title="ImGui::ShowStyleEditor">
<polygon fill="white" stroke="black" points="137.5,-0.5 137.5,-19.5 257.5,-19.5 257.5,-0.5 137.5,-0.5"/>
<text text-anchor="middle" x="197.5" y="-7.5" font-family="Helvetica,sans-Serif" font-size="10.00">ImGui::ShowStyleEditor</text>
</a>
</g>
</g>
<!-- Node7802&#45;&gt;Node7815 -->
<g id="edge16" class="edge"><title>Node7802&#45;&gt;Node7815</title>
<path fill="none" stroke="midnightblue" d="M62.6875,-87.9035C78.0221,-72.0582 102.695,-48.7708 128,-34 138.121,-28.0923 149.929,-23.3095 160.862,-19.6141"/>
<polygon fill="midnightblue" stroke="midnightblue" points="59.8987,-85.7583 55.5658,-95.4267 64.9823,-90.5706 59.8987,-85.7583"/>
</g>
<!-- Node7804 -->
<g id="node3" class="node"><title>Node7804</title>
<g id="a_node3"><a xlink:href="../../d8/d2c/class_ro_r_1_1_g_u_i_1_1_game_settings.html#a97a07e0573bf956e386722ef6b776ff3" target="_top" xlink:title="RoR::GUI::GameSettings\l::Draw">
<polygon fill="white" stroke="black" points="303,-166 303,-196 429,-196 429,-166 303,-166"/>
<text text-anchor="start" x="311" y="-184" font-family="Helvetica,sans-Serif" font-size="10.00">RoR::GUI::GameSettings</text>
<text text-anchor="middle" x="366" y="-173" font-family="Helvetica,sans-Serif" font-size="10.00">::Draw</text>
</a>
</g>
</g>
<!-- Node7803&#45;&gt;Node7804 -->
<g id="edge2" class="edge"><title>Node7803&#45;&gt;Node7804</title>
<path fill="none" stroke="midnightblue" d="M264.822,-192.432C277.406,-190.996 290.528,-189.498 302.972,-188.078"/>
<polygon fill="midnightblue" stroke="midnightblue" points="264.408,-188.956 254.869,-193.567 265.202,-195.911 264.408,-188.956"/>
</g>
<!-- Node7805 -->
<g id="node4" class="node"><title>Node7805</title>
<g id="a_node4"><a xlink:href="../../d8/d11/class_ro_r_1_1_g_u_i_manager.html#af75908cee15c6ce99cce1752387fca4f" target="_top" xlink:title="RoR::GUIManager::DrawMain\lMenuGui">
<polygon fill="white" stroke="black" points="465,-190 465,-220 609,-220 609,-190 465,-190"/>
<text text-anchor="start" x="473" y="-208" font-family="Helvetica,sans-Serif" font-size="10.00">RoR::GUIManager::DrawMain</text>
<text text-anchor="middle" x="537" y="-197" font-family="Helvetica,sans-Serif" font-size="10.00">MenuGui</text>
</a>
</g>
</g>
<!-- Node7804&#45;&gt;Node7805 -->
<g id="edge3" class="edge"><title>Node7804&#45;&gt;Node7805</title>
<path fill="none" stroke="midnightblue" d="M439.604,-191.311C448.013,-192.505 456.583,-193.722 464.971,-194.913"/>
<polygon fill="midnightblue" stroke="midnightblue" points="439.842,-187.809 429.449,-189.869 438.858,-194.74 439.842,-187.809"/>
</g>
<!-- Node7809 -->
<g id="node8" class="node"><title>Node7809</title>
<g id="a_node8"><a xlink:href="../../d8/d2c/class_ro_r_1_1_g_u_i_1_1_game_settings.html#aeb21469250c1f403cfc4e281271b339f" target="_top" xlink:title="RoR::GUI::GameSettings\l::GameSettings">
<polygon fill="white" stroke="black" points="474,-141 474,-171 600,-171 600,-141 474,-141"/>
<text text-anchor="start" x="482" y="-159" font-family="Helvetica,sans-Serif" font-size="10.00">RoR::GUI::GameSettings</text>
<text text-anchor="middle" x="537" y="-148" font-family="Helvetica,sans-Serif" font-size="10.00">::GameSettings</text>
</a>
</g>
</g>
<!-- Node7804&#45;&gt;Node7809 -->
<g id="edge7" class="edge"><title>Node7804&#45;&gt;Node7809</title>
<path fill="none" stroke="midnightblue" d="M439.412,-170.288C450.863,-168.594 462.617,-166.856 473.807,-165.2"/>
<polygon fill="midnightblue" stroke="midnightblue" points="438.829,-166.836 429.449,-171.762 439.854,-173.761 438.829,-166.836"/>
</g>
<!-- Node7806 -->
<g id="node5" class="node"><title>Node7806</title>
<g id="a_node5"><a xlink:href="../../d4/d14/class_ro_r_1_1_main_menu.html#a582e508f1bb1578d1124260de49e438b" target="_top" xlink:title="RoR::MainMenu::EnterMain\lMenuLoop">
<polygon fill="white" stroke="black" points="645,-190 645,-220 782,-220 782,-190 645,-190"/>
<text text-anchor="start" x="653" y="-208" font-family="Helvetica,sans-Serif" font-size="10.00">RoR::MainMenu::EnterMain</text>
<text text-anchor="middle" x="713.5" y="-197" font-family="Helvetica,sans-Serif" font-size="10.00">MenuLoop</text>
</a>
</g>
</g>
<!-- Node7805&#45;&gt;Node7806 -->
<g id="edge4" class="edge"><title>Node7805&#45;&gt;Node7806</title>
<path fill="none" stroke="midnightblue" d="M619.243,-205C627.822,-205 636.478,-205 644.879,-205"/>
<polygon fill="midnightblue" stroke="midnightblue" points="619.228,-201.5 609.228,-205 619.227,-208.5 619.228,-201.5"/>
</g>
<!-- Node7807 -->
<g id="node6" class="node"><title>Node7807</title>
<g id="a_node6"><a xlink:href="../../df/d0a/main_8cpp.html#a0ddf1224851353fc92bfbff6f499fa97" target="_top" xlink:title="main">
<polygon fill="white" stroke="black" points="818,-195.5 818,-214.5 856,-214.5 856,-195.5 818,-195.5"/>
<text text-anchor="middle" x="837" y="-202.5" font-family="Helvetica,sans-Serif" font-size="10.00">main</text>
</a>
</g>
</g>
<!-- Node7806&#45;&gt;Node7807 -->
<g id="edge5" class="edge"><title>Node7806&#45;&gt;Node7807</title>
<path fill="none" stroke="midnightblue" d="M792.013,-205C801.457,-205 810.315,-205 817.572,-205"/>
<polygon fill="midnightblue" stroke="midnightblue" points="792.001,-201.5 782.001,-205 792.001,-208.5 792.001,-201.5"/>
</g>
<!-- Node7808 -->
<g id="node7" class="node"><title>Node7808</title>
<g id="a_node7"><a xlink:href="../../df/d0a/main_8cpp.html#a2922bc5d5c2d77a3020cfbf9df12aab0" target="_top" xlink:title="WinMain">
<polygon fill="white" stroke="black" points="892,-195.5 892,-214.5 947,-214.5 947,-195.5 892,-195.5"/>
<text text-anchor="middle" x="919.5" y="-202.5" font-family="Helvetica,sans-Serif" font-size="10.00">WinMain</text>
</a>
</g>
</g>
<!-- Node7807&#45;&gt;Node7808 -->
<g id="edge6" class="edge"><title>Node7807&#45;&gt;Node7808</title>
<path fill="none" stroke="midnightblue" d="M866.519,-205C874.73,-205 883.653,-205 891.752,-205"/>
<polygon fill="midnightblue" stroke="midnightblue" points="866.267,-201.5 856.267,-205 866.267,-208.5 866.267,-201.5"/>
</g>
<!-- Node7810&#45;&gt;Node7804 -->
<g id="edge9" class="edge"><title>Node7810&#45;&gt;Node7804</title>
<path fill="none" stroke="midnightblue" d="M262.134,-169.262C275.472,-170.784 289.521,-172.387 302.805,-173.903"/>
<polygon fill="midnightblue" stroke="midnightblue" points="262.431,-165.773 252.098,-168.116 261.637,-172.728 262.431,-165.773"/>
</g>
<!-- Node7812&#45;&gt;Node7813 -->
<g id="edge12" class="edge"><title>Node7812&#45;&gt;Node7813</title>
<path fill="none" stroke="midnightblue" d="M250.309,-74.1757C273.783,-68.8184 301.165,-62.5689 323.287,-57.5201"/>
<polygon fill="midnightblue" stroke="midnightblue" points="249.485,-70.7736 240.515,-76.411 251.043,-77.5981 249.485,-70.7736"/>
</g>
<!-- Node7814 -->
<g id="node13" class="node"><title>Node7814</title>
<g id="a_node13"><a xlink:href="../../d5/d0a/imgui__demo_8cpp.html#a4dadf5e7b393795666d19af9694037cf" target="_top" xlink:title="ShowExampleAppLongText">
<polygon fill="white" stroke="black" points="469,-38.5 469,-57.5 605,-57.5 605,-38.5 469,-38.5"/>
<text text-anchor="middle" x="537" y="-45.5" font-family="Helvetica,sans-Serif" font-size="10.00">ShowExampleAppLongText</text>
</a>
</g>
</g>
<!-- Node7813&#45;&gt;Node7814 -->
<g id="edge13" class="edge"><title>Node7813&#45;&gt;Node7814</title>
<path fill="none" stroke="midnightblue" d="M439.154,-41.3144C449.03,-41.2107 459.135,-41.2322 468.915,-41.3791"/>
<polygon fill="midnightblue" stroke="midnightblue" points="438.916,-37.8175 428.97,-41.4679 439.021,-44.8168 438.916,-37.8175"/>
</g>
<!-- Node7814&#45;&gt;Node7813 -->
<g id="edge14" class="edge"><title>Node7814&#45;&gt;Node7813</title>
<path fill="none" stroke="midnightblue" d="M458.629,-54.7286C448.69,-54.7884 438.618,-54.7229 428.97,-54.5321"/>
<polygon fill="midnightblue" stroke="midnightblue" points="458.952,-58.2255 468.915,-54.6209 458.879,-51.2259 458.952,-58.2255"/>
</g>
<!-- Node7815&#45;&gt;Node7813 -->
<g id="edge17" class="edge"><title>Node7815&#45;&gt;Node7813</title>
<path fill="none" stroke="midnightblue" d="M250.309,-21.8243C273.783,-27.1816 301.165,-33.4311 323.287,-38.4799"/>
<polygon fill="midnightblue" stroke="midnightblue" points="251.043,-18.4019 240.515,-19.589 249.485,-25.2264 251.043,-18.4019"/>
</g>
<!-- Node7815&#45;&gt;Node7814 -->
<g id="edge18" class="edge"><title>Node7815&#45;&gt;Node7814</title>
<path fill="none" stroke="midnightblue" d="M268.003,-14.0298C313.839,-17.1052 375.136,-22.0133 429,-29 448.365,-31.5119 469.561,-35.0983 487.943,-38.4799"/>
<polygon fill="midnightblue" stroke="midnightblue" points="268.087,-10.5279 257.878,-13.3634 267.627,-17.5127 268.087,-10.5279"/>
</g>
</g>
</svg>
        <g id="navigator" transform="translate(0 0)" fill="#404254">
                <rect fill="#f2f5e9" fill-opacity="0.5" stroke="#606060" stroke-width=".5" x="0" y="0" width="60" height="60"/>
                <use id="zoomplus" xlink:href="#zoomPlus" x="17" y="9" onmousedown="handleZoom(evt,'in')"/>
                <use id="zoomminus" xlink:href="#zoomMin" x="42" y="9" onmousedown="handleZoom(evt,'out')"/>
                <use id="reset" xlink:href="#resetDef" x="30" y="36" onmousedown="handleReset()"/>
                <g id="arrowUp" xlink:href="#dirArrow" transform="translate(30 24)" onmousedown="handlePan(0,-1)">
                  <use xlink:href="#rim" fill="#404040">
                        <set attributeName="fill" to="#808080" begin="arrowUp.mouseover" end="arrowUp.mouseout"/>
                  </use>
                  <path fill="none" stroke="white" stroke-width="1.5" d="M0,-3.0v7 M-2.5,-0.5L0,-3.0L2.5,-0.5"/>
                </g>
                <g id="arrowRight" xlink:href="#dirArrow" transform="rotate(90) translate(36 -43)" onmousedown="handlePan(1,0)">
                  <use xlink:href="#rim" fill="#404040">
                        <set attributeName="fill" to="#808080" begin="arrowRight.mouseover" end="arrowRight.mouseout"/>
                  </use>
                  <path fill="none" stroke="white" stroke-width="1.5" d="M0,-3.0v7 M-2.5,-0.5L0,-3.0L2.5,-0.5"/>
                </g>
                <g id="arrowDown" xlink:href="#dirArrow" transform="rotate(180) translate(-30 -48)" onmousedown="handlePan(0,1)">
                  <use xlink:href="#rim" fill="#404040">
                        <set attributeName="fill" to="#808080" begin="arrowDown.mouseover" end="arrowDown.mouseout"/>
                  </use>
                  <path fill="none" stroke="white" stroke-width="1.5" d="M0,-3.0v7 M-2.5,-0.5L0,-3.0L2.5,-0.5"/>
                </g>
                <g id="arrowLeft" xlink:href="#dirArrow" transform="rotate(270) translate(-36 17)" onmousedown="handlePan(-1,0)">
                  <use xlink:href="#rim" fill="#404040">
                        <set attributeName="fill" to="#808080" begin="arrowLeft.mouseover" end="arrowLeft.mouseout"/>
                  </use>
                  <path fill="none" stroke="white" stroke-width="1.5" d="M0,-3.0v7 M-2.5,-0.5L0,-3.0L2.5,-0.5"/>
                </g>
        </g>
        <svg viewBox="0 0 15 15" width="100%" height="30px" preserveAspectRatio="xMaxYMin meet">
         <g id="arrow_out" transform="scale(0.3 0.3)">
          <a xlink:href="namespace_im_gui_a57d73c1d0ef807fef734d91024092027_icgraph_org.svg" target="_base">
           <rect id="button" ry="5" rx="5" y="6" x="6" height="38" width="38"
                fill="#f2f5e9" fill-opacity="0.5" stroke="#606060" stroke-width="1.0"/>
           <path id="arrow"
             d="M 11.500037,31.436501 C 11.940474,20.09759 22.043105,11.32322 32.158766,21.979434 L 37.068811,17.246167 C 37.068811,17.246167 37.088388,32 37.088388,32 L 22.160133,31.978069 C 22.160133,31.978069 26.997745,27.140456 26.997745,27.140456 C 18.528582,18.264221 13.291696,25.230495 11.500037,31.436501 z"
             style="fill:#404040;"/>
          </a>
         </g>
        </svg>
</svg>
