<?xml version="1.0" encoding="UTF-8" standalone="no"?>
<!DOCTYPE svg PUBLIC "-//W3C//DTD SVG 1.1//EN"
 "http://www.w3.org/Graphics/SVG/1.1/DTD/svg11.dtd">
<!-- Generated by graphviz version 2.38.0 (20140413.2041)
 -->
<!-- Title: ImGui::InputInt4 Pages: 1 -->
<svg width="426pt" height="28pt"
 viewBox="0.00 0.00 426.00 28.00" xmlns="http://www.w3.org/2000/svg" xmlns:xlink="http://www.w3.org/1999/xlink">
<g id="graph0" class="graph" transform="scale(1 1) rotate(0) translate(4 24)">
<title>ImGui::InputInt4</title>
<polygon fill="white" stroke="none" points="-4,4 -4,-24 422,-24 422,4 -4,4"/>
<!-- Node29440 -->
<g id="node1" class="node"><title>Node29440</title>
<polygon fill="#bfbfbf" stroke="black" points="0,-0.5 0,-19.5 85,-19.5 85,-0.5 0,-0.5"/>
<text text-anchor="middle" x="42.5" y="-7.5" font-family="Helvetica,sans-Serif" font-size="10.00">ImGui::InputInt4</text>
</g>
<!-- Node29441 -->
<g id="node2" class="node"><title>Node29441</title>
<g id="a_node2"><a xlink:href="../../df/d13/namespace_im_gui.html#a52880ae1ecdd704a083558d31c9bfa50" target="_top" xlink:title="ImGui::ShowTestWindow">
<polygon fill="white" stroke="black" points="121,-0.5 121,-19.5 246,-19.5 246,-0.5 121,-0.5"/>
<text text-anchor="middle" x="183.5" y="-7.5" font-family="Helvetica,sans-Serif" font-size="10.00">ImGui::ShowTestWindow</text>
</a>
</g>
</g>
<!-- Node29440&#45;&gt;Node29441 -->
<g id="edge1" class="edge"><title>Node29440&#45;&gt;Node29441</title>
<path fill="none" stroke="midnightblue" d="M95.4418,-10C103.704,-10 112.32,-10 120.78,-10"/>
<polygon fill="midnightblue" stroke="midnightblue" points="95.2046,-6.5001 85.2046,-10 95.2045,-13.5001 95.2046,-6.5001"/>
</g>
<!-- Node29442 -->
<g id="node3" class="node"><title>Node29442</title>
<g id="a_node3"><a xlink:href="../../d5/d0a/imgui__demo_8cpp.html#a4dadf5e7b393795666d19af9694037cf" target="_top" xlink:title="ShowExampleAppLongText">
<polygon fill="white" stroke="black" points="282,-0.5 282,-19.5 418,-19.5 418,-0.5 282,-0.5"/>
<text text-anchor="middle" x="350" y="-7.5" font-family="Helvetica,sans-Serif" font-size="10.00">ShowExampleAppLongText</text>
</a>
</g>
</g>
<!-- Node29441&#45;&gt;Node29442 -->
<g id="edge2" class="edge"><title>Node29441&#45;&gt;Node29442</title>
<path fill="none" stroke="midnightblue" d="M256.464,-3.29714C264.942,-3.21907 273.567,-3.23797 281.973,-3.35383"/>
<polygon fill="midnightblue" stroke="midnightblue" points="256.172,0.199212 246.222,-3.44044 256.27,-6.8001 256.172,0.199212"/>
</g>
<!-- Node29442&#45;&gt;Node29441 -->
<g id="edge3" class="edge"><title>Node29442&#45;&gt;Node29441</title>
<path fill="none" stroke="midnightblue" d="M271.916,-16.7381C263.301,-16.7777 254.609,-16.7182 246.222,-16.5596"/>
<polygon fill="midnightblue" stroke="midnightblue" points="272.005,-20.2376 281.973,-16.6462 271.941,-13.2379 272.005,-20.2376"/>
</g>
</g>
</svg>
