<?xml version="1.0" encoding="UTF-8" standalone="no"?>
<!DOCTYPE svg PUBLIC "-//W3C//DTD SVG 1.1//EN"
 "http://www.w3.org/Graphics/SVG/1.1/DTD/svg11.dtd">
<!-- Generated by graphviz version 2.38.0 (20140413.2041)
 -->
<!-- Title: ImGui::SetScrollHere Pages: 1 -->
<!--zoomable 180 -->
<svg id="main" version="1.1" xmlns="http://www.w3.org/2000/svg" xmlns:xlink="http://www.w3.org/1999/xlink" xml:space="preserve" onload="init(evt)">
<style type="text/css"><![CDATA[
.edge:hover path { stroke: red; }
.edge:hover polygon { stroke: red; fill: red; }
]]></style>
<script type="text/javascript"><![CDATA[
var edges = document.getElementsByTagName('g');
if (edges && edges.length) {
  for (var i=0;i<edges.length;i++) {
    if (edges[i].id.substr(0,4)=='edge') {
      edges[i].setAttribute('class','edge');
    }
  }
}
]]></script>
        <defs>
                <circle id="rim" cx="0" cy="0" r="7"/>
                <circle id="rim2" cx="0" cy="0" r="3.5"/>
                <g id="zoomPlus">
                        <use xlink:href="#rim" fill="#404040">
                                <set attributeName="fill" to="#808080" begin="zoomplus.mouseover" end="zoomplus.mouseout"/>
                        </use>
                        <path d="M-4,0h8M0,-4v8" fill="none" stroke="white" stroke-width="1.5" pointer-events="none"/>
                </g>
                <g id="zoomMin">
                        <use xlink:href="#rim" fill="#404040">
                                <set attributeName="fill" to="#808080" begin="zoomminus.mouseover" end="zoomminus.mouseout"/>
                        </use>
                        <path d="M-4,0h8" fill="none" stroke="white" stroke-width="1.5" pointer-events="none"/>
                </g>
                <g id="dirArrow">
                        <path fill="none" stroke="white" stroke-width="1.5" d="M0,-3.0v7 M-2.5,-0.5L0,-3.0L2.5,-0.5"/>
                </g>
               <g id="resetDef">
                       <use xlink:href="#rim2" fill="#404040">
                               <set attributeName="fill" to="#808080" begin="reset.mouseover" end="reset.mouseout"/>
                       </use>
               </g>
        </defs>

<script type="text/javascript">
var viewWidth = 787;
var viewHeight = 180;
var sectionId = 'dynsection-430';
</script>
<script xlink:href="../../svgpan.js"/>
<svg id="graph" class="graph">
<g id="viewport">
<title>ImGui::SetScrollHere</title>
<polygon fill="white" stroke="none" points="-4,4 -4,-176 783,-176 783,4 -4,4"/>
<!-- Node57606 -->
<g id="node1" class="node"><title>Node57606</title>
<polygon fill="#bfbfbf" stroke="black" points="0,-76.5 0,-95.5 108,-95.5 108,-76.5 0,-76.5"/>
<text text-anchor="middle" x="54" y="-83.5" font-family="Helvetica,sans-Serif" font-size="10.00">ImGui::SetScrollHere</text>
</g>
<!-- Node57607 -->
<g id="node2" class="node"><title>Node57607</title>
<g id="a_node2"><a xlink:href="../../df/d13/namespace_im_gui.html#ae80520312b19a7039b77d2bafcbda8e5" target="_top" xlink:title="ImGui::Combo">
<polygon fill="white" stroke="black" points="172,-152.5 172,-171.5 251,-171.5 251,-152.5 172,-152.5"/>
<text text-anchor="middle" x="211.5" y="-159.5" font-family="Helvetica,sans-Serif" font-size="10.00">ImGui::Combo</text>
</a>
</g>
</g>
<!-- Node57606&#45;&gt;Node57607 -->
<g id="edge1" class="edge"><title>Node57606&#45;&gt;Node57607</title>
<path fill="none" stroke="midnightblue" d="M75.579,-101.649C93.0114,-114.283 119.077,-131.751 144,-143 152.755,-146.952 162.533,-150.289 171.838,-153.01"/>
<polygon fill="midnightblue" stroke="midnightblue" points="77.4263,-98.6623 67.3017,-95.5409 73.2699,-104.295 77.4263,-98.6623"/>
</g>
<!-- Node57608 -->
<g id="node3" class="node"><title>Node57608</title>
<g id="a_node3"><a xlink:href="../../df/d13/namespace_im_gui.html#a7cc7b1f2269550cfce93625243531ff3" target="_top" xlink:title="ImGui::SetScrollPosHere">
<polygon fill="white" stroke="black" points="149,-114.5 149,-133.5 274,-133.5 274,-114.5 149,-114.5"/>
<text text-anchor="middle" x="211.5" y="-121.5" font-family="Helvetica,sans-Serif" font-size="10.00">ImGui::SetScrollPosHere</text>
</a>
</g>
</g>
<!-- Node57606&#45;&gt;Node57608 -->
<g id="edge2" class="edge"><title>Node57606&#45;&gt;Node57608</title>
<path fill="none" stroke="midnightblue" d="M103.974,-97.968C125.765,-103.293 151.067,-109.476 171.543,-114.48"/>
<polygon fill="midnightblue" stroke="midnightblue" points="104.784,-94.563 94.2392,-95.589 103.122,-101.363 104.784,-94.563"/>
</g>
<!-- Node57609 -->
<g id="node4" class="node"><title>Node57609</title>
<g id="a_node4"><a xlink:href="../../df/d13/namespace_im_gui.html#a52880ae1ecdd704a083558d31c9bfa50" target="_top" xlink:title="ImGui::ShowTestWindow">
<polygon fill="white" stroke="black" points="482,-38.5 482,-57.5 607,-57.5 607,-38.5 482,-38.5"/>
<text text-anchor="middle" x="544.5" y="-45.5" font-family="Helvetica,sans-Serif" font-size="10.00">ImGui::ShowTestWindow</text>
</a>
</g>
</g>
<!-- Node57606&#45;&gt;Node57609 -->
<g id="edge3" class="edge"><title>Node57606&#45;&gt;Node57609</title>
<path fill="none" stroke="midnightblue" d="M118.091,-85.7207C195.578,-84.7369 330.904,-80.9375 446,-67 464.319,-64.7817 484.357,-61.0985 501.478,-57.5625"/>
<polygon fill="midnightblue" stroke="midnightblue" points="117.97,-82.2217 108.011,-85.8368 118.051,-89.2213 117.97,-82.2217"/>
</g>
<!-- Node57611 -->
<g id="node6" class="node"><title>Node57611</title>
<g id="a_node6"><a xlink:href="../../de/d1c/struct_example_app_console.html#a0518a09c7e8648dd52c7c06df19ac17a" target="_top" xlink:title="ExampleAppConsole::Draw">
<polygon fill="white" stroke="black" points="144,-38.5 144,-57.5 279,-57.5 279,-38.5 144,-38.5"/>
<text text-anchor="middle" x="211.5" y="-45.5" font-family="Helvetica,sans-Serif" font-size="10.00">ExampleAppConsole::Draw</text>
</a>
</g>
</g>
<!-- Node57606&#45;&gt;Node57611 -->
<g id="edge6" class="edge"><title>Node57606&#45;&gt;Node57611</title>
<path fill="none" stroke="midnightblue" d="M103.974,-74.032C125.765,-68.7069 151.067,-62.5238 171.543,-57.5201"/>
<polygon fill="midnightblue" stroke="midnightblue" points="103.122,-70.6371 94.2392,-76.411 104.784,-77.437 103.122,-70.6371"/>
</g>
<!-- Node57613 -->
<g id="node8" class="node"><title>Node57613</title>
<g id="a_node8"><a xlink:href="../../d1/db8/struct_example_app_log.html#a5ad3a4bdb89171b84aeaff96948a1f77" target="_top" xlink:title="ExampleAppLog::Draw">
<polygon fill="white" stroke="black" points="153.5,-0.5 153.5,-19.5 269.5,-19.5 269.5,-0.5 153.5,-0.5"/>
<text text-anchor="middle" x="211.5" y="-7.5" font-family="Helvetica,sans-Serif" font-size="10.00">ExampleAppLog::Draw</text>
</a>
</g>
</g>
<!-- Node57606&#45;&gt;Node57613 -->
<g id="edge9" class="edge"><title>Node57606&#45;&gt;Node57613</title>
<path fill="none" stroke="midnightblue" d="M75.579,-70.3511C93.0114,-57.7165 119.077,-40.2486 144,-29 152.208,-25.2954 161.314,-22.1307 170.088,-19.5075"/>
<polygon fill="midnightblue" stroke="midnightblue" points="73.2699,-67.7052 67.3017,-76.4591 77.4263,-73.3377 73.2699,-67.7052"/>
</g>
<!-- Node57610 -->
<g id="node5" class="node"><title>Node57610</title>
<g id="a_node5"><a xlink:href="../../d5/d0a/imgui__demo_8cpp.html#a4dadf5e7b393795666d19af9694037cf" target="_top" xlink:title="ShowExampleAppLongText">
<polygon fill="white" stroke="black" points="643,-38.5 643,-57.5 779,-57.5 779,-38.5 643,-38.5"/>
<text text-anchor="middle" x="711" y="-45.5" font-family="Helvetica,sans-Serif" font-size="10.00">ShowExampleAppLongText</text>
</a>
</g>
</g>
<!-- Node57609&#45;&gt;Node57610 -->
<g id="edge4" class="edge"><title>Node57609&#45;&gt;Node57610</title>
<path fill="none" stroke="midnightblue" d="M617.464,-41.2971C625.942,-41.2191 634.567,-41.238 642.973,-41.3538"/>
<polygon fill="midnightblue" stroke="midnightblue" points="617.172,-37.8008 607.222,-41.4404 617.27,-44.8001 617.172,-37.8008"/>
</g>
<!-- Node57610&#45;&gt;Node57609 -->
<g id="edge5" class="edge"><title>Node57610&#45;&gt;Node57609</title>
<path fill="none" stroke="midnightblue" d="M632.916,-54.7381C624.301,-54.7777 615.609,-54.7182 607.222,-54.5596"/>
<polygon fill="midnightblue" stroke="midnightblue" points="633.005,-58.2376 642.973,-54.6462 632.941,-51.2379 633.005,-58.2376"/>
</g>
<!-- Node57612 -->
<g id="node7" class="node"><title>Node57612</title>
<g id="a_node7"><a xlink:href="../../d5/d0a/imgui__demo_8cpp.html#a8e5624314ae6402dd0ddf2a62aa91473" target="_top" xlink:title="ShowExampleAppConsole">
<polygon fill="white" stroke="black" points="315,-38.5 315,-57.5 446,-57.5 446,-38.5 315,-38.5"/>
<text text-anchor="middle" x="380.5" y="-45.5" font-family="Helvetica,sans-Serif" font-size="10.00">ShowExampleAppConsole</text>
</a>
</g>
</g>
<!-- Node57611&#45;&gt;Node57612 -->
<g id="edge7" class="edge"><title>Node57611&#45;&gt;Node57612</title>
<path fill="none" stroke="midnightblue" d="M289.704,-48C298.154,-48 306.691,-48 314.965,-48"/>
<polygon fill="midnightblue" stroke="midnightblue" points="289.463,-44.5001 279.463,-48 289.463,-51.5001 289.463,-44.5001"/>
</g>
<!-- Node57612&#45;&gt;Node57609 -->
<g id="edge8" class="edge"><title>Node57612&#45;&gt;Node57609</title>
<path fill="none" stroke="midnightblue" d="M456.703,-48C465.156,-48 473.694,-48 481.946,-48"/>
<polygon fill="midnightblue" stroke="midnightblue" points="456.458,-44.5001 446.458,-48 456.458,-51.5001 456.458,-44.5001"/>
</g>
<!-- Node57614 -->
<g id="node9" class="node"><title>Node57614</title>
<g id="a_node9"><a xlink:href="../../d5/d0a/imgui__demo_8cpp.html#ad0303cf1f675002eb4e68c17a47b3f88" target="_top" xlink:title="ShowExampleAppLog">
<polygon fill="white" stroke="black" points="324.5,-0.5 324.5,-19.5 436.5,-19.5 436.5,-0.5 324.5,-0.5"/>
<text text-anchor="middle" x="380.5" y="-7.5" font-family="Helvetica,sans-Serif" font-size="10.00">ShowExampleAppLog</text>
</a>
</g>
</g>
<!-- Node57613&#45;&gt;Node57614 -->
<g id="edge10" class="edge"><title>Node57613&#45;&gt;Node57614</title>
<path fill="none" stroke="midnightblue" d="M279.661,-10C294.532,-10 310.123,-10 324.446,-10"/>
<polygon fill="midnightblue" stroke="midnightblue" points="279.505,-6.5001 269.505,-10 279.505,-13.5001 279.505,-6.5001"/>
</g>
<!-- Node57614&#45;&gt;Node57609 -->
<g id="edge11" class="edge"><title>Node57614&#45;&gt;Node57609</title>
<path fill="none" stroke="midnightblue" d="M432.215,-21.8961C454.986,-27.2374 481.487,-33.4537 502.915,-38.4799"/>
<polygon fill="midnightblue" stroke="midnightblue" points="432.915,-18.4653 422.379,-19.589 431.316,-25.2803 432.915,-18.4653"/>
</g>
</g>
</svg>
        <g id="navigator" transform="translate(0 0)" fill="#404254">
                <rect fill="#f2f5e9" fill-opacity="0.5" stroke="#606060" stroke-width=".5" x="0" y="0" width="60" height="60"/>
                <use id="zoomplus" xlink:href="#zoomPlus" x="17" y="9" onmousedown="handleZoom(evt,'in')"/>
                <use id="zoomminus" xlink:href="#zoomMin" x="42" y="9" onmousedown="handleZoom(evt,'out')"/>
                <use id="reset" xlink:href="#resetDef" x="30" y="36" onmousedown="handleReset()"/>
                <g id="arrowUp" xlink:href="#dirArrow" transform="translate(30 24)" onmousedown="handlePan(0,-1)">
                  <use xlink:href="#rim" fill="#404040">
                        <set attributeName="fill" to="#808080" begin="arrowUp.mouseover" end="arrowUp.mouseout"/>
                  </use>
                  <path fill="none" stroke="white" stroke-width="1.5" d="M0,-3.0v7 M-2.5,-0.5L0,-3.0L2.5,-0.5"/>
                </g>
                <g id="arrowRight" xlink:href="#dirArrow" transform="rotate(90) translate(36 -43)" onmousedown="handlePan(1,0)">
                  <use xlink:href="#rim" fill="#404040">
                        <set attributeName="fill" to="#808080" begin="arrowRight.mouseover" end="arrowRight.mouseout"/>
                  </use>
                  <path fill="none" stroke="white" stroke-width="1.5" d="M0,-3.0v7 M-2.5,-0.5L0,-3.0L2.5,-0.5"/>
                </g>
                <g id="arrowDown" xlink:href="#dirArrow" transform="rotate(180) translate(-30 -48)" onmousedown="handlePan(0,1)">
                  <use xlink:href="#rim" fill="#404040">
                        <set attributeName="fill" to="#808080" begin="arrowDown.mouseover" end="arrowDown.mouseout"/>
                  </use>
                  <path fill="none" stroke="white" stroke-width="1.5" d="M0,-3.0v7 M-2.5,-0.5L0,-3.0L2.5,-0.5"/>
                </g>
                <g id="arrowLeft" xlink:href="#dirArrow" transform="rotate(270) translate(-36 17)" onmousedown="handlePan(-1,0)">
                  <use xlink:href="#rim" fill="#404040">
                        <set attributeName="fill" to="#808080" begin="arrowLeft.mouseover" end="arrowLeft.mouseout"/>
                  </use>
                  <path fill="none" stroke="white" stroke-width="1.5" d="M0,-3.0v7 M-2.5,-0.5L0,-3.0L2.5,-0.5"/>
                </g>
        </g>
        <svg viewBox="0 0 15 15" width="100%" height="30px" preserveAspectRatio="xMaxYMin meet">
         <g id="arrow_out" transform="scale(0.3 0.3)">
          <a xlink:href="namespace_im_gui_aa60ea4a42b8d03d27431f8e79b9f0254_icgraph_org.svg" target="_base">
           <rect id="button" ry="5" rx="5" y="6" x="6" height="38" width="38"
                fill="#f2f5e9" fill-opacity="0.5" stroke="#606060" stroke-width="1.0"/>
           <path id="arrow"
             d="M 11.500037,31.436501 C 11.940474,20.09759 22.043105,11.32322 32.158766,21.979434 L 37.068811,17.246167 C 37.068811,17.246167 37.088388,32 37.088388,32 L 22.160133,31.978069 C 22.160133,31.978069 26.997745,27.140456 26.997745,27.140456 C 18.528582,18.264221 13.291696,25.230495 11.500037,31.436501 z"
             style="fill:#404040;"/>
          </a>
         </g>
        </svg>
</svg>
