<?xml version="1.0" encoding="UTF-8" standalone="no"?>
<!DOCTYPE svg PUBLIC "-//W3C//DTD SVG 1.1//EN"
 "http://www.w3.org/Graphics/SVG/1.1/DTD/svg11.dtd">
<!-- Generated by graphviz version 2.38.0 (20140413.2041)
 -->
<!-- Title: ImGui::GetFontSize Pages: 1 -->
<svg width="456pt" height="66pt"
 viewBox="0.00 0.00 456.00 66.00" xmlns="http://www.w3.org/2000/svg" xmlns:xlink="http://www.w3.org/1999/xlink">
<g id="graph0" class="graph" transform="scale(1 1) rotate(0) translate(4 62)">
<title>ImGui::GetFontSize</title>
<polygon fill="white" stroke="none" points="-4,4 -4,-62 452,-62 452,4 -4,4"/>
<!-- Node23846 -->
<g id="node1" class="node"><title>Node23846</title>
<polygon fill="#bfbfbf" stroke="black" points="0,-19.5 0,-38.5 103,-38.5 103,-19.5 0,-19.5"/>
<text text-anchor="middle" x="51.5" y="-26.5" font-family="Helvetica,sans-Serif" font-size="10.00">ImGui::GetFontSize</text>
</g>
<!-- Node23847 -->
<g id="node2" class="node"><title>Node23847</title>
<g id="a_node2"><a xlink:href="../../df/d13/namespace_im_gui.html#a71a2ce54252d4f142228e9cedb741a52" target="_top" xlink:title="ImGui::GetWindowFontSize">
<polygon fill="white" stroke="black" points="139,-38.5 139,-57.5 276,-57.5 276,-38.5 139,-38.5"/>
<text text-anchor="middle" x="207.5" y="-45.5" font-family="Helvetica,sans-Serif" font-size="10.00">ImGui::GetWindowFontSize</text>
</a>
</g>
</g>
<!-- Node23846&#45;&gt;Node23847 -->
<g id="edge1" class="edge"><title>Node23846&#45;&gt;Node23847</title>
<path fill="none" stroke="midnightblue" d="M113.418,-36.5158C121.801,-37.5501 130.451,-38.6173 138.945,-39.6652"/>
<polygon fill="midnightblue" stroke="midnightblue" points="113.706,-33.0249 103.352,-35.274 112.848,-39.9722 113.706,-33.0249"/>
</g>
<!-- Node23848 -->
<g id="node3" class="node"><title>Node23848</title>
<g id="a_node3"><a xlink:href="../../df/d13/namespace_im_gui.html#a52880ae1ecdd704a083558d31c9bfa50" target="_top" xlink:title="ImGui::ShowTestWindow">
<polygon fill="white" stroke="black" points="145,-0.5 145,-19.5 270,-19.5 270,-0.5 145,-0.5"/>
<text text-anchor="middle" x="207.5" y="-7.5" font-family="Helvetica,sans-Serif" font-size="10.00">ImGui::ShowTestWindow</text>
</a>
</g>
</g>
<!-- Node23846&#45;&gt;Node23848 -->
<g id="edge2" class="edge"><title>Node23846&#45;&gt;Node23848</title>
<path fill="none" stroke="midnightblue" d="M113.532,-21.47C123.876,-20.1938 134.622,-18.8681 144.978,-17.5904"/>
<polygon fill="midnightblue" stroke="midnightblue" points="112.848,-18.0278 103.352,-22.726 113.706,-24.9751 112.848,-18.0278"/>
</g>
<!-- Node23849 -->
<g id="node4" class="node"><title>Node23849</title>
<g id="a_node4"><a xlink:href="../../d5/d0a/imgui__demo_8cpp.html#a4dadf5e7b393795666d19af9694037cf" target="_top" xlink:title="ShowExampleAppLongText">
<polygon fill="white" stroke="black" points="312,-0.5 312,-19.5 448,-19.5 448,-0.5 312,-0.5"/>
<text text-anchor="middle" x="380" y="-7.5" font-family="Helvetica,sans-Serif" font-size="10.00">ShowExampleAppLongText</text>
</a>
</g>
</g>
<!-- Node23848&#45;&gt;Node23849 -->
<g id="edge3" class="edge"><title>Node23848&#45;&gt;Node23849</title>
<path fill="none" stroke="midnightblue" d="M280.352,-3.32465C290.764,-3.20776 301.45,-3.22814 311.767,-3.38581"/>
<polygon fill="midnightblue" stroke="midnightblue" points="279.998,0.170291 270.054,-3.4873 280.108,-6.82884 279.998,0.170291"/>
</g>
<!-- Node23849&#45;&gt;Node23848 -->
<g id="edge4" class="edge"><title>Node23849&#45;&gt;Node23848</title>
<path fill="none" stroke="midnightblue" d="M301.679,-16.724C291.081,-16.7937 280.319,-16.7233 270.054,-16.5127"/>
<polygon fill="midnightblue" stroke="midnightblue" points="301.806,-20.2229 311.767,-16.6142 301.729,-13.2233 301.806,-20.2229"/>
</g>
</g>
</svg>
