<?xml version="1.0" encoding="UTF-8" standalone="no"?>
<!DOCTYPE svg PUBLIC "-//W3C//DTD SVG 1.1//EN"
 "http://www.w3.org/Graphics/SVG/1.1/DTD/svg11.dtd">
<!-- Generated by graphviz version 2.38.0 (20140413.2041)
 -->
<!-- Title: RigDef::VideoCamera Pages: 1 -->
<svg width="154pt" height="139pt"
 viewBox="0.00 0.00 154.00 139.00" xmlns="http://www.w3.org/2000/svg" xmlns:xlink="http://www.w3.org/1999/xlink">
<g id="graph0" class="graph" transform="scale(1 1) rotate(0) translate(4 135)">
<title>RigDef::VideoCamera</title>
<polygon fill="white" stroke="none" points="-4,4 -4,-135 150,-135 150,4 -4,4"/>
<!-- Node1 -->
<g id="node1" class="node"><title>Node1</title>
<polygon fill="#bfbfbf" stroke="black" points="0,-0.5 0,-19.5 110,-19.5 110,-0.5 0,-0.5"/>
<text text-anchor="middle" x="55" y="-7.5" font-family="Helvetica,sans-Serif" font-size="10.00">RigDef::VideoCamera</text>
</g>
<!-- Node2 -->
<g id="node2" class="node"><title>Node2</title>
<g id="a_node2"><a xlink:href="../../d2/dad/class_rig_def_1_1_node_1_1_ref.html" target="_top" xlink:title="RigDef::Node::Ref">
<polygon fill="white" stroke="black" points="8,-111.5 8,-130.5 102,-130.5 102,-111.5 8,-111.5"/>
<text text-anchor="middle" x="55" y="-118.5" font-family="Helvetica,sans-Serif" font-size="10.00">RigDef::Node::Ref</text>
</a>
</g>
</g>
<!-- Node2&#45;&gt;Node1 -->
<g id="edge1" class="edge"><title>Node2&#45;&gt;Node1</title>
<path fill="none" stroke="#9a32cd" stroke-dasharray="5,2" d="M55,-101.193C55,-77.2756 55,-36.9893 55,-19.5133"/>
<polygon fill="#9a32cd" stroke="#9a32cd" points="51.5001,-101.447 55,-111.447 58.5001,-101.447 51.5001,-101.447"/>
<text text-anchor="middle" x="100.5" y="-85" font-family="Helvetica,sans-Serif" font-size="10.00"> alt_orientation_node</text>
<text text-anchor="middle" x="100.5" y="-74" font-family="Helvetica,sans-Serif" font-size="10.00">alt_reference_node</text>
<text text-anchor="middle" x="100.5" y="-63" font-family="Helvetica,sans-Serif" font-size="10.00">bottom_node</text>
<text text-anchor="middle" x="100.5" y="-52" font-family="Helvetica,sans-Serif" font-size="10.00">left_node</text>
<text text-anchor="middle" x="100.5" y="-41" font-family="Helvetica,sans-Serif" font-size="10.00">reference_node</text>
</g>
</g>
</svg>
