<?xml version="1.0" encoding="UTF-8" standalone="no"?>
<!DOCTYPE svg PUBLIC "-//W3C//DTD SVG 1.1//EN"
 "http://www.w3.org/Graphics/SVG/1.1/DTD/svg11.dtd">
<!-- Generated by graphviz version 2.38.0 (20140413.2041)
 -->
<!-- Title: RoR::FileSystem::getSystemFileList Pages: 1 -->
<svg width="557pt" height="116pt"
 viewBox="0.00 0.00 557.00 115.50" xmlns="http://www.w3.org/2000/svg" xmlns:xlink="http://www.w3.org/1999/xlink">
<g id="graph0" class="graph" transform="scale(1 1) rotate(0) translate(4 111.5)">
<title>RoR::FileSystem::getSystemFileList</title>
<polygon fill="white" stroke="none" points="-4,4 -4,-111.5 553,-111.5 553,4 -4,4"/>
<!-- Node24 -->
<g id="node1" class="node"><title>Node24</title>
<polygon fill="#bfbfbf" stroke="black" points="0,-44.5 0,-74.5 144,-74.5 144,-44.5 0,-44.5"/>
<text text-anchor="start" x="8" y="-62.5" font-family="Helvetica,sans-Serif" font-size="10.00">RoR::FileSystem::getSystem</text>
<text text-anchor="middle" x="72" y="-51.5" font-family="Helvetica,sans-Serif" font-size="10.00">FileList</text>
</g>
<!-- Node25 -->
<g id="node2" class="node"><title>Node25</title>
<g id="a_node2"><a xlink:href="../../d3/d64/namespace_ro_r_1_1_file_system.html#a78a496cdd3796294fcd6c3c452a23f10" target="_top" xlink:title="RoR::FileSystem::concatenatePath">
<polygon fill="white" stroke="black" points="180,-88 180,-107 350,-107 350,-88 180,-88"/>
<text text-anchor="middle" x="265" y="-95" font-family="Helvetica,sans-Serif" font-size="10.00">RoR::FileSystem::concatenatePath</text>
</a>
</g>
</g>
<!-- Node24&#45;&gt;Node25 -->
<g id="edge1" class="edge"><title>Node24&#45;&gt;Node25</title>
<path fill="none" stroke="midnightblue" d="M144.121,-73.6498C164.533,-77.7108 186.538,-82.0887 206.054,-85.9714"/>
<polygon fill="midnightblue" stroke="midnightblue" points="205.52,-89.4337 216.011,-87.9524 206.886,-82.5683 205.52,-89.4337"/>
</g>
<!-- Node27 -->
<g id="node4" class="node"><title>Node27</title>
<g id="a_node4"><a xlink:href="../../d3/d64/namespace_ro_r_1_1_file_system.html#aefc2f14edd3f91d6c92ac4d9cfac865f" target="_top" xlink:title="RoR::FileSystem::isReservedDir">
<polygon fill="white" stroke="black" points="187,-50 187,-69 343,-69 343,-50 187,-50"/>
<text text-anchor="middle" x="265" y="-57" font-family="Helvetica,sans-Serif" font-size="10.00">RoR::FileSystem::isReservedDir</text>
</a>
</g>
</g>
<!-- Node24&#45;&gt;Node27 -->
<g id="edge3" class="edge"><title>Node24&#45;&gt;Node27</title>
<path fill="none" stroke="midnightblue" d="M144.121,-59.5C154.651,-59.5 165.603,-59.5 176.42,-59.5"/>
<polygon fill="midnightblue" stroke="midnightblue" points="176.73,-63.0001 186.73,-59.5 176.73,-56.0001 176.73,-63.0001"/>
</g>
<!-- Node28 -->
<g id="node5" class="node"><title>Node28</title>
<g id="a_node5"><a xlink:href="../../dd/d88/struct_ro_r_1_1_file_system_1_1_file_info.html#afd2999a0b840b11c7285761729067fc0" target="_top" xlink:title="RoR::FileSystem::FileInfo\l::FileInfo">
<polygon fill="white" stroke="black" points="201,-0.5 201,-30.5 329,-30.5 329,-0.5 201,-0.5"/>
<text text-anchor="start" x="209" y="-18.5" font-family="Helvetica,sans-Serif" font-size="10.00">RoR::FileSystem::FileInfo</text>
<text text-anchor="middle" x="265" y="-7.5" font-family="Helvetica,sans-Serif" font-size="10.00">::FileInfo</text>
</a>
</g>
</g>
<!-- Node24&#45;&gt;Node28 -->
<g id="edge4" class="edge"><title>Node24&#45;&gt;Node28</title>
<path fill="none" stroke="midnightblue" d="M138.197,-44.4808C155.091,-40.5891 173.395,-36.3723 190.675,-32.3917"/>
<polygon fill="midnightblue" stroke="midnightblue" points="191.753,-35.7351 200.712,-30.0795 190.181,-28.9138 191.753,-35.7351"/>
</g>
<!-- Node26 -->
<g id="node3" class="node"><title>Node26</title>
<g id="a_node3"><a xlink:href="../../d3/d64/namespace_ro_r_1_1_file_system.html#af8e0cce7d301d79f48f0367827a18ba2" target="_top" xlink:title="RoR::FileSystem::isAbsolutePath">
<polygon fill="white" stroke="black" points="386,-88 386,-107 549,-107 549,-88 386,-88"/>
<text text-anchor="middle" x="467.5" y="-95" font-family="Helvetica,sans-Serif" font-size="10.00">RoR::FileSystem::isAbsolutePath</text>
</a>
</g>
</g>
<!-- Node25&#45;&gt;Node26 -->
<g id="edge2" class="edge"><title>Node25&#45;&gt;Node26</title>
<path fill="none" stroke="midnightblue" d="M350.159,-97.5C358.539,-97.5 367.074,-97.5 375.52,-97.5"/>
<polygon fill="midnightblue" stroke="midnightblue" points="375.763,-101 385.763,-97.5 375.763,-94.0001 375.763,-101"/>
</g>
</g>
</svg>
