<?xml version="1.0" encoding="UTF-8" standalone="no"?>
<!DOCTYPE svg PUBLIC "-//W3C//DTD SVG 1.1//EN"
 "http://www.w3.org/Graphics/SVG/1.1/DTD/svg11.dtd">
<!-- Generated by graphviz version 2.38.0 (20140413.2041)
 -->
<!-- Title: RoR::FileSystem::getSystemFileList Pages: 1 -->
<!--zoomable 272 -->
<svg id="main" version="1.1" xmlns="http://www.w3.org/2000/svg" xmlns:xlink="http://www.w3.org/1999/xlink" xml:space="preserve" onload="init(evt)">
<style type="text/css"><![CDATA[
.edge:hover path { stroke: red; }
.edge:hover polygon { stroke: red; fill: red; }
]]></style>
<script type="text/javascript"><![CDATA[
var edges = document.getElementsByTagName('g');
if (edges && edges.length) {
  for (var i=0;i<edges.length;i++) {
    if (edges[i].id.substr(0,4)=='edge') {
      edges[i].setAttribute('class','edge');
    }
  }
}
]]></script>
        <defs>
                <circle id="rim" cx="0" cy="0" r="7"/>
                <circle id="rim2" cx="0" cy="0" r="3.5"/>
                <g id="zoomPlus">
                        <use xlink:href="#rim" fill="#404040">
                                <set attributeName="fill" to="#808080" begin="zoomplus.mouseover" end="zoomplus.mouseout"/>
                        </use>
                        <path d="M-4,0h8M0,-4v8" fill="none" stroke="white" stroke-width="1.5" pointer-events="none"/>
                </g>
                <g id="zoomMin">
                        <use xlink:href="#rim" fill="#404040">
                                <set attributeName="fill" to="#808080" begin="zoomminus.mouseover" end="zoomminus.mouseout"/>
                        </use>
                        <path d="M-4,0h8" fill="none" stroke="white" stroke-width="1.5" pointer-events="none"/>
                </g>
                <g id="dirArrow">
                        <path fill="none" stroke="white" stroke-width="1.5" d="M0,-3.0v7 M-2.5,-0.5L0,-3.0L2.5,-0.5"/>
                </g>
               <g id="resetDef">
                       <use xlink:href="#rim2" fill="#404040">
                               <set attributeName="fill" to="#808080" begin="reset.mouseover" end="reset.mouseout"/>
                       </use>
               </g>
        </defs>

<script type="text/javascript">
var viewWidth = 933;
var viewHeight = 272;
var sectionId = 'dynsection-4';
</script>
<script xlink:href="../../svgpan.js"/>
<svg id="graph" class="graph">
<g id="viewport">
<title>RoR::FileSystem::getSystemFileList</title>
<polygon fill="white" stroke="none" points="-4,4 -4,-268.071 929,-268.071 929,4 -4,4"/>
<!-- Node29 -->
<g id="node1" class="node"><title>Node29</title>
<polygon fill="#bfbfbf" stroke="black" points="0,-100.5 0,-130.5 144,-130.5 144,-100.5 0,-100.5"/>
<text text-anchor="start" x="8" y="-118.5" font-family="Helvetica,sans-Serif" font-size="10.00">RoR::FileSystem::getSystem</text>
<text text-anchor="middle" x="72" y="-107.5" font-family="Helvetica,sans-Serif" font-size="10.00">FileList</text>
</g>
<!-- Node30 -->
<g id="node2" class="node"><title>Node30</title>
<g id="a_node2"><a xlink:href="../../db/dfc/class_ro_r_1_1_g_u_i_1_1_open_save_file_dialog.html#a8c1b024be96a42a6be82b75bad012e1e" target="_top" xlink:title="RoR::GUI::OpenSaveFileDialog\l::update">
<polygon fill="white" stroke="black" points="180,-122.5 180,-152.5 331,-152.5 331,-122.5 180,-122.5"/>
<text text-anchor="start" x="188" y="-140.5" font-family="Helvetica,sans-Serif" font-size="10.00">RoR::GUI::OpenSaveFileDialog</text>
<text text-anchor="middle" x="255.5" y="-129.5" font-family="Helvetica,sans-Serif" font-size="10.00">::update</text>
</a>
</g>
</g>
<!-- Node29&#45;&gt;Node30 -->
<g id="edge1" class="edge"><title>Node29&#45;&gt;Node30</title>
<path fill="none" stroke="midnightblue" d="M154.19,-125.341C162.75,-126.379 171.425,-127.43 179.906,-128.458"/>
<polygon fill="midnightblue" stroke="midnightblue" points="154.561,-121.861 144.213,-124.132 153.719,-128.81 154.561,-121.861"/>
</g>
<!-- Node40 -->
<g id="node12" class="node"><title>Node40</title>
<g id="a_node12"><a xlink:href="../../d3/d64/namespace_ro_r_1_1_file_system.html#adf08cda1b817d4d2bdc9393529069c72" target="_top" xlink:title="RoR::FileSystem::scanFolder">
<polygon fill="white" stroke="black" points="183,-84 183,-103 328,-103 328,-84 183,-84"/>
<text text-anchor="middle" x="255.5" y="-91" font-family="Helvetica,sans-Serif" font-size="10.00">RoR::FileSystem::scanFolder</text>
</a>
</g>
</g>
<!-- Node29&#45;&gt;Node40 -->
<g id="edge16" class="edge"><title>Node29&#45;&gt;Node40</title>
<path fill="none" stroke="midnightblue" d="M154.436,-105.629C163.926,-104.479 173.553,-103.312 182.897,-102.179"/>
<polygon fill="midnightblue" stroke="midnightblue" points="153.719,-102.19 144.213,-106.868 154.561,-109.139 153.719,-102.19"/>
</g>
<!-- Node31 -->
<g id="node3" class="node"><title>Node31</title>
<g id="a_node3"><a xlink:href="../../db/dfc/class_ro_r_1_1_g_u_i_1_1_open_save_file_dialog.html#a14c64d9f8f06ca966e37cb11d63fe28b" target="_top" xlink:title="RoR::GUI::OpenSaveFileDialog\l::OpenSaveFileDialog">
<polygon fill="white" stroke="black" points="774,-145.5 774,-175.5 925,-175.5 925,-145.5 774,-145.5"/>
<text text-anchor="start" x="782" y="-163.5" font-family="Helvetica,sans-Serif" font-size="10.00">RoR::GUI::OpenSaveFileDialog</text>
<text text-anchor="middle" x="849.5" y="-152.5" font-family="Helvetica,sans-Serif" font-size="10.00">::OpenSaveFileDialog</text>
</a>
</g>
</g>
<!-- Node30&#45;&gt;Node31 -->
<g id="edge2" class="edge"><title>Node30&#45;&gt;Node31</title>
<path fill="none" stroke="midnightblue" d="M281.294,-159.121C302.53,-176.342 334.716,-199.487 367,-211.5 521.833,-269.115 579.933,-282.539 738,-234.5 775.775,-223.02 812.388,-193.859 832.537,-175.76"/>
<polygon fill="midnightblue" stroke="midnightblue" points="283.375,-156.3 273.441,-152.616 278.91,-161.69 283.375,-156.3"/>
</g>
<!-- Node32 -->
<g id="node4" class="node"><title>Node32</title>
<g id="a_node4"><a xlink:href="../../db/dfc/class_ro_r_1_1_g_u_i_1_1_open_save_file_dialog.html#ae04117018b6a0c82aee604912d9e7831" target="_top" xlink:title="RoR::GUI::OpenSaveFileDialog\l::notifyListSelectAccept">
<polygon fill="white" stroke="black" points="570.5,-194.5 570.5,-224.5 721.5,-224.5 721.5,-194.5 570.5,-194.5"/>
<text text-anchor="start" x="578.5" y="-212.5" font-family="Helvetica,sans-Serif" font-size="10.00">RoR::GUI::OpenSaveFileDialog</text>
<text text-anchor="middle" x="646" y="-201.5" font-family="Helvetica,sans-Serif" font-size="10.00">::notifyListSelectAccept</text>
</a>
</g>
</g>
<!-- Node30&#45;&gt;Node32 -->
<g id="edge3" class="edge"><title>Node30&#45;&gt;Node32</title>
<path fill="none" stroke="midnightblue" d="M291.719,-157.227C312.876,-168.101 340.711,-180.733 367,-187.5 434.399,-204.85 513.762,-209.652 570.401,-210.527"/>
<polygon fill="midnightblue" stroke="midnightblue" points="293.273,-154.09 282.792,-152.54 290.019,-160.288 293.273,-154.09"/>
</g>
<!-- Node33 -->
<g id="node5" class="node"><title>Node33</title>
<g id="a_node5"><a xlink:href="../../db/dfc/class_ro_r_1_1_g_u_i_1_1_open_save_file_dialog.html#af224be69b772262517ad470e2c9977c8" target="_top" xlink:title="RoR::GUI::OpenSaveFileDialog\l::upFolder">
<polygon fill="white" stroke="black" points="367,-147.5 367,-177.5 518,-177.5 518,-147.5 367,-147.5"/>
<text text-anchor="start" x="375" y="-165.5" font-family="Helvetica,sans-Serif" font-size="10.00">RoR::GUI::OpenSaveFileDialog</text>
<text text-anchor="middle" x="442.5" y="-154.5" font-family="Helvetica,sans-Serif" font-size="10.00">::upFolder</text>
</a>
</g>
</g>
<!-- Node30&#45;&gt;Node33 -->
<g id="edge5" class="edge"><title>Node30&#45;&gt;Node33</title>
<path fill="none" stroke="midnightblue" d="M341.19,-148.945C349.738,-150.1 358.376,-151.267 366.809,-152.407"/>
<polygon fill="midnightblue" stroke="midnightblue" points="341.592,-145.467 331.213,-147.596 340.655,-152.404 341.592,-145.467"/>
</g>
<!-- Node35 -->
<g id="node7" class="node"><title>Node35</title>
<g id="a_node7"><a xlink:href="../../db/dfc/class_ro_r_1_1_g_u_i_1_1_open_save_file_dialog.html#a9ea53706725c664f1977f406e7bad2d3" target="_top" xlink:title="RoR::GUI::OpenSaveFileDialog\l::setCurrentFolder">
<polygon fill="white" stroke="black" points="367,-98.5 367,-128.5 518,-128.5 518,-98.5 367,-98.5"/>
<text text-anchor="start" x="375" y="-116.5" font-family="Helvetica,sans-Serif" font-size="10.00">RoR::GUI::OpenSaveFileDialog</text>
<text text-anchor="middle" x="442.5" y="-105.5" font-family="Helvetica,sans-Serif" font-size="10.00">::setCurrentFolder</text>
</a>
</g>
</g>
<!-- Node30&#45;&gt;Node35 -->
<g id="edge9" class="edge"><title>Node30&#45;&gt;Node35</title>
<path fill="none" stroke="midnightblue" d="M341.19,-126.513C349.738,-125.404 358.376,-124.284 366.809,-123.19"/>
<polygon fill="midnightblue" stroke="midnightblue" points="340.68,-123.05 331.213,-127.807 341.581,-129.992 340.68,-123.05"/>
</g>
<!-- Node38 -->
<g id="node10" class="node"><title>Node38</title>
<g id="a_node10"><a xlink:href="../../db/dfc/class_ro_r_1_1_g_u_i_1_1_open_save_file_dialog.html#a8c491ab1e94d314e5bbcda1f01a47199" target="_top" xlink:title="RoR::GUI::OpenSaveFileDialog\l::setFileMask">
<polygon fill="white" stroke="black" points="367,-49.5 367,-79.5 518,-79.5 518,-49.5 367,-49.5"/>
<text text-anchor="start" x="375" y="-67.5" font-family="Helvetica,sans-Serif" font-size="10.00">RoR::GUI::OpenSaveFileDialog</text>
<text text-anchor="middle" x="442.5" y="-56.5" font-family="Helvetica,sans-Serif" font-size="10.00">::setFileMask</text>
</a>
</g>
</g>
<!-- Node30&#45;&gt;Node38 -->
<g id="edge14" class="edge"><title>Node30&#45;&gt;Node38</title>
<path fill="none" stroke="midnightblue" d="M316.475,-118.821C321.45,-116.836 326.35,-114.724 331,-112.5 348.128,-104.307 349.872,-97.6926 367,-89.5 374.631,-85.8502 382.935,-82.5019 391.139,-79.5232"/>
<polygon fill="midnightblue" stroke="midnightblue" points="314.964,-115.651 306.861,-122.477 317.452,-122.194 314.964,-115.651"/>
</g>
<!-- Node39 -->
<g id="node11" class="node"><title>Node39</title>
<g id="a_node11"><a xlink:href="../../db/dfc/class_ro_r_1_1_g_u_i_1_1_open_save_file_dialog.html#ab9fd3841c9e9b1807e2cfa64f4f1e623" target="_top" xlink:title="RoR::GUI::OpenSaveFileDialog\l::onDoModal">
<polygon fill="white" stroke="black" points="367,-0.5 367,-30.5 518,-30.5 518,-0.5 367,-0.5"/>
<text text-anchor="start" x="375" y="-18.5" font-family="Helvetica,sans-Serif" font-size="10.00">RoR::GUI::OpenSaveFileDialog</text>
<text text-anchor="middle" x="442.5" y="-7.5" font-family="Helvetica,sans-Serif" font-size="10.00">::onDoModal</text>
</a>
</g>
</g>
<!-- Node30&#45;&gt;Node39 -->
<g id="edge15" class="edge"><title>Node30&#45;&gt;Node39</title>
<path fill="none" stroke="midnightblue" d="M324.875,-117.235C327.017,-115.765 329.067,-114.189 331,-112.5 358.24,-88.6956 339.617,-63.139 367,-39.5 371.012,-36.037 375.53,-33.072 380.307,-30.5339"/>
<polygon fill="midnightblue" stroke="midnightblue" points="323.02,-114.266 316.226,-122.396 326.607,-120.277 323.02,-114.266"/>
</g>
<!-- Node32&#45;&gt;Node31 -->
<g id="edge4" class="edge"><title>Node32&#45;&gt;Node31</title>
<path fill="none" stroke="midnightblue" d="M718.569,-192.096C740.859,-186.676 765.235,-180.748 786.791,-175.506"/>
<polygon fill="midnightblue" stroke="midnightblue" points="717.716,-188.702 708.826,-194.465 719.37,-195.503 717.716,-188.702"/>
</g>
<!-- Node33&#45;&gt;Node32 -->
<g id="edge8" class="edge"><title>Node33&#45;&gt;Node32</title>
<path fill="none" stroke="midnightblue" d="M517.786,-179.827C538.403,-184.636 560.61,-189.816 580.61,-194.481"/>
<polygon fill="midnightblue" stroke="midnightblue" points="518.344,-176.363 507.81,-177.5 516.753,-183.18 518.344,-176.363"/>
</g>
<!-- Node34 -->
<g id="node6" class="node"><title>Node34</title>
<g id="a_node6"><a xlink:href="../../db/dfc/class_ro_r_1_1_g_u_i_1_1_open_save_file_dialog.html#a4ef8849803f1eb561068375f50c7919b" target="_top" xlink:title="RoR::GUI::OpenSaveFileDialog\l::notifyUpButtonClick">
<polygon fill="white" stroke="black" points="570.5,-145.5 570.5,-175.5 721.5,-175.5 721.5,-145.5 570.5,-145.5"/>
<text text-anchor="start" x="578.5" y="-163.5" font-family="Helvetica,sans-Serif" font-size="10.00">RoR::GUI::OpenSaveFileDialog</text>
<text text-anchor="middle" x="646" y="-152.5" font-family="Helvetica,sans-Serif" font-size="10.00">::notifyUpButtonClick</text>
</a>
</g>
</g>
<!-- Node33&#45;&gt;Node34 -->
<g id="edge6" class="edge"><title>Node33&#45;&gt;Node34</title>
<path fill="none" stroke="midnightblue" d="M528.326,-161.658C542.294,-161.519 556.681,-161.377 570.376,-161.241"/>
<polygon fill="midnightblue" stroke="midnightblue" points="528.21,-158.159 518.245,-161.758 528.279,-165.159 528.21,-158.159"/>
</g>
<!-- Node34&#45;&gt;Node31 -->
<g id="edge7" class="edge"><title>Node34&#45;&gt;Node31</title>
<path fill="none" stroke="midnightblue" d="M731.826,-160.5C745.794,-160.5 760.181,-160.5 773.876,-160.5"/>
<polygon fill="midnightblue" stroke="midnightblue" points="731.745,-157 721.745,-160.5 731.745,-164 731.745,-157"/>
</g>
<!-- Node36 -->
<g id="node8" class="node"><title>Node36</title>
<g id="a_node8"><a xlink:href="../../db/dfc/class_ro_r_1_1_g_u_i_1_1_open_save_file_dialog.html#a9267253699dd8441295323f62b23afb9" target="_top" xlink:title="RoR::GUI::OpenSaveFileDialog\l::notifyDirectoryComboAccept">
<polygon fill="white" stroke="black" points="570.5,-96.5 570.5,-126.5 721.5,-126.5 721.5,-96.5 570.5,-96.5"/>
<text text-anchor="start" x="578.5" y="-114.5" font-family="Helvetica,sans-Serif" font-size="10.00">RoR::GUI::OpenSaveFileDialog</text>
<text text-anchor="middle" x="646" y="-103.5" font-family="Helvetica,sans-Serif" font-size="10.00">::notifyDirectoryComboAccept</text>
</a>
</g>
</g>
<!-- Node35&#45;&gt;Node36 -->
<g id="edge10" class="edge"><title>Node35&#45;&gt;Node36</title>
<path fill="none" stroke="midnightblue" d="M528.326,-112.658C542.294,-112.519 556.681,-112.377 570.376,-112.241"/>
<polygon fill="midnightblue" stroke="midnightblue" points="528.21,-109.159 518.245,-112.758 528.279,-116.159 528.21,-109.159"/>
</g>
<!-- Node37 -->
<g id="node9" class="node"><title>Node37</title>
<g id="a_node9"><a xlink:href="../../db/dfc/class_ro_r_1_1_g_u_i_1_1_open_save_file_dialog.html#a037b18921b0deef4ca97e9f865c6540b" target="_top" xlink:title="RoR::GUI::OpenSaveFileDialog\l::notifyDirectoryComboChangePosition">
<polygon fill="white" stroke="black" points="554,-47.5 554,-77.5 738,-77.5 738,-47.5 554,-47.5"/>
<text text-anchor="start" x="562" y="-65.5" font-family="Helvetica,sans-Serif" font-size="10.00">RoR::GUI::OpenSaveFileDialog</text>
<text text-anchor="middle" x="646" y="-54.5" font-family="Helvetica,sans-Serif" font-size="10.00">::notifyDirectoryComboChangePosition</text>
</a>
</g>
</g>
<!-- Node35&#45;&gt;Node37 -->
<g id="edge12" class="edge"><title>Node35&#45;&gt;Node37</title>
<path fill="none" stroke="midnightblue" d="M512.855,-95.9462C536.569,-89.944 562.862,-83.2892 585.71,-77.5065"/>
<polygon fill="midnightblue" stroke="midnightblue" points="511.702,-92.6274 502.867,-98.4742 513.42,-99.4134 511.702,-92.6274"/>
</g>
<!-- Node36&#45;&gt;Node31 -->
<g id="edge11" class="edge"><title>Node36&#45;&gt;Node31</title>
<path fill="none" stroke="midnightblue" d="M718.569,-128.904C740.859,-134.324 765.235,-140.252 786.791,-145.494"/>
<polygon fill="midnightblue" stroke="midnightblue" points="719.37,-125.497 708.826,-126.535 717.716,-132.298 719.37,-125.497"/>
</g>
<!-- Node37&#45;&gt;Node31 -->
<g id="edge13" class="edge"><title>Node37&#45;&gt;Node31</title>
<path fill="none" stroke="midnightblue" d="M721.575,-80.888C727.209,-82.9124 732.743,-85.1147 738,-87.5 772.547,-103.176 808.465,-128.97 829.635,-145.328"/>
<polygon fill="midnightblue" stroke="midnightblue" points="722.622,-77.5474 712.028,-77.6479 720.372,-84.176 722.622,-77.5474"/>
</g>
</g>
</svg>
        <g id="navigator" transform="translate(0 0)" fill="#404254">
                <rect fill="#f2f5e9" fill-opacity="0.5" stroke="#606060" stroke-width=".5" x="0" y="0" width="60" height="60"/>
                <use id="zoomplus" xlink:href="#zoomPlus" x="17" y="9" onmousedown="handleZoom(evt,'in')"/>
                <use id="zoomminus" xlink:href="#zoomMin" x="42" y="9" onmousedown="handleZoom(evt,'out')"/>
                <use id="reset" xlink:href="#resetDef" x="30" y="36" onmousedown="handleReset()"/>
                <g id="arrowUp" xlink:href="#dirArrow" transform="translate(30 24)" onmousedown="handlePan(0,-1)">
                  <use xlink:href="#rim" fill="#404040">
                        <set attributeName="fill" to="#808080" begin="arrowUp.mouseover" end="arrowUp.mouseout"/>
                  </use>
                  <path fill="none" stroke="white" stroke-width="1.5" d="M0,-3.0v7 M-2.5,-0.5L0,-3.0L2.5,-0.5"/>
                </g>
                <g id="arrowRight" xlink:href="#dirArrow" transform="rotate(90) translate(36 -43)" onmousedown="handlePan(1,0)">
                  <use xlink:href="#rim" fill="#404040">
                        <set attributeName="fill" to="#808080" begin="arrowRight.mouseover" end="arrowRight.mouseout"/>
                  </use>
                  <path fill="none" stroke="white" stroke-width="1.5" d="M0,-3.0v7 M-2.5,-0.5L0,-3.0L2.5,-0.5"/>
                </g>
                <g id="arrowDown" xlink:href="#dirArrow" transform="rotate(180) translate(-30 -48)" onmousedown="handlePan(0,1)">
                  <use xlink:href="#rim" fill="#404040">
                        <set attributeName="fill" to="#808080" begin="arrowDown.mouseover" end="arrowDown.mouseout"/>
                  </use>
                  <path fill="none" stroke="white" stroke-width="1.5" d="M0,-3.0v7 M-2.5,-0.5L0,-3.0L2.5,-0.5"/>
                </g>
                <g id="arrowLeft" xlink:href="#dirArrow" transform="rotate(270) translate(-36 17)" onmousedown="handlePan(-1,0)">
                  <use xlink:href="#rim" fill="#404040">
                        <set attributeName="fill" to="#808080" begin="arrowLeft.mouseover" end="arrowLeft.mouseout"/>
                  </use>
                  <path fill="none" stroke="white" stroke-width="1.5" d="M0,-3.0v7 M-2.5,-0.5L0,-3.0L2.5,-0.5"/>
                </g>
        </g>
        <svg viewBox="0 0 15 15" width="100%" height="30px" preserveAspectRatio="xMaxYMin meet">
         <g id="arrow_out" transform="scale(0.3 0.3)">
          <a xlink:href="namespace_ro_r_1_1_file_system_ae33ccfefa159afb285835c8fa5498a8b_icgraph_org.svg" target="_base">
           <rect id="button" ry="5" rx="5" y="6" x="6" height="38" width="38"
                fill="#f2f5e9" fill-opacity="0.5" stroke="#606060" stroke-width="1.0"/>
           <path id="arrow"
             d="M 11.500037,31.436501 C 11.940474,20.09759 22.043105,11.32322 32.158766,21.979434 L 37.068811,17.246167 C 37.068811,17.246167 37.088388,32 37.088388,32 L 22.160133,31.978069 C 22.160133,31.978069 26.997745,27.140456 26.997745,27.140456 C 18.528582,18.264221 13.291696,25.230495 11.500037,31.436501 z"
             style="fill:#404040;"/>
          </a>
         </g>
        </svg>
</svg>
