<?xml version="1.0" encoding="UTF-8" standalone="no"?>
<!DOCTYPE svg PUBLIC "-//W3C//DTD SVG 1.1//EN"
 "http://www.w3.org/Graphics/SVG/1.1/DTD/svg11.dtd">
<!-- Generated by graphviz version 2.38.0 (20140413.2041)
 -->
<!-- Title: Hydrax::Hydrax::getViewport Pages: 1 -->
<svg width="1350pt" height="443pt"
 viewBox="0.00 0.00 1350.00 443.00" xmlns="http://www.w3.org/2000/svg" xmlns:xlink="http://www.w3.org/1999/xlink">
<g id="graph0" class="graph" transform="scale(1 1) rotate(0) translate(4 439)">
<title>Hydrax::Hydrax::getViewport</title>
<polygon fill="white" stroke="none" points="-4,4 -4,-439 1346,-439 1346,4 -4,4"/>
<!-- Node862 -->
<g id="node1" class="node"><title>Node862</title>
<polygon fill="#bfbfbf" stroke="black" points="0,-293 0,-312 141,-312 141,-293 0,-293"/>
<text text-anchor="middle" x="70.5" y="-300" font-family="Helvetica,sans-Serif" font-size="10.00">Hydrax::Hydrax::getViewport</text>
</g>
<!-- Node863 -->
<g id="node2" class="node"><title>Node863</title>
<g id="a_node2"><a xlink:href="../../da/d12/class_hydrax_1_1_material_manager.html#a445098a432e8799d4b65b1a8e7cf5192" target="_top" xlink:title="Hydrax::MaterialManager\l::_createUnderwaterCompositor">
<polygon fill="white" stroke="black" points="177,-360.5 177,-390.5 330,-390.5 330,-360.5 177,-360.5"/>
<text text-anchor="start" x="185" y="-378.5" font-family="Helvetica,sans-Serif" font-size="10.00">Hydrax::MaterialManager</text>
<text text-anchor="middle" x="253.5" y="-367.5" font-family="Helvetica,sans-Serif" font-size="10.00">::_createUnderwaterCompositor</text>
</a>
</g>
</g>
<!-- Node862&#45;&gt;Node863 -->
<g id="edge1" class="edge"><title>Node862&#45;&gt;Node863</title>
<path fill="none" stroke="midnightblue" d="M104.706,-315.893C135.883,-328.467 182.467,-347.255 214.976,-360.366"/>
<polygon fill="midnightblue" stroke="midnightblue" points="105.746,-312.538 95.1626,-312.043 103.128,-319.03 105.746,-312.538"/>
</g>
<!-- Node866 -->
<g id="node5" class="node"><title>Node866</title>
<g id="a_node5"><a xlink:href="../../da/d12/class_hydrax_1_1_material_manager.html#a61bccef34841ce9c0ce6c53ff27f136b" target="_top" xlink:title="Hydrax::MaterialManager\l::setCompositorEnable">
<polygon fill="white" stroke="black" points="191,-287.5 191,-317.5 316,-317.5 316,-287.5 191,-287.5"/>
<text text-anchor="start" x="199" y="-305.5" font-family="Helvetica,sans-Serif" font-size="10.00">Hydrax::MaterialManager</text>
<text text-anchor="middle" x="253.5" y="-294.5" font-family="Helvetica,sans-Serif" font-size="10.00">::setCompositorEnable</text>
</a>
</g>
</g>
<!-- Node862&#45;&gt;Node866 -->
<g id="edge4" class="edge"><title>Node862&#45;&gt;Node866</title>
<path fill="none" stroke="midnightblue" d="M151.272,-302.5C164.52,-302.5 178.08,-302.5 190.793,-302.5"/>
<polygon fill="midnightblue" stroke="midnightblue" points="151.22,-299 141.22,-302.5 151.22,-306 151.22,-299"/>
</g>
<!-- Node871 -->
<g id="node10" class="node"><title>Node871</title>
<g id="a_node10"><a xlink:href="../../d6/d76/class_hydrax_1_1_rtt_manager.html#aab5e7c56ec35030e7410e9ca01f737a1" target="_top" xlink:title="Hydrax::RttManager\l::_initializeRtt">
<polygon fill="white" stroke="black" points="201.5,-199.5 201.5,-229.5 305.5,-229.5 305.5,-199.5 201.5,-199.5"/>
<text text-anchor="start" x="209.5" y="-217.5" font-family="Helvetica,sans-Serif" font-size="10.00">Hydrax::RttManager</text>
<text text-anchor="middle" x="253.5" y="-206.5" font-family="Helvetica,sans-Serif" font-size="10.00">::_initializeRtt</text>
</a>
</g>
</g>
<!-- Node862&#45;&gt;Node871 -->
<g id="edge10" class="edge"><title>Node862&#45;&gt;Node871</title>
<path fill="none" stroke="midnightblue" d="M100.35,-288.473C133.395,-272.408 187.341,-246.18 221.329,-229.655"/>
<polygon fill="midnightblue" stroke="midnightblue" points="98.6778,-285.395 91.2147,-292.915 101.739,-291.69 98.6778,-285.395"/>
</g>
<!-- Node864 -->
<g id="node3" class="node"><title>Node864</title>
<g id="a_node3"><a xlink:href="../../da/d12/class_hydrax_1_1_material_manager.html#a6aa7b0a92b824348577d506f7bcf581b" target="_top" xlink:title="Hydrax::MaterialManager\l::createMaterials">
<polygon fill="white" stroke="black" points="745,-404.5 745,-434.5 870,-434.5 870,-404.5 745,-404.5"/>
<text text-anchor="start" x="753" y="-422.5" font-family="Helvetica,sans-Serif" font-size="10.00">Hydrax::MaterialManager</text>
<text text-anchor="middle" x="807.5" y="-411.5" font-family="Helvetica,sans-Serif" font-size="10.00">::createMaterials</text>
</a>
</g>
</g>
<!-- Node863&#45;&gt;Node864 -->
<g id="edge2" class="edge"><title>Node863&#45;&gt;Node864</title>
<path fill="none" stroke="midnightblue" d="M322.13,-392.678C336.526,-395.767 351.699,-398.604 366,-400.5 500.312,-418.311 659.474,-420.575 744.915,-420.277"/>
<polygon fill="midnightblue" stroke="midnightblue" points="322.828,-389.248 312.308,-390.508 321.317,-396.083 322.828,-389.248"/>
</g>
<!-- Node865 -->
<g id="node4" class="node"><title>Node865</title>
<g id="a_node4"><a xlink:href="../../da/d12/class_hydrax_1_1_material_manager.html#a964a29c17a27037791f2b1c76bdf2aea" target="_top" xlink:title="Hydrax::MaterialManager\l::getDepthTechniques">
<polygon fill="white" stroke="black" points="366,-360.5 366,-390.5 491,-390.5 491,-360.5 366,-360.5"/>
<text text-anchor="start" x="374" y="-378.5" font-family="Helvetica,sans-Serif" font-size="10.00">Hydrax::MaterialManager</text>
<text text-anchor="middle" x="428.5" y="-367.5" font-family="Helvetica,sans-Serif" font-size="10.00">::getDepthTechniques</text>
</a>
</g>
</g>
<!-- Node863&#45;&gt;Node865 -->
<g id="edge3" class="edge"><title>Node863&#45;&gt;Node865</title>
<path fill="none" stroke="midnightblue" d="M340.224,-375.5C348.845,-375.5 357.477,-375.5 365.776,-375.5"/>
<polygon fill="midnightblue" stroke="midnightblue" points="340.129,-372 330.129,-375.5 340.129,-379 340.129,-372"/>
</g>
<!-- Node867 -->
<g id="node6" class="node"><title>Node867</title>
<g id="a_node6"><a xlink:href="../../da/d12/class_hydrax_1_1_material_manager.html#a160d27bd9ff0fac665ce5ce7c4e013e9" target="_top" xlink:title="Hydrax::MaterialManager\l::removeCompositor">
<polygon fill="white" stroke="black" points="366,-311.5 366,-341.5 491,-341.5 491,-311.5 366,-311.5"/>
<text text-anchor="start" x="374" y="-329.5" font-family="Helvetica,sans-Serif" font-size="10.00">Hydrax::MaterialManager</text>
<text text-anchor="middle" x="428.5" y="-318.5" font-family="Helvetica,sans-Serif" font-size="10.00">::removeCompositor</text>
</a>
</g>
</g>
<!-- Node866&#45;&gt;Node867 -->
<g id="edge5" class="edge"><title>Node866&#45;&gt;Node867</title>
<path fill="none" stroke="midnightblue" d="M326.408,-312.476C339.551,-314.299 353.157,-316.187 365.964,-317.963"/>
<polygon fill="midnightblue" stroke="midnightblue" points="326.854,-309.004 316.468,-311.097 325.892,-315.938 326.854,-309.004"/>
</g>
<!-- Node870 -->
<g id="node9" class="node"><title>Node870</title>
<g id="a_node9"><a xlink:href="../../da/d12/class_hydrax_1_1_material_manager.html#a1838db86dd5917ca78111bbd5236823f" target="_top" xlink:title="Hydrax::MaterialManager\l::isCompositorEnable">
<polygon fill="white" stroke="black" points="366,-262.5 366,-292.5 491,-292.5 491,-262.5 366,-262.5"/>
<text text-anchor="start" x="374" y="-280.5" font-family="Helvetica,sans-Serif" font-size="10.00">Hydrax::MaterialManager</text>
<text text-anchor="middle" x="428.5" y="-269.5" font-family="Helvetica,sans-Serif" font-size="10.00">::isCompositorEnable</text>
</a>
</g>
</g>
<!-- Node866&#45;&gt;Node870 -->
<g id="edge9" class="edge"><title>Node866&#45;&gt;Node870</title>
<path fill="none" stroke="midnightblue" d="M326.408,-292.109C339.551,-290.209 353.157,-288.243 365.964,-286.392"/>
<polygon fill="midnightblue" stroke="midnightblue" points="325.865,-288.651 316.468,-293.545 326.866,-295.579 325.865,-288.651"/>
</g>
<!-- Node868 -->
<g id="node7" class="node"><title>Node868</title>
<g id="a_node7"><a xlink:href="../../da/d12/class_hydrax_1_1_material_manager.html#a93baa6272c91d1be5ec9bef054a9bb0d" target="_top" xlink:title="Hydrax::MaterialManager\l::removeMaterials">
<polygon fill="white" stroke="black" points="545,-355.5 545,-385.5 670,-385.5 670,-355.5 545,-355.5"/>
<text text-anchor="start" x="553" y="-373.5" font-family="Helvetica,sans-Serif" font-size="10.00">Hydrax::MaterialManager</text>
<text text-anchor="middle" x="607.5" y="-362.5" font-family="Helvetica,sans-Serif" font-size="10.00">::removeMaterials</text>
</a>
</g>
</g>
<!-- Node867&#45;&gt;Node868 -->
<g id="edge6" class="edge"><title>Node867&#45;&gt;Node868</title>
<path fill="none" stroke="midnightblue" d="M499.839,-343.985C515.133,-347.787 531.183,-351.777 546.054,-355.474"/>
<polygon fill="midnightblue" stroke="midnightblue" points="500.467,-340.535 489.918,-341.519 498.779,-347.328 500.467,-340.535"/>
</g>
<!-- Node868&#45;&gt;Node864 -->
<g id="edge8" class="edge"><title>Node868&#45;&gt;Node864</title>
<path fill="none" stroke="midnightblue" d="M679.121,-387.977C700.944,-393.377 724.777,-399.276 745.863,-404.494"/>
<polygon fill="midnightblue" stroke="midnightblue" points="679.8,-384.539 669.252,-385.535 678.118,-391.334 679.8,-384.539"/>
</g>
<!-- Node869 -->
<g id="node8" class="node"><title>Node869</title>
<g id="a_node8"><a xlink:href="../../da/d12/class_hydrax_1_1_material_manager.html#a071d2479a52e9d36ff25bbab8c09e728" target="_top" xlink:title="Hydrax::MaterialManager\l::~MaterialManager">
<polygon fill="white" stroke="black" points="745,-355.5 745,-385.5 870,-385.5 870,-355.5 745,-355.5"/>
<text text-anchor="start" x="753" y="-373.5" font-family="Helvetica,sans-Serif" font-size="10.00">Hydrax::MaterialManager</text>
<text text-anchor="middle" x="807.5" y="-362.5" font-family="Helvetica,sans-Serif" font-size="10.00">::~MaterialManager</text>
</a>
</g>
</g>
<!-- Node868&#45;&gt;Node869 -->
<g id="edge7" class="edge"><title>Node868&#45;&gt;Node869</title>
<path fill="none" stroke="midnightblue" d="M680.303,-370.5C701.496,-370.5 724.491,-370.5 744.975,-370.5"/>
<polygon fill="midnightblue" stroke="midnightblue" points="680.063,-367 670.063,-370.5 680.063,-374 680.063,-367"/>
</g>
<!-- Node872 -->
<g id="node11" class="node"><title>Node872</title>
<g id="a_node11"><a xlink:href="../../d6/d76/class_hydrax_1_1_rtt_manager.html#a774efa00a79ade65e726ed0774d2ac2e" target="_top" xlink:title="Hydrax::RttManager\l::initialize">
<polygon fill="white" stroke="black" points="376.5,-179.5 376.5,-209.5 480.5,-209.5 480.5,-179.5 376.5,-179.5"/>
<text text-anchor="start" x="384.5" y="-197.5" font-family="Helvetica,sans-Serif" font-size="10.00">Hydrax::RttManager</text>
<text text-anchor="middle" x="428.5" y="-186.5" font-family="Helvetica,sans-Serif" font-size="10.00">::initialize</text>
</a>
</g>
</g>
<!-- Node871&#45;&gt;Node872 -->
<g id="edge11" class="edge"><title>Node871&#45;&gt;Node872</title>
<path fill="none" stroke="midnightblue" d="M316.049,-207.384C335.762,-205.106 357.366,-202.608 376.261,-200.424"/>
<polygon fill="midnightblue" stroke="midnightblue" points="315.469,-203.928 305.937,-208.553 316.273,-210.882 315.469,-203.928"/>
</g>
<!-- Node873 -->
<g id="node12" class="node"><title>Node873</title>
<g id="a_node12"><a xlink:href="../../da/d5f/class_hydrax_1_1_g_p_u_normal_map_manager.html#a7398a504e11ea902839868d69bcf956b" target="_top" xlink:title="Hydrax::GPUNormalMapManager\l::create">
<polygon fill="white" stroke="black" points="527,-306.5 527,-336.5 688,-336.5 688,-306.5 527,-306.5"/>
<text text-anchor="start" x="535" y="-324.5" font-family="Helvetica,sans-Serif" font-size="10.00">Hydrax::GPUNormalMapManager</text>
<text text-anchor="middle" x="607.5" y="-313.5" font-family="Helvetica,sans-Serif" font-size="10.00">::create</text>
</a>
</g>
</g>
<!-- Node872&#45;&gt;Node873 -->
<g id="edge12" class="edge"><title>Node872&#45;&gt;Node873</title>
<path fill="none" stroke="midnightblue" d="M454.334,-216.563C465.825,-227.11 479.455,-240.113 491,-252.5 508.227,-270.984 506.073,-282.34 527,-296.5 532.632,-300.311 538.876,-303.565 545.317,-306.339"/>
<polygon fill="midnightblue" stroke="midnightblue" points="456.527,-213.827 446.772,-209.691 451.819,-219.007 456.527,-213.827"/>
</g>
<!-- Node880 -->
<g id="node19" class="node"><title>Node880</title>
<g id="a_node19"><a xlink:href="../../da/d5f/class_hydrax_1_1_g_p_u_normal_map_manager.html#ac58c786ad6359d8f70b5ecd0bc30464b" target="_top" xlink:title="Hydrax::GPUNormalMapManager\l::setActive">
<polygon fill="white" stroke="black" points="527,-257.5 527,-287.5 688,-287.5 688,-257.5 527,-257.5"/>
<text text-anchor="start" x="535" y="-275.5" font-family="Helvetica,sans-Serif" font-size="10.00">Hydrax::GPUNormalMapManager</text>
<text text-anchor="middle" x="607.5" y="-264.5" font-family="Helvetica,sans-Serif" font-size="10.00">::setActive</text>
</a>
</g>
</g>
<!-- Node872&#45;&gt;Node880 -->
<g id="edge21" class="edge"><title>Node872&#45;&gt;Node880</title>
<path fill="none" stroke="midnightblue" d="M462.974,-214.788C481.429,-225.433 505,-238.165 527,-247.5 535.391,-251.06 544.467,-254.383 553.382,-257.368"/>
<polygon fill="midnightblue" stroke="midnightblue" points="464.491,-211.62 454.091,-209.597 460.959,-217.664 464.491,-211.62"/>
</g>
<!-- Node881 -->
<g id="node20" class="node"><title>Node881</title>
<g id="a_node20"><a xlink:href="../../d6/d76/class_hydrax_1_1_rtt_manager.html#abf7d8e05771b9f904efa09fe94ab0907" target="_top" xlink:title="Hydrax::RttManager\l::setTextureSize">
<polygon fill="white" stroke="black" points="555.5,-208.5 555.5,-238.5 659.5,-238.5 659.5,-208.5 555.5,-208.5"/>
<text text-anchor="start" x="563.5" y="-226.5" font-family="Helvetica,sans-Serif" font-size="10.00">Hydrax::RttManager</text>
<text text-anchor="middle" x="607.5" y="-215.5" font-family="Helvetica,sans-Serif" font-size="10.00">::setTextureSize</text>
</a>
</g>
</g>
<!-- Node872&#45;&gt;Node881 -->
<g id="edge22" class="edge"><title>Node872&#45;&gt;Node881</title>
<path fill="none" stroke="midnightblue" d="M490.833,-204.549C511.904,-208.001 535.251,-211.826 555.419,-215.131"/>
<polygon fill="midnightblue" stroke="midnightblue" points="491.13,-201.051 480.696,-202.888 489.998,-207.959 491.13,-201.051"/>
</g>
<!-- Node887 -->
<g id="node26" class="node"><title>Node887</title>
<g id="a_node26"><a xlink:href="../../d6/d76/class_hydrax_1_1_rtt_manager.html#ad54dd87efa7baa4a5037faa2e5241738" target="_top" xlink:title="Hydrax::RttManager\l::setTexturesSize">
<polygon fill="white" stroke="black" points="555.5,-159.5 555.5,-189.5 659.5,-189.5 659.5,-159.5 555.5,-159.5"/>
<text text-anchor="start" x="563.5" y="-177.5" font-family="Helvetica,sans-Serif" font-size="10.00">Hydrax::RttManager</text>
<text text-anchor="middle" x="607.5" y="-166.5" font-family="Helvetica,sans-Serif" font-size="10.00">::setTexturesSize</text>
</a>
</g>
</g>
<!-- Node872&#45;&gt;Node887 -->
<g id="edge28" class="edge"><title>Node872&#45;&gt;Node887</title>
<path fill="none" stroke="midnightblue" d="M490.833,-187.57C511.904,-185.189 535.251,-182.551 555.419,-180.272"/>
<polygon fill="midnightblue" stroke="midnightblue" points="490.239,-184.114 480.696,-188.715 491.026,-191.07 490.239,-184.114"/>
</g>
<!-- Node888 -->
<g id="node27" class="node"><title>Node888</title>
<g id="a_node27"><a xlink:href="../../d3/d21/class_hydrax_1_1_rtt_manager_1_1_rtt_listener.html#af0e21edb8ea23af2e9c1ad7c028cab63" target="_top" xlink:title="Hydrax::RttManager\l::RttListener::postRenderTarget\lUpdate">
<polygon fill="white" stroke="black" points="531.5,-99 531.5,-140 683.5,-140 683.5,-99 531.5,-99"/>
<text text-anchor="start" x="539.5" y="-128" font-family="Helvetica,sans-Serif" font-size="10.00">Hydrax::RttManager</text>
<text text-anchor="start" x="539.5" y="-117" font-family="Helvetica,sans-Serif" font-size="10.00">::RttListener::postRenderTarget</text>
<text text-anchor="middle" x="607.5" y="-106" font-family="Helvetica,sans-Serif" font-size="10.00">Update</text>
</a>
</g>
</g>
<!-- Node872&#45;&gt;Node888 -->
<g id="edge30" class="edge"><title>Node872&#45;&gt;Node888</title>
<path fill="none" stroke="midnightblue" d="M470.157,-174.946C487.541,-166.791 508.138,-157.4 527,-149.5 534.484,-146.366 542.421,-143.193 550.273,-140.144"/>
<polygon fill="midnightblue" stroke="midnightblue" points="468.412,-171.899 460.861,-179.331 471.399,-178.23 468.412,-171.899"/>
</g>
<!-- Node889 -->
<g id="node28" class="node"><title>Node889</title>
<g id="a_node28"><a xlink:href="../../d6/d76/class_hydrax_1_1_rtt_manager.html#a009e9c7631dad8d588790401cab753b6" target="_top" xlink:title="Hydrax::RttManager\l::setNumberOfChannels">
<polygon fill="white" stroke="black" points="547.5,-49.5 547.5,-79.5 667.5,-79.5 667.5,-49.5 547.5,-49.5"/>
<text text-anchor="start" x="555.5" y="-67.5" font-family="Helvetica,sans-Serif" font-size="10.00">Hydrax::RttManager</text>
<text text-anchor="middle" x="607.5" y="-56.5" font-family="Helvetica,sans-Serif" font-size="10.00">::setNumberOfChannels</text>
</a>
</g>
</g>
<!-- Node872&#45;&gt;Node889 -->
<g id="edge31" class="edge"><title>Node872&#45;&gt;Node889</title>
<path fill="none" stroke="midnightblue" d="M445.473,-171.175C462.903,-147.399 492.912,-111.04 527,-89.5 533.238,-85.5583 540.146,-82.1949 547.209,-79.3358"/>
<polygon fill="midnightblue" stroke="midnightblue" points="442.619,-169.148 439.636,-179.314 448.308,-173.227 442.619,-169.148"/>
</g>
<!-- Node891 -->
<g id="node30" class="node"><title>Node891</title>
<g id="a_node30"><a xlink:href="../../d6/d76/class_hydrax_1_1_rtt_manager.html#afe968a7c8f23a6fa9b0d5b499ef09491" target="_top" xlink:title="Hydrax::RttManager\l::setBitsPerChannel">
<polygon fill="white" stroke="black" points="555.5,-0.5 555.5,-30.5 659.5,-30.5 659.5,-0.5 555.5,-0.5"/>
<text text-anchor="start" x="563.5" y="-18.5" font-family="Helvetica,sans-Serif" font-size="10.00">Hydrax::RttManager</text>
<text text-anchor="middle" x="607.5" y="-7.5" font-family="Helvetica,sans-Serif" font-size="10.00">::setBitsPerChannel</text>
</a>
</g>
</g>
<!-- Node872&#45;&gt;Node891 -->
<g id="edge33" class="edge"><title>Node872&#45;&gt;Node891</title>
<path fill="none" stroke="midnightblue" d="M438.692,-169.437C452.562,-135.08 482.089,-73.7299 527,-39.5 535.256,-33.2076 545.156,-28.5562 555.123,-25.1206"/>
<polygon fill="midnightblue" stroke="midnightblue" points="435.267,-168.584 434.89,-179.172 441.788,-171.13 435.267,-168.584"/>
</g>
<!-- Node874 -->
<g id="node13" class="node"><title>Node874</title>
<g id="a_node13"><a xlink:href="../../de/d4c/class_hydrax_1_1_noise_1_1_f_f_t.html#aa8e2b9d2b8307c07be2d2cd9cf115560" target="_top" xlink:title="Hydrax::Noise::FFT\l::createGPUNormalMapResources">
<polygon fill="white" stroke="black" points="724,-306.5 724,-336.5 891,-336.5 891,-306.5 724,-306.5"/>
<text text-anchor="start" x="732" y="-324.5" font-family="Helvetica,sans-Serif" font-size="10.00">Hydrax::Noise::FFT</text>
<text text-anchor="middle" x="807.5" y="-313.5" font-family="Helvetica,sans-Serif" font-size="10.00">::createGPUNormalMapResources</text>
</a>
</g>
</g>
<!-- Node873&#45;&gt;Node874 -->
<g id="edge13" class="edge"><title>Node873&#45;&gt;Node874</title>
<path fill="none" stroke="midnightblue" d="M698.413,-321.5C706.854,-321.5 715.383,-321.5 723.753,-321.5"/>
<polygon fill="midnightblue" stroke="midnightblue" points="698.178,-318 688.178,-321.5 698.178,-325 698.178,-318"/>
</g>
<!-- Node878 -->
<g id="node17" class="node"><title>Node878</title>
<g id="a_node17"><a xlink:href="../../db/d29/class_hydrax_1_1_noise_1_1_perlin.html#adb347b98692bd7ce6ad7ce76c605d15a" target="_top" xlink:title="Hydrax::Noise::Perlin\l::createGPUNormalMapResources">
<polygon fill="white" stroke="black" points="724,-257.5 724,-287.5 891,-287.5 891,-257.5 724,-257.5"/>
<text text-anchor="start" x="732" y="-275.5" font-family="Helvetica,sans-Serif" font-size="10.00">Hydrax::Noise::Perlin</text>
<text text-anchor="middle" x="807.5" y="-264.5" font-family="Helvetica,sans-Serif" font-size="10.00">::createGPUNormalMapResources</text>
</a>
</g>
</g>
<!-- Node873&#45;&gt;Node878 -->
<g id="edge19" class="edge"><title>Node873&#45;&gt;Node878</title>
<path fill="none" stroke="midnightblue" d="M679.121,-304.023C700.944,-298.623 724.777,-292.724 745.863,-287.506"/>
<polygon fill="midnightblue" stroke="midnightblue" points="678.118,-300.666 669.252,-306.465 679.8,-307.461 678.118,-300.666"/>
</g>
<!-- Node875 -->
<g id="node14" class="node"><title>Node875</title>
<g id="a_node14"><a xlink:href="../../de/d4c/class_hydrax_1_1_noise_1_1_f_f_t.html#a1d7ec06eb11cda608cc8f73256c35be5" target="_top" xlink:title="Hydrax::Noise::FFT\l::setOptions">
<polygon fill="white" stroke="black" points="937,-347.5 937,-377.5 1038,-377.5 1038,-347.5 937,-347.5"/>
<text text-anchor="start" x="945" y="-365.5" font-family="Helvetica,sans-Serif" font-size="10.00">Hydrax::Noise::FFT</text>
<text text-anchor="middle" x="987.5" y="-354.5" font-family="Helvetica,sans-Serif" font-size="10.00">::setOptions</text>
</a>
</g>
</g>
<!-- Node874&#45;&gt;Node875 -->
<g id="edge14" class="edge"><title>Node874&#45;&gt;Node875</title>
<path fill="none" stroke="midnightblue" d="M883.655,-338.811C901.625,-342.95 920.368,-347.267 936.854,-351.065"/>
<polygon fill="midnightblue" stroke="midnightblue" points="884.3,-335.368 873.77,-336.534 882.729,-342.189 884.3,-335.368"/>
</g>
<!-- Node877 -->
<g id="node16" class="node"><title>Node877</title>
<g id="a_node16"><a xlink:href="../../d3/db5/struct_hydrax_1_1_noise_1_1_f_f_t_1_1_options.html#adfe9c5cc180b233f7ef6ba50fec06563" target="_top" xlink:title="Hydrax::Noise::FFT\l::Options::Options">
<polygon fill="white" stroke="black" points="1241,-341.5 1241,-371.5 1342,-371.5 1342,-341.5 1241,-341.5"/>
<text text-anchor="start" x="1249" y="-359.5" font-family="Helvetica,sans-Serif" font-size="10.00">Hydrax::Noise::FFT</text>
<text text-anchor="middle" x="1291.5" y="-348.5" font-family="Helvetica,sans-Serif" font-size="10.00">::Options::Options</text>
</a>
</g>
</g>
<!-- Node874&#45;&gt;Node877 -->
<g id="edge18" class="edge"><title>Node874&#45;&gt;Node877</title>
<path fill="none" stroke="midnightblue" d="M901.277,-328.015C945.678,-331.151 999.594,-334.986 1048,-338.5 1114.74,-343.345 1191.79,-349.091 1240.81,-352.764"/>
<polygon fill="midnightblue" stroke="midnightblue" points="901.303,-324.509 891.082,-327.296 900.811,-331.491 901.303,-324.509"/>
</g>
<!-- Node876 -->
<g id="node15" class="node"><title>Node876</title>
<g id="a_node15"><a xlink:href="../../de/d4c/class_hydrax_1_1_noise_1_1_f_f_t.html#a64245b9e56eeb8627ac3f5260dc203dd" target="_top" xlink:title="Hydrax::Noise::FFT\l::loadCfg">
<polygon fill="white" stroke="black" points="1094,-385.5 1094,-415.5 1195,-415.5 1195,-385.5 1094,-385.5"/>
<text text-anchor="start" x="1102" y="-403.5" font-family="Helvetica,sans-Serif" font-size="10.00">Hydrax::Noise::FFT</text>
<text text-anchor="middle" x="1144.5" y="-392.5" font-family="Helvetica,sans-Serif" font-size="10.00">::loadCfg</text>
</a>
</g>
</g>
<!-- Node875&#45;&gt;Node876 -->
<g id="edge15" class="edge"><title>Node875&#45;&gt;Node876</title>
<path fill="none" stroke="midnightblue" d="M1048.18,-377.13C1063.31,-380.84 1079.4,-384.784 1093.96,-388.355"/>
<polygon fill="midnightblue" stroke="midnightblue" points="1048.94,-373.714 1038.4,-374.733 1047.28,-380.513 1048.94,-373.714"/>
</g>
<!-- Node875&#45;&gt;Node877 -->
<g id="edge17" class="edge"><title>Node875&#45;&gt;Node877</title>
<path fill="none" stroke="midnightblue" d="M1048.23,-361.313C1104.61,-360.193 1188.16,-358.533 1240.94,-357.485"/>
<polygon fill="midnightblue" stroke="midnightblue" points="1047.96,-357.818 1038.03,-361.516 1048.1,-364.817 1047.96,-357.818"/>
</g>
<!-- Node876&#45;&gt;Node877 -->
<g id="edge16" class="edge"><title>Node876&#45;&gt;Node877</title>
<path fill="none" stroke="midnightblue" d="M1204.86,-382.487C1216.78,-378.871 1229.19,-375.106 1240.74,-371.601"/>
<polygon fill="midnightblue" stroke="midnightblue" points="1203.55,-379.228 1195,-385.481 1205.58,-385.926 1203.55,-379.228"/>
</g>
<!-- Node879 -->
<g id="node18" class="node"><title>Node879</title>
<g id="a_node18"><a xlink:href="../../d5/d28/struct_hydrax_1_1_noise_1_1_perlin_1_1_options.html#a25b331fdb0c7c67b12b865ff081af5e2" target="_top" xlink:title="Hydrax::Noise::Perlin\l::Options::Options">
<polygon fill="white" stroke="black" points="933,-257.5 933,-287.5 1042,-287.5 1042,-257.5 933,-257.5"/>
<text text-anchor="start" x="941" y="-275.5" font-family="Helvetica,sans-Serif" font-size="10.00">Hydrax::Noise::Perlin</text>
<text text-anchor="middle" x="987.5" y="-264.5" font-family="Helvetica,sans-Serif" font-size="10.00">::Options::Options</text>
</a>
</g>
</g>
<!-- Node878&#45;&gt;Node879 -->
<g id="edge20" class="edge"><title>Node878&#45;&gt;Node879</title>
<path fill="none" stroke="midnightblue" d="M901.554,-272.5C912.3,-272.5 922.968,-272.5 932.928,-272.5"/>
<polygon fill="midnightblue" stroke="midnightblue" points="901.247,-269 891.247,-272.5 901.247,-276 901.247,-269"/>
</g>
<!-- Node882 -->
<g id="node21" class="node"><title>Node882</title>
<g id="a_node21"><a xlink:href="../../d6/de1/class_hydrax_1_1_cfg_file_manager.html#a3971753dfe7ad0b217844419c2b3d1fb" target="_top" xlink:title="Hydrax::CfgFileManager\l::_loadRttSettings">
<polygon fill="white" stroke="black" points="747,-208.5 747,-238.5 868,-238.5 868,-208.5 747,-208.5"/>
<text text-anchor="start" x="755" y="-226.5" font-family="Helvetica,sans-Serif" font-size="10.00">Hydrax::CfgFileManager</text>
<text text-anchor="middle" x="807.5" y="-215.5" font-family="Helvetica,sans-Serif" font-size="10.00">::_loadRttSettings</text>
</a>
</g>
</g>
<!-- Node881&#45;&gt;Node882 -->
<g id="edge23" class="edge"><title>Node881&#45;&gt;Node882</title>
<path fill="none" stroke="midnightblue" d="M669.978,-223.5C694.41,-223.5 722.421,-223.5 746.686,-223.5"/>
<polygon fill="midnightblue" stroke="midnightblue" points="669.747,-220 659.747,-223.5 669.747,-227 669.747,-220"/>
</g>
<!-- Node884 -->
<g id="node23" class="node"><title>Node884</title>
<g id="a_node23"><a xlink:href="../../d6/d76/class_hydrax_1_1_rtt_manager.html#a7a555bfe00cebdc0628f9b535db500ff" target="_top" xlink:title="Hydrax::RttManager\l::getTextureSize">
<polygon fill="white" stroke="black" points="755.5,-159.5 755.5,-189.5 859.5,-189.5 859.5,-159.5 755.5,-159.5"/>
<text text-anchor="start" x="763.5" y="-177.5" font-family="Helvetica,sans-Serif" font-size="10.00">Hydrax::RttManager</text>
<text text-anchor="middle" x="807.5" y="-166.5" font-family="Helvetica,sans-Serif" font-size="10.00">::getTextureSize</text>
</a>
</g>
</g>
<!-- Node881&#45;&gt;Node884 -->
<g id="edge25" class="edge"><title>Node881&#45;&gt;Node884</title>
<path fill="none" stroke="midnightblue" d="M669.657,-208.365C697.169,-201.557 729.273,-193.612 755.467,-187.129"/>
<polygon fill="midnightblue" stroke="midnightblue" points="668.614,-205.018 659.747,-210.818 670.295,-211.813 668.614,-205.018"/>
</g>
<!-- Node883 -->
<g id="node22" class="node"><title>Node883</title>
<g id="a_node22"><a xlink:href="../../d6/de1/class_hydrax_1_1_cfg_file_manager.html#a0e050d2bf65e31ee39c0e28c481702f8" target="_top" xlink:title="Hydrax::CfgFileManager\l::load">
<polygon fill="white" stroke="black" points="927,-208.5 927,-238.5 1048,-238.5 1048,-208.5 927,-208.5"/>
<text text-anchor="start" x="935" y="-226.5" font-family="Helvetica,sans-Serif" font-size="10.00">Hydrax::CfgFileManager</text>
<text text-anchor="middle" x="987.5" y="-215.5" font-family="Helvetica,sans-Serif" font-size="10.00">::load</text>
</a>
</g>
</g>
<!-- Node882&#45;&gt;Node883 -->
<g id="edge24" class="edge"><title>Node882&#45;&gt;Node883</title>
<path fill="none" stroke="midnightblue" d="M878.616,-223.5C894.586,-223.5 911.407,-223.5 926.891,-223.5"/>
<polygon fill="midnightblue" stroke="midnightblue" points="878.267,-220 868.267,-223.5 878.267,-227 878.267,-220"/>
</g>
<!-- Node885 -->
<g id="node24" class="node"><title>Node885</title>
<g id="a_node24"><a xlink:href="../../d6/de1/class_hydrax_1_1_cfg_file_manager.html#a7836862e6b5d435d19f9ff62cf5ffca6" target="_top" xlink:title="Hydrax::CfgFileManager\l::_getRttCfgString">
<polygon fill="white" stroke="black" points="927,-159.5 927,-189.5 1048,-189.5 1048,-159.5 927,-159.5"/>
<text text-anchor="start" x="935" y="-177.5" font-family="Helvetica,sans-Serif" font-size="10.00">Hydrax::CfgFileManager</text>
<text text-anchor="middle" x="987.5" y="-166.5" font-family="Helvetica,sans-Serif" font-size="10.00">::_getRttCfgString</text>
</a>
</g>
</g>
<!-- Node884&#45;&gt;Node885 -->
<g id="edge26" class="edge"><title>Node884&#45;&gt;Node885</title>
<path fill="none" stroke="midnightblue" d="M869.612,-174.5C888.175,-174.5 908.539,-174.5 926.996,-174.5"/>
<polygon fill="midnightblue" stroke="midnightblue" points="869.508,-171 859.508,-174.5 869.508,-178 869.508,-171"/>
</g>
<!-- Node886 -->
<g id="node25" class="node"><title>Node886</title>
<g id="a_node25"><a xlink:href="../../d6/de1/class_hydrax_1_1_cfg_file_manager.html#a7bb4d0c2124c8c68e49f8fcc26e1add7" target="_top" xlink:title="Hydrax::CfgFileManager\l::save">
<polygon fill="white" stroke="black" points="1084,-159.5 1084,-189.5 1205,-189.5 1205,-159.5 1084,-159.5"/>
<text text-anchor="start" x="1092" y="-177.5" font-family="Helvetica,sans-Serif" font-size="10.00">Hydrax::CfgFileManager</text>
<text text-anchor="middle" x="1144.5" y="-166.5" font-family="Helvetica,sans-Serif" font-size="10.00">::save</text>
</a>
</g>
</g>
<!-- Node885&#45;&gt;Node886 -->
<g id="edge27" class="edge"><title>Node885&#45;&gt;Node886</title>
<path fill="none" stroke="midnightblue" d="M1058.66,-174.5C1067.12,-174.5 1075.7,-174.5 1083.99,-174.5"/>
<polygon fill="midnightblue" stroke="midnightblue" points="1058.43,-171 1048.43,-174.5 1058.43,-178 1058.43,-171"/>
</g>
<!-- Node887&#45;&gt;Node884 -->
<g id="edge29" class="edge"><title>Node887&#45;&gt;Node884</title>
<path fill="none" stroke="midnightblue" d="M670.019,-174.5C697.451,-174.5 729.387,-174.5 755.467,-174.5"/>
<polygon fill="midnightblue" stroke="midnightblue" points="669.747,-171 659.747,-174.5 669.747,-178 669.747,-171"/>
</g>
<!-- Node890 -->
<g id="node29" class="node"><title>Node890</title>
<g id="a_node29"><a xlink:href="../../da/d5f/class_hydrax_1_1_g_p_u_normal_map_manager.html#a9c2a79cec8c9a72e2916587e09c9c83f" target="_top" xlink:title="Hydrax::GPUNormalMapManager\l::GPUNormalMapManager">
<polygon fill="white" stroke="black" points="727,-25.5 727,-55.5 888,-55.5 888,-25.5 727,-25.5"/>
<text text-anchor="start" x="735" y="-43.5" font-family="Helvetica,sans-Serif" font-size="10.00">Hydrax::GPUNormalMapManager</text>
<text text-anchor="middle" x="807.5" y="-32.5" font-family="Helvetica,sans-Serif" font-size="10.00">::GPUNormalMapManager</text>
</a>
</g>
</g>
<!-- Node889&#45;&gt;Node890 -->
<g id="edge32" class="edge"><title>Node889&#45;&gt;Node890</title>
<path fill="none" stroke="midnightblue" d="M677.85,-56.094C693.661,-54.1774 710.584,-52.1262 726.79,-50.1618"/>
<polygon fill="midnightblue" stroke="midnightblue" points="677.144,-52.6537 667.638,-57.3317 677.987,-59.6029 677.144,-52.6537"/>
</g>
<!-- Node891&#45;&gt;Node890 -->
<g id="edge34" class="edge"><title>Node891&#45;&gt;Node890</title>
<path fill="none" stroke="midnightblue" d="M669.8,-23.2399C687.78,-25.5101 707.71,-28.0265 726.665,-30.4198"/>
<polygon fill="midnightblue" stroke="midnightblue" points="670.107,-19.751 659.747,-21.9706 669.23,-26.6958 670.107,-19.751"/>
</g>
</g>
</svg>
