<?xml version="1.0" encoding="UTF-8" standalone="no"?>
<!DOCTYPE svg PUBLIC "-//W3C//DTD SVG 1.1//EN"
 "http://www.w3.org/Graphics/SVG/1.1/DTD/svg11.dtd">
<!-- Generated by graphviz version 2.38.0 (20140413.2041)
 -->
<!-- Title: Hydrax::Hydrax::setFoamMaxDistance Pages: 1 -->
<svg width="485pt" height="39pt"
 viewBox="0.00 0.00 485.00 39.00" xmlns="http://www.w3.org/2000/svg" xmlns:xlink="http://www.w3.org/1999/xlink">
<g id="graph0" class="graph" transform="scale(1 1) rotate(0) translate(4 35)">
<title>Hydrax::Hydrax::setFoamMaxDistance</title>
<polygon fill="white" stroke="none" points="-4,4 -4,-35 481,-35 481,4 -4,4"/>
<!-- Node987 -->
<g id="node1" class="node"><title>Node987</title>
<polygon fill="#bfbfbf" stroke="black" points="0,-0.5 0,-30.5 147,-30.5 147,-0.5 0,-0.5"/>
<text text-anchor="start" x="8" y="-18.5" font-family="Helvetica,sans-Serif" font-size="10.00">Hydrax::Hydrax::setFoamMax</text>
<text text-anchor="middle" x="73.5" y="-7.5" font-family="Helvetica,sans-Serif" font-size="10.00">Distance</text>
</g>
<!-- Node988 -->
<g id="node2" class="node"><title>Node988</title>
<g id="a_node2"><a xlink:href="../../d6/de1/class_hydrax_1_1_cfg_file_manager.html#aa814b728a2c0cd30f3e2851398bacb6b" target="_top" xlink:title="Hydrax::CfgFileManager\l::_loadComponentsSettings">
<polygon fill="white" stroke="black" points="183,-0.5 183,-30.5 320,-30.5 320,-0.5 183,-0.5"/>
<text text-anchor="start" x="191" y="-18.5" font-family="Helvetica,sans-Serif" font-size="10.00">Hydrax::CfgFileManager</text>
<text text-anchor="middle" x="251.5" y="-7.5" font-family="Helvetica,sans-Serif" font-size="10.00">::_loadComponentsSettings</text>
</a>
</g>
</g>
<!-- Node987&#45;&gt;Node988 -->
<g id="edge1" class="edge"><title>Node987&#45;&gt;Node988</title>
<path fill="none" stroke="midnightblue" d="M157.16,-15.5C165.772,-15.5 174.452,-15.5 182.869,-15.5"/>
<polygon fill="midnightblue" stroke="midnightblue" points="157.102,-12.0001 147.102,-15.5 157.102,-19.0001 157.102,-12.0001"/>
</g>
<!-- Node989 -->
<g id="node3" class="node"><title>Node989</title>
<g id="a_node3"><a xlink:href="../../d6/de1/class_hydrax_1_1_cfg_file_manager.html#a0e050d2bf65e31ee39c0e28c481702f8" target="_top" xlink:title="Hydrax::CfgFileManager\l::load">
<polygon fill="white" stroke="black" points="356,-0.5 356,-30.5 477,-30.5 477,-0.5 356,-0.5"/>
<text text-anchor="start" x="364" y="-18.5" font-family="Helvetica,sans-Serif" font-size="10.00">Hydrax::CfgFileManager</text>
<text text-anchor="middle" x="416.5" y="-7.5" font-family="Helvetica,sans-Serif" font-size="10.00">::load</text>
</a>
</g>
</g>
<!-- Node988&#45;&gt;Node989 -->
<g id="edge2" class="edge"><title>Node988&#45;&gt;Node989</title>
<path fill="none" stroke="midnightblue" d="M330.245,-15.5C338.835,-15.5 347.48,-15.5 355.798,-15.5"/>
<polygon fill="midnightblue" stroke="midnightblue" points="330.211,-12.0001 320.211,-15.5 330.211,-19.0001 330.211,-12.0001"/>
</g>
</g>
</svg>
