<?xml version="1.0" encoding="UTF-8" standalone="no"?>
<!DOCTYPE svg PUBLIC "-//W3C//DTD SVG 1.1//EN"
 "http://www.w3.org/Graphics/SVG/1.1/DTD/svg11.dtd">
<!-- Generated by graphviz version 2.38.0 (20140413.2041)
 -->
<!-- Title: Hydrax::Hydrax::getFullReflectionDistance Pages: 1 -->
<!--zoomable 313 -->
<svg id="main" version="1.1" xmlns="http://www.w3.org/2000/svg" xmlns:xlink="http://www.w3.org/1999/xlink" xml:space="preserve" onload="init(evt)">
<style type="text/css"><![CDATA[
.edge:hover path { stroke: red; }
.edge:hover polygon { stroke: red; fill: red; }
]]></style>
<script type="text/javascript"><![CDATA[
var edges = document.getElementsByTagName('g');
if (edges && edges.length) {
  for (var i=0;i<edges.length;i++) {
    if (edges[i].id.substr(0,4)=='edge') {
      edges[i].setAttribute('class','edge');
    }
  }
}
]]></script>
        <defs>
                <circle id="rim" cx="0" cy="0" r="7"/>
                <circle id="rim2" cx="0" cy="0" r="3.5"/>
                <g id="zoomPlus">
                        <use xlink:href="#rim" fill="#404040">
                                <set attributeName="fill" to="#808080" begin="zoomplus.mouseover" end="zoomplus.mouseout"/>
                        </use>
                        <path d="M-4,0h8M0,-4v8" fill="none" stroke="white" stroke-width="1.5" pointer-events="none"/>
                </g>
                <g id="zoomMin">
                        <use xlink:href="#rim" fill="#404040">
                                <set attributeName="fill" to="#808080" begin="zoomminus.mouseover" end="zoomminus.mouseout"/>
                        </use>
                        <path d="M-4,0h8" fill="none" stroke="white" stroke-width="1.5" pointer-events="none"/>
                </g>
                <g id="dirArrow">
                        <path fill="none" stroke="white" stroke-width="1.5" d="M0,-3.0v7 M-2.5,-0.5L0,-3.0L2.5,-0.5"/>
                </g>
               <g id="resetDef">
                       <use xlink:href="#rim2" fill="#404040">
                               <set attributeName="fill" to="#808080" begin="reset.mouseover" end="reset.mouseout"/>
                       </use>
               </g>
        </defs>

<script type="text/javascript">
var viewWidth = 1195;
var viewHeight = 313;
var sectionId = 'dynsection-16';
</script>
<script xlink:href="../../svgpan.js"/>
<svg id="graph" class="graph">
<g id="viewport">
<title>Hydrax::Hydrax::getFullReflectionDistance</title>
<polygon fill="white" stroke="none" points="-4,4 -4,-308.5 1191,-308.5 1191,4 -4,4"/>
<!-- Node369 -->
<g id="node1" class="node"><title>Node369</title>
<polygon fill="#bfbfbf" stroke="black" points="0,-110.5 0,-140.5 162,-140.5 162,-110.5 0,-110.5"/>
<text text-anchor="start" x="8" y="-128.5" font-family="Helvetica,sans-Serif" font-size="10.00">Hydrax::Hydrax::getFullReflection</text>
<text text-anchor="middle" x="81" y="-117.5" font-family="Helvetica,sans-Serif" font-size="10.00">Distance</text>
</g>
<!-- Node370 -->
<g id="node2" class="node"><title>Node370</title>
<g id="a_node2"><a xlink:href="../../d6/de1/class_hydrax_1_1_cfg_file_manager.html#a7bb4d0c2124c8c68e49f8fcc26e1add7" target="_top" xlink:title="Hydrax::CfgFileManager\l::save">
<polygon fill="white" stroke="black" points="929,-259.5 929,-289.5 1050,-289.5 1050,-259.5 929,-259.5"/>
<text text-anchor="start" x="937" y="-277.5" font-family="Helvetica,sans-Serif" font-size="10.00">Hydrax::CfgFileManager</text>
<text text-anchor="middle" x="989.5" y="-266.5" font-family="Helvetica,sans-Serif" font-size="10.00">::save</text>
</a>
</g>
</g>
<!-- Node369&#45;&gt;Node370 -->
<g id="edge1" class="edge"><title>Node369&#45;&gt;Node370</title>
<path fill="none" stroke="midnightblue" d="M106.71,-147.337C163.378,-195.076 308.828,-304.5 451.5,-304.5 451.5,-304.5 451.5,-304.5 653.5,-304.5 750.14,-304.5 861.838,-291.962 928.735,-283.097"/>
<polygon fill="midnightblue" stroke="midnightblue" points="108.883,-144.59 99.0041,-140.761 104.339,-149.915 108.883,-144.59"/>
</g>
<!-- Node371 -->
<g id="node3" class="node"><title>Node371</title>
<g id="a_node3"><a xlink:href="../../da/d12/class_hydrax_1_1_material_manager.html#a20f50f4b2b7d133fcc5be5e31d136856" target="_top" xlink:title="Hydrax::MaterialManager\l::_createWaterMaterial">
<polygon fill="white" stroke="black" points="204.5,-74.5 204.5,-104.5 329.5,-104.5 329.5,-74.5 204.5,-74.5"/>
<text text-anchor="start" x="212.5" y="-92.5" font-family="Helvetica,sans-Serif" font-size="10.00">Hydrax::MaterialManager</text>
<text text-anchor="middle" x="267" y="-81.5" font-family="Helvetica,sans-Serif" font-size="10.00">::_createWaterMaterial</text>
</a>
</g>
</g>
<!-- Node369&#45;&gt;Node371 -->
<g id="edge2" class="edge"><title>Node369&#45;&gt;Node371</title>
<path fill="none" stroke="midnightblue" d="M168.73,-108.531C180.725,-106.184 192.84,-103.814 204.256,-101.58"/>
<polygon fill="midnightblue" stroke="midnightblue" points="167.842,-105.138 158.7,-110.493 169.186,-112.008 167.842,-105.138"/>
</g>
<!-- Node374 -->
<g id="node6" class="node"><title>Node374</title>
<g id="a_node6"><a xlink:href="../../da/d12/class_hydrax_1_1_material_manager.html#a23043949a092bd6b806ad5bd7619cfe7" target="_top" xlink:title="Hydrax::MaterialManager\l::_createUnderwaterMaterial">
<polygon fill="white" stroke="black" points="198,-25.5 198,-55.5 336,-55.5 336,-25.5 198,-25.5"/>
<text text-anchor="start" x="206" y="-43.5" font-family="Helvetica,sans-Serif" font-size="10.00">Hydrax::MaterialManager</text>
<text text-anchor="middle" x="267" y="-32.5" font-family="Helvetica,sans-Serif" font-size="10.00">::_createUnderwaterMaterial</text>
</a>
</g>
</g>
<!-- Node369&#45;&gt;Node374 -->
<g id="edge5" class="edge"><title>Node369&#45;&gt;Node374</title>
<path fill="none" stroke="midnightblue" d="M117.094,-105.341C139.77,-92.7447 170.143,-76.6643 198,-64.5 205.113,-61.3939 212.77,-58.3845 220.289,-55.6073"/>
<polygon fill="midnightblue" stroke="midnightblue" points="115.2,-102.39 108.186,-110.33 118.621,-108.497 115.2,-102.39"/>
</g>
<!-- Node375 -->
<g id="node7" class="node"><title>Node375</title>
<g id="a_node7"><a xlink:href="../../da/d12/class_hydrax_1_1_material_manager.html#a2961836553f7a30a8baffb9e82f7216e" target="_top" xlink:title="Hydrax::MaterialManager\l::reload">
<polygon fill="white" stroke="black" points="204.5,-147.5 204.5,-177.5 329.5,-177.5 329.5,-147.5 204.5,-147.5"/>
<text text-anchor="start" x="212.5" y="-165.5" font-family="Helvetica,sans-Serif" font-size="10.00">Hydrax::MaterialManager</text>
<text text-anchor="middle" x="267" y="-154.5" font-family="Helvetica,sans-Serif" font-size="10.00">::reload</text>
</a>
</g>
</g>
<!-- Node369&#45;&gt;Node375 -->
<g id="edge8" class="edge"><title>Node369&#45;&gt;Node375</title>
<path fill="none" stroke="midnightblue" d="M166.926,-142.578C179.574,-145.121 192.4,-147.7 204.443,-150.122"/>
<polygon fill="midnightblue" stroke="midnightblue" points="167.334,-139.089 156.84,-140.549 165.954,-145.952 167.334,-139.089"/>
</g>
<!-- Node372 -->
<g id="node4" class="node"><title>Node372</title>
<g id="a_node4"><a xlink:href="../../da/d12/class_hydrax_1_1_material_manager.html#a6aa7b0a92b824348577d506f7bcf581b" target="_top" xlink:title="Hydrax::MaterialManager\l::createMaterials">
<polygon fill="white" stroke="black" points="390,-0.5 390,-30.5 515,-30.5 515,-0.5 390,-0.5"/>
<text text-anchor="start" x="398" y="-18.5" font-family="Helvetica,sans-Serif" font-size="10.00">Hydrax::MaterialManager</text>
<text text-anchor="middle" x="452.5" y="-7.5" font-family="Helvetica,sans-Serif" font-size="10.00">::createMaterials</text>
</a>
</g>
</g>
<!-- Node371&#45;&gt;Node372 -->
<g id="edge3" class="edge"><title>Node371&#45;&gt;Node372</title>
<path fill="none" stroke="midnightblue" d="M323.5,-70.4491C327.788,-68.5685 332,-66.5805 336,-64.5 353.282,-55.5108 354.46,-47.9745 372,-39.5 378.88,-36.1758 386.319,-33.1993 393.79,-30.569"/>
<polygon fill="midnightblue" stroke="midnightblue" points="321.931,-67.3111 314.047,-74.3889 324.624,-73.7724 321.931,-67.3111"/>
</g>
<!-- Node373 -->
<g id="node5" class="node"><title>Node373</title>
<g id="a_node5"><a xlink:href="../../da/d12/class_hydrax_1_1_material_manager.html#a964a29c17a27037791f2b1c76bdf2aea" target="_top" xlink:title="Hydrax::MaterialManager\l::getDepthTechniques">
<polygon fill="white" stroke="black" points="390,-49.5 390,-79.5 515,-79.5 515,-49.5 390,-49.5"/>
<text text-anchor="start" x="398" y="-67.5" font-family="Helvetica,sans-Serif" font-size="10.00">Hydrax::MaterialManager</text>
<text text-anchor="middle" x="452.5" y="-56.5" font-family="Helvetica,sans-Serif" font-size="10.00">::getDepthTechniques</text>
</a>
</g>
</g>
<!-- Node371&#45;&gt;Node373 -->
<g id="edge4" class="edge"><title>Node371&#45;&gt;Node373</title>
<path fill="none" stroke="midnightblue" d="M339.757,-79.7238C356.27,-77.4741 373.691,-75.1007 389.737,-72.9146"/>
<polygon fill="midnightblue" stroke="midnightblue" points="339.049,-76.2878 329.613,-81.1058 339.994,-83.2238 339.049,-76.2878"/>
</g>
<!-- Node374&#45;&gt;Node372 -->
<g id="edge6" class="edge"><title>Node374&#45;&gt;Node372</title>
<path fill="none" stroke="midnightblue" d="M346.107,-29.8587C360.744,-27.8646 375.855,-25.8058 389.905,-23.8917"/>
<polygon fill="midnightblue" stroke="midnightblue" points="345.504,-26.4085 336.068,-31.2264 346.449,-33.3444 345.504,-26.4085"/>
</g>
<!-- Node374&#45;&gt;Node373 -->
<g id="edge7" class="edge"><title>Node374&#45;&gt;Node373</title>
<path fill="none" stroke="midnightblue" d="M346.107,-50.7156C360.744,-52.63 375.855,-54.6064 389.905,-56.444"/>
<polygon fill="midnightblue" stroke="midnightblue" points="346.437,-47.2291 336.068,-49.4026 345.529,-54.17 346.437,-47.2291"/>
</g>
<!-- Node376 -->
<g id="node8" class="node"><title>Node376</title>
<g id="a_node8"><a xlink:href="../../da/d5f/class_hydrax_1_1_g_p_u_normal_map_manager.html#a7398a504e11ea902839868d69bcf956b" target="_top" xlink:title="Hydrax::GPUNormalMapManager\l::create">
<polygon fill="white" stroke="black" points="372,-98.5 372,-128.5 533,-128.5 533,-98.5 372,-98.5"/>
<text text-anchor="start" x="380" y="-116.5" font-family="Helvetica,sans-Serif" font-size="10.00">Hydrax::GPUNormalMapManager</text>
<text text-anchor="middle" x="452.5" y="-105.5" font-family="Helvetica,sans-Serif" font-size="10.00">::create</text>
</a>
</g>
</g>
<!-- Node375&#45;&gt;Node376 -->
<g id="edge9" class="edge"><title>Node375&#45;&gt;Node376</title>
<path fill="none" stroke="midnightblue" d="M333.996,-144.877C354.072,-139.516 375.937,-133.677 395.303,-128.506"/>
<polygon fill="midnightblue" stroke="midnightblue" points="333.062,-141.504 324.303,-147.465 334.868,-148.267 333.062,-141.504"/>
</g>
<!-- Node383 -->
<g id="node15" class="node"><title>Node383</title>
<g id="a_node15"><a xlink:href="../../d6/d76/class_hydrax_1_1_rtt_manager.html#abf7d8e05771b9f904efa09fe94ab0907" target="_top" xlink:title="Hydrax::RttManager\l::setTextureSize">
<polygon fill="white" stroke="black" points="400.5,-196.5 400.5,-226.5 504.5,-226.5 504.5,-196.5 400.5,-196.5"/>
<text text-anchor="start" x="408.5" y="-214.5" font-family="Helvetica,sans-Serif" font-size="10.00">Hydrax::RttManager</text>
<text text-anchor="middle" x="452.5" y="-203.5" font-family="Helvetica,sans-Serif" font-size="10.00">::setTextureSize</text>
</a>
</g>
</g>
<!-- Node375&#45;&gt;Node383 -->
<g id="edge18" class="edge"><title>Node375&#45;&gt;Node383</title>
<path fill="none" stroke="midnightblue" d="M334.144,-180.163C355.927,-185.979 379.802,-192.355 400.298,-197.828"/>
<polygon fill="midnightblue" stroke="midnightblue" points="334.868,-176.733 324.303,-177.535 333.062,-183.496 334.868,-176.733"/>
</g>
<!-- Node388 -->
<g id="node20" class="node"><title>Node388</title>
<g id="a_node20"><a xlink:href="../../d6/d76/class_hydrax_1_1_rtt_manager.html#ad54dd87efa7baa4a5037faa2e5241738" target="_top" xlink:title="Hydrax::RttManager\l::setTexturesSize">
<polygon fill="white" stroke="black" points="400.5,-147.5 400.5,-177.5 504.5,-177.5 504.5,-147.5 400.5,-147.5"/>
<text text-anchor="start" x="408.5" y="-165.5" font-family="Helvetica,sans-Serif" font-size="10.00">Hydrax::RttManager</text>
<text text-anchor="middle" x="452.5" y="-154.5" font-family="Helvetica,sans-Serif" font-size="10.00">::setTexturesSize</text>
</a>
</g>
</g>
<!-- Node375&#45;&gt;Node388 -->
<g id="edge24" class="edge"><title>Node375&#45;&gt;Node388</title>
<path fill="none" stroke="midnightblue" d="M339.748,-162.5C360.016,-162.5 381.652,-162.5 400.435,-162.5"/>
<polygon fill="midnightblue" stroke="midnightblue" points="339.613,-159 329.613,-162.5 339.613,-166 339.613,-159"/>
</g>
<!-- Node389 -->
<g id="node21" class="node"><title>Node389</title>
<g id="a_node21"><a xlink:href="../../d5/daf/class_hydrax_1_1_texture_manager.html#a30bfb59332540e897c43193474b4aa19" target="_top" xlink:title="Hydrax::TextureManager\l::create">
<polygon fill="white" stroke="black" points="391,-245.5 391,-275.5 514,-275.5 514,-245.5 391,-245.5"/>
<text text-anchor="start" x="399" y="-263.5" font-family="Helvetica,sans-Serif" font-size="10.00">Hydrax::TextureManager</text>
<text text-anchor="middle" x="452.5" y="-252.5" font-family="Helvetica,sans-Serif" font-size="10.00">::create</text>
</a>
</g>
</g>
<!-- Node375&#45;&gt;Node389 -->
<g id="edge26" class="edge"><title>Node375&#45;&gt;Node389</title>
<path fill="none" stroke="midnightblue" d="M293.515,-183.782C313.752,-199.801 343.311,-221.345 372,-235.5 379.526,-239.213 387.722,-242.527 395.899,-245.432"/>
<polygon fill="midnightblue" stroke="midnightblue" points="295.695,-181.045 285.708,-177.51 291.311,-186.502 295.695,-181.045"/>
</g>
<!-- Node377 -->
<g id="node9" class="node"><title>Node377</title>
<g id="a_node9"><a xlink:href="../../de/d4c/class_hydrax_1_1_noise_1_1_f_f_t.html#aa8e2b9d2b8307c07be2d2cd9cf115560" target="_top" xlink:title="Hydrax::Noise::FFT\l::createGPUNormalMapResources">
<polygon fill="white" stroke="black" points="569,-100.5 569,-130.5 736,-130.5 736,-100.5 569,-100.5"/>
<text text-anchor="start" x="577" y="-118.5" font-family="Helvetica,sans-Serif" font-size="10.00">Hydrax::Noise::FFT</text>
<text text-anchor="middle" x="652.5" y="-107.5" font-family="Helvetica,sans-Serif" font-size="10.00">::createGPUNormalMapResources</text>
</a>
</g>
</g>
<!-- Node376&#45;&gt;Node377 -->
<g id="edge10" class="edge"><title>Node376&#45;&gt;Node377</title>
<path fill="none" stroke="midnightblue" d="M543.413,-114.408C551.854,-114.493 560.383,-114.58 568.753,-114.664"/>
<polygon fill="midnightblue" stroke="midnightblue" points="543.213,-110.906 533.178,-114.305 543.142,-117.906 543.213,-110.906"/>
</g>
<!-- Node381 -->
<g id="node13" class="node"><title>Node381</title>
<g id="a_node13"><a xlink:href="../../db/d29/class_hydrax_1_1_noise_1_1_perlin.html#adb347b98692bd7ce6ad7ce76c605d15a" target="_top" xlink:title="Hydrax::Noise::Perlin\l::createGPUNormalMapResources">
<polygon fill="white" stroke="black" points="569,-51.5 569,-81.5 736,-81.5 736,-51.5 569,-51.5"/>
<text text-anchor="start" x="577" y="-69.5" font-family="Helvetica,sans-Serif" font-size="10.00">Hydrax::Noise::Perlin</text>
<text text-anchor="middle" x="652.5" y="-58.5" font-family="Helvetica,sans-Serif" font-size="10.00">::createGPUNormalMapResources</text>
</a>
</g>
</g>
<!-- Node376&#45;&gt;Node381 -->
<g id="edge16" class="edge"><title>Node376&#45;&gt;Node381</title>
<path fill="none" stroke="midnightblue" d="M526.496,-96.1727C546.754,-91.3639 568.576,-86.184 588.228,-81.519"/>
<polygon fill="midnightblue" stroke="midnightblue" points="525.614,-92.7847 516.693,-98.4997 527.231,-99.5954 525.614,-92.7847"/>
</g>
<!-- Node378 -->
<g id="node10" class="node"><title>Node378</title>
<g id="a_node10"><a xlink:href="../../de/d4c/class_hydrax_1_1_noise_1_1_f_f_t.html#a1d7ec06eb11cda608cc8f73256c35be5" target="_top" xlink:title="Hydrax::Noise::FFT\l::setOptions">
<polygon fill="white" stroke="black" points="782,-141.5 782,-171.5 883,-171.5 883,-141.5 782,-141.5"/>
<text text-anchor="start" x="790" y="-159.5" font-family="Helvetica,sans-Serif" font-size="10.00">Hydrax::Noise::FFT</text>
<text text-anchor="middle" x="832.5" y="-148.5" font-family="Helvetica,sans-Serif" font-size="10.00">::setOptions</text>
</a>
</g>
</g>
<!-- Node377&#45;&gt;Node378 -->
<g id="edge11" class="edge"><title>Node377&#45;&gt;Node378</title>
<path fill="none" stroke="midnightblue" d="M728.655,-132.811C746.625,-136.95 765.368,-141.267 781.854,-145.065"/>
<polygon fill="midnightblue" stroke="midnightblue" points="729.3,-129.368 718.77,-130.534 727.729,-136.189 729.3,-129.368"/>
</g>
<!-- Node380 -->
<g id="node12" class="node"><title>Node380</title>
<g id="a_node12"><a xlink:href="../../d3/db5/struct_hydrax_1_1_noise_1_1_f_f_t_1_1_options.html#adfe9c5cc180b233f7ef6ba50fec06563" target="_top" xlink:title="Hydrax::Noise::FFT\l::Options::Options">
<polygon fill="white" stroke="black" points="1086,-141.5 1086,-171.5 1187,-171.5 1187,-141.5 1086,-141.5"/>
<text text-anchor="start" x="1094" y="-159.5" font-family="Helvetica,sans-Serif" font-size="10.00">Hydrax::Noise::FFT</text>
<text text-anchor="middle" x="1136.5" y="-148.5" font-family="Helvetica,sans-Serif" font-size="10.00">::Options::Options</text>
</a>
</g>
</g>
<!-- Node377&#45;&gt;Node380 -->
<g id="edge15" class="edge"><title>Node377&#45;&gt;Node380</title>
<path fill="none" stroke="midnightblue" d="M746.248,-112.886C827.016,-112.118 946.987,-114.622 1050,-131.5 1063.74,-133.75 1078.38,-137.508 1091.6,-141.436"/>
<polygon fill="midnightblue" stroke="midnightblue" points="746.063,-109.388 736.104,-113.002 746.143,-116.387 746.063,-109.388"/>
</g>
<!-- Node379 -->
<g id="node11" class="node"><title>Node379</title>
<g id="a_node11"><a xlink:href="../../de/d4c/class_hydrax_1_1_noise_1_1_f_f_t.html#a64245b9e56eeb8627ac3f5260dc203dd" target="_top" xlink:title="Hydrax::Noise::FFT\l::loadCfg">
<polygon fill="white" stroke="black" points="939,-141.5 939,-171.5 1040,-171.5 1040,-141.5 939,-141.5"/>
<text text-anchor="start" x="947" y="-159.5" font-family="Helvetica,sans-Serif" font-size="10.00">Hydrax::Noise::FFT</text>
<text text-anchor="middle" x="989.5" y="-148.5" font-family="Helvetica,sans-Serif" font-size="10.00">::loadCfg</text>
</a>
</g>
</g>
<!-- Node378&#45;&gt;Node379 -->
<g id="edge12" class="edge"><title>Node378&#45;&gt;Node379</title>
<path fill="none" stroke="midnightblue" d="M893.608,-156.5C908.612,-156.5 924.534,-156.5 938.963,-156.5"/>
<polygon fill="midnightblue" stroke="midnightblue" points="893.396,-153 883.396,-156.5 893.396,-160 893.396,-153"/>
</g>
<!-- Node378&#45;&gt;Node380 -->
<g id="edge14" class="edge"><title>Node378&#45;&gt;Node380</title>
<path fill="none" stroke="midnightblue" d="M892.915,-173.827C904.77,-176.603 917.203,-179.04 929,-180.5 982.371,-187.104 996.725,-187.835 1050,-180.5 1063.44,-178.649 1077.74,-175.235 1090.73,-171.551"/>
<polygon fill="midnightblue" stroke="midnightblue" points="893.666,-170.408 883.121,-171.429 892.002,-177.207 893.666,-170.408"/>
</g>
<!-- Node379&#45;&gt;Node380 -->
<g id="edge13" class="edge"><title>Node379&#45;&gt;Node380</title>
<path fill="none" stroke="midnightblue" d="M1050.6,-156.5C1062.38,-156.5 1074.61,-156.5 1086,-156.5"/>
<polygon fill="midnightblue" stroke="midnightblue" points="1050.4,-153 1040.4,-156.5 1050.4,-160 1050.4,-153"/>
</g>
<!-- Node382 -->
<g id="node14" class="node"><title>Node382</title>
<g id="a_node14"><a xlink:href="../../d5/d28/struct_hydrax_1_1_noise_1_1_perlin_1_1_options.html#a25b331fdb0c7c67b12b865ff081af5e2" target="_top" xlink:title="Hydrax::Noise::Perlin\l::Options::Options">
<polygon fill="white" stroke="black" points="778,-51.5 778,-81.5 887,-81.5 887,-51.5 778,-51.5"/>
<text text-anchor="start" x="786" y="-69.5" font-family="Helvetica,sans-Serif" font-size="10.00">Hydrax::Noise::Perlin</text>
<text text-anchor="middle" x="832.5" y="-58.5" font-family="Helvetica,sans-Serif" font-size="10.00">::Options::Options</text>
</a>
</g>
</g>
<!-- Node381&#45;&gt;Node382 -->
<g id="edge17" class="edge"><title>Node381&#45;&gt;Node382</title>
<path fill="none" stroke="midnightblue" d="M746.554,-66.5C757.3,-66.5 767.968,-66.5 777.928,-66.5"/>
<polygon fill="midnightblue" stroke="midnightblue" points="746.247,-63.0001 736.247,-66.5 746.247,-70.0001 746.247,-63.0001"/>
</g>
<!-- Node384 -->
<g id="node16" class="node"><title>Node384</title>
<g id="a_node16"><a xlink:href="../../d6/de1/class_hydrax_1_1_cfg_file_manager.html#a3971753dfe7ad0b217844419c2b3d1fb" target="_top" xlink:title="Hydrax::CfgFileManager\l::_loadRttSettings">
<polygon fill="white" stroke="black" points="592,-243.5 592,-273.5 713,-273.5 713,-243.5 592,-243.5"/>
<text text-anchor="start" x="600" y="-261.5" font-family="Helvetica,sans-Serif" font-size="10.00">Hydrax::CfgFileManager</text>
<text text-anchor="middle" x="652.5" y="-250.5" font-family="Helvetica,sans-Serif" font-size="10.00">::_loadRttSettings</text>
</a>
</g>
</g>
<!-- Node383&#45;&gt;Node384 -->
<g id="edge19" class="edge"><title>Node383&#45;&gt;Node384</title>
<path fill="none" stroke="midnightblue" d="M514.651,-226.016C539.16,-231.833 567.313,-238.516 591.686,-244.302"/>
<polygon fill="midnightblue" stroke="midnightblue" points="515.285,-222.569 504.747,-223.665 513.669,-229.38 515.285,-222.569"/>
</g>
<!-- Node386 -->
<g id="node18" class="node"><title>Node386</title>
<g id="a_node18"><a xlink:href="../../d6/d76/class_hydrax_1_1_rtt_manager.html#a7a555bfe00cebdc0628f9b535db500ff" target="_top" xlink:title="Hydrax::RttManager\l::getTextureSize">
<polygon fill="white" stroke="black" points="600.5,-194.5 600.5,-224.5 704.5,-224.5 704.5,-194.5 600.5,-194.5"/>
<text text-anchor="start" x="608.5" y="-212.5" font-family="Helvetica,sans-Serif" font-size="10.00">Hydrax::RttManager</text>
<text text-anchor="middle" x="652.5" y="-201.5" font-family="Helvetica,sans-Serif" font-size="10.00">::getTextureSize</text>
</a>
</g>
</g>
<!-- Node383&#45;&gt;Node386 -->
<g id="edge21" class="edge"><title>Node383&#45;&gt;Node386</title>
<path fill="none" stroke="midnightblue" d="M515.019,-210.879C542.451,-210.602 574.387,-210.279 600.467,-210.015"/>
<polygon fill="midnightblue" stroke="midnightblue" points="514.712,-207.381 504.747,-210.982 514.782,-214.381 514.712,-207.381"/>
</g>
<!-- Node385 -->
<g id="node17" class="node"><title>Node385</title>
<g id="a_node17"><a xlink:href="../../d6/de1/class_hydrax_1_1_cfg_file_manager.html#a0e050d2bf65e31ee39c0e28c481702f8" target="_top" xlink:title="Hydrax::CfgFileManager\l::load">
<polygon fill="white" stroke="black" points="772,-243.5 772,-273.5 893,-273.5 893,-243.5 772,-243.5"/>
<text text-anchor="start" x="780" y="-261.5" font-family="Helvetica,sans-Serif" font-size="10.00">Hydrax::CfgFileManager</text>
<text text-anchor="middle" x="832.5" y="-250.5" font-family="Helvetica,sans-Serif" font-size="10.00">::load</text>
</a>
</g>
</g>
<!-- Node384&#45;&gt;Node385 -->
<g id="edge20" class="edge"><title>Node384&#45;&gt;Node385</title>
<path fill="none" stroke="midnightblue" d="M723.616,-258.5C739.586,-258.5 756.407,-258.5 771.891,-258.5"/>
<polygon fill="midnightblue" stroke="midnightblue" points="723.267,-255 713.267,-258.5 723.267,-262 723.267,-255"/>
</g>
<!-- Node387 -->
<g id="node19" class="node"><title>Node387</title>
<g id="a_node19"><a xlink:href="../../d6/de1/class_hydrax_1_1_cfg_file_manager.html#a7836862e6b5d435d19f9ff62cf5ffca6" target="_top" xlink:title="Hydrax::CfgFileManager\l::_getRttCfgString">
<polygon fill="white" stroke="black" points="772,-194.5 772,-224.5 893,-224.5 893,-194.5 772,-194.5"/>
<text text-anchor="start" x="780" y="-212.5" font-family="Helvetica,sans-Serif" font-size="10.00">Hydrax::CfgFileManager</text>
<text text-anchor="middle" x="832.5" y="-201.5" font-family="Helvetica,sans-Serif" font-size="10.00">::_getRttCfgString</text>
</a>
</g>
</g>
<!-- Node386&#45;&gt;Node387 -->
<g id="edge22" class="edge"><title>Node386&#45;&gt;Node387</title>
<path fill="none" stroke="midnightblue" d="M714.612,-209.5C733.175,-209.5 753.539,-209.5 771.996,-209.5"/>
<polygon fill="midnightblue" stroke="midnightblue" points="714.508,-206 704.508,-209.5 714.508,-213 714.508,-206"/>
</g>
<!-- Node387&#45;&gt;Node370 -->
<g id="edge23" class="edge"><title>Node387&#45;&gt;Node370</title>
<path fill="none" stroke="midnightblue" d="M880.875,-228.499C884.98,-230.179 889.067,-231.863 893,-233.5 913.156,-241.89 935.593,-251.509 953.652,-259.32"/>
<polygon fill="midnightblue" stroke="midnightblue" points="881.904,-225.139 871.323,-224.61 879.265,-231.622 881.904,-225.139"/>
</g>
<!-- Node388&#45;&gt;Node386 -->
<g id="edge25" class="edge"><title>Node388&#45;&gt;Node386</title>
<path fill="none" stroke="midnightblue" d="M514.657,-177.017C542.169,-183.548 574.273,-191.168 600.467,-197.386"/>
<polygon fill="midnightblue" stroke="midnightblue" points="515.285,-173.569 504.747,-174.665 513.669,-180.38 515.285,-173.569"/>
</g>
</g>
</svg>
        <g id="navigator" transform="translate(0 0)" fill="#404254">
                <rect fill="#f2f5e9" fill-opacity="0.5" stroke="#606060" stroke-width=".5" x="0" y="0" width="60" height="60"/>
                <use id="zoomplus" xlink:href="#zoomPlus" x="17" y="9" onmousedown="handleZoom(evt,'in')"/>
                <use id="zoomminus" xlink:href="#zoomMin" x="42" y="9" onmousedown="handleZoom(evt,'out')"/>
                <use id="reset" xlink:href="#resetDef" x="30" y="36" onmousedown="handleReset()"/>
                <g id="arrowUp" xlink:href="#dirArrow" transform="translate(30 24)" onmousedown="handlePan(0,-1)">
                  <use xlink:href="#rim" fill="#404040">
                        <set attributeName="fill" to="#808080" begin="arrowUp.mouseover" end="arrowUp.mouseout"/>
                  </use>
                  <path fill="none" stroke="white" stroke-width="1.5" d="M0,-3.0v7 M-2.5,-0.5L0,-3.0L2.5,-0.5"/>
                </g>
                <g id="arrowRight" xlink:href="#dirArrow" transform="rotate(90) translate(36 -43)" onmousedown="handlePan(1,0)">
                  <use xlink:href="#rim" fill="#404040">
                        <set attributeName="fill" to="#808080" begin="arrowRight.mouseover" end="arrowRight.mouseout"/>
                  </use>
                  <path fill="none" stroke="white" stroke-width="1.5" d="M0,-3.0v7 M-2.5,-0.5L0,-3.0L2.5,-0.5"/>
                </g>
                <g id="arrowDown" xlink:href="#dirArrow" transform="rotate(180) translate(-30 -48)" onmousedown="handlePan(0,1)">
                  <use xlink:href="#rim" fill="#404040">
                        <set attributeName="fill" to="#808080" begin="arrowDown.mouseover" end="arrowDown.mouseout"/>
                  </use>
                  <path fill="none" stroke="white" stroke-width="1.5" d="M0,-3.0v7 M-2.5,-0.5L0,-3.0L2.5,-0.5"/>
                </g>
                <g id="arrowLeft" xlink:href="#dirArrow" transform="rotate(270) translate(-36 17)" onmousedown="handlePan(-1,0)">
                  <use xlink:href="#rim" fill="#404040">
                        <set attributeName="fill" to="#808080" begin="arrowLeft.mouseover" end="arrowLeft.mouseout"/>
                  </use>
                  <path fill="none" stroke="white" stroke-width="1.5" d="M0,-3.0v7 M-2.5,-0.5L0,-3.0L2.5,-0.5"/>
                </g>
        </g>
        <svg viewBox="0 0 15 15" width="100%" height="30px" preserveAspectRatio="xMaxYMin meet">
         <g id="arrow_out" transform="scale(0.3 0.3)">
          <a xlink:href="class_hydrax_1_1_hydrax_abae34c8351038818133090dbe1241d7d_icgraph_org.svg" target="_base">
           <rect id="button" ry="5" rx="5" y="6" x="6" height="38" width="38"
                fill="#f2f5e9" fill-opacity="0.5" stroke="#606060" stroke-width="1.0"/>
           <path id="arrow"
             d="M 11.500037,31.436501 C 11.940474,20.09759 22.043105,11.32322 32.158766,21.979434 L 37.068811,17.246167 C 37.068811,17.246167 37.088388,32 37.088388,32 L 22.160133,31.978069 C 22.160133,31.978069 26.997745,27.140456 26.997745,27.140456 C 18.528582,18.264221 13.291696,25.230495 11.500037,31.436501 z"
             style="fill:#404040;"/>
          </a>
         </g>
        </svg>
</svg>
