<?xml version="1.0" encoding="UTF-8" standalone="no"?>
<!DOCTYPE svg PUBLIC "-//W3C//DTD SVG 1.1//EN"
 "http://www.w3.org/Graphics/SVG/1.1/DTD/svg11.dtd">
<!-- Generated by graphviz version 2.38.0 (20140413.2041)
 -->
<!-- Title: Hydrax::Hydrax::getDecalsManager Pages: 1 -->
<svg width="462pt" height="78pt"
 viewBox="0.00 0.00 462.00 77.50" xmlns="http://www.w3.org/2000/svg" xmlns:xlink="http://www.w3.org/1999/xlink">
<g id="graph0" class="graph" transform="scale(1 1) rotate(0) translate(4 73.5)">
<title>Hydrax::Hydrax::getDecalsManager</title>
<polygon fill="white" stroke="none" points="-4,4 -4,-73.5 458,-73.5 458,4 -4,4"/>
<!-- Node211 -->
<g id="node1" class="node"><title>Node211</title>
<polygon fill="#bfbfbf" stroke="black" points="0,-22.5 0,-52.5 134,-52.5 134,-22.5 0,-22.5"/>
<text text-anchor="start" x="8" y="-40.5" font-family="Helvetica,sans-Serif" font-size="10.00">Hydrax::Hydrax::getDecals</text>
<text text-anchor="middle" x="67" y="-29.5" font-family="Helvetica,sans-Serif" font-size="10.00">Manager</text>
</g>
<!-- Node212 -->
<g id="node2" class="node"><title>Node212</title>
<g id="a_node2"><a xlink:href="../../d0/d5b/class_hydrax_1_1_decal.html#a5c51a36fc2d8c6f320db291805b8401a" target="_top" xlink:title="Hydrax::Decal::setVisible">
<polygon fill="white" stroke="black" points="170,-50 170,-69 297,-69 297,-50 170,-50"/>
<text text-anchor="middle" x="233.5" y="-57" font-family="Helvetica,sans-Serif" font-size="10.00">Hydrax::Decal::setVisible</text>
</a>
</g>
</g>
<!-- Node211&#45;&gt;Node212 -->
<g id="edge1" class="edge"><title>Node211&#45;&gt;Node212</title>
<path fill="none" stroke="midnightblue" d="M144.373,-47.714C152.892,-48.8533 161.494,-50.0038 169.814,-51.1164"/>
<polygon fill="midnightblue" stroke="midnightblue" points="144.81,-44.2414 134.434,-46.3848 143.882,-51.1796 144.81,-44.2414"/>
</g>
<!-- Node214 -->
<g id="node4" class="node"><title>Node214</title>
<g id="a_node4"><a xlink:href="../../da/d12/class_hydrax_1_1_material_manager.html#a6aa7b0a92b824348577d506f7bcf581b" target="_top" xlink:title="Hydrax::MaterialManager\l::createMaterials">
<polygon fill="white" stroke="black" points="171,-0.5 171,-30.5 296,-30.5 296,-0.5 171,-0.5"/>
<text text-anchor="start" x="179" y="-18.5" font-family="Helvetica,sans-Serif" font-size="10.00">Hydrax::MaterialManager</text>
<text text-anchor="middle" x="233.5" y="-7.5" font-family="Helvetica,sans-Serif" font-size="10.00">::createMaterials</text>
</a>
</g>
</g>
<!-- Node211&#45;&gt;Node214 -->
<g id="edge3" class="edge"><title>Node211&#45;&gt;Node214</title>
<path fill="none" stroke="midnightblue" d="M144.392,-27.2834C153.266,-26.0966 162.232,-24.8976 170.872,-23.742"/>
<polygon fill="midnightblue" stroke="midnightblue" points="143.882,-23.8204 134.434,-28.6152 144.81,-30.7586 143.882,-23.8204"/>
</g>
<!-- Node213 -->
<g id="node3" class="node"><title>Node213</title>
<g id="a_node3"><a xlink:href="../../d0/d5b/class_hydrax_1_1_decal.html#af75a4ef266b8fd19271fccc7ff2f20d8" target="_top" xlink:title="Hydrax::Decal::isVisible">
<polygon fill="white" stroke="black" points="333,-50 333,-69 454,-69 454,-50 333,-50"/>
<text text-anchor="middle" x="393.5" y="-57" font-family="Helvetica,sans-Serif" font-size="10.00">Hydrax::Decal::isVisible</text>
</a>
</g>
</g>
<!-- Node212&#45;&gt;Node213 -->
<g id="edge2" class="edge"><title>Node212&#45;&gt;Node213</title>
<path fill="none" stroke="midnightblue" d="M307.646,-59.5C316.105,-59.5 324.653,-59.5 332.901,-59.5"/>
<polygon fill="midnightblue" stroke="midnightblue" points="307.4,-56.0001 297.4,-59.5 307.4,-63.0001 307.4,-56.0001"/>
</g>
</g>
</svg>
