<?xml version="1.0" encoding="UTF-8" standalone="no"?>
<!DOCTYPE svg PUBLIC "-//W3C//DTD SVG 1.1//EN"
 "http://www.w3.org/Graphics/SVG/1.1/DTD/svg11.dtd">
<!-- Generated by graphviz version 2.38.0 (20140413.2041)
 -->
<!-- Title: Hydrax::Hydrax::getSunStrength Pages: 1 -->
<svg width="1191pt" height="306pt"
 viewBox="0.00 0.00 1191.00 306.19" xmlns="http://www.w3.org/2000/svg" xmlns:xlink="http://www.w3.org/1999/xlink">
<g id="graph0" class="graph" transform="scale(1 1) rotate(0) translate(4 302.193)">
<title>Hydrax::Hydrax::getSunStrength</title>
<polygon fill="white" stroke="none" points="-4,4 -4,-302.193 1187,-302.193 1187,4 -4,4"/>
<!-- Node835 -->
<g id="node1" class="node"><title>Node835</title>
<polygon fill="#bfbfbf" stroke="black" points="0,-116 0,-135 158,-135 158,-116 0,-116"/>
<text text-anchor="middle" x="79" y="-123" font-family="Helvetica,sans-Serif" font-size="10.00">Hydrax::Hydrax::getSunStrength</text>
</g>
<!-- Node836 -->
<g id="node2" class="node"><title>Node836</title>
<g id="a_node2"><a xlink:href="../../d6/de1/class_hydrax_1_1_cfg_file_manager.html#a9dee3c1dd306504d642e31140214e2b4" target="_top" xlink:title="Hydrax::CfgFileManager\l::_getComponentsCfgString">
<polygon fill="white" stroke="black" points="195,-242.5 195,-272.5 331,-272.5 331,-242.5 195,-242.5"/>
<text text-anchor="start" x="203" y="-260.5" font-family="Helvetica,sans-Serif" font-size="10.00">Hydrax::CfgFileManager</text>
<text text-anchor="middle" x="263" y="-249.5" font-family="Helvetica,sans-Serif" font-size="10.00">::_getComponentsCfgString</text>
</a>
</g>
</g>
<!-- Node835&#45;&gt;Node836 -->
<g id="edge1" class="edge"><title>Node835&#45;&gt;Node836</title>
<path fill="none" stroke="midnightblue" d="M101.576,-141.149C136.879,-166.753 206.524,-217.265 241.27,-242.465"/>
<polygon fill="midnightblue" stroke="midnightblue" points="103.533,-138.244 93.3829,-135.206 99.423,-143.911 103.533,-138.244"/>
</g>
<!-- Node838 -->
<g id="node4" class="node"><title>Node838</title>
<g id="a_node4"><a xlink:href="../../da/d12/class_hydrax_1_1_material_manager.html#a20f50f4b2b7d133fcc5be5e31d136856" target="_top" xlink:title="Hydrax::MaterialManager\l::_createWaterMaterial">
<polygon fill="white" stroke="black" points="200.5,-74.5 200.5,-104.5 325.5,-104.5 325.5,-74.5 200.5,-74.5"/>
<text text-anchor="start" x="208.5" y="-92.5" font-family="Helvetica,sans-Serif" font-size="10.00">Hydrax::MaterialManager</text>
<text text-anchor="middle" x="263" y="-81.5" font-family="Helvetica,sans-Serif" font-size="10.00">::_createWaterMaterial</text>
</a>
</g>
</g>
<!-- Node835&#45;&gt;Node838 -->
<g id="edge3" class="edge"><title>Node835&#45;&gt;Node838</title>
<path fill="none" stroke="midnightblue" d="M138.134,-114.001C157.999,-110.072 180.277,-105.665 200.405,-101.684"/>
<polygon fill="midnightblue" stroke="midnightblue" points="137.426,-110.573 128.295,-115.947 138.784,-117.44 137.426,-110.573"/>
</g>
<!-- Node841 -->
<g id="node7" class="node"><title>Node841</title>
<g id="a_node7"><a xlink:href="../../da/d12/class_hydrax_1_1_material_manager.html#a23043949a092bd6b806ad5bd7619cfe7" target="_top" xlink:title="Hydrax::MaterialManager\l::_createUnderwaterMaterial">
<polygon fill="white" stroke="black" points="194,-25.5 194,-55.5 332,-55.5 332,-25.5 194,-25.5"/>
<text text-anchor="start" x="202" y="-43.5" font-family="Helvetica,sans-Serif" font-size="10.00">Hydrax::MaterialManager</text>
<text text-anchor="middle" x="263" y="-32.5" font-family="Helvetica,sans-Serif" font-size="10.00">::_createUnderwaterMaterial</text>
</a>
</g>
</g>
<!-- Node835&#45;&gt;Node841 -->
<g id="edge6" class="edge"><title>Node835&#45;&gt;Node841</title>
<path fill="none" stroke="midnightblue" d="M104.893,-110.759C127.628,-97.641 162.41,-78.43 194,-64.5 201.102,-61.3683 208.753,-58.3458 216.269,-55.5633"/>
<polygon fill="midnightblue" stroke="midnightblue" points="103.105,-107.75 96.2214,-115.804 106.625,-113.8 103.105,-107.75"/>
</g>
<!-- Node842 -->
<g id="node8" class="node"><title>Node842</title>
<g id="a_node8"><a xlink:href="../../da/d12/class_hydrax_1_1_material_manager.html#a2961836553f7a30a8baffb9e82f7216e" target="_top" xlink:title="Hydrax::MaterialManager\l::reload">
<polygon fill="white" stroke="black" points="200.5,-147.5 200.5,-177.5 325.5,-177.5 325.5,-147.5 200.5,-147.5"/>
<text text-anchor="start" x="208.5" y="-165.5" font-family="Helvetica,sans-Serif" font-size="10.00">Hydrax::MaterialManager</text>
<text text-anchor="middle" x="263" y="-154.5" font-family="Helvetica,sans-Serif" font-size="10.00">::reload</text>
</a>
</g>
</g>
<!-- Node835&#45;&gt;Node842 -->
<g id="edge9" class="edge"><title>Node835&#45;&gt;Node842</title>
<path fill="none" stroke="midnightblue" d="M136.821,-137.051C156.941,-141.142 179.67,-145.762 200.185,-149.933"/>
<polygon fill="midnightblue" stroke="midnightblue" points="137.366,-133.591 126.87,-135.028 135.972,-140.451 137.366,-133.591"/>
</g>
<!-- Node837 -->
<g id="node3" class="node"><title>Node837</title>
<g id="a_node3"><a xlink:href="../../d6/de1/class_hydrax_1_1_cfg_file_manager.html#a7bb4d0c2124c8c68e49f8fcc26e1add7" target="_top" xlink:title="Hydrax::CfgFileManager\l::save">
<polygon fill="white" stroke="black" points="925,-259.5 925,-289.5 1046,-289.5 1046,-259.5 925,-259.5"/>
<text text-anchor="start" x="933" y="-277.5" font-family="Helvetica,sans-Serif" font-size="10.00">Hydrax::CfgFileManager</text>
<text text-anchor="middle" x="985.5" y="-266.5" font-family="Helvetica,sans-Serif" font-size="10.00">::save</text>
</a>
</g>
</g>
<!-- Node836&#45;&gt;Node837 -->
<g id="edge2" class="edge"><title>Node836&#45;&gt;Node837</title>
<path fill="none" stroke="midnightblue" d="M321.108,-275.102C336.207,-278.989 352.593,-282.533 368,-284.5 570.81,-310.397 814.168,-292.084 924.673,-281.115"/>
<polygon fill="midnightblue" stroke="midnightblue" points="321.96,-271.707 311.395,-272.512 320.156,-278.471 321.96,-271.707"/>
</g>
<!-- Node839 -->
<g id="node5" class="node"><title>Node839</title>
<g id="a_node5"><a xlink:href="../../da/d12/class_hydrax_1_1_material_manager.html#a6aa7b0a92b824348577d506f7bcf581b" target="_top" xlink:title="Hydrax::MaterialManager\l::createMaterials">
<polygon fill="white" stroke="black" points="386,-0.5 386,-30.5 511,-30.5 511,-0.5 386,-0.5"/>
<text text-anchor="start" x="394" y="-18.5" font-family="Helvetica,sans-Serif" font-size="10.00">Hydrax::MaterialManager</text>
<text text-anchor="middle" x="448.5" y="-7.5" font-family="Helvetica,sans-Serif" font-size="10.00">::createMaterials</text>
</a>
</g>
</g>
<!-- Node838&#45;&gt;Node839 -->
<g id="edge4" class="edge"><title>Node838&#45;&gt;Node839</title>
<path fill="none" stroke="midnightblue" d="M319.5,-70.4491C323.788,-68.5685 328,-66.5805 332,-64.5 349.282,-55.5108 350.46,-47.9745 368,-39.5 374.88,-36.1758 382.319,-33.1993 389.79,-30.569"/>
<polygon fill="midnightblue" stroke="midnightblue" points="317.931,-67.3111 310.047,-74.3889 320.624,-73.7724 317.931,-67.3111"/>
</g>
<!-- Node840 -->
<g id="node6" class="node"><title>Node840</title>
<g id="a_node6"><a xlink:href="../../da/d12/class_hydrax_1_1_material_manager.html#a964a29c17a27037791f2b1c76bdf2aea" target="_top" xlink:title="Hydrax::MaterialManager\l::getDepthTechniques">
<polygon fill="white" stroke="black" points="386,-49.5 386,-79.5 511,-79.5 511,-49.5 386,-49.5"/>
<text text-anchor="start" x="394" y="-67.5" font-family="Helvetica,sans-Serif" font-size="10.00">Hydrax::MaterialManager</text>
<text text-anchor="middle" x="448.5" y="-56.5" font-family="Helvetica,sans-Serif" font-size="10.00">::getDepthTechniques</text>
</a>
</g>
</g>
<!-- Node838&#45;&gt;Node840 -->
<g id="edge5" class="edge"><title>Node838&#45;&gt;Node840</title>
<path fill="none" stroke="midnightblue" d="M335.757,-79.7238C352.27,-77.4741 369.691,-75.1007 385.737,-72.9146"/>
<polygon fill="midnightblue" stroke="midnightblue" points="335.049,-76.2878 325.613,-81.1058 335.994,-83.2238 335.049,-76.2878"/>
</g>
<!-- Node841&#45;&gt;Node839 -->
<g id="edge7" class="edge"><title>Node841&#45;&gt;Node839</title>
<path fill="none" stroke="midnightblue" d="M342.107,-29.8587C356.744,-27.8646 371.855,-25.8058 385.905,-23.8917"/>
<polygon fill="midnightblue" stroke="midnightblue" points="341.504,-26.4085 332.068,-31.2264 342.449,-33.3444 341.504,-26.4085"/>
</g>
<!-- Node841&#45;&gt;Node840 -->
<g id="edge8" class="edge"><title>Node841&#45;&gt;Node840</title>
<path fill="none" stroke="midnightblue" d="M342.107,-50.7156C356.744,-52.63 371.855,-54.6064 385.905,-56.444"/>
<polygon fill="midnightblue" stroke="midnightblue" points="342.437,-47.2291 332.068,-49.4026 341.529,-54.17 342.437,-47.2291"/>
</g>
<!-- Node843 -->
<g id="node9" class="node"><title>Node843</title>
<g id="a_node9"><a xlink:href="../../da/d5f/class_hydrax_1_1_g_p_u_normal_map_manager.html#a7398a504e11ea902839868d69bcf956b" target="_top" xlink:title="Hydrax::GPUNormalMapManager\l::create">
<polygon fill="white" stroke="black" points="368,-98.5 368,-128.5 529,-128.5 529,-98.5 368,-98.5"/>
<text text-anchor="start" x="376" y="-116.5" font-family="Helvetica,sans-Serif" font-size="10.00">Hydrax::GPUNormalMapManager</text>
<text text-anchor="middle" x="448.5" y="-105.5" font-family="Helvetica,sans-Serif" font-size="10.00">::create</text>
</a>
</g>
</g>
<!-- Node842&#45;&gt;Node843 -->
<g id="edge10" class="edge"><title>Node842&#45;&gt;Node843</title>
<path fill="none" stroke="midnightblue" d="M329.996,-144.877C350.072,-139.516 371.937,-133.677 391.303,-128.506"/>
<polygon fill="midnightblue" stroke="midnightblue" points="329.062,-141.504 320.303,-147.465 330.868,-148.267 329.062,-141.504"/>
</g>
<!-- Node850 -->
<g id="node16" class="node"><title>Node850</title>
<g id="a_node16"><a xlink:href="../../d6/d76/class_hydrax_1_1_rtt_manager.html#abf7d8e05771b9f904efa09fe94ab0907" target="_top" xlink:title="Hydrax::RttManager\l::setTextureSize">
<polygon fill="white" stroke="black" points="396.5,-196.5 396.5,-226.5 500.5,-226.5 500.5,-196.5 396.5,-196.5"/>
<text text-anchor="start" x="404.5" y="-214.5" font-family="Helvetica,sans-Serif" font-size="10.00">Hydrax::RttManager</text>
<text text-anchor="middle" x="448.5" y="-203.5" font-family="Helvetica,sans-Serif" font-size="10.00">::setTextureSize</text>
</a>
</g>
</g>
<!-- Node842&#45;&gt;Node850 -->
<g id="edge19" class="edge"><title>Node842&#45;&gt;Node850</title>
<path fill="none" stroke="midnightblue" d="M330.144,-180.163C351.927,-185.979 375.802,-192.355 396.298,-197.828"/>
<polygon fill="midnightblue" stroke="midnightblue" points="330.868,-176.733 320.303,-177.535 329.062,-183.496 330.868,-176.733"/>
</g>
<!-- Node855 -->
<g id="node21" class="node"><title>Node855</title>
<g id="a_node21"><a xlink:href="../../d6/d76/class_hydrax_1_1_rtt_manager.html#ad54dd87efa7baa4a5037faa2e5241738" target="_top" xlink:title="Hydrax::RttManager\l::setTexturesSize">
<polygon fill="white" stroke="black" points="396.5,-147.5 396.5,-177.5 500.5,-177.5 500.5,-147.5 396.5,-147.5"/>
<text text-anchor="start" x="404.5" y="-165.5" font-family="Helvetica,sans-Serif" font-size="10.00">Hydrax::RttManager</text>
<text text-anchor="middle" x="448.5" y="-154.5" font-family="Helvetica,sans-Serif" font-size="10.00">::setTexturesSize</text>
</a>
</g>
</g>
<!-- Node842&#45;&gt;Node855 -->
<g id="edge25" class="edge"><title>Node842&#45;&gt;Node855</title>
<path fill="none" stroke="midnightblue" d="M335.748,-162.5C356.016,-162.5 377.652,-162.5 396.435,-162.5"/>
<polygon fill="midnightblue" stroke="midnightblue" points="335.613,-159 325.613,-162.5 335.613,-166 335.613,-159"/>
</g>
<!-- Node856 -->
<g id="node22" class="node"><title>Node856</title>
<g id="a_node22"><a xlink:href="../../d5/daf/class_hydrax_1_1_texture_manager.html#a30bfb59332540e897c43193474b4aa19" target="_top" xlink:title="Hydrax::TextureManager\l::create">
<polygon fill="white" stroke="black" points="387,-245.5 387,-275.5 510,-275.5 510,-245.5 387,-245.5"/>
<text text-anchor="start" x="395" y="-263.5" font-family="Helvetica,sans-Serif" font-size="10.00">Hydrax::TextureManager</text>
<text text-anchor="middle" x="448.5" y="-252.5" font-family="Helvetica,sans-Serif" font-size="10.00">::create</text>
</a>
</g>
</g>
<!-- Node842&#45;&gt;Node856 -->
<g id="edge27" class="edge"><title>Node842&#45;&gt;Node856</title>
<path fill="none" stroke="midnightblue" d="M289.515,-183.782C309.752,-199.801 339.311,-221.345 368,-235.5 375.526,-239.213 383.722,-242.527 391.899,-245.432"/>
<polygon fill="midnightblue" stroke="midnightblue" points="291.695,-181.045 281.708,-177.51 287.311,-186.502 291.695,-181.045"/>
</g>
<!-- Node844 -->
<g id="node10" class="node"><title>Node844</title>
<g id="a_node10"><a xlink:href="../../de/d4c/class_hydrax_1_1_noise_1_1_f_f_t.html#aa8e2b9d2b8307c07be2d2cd9cf115560" target="_top" xlink:title="Hydrax::Noise::FFT\l::createGPUNormalMapResources">
<polygon fill="white" stroke="black" points="565,-100.5 565,-130.5 732,-130.5 732,-100.5 565,-100.5"/>
<text text-anchor="start" x="573" y="-118.5" font-family="Helvetica,sans-Serif" font-size="10.00">Hydrax::Noise::FFT</text>
<text text-anchor="middle" x="648.5" y="-107.5" font-family="Helvetica,sans-Serif" font-size="10.00">::createGPUNormalMapResources</text>
</a>
</g>
</g>
<!-- Node843&#45;&gt;Node844 -->
<g id="edge11" class="edge"><title>Node843&#45;&gt;Node844</title>
<path fill="none" stroke="midnightblue" d="M539.413,-114.408C547.854,-114.493 556.383,-114.58 564.753,-114.664"/>
<polygon fill="midnightblue" stroke="midnightblue" points="539.213,-110.906 529.178,-114.305 539.142,-117.906 539.213,-110.906"/>
</g>
<!-- Node848 -->
<g id="node14" class="node"><title>Node848</title>
<g id="a_node14"><a xlink:href="../../db/d29/class_hydrax_1_1_noise_1_1_perlin.html#adb347b98692bd7ce6ad7ce76c605d15a" target="_top" xlink:title="Hydrax::Noise::Perlin\l::createGPUNormalMapResources">
<polygon fill="white" stroke="black" points="565,-51.5 565,-81.5 732,-81.5 732,-51.5 565,-51.5"/>
<text text-anchor="start" x="573" y="-69.5" font-family="Helvetica,sans-Serif" font-size="10.00">Hydrax::Noise::Perlin</text>
<text text-anchor="middle" x="648.5" y="-58.5" font-family="Helvetica,sans-Serif" font-size="10.00">::createGPUNormalMapResources</text>
</a>
</g>
</g>
<!-- Node843&#45;&gt;Node848 -->
<g id="edge17" class="edge"><title>Node843&#45;&gt;Node848</title>
<path fill="none" stroke="midnightblue" d="M522.496,-96.1727C542.754,-91.3639 564.576,-86.184 584.228,-81.519"/>
<polygon fill="midnightblue" stroke="midnightblue" points="521.614,-92.7847 512.693,-98.4997 523.231,-99.5954 521.614,-92.7847"/>
</g>
<!-- Node845 -->
<g id="node11" class="node"><title>Node845</title>
<g id="a_node11"><a xlink:href="../../de/d4c/class_hydrax_1_1_noise_1_1_f_f_t.html#a1d7ec06eb11cda608cc8f73256c35be5" target="_top" xlink:title="Hydrax::Noise::FFT\l::setOptions">
<polygon fill="white" stroke="black" points="778,-141.5 778,-171.5 879,-171.5 879,-141.5 778,-141.5"/>
<text text-anchor="start" x="786" y="-159.5" font-family="Helvetica,sans-Serif" font-size="10.00">Hydrax::Noise::FFT</text>
<text text-anchor="middle" x="828.5" y="-148.5" font-family="Helvetica,sans-Serif" font-size="10.00">::setOptions</text>
</a>
</g>
</g>
<!-- Node844&#45;&gt;Node845 -->
<g id="edge12" class="edge"><title>Node844&#45;&gt;Node845</title>
<path fill="none" stroke="midnightblue" d="M724.655,-132.811C742.625,-136.95 761.368,-141.267 777.854,-145.065"/>
<polygon fill="midnightblue" stroke="midnightblue" points="725.3,-129.368 714.77,-130.534 723.729,-136.189 725.3,-129.368"/>
</g>
<!-- Node847 -->
<g id="node13" class="node"><title>Node847</title>
<g id="a_node13"><a xlink:href="../../d3/db5/struct_hydrax_1_1_noise_1_1_f_f_t_1_1_options.html#adfe9c5cc180b233f7ef6ba50fec06563" target="_top" xlink:title="Hydrax::Noise::FFT\l::Options::Options">
<polygon fill="white" stroke="black" points="1082,-141.5 1082,-171.5 1183,-171.5 1183,-141.5 1082,-141.5"/>
<text text-anchor="start" x="1090" y="-159.5" font-family="Helvetica,sans-Serif" font-size="10.00">Hydrax::Noise::FFT</text>
<text text-anchor="middle" x="1132.5" y="-148.5" font-family="Helvetica,sans-Serif" font-size="10.00">::Options::Options</text>
</a>
</g>
</g>
<!-- Node844&#45;&gt;Node847 -->
<g id="edge16" class="edge"><title>Node844&#45;&gt;Node847</title>
<path fill="none" stroke="midnightblue" d="M742.248,-112.886C823.016,-112.118 942.987,-114.622 1046,-131.5 1059.74,-133.75 1074.38,-137.508 1087.6,-141.436"/>
<polygon fill="midnightblue" stroke="midnightblue" points="742.063,-109.388 732.104,-113.002 742.143,-116.387 742.063,-109.388"/>
</g>
<!-- Node846 -->
<g id="node12" class="node"><title>Node846</title>
<g id="a_node12"><a xlink:href="../../de/d4c/class_hydrax_1_1_noise_1_1_f_f_t.html#a64245b9e56eeb8627ac3f5260dc203dd" target="_top" xlink:title="Hydrax::Noise::FFT\l::loadCfg">
<polygon fill="white" stroke="black" points="935,-141.5 935,-171.5 1036,-171.5 1036,-141.5 935,-141.5"/>
<text text-anchor="start" x="943" y="-159.5" font-family="Helvetica,sans-Serif" font-size="10.00">Hydrax::Noise::FFT</text>
<text text-anchor="middle" x="985.5" y="-148.5" font-family="Helvetica,sans-Serif" font-size="10.00">::loadCfg</text>
</a>
</g>
</g>
<!-- Node845&#45;&gt;Node846 -->
<g id="edge13" class="edge"><title>Node845&#45;&gt;Node846</title>
<path fill="none" stroke="midnightblue" d="M889.608,-156.5C904.612,-156.5 920.534,-156.5 934.963,-156.5"/>
<polygon fill="midnightblue" stroke="midnightblue" points="889.396,-153 879.396,-156.5 889.396,-160 889.396,-153"/>
</g>
<!-- Node845&#45;&gt;Node847 -->
<g id="edge15" class="edge"><title>Node845&#45;&gt;Node847</title>
<path fill="none" stroke="midnightblue" d="M888.915,-173.827C900.77,-176.603 913.203,-179.04 925,-180.5 978.371,-187.104 992.725,-187.835 1046,-180.5 1059.44,-178.649 1073.74,-175.235 1086.73,-171.551"/>
<polygon fill="midnightblue" stroke="midnightblue" points="889.666,-170.408 879.121,-171.429 888.002,-177.207 889.666,-170.408"/>
</g>
<!-- Node846&#45;&gt;Node847 -->
<g id="edge14" class="edge"><title>Node846&#45;&gt;Node847</title>
<path fill="none" stroke="midnightblue" d="M1046.6,-156.5C1058.38,-156.5 1070.61,-156.5 1082,-156.5"/>
<polygon fill="midnightblue" stroke="midnightblue" points="1046.4,-153 1036.4,-156.5 1046.4,-160 1046.4,-153"/>
</g>
<!-- Node849 -->
<g id="node15" class="node"><title>Node849</title>
<g id="a_node15"><a xlink:href="../../d5/d28/struct_hydrax_1_1_noise_1_1_perlin_1_1_options.html#a25b331fdb0c7c67b12b865ff081af5e2" target="_top" xlink:title="Hydrax::Noise::Perlin\l::Options::Options">
<polygon fill="white" stroke="black" points="774,-51.5 774,-81.5 883,-81.5 883,-51.5 774,-51.5"/>
<text text-anchor="start" x="782" y="-69.5" font-family="Helvetica,sans-Serif" font-size="10.00">Hydrax::Noise::Perlin</text>
<text text-anchor="middle" x="828.5" y="-58.5" font-family="Helvetica,sans-Serif" font-size="10.00">::Options::Options</text>
</a>
</g>
</g>
<!-- Node848&#45;&gt;Node849 -->
<g id="edge18" class="edge"><title>Node848&#45;&gt;Node849</title>
<path fill="none" stroke="midnightblue" d="M742.554,-66.5C753.3,-66.5 763.968,-66.5 773.928,-66.5"/>
<polygon fill="midnightblue" stroke="midnightblue" points="742.247,-63.0001 732.247,-66.5 742.247,-70.0001 742.247,-63.0001"/>
</g>
<!-- Node851 -->
<g id="node17" class="node"><title>Node851</title>
<g id="a_node17"><a xlink:href="../../d6/de1/class_hydrax_1_1_cfg_file_manager.html#a3971753dfe7ad0b217844419c2b3d1fb" target="_top" xlink:title="Hydrax::CfgFileManager\l::_loadRttSettings">
<polygon fill="white" stroke="black" points="588,-243.5 588,-273.5 709,-273.5 709,-243.5 588,-243.5"/>
<text text-anchor="start" x="596" y="-261.5" font-family="Helvetica,sans-Serif" font-size="10.00">Hydrax::CfgFileManager</text>
<text text-anchor="middle" x="648.5" y="-250.5" font-family="Helvetica,sans-Serif" font-size="10.00">::_loadRttSettings</text>
</a>
</g>
</g>
<!-- Node850&#45;&gt;Node851 -->
<g id="edge20" class="edge"><title>Node850&#45;&gt;Node851</title>
<path fill="none" stroke="midnightblue" d="M510.651,-226.016C535.16,-231.833 563.313,-238.516 587.686,-244.302"/>
<polygon fill="midnightblue" stroke="midnightblue" points="511.285,-222.569 500.747,-223.665 509.669,-229.38 511.285,-222.569"/>
</g>
<!-- Node853 -->
<g id="node19" class="node"><title>Node853</title>
<g id="a_node19"><a xlink:href="../../d6/d76/class_hydrax_1_1_rtt_manager.html#a7a555bfe00cebdc0628f9b535db500ff" target="_top" xlink:title="Hydrax::RttManager\l::getTextureSize">
<polygon fill="white" stroke="black" points="596.5,-194.5 596.5,-224.5 700.5,-224.5 700.5,-194.5 596.5,-194.5"/>
<text text-anchor="start" x="604.5" y="-212.5" font-family="Helvetica,sans-Serif" font-size="10.00">Hydrax::RttManager</text>
<text text-anchor="middle" x="648.5" y="-201.5" font-family="Helvetica,sans-Serif" font-size="10.00">::getTextureSize</text>
</a>
</g>
</g>
<!-- Node850&#45;&gt;Node853 -->
<g id="edge22" class="edge"><title>Node850&#45;&gt;Node853</title>
<path fill="none" stroke="midnightblue" d="M511.019,-210.879C538.451,-210.602 570.387,-210.279 596.467,-210.015"/>
<polygon fill="midnightblue" stroke="midnightblue" points="510.712,-207.381 500.747,-210.982 510.782,-214.381 510.712,-207.381"/>
</g>
<!-- Node852 -->
<g id="node18" class="node"><title>Node852</title>
<g id="a_node18"><a xlink:href="../../d6/de1/class_hydrax_1_1_cfg_file_manager.html#a0e050d2bf65e31ee39c0e28c481702f8" target="_top" xlink:title="Hydrax::CfgFileManager\l::load">
<polygon fill="white" stroke="black" points="768,-243.5 768,-273.5 889,-273.5 889,-243.5 768,-243.5"/>
<text text-anchor="start" x="776" y="-261.5" font-family="Helvetica,sans-Serif" font-size="10.00">Hydrax::CfgFileManager</text>
<text text-anchor="middle" x="828.5" y="-250.5" font-family="Helvetica,sans-Serif" font-size="10.00">::load</text>
</a>
</g>
</g>
<!-- Node851&#45;&gt;Node852 -->
<g id="edge21" class="edge"><title>Node851&#45;&gt;Node852</title>
<path fill="none" stroke="midnightblue" d="M719.616,-258.5C735.586,-258.5 752.407,-258.5 767.891,-258.5"/>
<polygon fill="midnightblue" stroke="midnightblue" points="719.267,-255 709.267,-258.5 719.267,-262 719.267,-255"/>
</g>
<!-- Node854 -->
<g id="node20" class="node"><title>Node854</title>
<g id="a_node20"><a xlink:href="../../d6/de1/class_hydrax_1_1_cfg_file_manager.html#a7836862e6b5d435d19f9ff62cf5ffca6" target="_top" xlink:title="Hydrax::CfgFileManager\l::_getRttCfgString">
<polygon fill="white" stroke="black" points="768,-194.5 768,-224.5 889,-224.5 889,-194.5 768,-194.5"/>
<text text-anchor="start" x="776" y="-212.5" font-family="Helvetica,sans-Serif" font-size="10.00">Hydrax::CfgFileManager</text>
<text text-anchor="middle" x="828.5" y="-201.5" font-family="Helvetica,sans-Serif" font-size="10.00">::_getRttCfgString</text>
</a>
</g>
</g>
<!-- Node853&#45;&gt;Node854 -->
<g id="edge23" class="edge"><title>Node853&#45;&gt;Node854</title>
<path fill="none" stroke="midnightblue" d="M710.612,-209.5C729.175,-209.5 749.539,-209.5 767.996,-209.5"/>
<polygon fill="midnightblue" stroke="midnightblue" points="710.508,-206 700.508,-209.5 710.508,-213 710.508,-206"/>
</g>
<!-- Node854&#45;&gt;Node837 -->
<g id="edge24" class="edge"><title>Node854&#45;&gt;Node837</title>
<path fill="none" stroke="midnightblue" d="M876.875,-228.499C880.98,-230.179 885.067,-231.863 889,-233.5 909.156,-241.89 931.593,-251.509 949.652,-259.32"/>
<polygon fill="midnightblue" stroke="midnightblue" points="877.904,-225.139 867.323,-224.61 875.265,-231.622 877.904,-225.139"/>
</g>
<!-- Node855&#45;&gt;Node853 -->
<g id="edge26" class="edge"><title>Node855&#45;&gt;Node853</title>
<path fill="none" stroke="midnightblue" d="M510.657,-177.017C538.169,-183.548 570.273,-191.168 596.467,-197.386"/>
<polygon fill="midnightblue" stroke="midnightblue" points="511.285,-173.569 500.747,-174.665 509.669,-180.38 511.285,-173.569"/>
</g>
</g>
</svg>
