<?xml version="1.0" encoding="UTF-8" standalone="no"?>
<!DOCTYPE svg PUBLIC "-//W3C//DTD SVG 1.1//EN"
 "http://www.w3.org/Graphics/SVG/1.1/DTD/svg11.dtd">
<!-- Generated by graphviz version 2.38.0 (20140413.2041)
 -->
<!-- Title: Hydrax::Hydrax::getSunArea Pages: 1 -->
<!--zoomable 306 -->
<svg id="main" version="1.1" xmlns="http://www.w3.org/2000/svg" xmlns:xlink="http://www.w3.org/1999/xlink" xml:space="preserve" onload="init(evt)">
<style type="text/css"><![CDATA[
.edge:hover path { stroke: red; }
.edge:hover polygon { stroke: red; fill: red; }
]]></style>
<script type="text/javascript"><![CDATA[
var edges = document.getElementsByTagName('g');
if (edges && edges.length) {
  for (var i=0;i<edges.length;i++) {
    if (edges[i].id.substr(0,4)=='edge') {
      edges[i].setAttribute('class','edge');
    }
  }
}
]]></script>
        <defs>
                <circle id="rim" cx="0" cy="0" r="7"/>
                <circle id="rim2" cx="0" cy="0" r="3.5"/>
                <g id="zoomPlus">
                        <use xlink:href="#rim" fill="#404040">
                                <set attributeName="fill" to="#808080" begin="zoomplus.mouseover" end="zoomplus.mouseout"/>
                        </use>
                        <path d="M-4,0h8M0,-4v8" fill="none" stroke="white" stroke-width="1.5" pointer-events="none"/>
                </g>
                <g id="zoomMin">
                        <use xlink:href="#rim" fill="#404040">
                                <set attributeName="fill" to="#808080" begin="zoomminus.mouseover" end="zoomminus.mouseout"/>
                        </use>
                        <path d="M-4,0h8" fill="none" stroke="white" stroke-width="1.5" pointer-events="none"/>
                </g>
                <g id="dirArrow">
                        <path fill="none" stroke="white" stroke-width="1.5" d="M0,-3.0v7 M-2.5,-0.5L0,-3.0L2.5,-0.5"/>
                </g>
               <g id="resetDef">
                       <use xlink:href="#rim2" fill="#404040">
                               <set attributeName="fill" to="#808080" begin="reset.mouseover" end="reset.mouseout"/>
                       </use>
               </g>
        </defs>

<script type="text/javascript">
var viewWidth = 1174;
var viewHeight = 306;
var sectionId = 'dynsection-33';
</script>
<script xlink:href="../../svgpan.js"/>
<svg id="graph" class="graph">
<g id="viewport">
<title>Hydrax::Hydrax::getSunArea</title>
<polygon fill="white" stroke="none" points="-4,4 -4,-302.193 1170,-302.193 1170,4 -4,4"/>
<!-- Node760 -->
<g id="node1" class="node"><title>Node760</title>
<polygon fill="#bfbfbf" stroke="black" points="0,-116 0,-135 141,-135 141,-116 0,-116"/>
<text text-anchor="middle" x="70.5" y="-123" font-family="Helvetica,sans-Serif" font-size="10.00">Hydrax::Hydrax::getSunArea</text>
</g>
<!-- Node761 -->
<g id="node2" class="node"><title>Node761</title>
<g id="a_node2"><a xlink:href="../../d6/de1/class_hydrax_1_1_cfg_file_manager.html#a9dee3c1dd306504d642e31140214e2b4" target="_top" xlink:title="Hydrax::CfgFileManager\l::_getComponentsCfgString">
<polygon fill="white" stroke="black" points="178,-242.5 178,-272.5 314,-272.5 314,-242.5 178,-242.5"/>
<text text-anchor="start" x="186" y="-260.5" font-family="Helvetica,sans-Serif" font-size="10.00">Hydrax::CfgFileManager</text>
<text text-anchor="middle" x="246" y="-249.5" font-family="Helvetica,sans-Serif" font-size="10.00">::_getComponentsCfgString</text>
</a>
</g>
</g>
<!-- Node760&#45;&gt;Node761 -->
<g id="edge1" class="edge"><title>Node760&#45;&gt;Node761</title>
<path fill="none" stroke="midnightblue" d="M92.498,-141.475C126.284,-167.18 192.256,-217.372 225.238,-242.465"/>
<polygon fill="midnightblue" stroke="midnightblue" points="94.3356,-138.476 84.2579,-135.206 90.0972,-144.047 94.3356,-138.476"/>
</g>
<!-- Node763 -->
<g id="node4" class="node"><title>Node763</title>
<g id="a_node4"><a xlink:href="../../da/d12/class_hydrax_1_1_material_manager.html#a20f50f4b2b7d133fcc5be5e31d136856" target="_top" xlink:title="Hydrax::MaterialManager\l::_createWaterMaterial">
<polygon fill="white" stroke="black" points="183.5,-74.5 183.5,-104.5 308.5,-104.5 308.5,-74.5 183.5,-74.5"/>
<text text-anchor="start" x="191.5" y="-92.5" font-family="Helvetica,sans-Serif" font-size="10.00">Hydrax::MaterialManager</text>
<text text-anchor="middle" x="246" y="-81.5" font-family="Helvetica,sans-Serif" font-size="10.00">::_createWaterMaterial</text>
</a>
</g>
</g>
<!-- Node760&#45;&gt;Node763 -->
<g id="edge3" class="edge"><title>Node760&#45;&gt;Node763</title>
<path fill="none" stroke="midnightblue" d="M127.751,-113.828C145.524,-110.14 165.255,-106.047 183.383,-102.285"/>
<polygon fill="midnightblue" stroke="midnightblue" points="126.62,-110.488 117.539,-115.947 128.042,-117.342 126.62,-110.488"/>
</g>
<!-- Node766 -->
<g id="node7" class="node"><title>Node766</title>
<g id="a_node7"><a xlink:href="../../da/d12/class_hydrax_1_1_material_manager.html#a23043949a092bd6b806ad5bd7619cfe7" target="_top" xlink:title="Hydrax::MaterialManager\l::_createUnderwaterMaterial">
<polygon fill="white" stroke="black" points="177,-25.5 177,-55.5 315,-55.5 315,-25.5 177,-25.5"/>
<text text-anchor="start" x="185" y="-43.5" font-family="Helvetica,sans-Serif" font-size="10.00">Hydrax::MaterialManager</text>
<text text-anchor="middle" x="246" y="-32.5" font-family="Helvetica,sans-Serif" font-size="10.00">::_createUnderwaterMaterial</text>
</a>
</g>
</g>
<!-- Node760&#45;&gt;Node766 -->
<g id="edge6" class="edge"><title>Node760&#45;&gt;Node766</title>
<path fill="none" stroke="midnightblue" d="M94.5864,-110.481C115.528,-97.2675 147.54,-78.0739 177,-64.5 183.822,-61.3566 191.182,-58.3683 198.452,-55.6351"/>
<polygon fill="midnightblue" stroke="midnightblue" points="92.6112,-107.59 86.0609,-115.917 96.3745,-113.492 92.6112,-107.59"/>
</g>
<!-- Node767 -->
<g id="node8" class="node"><title>Node767</title>
<g id="a_node8"><a xlink:href="../../da/d12/class_hydrax_1_1_material_manager.html#a2961836553f7a30a8baffb9e82f7216e" target="_top" xlink:title="Hydrax::MaterialManager\l::reload">
<polygon fill="white" stroke="black" points="183.5,-147.5 183.5,-177.5 308.5,-177.5 308.5,-147.5 183.5,-147.5"/>
<text text-anchor="start" x="191.5" y="-165.5" font-family="Helvetica,sans-Serif" font-size="10.00">Hydrax::MaterialManager</text>
<text text-anchor="middle" x="246" y="-154.5" font-family="Helvetica,sans-Serif" font-size="10.00">::reload</text>
</a>
</g>
</g>
<!-- Node760&#45;&gt;Node767 -->
<g id="edge9" class="edge"><title>Node760&#45;&gt;Node767</title>
<path fill="none" stroke="midnightblue" d="M126.059,-137.135C144.295,-141.024 164.742,-145.385 183.472,-149.379"/>
<polygon fill="midnightblue" stroke="midnightblue" points="126.691,-133.691 116.181,-135.028 125.231,-140.537 126.691,-133.691"/>
</g>
<!-- Node762 -->
<g id="node3" class="node"><title>Node762</title>
<g id="a_node3"><a xlink:href="../../d6/de1/class_hydrax_1_1_cfg_file_manager.html#a7bb4d0c2124c8c68e49f8fcc26e1add7" target="_top" xlink:title="Hydrax::CfgFileManager\l::save">
<polygon fill="white" stroke="black" points="908,-259.5 908,-289.5 1029,-289.5 1029,-259.5 908,-259.5"/>
<text text-anchor="start" x="916" y="-277.5" font-family="Helvetica,sans-Serif" font-size="10.00">Hydrax::CfgFileManager</text>
<text text-anchor="middle" x="968.5" y="-266.5" font-family="Helvetica,sans-Serif" font-size="10.00">::save</text>
</a>
</g>
</g>
<!-- Node761&#45;&gt;Node762 -->
<g id="edge2" class="edge"><title>Node761&#45;&gt;Node762</title>
<path fill="none" stroke="midnightblue" d="M304.108,-275.102C319.207,-278.989 335.593,-282.533 351,-284.5 553.81,-310.397 797.168,-292.084 907.673,-281.115"/>
<polygon fill="midnightblue" stroke="midnightblue" points="304.96,-271.707 294.395,-272.512 303.156,-278.471 304.96,-271.707"/>
</g>
<!-- Node764 -->
<g id="node5" class="node"><title>Node764</title>
<g id="a_node5"><a xlink:href="../../da/d12/class_hydrax_1_1_material_manager.html#a6aa7b0a92b824348577d506f7bcf581b" target="_top" xlink:title="Hydrax::MaterialManager\l::createMaterials">
<polygon fill="white" stroke="black" points="369,-0.5 369,-30.5 494,-30.5 494,-0.5 369,-0.5"/>
<text text-anchor="start" x="377" y="-18.5" font-family="Helvetica,sans-Serif" font-size="10.00">Hydrax::MaterialManager</text>
<text text-anchor="middle" x="431.5" y="-7.5" font-family="Helvetica,sans-Serif" font-size="10.00">::createMaterials</text>
</a>
</g>
</g>
<!-- Node763&#45;&gt;Node764 -->
<g id="edge4" class="edge"><title>Node763&#45;&gt;Node764</title>
<path fill="none" stroke="midnightblue" d="M302.5,-70.4491C306.788,-68.5685 311,-66.5805 315,-64.5 332.282,-55.5108 333.46,-47.9745 351,-39.5 357.88,-36.1758 365.319,-33.1993 372.79,-30.569"/>
<polygon fill="midnightblue" stroke="midnightblue" points="300.931,-67.3111 293.047,-74.3889 303.624,-73.7724 300.931,-67.3111"/>
</g>
<!-- Node765 -->
<g id="node6" class="node"><title>Node765</title>
<g id="a_node6"><a xlink:href="../../da/d12/class_hydrax_1_1_material_manager.html#a964a29c17a27037791f2b1c76bdf2aea" target="_top" xlink:title="Hydrax::MaterialManager\l::getDepthTechniques">
<polygon fill="white" stroke="black" points="369,-49.5 369,-79.5 494,-79.5 494,-49.5 369,-49.5"/>
<text text-anchor="start" x="377" y="-67.5" font-family="Helvetica,sans-Serif" font-size="10.00">Hydrax::MaterialManager</text>
<text text-anchor="middle" x="431.5" y="-56.5" font-family="Helvetica,sans-Serif" font-size="10.00">::getDepthTechniques</text>
</a>
</g>
</g>
<!-- Node763&#45;&gt;Node765 -->
<g id="edge5" class="edge"><title>Node763&#45;&gt;Node765</title>
<path fill="none" stroke="midnightblue" d="M318.757,-79.7238C335.27,-77.4741 352.691,-75.1007 368.737,-72.9146"/>
<polygon fill="midnightblue" stroke="midnightblue" points="318.049,-76.2878 308.613,-81.1058 318.994,-83.2238 318.049,-76.2878"/>
</g>
<!-- Node766&#45;&gt;Node764 -->
<g id="edge7" class="edge"><title>Node766&#45;&gt;Node764</title>
<path fill="none" stroke="midnightblue" d="M325.107,-29.8587C339.744,-27.8646 354.855,-25.8058 368.905,-23.8917"/>
<polygon fill="midnightblue" stroke="midnightblue" points="324.504,-26.4085 315.068,-31.2264 325.449,-33.3444 324.504,-26.4085"/>
</g>
<!-- Node766&#45;&gt;Node765 -->
<g id="edge8" class="edge"><title>Node766&#45;&gt;Node765</title>
<path fill="none" stroke="midnightblue" d="M325.107,-50.7156C339.744,-52.63 354.855,-54.6064 368.905,-56.444"/>
<polygon fill="midnightblue" stroke="midnightblue" points="325.437,-47.2291 315.068,-49.4026 324.529,-54.17 325.437,-47.2291"/>
</g>
<!-- Node768 -->
<g id="node9" class="node"><title>Node768</title>
<g id="a_node9"><a xlink:href="../../da/d5f/class_hydrax_1_1_g_p_u_normal_map_manager.html#a7398a504e11ea902839868d69bcf956b" target="_top" xlink:title="Hydrax::GPUNormalMapManager\l::create">
<polygon fill="white" stroke="black" points="351,-98.5 351,-128.5 512,-128.5 512,-98.5 351,-98.5"/>
<text text-anchor="start" x="359" y="-116.5" font-family="Helvetica,sans-Serif" font-size="10.00">Hydrax::GPUNormalMapManager</text>
<text text-anchor="middle" x="431.5" y="-105.5" font-family="Helvetica,sans-Serif" font-size="10.00">::create</text>
</a>
</g>
</g>
<!-- Node767&#45;&gt;Node768 -->
<g id="edge10" class="edge"><title>Node767&#45;&gt;Node768</title>
<path fill="none" stroke="midnightblue" d="M312.996,-144.877C333.072,-139.516 354.937,-133.677 374.303,-128.506"/>
<polygon fill="midnightblue" stroke="midnightblue" points="312.062,-141.504 303.303,-147.465 313.868,-148.267 312.062,-141.504"/>
</g>
<!-- Node775 -->
<g id="node16" class="node"><title>Node775</title>
<g id="a_node16"><a xlink:href="../../d6/d76/class_hydrax_1_1_rtt_manager.html#abf7d8e05771b9f904efa09fe94ab0907" target="_top" xlink:title="Hydrax::RttManager\l::setTextureSize">
<polygon fill="white" stroke="black" points="379.5,-196.5 379.5,-226.5 483.5,-226.5 483.5,-196.5 379.5,-196.5"/>
<text text-anchor="start" x="387.5" y="-214.5" font-family="Helvetica,sans-Serif" font-size="10.00">Hydrax::RttManager</text>
<text text-anchor="middle" x="431.5" y="-203.5" font-family="Helvetica,sans-Serif" font-size="10.00">::setTextureSize</text>
</a>
</g>
</g>
<!-- Node767&#45;&gt;Node775 -->
<g id="edge19" class="edge"><title>Node767&#45;&gt;Node775</title>
<path fill="none" stroke="midnightblue" d="M313.144,-180.163C334.927,-185.979 358.802,-192.355 379.298,-197.828"/>
<polygon fill="midnightblue" stroke="midnightblue" points="313.868,-176.733 303.303,-177.535 312.062,-183.496 313.868,-176.733"/>
</g>
<!-- Node780 -->
<g id="node21" class="node"><title>Node780</title>
<g id="a_node21"><a xlink:href="../../d6/d76/class_hydrax_1_1_rtt_manager.html#ad54dd87efa7baa4a5037faa2e5241738" target="_top" xlink:title="Hydrax::RttManager\l::setTexturesSize">
<polygon fill="white" stroke="black" points="379.5,-147.5 379.5,-177.5 483.5,-177.5 483.5,-147.5 379.5,-147.5"/>
<text text-anchor="start" x="387.5" y="-165.5" font-family="Helvetica,sans-Serif" font-size="10.00">Hydrax::RttManager</text>
<text text-anchor="middle" x="431.5" y="-154.5" font-family="Helvetica,sans-Serif" font-size="10.00">::setTexturesSize</text>
</a>
</g>
</g>
<!-- Node767&#45;&gt;Node780 -->
<g id="edge25" class="edge"><title>Node767&#45;&gt;Node780</title>
<path fill="none" stroke="midnightblue" d="M318.748,-162.5C339.016,-162.5 360.652,-162.5 379.435,-162.5"/>
<polygon fill="midnightblue" stroke="midnightblue" points="318.613,-159 308.613,-162.5 318.613,-166 318.613,-159"/>
</g>
<!-- Node781 -->
<g id="node22" class="node"><title>Node781</title>
<g id="a_node22"><a xlink:href="../../d5/daf/class_hydrax_1_1_texture_manager.html#a30bfb59332540e897c43193474b4aa19" target="_top" xlink:title="Hydrax::TextureManager\l::create">
<polygon fill="white" stroke="black" points="370,-245.5 370,-275.5 493,-275.5 493,-245.5 370,-245.5"/>
<text text-anchor="start" x="378" y="-263.5" font-family="Helvetica,sans-Serif" font-size="10.00">Hydrax::TextureManager</text>
<text text-anchor="middle" x="431.5" y="-252.5" font-family="Helvetica,sans-Serif" font-size="10.00">::create</text>
</a>
</g>
</g>
<!-- Node767&#45;&gt;Node781 -->
<g id="edge27" class="edge"><title>Node767&#45;&gt;Node781</title>
<path fill="none" stroke="midnightblue" d="M272.515,-183.782C292.752,-199.801 322.311,-221.345 351,-235.5 358.526,-239.213 366.722,-242.527 374.899,-245.432"/>
<polygon fill="midnightblue" stroke="midnightblue" points="274.695,-181.045 264.708,-177.51 270.311,-186.502 274.695,-181.045"/>
</g>
<!-- Node769 -->
<g id="node10" class="node"><title>Node769</title>
<g id="a_node10"><a xlink:href="../../de/d4c/class_hydrax_1_1_noise_1_1_f_f_t.html#aa8e2b9d2b8307c07be2d2cd9cf115560" target="_top" xlink:title="Hydrax::Noise::FFT\l::createGPUNormalMapResources">
<polygon fill="white" stroke="black" points="548,-100.5 548,-130.5 715,-130.5 715,-100.5 548,-100.5"/>
<text text-anchor="start" x="556" y="-118.5" font-family="Helvetica,sans-Serif" font-size="10.00">Hydrax::Noise::FFT</text>
<text text-anchor="middle" x="631.5" y="-107.5" font-family="Helvetica,sans-Serif" font-size="10.00">::createGPUNormalMapResources</text>
</a>
</g>
</g>
<!-- Node768&#45;&gt;Node769 -->
<g id="edge11" class="edge"><title>Node768&#45;&gt;Node769</title>
<path fill="none" stroke="midnightblue" d="M522.413,-114.408C530.854,-114.493 539.383,-114.58 547.753,-114.664"/>
<polygon fill="midnightblue" stroke="midnightblue" points="522.213,-110.906 512.178,-114.305 522.142,-117.906 522.213,-110.906"/>
</g>
<!-- Node773 -->
<g id="node14" class="node"><title>Node773</title>
<g id="a_node14"><a xlink:href="../../db/d29/class_hydrax_1_1_noise_1_1_perlin.html#adb347b98692bd7ce6ad7ce76c605d15a" target="_top" xlink:title="Hydrax::Noise::Perlin\l::createGPUNormalMapResources">
<polygon fill="white" stroke="black" points="548,-51.5 548,-81.5 715,-81.5 715,-51.5 548,-51.5"/>
<text text-anchor="start" x="556" y="-69.5" font-family="Helvetica,sans-Serif" font-size="10.00">Hydrax::Noise::Perlin</text>
<text text-anchor="middle" x="631.5" y="-58.5" font-family="Helvetica,sans-Serif" font-size="10.00">::createGPUNormalMapResources</text>
</a>
</g>
</g>
<!-- Node768&#45;&gt;Node773 -->
<g id="edge17" class="edge"><title>Node768&#45;&gt;Node773</title>
<path fill="none" stroke="midnightblue" d="M505.496,-96.1727C525.754,-91.3639 547.576,-86.184 567.228,-81.519"/>
<polygon fill="midnightblue" stroke="midnightblue" points="504.614,-92.7847 495.693,-98.4997 506.231,-99.5954 504.614,-92.7847"/>
</g>
<!-- Node770 -->
<g id="node11" class="node"><title>Node770</title>
<g id="a_node11"><a xlink:href="../../de/d4c/class_hydrax_1_1_noise_1_1_f_f_t.html#a1d7ec06eb11cda608cc8f73256c35be5" target="_top" xlink:title="Hydrax::Noise::FFT\l::setOptions">
<polygon fill="white" stroke="black" points="761,-141.5 761,-171.5 862,-171.5 862,-141.5 761,-141.5"/>
<text text-anchor="start" x="769" y="-159.5" font-family="Helvetica,sans-Serif" font-size="10.00">Hydrax::Noise::FFT</text>
<text text-anchor="middle" x="811.5" y="-148.5" font-family="Helvetica,sans-Serif" font-size="10.00">::setOptions</text>
</a>
</g>
</g>
<!-- Node769&#45;&gt;Node770 -->
<g id="edge12" class="edge"><title>Node769&#45;&gt;Node770</title>
<path fill="none" stroke="midnightblue" d="M707.655,-132.811C725.625,-136.95 744.368,-141.267 760.854,-145.065"/>
<polygon fill="midnightblue" stroke="midnightblue" points="708.3,-129.368 697.77,-130.534 706.729,-136.189 708.3,-129.368"/>
</g>
<!-- Node772 -->
<g id="node13" class="node"><title>Node772</title>
<g id="a_node13"><a xlink:href="../../d3/db5/struct_hydrax_1_1_noise_1_1_f_f_t_1_1_options.html#adfe9c5cc180b233f7ef6ba50fec06563" target="_top" xlink:title="Hydrax::Noise::FFT\l::Options::Options">
<polygon fill="white" stroke="black" points="1065,-141.5 1065,-171.5 1166,-171.5 1166,-141.5 1065,-141.5"/>
<text text-anchor="start" x="1073" y="-159.5" font-family="Helvetica,sans-Serif" font-size="10.00">Hydrax::Noise::FFT</text>
<text text-anchor="middle" x="1115.5" y="-148.5" font-family="Helvetica,sans-Serif" font-size="10.00">::Options::Options</text>
</a>
</g>
</g>
<!-- Node769&#45;&gt;Node772 -->
<g id="edge16" class="edge"><title>Node769&#45;&gt;Node772</title>
<path fill="none" stroke="midnightblue" d="M725.248,-112.886C806.016,-112.118 925.987,-114.622 1029,-131.5 1042.74,-133.75 1057.38,-137.508 1070.6,-141.436"/>
<polygon fill="midnightblue" stroke="midnightblue" points="725.063,-109.388 715.104,-113.002 725.143,-116.387 725.063,-109.388"/>
</g>
<!-- Node771 -->
<g id="node12" class="node"><title>Node771</title>
<g id="a_node12"><a xlink:href="../../de/d4c/class_hydrax_1_1_noise_1_1_f_f_t.html#a64245b9e56eeb8627ac3f5260dc203dd" target="_top" xlink:title="Hydrax::Noise::FFT\l::loadCfg">
<polygon fill="white" stroke="black" points="918,-141.5 918,-171.5 1019,-171.5 1019,-141.5 918,-141.5"/>
<text text-anchor="start" x="926" y="-159.5" font-family="Helvetica,sans-Serif" font-size="10.00">Hydrax::Noise::FFT</text>
<text text-anchor="middle" x="968.5" y="-148.5" font-family="Helvetica,sans-Serif" font-size="10.00">::loadCfg</text>
</a>
</g>
</g>
<!-- Node770&#45;&gt;Node771 -->
<g id="edge13" class="edge"><title>Node770&#45;&gt;Node771</title>
<path fill="none" stroke="midnightblue" d="M872.608,-156.5C887.612,-156.5 903.534,-156.5 917.963,-156.5"/>
<polygon fill="midnightblue" stroke="midnightblue" points="872.396,-153 862.396,-156.5 872.396,-160 872.396,-153"/>
</g>
<!-- Node770&#45;&gt;Node772 -->
<g id="edge15" class="edge"><title>Node770&#45;&gt;Node772</title>
<path fill="none" stroke="midnightblue" d="M871.915,-173.827C883.77,-176.603 896.203,-179.04 908,-180.5 961.371,-187.104 975.725,-187.835 1029,-180.5 1042.44,-178.649 1056.74,-175.235 1069.73,-171.551"/>
<polygon fill="midnightblue" stroke="midnightblue" points="872.666,-170.408 862.121,-171.429 871.002,-177.207 872.666,-170.408"/>
</g>
<!-- Node771&#45;&gt;Node772 -->
<g id="edge14" class="edge"><title>Node771&#45;&gt;Node772</title>
<path fill="none" stroke="midnightblue" d="M1029.6,-156.5C1041.38,-156.5 1053.61,-156.5 1065,-156.5"/>
<polygon fill="midnightblue" stroke="midnightblue" points="1029.4,-153 1019.4,-156.5 1029.4,-160 1029.4,-153"/>
</g>
<!-- Node774 -->
<g id="node15" class="node"><title>Node774</title>
<g id="a_node15"><a xlink:href="../../d5/d28/struct_hydrax_1_1_noise_1_1_perlin_1_1_options.html#a25b331fdb0c7c67b12b865ff081af5e2" target="_top" xlink:title="Hydrax::Noise::Perlin\l::Options::Options">
<polygon fill="white" stroke="black" points="757,-51.5 757,-81.5 866,-81.5 866,-51.5 757,-51.5"/>
<text text-anchor="start" x="765" y="-69.5" font-family="Helvetica,sans-Serif" font-size="10.00">Hydrax::Noise::Perlin</text>
<text text-anchor="middle" x="811.5" y="-58.5" font-family="Helvetica,sans-Serif" font-size="10.00">::Options::Options</text>
</a>
</g>
</g>
<!-- Node773&#45;&gt;Node774 -->
<g id="edge18" class="edge"><title>Node773&#45;&gt;Node774</title>
<path fill="none" stroke="midnightblue" d="M725.554,-66.5C736.3,-66.5 746.968,-66.5 756.928,-66.5"/>
<polygon fill="midnightblue" stroke="midnightblue" points="725.247,-63.0001 715.247,-66.5 725.247,-70.0001 725.247,-63.0001"/>
</g>
<!-- Node776 -->
<g id="node17" class="node"><title>Node776</title>
<g id="a_node17"><a xlink:href="../../d6/de1/class_hydrax_1_1_cfg_file_manager.html#a3971753dfe7ad0b217844419c2b3d1fb" target="_top" xlink:title="Hydrax::CfgFileManager\l::_loadRttSettings">
<polygon fill="white" stroke="black" points="571,-243.5 571,-273.5 692,-273.5 692,-243.5 571,-243.5"/>
<text text-anchor="start" x="579" y="-261.5" font-family="Helvetica,sans-Serif" font-size="10.00">Hydrax::CfgFileManager</text>
<text text-anchor="middle" x="631.5" y="-250.5" font-family="Helvetica,sans-Serif" font-size="10.00">::_loadRttSettings</text>
</a>
</g>
</g>
<!-- Node775&#45;&gt;Node776 -->
<g id="edge20" class="edge"><title>Node775&#45;&gt;Node776</title>
<path fill="none" stroke="midnightblue" d="M493.651,-226.016C518.16,-231.833 546.313,-238.516 570.686,-244.302"/>
<polygon fill="midnightblue" stroke="midnightblue" points="494.285,-222.569 483.747,-223.665 492.669,-229.38 494.285,-222.569"/>
</g>
<!-- Node778 -->
<g id="node19" class="node"><title>Node778</title>
<g id="a_node19"><a xlink:href="../../d6/d76/class_hydrax_1_1_rtt_manager.html#a7a555bfe00cebdc0628f9b535db500ff" target="_top" xlink:title="Hydrax::RttManager\l::getTextureSize">
<polygon fill="white" stroke="black" points="579.5,-194.5 579.5,-224.5 683.5,-224.5 683.5,-194.5 579.5,-194.5"/>
<text text-anchor="start" x="587.5" y="-212.5" font-family="Helvetica,sans-Serif" font-size="10.00">Hydrax::RttManager</text>
<text text-anchor="middle" x="631.5" y="-201.5" font-family="Helvetica,sans-Serif" font-size="10.00">::getTextureSize</text>
</a>
</g>
</g>
<!-- Node775&#45;&gt;Node778 -->
<g id="edge22" class="edge"><title>Node775&#45;&gt;Node778</title>
<path fill="none" stroke="midnightblue" d="M494.019,-210.879C521.451,-210.602 553.387,-210.279 579.467,-210.015"/>
<polygon fill="midnightblue" stroke="midnightblue" points="493.712,-207.381 483.747,-210.982 493.782,-214.381 493.712,-207.381"/>
</g>
<!-- Node777 -->
<g id="node18" class="node"><title>Node777</title>
<g id="a_node18"><a xlink:href="../../d6/de1/class_hydrax_1_1_cfg_file_manager.html#a0e050d2bf65e31ee39c0e28c481702f8" target="_top" xlink:title="Hydrax::CfgFileManager\l::load">
<polygon fill="white" stroke="black" points="751,-243.5 751,-273.5 872,-273.5 872,-243.5 751,-243.5"/>
<text text-anchor="start" x="759" y="-261.5" font-family="Helvetica,sans-Serif" font-size="10.00">Hydrax::CfgFileManager</text>
<text text-anchor="middle" x="811.5" y="-250.5" font-family="Helvetica,sans-Serif" font-size="10.00">::load</text>
</a>
</g>
</g>
<!-- Node776&#45;&gt;Node777 -->
<g id="edge21" class="edge"><title>Node776&#45;&gt;Node777</title>
<path fill="none" stroke="midnightblue" d="M702.616,-258.5C718.586,-258.5 735.407,-258.5 750.891,-258.5"/>
<polygon fill="midnightblue" stroke="midnightblue" points="702.267,-255 692.267,-258.5 702.267,-262 702.267,-255"/>
</g>
<!-- Node779 -->
<g id="node20" class="node"><title>Node779</title>
<g id="a_node20"><a xlink:href="../../d6/de1/class_hydrax_1_1_cfg_file_manager.html#a7836862e6b5d435d19f9ff62cf5ffca6" target="_top" xlink:title="Hydrax::CfgFileManager\l::_getRttCfgString">
<polygon fill="white" stroke="black" points="751,-194.5 751,-224.5 872,-224.5 872,-194.5 751,-194.5"/>
<text text-anchor="start" x="759" y="-212.5" font-family="Helvetica,sans-Serif" font-size="10.00">Hydrax::CfgFileManager</text>
<text text-anchor="middle" x="811.5" y="-201.5" font-family="Helvetica,sans-Serif" font-size="10.00">::_getRttCfgString</text>
</a>
</g>
</g>
<!-- Node778&#45;&gt;Node779 -->
<g id="edge23" class="edge"><title>Node778&#45;&gt;Node779</title>
<path fill="none" stroke="midnightblue" d="M693.612,-209.5C712.175,-209.5 732.539,-209.5 750.996,-209.5"/>
<polygon fill="midnightblue" stroke="midnightblue" points="693.508,-206 683.508,-209.5 693.508,-213 693.508,-206"/>
</g>
<!-- Node779&#45;&gt;Node762 -->
<g id="edge24" class="edge"><title>Node779&#45;&gt;Node762</title>
<path fill="none" stroke="midnightblue" d="M859.875,-228.499C863.98,-230.179 868.067,-231.863 872,-233.5 892.156,-241.89 914.593,-251.509 932.652,-259.32"/>
<polygon fill="midnightblue" stroke="midnightblue" points="860.904,-225.139 850.323,-224.61 858.265,-231.622 860.904,-225.139"/>
</g>
<!-- Node780&#45;&gt;Node778 -->
<g id="edge26" class="edge"><title>Node780&#45;&gt;Node778</title>
<path fill="none" stroke="midnightblue" d="M493.657,-177.017C521.169,-183.548 553.273,-191.168 579.467,-197.386"/>
<polygon fill="midnightblue" stroke="midnightblue" points="494.285,-173.569 483.747,-174.665 492.669,-180.38 494.285,-173.569"/>
</g>
</g>
</svg>
        <g id="navigator" transform="translate(0 0)" fill="#404254">
                <rect fill="#f2f5e9" fill-opacity="0.5" stroke="#606060" stroke-width=".5" x="0" y="0" width="60" height="60"/>
                <use id="zoomplus" xlink:href="#zoomPlus" x="17" y="9" onmousedown="handleZoom(evt,'in')"/>
                <use id="zoomminus" xlink:href="#zoomMin" x="42" y="9" onmousedown="handleZoom(evt,'out')"/>
                <use id="reset" xlink:href="#resetDef" x="30" y="36" onmousedown="handleReset()"/>
                <g id="arrowUp" xlink:href="#dirArrow" transform="translate(30 24)" onmousedown="handlePan(0,-1)">
                  <use xlink:href="#rim" fill="#404040">
                        <set attributeName="fill" to="#808080" begin="arrowUp.mouseover" end="arrowUp.mouseout"/>
                  </use>
                  <path fill="none" stroke="white" stroke-width="1.5" d="M0,-3.0v7 M-2.5,-0.5L0,-3.0L2.5,-0.5"/>
                </g>
                <g id="arrowRight" xlink:href="#dirArrow" transform="rotate(90) translate(36 -43)" onmousedown="handlePan(1,0)">
                  <use xlink:href="#rim" fill="#404040">
                        <set attributeName="fill" to="#808080" begin="arrowRight.mouseover" end="arrowRight.mouseout"/>
                  </use>
                  <path fill="none" stroke="white" stroke-width="1.5" d="M0,-3.0v7 M-2.5,-0.5L0,-3.0L2.5,-0.5"/>
                </g>
                <g id="arrowDown" xlink:href="#dirArrow" transform="rotate(180) translate(-30 -48)" onmousedown="handlePan(0,1)">
                  <use xlink:href="#rim" fill="#404040">
                        <set attributeName="fill" to="#808080" begin="arrowDown.mouseover" end="arrowDown.mouseout"/>
                  </use>
                  <path fill="none" stroke="white" stroke-width="1.5" d="M0,-3.0v7 M-2.5,-0.5L0,-3.0L2.5,-0.5"/>
                </g>
                <g id="arrowLeft" xlink:href="#dirArrow" transform="rotate(270) translate(-36 17)" onmousedown="handlePan(-1,0)">
                  <use xlink:href="#rim" fill="#404040">
                        <set attributeName="fill" to="#808080" begin="arrowLeft.mouseover" end="arrowLeft.mouseout"/>
                  </use>
                  <path fill="none" stroke="white" stroke-width="1.5" d="M0,-3.0v7 M-2.5,-0.5L0,-3.0L2.5,-0.5"/>
                </g>
        </g>
        <svg viewBox="0 0 15 15" width="100%" height="30px" preserveAspectRatio="xMaxYMin meet">
         <g id="arrow_out" transform="scale(0.3 0.3)">
          <a xlink:href="class_hydrax_1_1_hydrax_ac56c251f193c10de861bc3a401d3ce0c_icgraph_org.svg" target="_base">
           <rect id="button" ry="5" rx="5" y="6" x="6" height="38" width="38"
                fill="#f2f5e9" fill-opacity="0.5" stroke="#606060" stroke-width="1.0"/>
           <path id="arrow"
             d="M 11.500037,31.436501 C 11.940474,20.09759 22.043105,11.32322 32.158766,21.979434 L 37.068811,17.246167 C 37.068811,17.246167 37.088388,32 37.088388,32 L 22.160133,31.978069 C 22.160133,31.978069 26.997745,27.140456 26.997745,27.140456 C 18.528582,18.264221 13.291696,25.230495 11.500037,31.436501 z"
             style="fill:#404040;"/>
          </a>
         </g>
        </svg>
</svg>
