<?xml version="1.0" encoding="UTF-8" standalone="no"?>
<!DOCTYPE svg PUBLIC "-//W3C//DTD SVG 1.1//EN"
 "http://www.w3.org/Graphics/SVG/1.1/DTD/svg11.dtd">
<!-- Generated by graphviz version 2.38.0 (20140413.2041)
 -->
<!-- Title: Hydrax::Hydrax::getShaderMode Pages: 1 -->
<svg width="1057pt" height="266pt"
 viewBox="0.00 0.00 1057.00 266.00" xmlns="http://www.w3.org/2000/svg" xmlns:xlink="http://www.w3.org/1999/xlink">
<g id="graph0" class="graph" transform="scale(1 1) rotate(0) translate(4 262)">
<title>Hydrax::Hydrax::getShaderMode</title>
<polygon fill="white" stroke="none" points="-4,4 -4,-262 1053,-262 1053,4 -4,4"/>
<!-- Node721 -->
<g id="node1" class="node"><title>Node721</title>
<polygon fill="#bfbfbf" stroke="black" points="0,-104 0,-123 158,-123 158,-104 0,-104"/>
<text text-anchor="middle" x="79" y="-111" font-family="Helvetica,sans-Serif" font-size="10.00">Hydrax::Hydrax::getShaderMode</text>
</g>
<!-- Node722 -->
<g id="node2" class="node"><title>Node722</title>
<g id="a_node2"><a xlink:href="../../d6/de1/class_hydrax_1_1_cfg_file_manager.html#a7bb4d0c2124c8c68e49f8fcc26e1add7" target="_top" xlink:title="Hydrax::CfgFileManager\l::save">
<polygon fill="white" stroke="black" points="217,-196.5 217,-226.5 338,-226.5 338,-196.5 217,-196.5"/>
<text text-anchor="start" x="225" y="-214.5" font-family="Helvetica,sans-Serif" font-size="10.00">Hydrax::CfgFileManager</text>
<text text-anchor="middle" x="277.5" y="-203.5" font-family="Helvetica,sans-Serif" font-size="10.00">::save</text>
</a>
</g>
</g>
<!-- Node721&#45;&gt;Node722 -->
<g id="edge1" class="edge"><title>Node721&#45;&gt;Node722</title>
<path fill="none" stroke="midnightblue" d="M100.593,-129.174C122.687,-145.379 159.296,-170.504 194,-186.5 202.019,-190.196 210.724,-193.517 219.373,-196.438"/>
<polygon fill="midnightblue" stroke="midnightblue" points="102.444,-126.189 92.3309,-123.031 98.2678,-131.806 102.444,-126.189"/>
</g>
<!-- Node723 -->
<g id="node3" class="node"><title>Node723</title>
<g id="a_node3"><a xlink:href="../../de/d4c/class_hydrax_1_1_noise_1_1_f_f_t.html#aa8e2b9d2b8307c07be2d2cd9cf115560" target="_top" xlink:title="Hydrax::Noise::FFT\l::createGPUNormalMapResources">
<polygon fill="white" stroke="black" points="194,-147.5 194,-177.5 361,-177.5 361,-147.5 194,-147.5"/>
<text text-anchor="start" x="202" y="-165.5" font-family="Helvetica,sans-Serif" font-size="10.00">Hydrax::Noise::FFT</text>
<text text-anchor="middle" x="277.5" y="-154.5" font-family="Helvetica,sans-Serif" font-size="10.00">::createGPUNormalMapResources</text>
</a>
</g>
</g>
<!-- Node721&#45;&gt;Node723 -->
<g id="edge2" class="edge"><title>Node721&#45;&gt;Node723</title>
<path fill="none" stroke="midnightblue" d="M128.179,-125.514C154.73,-132.135 187.939,-140.416 216.199,-147.463"/>
<polygon fill="midnightblue" stroke="midnightblue" points="128.903,-122.088 118.354,-123.064 127.21,-128.88 128.903,-122.088"/>
</g>
<!-- Node727 -->
<g id="node7" class="node"><title>Node727</title>
<g id="a_node7"><a xlink:href="../../d2/dd3/class_hydrax_1_1_god_rays_manager.html#ad8e21289bddd02ed9a62b3a2db1ff54f" target="_top" xlink:title="Hydrax::GodRaysManager\l::_createMaterials">
<polygon fill="white" stroke="black" points="212,-98.5 212,-128.5 343,-128.5 343,-98.5 212,-98.5"/>
<text text-anchor="start" x="220" y="-116.5" font-family="Helvetica,sans-Serif" font-size="10.00">Hydrax::GodRaysManager</text>
<text text-anchor="middle" x="277.5" y="-105.5" font-family="Helvetica,sans-Serif" font-size="10.00">::_createMaterials</text>
</a>
</g>
</g>
<!-- Node721&#45;&gt;Node727 -->
<g id="edge8" class="edge"><title>Node721&#45;&gt;Node727</title>
<path fill="none" stroke="midnightblue" d="M168.3,-113.5C182.943,-113.5 197.884,-113.5 211.803,-113.5"/>
<polygon fill="midnightblue" stroke="midnightblue" points="168.227,-110 158.227,-113.5 168.227,-117 168.227,-110"/>
</g>
<!-- Node733 -->
<g id="node13" class="node"><title>Node733</title>
<g id="a_node13"><a xlink:href="../../d2/dd3/class_hydrax_1_1_god_rays_manager.html#abe86da8a21691f1bac9d817147c9edba" target="_top" xlink:title="Hydrax::GodRaysManager\l::addDepthTechnique">
<polygon fill="white" stroke="black" points="212,-49.5 212,-79.5 343,-79.5 343,-49.5 212,-49.5"/>
<text text-anchor="start" x="220" y="-67.5" font-family="Helvetica,sans-Serif" font-size="10.00">Hydrax::GodRaysManager</text>
<text text-anchor="middle" x="277.5" y="-56.5" font-family="Helvetica,sans-Serif" font-size="10.00">::addDepthTechnique</text>
</a>
</g>
</g>
<!-- Node721&#45;&gt;Node733 -->
<g id="edge15" class="edge"><title>Node721&#45;&gt;Node733</title>
<path fill="none" stroke="midnightblue" d="M128.179,-101.486C154.73,-94.865 187.939,-86.5839 216.199,-79.537"/>
<polygon fill="midnightblue" stroke="midnightblue" points="127.21,-98.1204 118.354,-103.936 128.903,-104.912 127.21,-98.1204"/>
</g>
<!-- Node735 -->
<g id="node15" class="node"><title>Node735</title>
<g id="a_node15"><a xlink:href="../../db/d29/class_hydrax_1_1_noise_1_1_perlin.html#adb347b98692bd7ce6ad7ce76c605d15a" target="_top" xlink:title="Hydrax::Noise::Perlin\l::createGPUNormalMapResources">
<polygon fill="white" stroke="black" points="194,-0.5 194,-30.5 361,-30.5 361,-0.5 194,-0.5"/>
<text text-anchor="start" x="202" y="-18.5" font-family="Helvetica,sans-Serif" font-size="10.00">Hydrax::Noise::Perlin</text>
<text text-anchor="middle" x="277.5" y="-7.5" font-family="Helvetica,sans-Serif" font-size="10.00">::createGPUNormalMapResources</text>
</a>
</g>
</g>
<!-- Node721&#45;&gt;Node735 -->
<g id="edge18" class="edge"><title>Node721&#45;&gt;Node735</title>
<path fill="none" stroke="midnightblue" d="M100.522,-97.5152C122.557,-81.0086 159.117,-55.4738 194,-39.5 201.188,-36.2084 208.936,-33.2511 216.704,-30.6306"/>
<polygon fill="midnightblue" stroke="midnightblue" points="98.1285,-94.9381 92.284,-103.775 102.364,-100.512 98.1285,-94.9381"/>
</g>
<!-- Node724 -->
<g id="node4" class="node"><title>Node724</title>
<g id="a_node4"><a xlink:href="../../de/d4c/class_hydrax_1_1_noise_1_1_f_f_t.html#a1d7ec06eb11cda608cc8f73256c35be5" target="_top" xlink:title="Hydrax::Noise::FFT\l::setOptions">
<polygon fill="white" stroke="black" points="412,-189.5 412,-219.5 513,-219.5 513,-189.5 412,-189.5"/>
<text text-anchor="start" x="420" y="-207.5" font-family="Helvetica,sans-Serif" font-size="10.00">Hydrax::Noise::FFT</text>
<text text-anchor="middle" x="462.5" y="-196.5" font-family="Helvetica,sans-Serif" font-size="10.00">::setOptions</text>
</a>
</g>
</g>
<!-- Node723&#45;&gt;Node724 -->
<g id="edge3" class="edge"><title>Node723&#45;&gt;Node724</title>
<path fill="none" stroke="midnightblue" d="M353.868,-179.797C373.445,-184.291 394.039,-189.017 411.912,-193.119"/>
<polygon fill="midnightblue" stroke="midnightblue" points="354.58,-176.37 344.05,-177.544 353.014,-183.193 354.58,-176.37"/>
</g>
<!-- Node726 -->
<g id="node6" class="node"><title>Node726</title>
<g id="a_node6"><a xlink:href="../../d3/db5/struct_hydrax_1_1_noise_1_1_f_f_t_1_1_options.html#adfe9c5cc180b233f7ef6ba50fec06563" target="_top" xlink:title="Hydrax::Noise::FFT\l::Options::Options">
<polygon fill="white" stroke="black" points="773,-183.5 773,-213.5 874,-213.5 874,-183.5 773,-183.5"/>
<text text-anchor="start" x="781" y="-201.5" font-family="Helvetica,sans-Serif" font-size="10.00">Hydrax::Noise::FFT</text>
<text text-anchor="middle" x="823.5" y="-190.5" font-family="Helvetica,sans-Serif" font-size="10.00">::Options::Options</text>
</a>
</g>
</g>
<!-- Node723&#45;&gt;Node726 -->
<g id="edge7" class="edge"><title>Node723&#45;&gt;Node726</title>
<path fill="none" stroke="midnightblue" d="M371.417,-168.649C487.539,-176.333 682.041,-189.205 772.908,-195.218"/>
<polygon fill="midnightblue" stroke="midnightblue" points="371.331,-165.136 361.122,-167.968 370.869,-172.12 371.331,-165.136"/>
</g>
<!-- Node725 -->
<g id="node5" class="node"><title>Node725</title>
<g id="a_node5"><a xlink:href="../../de/d4c/class_hydrax_1_1_noise_1_1_f_f_t.html#a64245b9e56eeb8627ac3f5260dc203dd" target="_top" xlink:title="Hydrax::Noise::FFT\l::loadCfg">
<polygon fill="white" stroke="black" points="591,-227.5 591,-257.5 692,-257.5 692,-227.5 591,-227.5"/>
<text text-anchor="start" x="599" y="-245.5" font-family="Helvetica,sans-Serif" font-size="10.00">Hydrax::Noise::FFT</text>
<text text-anchor="middle" x="641.5" y="-234.5" font-family="Helvetica,sans-Serif" font-size="10.00">::loadCfg</text>
</a>
</g>
</g>
<!-- Node724&#45;&gt;Node725 -->
<g id="edge4" class="edge"><title>Node724&#45;&gt;Node725</title>
<path fill="none" stroke="midnightblue" d="M523.164,-217.309C545.142,-222.028 569.785,-227.318 590.792,-231.828"/>
<polygon fill="midnightblue" stroke="midnightblue" points="523.787,-213.863 513.275,-215.186 522.318,-220.707 523.787,-213.863"/>
</g>
<!-- Node724&#45;&gt;Node726 -->
<g id="edge6" class="edge"><title>Node724&#45;&gt;Node726</title>
<path fill="none" stroke="midnightblue" d="M523.448,-203.498C593.386,-202.329 707.725,-200.418 772.892,-199.329"/>
<polygon fill="midnightblue" stroke="midnightblue" points="522.981,-200.005 513.04,-203.672 523.098,-207.004 522.981,-200.005"/>
</g>
<!-- Node725&#45;&gt;Node726 -->
<g id="edge5" class="edge"><title>Node725&#45;&gt;Node726</title>
<path fill="none" stroke="midnightblue" d="M702.143,-227.921C725.118,-222.304 751.083,-215.957 773,-210.6"/>
<polygon fill="midnightblue" stroke="midnightblue" points="701.045,-224.586 692.162,-230.36 702.707,-231.386 701.045,-224.586"/>
</g>
<!-- Node728 -->
<g id="node8" class="node"><title>Node728</title>
<g id="a_node8"><a xlink:href="../../d2/dd3/class_hydrax_1_1_god_rays_manager.html#ad6e8cfa4b9bde36b668d04ae3cfe8d00" target="_top" xlink:title="Hydrax::GodRaysManager\l::create">
<polygon fill="white" stroke="black" points="397,-98.5 397,-128.5 528,-128.5 528,-98.5 397,-98.5"/>
<text text-anchor="start" x="405" y="-116.5" font-family="Helvetica,sans-Serif" font-size="10.00">Hydrax::GodRaysManager</text>
<text text-anchor="middle" x="462.5" y="-105.5" font-family="Helvetica,sans-Serif" font-size="10.00">::create</text>
</a>
</g>
</g>
<!-- Node727&#45;&gt;Node728 -->
<g id="edge9" class="edge"><title>Node727&#45;&gt;Node728</title>
<path fill="none" stroke="midnightblue" d="M353.413,-106.85C367.855,-106.674 382.868,-106.73 396.947,-107.017"/>
<polygon fill="midnightblue" stroke="midnightblue" points="352.961,-103.356 343.019,-107.018 353.074,-110.355 352.961,-103.356"/>
</g>
<!-- Node728&#45;&gt;Node727 -->
<g id="edge14" class="edge"><title>Node728&#45;&gt;Node727</title>
<path fill="none" stroke="midnightblue" d="M386.552,-120.151C372.109,-120.326 357.096,-120.269 343.019,-119.982"/>
<polygon fill="midnightblue" stroke="midnightblue" points="387.005,-123.644 396.947,-119.983 386.892,-116.645 387.005,-123.644"/>
</g>
<!-- Node729 -->
<g id="node9" class="node"><title>Node729</title>
<g id="a_node9"><a xlink:href="../../d2/dd3/class_hydrax_1_1_god_rays_manager.html#a4a85152f7e71a50c473ae65b299f3465" target="_top" xlink:title="Hydrax::GodRaysManager\l::setObjectIntersectionsEnabled">
<polygon fill="white" stroke="black" points="564,-98.5 564,-128.5 719,-128.5 719,-98.5 564,-98.5"/>
<text text-anchor="start" x="572" y="-116.5" font-family="Helvetica,sans-Serif" font-size="10.00">Hydrax::GodRaysManager</text>
<text text-anchor="middle" x="641.5" y="-105.5" font-family="Helvetica,sans-Serif" font-size="10.00">::setObjectIntersectionsEnabled</text>
</a>
</g>
</g>
<!-- Node728&#45;&gt;Node729 -->
<g id="edge10" class="edge"><title>Node728&#45;&gt;Node729</title>
<path fill="none" stroke="midnightblue" d="M538.298,-113.5C546.702,-113.5 555.274,-113.5 563.702,-113.5"/>
<polygon fill="midnightblue" stroke="midnightblue" points="538.152,-110 528.152,-113.5 538.152,-117 538.152,-110"/>
</g>
<!-- Node730 -->
<g id="node10" class="node"><title>Node730</title>
<g id="a_node10"><a xlink:href="../../d6/de1/class_hydrax_1_1_cfg_file_manager.html#aa814b728a2c0cd30f3e2851398bacb6b" target="_top" xlink:title="Hydrax::CfgFileManager\l::_loadComponentsSettings">
<polygon fill="white" stroke="black" points="755,-116.5 755,-146.5 892,-146.5 892,-116.5 755,-116.5"/>
<text text-anchor="start" x="763" y="-134.5" font-family="Helvetica,sans-Serif" font-size="10.00">Hydrax::CfgFileManager</text>
<text text-anchor="middle" x="823.5" y="-123.5" font-family="Helvetica,sans-Serif" font-size="10.00">::_loadComponentsSettings</text>
</a>
</g>
</g>
<!-- Node729&#45;&gt;Node730 -->
<g id="edge11" class="edge"><title>Node729&#45;&gt;Node730</title>
<path fill="none" stroke="midnightblue" d="M729.165,-122.166C737.773,-123.027 746.422,-123.892 754.796,-124.73"/>
<polygon fill="midnightblue" stroke="midnightblue" points="729.396,-118.672 719.097,-121.16 728.699,-125.637 729.396,-118.672"/>
</g>
<!-- Node732 -->
<g id="node12" class="node"><title>Node732</title>
<g id="a_node12"><a xlink:href="../../d2/dd3/class_hydrax_1_1_god_rays_manager.html#ab2c13437ed508bbc27ef2dbbbe480dff" target="_top" xlink:title="Hydrax::GodRaysManager\l::isVisible">
<polygon fill="white" stroke="black" points="758,-67.5 758,-97.5 889,-97.5 889,-67.5 758,-67.5"/>
<text text-anchor="start" x="766" y="-85.5" font-family="Helvetica,sans-Serif" font-size="10.00">Hydrax::GodRaysManager</text>
<text text-anchor="middle" x="823.5" y="-74.5" font-family="Helvetica,sans-Serif" font-size="10.00">::isVisible</text>
</a>
</g>
</g>
<!-- Node729&#45;&gt;Node732 -->
<g id="edge13" class="edge"><title>Node729&#45;&gt;Node732</title>
<path fill="none" stroke="midnightblue" d="M729.145,-98.5779C738.822,-96.9112 748.551,-95.2356 757.884,-93.6283"/>
<polygon fill="midnightblue" stroke="midnightblue" points="728.358,-95.1617 719.097,-100.308 729.546,-102.06 728.358,-95.1617"/>
</g>
<!-- Node731 -->
<g id="node11" class="node"><title>Node731</title>
<g id="a_node11"><a xlink:href="../../d6/de1/class_hydrax_1_1_cfg_file_manager.html#a0e050d2bf65e31ee39c0e28c481702f8" target="_top" xlink:title="Hydrax::CfgFileManager\l::load">
<polygon fill="white" stroke="black" points="928,-116.5 928,-146.5 1049,-146.5 1049,-116.5 928,-116.5"/>
<text text-anchor="start" x="936" y="-134.5" font-family="Helvetica,sans-Serif" font-size="10.00">Hydrax::CfgFileManager</text>
<text text-anchor="middle" x="988.5" y="-123.5" font-family="Helvetica,sans-Serif" font-size="10.00">::load</text>
</a>
</g>
</g>
<!-- Node730&#45;&gt;Node731 -->
<g id="edge12" class="edge"><title>Node730&#45;&gt;Node731</title>
<path fill="none" stroke="midnightblue" d="M902.245,-131.5C910.835,-131.5 919.48,-131.5 927.798,-131.5"/>
<polygon fill="midnightblue" stroke="midnightblue" points="902.211,-128 892.211,-131.5 902.211,-135 902.211,-128"/>
</g>
<!-- Node733&#45;&gt;Node728 -->
<g id="edge16" class="edge"><title>Node733&#45;&gt;Node728</title>
<path fill="none" stroke="midnightblue" d="M344.785,-82.2485C364.619,-87.5591 386.167,-93.3288 405.287,-98.4484"/>
<polygon fill="midnightblue" stroke="midnightblue" points="345.464,-78.8071 334.899,-79.6014 343.654,-85.5689 345.464,-78.8071"/>
</g>
<!-- Node734 -->
<g id="node14" class="node"><title>Node734</title>
<g id="a_node14"><a xlink:href="../../d2/dd3/class_hydrax_1_1_god_rays_manager.html#a7fb9e45643cf06d7e7e93d830e876c20" target="_top" xlink:title="Hydrax::GodRaysManager\l::isCreated">
<polygon fill="white" stroke="black" points="397,-49.5 397,-79.5 528,-79.5 528,-49.5 397,-49.5"/>
<text text-anchor="start" x="405" y="-67.5" font-family="Helvetica,sans-Serif" font-size="10.00">Hydrax::GodRaysManager</text>
<text text-anchor="middle" x="462.5" y="-56.5" font-family="Helvetica,sans-Serif" font-size="10.00">::isCreated</text>
</a>
</g>
</g>
<!-- Node733&#45;&gt;Node734 -->
<g id="edge17" class="edge"><title>Node733&#45;&gt;Node734</title>
<path fill="none" stroke="midnightblue" d="M353.413,-64.5C367.855,-64.5 382.868,-64.5 396.947,-64.5"/>
<polygon fill="midnightblue" stroke="midnightblue" points="353.019,-61.0001 343.019,-64.5 353.019,-68.0001 353.019,-61.0001"/>
</g>
<!-- Node736 -->
<g id="node16" class="node"><title>Node736</title>
<g id="a_node16"><a xlink:href="../../d5/d28/struct_hydrax_1_1_noise_1_1_perlin_1_1_options.html#a25b331fdb0c7c67b12b865ff081af5e2" target="_top" xlink:title="Hydrax::Noise::Perlin\l::Options::Options">
<polygon fill="white" stroke="black" points="408,-0.5 408,-30.5 517,-30.5 517,-0.5 408,-0.5"/>
<text text-anchor="start" x="416" y="-18.5" font-family="Helvetica,sans-Serif" font-size="10.00">Hydrax::Noise::Perlin</text>
<text text-anchor="middle" x="462.5" y="-7.5" font-family="Helvetica,sans-Serif" font-size="10.00">::Options::Options</text>
</a>
</g>
</g>
<!-- Node735&#45;&gt;Node736 -->
<g id="edge19" class="edge"><title>Node735&#45;&gt;Node736</title>
<path fill="none" stroke="midnightblue" d="M371.205,-15.5C383.738,-15.5 396.241,-15.5 407.772,-15.5"/>
<polygon fill="midnightblue" stroke="midnightblue" points="371.166,-12.0001 361.166,-15.5 371.166,-19.0001 371.166,-12.0001"/>
</g>
</g>
</svg>
