<?xml version="1.0" encoding="UTF-8" standalone="no"?>
<!DOCTYPE svg PUBLIC "-//W3C//DTD SVG 1.1//EN"
 "http://www.w3.org/Graphics/SVG/1.1/DTD/svg11.dtd">
<!-- Generated by graphviz version 2.38.0 (20140413.2041)
 -->
<!-- Title: Hydrax::Hydrax::getCausticsEnd Pages: 1 -->
<!--zoomable 397 -->
<svg id="main" version="1.1" xmlns="http://www.w3.org/2000/svg" xmlns:xlink="http://www.w3.org/1999/xlink" xml:space="preserve" onload="init(evt)">
<style type="text/css"><![CDATA[
.edge:hover path { stroke: red; }
.edge:hover polygon { stroke: red; fill: red; }
]]></style>
<script type="text/javascript"><![CDATA[
var edges = document.getElementsByTagName('g');
if (edges && edges.length) {
  for (var i=0;i<edges.length;i++) {
    if (edges[i].id.substr(0,4)=='edge') {
      edges[i].setAttribute('class','edge');
    }
  }
}
]]></script>
        <defs>
                <circle id="rim" cx="0" cy="0" r="7"/>
                <circle id="rim2" cx="0" cy="0" r="3.5"/>
                <g id="zoomPlus">
                        <use xlink:href="#rim" fill="#404040">
                                <set attributeName="fill" to="#808080" begin="zoomplus.mouseover" end="zoomplus.mouseout"/>
                        </use>
                        <path d="M-4,0h8M0,-4v8" fill="none" stroke="white" stroke-width="1.5" pointer-events="none"/>
                </g>
                <g id="zoomMin">
                        <use xlink:href="#rim" fill="#404040">
                                <set attributeName="fill" to="#808080" begin="zoomminus.mouseover" end="zoomminus.mouseout"/>
                        </use>
                        <path d="M-4,0h8" fill="none" stroke="white" stroke-width="1.5" pointer-events="none"/>
                </g>
                <g id="dirArrow">
                        <path fill="none" stroke="white" stroke-width="1.5" d="M0,-3.0v7 M-2.5,-0.5L0,-3.0L2.5,-0.5"/>
                </g>
               <g id="resetDef">
                       <use xlink:href="#rim2" fill="#404040">
                               <set attributeName="fill" to="#808080" begin="reset.mouseover" end="reset.mouseout"/>
                       </use>
               </g>
        </defs>

<script type="text/javascript">
var viewWidth = 1597;
var viewHeight = 397;
var sectionId = 'dynsection-5';
</script>
<script xlink:href="../../svgpan.js"/>
<svg id="graph" class="graph">
<g id="viewport">
<title>Hydrax::Hydrax::getCausticsEnd</title>
<polygon fill="white" stroke="none" points="-4,4 -4,-392.739 1593,-392.739 1593,4 -4,4"/>
<!-- Node115 -->
<g id="node1" class="node"><title>Node115</title>
<polygon fill="#bfbfbf" stroke="black" points="0,-99 0,-118 159,-118 159,-99 0,-99"/>
<text text-anchor="middle" x="79.5" y="-106" font-family="Helvetica,sans-Serif" font-size="10.00">Hydrax::Hydrax::getCausticsEnd</text>
</g>
<!-- Node116 -->
<g id="node2" class="node"><title>Node116</title>
<g id="a_node2"><a xlink:href="../../d6/de1/class_hydrax_1_1_cfg_file_manager.html#a9dee3c1dd306504d642e31140214e2b4" target="_top" xlink:title="Hydrax::CfgFileManager\l::_getComponentsCfgString">
<polygon fill="white" stroke="black" points="195,-330.5 195,-360.5 331,-360.5 331,-330.5 195,-330.5"/>
<text text-anchor="start" x="203" y="-348.5" font-family="Helvetica,sans-Serif" font-size="10.00">Hydrax::CfgFileManager</text>
<text text-anchor="middle" x="263" y="-337.5" font-family="Helvetica,sans-Serif" font-size="10.00">::_getComponentsCfgString</text>
</a>
</g>
</g>
<!-- Node115&#45;&gt;Node116 -->
<g id="edge1" class="edge"><title>Node115&#45;&gt;Node116</title>
<path fill="none" stroke="midnightblue" d="M91.81,-126.786C111.442,-158.072 153.697,-223.436 195,-274.5 211.414,-294.793 232.326,-316.364 246.384,-330.332"/>
<polygon fill="midnightblue" stroke="midnightblue" points="94.7316,-124.856 86.4695,-118.224 88.7923,-128.561 94.7316,-124.856"/>
</g>
<!-- Node118 -->
<g id="node4" class="node"><title>Node118</title>
<g id="a_node4"><a xlink:href="../../da/d12/class_hydrax_1_1_material_manager.html#adb84a2034180ce0434b02d8f1b4aac85" target="_top" xlink:title="Hydrax::MaterialManager\l::_createDepthMaterial">
<polygon fill="white" stroke="black" points="200.5,-93.5 200.5,-123.5 325.5,-123.5 325.5,-93.5 200.5,-93.5"/>
<text text-anchor="start" x="208.5" y="-111.5" font-family="Helvetica,sans-Serif" font-size="10.00">Hydrax::MaterialManager</text>
<text text-anchor="middle" x="263" y="-100.5" font-family="Helvetica,sans-Serif" font-size="10.00">::_createDepthMaterial</text>
</a>
</g>
</g>
<!-- Node115&#45;&gt;Node118 -->
<g id="edge3" class="edge"><title>Node115&#45;&gt;Node118</title>
<path fill="none" stroke="midnightblue" d="M169.125,-108.5C179.663,-108.5 190.238,-108.5 200.283,-108.5"/>
<polygon fill="midnightblue" stroke="midnightblue" points="169.053,-105 159.053,-108.5 169.053,-112 169.053,-105"/>
</g>
<!-- Node120 -->
<g id="node6" class="node"><title>Node120</title>
<g id="a_node6"><a xlink:href="../../da/d12/class_hydrax_1_1_material_manager.html#ab70527e20f62a739a738773173c7966f" target="_top" xlink:title="Hydrax::MaterialManager\l::addDepthTechnique">
<polygon fill="white" stroke="black" points="385,-49.5 385,-79.5 510,-79.5 510,-49.5 385,-49.5"/>
<text text-anchor="start" x="393" y="-67.5" font-family="Helvetica,sans-Serif" font-size="10.00">Hydrax::MaterialManager</text>
<text text-anchor="middle" x="447.5" y="-56.5" font-family="Helvetica,sans-Serif" font-size="10.00">::addDepthTechnique</text>
</a>
</g>
</g>
<!-- Node115&#45;&gt;Node120 -->
<g id="edge36" class="edge"><title>Node115&#45;&gt;Node120</title>
<path fill="none" stroke="midnightblue" d="M127.658,-96.6511C148.22,-91.8885 172.681,-86.7634 195,-83.5 259.449,-74.0767 333.914,-69.1894 384.995,-66.7484"/>
<polygon fill="midnightblue" stroke="midnightblue" points="126.834,-93.2493 117.904,-98.9502 128.44,-100.063 126.834,-93.2493"/>
</g>
<!-- Node130 -->
<g id="node16" class="node"><title>Node130</title>
<g id="a_node16"><a xlink:href="../../da/d12/class_hydrax_1_1_material_manager.html#a2961836553f7a30a8baffb9e82f7216e" target="_top" xlink:title="Hydrax::MaterialManager\l::reload">
<polygon fill="white" stroke="black" points="200.5,-235.5 200.5,-265.5 325.5,-265.5 325.5,-235.5 200.5,-235.5"/>
<text text-anchor="start" x="208.5" y="-253.5" font-family="Helvetica,sans-Serif" font-size="10.00">Hydrax::MaterialManager</text>
<text text-anchor="middle" x="263" y="-242.5" font-family="Helvetica,sans-Serif" font-size="10.00">::reload</text>
</a>
</g>
</g>
<!-- Node115&#45;&gt;Node130 -->
<g id="edge17" class="edge"><title>Node115&#45;&gt;Node130</title>
<path fill="none" stroke="midnightblue" d="M100.821,-124.399C136.1,-152 208.205,-208.412 242.734,-235.427"/>
<polygon fill="midnightblue" stroke="midnightblue" points="102.723,-121.443 92.6906,-118.038 98.4099,-126.956 102.723,-121.443"/>
</g>
<!-- Node145 -->
<g id="node31" class="node"><title>Node145</title>
<g id="a_node31"><a xlink:href="../../da/d12/class_hydrax_1_1_material_manager.html#a0ee548c5ba041a7e26a1561dbac28ae4" target="_top" xlink:title="Hydrax::MaterialManager\l::addDepthTextureTechnique">
<polygon fill="white" stroke="black" points="377.5,-0.5 377.5,-30.5 517.5,-30.5 517.5,-0.5 377.5,-0.5"/>
<text text-anchor="start" x="385.5" y="-18.5" font-family="Helvetica,sans-Serif" font-size="10.00">Hydrax::MaterialManager</text>
<text text-anchor="middle" x="447.5" y="-7.5" font-family="Helvetica,sans-Serif" font-size="10.00">::addDepthTextureTechnique</text>
</a>
</g>
</g>
<!-- Node115&#45;&gt;Node145 -->
<g id="edge37" class="edge"><title>Node115&#45;&gt;Node145</title>
<path fill="none" stroke="midnightblue" d="M112.886,-95.1264C135.582,-86.1253 166.782,-74.4867 195,-66.5 255.765,-49.3012 326.347,-35.5124 377.243,-26.6303"/>
<polygon fill="midnightblue" stroke="midnightblue" points="111.385,-91.9575 103.407,-98.9287 113.991,-98.4544 111.385,-91.9575"/>
</g>
<!-- Node117 -->
<g id="node3" class="node"><title>Node117</title>
<g id="a_node3"><a xlink:href="../../d6/de1/class_hydrax_1_1_cfg_file_manager.html#a7bb4d0c2124c8c68e49f8fcc26e1add7" target="_top" xlink:title="Hydrax::CfgFileManager\l::save">
<polygon fill="white" stroke="black" points="956.5,-348.5 956.5,-378.5 1077.5,-378.5 1077.5,-348.5 956.5,-348.5"/>
<text text-anchor="start" x="964.5" y="-366.5" font-family="Helvetica,sans-Serif" font-size="10.00">Hydrax::CfgFileManager</text>
<text text-anchor="middle" x="1017" y="-355.5" font-family="Helvetica,sans-Serif" font-size="10.00">::save</text>
</a>
</g>
</g>
<!-- Node116&#45;&gt;Node117 -->
<g id="edge2" class="edge"><title>Node116&#45;&gt;Node117</title>
<path fill="none" stroke="midnightblue" d="M318.969,-363.334C334.344,-367.527 351.179,-371.388 367,-373.5 582.294,-402.242 841.306,-382.033 956.151,-370.293"/>
<polygon fill="midnightblue" stroke="midnightblue" points="319.676,-359.897 309.101,-360.545 317.773,-366.633 319.676,-359.897"/>
</g>
<!-- Node119 -->
<g id="node5" class="node"><title>Node119</title>
<g id="a_node5"><a xlink:href="../../da/d12/class_hydrax_1_1_material_manager.html#a6aa7b0a92b824348577d506f7bcf581b" target="_top" xlink:title="Hydrax::MaterialManager\l::createMaterials">
<polygon fill="white" stroke="black" points="585,-88.5 585,-118.5 710,-118.5 710,-88.5 585,-88.5"/>
<text text-anchor="start" x="593" y="-106.5" font-family="Helvetica,sans-Serif" font-size="10.00">Hydrax::MaterialManager</text>
<text text-anchor="middle" x="647.5" y="-95.5" font-family="Helvetica,sans-Serif" font-size="10.00">::createMaterials</text>
</a>
</g>
</g>
<!-- Node118&#45;&gt;Node119 -->
<g id="edge4" class="edge"><title>Node118&#45;&gt;Node119</title>
<path fill="none" stroke="midnightblue" d="M336.189,-107.556C407.944,-106.618 516.83,-105.195 584.709,-104.308"/>
<polygon fill="midnightblue" stroke="midnightblue" points="335.834,-104.061 325.88,-107.691 335.925,-111.06 335.834,-104.061"/>
</g>
<!-- Node118&#45;&gt;Node120 -->
<g id="edge5" class="edge"><title>Node118&#45;&gt;Node120</title>
<path fill="none" stroke="midnightblue" d="M335.556,-91.248C351.872,-87.3145 369.069,-83.1683 384.925,-79.3455"/>
<polygon fill="midnightblue" stroke="midnightblue" points="334.433,-87.9186 325.532,-93.6649 336.074,-94.7236 334.433,-87.9186"/>
</g>
<!-- Node129 -->
<g id="node15" class="node"><title>Node129</title>
<g id="a_node15"><a xlink:href="../../da/d12/class_hydrax_1_1_material_manager.html#a964a29c17a27037791f2b1c76bdf2aea" target="_top" xlink:title="Hydrax::MaterialManager\l::getDepthTechniques">
<polygon fill="white" stroke="black" points="385,-137.5 385,-167.5 510,-167.5 510,-137.5 385,-137.5"/>
<text text-anchor="start" x="393" y="-155.5" font-family="Helvetica,sans-Serif" font-size="10.00">Hydrax::MaterialManager</text>
<text text-anchor="middle" x="447.5" y="-144.5" font-family="Helvetica,sans-Serif" font-size="10.00">::getDepthTechniques</text>
</a>
</g>
</g>
<!-- Node118&#45;&gt;Node129 -->
<g id="edge16" class="edge"><title>Node118&#45;&gt;Node129</title>
<path fill="none" stroke="midnightblue" d="M335.556,-125.752C351.872,-129.686 369.069,-133.832 384.925,-137.655"/>
<polygon fill="midnightblue" stroke="midnightblue" points="336.074,-122.276 325.532,-123.335 334.433,-129.081 336.074,-122.276"/>
</g>
<!-- Node120&#45;&gt;Node119 -->
<g id="edge6" class="edge"><title>Node120&#45;&gt;Node119</title>
<path fill="none" stroke="midnightblue" d="M520.014,-78.5861C541.287,-82.7761 564.398,-87.3284 584.975,-91.3814"/>
<polygon fill="midnightblue" stroke="midnightblue" points="520.551,-75.1247 510.063,-76.6261 519.198,-81.9927 520.551,-75.1247"/>
</g>
<!-- Node121 -->
<g id="node7" class="node"><title>Node121</title>
<g id="a_node7"><a xlink:href="../../da/d12/class_hydrax_1_1_material_manager.html#af2cdac2ad510d1c62d52916dbb95977c" target="_top" xlink:title="Hydrax::MaterialManager\l::getLastOptions">
<polygon fill="white" stroke="black" points="585,-0.5 585,-30.5 710,-30.5 710,-0.5 585,-0.5"/>
<text text-anchor="start" x="593" y="-18.5" font-family="Helvetica,sans-Serif" font-size="10.00">Hydrax::MaterialManager</text>
<text text-anchor="middle" x="647.5" y="-7.5" font-family="Helvetica,sans-Serif" font-size="10.00">::getLastOptions</text>
</a>
</g>
</g>
<!-- Node120&#45;&gt;Node121 -->
<g id="edge7" class="edge"><title>Node120&#45;&gt;Node121</title>
<path fill="none" stroke="midnightblue" d="M519.121,-47.0232C540.944,-41.6225 564.777,-35.7245 585.863,-30.5062"/>
<polygon fill="midnightblue" stroke="midnightblue" points="518.118,-43.6655 509.252,-49.4654 519.8,-50.4605 518.118,-43.6655"/>
</g>
<!-- Node122 -->
<g id="node8" class="node"><title>Node122</title>
<g id="a_node8"><a xlink:href="../../d3/d16/class_terrain_manager.html#aa7c9434ece63d1313c840b632a3b0430" target="_top" xlink:title="TerrainManager::initWater">
<polygon fill="white" stroke="black" points="583.5,-50 583.5,-69 711.5,-69 711.5,-50 583.5,-50"/>
<text text-anchor="middle" x="647.5" y="-57" font-family="Helvetica,sans-Serif" font-size="10.00">TerrainManager::initWater</text>
</a>
</g>
</g>
<!-- Node120&#45;&gt;Node122 -->
<g id="edge8" class="edge"><title>Node120&#45;&gt;Node122</title>
<path fill="none" stroke="midnightblue" d="M520.337,-62.6859C540.933,-62.1658 563.229,-61.6028 583.267,-61.0968"/>
<polygon fill="midnightblue" stroke="midnightblue" points="519.972,-59.194 510.063,-62.9454 520.148,-66.1917 519.972,-59.194"/>
</g>
<!-- Node123 -->
<g id="node9" class="node"><title>Node123</title>
<g id="a_node9"><a xlink:href="../../d3/d16/class_terrain_manager.html#a9a04c837bf2ea6528c465b27ca62f730" target="_top" xlink:title="TerrainManager::loadTerrain">
<polygon fill="white" stroke="black" points="767,-50 767,-69 904,-69 904,-50 767,-50"/>
<text text-anchor="middle" x="835.5" y="-57" font-family="Helvetica,sans-Serif" font-size="10.00">TerrainManager::loadTerrain</text>
</a>
</g>
</g>
<!-- Node122&#45;&gt;Node123 -->
<g id="edge9" class="edge"><title>Node122&#45;&gt;Node123</title>
<path fill="none" stroke="midnightblue" d="M721.894,-59.5C736.764,-59.5 752.336,-59.5 766.992,-59.5"/>
<polygon fill="midnightblue" stroke="midnightblue" points="721.731,-56.0001 711.731,-59.5 721.731,-63.0001 721.731,-56.0001"/>
</g>
<!-- Node124 -->
<g id="node10" class="node"><title>Node124</title>
<g id="a_node10"><a xlink:href="../../dd/dbe/class_ro_r_frame_listener.html#a9757c059e840019a3e2659d5ef63ea02" target="_top" xlink:title="Reads GVar &#39;sim_terrain_pending&#39;. ">
<polygon fill="white" stroke="black" points="940,-50 940,-69 1094,-69 1094,-50 940,-50"/>
<text text-anchor="middle" x="1017" y="-57" font-family="Helvetica,sans-Serif" font-size="10.00">RoRFrameListener::LoadTerrain</text>
</a>
</g>
</g>
<!-- Node123&#45;&gt;Node124 -->
<g id="edge10" class="edge"><title>Node123&#45;&gt;Node124</title>
<path fill="none" stroke="midnightblue" d="M914.301,-59.5C922.734,-59.5 931.311,-59.5 939.726,-59.5"/>
<polygon fill="midnightblue" stroke="midnightblue" points="914.106,-56.0001 904.105,-59.5 914.105,-63.0001 914.106,-56.0001"/>
</g>
<!-- Node125 -->
<g id="node11" class="node"><title>Node125</title>
<g id="a_node11"><a xlink:href="../../dd/dbe/class_ro_r_frame_listener.html#aca3931d7a75f2ad4b9d36c4fcd03a3c9" target="_top" xlink:title="RoRFrameListener::SetupGameplayLoop">
<polygon fill="white" stroke="black" points="1130,-69 1130,-88 1324,-88 1324,-69 1130,-69"/>
<text text-anchor="middle" x="1227" y="-76" font-family="Helvetica,sans-Serif" font-size="10.00">RoRFrameListener::SetupGameplayLoop</text>
</a>
</g>
</g>
<!-- Node124&#45;&gt;Node125 -->
<g id="edge11" class="edge"><title>Node124&#45;&gt;Node125</title>
<path fill="none" stroke="midnightblue" d="M1104.43,-67.3954C1112.84,-68.1635 1121.41,-68.9461 1129.91,-69.7221"/>
<polygon fill="midnightblue" stroke="midnightblue" points="1104.55,-63.8913 1094.27,-66.467 1103.91,-70.8623 1104.55,-63.8913"/>
</g>
<!-- Node126 -->
<g id="node12" class="node"><title>Node126</title>
<g id="a_node12"><a xlink:href="../../dd/dbe/class_ro_r_frame_listener.html#ad598075b5f183208c0de43b9248bb44b" target="_top" xlink:title="RoRFrameListener::getTime">
<polygon fill="white" stroke="black" points="1360,-31 1360,-50 1498,-50 1498,-31 1360,-31"/>
<text text-anchor="middle" x="1429" y="-38" font-family="Helvetica,sans-Serif" font-size="10.00">RoRFrameListener::getTime</text>
</a>
</g>
</g>
<!-- Node124&#45;&gt;Node126 -->
<g id="edge15" class="edge"><title>Node124&#45;&gt;Node126</title>
<path fill="none" stroke="midnightblue" d="M1104.19,-55.5057C1180.25,-51.9812 1289.62,-46.9129 1359.74,-43.6632"/>
<polygon fill="midnightblue" stroke="midnightblue" points="1103.98,-52.0115 1094.16,-55.9708 1104.31,-59.004 1103.98,-52.0115"/>
</g>
<!-- Node125&#45;&gt;Node126 -->
<g id="edge12" class="edge"><title>Node125&#45;&gt;Node126</title>
<path fill="none" stroke="midnightblue" d="M1288.1,-67.0819C1316.71,-61.6448 1350.54,-55.2168 1377.77,-50.0439"/>
<polygon fill="midnightblue" stroke="midnightblue" points="1287.38,-63.6549 1278.21,-68.96 1288.69,-70.5318 1287.38,-63.6549"/>
</g>
<!-- Node127 -->
<g id="node13" class="node"><title>Node127</title>
<g id="a_node13"><a xlink:href="../../df/d0a/main_8cpp.html#a0ddf1224851353fc92bfbff6f499fa97" target="_top" xlink:title="main">
<polygon fill="white" stroke="black" points="1410,-69 1410,-88 1448,-88 1448,-69 1410,-69"/>
<text text-anchor="middle" x="1429" y="-76" font-family="Helvetica,sans-Serif" font-size="10.00">main</text>
</a>
</g>
</g>
<!-- Node125&#45;&gt;Node127 -->
<g id="edge13" class="edge"><title>Node125&#45;&gt;Node127</title>
<path fill="none" stroke="midnightblue" d="M1334.52,-78.5C1363.66,-78.5 1392.07,-78.5 1409.77,-78.5"/>
<polygon fill="midnightblue" stroke="midnightblue" points="1334.19,-75.0001 1324.19,-78.5 1334.19,-82.0001 1334.19,-75.0001"/>
</g>
<!-- Node128 -->
<g id="node14" class="node"><title>Node128</title>
<g id="a_node14"><a xlink:href="../../df/d0a/main_8cpp.html#a2922bc5d5c2d77a3020cfbf9df12aab0" target="_top" xlink:title="WinMain">
<polygon fill="white" stroke="black" points="1534,-69 1534,-88 1589,-88 1589,-69 1534,-69"/>
<text text-anchor="middle" x="1561.5" y="-76" font-family="Helvetica,sans-Serif" font-size="10.00">WinMain</text>
</a>
</g>
</g>
<!-- Node127&#45;&gt;Node128 -->
<g id="edge14" class="edge"><title>Node127&#45;&gt;Node128</title>
<path fill="none" stroke="midnightblue" d="M1458.39,-78.5C1480.84,-78.5 1511.96,-78.5 1533.92,-78.5"/>
<polygon fill="midnightblue" stroke="midnightblue" points="1458.15,-75.0001 1448.15,-78.5 1458.15,-82.0001 1458.15,-75.0001"/>
</g>
<!-- Node131 -->
<g id="node17" class="node"><title>Node131</title>
<g id="a_node17"><a xlink:href="../../da/d5f/class_hydrax_1_1_g_p_u_normal_map_manager.html#a7398a504e11ea902839868d69bcf956b" target="_top" xlink:title="Hydrax::GPUNormalMapManager\l::create">
<polygon fill="white" stroke="black" points="367,-186.5 367,-216.5 528,-216.5 528,-186.5 367,-186.5"/>
<text text-anchor="start" x="375" y="-204.5" font-family="Helvetica,sans-Serif" font-size="10.00">Hydrax::GPUNormalMapManager</text>
<text text-anchor="middle" x="447.5" y="-193.5" font-family="Helvetica,sans-Serif" font-size="10.00">::create</text>
</a>
</g>
</g>
<!-- Node130&#45;&gt;Node131 -->
<g id="edge18" class="edge"><title>Node130&#45;&gt;Node131</title>
<path fill="none" stroke="midnightblue" d="M330.104,-232.752C349.883,-227.441 371.372,-221.671 390.441,-216.552"/>
<polygon fill="midnightblue" stroke="midnightblue" points="328.995,-229.425 320.245,-235.399 330.811,-236.186 328.995,-229.425"/>
</g>
<!-- Node138 -->
<g id="node24" class="node"><title>Node138</title>
<g id="a_node24"><a xlink:href="../../d6/d76/class_hydrax_1_1_rtt_manager.html#abf7d8e05771b9f904efa09fe94ab0907" target="_top" xlink:title="Hydrax::RttManager\l::setTextureSize">
<polygon fill="white" stroke="black" points="395.5,-235.5 395.5,-265.5 499.5,-265.5 499.5,-235.5 395.5,-235.5"/>
<text text-anchor="start" x="403.5" y="-253.5" font-family="Helvetica,sans-Serif" font-size="10.00">Hydrax::RttManager</text>
<text text-anchor="middle" x="447.5" y="-242.5" font-family="Helvetica,sans-Serif" font-size="10.00">::setTextureSize</text>
</a>
</g>
</g>
<!-- Node130&#45;&gt;Node138 -->
<g id="edge27" class="edge"><title>Node130&#45;&gt;Node138</title>
<path fill="none" stroke="midnightblue" d="M335.784,-250.5C355.654,-250.5 376.816,-250.5 395.259,-250.5"/>
<polygon fill="midnightblue" stroke="midnightblue" points="335.532,-247 325.532,-250.5 335.532,-254 335.532,-247"/>
</g>
<!-- Node143 -->
<g id="node29" class="node"><title>Node143</title>
<g id="a_node29"><a xlink:href="../../d6/d76/class_hydrax_1_1_rtt_manager.html#ad54dd87efa7baa4a5037faa2e5241738" target="_top" xlink:title="Hydrax::RttManager\l::setTexturesSize">
<polygon fill="white" stroke="black" points="395.5,-284.5 395.5,-314.5 499.5,-314.5 499.5,-284.5 395.5,-284.5"/>
<text text-anchor="start" x="403.5" y="-302.5" font-family="Helvetica,sans-Serif" font-size="10.00">Hydrax::RttManager</text>
<text text-anchor="middle" x="447.5" y="-291.5" font-family="Helvetica,sans-Serif" font-size="10.00">::setTexturesSize</text>
</a>
</g>
</g>
<!-- Node130&#45;&gt;Node143 -->
<g id="edge33" class="edge"><title>Node130&#45;&gt;Node143</title>
<path fill="none" stroke="midnightblue" d="M329.983,-268.216C351.532,-274.002 375.122,-280.335 395.405,-285.781"/>
<polygon fill="midnightblue" stroke="midnightblue" points="330.811,-264.814 320.245,-265.601 328.995,-271.575 330.811,-264.814"/>
</g>
<!-- Node144 -->
<g id="node30" class="node"><title>Node144</title>
<g id="a_node30"><a xlink:href="../../d5/daf/class_hydrax_1_1_texture_manager.html#a30bfb59332540e897c43193474b4aa19" target="_top" xlink:title="Hydrax::TextureManager\l::create">
<polygon fill="white" stroke="black" points="386,-333.5 386,-363.5 509,-363.5 509,-333.5 386,-333.5"/>
<text text-anchor="start" x="394" y="-351.5" font-family="Helvetica,sans-Serif" font-size="10.00">Hydrax::TextureManager</text>
<text text-anchor="middle" x="447.5" y="-340.5" font-family="Helvetica,sans-Serif" font-size="10.00">::create</text>
</a>
</g>
</g>
<!-- Node130&#45;&gt;Node144 -->
<g id="edge35" class="edge"><title>Node130&#45;&gt;Node144</title>
<path fill="none" stroke="midnightblue" d="M289.504,-272.011C309.521,-288.016 338.654,-309.434 367,-323.5 374.517,-327.23 382.709,-330.553 390.884,-333.462"/>
<polygon fill="midnightblue" stroke="midnightblue" points="291.481,-269.108 281.512,-265.521 287.068,-274.542 291.481,-269.108"/>
</g>
<!-- Node132 -->
<g id="node18" class="node"><title>Node132</title>
<g id="a_node18"><a xlink:href="../../de/d4c/class_hydrax_1_1_noise_1_1_f_f_t.html#aa8e2b9d2b8307c07be2d2cd9cf115560" target="_top" xlink:title="Hydrax::Noise::FFT\l::createGPUNormalMapResources">
<polygon fill="white" stroke="black" points="564,-186.5 564,-216.5 731,-216.5 731,-186.5 564,-186.5"/>
<text text-anchor="start" x="572" y="-204.5" font-family="Helvetica,sans-Serif" font-size="10.00">Hydrax::Noise::FFT</text>
<text text-anchor="middle" x="647.5" y="-193.5" font-family="Helvetica,sans-Serif" font-size="10.00">::createGPUNormalMapResources</text>
</a>
</g>
</g>
<!-- Node131&#45;&gt;Node132 -->
<g id="edge19" class="edge"><title>Node131&#45;&gt;Node132</title>
<path fill="none" stroke="midnightblue" d="M538.413,-201.5C546.854,-201.5 555.383,-201.5 563.753,-201.5"/>
<polygon fill="midnightblue" stroke="midnightblue" points="538.178,-198 528.178,-201.5 538.178,-205 538.178,-198"/>
</g>
<!-- Node136 -->
<g id="node22" class="node"><title>Node136</title>
<g id="a_node22"><a xlink:href="../../db/d29/class_hydrax_1_1_noise_1_1_perlin.html#adb347b98692bd7ce6ad7ce76c605d15a" target="_top" xlink:title="Hydrax::Noise::Perlin\l::createGPUNormalMapResources">
<polygon fill="white" stroke="black" points="564,-137.5 564,-167.5 731,-167.5 731,-137.5 564,-137.5"/>
<text text-anchor="start" x="572" y="-155.5" font-family="Helvetica,sans-Serif" font-size="10.00">Hydrax::Noise::Perlin</text>
<text text-anchor="middle" x="647.5" y="-144.5" font-family="Helvetica,sans-Serif" font-size="10.00">::createGPUNormalMapResources</text>
</a>
</g>
</g>
<!-- Node131&#45;&gt;Node136 -->
<g id="edge25" class="edge"><title>Node131&#45;&gt;Node136</title>
<path fill="none" stroke="midnightblue" d="M519.121,-184.023C540.944,-178.623 564.777,-172.724 585.863,-167.506"/>
<polygon fill="midnightblue" stroke="midnightblue" points="518.118,-180.666 509.252,-186.465 519.8,-187.461 518.118,-180.666"/>
</g>
<!-- Node133 -->
<g id="node19" class="node"><title>Node133</title>
<g id="a_node19"><a xlink:href="../../de/d4c/class_hydrax_1_1_noise_1_1_f_f_t.html#a1d7ec06eb11cda608cc8f73256c35be5" target="_top" xlink:title="Hydrax::Noise::FFT\l::setOptions">
<polygon fill="white" stroke="black" points="785,-198.5 785,-228.5 886,-228.5 886,-198.5 785,-198.5"/>
<text text-anchor="start" x="793" y="-216.5" font-family="Helvetica,sans-Serif" font-size="10.00">Hydrax::Noise::FFT</text>
<text text-anchor="middle" x="835.5" y="-205.5" font-family="Helvetica,sans-Serif" font-size="10.00">::setOptions</text>
</a>
</g>
</g>
<!-- Node132&#45;&gt;Node133 -->
<g id="edge20" class="edge"><title>Node132&#45;&gt;Node133</title>
<path fill="none" stroke="midnightblue" d="M741.518,-207.501C756.5,-208.468 771.481,-209.434 784.906,-210.3"/>
<polygon fill="midnightblue" stroke="midnightblue" points="741.37,-203.984 731.165,-206.833 740.919,-210.97 741.37,-203.984"/>
</g>
<!-- Node135 -->
<g id="node21" class="node"><title>Node135</title>
<g id="a_node21"><a xlink:href="../../d3/db5/struct_hydrax_1_1_noise_1_1_f_f_t_1_1_options.html#adfe9c5cc180b233f7ef6ba50fec06563" target="_top" xlink:title="Hydrax::Noise::FFT\l::Options::Options">
<polygon fill="white" stroke="black" points="1176.5,-192.5 1176.5,-222.5 1277.5,-222.5 1277.5,-192.5 1176.5,-192.5"/>
<text text-anchor="start" x="1184.5" y="-210.5" font-family="Helvetica,sans-Serif" font-size="10.00">Hydrax::Noise::FFT</text>
<text text-anchor="middle" x="1227" y="-199.5" font-family="Helvetica,sans-Serif" font-size="10.00">::Options::Options</text>
</a>
</g>
</g>
<!-- Node132&#45;&gt;Node135 -->
<g id="edge24" class="edge"><title>Node132&#45;&gt;Node135</title>
<path fill="none" stroke="midnightblue" d="M741.409,-190.332C750.051,-189.588 758.682,-188.955 767,-188.5 915.921,-180.356 1092.19,-194.248 1176.4,-202.328"/>
<polygon fill="midnightblue" stroke="midnightblue" points="740.922,-186.862 731.279,-191.253 741.555,-193.833 740.922,-186.862"/>
</g>
<!-- Node134 -->
<g id="node20" class="node"><title>Node134</title>
<g id="a_node20"><a xlink:href="../../de/d4c/class_hydrax_1_1_noise_1_1_f_f_t.html#a64245b9e56eeb8627ac3f5260dc203dd" target="_top" xlink:title="Hydrax::Noise::FFT\l::loadCfg">
<polygon fill="white" stroke="black" points="966.5,-236.5 966.5,-266.5 1067.5,-266.5 1067.5,-236.5 966.5,-236.5"/>
<text text-anchor="start" x="974.5" y="-254.5" font-family="Helvetica,sans-Serif" font-size="10.00">Hydrax::Noise::FFT</text>
<text text-anchor="middle" x="1017" y="-243.5" font-family="Helvetica,sans-Serif" font-size="10.00">::loadCfg</text>
</a>
</g>
</g>
<!-- Node133&#45;&gt;Node134 -->
<g id="edge21" class="edge"><title>Node133&#45;&gt;Node134</title>
<path fill="none" stroke="midnightblue" d="M895.935,-226.082C918.748,-230.912 944.523,-236.368 966.326,-240.984"/>
<polygon fill="midnightblue" stroke="midnightblue" points="896.532,-222.631 886.024,-223.984 895.083,-229.48 896.532,-222.631"/>
</g>
<!-- Node133&#45;&gt;Node135 -->
<g id="edge23" class="edge"><title>Node133&#45;&gt;Node135</title>
<path fill="none" stroke="midnightblue" d="M896.687,-212.573C973.472,-211.39 1104.86,-209.366 1176.26,-208.266"/>
<polygon fill="midnightblue" stroke="midnightblue" points="896.171,-209.08 886.226,-212.734 896.279,-216.079 896.171,-209.08"/>
</g>
<!-- Node134&#45;&gt;Node135 -->
<g id="edge22" class="edge"><title>Node134&#45;&gt;Node135</title>
<path fill="none" stroke="midnightblue" d="M1077.47,-238.919C1108.79,-232.293 1146.76,-224.263 1176.46,-217.979"/>
<polygon fill="midnightblue" stroke="midnightblue" points="1076.62,-235.523 1067.56,-241.017 1078.06,-242.371 1076.62,-235.523"/>
</g>
<!-- Node137 -->
<g id="node23" class="node"><title>Node137</title>
<g id="a_node23"><a xlink:href="../../d5/d28/struct_hydrax_1_1_noise_1_1_perlin_1_1_options.html#a25b331fdb0c7c67b12b865ff081af5e2" target="_top" xlink:title="Hydrax::Noise::Perlin\l::Options::Options">
<polygon fill="white" stroke="black" points="781,-110.5 781,-140.5 890,-140.5 890,-110.5 781,-110.5"/>
<text text-anchor="start" x="789" y="-128.5" font-family="Helvetica,sans-Serif" font-size="10.00">Hydrax::Noise::Perlin</text>
<text text-anchor="middle" x="835.5" y="-117.5" font-family="Helvetica,sans-Serif" font-size="10.00">::Options::Options</text>
</a>
</g>
</g>
<!-- Node136&#45;&gt;Node137 -->
<g id="edge26" class="edge"><title>Node136&#45;&gt;Node137</title>
<path fill="none" stroke="midnightblue" d="M741.093,-139.059C754.753,-137.076 768.425,-135.092 780.929,-133.276"/>
<polygon fill="midnightblue" stroke="midnightblue" points="740.559,-135.6 731.165,-140.5 741.565,-142.527 740.559,-135.6"/>
</g>
<!-- Node139 -->
<g id="node25" class="node"><title>Node139</title>
<g id="a_node25"><a xlink:href="../../d6/de1/class_hydrax_1_1_cfg_file_manager.html#a3971753dfe7ad0b217844419c2b3d1fb" target="_top" xlink:title="Hydrax::CfgFileManager\l::_loadRttSettings">
<polygon fill="white" stroke="black" points="587,-235.5 587,-265.5 708,-265.5 708,-235.5 587,-235.5"/>
<text text-anchor="start" x="595" y="-253.5" font-family="Helvetica,sans-Serif" font-size="10.00">Hydrax::CfgFileManager</text>
<text text-anchor="middle" x="647.5" y="-242.5" font-family="Helvetica,sans-Serif" font-size="10.00">::_loadRttSettings</text>
</a>
</g>
</g>
<!-- Node138&#45;&gt;Node139 -->
<g id="edge28" class="edge"><title>Node138&#45;&gt;Node139</title>
<path fill="none" stroke="midnightblue" d="M509.978,-250.5C534.41,-250.5 562.421,-250.5 586.686,-250.5"/>
<polygon fill="midnightblue" stroke="midnightblue" points="509.747,-247 499.747,-250.5 509.747,-254 509.747,-247"/>
</g>
<!-- Node141 -->
<g id="node27" class="node"><title>Node141</title>
<g id="a_node27"><a xlink:href="../../d6/d76/class_hydrax_1_1_rtt_manager.html#a7a555bfe00cebdc0628f9b535db500ff" target="_top" xlink:title="Hydrax::RttManager\l::getTextureSize">
<polygon fill="white" stroke="black" points="595.5,-284.5 595.5,-314.5 699.5,-314.5 699.5,-284.5 595.5,-284.5"/>
<text text-anchor="start" x="603.5" y="-302.5" font-family="Helvetica,sans-Serif" font-size="10.00">Hydrax::RttManager</text>
<text text-anchor="middle" x="647.5" y="-291.5" font-family="Helvetica,sans-Serif" font-size="10.00">::getTextureSize</text>
</a>
</g>
</g>
<!-- Node138&#45;&gt;Node141 -->
<g id="edge30" class="edge"><title>Node138&#45;&gt;Node141</title>
<path fill="none" stroke="midnightblue" d="M509.657,-265.635C537.169,-272.443 569.273,-280.388 595.467,-286.871"/>
<polygon fill="midnightblue" stroke="midnightblue" points="510.295,-262.187 499.747,-263.182 508.614,-268.982 510.295,-262.187"/>
</g>
<!-- Node140 -->
<g id="node26" class="node"><title>Node140</title>
<g id="a_node26"><a xlink:href="../../d6/de1/class_hydrax_1_1_cfg_file_manager.html#a0e050d2bf65e31ee39c0e28c481702f8" target="_top" xlink:title="Hydrax::CfgFileManager\l::load">
<polygon fill="white" stroke="black" points="775,-247.5 775,-277.5 896,-277.5 896,-247.5 775,-247.5"/>
<text text-anchor="start" x="783" y="-265.5" font-family="Helvetica,sans-Serif" font-size="10.00">Hydrax::CfgFileManager</text>
<text text-anchor="middle" x="835.5" y="-254.5" font-family="Helvetica,sans-Serif" font-size="10.00">::load</text>
</a>
</g>
</g>
<!-- Node139&#45;&gt;Node140 -->
<g id="edge29" class="edge"><title>Node139&#45;&gt;Node140</title>
<path fill="none" stroke="midnightblue" d="M718.308,-255.004C736.931,-256.205 756.88,-257.492 774.899,-258.655"/>
<polygon fill="midnightblue" stroke="midnightblue" points="718.324,-251.498 708.119,-254.346 717.873,-258.483 718.324,-251.498"/>
</g>
<!-- Node142 -->
<g id="node28" class="node"><title>Node142</title>
<g id="a_node28"><a xlink:href="../../d6/de1/class_hydrax_1_1_cfg_file_manager.html#a7836862e6b5d435d19f9ff62cf5ffca6" target="_top" xlink:title="Hydrax::CfgFileManager\l::_getRttCfgString">
<polygon fill="white" stroke="black" points="775,-320.5 775,-350.5 896,-350.5 896,-320.5 775,-320.5"/>
<text text-anchor="start" x="783" y="-338.5" font-family="Helvetica,sans-Serif" font-size="10.00">Hydrax::CfgFileManager</text>
<text text-anchor="middle" x="835.5" y="-327.5" font-family="Helvetica,sans-Serif" font-size="10.00">::_getRttCfgString</text>
</a>
</g>
</g>
<!-- Node141&#45;&gt;Node142 -->
<g id="edge31" class="edge"><title>Node141&#45;&gt;Node142</title>
<path fill="none" stroke="midnightblue" d="M709.854,-311.375C730.738,-315.417 754.04,-319.927 774.793,-323.944"/>
<polygon fill="midnightblue" stroke="midnightblue" points="710.301,-307.897 699.818,-309.432 708.97,-314.769 710.301,-307.897"/>
</g>
<!-- Node142&#45;&gt;Node117 -->
<g id="edge32" class="edge"><title>Node142&#45;&gt;Node117</title>
<path fill="none" stroke="midnightblue" d="M906.427,-346.408C922.97,-348.988 940.459,-351.716 956.49,-354.217"/>
<polygon fill="midnightblue" stroke="midnightblue" points="906.691,-342.907 896.271,-344.824 905.612,-349.823 906.691,-342.907"/>
</g>
<!-- Node143&#45;&gt;Node141 -->
<g id="edge34" class="edge"><title>Node143&#45;&gt;Node141</title>
<path fill="none" stroke="midnightblue" d="M510.019,-299.5C537.451,-299.5 569.387,-299.5 595.467,-299.5"/>
<polygon fill="midnightblue" stroke="midnightblue" points="509.747,-296 499.747,-299.5 509.747,-303 509.747,-296"/>
</g>
<!-- Node145&#45;&gt;Node119 -->
<g id="edge38" class="edge"><title>Node145&#45;&gt;Node119</title>
<path fill="none" stroke="midnightblue" d="M519.403,-34.6807C522.37,-36.1749 525.25,-37.7789 528,-39.5 547.995,-52.0158 544.012,-65.9737 564,-78.5 570.468,-82.5531 577.633,-85.9835 584.96,-88.8785"/>
<polygon fill="midnightblue" stroke="midnightblue" points="520.837,-31.4881 510.287,-30.5206 517.931,-37.8563 520.837,-31.4881"/>
</g>
<!-- Node145&#45;&gt;Node121 -->
<g id="edge39" class="edge"><title>Node145&#45;&gt;Node121</title>
<path fill="none" stroke="midnightblue" d="M527.872,-15.5C546.855,-15.5 566.842,-15.5 584.886,-15.5"/>
<polygon fill="midnightblue" stroke="midnightblue" points="527.751,-12.0001 517.751,-15.5 527.751,-19.0001 527.751,-12.0001"/>
</g>
</g>
</svg>
        <g id="navigator" transform="translate(0 0)" fill="#404254">
                <rect fill="#f2f5e9" fill-opacity="0.5" stroke="#606060" stroke-width=".5" x="0" y="0" width="60" height="60"/>
                <use id="zoomplus" xlink:href="#zoomPlus" x="17" y="9" onmousedown="handleZoom(evt,'in')"/>
                <use id="zoomminus" xlink:href="#zoomMin" x="42" y="9" onmousedown="handleZoom(evt,'out')"/>
                <use id="reset" xlink:href="#resetDef" x="30" y="36" onmousedown="handleReset()"/>
                <g id="arrowUp" xlink:href="#dirArrow" transform="translate(30 24)" onmousedown="handlePan(0,-1)">
                  <use xlink:href="#rim" fill="#404040">
                        <set attributeName="fill" to="#808080" begin="arrowUp.mouseover" end="arrowUp.mouseout"/>
                  </use>
                  <path fill="none" stroke="white" stroke-width="1.5" d="M0,-3.0v7 M-2.5,-0.5L0,-3.0L2.5,-0.5"/>
                </g>
                <g id="arrowRight" xlink:href="#dirArrow" transform="rotate(90) translate(36 -43)" onmousedown="handlePan(1,0)">
                  <use xlink:href="#rim" fill="#404040">
                        <set attributeName="fill" to="#808080" begin="arrowRight.mouseover" end="arrowRight.mouseout"/>
                  </use>
                  <path fill="none" stroke="white" stroke-width="1.5" d="M0,-3.0v7 M-2.5,-0.5L0,-3.0L2.5,-0.5"/>
                </g>
                <g id="arrowDown" xlink:href="#dirArrow" transform="rotate(180) translate(-30 -48)" onmousedown="handlePan(0,1)">
                  <use xlink:href="#rim" fill="#404040">
                        <set attributeName="fill" to="#808080" begin="arrowDown.mouseover" end="arrowDown.mouseout"/>
                  </use>
                  <path fill="none" stroke="white" stroke-width="1.5" d="M0,-3.0v7 M-2.5,-0.5L0,-3.0L2.5,-0.5"/>
                </g>
                <g id="arrowLeft" xlink:href="#dirArrow" transform="rotate(270) translate(-36 17)" onmousedown="handlePan(-1,0)">
                  <use xlink:href="#rim" fill="#404040">
                        <set attributeName="fill" to="#808080" begin="arrowLeft.mouseover" end="arrowLeft.mouseout"/>
                  </use>
                  <path fill="none" stroke="white" stroke-width="1.5" d="M0,-3.0v7 M-2.5,-0.5L0,-3.0L2.5,-0.5"/>
                </g>
        </g>
        <svg viewBox="0 0 15 15" width="100%" height="30px" preserveAspectRatio="xMaxYMin meet">
         <g id="arrow_out" transform="scale(0.3 0.3)">
          <a xlink:href="class_hydrax_1_1_hydrax_a8746142d93ed72a95d454dfeff6e7a27_icgraph_org.svg" target="_base">
           <rect id="button" ry="5" rx="5" y="6" x="6" height="38" width="38"
                fill="#f2f5e9" fill-opacity="0.5" stroke="#606060" stroke-width="1.0"/>
           <path id="arrow"
             d="M 11.500037,31.436501 C 11.940474,20.09759 22.043105,11.32322 32.158766,21.979434 L 37.068811,17.246167 C 37.068811,17.246167 37.088388,32 37.088388,32 L 22.160133,31.978069 C 22.160133,31.978069 26.997745,27.140456 26.997745,27.140456 C 18.528582,18.264221 13.291696,25.230495 11.500037,31.436501 z"
             style="fill:#404040;"/>
          </a>
         </g>
        </svg>
</svg>
