<?xml version="1.0" encoding="UTF-8" standalone="no"?>
<!DOCTYPE svg PUBLIC "-//W3C//DTD SVG 1.1//EN"
 "http://www.w3.org/Graphics/SVG/1.1/DTD/svg11.dtd">
<!-- Generated by graphviz version 2.38.0 (20140413.2041)
 -->
<!-- Title: RoR::GUI::MainSelector Pages: 1 -->
<svg width="479pt" height="152pt"
 viewBox="0.00 0.00 479.00 152.00" xmlns="http://www.w3.org/2000/svg" xmlns:xlink="http://www.w3.org/1999/xlink">
<g id="graph0" class="graph" transform="scale(1 1) rotate(0) translate(4 148)">
<title>RoR::GUI::MainSelector</title>
<polygon fill="white" stroke="none" points="-4,4 -4,-148 475,-148 475,4 -4,4"/>
<!-- Node3 -->
<g id="node1" class="node"><title>Node3</title>
<polygon fill="#bfbfbf" stroke="black" points="195.5,-0.5 195.5,-19.5 316.5,-19.5 316.5,-0.5 195.5,-0.5"/>
<text text-anchor="middle" x="256" y="-7.5" font-family="Helvetica,sans-Serif" font-size="10.00">RoR::GUI::MainSelector</text>
</g>
<!-- Node4 -->
<g id="node2" class="node"><title>Node4</title>
<g id="a_node2"><a xlink:href="../../d0/d8f/class_ro_r_1_1_g_u_i_1_1_main_selector_layout.html" target="_top" xlink:title="RoR::GUI::MainSelectorLayout">
<polygon fill="white" stroke="black" points="0,-67.5 0,-86.5 150,-86.5 150,-67.5 0,-67.5"/>
<text text-anchor="middle" x="75" y="-74.5" font-family="Helvetica,sans-Serif" font-size="10.00">RoR::GUI::MainSelectorLayout</text>
</a>
</g>
</g>
<!-- Node4&#45;&gt;Node3 -->
<g id="edge1" class="edge"><title>Node4&#45;&gt;Node3</title>
<path fill="none" stroke="midnightblue" d="M108.593,-63.9363C144.499,-51.0417 200.519,-30.9243 232.153,-19.5637"/>
<polygon fill="midnightblue" stroke="midnightblue" points="107.264,-60.6946 99.0354,-67.3685 109.63,-67.2826 107.264,-60.6946"/>
</g>
<!-- Node5 -->
<g id="node3" class="node"><title>Node5</title>
<g id="a_node3"><a xlink:href="../../d7/d90/classwraps_1_1_base_layout.html" target="_top" xlink:title="wraps::BaseLayout">
<polygon fill="white" stroke="black" points="25,-124.5 25,-143.5 125,-143.5 125,-124.5 25,-124.5"/>
<text text-anchor="middle" x="75" y="-131.5" font-family="Helvetica,sans-Serif" font-size="10.00">wraps::BaseLayout</text>
</a>
</g>
</g>
<!-- Node5&#45;&gt;Node4 -->
<g id="edge2" class="edge"><title>Node5&#45;&gt;Node4</title>
<path fill="none" stroke="midnightblue" d="M75,-114.117C75,-104.817 75,-94.0557 75,-86.7149"/>
<polygon fill="midnightblue" stroke="midnightblue" points="71.5001,-114.406 75,-124.406 78.5001,-114.406 71.5001,-114.406"/>
</g>
<!-- Node6 -->
<g id="node4" class="node"><title>Node6</title>
<g id="a_node4"><a xlink:href="../../d5/d18/struct_ro_r_1_1_skin_def.html" target="_top" xlink:title="RoR::SkinDef">
<polygon fill="white" stroke="black" points="168.5,-67.5 168.5,-86.5 243.5,-86.5 243.5,-67.5 168.5,-67.5"/>
<text text-anchor="middle" x="206" y="-74.5" font-family="Helvetica,sans-Serif" font-size="10.00">RoR::SkinDef</text>
</a>
</g>
</g>
<!-- Node6&#45;&gt;Node3 -->
<g id="edge3" class="edge"><title>Node6&#45;&gt;Node3</title>
<path fill="none" stroke="#9a32cd" stroke-dasharray="5,2" d="M202.846,-57.3818C202.644,-50.8406 203.527,-43.7062 207,-38 212.05,-29.703 220.631,-23.7681 229.215,-19.6161"/>
<polygon fill="#9a32cd" stroke="#9a32cd" points="199.383,-57.9106 203.944,-67.4733 206.342,-57.1533 199.383,-57.9106"/>
<text text-anchor="middle" x="245.5" y="-41" font-family="Helvetica,sans-Serif" font-size="10.00"> m_selected_skin</text>
</g>
<!-- Node7 -->
<g id="node5" class="node"><title>Node7</title>
<g id="a_node5"><a xlink:href="../../d1/d9b/class_cache_entry.html" target="_top" xlink:title="CacheEntry">
<polygon fill="white" stroke="black" points="272,-67.5 272,-86.5 340,-86.5 340,-67.5 272,-67.5"/>
<text text-anchor="middle" x="306" y="-74.5" font-family="Helvetica,sans-Serif" font-size="10.00">CacheEntry</text>
</a>
</g>
</g>
<!-- Node7&#45;&gt;Node3 -->
<g id="edge4" class="edge"><title>Node7&#45;&gt;Node3</title>
<path fill="none" stroke="#9a32cd" stroke-dasharray="5,2" d="M297.197,-58.4766C293.505,-51.801 288.925,-44.2914 284,-38 278.755,-31.3 271.89,-24.6546 266.27,-19.6331"/>
<polygon fill="#9a32cd" stroke="#9a32cd" points="294.151,-60.2041 301.907,-67.4214 300.345,-56.9425 294.151,-60.2041"/>
<text text-anchor="middle" x="332.5" y="-41" font-family="Helvetica,sans-Serif" font-size="10.00"> m_selected_entry</text>
</g>
<!-- Node8 -->
<g id="node6" class="node"><title>Node8</title>
<g id="a_node6"><a xlink:href="../../df/da1/class_ro_r_1_1_skin_manager.html" target="_top" xlink:title="Manages Skin resources, parsing .skin files and generally organizing them. ">
<polygon fill="white" stroke="black" points="361,-67.5 361,-86.5 459,-86.5 459,-67.5 361,-67.5"/>
<text text-anchor="middle" x="410" y="-74.5" font-family="Helvetica,sans-Serif" font-size="10.00">RoR::SkinManager</text>
</a>
</g>
</g>
<!-- Node8&#45;&gt;Node3 -->
<g id="edge5" class="edge"><title>Node8&#45;&gt;Node3</title>
<path fill="none" stroke="#9a32cd" stroke-dasharray="5,2" d="M399.062,-59.0779C393.355,-51.5419 385.739,-43.21 377,-38 358.883,-27.1983 336.904,-20.7099 316.676,-16.8154"/>
<polygon fill="#9a32cd" stroke="#9a32cd" points="396.234,-61.1411 404.837,-67.3242 401.968,-57.1255 396.234,-61.1411"/>
<text text-anchor="middle" x="429" y="-41" font-family="Helvetica,sans-Serif" font-size="10.00"> m_skin_manager</text>
</g>
<!-- Node9 -->
<g id="node7" class="node"><title>Node9</title>
<polygon fill="white" stroke="#bfbfbf" points="349,-124.5 349,-143.5 471,-143.5 471,-124.5 349,-124.5"/>
<text text-anchor="middle" x="410" y="-131.5" font-family="Helvetica,sans-Serif" font-size="10.00">Ogre::ResourceManager</text>
</g>
<!-- Node9&#45;&gt;Node8 -->
<g id="edge6" class="edge"><title>Node9&#45;&gt;Node8</title>
<path fill="none" stroke="midnightblue" d="M410,-114.117C410,-104.817 410,-94.0557 410,-86.7149"/>
<polygon fill="midnightblue" stroke="midnightblue" points="406.5,-114.406 410,-124.406 413.5,-114.406 406.5,-114.406"/>
</g>
</g>
</svg>
