<?xml version="1.0" encoding="UTF-8" standalone="no"?>
<!DOCTYPE svg PUBLIC "-//W3C//DTD SVG 1.1//EN"
 "http://www.w3.org/Graphics/SVG/1.1/DTD/svg11.dtd">
<!-- Generated by graphviz version 2.38.0 (20140413.2041)
 -->
<!-- Title: ScriptArrayTemplateCallback Pages: 1 -->
<svg width="765pt" height="88pt"
 viewBox="0.00 0.00 765.00 88.00" xmlns="http://www.w3.org/2000/svg" xmlns:xlink="http://www.w3.org/1999/xlink">
<g id="graph0" class="graph" transform="scale(1 1) rotate(0) translate(4 84)">
<title>ScriptArrayTemplateCallback</title>
<polygon fill="white" stroke="none" points="-4,4 -4,-84 761,-84 761,4 -4,4"/>
<!-- Node359 -->
<g id="node1" class="node"><title>Node359</title>
<polygon fill="#bfbfbf" stroke="black" points="0,-30 0,-49 143,-49 143,-30 0,-30"/>
<text text-anchor="middle" x="71.5" y="-37" font-family="Helvetica,sans-Serif" font-size="10.00">ScriptArrayTemplateCallback</text>
</g>
<!-- Node360 -->
<g id="node2" class="node"><title>Node360</title>
<g id="a_node2"><a xlink:href="../../d7/d58/scriptarray_8cpp.html#af6d3517f646ed2ac73e8460382c09726" target="_top" xlink:title="RegisterScriptArray\l_Native">
<polygon fill="white" stroke="black" points="358,-49.5 358,-79.5 459,-79.5 459,-49.5 358,-49.5"/>
<text text-anchor="start" x="366" y="-67.5" font-family="Helvetica,sans-Serif" font-size="10.00">RegisterScriptArray</text>
<text text-anchor="middle" x="408.5" y="-56.5" font-family="Helvetica,sans-Serif" font-size="10.00">_Native</text>
</a>
</g>
</g>
<!-- Node359&#45;&gt;Node360 -->
<g id="edge1" class="edge"><title>Node359&#45;&gt;Node360</title>
<path fill="none" stroke="midnightblue" d="M153.164,-45.5197C216.942,-50.2793 303.938,-56.7715 357.872,-60.7964"/>
<polygon fill="midnightblue" stroke="midnightblue" points="153.368,-42.0253 143.136,-44.7713 152.847,-49.0059 153.368,-42.0253"/>
</g>
<!-- Node364 -->
<g id="node6" class="node"><title>Node364</title>
<g id="a_node6"><a xlink:href="../../d7/d58/scriptarray_8cpp.html#a4ac10996d6d7a1ed529978224d1a0d5e" target="_top" xlink:title="ScriptArrayTemplateCallback\l_Generic">
<polygon fill="white" stroke="black" points="179,-2.5 179,-32.5 322,-32.5 322,-2.5 179,-2.5"/>
<text text-anchor="start" x="187" y="-20.5" font-family="Helvetica,sans-Serif" font-size="10.00">ScriptArrayTemplateCallback</text>
<text text-anchor="middle" x="250.5" y="-9.5" font-family="Helvetica,sans-Serif" font-size="10.00">_Generic</text>
</a>
</g>
</g>
<!-- Node359&#45;&gt;Node364 -->
<g id="edge5" class="edge"><title>Node359&#45;&gt;Node364</title>
<path fill="none" stroke="midnightblue" d="M153.214,-29.4677C161.784,-28.4025 170.453,-27.3251 178.894,-26.2759"/>
<polygon fill="midnightblue" stroke="midnightblue" points="152.71,-26.0034 143.218,-30.7102 153.574,-32.9499 152.71,-26.0034"/>
</g>
<!-- Node361 -->
<g id="node3" class="node"><title>Node361</title>
<g id="a_node3"><a xlink:href="../../d8/d22/class_c_script_array.html#a04daa9f9f1234fc48adacc5369df736d" target="_top" xlink:title="CScriptArray::SetMemoryFunctions">
<polygon fill="white" stroke="black" points="495,-52 495,-71 666,-71 666,-52 495,-52"/>
<text text-anchor="middle" x="580.5" y="-59" font-family="Helvetica,sans-Serif" font-size="10.00">CScriptArray::SetMemoryFunctions</text>
</a>
</g>
</g>
<!-- Node360&#45;&gt;Node361 -->
<g id="edge2" class="edge"><title>Node360&#45;&gt;Node361</title>
<path fill="none" stroke="midnightblue" d="M469.13,-63.4477C477.497,-63.3001 486.225,-63.146 494.946,-62.9921"/>
<polygon fill="midnightblue" stroke="midnightblue" points="469.065,-59.9482 459.128,-63.6242 469.188,-66.9471 469.065,-59.9482"/>
</g>
<!-- Node362 -->
<g id="node4" class="node"><title>Node362</title>
<g id="a_node4"><a xlink:href="../../d9/dd7/scriptarray_8h.html#ac97e4fe44bf13c876d66eadb481369da" target="_top" xlink:title="RegisterScriptArray">
<polygon fill="white" stroke="black" points="530,-11 530,-30 631,-30 631,-11 530,-11"/>
<text text-anchor="middle" x="580.5" y="-18" font-family="Helvetica,sans-Serif" font-size="10.00">RegisterScriptArray</text>
</a>
</g>
</g>
<!-- Node360&#45;&gt;Node362 -->
<g id="edge3" class="edge"><title>Node360&#45;&gt;Node362</title>
<path fill="none" stroke="midnightblue" d="M469.074,-49.0809C493.624,-42.7268 521.291,-35.5659 542.79,-30.0014"/>
<polygon fill="midnightblue" stroke="midnightblue" points="467.932,-45.761 459.128,-51.6551 469.686,-52.5377 467.932,-45.761"/>
</g>
<!-- Node363 -->
<g id="node5" class="node"><title>Node363</title>
<g id="a_node5"><a xlink:href="../../d4/d5f/_script_engine_8cpp.html#a72e7735b6ca109323b2aa797f7b7b45d" target="_top" xlink:title="logString">
<polygon fill="white" stroke="black" points="702,-11 702,-30 757,-30 757,-11 702,-11"/>
<text text-anchor="middle" x="729.5" y="-18" font-family="Helvetica,sans-Serif" font-size="10.00">logString</text>
</a>
</g>
</g>
<!-- Node362&#45;&gt;Node363 -->
<g id="edge4" class="edge"><title>Node362&#45;&gt;Node363</title>
<path fill="none" stroke="midnightblue" d="M641.433,-20.5C662.457,-20.5 685.015,-20.5 701.901,-20.5"/>
<polygon fill="midnightblue" stroke="midnightblue" points="641.268,-17.0001 631.267,-20.5 641.267,-24.0001 641.268,-17.0001"/>
</g>
<!-- Node365 -->
<g id="node7" class="node"><title>Node365</title>
<g id="a_node7"><a xlink:href="../../d7/d58/scriptarray_8cpp.html#a3f10cc670a493480c2a665a984710480" target="_top" xlink:title="RegisterScriptArray\l_Generic">
<polygon fill="white" stroke="black" points="358,-0.5 358,-30.5 459,-30.5 459,-0.5 358,-0.5"/>
<text text-anchor="start" x="366" y="-18.5" font-family="Helvetica,sans-Serif" font-size="10.00">RegisterScriptArray</text>
<text text-anchor="middle" x="408.5" y="-7.5" font-family="Helvetica,sans-Serif" font-size="10.00">_Generic</text>
</a>
</g>
</g>
<!-- Node364&#45;&gt;Node365 -->
<g id="edge6" class="edge"><title>Node364&#45;&gt;Node365</title>
<path fill="none" stroke="midnightblue" d="M332.293,-16.4642C340.898,-16.3539 349.457,-16.2441 357.551,-16.1404"/>
<polygon fill="midnightblue" stroke="midnightblue" points="332.151,-12.9656 322.197,-16.5936 332.241,-19.965 332.151,-12.9656"/>
</g>
<!-- Node365&#45;&gt;Node361 -->
<g id="edge7" class="edge"><title>Node365&#45;&gt;Node361</title>
<path fill="none" stroke="midnightblue" d="M468.945,-32.3428C477.676,-34.771 486.566,-37.2185 495,-39.5 510.365,-43.6563 527.341,-48.1041 542.022,-51.9051"/>
<polygon fill="midnightblue" stroke="midnightblue" points="469.761,-28.9368 459.188,-29.6193 467.879,-35.6791 469.761,-28.9368"/>
</g>
<!-- Node365&#45;&gt;Node362 -->
<g id="edge8" class="edge"><title>Node365&#45;&gt;Node362</title>
<path fill="none" stroke="midnightblue" d="M469.269,-17.2579C489.061,-17.84 510.86,-18.4812 529.81,-19.0385"/>
<polygon fill="midnightblue" stroke="midnightblue" points="469.227,-13.7552 459.128,-16.9596 469.021,-20.7522 469.227,-13.7552"/>
</g>
</g>
</svg>
