<?xml version="1.0" encoding="UTF-8" standalone="no"?>
<!DOCTYPE svg PUBLIC "-//W3C//DTD SVG 1.1//EN"
 "http://www.w3.org/Graphics/SVG/1.1/DTD/svg11.dtd">
<!-- Generated by graphviz version 2.38.0 (20140413.2041)
 -->
<!-- Title: ScriptArrayFactoryDefVal_Generic Pages: 1 -->
<svg width="570pt" height="66pt"
 viewBox="0.00 0.00 570.00 66.00" xmlns="http://www.w3.org/2000/svg" xmlns:xlink="http://www.w3.org/1999/xlink">
<g id="graph0" class="graph" transform="scale(1 1) rotate(0) translate(4 62)">
<title>ScriptArrayFactoryDefVal_Generic</title>
<polygon fill="white" stroke="none" points="-4,4 -4,-62 566,-62 566,4 -4,4"/>
<!-- Node183 -->
<g id="node1" class="node"><title>Node183</title>
<polygon fill="#bfbfbf" stroke="black" points="0,-14 0,-44 127,-44 127,-14 0,-14"/>
<text text-anchor="start" x="8" y="-32" font-family="Helvetica,sans-Serif" font-size="10.00">ScriptArrayFactoryDefVal</text>
<text text-anchor="middle" x="63.5" y="-21" font-family="Helvetica,sans-Serif" font-size="10.00">_Generic</text>
</g>
<!-- Node184 -->
<g id="node2" class="node"><title>Node184</title>
<g id="a_node2"><a xlink:href="../../d7/d58/scriptarray_8cpp.html#a3f10cc670a493480c2a665a984710480" target="_top" xlink:title="RegisterScriptArray\l_Generic">
<polygon fill="white" stroke="black" points="163,-14 163,-44 264,-44 264,-14 163,-14"/>
<text text-anchor="start" x="171" y="-32" font-family="Helvetica,sans-Serif" font-size="10.00">RegisterScriptArray</text>
<text text-anchor="middle" x="213.5" y="-21" font-family="Helvetica,sans-Serif" font-size="10.00">_Generic</text>
</a>
</g>
</g>
<!-- Node183&#45;&gt;Node184 -->
<g id="edge1" class="edge"><title>Node183&#45;&gt;Node184</title>
<path fill="none" stroke="midnightblue" d="M137.302,-29C145.883,-29 154.486,-29 162.649,-29"/>
<polygon fill="midnightblue" stroke="midnightblue" points="137.265,-25.5001 127.265,-29 137.265,-32.5001 137.265,-25.5001"/>
</g>
<!-- Node185 -->
<g id="node3" class="node"><title>Node185</title>
<g id="a_node3"><a xlink:href="../../d8/d22/class_c_script_array.html#a04daa9f9f1234fc48adacc5369df736d" target="_top" xlink:title="CScriptArray::SetMemoryFunctions">
<polygon fill="white" stroke="black" points="300,-38.5 300,-57.5 471,-57.5 471,-38.5 300,-38.5"/>
<text text-anchor="middle" x="385.5" y="-45.5" font-family="Helvetica,sans-Serif" font-size="10.00">CScriptArray::SetMemoryFunctions</text>
</a>
</g>
</g>
<!-- Node184&#45;&gt;Node185 -->
<g id="edge2" class="edge"><title>Node184&#45;&gt;Node185</title>
<path fill="none" stroke="midnightblue" d="M274.13,-35.6645C282.497,-36.5997 291.225,-37.5751 299.946,-38.5499"/>
<polygon fill="midnightblue" stroke="midnightblue" points="274.455,-32.1791 264.128,-34.5467 273.677,-39.1358 274.455,-32.1791"/>
</g>
<!-- Node186 -->
<g id="node4" class="node"><title>Node186</title>
<g id="a_node4"><a xlink:href="../../d9/dd7/scriptarray_8h.html#ac97e4fe44bf13c876d66eadb481369da" target="_top" xlink:title="RegisterScriptArray">
<polygon fill="white" stroke="black" points="335,-0.5 335,-19.5 436,-19.5 436,-0.5 335,-0.5"/>
<text text-anchor="middle" x="385.5" y="-7.5" font-family="Helvetica,sans-Serif" font-size="10.00">RegisterScriptArray</text>
</a>
</g>
</g>
<!-- Node184&#45;&gt;Node186 -->
<g id="edge3" class="edge"><title>Node184&#45;&gt;Node186</title>
<path fill="none" stroke="midnightblue" d="M274.269,-22.3199C294.061,-20.1079 315.86,-17.6716 334.81,-15.5536"/>
<polygon fill="midnightblue" stroke="midnightblue" points="273.677,-18.8642 264.128,-23.4533 274.455,-25.8209 273.677,-18.8642"/>
</g>
<!-- Node187 -->
<g id="node5" class="node"><title>Node187</title>
<g id="a_node5"><a xlink:href="../../d4/d5f/_script_engine_8cpp.html#a72e7735b6ca109323b2aa797f7b7b45d" target="_top" xlink:title="logString">
<polygon fill="white" stroke="black" points="507,-0.5 507,-19.5 562,-19.5 562,-0.5 507,-0.5"/>
<text text-anchor="middle" x="534.5" y="-7.5" font-family="Helvetica,sans-Serif" font-size="10.00">logString</text>
</a>
</g>
</g>
<!-- Node186&#45;&gt;Node187 -->
<g id="edge4" class="edge"><title>Node186&#45;&gt;Node187</title>
<path fill="none" stroke="midnightblue" d="M446.433,-10C467.457,-10 490.015,-10 506.901,-10"/>
<polygon fill="midnightblue" stroke="midnightblue" points="446.268,-6.5001 436.267,-10 446.267,-13.5001 446.268,-6.5001"/>
</g>
</g>
</svg>
