<?xml version="1.0" encoding="UTF-8" standalone="no"?>
<!DOCTYPE svg PUBLIC "-//W3C//DTD SVG 1.1//EN"
 "http://www.w3.org/Graphics/SVG/1.1/DTD/svg11.dtd">
<!-- Generated by graphviz version 2.38.0 (20140413.2041)
 -->
<!-- Title: ColoredTextAreaOverlayElement::GetColor Pages: 1 -->
<svg width="358pt" height="39pt"
 viewBox="0.00 0.00 358.00 39.00" xmlns="http://www.w3.org/2000/svg" xmlns:xlink="http://www.w3.org/1999/xlink">
<g id="graph0" class="graph" transform="scale(1 1) rotate(0) translate(4 35)">
<title>ColoredTextAreaOverlayElement::GetColor</title>
<polygon fill="white" stroke="none" points="-4,4 -4,-35 354,-35 354,4 -4,4"/>
<!-- Node5 -->
<g id="node1" class="node"><title>Node5</title>
<polygon fill="#bfbfbf" stroke="black" points="0,-0.5 0,-30.5 157,-30.5 157,-0.5 0,-0.5"/>
<text text-anchor="start" x="8" y="-18.5" font-family="Helvetica,sans-Serif" font-size="10.00">ColoredTextAreaOverlayElement</text>
<text text-anchor="middle" x="78.5" y="-7.5" font-family="Helvetica,sans-Serif" font-size="10.00">::GetColor</text>
</g>
<!-- Node6 -->
<g id="node2" class="node"><title>Node6</title>
<g id="a_node2"><a xlink:href="../../df/d51/class_colored_text_area_overlay_element.html#a1f62c8a4aef86222a036a1a9b778df91" target="_top" xlink:title="ColoredTextAreaOverlayElement\l::updateColours">
<polygon fill="white" stroke="black" points="193,-0.5 193,-30.5 350,-30.5 350,-0.5 193,-0.5"/>
<text text-anchor="start" x="201" y="-18.5" font-family="Helvetica,sans-Serif" font-size="10.00">ColoredTextAreaOverlayElement</text>
<text text-anchor="middle" x="271.5" y="-7.5" font-family="Helvetica,sans-Serif" font-size="10.00">::updateColours</text>
</a>
</g>
</g>
<!-- Node5&#45;&gt;Node6 -->
<g id="edge1" class="edge"><title>Node5&#45;&gt;Node6</title>
<path fill="none" stroke="midnightblue" d="M167.193,-15.5C175.765,-15.5 184.42,-15.5 192.882,-15.5"/>
<polygon fill="midnightblue" stroke="midnightblue" points="167.187,-12.0001 157.187,-15.5 167.187,-19.0001 167.187,-12.0001"/>
</g>
</g>
</svg>
