<?xml version="1.0" encoding="UTF-8" standalone="no"?>
<!DOCTYPE svg PUBLIC "-//W3C//DTD SVG 1.1//EN"
 "http://www.w3.org/Graphics/SVG/1.1/DTD/svg11.dtd">
<!-- Generated by graphviz version 2.38.0 (20140413.2041)
 -->
<!-- Title: Ogre::TerrainPSSMMaterialGenerator::SM2Profile::setLayerSpecularMappingEnabled Pages: 1 -->
<svg width="1430pt" height="173pt"
 viewBox="0.00 0.00 1430.00 173.00" xmlns="http://www.w3.org/2000/svg" xmlns:xlink="http://www.w3.org/1999/xlink">
<g id="graph0" class="graph" transform="scale(1 1) rotate(0) translate(4 169)">
<title>Ogre::TerrainPSSMMaterialGenerator::SM2Profile::setLayerSpecularMappingEnabled</title>
<polygon fill="white" stroke="none" points="-4,4 -4,-169 1426,-169 1426,4 -4,4"/>
<!-- Node266 -->
<g id="node1" class="node"><title>Node266</title>
<polygon fill="#bfbfbf" stroke="black" points="0,-35.5 0,-76.5 164,-76.5 164,-35.5 0,-35.5"/>
<text text-anchor="start" x="8" y="-64.5" font-family="Helvetica,sans-Serif" font-size="10.00">Ogre::TerrainPSSMMaterial</text>
<text text-anchor="start" x="8" y="-53.5" font-family="Helvetica,sans-Serif" font-size="10.00">Generator::SM2Profile::</text>
<text text-anchor="middle" x="82" y="-42.5" font-family="Helvetica,sans-Serif" font-size="10.00">setLayerSpecularMappingEnabled</text>
</g>
<!-- Node267 -->
<g id="node2" class="node"><title>Node267</title>
<g id="a_node2"><a xlink:href="../../d5/d2c/class_ogre_1_1_terrain_p_s_s_m_material_generator_1_1_s_m2_profile.html#af82789dd7946ed1a8c2c8981c1b46ab6" target="_top" xlink:title="Ogre::TerrainPSSMMaterial\lGenerator::SM2Profile::\lisLayerSpecularMappingEnabled">
<polygon fill="white" stroke="black" points="200,-63.5 200,-104.5 358,-104.5 358,-63.5 200,-63.5"/>
<text text-anchor="start" x="208" y="-92.5" font-family="Helvetica,sans-Serif" font-size="10.00">Ogre::TerrainPSSMMaterial</text>
<text text-anchor="start" x="208" y="-81.5" font-family="Helvetica,sans-Serif" font-size="10.00">Generator::SM2Profile::</text>
<text text-anchor="middle" x="279" y="-70.5" font-family="Helvetica,sans-Serif" font-size="10.00">isLayerSpecularMappingEnabled</text>
</a>
</g>
</g>
<!-- Node266&#45;&gt;Node267 -->
<g id="edge1" class="edge"><title>Node266&#45;&gt;Node267</title>
<path fill="none" stroke="midnightblue" d="M174.043,-69.0729C182.636,-70.3067 191.295,-71.5501 199.754,-72.7646"/>
<polygon fill="midnightblue" stroke="midnightblue" points="174.399,-65.5882 164.003,-67.6313 173.404,-72.5171 174.399,-65.5882"/>
</g>
<!-- Node270 -->
<g id="node5" class="node"><title>Node270</title>
<g id="a_node5"><a xlink:href="../../d2/d9a/class_terrain_geometry_manager.html#a10e78d511f72ed2ba109ff691cdc0ffb" target="_top" xlink:title="TerrainGeometryManager\l::configureTerrainDefaults">
<polygon fill="white" stroke="black" points="216,-14 216,-44 342,-44 342,-14 216,-14"/>
<text text-anchor="start" x="224" y="-32" font-family="Helvetica,sans-Serif" font-size="10.00">TerrainGeometryManager</text>
<text text-anchor="middle" x="279" y="-21" font-family="Helvetica,sans-Serif" font-size="10.00">::configureTerrainDefaults</text>
</a>
</g>
</g>
<!-- Node266&#45;&gt;Node270 -->
<g id="edge4" class="edge"><title>Node266&#45;&gt;Node270</title>
<path fill="none" stroke="midnightblue" d="M174.247,-43.3658C188.38,-41.4089 202.69,-39.4276 215.98,-37.5873"/>
<polygon fill="midnightblue" stroke="midnightblue" points="173.429,-39.9456 164.003,-44.7841 174.389,-46.8794 173.429,-39.9456"/>
</g>
<!-- Node268 -->
<g id="node3" class="node"><title>Node268</title>
<g id="a_node3"><a xlink:href="../../dd/d33/class_ogre_1_1_terrain_p_s_s_m_material_generator_1_1_s_m2_profile_1_1_shader_helper_cg.html#aed5c4e365ffd55d08a815d445b2fe484" target="_top" xlink:title="Ogre::TerrainPSSMMaterial\lGenerator::SM2Profile::\lShaderHelperCg::generateFpLayer">
<polygon fill="white" stroke="black" points="396,-123.5 396,-164.5 562,-164.5 562,-123.5 396,-123.5"/>
<text text-anchor="start" x="404" y="-152.5" font-family="Helvetica,sans-Serif" font-size="10.00">Ogre::TerrainPSSMMaterial</text>
<text text-anchor="start" x="404" y="-141.5" font-family="Helvetica,sans-Serif" font-size="10.00">Generator::SM2Profile::</text>
<text text-anchor="middle" x="479" y="-130.5" font-family="Helvetica,sans-Serif" font-size="10.00">ShaderHelperCg::generateFpLayer</text>
</a>
</g>
</g>
<!-- Node267&#45;&gt;Node268 -->
<g id="edge2" class="edge"><title>Node267&#45;&gt;Node268</title>
<path fill="none" stroke="midnightblue" d="M357.435,-107.465C374.863,-112.746 393.228,-118.312 410.225,-123.462"/>
<polygon fill="midnightblue" stroke="midnightblue" points="358.449,-104.115 347.863,-104.565 356.419,-110.814 358.449,-104.115"/>
</g>
<!-- Node269 -->
<g id="node4" class="node"><title>Node269</title>
<g id="a_node4"><a xlink:href="../../dd/d33/class_ogre_1_1_terrain_p_s_s_m_material_generator_1_1_s_m2_profile_1_1_shader_helper_cg.html#a02b18b595fa75ef580b8f03cac726279" target="_top" xlink:title="Ogre::TerrainPSSMMaterial\lGenerator::SM2Profile::\lShaderHelperCg::generateFpFooter">
<polygon fill="white" stroke="black" points="394,-63.5 394,-104.5 564,-104.5 564,-63.5 394,-63.5"/>
<text text-anchor="start" x="402" y="-92.5" font-family="Helvetica,sans-Serif" font-size="10.00">Ogre::TerrainPSSMMaterial</text>
<text text-anchor="start" x="402" y="-81.5" font-family="Helvetica,sans-Serif" font-size="10.00">Generator::SM2Profile::</text>
<text text-anchor="middle" x="479" y="-70.5" font-family="Helvetica,sans-Serif" font-size="10.00">ShaderHelperCg::generateFpFooter</text>
</a>
</g>
</g>
<!-- Node267&#45;&gt;Node269 -->
<g id="edge3" class="edge"><title>Node267&#45;&gt;Node269</title>
<path fill="none" stroke="midnightblue" d="M368.463,-84C376.887,-84 385.414,-84 393.797,-84"/>
<polygon fill="midnightblue" stroke="midnightblue" points="368.255,-80.5001 358.255,-84 368.255,-87.5001 368.255,-80.5001"/>
</g>
<!-- Node271 -->
<g id="node6" class="node"><title>Node271</title>
<g id="a_node6"><a xlink:href="../../d2/d9a/class_terrain_geometry_manager.html#a1be850a57cfa62aca477b22c8aee0607" target="_top" xlink:title="TerrainGeometryManager\l::InitTerrain">
<polygon fill="white" stroke="black" points="416,-14 416,-44 542,-44 542,-14 416,-14"/>
<text text-anchor="start" x="424" y="-32" font-family="Helvetica,sans-Serif" font-size="10.00">TerrainGeometryManager</text>
<text text-anchor="middle" x="479" y="-21" font-family="Helvetica,sans-Serif" font-size="10.00">::InitTerrain</text>
</a>
</g>
</g>
<!-- Node270&#45;&gt;Node271 -->
<g id="edge5" class="edge"><title>Node270&#45;&gt;Node271</title>
<path fill="none" stroke="midnightblue" d="M352.183,-29C373.029,-29 395.591,-29 415.775,-29"/>
<polygon fill="midnightblue" stroke="midnightblue" points="352.105,-25.5001 342.105,-29 352.105,-32.5001 352.105,-25.5001"/>
</g>
<!-- Node272 -->
<g id="node7" class="node"><title>Node272</title>
<g id="a_node7"><a xlink:href="../../d3/d16/class_terrain_manager.html#a9a04c837bf2ea6528c465b27ca62f730" target="_top" xlink:title="TerrainManager::loadTerrain">
<polygon fill="white" stroke="black" points="600,-19.5 600,-38.5 737,-38.5 737,-19.5 600,-19.5"/>
<text text-anchor="middle" x="668.5" y="-26.5" font-family="Helvetica,sans-Serif" font-size="10.00">TerrainManager::loadTerrain</text>
</a>
</g>
</g>
<!-- Node271&#45;&gt;Node272 -->
<g id="edge6" class="edge"><title>Node271&#45;&gt;Node272</title>
<path fill="none" stroke="midnightblue" d="M552.275,-29C567.858,-29 584.279,-29 599.684,-29"/>
<polygon fill="midnightblue" stroke="midnightblue" points="552.174,-25.5001 542.174,-29 552.174,-32.5001 552.174,-25.5001"/>
</g>
<!-- Node273 -->
<g id="node8" class="node"><title>Node273</title>
<g id="a_node8"><a xlink:href="../../dd/dbe/class_ro_r_frame_listener.html#a9757c059e840019a3e2659d5ef63ea02" target="_top" xlink:title="Reads GVar &#39;sim_terrain_pending&#39;. ">
<polygon fill="white" stroke="black" points="773,-19.5 773,-38.5 927,-38.5 927,-19.5 773,-19.5"/>
<text text-anchor="middle" x="850" y="-26.5" font-family="Helvetica,sans-Serif" font-size="10.00">RoRFrameListener::LoadTerrain</text>
</a>
</g>
</g>
<!-- Node272&#45;&gt;Node273 -->
<g id="edge7" class="edge"><title>Node272&#45;&gt;Node273</title>
<path fill="none" stroke="midnightblue" d="M747.301,-29C755.734,-29 764.311,-29 772.726,-29"/>
<polygon fill="midnightblue" stroke="midnightblue" points="747.106,-25.5001 737.105,-29 747.105,-32.5001 747.106,-25.5001"/>
</g>
<!-- Node274 -->
<g id="node9" class="node"><title>Node274</title>
<g id="a_node9"><a xlink:href="../../dd/dbe/class_ro_r_frame_listener.html#aca3931d7a75f2ad4b9d36c4fcd03a3c9" target="_top" xlink:title="RoRFrameListener::SetupGameplayLoop">
<polygon fill="white" stroke="black" points="963,-0.5 963,-19.5 1157,-19.5 1157,-0.5 963,-0.5"/>
<text text-anchor="middle" x="1060" y="-7.5" font-family="Helvetica,sans-Serif" font-size="10.00">RoRFrameListener::SetupGameplayLoop</text>
</a>
</g>
</g>
<!-- Node273&#45;&gt;Node274 -->
<g id="edge8" class="edge"><title>Node273&#45;&gt;Node274</title>
<path fill="none" stroke="midnightblue" d="M937.434,-21.1046C945.843,-20.3365 954.41,-19.5539 962.906,-18.7779"/>
<polygon fill="midnightblue" stroke="midnightblue" points="936.911,-17.6377 927.27,-22.033 937.547,-24.6087 936.911,-17.6377"/>
</g>
<!-- Node275 -->
<g id="node10" class="node"><title>Node275</title>
<g id="a_node10"><a xlink:href="../../dd/dbe/class_ro_r_frame_listener.html#ad598075b5f183208c0de43b9248bb44b" target="_top" xlink:title="RoRFrameListener::getTime">
<polygon fill="white" stroke="black" points="1193,-38.5 1193,-57.5 1331,-57.5 1331,-38.5 1193,-38.5"/>
<text text-anchor="middle" x="1262" y="-45.5" font-family="Helvetica,sans-Serif" font-size="10.00">RoRFrameListener::getTime</text>
</a>
</g>
</g>
<!-- Node273&#45;&gt;Node275 -->
<g id="edge12" class="edge"><title>Node273&#45;&gt;Node275</title>
<path fill="none" stroke="midnightblue" d="M937.193,-32.9943C1013.25,-36.5188 1122.62,-41.5871 1192.74,-44.8368"/>
<polygon fill="midnightblue" stroke="midnightblue" points="937.308,-29.496 927.157,-32.5292 936.984,-36.4885 937.308,-29.496"/>
</g>
<!-- Node274&#45;&gt;Node275 -->
<g id="edge9" class="edge"><title>Node274&#45;&gt;Node275</title>
<path fill="none" stroke="midnightblue" d="M1121.1,-21.4181C1149.71,-26.8552 1183.54,-33.2832 1210.77,-38.4561"/>
<polygon fill="midnightblue" stroke="midnightblue" points="1121.69,-17.9682 1111.21,-19.54 1120.38,-24.8451 1121.69,-17.9682"/>
</g>
<!-- Node276 -->
<g id="node11" class="node"><title>Node276</title>
<g id="a_node11"><a xlink:href="../../df/d0a/main_8cpp.html#a0ddf1224851353fc92bfbff6f499fa97" target="_top" xlink:title="main">
<polygon fill="white" stroke="black" points="1243,-0.5 1243,-19.5 1281,-19.5 1281,-0.5 1243,-0.5"/>
<text text-anchor="middle" x="1262" y="-7.5" font-family="Helvetica,sans-Serif" font-size="10.00">main</text>
</a>
</g>
</g>
<!-- Node274&#45;&gt;Node276 -->
<g id="edge10" class="edge"><title>Node274&#45;&gt;Node276</title>
<path fill="none" stroke="midnightblue" d="M1167.52,-10C1196.66,-10 1225.07,-10 1242.77,-10"/>
<polygon fill="midnightblue" stroke="midnightblue" points="1167.19,-6.5001 1157.19,-10 1167.19,-13.5001 1167.19,-6.5001"/>
</g>
<!-- Node277 -->
<g id="node12" class="node"><title>Node277</title>
<g id="a_node12"><a xlink:href="../../df/d0a/main_8cpp.html#a2922bc5d5c2d77a3020cfbf9df12aab0" target="_top" xlink:title="WinMain">
<polygon fill="white" stroke="black" points="1367,-0.5 1367,-19.5 1422,-19.5 1422,-0.5 1367,-0.5"/>
<text text-anchor="middle" x="1394.5" y="-7.5" font-family="Helvetica,sans-Serif" font-size="10.00">WinMain</text>
</a>
</g>
</g>
<!-- Node276&#45;&gt;Node277 -->
<g id="edge11" class="edge"><title>Node276&#45;&gt;Node277</title>
<path fill="none" stroke="midnightblue" d="M1291.39,-10C1313.84,-10 1344.96,-10 1366.92,-10"/>
<polygon fill="midnightblue" stroke="midnightblue" points="1291.15,-6.5001 1281.15,-10 1291.15,-13.5001 1291.15,-6.5001"/>
</g>
</g>
</svg>
