<?xml version="1.0" encoding="UTF-8" standalone="no"?>
<!DOCTYPE svg PUBLIC "-//W3C//DTD SVG 1.1//EN"
 "http://www.w3.org/Graphics/SVG/1.1/DTD/svg11.dtd">
<!-- Generated by graphviz version 2.38.0 (20140413.2041)
 -->
<!-- Title: Ogre::TerrainPSSMMaterialGenerator::SM2Profile::getReceiveDynamicShadowsEnabled Pages: 1 -->
<svg width="978pt" height="610pt"
 viewBox="0.00 0.00 978.00 610.00" xmlns="http://www.w3.org/2000/svg" xmlns:xlink="http://www.w3.org/1999/xlink">
<g id="graph0" class="graph" transform="scale(1 1) rotate(0) translate(4 606)">
<title>Ogre::TerrainPSSMMaterialGenerator::SM2Profile::getReceiveDynamicShadowsEnabled</title>
<polygon fill="white" stroke="none" points="-4,4 -4,-606 974,-606 974,4 -4,4"/>
<!-- Node99 -->
<g id="node1" class="node"><title>Node99</title>
<polygon fill="#bfbfbf" stroke="black" points="0,-204.5 0,-245.5 177,-245.5 177,-204.5 0,-204.5"/>
<text text-anchor="start" x="8" y="-233.5" font-family="Helvetica,sans-Serif" font-size="10.00">Ogre::TerrainPSSMMaterial</text>
<text text-anchor="start" x="8" y="-222.5" font-family="Helvetica,sans-Serif" font-size="10.00">Generator::SM2Profile::</text>
<text text-anchor="middle" x="88.5" y="-211.5" font-family="Helvetica,sans-Serif" font-size="10.00">getReceiveDynamicShadowsEnabled</text>
</g>
<!-- Node100 -->
<g id="node2" class="node"><title>Node100</title>
<g id="a_node2"><a xlink:href="../../d5/d2c/class_ogre_1_1_terrain_p_s_s_m_material_generator_1_1_s_m2_profile.html#aba2eb81b18d922e9409404a709b9d5e8" target="_top" xlink:title="Ogre::TerrainPSSMMaterial\lGenerator::SM2Profile::\lisShadowingEnabled">
<polygon fill="white" stroke="black" points="213,-204.5 213,-245.5 349,-245.5 349,-204.5 213,-204.5"/>
<text text-anchor="start" x="221" y="-233.5" font-family="Helvetica,sans-Serif" font-size="10.00">Ogre::TerrainPSSMMaterial</text>
<text text-anchor="start" x="221" y="-222.5" font-family="Helvetica,sans-Serif" font-size="10.00">Generator::SM2Profile::</text>
<text text-anchor="middle" x="281" y="-211.5" font-family="Helvetica,sans-Serif" font-size="10.00">isShadowingEnabled</text>
</a>
</g>
</g>
<!-- Node99&#45;&gt;Node100 -->
<g id="edge1" class="edge"><title>Node99&#45;&gt;Node100</title>
<path fill="none" stroke="midnightblue" d="M187.378,-225C196.032,-225 204.657,-225 212.967,-225"/>
<polygon fill="midnightblue" stroke="midnightblue" points="187.223,-221.5 177.223,-225 187.223,-228.5 187.223,-221.5"/>
</g>
<!-- Node101 -->
<g id="node3" class="node"><title>Node101</title>
<g id="a_node3"><a xlink:href="../../d5/d2c/class_ogre_1_1_terrain_p_s_s_m_material_generator_1_1_s_m2_profile.html#a83a9b6ede174cd1daeda016f64f4a5c8" target="_top" xlink:title="Ogre::TerrainPSSMMaterial\lGenerator::SM2Profile::\lgetMaxLayers">
<polygon fill="white" stroke="black" points="402,-333.5 402,-374.5 538,-374.5 538,-333.5 402,-333.5"/>
<text text-anchor="start" x="410" y="-362.5" font-family="Helvetica,sans-Serif" font-size="10.00">Ogre::TerrainPSSMMaterial</text>
<text text-anchor="start" x="410" y="-351.5" font-family="Helvetica,sans-Serif" font-size="10.00">Generator::SM2Profile::</text>
<text text-anchor="middle" x="470" y="-340.5" font-family="Helvetica,sans-Serif" font-size="10.00">getMaxLayers</text>
</a>
</g>
</g>
<!-- Node100&#45;&gt;Node101 -->
<g id="edge2" class="edge"><title>Node100&#45;&gt;Node101</title>
<path fill="none" stroke="midnightblue" d="M316.312,-251.833C336.086,-266.996 361.591,-286.049 385,-302 400.875,-312.817 418.937,-324.122 434.235,-333.418"/>
<polygon fill="midnightblue" stroke="midnightblue" points="318.27,-248.923 308.212,-245.594 313.998,-254.469 318.27,-248.923"/>
</g>
<!-- Node102 -->
<g id="node4" class="node"><title>Node102</title>
<g id="a_node4"><a xlink:href="../../d5/d2c/class_ogre_1_1_terrain_p_s_s_m_material_generator_1_1_s_m2_profile.html#ade0d9bf2c7fda529bbb03eb247ffe1e9" target="_top" xlink:title="Ogre::TerrainPSSMMaterial\lGenerator::SM2Profile::\laddTechnique">
<polygon fill="white" stroke="black" points="621.5,-530.5 621.5,-571.5 757.5,-571.5 757.5,-530.5 621.5,-530.5"/>
<text text-anchor="start" x="629.5" y="-559.5" font-family="Helvetica,sans-Serif" font-size="10.00">Ogre::TerrainPSSMMaterial</text>
<text text-anchor="start" x="629.5" y="-548.5" font-family="Helvetica,sans-Serif" font-size="10.00">Generator::SM2Profile::</text>
<text text-anchor="middle" x="689.5" y="-537.5" font-family="Helvetica,sans-Serif" font-size="10.00">addTechnique</text>
</a>
</g>
</g>
<!-- Node100&#45;&gt;Node102 -->
<g id="edge14" class="edge"><title>Node100&#45;&gt;Node102</title>
<path fill="none" stroke="midnightblue" d="M296.463,-254.677C314.046,-288.682 346.227,-344.757 385,-384 462.279,-462.216 491.645,-473.899 591,-521 600.602,-525.552 611.059,-529.618 621.442,-533.176"/>
<polygon fill="midnightblue" stroke="midnightblue" points="299.552,-253.03 291.898,-245.704 293.313,-256.204 299.552,-253.03"/>
</g>
<!-- Node109 -->
<g id="node11" class="node"><title>Node109</title>
<g id="a_node11"><a xlink:href="../../dd/d33/class_ogre_1_1_terrain_p_s_s_m_material_generator_1_1_s_m2_profile_1_1_shader_helper_cg.html#a4455989ab6e1c73c771f44d0e7a42e48" target="_top" xlink:title="Ogre::TerrainPSSMMaterial\lGenerator::SM2Profile::\lShaderHelperCg::generateVpHeader">
<polygon fill="white" stroke="black" points="603,-267.5 603,-308.5 776,-308.5 776,-267.5 603,-267.5"/>
<text text-anchor="start" x="611" y="-296.5" font-family="Helvetica,sans-Serif" font-size="10.00">Ogre::TerrainPSSMMaterial</text>
<text text-anchor="start" x="611" y="-285.5" font-family="Helvetica,sans-Serif" font-size="10.00">Generator::SM2Profile::</text>
<text text-anchor="middle" x="689.5" y="-274.5" font-family="Helvetica,sans-Serif" font-size="10.00">ShaderHelperCg::generateVpHeader</text>
</a>
</g>
</g>
<!-- Node100&#45;&gt;Node109 -->
<g id="edge19" class="edge"><title>Node100&#45;&gt;Node109</title>
<path fill="none" stroke="midnightblue" d="M359.03,-241.261C367.775,-242.942 376.57,-244.559 385,-246 458.274,-258.527 541.993,-269.893 602.916,-277.633"/>
<polygon fill="midnightblue" stroke="midnightblue" points="359.687,-237.823 349.201,-239.343 358.346,-244.693 359.687,-237.823"/>
</g>
<!-- Node110 -->
<g id="node12" class="node"><title>Node110</title>
<g id="a_node12"><a xlink:href="../../dd/d33/class_ogre_1_1_terrain_p_s_s_m_material_generator_1_1_s_m2_profile_1_1_shader_helper_cg.html#af37481d514eac4b4cf22db170c54756e" target="_top" xlink:title="Ogre::TerrainPSSMMaterial\lGenerator::SM2Profile::\lShaderHelperCg::generateFpHeader">
<polygon fill="white" stroke="black" points="603,-207.5 603,-248.5 776,-248.5 776,-207.5 603,-207.5"/>
<text text-anchor="start" x="611" y="-236.5" font-family="Helvetica,sans-Serif" font-size="10.00">Ogre::TerrainPSSMMaterial</text>
<text text-anchor="start" x="611" y="-225.5" font-family="Helvetica,sans-Serif" font-size="10.00">Generator::SM2Profile::</text>
<text text-anchor="middle" x="689.5" y="-214.5" font-family="Helvetica,sans-Serif" font-size="10.00">ShaderHelperCg::generateFpHeader</text>
</a>
</g>
</g>
<!-- Node100&#45;&gt;Node110 -->
<g id="edge20" class="edge"><title>Node100&#45;&gt;Node110</title>
<path fill="none" stroke="midnightblue" d="M359.19,-229.985C367.893,-230.402 376.635,-230.757 385,-231 458.476,-233.138 541.996,-232.055 602.796,-230.627"/>
<polygon fill="midnightblue" stroke="midnightblue" points="359.18,-226.481 349.016,-229.47 358.826,-233.472 359.18,-226.481"/>
</g>
<!-- Node111 -->
<g id="node13" class="node"><title>Node111</title>
<g id="a_node13"><a xlink:href="../../d7/d75/class_ogre_1_1_terrain_p_s_s_m_material_generator_1_1_s_m2_profile_1_1_shader_helper.html#a58cfb5926be52c179e363d577029b339" target="_top" xlink:title="Ogre::TerrainPSSMMaterial\lGenerator::SM2Profile::\lShaderHelper::defaultVpParams">
<polygon fill="white" stroke="black" points="392.5,-180.5 392.5,-221.5 547.5,-221.5 547.5,-180.5 392.5,-180.5"/>
<text text-anchor="start" x="400.5" y="-209.5" font-family="Helvetica,sans-Serif" font-size="10.00">Ogre::TerrainPSSMMaterial</text>
<text text-anchor="start" x="400.5" y="-198.5" font-family="Helvetica,sans-Serif" font-size="10.00">Generator::SM2Profile::</text>
<text text-anchor="middle" x="470" y="-187.5" font-family="Helvetica,sans-Serif" font-size="10.00">ShaderHelper::defaultVpParams</text>
</a>
</g>
</g>
<!-- Node100&#45;&gt;Node111 -->
<g id="edge15" class="edge"><title>Node100&#45;&gt;Node111</title>
<path fill="none" stroke="midnightblue" d="M359.495,-215.054C370.297,-213.668 381.394,-212.244 392.184,-210.859"/>
<polygon fill="midnightblue" stroke="midnightblue" points="358.72,-211.625 349.247,-216.369 359.611,-218.568 358.72,-211.625"/>
</g>
<!-- Node112 -->
<g id="node14" class="node"><title>Node112</title>
<g id="a_node14"><a xlink:href="../../d7/d75/class_ogre_1_1_terrain_p_s_s_m_material_generator_1_1_s_m2_profile_1_1_shader_helper.html#aec743e42050ab37db58c9385d4ce1010" target="_top" xlink:title="Ogre::TerrainPSSMMaterial\lGenerator::SM2Profile::\lShaderHelper::defaultFpParams">
<polygon fill="white" stroke="black" points="392.5,-120.5 392.5,-161.5 547.5,-161.5 547.5,-120.5 392.5,-120.5"/>
<text text-anchor="start" x="400.5" y="-149.5" font-family="Helvetica,sans-Serif" font-size="10.00">Ogre::TerrainPSSMMaterial</text>
<text text-anchor="start" x="400.5" y="-138.5" font-family="Helvetica,sans-Serif" font-size="10.00">Generator::SM2Profile::</text>
<text text-anchor="middle" x="470" y="-127.5" font-family="Helvetica,sans-Serif" font-size="10.00">ShaderHelper::defaultFpParams</text>
</a>
</g>
</g>
<!-- Node100&#45;&gt;Node112 -->
<g id="edge17" class="edge"><title>Node100&#45;&gt;Node112</title>
<path fill="none" stroke="midnightblue" d="M327.095,-199.611C344.868,-190.069 365.63,-179.487 385,-171 392.376,-167.768 400.221,-164.612 408.04,-161.633"/>
<polygon fill="midnightblue" stroke="midnightblue" points="325.22,-196.646 318.097,-204.489 328.556,-202.8 325.22,-196.646"/>
</g>
<!-- Node113 -->
<g id="node15" class="node"><title>Node113</title>
<g id="a_node15"><a xlink:href="../../dd/d33/class_ogre_1_1_terrain_p_s_s_m_material_generator_1_1_s_m2_profile_1_1_shader_helper_cg.html#a720c2f9ed6741b93b1f1480add7c19e6" target="_top" xlink:title="Ogre::TerrainPSSMMaterial\lGenerator::SM2Profile::\lShaderHelperCg::generateVpFooter">
<polygon fill="white" stroke="black" points="385,-60.5 385,-101.5 555,-101.5 555,-60.5 385,-60.5"/>
<text text-anchor="start" x="393" y="-89.5" font-family="Helvetica,sans-Serif" font-size="10.00">Ogre::TerrainPSSMMaterial</text>
<text text-anchor="start" x="393" y="-78.5" font-family="Helvetica,sans-Serif" font-size="10.00">Generator::SM2Profile::</text>
<text text-anchor="middle" x="470" y="-67.5" font-family="Helvetica,sans-Serif" font-size="10.00">ShaderHelperCg::generateVpFooter</text>
</a>
</g>
</g>
<!-- Node100&#45;&gt;Node113 -->
<g id="edge21" class="edge"><title>Node100&#45;&gt;Node113</title>
<path fill="none" stroke="midnightblue" d="M301.57,-196.269C320.309,-170.706 350.739,-133.917 385,-111 390.149,-107.556 395.739,-104.456 401.508,-101.677"/>
<polygon fill="midnightblue" stroke="midnightblue" points="298.668,-194.309 295.674,-204.472 304.352,-198.394 298.668,-194.309"/>
</g>
<!-- Node114 -->
<g id="node16" class="node"><title>Node114</title>
<g id="a_node16"><a xlink:href="../../dd/d33/class_ogre_1_1_terrain_p_s_s_m_material_generator_1_1_s_m2_profile_1_1_shader_helper_cg.html#a02b18b595fa75ef580b8f03cac726279" target="_top" xlink:title="Ogre::TerrainPSSMMaterial\lGenerator::SM2Profile::\lShaderHelperCg::generateFpFooter">
<polygon fill="white" stroke="black" points="385,-0.5 385,-41.5 555,-41.5 555,-0.5 385,-0.5"/>
<text text-anchor="start" x="393" y="-29.5" font-family="Helvetica,sans-Serif" font-size="10.00">Ogre::TerrainPSSMMaterial</text>
<text text-anchor="start" x="393" y="-18.5" font-family="Helvetica,sans-Serif" font-size="10.00">Generator::SM2Profile::</text>
<text text-anchor="middle" x="470" y="-7.5" font-family="Helvetica,sans-Serif" font-size="10.00">ShaderHelperCg::generateFpFooter</text>
</a>
</g>
</g>
<!-- Node100&#45;&gt;Node114 -->
<g id="edge22" class="edge"><title>Node100&#45;&gt;Node114</title>
<path fill="none" stroke="midnightblue" d="M292.441,-194.812C307.245,-156.247 337.891,-89.8549 385,-51 389.301,-47.4529 394.053,-44.3101 399.045,-41.5281"/>
<polygon fill="midnightblue" stroke="midnightblue" points="289.064,-193.852 288.851,-204.445 295.623,-196.297 289.064,-193.852"/>
</g>
<!-- Node101&#45;&gt;Node102 -->
<g id="edge3" class="edge"><title>Node101&#45;&gt;Node102</title>
<path fill="none" stroke="midnightblue" d="M494.363,-382.659C511.69,-404.302 535.572,-434.967 555,-463 572.282,-487.936 566.974,-502.473 591,-521 599.976,-527.922 610.557,-533.257 621.381,-537.368"/>
<polygon fill="midnightblue" stroke="midnightblue" points="497.061,-380.429 488.066,-374.83 491.606,-384.816 497.061,-380.429"/>
</g>
<!-- Node105 -->
<g id="node7" class="node"><title>Node105</title>
<g id="a_node7"><a xlink:href="../../d7/d75/class_ogre_1_1_terrain_p_s_s_m_material_generator_1_1_s_m2_profile_1_1_shader_helper.html#a8d75e688e198777489e38fe9a8642853" target="_top" xlink:title="Ogre::TerrainPSSMMaterial\lGenerator::SM2Profile::\lShaderHelper::generateVertexProgram\lSource">
<polygon fill="white" stroke="black" points="597.5,-399 597.5,-451 781.5,-451 781.5,-399 597.5,-399"/>
<text text-anchor="start" x="605.5" y="-439" font-family="Helvetica,sans-Serif" font-size="10.00">Ogre::TerrainPSSMMaterial</text>
<text text-anchor="start" x="605.5" y="-428" font-family="Helvetica,sans-Serif" font-size="10.00">Generator::SM2Profile::</text>
<text text-anchor="start" x="605.5" y="-417" font-family="Helvetica,sans-Serif" font-size="10.00">ShaderHelper::generateVertexProgram</text>
<text text-anchor="middle" x="689.5" y="-406" font-family="Helvetica,sans-Serif" font-size="10.00">Source</text>
</a>
</g>
</g>
<!-- Node101&#45;&gt;Node105 -->
<g id="edge6" class="edge"><title>Node101&#45;&gt;Node105</title>
<path fill="none" stroke="midnightblue" d="M543.66,-377.719C564.529,-384.531 587.398,-391.997 608.674,-398.942"/>
<polygon fill="midnightblue" stroke="midnightblue" points="544.502,-374.312 533.91,-374.536 542.33,-380.967 544.502,-374.312"/>
</g>
<!-- Node107 -->
<g id="node9" class="node"><title>Node107</title>
<g id="a_node9"><a xlink:href="../../d7/d75/class_ogre_1_1_terrain_p_s_s_m_material_generator_1_1_s_m2_profile_1_1_shader_helper.html#a358ed3ca82844d3bf0c0c901e4904c95" target="_top" xlink:title="Ogre::TerrainPSSMMaterial\lGenerator::SM2Profile::\lShaderHelper::generateFragmentProgram\lSource">
<polygon fill="white" stroke="black" points="591,-328 591,-380 788,-380 788,-328 591,-328"/>
<text text-anchor="start" x="599" y="-368" font-family="Helvetica,sans-Serif" font-size="10.00">Ogre::TerrainPSSMMaterial</text>
<text text-anchor="start" x="599" y="-357" font-family="Helvetica,sans-Serif" font-size="10.00">Generator::SM2Profile::</text>
<text text-anchor="start" x="599" y="-346" font-family="Helvetica,sans-Serif" font-size="10.00">ShaderHelper::generateFragmentProgram</text>
<text text-anchor="middle" x="689.5" y="-335" font-family="Helvetica,sans-Serif" font-size="10.00">Source</text>
</a>
</g>
</g>
<!-- Node101&#45;&gt;Node107 -->
<g id="edge8" class="edge"><title>Node101&#45;&gt;Node107</title>
<path fill="none" stroke="midnightblue" d="M548.4,-354C562.166,-354 576.665,-354 590.906,-354"/>
<polygon fill="midnightblue" stroke="midnightblue" points="548.032,-350.5 538.032,-354 548.032,-357.5 548.032,-350.5"/>
</g>
<!-- Node108 -->
<g id="node10" class="node"><title>Node108</title>
<g id="a_node10"><a xlink:href="../../d7/d75/class_ogre_1_1_terrain_p_s_s_m_material_generator_1_1_s_m2_profile_1_1_shader_helper.html#a097f056863a7c0f6a23065bfed11d9f9" target="_top" xlink:title="Ogre::TerrainPSSMMaterial\lGenerator::SM2Profile::\lShaderHelper::updateVpParams">
<polygon fill="white" stroke="black" points="611.5,-470.5 611.5,-511.5 767.5,-511.5 767.5,-470.5 611.5,-470.5"/>
<text text-anchor="start" x="619.5" y="-499.5" font-family="Helvetica,sans-Serif" font-size="10.00">Ogre::TerrainPSSMMaterial</text>
<text text-anchor="start" x="619.5" y="-488.5" font-family="Helvetica,sans-Serif" font-size="10.00">Generator::SM2Profile::</text>
<text text-anchor="middle" x="689.5" y="-477.5" font-family="Helvetica,sans-Serif" font-size="10.00">ShaderHelper::updateVpParams</text>
</a>
</g>
</g>
<!-- Node101&#45;&gt;Node108 -->
<g id="edge10" class="edge"><title>Node101&#45;&gt;Node108</title>
<path fill="none" stroke="midnightblue" d="M495.803,-382.078C518.436,-406.128 553.921,-440.096 591,-461 597.402,-464.609 604.291,-467.837 611.341,-470.712"/>
<polygon fill="midnightblue" stroke="midnightblue" points="498.283,-379.606 488.92,-374.647 493.148,-384.362 498.283,-379.606"/>
</g>
<!-- Node101&#45;&gt;Node109 -->
<g id="edge12" class="edge"><title>Node101&#45;&gt;Node109</title>
<path fill="none" stroke="midnightblue" d="M547.755,-330.709C571.623,-323.466 597.748,-315.539 620.94,-308.501"/>
<polygon fill="midnightblue" stroke="midnightblue" points="546.585,-327.406 538.032,-333.659 548.617,-334.105 546.585,-327.406"/>
</g>
<!-- Node101&#45;&gt;Node110 -->
<g id="edge13" class="edge"><title>Node101&#45;&gt;Node110</title>
<path fill="none" stroke="midnightblue" d="M499.146,-326.342C522.172,-305.054 556.464,-276.271 591,-258 597.575,-254.522 604.617,-251.377 611.795,-248.55"/>
<polygon fill="midnightblue" stroke="midnightblue" points="496.683,-323.854 491.785,-333.249 501.472,-328.959 496.683,-323.854"/>
</g>
<!-- Node103 -->
<g id="node5" class="node"><title>Node103</title>
<g id="a_node5"><a xlink:href="../../d5/d2c/class_ogre_1_1_terrain_p_s_s_m_material_generator_1_1_s_m2_profile.html#ab6033379000abdc69e506ac4aa334c48" target="_top" xlink:title="Ogre::TerrainPSSMMaterial\lGenerator::SM2Profile::\lgenerate">
<polygon fill="white" stroke="black" points="829,-500.5 829,-541.5 965,-541.5 965,-500.5 829,-500.5"/>
<text text-anchor="start" x="837" y="-529.5" font-family="Helvetica,sans-Serif" font-size="10.00">Ogre::TerrainPSSMMaterial</text>
<text text-anchor="start" x="837" y="-518.5" font-family="Helvetica,sans-Serif" font-size="10.00">Generator::SM2Profile::</text>
<text text-anchor="middle" x="897" y="-507.5" font-family="Helvetica,sans-Serif" font-size="10.00">generate</text>
</a>
</g>
</g>
<!-- Node102&#45;&gt;Node103 -->
<g id="edge4" class="edge"><title>Node102&#45;&gt;Node103</title>
<path fill="none" stroke="midnightblue" d="M767.56,-539.75C787.668,-536.815 809.179,-533.675 828.736,-530.82"/>
<polygon fill="midnightblue" stroke="midnightblue" points="766.894,-536.31 757.504,-541.218 767.905,-543.237 766.894,-536.31"/>
</g>
<!-- Node104 -->
<g id="node6" class="node"><title>Node104</title>
<g id="a_node6"><a xlink:href="../../d5/d2c/class_ogre_1_1_terrain_p_s_s_m_material_generator_1_1_s_m2_profile.html#aa4369031319a31c9b09a1f6368541fe9" target="_top" xlink:title="Ogre::TerrainPSSMMaterial\lGenerator::SM2Profile::\lgenerateForCompositeMap">
<polygon fill="white" stroke="black" points="829,-560.5 829,-601.5 965,-601.5 965,-560.5 829,-560.5"/>
<text text-anchor="start" x="837" y="-589.5" font-family="Helvetica,sans-Serif" font-size="10.00">Ogre::TerrainPSSMMaterial</text>
<text text-anchor="start" x="837" y="-578.5" font-family="Helvetica,sans-Serif" font-size="10.00">Generator::SM2Profile::</text>
<text text-anchor="middle" x="897" y="-567.5" font-family="Helvetica,sans-Serif" font-size="10.00">generateForCompositeMap</text>
</a>
</g>
</g>
<!-- Node102&#45;&gt;Node104 -->
<g id="edge5" class="edge"><title>Node102&#45;&gt;Node104</title>
<path fill="none" stroke="midnightblue" d="M767.56,-562.25C787.668,-565.185 809.179,-568.325 828.736,-571.18"/>
<polygon fill="midnightblue" stroke="midnightblue" points="767.905,-558.763 757.504,-560.782 766.894,-565.69 767.905,-558.763"/>
</g>
<!-- Node106 -->
<g id="node8" class="node"><title>Node106</title>
<g id="a_node8"><a xlink:href="../../d7/d75/class_ogre_1_1_terrain_p_s_s_m_material_generator_1_1_s_m2_profile_1_1_shader_helper.html#ab95641c2ba501d35606692caee36a3d1" target="_top" xlink:title="Ogre::TerrainPSSMMaterial\lGenerator::SM2Profile::\lShaderHelper::~ShaderHelper">
<polygon fill="white" stroke="black" points="824,-333.5 824,-374.5 970,-374.5 970,-333.5 824,-333.5"/>
<text text-anchor="start" x="832" y="-362.5" font-family="Helvetica,sans-Serif" font-size="10.00">Ogre::TerrainPSSMMaterial</text>
<text text-anchor="start" x="832" y="-351.5" font-family="Helvetica,sans-Serif" font-size="10.00">Generator::SM2Profile::</text>
<text text-anchor="middle" x="897" y="-340.5" font-family="Helvetica,sans-Serif" font-size="10.00">ShaderHelper::~ShaderHelper</text>
</a>
</g>
</g>
<!-- Node105&#45;&gt;Node106 -->
<g id="edge7" class="edge"><title>Node105&#45;&gt;Node106</title>
<path fill="none" stroke="midnightblue" d="M775.491,-395.636C795.958,-388.565 817.393,-381.159 836.416,-374.586"/>
<polygon fill="midnightblue" stroke="midnightblue" points="774.163,-392.392 765.854,-398.965 776.448,-399.008 774.163,-392.392"/>
</g>
<!-- Node107&#45;&gt;Node106 -->
<g id="edge9" class="edge"><title>Node107&#45;&gt;Node106</title>
<path fill="none" stroke="midnightblue" d="M798.278,-354C806.912,-354 815.5,-354 823.794,-354"/>
<polygon fill="midnightblue" stroke="midnightblue" points="798.134,-350.5 788.134,-354 798.134,-357.5 798.134,-350.5"/>
</g>
<!-- Node108&#45;&gt;Node106 -->
<g id="edge11" class="edge"><title>Node108&#45;&gt;Node106</title>
<path fill="none" stroke="midnightblue" d="M776.789,-467.033C780.653,-465.158 784.41,-463.15 788,-461 826.268,-438.081 861.077,-398.791 880.317,-374.733"/>
<polygon fill="midnightblue" stroke="midnightblue" points="775.29,-463.87 767.61,-471.17 778.165,-470.252 775.29,-463.87"/>
</g>
<!-- Node111&#45;&gt;Node106 -->
<g id="edge16" class="edge"><title>Node111&#45;&gt;Node106</title>
<path fill="none" stroke="midnightblue" d="M557.838,-178.98C624.63,-166.868 717.169,-160.888 788,-198 843.146,-226.894 875.732,-298.153 889.011,-333.474"/>
<polygon fill="midnightblue" stroke="midnightblue" points="556.936,-175.589 547.762,-180.889 558.239,-182.467 556.936,-175.589"/>
</g>
<!-- Node112&#45;&gt;Node106 -->
<g id="edge18" class="edge"><title>Node112&#45;&gt;Node106</title>
<path fill="none" stroke="midnightblue" d="M557.889,-127.075C625.741,-120.826 719.66,-122.77 788,-166 849.872,-205.139 880.07,-293.327 891.008,-333.44"/>
<polygon fill="midnightblue" stroke="midnightblue" points="557.256,-123.621 547.653,-128.098 557.951,-130.586 557.256,-123.621"/>
</g>
</g>
</svg>
