<?xml version="1.0" encoding="UTF-8" standalone="no"?>
<!DOCTYPE svg PUBLIC "-//W3C//DTD SVG 1.1//EN"
 "http://www.w3.org/Graphics/SVG/1.1/DTD/svg11.dtd">
<!-- Generated by graphviz version 2.38.0 (20140413.2041)
 -->
<!-- Title: Ogre::TerrainPSSMMaterialGenerator::SM2Profile::setReceiveDynamicShadowsDepth Pages: 1 -->
<!--zoomable 737 -->
<svg id="main" version="1.1" xmlns="http://www.w3.org/2000/svg" xmlns:xlink="http://www.w3.org/1999/xlink" xml:space="preserve" onload="init(evt)">
<style type="text/css"><![CDATA[
.edge:hover path { stroke: red; }
.edge:hover polygon { stroke: red; fill: red; }
]]></style>
<script type="text/javascript"><![CDATA[
var edges = document.getElementsByTagName('g');
if (edges && edges.length) {
  for (var i=0;i<edges.length;i++) {
    if (edges[i].id.substr(0,4)=='edge') {
      edges[i].setAttribute('class','edge');
    }
  }
}
]]></script>
        <defs>
                <circle id="rim" cx="0" cy="0" r="7"/>
                <circle id="rim2" cx="0" cy="0" r="3.5"/>
                <g id="zoomPlus">
                        <use xlink:href="#rim" fill="#404040">
                                <set attributeName="fill" to="#808080" begin="zoomplus.mouseover" end="zoomplus.mouseout"/>
                        </use>
                        <path d="M-4,0h8M0,-4v8" fill="none" stroke="white" stroke-width="1.5" pointer-events="none"/>
                </g>
                <g id="zoomMin">
                        <use xlink:href="#rim" fill="#404040">
                                <set attributeName="fill" to="#808080" begin="zoomminus.mouseover" end="zoomminus.mouseout"/>
                        </use>
                        <path d="M-4,0h8" fill="none" stroke="white" stroke-width="1.5" pointer-events="none"/>
                </g>
                <g id="dirArrow">
                        <path fill="none" stroke="white" stroke-width="1.5" d="M0,-3.0v7 M-2.5,-0.5L0,-3.0L2.5,-0.5"/>
                </g>
               <g id="resetDef">
                       <use xlink:href="#rim2" fill="#404040">
                               <set attributeName="fill" to="#808080" begin="reset.mouseover" end="reset.mouseout"/>
                       </use>
               </g>
        </defs>

<script type="text/javascript">
var viewWidth = 1698;
var viewHeight = 737;
var sectionId = 'dynsection-36';
</script>
<script xlink:href="../../svgpan.js"/>
<svg id="graph" class="graph">
<g id="viewport">
<title>Ogre::TerrainPSSMMaterialGenerator::SM2Profile::setReceiveDynamicShadowsDepth</title>
<polygon fill="white" stroke="none" points="-4,4 -4,-732.5 1694,-732.5 1694,4 -4,4"/>
<!-- Node296 -->
<g id="node1" class="node"><title>Node296</title>
<polygon fill="#bfbfbf" stroke="black" points="0,-503 0,-544 167,-544 167,-503 0,-503"/>
<text text-anchor="start" x="8" y="-532" font-family="Helvetica,sans-Serif" font-size="10.00">Ogre::TerrainPSSMMaterial</text>
<text text-anchor="start" x="8" y="-521" font-family="Helvetica,sans-Serif" font-size="10.00">Generator::SM2Profile::</text>
<text text-anchor="middle" x="83.5" y="-510" font-family="Helvetica,sans-Serif" font-size="10.00">setReceiveDynamicShadowsDepth</text>
</g>
<!-- Node297 -->
<g id="node2" class="node"><title>Node297</title>
<g id="a_node2"><a xlink:href="../../d2/d00/class_shadow_manager.html#aaebfcba335db80b37e75fdac3518e5eb" target="_top" xlink:title="ShadowManager::updateTerrain\lMaterial">
<polygon fill="white" stroke="black" points="211.5,-552.5 211.5,-582.5 364.5,-582.5 364.5,-552.5 211.5,-552.5"/>
<text text-anchor="start" x="219.5" y="-570.5" font-family="Helvetica,sans-Serif" font-size="10.00">ShadowManager::updateTerrain</text>
<text text-anchor="middle" x="288" y="-559.5" font-family="Helvetica,sans-Serif" font-size="10.00">Material</text>
</a>
</g>
</g>
<!-- Node296&#45;&gt;Node297 -->
<g id="edge1" class="edge"><title>Node296&#45;&gt;Node297</title>
<path fill="none" stroke="midnightblue" d="M177.092,-543.619C190.807,-546.599 204.737,-549.626 217.863,-552.478"/>
<polygon fill="midnightblue" stroke="midnightblue" points="177.672,-540.163 167.157,-541.46 176.185,-547.004 177.672,-540.163"/>
</g>
<!-- Node298 -->
<g id="node3" class="node"><title>Node298</title>
<g id="a_node3"><a xlink:href="../../d2/d9a/class_terrain_geometry_manager.html#a10e78d511f72ed2ba109ff691cdc0ffb" target="_top" xlink:title="TerrainGeometryManager\l::configureTerrainDefaults">
<polygon fill="white" stroke="black" points="436.5,-552.5 436.5,-582.5 562.5,-582.5 562.5,-552.5 436.5,-552.5"/>
<text text-anchor="start" x="444.5" y="-570.5" font-family="Helvetica,sans-Serif" font-size="10.00">TerrainGeometryManager</text>
<text text-anchor="middle" x="499.5" y="-559.5" font-family="Helvetica,sans-Serif" font-size="10.00">::configureTerrainDefaults</text>
</a>
</g>
</g>
<!-- Node296&#45;&gt;Node298 -->
<g id="edge35" class="edge"><title>Node296&#45;&gt;Node298</title>
<path fill="none" stroke="midnightblue" d="M177.169,-527.1C233.882,-530.003 307.83,-535.041 373,-543.5 393.789,-546.198 416.331,-550.175 436.499,-554.118"/>
<polygon fill="midnightblue" stroke="midnightblue" points="177.308,-523.603 167.146,-526.6 176.959,-530.594 177.308,-523.603"/>
</g>
<!-- Node306 -->
<g id="node11" class="node"><title>Node306</title>
<g id="a_node11"><a xlink:href="../../d5/d2c/class_ogre_1_1_terrain_p_s_s_m_material_generator_1_1_s_m2_profile.html#af6ac722b9eac040437001d86a6873b94" target="_top" xlink:title="Ogre::TerrainPSSMMaterial\lGenerator::SM2Profile::\lgetReceiveDynamicShadowsPSSM">
<polygon fill="white" stroke="black" points="203,-356 203,-397 373,-397 373,-356 203,-356"/>
<text text-anchor="start" x="211" y="-385" font-family="Helvetica,sans-Serif" font-size="10.00">Ogre::TerrainPSSMMaterial</text>
<text text-anchor="start" x="211" y="-374" font-family="Helvetica,sans-Serif" font-size="10.00">Generator::SM2Profile::</text>
<text text-anchor="middle" x="288" y="-363" font-family="Helvetica,sans-Serif" font-size="10.00">getReceiveDynamicShadowsPSSM</text>
</a>
</g>
</g>
<!-- Node296&#45;&gt;Node306 -->
<g id="edge11" class="edge"><title>Node296&#45;&gt;Node306</title>
<path fill="none" stroke="midnightblue" d="M121.646,-496.535C161.144,-467.862 222.751,-423.14 258.562,-397.144"/>
<polygon fill="midnightblue" stroke="midnightblue" points="119.12,-494.043 113.084,-502.75 123.232,-499.708 119.12,-494.043"/>
</g>
<!-- Node297&#45;&gt;Node298 -->
<g id="edge2" class="edge"><title>Node297&#45;&gt;Node298</title>
<path fill="none" stroke="midnightblue" d="M374.685,-567.5C395.356,-567.5 417.052,-567.5 436.405,-567.5"/>
<polygon fill="midnightblue" stroke="midnightblue" points="374.634,-564 364.634,-567.5 374.634,-571 374.634,-564"/>
</g>
<!-- Node299 -->
<g id="node4" class="node"><title>Node299</title>
<g id="a_node4"><a xlink:href="../../d2/d9a/class_terrain_geometry_manager.html#a1be850a57cfa62aca477b22c8aee0607" target="_top" xlink:title="TerrainGeometryManager\l::InitTerrain">
<polygon fill="white" stroke="black" points="661.5,-684.5 661.5,-714.5 787.5,-714.5 787.5,-684.5 661.5,-684.5"/>
<text text-anchor="start" x="669.5" y="-702.5" font-family="Helvetica,sans-Serif" font-size="10.00">TerrainGeometryManager</text>
<text text-anchor="middle" x="724.5" y="-691.5" font-family="Helvetica,sans-Serif" font-size="10.00">::InitTerrain</text>
</a>
</g>
</g>
<!-- Node298&#45;&gt;Node299 -->
<g id="edge3" class="edge"><title>Node298&#45;&gt;Node299</title>
<path fill="none" stroke="midnightblue" d="M520.848,-590.146C543.987,-614.525 584.03,-652.73 626,-674.5 636.936,-680.173 649.243,-684.617 661.337,-688.079"/>
<polygon fill="midnightblue" stroke="midnightblue" points="523.331,-587.676 513.948,-582.754 518.214,-592.453 523.331,-587.676"/>
</g>
<!-- Node300 -->
<g id="node5" class="node"><title>Node300</title>
<g id="a_node5"><a xlink:href="../../d3/d16/class_terrain_manager.html#a9a04c837bf2ea6528c465b27ca62f730" target="_top" xlink:title="TerrainManager::loadTerrain">
<polygon fill="white" stroke="black" points="863.5,-690 863.5,-709 1000.5,-709 1000.5,-690 863.5,-690"/>
<text text-anchor="middle" x="932" y="-697" font-family="Helvetica,sans-Serif" font-size="10.00">TerrainManager::loadTerrain</text>
</a>
</g>
</g>
<!-- Node299&#45;&gt;Node300 -->
<g id="edge4" class="edge"><title>Node299&#45;&gt;Node300</title>
<path fill="none" stroke="midnightblue" d="M797.97,-699.5C819.207,-699.5 842.339,-699.5 863.269,-699.5"/>
<polygon fill="midnightblue" stroke="midnightblue" points="797.714,-696 787.714,-699.5 797.714,-703 797.714,-696"/>
</g>
<!-- Node301 -->
<g id="node6" class="node"><title>Node301</title>
<g id="a_node6"><a xlink:href="../../dd/dbe/class_ro_r_frame_listener.html#a9757c059e840019a3e2659d5ef63ea02" target="_top" xlink:title="Reads GVar &#39;sim_terrain_pending&#39;. ">
<polygon fill="white" stroke="black" points="1041,-690 1041,-709 1195,-709 1195,-690 1041,-690"/>
<text text-anchor="middle" x="1118" y="-697" font-family="Helvetica,sans-Serif" font-size="10.00">RoRFrameListener::LoadTerrain</text>
</a>
</g>
</g>
<!-- Node300&#45;&gt;Node301 -->
<g id="edge5" class="edge"><title>Node300&#45;&gt;Node301</title>
<path fill="none" stroke="midnightblue" d="M1010.92,-699.5C1020.78,-699.5 1030.88,-699.5 1040.72,-699.5"/>
<polygon fill="midnightblue" stroke="midnightblue" points="1010.73,-696 1000.73,-699.5 1010.73,-703 1010.73,-696"/>
</g>
<!-- Node302 -->
<g id="node7" class="node"><title>Node302</title>
<g id="a_node7"><a xlink:href="../../dd/dbe/class_ro_r_frame_listener.html#aca3931d7a75f2ad4b9d36c4fcd03a3c9" target="_top" xlink:title="RoRFrameListener::SetupGameplayLoop">
<polygon fill="white" stroke="black" points="1231,-671 1231,-690 1425,-690 1425,-671 1231,-671"/>
<text text-anchor="middle" x="1328" y="-678" font-family="Helvetica,sans-Serif" font-size="10.00">RoRFrameListener::SetupGameplayLoop</text>
</a>
</g>
</g>
<!-- Node301&#45;&gt;Node302 -->
<g id="edge6" class="edge"><title>Node301&#45;&gt;Node302</title>
<path fill="none" stroke="midnightblue" d="M1205.43,-691.605C1213.84,-690.836 1222.41,-690.054 1230.91,-689.278"/>
<polygon fill="midnightblue" stroke="midnightblue" points="1204.91,-688.138 1195.27,-692.533 1205.55,-695.109 1204.91,-688.138"/>
</g>
<!-- Node303 -->
<g id="node8" class="node"><title>Node303</title>
<g id="a_node8"><a xlink:href="../../dd/dbe/class_ro_r_frame_listener.html#ad598075b5f183208c0de43b9248bb44b" target="_top" xlink:title="RoRFrameListener::getTime">
<polygon fill="white" stroke="black" points="1461,-709 1461,-728 1599,-728 1599,-709 1461,-709"/>
<text text-anchor="middle" x="1530" y="-716" font-family="Helvetica,sans-Serif" font-size="10.00">RoRFrameListener::getTime</text>
</a>
</g>
</g>
<!-- Node301&#45;&gt;Node303 -->
<g id="edge10" class="edge"><title>Node301&#45;&gt;Node303</title>
<path fill="none" stroke="midnightblue" d="M1205.19,-703.494C1281.25,-707.019 1390.62,-712.087 1460.74,-715.337"/>
<polygon fill="midnightblue" stroke="midnightblue" points="1205.31,-699.996 1195.16,-703.029 1204.98,-706.988 1205.31,-699.996"/>
</g>
<!-- Node302&#45;&gt;Node303 -->
<g id="edge7" class="edge"><title>Node302&#45;&gt;Node303</title>
<path fill="none" stroke="midnightblue" d="M1389.1,-691.918C1417.71,-697.355 1451.54,-703.783 1478.77,-708.956"/>
<polygon fill="midnightblue" stroke="midnightblue" points="1389.69,-688.468 1379.21,-690.04 1388.38,-695.345 1389.69,-688.468"/>
</g>
<!-- Node304 -->
<g id="node9" class="node"><title>Node304</title>
<g id="a_node9"><a xlink:href="../../df/d0a/main_8cpp.html#a0ddf1224851353fc92bfbff6f499fa97" target="_top" xlink:title="main">
<polygon fill="white" stroke="black" points="1511,-671 1511,-690 1549,-690 1549,-671 1511,-671"/>
<text text-anchor="middle" x="1530" y="-678" font-family="Helvetica,sans-Serif" font-size="10.00">main</text>
</a>
</g>
</g>
<!-- Node302&#45;&gt;Node304 -->
<g id="edge8" class="edge"><title>Node302&#45;&gt;Node304</title>
<path fill="none" stroke="midnightblue" d="M1435.52,-680.5C1464.66,-680.5 1493.07,-680.5 1510.77,-680.5"/>
<polygon fill="midnightblue" stroke="midnightblue" points="1435.19,-677 1425.19,-680.5 1435.19,-684 1435.19,-677"/>
</g>
<!-- Node305 -->
<g id="node10" class="node"><title>Node305</title>
<g id="a_node10"><a xlink:href="../../df/d0a/main_8cpp.html#a2922bc5d5c2d77a3020cfbf9df12aab0" target="_top" xlink:title="WinMain">
<polygon fill="white" stroke="black" points="1635,-671 1635,-690 1690,-690 1690,-671 1635,-671"/>
<text text-anchor="middle" x="1662.5" y="-678" font-family="Helvetica,sans-Serif" font-size="10.00">WinMain</text>
</a>
</g>
</g>
<!-- Node304&#45;&gt;Node305 -->
<g id="edge9" class="edge"><title>Node304&#45;&gt;Node305</title>
<path fill="none" stroke="midnightblue" d="M1559.39,-680.5C1581.84,-680.5 1612.96,-680.5 1634.92,-680.5"/>
<polygon fill="midnightblue" stroke="midnightblue" points="1559.15,-677 1549.15,-680.5 1559.15,-684 1559.15,-677"/>
</g>
<!-- Node306&#45;&gt;Node298 -->
<g id="edge34" class="edge"><title>Node306&#45;&gt;Node298</title>
<path fill="none" stroke="midnightblue" d="M303.867,-406.269C323.31,-442.302 360.664,-502.49 409,-537.5 417.361,-543.556 427.028,-548.449 436.85,-552.383"/>
<polygon fill="midnightblue" stroke="midnightblue" points="306.854,-404.43 299.088,-397.223 300.664,-407.7 306.854,-404.43"/>
</g>
<!-- Node307 -->
<g id="node12" class="node"><title>Node307</title>
<g id="a_node12"><a xlink:href="../../d5/d2c/class_ogre_1_1_terrain_p_s_s_m_material_generator_1_1_s_m2_profile.html#a83a9b6ede174cd1daeda016f64f4a5c8" target="_top" xlink:title="Ogre::TerrainPSSMMaterial\lGenerator::SM2Profile::\lgetMaxLayers">
<polygon fill="white" stroke="black" points="431.5,-454 431.5,-495 567.5,-495 567.5,-454 431.5,-454"/>
<text text-anchor="start" x="439.5" y="-483" font-family="Helvetica,sans-Serif" font-size="10.00">Ogre::TerrainPSSMMaterial</text>
<text text-anchor="start" x="439.5" y="-472" font-family="Helvetica,sans-Serif" font-size="10.00">Generator::SM2Profile::</text>
<text text-anchor="middle" x="499.5" y="-461" font-family="Helvetica,sans-Serif" font-size="10.00">getMaxLayers</text>
</a>
</g>
</g>
<!-- Node306&#45;&gt;Node307 -->
<g id="edge12" class="edge"><title>Node306&#45;&gt;Node307</title>
<path fill="none" stroke="midnightblue" d="M334.374,-401.839C356.581,-413.849 383.883,-428.038 409,-439.5 419.928,-444.487 431.789,-449.437 443.193,-453.977"/>
<polygon fill="midnightblue" stroke="midnightblue" points="335.961,-398.718 325.504,-397.013 332.615,-404.867 335.961,-398.718"/>
</g>
<!-- Node308 -->
<g id="node13" class="node"><title>Node308</title>
<g id="a_node13"><a xlink:href="../../d5/d2c/class_ogre_1_1_terrain_p_s_s_m_material_generator_1_1_s_m2_profile.html#ade0d9bf2c7fda529bbb03eb247ffe1e9" target="_top" xlink:title="Ogre::TerrainPSSMMaterial\lGenerator::SM2Profile::\laddTechnique">
<polygon fill="white" stroke="black" points="656.5,-624 656.5,-665 792.5,-665 792.5,-624 656.5,-624"/>
<text text-anchor="start" x="664.5" y="-653" font-family="Helvetica,sans-Serif" font-size="10.00">Ogre::TerrainPSSMMaterial</text>
<text text-anchor="start" x="664.5" y="-642" font-family="Helvetica,sans-Serif" font-size="10.00">Generator::SM2Profile::</text>
<text text-anchor="middle" x="724.5" y="-631" font-family="Helvetica,sans-Serif" font-size="10.00">addTechnique</text>
</a>
</g>
</g>
<!-- Node306&#45;&gt;Node308 -->
<g id="edge24" class="edge"><title>Node306&#45;&gt;Node308</title>
<path fill="none" stroke="midnightblue" d="M308.282,-405.766C329.403,-435.391 366.051,-480.197 409,-504.5 480.62,-545.026 524.834,-493.249 590,-543.5 618.018,-565.105 598.94,-591.707 626,-614.5 634.804,-621.916 645.424,-627.5 656.368,-631.705"/>
<polygon fill="midnightblue" stroke="midnightblue" points="311.084,-403.666 302.49,-397.471 305.345,-407.674 311.084,-403.666"/>
</g>
<!-- Node317 -->
<g id="node22" class="node"><title>Node317</title>
<g id="a_node22"><a xlink:href="../../d7/d75/class_ogre_1_1_terrain_p_s_s_m_material_generator_1_1_s_m2_profile_1_1_shader_helper.html#a58cfb5926be52c179e363d577029b339" target="_top" xlink:title="Ogre::TerrainPSSMMaterial\lGenerator::SM2Profile::\lShaderHelper::defaultVpParams">
<polygon fill="white" stroke="black" points="647,-241 647,-282 802,-282 802,-241 647,-241"/>
<text text-anchor="start" x="655" y="-270" font-family="Helvetica,sans-Serif" font-size="10.00">Ogre::TerrainPSSMMaterial</text>
<text text-anchor="start" x="655" y="-259" font-family="Helvetica,sans-Serif" font-size="10.00">Generator::SM2Profile::</text>
<text text-anchor="middle" x="724.5" y="-248" font-family="Helvetica,sans-Serif" font-size="10.00">ShaderHelper::defaultVpParams</text>
</a>
</g>
</g>
<!-- Node306&#45;&gt;Node317 -->
<g id="edge25" class="edge"><title>Node306&#45;&gt;Node317</title>
<path fill="none" stroke="midnightblue" d="M340.593,-400.995C405.383,-427.776 516.892,-460.221 590,-406.5 633.158,-374.787 588.037,-329.278 626,-291.5 632.026,-285.504 639.22,-280.701 646.932,-276.856"/>
<polygon fill="midnightblue" stroke="midnightblue" points="341.957,-397.772 331.383,-397.096 339.227,-404.218 341.957,-397.772"/>
</g>
<!-- Node318 -->
<g id="node23" class="node"><title>Node318</title>
<g id="a_node23"><a xlink:href="../../d7/d75/class_ogre_1_1_terrain_p_s_s_m_material_generator_1_1_s_m2_profile_1_1_shader_helper.html#aec743e42050ab37db58c9385d4ce1010" target="_top" xlink:title="Ogre::TerrainPSSMMaterial\lGenerator::SM2Profile::\lShaderHelper::defaultFpParams">
<polygon fill="white" stroke="black" points="422,-356 422,-397 577,-397 577,-356 422,-356"/>
<text text-anchor="start" x="430" y="-385" font-family="Helvetica,sans-Serif" font-size="10.00">Ogre::TerrainPSSMMaterial</text>
<text text-anchor="start" x="430" y="-374" font-family="Helvetica,sans-Serif" font-size="10.00">Generator::SM2Profile::</text>
<text text-anchor="middle" x="499.5" y="-363" font-family="Helvetica,sans-Serif" font-size="10.00">ShaderHelper::defaultFpParams</text>
</a>
</g>
</g>
<!-- Node306&#45;&gt;Node318 -->
<g id="edge27" class="edge"><title>Node306&#45;&gt;Node318</title>
<path fill="none" stroke="midnightblue" d="M383.31,-376.5C396.237,-376.5 409.378,-376.5 421.935,-376.5"/>
<polygon fill="midnightblue" stroke="midnightblue" points="383.005,-373 373.005,-376.5 383.005,-380 383.005,-373"/>
</g>
<!-- Node319 -->
<g id="node24" class="node"><title>Node319</title>
<g id="a_node24"><a xlink:href="../../dd/d33/class_ogre_1_1_terrain_p_s_s_m_material_generator_1_1_s_m2_profile_1_1_shader_helper_cg.html#af0951aad9d95e4b3240b880bb9a30b37" target="_top" xlink:title="Ogre::TerrainPSSMMaterial\lGenerator::SM2Profile::\lShaderHelperCg::generateFpDynamic\lShadowsHelpers">
<polygon fill="white" stroke="black" points="409.5,-284.5 409.5,-336.5 589.5,-336.5 589.5,-284.5 409.5,-284.5"/>
<text text-anchor="start" x="417.5" y="-324.5" font-family="Helvetica,sans-Serif" font-size="10.00">Ogre::TerrainPSSMMaterial</text>
<text text-anchor="start" x="417.5" y="-313.5" font-family="Helvetica,sans-Serif" font-size="10.00">Generator::SM2Profile::</text>
<text text-anchor="start" x="417.5" y="-302.5" font-family="Helvetica,sans-Serif" font-size="10.00">ShaderHelperCg::generateFpDynamic</text>
<text text-anchor="middle" x="499.5" y="-291.5" font-family="Helvetica,sans-Serif" font-size="10.00">ShadowsHelpers</text>
</a>
</g>
</g>
<!-- Node306&#45;&gt;Node319 -->
<g id="edge29" class="edge"><title>Node306&#45;&gt;Node319</title>
<path fill="none" stroke="midnightblue" d="M363.874,-352.912C380.653,-347.626 398.547,-341.989 415.63,-336.607"/>
<polygon fill="midnightblue" stroke="midnightblue" points="362.625,-349.636 354.139,-355.979 364.728,-356.312 362.625,-349.636"/>
</g>
<!-- Node320 -->
<g id="node25" class="node"><title>Node320</title>
<g id="a_node25"><a xlink:href="../../dd/d33/class_ogre_1_1_terrain_p_s_s_m_material_generator_1_1_s_m2_profile_1_1_shader_helper_cg.html#acfc0158db39ee5097e9060bbfaaa1c2f" target="_top" xlink:title="Ogre::TerrainPSSMMaterial\lGenerator::SM2Profile::\lShaderHelperCg::generateVpDynamic\lShadowsParams">
<polygon fill="white" stroke="black" points="409,-213.5 409,-265.5 590,-265.5 590,-213.5 409,-213.5"/>
<text text-anchor="start" x="417" y="-253.5" font-family="Helvetica,sans-Serif" font-size="10.00">Ogre::TerrainPSSMMaterial</text>
<text text-anchor="start" x="417" y="-242.5" font-family="Helvetica,sans-Serif" font-size="10.00">Generator::SM2Profile::</text>
<text text-anchor="start" x="417" y="-231.5" font-family="Helvetica,sans-Serif" font-size="10.00">ShaderHelperCg::generateVpDynamic</text>
<text text-anchor="middle" x="499.5" y="-220.5" font-family="Helvetica,sans-Serif" font-size="10.00">ShadowsParams</text>
</a>
</g>
</g>
<!-- Node306&#45;&gt;Node320 -->
<g id="edge30" class="edge"><title>Node306&#45;&gt;Node320</title>
<path fill="none" stroke="midnightblue" d="M316.391,-348.549C339.47,-326.207 374.206,-295.292 409,-274.5 414.299,-271.333 419.936,-268.351 425.702,-265.566"/>
<polygon fill="midnightblue" stroke="midnightblue" points="313.717,-346.269 309.028,-355.77 318.619,-351.267 313.717,-346.269"/>
</g>
<!-- Node321 -->
<g id="node26" class="node"><title>Node321</title>
<g id="a_node26"><a xlink:href="../../dd/d33/class_ogre_1_1_terrain_p_s_s_m_material_generator_1_1_s_m2_profile_1_1_shader_helper_cg.html#a17bcd9deb7fd16731c2059ad21dfed82" target="_top" xlink:title="Ogre::TerrainPSSMMaterial\lGenerator::SM2Profile::\lShaderHelperCg::generateVpDynamic\lShadows">
<polygon fill="white" stroke="black" points="409,-142.5 409,-194.5 590,-194.5 590,-142.5 409,-142.5"/>
<text text-anchor="start" x="417" y="-182.5" font-family="Helvetica,sans-Serif" font-size="10.00">Ogre::TerrainPSSMMaterial</text>
<text text-anchor="start" x="417" y="-171.5" font-family="Helvetica,sans-Serif" font-size="10.00">Generator::SM2Profile::</text>
<text text-anchor="start" x="417" y="-160.5" font-family="Helvetica,sans-Serif" font-size="10.00">ShaderHelperCg::generateVpDynamic</text>
<text text-anchor="middle" x="499.5" y="-149.5" font-family="Helvetica,sans-Serif" font-size="10.00">Shadows</text>
</a>
</g>
</g>
<!-- Node306&#45;&gt;Node321 -->
<g id="edge31" class="edge"><title>Node306&#45;&gt;Node321</title>
<path fill="none" stroke="midnightblue" d="M302.61,-346.91C321.489,-308.855 359.023,-242.977 409,-203.5 413.059,-200.294 417.447,-197.351 422.025,-194.655"/>
<polygon fill="midnightblue" stroke="midnightblue" points="299.439,-345.429 298.216,-355.953 305.735,-348.488 299.439,-345.429"/>
</g>
<!-- Node322 -->
<g id="node27" class="node"><title>Node322</title>
<g id="a_node27"><a xlink:href="../../dd/d33/class_ogre_1_1_terrain_p_s_s_m_material_generator_1_1_s_m2_profile_1_1_shader_helper_cg.html#ad44c32874a92e33542be11e9b1ac9ae9" target="_top" xlink:title="Ogre::TerrainPSSMMaterial\lGenerator::SM2Profile::\lShaderHelperCg::generateFpDynamic\lShadowsParams">
<polygon fill="white" stroke="black" points="409.5,-71.5 409.5,-123.5 589.5,-123.5 589.5,-71.5 409.5,-71.5"/>
<text text-anchor="start" x="417.5" y="-111.5" font-family="Helvetica,sans-Serif" font-size="10.00">Ogre::TerrainPSSMMaterial</text>
<text text-anchor="start" x="417.5" y="-100.5" font-family="Helvetica,sans-Serif" font-size="10.00">Generator::SM2Profile::</text>
<text text-anchor="start" x="417.5" y="-89.5" font-family="Helvetica,sans-Serif" font-size="10.00">ShaderHelperCg::generateFpDynamic</text>
<text text-anchor="middle" x="499.5" y="-78.5" font-family="Helvetica,sans-Serif" font-size="10.00">ShadowsParams</text>
</a>
</g>
</g>
<!-- Node306&#45;&gt;Node322 -->
<g id="edge32" class="edge"><title>Node306&#45;&gt;Node322</title>
<path fill="none" stroke="midnightblue" d="M296.264,-345.986C309.893,-295.016 343.966,-192.271 409,-132.5 412.562,-129.226 416.466,-126.245 420.588,-123.531"/>
<polygon fill="midnightblue" stroke="midnightblue" points="292.854,-345.194 293.735,-355.752 299.631,-346.949 292.854,-345.194"/>
</g>
<!-- Node323 -->
<g id="node28" class="node"><title>Node323</title>
<g id="a_node28"><a xlink:href="../../dd/d33/class_ogre_1_1_terrain_p_s_s_m_material_generator_1_1_s_m2_profile_1_1_shader_helper_cg.html#a1d480fb22fb38bdcce27d02b982bcdd2" target="_top" xlink:title="Ogre::TerrainPSSMMaterial\lGenerator::SM2Profile::\lShaderHelperCg::generateFpDynamic\lShadows">
<polygon fill="white" stroke="black" points="409.5,-0.5 409.5,-52.5 589.5,-52.5 589.5,-0.5 409.5,-0.5"/>
<text text-anchor="start" x="417.5" y="-40.5" font-family="Helvetica,sans-Serif" font-size="10.00">Ogre::TerrainPSSMMaterial</text>
<text text-anchor="start" x="417.5" y="-29.5" font-family="Helvetica,sans-Serif" font-size="10.00">Generator::SM2Profile::</text>
<text text-anchor="start" x="417.5" y="-18.5" font-family="Helvetica,sans-Serif" font-size="10.00">ShaderHelperCg::generateFpDynamic</text>
<text text-anchor="middle" x="499.5" y="-7.5" font-family="Helvetica,sans-Serif" font-size="10.00">Shadows</text>
</a>
</g>
</g>
<!-- Node306&#45;&gt;Node323 -->
<g id="edge33" class="edge"><title>Node306&#45;&gt;Node323</title>
<path fill="none" stroke="midnightblue" d="M292.42,-345.822C300.897,-283.871 328.383,-142.829 409,-61.5 412.171,-58.3007 415.669,-55.387 419.389,-52.7341"/>
<polygon fill="midnightblue" stroke="midnightblue" points="288.947,-345.386 291.133,-355.752 295.889,-346.285 288.947,-345.386"/>
</g>
<!-- Node307&#45;&gt;Node308 -->
<g id="edge13" class="edge"><title>Node307&#45;&gt;Node308</title>
<path fill="none" stroke="midnightblue" d="M576.306,-498.225C581.289,-501.517 585.932,-505.256 590,-509.5 624.135,-545.117 590.566,-580.175 626,-614.5 634.523,-622.756 645.263,-628.745 656.476,-633.089"/>
<polygon fill="midnightblue" stroke="midnightblue" points="578.028,-495.177 567.639,-493.095 574.462,-501.201 578.028,-495.177"/>
</g>
<!-- Node311 -->
<g id="node16" class="node"><title>Node311</title>
<g id="a_node16"><a xlink:href="../../d7/d75/class_ogre_1_1_terrain_p_s_s_m_material_generator_1_1_s_m2_profile_1_1_shader_helper.html#a8d75e688e198777489e38fe9a8642853" target="_top" xlink:title="Ogre::TerrainPSSMMaterial\lGenerator::SM2Profile::\lShaderHelper::generateVertexProgram\lSource">
<polygon fill="white" stroke="black" points="632.5,-552.5 632.5,-604.5 816.5,-604.5 816.5,-552.5 632.5,-552.5"/>
<text text-anchor="start" x="640.5" y="-592.5" font-family="Helvetica,sans-Serif" font-size="10.00">Ogre::TerrainPSSMMaterial</text>
<text text-anchor="start" x="640.5" y="-581.5" font-family="Helvetica,sans-Serif" font-size="10.00">Generator::SM2Profile::</text>
<text text-anchor="start" x="640.5" y="-570.5" font-family="Helvetica,sans-Serif" font-size="10.00">ShaderHelper::generateVertexProgram</text>
<text text-anchor="middle" x="724.5" y="-559.5" font-family="Helvetica,sans-Serif" font-size="10.00">Source</text>
</a>
</g>
</g>
<!-- Node307&#45;&gt;Node311 -->
<g id="edge16" class="edge"><title>Node307&#45;&gt;Node311</title>
<path fill="none" stroke="midnightblue" d="M571.629,-499.35C578.004,-502.455 584.224,-505.84 590,-509.5 608.59,-521.28 607.246,-531.983 626,-543.5 631.211,-546.7 636.757,-549.667 642.458,-552.407"/>
<polygon fill="midnightblue" stroke="midnightblue" points="572.759,-496.017 562.213,-495.003 569.825,-502.373 572.759,-496.017"/>
</g>
<!-- Node313 -->
<g id="node18" class="node"><title>Node313</title>
<g id="a_node18"><a xlink:href="../../d7/d75/class_ogre_1_1_terrain_p_s_s_m_material_generator_1_1_s_m2_profile_1_1_shader_helper.html#a358ed3ca82844d3bf0c0c901e4904c95" target="_top" xlink:title="Ogre::TerrainPSSMMaterial\lGenerator::SM2Profile::\lShaderHelper::generateFragmentProgram\lSource">
<polygon fill="white" stroke="black" points="626,-481.5 626,-533.5 823,-533.5 823,-481.5 626,-481.5"/>
<text text-anchor="start" x="634" y="-521.5" font-family="Helvetica,sans-Serif" font-size="10.00">Ogre::TerrainPSSMMaterial</text>
<text text-anchor="start" x="634" y="-510.5" font-family="Helvetica,sans-Serif" font-size="10.00">Generator::SM2Profile::</text>
<text text-anchor="start" x="634" y="-499.5" font-family="Helvetica,sans-Serif" font-size="10.00">ShaderHelper::generateFragmentProgram</text>
<text text-anchor="middle" x="724.5" y="-488.5" font-family="Helvetica,sans-Serif" font-size="10.00">Source</text>
</a>
</g>
</g>
<!-- Node307&#45;&gt;Node313 -->
<g id="edge18" class="edge"><title>Node307&#45;&gt;Node313</title>
<path fill="none" stroke="midnightblue" d="M577.766,-485.934C593.306,-488.234 609.829,-490.679 625.956,-493.065"/>
<polygon fill="midnightblue" stroke="midnightblue" points="578.114,-482.448 567.71,-484.446 577.09,-489.372 578.114,-482.448"/>
</g>
<!-- Node314 -->
<g id="node19" class="node"><title>Node314</title>
<g id="a_node19"><a xlink:href="../../d7/d75/class_ogre_1_1_terrain_p_s_s_m_material_generator_1_1_s_m2_profile_1_1_shader_helper.html#a097f056863a7c0f6a23065bfed11d9f9" target="_top" xlink:title="Ogre::TerrainPSSMMaterial\lGenerator::SM2Profile::\lShaderHelper::updateVpParams">
<polygon fill="white" stroke="black" points="646.5,-421 646.5,-462 802.5,-462 802.5,-421 646.5,-421"/>
<text text-anchor="start" x="654.5" y="-450" font-family="Helvetica,sans-Serif" font-size="10.00">Ogre::TerrainPSSMMaterial</text>
<text text-anchor="start" x="654.5" y="-439" font-family="Helvetica,sans-Serif" font-size="10.00">Generator::SM2Profile::</text>
<text text-anchor="middle" x="724.5" y="-428" font-family="Helvetica,sans-Serif" font-size="10.00">ShaderHelper::updateVpParams</text>
</a>
</g>
</g>
<!-- Node307&#45;&gt;Node314 -->
<g id="edge20" class="edge"><title>Node307&#45;&gt;Node314</title>
<path fill="none" stroke="midnightblue" d="M577.741,-463.07C599.912,-459.789 624.084,-456.212 646.255,-452.931"/>
<polygon fill="midnightblue" stroke="midnightblue" points="577.09,-459.628 567.71,-464.554 578.114,-466.552 577.09,-459.628"/>
</g>
<!-- Node315 -->
<g id="node20" class="node"><title>Node315</title>
<g id="a_node20"><a xlink:href="../../dd/d33/class_ogre_1_1_terrain_p_s_s_m_material_generator_1_1_s_m2_profile_1_1_shader_helper_cg.html#a4455989ab6e1c73c771f44d0e7a42e48" target="_top" xlink:title="Ogre::TerrainPSSMMaterial\lGenerator::SM2Profile::\lShaderHelperCg::generateVpHeader">
<polygon fill="white" stroke="black" points="638,-361 638,-402 811,-402 811,-361 638,-361"/>
<text text-anchor="start" x="646" y="-390" font-family="Helvetica,sans-Serif" font-size="10.00">Ogre::TerrainPSSMMaterial</text>
<text text-anchor="start" x="646" y="-379" font-family="Helvetica,sans-Serif" font-size="10.00">Generator::SM2Profile::</text>
<text text-anchor="middle" x="724.5" y="-368" font-family="Helvetica,sans-Serif" font-size="10.00">ShaderHelperCg::generateVpHeader</text>
</a>
</g>
</g>
<!-- Node307&#45;&gt;Node315 -->
<g id="edge22" class="edge"><title>Node307&#45;&gt;Node315</title>
<path fill="none" stroke="midnightblue" d="M569.847,-449.71C576.786,-446.543 583.618,-443.128 590,-439.5 607.622,-429.483 608.019,-420.856 626,-411.5 632.677,-408.026 639.824,-404.878 647.102,-402.045"/>
<polygon fill="midnightblue" stroke="midnightblue" points="568.104,-446.653 560.351,-453.874 570.915,-453.064 568.104,-446.653"/>
</g>
<!-- Node316 -->
<g id="node21" class="node"><title>Node316</title>
<g id="a_node21"><a xlink:href="../../dd/d33/class_ogre_1_1_terrain_p_s_s_m_material_generator_1_1_s_m2_profile_1_1_shader_helper_cg.html#af37481d514eac4b4cf22db170c54756e" target="_top" xlink:title="Ogre::TerrainPSSMMaterial\lGenerator::SM2Profile::\lShaderHelperCg::generateFpHeader">
<polygon fill="white" stroke="black" points="638,-301 638,-342 811,-342 811,-301 638,-301"/>
<text text-anchor="start" x="646" y="-330" font-family="Helvetica,sans-Serif" font-size="10.00">Ogre::TerrainPSSMMaterial</text>
<text text-anchor="start" x="646" y="-319" font-family="Helvetica,sans-Serif" font-size="10.00">Generator::SM2Profile::</text>
<text text-anchor="middle" x="724.5" y="-308" font-family="Helvetica,sans-Serif" font-size="10.00">ShaderHelperCg::generateFpHeader</text>
</a>
</g>
</g>
<!-- Node307&#45;&gt;Node316 -->
<g id="edge23" class="edge"><title>Node307&#45;&gt;Node316</title>
<path fill="none" stroke="midnightblue" d="M576.671,-450.097C581.478,-446.968 585.988,-443.451 590,-439.5 620.112,-409.853 594.808,-380.009 626,-351.5 629.791,-348.035 633.974,-344.97 638.412,-342.259"/>
<polygon fill="midnightblue" stroke="midnightblue" points="574.605,-447.251 567.742,-455.322 578.14,-453.292 574.605,-447.251"/>
</g>
<!-- Node309 -->
<g id="node14" class="node"><title>Node309</title>
<g id="a_node14"><a xlink:href="../../d5/d2c/class_ogre_1_1_terrain_p_s_s_m_material_generator_1_1_s_m2_profile.html#ab6033379000abdc69e506ac4aa334c48" target="_top" xlink:title="Ogre::TerrainPSSMMaterial\lGenerator::SM2Profile::\lgenerate">
<polygon fill="white" stroke="black" points="864,-627 864,-668 1000,-668 1000,-627 864,-627"/>
<text text-anchor="start" x="872" y="-656" font-family="Helvetica,sans-Serif" font-size="10.00">Ogre::TerrainPSSMMaterial</text>
<text text-anchor="start" x="872" y="-645" font-family="Helvetica,sans-Serif" font-size="10.00">Generator::SM2Profile::</text>
<text text-anchor="middle" x="932" y="-634" font-family="Helvetica,sans-Serif" font-size="10.00">generate</text>
</a>
</g>
</g>
<!-- Node308&#45;&gt;Node309 -->
<g id="edge14" class="edge"><title>Node308&#45;&gt;Node309</title>
<path fill="none" stroke="midnightblue" d="M802.56,-645.625C822.668,-645.919 844.179,-646.233 863.736,-646.518"/>
<polygon fill="midnightblue" stroke="midnightblue" points="802.554,-642.125 792.504,-645.478 802.452,-649.124 802.554,-642.125"/>
</g>
<!-- Node310 -->
<g id="node15" class="node"><title>Node310</title>
<g id="a_node15"><a xlink:href="../../d5/d2c/class_ogre_1_1_terrain_p_s_s_m_material_generator_1_1_s_m2_profile.html#aa4369031319a31c9b09a1f6368541fe9" target="_top" xlink:title="Ogre::TerrainPSSMMaterial\lGenerator::SM2Profile::\lgenerateForCompositeMap">
<polygon fill="white" stroke="black" points="864,-567 864,-608 1000,-608 1000,-567 864,-567"/>
<text text-anchor="start" x="872" y="-596" font-family="Helvetica,sans-Serif" font-size="10.00">Ogre::TerrainPSSMMaterial</text>
<text text-anchor="start" x="872" y="-585" font-family="Helvetica,sans-Serif" font-size="10.00">Generator::SM2Profile::</text>
<text text-anchor="middle" x="932" y="-574" font-family="Helvetica,sans-Serif" font-size="10.00">generateForCompositeMap</text>
</a>
</g>
</g>
<!-- Node308&#45;&gt;Node310 -->
<g id="edge15" class="edge"><title>Node308&#45;&gt;Node310</title>
<path fill="none" stroke="midnightblue" d="M802.284,-623.202C822.472,-617.603 844.09,-611.606 863.736,-606.157"/>
<polygon fill="midnightblue" stroke="midnightblue" points="801.205,-619.869 792.504,-625.915 803.076,-626.615 801.205,-619.869"/>
</g>
<!-- Node312 -->
<g id="node17" class="node"><title>Node312</title>
<g id="a_node17"><a xlink:href="../../d7/d75/class_ogre_1_1_terrain_p_s_s_m_material_generator_1_1_s_m2_profile_1_1_shader_helper.html#ab95641c2ba501d35606692caee36a3d1" target="_top" xlink:title="Ogre::TerrainPSSMMaterial\lGenerator::SM2Profile::\lShaderHelper::~ShaderHelper">
<polygon fill="white" stroke="black" points="859,-421 859,-462 1005,-462 1005,-421 859,-421"/>
<text text-anchor="start" x="867" y="-450" font-family="Helvetica,sans-Serif" font-size="10.00">Ogre::TerrainPSSMMaterial</text>
<text text-anchor="start" x="867" y="-439" font-family="Helvetica,sans-Serif" font-size="10.00">Generator::SM2Profile::</text>
<text text-anchor="middle" x="932" y="-428" font-family="Helvetica,sans-Serif" font-size="10.00">ShaderHelper::~ShaderHelper</text>
</a>
</g>
</g>
<!-- Node311&#45;&gt;Node312 -->
<g id="edge17" class="edge"><title>Node311&#45;&gt;Node312</title>
<path fill="none" stroke="midnightblue" d="M815.47,-547.847C818.041,-546.449 820.558,-545 823,-543.5 859.482,-521.096 894.062,-484.859 913.867,-462.149"/>
<polygon fill="midnightblue" stroke="midnightblue" points="813.855,-544.742 806.542,-552.407 817.04,-550.976 813.855,-544.742"/>
</g>
<!-- Node313&#45;&gt;Node312 -->
<g id="edge19" class="edge"><title>Node313&#45;&gt;Node312</title>
<path fill="none" stroke="midnightblue" d="M816.681,-478.215C833.71,-472.746 851.169,-467.139 867.153,-462.006"/>
<polygon fill="midnightblue" stroke="midnightblue" points="815.17,-475.025 806.719,-481.415 817.31,-481.689 815.17,-475.025"/>
</g>
<!-- Node314&#45;&gt;Node312 -->
<g id="edge21" class="edge"><title>Node314&#45;&gt;Node312</title>
<path fill="none" stroke="midnightblue" d="M812.65,-441.5C828.064,-441.5 843.957,-441.5 858.898,-441.5"/>
<polygon fill="midnightblue" stroke="midnightblue" points="812.605,-438 802.605,-441.5 812.605,-445 812.605,-438"/>
</g>
<!-- Node317&#45;&gt;Node312 -->
<g id="edge26" class="edge"><title>Node317&#45;&gt;Node312</title>
<path fill="none" stroke="midnightblue" d="M811.398,-284.277C815.445,-286.471 819.34,-288.873 823,-291.5 870.964,-325.934 905.773,-388.359 921.559,-420.75"/>
<polygon fill="midnightblue" stroke="midnightblue" points="812.842,-281.087 802.326,-279.796 809.742,-287.363 812.842,-281.087"/>
</g>
<!-- Node318&#45;&gt;Node312 -->
<g id="edge28" class="edge"><title>Node318&#45;&gt;Node312</title>
<path fill="none" stroke="midnightblue" d="M585.536,-350.639C587.089,-349.327 588.58,-347.948 590,-346.5 627.489,-308.252 582.842,-263.213 626,-231.5 696.556,-179.655 748.26,-185.893 823,-231.5 892.467,-273.89 919.139,-376.801 927.616,-420.892"/>
<polygon fill="midnightblue" stroke="midnightblue" points="583.31,-347.93 577.304,-356.659 587.442,-353.581 583.31,-347.93"/>
</g>
</g>
</svg>
        <g id="navigator" transform="translate(0 0)" fill="#404254">
                <rect fill="#f2f5e9" fill-opacity="0.5" stroke="#606060" stroke-width=".5" x="0" y="0" width="60" height="60"/>
                <use id="zoomplus" xlink:href="#zoomPlus" x="17" y="9" onmousedown="handleZoom(evt,'in')"/>
                <use id="zoomminus" xlink:href="#zoomMin" x="42" y="9" onmousedown="handleZoom(evt,'out')"/>
                <use id="reset" xlink:href="#resetDef" x="30" y="36" onmousedown="handleReset()"/>
                <g id="arrowUp" xlink:href="#dirArrow" transform="translate(30 24)" onmousedown="handlePan(0,-1)">
                  <use xlink:href="#rim" fill="#404040">
                        <set attributeName="fill" to="#808080" begin="arrowUp.mouseover" end="arrowUp.mouseout"/>
                  </use>
                  <path fill="none" stroke="white" stroke-width="1.5" d="M0,-3.0v7 M-2.5,-0.5L0,-3.0L2.5,-0.5"/>
                </g>
                <g id="arrowRight" xlink:href="#dirArrow" transform="rotate(90) translate(36 -43)" onmousedown="handlePan(1,0)">
                  <use xlink:href="#rim" fill="#404040">
                        <set attributeName="fill" to="#808080" begin="arrowRight.mouseover" end="arrowRight.mouseout"/>
                  </use>
                  <path fill="none" stroke="white" stroke-width="1.5" d="M0,-3.0v7 M-2.5,-0.5L0,-3.0L2.5,-0.5"/>
                </g>
                <g id="arrowDown" xlink:href="#dirArrow" transform="rotate(180) translate(-30 -48)" onmousedown="handlePan(0,1)">
                  <use xlink:href="#rim" fill="#404040">
                        <set attributeName="fill" to="#808080" begin="arrowDown.mouseover" end="arrowDown.mouseout"/>
                  </use>
                  <path fill="none" stroke="white" stroke-width="1.5" d="M0,-3.0v7 M-2.5,-0.5L0,-3.0L2.5,-0.5"/>
                </g>
                <g id="arrowLeft" xlink:href="#dirArrow" transform="rotate(270) translate(-36 17)" onmousedown="handlePan(-1,0)">
                  <use xlink:href="#rim" fill="#404040">
                        <set attributeName="fill" to="#808080" begin="arrowLeft.mouseover" end="arrowLeft.mouseout"/>
                  </use>
                  <path fill="none" stroke="white" stroke-width="1.5" d="M0,-3.0v7 M-2.5,-0.5L0,-3.0L2.5,-0.5"/>
                </g>
        </g>
        <svg viewBox="0 0 15 15" width="100%" height="30px" preserveAspectRatio="xMaxYMin meet">
         <g id="arrow_out" transform="scale(0.3 0.3)">
          <a xlink:href="class_ogre_1_1_terrain_p_s_s_m_material_generator_1_1_s_m2_profile_a64393b0dea5d6369bffe54eb64b2402b_icgraph_org.svg" target="_base">
           <rect id="button" ry="5" rx="5" y="6" x="6" height="38" width="38"
                fill="#f2f5e9" fill-opacity="0.5" stroke="#606060" stroke-width="1.0"/>
           <path id="arrow"
             d="M 11.500037,31.436501 C 11.940474,20.09759 22.043105,11.32322 32.158766,21.979434 L 37.068811,17.246167 C 37.068811,17.246167 37.088388,32 37.088388,32 L 22.160133,31.978069 C 22.160133,31.978069 26.997745,27.140456 26.997745,27.140456 C 18.528582,18.264221 13.291696,25.230495 11.500037,31.436501 z"
             style="fill:#404040;"/>
          </a>
         </g>
        </svg>
</svg>
