<?xml version="1.0" encoding="UTF-8" standalone="no"?>
<!DOCTYPE svg PUBLIC "-//W3C//DTD SVG 1.1//EN"
 "http://www.w3.org/Graphics/SVG/1.1/DTD/svg11.dtd">
<!-- Generated by graphviz version 2.38.0 (20140413.2041)
 -->
<!-- Title: Ogre::TerrainPSSMMaterialGenerator::SM2Profile::isLayerNormalMappingEnabled Pages: 1 -->
<svg width="393pt" height="170pt"
 viewBox="0.00 0.00 393.00 170.00" xmlns="http://www.w3.org/2000/svg" xmlns:xlink="http://www.w3.org/1999/xlink">
<g id="graph0" class="graph" transform="scale(1 1) rotate(0) translate(4 166)">
<title>Ogre::TerrainPSSMMaterialGenerator::SM2Profile::isLayerNormalMappingEnabled</title>
<polygon fill="white" stroke="none" points="-4,4 -4,-166 389,-166 389,4 -4,4"/>
<!-- Node164 -->
<g id="node1" class="node"><title>Node164</title>
<polygon fill="#bfbfbf" stroke="black" points="0,-60.5 0,-101.5 151,-101.5 151,-60.5 0,-60.5"/>
<text text-anchor="start" x="8" y="-89.5" font-family="Helvetica,sans-Serif" font-size="10.00">Ogre::TerrainPSSMMaterial</text>
<text text-anchor="start" x="8" y="-78.5" font-family="Helvetica,sans-Serif" font-size="10.00">Generator::SM2Profile::</text>
<text text-anchor="middle" x="75.5" y="-67.5" font-family="Helvetica,sans-Serif" font-size="10.00">isLayerNormalMappingEnabled</text>
</g>
<!-- Node165 -->
<g id="node2" class="node"><title>Node165</title>
<g id="a_node2"><a xlink:href="../../dd/d33/class_ogre_1_1_terrain_p_s_s_m_material_generator_1_1_s_m2_profile_1_1_shader_helper_cg.html#ae6f2fb696f95011af53713df0df8bed8" target="_top" xlink:title="Ogre::TerrainPSSMMaterial\lGenerator::SM2Profile::\lShaderHelperCg::createFragmentProgram">
<polygon fill="white" stroke="black" points="187,-120.5 187,-161.5 385,-161.5 385,-120.5 187,-120.5"/>
<text text-anchor="start" x="195" y="-149.5" font-family="Helvetica,sans-Serif" font-size="10.00">Ogre::TerrainPSSMMaterial</text>
<text text-anchor="start" x="195" y="-138.5" font-family="Helvetica,sans-Serif" font-size="10.00">Generator::SM2Profile::</text>
<text text-anchor="middle" x="286" y="-127.5" font-family="Helvetica,sans-Serif" font-size="10.00">ShaderHelperCg::createFragmentProgram</text>
</a>
</g>
</g>
<!-- Node164&#45;&gt;Node165 -->
<g id="edge1" class="edge"><title>Node164&#45;&gt;Node165</title>
<path fill="none" stroke="midnightblue" d="M157.786,-104.392C176.214,-109.695 195.65,-115.288 213.631,-120.462"/>
<polygon fill="midnightblue" stroke="midnightblue" points="158.54,-100.967 147.962,-101.565 156.604,-107.694 158.54,-100.967"/>
</g>
<!-- Node166 -->
<g id="node3" class="node"><title>Node166</title>
<g id="a_node3"><a xlink:href="../../dd/d33/class_ogre_1_1_terrain_p_s_s_m_material_generator_1_1_s_m2_profile_1_1_shader_helper_cg.html#af37481d514eac4b4cf22db170c54756e" target="_top" xlink:title="Ogre::TerrainPSSMMaterial\lGenerator::SM2Profile::\lShaderHelperCg::generateFpHeader">
<polygon fill="white" stroke="black" points="199.5,-60.5 199.5,-101.5 372.5,-101.5 372.5,-60.5 199.5,-60.5"/>
<text text-anchor="start" x="207.5" y="-89.5" font-family="Helvetica,sans-Serif" font-size="10.00">Ogre::TerrainPSSMMaterial</text>
<text text-anchor="start" x="207.5" y="-78.5" font-family="Helvetica,sans-Serif" font-size="10.00">Generator::SM2Profile::</text>
<text text-anchor="middle" x="286" y="-67.5" font-family="Helvetica,sans-Serif" font-size="10.00">ShaderHelperCg::generateFpHeader</text>
</a>
</g>
</g>
<!-- Node164&#45;&gt;Node166 -->
<g id="edge2" class="edge"><title>Node164&#45;&gt;Node166</title>
<path fill="none" stroke="midnightblue" d="M161.207,-81C173.83,-81 186.849,-81 199.488,-81"/>
<polygon fill="midnightblue" stroke="midnightblue" points="161.184,-77.5001 151.184,-81 161.184,-84.5001 161.184,-77.5001"/>
</g>
<!-- Node167 -->
<g id="node4" class="node"><title>Node167</title>
<g id="a_node4"><a xlink:href="../../dd/d33/class_ogre_1_1_terrain_p_s_s_m_material_generator_1_1_s_m2_profile_1_1_shader_helper_cg.html#aed5c4e365ffd55d08a815d445b2fe484" target="_top" xlink:title="Ogre::TerrainPSSMMaterial\lGenerator::SM2Profile::\lShaderHelperCg::generateFpLayer">
<polygon fill="white" stroke="black" points="203,-0.5 203,-41.5 369,-41.5 369,-0.5 203,-0.5"/>
<text text-anchor="start" x="211" y="-29.5" font-family="Helvetica,sans-Serif" font-size="10.00">Ogre::TerrainPSSMMaterial</text>
<text text-anchor="start" x="211" y="-18.5" font-family="Helvetica,sans-Serif" font-size="10.00">Generator::SM2Profile::</text>
<text text-anchor="middle" x="286" y="-7.5" font-family="Helvetica,sans-Serif" font-size="10.00">ShaderHelperCg::generateFpLayer</text>
</a>
</g>
</g>
<!-- Node164&#45;&gt;Node167 -->
<g id="edge3" class="edge"><title>Node164&#45;&gt;Node167</title>
<path fill="none" stroke="midnightblue" d="M157.786,-57.6083C176.214,-52.3052 195.65,-46.7123 213.631,-41.5378"/>
<polygon fill="midnightblue" stroke="midnightblue" points="156.604,-54.3063 147.962,-60.4353 158.54,-61.0333 156.604,-54.3063"/>
</g>
</g>
</svg>
