<?xml version="1.0" encoding="UTF-8" standalone="no"?>
<!DOCTYPE svg PUBLIC "-//W3C//DTD SVG 1.1//EN"
 "http://www.w3.org/Graphics/SVG/1.1/DTD/svg11.dtd">
<!-- Generated by graphviz version 2.38.0 (20140413.2041)
 -->
<!-- Title: Ogre::TerrainPSSMMaterialGenerator::SM2Profile::isGlobalColourMapEnabled Pages: 1 -->
<svg width="525pt" height="200pt"
 viewBox="0.00 0.00 525.00 200.00" xmlns="http://www.w3.org/2000/svg" xmlns:xlink="http://www.w3.org/1999/xlink">
<g id="graph0" class="graph" transform="scale(1 1) rotate(0) translate(4 196)">
<title>Ogre::TerrainPSSMMaterialGenerator::SM2Profile::isGlobalColourMapEnabled</title>
<polygon fill="white" stroke="none" points="-4,4 -4,-196 521,-196 521,4 -4,4"/>
<!-- Node156 -->
<g id="node1" class="node"><title>Node156</title>
<polygon fill="#bfbfbf" stroke="black" points="0,-60.5 0,-101.5 136,-101.5 136,-60.5 0,-60.5"/>
<text text-anchor="start" x="8" y="-89.5" font-family="Helvetica,sans-Serif" font-size="10.00">Ogre::TerrainPSSMMaterial</text>
<text text-anchor="start" x="8" y="-78.5" font-family="Helvetica,sans-Serif" font-size="10.00">Generator::SM2Profile::</text>
<text text-anchor="middle" x="68" y="-67.5" font-family="Helvetica,sans-Serif" font-size="10.00">isGlobalColourMapEnabled</text>
</g>
<!-- Node157 -->
<g id="node2" class="node"><title>Node157</title>
<g id="a_node2"><a xlink:href="../../d5/d2c/class_ogre_1_1_terrain_p_s_s_m_material_generator_1_1_s_m2_profile.html#ade0d9bf2c7fda529bbb03eb247ffe1e9" target="_top" xlink:title="Ogre::TerrainPSSMMaterial\lGenerator::SM2Profile::\laddTechnique">
<polygon fill="white" stroke="black" points="190.5,-120.5 190.5,-161.5 326.5,-161.5 326.5,-120.5 190.5,-120.5"/>
<text text-anchor="start" x="198.5" y="-149.5" font-family="Helvetica,sans-Serif" font-size="10.00">Ogre::TerrainPSSMMaterial</text>
<text text-anchor="start" x="198.5" y="-138.5" font-family="Helvetica,sans-Serif" font-size="10.00">Generator::SM2Profile::</text>
<text text-anchor="middle" x="258.5" y="-127.5" font-family="Helvetica,sans-Serif" font-size="10.00">addTechnique</text>
</a>
</g>
</g>
<!-- Node156&#45;&gt;Node157 -->
<g id="edge1" class="edge"><title>Node156&#45;&gt;Node157</title>
<path fill="none" stroke="midnightblue" d="M143.18,-104.612C159.635,-109.849 176.945,-115.359 192.977,-120.462"/>
<polygon fill="midnightblue" stroke="midnightblue" points="144.198,-101.263 133.607,-101.565 142.075,-107.933 144.198,-101.263"/>
</g>
<!-- Node160 -->
<g id="node5" class="node"><title>Node160</title>
<g id="a_node5"><a xlink:href="../../dd/d33/class_ogre_1_1_terrain_p_s_s_m_material_generator_1_1_s_m2_profile_1_1_shader_helper_cg.html#af37481d514eac4b4cf22db170c54756e" target="_top" xlink:title="Ogre::TerrainPSSMMaterial\lGenerator::SM2Profile::\lShaderHelperCg::generateFpHeader">
<polygon fill="white" stroke="black" points="172,-60.5 172,-101.5 345,-101.5 345,-60.5 172,-60.5"/>
<text text-anchor="start" x="180" y="-89.5" font-family="Helvetica,sans-Serif" font-size="10.00">Ogre::TerrainPSSMMaterial</text>
<text text-anchor="start" x="180" y="-78.5" font-family="Helvetica,sans-Serif" font-size="10.00">Generator::SM2Profile::</text>
<text text-anchor="middle" x="258.5" y="-67.5" font-family="Helvetica,sans-Serif" font-size="10.00">ShaderHelperCg::generateFpHeader</text>
</a>
</g>
</g>
<!-- Node156&#45;&gt;Node160 -->
<g id="edge4" class="edge"><title>Node156&#45;&gt;Node160</title>
<path fill="none" stroke="midnightblue" d="M146.377,-81C154.767,-81 163.34,-81 171.82,-81"/>
<polygon fill="midnightblue" stroke="midnightblue" points="146.255,-77.5001 136.254,-81 146.254,-84.5001 146.255,-77.5001"/>
</g>
<!-- Node161 -->
<g id="node6" class="node"><title>Node161</title>
<g id="a_node6"><a xlink:href="../../dd/d33/class_ogre_1_1_terrain_p_s_s_m_material_generator_1_1_s_m2_profile_1_1_shader_helper_cg.html#a02b18b595fa75ef580b8f03cac726279" target="_top" xlink:title="Ogre::TerrainPSSMMaterial\lGenerator::SM2Profile::\lShaderHelperCg::generateFpFooter">
<polygon fill="white" stroke="black" points="173.5,-0.5 173.5,-41.5 343.5,-41.5 343.5,-0.5 173.5,-0.5"/>
<text text-anchor="start" x="181.5" y="-29.5" font-family="Helvetica,sans-Serif" font-size="10.00">Ogre::TerrainPSSMMaterial</text>
<text text-anchor="start" x="181.5" y="-18.5" font-family="Helvetica,sans-Serif" font-size="10.00">Generator::SM2Profile::</text>
<text text-anchor="middle" x="258.5" y="-7.5" font-family="Helvetica,sans-Serif" font-size="10.00">ShaderHelperCg::generateFpFooter</text>
</a>
</g>
</g>
<!-- Node156&#45;&gt;Node161 -->
<g id="edge5" class="edge"><title>Node156&#45;&gt;Node161</title>
<path fill="none" stroke="midnightblue" d="M143.18,-57.3882C159.635,-52.1507 176.945,-46.6408 192.977,-41.5378"/>
<polygon fill="midnightblue" stroke="midnightblue" points="142.075,-54.0671 133.607,-60.4353 144.198,-60.7373 142.075,-54.0671"/>
</g>
<!-- Node158 -->
<g id="node3" class="node"><title>Node158</title>
<g id="a_node3"><a xlink:href="../../d5/d2c/class_ogre_1_1_terrain_p_s_s_m_material_generator_1_1_s_m2_profile.html#ab6033379000abdc69e506ac4aa334c48" target="_top" xlink:title="Ogre::TerrainPSSMMaterial\lGenerator::SM2Profile::\lgenerate">
<polygon fill="white" stroke="black" points="381,-150.5 381,-191.5 517,-191.5 517,-150.5 381,-150.5"/>
<text text-anchor="start" x="389" y="-179.5" font-family="Helvetica,sans-Serif" font-size="10.00">Ogre::TerrainPSSMMaterial</text>
<text text-anchor="start" x="389" y="-168.5" font-family="Helvetica,sans-Serif" font-size="10.00">Generator::SM2Profile::</text>
<text text-anchor="middle" x="449" y="-157.5" font-family="Helvetica,sans-Serif" font-size="10.00">generate</text>
</a>
</g>
</g>
<!-- Node157&#45;&gt;Node158 -->
<g id="edge2" class="edge"><title>Node157&#45;&gt;Node158</title>
<path fill="none" stroke="midnightblue" d="M336.753,-153.295C351.351,-155.618 366.512,-158.031 380.771,-160.3"/>
<polygon fill="midnightblue" stroke="midnightblue" points="337.18,-149.819 326.754,-151.704 336.08,-156.732 337.18,-149.819"/>
</g>
<!-- Node159 -->
<g id="node4" class="node"><title>Node159</title>
<g id="a_node4"><a xlink:href="../../d5/d2c/class_ogre_1_1_terrain_p_s_s_m_material_generator_1_1_s_m2_profile.html#aa4369031319a31c9b09a1f6368541fe9" target="_top" xlink:title="Ogre::TerrainPSSMMaterial\lGenerator::SM2Profile::\lgenerateForCompositeMap">
<polygon fill="white" stroke="black" points="381,-90.5 381,-131.5 517,-131.5 517,-90.5 381,-90.5"/>
<text text-anchor="start" x="389" y="-119.5" font-family="Helvetica,sans-Serif" font-size="10.00">Ogre::TerrainPSSMMaterial</text>
<text text-anchor="start" x="389" y="-108.5" font-family="Helvetica,sans-Serif" font-size="10.00">Generator::SM2Profile::</text>
<text text-anchor="middle" x="449" y="-97.5" font-family="Helvetica,sans-Serif" font-size="10.00">generateForCompositeMap</text>
</a>
</g>
</g>
<!-- Node157&#45;&gt;Node159 -->
<g id="edge3" class="edge"><title>Node157&#45;&gt;Node159</title>
<path fill="none" stroke="midnightblue" d="M336.753,-128.705C351.351,-126.382 366.512,-123.969 380.771,-121.7"/>
<polygon fill="midnightblue" stroke="midnightblue" points="336.08,-125.268 326.754,-130.296 337.18,-132.181 336.08,-125.268"/>
</g>
</g>
</svg>
