<?xml version="1.0" encoding="UTF-8" standalone="no"?>
<!DOCTYPE svg PUBLIC "-//W3C//DTD SVG 1.1//EN"
 "http://www.w3.org/Graphics/SVG/1.1/DTD/svg11.dtd">
<!-- Generated by graphviz version 2.38.0 (20140413.2041)
 -->
<!-- Title: Ogre::TerrainPSSMMaterialGenerator::SM2Profile::isShadowingEnabled Pages: 1 -->
<svg width="765pt" height="610pt"
 viewBox="0.00 0.00 765.00 610.00" xmlns="http://www.w3.org/2000/svg" xmlns:xlink="http://www.w3.org/1999/xlink">
<g id="graph0" class="graph" transform="scale(1 1) rotate(0) translate(4 606)">
<title>Ogre::TerrainPSSMMaterialGenerator::SM2Profile::isShadowingEnabled</title>
<polygon fill="white" stroke="none" points="-4,4 -4,-606 761,-606 761,4 -4,4"/>
<!-- Node191 -->
<g id="node1" class="node"><title>Node191</title>
<polygon fill="#bfbfbf" stroke="black" points="0,-204.5 0,-245.5 136,-245.5 136,-204.5 0,-204.5"/>
<text text-anchor="start" x="8" y="-233.5" font-family="Helvetica,sans-Serif" font-size="10.00">Ogre::TerrainPSSMMaterial</text>
<text text-anchor="start" x="8" y="-222.5" font-family="Helvetica,sans-Serif" font-size="10.00">Generator::SM2Profile::</text>
<text text-anchor="middle" x="68" y="-211.5" font-family="Helvetica,sans-Serif" font-size="10.00">isShadowingEnabled</text>
</g>
<!-- Node192 -->
<g id="node2" class="node"><title>Node192</title>
<g id="a_node2"><a xlink:href="../../d5/d2c/class_ogre_1_1_terrain_p_s_s_m_material_generator_1_1_s_m2_profile.html#a83a9b6ede174cd1daeda016f64f4a5c8" target="_top" xlink:title="Ogre::TerrainPSSMMaterial\lGenerator::SM2Profile::\lgetMaxLayers">
<polygon fill="white" stroke="black" points="189,-333.5 189,-374.5 325,-374.5 325,-333.5 189,-333.5"/>
<text text-anchor="start" x="197" y="-362.5" font-family="Helvetica,sans-Serif" font-size="10.00">Ogre::TerrainPSSMMaterial</text>
<text text-anchor="start" x="197" y="-351.5" font-family="Helvetica,sans-Serif" font-size="10.00">Generator::SM2Profile::</text>
<text text-anchor="middle" x="257" y="-340.5" font-family="Helvetica,sans-Serif" font-size="10.00">getMaxLayers</text>
</a>
</g>
</g>
<!-- Node191&#45;&gt;Node192 -->
<g id="edge1" class="edge"><title>Node191&#45;&gt;Node192</title>
<path fill="none" stroke="midnightblue" d="M103.312,-251.833C123.086,-266.996 148.591,-286.049 172,-302 187.875,-312.817 205.937,-324.122 221.235,-333.418"/>
<polygon fill="midnightblue" stroke="midnightblue" points="105.27,-248.923 95.2116,-245.594 100.998,-254.469 105.27,-248.923"/>
</g>
<!-- Node193 -->
<g id="node3" class="node"><title>Node193</title>
<g id="a_node3"><a xlink:href="../../d5/d2c/class_ogre_1_1_terrain_p_s_s_m_material_generator_1_1_s_m2_profile.html#ade0d9bf2c7fda529bbb03eb247ffe1e9" target="_top" xlink:title="Ogre::TerrainPSSMMaterial\lGenerator::SM2Profile::\laddTechnique">
<polygon fill="white" stroke="black" points="408.5,-530.5 408.5,-571.5 544.5,-571.5 544.5,-530.5 408.5,-530.5"/>
<text text-anchor="start" x="416.5" y="-559.5" font-family="Helvetica,sans-Serif" font-size="10.00">Ogre::TerrainPSSMMaterial</text>
<text text-anchor="start" x="416.5" y="-548.5" font-family="Helvetica,sans-Serif" font-size="10.00">Generator::SM2Profile::</text>
<text text-anchor="middle" x="476.5" y="-537.5" font-family="Helvetica,sans-Serif" font-size="10.00">addTechnique</text>
</a>
</g>
</g>
<!-- Node191&#45;&gt;Node193 -->
<g id="edge13" class="edge"><title>Node191&#45;&gt;Node193</title>
<path fill="none" stroke="midnightblue" d="M83.4631,-254.677C101.046,-288.682 133.227,-344.757 172,-384 249.279,-462.216 278.645,-473.899 378,-521 387.602,-525.552 398.059,-529.618 408.442,-533.176"/>
<polygon fill="midnightblue" stroke="midnightblue" points="86.5518,-253.03 78.8976,-245.704 80.3129,-256.204 86.5518,-253.03"/>
</g>
<!-- Node200 -->
<g id="node10" class="node"><title>Node200</title>
<g id="a_node10"><a xlink:href="../../dd/d33/class_ogre_1_1_terrain_p_s_s_m_material_generator_1_1_s_m2_profile_1_1_shader_helper_cg.html#a4455989ab6e1c73c771f44d0e7a42e48" target="_top" xlink:title="Ogre::TerrainPSSMMaterial\lGenerator::SM2Profile::\lShaderHelperCg::generateVpHeader">
<polygon fill="white" stroke="black" points="390,-267.5 390,-308.5 563,-308.5 563,-267.5 390,-267.5"/>
<text text-anchor="start" x="398" y="-296.5" font-family="Helvetica,sans-Serif" font-size="10.00">Ogre::TerrainPSSMMaterial</text>
<text text-anchor="start" x="398" y="-285.5" font-family="Helvetica,sans-Serif" font-size="10.00">Generator::SM2Profile::</text>
<text text-anchor="middle" x="476.5" y="-274.5" font-family="Helvetica,sans-Serif" font-size="10.00">ShaderHelperCg::generateVpHeader</text>
</a>
</g>
</g>
<!-- Node191&#45;&gt;Node200 -->
<g id="edge18" class="edge"><title>Node191&#45;&gt;Node200</title>
<path fill="none" stroke="midnightblue" d="M146.03,-241.261C154.775,-242.942 163.57,-244.559 172,-246 245.274,-258.527 328.993,-269.893 389.916,-277.633"/>
<polygon fill="midnightblue" stroke="midnightblue" points="146.687,-237.823 136.201,-239.343 145.346,-244.693 146.687,-237.823"/>
</g>
<!-- Node201 -->
<g id="node11" class="node"><title>Node201</title>
<g id="a_node11"><a xlink:href="../../dd/d33/class_ogre_1_1_terrain_p_s_s_m_material_generator_1_1_s_m2_profile_1_1_shader_helper_cg.html#af37481d514eac4b4cf22db170c54756e" target="_top" xlink:title="Ogre::TerrainPSSMMaterial\lGenerator::SM2Profile::\lShaderHelperCg::generateFpHeader">
<polygon fill="white" stroke="black" points="390,-207.5 390,-248.5 563,-248.5 563,-207.5 390,-207.5"/>
<text text-anchor="start" x="398" y="-236.5" font-family="Helvetica,sans-Serif" font-size="10.00">Ogre::TerrainPSSMMaterial</text>
<text text-anchor="start" x="398" y="-225.5" font-family="Helvetica,sans-Serif" font-size="10.00">Generator::SM2Profile::</text>
<text text-anchor="middle" x="476.5" y="-214.5" font-family="Helvetica,sans-Serif" font-size="10.00">ShaderHelperCg::generateFpHeader</text>
</a>
</g>
</g>
<!-- Node191&#45;&gt;Node201 -->
<g id="edge19" class="edge"><title>Node191&#45;&gt;Node201</title>
<path fill="none" stroke="midnightblue" d="M146.19,-229.985C154.893,-230.402 163.635,-230.757 172,-231 245.476,-233.138 328.996,-232.055 389.796,-230.627"/>
<polygon fill="midnightblue" stroke="midnightblue" points="146.18,-226.481 136.016,-229.47 145.826,-233.472 146.18,-226.481"/>
</g>
<!-- Node202 -->
<g id="node12" class="node"><title>Node202</title>
<g id="a_node12"><a xlink:href="../../d7/d75/class_ogre_1_1_terrain_p_s_s_m_material_generator_1_1_s_m2_profile_1_1_shader_helper.html#a58cfb5926be52c179e363d577029b339" target="_top" xlink:title="Ogre::TerrainPSSMMaterial\lGenerator::SM2Profile::\lShaderHelper::defaultVpParams">
<polygon fill="white" stroke="black" points="179.5,-180.5 179.5,-221.5 334.5,-221.5 334.5,-180.5 179.5,-180.5"/>
<text text-anchor="start" x="187.5" y="-209.5" font-family="Helvetica,sans-Serif" font-size="10.00">Ogre::TerrainPSSMMaterial</text>
<text text-anchor="start" x="187.5" y="-198.5" font-family="Helvetica,sans-Serif" font-size="10.00">Generator::SM2Profile::</text>
<text text-anchor="middle" x="257" y="-187.5" font-family="Helvetica,sans-Serif" font-size="10.00">ShaderHelper::defaultVpParams</text>
</a>
</g>
</g>
<!-- Node191&#45;&gt;Node202 -->
<g id="edge14" class="edge"><title>Node191&#45;&gt;Node202</title>
<path fill="none" stroke="midnightblue" d="M146.495,-215.054C157.297,-213.668 168.394,-212.244 179.184,-210.859"/>
<polygon fill="midnightblue" stroke="midnightblue" points="145.72,-211.625 136.247,-216.369 146.611,-218.568 145.72,-211.625"/>
</g>
<!-- Node203 -->
<g id="node13" class="node"><title>Node203</title>
<g id="a_node13"><a xlink:href="../../d7/d75/class_ogre_1_1_terrain_p_s_s_m_material_generator_1_1_s_m2_profile_1_1_shader_helper.html#aec743e42050ab37db58c9385d4ce1010" target="_top" xlink:title="Ogre::TerrainPSSMMaterial\lGenerator::SM2Profile::\lShaderHelper::defaultFpParams">
<polygon fill="white" stroke="black" points="179.5,-120.5 179.5,-161.5 334.5,-161.5 334.5,-120.5 179.5,-120.5"/>
<text text-anchor="start" x="187.5" y="-149.5" font-family="Helvetica,sans-Serif" font-size="10.00">Ogre::TerrainPSSMMaterial</text>
<text text-anchor="start" x="187.5" y="-138.5" font-family="Helvetica,sans-Serif" font-size="10.00">Generator::SM2Profile::</text>
<text text-anchor="middle" x="257" y="-127.5" font-family="Helvetica,sans-Serif" font-size="10.00">ShaderHelper::defaultFpParams</text>
</a>
</g>
</g>
<!-- Node191&#45;&gt;Node203 -->
<g id="edge16" class="edge"><title>Node191&#45;&gt;Node203</title>
<path fill="none" stroke="midnightblue" d="M114.095,-199.611C131.868,-190.069 152.63,-179.487 172,-171 179.376,-167.768 187.221,-164.612 195.04,-161.633"/>
<polygon fill="midnightblue" stroke="midnightblue" points="112.22,-196.646 105.097,-204.489 115.556,-202.8 112.22,-196.646"/>
</g>
<!-- Node204 -->
<g id="node14" class="node"><title>Node204</title>
<g id="a_node14"><a xlink:href="../../dd/d33/class_ogre_1_1_terrain_p_s_s_m_material_generator_1_1_s_m2_profile_1_1_shader_helper_cg.html#a720c2f9ed6741b93b1f1480add7c19e6" target="_top" xlink:title="Ogre::TerrainPSSMMaterial\lGenerator::SM2Profile::\lShaderHelperCg::generateVpFooter">
<polygon fill="white" stroke="black" points="172,-60.5 172,-101.5 342,-101.5 342,-60.5 172,-60.5"/>
<text text-anchor="start" x="180" y="-89.5" font-family="Helvetica,sans-Serif" font-size="10.00">Ogre::TerrainPSSMMaterial</text>
<text text-anchor="start" x="180" y="-78.5" font-family="Helvetica,sans-Serif" font-size="10.00">Generator::SM2Profile::</text>
<text text-anchor="middle" x="257" y="-67.5" font-family="Helvetica,sans-Serif" font-size="10.00">ShaderHelperCg::generateVpFooter</text>
</a>
</g>
</g>
<!-- Node191&#45;&gt;Node204 -->
<g id="edge20" class="edge"><title>Node191&#45;&gt;Node204</title>
<path fill="none" stroke="midnightblue" d="M88.5697,-196.269C107.309,-170.706 137.739,-133.917 172,-111 177.149,-107.556 182.739,-104.456 188.508,-101.677"/>
<polygon fill="midnightblue" stroke="midnightblue" points="85.6684,-194.309 82.674,-204.472 91.3525,-198.394 85.6684,-194.309"/>
</g>
<!-- Node205 -->
<g id="node15" class="node"><title>Node205</title>
<g id="a_node15"><a xlink:href="../../dd/d33/class_ogre_1_1_terrain_p_s_s_m_material_generator_1_1_s_m2_profile_1_1_shader_helper_cg.html#a02b18b595fa75ef580b8f03cac726279" target="_top" xlink:title="Ogre::TerrainPSSMMaterial\lGenerator::SM2Profile::\lShaderHelperCg::generateFpFooter">
<polygon fill="white" stroke="black" points="172,-0.5 172,-41.5 342,-41.5 342,-0.5 172,-0.5"/>
<text text-anchor="start" x="180" y="-29.5" font-family="Helvetica,sans-Serif" font-size="10.00">Ogre::TerrainPSSMMaterial</text>
<text text-anchor="start" x="180" y="-18.5" font-family="Helvetica,sans-Serif" font-size="10.00">Generator::SM2Profile::</text>
<text text-anchor="middle" x="257" y="-7.5" font-family="Helvetica,sans-Serif" font-size="10.00">ShaderHelperCg::generateFpFooter</text>
</a>
</g>
</g>
<!-- Node191&#45;&gt;Node205 -->
<g id="edge21" class="edge"><title>Node191&#45;&gt;Node205</title>
<path fill="none" stroke="midnightblue" d="M79.4408,-194.812C94.2451,-156.247 124.891,-89.8549 172,-51 176.301,-47.4529 181.053,-44.3101 186.045,-41.5281"/>
<polygon fill="midnightblue" stroke="midnightblue" points="76.0636,-193.852 75.8511,-204.445 82.6229,-196.297 76.0636,-193.852"/>
</g>
<!-- Node192&#45;&gt;Node193 -->
<g id="edge2" class="edge"><title>Node192&#45;&gt;Node193</title>
<path fill="none" stroke="midnightblue" d="M281.363,-382.659C298.69,-404.302 322.572,-434.967 342,-463 359.282,-487.936 353.974,-502.473 378,-521 386.976,-527.922 397.557,-533.257 408.381,-537.368"/>
<polygon fill="midnightblue" stroke="midnightblue" points="284.061,-380.429 275.066,-374.83 278.606,-384.816 284.061,-380.429"/>
</g>
<!-- Node196 -->
<g id="node6" class="node"><title>Node196</title>
<g id="a_node6"><a xlink:href="../../d7/d75/class_ogre_1_1_terrain_p_s_s_m_material_generator_1_1_s_m2_profile_1_1_shader_helper.html#a8d75e688e198777489e38fe9a8642853" target="_top" xlink:title="Ogre::TerrainPSSMMaterial\lGenerator::SM2Profile::\lShaderHelper::generateVertexProgram\lSource">
<polygon fill="white" stroke="black" points="384.5,-399 384.5,-451 568.5,-451 568.5,-399 384.5,-399"/>
<text text-anchor="start" x="392.5" y="-439" font-family="Helvetica,sans-Serif" font-size="10.00">Ogre::TerrainPSSMMaterial</text>
<text text-anchor="start" x="392.5" y="-428" font-family="Helvetica,sans-Serif" font-size="10.00">Generator::SM2Profile::</text>
<text text-anchor="start" x="392.5" y="-417" font-family="Helvetica,sans-Serif" font-size="10.00">ShaderHelper::generateVertexProgram</text>
<text text-anchor="middle" x="476.5" y="-406" font-family="Helvetica,sans-Serif" font-size="10.00">Source</text>
</a>
</g>
</g>
<!-- Node192&#45;&gt;Node196 -->
<g id="edge5" class="edge"><title>Node192&#45;&gt;Node196</title>
<path fill="none" stroke="midnightblue" d="M330.66,-377.719C351.529,-384.531 374.398,-391.997 395.674,-398.942"/>
<polygon fill="midnightblue" stroke="midnightblue" points="331.502,-374.312 320.91,-374.536 329.33,-380.967 331.502,-374.312"/>
</g>
<!-- Node198 -->
<g id="node8" class="node"><title>Node198</title>
<g id="a_node8"><a xlink:href="../../d7/d75/class_ogre_1_1_terrain_p_s_s_m_material_generator_1_1_s_m2_profile_1_1_shader_helper.html#a358ed3ca82844d3bf0c0c901e4904c95" target="_top" xlink:title="Ogre::TerrainPSSMMaterial\lGenerator::SM2Profile::\lShaderHelper::generateFragmentProgram\lSource">
<polygon fill="white" stroke="black" points="378,-328 378,-380 575,-380 575,-328 378,-328"/>
<text text-anchor="start" x="386" y="-368" font-family="Helvetica,sans-Serif" font-size="10.00">Ogre::TerrainPSSMMaterial</text>
<text text-anchor="start" x="386" y="-357" font-family="Helvetica,sans-Serif" font-size="10.00">Generator::SM2Profile::</text>
<text text-anchor="start" x="386" y="-346" font-family="Helvetica,sans-Serif" font-size="10.00">ShaderHelper::generateFragmentProgram</text>
<text text-anchor="middle" x="476.5" y="-335" font-family="Helvetica,sans-Serif" font-size="10.00">Source</text>
</a>
</g>
</g>
<!-- Node192&#45;&gt;Node198 -->
<g id="edge7" class="edge"><title>Node192&#45;&gt;Node198</title>
<path fill="none" stroke="midnightblue" d="M335.4,-354C349.166,-354 363.665,-354 377.906,-354"/>
<polygon fill="midnightblue" stroke="midnightblue" points="335.032,-350.5 325.032,-354 335.032,-357.5 335.032,-350.5"/>
</g>
<!-- Node199 -->
<g id="node9" class="node"><title>Node199</title>
<g id="a_node9"><a xlink:href="../../d7/d75/class_ogre_1_1_terrain_p_s_s_m_material_generator_1_1_s_m2_profile_1_1_shader_helper.html#a097f056863a7c0f6a23065bfed11d9f9" target="_top" xlink:title="Ogre::TerrainPSSMMaterial\lGenerator::SM2Profile::\lShaderHelper::updateVpParams">
<polygon fill="white" stroke="black" points="398.5,-470.5 398.5,-511.5 554.5,-511.5 554.5,-470.5 398.5,-470.5"/>
<text text-anchor="start" x="406.5" y="-499.5" font-family="Helvetica,sans-Serif" font-size="10.00">Ogre::TerrainPSSMMaterial</text>
<text text-anchor="start" x="406.5" y="-488.5" font-family="Helvetica,sans-Serif" font-size="10.00">Generator::SM2Profile::</text>
<text text-anchor="middle" x="476.5" y="-477.5" font-family="Helvetica,sans-Serif" font-size="10.00">ShaderHelper::updateVpParams</text>
</a>
</g>
</g>
<!-- Node192&#45;&gt;Node199 -->
<g id="edge9" class="edge"><title>Node192&#45;&gt;Node199</title>
<path fill="none" stroke="midnightblue" d="M282.803,-382.078C305.436,-406.128 340.921,-440.096 378,-461 384.402,-464.609 391.291,-467.837 398.341,-470.712"/>
<polygon fill="midnightblue" stroke="midnightblue" points="285.283,-379.606 275.92,-374.647 280.148,-384.362 285.283,-379.606"/>
</g>
<!-- Node192&#45;&gt;Node200 -->
<g id="edge11" class="edge"><title>Node192&#45;&gt;Node200</title>
<path fill="none" stroke="midnightblue" d="M334.755,-330.709C358.623,-323.466 384.748,-315.539 407.94,-308.501"/>
<polygon fill="midnightblue" stroke="midnightblue" points="333.585,-327.406 325.032,-333.659 335.617,-334.105 333.585,-327.406"/>
</g>
<!-- Node192&#45;&gt;Node201 -->
<g id="edge12" class="edge"><title>Node192&#45;&gt;Node201</title>
<path fill="none" stroke="midnightblue" d="M286.146,-326.342C309.172,-305.054 343.464,-276.271 378,-258 384.575,-254.522 391.617,-251.377 398.795,-248.55"/>
<polygon fill="midnightblue" stroke="midnightblue" points="283.683,-323.854 278.785,-333.249 288.472,-328.959 283.683,-323.854"/>
</g>
<!-- Node194 -->
<g id="node4" class="node"><title>Node194</title>
<g id="a_node4"><a xlink:href="../../d5/d2c/class_ogre_1_1_terrain_p_s_s_m_material_generator_1_1_s_m2_profile.html#ab6033379000abdc69e506ac4aa334c48" target="_top" xlink:title="Ogre::TerrainPSSMMaterial\lGenerator::SM2Profile::\lgenerate">
<polygon fill="white" stroke="black" points="616,-500.5 616,-541.5 752,-541.5 752,-500.5 616,-500.5"/>
<text text-anchor="start" x="624" y="-529.5" font-family="Helvetica,sans-Serif" font-size="10.00">Ogre::TerrainPSSMMaterial</text>
<text text-anchor="start" x="624" y="-518.5" font-family="Helvetica,sans-Serif" font-size="10.00">Generator::SM2Profile::</text>
<text text-anchor="middle" x="684" y="-507.5" font-family="Helvetica,sans-Serif" font-size="10.00">generate</text>
</a>
</g>
</g>
<!-- Node193&#45;&gt;Node194 -->
<g id="edge3" class="edge"><title>Node193&#45;&gt;Node194</title>
<path fill="none" stroke="midnightblue" d="M554.56,-539.75C574.668,-536.815 596.179,-533.675 615.736,-530.82"/>
<polygon fill="midnightblue" stroke="midnightblue" points="553.894,-536.31 544.504,-541.218 554.905,-543.237 553.894,-536.31"/>
</g>
<!-- Node195 -->
<g id="node5" class="node"><title>Node195</title>
<g id="a_node5"><a xlink:href="../../d5/d2c/class_ogre_1_1_terrain_p_s_s_m_material_generator_1_1_s_m2_profile.html#aa4369031319a31c9b09a1f6368541fe9" target="_top" xlink:title="Ogre::TerrainPSSMMaterial\lGenerator::SM2Profile::\lgenerateForCompositeMap">
<polygon fill="white" stroke="black" points="616,-560.5 616,-601.5 752,-601.5 752,-560.5 616,-560.5"/>
<text text-anchor="start" x="624" y="-589.5" font-family="Helvetica,sans-Serif" font-size="10.00">Ogre::TerrainPSSMMaterial</text>
<text text-anchor="start" x="624" y="-578.5" font-family="Helvetica,sans-Serif" font-size="10.00">Generator::SM2Profile::</text>
<text text-anchor="middle" x="684" y="-567.5" font-family="Helvetica,sans-Serif" font-size="10.00">generateForCompositeMap</text>
</a>
</g>
</g>
<!-- Node193&#45;&gt;Node195 -->
<g id="edge4" class="edge"><title>Node193&#45;&gt;Node195</title>
<path fill="none" stroke="midnightblue" d="M554.56,-562.25C574.668,-565.185 596.179,-568.325 615.736,-571.18"/>
<polygon fill="midnightblue" stroke="midnightblue" points="554.905,-558.763 544.504,-560.782 553.894,-565.69 554.905,-558.763"/>
</g>
<!-- Node197 -->
<g id="node7" class="node"><title>Node197</title>
<g id="a_node7"><a xlink:href="../../d7/d75/class_ogre_1_1_terrain_p_s_s_m_material_generator_1_1_s_m2_profile_1_1_shader_helper.html#ab95641c2ba501d35606692caee36a3d1" target="_top" xlink:title="Ogre::TerrainPSSMMaterial\lGenerator::SM2Profile::\lShaderHelper::~ShaderHelper">
<polygon fill="white" stroke="black" points="611,-333.5 611,-374.5 757,-374.5 757,-333.5 611,-333.5"/>
<text text-anchor="start" x="619" y="-362.5" font-family="Helvetica,sans-Serif" font-size="10.00">Ogre::TerrainPSSMMaterial</text>
<text text-anchor="start" x="619" y="-351.5" font-family="Helvetica,sans-Serif" font-size="10.00">Generator::SM2Profile::</text>
<text text-anchor="middle" x="684" y="-340.5" font-family="Helvetica,sans-Serif" font-size="10.00">ShaderHelper::~ShaderHelper</text>
</a>
</g>
</g>
<!-- Node196&#45;&gt;Node197 -->
<g id="edge6" class="edge"><title>Node196&#45;&gt;Node197</title>
<path fill="none" stroke="midnightblue" d="M562.491,-395.636C582.958,-388.565 604.393,-381.159 623.416,-374.586"/>
<polygon fill="midnightblue" stroke="midnightblue" points="561.163,-392.392 552.854,-398.965 563.448,-399.008 561.163,-392.392"/>
</g>
<!-- Node198&#45;&gt;Node197 -->
<g id="edge8" class="edge"><title>Node198&#45;&gt;Node197</title>
<path fill="none" stroke="midnightblue" d="M585.278,-354C593.912,-354 602.5,-354 610.794,-354"/>
<polygon fill="midnightblue" stroke="midnightblue" points="585.134,-350.5 575.134,-354 585.134,-357.5 585.134,-350.5"/>
</g>
<!-- Node199&#45;&gt;Node197 -->
<g id="edge10" class="edge"><title>Node199&#45;&gt;Node197</title>
<path fill="none" stroke="midnightblue" d="M563.789,-467.033C567.653,-465.158 571.41,-463.15 575,-461 613.268,-438.081 648.077,-398.791 667.317,-374.733"/>
<polygon fill="midnightblue" stroke="midnightblue" points="562.29,-463.87 554.61,-471.17 565.165,-470.252 562.29,-463.87"/>
</g>
<!-- Node202&#45;&gt;Node197 -->
<g id="edge15" class="edge"><title>Node202&#45;&gt;Node197</title>
<path fill="none" stroke="midnightblue" d="M344.838,-178.98C411.63,-166.868 504.169,-160.888 575,-198 630.146,-226.894 662.732,-298.153 676.011,-333.474"/>
<polygon fill="midnightblue" stroke="midnightblue" points="343.936,-175.589 334.762,-180.889 345.239,-182.467 343.936,-175.589"/>
</g>
<!-- Node203&#45;&gt;Node197 -->
<g id="edge17" class="edge"><title>Node203&#45;&gt;Node197</title>
<path fill="none" stroke="midnightblue" d="M344.889,-127.075C412.741,-120.826 506.66,-122.77 575,-166 636.872,-205.139 667.07,-293.327 678.008,-333.44"/>
<polygon fill="midnightblue" stroke="midnightblue" points="344.256,-123.621 334.653,-128.098 344.951,-130.586 344.256,-123.621"/>
</g>
</g>
</svg>
