<?xml version="1.0" encoding="UTF-8" standalone="no"?>
<!DOCTYPE svg PUBLIC "-//W3C//DTD SVG 1.1//EN"
 "http://www.w3.org/Graphics/SVG/1.1/DTD/svg11.dtd">
<!-- Generated by graphviz version 2.38.0 (20140413.2041)
 -->
<!-- Title: Ogre::TerrainPSSMMaterialGenerator::SM2Profile::setLayerParallaxMappingEnabled Pages: 1 -->
<svg width="1452pt" height="233pt"
 viewBox="0.00 0.00 1452.00 233.00" xmlns="http://www.w3.org/2000/svg" xmlns:xlink="http://www.w3.org/1999/xlink">
<g id="graph0" class="graph" transform="scale(1 1) rotate(0) translate(4 229)">
<title>Ogre::TerrainPSSMMaterialGenerator::SM2Profile::setLayerParallaxMappingEnabled</title>
<polygon fill="white" stroke="none" points="-4,4 -4,-229 1448,-229 1448,4 -4,4"/>
<!-- Node251 -->
<g id="node1" class="node"><title>Node251</title>
<polygon fill="#bfbfbf" stroke="black" points="0,-108.5 0,-149.5 161,-149.5 161,-108.5 0,-108.5"/>
<text text-anchor="start" x="8" y="-137.5" font-family="Helvetica,sans-Serif" font-size="10.00">Ogre::TerrainPSSMMaterial</text>
<text text-anchor="start" x="8" y="-126.5" font-family="Helvetica,sans-Serif" font-size="10.00">Generator::SM2Profile::</text>
<text text-anchor="middle" x="80.5" y="-115.5" font-family="Helvetica,sans-Serif" font-size="10.00">setLayerParallaxMappingEnabled</text>
</g>
<!-- Node252 -->
<g id="node2" class="node"><title>Node252</title>
<g id="a_node2"><a xlink:href="../../d5/d2c/class_ogre_1_1_terrain_p_s_s_m_material_generator_1_1_s_m2_profile.html#ab6033379000abdc69e506ac4aa334c48" target="_top" xlink:title="Ogre::TerrainPSSMMaterial\lGenerator::SM2Profile::\lgenerate">
<polygon fill="white" stroke="black" points="206.5,-168.5 206.5,-209.5 342.5,-209.5 342.5,-168.5 206.5,-168.5"/>
<text text-anchor="start" x="214.5" y="-197.5" font-family="Helvetica,sans-Serif" font-size="10.00">Ogre::TerrainPSSMMaterial</text>
<text text-anchor="start" x="214.5" y="-186.5" font-family="Helvetica,sans-Serif" font-size="10.00">Generator::SM2Profile::</text>
<text text-anchor="middle" x="274.5" y="-175.5" font-family="Helvetica,sans-Serif" font-size="10.00">generate</text>
</a>
</g>
</g>
<!-- Node251&#45;&gt;Node252 -->
<g id="edge1" class="edge"><title>Node251&#45;&gt;Node252</title>
<path fill="none" stroke="midnightblue" d="M157.058,-152.612C173.818,-157.849 191.45,-163.359 207.779,-168.462"/>
<polygon fill="midnightblue" stroke="midnightblue" points="157.896,-149.207 147.307,-149.565 155.808,-155.888 157.896,-149.207"/>
</g>
<!-- Node253 -->
<g id="node3" class="node"><title>Node253</title>
<g id="a_node3"><a xlink:href="../../d5/d2c/class_ogre_1_1_terrain_p_s_s_m_material_generator_1_1_s_m2_profile.html#a2f3714a390ae4d2d14a795764e8f9f9d" target="_top" xlink:title="Ogre::TerrainPSSMMaterial\lGenerator::SM2Profile::\lisLayerParallaxMappingEnabled">
<polygon fill="white" stroke="black" points="197,-108.5 197,-149.5 352,-149.5 352,-108.5 197,-108.5"/>
<text text-anchor="start" x="205" y="-137.5" font-family="Helvetica,sans-Serif" font-size="10.00">Ogre::TerrainPSSMMaterial</text>
<text text-anchor="start" x="205" y="-126.5" font-family="Helvetica,sans-Serif" font-size="10.00">Generator::SM2Profile::</text>
<text text-anchor="middle" x="274.5" y="-115.5" font-family="Helvetica,sans-Serif" font-size="10.00">isLayerParallaxMappingEnabled</text>
</a>
</g>
</g>
<!-- Node251&#45;&gt;Node253 -->
<g id="edge2" class="edge"><title>Node251&#45;&gt;Node253</title>
<path fill="none" stroke="midnightblue" d="M171.509,-129C179.953,-129 188.459,-129 196.765,-129"/>
<polygon fill="midnightblue" stroke="midnightblue" points="171.257,-125.5 161.257,-129 171.257,-132.5 171.257,-125.5"/>
</g>
<!-- Node257 -->
<g id="node7" class="node"><title>Node257</title>
<g id="a_node7"><a xlink:href="../../d2/d9a/class_terrain_geometry_manager.html#a10e78d511f72ed2ba109ff691cdc0ffb" target="_top" xlink:title="TerrainGeometryManager\l::configureTerrainDefaults">
<polygon fill="white" stroke="black" points="211.5,-29 211.5,-59 337.5,-59 337.5,-29 211.5,-29"/>
<text text-anchor="start" x="219.5" y="-47" font-family="Helvetica,sans-Serif" font-size="10.00">TerrainGeometryManager</text>
<text text-anchor="middle" x="274.5" y="-36" font-family="Helvetica,sans-Serif" font-size="10.00">::configureTerrainDefaults</text>
</a>
</g>
</g>
<!-- Node251&#45;&gt;Node257 -->
<g id="edge6" class="edge"><title>Node251&#45;&gt;Node257</title>
<path fill="none" stroke="midnightblue" d="M137.515,-104.202C170.542,-89.5802 211.259,-71.5547 239.485,-59.0586"/>
<polygon fill="midnightblue" stroke="midnightblue" points="135.705,-101.175 127.978,-108.424 138.539,-107.576 135.705,-101.175"/>
</g>
<!-- Node254 -->
<g id="node4" class="node"><title>Node254</title>
<g id="a_node4"><a xlink:href="../../dd/d33/class_ogre_1_1_terrain_p_s_s_m_material_generator_1_1_s_m2_profile_1_1_shader_helper_cg.html#ae6f2fb696f95011af53713df0df8bed8" target="_top" xlink:title="Ogre::TerrainPSSMMaterial\lGenerator::SM2Profile::\lShaderHelperCg::createFragmentProgram">
<polygon fill="white" stroke="black" points="388,-183.5 388,-224.5 586,-224.5 586,-183.5 388,-183.5"/>
<text text-anchor="start" x="396" y="-212.5" font-family="Helvetica,sans-Serif" font-size="10.00">Ogre::TerrainPSSMMaterial</text>
<text text-anchor="start" x="396" y="-201.5" font-family="Helvetica,sans-Serif" font-size="10.00">Generator::SM2Profile::</text>
<text text-anchor="middle" x="487" y="-190.5" font-family="Helvetica,sans-Serif" font-size="10.00">ShaderHelperCg::createFragmentProgram</text>
</a>
</g>
</g>
<!-- Node253&#45;&gt;Node254 -->
<g id="edge3" class="edge"><title>Node253&#45;&gt;Node254</title>
<path fill="none" stroke="midnightblue" d="M337.61,-153.23C342.484,-155.17 347.326,-157.11 352,-159 368.069,-165.498 371.693,-168.123 388,-174 396.955,-177.228 406.448,-180.417 415.862,-183.442"/>
<polygon fill="midnightblue" stroke="midnightblue" points="338.819,-149.944 328.233,-149.511 336.238,-156.451 338.819,-149.944"/>
</g>
<!-- Node255 -->
<g id="node5" class="node"><title>Node255</title>
<g id="a_node5"><a xlink:href="../../dd/d33/class_ogre_1_1_terrain_p_s_s_m_material_generator_1_1_s_m2_profile_1_1_shader_helper_cg.html#af37481d514eac4b4cf22db170c54756e" target="_top" xlink:title="Ogre::TerrainPSSMMaterial\lGenerator::SM2Profile::\lShaderHelperCg::generateFpHeader">
<polygon fill="white" stroke="black" points="400.5,-123.5 400.5,-164.5 573.5,-164.5 573.5,-123.5 400.5,-123.5"/>
<text text-anchor="start" x="408.5" y="-152.5" font-family="Helvetica,sans-Serif" font-size="10.00">Ogre::TerrainPSSMMaterial</text>
<text text-anchor="start" x="408.5" y="-141.5" font-family="Helvetica,sans-Serif" font-size="10.00">Generator::SM2Profile::</text>
<text text-anchor="middle" x="487" y="-130.5" font-family="Helvetica,sans-Serif" font-size="10.00">ShaderHelperCg::generateFpHeader</text>
</a>
</g>
</g>
<!-- Node253&#45;&gt;Node255 -->
<g id="edge4" class="edge"><title>Node253&#45;&gt;Node255</title>
<path fill="none" stroke="midnightblue" d="M362.092,-135.17C374.679,-136.067 387.634,-136.991 400.205,-137.886"/>
<polygon fill="midnightblue" stroke="midnightblue" points="362.314,-131.678 352.091,-134.458 361.817,-138.66 362.314,-131.678"/>
</g>
<!-- Node256 -->
<g id="node6" class="node"><title>Node256</title>
<g id="a_node6"><a xlink:href="../../dd/d33/class_ogre_1_1_terrain_p_s_s_m_material_generator_1_1_s_m2_profile_1_1_shader_helper_cg.html#aed5c4e365ffd55d08a815d445b2fe484" target="_top" xlink:title="Ogre::TerrainPSSMMaterial\lGenerator::SM2Profile::\lShaderHelperCg::generateFpLayer">
<polygon fill="white" stroke="black" points="404,-63.5 404,-104.5 570,-104.5 570,-63.5 404,-63.5"/>
<text text-anchor="start" x="412" y="-92.5" font-family="Helvetica,sans-Serif" font-size="10.00">Ogre::TerrainPSSMMaterial</text>
<text text-anchor="start" x="412" y="-81.5" font-family="Helvetica,sans-Serif" font-size="10.00">Generator::SM2Profile::</text>
<text text-anchor="middle" x="487" y="-70.5" font-family="Helvetica,sans-Serif" font-size="10.00">ShaderHelperCg::generateFpLayer</text>
</a>
</g>
</g>
<!-- Node253&#45;&gt;Node256 -->
<g id="edge5" class="edge"><title>Node253&#45;&gt;Node256</title>
<path fill="none" stroke="midnightblue" d="M362.047,-110.498C375.848,-107.548 390.091,-104.503 403.787,-101.575"/>
<polygon fill="midnightblue" stroke="midnightblue" points="361.138,-107.113 352.091,-112.627 362.602,-113.959 361.138,-107.113"/>
</g>
<!-- Node258 -->
<g id="node8" class="node"><title>Node258</title>
<g id="a_node8"><a xlink:href="../../d2/d9a/class_terrain_geometry_manager.html#a1be850a57cfa62aca477b22c8aee0607" target="_top" xlink:title="TerrainGeometryManager\l::InitTerrain">
<polygon fill="white" stroke="black" points="424,-14 424,-44 550,-44 550,-14 424,-14"/>
<text text-anchor="start" x="432" y="-32" font-family="Helvetica,sans-Serif" font-size="10.00">TerrainGeometryManager</text>
<text text-anchor="middle" x="487" y="-21" font-family="Helvetica,sans-Serif" font-size="10.00">::InitTerrain</text>
</a>
</g>
</g>
<!-- Node257&#45;&gt;Node258 -->
<g id="edge7" class="edge"><title>Node257&#45;&gt;Node258</title>
<path fill="none" stroke="midnightblue" d="M347.575,-38.864C372.322,-37.1006 399.793,-35.143 423.697,-33.4396"/>
<polygon fill="midnightblue" stroke="midnightblue" points="347.244,-35.3786 337.518,-39.5806 347.742,-42.3609 347.244,-35.3786"/>
</g>
<!-- Node259 -->
<g id="node9" class="node"><title>Node259</title>
<g id="a_node9"><a xlink:href="../../d3/d16/class_terrain_manager.html#a9a04c837bf2ea6528c465b27ca62f730" target="_top" xlink:title="TerrainManager::loadTerrain">
<polygon fill="white" stroke="black" points="622,-19.5 622,-38.5 759,-38.5 759,-19.5 622,-19.5"/>
<text text-anchor="middle" x="690.5" y="-26.5" font-family="Helvetica,sans-Serif" font-size="10.00">TerrainManager::loadTerrain</text>
</a>
</g>
</g>
<!-- Node258&#45;&gt;Node259 -->
<g id="edge8" class="edge"><title>Node258&#45;&gt;Node259</title>
<path fill="none" stroke="midnightblue" d="M560.156,-29C580.309,-29 602.126,-29 622,-29"/>
<polygon fill="midnightblue" stroke="midnightblue" points="560.101,-25.5001 550.101,-29 560.101,-32.5001 560.101,-25.5001"/>
</g>
<!-- Node260 -->
<g id="node10" class="node"><title>Node260</title>
<g id="a_node10"><a xlink:href="../../dd/dbe/class_ro_r_frame_listener.html#a9757c059e840019a3e2659d5ef63ea02" target="_top" xlink:title="Reads GVar &#39;sim_terrain_pending&#39;. ">
<polygon fill="white" stroke="black" points="795,-19.5 795,-38.5 949,-38.5 949,-19.5 795,-19.5"/>
<text text-anchor="middle" x="872" y="-26.5" font-family="Helvetica,sans-Serif" font-size="10.00">RoRFrameListener::LoadTerrain</text>
</a>
</g>
</g>
<!-- Node259&#45;&gt;Node260 -->
<g id="edge9" class="edge"><title>Node259&#45;&gt;Node260</title>
<path fill="none" stroke="midnightblue" d="M769.301,-29C777.734,-29 786.311,-29 794.726,-29"/>
<polygon fill="midnightblue" stroke="midnightblue" points="769.106,-25.5001 759.105,-29 769.105,-32.5001 769.106,-25.5001"/>
</g>
<!-- Node261 -->
<g id="node11" class="node"><title>Node261</title>
<g id="a_node11"><a xlink:href="../../dd/dbe/class_ro_r_frame_listener.html#aca3931d7a75f2ad4b9d36c4fcd03a3c9" target="_top" xlink:title="RoRFrameListener::SetupGameplayLoop">
<polygon fill="white" stroke="black" points="985,-0.5 985,-19.5 1179,-19.5 1179,-0.5 985,-0.5"/>
<text text-anchor="middle" x="1082" y="-7.5" font-family="Helvetica,sans-Serif" font-size="10.00">RoRFrameListener::SetupGameplayLoop</text>
</a>
</g>
</g>
<!-- Node260&#45;&gt;Node261 -->
<g id="edge10" class="edge"><title>Node260&#45;&gt;Node261</title>
<path fill="none" stroke="midnightblue" d="M959.434,-21.1046C967.843,-20.3365 976.41,-19.5539 984.906,-18.7779"/>
<polygon fill="midnightblue" stroke="midnightblue" points="958.911,-17.6377 949.27,-22.033 959.547,-24.6087 958.911,-17.6377"/>
</g>
<!-- Node262 -->
<g id="node12" class="node"><title>Node262</title>
<g id="a_node12"><a xlink:href="../../dd/dbe/class_ro_r_frame_listener.html#ad598075b5f183208c0de43b9248bb44b" target="_top" xlink:title="RoRFrameListener::getTime">
<polygon fill="white" stroke="black" points="1215,-38.5 1215,-57.5 1353,-57.5 1353,-38.5 1215,-38.5"/>
<text text-anchor="middle" x="1284" y="-45.5" font-family="Helvetica,sans-Serif" font-size="10.00">RoRFrameListener::getTime</text>
</a>
</g>
</g>
<!-- Node260&#45;&gt;Node262 -->
<g id="edge14" class="edge"><title>Node260&#45;&gt;Node262</title>
<path fill="none" stroke="midnightblue" d="M959.193,-32.9943C1035.25,-36.5188 1144.62,-41.5871 1214.74,-44.8368"/>
<polygon fill="midnightblue" stroke="midnightblue" points="959.308,-29.496 949.157,-32.5292 958.984,-36.4885 959.308,-29.496"/>
</g>
<!-- Node261&#45;&gt;Node262 -->
<g id="edge11" class="edge"><title>Node261&#45;&gt;Node262</title>
<path fill="none" stroke="midnightblue" d="M1143.1,-21.4181C1171.71,-26.8552 1205.54,-33.2832 1232.77,-38.4561"/>
<polygon fill="midnightblue" stroke="midnightblue" points="1143.69,-17.9682 1133.21,-19.54 1142.38,-24.8451 1143.69,-17.9682"/>
</g>
<!-- Node263 -->
<g id="node13" class="node"><title>Node263</title>
<g id="a_node13"><a xlink:href="../../df/d0a/main_8cpp.html#a0ddf1224851353fc92bfbff6f499fa97" target="_top" xlink:title="main">
<polygon fill="white" stroke="black" points="1265,-0.5 1265,-19.5 1303,-19.5 1303,-0.5 1265,-0.5"/>
<text text-anchor="middle" x="1284" y="-7.5" font-family="Helvetica,sans-Serif" font-size="10.00">main</text>
</a>
</g>
</g>
<!-- Node261&#45;&gt;Node263 -->
<g id="edge12" class="edge"><title>Node261&#45;&gt;Node263</title>
<path fill="none" stroke="midnightblue" d="M1189.52,-10C1218.66,-10 1247.07,-10 1264.77,-10"/>
<polygon fill="midnightblue" stroke="midnightblue" points="1189.19,-6.5001 1179.19,-10 1189.19,-13.5001 1189.19,-6.5001"/>
</g>
<!-- Node264 -->
<g id="node14" class="node"><title>Node264</title>
<g id="a_node14"><a xlink:href="../../df/d0a/main_8cpp.html#a2922bc5d5c2d77a3020cfbf9df12aab0" target="_top" xlink:title="WinMain">
<polygon fill="white" stroke="black" points="1389,-0.5 1389,-19.5 1444,-19.5 1444,-0.5 1389,-0.5"/>
<text text-anchor="middle" x="1416.5" y="-7.5" font-family="Helvetica,sans-Serif" font-size="10.00">WinMain</text>
</a>
</g>
</g>
<!-- Node263&#45;&gt;Node264 -->
<g id="edge13" class="edge"><title>Node263&#45;&gt;Node264</title>
<path fill="none" stroke="midnightblue" d="M1313.39,-10C1335.84,-10 1366.96,-10 1388.92,-10"/>
<polygon fill="midnightblue" stroke="midnightblue" points="1313.15,-6.5001 1303.15,-10 1313.15,-13.5001 1313.15,-6.5001"/>
</g>
</g>
</svg>
