<?xml version="1.0" encoding="UTF-8" standalone="no"?>
<!DOCTYPE svg PUBLIC "-//W3C//DTD SVG 1.1//EN"
 "http://www.w3.org/Graphics/SVG/1.1/DTD/svg11.dtd">
<!-- Generated by graphviz version 2.38.0 (20140413.2041)
 -->
<!-- Title: InputEngine::RestoreKeyboardListener Pages: 1 -->
<svg width="323pt" height="39pt"
 viewBox="0.00 0.00 323.00 39.00" xmlns="http://www.w3.org/2000/svg" xmlns:xlink="http://www.w3.org/1999/xlink">
<g id="graph0" class="graph" transform="scale(1 1) rotate(0) translate(4 35)">
<title>InputEngine::RestoreKeyboardListener</title>
<polygon fill="white" stroke="none" points="-4,4 -4,-35 319,-35 319,4 -4,4"/>
<!-- Node690 -->
<g id="node1" class="node"><title>Node690</title>
<polygon fill="#bfbfbf" stroke="black" points="0,-0.5 0,-30.5 149,-30.5 149,-0.5 0,-0.5"/>
<text text-anchor="start" x="8" y="-18.5" font-family="Helvetica,sans-Serif" font-size="10.00">InputEngine::RestoreKeyboard</text>
<text text-anchor="middle" x="74.5" y="-7.5" font-family="Helvetica,sans-Serif" font-size="10.00">Listener</text>
</g>
<!-- Node691 -->
<g id="node2" class="node"><title>Node691</title>
<g id="a_node2"><a xlink:href="../../d3/d7b/class_input_engine.html#a0a7547961b0086f723d6dbe7e876c582" target="_top" xlink:title="InputEngine::SetKeyboard\lListener">
<polygon fill="white" stroke="black" points="185,-0.5 185,-30.5 315,-30.5 315,-0.5 185,-0.5"/>
<text text-anchor="start" x="193" y="-18.5" font-family="Helvetica,sans-Serif" font-size="10.00">InputEngine::SetKeyboard</text>
<text text-anchor="middle" x="250" y="-7.5" font-family="Helvetica,sans-Serif" font-size="10.00">Listener</text>
</a>
</g>
</g>
<!-- Node690&#45;&gt;Node691 -->
<g id="edge1" class="edge"><title>Node690&#45;&gt;Node691</title>
<path fill="none" stroke="midnightblue" d="M149.08,-15.5C157.55,-15.5 166.192,-15.5 174.672,-15.5"/>
<polygon fill="midnightblue" stroke="midnightblue" points="174.913,-19.0001 184.913,-15.5 174.913,-12.0001 174.913,-19.0001"/>
</g>
</g>
</svg>
