<?xml version="1.0" encoding="UTF-8" standalone="no"?>
<!DOCTYPE svg PUBLIC "-//W3C//DTD SVG 1.1//EN"
 "http://www.w3.org/Graphics/SVG/1.1/DTD/svg11.dtd">
<!-- Generated by graphviz version 2.38.0 (20140413.2041)
 -->
<!-- Title: InputEngine::processLine Pages: 1 -->
<svg width="811pt" height="88pt"
 viewBox="0.00 0.00 811.00 88.00" xmlns="http://www.w3.org/2000/svg" xmlns:xlink="http://www.w3.org/1999/xlink">
<g id="graph0" class="graph" transform="scale(1 1) rotate(0) translate(4 84)">
<title>InputEngine::processLine</title>
<polygon fill="white" stroke="none" points="-4,4 -4,-84 807,-84 807,4 -4,4"/>
<!-- Node639 -->
<g id="node1" class="node"><title>Node639</title>
<polygon fill="#bfbfbf" stroke="black" points="0,-22.5 0,-41.5 126,-41.5 126,-22.5 0,-22.5"/>
<text text-anchor="middle" x="63" y="-29.5" font-family="Helvetica,sans-Serif" font-size="10.00">InputEngine::processLine</text>
</g>
<!-- Node640 -->
<g id="node2" class="node"><title>Node640</title>
<g id="a_node2"><a xlink:href="../../d3/d7b/class_input_engine.html#a1fbcc159a8a9342ba21412c33dc719b1" target="_top" xlink:title="InputEngine::completeMissing\lEvents">
<polygon fill="white" stroke="black" points="162,-39 162,-69 309,-69 309,-39 162,-39"/>
<text text-anchor="start" x="170" y="-57" font-family="Helvetica,sans-Serif" font-size="10.00">InputEngine::completeMissing</text>
<text text-anchor="middle" x="235.5" y="-46" font-family="Helvetica,sans-Serif" font-size="10.00">Events</text>
</a>
</g>
</g>
<!-- Node639&#45;&gt;Node640 -->
<g id="edge1" class="edge"><title>Node639&#45;&gt;Node640</title>
<path fill="none" stroke="midnightblue" d="M135.964,-41.2857C144.511,-42.3885 153.24,-43.5148 161.797,-44.6189"/>
<polygon fill="midnightblue" stroke="midnightblue" points="136.402,-37.8133 126.037,-40.0047 135.507,-44.7558 136.402,-37.8133"/>
</g>
<!-- Node646 -->
<g id="node8" class="node"><title>Node646</title>
<g id="a_node8"><a xlink:href="../../d3/d7b/class_input_engine.html#a4e6616df0615d79e74d38ba2cf0ee9b2" target="_top" xlink:title="InputEngine::loadMapping">
<polygon fill="white" stroke="black" points="171.5,-0.5 171.5,-19.5 299.5,-19.5 299.5,-0.5 171.5,-0.5"/>
<text text-anchor="middle" x="235.5" y="-7.5" font-family="Helvetica,sans-Serif" font-size="10.00">InputEngine::loadMapping</text>
</a>
</g>
</g>
<!-- Node639&#45;&gt;Node646 -->
<g id="edge7" class="edge"><title>Node639&#45;&gt;Node646</title>
<path fill="none" stroke="midnightblue" d="M136.2,-22.6839C147.889,-21.1757 159.913,-19.6241 171.365,-18.1464"/>
<polygon fill="midnightblue" stroke="midnightblue" points="135.507,-19.2442 126.037,-23.9953 136.402,-26.1867 135.507,-19.2442"/>
</g>
<!-- Node641 -->
<g id="node3" class="node"><title>Node641</title>
<g id="a_node3"><a xlink:href="../../d3/d7b/class_input_engine.html#aa4e8247770d4d69bf1ce5e20d57d6ed4" target="_top" xlink:title="InputEngine::setup">
<polygon fill="white" stroke="black" points="359.5,-41.5 359.5,-60.5 457.5,-60.5 457.5,-41.5 359.5,-41.5"/>
<text text-anchor="middle" x="408.5" y="-48.5" font-family="Helvetica,sans-Serif" font-size="10.00">InputEngine::setup</text>
</a>
</g>
</g>
<!-- Node640&#45;&gt;Node641 -->
<g id="edge2" class="edge"><title>Node640&#45;&gt;Node641</title>
<path fill="none" stroke="midnightblue" d="M319.053,-52.5517C332.886,-52.309 346.822,-52.0645 359.41,-51.8437"/>
<polygon fill="midnightblue" stroke="midnightblue" points="318.956,-49.0528 309.019,-52.7277 319.079,-56.0517 318.956,-49.0528"/>
</g>
<!-- Node642 -->
<g id="node4" class="node"><title>Node642</title>
<g id="a_node4"><a xlink:href="../../d3/d7b/class_input_engine.html#a1a103e7902cd57ea877a0c8ac049d3cd" target="_top" xlink:title="InputEngine::saveMapping">
<polygon fill="white" stroke="black" points="508,-60.5 508,-79.5 638,-79.5 638,-60.5 508,-60.5"/>
<text text-anchor="middle" x="573" y="-67.5" font-family="Helvetica,sans-Serif" font-size="10.00">InputEngine::saveMapping</text>
</a>
</g>
</g>
<!-- Node641&#45;&gt;Node642 -->
<g id="edge3" class="edge"><title>Node641&#45;&gt;Node642</title>
<path fill="none" stroke="midnightblue" d="M467.998,-57.8397C480.954,-59.3546 494.749,-60.9676 507.914,-62.5069"/>
<polygon fill="midnightblue" stroke="midnightblue" points="468.154,-54.3343 457.815,-56.6492 467.341,-61.2869 468.154,-54.3343"/>
</g>
<!-- Node643 -->
<g id="node5" class="node"><title>Node643</title>
<g id="a_node5"><a xlink:href="../../d3/d7b/class_input_engine.html#afc5ef2151ca9c7a7af89c18dbbcdc65d" target="_top" xlink:title="InputEngine::setupDefault">
<polygon fill="white" stroke="black" points="509,-22.5 509,-41.5 637,-41.5 637,-22.5 509,-22.5"/>
<text text-anchor="middle" x="573" y="-29.5" font-family="Helvetica,sans-Serif" font-size="10.00">InputEngine::setupDefault</text>
</a>
</g>
</g>
<!-- Node641&#45;&gt;Node643 -->
<g id="edge4" class="edge"><title>Node641&#45;&gt;Node643</title>
<path fill="none" stroke="midnightblue" d="M467.792,-44.1844C481.1,-42.6283 495.304,-40.9675 508.807,-39.3887"/>
<polygon fill="midnightblue" stroke="midnightblue" points="467.341,-40.7131 457.815,-45.3508 468.154,-47.6657 467.341,-40.7131"/>
</g>
<!-- Node644 -->
<g id="node6" class="node"><title>Node644</title>
<g id="a_node6"><a xlink:href="../../df/d0a/main_8cpp.html#a0ddf1224851353fc92bfbff6f499fa97" target="_top" xlink:title="main">
<polygon fill="white" stroke="black" points="674,-22.5 674,-41.5 712,-41.5 712,-22.5 674,-22.5"/>
<text text-anchor="middle" x="693" y="-29.5" font-family="Helvetica,sans-Serif" font-size="10.00">main</text>
</a>
</g>
</g>
<!-- Node643&#45;&gt;Node644 -->
<g id="edge5" class="edge"><title>Node643&#45;&gt;Node644</title>
<path fill="none" stroke="midnightblue" d="M647.382,-32C657.06,-32 666.188,-32 673.635,-32"/>
<polygon fill="midnightblue" stroke="midnightblue" points="647.145,-28.5001 637.145,-32 647.145,-35.5001 647.145,-28.5001"/>
</g>
<!-- Node645 -->
<g id="node7" class="node"><title>Node645</title>
<g id="a_node7"><a xlink:href="../../df/d0a/main_8cpp.html#a2922bc5d5c2d77a3020cfbf9df12aab0" target="_top" xlink:title="WinMain">
<polygon fill="white" stroke="black" points="748,-22.5 748,-41.5 803,-41.5 803,-22.5 748,-22.5"/>
<text text-anchor="middle" x="775.5" y="-29.5" font-family="Helvetica,sans-Serif" font-size="10.00">WinMain</text>
</a>
</g>
</g>
<!-- Node644&#45;&gt;Node645 -->
<g id="edge6" class="edge"><title>Node644&#45;&gt;Node645</title>
<path fill="none" stroke="midnightblue" d="M722.519,-32C730.73,-32 739.653,-32 747.752,-32"/>
<polygon fill="midnightblue" stroke="midnightblue" points="722.267,-28.5001 712.267,-32 722.267,-35.5001 722.267,-28.5001"/>
</g>
<!-- Node646&#45;&gt;Node641 -->
<g id="edge8" class="edge"><title>Node646&#45;&gt;Node641</title>
<path fill="none" stroke="midnightblue" d="M286.18,-21.9116C312.125,-28.1323 343.442,-35.6411 367.759,-41.4714"/>
<polygon fill="midnightblue" stroke="midnightblue" points="286.701,-18.4374 276.161,-19.5093 285.069,-25.2445 286.701,-18.4374"/>
</g>
<!-- Node647 -->
<g id="node9" class="node"><title>Node647</title>
<g id="a_node9"><a xlink:href="../../d3/d7b/class_input_engine.html#a924b6c319f3bc491af8b97a3943d6f4c" target="_top" xlink:title="InputEngine::reloadConfig">
<polygon fill="white" stroke="black" points="345,-0.5 345,-19.5 472,-19.5 472,-0.5 345,-0.5"/>
<text text-anchor="middle" x="408.5" y="-7.5" font-family="Helvetica,sans-Serif" font-size="10.00">InputEngine::reloadConfig</text>
</a>
</g>
</g>
<!-- Node646&#45;&gt;Node647 -->
<g id="edge9" class="edge"><title>Node646&#45;&gt;Node647</title>
<path fill="none" stroke="midnightblue" d="M309.836,-10C321.498,-10 333.469,-10 344.857,-10"/>
<polygon fill="midnightblue" stroke="midnightblue" points="309.688,-6.5001 299.688,-10 309.688,-13.5001 309.688,-6.5001"/>
</g>
</g>
</svg>
