<?xml version="1.0" encoding="UTF-8" standalone="no"?>
<!DOCTYPE svg PUBLIC "-//W3C//DTD SVG 1.1//EN"
 "http://www.w3.org/Graphics/SVG/1.1/DTD/svg11.dtd">
<!-- Generated by graphviz version 2.38.0 (20140413.2041)
 -->
<!-- Title: InputEngine::getEventBoolValue Pages: 1 -->
<!--zoomable 104 -->
<svg id="main" version="1.1" xmlns="http://www.w3.org/2000/svg" xmlns:xlink="http://www.w3.org/1999/xlink" xml:space="preserve" onload="init(evt)">
<style type="text/css"><![CDATA[
.edge:hover path { stroke: red; }
.edge:hover polygon { stroke: red; fill: red; }
]]></style>
<script type="text/javascript"><![CDATA[
var edges = document.getElementsByTagName('g');
if (edges && edges.length) {
  for (var i=0;i<edges.length;i++) {
    if (edges[i].id.substr(0,4)=='edge') {
      edges[i].setAttribute('class','edge');
    }
  }
}
]]></script>
        <defs>
                <circle id="rim" cx="0" cy="0" r="7"/>
                <circle id="rim2" cx="0" cy="0" r="3.5"/>
                <g id="zoomPlus">
                        <use xlink:href="#rim" fill="#404040">
                                <set attributeName="fill" to="#808080" begin="zoomplus.mouseover" end="zoomplus.mouseout"/>
                        </use>
                        <path d="M-4,0h8M0,-4v8" fill="none" stroke="white" stroke-width="1.5" pointer-events="none"/>
                </g>
                <g id="zoomMin">
                        <use xlink:href="#rim" fill="#404040">
                                <set attributeName="fill" to="#808080" begin="zoomminus.mouseover" end="zoomminus.mouseout"/>
                        </use>
                        <path d="M-4,0h8" fill="none" stroke="white" stroke-width="1.5" pointer-events="none"/>
                </g>
                <g id="dirArrow">
                        <path fill="none" stroke="white" stroke-width="1.5" d="M0,-3.0v7 M-2.5,-0.5L0,-3.0L2.5,-0.5"/>
                </g>
               <g id="resetDef">
                       <use xlink:href="#rim2" fill="#404040">
                               <set attributeName="fill" to="#808080" begin="reset.mouseover" end="reset.mouseout"/>
                       </use>
               </g>
        </defs>

<script type="text/javascript">
var viewWidth = 568;
var viewHeight = 104;
var sectionId = 'dynsection-15';
</script>
<script xlink:href="../../svgpan.js"/>
<svg id="graph" class="graph">
<g id="viewport">
<title>InputEngine::getEventBoolValue</title>
<polygon fill="white" stroke="none" points="-4,4 -4,-100 564,-100 564,4 -4,4"/>
<!-- Node241 -->
<g id="node1" class="node"><title>Node241</title>
<polygon fill="#bfbfbf" stroke="black" points="0,-33 0,-63 131,-63 131,-33 0,-33"/>
<text text-anchor="start" x="8" y="-51" font-family="Helvetica,sans-Serif" font-size="10.00">InputEngine::getEventBool</text>
<text text-anchor="middle" x="65.5" y="-40" font-family="Helvetica,sans-Serif" font-size="10.00">Value</text>
</g>
<!-- Node242 -->
<g id="node2" class="node"><title>Node242</title>
<g id="a_node2"><a xlink:href="../../d3/d7b/class_input_engine.html#a251be92f16fe445542e240fc121354d8" target="_top" xlink:title="InputEngine::getEventValue">
<polygon fill="white" stroke="black" points="167,-38.5 167,-57.5 303,-57.5 303,-38.5 167,-38.5"/>
<text text-anchor="middle" x="235" y="-45.5" font-family="Helvetica,sans-Serif" font-size="10.00">InputEngine::getEventValue</text>
</a>
</g>
</g>
<!-- Node241&#45;&gt;Node242 -->
<g id="edge1" class="edge"><title>Node241&#45;&gt;Node242</title>
<path fill="none" stroke="midnightblue" d="M131.26,-48C139.663,-48 148.336,-48 156.914,-48"/>
<polygon fill="midnightblue" stroke="midnightblue" points="156.92,-51.5001 166.92,-48 156.92,-44.5001 156.92,-51.5001"/>
</g>
<!-- Node243 -->
<g id="node3" class="node"><title>Node243</title>
<g id="a_node3"><a xlink:href="../../d9/da3/_application_8h.html#ac91efe9de379ef0fde6e0c6f369dfb35" target="_top" xlink:title="Legacy alias &#45; formerly a macro. ">
<polygon fill="white" stroke="black" points="384.5,-76.5 384.5,-95.5 421.5,-95.5 421.5,-76.5 384.5,-76.5"/>
<text text-anchor="middle" x="403" y="-83.5" font-family="Helvetica,sans-Serif" font-size="10.00">LOG</text>
</a>
</g>
</g>
<!-- Node242&#45;&gt;Node243 -->
<g id="edge2" class="edge"><title>Node242&#45;&gt;Node243</title>
<path fill="none" stroke="midnightblue" d="M277.889,-57.589C308.11,-64.5071 348.059,-73.6521 374.366,-79.6742"/>
<polygon fill="midnightblue" stroke="midnightblue" points="373.873,-83.1518 384.402,-81.9716 375.435,-76.3283 373.873,-83.1518"/>
</g>
<!-- Node245 -->
<g id="node5" class="node"><title>Node245</title>
<g id="a_node5"><a xlink:href="../../d3/d7b/class_input_engine.html#a3e63861375a5873297281b885c8aa8f9" target="_top" xlink:title="InputEngine::axisLinearity">
<polygon fill="white" stroke="black" points="339,-38.5 339,-57.5 467,-57.5 467,-38.5 339,-38.5"/>
<text text-anchor="middle" x="403" y="-45.5" font-family="Helvetica,sans-Serif" font-size="10.00">InputEngine::axisLinearity</text>
</a>
</g>
</g>
<!-- Node242&#45;&gt;Node245 -->
<g id="edge4" class="edge"><title>Node242&#45;&gt;Node245</title>
<path fill="none" stroke="midnightblue" d="M303.04,-48C311.42,-48 320.026,-48 328.498,-48"/>
<polygon fill="midnightblue" stroke="midnightblue" points="328.742,-51.5001 338.742,-48 328.742,-44.5001 328.742,-51.5001"/>
</g>
<!-- Node246 -->
<g id="node6" class="node"><title>Node246</title>
<g id="a_node6"><a xlink:href="../../d3/d7b/class_input_engine.html#aaa9f701b9f4420b8e97cf4ae775038c1" target="_top" xlink:title="InputEngine::deadZone">
<polygon fill="white" stroke="black" points="345,-0.5 345,-19.5 461,-19.5 461,-0.5 345,-0.5"/>
<text text-anchor="middle" x="403" y="-7.5" font-family="Helvetica,sans-Serif" font-size="10.00">InputEngine::deadZone</text>
</a>
</g>
</g>
<!-- Node242&#45;&gt;Node246 -->
<g id="edge5" class="edge"><title>Node242&#45;&gt;Node246</title>
<path fill="none" stroke="midnightblue" d="M277.889,-38.411C299.893,-33.3739 327.055,-27.1562 350.352,-21.8229"/>
<polygon fill="midnightblue" stroke="midnightblue" points="351.446,-25.1633 360.412,-19.5201 349.884,-18.3398 351.446,-25.1633"/>
</g>
<!-- Node244 -->
<g id="node4" class="node"><title>Node244</title>
<g id="a_node4"><a xlink:href="../../dd/dd2/namespace_ro_r.html#a15fdb48aba128c41a9c75357c2282694" target="_top" xlink:title="The ultimate, application&#45;wide logging function. Adds a line (any length) in &#39;RoR.log&#39; file. ">
<polygon fill="white" stroke="black" points="503,-76.5 503,-95.5 560,-95.5 560,-76.5 503,-76.5"/>
<text text-anchor="middle" x="531.5" y="-83.5" font-family="Helvetica,sans-Serif" font-size="10.00">RoR::Log</text>
</a>
</g>
</g>
<!-- Node243&#45;&gt;Node244 -->
<g id="edge3" class="edge"><title>Node243&#45;&gt;Node244</title>
<path fill="none" stroke="midnightblue" d="M421.589,-86C439.922,-86 469.212,-86 492.802,-86"/>
<polygon fill="midnightblue" stroke="midnightblue" points="492.847,-89.5001 502.847,-86 492.847,-82.5001 492.847,-89.5001"/>
</g>
</g>
</svg>
        <g id="navigator" transform="translate(0 0)" fill="#404254">
                <rect fill="#f2f5e9" fill-opacity="0.5" stroke="#606060" stroke-width=".5" x="0" y="0" width="60" height="60"/>
                <use id="zoomplus" xlink:href="#zoomPlus" x="17" y="9" onmousedown="handleZoom(evt,'in')"/>
                <use id="zoomminus" xlink:href="#zoomMin" x="42" y="9" onmousedown="handleZoom(evt,'out')"/>
                <use id="reset" xlink:href="#resetDef" x="30" y="36" onmousedown="handleReset()"/>
                <g id="arrowUp" xlink:href="#dirArrow" transform="translate(30 24)" onmousedown="handlePan(0,-1)">
                  <use xlink:href="#rim" fill="#404040">
                        <set attributeName="fill" to="#808080" begin="arrowUp.mouseover" end="arrowUp.mouseout"/>
                  </use>
                  <path fill="none" stroke="white" stroke-width="1.5" d="M0,-3.0v7 M-2.5,-0.5L0,-3.0L2.5,-0.5"/>
                </g>
                <g id="arrowRight" xlink:href="#dirArrow" transform="rotate(90) translate(36 -43)" onmousedown="handlePan(1,0)">
                  <use xlink:href="#rim" fill="#404040">
                        <set attributeName="fill" to="#808080" begin="arrowRight.mouseover" end="arrowRight.mouseout"/>
                  </use>
                  <path fill="none" stroke="white" stroke-width="1.5" d="M0,-3.0v7 M-2.5,-0.5L0,-3.0L2.5,-0.5"/>
                </g>
                <g id="arrowDown" xlink:href="#dirArrow" transform="rotate(180) translate(-30 -48)" onmousedown="handlePan(0,1)">
                  <use xlink:href="#rim" fill="#404040">
                        <set attributeName="fill" to="#808080" begin="arrowDown.mouseover" end="arrowDown.mouseout"/>
                  </use>
                  <path fill="none" stroke="white" stroke-width="1.5" d="M0,-3.0v7 M-2.5,-0.5L0,-3.0L2.5,-0.5"/>
                </g>
                <g id="arrowLeft" xlink:href="#dirArrow" transform="rotate(270) translate(-36 17)" onmousedown="handlePan(-1,0)">
                  <use xlink:href="#rim" fill="#404040">
                        <set attributeName="fill" to="#808080" begin="arrowLeft.mouseover" end="arrowLeft.mouseout"/>
                  </use>
                  <path fill="none" stroke="white" stroke-width="1.5" d="M0,-3.0v7 M-2.5,-0.5L0,-3.0L2.5,-0.5"/>
                </g>
        </g>
        <svg viewBox="0 0 15 15" width="100%" height="30px" preserveAspectRatio="xMaxYMin meet">
         <g id="arrow_out" transform="scale(0.3 0.3)">
          <a xlink:href="class_input_engine_a72145988ab99faec6f618c2a4011d236_cgraph_org.svg" target="_base">
           <rect id="button" ry="5" rx="5" y="6" x="6" height="38" width="38"
                fill="#f2f5e9" fill-opacity="0.5" stroke="#606060" stroke-width="1.0"/>
           <path id="arrow"
             d="M 11.500037,31.436501 C 11.940474,20.09759 22.043105,11.32322 32.158766,21.979434 L 37.068811,17.246167 C 37.068811,17.246167 37.088388,32 37.088388,32 L 22.160133,31.978069 C 22.160133,31.978069 26.997745,27.140456 26.997745,27.140456 C 18.528582,18.264221 13.291696,25.230495 11.500037,31.436501 z"
             style="fill:#404040;"/>
          </a>
         </g>
        </svg>
</svg>
