<?xml version="1.0" encoding="UTF-8" standalone="no"?>
<!DOCTYPE svg PUBLIC "-//W3C//DTD SVG 1.1//EN"
 "http://www.w3.org/Graphics/SVG/1.1/DTD/svg11.dtd">
<!-- Generated by graphviz version 2.38.0 (20140413.2041)
 -->
<!-- Title: InputEngine::getEventGroup Pages: 1 -->
<!--zoomable 88 -->
<svg id="main" version="1.1" xmlns="http://www.w3.org/2000/svg" xmlns:xlink="http://www.w3.org/1999/xlink" xml:space="preserve" onload="init(evt)">
<style type="text/css"><![CDATA[
.edge:hover path { stroke: red; }
.edge:hover polygon { stroke: red; fill: red; }
]]></style>
<script type="text/javascript"><![CDATA[
var edges = document.getElementsByTagName('g');
if (edges && edges.length) {
  for (var i=0;i<edges.length;i++) {
    if (edges[i].id.substr(0,4)=='edge') {
      edges[i].setAttribute('class','edge');
    }
  }
}
]]></script>
        <defs>
                <circle id="rim" cx="0" cy="0" r="7"/>
                <circle id="rim2" cx="0" cy="0" r="3.5"/>
                <g id="zoomPlus">
                        <use xlink:href="#rim" fill="#404040">
                                <set attributeName="fill" to="#808080" begin="zoomplus.mouseover" end="zoomplus.mouseout"/>
                        </use>
                        <path d="M-4,0h8M0,-4v8" fill="none" stroke="white" stroke-width="1.5" pointer-events="none"/>
                </g>
                <g id="zoomMin">
                        <use xlink:href="#rim" fill="#404040">
                                <set attributeName="fill" to="#808080" begin="zoomminus.mouseover" end="zoomminus.mouseout"/>
                        </use>
                        <path d="M-4,0h8" fill="none" stroke="white" stroke-width="1.5" pointer-events="none"/>
                </g>
                <g id="dirArrow">
                        <path fill="none" stroke="white" stroke-width="1.5" d="M0,-3.0v7 M-2.5,-0.5L0,-3.0L2.5,-0.5"/>
                </g>
               <g id="resetDef">
                       <use xlink:href="#rim2" fill="#404040">
                               <set attributeName="fill" to="#808080" begin="reset.mouseover" end="reset.mouseout"/>
                       </use>
               </g>
        </defs>

<script type="text/javascript">
var viewWidth = 984;
var viewHeight = 88;
var sectionId = 'dynsection-20';
</script>
<script xlink:href="../../svgpan.js"/>
<svg id="graph" class="graph">
<g id="viewport">
<title>InputEngine::getEventGroup</title>
<polygon fill="white" stroke="none" points="-4,4 -4,-84 980,-84 980,4 -4,4"/>
<!-- Node339 -->
<g id="node1" class="node"><title>Node339</title>
<polygon fill="#bfbfbf" stroke="black" points="0,-22.5 0,-41.5 137,-41.5 137,-22.5 0,-22.5"/>
<text text-anchor="middle" x="68.5" y="-29.5" font-family="Helvetica,sans-Serif" font-size="10.00">InputEngine::getEventGroup</text>
</g>
<!-- Node340 -->
<g id="node2" class="node"><title>Node340</title>
<g id="a_node2"><a xlink:href="../../d3/d7b/class_input_engine.html#aefbb52cfac8a59f9e6683665d035222f" target="_top" xlink:title="InputEngine::processLine">
<polygon fill="white" stroke="black" points="173,-22.5 173,-41.5 299,-41.5 299,-22.5 173,-22.5"/>
<text text-anchor="middle" x="236" y="-29.5" font-family="Helvetica,sans-Serif" font-size="10.00">InputEngine::processLine</text>
</a>
</g>
</g>
<!-- Node339&#45;&gt;Node340 -->
<g id="edge1" class="edge"><title>Node339&#45;&gt;Node340</title>
<path fill="none" stroke="midnightblue" d="M147.312,-32C155.894,-32 164.546,-32 172.899,-32"/>
<polygon fill="midnightblue" stroke="midnightblue" points="147.293,-28.5001 137.293,-32 147.293,-35.5001 147.293,-28.5001"/>
</g>
<!-- Node341 -->
<g id="node3" class="node"><title>Node341</title>
<g id="a_node3"><a xlink:href="../../d3/d7b/class_input_engine.html#a1fbcc159a8a9342ba21412c33dc719b1" target="_top" xlink:title="InputEngine::completeMissing\lEvents">
<polygon fill="white" stroke="black" points="335,-39 335,-69 482,-69 482,-39 335,-39"/>
<text text-anchor="start" x="343" y="-57" font-family="Helvetica,sans-Serif" font-size="10.00">InputEngine::completeMissing</text>
<text text-anchor="middle" x="408.5" y="-46" font-family="Helvetica,sans-Serif" font-size="10.00">Events</text>
</a>
</g>
</g>
<!-- Node340&#45;&gt;Node341 -->
<g id="edge2" class="edge"><title>Node340&#45;&gt;Node341</title>
<path fill="none" stroke="midnightblue" d="M308.964,-41.2857C317.511,-42.3885 326.24,-43.5148 334.797,-44.6189"/>
<polygon fill="midnightblue" stroke="midnightblue" points="309.402,-37.8133 299.037,-40.0047 308.507,-44.7558 309.402,-37.8133"/>
</g>
<!-- Node347 -->
<g id="node9" class="node"><title>Node347</title>
<g id="a_node9"><a xlink:href="../../d3/d7b/class_input_engine.html#a4e6616df0615d79e74d38ba2cf0ee9b2" target="_top" xlink:title="InputEngine::loadMapping">
<polygon fill="white" stroke="black" points="344.5,-0.5 344.5,-19.5 472.5,-19.5 472.5,-0.5 344.5,-0.5"/>
<text text-anchor="middle" x="408.5" y="-7.5" font-family="Helvetica,sans-Serif" font-size="10.00">InputEngine::loadMapping</text>
</a>
</g>
</g>
<!-- Node340&#45;&gt;Node347 -->
<g id="edge8" class="edge"><title>Node340&#45;&gt;Node347</title>
<path fill="none" stroke="midnightblue" d="M309.2,-22.6839C320.889,-21.1757 332.913,-19.6241 344.365,-18.1464"/>
<polygon fill="midnightblue" stroke="midnightblue" points="308.507,-19.2442 299.037,-23.9953 309.402,-26.1867 308.507,-19.2442"/>
</g>
<!-- Node342 -->
<g id="node4" class="node"><title>Node342</title>
<g id="a_node4"><a xlink:href="../../d3/d7b/class_input_engine.html#aa4e8247770d4d69bf1ce5e20d57d6ed4" target="_top" xlink:title="InputEngine::setup">
<polygon fill="white" stroke="black" points="532.5,-41.5 532.5,-60.5 630.5,-60.5 630.5,-41.5 532.5,-41.5"/>
<text text-anchor="middle" x="581.5" y="-48.5" font-family="Helvetica,sans-Serif" font-size="10.00">InputEngine::setup</text>
</a>
</g>
</g>
<!-- Node341&#45;&gt;Node342 -->
<g id="edge3" class="edge"><title>Node341&#45;&gt;Node342</title>
<path fill="none" stroke="midnightblue" d="M492.053,-52.5517C505.886,-52.309 519.822,-52.0645 532.41,-51.8437"/>
<polygon fill="midnightblue" stroke="midnightblue" points="491.956,-49.0528 482.019,-52.7277 492.079,-56.0517 491.956,-49.0528"/>
</g>
<!-- Node343 -->
<g id="node5" class="node"><title>Node343</title>
<g id="a_node5"><a xlink:href="../../d3/d7b/class_input_engine.html#a1a103e7902cd57ea877a0c8ac049d3cd" target="_top" xlink:title="InputEngine::saveMapping">
<polygon fill="white" stroke="black" points="681,-60.5 681,-79.5 811,-79.5 811,-60.5 681,-60.5"/>
<text text-anchor="middle" x="746" y="-67.5" font-family="Helvetica,sans-Serif" font-size="10.00">InputEngine::saveMapping</text>
</a>
</g>
</g>
<!-- Node342&#45;&gt;Node343 -->
<g id="edge4" class="edge"><title>Node342&#45;&gt;Node343</title>
<path fill="none" stroke="midnightblue" d="M640.998,-57.8397C653.954,-59.3546 667.749,-60.9676 680.914,-62.5069"/>
<polygon fill="midnightblue" stroke="midnightblue" points="641.154,-54.3343 630.815,-56.6492 640.341,-61.2869 641.154,-54.3343"/>
</g>
<!-- Node344 -->
<g id="node6" class="node"><title>Node344</title>
<g id="a_node6"><a xlink:href="../../d3/d7b/class_input_engine.html#afc5ef2151ca9c7a7af89c18dbbcdc65d" target="_top" xlink:title="InputEngine::setupDefault">
<polygon fill="white" stroke="black" points="682,-22.5 682,-41.5 810,-41.5 810,-22.5 682,-22.5"/>
<text text-anchor="middle" x="746" y="-29.5" font-family="Helvetica,sans-Serif" font-size="10.00">InputEngine::setupDefault</text>
</a>
</g>
</g>
<!-- Node342&#45;&gt;Node344 -->
<g id="edge5" class="edge"><title>Node342&#45;&gt;Node344</title>
<path fill="none" stroke="midnightblue" d="M640.792,-44.1844C654.1,-42.6283 668.304,-40.9675 681.807,-39.3887"/>
<polygon fill="midnightblue" stroke="midnightblue" points="640.341,-40.7131 630.815,-45.3508 641.154,-47.6657 640.341,-40.7131"/>
</g>
<!-- Node345 -->
<g id="node7" class="node"><title>Node345</title>
<g id="a_node7"><a xlink:href="../../df/d0a/main_8cpp.html#a0ddf1224851353fc92bfbff6f499fa97" target="_top" xlink:title="main">
<polygon fill="white" stroke="black" points="847,-22.5 847,-41.5 885,-41.5 885,-22.5 847,-22.5"/>
<text text-anchor="middle" x="866" y="-29.5" font-family="Helvetica,sans-Serif" font-size="10.00">main</text>
</a>
</g>
</g>
<!-- Node344&#45;&gt;Node345 -->
<g id="edge6" class="edge"><title>Node344&#45;&gt;Node345</title>
<path fill="none" stroke="midnightblue" d="M820.382,-32C830.06,-32 839.188,-32 846.635,-32"/>
<polygon fill="midnightblue" stroke="midnightblue" points="820.145,-28.5001 810.145,-32 820.145,-35.5001 820.145,-28.5001"/>
</g>
<!-- Node346 -->
<g id="node8" class="node"><title>Node346</title>
<g id="a_node8"><a xlink:href="../../df/d0a/main_8cpp.html#a2922bc5d5c2d77a3020cfbf9df12aab0" target="_top" xlink:title="WinMain">
<polygon fill="white" stroke="black" points="921,-22.5 921,-41.5 976,-41.5 976,-22.5 921,-22.5"/>
<text text-anchor="middle" x="948.5" y="-29.5" font-family="Helvetica,sans-Serif" font-size="10.00">WinMain</text>
</a>
</g>
</g>
<!-- Node345&#45;&gt;Node346 -->
<g id="edge7" class="edge"><title>Node345&#45;&gt;Node346</title>
<path fill="none" stroke="midnightblue" d="M895.519,-32C903.73,-32 912.653,-32 920.752,-32"/>
<polygon fill="midnightblue" stroke="midnightblue" points="895.267,-28.5001 885.267,-32 895.267,-35.5001 895.267,-28.5001"/>
</g>
<!-- Node347&#45;&gt;Node342 -->
<g id="edge9" class="edge"><title>Node347&#45;&gt;Node342</title>
<path fill="none" stroke="midnightblue" d="M459.18,-21.9116C485.125,-28.1323 516.442,-35.6411 540.759,-41.4714"/>
<polygon fill="midnightblue" stroke="midnightblue" points="459.701,-18.4374 449.161,-19.5093 458.069,-25.2445 459.701,-18.4374"/>
</g>
<!-- Node348 -->
<g id="node10" class="node"><title>Node348</title>
<g id="a_node10"><a xlink:href="../../d3/d7b/class_input_engine.html#a924b6c319f3bc491af8b97a3943d6f4c" target="_top" xlink:title="InputEngine::reloadConfig">
<polygon fill="white" stroke="black" points="518,-0.5 518,-19.5 645,-19.5 645,-0.5 518,-0.5"/>
<text text-anchor="middle" x="581.5" y="-7.5" font-family="Helvetica,sans-Serif" font-size="10.00">InputEngine::reloadConfig</text>
</a>
</g>
</g>
<!-- Node347&#45;&gt;Node348 -->
<g id="edge10" class="edge"><title>Node347&#45;&gt;Node348</title>
<path fill="none" stroke="midnightblue" d="M482.836,-10C494.498,-10 506.469,-10 517.857,-10"/>
<polygon fill="midnightblue" stroke="midnightblue" points="482.688,-6.5001 472.688,-10 482.688,-13.5001 482.688,-6.5001"/>
</g>
</g>
</svg>
        <g id="navigator" transform="translate(0 0)" fill="#404254">
                <rect fill="#f2f5e9" fill-opacity="0.5" stroke="#606060" stroke-width=".5" x="0" y="0" width="60" height="60"/>
                <use id="zoomplus" xlink:href="#zoomPlus" x="17" y="9" onmousedown="handleZoom(evt,'in')"/>
                <use id="zoomminus" xlink:href="#zoomMin" x="42" y="9" onmousedown="handleZoom(evt,'out')"/>
                <use id="reset" xlink:href="#resetDef" x="30" y="36" onmousedown="handleReset()"/>
                <g id="arrowUp" xlink:href="#dirArrow" transform="translate(30 24)" onmousedown="handlePan(0,-1)">
                  <use xlink:href="#rim" fill="#404040">
                        <set attributeName="fill" to="#808080" begin="arrowUp.mouseover" end="arrowUp.mouseout"/>
                  </use>
                  <path fill="none" stroke="white" stroke-width="1.5" d="M0,-3.0v7 M-2.5,-0.5L0,-3.0L2.5,-0.5"/>
                </g>
                <g id="arrowRight" xlink:href="#dirArrow" transform="rotate(90) translate(36 -43)" onmousedown="handlePan(1,0)">
                  <use xlink:href="#rim" fill="#404040">
                        <set attributeName="fill" to="#808080" begin="arrowRight.mouseover" end="arrowRight.mouseout"/>
                  </use>
                  <path fill="none" stroke="white" stroke-width="1.5" d="M0,-3.0v7 M-2.5,-0.5L0,-3.0L2.5,-0.5"/>
                </g>
                <g id="arrowDown" xlink:href="#dirArrow" transform="rotate(180) translate(-30 -48)" onmousedown="handlePan(0,1)">
                  <use xlink:href="#rim" fill="#404040">
                        <set attributeName="fill" to="#808080" begin="arrowDown.mouseover" end="arrowDown.mouseout"/>
                  </use>
                  <path fill="none" stroke="white" stroke-width="1.5" d="M0,-3.0v7 M-2.5,-0.5L0,-3.0L2.5,-0.5"/>
                </g>
                <g id="arrowLeft" xlink:href="#dirArrow" transform="rotate(270) translate(-36 17)" onmousedown="handlePan(-1,0)">
                  <use xlink:href="#rim" fill="#404040">
                        <set attributeName="fill" to="#808080" begin="arrowLeft.mouseover" end="arrowLeft.mouseout"/>
                  </use>
                  <path fill="none" stroke="white" stroke-width="1.5" d="M0,-3.0v7 M-2.5,-0.5L0,-3.0L2.5,-0.5"/>
                </g>
        </g>
        <svg viewBox="0 0 15 15" width="100%" height="30px" preserveAspectRatio="xMaxYMin meet">
         <g id="arrow_out" transform="scale(0.3 0.3)">
          <a xlink:href="class_input_engine_a6e833a491189fdcf9d7efd4e9a44e4d3_icgraph_org.svg" target="_base">
           <rect id="button" ry="5" rx="5" y="6" x="6" height="38" width="38"
                fill="#f2f5e9" fill-opacity="0.5" stroke="#606060" stroke-width="1.0"/>
           <path id="arrow"
             d="M 11.500037,31.436501 C 11.940474,20.09759 22.043105,11.32322 32.158766,21.979434 L 37.068811,17.246167 C 37.068811,17.246167 37.088388,32 37.088388,32 L 22.160133,31.978069 C 22.160133,31.978069 26.997745,27.140456 26.997745,27.140456 C 18.528582,18.264221 13.291696,25.230495 11.500037,31.436501 z"
             style="fill:#404040;"/>
          </a>
         </g>
        </svg>
</svg>
