<?xml version="1.0" encoding="UTF-8" standalone="no"?>
<!DOCTYPE svg PUBLIC "-//W3C//DTD SVG 1.1//EN"
 "http://www.w3.org/Graphics/SVG/1.1/DTD/svg11.dtd">
<!-- Generated by graphviz version 2.38.0 (20140413.2041)
 -->
<!-- Title: InputEngine::completeMissingEvents Pages: 1 -->
<svg width="672pt" height="162pt"
 viewBox="0.00 0.00 672.00 161.74" xmlns="http://www.w3.org/2000/svg" xmlns:xlink="http://www.w3.org/1999/xlink">
<g id="graph0" class="graph" transform="scale(1 1) rotate(0) translate(4 157.741)">
<title>InputEngine::completeMissingEvents</title>
<polygon fill="white" stroke="none" points="-4,4 -4,-157.741 668,-157.741 668,4 -4,4"/>
<!-- Node116 -->
<g id="node1" class="node"><title>Node116</title>
<polygon fill="#bfbfbf" stroke="black" points="0,-71 0,-101 147,-101 147,-71 0,-71"/>
<text text-anchor="start" x="8" y="-89" font-family="Helvetica,sans-Serif" font-size="10.00">InputEngine::completeMissing</text>
<text text-anchor="middle" x="73.5" y="-78" font-family="Helvetica,sans-Serif" font-size="10.00">Events</text>
</g>
<!-- Node117 -->
<g id="node2" class="node"><title>Node117</title>
<g id="a_node2"><a xlink:href="../../d3/d7b/class_input_engine.html#aefbb52cfac8a59f9e6683665d035222f" target="_top" xlink:title="InputEngine::processLine">
<polygon fill="white" stroke="black" points="183,-76.5 183,-95.5 309,-95.5 309,-76.5 183,-76.5"/>
<text text-anchor="middle" x="246" y="-83.5" font-family="Helvetica,sans-Serif" font-size="10.00">InputEngine::processLine</text>
</a>
</g>
</g>
<!-- Node116&#45;&gt;Node117 -->
<g id="edge1" class="edge"><title>Node116&#45;&gt;Node117</title>
<path fill="none" stroke="midnightblue" d="M147.302,-86C155.731,-86 164.327,-86 172.749,-86"/>
<polygon fill="midnightblue" stroke="midnightblue" points="172.913,-89.5001 182.913,-86 172.913,-82.5001 172.913,-89.5001"/>
</g>
<!-- Node118 -->
<g id="node3" class="node"><title>Node118</title>
<g id="a_node3"><a xlink:href="../../d9/da3/_application_8h.html#ac91efe9de379ef0fde6e0c6f369dfb35" target="_top" xlink:title="Legacy alias &#45; formerly a macro. ">
<polygon fill="white" stroke="black" points="534,-133.5 534,-152.5 571,-152.5 571,-133.5 534,-133.5"/>
<text text-anchor="middle" x="552.5" y="-140.5" font-family="Helvetica,sans-Serif" font-size="10.00">LOG</text>
</a>
</g>
</g>
<!-- Node117&#45;&gt;Node118 -->
<g id="edge2" class="edge"><title>Node117&#45;&gt;Node118</title>
<path fill="none" stroke="midnightblue" d="M258.739,-95.6493C276.24,-109.343 310.793,-133.776 345,-143 407.146,-159.759 483.691,-153.011 523.872,-147.485"/>
<polygon fill="midnightblue" stroke="midnightblue" points="524.576,-150.919 533.967,-146.015 523.567,-143.992 524.576,-150.919"/>
</g>
<!-- Node120 -->
<g id="node5" class="node"><title>Node120</title>
<g id="a_node5"><a xlink:href="../../d3/d7b/class_input_engine.html#a31686978ff9fe35d93d467ef33149b10" target="_top" xlink:title="InputEngine::resolveEventName">
<polygon fill="white" stroke="black" points="345,-114.5 345,-133.5 498,-133.5 498,-114.5 345,-114.5"/>
<text text-anchor="middle" x="421.5" y="-121.5" font-family="Helvetica,sans-Serif" font-size="10.00">InputEngine::resolveEventName</text>
</a>
</g>
</g>
<!-- Node117&#45;&gt;Node120 -->
<g id="edge4" class="edge"><title>Node117&#45;&gt;Node120</title>
<path fill="none" stroke="midnightblue" d="M290.781,-95.589C313.986,-100.671 342.678,-106.955 367.173,-112.32"/>
<polygon fill="midnightblue" stroke="midnightblue" points="366.516,-115.759 377.033,-114.48 368.014,-108.921 366.516,-115.759"/>
</g>
<!-- Node121 -->
<g id="node6" class="node"><title>Node121</title>
<g id="a_node6"><a xlink:href="../../d3/d7b/class_input_engine.html#a94995e94c51f95bf1c252b8b0559a5a0" target="_top" xlink:title="InputEngine::newEvent">
<polygon fill="white" stroke="black" points="364,-76.5 364,-95.5 479,-95.5 479,-76.5 364,-76.5"/>
<text text-anchor="middle" x="421.5" y="-83.5" font-family="Helvetica,sans-Serif" font-size="10.00">InputEngine::newEvent</text>
</a>
</g>
</g>
<!-- Node117&#45;&gt;Node121 -->
<g id="edge6" class="edge"><title>Node117&#45;&gt;Node121</title>
<path fill="none" stroke="midnightblue" d="M309.147,-86C323.684,-86 339.225,-86 353.945,-86"/>
<polygon fill="midnightblue" stroke="midnightblue" points="353.982,-89.5001 363.982,-86 353.982,-82.5001 353.982,-89.5001"/>
</g>
<!-- Node122 -->
<g id="node7" class="node"><title>Node122</title>
<g id="a_node7"><a xlink:href="../../d3/d7b/class_input_engine.html#a6e833a491189fdcf9d7efd4e9a44e4d3" target="_top" xlink:title="InputEngine::getEventGroup">
<polygon fill="white" stroke="black" points="353,-38.5 353,-57.5 490,-57.5 490,-38.5 353,-38.5"/>
<text text-anchor="middle" x="421.5" y="-45.5" font-family="Helvetica,sans-Serif" font-size="10.00">InputEngine::getEventGroup</text>
</a>
</g>
</g>
<!-- Node117&#45;&gt;Node122 -->
<g id="edge7" class="edge"><title>Node117&#45;&gt;Node122</title>
<path fill="none" stroke="midnightblue" d="M290.781,-76.411C313.986,-71.3287 342.678,-65.0446 367.173,-59.6797"/>
<polygon fill="midnightblue" stroke="midnightblue" points="368.014,-63.0786 377.033,-57.5201 366.516,-56.2407 368.014,-63.0786"/>
</g>
<!-- Node123 -->
<g id="node8" class="node"><title>Node123</title>
<g id="a_node8"><a xlink:href="../../d3/d7b/class_input_engine.html#af92de0a39f0fbbe82bc9e81d25f762d1" target="_top" xlink:title="InputEngine::addEvent">
<polygon fill="white" stroke="black" points="365,-0.5 365,-19.5 478,-19.5 478,-0.5 365,-0.5"/>
<text text-anchor="middle" x="421.5" y="-7.5" font-family="Helvetica,sans-Serif" font-size="10.00">InputEngine::addEvent</text>
</a>
</g>
</g>
<!-- Node117&#45;&gt;Node123 -->
<g id="edge8" class="edge"><title>Node117&#45;&gt;Node123</title>
<path fill="none" stroke="midnightblue" d="M260.643,-76.393C279.017,-63.8558 313.099,-41.9892 345,-29 351.14,-26.5 357.698,-24.2606 364.29,-22.2736"/>
<polygon fill="midnightblue" stroke="midnightblue" points="365.259,-25.6368 373.926,-19.5421 363.35,-18.9021 365.259,-25.6368"/>
</g>
<!-- Node119 -->
<g id="node4" class="node"><title>Node119</title>
<g id="a_node4"><a xlink:href="../../dd/dd2/namespace_ro_r.html#a15fdb48aba128c41a9c75357c2282694" target="_top" xlink:title="The ultimate, application&#45;wide logging function. Adds a line (any length) in &#39;RoR.log&#39; file. ">
<polygon fill="white" stroke="black" points="607,-133.5 607,-152.5 664,-152.5 664,-133.5 607,-133.5"/>
<text text-anchor="middle" x="635.5" y="-140.5" font-family="Helvetica,sans-Serif" font-size="10.00">RoR::Log</text>
</a>
</g>
</g>
<!-- Node118&#45;&gt;Node119 -->
<g id="edge3" class="edge"><title>Node118&#45;&gt;Node119</title>
<path fill="none" stroke="midnightblue" d="M571.076,-143C578.567,-143 587.618,-143 596.508,-143"/>
<polygon fill="midnightblue" stroke="midnightblue" points="596.766,-146.5 606.766,-143 596.766,-139.5 596.766,-146.5"/>
</g>
<!-- Node120&#45;&gt;Node118 -->
<g id="edge5" class="edge"><title>Node120&#45;&gt;Node118</title>
<path fill="none" stroke="midnightblue" d="M487.378,-133.556C500.271,-135.455 513.144,-137.351 523.937,-138.94"/>
<polygon fill="midnightblue" stroke="midnightblue" points="523.555,-142.422 533.959,-140.416 524.576,-135.497 523.555,-142.422"/>
</g>
</g>
</svg>
