<?xml version="1.0" encoding="UTF-8" standalone="no"?>
<!DOCTYPE svg PUBLIC "-//W3C//DTD SVG 1.1//EN"
 "http://www.w3.org/Graphics/SVG/1.1/DTD/svg11.dtd">
<!-- Generated by graphviz version 2.38.0 (20140413.2041)
 -->
<!-- Title: InputEngine::getKeyNameForKeyCode Pages: 1 -->
<svg width="351pt" height="78pt"
 viewBox="0.00 0.00 351.00 77.50" xmlns="http://www.w3.org/2000/svg" xmlns:xlink="http://www.w3.org/1999/xlink">
<g id="graph0" class="graph" transform="scale(1 1) rotate(0) translate(4 73.5)">
<title>InputEngine::getKeyNameForKeyCode</title>
<polygon fill="white" stroke="none" points="-4,4 -4,-73.5 347,-73.5 347,4 -4,4"/>
<!-- Node464 -->
<g id="node1" class="node"><title>Node464</title>
<polygon fill="#bfbfbf" stroke="black" points="0,-17 0,-47 144,-47 144,-17 0,-17"/>
<text text-anchor="start" x="8" y="-35" font-family="Helvetica,sans-Serif" font-size="10.00">InputEngine::getKeyNameFor</text>
<text text-anchor="middle" x="72" y="-24" font-family="Helvetica,sans-Serif" font-size="10.00">KeyCode</text>
</g>
<!-- Node465 -->
<g id="node2" class="node"><title>Node465</title>
<g id="a_node2"><a xlink:href="../../d3/d7b/class_input_engine.html#ac4f9492a0378815dd5ae7a2eeac1d6b1" target="_top" xlink:title="InputEngine::getCurrentKey\lCombo">
<polygon fill="white" stroke="black" points="193.5,-39 193.5,-69 329.5,-69 329.5,-39 193.5,-39"/>
<text text-anchor="start" x="201.5" y="-57" font-family="Helvetica,sans-Serif" font-size="10.00">InputEngine::getCurrentKey</text>
<text text-anchor="middle" x="261.5" y="-46" font-family="Helvetica,sans-Serif" font-size="10.00">Combo</text>
</a>
</g>
</g>
<!-- Node464&#45;&gt;Node465 -->
<g id="edge1" class="edge"><title>Node464&#45;&gt;Node465</title>
<path fill="none" stroke="midnightblue" d="M154.102,-41.516C167.22,-43.0552 180.676,-44.6339 193.414,-46.1286"/>
<polygon fill="midnightblue" stroke="midnightblue" points="154.493,-38.0379 144.153,-40.3486 153.677,-44.9902 154.493,-38.0379"/>
</g>
<!-- Node466 -->
<g id="node3" class="node"><title>Node466</title>
<g id="a_node3"><a xlink:href="../../d3/d7b/class_input_engine.html#abe031cdf2466acdbb0b0269312d82c8d" target="_top" xlink:title="InputEngine::getKeyForCommand">
<polygon fill="white" stroke="black" points="180,-0.5 180,-19.5 343,-19.5 343,-0.5 180,-0.5"/>
<text text-anchor="middle" x="261.5" y="-7.5" font-family="Helvetica,sans-Serif" font-size="10.00">InputEngine::getKeyForCommand</text>
</a>
</g>
</g>
<!-- Node464&#45;&gt;Node466 -->
<g id="edge2" class="edge"><title>Node464&#45;&gt;Node466</title>
<path fill="none" stroke="midnightblue" d="M154.132,-22.4806C162.703,-21.4749 171.417,-20.4524 179.982,-19.4475"/>
<polygon fill="midnightblue" stroke="midnightblue" points="153.677,-19.0098 144.153,-23.6514 154.493,-25.9621 153.677,-19.0098"/>
</g>
</g>
</svg>
