<?xml version="1.0" encoding="UTF-8" standalone="no"?>
<!DOCTYPE svg PUBLIC "-//W3C//DTD SVG 1.1//EN"
 "http://www.w3.org/Graphics/SVG/1.1/DTD/svg11.dtd">
<!-- Generated by graphviz version 2.38.0 (20140413.2041)
 -->
<!-- Title: InputEngine::setupDefault Pages: 1 -->
<svg width="974pt" height="333pt"
 viewBox="0.00 0.00 974.00 333.09" xmlns="http://www.w3.org/2000/svg" xmlns:xlink="http://www.w3.org/1999/xlink">
<g id="graph0" class="graph" transform="scale(1 1) rotate(0) translate(4 329.088)">
<title>InputEngine::setupDefault</title>
<polygon fill="white" stroke="none" points="-4,4 -4,-329.088 970,-329.088 970,4 -4,4"/>
<!-- Node743 -->
<g id="node1" class="node"><title>Node743</title>
<polygon fill="#bfbfbf" stroke="black" points="0,-219.588 0,-238.588 128,-238.588 128,-219.588 0,-219.588"/>
<text text-anchor="middle" x="64" y="-226.588" font-family="Helvetica,sans-Serif" font-size="10.00">InputEngine::setupDefault</text>
</g>
<!-- Node744 -->
<g id="node2" class="node"><title>Node744</title>
<g id="a_node2"><a xlink:href="../../df/d86/namespace_ro_r_1_1_app.html#ab0161218de3dc36879f3e69b84238eba" target="_top" xlink:title="RoR::App::GetOgreSubsystem">
<polygon fill="white" stroke="black" points="298,-263.588 298,-282.588 449,-282.588 449,-263.588 298,-263.588"/>
<text text-anchor="middle" x="373.5" y="-270.588" font-family="Helvetica,sans-Serif" font-size="10.00">RoR::App::GetOgreSubsystem</text>
</a>
</g>
</g>
<!-- Node743&#45;&gt;Node744 -->
<g id="edge1" class="edge"><title>Node743&#45;&gt;Node744</title>
<path fill="none" stroke="midnightblue" d="M128.341,-238.152C176.965,-245.109 244.298,-254.744 295.942,-262.134"/>
<polygon fill="midnightblue" stroke="midnightblue" points="295.657,-265.628 306.051,-263.58 296.648,-258.699 295.657,-265.628"/>
</g>
<!-- Node745 -->
<g id="node3" class="node"><title>Node745</title>
<g id="a_node3"><a xlink:href="../../df/db5/class_ro_r_1_1_ogre_subsystem.html#aec5be99797f9add72578fb1fbfec582f" target="_top" xlink:title="RoR::OgreSubsystem\l::GetRenderWindow">
<polygon fill="white" stroke="black" points="317.5,-214.088 317.5,-244.088 429.5,-244.088 429.5,-214.088 317.5,-214.088"/>
<text text-anchor="start" x="325.5" y="-232.088" font-family="Helvetica,sans-Serif" font-size="10.00">RoR::OgreSubsystem</text>
<text text-anchor="middle" x="373.5" y="-221.088" font-family="Helvetica,sans-Serif" font-size="10.00">::GetRenderWindow</text>
</a>
</g>
</g>
<!-- Node743&#45;&gt;Node745 -->
<g id="edge2" class="edge"><title>Node743&#45;&gt;Node745</title>
<path fill="none" stroke="midnightblue" d="M128.341,-229.088C180.591,-229.088 254.445,-229.088 307.22,-229.088"/>
<polygon fill="midnightblue" stroke="midnightblue" points="307.482,-232.588 317.482,-229.088 307.481,-225.588 307.482,-232.588"/>
</g>
<!-- Node746 -->
<g id="node4" class="node"><title>Node746</title>
<g id="a_node4"><a xlink:href="../../d3/d7b/class_input_engine.html#aa4e8247770d4d69bf1ce5e20d57d6ed4" target="_top" xlink:title="InputEngine::setup">
<polygon fill="white" stroke="black" points="164,-175.588 164,-194.588 262,-194.588 262,-175.588 164,-175.588"/>
<text text-anchor="middle" x="213" y="-182.588" font-family="Helvetica,sans-Serif" font-size="10.00">InputEngine::setup</text>
</a>
</g>
</g>
<!-- Node743&#45;&gt;Node746 -->
<g id="edge3" class="edge"><title>Node743&#45;&gt;Node746</title>
<path fill="none" stroke="midnightblue" d="M96.8968,-219.541C118.472,-213.083 147.177,-204.491 170.524,-197.503"/>
<polygon fill="midnightblue" stroke="midnightblue" points="171.589,-200.838 180.165,-194.617 169.582,-194.132 171.589,-200.838"/>
</g>
<!-- Node746&#45;&gt;Node744 -->
<g id="edge8" class="edge"><title>Node746&#45;&gt;Node744</title>
<path fill="none" stroke="midnightblue" d="M222.844,-194.67C237.179,-209.619 267.019,-238.402 298,-254.088 302.644,-256.44 307.603,-258.516 312.671,-260.346"/>
<polygon fill="midnightblue" stroke="midnightblue" points="311.909,-263.779 322.502,-263.569 314.09,-257.128 311.909,-263.779"/>
</g>
<!-- Node746&#45;&gt;Node745 -->
<g id="edge9" class="edge"><title>Node746&#45;&gt;Node745</title>
<path fill="none" stroke="midnightblue" d="M248.392,-194.636C265.998,-199.523 288.009,-205.633 308.585,-211.346"/>
<polygon fill="midnightblue" stroke="midnightblue" points="307.659,-214.721 318.23,-214.023 309.531,-207.976 307.659,-214.721"/>
</g>
<!-- Node747 -->
<g id="node5" class="node"><title>Node747</title>
<g id="a_node5"><a xlink:href="../../d9/da3/_application_8h.html#ac91efe9de379ef0fde6e0c6f369dfb35" target="_top" xlink:title="Legacy alias &#45; formerly a macro. ">
<polygon fill="white" stroke="black" points="836,-77.5884 836,-96.5884 873,-96.5884 873,-77.5884 836,-77.5884"/>
<text text-anchor="middle" x="854.5" y="-84.5884" font-family="Helvetica,sans-Serif" font-size="10.00">LOG</text>
</a>
</g>
</g>
<!-- Node746&#45;&gt;Node747 -->
<g id="edge4" class="edge"><title>Node746&#45;&gt;Node747</title>
<path fill="none" stroke="midnightblue" d="M222.132,-175.444C235.919,-159.854 265.565,-129.512 298,-116.088 486.495,-38.0786 742.146,-69.064 825.781,-82.2838"/>
<polygon fill="midnightblue" stroke="midnightblue" points="825.335,-85.7571 835.767,-83.9091 826.459,-78.848 825.335,-85.7571"/>
</g>
<!-- Node749 -->
<g id="node7" class="node"><title>Node749</title>
<g id="a_node7"><a xlink:href="../../d3/d7b/class_input_engine.html#ad69848c63434a63e34ef8341eb9e3119" target="_top" xlink:title="InputEngine::destroy">
<polygon fill="white" stroke="black" points="495,-1.58837 495,-20.5884 601,-20.5884 601,-1.58837 495,-1.58837"/>
<text text-anchor="middle" x="548" y="-8.58837" font-family="Helvetica,sans-Serif" font-size="10.00">InputEngine::destroy</text>
</a>
</g>
</g>
<!-- Node746&#45;&gt;Node749 -->
<g id="edge6" class="edge"><title>Node746&#45;&gt;Node749</title>
<path fill="none" stroke="midnightblue" d="M216.172,-175.224C222.83,-147.584 245.76,-69.1801 298,-35.0884 353.352,1.03414 430.894,2.68942 484.68,-1.90785"/>
<polygon fill="midnightblue" stroke="midnightblue" points="484.484,-5.40496 494.771,-2.86708 485.147,1.56362 484.484,-5.40496"/>
</g>
<!-- Node750 -->
<g id="node8" class="node"><title>Node750</title>
<g id="a_node8"><a xlink:href="../../d3/d7b/class_input_engine.html#a4e6616df0615d79e74d38ba2cf0ee9b2" target="_top" xlink:title="InputEngine::loadMapping">
<polygon fill="white" stroke="black" points="309.5,-175.588 309.5,-194.588 437.5,-194.588 437.5,-175.588 309.5,-175.588"/>
<text text-anchor="middle" x="373.5" y="-182.588" font-family="Helvetica,sans-Serif" font-size="10.00">InputEngine::loadMapping</text>
</a>
</g>
</g>
<!-- Node746&#45;&gt;Node750 -->
<g id="edge10" class="edge"><title>Node746&#45;&gt;Node750</title>
<path fill="none" stroke="midnightblue" d="M262.416,-185.088C274.126,-185.088 286.899,-185.088 299.462,-185.088"/>
<polygon fill="midnightblue" stroke="midnightblue" points="299.469,-188.588 309.469,-185.088 299.469,-181.588 299.469,-188.588"/>
</g>
<!-- Node757 -->
<g id="node15" class="node"><title>Node757</title>
<g id="a_node15"><a xlink:href="../../d3/d7b/class_input_engine.html#a1fbcc159a8a9342ba21412c33dc719b1" target="_top" xlink:title="InputEngine::completeMissing\lEvents">
<polygon fill="white" stroke="black" points="300,-126.088 300,-156.088 447,-156.088 447,-126.088 300,-126.088"/>
<text text-anchor="start" x="308" y="-144.088" font-family="Helvetica,sans-Serif" font-size="10.00">InputEngine::completeMissing</text>
<text text-anchor="middle" x="373.5" y="-133.088" font-family="Helvetica,sans-Serif" font-size="10.00">Events</text>
</a>
</g>
</g>
<!-- Node746&#45;&gt;Node757 -->
<g id="edge20" class="edge"><title>Node746&#45;&gt;Node757</title>
<path fill="none" stroke="midnightblue" d="M248.392,-175.541C265.998,-170.653 288.009,-164.543 308.585,-158.831"/>
<polygon fill="midnightblue" stroke="midnightblue" points="309.531,-162.201 318.23,-156.154 307.659,-155.456 309.531,-162.201"/>
</g>
<!-- Node748 -->
<g id="node6" class="node"><title>Node748</title>
<g id="a_node6"><a xlink:href="../../dd/dd2/namespace_ro_r.html#a15fdb48aba128c41a9c75357c2282694" target="_top" xlink:title="The ultimate, application&#45;wide logging function. Adds a line (any length) in &#39;RoR.log&#39; file. ">
<polygon fill="white" stroke="black" points="909,-77.5884 909,-96.5884 966,-96.5884 966,-77.5884 909,-77.5884"/>
<text text-anchor="middle" x="937.5" y="-84.5884" font-family="Helvetica,sans-Serif" font-size="10.00">RoR::Log</text>
</a>
</g>
</g>
<!-- Node747&#45;&gt;Node748 -->
<g id="edge5" class="edge"><title>Node747&#45;&gt;Node748</title>
<path fill="none" stroke="midnightblue" d="M873.076,-87.0884C880.567,-87.0884 889.618,-87.0884 898.508,-87.0884"/>
<polygon fill="midnightblue" stroke="midnightblue" points="898.766,-90.5885 908.766,-87.0884 898.766,-83.5885 898.766,-90.5885"/>
</g>
<!-- Node749&#45;&gt;Node747 -->
<g id="edge7" class="edge"><title>Node749&#45;&gt;Node747</title>
<path fill="none" stroke="midnightblue" d="M601.107,-6.30166C653.763,-3.64742 736.233,-5.59172 800,-35.0884 816.46,-42.7022 830.919,-57.5427 840.642,-69.4273"/>
<polygon fill="midnightblue" stroke="midnightblue" points="837.946,-71.663 846.845,-77.413 843.474,-67.3687 837.946,-71.663"/>
</g>
<!-- Node750&#45;&gt;Node747 -->
<g id="edge12" class="edge"><title>Node750&#45;&gt;Node747</title>
<path fill="none" stroke="midnightblue" d="M410.009,-194.617C483.649,-214.375 646.249,-257.989 647,-258.088 714.418,-266.962 745.206,-298.358 800,-258.088 848.175,-222.683 854.169,-144.053 854.164,-107.06"/>
<polygon fill="midnightblue" stroke="midnightblue" points="857.657,-106.563 853.998,-96.6201 850.658,-106.675 857.657,-106.563"/>
</g>
<!-- Node751 -->
<g id="node9" class="node"><title>Node751</title>
<g id="a_node9"><a xlink:href="../../d3/d7b/class_input_engine.html#a1e3ee67edcec9c7a2dc618b37abc8321" target="_top" xlink:title="InputEngine::resetKeys">
<polygon fill="white" stroke="black" points="489,-305.588 489,-324.588 607,-324.588 607,-305.588 489,-305.588"/>
<text text-anchor="middle" x="548" y="-312.588" font-family="Helvetica,sans-Serif" font-size="10.00">InputEngine::resetKeys</text>
</a>
</g>
</g>
<!-- Node750&#45;&gt;Node751 -->
<g id="edge11" class="edge"><title>Node750&#45;&gt;Node751</title>
<path fill="none" stroke="midnightblue" d="M432.166,-194.7C438.281,-197.372 444.059,-200.77 449,-205.088 480.198,-232.358 455.306,-262.189 485,-291.088 489.032,-295.013 493.777,-298.313 498.817,-301.084"/>
<polygon fill="midnightblue" stroke="midnightblue" points="497.585,-304.374 508.117,-305.522 500.599,-298.057 497.585,-304.374"/>
</g>
<!-- Node752 -->
<g id="node10" class="node"><title>Node752</title>
<g id="a_node10"><a xlink:href="../../d3/d7b/class_input_engine.html#aefbb52cfac8a59f9e6683665d035222f" target="_top" xlink:title="InputEngine::processLine">
<polygon fill="white" stroke="black" points="485,-153.588 485,-172.588 611,-172.588 611,-153.588 485,-153.588"/>
<text text-anchor="middle" x="548" y="-160.588" font-family="Helvetica,sans-Serif" font-size="10.00">InputEngine::processLine</text>
</a>
</g>
</g>
<!-- Node750&#45;&gt;Node752 -->
<g id="edge13" class="edge"><title>Node750&#45;&gt;Node752</title>
<path fill="none" stroke="midnightblue" d="M437.753,-177.021C449.773,-175.488 462.435,-173.874 474.709,-172.308"/>
<polygon fill="midnightblue" stroke="midnightblue" points="475.43,-175.745 484.906,-171.008 474.544,-168.801 475.43,-175.745"/>
</g>
<!-- Node752&#45;&gt;Node747 -->
<g id="edge14" class="edge"><title>Node752&#45;&gt;Node747</title>
<path fill="none" stroke="midnightblue" d="M561.455,-153.408C579.285,-140.144 613.627,-116.752 647,-106.088 708.571,-86.4145 785.348,-84.9909 825.718,-85.8955"/>
<polygon fill="midnightblue" stroke="midnightblue" points="825.766,-89.3983 835.864,-86.1908 825.97,-82.4013 825.766,-89.3983"/>
</g>
<!-- Node753 -->
<g id="node11" class="node"><title>Node753</title>
<g id="a_node11"><a xlink:href="../../d3/d7b/class_input_engine.html#a31686978ff9fe35d93d467ef33149b10" target="_top" xlink:title="InputEngine::resolveEventName">
<polygon fill="white" stroke="black" points="647,-229.588 647,-248.588 800,-248.588 800,-229.588 647,-229.588"/>
<text text-anchor="middle" x="723.5" y="-236.588" font-family="Helvetica,sans-Serif" font-size="10.00">InputEngine::resolveEventName</text>
</a>
</g>
</g>
<!-- Node752&#45;&gt;Node753 -->
<g id="edge15" class="edge"><title>Node752&#45;&gt;Node753</title>
<path fill="none" stroke="midnightblue" d="M562.643,-172.695C581.017,-185.233 615.099,-207.099 647,-220.088 653.14,-222.588 659.698,-224.828 666.29,-226.815"/>
<polygon fill="midnightblue" stroke="midnightblue" points="665.35,-230.186 675.926,-229.546 667.259,-223.452 665.35,-230.186"/>
</g>
<!-- Node754 -->
<g id="node12" class="node"><title>Node754</title>
<g id="a_node12"><a xlink:href="../../d3/d7b/class_input_engine.html#a94995e94c51f95bf1c252b8b0559a5a0" target="_top" xlink:title="InputEngine::newEvent">
<polygon fill="white" stroke="black" points="666,-191.588 666,-210.588 781,-210.588 781,-191.588 666,-191.588"/>
<text text-anchor="middle" x="723.5" y="-198.588" font-family="Helvetica,sans-Serif" font-size="10.00">InputEngine::newEvent</text>
</a>
</g>
</g>
<!-- Node752&#45;&gt;Node754 -->
<g id="edge17" class="edge"><title>Node752&#45;&gt;Node754</title>
<path fill="none" stroke="midnightblue" d="M592.781,-172.677C615.986,-177.76 644.678,-184.044 669.173,-189.409"/>
<polygon fill="midnightblue" stroke="midnightblue" points="668.516,-192.848 679.033,-191.568 670.014,-186.01 668.516,-192.848"/>
</g>
<!-- Node755 -->
<g id="node13" class="node"><title>Node755</title>
<g id="a_node13"><a xlink:href="../../d3/d7b/class_input_engine.html#a6e833a491189fdcf9d7efd4e9a44e4d3" target="_top" xlink:title="InputEngine::getEventGroup">
<polygon fill="white" stroke="black" points="655,-153.588 655,-172.588 792,-172.588 792,-153.588 655,-153.588"/>
<text text-anchor="middle" x="723.5" y="-160.588" font-family="Helvetica,sans-Serif" font-size="10.00">InputEngine::getEventGroup</text>
</a>
</g>
</g>
<!-- Node752&#45;&gt;Node755 -->
<g id="edge18" class="edge"><title>Node752&#45;&gt;Node755</title>
<path fill="none" stroke="midnightblue" d="M611.147,-163.088C622.016,-163.088 633.447,-163.088 644.676,-163.088"/>
<polygon fill="midnightblue" stroke="midnightblue" points="644.91,-166.588 654.91,-163.088 644.91,-159.588 644.91,-166.588"/>
</g>
<!-- Node756 -->
<g id="node14" class="node"><title>Node756</title>
<g id="a_node14"><a xlink:href="../../d3/d7b/class_input_engine.html#af92de0a39f0fbbe82bc9e81d25f762d1" target="_top" xlink:title="InputEngine::addEvent">
<polygon fill="white" stroke="black" points="667,-115.588 667,-134.588 780,-134.588 780,-115.588 667,-115.588"/>
<text text-anchor="middle" x="723.5" y="-122.588" font-family="Helvetica,sans-Serif" font-size="10.00">InputEngine::addEvent</text>
</a>
</g>
</g>
<!-- Node752&#45;&gt;Node756 -->
<g id="edge19" class="edge"><title>Node752&#45;&gt;Node756</title>
<path fill="none" stroke="midnightblue" d="M592.781,-153.499C615.986,-148.417 644.678,-142.133 669.173,-136.768"/>
<polygon fill="midnightblue" stroke="midnightblue" points="670.014,-140.167 679.033,-134.608 668.516,-133.329 670.014,-140.167"/>
</g>
<!-- Node753&#45;&gt;Node747 -->
<g id="edge16" class="edge"><title>Node753&#45;&gt;Node747</title>
<path fill="none" stroke="midnightblue" d="M785.23,-229.452C790.582,-226.983 795.621,-223.91 800,-220.088 833.939,-190.475 846.63,-136.263 851.153,-107.031"/>
<polygon fill="midnightblue" stroke="midnightblue" points="854.661,-107.21 852.553,-96.8268 847.726,-106.258 854.661,-107.21"/>
</g>
<!-- Node757&#45;&gt;Node752 -->
<g id="edge21" class="edge"><title>Node757&#45;&gt;Node752</title>
<path fill="none" stroke="midnightblue" d="M447.156,-150.355C456.254,-151.515 465.559,-152.702 474.653,-153.861"/>
<polygon fill="midnightblue" stroke="midnightblue" points="474.445,-157.363 484.807,-155.157 475.331,-150.419 474.445,-157.363"/>
</g>
</g>
</svg>
