<?xml version="1.0" encoding="UTF-8" standalone="no"?>
<!DOCTYPE svg PUBLIC "-//W3C//DTD SVG 1.1//EN"
 "http://www.w3.org/Graphics/SVG/1.1/DTD/svg11.dtd">
<!-- Generated by graphviz version 2.38.0 (20140413.2041)
 -->
<!-- Title: RoR::GUI::SimUtils::framestep Pages: 1 -->
<svg width="504pt" height="39pt"
 viewBox="0.00 0.00 504.00 39.00" xmlns="http://www.w3.org/2000/svg" xmlns:xlink="http://www.w3.org/1999/xlink">
<g id="graph0" class="graph" transform="scale(1 1) rotate(0) translate(4 35)">
<title>RoR::GUI::SimUtils::framestep</title>
<polygon fill="white" stroke="none" points="-4,4 -4,-35 500,-35 500,4 -4,4"/>
<!-- Node11 -->
<g id="node1" class="node"><title>Node11</title>
<polygon fill="#bfbfbf" stroke="black" points="0,-0.5 0,-30.5 101,-30.5 101,-0.5 0,-0.5"/>
<text text-anchor="start" x="8" y="-18.5" font-family="Helvetica,sans-Serif" font-size="10.00">RoR::GUI::SimUtils</text>
<text text-anchor="middle" x="50.5" y="-7.5" font-family="Helvetica,sans-Serif" font-size="10.00">::framestep</text>
</g>
<!-- Node12 -->
<g id="node2" class="node"><title>Node12</title>
<g id="a_node2"><a xlink:href="../../d8/d11/class_ro_r_1_1_g_u_i_manager.html#ae43243531431e920d35f2d941c540e19" target="_top" xlink:title="RoR::GUIManager::FrameStepGui">
<polygon fill="white" stroke="black" points="137,-6 137,-25 301,-25 301,-6 137,-6"/>
<text text-anchor="middle" x="219" y="-13" font-family="Helvetica,sans-Serif" font-size="10.00">RoR::GUIManager::FrameStepGui</text>
</a>
</g>
</g>
<!-- Node11&#45;&gt;Node12 -->
<g id="edge1" class="edge"><title>Node11&#45;&gt;Node12</title>
<path fill="none" stroke="midnightblue" d="M111.039,-15.5C119.429,-15.5 128.169,-15.5 136.878,-15.5"/>
<polygon fill="midnightblue" stroke="midnightblue" points="111.005,-12.0001 101.005,-15.5 111.005,-19.0001 111.005,-12.0001"/>
</g>
<!-- Node13 -->
<g id="node3" class="node"><title>Node13</title>
<g id="a_node3"><a xlink:href="../../dd/dbe/class_ro_r_frame_listener.html#acdda0026f9324c3b7f48568624e07115" target="_top" xlink:title="RoRFrameListener::frameStarted">
<polygon fill="white" stroke="black" points="337,-6 337,-25 496,-25 496,-6 337,-6"/>
<text text-anchor="middle" x="416.5" y="-13" font-family="Helvetica,sans-Serif" font-size="10.00">RoRFrameListener::frameStarted</text>
</a>
</g>
</g>
<!-- Node12&#45;&gt;Node13 -->
<g id="edge2" class="edge"><title>Node12&#45;&gt;Node13</title>
<path fill="none" stroke="midnightblue" d="M311.466,-15.5C319.912,-15.5 328.421,-15.5 336.74,-15.5"/>
<polygon fill="midnightblue" stroke="midnightblue" points="311.211,-12.0001 301.211,-15.5 311.211,-19.0001 311.211,-12.0001"/>
</g>
</g>
</svg>
