<?xml version="1.0" encoding="UTF-8" standalone="no"?>
<!DOCTYPE svg PUBLIC "-//W3C//DTD SVG 1.1//EN"
 "http://www.w3.org/Graphics/SVG/1.1/DTD/svg11.dtd">
<!-- Generated by graphviz version 2.38.0 (20140413.2041)
 -->
<!-- Title: RoR::CSHA1::ReportHash Pages: 1 -->
<!--zoomable 303 -->
<svg id="main" version="1.1" xmlns="http://www.w3.org/2000/svg" xmlns:xlink="http://www.w3.org/1999/xlink" xml:space="preserve" onload="init(evt)">
<style type="text/css"><![CDATA[
.edge:hover path { stroke: red; }
.edge:hover polygon { stroke: red; fill: red; }
]]></style>
<script type="text/javascript"><![CDATA[
var edges = document.getElementsByTagName('g');
if (edges && edges.length) {
  for (var i=0;i<edges.length;i++) {
    if (edges[i].id.substr(0,4)=='edge') {
      edges[i].setAttribute('class','edge');
    }
  }
}
]]></script>
        <defs>
                <circle id="rim" cx="0" cy="0" r="7"/>
                <circle id="rim2" cx="0" cy="0" r="3.5"/>
                <g id="zoomPlus">
                        <use xlink:href="#rim" fill="#404040">
                                <set attributeName="fill" to="#808080" begin="zoomplus.mouseover" end="zoomplus.mouseout"/>
                        </use>
                        <path d="M-4,0h8M0,-4v8" fill="none" stroke="white" stroke-width="1.5" pointer-events="none"/>
                </g>
                <g id="zoomMin">
                        <use xlink:href="#rim" fill="#404040">
                                <set attributeName="fill" to="#808080" begin="zoomminus.mouseover" end="zoomminus.mouseout"/>
                        </use>
                        <path d="M-4,0h8" fill="none" stroke="white" stroke-width="1.5" pointer-events="none"/>
                </g>
                <g id="dirArrow">
                        <path fill="none" stroke="white" stroke-width="1.5" d="M0,-3.0v7 M-2.5,-0.5L0,-3.0L2.5,-0.5"/>
                </g>
               <g id="resetDef">
                       <use xlink:href="#rim2" fill="#404040">
                               <set attributeName="fill" to="#808080" begin="reset.mouseover" end="reset.mouseout"/>
                       </use>
               </g>
        </defs>

<script type="text/javascript">
var viewWidth = 1556;
var viewHeight = 303;
var sectionId = 'dynsection-8';
</script>
<script xlink:href="../../svgpan.js"/>
<svg id="graph" class="graph">
<g id="viewport">
<title>RoR::CSHA1::ReportHash</title>
<polygon fill="white" stroke="none" points="-4,4 -4,-298.5 1552,-298.5 1552,4 -4,4"/>
<!-- Node44 -->
<g id="node1" class="node"><title>Node44</title>
<polygon fill="#bfbfbf" stroke="black" points="0,-110.5 0,-129.5 131,-129.5 131,-110.5 0,-110.5"/>
<text text-anchor="middle" x="65.5" y="-117.5" font-family="Helvetica,sans-Serif" font-size="10.00">RoR::CSHA1::ReportHash</text>
</g>
<!-- Node45 -->
<g id="node2" class="node"><title>Node45</title>
<g id="a_node2"><a xlink:href="../../d4/d8f/class_ro_r_1_1_g_u_i_1_1_multiplayer_selector.html#a8c98e9ba03c8afb1d1a26ec06192862e" target="_top" xlink:title="RoR::GUI::MultiplayerSelector\l::~MultiplayerSelector">
<polygon fill="white" stroke="black" points="177.5,-264 177.5,-294 324.5,-294 324.5,-264 177.5,-264"/>
<text text-anchor="start" x="185.5" y="-282" font-family="Helvetica,sans-Serif" font-size="10.00">RoR::GUI::MultiplayerSelector</text>
<text text-anchor="middle" x="251" y="-271" font-family="Helvetica,sans-Serif" font-size="10.00">::~MultiplayerSelector</text>
</a>
</g>
</g>
<!-- Node44&#45;&gt;Node45 -->
<g id="edge1" class="edge"><title>Node44&#45;&gt;Node45</title>
<path fill="none" stroke="midnightblue" d="M76.4367,-138.64C92.1437,-166.431 125.257,-218.699 167,-249 175.308,-255.031 184.952,-259.959 194.665,-263.95"/>
<polygon fill="midnightblue" stroke="midnightblue" points="79.3445,-136.664 71.4538,-129.594 73.2133,-140.042 79.3445,-136.664"/>
</g>
<!-- Node46 -->
<g id="node3" class="node"><title>Node46</title>
<g id="a_node3"><a xlink:href="../../d7/d35/class_cache_system.html#a4439130b97404a54bca3ca9768586c48" target="_top" xlink:title="CacheSystem::incremental\lCacheUpdate">
<polygon fill="white" stroke="black" points="754.5,-127 754.5,-157 888.5,-157 888.5,-127 754.5,-127"/>
<text text-anchor="start" x="762.5" y="-145" font-family="Helvetica,sans-Serif" font-size="10.00">CacheSystem::incremental</text>
<text text-anchor="middle" x="821.5" y="-134" font-family="Helvetica,sans-Serif" font-size="10.00">CacheUpdate</text>
</a>
</g>
</g>
<!-- Node44&#45;&gt;Node46 -->
<g id="edge2" class="edge"><title>Node44&#45;&gt;Node46</title>
<path fill="none" stroke="midnightblue" d="M141.355,-114.057C261.657,-105.76 505.288,-94.1316 710,-117 728.179,-119.031 747.733,-122.885 765.264,-126.971"/>
<polygon fill="midnightblue" stroke="midnightblue" points="140.885,-110.581 131.155,-114.773 141.375,-117.564 140.885,-110.581"/>
</g>
<!-- Node52 -->
<g id="node9" class="node"><title>Node52</title>
<g id="a_node9"><a xlink:href="../../d7/d35/class_cache_system.html#a1614deb4dd2e52ce35d4584f30777a8c" target="_top" xlink:title="CacheSystem::filenamesSHA1">
<polygon fill="white" stroke="black" points="746,-223.5 746,-242.5 897,-242.5 897,-223.5 746,-223.5"/>
<text text-anchor="middle" x="821.5" y="-230.5" font-family="Helvetica,sans-Serif" font-size="10.00">CacheSystem::filenamesSHA1</text>
</a>
</g>
</g>
<!-- Node44&#45;&gt;Node52 -->
<g id="edge9" class="edge"><title>Node44&#45;&gt;Node52</title>
<path fill="none" stroke="midnightblue" d="M97.1596,-133.665C116.875,-142.162 143.171,-152.962 167,-161 255.978,-191.015 278.158,-201.914 371,-216 501.679,-235.827 656.04,-236.868 745.651,-235.297"/>
<polygon fill="midnightblue" stroke="midnightblue" points="98.3399,-130.361 87.7739,-129.579 95.5461,-136.78 98.3399,-130.361"/>
</g>
<!-- Node53 -->
<g id="node10" class="node"><title>Node53</title>
<g id="a_node10"><a xlink:href="../../d7/d35/class_cache_system.html#a6930774611a2fb3df326a427c2af3ccb" target="_top" xlink:title="CacheSystem::loadSingleDirectory">
<polygon fill="white" stroke="black" points="167,-132.5 167,-151.5 335,-151.5 335,-132.5 167,-132.5"/>
<text text-anchor="middle" x="251" y="-139.5" font-family="Helvetica,sans-Serif" font-size="10.00">CacheSystem::loadSingleDirectory</text>
</a>
</g>
</g>
<!-- Node44&#45;&gt;Node53 -->
<g id="edge11" class="edge"><title>Node44&#45;&gt;Node53</title>
<path fill="none" stroke="midnightblue" d="M141.144,-128.949C150.8,-130.107 160.718,-131.296 170.449,-132.463"/>
<polygon fill="midnightblue" stroke="midnightblue" points="141.541,-125.472 131.195,-127.756 140.707,-132.422 141.541,-125.472"/>
</g>
<!-- Node58 -->
<g id="node15" class="node"><title>Node58</title>
<g id="a_node15"><a xlink:href="../../d7/d86/class_ogre_script_builder.html#ab619c9ff598e262303d806cccaea52ee" target="_top" xlink:title="OgreScriptBuilder::\lLoadScriptSection">
<polygon fill="white" stroke="black" points="201.5,-39 201.5,-69 300.5,-69 300.5,-39 201.5,-39"/>
<text text-anchor="start" x="209.5" y="-57" font-family="Helvetica,sans-Serif" font-size="10.00">OgreScriptBuilder::</text>
<text text-anchor="middle" x="251" y="-46" font-family="Helvetica,sans-Serif" font-size="10.00">LoadScriptSection</text>
</a>
</g>
</g>
<!-- Node44&#45;&gt;Node58 -->
<g id="edge18" class="edge"><title>Node44&#45;&gt;Node58</title>
<path fill="none" stroke="midnightblue" d="M102.921,-106.9C133.188,-96.014 176.278,-80.5157 207.998,-69.1071"/>
<polygon fill="midnightblue" stroke="midnightblue" points="101.408,-103.725 93.1825,-110.403 103.777,-110.312 101.408,-103.725"/>
</g>
<!-- Node59 -->
<g id="node16" class="node"><title>Node59</title>
<g id="a_node16"><a xlink:href="../../d6/dad/_utils_8cpp.html#a7a48857267cf0bea37f4320c342db6f3" target="_top" xlink:title="generateHashFromDataStream">
<polygon fill="white" stroke="black" points="175.5,-0.5 175.5,-19.5 326.5,-19.5 326.5,-0.5 175.5,-0.5"/>
<text text-anchor="middle" x="251" y="-7.5" font-family="Helvetica,sans-Serif" font-size="10.00">generateHashFromDataStream</text>
</a>
</g>
</g>
<!-- Node44&#45;&gt;Node59 -->
<g id="edge19" class="edge"><title>Node44&#45;&gt;Node59</title>
<path fill="none" stroke="midnightblue" d="M80.7311,-102.538C98.6454,-81.7578 131.41,-47.5484 167,-29 174.472,-25.1058 182.732,-22.0038 191.057,-19.5343"/>
<polygon fill="midnightblue" stroke="midnightblue" points="77.9698,-100.383 74.2036,-110.286 83.3233,-104.893 77.9698,-100.383"/>
</g>
<!-- Node47 -->
<g id="node4" class="node"><title>Node47</title>
<g id="a_node4"><a xlink:href="../../d7/d35/class_cache_system.html#a37e784da57c57f56a428f61a53b4d618" target="_top" xlink:title="CacheSystem::generateCache">
<polygon fill="white" stroke="black" points="933,-181.5 933,-200.5 1082,-200.5 1082,-181.5 933,-181.5"/>
<text text-anchor="middle" x="1007.5" y="-188.5" font-family="Helvetica,sans-Serif" font-size="10.00">CacheSystem::generateCache</text>
</a>
</g>
</g>
<!-- Node46&#45;&gt;Node47 -->
<g id="edge3" class="edge"><title>Node46&#45;&gt;Node47</title>
<path fill="none" stroke="midnightblue" d="M888.958,-159.698C916.57,-167.051 947.516,-175.292 970.722,-181.472"/>
<polygon fill="midnightblue" stroke="midnightblue" points="889.52,-156.226 878.957,-157.035 887.719,-162.99 889.52,-156.226"/>
</g>
<!-- Node48 -->
<g id="node5" class="node"><title>Node48</title>
<g id="a_node5"><a xlink:href="../../d7/d35/class_cache_system.html#ae010322c2422bf8f8dbfce904257da31" target="_top" xlink:title="CacheSystem::Startup">
<polygon fill="white" stroke="black" points="1118,-200.5 1118,-219.5 1234,-219.5 1234,-200.5 1118,-200.5"/>
<text text-anchor="middle" x="1176" y="-207.5" font-family="Helvetica,sans-Serif" font-size="10.00">CacheSystem::Startup</text>
</a>
</g>
</g>
<!-- Node47&#45;&gt;Node48 -->
<g id="edge4" class="edge"><title>Node47&#45;&gt;Node48</title>
<path fill="none" stroke="midnightblue" d="M1092.2,-200.551C1100.89,-201.543 1109.58,-202.535 1117.88,-203.482"/>
<polygon fill="midnightblue" stroke="midnightblue" points="1092.35,-197.045 1082.01,-199.389 1091.55,-204 1092.35,-197.045"/>
</g>
<!-- Node49 -->
<g id="node6" class="node"><title>Node49</title>
<g id="a_node6"><a xlink:href="../../df/d0a/main_8cpp.html#a0ddf1224851353fc92bfbff6f499fa97" target="_top" xlink:title="main">
<polygon fill="white" stroke="black" points="1419,-200.5 1419,-219.5 1457,-219.5 1457,-200.5 1419,-200.5"/>
<text text-anchor="middle" x="1438" y="-207.5" font-family="Helvetica,sans-Serif" font-size="10.00">main</text>
</a>
</g>
</g>
<!-- Node48&#45;&gt;Node49 -->
<g id="edge5" class="edge"><title>Node48&#45;&gt;Node49</title>
<path fill="none" stroke="midnightblue" d="M1244.51,-212.421C1284.73,-213.505 1336.79,-214.283 1383,-213 1394.83,-212.672 1408.09,-211.94 1418.52,-211.281"/>
<polygon fill="midnightblue" stroke="midnightblue" points="1244.38,-208.916 1234.28,-212.132 1244.18,-215.914 1244.38,-208.916"/>
</g>
<!-- Node51 -->
<g id="node8" class="node"><title>Node51</title>
<g id="a_node8"><a xlink:href="../../da/d05/class_ro_r_1_1_content_manager.html#a861b35694f428e463a800052ac0e9f90" target="_top" xlink:title="RoR::ContentManager\l::RegenCache">
<polygon fill="white" stroke="black" points="1270,-173 1270,-203 1383,-203 1383,-173 1270,-173"/>
<text text-anchor="start" x="1278" y="-191" font-family="Helvetica,sans-Serif" font-size="10.00">RoR::ContentManager</text>
<text text-anchor="middle" x="1326.5" y="-180" font-family="Helvetica,sans-Serif" font-size="10.00">::RegenCache</text>
</a>
</g>
</g>
<!-- Node48&#45;&gt;Node51 -->
<g id="edge7" class="edge"><title>Node48&#45;&gt;Node51</title>
<path fill="none" stroke="midnightblue" d="M1244.58,-199.988C1252.98,-198.743 1261.5,-197.481 1269.7,-196.266"/>
<polygon fill="midnightblue" stroke="midnightblue" points="1243.79,-196.566 1234.41,-201.494 1244.82,-203.491 1243.79,-196.566"/>
</g>
<!-- Node50 -->
<g id="node7" class="node"><title>Node50</title>
<g id="a_node7"><a xlink:href="../../df/d0a/main_8cpp.html#a2922bc5d5c2d77a3020cfbf9df12aab0" target="_top" xlink:title="WinMain">
<polygon fill="white" stroke="black" points="1493,-200.5 1493,-219.5 1548,-219.5 1548,-200.5 1493,-200.5"/>
<text text-anchor="middle" x="1520.5" y="-207.5" font-family="Helvetica,sans-Serif" font-size="10.00">WinMain</text>
</a>
</g>
</g>
<!-- Node49&#45;&gt;Node50 -->
<g id="edge6" class="edge"><title>Node49&#45;&gt;Node50</title>
<path fill="none" stroke="midnightblue" d="M1467.52,-210C1475.73,-210 1484.65,-210 1492.75,-210"/>
<polygon fill="midnightblue" stroke="midnightblue" points="1467.27,-206.5 1457.27,-210 1467.27,-213.5 1467.27,-206.5"/>
</g>
<!-- Node51&#45;&gt;Node49 -->
<g id="edge8" class="edge"><title>Node51&#45;&gt;Node49</title>
<path fill="none" stroke="midnightblue" d="M1393.12,-201.184C1402.52,-203.072 1411.47,-204.871 1418.81,-206.346"/>
<polygon fill="midnightblue" stroke="midnightblue" points="1393.71,-197.732 1383.21,-199.193 1392.33,-204.595 1393.71,-197.732"/>
</g>
<!-- Node52&#45;&gt;Node48 -->
<g id="edge10" class="edge"><title>Node52&#45;&gt;Node48</title>
<path fill="none" stroke="midnightblue" d="M907.507,-227.453C972.657,-223.203 1060.77,-217.453 1117.75,-213.735"/>
<polygon fill="midnightblue" stroke="midnightblue" points="907.007,-223.979 897.256,-228.122 907.463,-230.964 907.007,-223.979"/>
</g>
<!-- Node54 -->
<g id="node11" class="node"><title>Node54</title>
<g id="a_node11"><a xlink:href="../../d7/d35/class_cache_system.html#afa2911e77ee5652f6b1739a8b1f334c4" target="_top" xlink:title="CacheSystem::loadAllDirectories\lInResourceGroup">
<polygon fill="white" stroke="black" points="371,-176 371,-206 531,-206 531,-176 371,-176"/>
<text text-anchor="start" x="379" y="-194" font-family="Helvetica,sans-Serif" font-size="10.00">CacheSystem::loadAllDirectories</text>
<text text-anchor="middle" x="451" y="-183" font-family="Helvetica,sans-Serif" font-size="10.00">InResourceGroup</text>
</a>
</g>
</g>
<!-- Node53&#45;&gt;Node54 -->
<g id="edge12" class="edge"><title>Node53&#45;&gt;Node54</title>
<path fill="none" stroke="midnightblue" d="M300.547,-154.014C327.301,-160.635 360.763,-168.916 389.238,-175.963"/>
<polygon fill="midnightblue" stroke="midnightblue" points="301.194,-150.569 290.646,-151.564 299.513,-157.364 301.194,-150.569"/>
</g>
<!-- Node56 -->
<g id="node13" class="node"><title>Node56</title>
<g id="a_node13"><a xlink:href="../../d7/d35/class_cache_system.html#ab2251b8c119efb98588c8c85f882aa3f" target="_top" xlink:title="CacheSystem::checkForNew\lDirectoriesInResourceGroup">
<polygon fill="white" stroke="black" points="379.5,-127 379.5,-157 522.5,-157 522.5,-127 379.5,-127"/>
<text text-anchor="start" x="387.5" y="-145" font-family="Helvetica,sans-Serif" font-size="10.00">CacheSystem::checkForNew</text>
<text text-anchor="middle" x="451" y="-134" font-family="Helvetica,sans-Serif" font-size="10.00">DirectoriesInResourceGroup</text>
</a>
</g>
</g>
<!-- Node53&#45;&gt;Node56 -->
<g id="edge15" class="edge"><title>Node53&#45;&gt;Node56</title>
<path fill="none" stroke="midnightblue" d="M345.166,-142C356.659,-142 368.256,-142 379.337,-142"/>
<polygon fill="midnightblue" stroke="midnightblue" points="345.109,-138.5 335.109,-142 345.109,-145.5 345.109,-138.5"/>
</g>
<!-- Node55 -->
<g id="node12" class="node"><title>Node55</title>
<g id="a_node12"><a xlink:href="../../d7/d35/class_cache_system.html#a2f2307345ec188913271a4cc5220c1bb" target="_top" xlink:title="CacheSystem::loadAllZips">
<polygon fill="white" stroke="black" points="573,-181.5 573,-200.5 704,-200.5 704,-181.5 573,-181.5"/>
<text text-anchor="middle" x="638.5" y="-188.5" font-family="Helvetica,sans-Serif" font-size="10.00">CacheSystem::loadAllZips</text>
</a>
</g>
</g>
<!-- Node54&#45;&gt;Node55 -->
<g id="edge13" class="edge"><title>Node54&#45;&gt;Node55</title>
<path fill="none" stroke="midnightblue" d="M541.35,-191C551.967,-191 562.643,-191 572.822,-191"/>
<polygon fill="midnightblue" stroke="midnightblue" points="541.207,-187.5 531.207,-191 541.207,-194.5 541.207,-187.5"/>
</g>
<!-- Node55&#45;&gt;Node47 -->
<g id="edge14" class="edge"><title>Node55&#45;&gt;Node47</title>
<path fill="none" stroke="midnightblue" d="M714.27,-191C778.114,-191 869.424,-191 932.923,-191"/>
<polygon fill="midnightblue" stroke="midnightblue" points="714.267,-187.5 704.267,-191 714.267,-194.5 714.267,-187.5"/>
</g>
<!-- Node57 -->
<g id="node14" class="node"><title>Node57</title>
<g id="a_node14"><a xlink:href="../../d7/d35/class_cache_system.html#ac30fff8eecfc197fc4ccca8c6cf06109" target="_top" xlink:title="CacheSystem::checkForNew\lContent">
<polygon fill="white" stroke="black" points="567,-127 567,-157 710,-157 710,-127 567,-127"/>
<text text-anchor="start" x="575" y="-145" font-family="Helvetica,sans-Serif" font-size="10.00">CacheSystem::checkForNew</text>
<text text-anchor="middle" x="638.5" y="-134" font-family="Helvetica,sans-Serif" font-size="10.00">Content</text>
</a>
</g>
</g>
<!-- Node56&#45;&gt;Node57 -->
<g id="edge16" class="edge"><title>Node56&#45;&gt;Node57</title>
<path fill="none" stroke="midnightblue" d="M532.915,-142C544.176,-142 555.675,-142 566.731,-142"/>
<polygon fill="midnightblue" stroke="midnightblue" points="532.659,-138.5 522.659,-142 532.659,-145.5 532.659,-138.5"/>
</g>
<!-- Node57&#45;&gt;Node46 -->
<g id="edge17" class="edge"><title>Node57&#45;&gt;Node46</title>
<path fill="none" stroke="midnightblue" d="M720.532,-142C731.803,-142 743.272,-142 754.229,-142"/>
<polygon fill="midnightblue" stroke="midnightblue" points="720.257,-138.5 710.257,-142 720.257,-145.5 720.257,-138.5"/>
</g>
<!-- Node60 -->
<g id="node17" class="node"><title>Node60</title>
<g id="a_node17"><a xlink:href="../../d6/dad/_utils_8cpp.html#aa359a37d9710079a91bf8ab15e637aa8" target="_top" xlink:title="generateHashFromFile">
<polygon fill="white" stroke="black" points="393.5,-0.5 393.5,-19.5 508.5,-19.5 508.5,-0.5 393.5,-0.5"/>
<text text-anchor="middle" x="451" y="-7.5" font-family="Helvetica,sans-Serif" font-size="10.00">generateHashFromFile</text>
</a>
</g>
</g>
<!-- Node59&#45;&gt;Node60 -->
<g id="edge20" class="edge"><title>Node59&#45;&gt;Node60</title>
<path fill="none" stroke="midnightblue" d="M336.798,-10C355.922,-10 375.769,-10 393.403,-10"/>
<polygon fill="midnightblue" stroke="midnightblue" points="336.573,-6.5001 326.573,-10 336.573,-13.5001 336.573,-6.5001"/>
</g>
</g>
</svg>
        <g id="navigator" transform="translate(0 0)" fill="#404254">
                <rect fill="#f2f5e9" fill-opacity="0.5" stroke="#606060" stroke-width=".5" x="0" y="0" width="60" height="60"/>
                <use id="zoomplus" xlink:href="#zoomPlus" x="17" y="9" onmousedown="handleZoom(evt,'in')"/>
                <use id="zoomminus" xlink:href="#zoomMin" x="42" y="9" onmousedown="handleZoom(evt,'out')"/>
                <use id="reset" xlink:href="#resetDef" x="30" y="36" onmousedown="handleReset()"/>
                <g id="arrowUp" xlink:href="#dirArrow" transform="translate(30 24)" onmousedown="handlePan(0,-1)">
                  <use xlink:href="#rim" fill="#404040">
                        <set attributeName="fill" to="#808080" begin="arrowUp.mouseover" end="arrowUp.mouseout"/>
                  </use>
                  <path fill="none" stroke="white" stroke-width="1.5" d="M0,-3.0v7 M-2.5,-0.5L0,-3.0L2.5,-0.5"/>
                </g>
                <g id="arrowRight" xlink:href="#dirArrow" transform="rotate(90) translate(36 -43)" onmousedown="handlePan(1,0)">
                  <use xlink:href="#rim" fill="#404040">
                        <set attributeName="fill" to="#808080" begin="arrowRight.mouseover" end="arrowRight.mouseout"/>
                  </use>
                  <path fill="none" stroke="white" stroke-width="1.5" d="M0,-3.0v7 M-2.5,-0.5L0,-3.0L2.5,-0.5"/>
                </g>
                <g id="arrowDown" xlink:href="#dirArrow" transform="rotate(180) translate(-30 -48)" onmousedown="handlePan(0,1)">
                  <use xlink:href="#rim" fill="#404040">
                        <set attributeName="fill" to="#808080" begin="arrowDown.mouseover" end="arrowDown.mouseout"/>
                  </use>
                  <path fill="none" stroke="white" stroke-width="1.5" d="M0,-3.0v7 M-2.5,-0.5L0,-3.0L2.5,-0.5"/>
                </g>
                <g id="arrowLeft" xlink:href="#dirArrow" transform="rotate(270) translate(-36 17)" onmousedown="handlePan(-1,0)">
                  <use xlink:href="#rim" fill="#404040">
                        <set attributeName="fill" to="#808080" begin="arrowLeft.mouseover" end="arrowLeft.mouseout"/>
                  </use>
                  <path fill="none" stroke="white" stroke-width="1.5" d="M0,-3.0v7 M-2.5,-0.5L0,-3.0L2.5,-0.5"/>
                </g>
        </g>
        <svg viewBox="0 0 15 15" width="100%" height="30px" preserveAspectRatio="xMaxYMin meet">
         <g id="arrow_out" transform="scale(0.3 0.3)">
          <a xlink:href="class_ro_r_1_1_c_s_h_a1_a22ddf4fbd88ea7a76638104a56bb7c30_icgraph_org.svg" target="_base">
           <rect id="button" ry="5" rx="5" y="6" x="6" height="38" width="38"
                fill="#f2f5e9" fill-opacity="0.5" stroke="#606060" stroke-width="1.0"/>
           <path id="arrow"
             d="M 11.500037,31.436501 C 11.940474,20.09759 22.043105,11.32322 32.158766,21.979434 L 37.068811,17.246167 C 37.068811,17.246167 37.088388,32 37.088388,32 L 22.160133,31.978069 C 22.160133,31.978069 26.997745,27.140456 26.997745,27.140456 C 18.528582,18.264221 13.291696,25.230495 11.500037,31.436501 z"
             style="fill:#404040;"/>
          </a>
         </g>
        </svg>
</svg>
