<?xml version="1.0" encoding="UTF-8" standalone="no"?>
<!DOCTYPE svg PUBLIC "-//W3C//DTD SVG 1.1//EN"
 "http://www.w3.org/Graphics/SVG/1.1/DTD/svg11.dtd">
<!-- Generated by graphviz version 2.38.0 (20140413.2041)
 -->
<!-- Title: RoR::CSHA1::Final Pages: 1 -->
<svg width="1526pt" height="303pt"
 viewBox="0.00 0.00 1526.00 302.50" xmlns="http://www.w3.org/2000/svg" xmlns:xlink="http://www.w3.org/1999/xlink">
<g id="graph0" class="graph" transform="scale(1 1) rotate(0) translate(4 298.5)">
<title>RoR::CSHA1::Final</title>
<polygon fill="white" stroke="none" points="-4,4 -4,-298.5 1522,-298.5 1522,4 -4,4"/>
<!-- Node9 -->
<g id="node1" class="node"><title>Node9</title>
<polygon fill="#bfbfbf" stroke="black" points="0,-110.5 0,-129.5 101,-129.5 101,-110.5 0,-110.5"/>
<text text-anchor="middle" x="50.5" y="-117.5" font-family="Helvetica,sans-Serif" font-size="10.00">RoR::CSHA1::Final</text>
</g>
<!-- Node10 -->
<g id="node2" class="node"><title>Node10</title>
<g id="a_node2"><a xlink:href="../../d4/d8f/class_ro_r_1_1_g_u_i_1_1_multiplayer_selector.html#a8c98e9ba03c8afb1d1a26ec06192862e" target="_top" xlink:title="RoR::GUI::MultiplayerSelector\l::~MultiplayerSelector">
<polygon fill="white" stroke="black" points="147.5,-264 147.5,-294 294.5,-294 294.5,-264 147.5,-264"/>
<text text-anchor="start" x="155.5" y="-282" font-family="Helvetica,sans-Serif" font-size="10.00">RoR::GUI::MultiplayerSelector</text>
<text text-anchor="middle" x="221" y="-271" font-family="Helvetica,sans-Serif" font-size="10.00">::~MultiplayerSelector</text>
</a>
</g>
</g>
<!-- Node9&#45;&gt;Node10 -->
<g id="edge1" class="edge"><title>Node9&#45;&gt;Node10</title>
<path fill="none" stroke="midnightblue" d="M59.3933,-139.041C71.8887,-166.967 98.7887,-218.965 137,-249 144.71,-255.06 153.752,-259.965 162.979,-263.914"/>
<polygon fill="midnightblue" stroke="midnightblue" points="62.4977,-137.402 55.316,-129.613 56.0727,-140.18 62.4977,-137.402"/>
</g>
<!-- Node11 -->
<g id="node3" class="node"><title>Node11</title>
<g id="a_node3"><a xlink:href="../../d7/d35/class_cache_system.html#a4439130b97404a54bca3ca9768586c48" target="_top" xlink:title="CacheSystem::incremental\lCacheUpdate">
<polygon fill="white" stroke="black" points="724.5,-127 724.5,-157 858.5,-157 858.5,-127 724.5,-127"/>
<text text-anchor="start" x="732.5" y="-145" font-family="Helvetica,sans-Serif" font-size="10.00">CacheSystem::incremental</text>
<text text-anchor="middle" x="791.5" y="-134" font-family="Helvetica,sans-Serif" font-size="10.00">CacheUpdate</text>
</a>
</g>
</g>
<!-- Node9&#45;&gt;Node11 -->
<g id="edge2" class="edge"><title>Node9&#45;&gt;Node11</title>
<path fill="none" stroke="midnightblue" d="M111.078,-115.14C222.98,-107.025 472.049,-93.7697 680,-117 698.179,-119.031 717.733,-122.885 735.264,-126.971"/>
<polygon fill="midnightblue" stroke="midnightblue" points="110.719,-111.657 101.004,-115.884 111.235,-118.638 110.719,-111.657"/>
</g>
<!-- Node17 -->
<g id="node9" class="node"><title>Node17</title>
<g id="a_node9"><a xlink:href="../../d7/d35/class_cache_system.html#a1614deb4dd2e52ce35d4584f30777a8c" target="_top" xlink:title="CacheSystem::filenamesSHA1">
<polygon fill="white" stroke="black" points="716,-223.5 716,-242.5 867,-242.5 867,-223.5 716,-223.5"/>
<text text-anchor="middle" x="791.5" y="-230.5" font-family="Helvetica,sans-Serif" font-size="10.00">CacheSystem::filenamesSHA1</text>
</a>
</g>
</g>
<!-- Node9&#45;&gt;Node17 -->
<g id="edge9" class="edge"><title>Node9&#45;&gt;Node17</title>
<path fill="none" stroke="midnightblue" d="M78.1937,-134.367C94.7852,-142.9 116.744,-153.485 137,-161 225.041,-193.662 248.158,-201.914 341,-216 471.679,-235.827 626.04,-236.868 715.651,-235.297"/>
<polygon fill="midnightblue" stroke="midnightblue" points="79.583,-131.144 69.0985,-129.619 76.3436,-137.35 79.583,-131.144"/>
</g>
<!-- Node18 -->
<g id="node10" class="node"><title>Node18</title>
<g id="a_node10"><a xlink:href="../../d7/d35/class_cache_system.html#a6930774611a2fb3df326a427c2af3ccb" target="_top" xlink:title="CacheSystem::loadSingleDirectory">
<polygon fill="white" stroke="black" points="137,-132.5 137,-151.5 305,-151.5 305,-132.5 137,-132.5"/>
<text text-anchor="middle" x="221" y="-139.5" font-family="Helvetica,sans-Serif" font-size="10.00">CacheSystem::loadSingleDirectory</text>
</a>
</g>
</g>
<!-- Node9&#45;&gt;Node18 -->
<g id="edge11" class="edge"><title>Node9&#45;&gt;Node18</title>
<path fill="none" stroke="midnightblue" d="M111.135,-127.786C122.732,-129.3 135.011,-130.903 146.982,-132.466"/>
<polygon fill="midnightblue" stroke="midnightblue" points="111.513,-124.306 101.144,-126.482 110.607,-131.247 111.513,-124.306"/>
</g>
<!-- Node23 -->
<g id="node15" class="node"><title>Node23</title>
<g id="a_node15"><a xlink:href="../../d7/d86/class_ogre_script_builder.html#ab619c9ff598e262303d806cccaea52ee" target="_top" xlink:title="OgreScriptBuilder::\lLoadScriptSection">
<polygon fill="white" stroke="black" points="171.5,-39 171.5,-69 270.5,-69 270.5,-39 171.5,-39"/>
<text text-anchor="start" x="179.5" y="-57" font-family="Helvetica,sans-Serif" font-size="10.00">OgreScriptBuilder::</text>
<text text-anchor="middle" x="221" y="-46" font-family="Helvetica,sans-Serif" font-size="10.00">LoadScriptSection</text>
</a>
</g>
</g>
<!-- Node9&#45;&gt;Node23 -->
<g id="edge18" class="edge"><title>Node9&#45;&gt;Node23</title>
<path fill="none" stroke="midnightblue" d="M82.9807,-106.286C99.0621,-99.3981 118.988,-91.0418 137,-84 149.843,-78.9789 163.915,-73.7804 176.763,-69.1498"/>
<polygon fill="midnightblue" stroke="midnightblue" points="81.3171,-103.192 73.516,-110.361 84.085,-109.621 81.3171,-103.192"/>
</g>
<!-- Node24 -->
<g id="node16" class="node"><title>Node24</title>
<g id="a_node16"><a xlink:href="../../d6/dad/_utils_8cpp.html#a7a48857267cf0bea37f4320c342db6f3" target="_top" xlink:title="generateHashFromDataStream">
<polygon fill="white" stroke="black" points="145.5,-0.5 145.5,-19.5 296.5,-19.5 296.5,-0.5 145.5,-0.5"/>
<text text-anchor="middle" x="221" y="-7.5" font-family="Helvetica,sans-Serif" font-size="10.00">generateHashFromDataStream</text>
</a>
</g>
</g>
<!-- Node9&#45;&gt;Node24 -->
<g id="edge19" class="edge"><title>Node9&#45;&gt;Node24</title>
<path fill="none" stroke="midnightblue" d="M63.4037,-101.927C78.1415,-81.0451 105.223,-47.228 137,-29 143.796,-25.1017 151.336,-22.0032 159.02,-19.5403"/>
<polygon fill="midnightblue" stroke="midnightblue" points="60.4624,-100.027 57.6967,-110.255 66.2367,-103.984 60.4624,-100.027"/>
</g>
<!-- Node12 -->
<g id="node4" class="node"><title>Node12</title>
<g id="a_node4"><a xlink:href="../../d7/d35/class_cache_system.html#a37e784da57c57f56a428f61a53b4d618" target="_top" xlink:title="CacheSystem::generateCache">
<polygon fill="white" stroke="black" points="903,-181.5 903,-200.5 1052,-200.5 1052,-181.5 903,-181.5"/>
<text text-anchor="middle" x="977.5" y="-188.5" font-family="Helvetica,sans-Serif" font-size="10.00">CacheSystem::generateCache</text>
</a>
</g>
</g>
<!-- Node11&#45;&gt;Node12 -->
<g id="edge3" class="edge"><title>Node11&#45;&gt;Node12</title>
<path fill="none" stroke="midnightblue" d="M858.958,-159.698C886.57,-167.051 917.516,-175.292 940.722,-181.472"/>
<polygon fill="midnightblue" stroke="midnightblue" points="859.52,-156.226 848.957,-157.035 857.719,-162.99 859.52,-156.226"/>
</g>
<!-- Node13 -->
<g id="node5" class="node"><title>Node13</title>
<g id="a_node5"><a xlink:href="../../d7/d35/class_cache_system.html#ae010322c2422bf8f8dbfce904257da31" target="_top" xlink:title="CacheSystem::Startup">
<polygon fill="white" stroke="black" points="1088,-200.5 1088,-219.5 1204,-219.5 1204,-200.5 1088,-200.5"/>
<text text-anchor="middle" x="1146" y="-207.5" font-family="Helvetica,sans-Serif" font-size="10.00">CacheSystem::Startup</text>
</a>
</g>
</g>
<!-- Node12&#45;&gt;Node13 -->
<g id="edge4" class="edge"><title>Node12&#45;&gt;Node13</title>
<path fill="none" stroke="midnightblue" d="M1062.2,-200.551C1070.89,-201.543 1079.58,-202.535 1087.88,-203.482"/>
<polygon fill="midnightblue" stroke="midnightblue" points="1062.35,-197.045 1052.01,-199.389 1061.55,-204 1062.35,-197.045"/>
</g>
<!-- Node14 -->
<g id="node6" class="node"><title>Node14</title>
<g id="a_node6"><a xlink:href="../../df/d0a/main_8cpp.html#a0ddf1224851353fc92bfbff6f499fa97" target="_top" xlink:title="main">
<polygon fill="white" stroke="black" points="1389,-200.5 1389,-219.5 1427,-219.5 1427,-200.5 1389,-200.5"/>
<text text-anchor="middle" x="1408" y="-207.5" font-family="Helvetica,sans-Serif" font-size="10.00">main</text>
</a>
</g>
</g>
<!-- Node13&#45;&gt;Node14 -->
<g id="edge5" class="edge"><title>Node13&#45;&gt;Node14</title>
<path fill="none" stroke="midnightblue" d="M1214.51,-212.421C1254.73,-213.505 1306.79,-214.283 1353,-213 1364.83,-212.672 1378.09,-211.94 1388.52,-211.281"/>
<polygon fill="midnightblue" stroke="midnightblue" points="1214.38,-208.916 1204.28,-212.132 1214.18,-215.914 1214.38,-208.916"/>
</g>
<!-- Node16 -->
<g id="node8" class="node"><title>Node16</title>
<g id="a_node8"><a xlink:href="../../da/d05/class_ro_r_1_1_content_manager.html#a861b35694f428e463a800052ac0e9f90" target="_top" xlink:title="RoR::ContentManager\l::RegenCache">
<polygon fill="white" stroke="black" points="1240,-173 1240,-203 1353,-203 1353,-173 1240,-173"/>
<text text-anchor="start" x="1248" y="-191" font-family="Helvetica,sans-Serif" font-size="10.00">RoR::ContentManager</text>
<text text-anchor="middle" x="1296.5" y="-180" font-family="Helvetica,sans-Serif" font-size="10.00">::RegenCache</text>
</a>
</g>
</g>
<!-- Node13&#45;&gt;Node16 -->
<g id="edge7" class="edge"><title>Node13&#45;&gt;Node16</title>
<path fill="none" stroke="midnightblue" d="M1214.58,-199.988C1222.98,-198.743 1231.5,-197.481 1239.7,-196.266"/>
<polygon fill="midnightblue" stroke="midnightblue" points="1213.79,-196.566 1204.41,-201.494 1214.82,-203.491 1213.79,-196.566"/>
</g>
<!-- Node15 -->
<g id="node7" class="node"><title>Node15</title>
<g id="a_node7"><a xlink:href="../../df/d0a/main_8cpp.html#a2922bc5d5c2d77a3020cfbf9df12aab0" target="_top" xlink:title="WinMain">
<polygon fill="white" stroke="black" points="1463,-200.5 1463,-219.5 1518,-219.5 1518,-200.5 1463,-200.5"/>
<text text-anchor="middle" x="1490.5" y="-207.5" font-family="Helvetica,sans-Serif" font-size="10.00">WinMain</text>
</a>
</g>
</g>
<!-- Node14&#45;&gt;Node15 -->
<g id="edge6" class="edge"><title>Node14&#45;&gt;Node15</title>
<path fill="none" stroke="midnightblue" d="M1437.52,-210C1445.73,-210 1454.65,-210 1462.75,-210"/>
<polygon fill="midnightblue" stroke="midnightblue" points="1437.27,-206.5 1427.27,-210 1437.27,-213.5 1437.27,-206.5"/>
</g>
<!-- Node16&#45;&gt;Node14 -->
<g id="edge8" class="edge"><title>Node16&#45;&gt;Node14</title>
<path fill="none" stroke="midnightblue" d="M1363.12,-201.184C1372.52,-203.072 1381.47,-204.871 1388.81,-206.346"/>
<polygon fill="midnightblue" stroke="midnightblue" points="1363.71,-197.732 1353.21,-199.193 1362.33,-204.595 1363.71,-197.732"/>
</g>
<!-- Node17&#45;&gt;Node13 -->
<g id="edge10" class="edge"><title>Node17&#45;&gt;Node13</title>
<path fill="none" stroke="midnightblue" d="M877.507,-227.453C942.657,-223.203 1030.77,-217.453 1087.75,-213.735"/>
<polygon fill="midnightblue" stroke="midnightblue" points="877.007,-223.979 867.256,-228.122 877.463,-230.964 877.007,-223.979"/>
</g>
<!-- Node19 -->
<g id="node11" class="node"><title>Node19</title>
<g id="a_node11"><a xlink:href="../../d7/d35/class_cache_system.html#afa2911e77ee5652f6b1739a8b1f334c4" target="_top" xlink:title="CacheSystem::loadAllDirectories\lInResourceGroup">
<polygon fill="white" stroke="black" points="341,-176 341,-206 501,-206 501,-176 341,-176"/>
<text text-anchor="start" x="349" y="-194" font-family="Helvetica,sans-Serif" font-size="10.00">CacheSystem::loadAllDirectories</text>
<text text-anchor="middle" x="421" y="-183" font-family="Helvetica,sans-Serif" font-size="10.00">InResourceGroup</text>
</a>
</g>
</g>
<!-- Node18&#45;&gt;Node19 -->
<g id="edge12" class="edge"><title>Node18&#45;&gt;Node19</title>
<path fill="none" stroke="midnightblue" d="M270.547,-154.014C297.301,-160.635 330.763,-168.916 359.238,-175.963"/>
<polygon fill="midnightblue" stroke="midnightblue" points="271.194,-150.569 260.646,-151.564 269.513,-157.364 271.194,-150.569"/>
</g>
<!-- Node21 -->
<g id="node13" class="node"><title>Node21</title>
<g id="a_node13"><a xlink:href="../../d7/d35/class_cache_system.html#ab2251b8c119efb98588c8c85f882aa3f" target="_top" xlink:title="CacheSystem::checkForNew\lDirectoriesInResourceGroup">
<polygon fill="white" stroke="black" points="349.5,-127 349.5,-157 492.5,-157 492.5,-127 349.5,-127"/>
<text text-anchor="start" x="357.5" y="-145" font-family="Helvetica,sans-Serif" font-size="10.00">CacheSystem::checkForNew</text>
<text text-anchor="middle" x="421" y="-134" font-family="Helvetica,sans-Serif" font-size="10.00">DirectoriesInResourceGroup</text>
</a>
</g>
</g>
<!-- Node18&#45;&gt;Node21 -->
<g id="edge15" class="edge"><title>Node18&#45;&gt;Node21</title>
<path fill="none" stroke="midnightblue" d="M315.166,-142C326.659,-142 338.256,-142 349.337,-142"/>
<polygon fill="midnightblue" stroke="midnightblue" points="315.109,-138.5 305.109,-142 315.109,-145.5 315.109,-138.5"/>
</g>
<!-- Node20 -->
<g id="node12" class="node"><title>Node20</title>
<g id="a_node12"><a xlink:href="../../d7/d35/class_cache_system.html#a2f2307345ec188913271a4cc5220c1bb" target="_top" xlink:title="CacheSystem::loadAllZips">
<polygon fill="white" stroke="black" points="543,-181.5 543,-200.5 674,-200.5 674,-181.5 543,-181.5"/>
<text text-anchor="middle" x="608.5" y="-188.5" font-family="Helvetica,sans-Serif" font-size="10.00">CacheSystem::loadAllZips</text>
</a>
</g>
</g>
<!-- Node19&#45;&gt;Node20 -->
<g id="edge13" class="edge"><title>Node19&#45;&gt;Node20</title>
<path fill="none" stroke="midnightblue" d="M511.35,-191C521.967,-191 532.643,-191 542.822,-191"/>
<polygon fill="midnightblue" stroke="midnightblue" points="511.207,-187.5 501.207,-191 511.207,-194.5 511.207,-187.5"/>
</g>
<!-- Node20&#45;&gt;Node12 -->
<g id="edge14" class="edge"><title>Node20&#45;&gt;Node12</title>
<path fill="none" stroke="midnightblue" d="M684.27,-191C748.114,-191 839.424,-191 902.923,-191"/>
<polygon fill="midnightblue" stroke="midnightblue" points="684.267,-187.5 674.267,-191 684.267,-194.5 684.267,-187.5"/>
</g>
<!-- Node22 -->
<g id="node14" class="node"><title>Node22</title>
<g id="a_node14"><a xlink:href="../../d7/d35/class_cache_system.html#ac30fff8eecfc197fc4ccca8c6cf06109" target="_top" xlink:title="CacheSystem::checkForNew\lContent">
<polygon fill="white" stroke="black" points="537,-127 537,-157 680,-157 680,-127 537,-127"/>
<text text-anchor="start" x="545" y="-145" font-family="Helvetica,sans-Serif" font-size="10.00">CacheSystem::checkForNew</text>
<text text-anchor="middle" x="608.5" y="-134" font-family="Helvetica,sans-Serif" font-size="10.00">Content</text>
</a>
</g>
</g>
<!-- Node21&#45;&gt;Node22 -->
<g id="edge16" class="edge"><title>Node21&#45;&gt;Node22</title>
<path fill="none" stroke="midnightblue" d="M502.915,-142C514.176,-142 525.675,-142 536.731,-142"/>
<polygon fill="midnightblue" stroke="midnightblue" points="502.659,-138.5 492.659,-142 502.659,-145.5 502.659,-138.5"/>
</g>
<!-- Node22&#45;&gt;Node11 -->
<g id="edge17" class="edge"><title>Node22&#45;&gt;Node11</title>
<path fill="none" stroke="midnightblue" d="M690.532,-142C701.803,-142 713.272,-142 724.229,-142"/>
<polygon fill="midnightblue" stroke="midnightblue" points="690.257,-138.5 680.257,-142 690.257,-145.5 690.257,-138.5"/>
</g>
<!-- Node25 -->
<g id="node17" class="node"><title>Node25</title>
<g id="a_node17"><a xlink:href="../../d6/dad/_utils_8cpp.html#aa359a37d9710079a91bf8ab15e637aa8" target="_top" xlink:title="generateHashFromFile">
<polygon fill="white" stroke="black" points="363.5,-0.5 363.5,-19.5 478.5,-19.5 478.5,-0.5 363.5,-0.5"/>
<text text-anchor="middle" x="421" y="-7.5" font-family="Helvetica,sans-Serif" font-size="10.00">generateHashFromFile</text>
</a>
</g>
</g>
<!-- Node24&#45;&gt;Node25 -->
<g id="edge20" class="edge"><title>Node24&#45;&gt;Node25</title>
<path fill="none" stroke="midnightblue" d="M306.798,-10C325.922,-10 345.769,-10 363.403,-10"/>
<polygon fill="midnightblue" stroke="midnightblue" points="306.573,-6.5001 296.573,-10 306.573,-13.5001 306.573,-6.5001"/>
</g>
</g>
</svg>
