<?xml version="1.0" encoding="UTF-8" standalone="no"?>
<!DOCTYPE svg PUBLIC "-//W3C//DTD SVG 1.1//EN"
 "http://www.w3.org/Graphics/SVG/1.1/DTD/svg11.dtd">
<!-- Generated by graphviz version 2.38.0 (20140413.2041)
 -->
<!-- Title: source/main/physics/flex/Flexable.h Pages: 1 -->
<svg width="637pt" height="240pt"
 viewBox="0.00 0.00 637.00 240.00" xmlns="http://www.w3.org/2000/svg" xmlns:xlink="http://www.w3.org/1999/xlink">
<g id="graph0" class="graph" transform="scale(1 1) rotate(0) translate(4 236)">
<title>source/main/physics/flex/Flexable.h</title>
<polygon fill="white" stroke="none" points="-4,4 -4,-236 633,-236 633,4 -4,4"/>
<!-- Node2 -->
<g id="node1" class="node"><title>Node2</title>
<polygon fill="#bfbfbf" stroke="black" points="244,-201.5 244,-231.5 351,-231.5 351,-201.5 244,-201.5"/>
<text text-anchor="start" x="252" y="-219.5" font-family="Helvetica,sans-Serif" font-size="10.00">source/main/physics</text>
<text text-anchor="middle" x="297.5" y="-208.5" font-family="Helvetica,sans-Serif" font-size="10.00">/flex/Flexable.h</text>
</g>
<!-- Node3 -->
<g id="node2" class="node"><title>Node3</title>
<g id="a_node2"><a xlink:href="../../dd/d39/_flex_body_8h.html" target="_top" xlink:title="source/main/physics\l/flex/FlexBody.h">
<polygon fill="white" stroke="black" points="109,-67.5 109,-97.5 216,-97.5 216,-67.5 109,-67.5"/>
<text text-anchor="start" x="117" y="-85.5" font-family="Helvetica,sans-Serif" font-size="10.00">source/main/physics</text>
<text text-anchor="middle" x="162.5" y="-74.5" font-family="Helvetica,sans-Serif" font-size="10.00">/flex/FlexBody.h</text>
</a>
</g>
</g>
<!-- Node2&#45;&gt;Node3 -->
<g id="edge1" class="edge"><title>Node2&#45;&gt;Node3</title>
<path fill="none" stroke="midnightblue" d="M275.762,-194.245C247.943,-167.044 200.525,-120.68 176.843,-97.5247"/>
<polygon fill="midnightblue" stroke="midnightblue" points="273.456,-196.885 283.053,-201.374 278.349,-191.88 273.456,-196.885"/>
</g>
<!-- Node8 -->
<g id="node7" class="node"><title>Node8</title>
<g id="a_node7"><a xlink:href="../../df/dbd/_flex_mesh_8h.html" target="_top" xlink:title="source/main/physics\l/flex/FlexMesh.h">
<polygon fill="white" stroke="black" points="316,-134.5 316,-164.5 423,-164.5 423,-134.5 316,-134.5"/>
<text text-anchor="start" x="324" y="-152.5" font-family="Helvetica,sans-Serif" font-size="10.00">source/main/physics</text>
<text text-anchor="middle" x="369.5" y="-141.5" font-family="Helvetica,sans-Serif" font-size="10.00">/flex/FlexMesh.h</text>
</a>
</g>
</g>
<!-- Node2&#45;&gt;Node8 -->
<g id="edge6" class="edge"><title>Node2&#45;&gt;Node8</title>
<path fill="none" stroke="midnightblue" d="M320.653,-194.598C331.525,-184.783 344.196,-173.344 353.908,-164.577"/>
<polygon fill="midnightblue" stroke="midnightblue" points="318.2,-192.097 313.123,-201.396 322.891,-197.293 318.2,-192.097"/>
</g>
<!-- Node4 -->
<g id="node3" class="node"><title>Node4</title>
<g id="a_node3"><a xlink:href="../../d2/d74/_beam_8cpp.html" target="_top" xlink:title="source/main/physics\l/Beam.cpp">
<polygon fill="white" stroke="black" points="125,-0.5 125,-30.5 232,-30.5 232,-0.5 125,-0.5"/>
<text text-anchor="start" x="133" y="-18.5" font-family="Helvetica,sans-Serif" font-size="10.00">source/main/physics</text>
<text text-anchor="middle" x="178.5" y="-7.5" font-family="Helvetica,sans-Serif" font-size="10.00">/Beam.cpp</text>
</a>
</g>
</g>
<!-- Node3&#45;&gt;Node4 -->
<g id="edge2" class="edge"><title>Node3&#45;&gt;Node4</title>
<path fill="none" stroke="midnightblue" d="M168.432,-57.4029C170.655,-48.3703 173.107,-38.4078 175.035,-30.5765"/>
<polygon fill="midnightblue" stroke="midnightblue" points="164.963,-56.8492 165.972,-67.396 171.761,-58.5224 164.963,-56.8492"/>
</g>
<!-- Node5 -->
<g id="node4" class="node"><title>Node5</title>
<g id="a_node4"><a xlink:href="../../db/de0/_flex_body_8cpp.html" target="_top" xlink:title="source/main/physics\l/flex/FlexBody.cpp">
<polygon fill="white" stroke="black" points="0,-0.5 0,-30.5 107,-30.5 107,-0.5 0,-0.5"/>
<text text-anchor="start" x="8" y="-18.5" font-family="Helvetica,sans-Serif" font-size="10.00">source/main/physics</text>
<text text-anchor="middle" x="53.5" y="-7.5" font-family="Helvetica,sans-Serif" font-size="10.00">/flex/FlexBody.cpp</text>
</a>
</g>
</g>
<!-- Node3&#45;&gt;Node5 -->
<g id="edge3" class="edge"><title>Node3&#45;&gt;Node5</title>
<path fill="none" stroke="midnightblue" d="M129.825,-62.0151C112.863,-51.8999 92.5216,-39.7698 77.1052,-30.5765"/>
<polygon fill="midnightblue" stroke="midnightblue" points="128.467,-65.2802 138.849,-67.396 132.052,-59.2681 128.467,-65.2802"/>
</g>
<!-- Node6 -->
<g id="node5" class="node"><title>Node6</title>
<g id="a_node5"><a xlink:href="../../da/d91/_flex_factory_8cpp.html" target="_top" xlink:title="source/main/physics\l/flex/FlexFactory.cpp">
<polygon fill="white" stroke="black" points="250.5,-0.5 250.5,-30.5 358.5,-30.5 358.5,-0.5 250.5,-0.5"/>
<text text-anchor="start" x="258.5" y="-18.5" font-family="Helvetica,sans-Serif" font-size="10.00">source/main/physics</text>
<text text-anchor="middle" x="304.5" y="-7.5" font-family="Helvetica,sans-Serif" font-size="10.00">/flex/FlexFactory.cpp</text>
</a>
</g>
</g>
<!-- Node3&#45;&gt;Node6 -->
<g id="edge4" class="edge"><title>Node3&#45;&gt;Node6</title>
<path fill="none" stroke="midnightblue" d="M202.63,-63.1305C225.193,-52.8025 252.921,-40.1103 273.748,-30.5765"/>
<polygon fill="midnightblue" stroke="midnightblue" points="200.948,-60.0513 193.312,-67.396 203.861,-66.4162 200.948,-60.0513"/>
</g>
<!-- Node7 -->
<g id="node6" class="node"><title>Node7</title>
<g id="a_node6"><a xlink:href="../../df/df5/_rig_spawner_8cpp.html" target="_top" xlink:title="Vehicle spawning logic. ">
<polygon fill="white" stroke="black" points="522,-0.5 522,-30.5 629,-30.5 629,-0.5 522,-0.5"/>
<text text-anchor="start" x="530" y="-18.5" font-family="Helvetica,sans-Serif" font-size="10.00">source/main/physics</text>
<text text-anchor="middle" x="575.5" y="-7.5" font-family="Helvetica,sans-Serif" font-size="10.00">/RigSpawner.cpp</text>
</a>
</g>
</g>
<!-- Node3&#45;&gt;Node7 -->
<g id="edge5" class="edge"><title>Node3&#45;&gt;Node7</title>
<path fill="none" stroke="midnightblue" d="M226.309,-66.7898C353.266,-44.7281 388.706,-52.9246 512.5,-31 515.594,-30.452 518.766,-29.8504 521.96,-29.2134"/>
<polygon fill="midnightblue" stroke="midnightblue" points="225.435,-63.3899 216.197,-68.5768 226.653,-70.2831 225.435,-63.3899"/>
</g>
<!-- Node8&#45;&gt;Node4 -->
<g id="edge7" class="edge"><title>Node8&#45;&gt;Node4</title>
<path fill="none" stroke="midnightblue" d="M369.702,-124.355C368.551,-106.323 364.064,-82.2573 349.5,-67 341.138,-58.2393 279.093,-41.3169 232.126,-29.4859"/>
<polygon fill="midnightblue" stroke="midnightblue" points="366.206,-124.541 370.046,-134.415 373.202,-124.302 366.206,-124.541"/>
</g>
<!-- Node8&#45;&gt;Node7 -->
<g id="edge14" class="edge"><title>Node8&#45;&gt;Node7</title>
<path fill="none" stroke="midnightblue" d="M433.062,-137.631C462.508,-130.197 496.621,-117.94 522.5,-98 545.763,-80.0753 561.888,-48.866 569.831,-30.7116"/>
<polygon fill="midnightblue" stroke="midnightblue" points="432.186,-134.242 423.273,-139.972 433.813,-141.05 432.186,-134.242"/>
</g>
<!-- Node9 -->
<g id="node8" class="node"><title>Node9</title>
<g id="a_node8"><a xlink:href="../../db/dc2/_flex_mesh_wheel_8h.html" target="_top" xlink:title="source/main/physics\l/flex/FlexMeshWheel.h">
<polygon fill="white" stroke="black" points="397.5,-67.5 397.5,-97.5 513.5,-97.5 513.5,-67.5 397.5,-67.5"/>
<text text-anchor="start" x="405.5" y="-85.5" font-family="Helvetica,sans-Serif" font-size="10.00">source/main/physics</text>
<text text-anchor="middle" x="455.5" y="-74.5" font-family="Helvetica,sans-Serif" font-size="10.00">/flex/FlexMeshWheel.h</text>
</a>
</g>
</g>
<!-- Node8&#45;&gt;Node9 -->
<g id="edge8" class="edge"><title>Node8&#45;&gt;Node9</title>
<path fill="none" stroke="midnightblue" d="M396.401,-128.168C409.552,-118.228 425.05,-106.514 436.876,-97.5765"/>
<polygon fill="midnightblue" stroke="midnightblue" points="394.028,-125.574 388.161,-134.396 398.249,-131.158 394.028,-125.574"/>
</g>
<!-- Node11 -->
<g id="node10" class="node"><title>Node11</title>
<g id="a_node10"><a xlink:href="../../d1/d81/_flex_mesh_8cpp.html" target="_top" xlink:title="source/main/physics\l/flex/FlexMesh.cpp">
<polygon fill="white" stroke="black" points="234,-67.5 234,-97.5 341,-97.5 341,-67.5 234,-67.5"/>
<text text-anchor="start" x="242" y="-85.5" font-family="Helvetica,sans-Serif" font-size="10.00">source/main/physics</text>
<text text-anchor="middle" x="287.5" y="-74.5" font-family="Helvetica,sans-Serif" font-size="10.00">/flex/FlexMesh.cpp</text>
</a>
</g>
</g>
<!-- Node8&#45;&gt;Node11 -->
<g id="edge13" class="edge"><title>Node8&#45;&gt;Node11</title>
<path fill="none" stroke="midnightblue" d="M343.85,-128.168C331.311,-118.228 316.534,-106.514 305.258,-97.5765"/>
<polygon fill="midnightblue" stroke="midnightblue" points="341.696,-130.927 351.707,-134.396 346.045,-125.441 341.696,-130.927"/>
</g>
<!-- Node9&#45;&gt;Node4 -->
<g id="edge9" class="edge"><title>Node9&#45;&gt;Node4</title>
<path fill="none" stroke="midnightblue" d="M387.473,-65.5369C339.658,-54.3168 276.567,-39.5121 232.264,-29.1161"/>
<polygon fill="midnightblue" stroke="midnightblue" points="386.897,-68.9967 397.432,-67.8739 388.496,-62.1818 386.897,-68.9967"/>
</g>
<!-- Node9&#45;&gt;Node6 -->
<g id="edge10" class="edge"><title>Node9&#45;&gt;Node6</title>
<path fill="none" stroke="midnightblue" d="M413.468,-63.4066C389.361,-53.0294 359.546,-40.1954 337.201,-30.5765"/>
<polygon fill="midnightblue" stroke="midnightblue" points="412.166,-66.6568 422.735,-67.396 414.934,-60.2272 412.166,-66.6568"/>
</g>
<!-- Node9&#45;&gt;Node7 -->
<g id="edge12" class="edge"><title>Node9&#45;&gt;Node7</title>
<path fill="none" stroke="midnightblue" d="M490.438,-62.575C509.315,-52.3502 532.226,-39.94 549.513,-30.5765"/>
<polygon fill="midnightblue" stroke="midnightblue" points="488.664,-59.5556 481.538,-67.396 491.998,-65.7106 488.664,-59.5556"/>
</g>
<!-- Node10 -->
<g id="node9" class="node"><title>Node10</title>
<g id="a_node9"><a xlink:href="../../d5/d4a/_flex_mesh_wheel_8cpp.html" target="_top" xlink:title="source/main/physics\l/flex/FlexMeshWheel.cpp">
<polygon fill="white" stroke="black" points="377,-0.5 377,-30.5 504,-30.5 504,-0.5 377,-0.5"/>
<text text-anchor="start" x="385" y="-18.5" font-family="Helvetica,sans-Serif" font-size="10.00">source/main/physics</text>
<text text-anchor="middle" x="440.5" y="-7.5" font-family="Helvetica,sans-Serif" font-size="10.00">/flex/FlexMeshWheel.cpp</text>
</a>
</g>
</g>
<!-- Node9&#45;&gt;Node10 -->
<g id="edge11" class="edge"><title>Node9&#45;&gt;Node10</title>
<path fill="none" stroke="midnightblue" d="M449.939,-57.4029C447.855,-48.3703 445.556,-38.4078 443.748,-30.5765"/>
<polygon fill="midnightblue" stroke="midnightblue" points="446.586,-58.4391 452.245,-67.396 453.407,-56.865 446.586,-58.4391"/>
</g>
</g>
</svg>
