<?xml version="1.0" encoding="UTF-8" standalone="no"?>
<!DOCTYPE svg PUBLIC "-//W3C//DTD SVG 1.1//EN"
 "http://www.w3.org/Graphics/SVG/1.1/DTD/svg11.dtd">
<!-- Generated by graphviz version 2.38.0 (20140413.2041)
 -->
<!-- Title: RigDef::Parser::ParseHydros Pages: 1 -->
<svg width="1043pt" height="297pt"
 viewBox="0.00 0.00 1043.00 297.00" xmlns="http://www.w3.org/2000/svg" xmlns:xlink="http://www.w3.org/1999/xlink">
<g id="graph0" class="graph" transform="scale(1 1) rotate(0) translate(4 293)">
<title>RigDef::Parser::ParseHydros</title>
<polygon fill="white" stroke="none" points="-4,4 -4,-293 1039,-293 1039,4 -4,4"/>
<!-- Node1945 -->
<g id="node1" class="node"><title>Node1945</title>
<polygon fill="#bfbfbf" stroke="black" points="0,-176 0,-195 142,-195 142,-176 0,-176"/>
<text text-anchor="middle" x="71" y="-183" font-family="Helvetica,sans-Serif" font-size="10.00">RigDef::Parser::ParseHydros</text>
</g>
<!-- Node1946 -->
<g id="node2" class="node"><title>Node1946</title>
<g id="a_node2"><a xlink:href="../../d1/da8/class_rig_def_1_1_parser.html#a8397c243299359e21a84243c01ca43bf" target="_top" xlink:title="RigDef::Parser::CheckNum\lArguments">
<polygon fill="white" stroke="black" points="187.5,-258.5 187.5,-288.5 321.5,-288.5 321.5,-258.5 187.5,-258.5"/>
<text text-anchor="start" x="195.5" y="-276.5" font-family="Helvetica,sans-Serif" font-size="10.00">RigDef::Parser::CheckNum</text>
<text text-anchor="middle" x="254.5" y="-265.5" font-family="Helvetica,sans-Serif" font-size="10.00">Arguments</text>
</a>
</g>
</g>
<!-- Node1945&#45;&gt;Node1946 -->
<g id="edge1" class="edge"><title>Node1945&#45;&gt;Node1946</title>
<path fill="none" stroke="midnightblue" d="M88.2014,-195.178C108.721,-207.244 145.347,-228.15 178,-243.5 186.069,-247.293 194.756,-251.042 203.264,-254.537"/>
<polygon fill="midnightblue" stroke="midnightblue" points="202.168,-257.869 212.752,-258.365 204.787,-251.378 202.168,-257.869"/>
</g>
<!-- Node1948 -->
<g id="node4" class="node"><title>Node1948</title>
<g id="a_node4"><a xlink:href="../../d1/da8/class_rig_def_1_1_parser.html#a57b7efa0a566ae343d6148a05d420eae" target="_top" xlink:title="RigDef::Parser::GetArgNodeRef">
<polygon fill="white" stroke="black" points="178,-94 178,-113 331,-113 331,-94 178,-94"/>
<text text-anchor="middle" x="254.5" y="-101" font-family="Helvetica,sans-Serif" font-size="10.00">RigDef::Parser::GetArgNodeRef</text>
</a>
</g>
</g>
<!-- Node1945&#45;&gt;Node1948 -->
<g id="edge3" class="edge"><title>Node1945&#45;&gt;Node1948</title>
<path fill="none" stroke="midnightblue" d="M87.3301,-175.879C107.532,-163.491 144.441,-141.856 178,-127.5 187.87,-123.278 198.741,-119.399 209.083,-116.047"/>
<polygon fill="midnightblue" stroke="midnightblue" points="210.296,-119.335 218.788,-113 208.199,-112.656 210.296,-119.335"/>
</g>
<!-- Node1958 -->
<g id="node14" class="node"><title>Node1958</title>
<g id="a_node14"><a xlink:href="../../d1/da8/class_rig_def_1_1_parser.html#a629f3ff2e6181f7953ec28168b0aac00" target="_top" xlink:title="RigDef::Parser::GetArgStr">
<polygon fill="white" stroke="black" points="379,-132 379,-151 508,-151 508,-132 379,-132"/>
<text text-anchor="middle" x="443.5" y="-139" font-family="Helvetica,sans-Serif" font-size="10.00">RigDef::Parser::GetArgStr</text>
</a>
</g>
</g>
<!-- Node1945&#45;&gt;Node1958 -->
<g id="edge19" class="edge"><title>Node1945&#45;&gt;Node1958</title>
<path fill="none" stroke="midnightblue" d="M106.1,-175.992C126.747,-170.602 153.702,-164.214 178,-160.5 242.025,-150.715 315.559,-145.946 368.816,-143.636"/>
<polygon fill="midnightblue" stroke="midnightblue" points="369.006,-147.131 378.852,-143.219 368.716,-140.137 369.006,-147.131"/>
</g>
<!-- Node1959 -->
<g id="node15" class="node"><title>Node1959</title>
<g id="a_node15"><a xlink:href="../../d1/da8/class_rig_def_1_1_parser.html#ae77a4970494c116e98a92be7a0160a16" target="_top" xlink:title="RigDef::Parser::GetArgFloat">
<polygon fill="white" stroke="black" points="374.5,-188 374.5,-207 512.5,-207 512.5,-188 374.5,-188"/>
<text text-anchor="middle" x="443.5" y="-195" font-family="Helvetica,sans-Serif" font-size="10.00">RigDef::Parser::GetArgFloat</text>
</a>
</g>
</g>
<!-- Node1945&#45;&gt;Node1959 -->
<g id="edge17" class="edge"><title>Node1945&#45;&gt;Node1959</title>
<path fill="none" stroke="midnightblue" d="M105.567,-195.114C126.254,-200.534 153.435,-206.754 178,-209.5 240.444,-216.481 311.613,-212.586 364.387,-207.439"/>
<polygon fill="midnightblue" stroke="midnightblue" points="364.758,-210.919 374.355,-206.431 364.053,-203.955 364.758,-210.919"/>
</g>
<!-- Node1960 -->
<g id="node16" class="node"><title>Node1960</title>
<g id="a_node16"><a xlink:href="../../d1/da8/class_rig_def_1_1_parser.html#ac9f2b0e93d371abfc6c12fd852a1f0f5" target="_top" xlink:title="RigDef::Parser::ParseOptional\lInertia">
<polygon fill="white" stroke="black" points="181,-170.5 181,-200.5 328,-200.5 328,-170.5 181,-170.5"/>
<text text-anchor="start" x="189" y="-188.5" font-family="Helvetica,sans-Serif" font-size="10.00">RigDef::Parser::ParseOptional</text>
<text text-anchor="middle" x="254.5" y="-177.5" font-family="Helvetica,sans-Serif" font-size="10.00">Inertia</text>
</a>
</g>
</g>
<!-- Node1945&#45;&gt;Node1960 -->
<g id="edge20" class="edge"><title>Node1945&#45;&gt;Node1960</title>
<path fill="none" stroke="midnightblue" d="M142.173,-185.5C151.476,-185.5 161.084,-185.5 170.578,-185.5"/>
<polygon fill="midnightblue" stroke="midnightblue" points="170.814,-189 180.814,-185.5 170.814,-182 170.814,-189"/>
</g>
<!-- Node1947 -->
<g id="node3" class="node"><title>Node1947</title>
<g id="a_node3"><a xlink:href="../../d1/da8/class_rig_def_1_1_parser.html#a7da949423835fe3241f2ac4c5ac8ebb1" target="_top" xlink:title="Adds a message to parser report. ">
<polygon fill="white" stroke="black" points="556,-188 556,-207 699,-207 699,-188 556,-188"/>
<text text-anchor="middle" x="627.5" y="-195" font-family="Helvetica,sans-Serif" font-size="10.00">RigDef::Parser::AddMessage</text>
</a>
</g>
</g>
<!-- Node1946&#45;&gt;Node1947 -->
<g id="edge2" class="edge"><title>Node1946&#45;&gt;Node1947</title>
<path fill="none" stroke="midnightblue" d="M321.827,-259.913C392.601,-245.415 503.511,-222.694 570.189,-209.035"/>
<polygon fill="midnightblue" stroke="midnightblue" points="571.002,-212.442 580.096,-207.006 569.597,-205.584 571.002,-212.442"/>
</g>
<!-- Node1949 -->
<g id="node5" class="node"><title>Node1949</title>
<g id="a_node5"><a xlink:href="../../d1/da8/class_rig_def_1_1_parser.html#a38e4135df406da0cc2f0fc4afb34ddb3" target="_top" xlink:title="RigDef::Parser::_ParseNodeRef">
<polygon fill="white" stroke="black" points="367,-94 367,-113 520,-113 520,-94 367,-94"/>
<text text-anchor="middle" x="443.5" y="-101" font-family="Helvetica,sans-Serif" font-size="10.00">RigDef::Parser::_ParseNodeRef</text>
</a>
</g>
</g>
<!-- Node1948&#45;&gt;Node1949 -->
<g id="edge4" class="edge"><title>Node1948&#45;&gt;Node1949</title>
<path fill="none" stroke="midnightblue" d="M331.021,-103.5C339.472,-103.5 348.127,-103.5 356.696,-103.5"/>
<polygon fill="midnightblue" stroke="midnightblue" points="356.697,-107 366.697,-103.5 356.697,-100 356.697,-107"/>
</g>
<!-- Node1948&#45;&gt;Node1958 -->
<g id="edge16" class="edge"><title>Node1948&#45;&gt;Node1958</title>
<path fill="none" stroke="midnightblue" d="M302.688,-113.089C327.92,-118.216 359.173,-124.567 385.727,-129.963"/>
<polygon fill="midnightblue" stroke="midnightblue" points="385.155,-133.418 395.651,-131.98 386.549,-126.559 385.155,-133.418"/>
</g>
<!-- Node1949&#45;&gt;Node1947 -->
<g id="edge15" class="edge"><title>Node1949&#45;&gt;Node1947</title>
<path fill="none" stroke="midnightblue" d="M493.733,-113.103C502.674,-115.624 511.769,-118.724 520,-122.5 553.633,-137.927 587.781,-164.273 608.045,-181.277"/>
<polygon fill="midnightblue" stroke="midnightblue" points="605.96,-184.1 615.837,-187.934 610.507,-178.778 605.96,-184.1"/>
</g>
<!-- Node1950 -->
<g id="node6" class="node"><title>Node1950</title>
<g id="a_node6"><a xlink:href="../../d4/d43/class_rig_def_1_1_sequential_importer.html#ada562d6df02ffd616a611f8bac249f05" target="_top" xlink:title="RigDef::SequentialImporter\l::IsEnabled">
<polygon fill="white" stroke="black" points="561.5,-88.5 561.5,-118.5 693.5,-118.5 693.5,-88.5 561.5,-88.5"/>
<text text-anchor="start" x="569.5" y="-106.5" font-family="Helvetica,sans-Serif" font-size="10.00">RigDef::SequentialImporter</text>
<text text-anchor="middle" x="627.5" y="-95.5" font-family="Helvetica,sans-Serif" font-size="10.00">::IsEnabled</text>
</a>
</g>
</g>
<!-- Node1949&#45;&gt;Node1950 -->
<g id="edge5" class="edge"><title>Node1949&#45;&gt;Node1950</title>
<path fill="none" stroke="midnightblue" d="M520.103,-103.5C530.358,-103.5 540.881,-103.5 551.132,-103.5"/>
<polygon fill="midnightblue" stroke="midnightblue" points="551.272,-107 561.272,-103.5 551.272,-100 551.272,-107"/>
</g>
<!-- Node1951 -->
<g id="node7" class="node"><title>Node1951</title>
<g id="a_node7"><a xlink:href="../../d4/d43/class_rig_def_1_1_sequential_importer.html#ad9fb7d3deecbb9f94ac85ff061459795" target="_top" xlink:title="RigDef::SequentialImporter\l::AddNumberedNode">
<polygon fill="white" stroke="black" points="735,-137.5 735,-167.5 867,-167.5 867,-137.5 735,-137.5"/>
<text text-anchor="start" x="743" y="-155.5" font-family="Helvetica,sans-Serif" font-size="10.00">RigDef::SequentialImporter</text>
<text text-anchor="middle" x="801" y="-144.5" font-family="Helvetica,sans-Serif" font-size="10.00">::AddNumberedNode</text>
</a>
</g>
</g>
<!-- Node1950&#45;&gt;Node1951 -->
<g id="edge6" class="edge"><title>Node1950&#45;&gt;Node1951</title>
<path fill="none" stroke="midnightblue" d="M681.355,-118.601C699.125,-123.679 719.116,-129.39 737.552,-134.658"/>
<polygon fill="midnightblue" stroke="midnightblue" points="736.743,-138.066 747.319,-137.448 738.666,-131.336 736.743,-138.066"/>
</g>
<!-- Node1953 -->
<g id="node9" class="node"><title>Node1953</title>
<g id="a_node9"><a xlink:href="../../d4/d43/class_rig_def_1_1_sequential_importer.html#a0d1350e2b0c44cff66a9c73c17baf9dd" target="_top" xlink:title="RigDef::SequentialImporter\l::AddNamedNode">
<polygon fill="white" stroke="black" points="735,-186.5 735,-216.5 867,-216.5 867,-186.5 735,-186.5"/>
<text text-anchor="start" x="743" y="-204.5" font-family="Helvetica,sans-Serif" font-size="10.00">RigDef::SequentialImporter</text>
<text text-anchor="middle" x="801" y="-193.5" font-family="Helvetica,sans-Serif" font-size="10.00">::AddNamedNode</text>
</a>
</g>
</g>
<!-- Node1950&#45;&gt;Node1953 -->
<g id="edge8" class="edge"><title>Node1950&#45;&gt;Node1953</title>
<path fill="none" stroke="midnightblue" d="M647.649,-118.67C668.326,-134.551 702.659,-159.497 735,-176.5 738.96,-178.582 743.132,-180.584 747.374,-182.486"/>
<polygon fill="midnightblue" stroke="midnightblue" points="746.143,-185.767 756.714,-186.483 748.897,-179.331 746.143,-185.767"/>
</g>
<!-- Node1954 -->
<g id="node10" class="node"><title>Node1954</title>
<g id="a_node10"><a xlink:href="../../d4/d43/class_rig_def_1_1_sequential_importer.html#a5f5e30fbc3b2f58adb15a8f64bbecd15" target="_top" xlink:title="RigDef::SequentialImporter\l::AddGeneratedNode">
<polygon fill="white" stroke="black" points="903,-78.5 903,-108.5 1035,-108.5 1035,-78.5 903,-78.5"/>
<text text-anchor="start" x="911" y="-96.5" font-family="Helvetica,sans-Serif" font-size="10.00">RigDef::SequentialImporter</text>
<text text-anchor="middle" x="969" y="-85.5" font-family="Helvetica,sans-Serif" font-size="10.00">::AddGeneratedNode</text>
</a>
</g>
</g>
<!-- Node1950&#45;&gt;Node1954 -->
<g id="edge10" class="edge"><title>Node1950&#45;&gt;Node1954</title>
<path fill="none" stroke="midnightblue" d="M681.707,-88.4719C698.602,-84.3866 717.455,-80.5317 735,-78.5 793.277,-71.7517 808.493,-74.1791 867,-78.5 875.386,-79.1194 884.133,-80.0242 892.818,-81.0875"/>
<polygon fill="midnightblue" stroke="midnightblue" points="892.593,-84.5876 902.96,-82.401 893.492,-77.6456 892.593,-84.5876"/>
</g>
<!-- Node1955 -->
<g id="node11" class="node"><title>Node1955</title>
<g id="a_node11"><a xlink:href="../../d4/d43/class_rig_def_1_1_sequential_importer.html#a639c4f71bc37fc08f02a5b603ee14033" target="_top" xlink:title="RigDef::SequentialImporter\l::GenerateNodesForWheel">
<polygon fill="white" stroke="black" points="735,-88.5 735,-118.5 867,-118.5 867,-88.5 735,-88.5"/>
<text text-anchor="start" x="743" y="-106.5" font-family="Helvetica,sans-Serif" font-size="10.00">RigDef::SequentialImporter</text>
<text text-anchor="middle" x="801" y="-95.5" font-family="Helvetica,sans-Serif" font-size="10.00">::GenerateNodesForWheel</text>
</a>
</g>
</g>
<!-- Node1950&#45;&gt;Node1955 -->
<g id="edge11" class="edge"><title>Node1950&#45;&gt;Node1955</title>
<path fill="none" stroke="midnightblue" d="M693.826,-103.5C703.907,-103.5 714.388,-103.5 724.667,-103.5"/>
<polygon fill="midnightblue" stroke="midnightblue" points="724.856,-107 734.856,-103.5 724.856,-100 724.856,-107"/>
</g>
<!-- Node1956 -->
<g id="node12" class="node"><title>Node1956</title>
<g id="a_node12"><a xlink:href="../../d4/d43/class_rig_def_1_1_sequential_importer.html#a69601c62b1bf9030cd2e2b03a926bc04" target="_top" xlink:title="Traverse whole rig definition and resolve all node references. ">
<polygon fill="white" stroke="black" points="735,-0.5 735,-30.5 867,-30.5 867,-0.5 735,-0.5"/>
<text text-anchor="start" x="743" y="-18.5" font-family="Helvetica,sans-Serif" font-size="10.00">RigDef::SequentialImporter</text>
<text text-anchor="middle" x="801" y="-7.5" font-family="Helvetica,sans-Serif" font-size="10.00">::Process</text>
</a>
</g>
</g>
<!-- Node1950&#45;&gt;Node1956 -->
<g id="edge13" class="edge"><title>Node1950&#45;&gt;Node1956</title>
<path fill="none" stroke="midnightblue" d="M654.94,-88.4658C676.334,-76.4553 707.345,-59.3934 735,-45.5 742.028,-41.9693 749.553,-38.351 756.9,-34.9041"/>
<polygon fill="midnightblue" stroke="midnightblue" points="758.466,-38.0362 766.061,-30.6493 755.517,-31.6876 758.466,-38.0362"/>
</g>
<!-- Node1952 -->
<g id="node8" class="node"><title>Node1952</title>
<g id="a_node8"><a xlink:href="../../d4/d43/class_rig_def_1_1_sequential_importer.html#abbbd9a34cae153cb481b6c61a7927a97" target="_top" xlink:title="RigDef::SequentialImporter\l::AddMessage">
<polygon fill="white" stroke="black" points="903,-146.5 903,-176.5 1035,-176.5 1035,-146.5 903,-146.5"/>
<text text-anchor="start" x="911" y="-164.5" font-family="Helvetica,sans-Serif" font-size="10.00">RigDef::SequentialImporter</text>
<text text-anchor="middle" x="969" y="-153.5" font-family="Helvetica,sans-Serif" font-size="10.00">::AddMessage</text>
</a>
</g>
</g>
<!-- Node1951&#45;&gt;Node1952 -->
<g id="edge7" class="edge"><title>Node1951&#45;&gt;Node1952</title>
<path fill="none" stroke="midnightblue" d="M867.131,-156.031C875.461,-156.483 884.044,-156.948 892.521,-157.408"/>
<polygon fill="midnightblue" stroke="midnightblue" points="892.609,-160.918 902.784,-157.964 892.988,-153.928 892.609,-160.918"/>
</g>
<!-- Node1953&#45;&gt;Node1952 -->
<g id="edge9" class="edge"><title>Node1953&#45;&gt;Node1952</title>
<path fill="none" stroke="midnightblue" d="M864.285,-186.492C874.533,-184.022 885.232,-181.444 895.699,-178.922"/>
<polygon fill="midnightblue" stroke="midnightblue" points="896.741,-182.271 905.643,-176.526 895.101,-175.466 896.741,-182.271"/>
</g>
<!-- Node1955&#45;&gt;Node1954 -->
<g id="edge12" class="edge"><title>Node1955&#45;&gt;Node1954</title>
<path fill="none" stroke="midnightblue" d="M867.131,-99.5764C875.553,-99.0691 884.232,-98.5462 892.8,-98.0301"/>
<polygon fill="midnightblue" stroke="midnightblue" points="893.013,-101.524 902.784,-97.4287 892.592,-94.5364 893.013,-101.524"/>
</g>
<!-- Node1957 -->
<g id="node13" class="node"><title>Node1957</title>
<g id="a_node13"><a xlink:href="../../d4/d43/class_rig_def_1_1_sequential_importer.html#aaabc36a84be7e26a7d0790f04fa882c1" target="_top" xlink:title="RigDef::SequentialImporter\l::ProcessModule">
<polygon fill="white" stroke="black" points="903,-0.5 903,-30.5 1035,-30.5 1035,-0.5 903,-0.5"/>
<text text-anchor="start" x="911" y="-18.5" font-family="Helvetica,sans-Serif" font-size="10.00">RigDef::SequentialImporter</text>
<text text-anchor="middle" x="969" y="-7.5" font-family="Helvetica,sans-Serif" font-size="10.00">::ProcessModule</text>
</a>
</g>
</g>
<!-- Node1956&#45;&gt;Node1957 -->
<g id="edge14" class="edge"><title>Node1956&#45;&gt;Node1957</title>
<path fill="none" stroke="midnightblue" d="M867.131,-15.5C875.461,-15.5 884.044,-15.5 892.521,-15.5"/>
<polygon fill="midnightblue" stroke="midnightblue" points="892.784,-19.0001 902.784,-15.5 892.784,-12.0001 892.784,-19.0001"/>
</g>
<!-- Node1959&#45;&gt;Node1947 -->
<g id="edge18" class="edge"><title>Node1959&#45;&gt;Node1947</title>
<path fill="none" stroke="midnightblue" d="M512.529,-197.5C523.351,-197.5 534.637,-197.5 545.719,-197.5"/>
<polygon fill="midnightblue" stroke="midnightblue" points="545.819,-201 555.819,-197.5 545.819,-194 545.819,-201"/>
</g>
<!-- Node1960&#45;&gt;Node1958 -->
<g id="edge22" class="edge"><title>Node1960&#45;&gt;Node1958</title>
<path fill="none" stroke="midnightblue" d="M319.332,-170.481C343.096,-164.889 369.713,-158.626 392.106,-153.357"/>
<polygon fill="midnightblue" stroke="midnightblue" points="393.14,-156.71 402.072,-151.012 391.536,-149.896 393.14,-156.71"/>
</g>
<!-- Node1960&#45;&gt;Node1959 -->
<g id="edge21" class="edge"><title>Node1960&#45;&gt;Node1959</title>
<path fill="none" stroke="midnightblue" d="M328.067,-190.157C339.937,-190.918 352.282,-191.711 364.282,-192.481"/>
<polygon fill="midnightblue" stroke="midnightblue" points="364.06,-195.973 374.263,-193.121 364.508,-188.988 364.06,-195.973"/>
</g>
</g>
</svg>
