<?xml version="1.0" encoding="UTF-8" standalone="no"?>
<!DOCTYPE svg PUBLIC "-//W3C//DTD SVG 1.1//EN"
 "http://www.w3.org/Graphics/SVG/1.1/DTD/svg11.dtd">
<!-- Generated by graphviz version 2.38.0 (20140413.2041)
 -->
<!-- Title: RigDef::Parser::ProcessMessagesToString Pages: 1 -->
<!--zoomable 75 -->
<svg id="main" version="1.1" xmlns="http://www.w3.org/2000/svg" xmlns:xlink="http://www.w3.org/1999/xlink" xml:space="preserve" onload="init(evt)">
<style type="text/css"><![CDATA[
.edge:hover path { stroke: red; }
.edge:hover polygon { stroke: red; fill: red; }
]]></style>
<script type="text/javascript"><![CDATA[
var edges = document.getElementsByTagName('g');
if (edges && edges.length) {
  for (var i=0;i<edges.length;i++) {
    if (edges[i].id.substr(0,4)=='edge') {
      edges[i].setAttribute('class','edge');
    }
  }
}
]]></script>
        <defs>
                <circle id="rim" cx="0" cy="0" r="7"/>
                <circle id="rim2" cx="0" cy="0" r="3.5"/>
                <g id="zoomPlus">
                        <use xlink:href="#rim" fill="#404040">
                                <set attributeName="fill" to="#808080" begin="zoomplus.mouseover" end="zoomplus.mouseout"/>
                        </use>
                        <path d="M-4,0h8M0,-4v8" fill="none" stroke="white" stroke-width="1.5" pointer-events="none"/>
                </g>
                <g id="zoomMin">
                        <use xlink:href="#rim" fill="#404040">
                                <set attributeName="fill" to="#808080" begin="zoomminus.mouseover" end="zoomminus.mouseout"/>
                        </use>
                        <path d="M-4,0h8" fill="none" stroke="white" stroke-width="1.5" pointer-events="none"/>
                </g>
                <g id="dirArrow">
                        <path fill="none" stroke="white" stroke-width="1.5" d="M0,-3.0v7 M-2.5,-0.5L0,-3.0L2.5,-0.5"/>
                </g>
               <g id="resetDef">
                       <use xlink:href="#rim2" fill="#404040">
                               <set attributeName="fill" to="#808080" begin="reset.mouseover" end="reset.mouseout"/>
                       </use>
               </g>
        </defs>

<script type="text/javascript">
var viewWidth = 620;
var viewHeight = 75;
var sectionId = 'dynsection-248';
</script>
<script xlink:href="../../svgpan.js"/>
<svg id="graph" class="graph">
<g id="viewport">
<title>RigDef::Parser::ProcessMessagesToString</title>
<polygon fill="white" stroke="none" points="-4,4 -4,-70.5 616,-70.5 616,4 -4,4"/>
<!-- Node3056 -->
<g id="node1" class="node"><title>Node3056</title>
<polygon fill="#bfbfbf" stroke="black" points="0,-22.5 0,-52.5 167,-52.5 167,-22.5 0,-22.5"/>
<text text-anchor="start" x="8" y="-40.5" font-family="Helvetica,sans-Serif" font-size="10.00">RigDef::Parser::ProcessMessages</text>
<text text-anchor="middle" x="83.5" y="-29.5" font-family="Helvetica,sans-Serif" font-size="10.00">ToString</text>
</g>
<!-- Node3057 -->
<g id="node2" class="node"><title>Node3057</title>
<g id="a_node2"><a xlink:href="../../df/df9/class_beam.html#ab0cbc6c4e3822fc5786af2c8036f7efb" target="_top" xlink:title="Beam::LoadTruck">
<polygon fill="white" stroke="black" points="386,-28 386,-47 479,-47 479,-28 386,-28"/>
<text text-anchor="middle" x="432.5" y="-35" font-family="Helvetica,sans-Serif" font-size="10.00">Beam::LoadTruck</text>
</a>
</g>
</g>
<!-- Node3056&#45;&gt;Node3057 -->
<g id="edge1" class="edge"><title>Node3056&#45;&gt;Node3057</title>
<path fill="none" stroke="midnightblue" d="M177.254,-40.0729C185.956,-40.2465 194.643,-40.3942 203,-40.5 268.328,-41.3268 284.678,-41.7018 350,-40.5 361.608,-40.2864 374.142,-39.9019 385.817,-39.4778"/>
<polygon fill="midnightblue" stroke="midnightblue" points="177.121,-36.5694 167.049,-39.858 176.973,-43.5678 177.121,-36.5694"/>
</g>
<!-- Node3060 -->
<g id="node5" class="node"><title>Node3060</title>
<g id="a_node5"><a xlink:href="../../d1/da8/class_rig_def_1_1_parser.html#a1d88ed3d8ecc1719890601463d7d2046" target="_top" xlink:title="RigDef::Parser::GetSequential\lImporter">
<polygon fill="white" stroke="black" points="203,-0.5 203,-30.5 350,-30.5 350,-0.5 203,-0.5"/>
<text text-anchor="start" x="211" y="-18.5" font-family="Helvetica,sans-Serif" font-size="10.00">RigDef::Parser::GetSequential</text>
<text text-anchor="middle" x="276.5" y="-7.5" font-family="Helvetica,sans-Serif" font-size="10.00">Importer</text>
</a>
</g>
</g>
<!-- Node3056&#45;&gt;Node3060 -->
<g id="edge4" class="edge"><title>Node3056&#45;&gt;Node3060</title>
<path fill="none" stroke="midnightblue" d="M177.25,-26.8168C185.867,-25.8242 194.514,-24.8282 202.91,-23.8611"/>
<polygon fill="midnightblue" stroke="midnightblue" points="176.698,-23.3571 167.165,-27.9784 177.499,-30.3111 176.698,-23.3571"/>
</g>
<!-- Node3058 -->
<g id="node3" class="node"><title>Node3058</title>
<g id="a_node3"><a xlink:href="../../df/df9/class_beam.html#a0d55b25fa0d1623305f3ac51694cbd42" target="_top" xlink:title="Beam::Beam">
<polygon fill="white" stroke="black" points="526.5,-47 526.5,-66 600.5,-66 600.5,-47 526.5,-47"/>
<text text-anchor="middle" x="563.5" y="-54" font-family="Helvetica,sans-Serif" font-size="10.00">Beam::Beam</text>
</a>
</g>
</g>
<!-- Node3057&#45;&gt;Node3058 -->
<g id="edge2" class="edge"><title>Node3057&#45;&gt;Node3058</title>
<path fill="none" stroke="midnightblue" d="M489.6,-45.7627C501.975,-47.5855 514.77,-49.4701 526.121,-51.1418"/>
<polygon fill="midnightblue" stroke="midnightblue" points="489.747,-42.2468 479.344,-44.2522 488.727,-49.1721 489.747,-42.2468"/>
</g>
<!-- Node3059 -->
<g id="node4" class="node"><title>Node3059</title>
<g id="a_node4"><a xlink:href="../../df/df9/class_beam.html#a3176be8102041493ae018fd5d66607dd" target="_top" xlink:title="Beam::getVelocity">
<polygon fill="white" stroke="black" points="515,-9 515,-28 612,-28 612,-9 515,-9"/>
<text text-anchor="middle" x="563.5" y="-16" font-family="Helvetica,sans-Serif" font-size="10.00">Beam::getVelocity</text>
</a>
</g>
</g>
<!-- Node3057&#45;&gt;Node3059 -->
<g id="edge3" class="edge"><title>Node3057&#45;&gt;Node3059</title>
<path fill="none" stroke="midnightblue" d="M489.442,-29.2605C497.833,-28.0246 506.42,-26.7598 514.623,-25.5517"/>
<polygon fill="midnightblue" stroke="midnightblue" points="488.727,-25.8279 479.344,-30.7478 489.747,-32.7532 488.727,-25.8279"/>
</g>
<!-- Node3060&#45;&gt;Node3057 -->
<g id="edge5" class="edge"><title>Node3060&#45;&gt;Node3057</title>
<path fill="none" stroke="midnightblue" d="M360.548,-27.364C369.14,-28.5915 377.631,-29.8045 385.59,-30.9414"/>
<polygon fill="midnightblue" stroke="midnightblue" points="360.836,-23.8696 350.441,-25.9202 359.846,-30.7993 360.836,-23.8696"/>
</g>
</g>
</svg>
        <g id="navigator" transform="translate(0 0)" fill="#404254">
                <rect fill="#f2f5e9" fill-opacity="0.5" stroke="#606060" stroke-width=".5" x="0" y="0" width="60" height="60"/>
                <use id="zoomplus" xlink:href="#zoomPlus" x="17" y="9" onmousedown="handleZoom(evt,'in')"/>
                <use id="zoomminus" xlink:href="#zoomMin" x="42" y="9" onmousedown="handleZoom(evt,'out')"/>
                <use id="reset" xlink:href="#resetDef" x="30" y="36" onmousedown="handleReset()"/>
                <g id="arrowUp" xlink:href="#dirArrow" transform="translate(30 24)" onmousedown="handlePan(0,-1)">
                  <use xlink:href="#rim" fill="#404040">
                        <set attributeName="fill" to="#808080" begin="arrowUp.mouseover" end="arrowUp.mouseout"/>
                  </use>
                  <path fill="none" stroke="white" stroke-width="1.5" d="M0,-3.0v7 M-2.5,-0.5L0,-3.0L2.5,-0.5"/>
                </g>
                <g id="arrowRight" xlink:href="#dirArrow" transform="rotate(90) translate(36 -43)" onmousedown="handlePan(1,0)">
                  <use xlink:href="#rim" fill="#404040">
                        <set attributeName="fill" to="#808080" begin="arrowRight.mouseover" end="arrowRight.mouseout"/>
                  </use>
                  <path fill="none" stroke="white" stroke-width="1.5" d="M0,-3.0v7 M-2.5,-0.5L0,-3.0L2.5,-0.5"/>
                </g>
                <g id="arrowDown" xlink:href="#dirArrow" transform="rotate(180) translate(-30 -48)" onmousedown="handlePan(0,1)">
                  <use xlink:href="#rim" fill="#404040">
                        <set attributeName="fill" to="#808080" begin="arrowDown.mouseover" end="arrowDown.mouseout"/>
                  </use>
                  <path fill="none" stroke="white" stroke-width="1.5" d="M0,-3.0v7 M-2.5,-0.5L0,-3.0L2.5,-0.5"/>
                </g>
                <g id="arrowLeft" xlink:href="#dirArrow" transform="rotate(270) translate(-36 17)" onmousedown="handlePan(-1,0)">
                  <use xlink:href="#rim" fill="#404040">
                        <set attributeName="fill" to="#808080" begin="arrowLeft.mouseover" end="arrowLeft.mouseout"/>
                  </use>
                  <path fill="none" stroke="white" stroke-width="1.5" d="M0,-3.0v7 M-2.5,-0.5L0,-3.0L2.5,-0.5"/>
                </g>
        </g>
        <svg viewBox="0 0 15 15" width="100%" height="30px" preserveAspectRatio="xMaxYMin meet">
         <g id="arrow_out" transform="scale(0.3 0.3)">
          <a xlink:href="class_rig_def_1_1_parser_a94a43c89e6b1ce0f2af3b8433026863b_icgraph_org.svg" target="_base">
           <rect id="button" ry="5" rx="5" y="6" x="6" height="38" width="38"
                fill="#f2f5e9" fill-opacity="0.5" stroke="#606060" stroke-width="1.0"/>
           <path id="arrow"
             d="M 11.500037,31.436501 C 11.940474,20.09759 22.043105,11.32322 32.158766,21.979434 L 37.068811,17.246167 C 37.068811,17.246167 37.088388,32 37.088388,32 L 22.160133,31.978069 C 22.160133,31.978069 26.997745,27.140456 26.997745,27.140456 C 18.528582,18.264221 13.291696,25.230495 11.500037,31.436501 z"
             style="fill:#404040;"/>
          </a>
         </g>
        </svg>
</svg>
