<?xml version="1.0" encoding="UTF-8" standalone="no"?>
<!DOCTYPE svg PUBLIC "-//W3C//DTD SVG 1.1//EN"
 "http://www.w3.org/Graphics/SVG/1.1/DTD/svg11.dtd">
<!-- Generated by graphviz version 2.38.0 (20140413.2041)
 -->
<!-- Title: RigDef::Parser::ParseSoundsources2 Pages: 1 -->
<!--zoomable 259 -->
<svg id="main" version="1.1" xmlns="http://www.w3.org/2000/svg" xmlns:xlink="http://www.w3.org/1999/xlink" xml:space="preserve" onload="init(evt)">
<style type="text/css"><![CDATA[
.edge:hover path { stroke: red; }
.edge:hover polygon { stroke: red; fill: red; }
]]></style>
<script type="text/javascript"><![CDATA[
var edges = document.getElementsByTagName('g');
if (edges && edges.length) {
  for (var i=0;i<edges.length;i++) {
    if (edges[i].id.substr(0,4)=='edge') {
      edges[i].setAttribute('class','edge');
    }
  }
}
]]></script>
        <defs>
                <circle id="rim" cx="0" cy="0" r="7"/>
                <circle id="rim2" cx="0" cy="0" r="3.5"/>
                <g id="zoomPlus">
                        <use xlink:href="#rim" fill="#404040">
                                <set attributeName="fill" to="#808080" begin="zoomplus.mouseover" end="zoomplus.mouseout"/>
                        </use>
                        <path d="M-4,0h8M0,-4v8" fill="none" stroke="white" stroke-width="1.5" pointer-events="none"/>
                </g>
                <g id="zoomMin">
                        <use xlink:href="#rim" fill="#404040">
                                <set attributeName="fill" to="#808080" begin="zoomminus.mouseover" end="zoomminus.mouseout"/>
                        </use>
                        <path d="M-4,0h8" fill="none" stroke="white" stroke-width="1.5" pointer-events="none"/>
                </g>
                <g id="dirArrow">
                        <path fill="none" stroke="white" stroke-width="1.5" d="M0,-3.0v7 M-2.5,-0.5L0,-3.0L2.5,-0.5"/>
                </g>
               <g id="resetDef">
                       <use xlink:href="#rim2" fill="#404040">
                               <set attributeName="fill" to="#808080" begin="reset.mouseover" end="reset.mouseout"/>
                       </use>
               </g>
        </defs>

<script type="text/javascript">
var viewWidth = 1080;
var viewHeight = 259;
var sectionId = 'dynsection-205';
</script>
<script xlink:href="../../svgpan.js"/>
<svg id="graph" class="graph">
<g id="viewport">
<title>RigDef::Parser::ParseSoundsources2</title>
<polygon fill="white" stroke="none" points="-4,4 -4,-254.64 1076,-254.64 1076,4 -4,4"/>
<!-- Node2489 -->
<g id="node1" class="node"><title>Node2489</title>
<polygon fill="#bfbfbf" stroke="black" points="0,-176 0,-195 179,-195 179,-176 0,-176"/>
<text text-anchor="middle" x="89.5" y="-183" font-family="Helvetica,sans-Serif" font-size="10.00">RigDef::Parser::ParseSoundsources2</text>
</g>
<!-- Node2490 -->
<g id="node2" class="node"><title>Node2490</title>
<g id="a_node2"><a xlink:href="../../d1/da8/class_rig_def_1_1_parser.html#a8397c243299359e21a84243c01ca43bf" target="_top" xlink:title="RigDef::Parser::CheckNum\lArguments">
<polygon fill="white" stroke="black" points="224.5,-170.5 224.5,-200.5 358.5,-200.5 358.5,-170.5 224.5,-170.5"/>
<text text-anchor="start" x="232.5" y="-188.5" font-family="Helvetica,sans-Serif" font-size="10.00">RigDef::Parser::CheckNum</text>
<text text-anchor="middle" x="291.5" y="-177.5" font-family="Helvetica,sans-Serif" font-size="10.00">Arguments</text>
</a>
</g>
</g>
<!-- Node2489&#45;&gt;Node2490 -->
<g id="edge1" class="edge"><title>Node2489&#45;&gt;Node2490</title>
<path fill="none" stroke="midnightblue" d="M179.096,-185.5C190.895,-185.5 202.908,-185.5 214.467,-185.5"/>
<polygon fill="midnightblue" stroke="midnightblue" points="214.492,-189 224.492,-185.5 214.492,-182 214.492,-189"/>
</g>
<!-- Node2491 -->
<g id="node3" class="node"><title>Node2491</title>
<g id="a_node3"><a xlink:href="../../d1/da8/class_rig_def_1_1_parser.html#a7da949423835fe3241f2ac4c5ac8ebb1" target="_top" xlink:title="Adds a message to parser report. ">
<polygon fill="white" stroke="black" points="593,-197 593,-216 736,-216 736,-197 593,-197"/>
<text text-anchor="middle" x="664.5" y="-204" font-family="Helvetica,sans-Serif" font-size="10.00">RigDef::Parser::AddMessage</text>
</a>
</g>
</g>
<!-- Node2489&#45;&gt;Node2491 -->
<g id="edge21" class="edge"><title>Node2489&#45;&gt;Node2491</title>
<path fill="none" stroke="midnightblue" d="M104.216,-195.192C126.296,-210.135 171.644,-238.155 215,-248.5 234.173,-253.075 544.891,-248.765 557,-246.5 584.318,-241.39 613.782,-229.812 634.779,-220.421"/>
<polygon fill="midnightblue" stroke="midnightblue" points="636.444,-223.507 644.075,-216.158 633.526,-217.144 636.444,-223.507"/>
</g>
<!-- Node2492 -->
<g id="node4" class="node"><title>Node2492</title>
<g id="a_node4"><a xlink:href="../../d1/da8/class_rig_def_1_1_parser.html#a57b7efa0a566ae343d6148a05d420eae" target="_top" xlink:title="RigDef::Parser::GetArgNodeRef">
<polygon fill="white" stroke="black" points="215,-94 215,-113 368,-113 368,-94 215,-94"/>
<text text-anchor="middle" x="291.5" y="-101" font-family="Helvetica,sans-Serif" font-size="10.00">RigDef::Parser::GetArgNodeRef</text>
</a>
</g>
</g>
<!-- Node2489&#45;&gt;Node2492 -->
<g id="edge3" class="edge"><title>Node2489&#45;&gt;Node2492</title>
<path fill="none" stroke="midnightblue" d="M109.156,-175.89C133.222,-163.707 176.568,-142.489 215,-127.5 225.399,-123.444 236.793,-119.548 247.505,-116.117"/>
<polygon fill="midnightblue" stroke="midnightblue" points="248.609,-119.439 257.103,-113.107 246.514,-112.76 248.609,-119.439"/>
</g>
<!-- Node2502 -->
<g id="node14" class="node"><title>Node2502</title>
<g id="a_node14"><a xlink:href="../../d1/da8/class_rig_def_1_1_parser.html#a629f3ff2e6181f7953ec28168b0aac00" target="_top" xlink:title="RigDef::Parser::GetArgStr">
<polygon fill="white" stroke="black" points="416,-132 416,-151 545,-151 545,-132 416,-132"/>
<text text-anchor="middle" x="480.5" y="-139" font-family="Helvetica,sans-Serif" font-size="10.00">RigDef::Parser::GetArgStr</text>
</a>
</g>
</g>
<!-- Node2489&#45;&gt;Node2502 -->
<g id="edge17" class="edge"><title>Node2489&#45;&gt;Node2502</title>
<path fill="none" stroke="midnightblue" d="M131.214,-175.971C155.426,-170.644 186.819,-164.326 215,-160.5 279.18,-151.787 352.699,-146.912 405.91,-144.289"/>
<polygon fill="midnightblue" stroke="midnightblue" points="406.116,-147.783 415.938,-143.809 405.782,-140.791 406.116,-147.783"/>
</g>
<!-- Node2503 -->
<g id="node15" class="node"><title>Node2503</title>
<g id="a_node15"><a xlink:href="../../d1/da8/class_rig_def_1_1_parser.html#a635bdc3c7493275fc05f91d51c11945b" target="_top" xlink:title="RigDef::Parser::GetArgInt">
<polygon fill="white" stroke="black" points="228,-220 228,-239 355,-239 355,-220 228,-220"/>
<text text-anchor="middle" x="291.5" y="-227" font-family="Helvetica,sans-Serif" font-size="10.00">RigDef::Parser::GetArgInt</text>
</a>
</g>
</g>
<!-- Node2489&#45;&gt;Node2503 -->
<g id="edge18" class="edge"><title>Node2489&#45;&gt;Node2503</title>
<path fill="none" stroke="midnightblue" d="M133.897,-195.047C164.168,-201.707 204.756,-210.636 237.026,-217.736"/>
<polygon fill="midnightblue" stroke="midnightblue" points="236.669,-221.241 247.188,-219.971 238.173,-214.404 236.669,-221.241"/>
</g>
<!-- Node2490&#45;&gt;Node2491 -->
<g id="edge2" class="edge"><title>Node2490&#45;&gt;Node2491</title>
<path fill="none" stroke="midnightblue" d="M358.827,-189.254C421.473,-192.8 515.566,-198.126 582.593,-201.92"/>
<polygon fill="midnightblue" stroke="midnightblue" points="582.512,-205.421 592.694,-202.492 582.908,-198.432 582.512,-205.421"/>
</g>
<!-- Node2493 -->
<g id="node5" class="node"><title>Node2493</title>
<g id="a_node5"><a xlink:href="../../d1/da8/class_rig_def_1_1_parser.html#a38e4135df406da0cc2f0fc4afb34ddb3" target="_top" xlink:title="RigDef::Parser::_ParseNodeRef">
<polygon fill="white" stroke="black" points="404,-94 404,-113 557,-113 557,-94 404,-94"/>
<text text-anchor="middle" x="480.5" y="-101" font-family="Helvetica,sans-Serif" font-size="10.00">RigDef::Parser::_ParseNodeRef</text>
</a>
</g>
</g>
<!-- Node2492&#45;&gt;Node2493 -->
<g id="edge4" class="edge"><title>Node2492&#45;&gt;Node2493</title>
<path fill="none" stroke="midnightblue" d="M368.021,-103.5C376.472,-103.5 385.127,-103.5 393.696,-103.5"/>
<polygon fill="midnightblue" stroke="midnightblue" points="393.697,-107 403.697,-103.5 393.697,-100 393.697,-107"/>
</g>
<!-- Node2492&#45;&gt;Node2502 -->
<g id="edge16" class="edge"><title>Node2492&#45;&gt;Node2502</title>
<path fill="none" stroke="midnightblue" d="M339.688,-113.089C364.92,-118.216 396.173,-124.567 422.727,-129.963"/>
<polygon fill="midnightblue" stroke="midnightblue" points="422.155,-133.418 432.651,-131.98 423.549,-126.559 422.155,-133.418"/>
</g>
<!-- Node2493&#45;&gt;Node2491 -->
<g id="edge15" class="edge"><title>Node2493&#45;&gt;Node2491</title>
<path fill="none" stroke="midnightblue" d="M532.105,-113.088C540.638,-115.585 549.238,-118.681 557,-122.5 592.471,-139.95 627.218,-170.635 646.937,-189.693"/>
<polygon fill="midnightblue" stroke="midnightblue" points="644.615,-192.319 654.194,-196.844 649.528,-187.332 644.615,-192.319"/>
</g>
<!-- Node2494 -->
<g id="node6" class="node"><title>Node2494</title>
<g id="a_node6"><a xlink:href="../../d4/d43/class_rig_def_1_1_sequential_importer.html#ada562d6df02ffd616a611f8bac249f05" target="_top" xlink:title="RigDef::SequentialImporter\l::IsEnabled">
<polygon fill="white" stroke="black" points="598.5,-88.5 598.5,-118.5 730.5,-118.5 730.5,-88.5 598.5,-88.5"/>
<text text-anchor="start" x="606.5" y="-106.5" font-family="Helvetica,sans-Serif" font-size="10.00">RigDef::SequentialImporter</text>
<text text-anchor="middle" x="664.5" y="-95.5" font-family="Helvetica,sans-Serif" font-size="10.00">::IsEnabled</text>
</a>
</g>
</g>
<!-- Node2493&#45;&gt;Node2494 -->
<g id="edge5" class="edge"><title>Node2493&#45;&gt;Node2494</title>
<path fill="none" stroke="midnightblue" d="M557.103,-103.5C567.358,-103.5 577.881,-103.5 588.132,-103.5"/>
<polygon fill="midnightblue" stroke="midnightblue" points="588.272,-107 598.272,-103.5 588.272,-100 588.272,-107"/>
</g>
<!-- Node2495 -->
<g id="node7" class="node"><title>Node2495</title>
<g id="a_node7"><a xlink:href="../../d4/d43/class_rig_def_1_1_sequential_importer.html#ad9fb7d3deecbb9f94ac85ff061459795" target="_top" xlink:title="RigDef::SequentialImporter\l::AddNumberedNode">
<polygon fill="white" stroke="black" points="772,-137.5 772,-167.5 904,-167.5 904,-137.5 772,-137.5"/>
<text text-anchor="start" x="780" y="-155.5" font-family="Helvetica,sans-Serif" font-size="10.00">RigDef::SequentialImporter</text>
<text text-anchor="middle" x="838" y="-144.5" font-family="Helvetica,sans-Serif" font-size="10.00">::AddNumberedNode</text>
</a>
</g>
</g>
<!-- Node2494&#45;&gt;Node2495 -->
<g id="edge6" class="edge"><title>Node2494&#45;&gt;Node2495</title>
<path fill="none" stroke="midnightblue" d="M718.355,-118.601C736.125,-123.679 756.116,-129.39 774.552,-134.658"/>
<polygon fill="midnightblue" stroke="midnightblue" points="773.743,-138.066 784.319,-137.448 775.666,-131.336 773.743,-138.066"/>
</g>
<!-- Node2497 -->
<g id="node9" class="node"><title>Node2497</title>
<g id="a_node9"><a xlink:href="../../d4/d43/class_rig_def_1_1_sequential_importer.html#a0d1350e2b0c44cff66a9c73c17baf9dd" target="_top" xlink:title="RigDef::SequentialImporter\l::AddNamedNode">
<polygon fill="white" stroke="black" points="772,-186.5 772,-216.5 904,-216.5 904,-186.5 772,-186.5"/>
<text text-anchor="start" x="780" y="-204.5" font-family="Helvetica,sans-Serif" font-size="10.00">RigDef::SequentialImporter</text>
<text text-anchor="middle" x="838" y="-193.5" font-family="Helvetica,sans-Serif" font-size="10.00">::AddNamedNode</text>
</a>
</g>
</g>
<!-- Node2494&#45;&gt;Node2497 -->
<g id="edge8" class="edge"><title>Node2494&#45;&gt;Node2497</title>
<path fill="none" stroke="midnightblue" d="M684.649,-118.67C705.326,-134.551 739.659,-159.497 772,-176.5 775.96,-178.582 780.132,-180.584 784.374,-182.486"/>
<polygon fill="midnightblue" stroke="midnightblue" points="783.143,-185.767 793.714,-186.483 785.897,-179.331 783.143,-185.767"/>
</g>
<!-- Node2498 -->
<g id="node10" class="node"><title>Node2498</title>
<g id="a_node10"><a xlink:href="../../d4/d43/class_rig_def_1_1_sequential_importer.html#a5f5e30fbc3b2f58adb15a8f64bbecd15" target="_top" xlink:title="RigDef::SequentialImporter\l::AddGeneratedNode">
<polygon fill="white" stroke="black" points="940,-78.5 940,-108.5 1072,-108.5 1072,-78.5 940,-78.5"/>
<text text-anchor="start" x="948" y="-96.5" font-family="Helvetica,sans-Serif" font-size="10.00">RigDef::SequentialImporter</text>
<text text-anchor="middle" x="1006" y="-85.5" font-family="Helvetica,sans-Serif" font-size="10.00">::AddGeneratedNode</text>
</a>
</g>
</g>
<!-- Node2494&#45;&gt;Node2498 -->
<g id="edge10" class="edge"><title>Node2494&#45;&gt;Node2498</title>
<path fill="none" stroke="midnightblue" d="M718.707,-88.4719C735.602,-84.3866 754.455,-80.5317 772,-78.5 830.277,-71.7517 845.493,-74.1791 904,-78.5 912.386,-79.1194 921.133,-80.0242 929.818,-81.0875"/>
<polygon fill="midnightblue" stroke="midnightblue" points="929.593,-84.5876 939.96,-82.401 930.492,-77.6456 929.593,-84.5876"/>
</g>
<!-- Node2499 -->
<g id="node11" class="node"><title>Node2499</title>
<g id="a_node11"><a xlink:href="../../d4/d43/class_rig_def_1_1_sequential_importer.html#a639c4f71bc37fc08f02a5b603ee14033" target="_top" xlink:title="RigDef::SequentialImporter\l::GenerateNodesForWheel">
<polygon fill="white" stroke="black" points="772,-88.5 772,-118.5 904,-118.5 904,-88.5 772,-88.5"/>
<text text-anchor="start" x="780" y="-106.5" font-family="Helvetica,sans-Serif" font-size="10.00">RigDef::SequentialImporter</text>
<text text-anchor="middle" x="838" y="-95.5" font-family="Helvetica,sans-Serif" font-size="10.00">::GenerateNodesForWheel</text>
</a>
</g>
</g>
<!-- Node2494&#45;&gt;Node2499 -->
<g id="edge11" class="edge"><title>Node2494&#45;&gt;Node2499</title>
<path fill="none" stroke="midnightblue" d="M730.826,-103.5C740.907,-103.5 751.388,-103.5 761.667,-103.5"/>
<polygon fill="midnightblue" stroke="midnightblue" points="761.856,-107 771.856,-103.5 761.856,-100 761.856,-107"/>
</g>
<!-- Node2500 -->
<g id="node12" class="node"><title>Node2500</title>
<g id="a_node12"><a xlink:href="../../d4/d43/class_rig_def_1_1_sequential_importer.html#a69601c62b1bf9030cd2e2b03a926bc04" target="_top" xlink:title="Traverse whole rig definition and resolve all node references. ">
<polygon fill="white" stroke="black" points="772,-0.5 772,-30.5 904,-30.5 904,-0.5 772,-0.5"/>
<text text-anchor="start" x="780" y="-18.5" font-family="Helvetica,sans-Serif" font-size="10.00">RigDef::SequentialImporter</text>
<text text-anchor="middle" x="838" y="-7.5" font-family="Helvetica,sans-Serif" font-size="10.00">::Process</text>
</a>
</g>
</g>
<!-- Node2494&#45;&gt;Node2500 -->
<g id="edge13" class="edge"><title>Node2494&#45;&gt;Node2500</title>
<path fill="none" stroke="midnightblue" d="M691.94,-88.4658C713.334,-76.4553 744.345,-59.3934 772,-45.5 779.028,-41.9693 786.553,-38.351 793.9,-34.9041"/>
<polygon fill="midnightblue" stroke="midnightblue" points="795.466,-38.0362 803.061,-30.6493 792.517,-31.6876 795.466,-38.0362"/>
</g>
<!-- Node2496 -->
<g id="node8" class="node"><title>Node2496</title>
<g id="a_node8"><a xlink:href="../../d4/d43/class_rig_def_1_1_sequential_importer.html#abbbd9a34cae153cb481b6c61a7927a97" target="_top" xlink:title="RigDef::SequentialImporter\l::AddMessage">
<polygon fill="white" stroke="black" points="940,-146.5 940,-176.5 1072,-176.5 1072,-146.5 940,-146.5"/>
<text text-anchor="start" x="948" y="-164.5" font-family="Helvetica,sans-Serif" font-size="10.00">RigDef::SequentialImporter</text>
<text text-anchor="middle" x="1006" y="-153.5" font-family="Helvetica,sans-Serif" font-size="10.00">::AddMessage</text>
</a>
</g>
</g>
<!-- Node2495&#45;&gt;Node2496 -->
<g id="edge7" class="edge"><title>Node2495&#45;&gt;Node2496</title>
<path fill="none" stroke="midnightblue" d="M904.131,-156.031C912.461,-156.483 921.044,-156.948 929.521,-157.408"/>
<polygon fill="midnightblue" stroke="midnightblue" points="929.609,-160.918 939.784,-157.964 929.988,-153.928 929.609,-160.918"/>
</g>
<!-- Node2497&#45;&gt;Node2496 -->
<g id="edge9" class="edge"><title>Node2497&#45;&gt;Node2496</title>
<path fill="none" stroke="midnightblue" d="M901.285,-186.492C911.533,-184.022 922.232,-181.444 932.699,-178.922"/>
<polygon fill="midnightblue" stroke="midnightblue" points="933.741,-182.271 942.643,-176.526 932.101,-175.466 933.741,-182.271"/>
</g>
<!-- Node2499&#45;&gt;Node2498 -->
<g id="edge12" class="edge"><title>Node2499&#45;&gt;Node2498</title>
<path fill="none" stroke="midnightblue" d="M904.131,-99.5764C912.553,-99.0691 921.232,-98.5462 929.8,-98.0301"/>
<polygon fill="midnightblue" stroke="midnightblue" points="930.013,-101.524 939.784,-97.4287 929.592,-94.5364 930.013,-101.524"/>
</g>
<!-- Node2501 -->
<g id="node13" class="node"><title>Node2501</title>
<g id="a_node13"><a xlink:href="../../d4/d43/class_rig_def_1_1_sequential_importer.html#aaabc36a84be7e26a7d0790f04fa882c1" target="_top" xlink:title="RigDef::SequentialImporter\l::ProcessModule">
<polygon fill="white" stroke="black" points="940,-0.5 940,-30.5 1072,-30.5 1072,-0.5 940,-0.5"/>
<text text-anchor="start" x="948" y="-18.5" font-family="Helvetica,sans-Serif" font-size="10.00">RigDef::SequentialImporter</text>
<text text-anchor="middle" x="1006" y="-7.5" font-family="Helvetica,sans-Serif" font-size="10.00">::ProcessModule</text>
</a>
</g>
</g>
<!-- Node2500&#45;&gt;Node2501 -->
<g id="edge14" class="edge"><title>Node2500&#45;&gt;Node2501</title>
<path fill="none" stroke="midnightblue" d="M904.131,-15.5C912.461,-15.5 921.044,-15.5 929.521,-15.5"/>
<polygon fill="midnightblue" stroke="midnightblue" points="929.784,-19.0001 939.784,-15.5 929.784,-12.0001 929.784,-19.0001"/>
</g>
<!-- Node2504 -->
<g id="node16" class="node"><title>Node2504</title>
<g id="a_node16"><a xlink:href="../../d1/da8/class_rig_def_1_1_parser.html#a81784a06397ed377c39759981d6c700b" target="_top" xlink:title="RigDef::Parser::GetArgLong">
<polygon fill="white" stroke="black" points="412,-218 412,-237 549,-237 549,-218 412,-218"/>
<text text-anchor="middle" x="480.5" y="-225" font-family="Helvetica,sans-Serif" font-size="10.00">RigDef::Parser::GetArgLong</text>
</a>
</g>
</g>
<!-- Node2503&#45;&gt;Node2504 -->
<g id="edge19" class="edge"><title>Node2503&#45;&gt;Node2504</title>
<path fill="none" stroke="midnightblue" d="M355.028,-228.831C370.009,-228.671 386.186,-228.498 401.762,-228.331"/>
<polygon fill="midnightblue" stroke="midnightblue" points="401.93,-231.83 411.892,-228.223 401.855,-224.83 401.93,-231.83"/>
</g>
<!-- Node2504&#45;&gt;Node2491 -->
<g id="edge20" class="edge"><title>Node2504&#45;&gt;Node2491</title>
<path fill="none" stroke="midnightblue" d="M549.011,-219.71C559.932,-218.45 571.338,-217.134 582.538,-215.842"/>
<polygon fill="midnightblue" stroke="midnightblue" points="583.213,-219.287 592.746,-214.664 582.41,-212.333 583.213,-219.287"/>
</g>
</g>
</svg>
        <g id="navigator" transform="translate(0 0)" fill="#404254">
                <rect fill="#f2f5e9" fill-opacity="0.5" stroke="#606060" stroke-width=".5" x="0" y="0" width="60" height="60"/>
                <use id="zoomplus" xlink:href="#zoomPlus" x="17" y="9" onmousedown="handleZoom(evt,'in')"/>
                <use id="zoomminus" xlink:href="#zoomMin" x="42" y="9" onmousedown="handleZoom(evt,'out')"/>
                <use id="reset" xlink:href="#resetDef" x="30" y="36" onmousedown="handleReset()"/>
                <g id="arrowUp" xlink:href="#dirArrow" transform="translate(30 24)" onmousedown="handlePan(0,-1)">
                  <use xlink:href="#rim" fill="#404040">
                        <set attributeName="fill" to="#808080" begin="arrowUp.mouseover" end="arrowUp.mouseout"/>
                  </use>
                  <path fill="none" stroke="white" stroke-width="1.5" d="M0,-3.0v7 M-2.5,-0.5L0,-3.0L2.5,-0.5"/>
                </g>
                <g id="arrowRight" xlink:href="#dirArrow" transform="rotate(90) translate(36 -43)" onmousedown="handlePan(1,0)">
                  <use xlink:href="#rim" fill="#404040">
                        <set attributeName="fill" to="#808080" begin="arrowRight.mouseover" end="arrowRight.mouseout"/>
                  </use>
                  <path fill="none" stroke="white" stroke-width="1.5" d="M0,-3.0v7 M-2.5,-0.5L0,-3.0L2.5,-0.5"/>
                </g>
                <g id="arrowDown" xlink:href="#dirArrow" transform="rotate(180) translate(-30 -48)" onmousedown="handlePan(0,1)">
                  <use xlink:href="#rim" fill="#404040">
                        <set attributeName="fill" to="#808080" begin="arrowDown.mouseover" end="arrowDown.mouseout"/>
                  </use>
                  <path fill="none" stroke="white" stroke-width="1.5" d="M0,-3.0v7 M-2.5,-0.5L0,-3.0L2.5,-0.5"/>
                </g>
                <g id="arrowLeft" xlink:href="#dirArrow" transform="rotate(270) translate(-36 17)" onmousedown="handlePan(-1,0)">
                  <use xlink:href="#rim" fill="#404040">
                        <set attributeName="fill" to="#808080" begin="arrowLeft.mouseover" end="arrowLeft.mouseout"/>
                  </use>
                  <path fill="none" stroke="white" stroke-width="1.5" d="M0,-3.0v7 M-2.5,-0.5L0,-3.0L2.5,-0.5"/>
                </g>
        </g>
        <svg viewBox="0 0 15 15" width="100%" height="30px" preserveAspectRatio="xMaxYMin meet">
         <g id="arrow_out" transform="scale(0.3 0.3)">
          <a xlink:href="class_rig_def_1_1_parser_accfdf20182f5d68b630269def99234b0_cgraph_org.svg" target="_base">
           <rect id="button" ry="5" rx="5" y="6" x="6" height="38" width="38"
                fill="#f2f5e9" fill-opacity="0.5" stroke="#606060" stroke-width="1.0"/>
           <path id="arrow"
             d="M 11.500037,31.436501 C 11.940474,20.09759 22.043105,11.32322 32.158766,21.979434 L 37.068811,17.246167 C 37.068811,17.246167 37.088388,32 37.088388,32 L 22.160133,31.978069 C 22.160133,31.978069 26.997745,27.140456 26.997745,27.140456 C 18.528582,18.264221 13.291696,25.230495 11.500037,31.436501 z"
             style="fill:#404040;"/>
          </a>
         </g>
        </svg>
</svg>
