<?xml version="1.0" encoding="UTF-8" standalone="no"?>
<!DOCTYPE svg PUBLIC "-//W3C//DTD SVG 1.1//EN"
 "http://www.w3.org/Graphics/SVG/1.1/DTD/svg11.dtd">
<!-- Generated by graphviz version 2.38.0 (20140413.2041)
 -->
<!-- Title: RigDef::Parser::ParseExhaust Pages: 1 -->
<!--zoomable 225 -->
<svg id="main" version="1.1" xmlns="http://www.w3.org/2000/svg" xmlns:xlink="http://www.w3.org/1999/xlink" xml:space="preserve" onload="init(evt)">
<style type="text/css"><![CDATA[
.edge:hover path { stroke: red; }
.edge:hover polygon { stroke: red; fill: red; }
]]></style>
<script type="text/javascript"><![CDATA[
var edges = document.getElementsByTagName('g');
if (edges && edges.length) {
  for (var i=0;i<edges.length;i++) {
    if (edges[i].id.substr(0,4)=='edge') {
      edges[i].setAttribute('class','edge');
    }
  }
}
]]></script>
        <defs>
                <circle id="rim" cx="0" cy="0" r="7"/>
                <circle id="rim2" cx="0" cy="0" r="3.5"/>
                <g id="zoomPlus">
                        <use xlink:href="#rim" fill="#404040">
                                <set attributeName="fill" to="#808080" begin="zoomplus.mouseover" end="zoomplus.mouseout"/>
                        </use>
                        <path d="M-4,0h8M0,-4v8" fill="none" stroke="white" stroke-width="1.5" pointer-events="none"/>
                </g>
                <g id="zoomMin">
                        <use xlink:href="#rim" fill="#404040">
                                <set attributeName="fill" to="#808080" begin="zoomminus.mouseover" end="zoomminus.mouseout"/>
                        </use>
                        <path d="M-4,0h8" fill="none" stroke="white" stroke-width="1.5" pointer-events="none"/>
                </g>
                <g id="dirArrow">
                        <path fill="none" stroke="white" stroke-width="1.5" d="M0,-3.0v7 M-2.5,-0.5L0,-3.0L2.5,-0.5"/>
                </g>
               <g id="resetDef">
                       <use xlink:href="#rim2" fill="#404040">
                               <set attributeName="fill" to="#808080" begin="reset.mouseover" end="reset.mouseout"/>
                       </use>
               </g>
        </defs>

<script type="text/javascript">
var viewWidth = 1048;
var viewHeight = 225;
var sectionId = 'dynsection-129';
</script>
<script xlink:href="../../svgpan.js"/>
<svg id="graph" class="graph">
<g id="viewport">
<title>RigDef::Parser::ParseExhaust</title>
<polygon fill="white" stroke="none" points="-4,4 -4,-221 1044,-221 1044,4 -4,4"/>
<!-- Node1646 -->
<g id="node1" class="node"><title>Node1646</title>
<polygon fill="#bfbfbf" stroke="black" points="0,-99 0,-118 147,-118 147,-99 0,-99"/>
<text text-anchor="middle" x="73.5" y="-106" font-family="Helvetica,sans-Serif" font-size="10.00">RigDef::Parser::ParseExhaust</text>
</g>
<!-- Node1647 -->
<g id="node2" class="node"><title>Node1647</title>
<g id="a_node2"><a xlink:href="../../d1/da8/class_rig_def_1_1_parser.html#a8397c243299359e21a84243c01ca43bf" target="_top" xlink:title="RigDef::Parser::CheckNum\lArguments">
<polygon fill="white" stroke="black" points="192.5,-137.5 192.5,-167.5 326.5,-167.5 326.5,-137.5 192.5,-137.5"/>
<text text-anchor="start" x="200.5" y="-155.5" font-family="Helvetica,sans-Serif" font-size="10.00">RigDef::Parser::CheckNum</text>
<text text-anchor="middle" x="259.5" y="-144.5" font-family="Helvetica,sans-Serif" font-size="10.00">Arguments</text>
</a>
</g>
</g>
<!-- Node1646&#45;&gt;Node1647 -->
<g id="edge1" class="edge"><title>Node1646&#45;&gt;Node1647</title>
<path fill="none" stroke="midnightblue" d="M114.425,-118.047C135.234,-123.023 161.342,-129.267 185.598,-135.067"/>
<polygon fill="midnightblue" stroke="midnightblue" points="184.96,-138.513 195.499,-137.435 186.588,-131.705 184.96,-138.513"/>
</g>
<!-- Node1649 -->
<g id="node4" class="node"><title>Node1649</title>
<g id="a_node4"><a xlink:href="../../d1/da8/class_rig_def_1_1_parser.html#a57b7efa0a566ae343d6148a05d420eae" target="_top" xlink:title="RigDef::Parser::GetArgNodeRef">
<polygon fill="white" stroke="black" points="183,-99 183,-118 336,-118 336,-99 183,-99"/>
<text text-anchor="middle" x="259.5" y="-106" font-family="Helvetica,sans-Serif" font-size="10.00">RigDef::Parser::GetArgNodeRef</text>
</a>
</g>
</g>
<!-- Node1646&#45;&gt;Node1649 -->
<g id="edge3" class="edge"><title>Node1646&#45;&gt;Node1649</title>
<path fill="none" stroke="midnightblue" d="M147.222,-108.5C155.669,-108.5 164.343,-108.5 172.942,-108.5"/>
<polygon fill="midnightblue" stroke="midnightblue" points="172.984,-112 182.984,-108.5 172.984,-105 172.984,-112"/>
</g>
<!-- Node1659 -->
<g id="node14" class="node"><title>Node1659</title>
<g id="a_node14"><a xlink:href="../../d1/da8/class_rig_def_1_1_parser.html#a629f3ff2e6181f7953ec28168b0aac00" target="_top" xlink:title="RigDef::Parser::GetArgStr">
<polygon fill="white" stroke="black" points="384,-61 384,-80 513,-80 513,-61 384,-61"/>
<text text-anchor="middle" x="448.5" y="-68" font-family="Helvetica,sans-Serif" font-size="10.00">RigDef::Parser::GetArgStr</text>
</a>
</g>
</g>
<!-- Node1646&#45;&gt;Node1659 -->
<g id="edge17" class="edge"><title>Node1646&#45;&gt;Node1659</title>
<path fill="none" stroke="midnightblue" d="M122.683,-98.9795C141.445,-95.557 163.166,-91.9426 183,-89.5 247.283,-81.5835 320.792,-76.63 373.973,-73.7736"/>
<polygon fill="midnightblue" stroke="midnightblue" points="374.192,-77.267 383.994,-73.2472 373.824,-70.2767 374.192,-77.267"/>
</g>
<!-- Node1648 -->
<g id="node3" class="node"><title>Node1648</title>
<g id="a_node3"><a xlink:href="../../d1/da8/class_rig_def_1_1_parser.html#a7da949423835fe3241f2ac4c5ac8ebb1" target="_top" xlink:title="Adds a message to parser report. ">
<polygon fill="white" stroke="black" points="561,-143 561,-162 704,-162 704,-143 561,-143"/>
<text text-anchor="middle" x="632.5" y="-150" font-family="Helvetica,sans-Serif" font-size="10.00">RigDef::Parser::AddMessage</text>
</a>
</g>
</g>
<!-- Node1647&#45;&gt;Node1648 -->
<g id="edge2" class="edge"><title>Node1647&#45;&gt;Node1648</title>
<path fill="none" stroke="midnightblue" d="M326.827,-152.5C389.473,-152.5 483.566,-152.5 550.593,-152.5"/>
<polygon fill="midnightblue" stroke="midnightblue" points="550.694,-156 560.694,-152.5 550.694,-149 550.694,-156"/>
</g>
<!-- Node1650 -->
<g id="node5" class="node"><title>Node1650</title>
<g id="a_node5"><a xlink:href="../../d1/da8/class_rig_def_1_1_parser.html#a38e4135df406da0cc2f0fc4afb34ddb3" target="_top" xlink:title="RigDef::Parser::_ParseNodeRef">
<polygon fill="white" stroke="black" points="372,-99 372,-118 525,-118 525,-99 372,-99"/>
<text text-anchor="middle" x="448.5" y="-106" font-family="Helvetica,sans-Serif" font-size="10.00">RigDef::Parser::_ParseNodeRef</text>
</a>
</g>
</g>
<!-- Node1649&#45;&gt;Node1650 -->
<g id="edge4" class="edge"><title>Node1649&#45;&gt;Node1650</title>
<path fill="none" stroke="midnightblue" d="M336.021,-108.5C344.472,-108.5 353.127,-108.5 361.696,-108.5"/>
<polygon fill="midnightblue" stroke="midnightblue" points="361.697,-112 371.697,-108.5 361.697,-105 361.697,-112"/>
</g>
<!-- Node1649&#45;&gt;Node1659 -->
<g id="edge16" class="edge"><title>Node1649&#45;&gt;Node1659</title>
<path fill="none" stroke="midnightblue" d="M307.688,-98.911C332.92,-93.7835 364.173,-87.4328 390.727,-82.0368"/>
<polygon fill="midnightblue" stroke="midnightblue" points="391.549,-85.4414 400.651,-80.0201 390.155,-78.5816 391.549,-85.4414"/>
</g>
<!-- Node1650&#45;&gt;Node1648 -->
<g id="edge15" class="edge"><title>Node1650&#45;&gt;Node1648</title>
<path fill="none" stroke="midnightblue" d="M488.991,-118.047C516.299,-124.649 552.834,-133.482 582.074,-140.551"/>
<polygon fill="midnightblue" stroke="midnightblue" points="581.543,-144.023 592.086,-142.971 583.188,-137.219 581.543,-144.023"/>
</g>
<!-- Node1651 -->
<g id="node6" class="node"><title>Node1651</title>
<g id="a_node6"><a xlink:href="../../d4/d43/class_rig_def_1_1_sequential_importer.html#ada562d6df02ffd616a611f8bac249f05" target="_top" xlink:title="RigDef::SequentialImporter\l::IsEnabled">
<polygon fill="white" stroke="black" points="566.5,-93.5 566.5,-123.5 698.5,-123.5 698.5,-93.5 566.5,-93.5"/>
<text text-anchor="start" x="574.5" y="-111.5" font-family="Helvetica,sans-Serif" font-size="10.00">RigDef::SequentialImporter</text>
<text text-anchor="middle" x="632.5" y="-100.5" font-family="Helvetica,sans-Serif" font-size="10.00">::IsEnabled</text>
</a>
</g>
</g>
<!-- Node1650&#45;&gt;Node1651 -->
<g id="edge5" class="edge"><title>Node1650&#45;&gt;Node1651</title>
<path fill="none" stroke="midnightblue" d="M525.103,-108.5C535.358,-108.5 545.881,-108.5 556.132,-108.5"/>
<polygon fill="midnightblue" stroke="midnightblue" points="556.272,-112 566.272,-108.5 556.272,-105 556.272,-112"/>
</g>
<!-- Node1652 -->
<g id="node7" class="node"><title>Node1652</title>
<g id="a_node7"><a xlink:href="../../d4/d43/class_rig_def_1_1_sequential_importer.html#ad9fb7d3deecbb9f94ac85ff061459795" target="_top" xlink:title="RigDef::SequentialImporter\l::AddNumberedNode">
<polygon fill="white" stroke="black" points="740,-186.5 740,-216.5 872,-216.5 872,-186.5 740,-186.5"/>
<text text-anchor="start" x="748" y="-204.5" font-family="Helvetica,sans-Serif" font-size="10.00">RigDef::SequentialImporter</text>
<text text-anchor="middle" x="806" y="-193.5" font-family="Helvetica,sans-Serif" font-size="10.00">::AddNumberedNode</text>
</a>
</g>
</g>
<!-- Node1651&#45;&gt;Node1652 -->
<g id="edge6" class="edge"><title>Node1651&#45;&gt;Node1652</title>
<path fill="none" stroke="midnightblue" d="M686.258,-123.648C692.491,-126.455 698.561,-129.721 704,-133.5 724.468,-147.723 719.721,-162.008 740,-176.5 742.656,-178.398 745.475,-180.174 748.392,-181.832"/>
<polygon fill="midnightblue" stroke="midnightblue" points="746.885,-184.993 757.378,-186.458 750.09,-178.769 746.885,-184.993"/>
</g>
<!-- Node1654 -->
<g id="node9" class="node"><title>Node1654</title>
<g id="a_node9"><a xlink:href="../../d4/d43/class_rig_def_1_1_sequential_importer.html#a0d1350e2b0c44cff66a9c73c17baf9dd" target="_top" xlink:title="RigDef::SequentialImporter\l::AddNamedNode">
<polygon fill="white" stroke="black" points="740,-137.5 740,-167.5 872,-167.5 872,-137.5 740,-137.5"/>
<text text-anchor="start" x="748" y="-155.5" font-family="Helvetica,sans-Serif" font-size="10.00">RigDef::SequentialImporter</text>
<text text-anchor="middle" x="806" y="-144.5" font-family="Helvetica,sans-Serif" font-size="10.00">::AddNamedNode</text>
</a>
</g>
</g>
<!-- Node1651&#45;&gt;Node1654 -->
<g id="edge8" class="edge"><title>Node1651&#45;&gt;Node1654</title>
<path fill="none" stroke="midnightblue" d="M692.041,-123.519C706.311,-127.18 721.703,-131.129 736.395,-134.899"/>
<polygon fill="midnightblue" stroke="midnightblue" points="735.876,-138.379 746.432,-137.474 737.615,-131.598 735.876,-138.379"/>
</g>
<!-- Node1655 -->
<g id="node10" class="node"><title>Node1655</title>
<g id="a_node10"><a xlink:href="../../d4/d43/class_rig_def_1_1_sequential_importer.html#a5f5e30fbc3b2f58adb15a8f64bbecd15" target="_top" xlink:title="RigDef::SequentialImporter\l::AddGeneratedNode">
<polygon fill="white" stroke="black" points="908,-71.5 908,-101.5 1040,-101.5 1040,-71.5 908,-71.5"/>
<text text-anchor="start" x="916" y="-89.5" font-family="Helvetica,sans-Serif" font-size="10.00">RigDef::SequentialImporter</text>
<text text-anchor="middle" x="974" y="-78.5" font-family="Helvetica,sans-Serif" font-size="10.00">::AddGeneratedNode</text>
</a>
</g>
</g>
<!-- Node1651&#45;&gt;Node1655 -->
<g id="edge10" class="edge"><title>Node1651&#45;&gt;Node1655</title>
<path fill="none" stroke="midnightblue" d="M698.557,-104.284C755.435,-100.598 838.04,-95.2455 897.75,-91.3763"/>
<polygon fill="midnightblue" stroke="midnightblue" points="898.121,-94.8597 907.874,-90.7202 897.669,-87.8743 898.121,-94.8597"/>
</g>
<!-- Node1656 -->
<g id="node11" class="node"><title>Node1656</title>
<g id="a_node11"><a xlink:href="../../d4/d43/class_rig_def_1_1_sequential_importer.html#a639c4f71bc37fc08f02a5b603ee14033" target="_top" xlink:title="RigDef::SequentialImporter\l::GenerateNodesForWheel">
<polygon fill="white" stroke="black" points="740,-49.5 740,-79.5 872,-79.5 872,-49.5 740,-49.5"/>
<text text-anchor="start" x="748" y="-67.5" font-family="Helvetica,sans-Serif" font-size="10.00">RigDef::SequentialImporter</text>
<text text-anchor="middle" x="806" y="-56.5" font-family="Helvetica,sans-Serif" font-size="10.00">::GenerateNodesForWheel</text>
</a>
</g>
</g>
<!-- Node1651&#45;&gt;Node1656 -->
<g id="edge11" class="edge"><title>Node1651&#45;&gt;Node1656</title>
<path fill="none" stroke="midnightblue" d="M692.041,-93.4808C706.311,-89.8196 721.703,-85.8706 736.395,-82.1013"/>
<polygon fill="midnightblue" stroke="midnightblue" points="737.615,-85.4016 746.432,-79.5262 735.876,-78.6212 737.615,-85.4016"/>
</g>
<!-- Node1657 -->
<g id="node12" class="node"><title>Node1657</title>
<g id="a_node12"><a xlink:href="../../d4/d43/class_rig_def_1_1_sequential_importer.html#a69601c62b1bf9030cd2e2b03a926bc04" target="_top" xlink:title="Traverse whole rig definition and resolve all node references. ">
<polygon fill="white" stroke="black" points="740,-0.5 740,-30.5 872,-30.5 872,-0.5 740,-0.5"/>
<text text-anchor="start" x="748" y="-18.5" font-family="Helvetica,sans-Serif" font-size="10.00">RigDef::SequentialImporter</text>
<text text-anchor="middle" x="806" y="-7.5" font-family="Helvetica,sans-Serif" font-size="10.00">::Process</text>
</a>
</g>
</g>
<!-- Node1651&#45;&gt;Node1657 -->
<g id="edge13" class="edge"><title>Node1651&#45;&gt;Node1657</title>
<path fill="none" stroke="midnightblue" d="M653.901,-93.3271C674.76,-78.2915 708.482,-55.2845 740,-39.5 743.47,-37.762 747.099,-36.0808 750.79,-34.4697"/>
<polygon fill="midnightblue" stroke="midnightblue" points="752.154,-37.6929 760.04,-30.6172 749.463,-31.2309 752.154,-37.6929"/>
</g>
<!-- Node1653 -->
<g id="node8" class="node"><title>Node1653</title>
<g id="a_node8"><a xlink:href="../../d4/d43/class_rig_def_1_1_sequential_importer.html#abbbd9a34cae153cb481b6c61a7927a97" target="_top" xlink:title="RigDef::SequentialImporter\l::AddMessage">
<polygon fill="white" stroke="black" points="908,-161.5 908,-191.5 1040,-191.5 1040,-161.5 908,-161.5"/>
<text text-anchor="start" x="916" y="-179.5" font-family="Helvetica,sans-Serif" font-size="10.00">RigDef::SequentialImporter</text>
<text text-anchor="middle" x="974" y="-168.5" font-family="Helvetica,sans-Serif" font-size="10.00">::AddMessage</text>
</a>
</g>
</g>
<!-- Node1652&#45;&gt;Node1653 -->
<g id="edge7" class="edge"><title>Node1652&#45;&gt;Node1653</title>
<path fill="none" stroke="midnightblue" d="M872.131,-191.691C880.553,-190.423 889.232,-189.116 897.8,-187.825"/>
<polygon fill="midnightblue" stroke="midnightblue" points="898.417,-191.272 907.784,-186.322 897.374,-184.35 898.417,-191.272"/>
</g>
<!-- Node1654&#45;&gt;Node1653 -->
<g id="edge9" class="edge"><title>Node1654&#45;&gt;Node1653</title>
<path fill="none" stroke="midnightblue" d="M872.131,-161.917C880.553,-163.134 889.232,-164.389 897.8,-165.628"/>
<polygon fill="midnightblue" stroke="midnightblue" points="897.386,-169.104 907.784,-167.071 898.388,-162.176 897.386,-169.104"/>
</g>
<!-- Node1656&#45;&gt;Node1655 -->
<g id="edge12" class="edge"><title>Node1656&#45;&gt;Node1655</title>
<path fill="none" stroke="midnightblue" d="M872.131,-73.1318C880.553,-74.248 889.232,-75.3983 897.8,-76.5337"/>
<polygon fill="midnightblue" stroke="midnightblue" points="897.411,-80.0127 907.784,-77.8569 898.331,-73.0734 897.411,-80.0127"/>
</g>
<!-- Node1658 -->
<g id="node13" class="node"><title>Node1658</title>
<g id="a_node13"><a xlink:href="../../d4/d43/class_rig_def_1_1_sequential_importer.html#aaabc36a84be7e26a7d0790f04fa882c1" target="_top" xlink:title="RigDef::SequentialImporter\l::ProcessModule">
<polygon fill="white" stroke="black" points="908,-0.5 908,-30.5 1040,-30.5 1040,-0.5 908,-0.5"/>
<text text-anchor="start" x="916" y="-18.5" font-family="Helvetica,sans-Serif" font-size="10.00">RigDef::SequentialImporter</text>
<text text-anchor="middle" x="974" y="-7.5" font-family="Helvetica,sans-Serif" font-size="10.00">::ProcessModule</text>
</a>
</g>
</g>
<!-- Node1657&#45;&gt;Node1658 -->
<g id="edge14" class="edge"><title>Node1657&#45;&gt;Node1658</title>
<path fill="none" stroke="midnightblue" d="M872.131,-15.5C880.461,-15.5 889.044,-15.5 897.521,-15.5"/>
<polygon fill="midnightblue" stroke="midnightblue" points="897.784,-19.0001 907.784,-15.5 897.784,-12.0001 897.784,-19.0001"/>
</g>
</g>
</svg>
        <g id="navigator" transform="translate(0 0)" fill="#404254">
                <rect fill="#f2f5e9" fill-opacity="0.5" stroke="#606060" stroke-width=".5" x="0" y="0" width="60" height="60"/>
                <use id="zoomplus" xlink:href="#zoomPlus" x="17" y="9" onmousedown="handleZoom(evt,'in')"/>
                <use id="zoomminus" xlink:href="#zoomMin" x="42" y="9" onmousedown="handleZoom(evt,'out')"/>
                <use id="reset" xlink:href="#resetDef" x="30" y="36" onmousedown="handleReset()"/>
                <g id="arrowUp" xlink:href="#dirArrow" transform="translate(30 24)" onmousedown="handlePan(0,-1)">
                  <use xlink:href="#rim" fill="#404040">
                        <set attributeName="fill" to="#808080" begin="arrowUp.mouseover" end="arrowUp.mouseout"/>
                  </use>
                  <path fill="none" stroke="white" stroke-width="1.5" d="M0,-3.0v7 M-2.5,-0.5L0,-3.0L2.5,-0.5"/>
                </g>
                <g id="arrowRight" xlink:href="#dirArrow" transform="rotate(90) translate(36 -43)" onmousedown="handlePan(1,0)">
                  <use xlink:href="#rim" fill="#404040">
                        <set attributeName="fill" to="#808080" begin="arrowRight.mouseover" end="arrowRight.mouseout"/>
                  </use>
                  <path fill="none" stroke="white" stroke-width="1.5" d="M0,-3.0v7 M-2.5,-0.5L0,-3.0L2.5,-0.5"/>
                </g>
                <g id="arrowDown" xlink:href="#dirArrow" transform="rotate(180) translate(-30 -48)" onmousedown="handlePan(0,1)">
                  <use xlink:href="#rim" fill="#404040">
                        <set attributeName="fill" to="#808080" begin="arrowDown.mouseover" end="arrowDown.mouseout"/>
                  </use>
                  <path fill="none" stroke="white" stroke-width="1.5" d="M0,-3.0v7 M-2.5,-0.5L0,-3.0L2.5,-0.5"/>
                </g>
                <g id="arrowLeft" xlink:href="#dirArrow" transform="rotate(270) translate(-36 17)" onmousedown="handlePan(-1,0)">
                  <use xlink:href="#rim" fill="#404040">
                        <set attributeName="fill" to="#808080" begin="arrowLeft.mouseover" end="arrowLeft.mouseout"/>
                  </use>
                  <path fill="none" stroke="white" stroke-width="1.5" d="M0,-3.0v7 M-2.5,-0.5L0,-3.0L2.5,-0.5"/>
                </g>
        </g>
        <svg viewBox="0 0 15 15" width="100%" height="30px" preserveAspectRatio="xMaxYMin meet">
         <g id="arrow_out" transform="scale(0.3 0.3)">
          <a xlink:href="class_rig_def_1_1_parser_afd9dfd85c8087cac94369b7360bb4821_cgraph_org.svg" target="_base">
           <rect id="button" ry="5" rx="5" y="6" x="6" height="38" width="38"
                fill="#f2f5e9" fill-opacity="0.5" stroke="#606060" stroke-width="1.0"/>
           <path id="arrow"
             d="M 11.500037,31.436501 C 11.940474,20.09759 22.043105,11.32322 32.158766,21.979434 L 37.068811,17.246167 C 37.068811,17.246167 37.088388,32 37.088388,32 L 22.160133,31.978069 C 22.160133,31.978069 26.997745,27.140456 26.997745,27.140456 C 18.528582,18.264221 13.291696,25.230495 11.500037,31.436501 z"
             style="fill:#404040;"/>
          </a>
         </g>
        </svg>
</svg>
