<?xml version="1.0" encoding="UTF-8" standalone="no"?>
<!DOCTYPE svg PUBLIC "-//W3C//DTD SVG 1.1//EN"
 "http://www.w3.org/Graphics/SVG/1.1/DTD/svg11.dtd">
<!-- Generated by graphviz version 2.38.0 (20140413.2041)
 -->
<!-- Title: RigDef::Parser::ParseScrewprops Pages: 1 -->
<svg width="1137pt" height="113pt"
 viewBox="0.00 0.00 1137.00 112.50" xmlns="http://www.w3.org/2000/svg" xmlns:xlink="http://www.w3.org/1999/xlink">
<g id="graph0" class="graph" transform="scale(1 1) rotate(0) translate(4 108.5)">
<title>RigDef::Parser::ParseScrewprops</title>
<polygon fill="white" stroke="none" points="-4,4 -4,-108.5 1133,-108.5 1133,4 -4,4"/>
<!-- Node2342 -->
<g id="node1" class="node"><title>Node2342</title>
<polygon fill="#bfbfbf" stroke="black" points="0,-54.5 0,-73.5 162,-73.5 162,-54.5 0,-54.5"/>
<text text-anchor="middle" x="81" y="-61.5" font-family="Helvetica,sans-Serif" font-size="10.00">RigDef::Parser::ParseScrewprops</text>
</g>
<!-- Node2343 -->
<g id="node2" class="node"><title>Node2343</title>
<g id="a_node2"><a xlink:href="../../d1/da8/class_rig_def_1_1_parser.html#a99a49d75798b1fa5dfbd00873455fbeb" target="_top" xlink:title="RigDef::Parser::ProcessCurrentLine">
<polygon fill="white" stroke="black" points="198,-73.5 198,-92.5 369,-92.5 369,-73.5 198,-73.5"/>
<text text-anchor="middle" x="283.5" y="-80.5" font-family="Helvetica,sans-Serif" font-size="10.00">RigDef::Parser::ProcessCurrentLine</text>
</a>
</g>
</g>
<!-- Node2342&#45;&gt;Node2343 -->
<g id="edge1" class="edge"><title>Node2342&#45;&gt;Node2343</title>
<path fill="none" stroke="midnightblue" d="M172.123,-72.5404C180.708,-73.3539 189.392,-74.1768 197.922,-74.9851"/>
<polygon fill="midnightblue" stroke="midnightblue" points="172.393,-69.0503 162.107,-71.5912 171.732,-76.0191 172.393,-69.0503"/>
</g>
<!-- Node2351 -->
<g id="node10" class="node"><title>Node2351</title>
<g id="a_node10"><a xlink:href="../../d1/da8/class_rig_def_1_1_parser.html#a5ab95d1e21230f5477cc7c6cfca95c0e" target="_top" xlink:title="RigDef::Parser::GetMessages\lNumOther">
<polygon fill="white" stroke="black" points="411,-30 411,-60 557,-60 557,-30 411,-30"/>
<text text-anchor="start" x="419" y="-48" font-family="Helvetica,sans-Serif" font-size="10.00">RigDef::Parser::GetMessages</text>
<text text-anchor="middle" x="484" y="-37" font-family="Helvetica,sans-Serif" font-size="10.00">NumOther</text>
</a>
</g>
</g>
<!-- Node2342&#45;&gt;Node2351 -->
<g id="edge11" class="edge"><title>Node2342&#45;&gt;Node2351</title>
<path fill="none" stroke="midnightblue" d="M172.602,-59.7071C244.604,-56.2956 343.969,-51.5875 410.7,-48.4257"/>
<polygon fill="midnightblue" stroke="midnightblue" points="172.008,-56.2313 162.185,-60.2007 172.339,-63.2234 172.008,-56.2313"/>
</g>
<!-- Node2344 -->
<g id="node3" class="node"><title>Node2344</title>
<g id="a_node3"><a xlink:href="../../d1/da8/class_rig_def_1_1_parser.html#ad1920ba0a8dc23ac5043b2c270ef5f47" target="_top" xlink:title="RigDef::Parser::ProcessRawLine">
<polygon fill="white" stroke="black" points="405,-79.5 405,-98.5 563,-98.5 563,-79.5 405,-79.5"/>
<text text-anchor="middle" x="484" y="-86.5" font-family="Helvetica,sans-Serif" font-size="10.00">RigDef::Parser::ProcessRawLine</text>
</a>
</g>
</g>
<!-- Node2343&#45;&gt;Node2344 -->
<g id="edge2" class="edge"><title>Node2343&#45;&gt;Node2344</title>
<path fill="none" stroke="midnightblue" d="M379.267,-85.8645C387.823,-86.1231 396.424,-86.3831 404.815,-86.6367"/>
<polygon fill="midnightblue" stroke="midnightblue" points="379.359,-82.3658 369.258,-85.5619 379.147,-89.3626 379.359,-82.3658"/>
</g>
<!-- Node2343&#45;&gt;Node2351 -->
<g id="edge9" class="edge"><title>Node2343&#45;&gt;Node2351</title>
<path fill="none" stroke="midnightblue" d="M344.336,-71.5453C365.206,-67.55 388.852,-63.0232 410.631,-58.854"/>
<polygon fill="midnightblue" stroke="midnightblue" points="343.497,-68.1422 334.334,-73.46 344.813,-75.0173 343.497,-68.1422"/>
</g>
<!-- Node2345 -->
<g id="node4" class="node"><title>Node2345</title>
<g id="a_node4"><a xlink:href="../../d1/da8/class_rig_def_1_1_parser.html#ab08d0ba4ffb90b72cb351014bb7861bd" target="_top" xlink:title="RigDef::Parser::ProcessOgre\lStream">
<polygon fill="white" stroke="black" points="599,-74 599,-104 742,-104 742,-74 599,-74"/>
<text text-anchor="start" x="607" y="-92" font-family="Helvetica,sans-Serif" font-size="10.00">RigDef::Parser::ProcessOgre</text>
<text text-anchor="middle" x="670.5" y="-81" font-family="Helvetica,sans-Serif" font-size="10.00">Stream</text>
</a>
</g>
</g>
<!-- Node2344&#45;&gt;Node2345 -->
<g id="edge3" class="edge"><title>Node2344&#45;&gt;Node2345</title>
<path fill="none" stroke="midnightblue" d="M573.245,-89C581.797,-89 590.395,-89 598.745,-89"/>
<polygon fill="midnightblue" stroke="midnightblue" points="573.245,-85.5001 563.245,-89 573.245,-92.5001 573.245,-85.5001"/>
</g>
<!-- Node2346 -->
<g id="node5" class="node"><title>Node2346</title>
<g id="a_node5"><a xlink:href="../../df/df9/class_beam.html#ab0cbc6c4e3822fc5786af2c8036f7efb" target="_top" xlink:title="Beam::LoadTruck">
<polygon fill="white" stroke="black" points="810,-36.5 810,-55.5 903,-55.5 903,-36.5 810,-36.5"/>
<text text-anchor="middle" x="856.5" y="-43.5" font-family="Helvetica,sans-Serif" font-size="10.00">Beam::LoadTruck</text>
</a>
</g>
</g>
<!-- Node2345&#45;&gt;Node2346 -->
<g id="edge4" class="edge"><title>Node2345&#45;&gt;Node2346</title>
<path fill="none" stroke="midnightblue" d="M745.822,-71.6312C769.355,-66.1318 794.49,-60.2578 814.754,-55.5223"/>
<polygon fill="midnightblue" stroke="midnightblue" points="744.795,-68.2768 735.854,-73.9607 746.388,-75.0931 744.795,-68.2768"/>
</g>
<!-- Node2349 -->
<g id="node8" class="node"><title>Node2349</title>
<g id="a_node8"><a xlink:href="../../d7/d35/class_cache_system.html#ad640fd28c3075eb6310d8d8f3475cefb" target="_top" xlink:title="CacheSystem::fillTruckDetailInfo">
<polygon fill="white" stroke="black" points="778,-79.5 778,-98.5 935,-98.5 935,-79.5 778,-79.5"/>
<text text-anchor="middle" x="856.5" y="-86.5" font-family="Helvetica,sans-Serif" font-size="10.00">CacheSystem::fillTruckDetailInfo</text>
</a>
</g>
</g>
<!-- Node2345&#45;&gt;Node2349 -->
<g id="edge7" class="edge"><title>Node2345&#45;&gt;Node2349</title>
<path fill="none" stroke="midnightblue" d="M752.322,-89C760.759,-89 769.324,-89 777.726,-89"/>
<polygon fill="midnightblue" stroke="midnightblue" points="752.113,-85.5001 742.113,-89 752.113,-92.5001 752.113,-85.5001"/>
</g>
<!-- Node2347 -->
<g id="node6" class="node"><title>Node2347</title>
<g id="a_node6"><a xlink:href="../../df/df9/class_beam.html#a0d55b25fa0d1623305f3ac51694cbd42" target="_top" xlink:title="Beam::Beam">
<polygon fill="white" stroke="black" points="1013,-38.5 1013,-57.5 1087,-57.5 1087,-38.5 1013,-38.5"/>
<text text-anchor="middle" x="1050" y="-45.5" font-family="Helvetica,sans-Serif" font-size="10.00">Beam::Beam</text>
</a>
</g>
</g>
<!-- Node2346&#45;&gt;Node2347 -->
<g id="edge5" class="edge"><title>Node2346&#45;&gt;Node2347</title>
<path fill="none" stroke="midnightblue" d="M913.492,-46.5848C945.524,-46.9193 984.774,-47.3292 1012.77,-47.6216"/>
<polygon fill="midnightblue" stroke="midnightblue" points="913.405,-43.0838 903.369,-46.479 913.332,-50.0834 913.405,-43.0838"/>
</g>
<!-- Node2348 -->
<g id="node7" class="node"><title>Node2348</title>
<g id="a_node7"><a xlink:href="../../df/df9/class_beam.html#a3176be8102041493ae018fd5d66607dd" target="_top" xlink:title="Beam::getVelocity">
<polygon fill="white" stroke="black" points="1001.5,-0.5 1001.5,-19.5 1098.5,-19.5 1098.5,-0.5 1001.5,-0.5"/>
<text text-anchor="middle" x="1050" y="-7.5" font-family="Helvetica,sans-Serif" font-size="10.00">Beam::getVelocity</text>
</a>
</g>
</g>
<!-- Node2346&#45;&gt;Node2348 -->
<g id="edge6" class="edge"><title>Node2346&#45;&gt;Node2348</title>
<path fill="none" stroke="midnightblue" d="M913.356,-35.4996C941.198,-30.2657 974.52,-24.0015 1001.17,-18.9916"/>
<polygon fill="midnightblue" stroke="midnightblue" points="912.55,-32.0897 903.369,-37.3771 913.844,-38.9692 912.55,-32.0897"/>
</g>
<!-- Node2350 -->
<g id="node9" class="node"><title>Node2350</title>
<g id="a_node9"><a xlink:href="../../d7/d35/class_cache_system.html#a20bd63ee907dd205ccef715db6dc9b5c" target="_top" xlink:title="CacheSystem::getUIDfromString">
<polygon fill="white" stroke="black" points="971,-79.5 971,-98.5 1129,-98.5 1129,-79.5 971,-79.5"/>
<text text-anchor="middle" x="1050" y="-86.5" font-family="Helvetica,sans-Serif" font-size="10.00">CacheSystem::getUIDfromString</text>
</a>
</g>
</g>
<!-- Node2349&#45;&gt;Node2350 -->
<g id="edge8" class="edge"><title>Node2349&#45;&gt;Node2350</title>
<path fill="none" stroke="midnightblue" d="M945.161,-89C953.768,-89 962.462,-89 970.964,-89"/>
<polygon fill="midnightblue" stroke="midnightblue" points="945.114,-85.5001 935.114,-89 945.114,-92.5001 945.114,-85.5001"/>
</g>
<!-- Node2351&#45;&gt;Node2346 -->
<g id="edge10" class="edge"><title>Node2351&#45;&gt;Node2346</title>
<path fill="none" stroke="midnightblue" d="M567.637,-45.223C642.378,-45.4248 749.673,-45.7144 809.937,-45.877"/>
<polygon fill="midnightblue" stroke="midnightblue" points="567.325,-41.7223 557.316,-45.1952 567.306,-48.7223 567.325,-41.7223"/>
</g>
</g>
</svg>
