<?xml version="1.0" encoding="UTF-8" standalone="no"?>
<!DOCTYPE svg PUBLIC "-//W3C//DTD SVG 1.1//EN"
 "http://www.w3.org/Graphics/SVG/1.1/DTD/svg11.dtd">
<!-- Generated by graphviz version 2.38.0 (20140413.2041)
 -->
<!-- Title: RigDef::Parser::ParseMinimass Pages: 1 -->
<svg width="514pt" height="47pt"
 viewBox="0.00 0.00 514.00 47.00" xmlns="http://www.w3.org/2000/svg" xmlns:xlink="http://www.w3.org/1999/xlink">
<g id="graph0" class="graph" transform="scale(1 1) rotate(0) translate(4 43)">
<title>RigDef::Parser::ParseMinimass</title>
<polygon fill="white" stroke="none" points="-4,4 -4,-43 510,-43 510,4 -4,4"/>
<!-- Node2065 -->
<g id="node1" class="node"><title>Node2065</title>
<polygon fill="#bfbfbf" stroke="black" points="0,-19.5 0,-38.5 153,-38.5 153,-19.5 0,-19.5"/>
<text text-anchor="middle" x="76.5" y="-26.5" font-family="Helvetica,sans-Serif" font-size="10.00">RigDef::Parser::ParseMinimass</text>
</g>
<!-- Node2066 -->
<g id="node2" class="node"><title>Node2066</title>
<g id="a_node2"><a xlink:href="../../d1/da8/class_rig_def_1_1_parser.html#a7da949423835fe3241f2ac4c5ac8ebb1" target="_top" xlink:title="Adds a message to parser report. ">
<polygon fill="white" stroke="black" points="363,-19.5 363,-38.5 506,-38.5 506,-19.5 363,-19.5"/>
<text text-anchor="middle" x="434.5" y="-26.5" font-family="Helvetica,sans-Serif" font-size="10.00">RigDef::Parser::AddMessage</text>
</a>
</g>
</g>
<!-- Node2065&#45;&gt;Node2066 -->
<g id="edge1" class="edge"><title>Node2065&#45;&gt;Node2066</title>
<path fill="none" stroke="midnightblue" d="M153.434,-29C212.021,-29 292.89,-29 352.672,-29"/>
<polygon fill="midnightblue" stroke="midnightblue" points="352.827,-32.5001 362.827,-29 352.827,-25.5001 352.827,-32.5001"/>
</g>
<!-- Node2067 -->
<g id="node3" class="node"><title>Node2067</title>
<g id="a_node3"><a xlink:href="../../d1/da8/class_rig_def_1_1_parser.html#ae77a4970494c116e98a92be7a0160a16" target="_top" xlink:title="RigDef::Parser::GetArgFloat">
<polygon fill="white" stroke="black" points="189,-0.5 189,-19.5 327,-19.5 327,-0.5 189,-0.5"/>
<text text-anchor="middle" x="258" y="-7.5" font-family="Helvetica,sans-Serif" font-size="10.00">RigDef::Parser::GetArgFloat</text>
</a>
</g>
</g>
<!-- Node2065&#45;&gt;Node2067 -->
<g id="edge2" class="edge"><title>Node2065&#45;&gt;Node2067</title>
<path fill="none" stroke="midnightblue" d="M153.104,-20.9974C161.643,-20.0935 170.358,-19.171 178.928,-18.2639"/>
<polygon fill="midnightblue" stroke="midnightblue" points="179.327,-21.7413 188.903,-17.2081 178.59,-14.7802 179.327,-21.7413"/>
</g>
<!-- Node2067&#45;&gt;Node2066 -->
<g id="edge3" class="edge"><title>Node2067&#45;&gt;Node2066</title>
<path fill="none" stroke="midnightblue" d="M327.216,-17.4275C335.598,-18.3402 344.226,-19.2797 352.771,-20.21"/>
<polygon fill="midnightblue" stroke="midnightblue" points="352.423,-23.6928 362.743,-21.2958 353.181,-16.7339 352.423,-23.6928"/>
</g>
</g>
</svg>
