<?xml version="1.0" encoding="UTF-8" standalone="no"?>
<!DOCTYPE svg PUBLIC "-//W3C//DTD SVG 1.1//EN"
 "http://www.w3.org/Graphics/SVG/1.1/DTD/svg11.dtd">
<!-- Generated by graphviz version 2.38.0 (20140413.2041)
 -->
<!-- Title: RigDef::Parser::ParseFlexBodyWheel Pages: 1 -->
<!--zoomable 492 -->
<svg id="main" version="1.1" xmlns="http://www.w3.org/2000/svg" xmlns:xlink="http://www.w3.org/1999/xlink" xml:space="preserve" onload="init(evt)">
<style type="text/css"><![CDATA[
.edge:hover path { stroke: red; }
.edge:hover polygon { stroke: red; fill: red; }
]]></style>
<script type="text/javascript"><![CDATA[
var edges = document.getElementsByTagName('g');
if (edges && edges.length) {
  for (var i=0;i<edges.length;i++) {
    if (edges[i].id.substr(0,4)=='edge') {
      edges[i].setAttribute('class','edge');
    }
  }
}
]]></script>
        <defs>
                <circle id="rim" cx="0" cy="0" r="7"/>
                <circle id="rim2" cx="0" cy="0" r="3.5"/>
                <g id="zoomPlus">
                        <use xlink:href="#rim" fill="#404040">
                                <set attributeName="fill" to="#808080" begin="zoomplus.mouseover" end="zoomplus.mouseout"/>
                        </use>
                        <path d="M-4,0h8M0,-4v8" fill="none" stroke="white" stroke-width="1.5" pointer-events="none"/>
                </g>
                <g id="zoomMin">
                        <use xlink:href="#rim" fill="#404040">
                                <set attributeName="fill" to="#808080" begin="zoomminus.mouseover" end="zoomminus.mouseout"/>
                        </use>
                        <path d="M-4,0h8" fill="none" stroke="white" stroke-width="1.5" pointer-events="none"/>
                </g>
                <g id="dirArrow">
                        <path fill="none" stroke="white" stroke-width="1.5" d="M0,-3.0v7 M-2.5,-0.5L0,-3.0L2.5,-0.5"/>
                </g>
               <g id="resetDef">
                       <use xlink:href="#rim2" fill="#404040">
                               <set attributeName="fill" to="#808080" begin="reset.mouseover" end="reset.mouseout"/>
                       </use>
               </g>
        </defs>

<script type="text/javascript">
var viewWidth = 1238;
var viewHeight = 492;
var sectionId = 'dynsection-143';
</script>
<script xlink:href="../../svgpan.js"/>
<svg id="graph" class="graph">
<g id="viewport">
<title>RigDef::Parser::ParseFlexBodyWheel</title>
<polygon fill="white" stroke="none" points="-4,4 -4,-488.256 1234,-488.256 1234,4 -4,4"/>
<!-- Node1803 -->
<g id="node1" class="node"><title>Node1803</title>
<polygon fill="#bfbfbf" stroke="black" points="0,-215.5 0,-245.5 130,-245.5 130,-215.5 0,-215.5"/>
<text text-anchor="start" x="8" y="-233.5" font-family="Helvetica,sans-Serif" font-size="10.00">RigDef::Parser::ParseFlex</text>
<text text-anchor="middle" x="65" y="-222.5" font-family="Helvetica,sans-Serif" font-size="10.00">BodyWheel</text>
</g>
<!-- Node1804 -->
<g id="node2" class="node"><title>Node1804</title>
<g id="a_node2"><a xlink:href="../../d1/da8/class_rig_def_1_1_parser.html#a8397c243299359e21a84243c01ca43bf" target="_top" xlink:title="RigDef::Parser::CheckNum\lArguments">
<polygon fill="white" stroke="black" points="382.5,-316.5 382.5,-346.5 516.5,-346.5 516.5,-316.5 382.5,-316.5"/>
<text text-anchor="start" x="390.5" y="-334.5" font-family="Helvetica,sans-Serif" font-size="10.00">RigDef::Parser::CheckNum</text>
<text text-anchor="middle" x="449.5" y="-323.5" font-family="Helvetica,sans-Serif" font-size="10.00">Arguments</text>
</a>
</g>
</g>
<!-- Node1803&#45;&gt;Node1804 -->
<g id="edge1" class="edge"><title>Node1803&#45;&gt;Node1804</title>
<path fill="none" stroke="midnightblue" d="M102.139,-245.673C120.957,-253.204 144.474,-262.046 166,-268.5 234.905,-289.158 315.085,-306.413 372.384,-317.61"/>
<polygon fill="midnightblue" stroke="midnightblue" points="371.967,-321.094 382.45,-319.561 373.299,-314.222 371.967,-321.094"/>
</g>
<!-- Node1806 -->
<g id="node4" class="node"><title>Node1806</title>
<g id="a_node4"><a xlink:href="../../d1/da8/class_rig_def_1_1_parser.html#ae77a4970494c116e98a92be7a0160a16" target="_top" xlink:title="RigDef::Parser::GetArgFloat">
<polygon fill="white" stroke="black" points="569.5,-442 569.5,-461 707.5,-461 707.5,-442 569.5,-442"/>
<text text-anchor="middle" x="638.5" y="-449" font-family="Helvetica,sans-Serif" font-size="10.00">RigDef::Parser::GetArgFloat</text>
</a>
</g>
</g>
<!-- Node1803&#45;&gt;Node1806 -->
<g id="edge3" class="edge"><title>Node1803&#45;&gt;Node1806</title>
<path fill="none" stroke="midnightblue" d="M68.5372,-245.576C75.8134,-283.529 100.591,-383.017 166,-425.5 298.569,-511.602 498.922,-482.75 589.742,-463.264"/>
<polygon fill="midnightblue" stroke="midnightblue" points="590.732,-466.63 599.745,-461.06 589.226,-459.794 590.732,-466.63"/>
</g>
<!-- Node1807 -->
<g id="node5" class="node"><title>Node1807</title>
<g id="a_node5"><a xlink:href="../../d1/da8/class_rig_def_1_1_parser.html#a635bdc3c7493275fc05f91d51c11945b" target="_top" xlink:title="RigDef::Parser::GetArgInt">
<polygon fill="white" stroke="black" points="386,-404 386,-423 513,-423 513,-404 386,-404"/>
<text text-anchor="middle" x="449.5" y="-411" font-family="Helvetica,sans-Serif" font-size="10.00">RigDef::Parser::GetArgInt</text>
</a>
</g>
</g>
<!-- Node1803&#45;&gt;Node1807 -->
<g id="edge5" class="edge"><title>Node1803&#45;&gt;Node1807</title>
<path fill="none" stroke="midnightblue" d="M70.0755,-245.644C80.0158,-279.27 108.974,-359.913 166,-394.5 233.94,-435.707 328.717,-432.45 389.351,-424.452"/>
<polygon fill="midnightblue" stroke="midnightblue" points="390.103,-427.881 399.519,-423.024 389.13,-420.949 390.103,-427.881"/>
</g>
<!-- Node1809 -->
<g id="node7" class="node"><title>Node1809</title>
<g id="a_node7"><a xlink:href="../../d1/da8/class_rig_def_1_1_parser.html#a57b7efa0a566ae343d6148a05d420eae" target="_top" xlink:title="RigDef::Parser::GetArgNodeRef">
<polygon fill="white" stroke="black" points="373,-126 373,-145 526,-145 526,-126 373,-126"/>
<text text-anchor="middle" x="449.5" y="-133" font-family="Helvetica,sans-Serif" font-size="10.00">RigDef::Parser::GetArgNodeRef</text>
</a>
</g>
</g>
<!-- Node1803&#45;&gt;Node1809 -->
<g id="edge8" class="edge"><title>Node1803&#45;&gt;Node1809</title>
<path fill="none" stroke="midnightblue" d="M80.2041,-215.255C98.1944,-197.098 131.083,-167.584 166,-154.5 228.964,-130.907 305.296,-127.102 362.734,-128.675"/>
<polygon fill="midnightblue" stroke="midnightblue" points="362.757,-132.177 372.869,-129.013 362.991,-125.181 362.757,-132.177"/>
</g>
<!-- Node1811 -->
<g id="node9" class="node"><title>Node1811</title>
<g id="a_node9"><a xlink:href="../../d4/d43/class_rig_def_1_1_sequential_importer.html#ada562d6df02ffd616a611f8bac249f05" target="_top" xlink:title="RigDef::SequentialImporter\l::IsEnabled">
<polygon fill="white" stroke="black" points="756.5,-120.5 756.5,-150.5 888.5,-150.5 888.5,-120.5 756.5,-120.5"/>
<text text-anchor="start" x="764.5" y="-138.5" font-family="Helvetica,sans-Serif" font-size="10.00">RigDef::SequentialImporter</text>
<text text-anchor="middle" x="822.5" y="-127.5" font-family="Helvetica,sans-Serif" font-size="10.00">::IsEnabled</text>
</a>
</g>
</g>
<!-- Node1803&#45;&gt;Node1811 -->
<g id="edge34" class="edge"><title>Node1803&#45;&gt;Node1811</title>
<path fill="none" stroke="midnightblue" d="M74.6839,-215.263C89.6644,-190.684 122.944,-143.064 166,-123.5 208.305,-104.277 626.325,-108.652 715,-116.5 725.208,-117.403 735.902,-118.785 746.412,-120.399"/>
<polygon fill="midnightblue" stroke="midnightblue" points="745.981,-123.875 756.41,-122.011 747.095,-116.964 745.981,-123.875"/>
</g>
<!-- Node1816 -->
<g id="node14" class="node"><title>Node1816</title>
<g id="a_node14"><a xlink:href="../../d4/d43/class_rig_def_1_1_sequential_importer.html#a639c4f71bc37fc08f02a5b603ee14033" target="_top" xlink:title="RigDef::SequentialImporter\l::GenerateNodesForWheel">
<polygon fill="white" stroke="black" points="930,-38.5 930,-68.5 1062,-68.5 1062,-38.5 930,-38.5"/>
<text text-anchor="start" x="938" y="-56.5" font-family="Helvetica,sans-Serif" font-size="10.00">RigDef::SequentialImporter</text>
<text text-anchor="middle" x="996" y="-45.5" font-family="Helvetica,sans-Serif" font-size="10.00">::GenerateNodesForWheel</text>
</a>
</g>
</g>
<!-- Node1803&#45;&gt;Node1816 -->
<g id="edge35" class="edge"><title>Node1803&#45;&gt;Node1816</title>
<path fill="none" stroke="midnightblue" d="M73.4647,-215.307C87.5181,-188.466 120.623,-132.996 166,-106.5 275.916,-42.3201 321.219,-59.5 448.5,-59.5 448.5,-59.5 448.5,-59.5 639.5,-59.5 736.135,-59.5 847.525,-57.2562 919.485,-55.5129"/>
<polygon fill="midnightblue" stroke="midnightblue" points="919.899,-59.0039 929.81,-55.2597 919.727,-52.006 919.899,-59.0039"/>
</g>
<!-- Node1819 -->
<g id="node17" class="node"><title>Node1819</title>
<g id="a_node17"><a xlink:href="../../d1/da8/class_rig_def_1_1_parser.html#a629f3ff2e6181f7953ec28168b0aac00" target="_top" xlink:title="RigDef::Parser::GetArgStr">
<polygon fill="white" stroke="black" points="574,-164 574,-183 703,-183 703,-164 574,-164"/>
<text text-anchor="middle" x="638.5" y="-171" font-family="Helvetica,sans-Serif" font-size="10.00">RigDef::Parser::GetArgStr</text>
</a>
</g>
</g>
<!-- Node1803&#45;&gt;Node1819 -->
<g id="edge33" class="edge"><title>Node1803&#45;&gt;Node1819</title>
<path fill="none" stroke="midnightblue" d="M130.063,-225.157C218.999,-217.593 384.873,-202.952 526,-187.5 538.242,-186.16 551.227,-184.629 563.843,-183.083"/>
<polygon fill="midnightblue" stroke="midnightblue" points="564.366,-186.546 573.86,-181.844 563.506,-179.598 564.366,-186.546"/>
</g>
<!-- Node1820 -->
<g id="node18" class="node"><title>Node1820</title>
<g id="a_node18"><a xlink:href="../../d1/da8/class_rig_def_1_1_parser.html#a2f105a1d96e4d6380a2c4e3232c2dec5" target="_top" xlink:title="RigDef::Parser::GetArgRigidityNode">
<polygon fill="white" stroke="black" points="166,-164 166,-183 337,-183 337,-164 166,-164"/>
<text text-anchor="middle" x="251.5" y="-171" font-family="Helvetica,sans-Serif" font-size="10.00">RigDef::Parser::GetArgRigidityNode</text>
</a>
</g>
</g>
<!-- Node1803&#45;&gt;Node1820 -->
<g id="edge22" class="edge"><title>Node1803&#45;&gt;Node1820</title>
<path fill="none" stroke="midnightblue" d="M110.177,-215.478C127.528,-209.695 147.649,-203.131 166,-197.5 178.769,-193.582 192.692,-189.535 205.485,-185.907"/>
<polygon fill="midnightblue" stroke="midnightblue" points="206.782,-189.178 215.458,-183.097 204.883,-182.44 206.782,-189.178"/>
</g>
<!-- Node1821 -->
<g id="node19" class="node"><title>Node1821</title>
<g id="a_node19"><a xlink:href="../../d1/da8/class_rig_def_1_1_parser.html#a330ebe1e63aad0b46e8fa0b041274071" target="_top" xlink:title="RigDef::Parser::GetArgBraking">
<polygon fill="white" stroke="black" points="177,-366 177,-385 326,-385 326,-366 177,-366"/>
<text text-anchor="middle" x="251.5" y="-373" font-family="Helvetica,sans-Serif" font-size="10.00">RigDef::Parser::GetArgBraking</text>
</a>
</g>
</g>
<!-- Node1803&#45;&gt;Node1821 -->
<g id="edge25" class="edge"><title>Node1803&#45;&gt;Node1821</title>
<path fill="none" stroke="midnightblue" d="M73.5517,-245.681C87.7431,-272.548 121.059,-328.289 166,-356.5 169.343,-358.598 172.889,-360.466 176.561,-362.129"/>
<polygon fill="midnightblue" stroke="midnightblue" points="175.319,-365.402 185.905,-365.853 177.911,-358.899 175.319,-365.402"/>
</g>
<!-- Node1822 -->
<g id="node20" class="node"><title>Node1822</title>
<g id="a_node20"><a xlink:href="../../d1/da8/class_rig_def_1_1_parser.html#a8dd3a6b0c3903d1091ef17537fd00a16" target="_top" xlink:title="RigDef::Parser::GetArgPropulsion">
<polygon fill="white" stroke="black" points="170.5,-328 170.5,-347 332.5,-347 332.5,-328 170.5,-328"/>
<text text-anchor="middle" x="251.5" y="-335" font-family="Helvetica,sans-Serif" font-size="10.00">RigDef::Parser::GetArgPropulsion</text>
</a>
</g>
</g>
<!-- Node1803&#45;&gt;Node1822 -->
<g id="edge27" class="edge"><title>Node1803&#45;&gt;Node1822</title>
<path fill="none" stroke="midnightblue" d="M82.2032,-245.603C101.1,-262.564 133.864,-290 166,-307.5 178.42,-314.263 192.666,-320.004 205.878,-324.597"/>
<polygon fill="midnightblue" stroke="midnightblue" points="205.138,-328.04 215.732,-327.883 207.353,-321.399 205.138,-328.04"/>
</g>
<!-- Node1823 -->
<g id="node21" class="node"><title>Node1823</title>
<g id="a_node21"><a xlink:href="../../d1/da8/class_rig_def_1_1_parser.html#af2e43ac5b366d8e483345dccd87b8f68" target="_top" xlink:title="RigDef::Parser::GetArgWheelSide">
<polygon fill="white" stroke="black" points="169.5,-240 169.5,-259 333.5,-259 333.5,-240 169.5,-240"/>
<text text-anchor="middle" x="251.5" y="-247" font-family="Helvetica,sans-Serif" font-size="10.00">RigDef::Parser::GetArgWheelSide</text>
</a>
</g>
</g>
<!-- Node1803&#45;&gt;Node1823 -->
<g id="edge30" class="edge"><title>Node1803&#45;&gt;Node1823</title>
<path fill="none" stroke="midnightblue" d="M130.011,-237.092C139.435,-238.062 149.294,-239.078 159.14,-240.092"/>
<polygon fill="midnightblue" stroke="midnightblue" points="159.07,-243.603 169.376,-241.146 159.788,-236.64 159.07,-243.603"/>
</g>
<!-- Node1825 -->
<g id="node23" class="node"><title>Node1825</title>
<g id="a_node23"><a xlink:href="../../d2/dad/class_rig_def_1_1_node_1_1_ref.html#a38923aee8dad0a3146012009fb2e109d" target="_top" xlink:title="RigDef::Node::Ref::\lIsValidAnyState">
<polygon fill="white" stroke="black" points="201.5,-0.5 201.5,-30.5 301.5,-30.5 301.5,-0.5 201.5,-0.5"/>
<text text-anchor="start" x="209.5" y="-18.5" font-family="Helvetica,sans-Serif" font-size="10.00">RigDef::Node::Ref::</text>
<text text-anchor="middle" x="251.5" y="-7.5" font-family="Helvetica,sans-Serif" font-size="10.00">IsValidAnyState</text>
</a>
</g>
</g>
<!-- Node1803&#45;&gt;Node1825 -->
<g id="edge36" class="edge"><title>Node1803&#45;&gt;Node1825</title>
<path fill="none" stroke="midnightblue" d="M70.0695,-215.423C80.2544,-180.49 110.123,-93.3531 166,-45.5 173.538,-39.0447 182.561,-33.9441 191.863,-29.9237"/>
<polygon fill="midnightblue" stroke="midnightblue" points="193.184,-33.1654 201.214,-26.2533 190.626,-26.6494 193.184,-33.1654"/>
</g>
<!-- Node1805 -->
<g id="node3" class="node"><title>Node1805</title>
<g id="a_node3"><a xlink:href="../../d1/da8/class_rig_def_1_1_parser.html#a7da949423835fe3241f2ac4c5ac8ebb1" target="_top" xlink:title="Adds a message to parser report. ">
<polygon fill="white" stroke="black" points="751,-345 751,-364 894,-364 894,-345 751,-345"/>
<text text-anchor="middle" x="822.5" y="-352" font-family="Helvetica,sans-Serif" font-size="10.00">RigDef::Parser::AddMessage</text>
</a>
</g>
</g>
<!-- Node1804&#45;&gt;Node1805 -->
<g id="edge2" class="edge"><title>Node1804&#45;&gt;Node1805</title>
<path fill="none" stroke="midnightblue" d="M516.827,-335.612C579.473,-339.496 673.566,-345.329 740.593,-349.484"/>
<polygon fill="midnightblue" stroke="midnightblue" points="740.497,-352.985 750.694,-350.11 740.93,-345.998 740.497,-352.985"/>
</g>
<!-- Node1806&#45;&gt;Node1805 -->
<g id="edge4" class="edge"><title>Node1806&#45;&gt;Node1805</title>
<path fill="none" stroke="midnightblue" d="M689.191,-441.908C697.997,-439.395 706.926,-436.294 715,-432.5 749.272,-416.393 783.671,-388.583 803.755,-370.888"/>
<polygon fill="midnightblue" stroke="midnightblue" points="806.096,-373.49 811.203,-364.207 801.422,-368.279 806.096,-373.49"/>
</g>
<!-- Node1808 -->
<g id="node6" class="node"><title>Node1808</title>
<g id="a_node6"><a xlink:href="../../d1/da8/class_rig_def_1_1_parser.html#a81784a06397ed377c39759981d6c700b" target="_top" xlink:title="RigDef::Parser::GetArgLong">
<polygon fill="white" stroke="black" points="570,-404 570,-423 707,-423 707,-404 570,-404"/>
<text text-anchor="middle" x="638.5" y="-411" font-family="Helvetica,sans-Serif" font-size="10.00">RigDef::Parser::GetArgLong</text>
</a>
</g>
</g>
<!-- Node1807&#45;&gt;Node1808 -->
<g id="edge6" class="edge"><title>Node1807&#45;&gt;Node1808</title>
<path fill="none" stroke="midnightblue" d="M513.028,-413.5C528.009,-413.5 544.186,-413.5 559.762,-413.5"/>
<polygon fill="midnightblue" stroke="midnightblue" points="559.892,-417 569.892,-413.5 559.892,-410 559.892,-417"/>
</g>
<!-- Node1808&#45;&gt;Node1805 -->
<g id="edge7" class="edge"><title>Node1808&#45;&gt;Node1805</title>
<path fill="none" stroke="midnightblue" d="M669.648,-403.991C683.477,-399.609 700.081,-394.323 715,-389.5 737.599,-382.195 762.853,-373.901 783.095,-367.221"/>
<polygon fill="midnightblue" stroke="midnightblue" points="784.198,-370.543 792.596,-364.083 782.003,-363.896 784.198,-370.543"/>
</g>
<!-- Node1810 -->
<g id="node8" class="node"><title>Node1810</title>
<g id="a_node8"><a xlink:href="../../d1/da8/class_rig_def_1_1_parser.html#a38e4135df406da0cc2f0fc4afb34ddb3" target="_top" xlink:title="RigDef::Parser::_ParseNodeRef">
<polygon fill="white" stroke="black" points="562,-126 562,-145 715,-145 715,-126 562,-126"/>
<text text-anchor="middle" x="638.5" y="-133" font-family="Helvetica,sans-Serif" font-size="10.00">RigDef::Parser::_ParseNodeRef</text>
</a>
</g>
</g>
<!-- Node1809&#45;&gt;Node1810 -->
<g id="edge9" class="edge"><title>Node1809&#45;&gt;Node1810</title>
<path fill="none" stroke="midnightblue" d="M526.021,-135.5C534.472,-135.5 543.127,-135.5 551.696,-135.5"/>
<polygon fill="midnightblue" stroke="midnightblue" points="551.697,-139 561.697,-135.5 551.697,-132 551.697,-139"/>
</g>
<!-- Node1809&#45;&gt;Node1819 -->
<g id="edge21" class="edge"><title>Node1809&#45;&gt;Node1819</title>
<path fill="none" stroke="midnightblue" d="M497.688,-145.089C522.92,-150.216 554.173,-156.567 580.727,-161.963"/>
<polygon fill="midnightblue" stroke="midnightblue" points="580.155,-165.418 590.651,-163.98 581.549,-158.559 580.155,-165.418"/>
</g>
<!-- Node1810&#45;&gt;Node1805 -->
<g id="edge20" class="edge"><title>Node1810&#45;&gt;Node1805</title>
<path fill="none" stroke="midnightblue" d="M698.678,-145.145C704.529,-147.6 710.104,-150.668 715,-154.5 775.883,-202.144 806.052,-294.502 816.784,-334.845"/>
<polygon fill="midnightblue" stroke="midnightblue" points="813.45,-335.934 819.305,-344.764 820.234,-334.21 813.45,-335.934"/>
</g>
<!-- Node1810&#45;&gt;Node1811 -->
<g id="edge10" class="edge"><title>Node1810&#45;&gt;Node1811</title>
<path fill="none" stroke="midnightblue" d="M715.103,-135.5C725.358,-135.5 735.881,-135.5 746.132,-135.5"/>
<polygon fill="midnightblue" stroke="midnightblue" points="746.272,-139 756.272,-135.5 746.272,-132 746.272,-139"/>
</g>
<!-- Node1812 -->
<g id="node10" class="node"><title>Node1812</title>
<g id="a_node10"><a xlink:href="../../d4/d43/class_rig_def_1_1_sequential_importer.html#ad9fb7d3deecbb9f94ac85ff061459795" target="_top" xlink:title="RigDef::SequentialImporter\l::AddNumberedNode">
<polygon fill="white" stroke="black" points="930,-126.5 930,-156.5 1062,-156.5 1062,-126.5 930,-126.5"/>
<text text-anchor="start" x="938" y="-144.5" font-family="Helvetica,sans-Serif" font-size="10.00">RigDef::SequentialImporter</text>
<text text-anchor="middle" x="996" y="-133.5" font-family="Helvetica,sans-Serif" font-size="10.00">::AddNumberedNode</text>
</a>
</g>
</g>
<!-- Node1811&#45;&gt;Node1812 -->
<g id="edge11" class="edge"><title>Node1811&#45;&gt;Node1812</title>
<path fill="none" stroke="midnightblue" d="M888.826,-137.785C898.907,-138.138 909.388,-138.505 919.667,-138.864"/>
<polygon fill="midnightblue" stroke="midnightblue" points="919.739,-142.369 929.856,-139.221 919.984,-135.373 919.739,-142.369"/>
</g>
<!-- Node1814 -->
<g id="node12" class="node"><title>Node1814</title>
<g id="a_node12"><a xlink:href="../../d4/d43/class_rig_def_1_1_sequential_importer.html#a0d1350e2b0c44cff66a9c73c17baf9dd" target="_top" xlink:title="RigDef::SequentialImporter\l::AddNamedNode">
<polygon fill="white" stroke="black" points="930,-175.5 930,-205.5 1062,-205.5 1062,-175.5 930,-175.5"/>
<text text-anchor="start" x="938" y="-193.5" font-family="Helvetica,sans-Serif" font-size="10.00">RigDef::SequentialImporter</text>
<text text-anchor="middle" x="996" y="-182.5" font-family="Helvetica,sans-Serif" font-size="10.00">::AddNamedNode</text>
</a>
</g>
</g>
<!-- Node1811&#45;&gt;Node1814 -->
<g id="edge13" class="edge"><title>Node1811&#45;&gt;Node1814</title>
<path fill="none" stroke="midnightblue" d="M870.363,-150.529C891.443,-157.289 916.5,-165.325 938.599,-172.412"/>
<polygon fill="midnightblue" stroke="midnightblue" points="937.602,-175.768 948.194,-175.489 939.74,-169.103 937.602,-175.768"/>
</g>
<!-- Node1815 -->
<g id="node13" class="node"><title>Node1815</title>
<g id="a_node13"><a xlink:href="../../d4/d43/class_rig_def_1_1_sequential_importer.html#a5f5e30fbc3b2f58adb15a8f64bbecd15" target="_top" xlink:title="RigDef::SequentialImporter\l::AddGeneratedNode">
<polygon fill="white" stroke="black" points="1098,-70.5 1098,-100.5 1230,-100.5 1230,-70.5 1098,-70.5"/>
<text text-anchor="start" x="1106" y="-88.5" font-family="Helvetica,sans-Serif" font-size="10.00">RigDef::SequentialImporter</text>
<text text-anchor="middle" x="1164" y="-77.5" font-family="Helvetica,sans-Serif" font-size="10.00">::AddGeneratedNode</text>
</a>
</g>
</g>
<!-- Node1811&#45;&gt;Node1815 -->
<g id="edge15" class="edge"><title>Node1811&#45;&gt;Node1815</title>
<path fill="none" stroke="midnightblue" d="M888.782,-124.138C902.391,-121.862 916.654,-119.544 930,-117.5 982.532,-109.455 1041.88,-101.319 1087.53,-95.2638"/>
<polygon fill="midnightblue" stroke="midnightblue" points="1088.18,-98.7072 1097.64,-93.9266 1087.27,-91.7676 1088.18,-98.7072"/>
</g>
<!-- Node1811&#45;&gt;Node1816 -->
<g id="edge16" class="edge"><title>Node1811&#45;&gt;Node1816</title>
<path fill="none" stroke="midnightblue" d="M854.173,-120.304C875.406,-109.838 904.35,-95.6794 930,-83.5 937.343,-80.0132 945.177,-76.3497 952.772,-72.8276"/>
<polygon fill="midnightblue" stroke="midnightblue" points="954.259,-75.9959 961.868,-68.6228 951.322,-69.642 954.259,-75.9959"/>
</g>
<!-- Node1817 -->
<g id="node15" class="node"><title>Node1817</title>
<g id="a_node15"><a xlink:href="../../d4/d43/class_rig_def_1_1_sequential_importer.html#a69601c62b1bf9030cd2e2b03a926bc04" target="_top" xlink:title="Traverse whole rig definition and resolve all node references. ">
<polygon fill="white" stroke="black" points="930,-224.5 930,-254.5 1062,-254.5 1062,-224.5 930,-224.5"/>
<text text-anchor="start" x="938" y="-242.5" font-family="Helvetica,sans-Serif" font-size="10.00">RigDef::SequentialImporter</text>
<text text-anchor="middle" x="996" y="-231.5" font-family="Helvetica,sans-Serif" font-size="10.00">::Process</text>
</a>
</g>
</g>
<!-- Node1811&#45;&gt;Node1817 -->
<g id="edge18" class="edge"><title>Node1811&#45;&gt;Node1817</title>
<path fill="none" stroke="midnightblue" d="M840.509,-150.77C860.682,-168.266 895.887,-196.909 930,-215.5 933.199,-217.243 936.55,-218.91 939.973,-220.493"/>
<polygon fill="midnightblue" stroke="midnightblue" points="938.581,-223.704 949.147,-224.488 941.375,-217.286 938.581,-223.704"/>
</g>
<!-- Node1813 -->
<g id="node11" class="node"><title>Node1813</title>
<g id="a_node11"><a xlink:href="../../d4/d43/class_rig_def_1_1_sequential_importer.html#abbbd9a34cae153cb481b6c61a7927a97" target="_top" xlink:title="RigDef::SequentialImporter\l::AddMessage">
<polygon fill="white" stroke="black" points="1098,-138.5 1098,-168.5 1230,-168.5 1230,-138.5 1098,-138.5"/>
<text text-anchor="start" x="1106" y="-156.5" font-family="Helvetica,sans-Serif" font-size="10.00">RigDef::SequentialImporter</text>
<text text-anchor="middle" x="1164" y="-145.5" font-family="Helvetica,sans-Serif" font-size="10.00">::AddMessage</text>
</a>
</g>
</g>
<!-- Node1812&#45;&gt;Node1813 -->
<g id="edge12" class="edge"><title>Node1812&#45;&gt;Node1813</title>
<path fill="none" stroke="midnightblue" d="M1062.13,-146.208C1070.55,-146.817 1079.23,-147.445 1087.8,-148.064"/>
<polygon fill="midnightblue" stroke="midnightblue" points="1087.56,-151.555 1097.78,-148.786 1088.06,-144.574 1087.56,-151.555"/>
</g>
<!-- Node1814&#45;&gt;Node1813 -->
<g id="edge14" class="edge"><title>Node1814&#45;&gt;Node1813</title>
<path fill="none" stroke="midnightblue" d="M1062.13,-175.983C1070.55,-174.106 1079.23,-172.171 1087.8,-170.261"/>
<polygon fill="midnightblue" stroke="midnightblue" points="1088.79,-173.628 1097.78,-168.036 1087.26,-166.795 1088.79,-173.628"/>
</g>
<!-- Node1816&#45;&gt;Node1815 -->
<g id="edge17" class="edge"><title>Node1816&#45;&gt;Node1815</title>
<path fill="none" stroke="midnightblue" d="M1062.13,-66.0554C1070.55,-67.6789 1079.23,-69.352 1087.8,-71.0036"/>
<polygon fill="midnightblue" stroke="midnightblue" points="1087.3,-74.4721 1097.78,-72.9283 1088.63,-67.5986 1087.3,-74.4721"/>
</g>
<!-- Node1818 -->
<g id="node16" class="node"><title>Node1818</title>
<g id="a_node16"><a xlink:href="../../d4/d43/class_rig_def_1_1_sequential_importer.html#aaabc36a84be7e26a7d0790f04fa882c1" target="_top" xlink:title="RigDef::SequentialImporter\l::ProcessModule">
<polygon fill="white" stroke="black" points="1098,-224.5 1098,-254.5 1230,-254.5 1230,-224.5 1098,-224.5"/>
<text text-anchor="start" x="1106" y="-242.5" font-family="Helvetica,sans-Serif" font-size="10.00">RigDef::SequentialImporter</text>
<text text-anchor="middle" x="1164" y="-231.5" font-family="Helvetica,sans-Serif" font-size="10.00">::ProcessModule</text>
</a>
</g>
</g>
<!-- Node1817&#45;&gt;Node1818 -->
<g id="edge19" class="edge"><title>Node1817&#45;&gt;Node1818</title>
<path fill="none" stroke="midnightblue" d="M1062.13,-239.5C1070.46,-239.5 1079.04,-239.5 1087.52,-239.5"/>
<polygon fill="midnightblue" stroke="midnightblue" points="1087.78,-243 1097.78,-239.5 1087.78,-236 1087.78,-243"/>
</g>
<!-- Node1820&#45;&gt;Node1809 -->
<g id="edge24" class="edge"><title>Node1820&#45;&gt;Node1809</title>
<path fill="none" stroke="midnightblue" d="M301.706,-163.96C328.267,-158.81 361.249,-152.416 389.218,-146.994"/>
<polygon fill="midnightblue" stroke="midnightblue" points="390.123,-150.383 399.274,-145.044 388.79,-143.511 390.123,-150.383"/>
</g>
<!-- Node1820&#45;&gt;Node1819 -->
<g id="edge23" class="edge"><title>Node1820&#45;&gt;Node1819</title>
<path fill="none" stroke="midnightblue" d="M337.466,-173.5C405.255,-173.5 499.239,-173.5 563.86,-173.5"/>
<polygon fill="midnightblue" stroke="midnightblue" points="563.971,-177 573.971,-173.5 563.971,-170 563.971,-177"/>
</g>
<!-- Node1821&#45;&gt;Node1807 -->
<g id="edge26" class="edge"><title>Node1821&#45;&gt;Node1807</title>
<path fill="none" stroke="midnightblue" d="M301.706,-385.04C328.267,-390.19 361.249,-396.584 389.218,-402.006"/>
<polygon fill="midnightblue" stroke="midnightblue" points="388.79,-405.489 399.274,-403.956 390.123,-398.617 388.79,-405.489"/>
</g>
<!-- Node1822&#45;&gt;Node1805 -->
<g id="edge29" class="edge"><title>Node1822&#45;&gt;Node1805</title>
<path fill="none" stroke="midnightblue" d="M301.541,-347.013C323.332,-350.779 349.352,-354.647 373,-356.5 501.191,-366.544 650.622,-362.798 740.551,-358.873"/>
<polygon fill="midnightblue" stroke="midnightblue" points="740.845,-362.364 750.679,-358.419 740.532,-355.371 740.845,-362.364"/>
</g>
<!-- Node1822&#45;&gt;Node1807 -->
<g id="edge28" class="edge"><title>Node1822&#45;&gt;Node1807</title>
<path fill="none" stroke="midnightblue" d="M312.974,-347.029C321.296,-349.497 329.537,-352.6 337,-356.5 356.237,-366.553 354.217,-378.624 373,-389.5 380.61,-393.907 389.129,-397.609 397.627,-400.684"/>
<polygon fill="midnightblue" stroke="midnightblue" points="396.569,-404.021 407.163,-403.894 398.802,-397.387 396.569,-404.021"/>
</g>
<!-- Node1823&#45;&gt;Node1805 -->
<g id="edge32" class="edge"><title>Node1823&#45;&gt;Node1805</title>
<path fill="none" stroke="midnightblue" d="M306.604,-259.043C316.709,-260.842 327.178,-262.719 337,-264.5 505.114,-294.987 547.039,-303.177 715,-334.5 729.801,-337.26 745.756,-340.249 760.697,-343.054"/>
<polygon fill="midnightblue" stroke="midnightblue" points="760.379,-346.556 770.853,-344.962 761.671,-339.676 760.379,-346.556"/>
</g>
<!-- Node1824 -->
<g id="node22" class="node"><title>Node1824</title>
<g id="a_node22"><a xlink:href="../../d1/da8/class_rig_def_1_1_parser.html#ad50b22d8731d2e568bf1eb09796ba606" target="_top" xlink:title="RigDef::Parser::GetArgChar">
<polygon fill="white" stroke="black" points="381,-240 381,-259 518,-259 518,-240 381,-240"/>
<text text-anchor="middle" x="449.5" y="-247" font-family="Helvetica,sans-Serif" font-size="10.00">RigDef::Parser::GetArgChar</text>
</a>
</g>
</g>
<!-- Node1823&#45;&gt;Node1824 -->
<g id="edge31" class="edge"><title>Node1823&#45;&gt;Node1824</title>
<path fill="none" stroke="midnightblue" d="M333.636,-249.5C345.895,-249.5 358.517,-249.5 370.703,-249.5"/>
<polygon fill="midnightblue" stroke="midnightblue" points="370.82,-253 380.82,-249.5 370.82,-246 370.82,-253"/>
</g>
</g>
</svg>
        <g id="navigator" transform="translate(0 0)" fill="#404254">
                <rect fill="#f2f5e9" fill-opacity="0.5" stroke="#606060" stroke-width=".5" x="0" y="0" width="60" height="60"/>
                <use id="zoomplus" xlink:href="#zoomPlus" x="17" y="9" onmousedown="handleZoom(evt,'in')"/>
                <use id="zoomminus" xlink:href="#zoomMin" x="42" y="9" onmousedown="handleZoom(evt,'out')"/>
                <use id="reset" xlink:href="#resetDef" x="30" y="36" onmousedown="handleReset()"/>
                <g id="arrowUp" xlink:href="#dirArrow" transform="translate(30 24)" onmousedown="handlePan(0,-1)">
                  <use xlink:href="#rim" fill="#404040">
                        <set attributeName="fill" to="#808080" begin="arrowUp.mouseover" end="arrowUp.mouseout"/>
                  </use>
                  <path fill="none" stroke="white" stroke-width="1.5" d="M0,-3.0v7 M-2.5,-0.5L0,-3.0L2.5,-0.5"/>
                </g>
                <g id="arrowRight" xlink:href="#dirArrow" transform="rotate(90) translate(36 -43)" onmousedown="handlePan(1,0)">
                  <use xlink:href="#rim" fill="#404040">
                        <set attributeName="fill" to="#808080" begin="arrowRight.mouseover" end="arrowRight.mouseout"/>
                  </use>
                  <path fill="none" stroke="white" stroke-width="1.5" d="M0,-3.0v7 M-2.5,-0.5L0,-3.0L2.5,-0.5"/>
                </g>
                <g id="arrowDown" xlink:href="#dirArrow" transform="rotate(180) translate(-30 -48)" onmousedown="handlePan(0,1)">
                  <use xlink:href="#rim" fill="#404040">
                        <set attributeName="fill" to="#808080" begin="arrowDown.mouseover" end="arrowDown.mouseout"/>
                  </use>
                  <path fill="none" stroke="white" stroke-width="1.5" d="M0,-3.0v7 M-2.5,-0.5L0,-3.0L2.5,-0.5"/>
                </g>
                <g id="arrowLeft" xlink:href="#dirArrow" transform="rotate(270) translate(-36 17)" onmousedown="handlePan(-1,0)">
                  <use xlink:href="#rim" fill="#404040">
                        <set attributeName="fill" to="#808080" begin="arrowLeft.mouseover" end="arrowLeft.mouseout"/>
                  </use>
                  <path fill="none" stroke="white" stroke-width="1.5" d="M0,-3.0v7 M-2.5,-0.5L0,-3.0L2.5,-0.5"/>
                </g>
        </g>
        <svg viewBox="0 0 15 15" width="100%" height="30px" preserveAspectRatio="xMaxYMin meet">
         <g id="arrow_out" transform="scale(0.3 0.3)">
          <a xlink:href="class_rig_def_1_1_parser_a6bf9cf8041b531158f9a8319d696b2cc_cgraph_org.svg" target="_base">
           <rect id="button" ry="5" rx="5" y="6" x="6" height="38" width="38"
                fill="#f2f5e9" fill-opacity="0.5" stroke="#606060" stroke-width="1.0"/>
           <path id="arrow"
             d="M 11.500037,31.436501 C 11.940474,20.09759 22.043105,11.32322 32.158766,21.979434 L 37.068811,17.246167 C 37.068811,17.246167 37.088388,32 37.088388,32 L 22.160133,31.978069 C 22.160133,31.978069 26.997745,27.140456 26.997745,27.140456 C 18.528582,18.264221 13.291696,25.230495 11.500037,31.436501 z"
             style="fill:#404040;"/>
          </a>
         </g>
        </svg>
</svg>
