<?xml version="1.0" encoding="UTF-8" standalone="no"?>
<!DOCTYPE svg PUBLIC "-//W3C//DTD SVG 1.1//EN"
 "http://www.w3.org/Graphics/SVG/1.1/DTD/svg11.dtd">
<!-- Generated by graphviz version 2.38.0 (20140413.2041)
 -->
<!-- Title: RigDef::Parser::ParseSetCollisionRange Pages: 1 -->
<!--zoomable 113 -->
<svg id="main" version="1.1" xmlns="http://www.w3.org/2000/svg" xmlns:xlink="http://www.w3.org/1999/xlink" xml:space="preserve" onload="init(evt)">
<style type="text/css"><![CDATA[
.edge:hover path { stroke: red; }
.edge:hover polygon { stroke: red; fill: red; }
]]></style>
<script type="text/javascript"><![CDATA[
var edges = document.getElementsByTagName('g');
if (edges && edges.length) {
  for (var i=0;i<edges.length;i++) {
    if (edges[i].id.substr(0,4)=='edge') {
      edges[i].setAttribute('class','edge');
    }
  }
}
]]></script>
        <defs>
                <circle id="rim" cx="0" cy="0" r="7"/>
                <circle id="rim2" cx="0" cy="0" r="3.5"/>
                <g id="zoomPlus">
                        <use xlink:href="#rim" fill="#404040">
                                <set attributeName="fill" to="#808080" begin="zoomplus.mouseover" end="zoomplus.mouseout"/>
                        </use>
                        <path d="M-4,0h8M0,-4v8" fill="none" stroke="white" stroke-width="1.5" pointer-events="none"/>
                </g>
                <g id="zoomMin">
                        <use xlink:href="#rim" fill="#404040">
                                <set attributeName="fill" to="#808080" begin="zoomminus.mouseover" end="zoomminus.mouseout"/>
                        </use>
                        <path d="M-4,0h8" fill="none" stroke="white" stroke-width="1.5" pointer-events="none"/>
                </g>
                <g id="dirArrow">
                        <path fill="none" stroke="white" stroke-width="1.5" d="M0,-3.0v7 M-2.5,-0.5L0,-3.0L2.5,-0.5"/>
                </g>
               <g id="resetDef">
                       <use xlink:href="#rim2" fill="#404040">
                               <set attributeName="fill" to="#808080" begin="reset.mouseover" end="reset.mouseout"/>
                       </use>
               </g>
        </defs>

<script type="text/javascript">
var viewWidth = 1101;
var viewHeight = 113;
var sectionId = 'dynsection-192';
</script>
<script xlink:href="../../svgpan.js"/>
<svg id="graph" class="graph">
<g id="viewport">
<title>RigDef::Parser::ParseSetCollisionRange</title>
<polygon fill="white" stroke="none" points="-4,4 -4,-108.5 1097,-108.5 1097,4 -4,4"/>
<!-- Node2356 -->
<g id="node1" class="node"><title>Node2356</title>
<polygon fill="#bfbfbf" stroke="black" points="0,-49 0,-79 126,-79 126,-49 0,-49"/>
<text text-anchor="start" x="8" y="-67" font-family="Helvetica,sans-Serif" font-size="10.00">RigDef::Parser::ParseSet</text>
<text text-anchor="middle" x="63" y="-56" font-family="Helvetica,sans-Serif" font-size="10.00">CollisionRange</text>
</g>
<!-- Node2357 -->
<g id="node2" class="node"><title>Node2357</title>
<g id="a_node2"><a xlink:href="../../d1/da8/class_rig_def_1_1_parser.html#a99a49d75798b1fa5dfbd00873455fbeb" target="_top" xlink:title="RigDef::Parser::ProcessCurrentLine">
<polygon fill="white" stroke="black" points="162,-73.5 162,-92.5 333,-92.5 333,-73.5 162,-73.5"/>
<text text-anchor="middle" x="247.5" y="-80.5" font-family="Helvetica,sans-Serif" font-size="10.00">RigDef::Parser::ProcessCurrentLine</text>
</a>
</g>
</g>
<!-- Node2356&#45;&gt;Node2357 -->
<g id="edge1" class="edge"><title>Node2356&#45;&gt;Node2357</title>
<path fill="none" stroke="midnightblue" d="M136.14,-71.5105C144.528,-72.3837 153.141,-73.2804 161.679,-74.1693"/>
<polygon fill="midnightblue" stroke="midnightblue" points="136.35,-68.0134 126.041,-70.459 135.625,-74.9758 136.35,-68.0134"/>
</g>
<!-- Node2365 -->
<g id="node10" class="node"><title>Node2365</title>
<g id="a_node10"><a xlink:href="../../d1/da8/class_rig_def_1_1_parser.html#a5ab95d1e21230f5477cc7c6cfca95c0e" target="_top" xlink:title="RigDef::Parser::GetMessages\lNumOther">
<polygon fill="white" stroke="black" points="375,-30 375,-60 521,-60 521,-30 375,-30"/>
<text text-anchor="start" x="383" y="-48" font-family="Helvetica,sans-Serif" font-size="10.00">RigDef::Parser::GetMessages</text>
<text text-anchor="middle" x="448" y="-37" font-family="Helvetica,sans-Serif" font-size="10.00">NumOther</text>
</a>
</g>
</g>
<!-- Node2356&#45;&gt;Node2365 -->
<g id="edge11" class="edge"><title>Node2356&#45;&gt;Node2365</title>
<path fill="none" stroke="midnightblue" d="M136.637,-60.3966C204.961,-57.0072 306.676,-51.9613 374.843,-48.5796"/>
<polygon fill="midnightblue" stroke="midnightblue" points="136.202,-56.9138 126.388,-60.905 136.549,-63.9052 136.202,-56.9138"/>
</g>
<!-- Node2358 -->
<g id="node3" class="node"><title>Node2358</title>
<g id="a_node3"><a xlink:href="../../d1/da8/class_rig_def_1_1_parser.html#ad1920ba0a8dc23ac5043b2c270ef5f47" target="_top" xlink:title="RigDef::Parser::ProcessRawLine">
<polygon fill="white" stroke="black" points="369,-79.5 369,-98.5 527,-98.5 527,-79.5 369,-79.5"/>
<text text-anchor="middle" x="448" y="-86.5" font-family="Helvetica,sans-Serif" font-size="10.00">RigDef::Parser::ProcessRawLine</text>
</a>
</g>
</g>
<!-- Node2357&#45;&gt;Node2358 -->
<g id="edge2" class="edge"><title>Node2357&#45;&gt;Node2358</title>
<path fill="none" stroke="midnightblue" d="M343.267,-85.8645C351.823,-86.1231 360.424,-86.3831 368.815,-86.6367"/>
<polygon fill="midnightblue" stroke="midnightblue" points="343.359,-82.3658 333.258,-85.5619 343.147,-89.3626 343.359,-82.3658"/>
</g>
<!-- Node2357&#45;&gt;Node2365 -->
<g id="edge9" class="edge"><title>Node2357&#45;&gt;Node2365</title>
<path fill="none" stroke="midnightblue" d="M308.336,-71.5453C329.206,-67.55 352.852,-63.0232 374.631,-58.854"/>
<polygon fill="midnightblue" stroke="midnightblue" points="307.497,-68.1422 298.334,-73.46 308.813,-75.0173 307.497,-68.1422"/>
</g>
<!-- Node2359 -->
<g id="node4" class="node"><title>Node2359</title>
<g id="a_node4"><a xlink:href="../../d1/da8/class_rig_def_1_1_parser.html#ab08d0ba4ffb90b72cb351014bb7861bd" target="_top" xlink:title="RigDef::Parser::ProcessOgre\lStream">
<polygon fill="white" stroke="black" points="563,-74 563,-104 706,-104 706,-74 563,-74"/>
<text text-anchor="start" x="571" y="-92" font-family="Helvetica,sans-Serif" font-size="10.00">RigDef::Parser::ProcessOgre</text>
<text text-anchor="middle" x="634.5" y="-81" font-family="Helvetica,sans-Serif" font-size="10.00">Stream</text>
</a>
</g>
</g>
<!-- Node2358&#45;&gt;Node2359 -->
<g id="edge3" class="edge"><title>Node2358&#45;&gt;Node2359</title>
<path fill="none" stroke="midnightblue" d="M537.245,-89C545.797,-89 554.395,-89 562.745,-89"/>
<polygon fill="midnightblue" stroke="midnightblue" points="537.245,-85.5001 527.245,-89 537.245,-92.5001 537.245,-85.5001"/>
</g>
<!-- Node2360 -->
<g id="node5" class="node"><title>Node2360</title>
<g id="a_node5"><a xlink:href="../../df/df9/class_beam.html#ab0cbc6c4e3822fc5786af2c8036f7efb" target="_top" xlink:title="Beam::LoadTruck">
<polygon fill="white" stroke="black" points="774,-36.5 774,-55.5 867,-55.5 867,-36.5 774,-36.5"/>
<text text-anchor="middle" x="820.5" y="-43.5" font-family="Helvetica,sans-Serif" font-size="10.00">Beam::LoadTruck</text>
</a>
</g>
</g>
<!-- Node2359&#45;&gt;Node2360 -->
<g id="edge4" class="edge"><title>Node2359&#45;&gt;Node2360</title>
<path fill="none" stroke="midnightblue" d="M709.822,-71.6312C733.355,-66.1318 758.49,-60.2578 778.754,-55.5223"/>
<polygon fill="midnightblue" stroke="midnightblue" points="708.795,-68.2768 699.854,-73.9607 710.388,-75.0931 708.795,-68.2768"/>
</g>
<!-- Node2363 -->
<g id="node8" class="node"><title>Node2363</title>
<g id="a_node8"><a xlink:href="../../d7/d35/class_cache_system.html#ad640fd28c3075eb6310d8d8f3475cefb" target="_top" xlink:title="CacheSystem::fillTruckDetailInfo">
<polygon fill="white" stroke="black" points="742,-79.5 742,-98.5 899,-98.5 899,-79.5 742,-79.5"/>
<text text-anchor="middle" x="820.5" y="-86.5" font-family="Helvetica,sans-Serif" font-size="10.00">CacheSystem::fillTruckDetailInfo</text>
</a>
</g>
</g>
<!-- Node2359&#45;&gt;Node2363 -->
<g id="edge7" class="edge"><title>Node2359&#45;&gt;Node2363</title>
<path fill="none" stroke="midnightblue" d="M716.322,-89C724.759,-89 733.324,-89 741.726,-89"/>
<polygon fill="midnightblue" stroke="midnightblue" points="716.113,-85.5001 706.113,-89 716.113,-92.5001 716.113,-85.5001"/>
</g>
<!-- Node2361 -->
<g id="node6" class="node"><title>Node2361</title>
<g id="a_node6"><a xlink:href="../../df/df9/class_beam.html#a0d55b25fa0d1623305f3ac51694cbd42" target="_top" xlink:title="Beam::Beam">
<polygon fill="white" stroke="black" points="977,-38.5 977,-57.5 1051,-57.5 1051,-38.5 977,-38.5"/>
<text text-anchor="middle" x="1014" y="-45.5" font-family="Helvetica,sans-Serif" font-size="10.00">Beam::Beam</text>
</a>
</g>
</g>
<!-- Node2360&#45;&gt;Node2361 -->
<g id="edge5" class="edge"><title>Node2360&#45;&gt;Node2361</title>
<path fill="none" stroke="midnightblue" d="M877.492,-46.5848C909.524,-46.9193 948.774,-47.3292 976.772,-47.6216"/>
<polygon fill="midnightblue" stroke="midnightblue" points="877.405,-43.0838 867.369,-46.479 877.332,-50.0834 877.405,-43.0838"/>
</g>
<!-- Node2362 -->
<g id="node7" class="node"><title>Node2362</title>
<g id="a_node7"><a xlink:href="../../df/df9/class_beam.html#a3176be8102041493ae018fd5d66607dd" target="_top" xlink:title="Beam::getVelocity">
<polygon fill="white" stroke="black" points="965.5,-0.5 965.5,-19.5 1062.5,-19.5 1062.5,-0.5 965.5,-0.5"/>
<text text-anchor="middle" x="1014" y="-7.5" font-family="Helvetica,sans-Serif" font-size="10.00">Beam::getVelocity</text>
</a>
</g>
</g>
<!-- Node2360&#45;&gt;Node2362 -->
<g id="edge6" class="edge"><title>Node2360&#45;&gt;Node2362</title>
<path fill="none" stroke="midnightblue" d="M877.356,-35.4996C905.198,-30.2657 938.52,-24.0015 965.169,-18.9916"/>
<polygon fill="midnightblue" stroke="midnightblue" points="876.55,-32.0897 867.369,-37.3771 877.844,-38.9692 876.55,-32.0897"/>
</g>
<!-- Node2364 -->
<g id="node9" class="node"><title>Node2364</title>
<g id="a_node9"><a xlink:href="../../d7/d35/class_cache_system.html#a20bd63ee907dd205ccef715db6dc9b5c" target="_top" xlink:title="CacheSystem::getUIDfromString">
<polygon fill="white" stroke="black" points="935,-79.5 935,-98.5 1093,-98.5 1093,-79.5 935,-79.5"/>
<text text-anchor="middle" x="1014" y="-86.5" font-family="Helvetica,sans-Serif" font-size="10.00">CacheSystem::getUIDfromString</text>
</a>
</g>
</g>
<!-- Node2363&#45;&gt;Node2364 -->
<g id="edge8" class="edge"><title>Node2363&#45;&gt;Node2364</title>
<path fill="none" stroke="midnightblue" d="M909.161,-89C917.768,-89 926.462,-89 934.964,-89"/>
<polygon fill="midnightblue" stroke="midnightblue" points="909.114,-85.5001 899.114,-89 909.114,-92.5001 909.114,-85.5001"/>
</g>
<!-- Node2365&#45;&gt;Node2360 -->
<g id="edge10" class="edge"><title>Node2365&#45;&gt;Node2360</title>
<path fill="none" stroke="midnightblue" d="M531.637,-45.223C606.378,-45.4248 713.673,-45.7144 773.937,-45.877"/>
<polygon fill="midnightblue" stroke="midnightblue" points="531.325,-41.7223 521.316,-45.1952 531.306,-48.7223 531.325,-41.7223"/>
</g>
</g>
</svg>
        <g id="navigator" transform="translate(0 0)" fill="#404254">
                <rect fill="#f2f5e9" fill-opacity="0.5" stroke="#606060" stroke-width=".5" x="0" y="0" width="60" height="60"/>
                <use id="zoomplus" xlink:href="#zoomPlus" x="17" y="9" onmousedown="handleZoom(evt,'in')"/>
                <use id="zoomminus" xlink:href="#zoomMin" x="42" y="9" onmousedown="handleZoom(evt,'out')"/>
                <use id="reset" xlink:href="#resetDef" x="30" y="36" onmousedown="handleReset()"/>
                <g id="arrowUp" xlink:href="#dirArrow" transform="translate(30 24)" onmousedown="handlePan(0,-1)">
                  <use xlink:href="#rim" fill="#404040">
                        <set attributeName="fill" to="#808080" begin="arrowUp.mouseover" end="arrowUp.mouseout"/>
                  </use>
                  <path fill="none" stroke="white" stroke-width="1.5" d="M0,-3.0v7 M-2.5,-0.5L0,-3.0L2.5,-0.5"/>
                </g>
                <g id="arrowRight" xlink:href="#dirArrow" transform="rotate(90) translate(36 -43)" onmousedown="handlePan(1,0)">
                  <use xlink:href="#rim" fill="#404040">
                        <set attributeName="fill" to="#808080" begin="arrowRight.mouseover" end="arrowRight.mouseout"/>
                  </use>
                  <path fill="none" stroke="white" stroke-width="1.5" d="M0,-3.0v7 M-2.5,-0.5L0,-3.0L2.5,-0.5"/>
                </g>
                <g id="arrowDown" xlink:href="#dirArrow" transform="rotate(180) translate(-30 -48)" onmousedown="handlePan(0,1)">
                  <use xlink:href="#rim" fill="#404040">
                        <set attributeName="fill" to="#808080" begin="arrowDown.mouseover" end="arrowDown.mouseout"/>
                  </use>
                  <path fill="none" stroke="white" stroke-width="1.5" d="M0,-3.0v7 M-2.5,-0.5L0,-3.0L2.5,-0.5"/>
                </g>
                <g id="arrowLeft" xlink:href="#dirArrow" transform="rotate(270) translate(-36 17)" onmousedown="handlePan(-1,0)">
                  <use xlink:href="#rim" fill="#404040">
                        <set attributeName="fill" to="#808080" begin="arrowLeft.mouseover" end="arrowLeft.mouseout"/>
                  </use>
                  <path fill="none" stroke="white" stroke-width="1.5" d="M0,-3.0v7 M-2.5,-0.5L0,-3.0L2.5,-0.5"/>
                </g>
        </g>
        <svg viewBox="0 0 15 15" width="100%" height="30px" preserveAspectRatio="xMaxYMin meet">
         <g id="arrow_out" transform="scale(0.3 0.3)">
          <a xlink:href="class_rig_def_1_1_parser_adb0dd891446c68effd2691bf4cdbea2d_icgraph_org.svg" target="_base">
           <rect id="button" ry="5" rx="5" y="6" x="6" height="38" width="38"
                fill="#f2f5e9" fill-opacity="0.5" stroke="#606060" stroke-width="1.0"/>
           <path id="arrow"
             d="M 11.500037,31.436501 C 11.940474,20.09759 22.043105,11.32322 32.158766,21.979434 L 37.068811,17.246167 C 37.068811,17.246167 37.088388,32 37.088388,32 L 22.160133,31.978069 C 22.160133,31.978069 26.997745,27.140456 26.997745,27.140456 C 18.528582,18.264221 13.291696,25.230495 11.500037,31.436501 z"
             style="fill:#404040;"/>
          </a>
         </g>
        </svg>
</svg>
