<?xml version="1.0" encoding="UTF-8" standalone="no"?>
<!DOCTYPE svg PUBLIC "-//W3C//DTD SVG 1.1//EN"
 "http://www.w3.org/Graphics/SVG/1.1/DTD/svg11.dtd">
<!-- Generated by graphviz version 2.38.0 (20140413.2041)
 -->
<!-- Title: RigDef::Parser::ParseTies Pages: 1 -->
<svg width="1104pt" height="113pt"
 viewBox="0.00 0.00 1104.00 112.50" xmlns="http://www.w3.org/2000/svg" xmlns:xlink="http://www.w3.org/1999/xlink">
<g id="graph0" class="graph" transform="scale(1 1) rotate(0) translate(4 108.5)">
<title>RigDef::Parser::ParseTies</title>
<polygon fill="white" stroke="none" points="-4,4 -4,-108.5 1100,-108.5 1100,4 -4,4"/>
<!-- Node2586 -->
<g id="node1" class="node"><title>Node2586</title>
<polygon fill="#bfbfbf" stroke="black" points="0,-54.5 0,-73.5 129,-73.5 129,-54.5 0,-54.5"/>
<text text-anchor="middle" x="64.5" y="-61.5" font-family="Helvetica,sans-Serif" font-size="10.00">RigDef::Parser::ParseTies</text>
</g>
<!-- Node2587 -->
<g id="node2" class="node"><title>Node2587</title>
<g id="a_node2"><a xlink:href="../../d1/da8/class_rig_def_1_1_parser.html#a99a49d75798b1fa5dfbd00873455fbeb" target="_top" xlink:title="RigDef::Parser::ProcessCurrentLine">
<polygon fill="white" stroke="black" points="165,-73.5 165,-92.5 336,-92.5 336,-73.5 165,-73.5"/>
<text text-anchor="middle" x="250.5" y="-80.5" font-family="Helvetica,sans-Serif" font-size="10.00">RigDef::Parser::ProcessCurrentLine</text>
</a>
</g>
</g>
<!-- Node2586&#45;&gt;Node2587 -->
<g id="edge1" class="edge"><title>Node2586&#45;&gt;Node2587</title>
<path fill="none" stroke="midnightblue" d="M139.224,-71.6128C147.644,-72.4823 156.276,-73.3736 164.824,-74.2562"/>
<polygon fill="midnightblue" stroke="midnightblue" points="139.387,-68.1111 129.08,-70.5653 138.668,-75.0741 139.387,-68.1111"/>
</g>
<!-- Node2595 -->
<g id="node10" class="node"><title>Node2595</title>
<g id="a_node10"><a xlink:href="../../d1/da8/class_rig_def_1_1_parser.html#a5ab95d1e21230f5477cc7c6cfca95c0e" target="_top" xlink:title="RigDef::Parser::GetMessages\lNumOther">
<polygon fill="white" stroke="black" points="378,-30 378,-60 524,-60 524,-30 378,-30"/>
<text text-anchor="start" x="386" y="-48" font-family="Helvetica,sans-Serif" font-size="10.00">RigDef::Parser::GetMessages</text>
<text text-anchor="middle" x="451" y="-37" font-family="Helvetica,sans-Serif" font-size="10.00">NumOther</text>
</a>
</g>
</g>
<!-- Node2586&#45;&gt;Node2595 -->
<g id="edge11" class="edge"><title>Node2586&#45;&gt;Node2595</title>
<path fill="none" stroke="midnightblue" d="M139.726,-60.3321C208.36,-56.9406 309.728,-51.9315 377.731,-48.5712"/>
<polygon fill="midnightblue" stroke="midnightblue" points="139.239,-56.8518 129.424,-60.8412 139.585,-63.8433 139.239,-56.8518"/>
</g>
<!-- Node2588 -->
<g id="node3" class="node"><title>Node2588</title>
<g id="a_node3"><a xlink:href="../../d1/da8/class_rig_def_1_1_parser.html#ad1920ba0a8dc23ac5043b2c270ef5f47" target="_top" xlink:title="RigDef::Parser::ProcessRawLine">
<polygon fill="white" stroke="black" points="372,-79.5 372,-98.5 530,-98.5 530,-79.5 372,-79.5"/>
<text text-anchor="middle" x="451" y="-86.5" font-family="Helvetica,sans-Serif" font-size="10.00">RigDef::Parser::ProcessRawLine</text>
</a>
</g>
</g>
<!-- Node2587&#45;&gt;Node2588 -->
<g id="edge2" class="edge"><title>Node2587&#45;&gt;Node2588</title>
<path fill="none" stroke="midnightblue" d="M346.267,-85.8645C354.823,-86.1231 363.424,-86.3831 371.815,-86.6367"/>
<polygon fill="midnightblue" stroke="midnightblue" points="346.359,-82.3658 336.258,-85.5619 346.147,-89.3626 346.359,-82.3658"/>
</g>
<!-- Node2587&#45;&gt;Node2595 -->
<g id="edge9" class="edge"><title>Node2587&#45;&gt;Node2595</title>
<path fill="none" stroke="midnightblue" d="M311.336,-71.5453C332.206,-67.55 355.852,-63.0232 377.631,-58.854"/>
<polygon fill="midnightblue" stroke="midnightblue" points="310.497,-68.1422 301.334,-73.46 311.813,-75.0173 310.497,-68.1422"/>
</g>
<!-- Node2589 -->
<g id="node4" class="node"><title>Node2589</title>
<g id="a_node4"><a xlink:href="../../d1/da8/class_rig_def_1_1_parser.html#ab08d0ba4ffb90b72cb351014bb7861bd" target="_top" xlink:title="RigDef::Parser::ProcessOgre\lStream">
<polygon fill="white" stroke="black" points="566,-74 566,-104 709,-104 709,-74 566,-74"/>
<text text-anchor="start" x="574" y="-92" font-family="Helvetica,sans-Serif" font-size="10.00">RigDef::Parser::ProcessOgre</text>
<text text-anchor="middle" x="637.5" y="-81" font-family="Helvetica,sans-Serif" font-size="10.00">Stream</text>
</a>
</g>
</g>
<!-- Node2588&#45;&gt;Node2589 -->
<g id="edge3" class="edge"><title>Node2588&#45;&gt;Node2589</title>
<path fill="none" stroke="midnightblue" d="M540.245,-89C548.797,-89 557.395,-89 565.745,-89"/>
<polygon fill="midnightblue" stroke="midnightblue" points="540.245,-85.5001 530.245,-89 540.245,-92.5001 540.245,-85.5001"/>
</g>
<!-- Node2590 -->
<g id="node5" class="node"><title>Node2590</title>
<g id="a_node5"><a xlink:href="../../df/df9/class_beam.html#ab0cbc6c4e3822fc5786af2c8036f7efb" target="_top" xlink:title="Beam::LoadTruck">
<polygon fill="white" stroke="black" points="777,-36.5 777,-55.5 870,-55.5 870,-36.5 777,-36.5"/>
<text text-anchor="middle" x="823.5" y="-43.5" font-family="Helvetica,sans-Serif" font-size="10.00">Beam::LoadTruck</text>
</a>
</g>
</g>
<!-- Node2589&#45;&gt;Node2590 -->
<g id="edge4" class="edge"><title>Node2589&#45;&gt;Node2590</title>
<path fill="none" stroke="midnightblue" d="M712.822,-71.6312C736.355,-66.1318 761.49,-60.2578 781.754,-55.5223"/>
<polygon fill="midnightblue" stroke="midnightblue" points="711.795,-68.2768 702.854,-73.9607 713.388,-75.0931 711.795,-68.2768"/>
</g>
<!-- Node2593 -->
<g id="node8" class="node"><title>Node2593</title>
<g id="a_node8"><a xlink:href="../../d7/d35/class_cache_system.html#ad640fd28c3075eb6310d8d8f3475cefb" target="_top" xlink:title="CacheSystem::fillTruckDetailInfo">
<polygon fill="white" stroke="black" points="745,-79.5 745,-98.5 902,-98.5 902,-79.5 745,-79.5"/>
<text text-anchor="middle" x="823.5" y="-86.5" font-family="Helvetica,sans-Serif" font-size="10.00">CacheSystem::fillTruckDetailInfo</text>
</a>
</g>
</g>
<!-- Node2589&#45;&gt;Node2593 -->
<g id="edge7" class="edge"><title>Node2589&#45;&gt;Node2593</title>
<path fill="none" stroke="midnightblue" d="M719.322,-89C727.759,-89 736.324,-89 744.726,-89"/>
<polygon fill="midnightblue" stroke="midnightblue" points="719.113,-85.5001 709.113,-89 719.113,-92.5001 719.113,-85.5001"/>
</g>
<!-- Node2591 -->
<g id="node6" class="node"><title>Node2591</title>
<g id="a_node6"><a xlink:href="../../df/df9/class_beam.html#a0d55b25fa0d1623305f3ac51694cbd42" target="_top" xlink:title="Beam::Beam">
<polygon fill="white" stroke="black" points="980,-38.5 980,-57.5 1054,-57.5 1054,-38.5 980,-38.5"/>
<text text-anchor="middle" x="1017" y="-45.5" font-family="Helvetica,sans-Serif" font-size="10.00">Beam::Beam</text>
</a>
</g>
</g>
<!-- Node2590&#45;&gt;Node2591 -->
<g id="edge5" class="edge"><title>Node2590&#45;&gt;Node2591</title>
<path fill="none" stroke="midnightblue" d="M880.492,-46.5848C912.524,-46.9193 951.774,-47.3292 979.772,-47.6216"/>
<polygon fill="midnightblue" stroke="midnightblue" points="880.405,-43.0838 870.369,-46.479 880.332,-50.0834 880.405,-43.0838"/>
</g>
<!-- Node2592 -->
<g id="node7" class="node"><title>Node2592</title>
<g id="a_node7"><a xlink:href="../../df/df9/class_beam.html#a3176be8102041493ae018fd5d66607dd" target="_top" xlink:title="Beam::getVelocity">
<polygon fill="white" stroke="black" points="968.5,-0.5 968.5,-19.5 1065.5,-19.5 1065.5,-0.5 968.5,-0.5"/>
<text text-anchor="middle" x="1017" y="-7.5" font-family="Helvetica,sans-Serif" font-size="10.00">Beam::getVelocity</text>
</a>
</g>
</g>
<!-- Node2590&#45;&gt;Node2592 -->
<g id="edge6" class="edge"><title>Node2590&#45;&gt;Node2592</title>
<path fill="none" stroke="midnightblue" d="M880.356,-35.4996C908.198,-30.2657 941.52,-24.0015 968.169,-18.9916"/>
<polygon fill="midnightblue" stroke="midnightblue" points="879.55,-32.0897 870.369,-37.3771 880.844,-38.9692 879.55,-32.0897"/>
</g>
<!-- Node2594 -->
<g id="node9" class="node"><title>Node2594</title>
<g id="a_node9"><a xlink:href="../../d7/d35/class_cache_system.html#a20bd63ee907dd205ccef715db6dc9b5c" target="_top" xlink:title="CacheSystem::getUIDfromString">
<polygon fill="white" stroke="black" points="938,-79.5 938,-98.5 1096,-98.5 1096,-79.5 938,-79.5"/>
<text text-anchor="middle" x="1017" y="-86.5" font-family="Helvetica,sans-Serif" font-size="10.00">CacheSystem::getUIDfromString</text>
</a>
</g>
</g>
<!-- Node2593&#45;&gt;Node2594 -->
<g id="edge8" class="edge"><title>Node2593&#45;&gt;Node2594</title>
<path fill="none" stroke="midnightblue" d="M912.161,-89C920.768,-89 929.462,-89 937.964,-89"/>
<polygon fill="midnightblue" stroke="midnightblue" points="912.114,-85.5001 902.114,-89 912.114,-92.5001 912.114,-85.5001"/>
</g>
<!-- Node2595&#45;&gt;Node2590 -->
<g id="edge10" class="edge"><title>Node2595&#45;&gt;Node2590</title>
<path fill="none" stroke="midnightblue" d="M534.637,-45.223C609.378,-45.4248 716.673,-45.7144 776.937,-45.877"/>
<polygon fill="midnightblue" stroke="midnightblue" points="534.325,-41.7223 524.316,-45.1952 534.306,-48.7223 534.325,-41.7223"/>
</g>
</g>
</svg>
