<?xml version="1.0" encoding="UTF-8" standalone="no"?>
<!DOCTYPE svg PUBLIC "-//W3C//DTD SVG 1.1//EN"
 "http://www.w3.org/Graphics/SVG/1.1/DTD/svg11.dtd">
<!-- Generated by graphviz version 2.38.0 (20140413.2041)
 -->
<!-- Title: RigDef::Parser::ProcessChangeModuleLine Pages: 1 -->
<!--zoomable 118 -->
<svg id="main" version="1.1" xmlns="http://www.w3.org/2000/svg" xmlns:xlink="http://www.w3.org/1999/xlink" xml:space="preserve" onload="init(evt)">
<style type="text/css"><![CDATA[
.edge:hover path { stroke: red; }
.edge:hover polygon { stroke: red; fill: red; }
]]></style>
<script type="text/javascript"><![CDATA[
var edges = document.getElementsByTagName('g');
if (edges && edges.length) {
  for (var i=0;i<edges.length;i++) {
    if (edges[i].id.substr(0,4)=='edge') {
      edges[i].setAttribute('class','edge');
    }
  }
}
]]></script>
        <defs>
                <circle id="rim" cx="0" cy="0" r="7"/>
                <circle id="rim2" cx="0" cy="0" r="3.5"/>
                <g id="zoomPlus">
                        <use xlink:href="#rim" fill="#404040">
                                <set attributeName="fill" to="#808080" begin="zoomplus.mouseover" end="zoomplus.mouseout"/>
                        </use>
                        <path d="M-4,0h8M0,-4v8" fill="none" stroke="white" stroke-width="1.5" pointer-events="none"/>
                </g>
                <g id="zoomMin">
                        <use xlink:href="#rim" fill="#404040">
                                <set attributeName="fill" to="#808080" begin="zoomminus.mouseover" end="zoomminus.mouseout"/>
                        </use>
                        <path d="M-4,0h8" fill="none" stroke="white" stroke-width="1.5" pointer-events="none"/>
                </g>
                <g id="dirArrow">
                        <path fill="none" stroke="white" stroke-width="1.5" d="M0,-3.0v7 M-2.5,-0.5L0,-3.0L2.5,-0.5"/>
                </g>
               <g id="resetDef">
                       <use xlink:href="#rim2" fill="#404040">
                               <set attributeName="fill" to="#808080" begin="reset.mouseover" end="reset.mouseout"/>
                       </use>
               </g>
        </defs>

<script type="text/javascript">
var viewWidth = 707;
var viewHeight = 118;
var sectionId = 'dynsection-237';
</script>
<script xlink:href="../../svgpan.js"/>
<svg id="graph" class="graph">
<g id="viewport">
<title>RigDef::Parser::ProcessChangeModuleLine</title>
<polygon fill="white" stroke="none" points="-4,4 -4,-114.141 703,-114.141 703,4 -4,4"/>
<!-- Node2845 -->
<g id="node1" class="node"><title>Node2845</title>
<polygon fill="#bfbfbf" stroke="black" points="0,-52 0,-82 155,-82 155,-52 0,-52"/>
<text text-anchor="start" x="8" y="-70" font-family="Helvetica,sans-Serif" font-size="10.00">RigDef::Parser::ProcessChange</text>
<text text-anchor="middle" x="77.5" y="-59" font-family="Helvetica,sans-Serif" font-size="10.00">ModuleLine</text>
</g>
<!-- Node2846 -->
<g id="node2" class="node"><title>Node2846</title>
<g id="a_node2"><a xlink:href="../../d1/da8/class_rig_def_1_1_parser.html#a7da949423835fe3241f2ac4c5ac8ebb1" target="_top" xlink:title="Adds a message to parser report. ">
<polygon fill="white" stroke="black" points="556,-70.5 556,-89.5 699,-89.5 699,-70.5 556,-70.5"/>
<text text-anchor="middle" x="627.5" y="-77.5" font-family="Helvetica,sans-Serif" font-size="10.00">RigDef::Parser::AddMessage</text>
</a>
</g>
</g>
<!-- Node2845&#45;&gt;Node2846 -->
<g id="edge1" class="edge"><title>Node2845&#45;&gt;Node2846</title>
<path fill="none" stroke="midnightblue" d="M150.128,-82.0056C237.572,-98.2866 389.891,-120.066 520,-105 541.528,-102.507 565.024,-97.2695 584.456,-92.2293"/>
<polygon fill="midnightblue" stroke="midnightblue" points="585.455,-95.5854 594.216,-89.6272 583.652,-88.8216 585.455,-95.5854"/>
</g>
<!-- Node2847 -->
<g id="node3" class="node"><title>Node2847</title>
<g id="a_node3"><a xlink:href="../../d1/da8/class_rig_def_1_1_parser.html#a8397c243299359e21a84243c01ca43bf" target="_top" xlink:title="RigDef::Parser::CheckNum\lArguments">
<polygon fill="white" stroke="black" points="382.5,-65 382.5,-95 516.5,-95 516.5,-65 382.5,-65"/>
<text text-anchor="start" x="390.5" y="-83" font-family="Helvetica,sans-Serif" font-size="10.00">RigDef::Parser::CheckNum</text>
<text text-anchor="middle" x="449.5" y="-72" font-family="Helvetica,sans-Serif" font-size="10.00">Arguments</text>
</a>
</g>
</g>
<!-- Node2845&#45;&gt;Node2847 -->
<g id="edge2" class="edge"><title>Node2845&#45;&gt;Node2847</title>
<path fill="none" stroke="midnightblue" d="M155.164,-69.6936C218.725,-71.9268 308.63,-75.0856 372.114,-77.3162"/>
<polygon fill="midnightblue" stroke="midnightblue" points="372.345,-80.8263 382.461,-77.6797 372.591,-73.8307 372.345,-80.8263"/>
</g>
<!-- Node2848 -->
<g id="node4" class="node"><title>Node2848</title>
<g id="a_node4"><a xlink:href="../../d1/da8/class_rig_def_1_1_parser.html#a629f3ff2e6181f7953ec28168b0aac00" target="_top" xlink:title="RigDef::Parser::GetArgStr">
<polygon fill="white" stroke="black" points="202.5,-38.5 202.5,-57.5 331.5,-57.5 331.5,-38.5 202.5,-38.5"/>
<text text-anchor="middle" x="267" y="-45.5" font-family="Helvetica,sans-Serif" font-size="10.00">RigDef::Parser::GetArgStr</text>
</a>
</g>
</g>
<!-- Node2845&#45;&gt;Node2848 -->
<g id="edge4" class="edge"><title>Node2845&#45;&gt;Node2848</title>
<path fill="none" stroke="midnightblue" d="M155.034,-59.2446C167.296,-58.002 179.965,-56.7182 192.163,-55.4822"/>
<polygon fill="midnightblue" stroke="midnightblue" points="192.682,-58.9476 202.278,-54.4571 191.976,-51.9832 192.682,-58.9476"/>
</g>
<!-- Node2849 -->
<g id="node5" class="node"><title>Node2849</title>
<g id="a_node5"><a xlink:href="../../d1/da8/class_rig_def_1_1_parser.html#a43ac79981018f0134d0fe0eb81862554" target="_top" xlink:title="RigDef::Parser::ChangeSection">
<polygon fill="white" stroke="black" points="191,-0.5 191,-19.5 343,-19.5 343,-0.5 191,-0.5"/>
<text text-anchor="middle" x="267" y="-7.5" font-family="Helvetica,sans-Serif" font-size="10.00">RigDef::Parser::ChangeSection</text>
</a>
</g>
</g>
<!-- Node2845&#45;&gt;Node2849 -->
<g id="edge5" class="edge"><title>Node2845&#45;&gt;Node2849</title>
<path fill="none" stroke="midnightblue" d="M120.457,-51.9645C141.507,-44.642 167.471,-35.9428 191,-29 199.056,-26.6229 207.651,-24.2735 216.042,-22.08"/>
<polygon fill="midnightblue" stroke="midnightblue" points="216.938,-25.4634 225.752,-19.5844 215.196,-18.6837 216.938,-25.4634"/>
</g>
<!-- Node2847&#45;&gt;Node2846 -->
<g id="edge3" class="edge"><title>Node2847&#45;&gt;Node2846</title>
<path fill="none" stroke="midnightblue" d="M516.537,-80C526.093,-80 536.018,-80 545.821,-80"/>
<polygon fill="midnightblue" stroke="midnightblue" points="545.972,-83.5001 555.972,-80 545.972,-76.5001 545.972,-83.5001"/>
</g>
<!-- Node2850 -->
<g id="node6" class="node"><title>Node2850</title>
<g id="a_node6"><a xlink:href="../../d1/da8/class_rig_def_1_1_parser.html#a9dfba6b6520265a6bc20919f0d06b9fb" target="_top" xlink:title="RigDef::Parser::ExitSections">
<polygon fill="white" stroke="black" points="379,-13.5 379,-32.5 520,-32.5 520,-13.5 379,-13.5"/>
<text text-anchor="middle" x="449.5" y="-20.5" font-family="Helvetica,sans-Serif" font-size="10.00">RigDef::Parser::ExitSections</text>
</a>
</g>
</g>
<!-- Node2849&#45;&gt;Node2850 -->
<g id="edge6" class="edge"><title>Node2849&#45;&gt;Node2850</title>
<path fill="none" stroke="midnightblue" d="M343.241,-15.419C351.631,-16.0233 360.199,-16.6404 368.644,-17.2486"/>
<polygon fill="midnightblue" stroke="midnightblue" points="368.639,-20.7572 378.864,-17.9847 369.142,-13.7753 368.639,-20.7572"/>
</g>
<!-- Node2850&#45;&gt;Node2846 -->
<g id="edge7" class="edge"><title>Node2850&#45;&gt;Node2846</title>
<path fill="none" stroke="midnightblue" d="M479.958,-32.5405C509.401,-42.076 554.845,-56.7936 587.317,-67.3099"/>
<polygon fill="midnightblue" stroke="midnightblue" points="586.354,-70.6769 596.945,-70.4284 588.51,-64.0175 586.354,-70.6769"/>
</g>
</g>
</svg>
        <g id="navigator" transform="translate(0 0)" fill="#404254">
                <rect fill="#f2f5e9" fill-opacity="0.5" stroke="#606060" stroke-width=".5" x="0" y="0" width="60" height="60"/>
                <use id="zoomplus" xlink:href="#zoomPlus" x="17" y="9" onmousedown="handleZoom(evt,'in')"/>
                <use id="zoomminus" xlink:href="#zoomMin" x="42" y="9" onmousedown="handleZoom(evt,'out')"/>
                <use id="reset" xlink:href="#resetDef" x="30" y="36" onmousedown="handleReset()"/>
                <g id="arrowUp" xlink:href="#dirArrow" transform="translate(30 24)" onmousedown="handlePan(0,-1)">
                  <use xlink:href="#rim" fill="#404040">
                        <set attributeName="fill" to="#808080" begin="arrowUp.mouseover" end="arrowUp.mouseout"/>
                  </use>
                  <path fill="none" stroke="white" stroke-width="1.5" d="M0,-3.0v7 M-2.5,-0.5L0,-3.0L2.5,-0.5"/>
                </g>
                <g id="arrowRight" xlink:href="#dirArrow" transform="rotate(90) translate(36 -43)" onmousedown="handlePan(1,0)">
                  <use xlink:href="#rim" fill="#404040">
                        <set attributeName="fill" to="#808080" begin="arrowRight.mouseover" end="arrowRight.mouseout"/>
                  </use>
                  <path fill="none" stroke="white" stroke-width="1.5" d="M0,-3.0v7 M-2.5,-0.5L0,-3.0L2.5,-0.5"/>
                </g>
                <g id="arrowDown" xlink:href="#dirArrow" transform="rotate(180) translate(-30 -48)" onmousedown="handlePan(0,1)">
                  <use xlink:href="#rim" fill="#404040">
                        <set attributeName="fill" to="#808080" begin="arrowDown.mouseover" end="arrowDown.mouseout"/>
                  </use>
                  <path fill="none" stroke="white" stroke-width="1.5" d="M0,-3.0v7 M-2.5,-0.5L0,-3.0L2.5,-0.5"/>
                </g>
                <g id="arrowLeft" xlink:href="#dirArrow" transform="rotate(270) translate(-36 17)" onmousedown="handlePan(-1,0)">
                  <use xlink:href="#rim" fill="#404040">
                        <set attributeName="fill" to="#808080" begin="arrowLeft.mouseover" end="arrowLeft.mouseout"/>
                  </use>
                  <path fill="none" stroke="white" stroke-width="1.5" d="M0,-3.0v7 M-2.5,-0.5L0,-3.0L2.5,-0.5"/>
                </g>
        </g>
        <svg viewBox="0 0 15 15" width="100%" height="30px" preserveAspectRatio="xMaxYMin meet">
         <g id="arrow_out" transform="scale(0.3 0.3)">
          <a xlink:href="class_rig_def_1_1_parser_aec9b4fc1ef811e9d2d379989820fcf9c_cgraph_org.svg" target="_base">
           <rect id="button" ry="5" rx="5" y="6" x="6" height="38" width="38"
                fill="#f2f5e9" fill-opacity="0.5" stroke="#606060" stroke-width="1.0"/>
           <path id="arrow"
             d="M 11.500037,31.436501 C 11.940474,20.09759 22.043105,11.32322 32.158766,21.979434 L 37.068811,17.246167 C 37.068811,17.246167 37.088388,32 37.088388,32 L 22.160133,31.978069 C 22.160133,31.978069 26.997745,27.140456 26.997745,27.140456 C 18.528582,18.264221 13.291696,25.230495 11.500037,31.436501 z"
             style="fill:#404040;"/>
          </a>
         </g>
        </svg>
</svg>
