<?xml version="1.0" encoding="UTF-8" standalone="no"?>
<!DOCTYPE svg PUBLIC "-//W3C//DTD SVG 1.1//EN"
 "http://www.w3.org/Graphics/SVG/1.1/DTD/svg11.dtd">
<!-- Generated by graphviz version 2.38.0 (20140413.2041)
 -->
<!-- Title: RigDef::Parser::ParseDirectiveDetacherGroup Pages: 1 -->
<!--zoomable 113 -->
<svg id="main" version="1.1" xmlns="http://www.w3.org/2000/svg" xmlns:xlink="http://www.w3.org/1999/xlink" xml:space="preserve" onload="init(evt)">
<style type="text/css"><![CDATA[
.edge:hover path { stroke: red; }
.edge:hover polygon { stroke: red; fill: red; }
]]></style>
<script type="text/javascript"><![CDATA[
var edges = document.getElementsByTagName('g');
if (edges && edges.length) {
  for (var i=0;i<edges.length;i++) {
    if (edges[i].id.substr(0,4)=='edge') {
      edges[i].setAttribute('class','edge');
    }
  }
}
]]></script>
        <defs>
                <circle id="rim" cx="0" cy="0" r="7"/>
                <circle id="rim2" cx="0" cy="0" r="3.5"/>
                <g id="zoomPlus">
                        <use xlink:href="#rim" fill="#404040">
                                <set attributeName="fill" to="#808080" begin="zoomplus.mouseover" end="zoomplus.mouseout"/>
                        </use>
                        <path d="M-4,0h8M0,-4v8" fill="none" stroke="white" stroke-width="1.5" pointer-events="none"/>
                </g>
                <g id="zoomMin">
                        <use xlink:href="#rim" fill="#404040">
                                <set attributeName="fill" to="#808080" begin="zoomminus.mouseover" end="zoomminus.mouseout"/>
                        </use>
                        <path d="M-4,0h8" fill="none" stroke="white" stroke-width="1.5" pointer-events="none"/>
                </g>
                <g id="dirArrow">
                        <path fill="none" stroke="white" stroke-width="1.5" d="M0,-3.0v7 M-2.5,-0.5L0,-3.0L2.5,-0.5"/>
                </g>
               <g id="resetDef">
                       <use xlink:href="#rim2" fill="#404040">
                               <set attributeName="fill" to="#808080" begin="reset.mouseover" end="reset.mouseout"/>
                       </use>
               </g>
        </defs>

<script type="text/javascript">
var viewWidth = 1123;
var viewHeight = 113;
var sectionId = 'dynsection-108';
</script>
<script xlink:href="../../svgpan.js"/>
<svg id="graph" class="graph">
<g id="viewport">
<title>RigDef::Parser::ParseDirectiveDetacherGroup</title>
<polygon fill="white" stroke="none" points="-4,4 -4,-108.5 1119,-108.5 1119,4 -4,4"/>
<!-- Node1486 -->
<g id="node1" class="node"><title>Node1486</title>
<polygon fill="#bfbfbf" stroke="black" points="0,-49 0,-79 148,-79 148,-49 0,-49"/>
<text text-anchor="start" x="8" y="-67" font-family="Helvetica,sans-Serif" font-size="10.00">RigDef::Parser::ParseDirective</text>
<text text-anchor="middle" x="74" y="-56" font-family="Helvetica,sans-Serif" font-size="10.00">DetacherGroup</text>
</g>
<!-- Node1487 -->
<g id="node2" class="node"><title>Node1487</title>
<g id="a_node2"><a xlink:href="../../d1/da8/class_rig_def_1_1_parser.html#a99a49d75798b1fa5dfbd00873455fbeb" target="_top" xlink:title="RigDef::Parser::ProcessCurrentLine">
<polygon fill="white" stroke="black" points="184,-73.5 184,-92.5 355,-92.5 355,-73.5 184,-73.5"/>
<text text-anchor="middle" x="269.5" y="-80.5" font-family="Helvetica,sans-Serif" font-size="10.00">RigDef::Parser::ProcessCurrentLine</text>
</a>
</g>
</g>
<!-- Node1486&#45;&gt;Node1487 -->
<g id="edge1" class="edge"><title>Node1486&#45;&gt;Node1487</title>
<path fill="none" stroke="midnightblue" d="M158.375,-72.1867C166.825,-73.0164 175.414,-73.8597 183.877,-74.6907"/>
<polygon fill="midnightblue" stroke="midnightblue" points="158.448,-68.6771 148.154,-71.1831 157.764,-75.6436 158.448,-68.6771"/>
</g>
<!-- Node1495 -->
<g id="node10" class="node"><title>Node1495</title>
<g id="a_node10"><a xlink:href="../../d1/da8/class_rig_def_1_1_parser.html#a5ab95d1e21230f5477cc7c6cfca95c0e" target="_top" xlink:title="RigDef::Parser::GetMessages\lNumOther">
<polygon fill="white" stroke="black" points="397,-30 397,-60 543,-60 543,-30 397,-30"/>
<text text-anchor="start" x="405" y="-48" font-family="Helvetica,sans-Serif" font-size="10.00">RigDef::Parser::GetMessages</text>
<text text-anchor="middle" x="470" y="-37" font-family="Helvetica,sans-Serif" font-size="10.00">NumOther</text>
</a>
</g>
</g>
<!-- Node1486&#45;&gt;Node1495 -->
<g id="edge11" class="edge"><title>Node1486&#45;&gt;Node1495</title>
<path fill="none" stroke="midnightblue" d="M158.398,-59.9782C229.133,-56.5672 329.553,-51.7246 396.872,-48.4782"/>
<polygon fill="midnightblue" stroke="midnightblue" points="158.005,-56.4931 148.185,-60.4708 158.342,-63.4849 158.005,-56.4931"/>
</g>
<!-- Node1488 -->
<g id="node3" class="node"><title>Node1488</title>
<g id="a_node3"><a xlink:href="../../d1/da8/class_rig_def_1_1_parser.html#ad1920ba0a8dc23ac5043b2c270ef5f47" target="_top" xlink:title="RigDef::Parser::ProcessRawLine">
<polygon fill="white" stroke="black" points="391,-79.5 391,-98.5 549,-98.5 549,-79.5 391,-79.5"/>
<text text-anchor="middle" x="470" y="-86.5" font-family="Helvetica,sans-Serif" font-size="10.00">RigDef::Parser::ProcessRawLine</text>
</a>
</g>
</g>
<!-- Node1487&#45;&gt;Node1488 -->
<g id="edge2" class="edge"><title>Node1487&#45;&gt;Node1488</title>
<path fill="none" stroke="midnightblue" d="M365.267,-85.8645C373.823,-86.1231 382.424,-86.3831 390.815,-86.6367"/>
<polygon fill="midnightblue" stroke="midnightblue" points="365.359,-82.3658 355.258,-85.5619 365.147,-89.3626 365.359,-82.3658"/>
</g>
<!-- Node1487&#45;&gt;Node1495 -->
<g id="edge9" class="edge"><title>Node1487&#45;&gt;Node1495</title>
<path fill="none" stroke="midnightblue" d="M330.336,-71.5453C351.206,-67.55 374.852,-63.0232 396.631,-58.854"/>
<polygon fill="midnightblue" stroke="midnightblue" points="329.497,-68.1422 320.334,-73.46 330.813,-75.0173 329.497,-68.1422"/>
</g>
<!-- Node1489 -->
<g id="node4" class="node"><title>Node1489</title>
<g id="a_node4"><a xlink:href="../../d1/da8/class_rig_def_1_1_parser.html#ab08d0ba4ffb90b72cb351014bb7861bd" target="_top" xlink:title="RigDef::Parser::ProcessOgre\lStream">
<polygon fill="white" stroke="black" points="585,-74 585,-104 728,-104 728,-74 585,-74"/>
<text text-anchor="start" x="593" y="-92" font-family="Helvetica,sans-Serif" font-size="10.00">RigDef::Parser::ProcessOgre</text>
<text text-anchor="middle" x="656.5" y="-81" font-family="Helvetica,sans-Serif" font-size="10.00">Stream</text>
</a>
</g>
</g>
<!-- Node1488&#45;&gt;Node1489 -->
<g id="edge3" class="edge"><title>Node1488&#45;&gt;Node1489</title>
<path fill="none" stroke="midnightblue" d="M559.245,-89C567.797,-89 576.395,-89 584.745,-89"/>
<polygon fill="midnightblue" stroke="midnightblue" points="559.245,-85.5001 549.245,-89 559.245,-92.5001 559.245,-85.5001"/>
</g>
<!-- Node1490 -->
<g id="node5" class="node"><title>Node1490</title>
<g id="a_node5"><a xlink:href="../../df/df9/class_beam.html#ab0cbc6c4e3822fc5786af2c8036f7efb" target="_top" xlink:title="Beam::LoadTruck">
<polygon fill="white" stroke="black" points="796,-36.5 796,-55.5 889,-55.5 889,-36.5 796,-36.5"/>
<text text-anchor="middle" x="842.5" y="-43.5" font-family="Helvetica,sans-Serif" font-size="10.00">Beam::LoadTruck</text>
</a>
</g>
</g>
<!-- Node1489&#45;&gt;Node1490 -->
<g id="edge4" class="edge"><title>Node1489&#45;&gt;Node1490</title>
<path fill="none" stroke="midnightblue" d="M731.822,-71.6312C755.355,-66.1318 780.49,-60.2578 800.754,-55.5223"/>
<polygon fill="midnightblue" stroke="midnightblue" points="730.795,-68.2768 721.854,-73.9607 732.388,-75.0931 730.795,-68.2768"/>
</g>
<!-- Node1493 -->
<g id="node8" class="node"><title>Node1493</title>
<g id="a_node8"><a xlink:href="../../d7/d35/class_cache_system.html#ad640fd28c3075eb6310d8d8f3475cefb" target="_top" xlink:title="CacheSystem::fillTruckDetailInfo">
<polygon fill="white" stroke="black" points="764,-79.5 764,-98.5 921,-98.5 921,-79.5 764,-79.5"/>
<text text-anchor="middle" x="842.5" y="-86.5" font-family="Helvetica,sans-Serif" font-size="10.00">CacheSystem::fillTruckDetailInfo</text>
</a>
</g>
</g>
<!-- Node1489&#45;&gt;Node1493 -->
<g id="edge7" class="edge"><title>Node1489&#45;&gt;Node1493</title>
<path fill="none" stroke="midnightblue" d="M738.322,-89C746.759,-89 755.324,-89 763.726,-89"/>
<polygon fill="midnightblue" stroke="midnightblue" points="738.113,-85.5001 728.113,-89 738.113,-92.5001 738.113,-85.5001"/>
</g>
<!-- Node1491 -->
<g id="node6" class="node"><title>Node1491</title>
<g id="a_node6"><a xlink:href="../../df/df9/class_beam.html#a0d55b25fa0d1623305f3ac51694cbd42" target="_top" xlink:title="Beam::Beam">
<polygon fill="white" stroke="black" points="999,-38.5 999,-57.5 1073,-57.5 1073,-38.5 999,-38.5"/>
<text text-anchor="middle" x="1036" y="-45.5" font-family="Helvetica,sans-Serif" font-size="10.00">Beam::Beam</text>
</a>
</g>
</g>
<!-- Node1490&#45;&gt;Node1491 -->
<g id="edge5" class="edge"><title>Node1490&#45;&gt;Node1491</title>
<path fill="none" stroke="midnightblue" d="M899.492,-46.5848C931.524,-46.9193 970.774,-47.3292 998.772,-47.6216"/>
<polygon fill="midnightblue" stroke="midnightblue" points="899.405,-43.0838 889.369,-46.479 899.332,-50.0834 899.405,-43.0838"/>
</g>
<!-- Node1492 -->
<g id="node7" class="node"><title>Node1492</title>
<g id="a_node7"><a xlink:href="../../df/df9/class_beam.html#a3176be8102041493ae018fd5d66607dd" target="_top" xlink:title="Beam::getVelocity">
<polygon fill="white" stroke="black" points="987.5,-0.5 987.5,-19.5 1084.5,-19.5 1084.5,-0.5 987.5,-0.5"/>
<text text-anchor="middle" x="1036" y="-7.5" font-family="Helvetica,sans-Serif" font-size="10.00">Beam::getVelocity</text>
</a>
</g>
</g>
<!-- Node1490&#45;&gt;Node1492 -->
<g id="edge6" class="edge"><title>Node1490&#45;&gt;Node1492</title>
<path fill="none" stroke="midnightblue" d="M899.356,-35.4996C927.198,-30.2657 960.52,-24.0015 987.169,-18.9916"/>
<polygon fill="midnightblue" stroke="midnightblue" points="898.55,-32.0897 889.369,-37.3771 899.844,-38.9692 898.55,-32.0897"/>
</g>
<!-- Node1494 -->
<g id="node9" class="node"><title>Node1494</title>
<g id="a_node9"><a xlink:href="../../d7/d35/class_cache_system.html#a20bd63ee907dd205ccef715db6dc9b5c" target="_top" xlink:title="CacheSystem::getUIDfromString">
<polygon fill="white" stroke="black" points="957,-79.5 957,-98.5 1115,-98.5 1115,-79.5 957,-79.5"/>
<text text-anchor="middle" x="1036" y="-86.5" font-family="Helvetica,sans-Serif" font-size="10.00">CacheSystem::getUIDfromString</text>
</a>
</g>
</g>
<!-- Node1493&#45;&gt;Node1494 -->
<g id="edge8" class="edge"><title>Node1493&#45;&gt;Node1494</title>
<path fill="none" stroke="midnightblue" d="M931.161,-89C939.768,-89 948.462,-89 956.964,-89"/>
<polygon fill="midnightblue" stroke="midnightblue" points="931.114,-85.5001 921.114,-89 931.114,-92.5001 931.114,-85.5001"/>
</g>
<!-- Node1495&#45;&gt;Node1490 -->
<g id="edge10" class="edge"><title>Node1495&#45;&gt;Node1490</title>
<path fill="none" stroke="midnightblue" d="M553.637,-45.223C628.378,-45.4248 735.673,-45.7144 795.937,-45.877"/>
<polygon fill="midnightblue" stroke="midnightblue" points="553.325,-41.7223 543.316,-45.1952 553.306,-48.7223 553.325,-41.7223"/>
</g>
</g>
</svg>
        <g id="navigator" transform="translate(0 0)" fill="#404254">
                <rect fill="#f2f5e9" fill-opacity="0.5" stroke="#606060" stroke-width=".5" x="0" y="0" width="60" height="60"/>
                <use id="zoomplus" xlink:href="#zoomPlus" x="17" y="9" onmousedown="handleZoom(evt,'in')"/>
                <use id="zoomminus" xlink:href="#zoomMin" x="42" y="9" onmousedown="handleZoom(evt,'out')"/>
                <use id="reset" xlink:href="#resetDef" x="30" y="36" onmousedown="handleReset()"/>
                <g id="arrowUp" xlink:href="#dirArrow" transform="translate(30 24)" onmousedown="handlePan(0,-1)">
                  <use xlink:href="#rim" fill="#404040">
                        <set attributeName="fill" to="#808080" begin="arrowUp.mouseover" end="arrowUp.mouseout"/>
                  </use>
                  <path fill="none" stroke="white" stroke-width="1.5" d="M0,-3.0v7 M-2.5,-0.5L0,-3.0L2.5,-0.5"/>
                </g>
                <g id="arrowRight" xlink:href="#dirArrow" transform="rotate(90) translate(36 -43)" onmousedown="handlePan(1,0)">
                  <use xlink:href="#rim" fill="#404040">
                        <set attributeName="fill" to="#808080" begin="arrowRight.mouseover" end="arrowRight.mouseout"/>
                  </use>
                  <path fill="none" stroke="white" stroke-width="1.5" d="M0,-3.0v7 M-2.5,-0.5L0,-3.0L2.5,-0.5"/>
                </g>
                <g id="arrowDown" xlink:href="#dirArrow" transform="rotate(180) translate(-30 -48)" onmousedown="handlePan(0,1)">
                  <use xlink:href="#rim" fill="#404040">
                        <set attributeName="fill" to="#808080" begin="arrowDown.mouseover" end="arrowDown.mouseout"/>
                  </use>
                  <path fill="none" stroke="white" stroke-width="1.5" d="M0,-3.0v7 M-2.5,-0.5L0,-3.0L2.5,-0.5"/>
                </g>
                <g id="arrowLeft" xlink:href="#dirArrow" transform="rotate(270) translate(-36 17)" onmousedown="handlePan(-1,0)">
                  <use xlink:href="#rim" fill="#404040">
                        <set attributeName="fill" to="#808080" begin="arrowLeft.mouseover" end="arrowLeft.mouseout"/>
                  </use>
                  <path fill="none" stroke="white" stroke-width="1.5" d="M0,-3.0v7 M-2.5,-0.5L0,-3.0L2.5,-0.5"/>
                </g>
        </g>
        <svg viewBox="0 0 15 15" width="100%" height="30px" preserveAspectRatio="xMaxYMin meet">
         <g id="arrow_out" transform="scale(0.3 0.3)">
          <a xlink:href="class_rig_def_1_1_parser_af81d4924e1e13bad62dd84b4d3b6cd37_icgraph_org.svg" target="_base">
           <rect id="button" ry="5" rx="5" y="6" x="6" height="38" width="38"
                fill="#f2f5e9" fill-opacity="0.5" stroke="#606060" stroke-width="1.0"/>
           <path id="arrow"
             d="M 11.500037,31.436501 C 11.940474,20.09759 22.043105,11.32322 32.158766,21.979434 L 37.068811,17.246167 C 37.068811,17.246167 37.088388,32 37.088388,32 L 22.160133,31.978069 C 22.160133,31.978069 26.997745,27.140456 26.997745,27.140456 C 18.528582,18.264221 13.291696,25.230495 11.500037,31.436501 z"
             style="fill:#404040;"/>
          </a>
         </g>
        </svg>
</svg>
