<?xml version="1.0" encoding="UTF-8" standalone="no"?>
<!DOCTYPE svg PUBLIC "-//W3C//DTD SVG 1.1//EN"
 "http://www.w3.org/Graphics/SVG/1.1/DTD/svg11.dtd">
<!-- Generated by graphviz version 2.38.0 (20140413.2041)
 -->
<!-- Title: RigDef::Parser::ProcessOgreStream Pages: 1 -->
<!--zoomable 104 -->
<svg id="main" version="1.1" xmlns="http://www.w3.org/2000/svg" xmlns:xlink="http://www.w3.org/1999/xlink" xml:space="preserve" onload="init(evt)">
<style type="text/css"><![CDATA[
.edge:hover path { stroke: red; }
.edge:hover polygon { stroke: red; fill: red; }
]]></style>
<script type="text/javascript"><![CDATA[
var edges = document.getElementsByTagName('g');
if (edges && edges.length) {
  for (var i=0;i<edges.length;i++) {
    if (edges[i].id.substr(0,4)=='edge') {
      edges[i].setAttribute('class','edge');
    }
  }
}
]]></script>
        <defs>
                <circle id="rim" cx="0" cy="0" r="7"/>
                <circle id="rim2" cx="0" cy="0" r="3.5"/>
                <g id="zoomPlus">
                        <use xlink:href="#rim" fill="#404040">
                                <set attributeName="fill" to="#808080" begin="zoomplus.mouseover" end="zoomplus.mouseout"/>
                        </use>
                        <path d="M-4,0h8M0,-4v8" fill="none" stroke="white" stroke-width="1.5" pointer-events="none"/>
                </g>
                <g id="zoomMin">
                        <use xlink:href="#rim" fill="#404040">
                                <set attributeName="fill" to="#808080" begin="zoomminus.mouseover" end="zoomminus.mouseout"/>
                        </use>
                        <path d="M-4,0h8" fill="none" stroke="white" stroke-width="1.5" pointer-events="none"/>
                </g>
                <g id="dirArrow">
                        <path fill="none" stroke="white" stroke-width="1.5" d="M0,-3.0v7 M-2.5,-0.5L0,-3.0L2.5,-0.5"/>
                </g>
               <g id="resetDef">
                       <use xlink:href="#rim2" fill="#404040">
                               <set attributeName="fill" to="#808080" begin="reset.mouseover" end="reset.mouseout"/>
                       </use>
               </g>
        </defs>

<script type="text/javascript">
var viewWidth = 538;
var viewHeight = 104;
var sectionId = 'dynsection-250';
</script>
<script xlink:href="../../svgpan.js"/>
<svg id="graph" class="graph">
<g id="viewport">
<title>RigDef::Parser::ProcessOgreStream</title>
<polygon fill="white" stroke="none" points="-4,4 -4,-100 534,-100 534,4 -4,4"/>
<!-- Node3217 -->
<g id="node1" class="node"><title>Node3217</title>
<polygon fill="#bfbfbf" stroke="black" points="0,-14 0,-44 143,-44 143,-14 0,-14"/>
<text text-anchor="start" x="8" y="-32" font-family="Helvetica,sans-Serif" font-size="10.00">RigDef::Parser::ProcessOgre</text>
<text text-anchor="middle" x="71.5" y="-21" font-family="Helvetica,sans-Serif" font-size="10.00">Stream</text>
</g>
<!-- Node3218 -->
<g id="node2" class="node"><title>Node3218</title>
<g id="a_node2"><a xlink:href="../../df/df9/class_beam.html#ab0cbc6c4e3822fc5786af2c8036f7efb" target="_top" xlink:title="Beam::LoadTruck">
<polygon fill="white" stroke="black" points="211,-38.5 211,-57.5 304,-57.5 304,-38.5 211,-38.5"/>
<text text-anchor="middle" x="257.5" y="-45.5" font-family="Helvetica,sans-Serif" font-size="10.00">Beam::LoadTruck</text>
</a>
</g>
</g>
<!-- Node3217&#45;&gt;Node3218 -->
<g id="edge1" class="edge"><title>Node3217&#45;&gt;Node3218</title>
<path fill="none" stroke="midnightblue" d="M153.324,-37.346C173.009,-39.3787 193.387,-41.4829 210.78,-43.279"/>
<polygon fill="midnightblue" stroke="midnightblue" points="153.42,-33.8373 143.113,-36.2916 152.701,-40.8003 153.42,-33.8373"/>
</g>
<!-- Node3221 -->
<g id="node5" class="node"><title>Node3221</title>
<g id="a_node5"><a xlink:href="../../d7/d35/class_cache_system.html#ad640fd28c3075eb6310d8d8f3475cefb" target="_top" xlink:title="CacheSystem::fillTruckDetailInfo">
<polygon fill="white" stroke="black" points="179,-0.5 179,-19.5 336,-19.5 336,-0.5 179,-0.5"/>
<text text-anchor="middle" x="257.5" y="-7.5" font-family="Helvetica,sans-Serif" font-size="10.00">CacheSystem::fillTruckDetailInfo</text>
</a>
</g>
</g>
<!-- Node3217&#45;&gt;Node3221 -->
<g id="edge4" class="edge"><title>Node3217&#45;&gt;Node3221</title>
<path fill="none" stroke="midnightblue" d="M153.322,-20.6543C161.759,-19.783 170.324,-18.8987 178.726,-18.031"/>
<polygon fill="midnightblue" stroke="midnightblue" points="152.701,-17.1997 143.113,-21.7084 153.42,-24.1627 152.701,-17.1997"/>
</g>
<!-- Node3219 -->
<g id="node3" class="node"><title>Node3219</title>
<g id="a_node3"><a xlink:href="../../df/df9/class_beam.html#a0d55b25fa0d1623305f3ac51694cbd42" target="_top" xlink:title="Beam::Beam">
<polygon fill="white" stroke="black" points="414,-76.5 414,-95.5 488,-95.5 488,-76.5 414,-76.5"/>
<text text-anchor="middle" x="451" y="-83.5" font-family="Helvetica,sans-Serif" font-size="10.00">Beam::Beam</text>
</a>
</g>
</g>
<!-- Node3218&#45;&gt;Node3219 -->
<g id="edge2" class="edge"><title>Node3218&#45;&gt;Node3219</title>
<path fill="none" stroke="midnightblue" d="M314.492,-59.1107C346.524,-65.4669 385.774,-73.2555 413.772,-78.8111"/>
<polygon fill="midnightblue" stroke="midnightblue" points="314.859,-55.6153 304.369,-57.1019 313.497,-62.4815 314.859,-55.6153"/>
</g>
<!-- Node3220 -->
<g id="node4" class="node"><title>Node3220</title>
<g id="a_node4"><a xlink:href="../../df/df9/class_beam.html#a3176be8102041493ae018fd5d66607dd" target="_top" xlink:title="Beam::getVelocity">
<polygon fill="white" stroke="black" points="402.5,-38.5 402.5,-57.5 499.5,-57.5 499.5,-38.5 402.5,-38.5"/>
<text text-anchor="middle" x="451" y="-45.5" font-family="Helvetica,sans-Serif" font-size="10.00">Beam::getVelocity</text>
</a>
</g>
</g>
<!-- Node3218&#45;&gt;Node3220 -->
<g id="edge3" class="edge"><title>Node3218&#45;&gt;Node3220</title>
<path fill="none" stroke="midnightblue" d="M314.723,-48C342.49,-48 375.637,-48 402.169,-48"/>
<polygon fill="midnightblue" stroke="midnightblue" points="314.369,-44.5001 304.369,-48 314.369,-51.5001 314.369,-44.5001"/>
</g>
<!-- Node3222 -->
<g id="node6" class="node"><title>Node3222</title>
<g id="a_node6"><a xlink:href="../../d7/d35/class_cache_system.html#a20bd63ee907dd205ccef715db6dc9b5c" target="_top" xlink:title="CacheSystem::getUIDfromString">
<polygon fill="white" stroke="black" points="372,-0.5 372,-19.5 530,-19.5 530,-0.5 372,-0.5"/>
<text text-anchor="middle" x="451" y="-7.5" font-family="Helvetica,sans-Serif" font-size="10.00">CacheSystem::getUIDfromString</text>
</a>
</g>
</g>
<!-- Node3221&#45;&gt;Node3222 -->
<g id="edge5" class="edge"><title>Node3221&#45;&gt;Node3222</title>
<path fill="none" stroke="midnightblue" d="M346.161,-10C354.768,-10 363.462,-10 371.964,-10"/>
<polygon fill="midnightblue" stroke="midnightblue" points="346.114,-6.5001 336.114,-10 346.114,-13.5001 346.114,-6.5001"/>
</g>
</g>
</svg>
        <g id="navigator" transform="translate(0 0)" fill="#404254">
                <rect fill="#f2f5e9" fill-opacity="0.5" stroke="#606060" stroke-width=".5" x="0" y="0" width="60" height="60"/>
                <use id="zoomplus" xlink:href="#zoomPlus" x="17" y="9" onmousedown="handleZoom(evt,'in')"/>
                <use id="zoomminus" xlink:href="#zoomMin" x="42" y="9" onmousedown="handleZoom(evt,'out')"/>
                <use id="reset" xlink:href="#resetDef" x="30" y="36" onmousedown="handleReset()"/>
                <g id="arrowUp" xlink:href="#dirArrow" transform="translate(30 24)" onmousedown="handlePan(0,-1)">
                  <use xlink:href="#rim" fill="#404040">
                        <set attributeName="fill" to="#808080" begin="arrowUp.mouseover" end="arrowUp.mouseout"/>
                  </use>
                  <path fill="none" stroke="white" stroke-width="1.5" d="M0,-3.0v7 M-2.5,-0.5L0,-3.0L2.5,-0.5"/>
                </g>
                <g id="arrowRight" xlink:href="#dirArrow" transform="rotate(90) translate(36 -43)" onmousedown="handlePan(1,0)">
                  <use xlink:href="#rim" fill="#404040">
                        <set attributeName="fill" to="#808080" begin="arrowRight.mouseover" end="arrowRight.mouseout"/>
                  </use>
                  <path fill="none" stroke="white" stroke-width="1.5" d="M0,-3.0v7 M-2.5,-0.5L0,-3.0L2.5,-0.5"/>
                </g>
                <g id="arrowDown" xlink:href="#dirArrow" transform="rotate(180) translate(-30 -48)" onmousedown="handlePan(0,1)">
                  <use xlink:href="#rim" fill="#404040">
                        <set attributeName="fill" to="#808080" begin="arrowDown.mouseover" end="arrowDown.mouseout"/>
                  </use>
                  <path fill="none" stroke="white" stroke-width="1.5" d="M0,-3.0v7 M-2.5,-0.5L0,-3.0L2.5,-0.5"/>
                </g>
                <g id="arrowLeft" xlink:href="#dirArrow" transform="rotate(270) translate(-36 17)" onmousedown="handlePan(-1,0)">
                  <use xlink:href="#rim" fill="#404040">
                        <set attributeName="fill" to="#808080" begin="arrowLeft.mouseover" end="arrowLeft.mouseout"/>
                  </use>
                  <path fill="none" stroke="white" stroke-width="1.5" d="M0,-3.0v7 M-2.5,-0.5L0,-3.0L2.5,-0.5"/>
                </g>
        </g>
        <svg viewBox="0 0 15 15" width="100%" height="30px" preserveAspectRatio="xMaxYMin meet">
         <g id="arrow_out" transform="scale(0.3 0.3)">
          <a xlink:href="class_rig_def_1_1_parser_ab08d0ba4ffb90b72cb351014bb7861bd_icgraph_org.svg" target="_base">
           <rect id="button" ry="5" rx="5" y="6" x="6" height="38" width="38"
                fill="#f2f5e9" fill-opacity="0.5" stroke="#606060" stroke-width="1.0"/>
           <path id="arrow"
             d="M 11.500037,31.436501 C 11.940474,20.09759 22.043105,11.32322 32.158766,21.979434 L 37.068811,17.246167 C 37.068811,17.246167 37.088388,32 37.088388,32 L 22.160133,31.978069 C 22.160133,31.978069 26.997745,27.140456 26.997745,27.140456 C 18.528582,18.264221 13.291696,25.230495 11.500037,31.436501 z"
             style="fill:#404040;"/>
          </a>
         </g>
        </svg>
</svg>
