<?xml version="1.0" encoding="UTF-8" standalone="no"?>
<!DOCTYPE svg PUBLIC "-//W3C//DTD SVG 1.1//EN"
 "http://www.w3.org/Graphics/SVG/1.1/DTD/svg11.dtd">
<!-- Generated by graphviz version 2.38.0 (20140413.2041)
 -->
<!-- Title: RigDef::Parser::ParseCameraRails Pages: 1 -->
<svg width="1046pt" height="225pt"
 viewBox="0.00 0.00 1046.00 225.00" xmlns="http://www.w3.org/2000/svg" xmlns:xlink="http://www.w3.org/1999/xlink">
<g id="graph0" class="graph" transform="scale(1 1) rotate(0) translate(4 221)">
<title>RigDef::Parser::ParseCameraRails</title>
<polygon fill="white" stroke="none" points="-4,4 -4,-221 1042,-221 1042,4 -4,4"/>
<!-- Node1292 -->
<g id="node1" class="node"><title>Node1292</title>
<polygon fill="#bfbfbf" stroke="black" points="0,-52.5 0,-82.5 145,-82.5 145,-52.5 0,-52.5"/>
<text text-anchor="start" x="8" y="-70.5" font-family="Helvetica,sans-Serif" font-size="10.00">RigDef::Parser::ParseCamera</text>
<text text-anchor="middle" x="72.5" y="-59.5" font-family="Helvetica,sans-Serif" font-size="10.00">Rails</text>
</g>
<!-- Node1293 -->
<g id="node2" class="node"><title>Node1293</title>
<g id="a_node2"><a xlink:href="../../d1/da8/class_rig_def_1_1_parser.html#a57b7efa0a566ae343d6148a05d420eae" target="_top" xlink:title="RigDef::Parser::GetArgNodeRef">
<polygon fill="white" stroke="black" points="181,-58 181,-77 334,-77 334,-58 181,-58"/>
<text text-anchor="middle" x="257.5" y="-65" font-family="Helvetica,sans-Serif" font-size="10.00">RigDef::Parser::GetArgNodeRef</text>
</a>
</g>
</g>
<!-- Node1292&#45;&gt;Node1293 -->
<g id="edge1" class="edge"><title>Node1292&#45;&gt;Node1293</title>
<path fill="none" stroke="midnightblue" d="M145.039,-67.5C153.469,-67.5 162.137,-67.5 170.737,-67.5"/>
<polygon fill="midnightblue" stroke="midnightblue" points="170.783,-71.0001 180.783,-67.5 170.783,-64.0001 170.783,-71.0001"/>
</g>
<!-- Node1294 -->
<g id="node3" class="node"><title>Node1294</title>
<g id="a_node3"><a xlink:href="../../d1/da8/class_rig_def_1_1_parser.html#a38e4135df406da0cc2f0fc4afb34ddb3" target="_top" xlink:title="RigDef::Parser::_ParseNodeRef">
<polygon fill="white" stroke="black" points="370,-77 370,-96 523,-96 523,-77 370,-77"/>
<text text-anchor="middle" x="446.5" y="-84" font-family="Helvetica,sans-Serif" font-size="10.00">RigDef::Parser::_ParseNodeRef</text>
</a>
</g>
</g>
<!-- Node1293&#45;&gt;Node1294 -->
<g id="edge2" class="edge"><title>Node1293&#45;&gt;Node1294</title>
<path fill="none" stroke="midnightblue" d="M334.021,-75.1733C342.472,-76.032 351.127,-76.9113 359.696,-77.7819"/>
<polygon fill="midnightblue" stroke="midnightblue" points="359.394,-81.2692 369.697,-78.7981 360.102,-74.3051 359.394,-81.2692"/>
</g>
<!-- Node1304 -->
<g id="node13" class="node"><title>Node1304</title>
<g id="a_node13"><a xlink:href="../../d1/da8/class_rig_def_1_1_parser.html#a629f3ff2e6181f7953ec28168b0aac00" target="_top" xlink:title="RigDef::Parser::GetArgStr">
<polygon fill="white" stroke="black" points="382,-39 382,-58 511,-58 511,-39 382,-39"/>
<text text-anchor="middle" x="446.5" y="-46" font-family="Helvetica,sans-Serif" font-size="10.00">RigDef::Parser::GetArgStr</text>
</a>
</g>
</g>
<!-- Node1293&#45;&gt;Node1304 -->
<g id="edge14" class="edge"><title>Node1293&#45;&gt;Node1304</title>
<path fill="none" stroke="midnightblue" d="M334.021,-59.8267C346.454,-58.5635 359.328,-57.2554 371.718,-55.9966"/>
<polygon fill="midnightblue" stroke="midnightblue" points="372.397,-59.4457 381.992,-54.9527 371.689,-52.4816 372.397,-59.4457"/>
</g>
<!-- Node1295 -->
<g id="node4" class="node"><title>Node1295</title>
<g id="a_node4"><a xlink:href="../../d4/d43/class_rig_def_1_1_sequential_importer.html#ada562d6df02ffd616a611f8bac249f05" target="_top" xlink:title="RigDef::SequentialImporter\l::IsEnabled">
<polygon fill="white" stroke="black" points="564.5,-93.5 564.5,-123.5 696.5,-123.5 696.5,-93.5 564.5,-93.5"/>
<text text-anchor="start" x="572.5" y="-111.5" font-family="Helvetica,sans-Serif" font-size="10.00">RigDef::SequentialImporter</text>
<text text-anchor="middle" x="630.5" y="-100.5" font-family="Helvetica,sans-Serif" font-size="10.00">::IsEnabled</text>
</a>
</g>
</g>
<!-- Node1294&#45;&gt;Node1295 -->
<g id="edge3" class="edge"><title>Node1294&#45;&gt;Node1295</title>
<path fill="none" stroke="midnightblue" d="M523.103,-95.6389C533.358,-96.8784 543.881,-98.1505 554.132,-99.3896"/>
<polygon fill="midnightblue" stroke="midnightblue" points="553.924,-102.89 564.272,-100.615 554.764,-95.9404 553.924,-102.89"/>
</g>
<!-- Node1303 -->
<g id="node12" class="node"><title>Node1303</title>
<g id="a_node12"><a xlink:href="../../d1/da8/class_rig_def_1_1_parser.html#a7da949423835fe3241f2ac4c5ac8ebb1" target="_top" xlink:title="Adds a message to parser report. ">
<polygon fill="white" stroke="black" points="559,-55 559,-74 702,-74 702,-55 559,-55"/>
<text text-anchor="middle" x="630.5" y="-62" font-family="Helvetica,sans-Serif" font-size="10.00">RigDef::Parser::AddMessage</text>
</a>
</g>
</g>
<!-- Node1294&#45;&gt;Node1303 -->
<g id="edge13" class="edge"><title>Node1294&#45;&gt;Node1303</title>
<path fill="none" stroke="midnightblue" d="M523.103,-77.3611C531.597,-76.3344 540.275,-75.2854 548.83,-74.2513"/>
<polygon fill="midnightblue" stroke="midnightblue" points="549.29,-77.7213 558.797,-73.0465 548.449,-70.7719 549.29,-77.7213"/>
</g>
<!-- Node1296 -->
<g id="node5" class="node"><title>Node1296</title>
<g id="a_node5"><a xlink:href="../../d4/d43/class_rig_def_1_1_sequential_importer.html#ad9fb7d3deecbb9f94ac85ff061459795" target="_top" xlink:title="RigDef::SequentialImporter\l::AddNumberedNode">
<polygon fill="white" stroke="black" points="738,-186.5 738,-216.5 870,-216.5 870,-186.5 738,-186.5"/>
<text text-anchor="start" x="746" y="-204.5" font-family="Helvetica,sans-Serif" font-size="10.00">RigDef::SequentialImporter</text>
<text text-anchor="middle" x="804" y="-193.5" font-family="Helvetica,sans-Serif" font-size="10.00">::AddNumberedNode</text>
</a>
</g>
</g>
<!-- Node1295&#45;&gt;Node1296 -->
<g id="edge4" class="edge"><title>Node1295&#45;&gt;Node1296</title>
<path fill="none" stroke="midnightblue" d="M651.901,-123.673C672.76,-138.708 706.482,-161.715 738,-177.5 741.47,-179.238 745.099,-180.919 748.79,-182.53"/>
<polygon fill="midnightblue" stroke="midnightblue" points="747.463,-185.769 758.04,-186.383 750.154,-179.307 747.463,-185.769"/>
</g>
<!-- Node1298 -->
<g id="node7" class="node"><title>Node1298</title>
<g id="a_node7"><a xlink:href="../../d4/d43/class_rig_def_1_1_sequential_importer.html#a0d1350e2b0c44cff66a9c73c17baf9dd" target="_top" xlink:title="RigDef::SequentialImporter\l::AddNamedNode">
<polygon fill="white" stroke="black" points="738,-137.5 738,-167.5 870,-167.5 870,-137.5 738,-137.5"/>
<text text-anchor="start" x="746" y="-155.5" font-family="Helvetica,sans-Serif" font-size="10.00">RigDef::SequentialImporter</text>
<text text-anchor="middle" x="804" y="-144.5" font-family="Helvetica,sans-Serif" font-size="10.00">::AddNamedNode</text>
</a>
</g>
</g>
<!-- Node1295&#45;&gt;Node1298 -->
<g id="edge6" class="edge"><title>Node1295&#45;&gt;Node1298</title>
<path fill="none" stroke="midnightblue" d="M690.041,-123.519C704.311,-127.18 719.703,-131.129 734.395,-134.899"/>
<polygon fill="midnightblue" stroke="midnightblue" points="733.876,-138.379 744.432,-137.474 735.615,-131.598 733.876,-138.379"/>
</g>
<!-- Node1299 -->
<g id="node8" class="node"><title>Node1299</title>
<g id="a_node8"><a xlink:href="../../d4/d43/class_rig_def_1_1_sequential_importer.html#a5f5e30fbc3b2f58adb15a8f64bbecd15" target="_top" xlink:title="RigDef::SequentialImporter\l::AddGeneratedNode">
<polygon fill="white" stroke="black" points="906,-68.5 906,-98.5 1038,-98.5 1038,-68.5 906,-68.5"/>
<text text-anchor="start" x="914" y="-86.5" font-family="Helvetica,sans-Serif" font-size="10.00">RigDef::SequentialImporter</text>
<text text-anchor="middle" x="972" y="-75.5" font-family="Helvetica,sans-Serif" font-size="10.00">::AddGeneratedNode</text>
</a>
</g>
</g>
<!-- Node1295&#45;&gt;Node1299 -->
<g id="edge8" class="edge"><title>Node1295&#45;&gt;Node1299</title>
<path fill="none" stroke="midnightblue" d="M696.557,-103.709C753.435,-99.521 836.04,-93.4381 895.75,-89.0412"/>
<polygon fill="midnightblue" stroke="midnightblue" points="896.158,-92.5208 905.874,-88.2957 895.644,-85.5397 896.158,-92.5208"/>
</g>
<!-- Node1300 -->
<g id="node9" class="node"><title>Node1300</title>
<g id="a_node9"><a xlink:href="../../d4/d43/class_rig_def_1_1_sequential_importer.html#a639c4f71bc37fc08f02a5b603ee14033" target="_top" xlink:title="RigDef::SequentialImporter\l::GenerateNodesForWheel">
<polygon fill="white" stroke="black" points="738,-49.5 738,-79.5 870,-79.5 870,-49.5 738,-49.5"/>
<text text-anchor="start" x="746" y="-67.5" font-family="Helvetica,sans-Serif" font-size="10.00">RigDef::SequentialImporter</text>
<text text-anchor="middle" x="804" y="-56.5" font-family="Helvetica,sans-Serif" font-size="10.00">::GenerateNodesForWheel</text>
</a>
</g>
</g>
<!-- Node1295&#45;&gt;Node1300 -->
<g id="edge9" class="edge"><title>Node1295&#45;&gt;Node1300</title>
<path fill="none" stroke="midnightblue" d="M690.041,-93.4808C704.311,-89.8196 719.703,-85.8706 734.395,-82.1013"/>
<polygon fill="midnightblue" stroke="midnightblue" points="735.615,-85.4016 744.432,-79.5262 733.876,-78.6212 735.615,-85.4016"/>
</g>
<!-- Node1301 -->
<g id="node10" class="node"><title>Node1301</title>
<g id="a_node10"><a xlink:href="../../d4/d43/class_rig_def_1_1_sequential_importer.html#a69601c62b1bf9030cd2e2b03a926bc04" target="_top" xlink:title="Traverse whole rig definition and resolve all node references. ">
<polygon fill="white" stroke="black" points="738,-0.5 738,-30.5 870,-30.5 870,-0.5 738,-0.5"/>
<text text-anchor="start" x="746" y="-18.5" font-family="Helvetica,sans-Serif" font-size="10.00">RigDef::SequentialImporter</text>
<text text-anchor="middle" x="804" y="-7.5" font-family="Helvetica,sans-Serif" font-size="10.00">::Process</text>
</a>
</g>
</g>
<!-- Node1295&#45;&gt;Node1301 -->
<g id="edge11" class="edge"><title>Node1295&#45;&gt;Node1301</title>
<path fill="none" stroke="midnightblue" d="M684.299,-93.4107C690.526,-90.5941 696.583,-87.31 702,-83.5 722.668,-68.9649 717.427,-54.1683 738,-39.5 740.057,-38.0335 742.214,-36.646 744.44,-35.3346"/>
<polygon fill="midnightblue" stroke="midnightblue" points="746.104,-38.414 753.31,-30.6465 742.833,-32.2253 746.104,-38.414"/>
</g>
<!-- Node1297 -->
<g id="node6" class="node"><title>Node1297</title>
<g id="a_node6"><a xlink:href="../../d4/d43/class_rig_def_1_1_sequential_importer.html#abbbd9a34cae153cb481b6c61a7927a97" target="_top" xlink:title="RigDef::SequentialImporter\l::AddMessage">
<polygon fill="white" stroke="black" points="906,-161.5 906,-191.5 1038,-191.5 1038,-161.5 906,-161.5"/>
<text text-anchor="start" x="914" y="-179.5" font-family="Helvetica,sans-Serif" font-size="10.00">RigDef::SequentialImporter</text>
<text text-anchor="middle" x="972" y="-168.5" font-family="Helvetica,sans-Serif" font-size="10.00">::AddMessage</text>
</a>
</g>
</g>
<!-- Node1296&#45;&gt;Node1297 -->
<g id="edge5" class="edge"><title>Node1296&#45;&gt;Node1297</title>
<path fill="none" stroke="midnightblue" d="M870.131,-191.691C878.553,-190.423 887.232,-189.116 895.8,-187.825"/>
<polygon fill="midnightblue" stroke="midnightblue" points="896.417,-191.272 905.784,-186.322 895.374,-184.35 896.417,-191.272"/>
</g>
<!-- Node1298&#45;&gt;Node1297 -->
<g id="edge7" class="edge"><title>Node1298&#45;&gt;Node1297</title>
<path fill="none" stroke="midnightblue" d="M870.131,-161.917C878.553,-163.134 887.232,-164.389 895.8,-165.628"/>
<polygon fill="midnightblue" stroke="midnightblue" points="895.386,-169.104 905.784,-167.071 896.388,-162.176 895.386,-169.104"/>
</g>
<!-- Node1300&#45;&gt;Node1299 -->
<g id="edge10" class="edge"><title>Node1300&#45;&gt;Node1299</title>
<path fill="none" stroke="midnightblue" d="M870.131,-71.9548C878.553,-72.9187 887.232,-73.9121 895.8,-74.8928"/>
<polygon fill="midnightblue" stroke="midnightblue" points="895.451,-78.3756 905.784,-76.0355 896.247,-71.421 895.451,-78.3756"/>
</g>
<!-- Node1302 -->
<g id="node11" class="node"><title>Node1302</title>
<g id="a_node11"><a xlink:href="../../d4/d43/class_rig_def_1_1_sequential_importer.html#aaabc36a84be7e26a7d0790f04fa882c1" target="_top" xlink:title="RigDef::SequentialImporter\l::ProcessModule">
<polygon fill="white" stroke="black" points="906,-0.5 906,-30.5 1038,-30.5 1038,-0.5 906,-0.5"/>
<text text-anchor="start" x="914" y="-18.5" font-family="Helvetica,sans-Serif" font-size="10.00">RigDef::SequentialImporter</text>
<text text-anchor="middle" x="972" y="-7.5" font-family="Helvetica,sans-Serif" font-size="10.00">::ProcessModule</text>
</a>
</g>
</g>
<!-- Node1301&#45;&gt;Node1302 -->
<g id="edge12" class="edge"><title>Node1301&#45;&gt;Node1302</title>
<path fill="none" stroke="midnightblue" d="M870.131,-15.5C878.461,-15.5 887.044,-15.5 895.521,-15.5"/>
<polygon fill="midnightblue" stroke="midnightblue" points="895.784,-19.0001 905.784,-15.5 895.784,-12.0001 895.784,-19.0001"/>
</g>
</g>
</svg>
