<?xml version="1.0" encoding="UTF-8" standalone="no"?>
<!DOCTYPE svg PUBLIC "-//W3C//DTD SVG 1.1//EN"
 "http://www.w3.org/Graphics/SVG/1.1/DTD/svg11.dtd">
<!-- Generated by graphviz version 2.38.0 (20140413.2041)
 -->
<!-- Title: RoR::Str::GetBuffer Pages: 1 -->
<!--zoomable 300 -->
<svg id="main" version="1.1" xmlns="http://www.w3.org/2000/svg" xmlns:xlink="http://www.w3.org/1999/xlink" xml:space="preserve" onload="init(evt)">
<style type="text/css"><![CDATA[
.edge:hover path { stroke: red; }
.edge:hover polygon { stroke: red; fill: red; }
]]></style>
<script type="text/javascript"><![CDATA[
var edges = document.getElementsByTagName('g');
if (edges && edges.length) {
  for (var i=0;i<edges.length;i++) {
    if (edges[i].id.substr(0,4)=='edge') {
      edges[i].setAttribute('class','edge');
    }
  }
}
]]></script>
        <defs>
                <circle id="rim" cx="0" cy="0" r="7"/>
                <circle id="rim2" cx="0" cy="0" r="3.5"/>
                <g id="zoomPlus">
                        <use xlink:href="#rim" fill="#404040">
                                <set attributeName="fill" to="#808080" begin="zoomplus.mouseover" end="zoomplus.mouseout"/>
                        </use>
                        <path d="M-4,0h8M0,-4v8" fill="none" stroke="white" stroke-width="1.5" pointer-events="none"/>
                </g>
                <g id="zoomMin">
                        <use xlink:href="#rim" fill="#404040">
                                <set attributeName="fill" to="#808080" begin="zoomminus.mouseover" end="zoomminus.mouseout"/>
                        </use>
                        <path d="M-4,0h8" fill="none" stroke="white" stroke-width="1.5" pointer-events="none"/>
                </g>
                <g id="dirArrow">
                        <path fill="none" stroke="white" stroke-width="1.5" d="M0,-3.0v7 M-2.5,-0.5L0,-3.0L2.5,-0.5"/>
                </g>
               <g id="resetDef">
                       <use xlink:href="#rim2" fill="#404040">
                               <set attributeName="fill" to="#808080" begin="reset.mouseover" end="reset.mouseout"/>
                       </use>
               </g>
        </defs>

<script type="text/javascript">
var viewWidth = 1352;
var viewHeight = 300;
var sectionId = 'dynsection-6';
</script>
<script xlink:href="../../svgpan.js"/>
<svg id="graph" class="graph">
<g id="viewport">
<title>RoR::Str::GetBuffer</title>
<polygon fill="white" stroke="none" points="-4,4 -4,-296.48 1348,-296.48 1348,4 -4,4"/>
<!-- Node35 -->
<g id="node1" class="node"><title>Node35</title>
<polygon fill="#bfbfbf" stroke="black" points="0,-146.98 0,-165.98 101,-165.98 101,-146.98 0,-146.98"/>
<text text-anchor="middle" x="50.5" y="-153.98" font-family="Helvetica,sans-Serif" font-size="10.00">RoR::Str::GetBuffer</text>
</g>
<!-- Node36 -->
<g id="node2" class="node"><title>Node36</title>
<g id="a_node2"><a xlink:href="../../d8/d11/class_ro_r_1_1_g_u_i_manager.html#a35dc350dea57ef0356030eb1b47485b5" target="_top" xlink:title="RoR::GUIManager::GUIManager">
<polygon fill="white" stroke="black" points="137,-272.98 137,-291.98 292,-291.98 292,-272.98 137,-272.98"/>
<text text-anchor="middle" x="214.5" y="-279.98" font-family="Helvetica,sans-Serif" font-size="10.00">RoR::GUIManager::GUIManager</text>
</a>
</g>
</g>
<!-- Node35&#45;&gt;Node36 -->
<g id="edge1" class="edge"><title>Node35&#45;&gt;Node36</title>
<path fill="none" stroke="midnightblue" d="M61.2634,-175.133C74.9068,-199.315 101.987,-241.036 137,-263.48 143.106,-267.394 149.963,-270.502 156.998,-272.97"/>
<polygon fill="midnightblue" stroke="midnightblue" points="64.2682,-173.333 56.4037,-166.234 58.1245,-176.688 64.2682,-173.333"/>
</g>
<!-- Node37 -->
<g id="node3" class="node"><title>Node37</title>
<g id="a_node3"><a xlink:href="../../dd/dd2/namespace_ro_r.html#afa3bed83fccd42a159911d7c99271139" target="_top" xlink:title="RoR::DrawGTextEdit">
<polygon fill="white" stroke="black" points="161,-146.98 161,-165.98 268,-165.98 268,-146.98 161,-146.98"/>
<text text-anchor="middle" x="214.5" y="-153.98" font-family="Helvetica,sans-Serif" font-size="10.00">RoR::DrawGTextEdit</text>
</a>
</g>
</g>
<!-- Node35&#45;&gt;Node37 -->
<g id="edge2" class="edge"><title>Node35&#45;&gt;Node37</title>
<path fill="none" stroke="midnightblue" d="M111.828,-156.48C127.957,-156.48 145.258,-156.48 160.932,-156.48"/>
<polygon fill="midnightblue" stroke="midnightblue" points="111.427,-152.98 101.427,-156.48 111.427,-159.98 111.427,-152.98"/>
</g>
<!-- Node44 -->
<g id="node10" class="node"><title>Node44</title>
<g id="a_node10"><a xlink:href="../../d4/d8f/class_ro_r_1_1_g_u_i_1_1_multiplayer_selector.html#a8c98e9ba03c8afb1d1a26ec06192862e" target="_top" xlink:title="RoR::GUI::MultiplayerSelector\l::~MultiplayerSelector">
<polygon fill="white" stroke="black" points="328,-190.48 328,-220.48 475,-220.48 475,-190.48 328,-190.48"/>
<text text-anchor="start" x="336" y="-208.48" font-family="Helvetica,sans-Serif" font-size="10.00">RoR::GUI::MultiplayerSelector</text>
<text text-anchor="middle" x="401.5" y="-197.48" font-family="Helvetica,sans-Serif" font-size="10.00">::~MultiplayerSelector</text>
</a>
</g>
</g>
<!-- Node35&#45;&gt;Node44 -->
<g id="edge10" class="edge"><title>Node35&#45;&gt;Node44</title>
<path fill="none" stroke="midnightblue" d="M100.298,-168.254C112.254,-170.881 125.049,-173.478 137,-175.48 201.14,-186.227 274.72,-194.248 327.796,-199.279"/>
<polygon fill="midnightblue" stroke="midnightblue" points="101.013,-164.827 90.4896,-166.052 99.4804,-171.657 101.013,-164.827"/>
</g>
<!-- Node45 -->
<g id="node11" class="node"><title>Node45</title>
<g id="a_node11"><a xlink:href="../../d6/d14/class_terrain_object_manager.html#a45ccbf51f9c0ecac68927fed5e52eaa4" target="_top" xlink:title="TerrainObjectManager\l::loadObjectConfigFile">
<polygon fill="white" stroke="black" points="158.5,-223.48 158.5,-253.48 270.5,-253.48 270.5,-223.48 158.5,-223.48"/>
<text text-anchor="start" x="166.5" y="-241.48" font-family="Helvetica,sans-Serif" font-size="10.00">TerrainObjectManager</text>
<text text-anchor="middle" x="214.5" y="-230.48" font-family="Helvetica,sans-Serif" font-size="10.00">::loadObjectConfigFile</text>
</a>
</g>
</g>
<!-- Node35&#45;&gt;Node45 -->
<g id="edge11" class="edge"><title>Node35&#45;&gt;Node45</title>
<path fill="none" stroke="midnightblue" d="M74.203,-171.773C91.0902,-182.777 114.934,-197.545 137,-208.48 147.865,-213.864 159.949,-218.98 171.244,-223.413"/>
<polygon fill="midnightblue" stroke="midnightblue" points="75.8675,-168.678 65.5924,-166.095 72.0141,-174.522 75.8675,-168.678"/>
</g>
<!-- Node51 -->
<g id="node17" class="node"><title>Node51</title>
<g id="a_node17"><a xlink:href="../../d7/dd8/class_language_engine.html#a76cb37a44a39216fd83ab38285eacf94" target="_top" xlink:title="LanguageEngine::setup">
<polygon fill="white" stroke="black" points="710.5,-26.9801 710.5,-45.9801 829.5,-45.9801 829.5,-26.9801 710.5,-26.9801"/>
<text text-anchor="middle" x="770" y="-33.9801" font-family="Helvetica,sans-Serif" font-size="10.00">LanguageEngine::setup</text>
</a>
</g>
</g>
<!-- Node35&#45;&gt;Node51 -->
<g id="edge19" class="edge"><title>Node35&#45;&gt;Node51</title>
<path fill="none" stroke="midnightblue" d="M61.5622,-138.042C75.2305,-115.108 102.026,-76.9697 137,-60.4801 338.612,34.5755 617.881,-6.02993 724.875,-26.9174"/>
<polygon fill="midnightblue" stroke="midnightblue" points="58.4601,-136.416 56.5225,-146.832 64.5328,-139.897 58.4601,-136.416"/>
</g>
<!-- Node52 -->
<g id="node18" class="node"><title>Node52</title>
<g id="a_node18"><a xlink:href="../../d5/d0d/namespace_ro_r_1_1_system.html#a49888453ad63100a98a0714a91d96a60" target="_top" xlink:title="RoR::System::DetectBasePaths">
<polygon fill="white" stroke="black" points="691,-102.98 691,-121.98 849,-121.98 849,-102.98 691,-102.98"/>
<text text-anchor="middle" x="770" y="-109.98" font-family="Helvetica,sans-Serif" font-size="10.00">RoR::System::DetectBasePaths</text>
</a>
</g>
</g>
<!-- Node35&#45;&gt;Node52 -->
<g id="edge21" class="edge"><title>Node35&#45;&gt;Node52</title>
<path fill="none" stroke="midnightblue" d="M97.7275,-144.622C110.38,-141.811 124.15,-139.148 137,-137.48 335.187,-111.75 571.01,-109.969 690.785,-111.089"/>
<polygon fill="midnightblue" stroke="midnightblue" points="96.8198,-141.239 87.8586,-146.892 98.3887,-148.061 96.8198,-141.239"/>
</g>
<!-- Node53 -->
<g id="node19" class="node"><title>Node53</title>
<g id="a_node19"><a xlink:href="../../db/d2b/class_settings.html#ad1c21542e41500c873f654325aad486d" target="_top" xlink:title="Settings::SetupAllPaths">
<polygon fill="white" stroke="black" points="921.5,-64.9801 921.5,-83.9801 1042.5,-83.9801 1042.5,-64.9801 921.5,-64.9801"/>
<text text-anchor="middle" x="982" y="-71.9801" font-family="Helvetica,sans-Serif" font-size="10.00">Settings::SetupAllPaths</text>
</a>
</g>
</g>
<!-- Node35&#45;&gt;Node53 -->
<g id="edge23" class="edge"><title>Node35&#45;&gt;Node53</title>
<path fill="none" stroke="midnightblue" d="M78.396,-142.416C94.908,-134.321 116.713,-124.575 137,-118.48 250.712,-84.3189 281.767,-74.4801 400.5,-74.4801 400.5,-74.4801 400.5,-74.4801 584,-74.4801 703.755,-74.4801 843.829,-74.4801 921.476,-74.4801"/>
<polygon fill="midnightblue" stroke="midnightblue" points="76.7117,-139.346 69.337,-146.952 79.8458,-145.605 76.7117,-139.346"/>
</g>
<!-- Node38 -->
<g id="node4" class="node"><title>Node38</title>
<g id="a_node4"><a xlink:href="../../d8/d2c/class_ro_r_1_1_g_u_i_1_1_game_settings.html#a97a07e0573bf956e386722ef6b776ff3" target="_top" xlink:title="RoR::GUI::GameSettings\l::Draw">
<polygon fill="white" stroke="black" points="338.5,-141.48 338.5,-171.48 464.5,-171.48 464.5,-141.48 338.5,-141.48"/>
<text text-anchor="start" x="346.5" y="-159.48" font-family="Helvetica,sans-Serif" font-size="10.00">RoR::GUI::GameSettings</text>
<text text-anchor="middle" x="401.5" y="-148.48" font-family="Helvetica,sans-Serif" font-size="10.00">::Draw</text>
</a>
</g>
</g>
<!-- Node37&#45;&gt;Node38 -->
<g id="edge3" class="edge"><title>Node37&#45;&gt;Node38</title>
<path fill="none" stroke="midnightblue" d="M278.262,-156.48C297.654,-156.48 318.997,-156.48 338.347,-156.48"/>
<polygon fill="midnightblue" stroke="midnightblue" points="278.019,-152.98 268.019,-156.48 278.019,-159.98 278.019,-152.98"/>
</g>
<!-- Node37&#45;&gt;Node44 -->
<g id="edge9" class="edge"><title>Node37&#45;&gt;Node44</title>
<path fill="none" stroke="midnightblue" d="M261.522,-168.67C286.407,-175.261 317.356,-183.458 343.728,-190.443"/>
<polygon fill="midnightblue" stroke="midnightblue" points="262.172,-165.221 251.609,-166.044 260.38,-171.988 262.172,-165.221"/>
</g>
<!-- Node39 -->
<g id="node5" class="node"><title>Node39</title>
<g id="a_node5"><a xlink:href="../../d8/d11/class_ro_r_1_1_g_u_i_manager.html#af75908cee15c6ce99cce1752387fca4f" target="_top" xlink:title="RoR::GUIManager::DrawMain\lMenuGui">
<polygon fill="white" stroke="black" points="511,-141.48 511,-171.48 655,-171.48 655,-141.48 511,-141.48"/>
<text text-anchor="start" x="519" y="-159.48" font-family="Helvetica,sans-Serif" font-size="10.00">RoR::GUIManager::DrawMain</text>
<text text-anchor="middle" x="583" y="-148.48" font-family="Helvetica,sans-Serif" font-size="10.00">MenuGui</text>
</a>
</g>
</g>
<!-- Node38&#45;&gt;Node39 -->
<g id="edge4" class="edge"><title>Node38&#45;&gt;Node39</title>
<path fill="none" stroke="midnightblue" d="M474.802,-156.48C486.645,-156.48 498.909,-156.48 510.727,-156.48"/>
<polygon fill="midnightblue" stroke="midnightblue" points="474.525,-152.98 464.525,-156.48 474.525,-159.98 474.525,-152.98"/>
</g>
<!-- Node43 -->
<g id="node9" class="node"><title>Node43</title>
<g id="a_node9"><a xlink:href="../../d8/d2c/class_ro_r_1_1_g_u_i_1_1_game_settings.html#aeb21469250c1f403cfc4e281271b339f" target="_top" xlink:title="RoR::GUI::GameSettings\l::GameSettings">
<polygon fill="white" stroke="black" points="520,-190.48 520,-220.48 646,-220.48 646,-190.48 520,-190.48"/>
<text text-anchor="start" x="528" y="-208.48" font-family="Helvetica,sans-Serif" font-size="10.00">RoR::GUI::GameSettings</text>
<text text-anchor="middle" x="583" y="-197.48" font-family="Helvetica,sans-Serif" font-size="10.00">::GameSettings</text>
</a>
</g>
</g>
<!-- Node38&#45;&gt;Node43 -->
<g id="edge8" class="edge"><title>Node38&#45;&gt;Node43</title>
<path fill="none" stroke="midnightblue" d="M467.517,-174.229C486.972,-179.539 508.107,-185.309 526.862,-190.428"/>
<polygon fill="midnightblue" stroke="midnightblue" points="468.389,-170.839 457.821,-171.581 466.546,-177.591 468.389,-170.839"/>
</g>
<!-- Node40 -->
<g id="node6" class="node"><title>Node40</title>
<g id="a_node6"><a xlink:href="../../d4/d14/class_ro_r_1_1_main_menu.html#a582e508f1bb1578d1124260de49e438b" target="_top" xlink:title="RoR::MainMenu::EnterMain\lMenuLoop">
<polygon fill="white" stroke="black" points="913.5,-141.48 913.5,-171.48 1050.5,-171.48 1050.5,-141.48 913.5,-141.48"/>
<text text-anchor="start" x="921.5" y="-159.48" font-family="Helvetica,sans-Serif" font-size="10.00">RoR::MainMenu::EnterMain</text>
<text text-anchor="middle" x="982" y="-148.48" font-family="Helvetica,sans-Serif" font-size="10.00">MenuLoop</text>
</a>
</g>
</g>
<!-- Node39&#45;&gt;Node40 -->
<g id="edge5" class="edge"><title>Node39&#45;&gt;Node40</title>
<path fill="none" stroke="midnightblue" d="M665.536,-156.48C738.728,-156.48 844.9,-156.48 913.451,-156.48"/>
<polygon fill="midnightblue" stroke="midnightblue" points="665.434,-152.98 655.434,-156.48 665.434,-159.98 665.434,-152.98"/>
</g>
<!-- Node41 -->
<g id="node7" class="node"><title>Node41</title>
<g id="a_node7"><a xlink:href="../../df/d0a/main_8cpp.html#a0ddf1224851353fc92bfbff6f499fa97" target="_top" xlink:title="main">
<polygon fill="white" stroke="black" points="1165,-102.98 1165,-121.98 1203,-121.98 1203,-102.98 1165,-102.98"/>
<text text-anchor="middle" x="1184" y="-109.98" font-family="Helvetica,sans-Serif" font-size="10.00">main</text>
</a>
</g>
</g>
<!-- Node40&#45;&gt;Node41 -->
<g id="edge6" class="edge"><title>Node40&#45;&gt;Node41</title>
<path fill="none" stroke="midnightblue" d="M1060.78,-139.368C1098.81,-131.002 1141.35,-121.642 1164.88,-116.467"/>
<polygon fill="midnightblue" stroke="midnightblue" points="1059.73,-136.017 1050.71,-141.584 1061.23,-142.853 1059.73,-136.017"/>
</g>
<!-- Node42 -->
<g id="node8" class="node"><title>Node42</title>
<g id="a_node8"><a xlink:href="../../df/d0a/main_8cpp.html#a2922bc5d5c2d77a3020cfbf9df12aab0" target="_top" xlink:title="WinMain">
<polygon fill="white" stroke="black" points="1289,-102.98 1289,-121.98 1344,-121.98 1344,-102.98 1289,-102.98"/>
<text text-anchor="middle" x="1316.5" y="-109.98" font-family="Helvetica,sans-Serif" font-size="10.00">WinMain</text>
</a>
</g>
</g>
<!-- Node41&#45;&gt;Node42 -->
<g id="edge7" class="edge"><title>Node41&#45;&gt;Node42</title>
<path fill="none" stroke="midnightblue" d="M1213.39,-112.48C1235.84,-112.48 1266.96,-112.48 1288.92,-112.48"/>
<polygon fill="midnightblue" stroke="midnightblue" points="1213.15,-108.98 1203.15,-112.48 1213.15,-115.98 1213.15,-108.98"/>
</g>
<!-- Node46 -->
<g id="node12" class="node"><title>Node46</title>
<g id="a_node12"><a xlink:href="../../d3/d16/class_terrain_manager.html#a4ad87b973cb6af52daaf530a5feff167" target="_top" xlink:title="TerrainManager::loadTerrain\lObjects">
<polygon fill="white" stroke="black" points="333,-239.48 333,-269.48 470,-269.48 470,-239.48 333,-239.48"/>
<text text-anchor="start" x="341" y="-257.48" font-family="Helvetica,sans-Serif" font-size="10.00">TerrainManager::loadTerrain</text>
<text text-anchor="middle" x="401.5" y="-246.48" font-family="Helvetica,sans-Serif" font-size="10.00">Objects</text>
</a>
</g>
</g>
<!-- Node45&#45;&gt;Node46 -->
<g id="edge12" class="edge"><title>Node45&#45;&gt;Node46</title>
<path fill="none" stroke="midnightblue" d="M280.827,-244.13C297.717,-245.591 315.932,-247.166 332.934,-248.636"/>
<polygon fill="midnightblue" stroke="midnightblue" points="280.77,-240.612 270.505,-243.237 280.166,-247.586 280.77,-240.612"/>
</g>
<!-- Node47 -->
<g id="node13" class="node"><title>Node47</title>
<g id="a_node13"><a xlink:href="../../d3/d16/class_terrain_manager.html#a9a04c837bf2ea6528c465b27ca62f730" target="_top" xlink:title="TerrainManager::loadTerrain">
<polygon fill="white" stroke="black" points="514.5,-241.98 514.5,-260.98 651.5,-260.98 651.5,-241.98 514.5,-241.98"/>
<text text-anchor="middle" x="583" y="-248.98" font-family="Helvetica,sans-Serif" font-size="10.00">TerrainManager::loadTerrain</text>
</a>
</g>
</g>
<!-- Node46&#45;&gt;Node47 -->
<g id="edge13" class="edge"><title>Node46&#45;&gt;Node47</title>
<path fill="none" stroke="midnightblue" d="M480.422,-253.178C491.757,-252.988 503.348,-252.795 514.455,-252.609"/>
<polygon fill="midnightblue" stroke="midnightblue" points="480.046,-249.683 470.105,-253.35 480.163,-256.682 480.046,-249.683"/>
</g>
<!-- Node48 -->
<g id="node14" class="node"><title>Node48</title>
<g id="a_node14"><a xlink:href="../../dd/dbe/class_ro_r_frame_listener.html#a9757c059e840019a3e2659d5ef63ea02" target="_top" xlink:title="Reads GVar &#39;sim_terrain_pending&#39;. ">
<polygon fill="white" stroke="black" points="693,-234.98 693,-253.98 847,-253.98 847,-234.98 693,-234.98"/>
<text text-anchor="middle" x="770" y="-241.98" font-family="Helvetica,sans-Serif" font-size="10.00">RoRFrameListener::LoadTerrain</text>
</a>
</g>
</g>
<!-- Node47&#45;&gt;Node48 -->
<g id="edge14" class="edge"><title>Node47&#45;&gt;Node48</title>
<path fill="none" stroke="midnightblue" d="M661.761,-248.538C672.049,-248.148 682.588,-247.75 692.849,-247.361"/>
<polygon fill="midnightblue" stroke="midnightblue" points="661.435,-245.047 651.575,-248.923 661.7,-252.042 661.435,-245.047"/>
</g>
<!-- Node49 -->
<g id="node15" class="node"><title>Node49</title>
<g id="a_node15"><a xlink:href="../../dd/dbe/class_ro_r_frame_listener.html#aca3931d7a75f2ad4b9d36c4fcd03a3c9" target="_top" xlink:title="RoRFrameListener::SetupGameplayLoop">
<polygon fill="white" stroke="black" points="885,-196.98 885,-215.98 1079,-215.98 1079,-196.98 885,-196.98"/>
<text text-anchor="middle" x="982" y="-203.98" font-family="Helvetica,sans-Serif" font-size="10.00">RoRFrameListener::SetupGameplayLoop</text>
</a>
</g>
</g>
<!-- Node48&#45;&gt;Node49 -->
<g id="edge15" class="edge"><title>Node48&#45;&gt;Node49</title>
<path fill="none" stroke="midnightblue" d="M833.707,-233.133C863.837,-227.681 899.546,-221.219 928.258,-216.024"/>
<polygon fill="midnightblue" stroke="midnightblue" points="832.938,-229.715 823.721,-234.94 834.184,-236.603 832.938,-229.715"/>
</g>
<!-- Node50 -->
<g id="node16" class="node"><title>Node50</title>
<g id="a_node16"><a xlink:href="../../dd/dbe/class_ro_r_frame_listener.html#ad598075b5f183208c0de43b9248bb44b" target="_top" xlink:title="RoRFrameListener::getTime">
<polygon fill="white" stroke="black" points="1115,-215.98 1115,-234.98 1253,-234.98 1253,-215.98 1115,-215.98"/>
<text text-anchor="middle" x="1184" y="-222.98" font-family="Helvetica,sans-Serif" font-size="10.00">RoRFrameListener::getTime</text>
</a>
</g>
</g>
<!-- Node48&#45;&gt;Node50 -->
<g id="edge18" class="edge"><title>Node48&#45;&gt;Node50</title>
<path fill="none" stroke="midnightblue" d="M857.157,-240.507C933.783,-236.973 1044.33,-231.875 1114.91,-228.62"/>
<polygon fill="midnightblue" stroke="midnightblue" points="856.875,-237.016 847.047,-240.973 857.198,-244.009 856.875,-237.016"/>
</g>
<!-- Node49&#45;&gt;Node41 -->
<g id="edge17" class="edge"><title>Node49&#45;&gt;Node41</title>
<path fill="none" stroke="midnightblue" d="M1039.82,-194.261C1052.97,-190.572 1066.7,-186 1079,-180.48 1114.82,-164.407 1152.27,-136.818 1170.93,-122.212"/>
<polygon fill="midnightblue" stroke="midnightblue" points="1038.68,-190.944 1029.92,-196.91 1040.49,-197.706 1038.68,-190.944"/>
</g>
<!-- Node49&#45;&gt;Node50 -->
<g id="edge16" class="edge"><title>Node49&#45;&gt;Node50</title>
<path fill="none" stroke="midnightblue" d="M1089.33,-216.581C1097.95,-217.4 1106.51,-218.213 1114.74,-218.996"/>
<polygon fill="midnightblue" stroke="midnightblue" points="1089.48,-213.08 1079.19,-215.618 1088.82,-220.048 1089.48,-213.08"/>
</g>
<!-- Node51&#45;&gt;Node41 -->
<g id="edge20" class="edge"><title>Node51&#45;&gt;Node41</title>
<path fill="none" stroke="midnightblue" d="M839.896,-32.2427C903.296,-30.3167 999.291,-32.4311 1079,-55.4801 1114.4,-65.7179 1151.14,-89.5065 1170.04,-102.891"/>
<polygon fill="midnightblue" stroke="midnightblue" points="839.491,-28.7545 829.618,-32.599 839.734,-35.7503 839.491,-28.7545"/>
</g>
<!-- Node52&#45;&gt;Node41 -->
<g id="edge22" class="edge"><title>Node52&#45;&gt;Node41</title>
<path fill="none" stroke="midnightblue" d="M859.484,-112.48C958.674,-112.48 1112.48,-112.48 1164.84,-112.48"/>
<polygon fill="midnightblue" stroke="midnightblue" points="859.464,-108.98 849.464,-112.48 859.464,-115.98 859.464,-108.98"/>
</g>
<!-- Node53&#45;&gt;Node41 -->
<g id="edge24" class="edge"><title>Node53&#45;&gt;Node41</title>
<path fill="none" stroke="midnightblue" d="M1043.26,-85.9291C1084.86,-93.8342 1137.43,-103.822 1164.71,-109.004"/>
<polygon fill="midnightblue" stroke="midnightblue" points="1043.69,-82.4482 1033.21,-84.02 1042.38,-89.3252 1043.69,-82.4482"/>
</g>
</g>
</svg>
        <g id="navigator" transform="translate(0 0)" fill="#404254">
                <rect fill="#f2f5e9" fill-opacity="0.5" stroke="#606060" stroke-width=".5" x="0" y="0" width="60" height="60"/>
                <use id="zoomplus" xlink:href="#zoomPlus" x="17" y="9" onmousedown="handleZoom(evt,'in')"/>
                <use id="zoomminus" xlink:href="#zoomMin" x="42" y="9" onmousedown="handleZoom(evt,'out')"/>
                <use id="reset" xlink:href="#resetDef" x="30" y="36" onmousedown="handleReset()"/>
                <g id="arrowUp" xlink:href="#dirArrow" transform="translate(30 24)" onmousedown="handlePan(0,-1)">
                  <use xlink:href="#rim" fill="#404040">
                        <set attributeName="fill" to="#808080" begin="arrowUp.mouseover" end="arrowUp.mouseout"/>
                  </use>
                  <path fill="none" stroke="white" stroke-width="1.5" d="M0,-3.0v7 M-2.5,-0.5L0,-3.0L2.5,-0.5"/>
                </g>
                <g id="arrowRight" xlink:href="#dirArrow" transform="rotate(90) translate(36 -43)" onmousedown="handlePan(1,0)">
                  <use xlink:href="#rim" fill="#404040">
                        <set attributeName="fill" to="#808080" begin="arrowRight.mouseover" end="arrowRight.mouseout"/>
                  </use>
                  <path fill="none" stroke="white" stroke-width="1.5" d="M0,-3.0v7 M-2.5,-0.5L0,-3.0L2.5,-0.5"/>
                </g>
                <g id="arrowDown" xlink:href="#dirArrow" transform="rotate(180) translate(-30 -48)" onmousedown="handlePan(0,1)">
                  <use xlink:href="#rim" fill="#404040">
                        <set attributeName="fill" to="#808080" begin="arrowDown.mouseover" end="arrowDown.mouseout"/>
                  </use>
                  <path fill="none" stroke="white" stroke-width="1.5" d="M0,-3.0v7 M-2.5,-0.5L0,-3.0L2.5,-0.5"/>
                </g>
                <g id="arrowLeft" xlink:href="#dirArrow" transform="rotate(270) translate(-36 17)" onmousedown="handlePan(-1,0)">
                  <use xlink:href="#rim" fill="#404040">
                        <set attributeName="fill" to="#808080" begin="arrowLeft.mouseover" end="arrowLeft.mouseout"/>
                  </use>
                  <path fill="none" stroke="white" stroke-width="1.5" d="M0,-3.0v7 M-2.5,-0.5L0,-3.0L2.5,-0.5"/>
                </g>
        </g>
        <svg viewBox="0 0 15 15" width="100%" height="30px" preserveAspectRatio="xMaxYMin meet">
         <g id="arrow_out" transform="scale(0.3 0.3)">
          <a xlink:href="class_ro_r_1_1_str_a11656f4feb8913e45b15ae8b1d474f29_icgraph_org.svg" target="_base">
           <rect id="button" ry="5" rx="5" y="6" x="6" height="38" width="38"
                fill="#f2f5e9" fill-opacity="0.5" stroke="#606060" stroke-width="1.0"/>
           <path id="arrow"
             d="M 11.500037,31.436501 C 11.940474,20.09759 22.043105,11.32322 32.158766,21.979434 L 37.068811,17.246167 C 37.068811,17.246167 37.088388,32 37.088388,32 L 22.160133,31.978069 C 22.160133,31.978069 26.997745,27.140456 26.997745,27.140456 C 18.528582,18.264221 13.291696,25.230495 11.500037,31.436501 z"
             style="fill:#404040;"/>
          </a>
         </g>
        </svg>
</svg>
