<?xml version="1.0" encoding="UTF-8" standalone="no"?>
<!DOCTYPE svg PUBLIC "-//W3C//DTD SVG 1.1//EN"
 "http://www.w3.org/Graphics/SVG/1.1/DTD/svg11.dtd">
<!-- Generated by graphviz version 2.38.0 (20140413.2041)
 -->
<!-- Title: OverlayWrapper::mouseReleased Pages: 1 -->
<!--zoomable 39 -->
<svg id="main" version="1.1" xmlns="http://www.w3.org/2000/svg" xmlns:xlink="http://www.w3.org/1999/xlink" xml:space="preserve" onload="init(evt)">
<style type="text/css"><![CDATA[
.edge:hover path { stroke: red; }
.edge:hover polygon { stroke: red; fill: red; }
]]></style>
<script type="text/javascript"><![CDATA[
var edges = document.getElementsByTagName('g');
if (edges && edges.length) {
  for (var i=0;i<edges.length;i++) {
    if (edges[i].id.substr(0,4)=='edge') {
      edges[i].setAttribute('class','edge');
    }
  }
}
]]></script>
        <defs>
                <circle id="rim" cx="0" cy="0" r="7"/>
                <circle id="rim2" cx="0" cy="0" r="3.5"/>
                <g id="zoomPlus">
                        <use xlink:href="#rim" fill="#404040">
                                <set attributeName="fill" to="#808080" begin="zoomplus.mouseover" end="zoomplus.mouseout"/>
                        </use>
                        <path d="M-4,0h8M0,-4v8" fill="none" stroke="white" stroke-width="1.5" pointer-events="none"/>
                </g>
                <g id="zoomMin">
                        <use xlink:href="#rim" fill="#404040">
                                <set attributeName="fill" to="#808080" begin="zoomminus.mouseover" end="zoomminus.mouseout"/>
                        </use>
                        <path d="M-4,0h8" fill="none" stroke="white" stroke-width="1.5" pointer-events="none"/>
                </g>
                <g id="dirArrow">
                        <path fill="none" stroke="white" stroke-width="1.5" d="M0,-3.0v7 M-2.5,-0.5L0,-3.0L2.5,-0.5"/>
                </g>
               <g id="resetDef">
                       <use xlink:href="#rim2" fill="#404040">
                               <set attributeName="fill" to="#808080" begin="reset.mouseover" end="reset.mouseout"/>
                       </use>
               </g>
        </defs>

<script type="text/javascript">
var viewWidth = 1096;
var viewHeight = 39;
var sectionId = 'dynsection-16';
</script>
<script xlink:href="../../svgpan.js"/>
<svg id="graph" class="graph">
<g id="viewport">
<title>OverlayWrapper::mouseReleased</title>
<polygon fill="white" stroke="none" points="-4,4 -4,-35 1092,-35 1092,4 -4,4"/>
<!-- Node110 -->
<g id="node1" class="node"><title>Node110</title>
<polygon fill="#bfbfbf" stroke="black" points="0,-6 0,-25 161,-25 161,-6 0,-6"/>
<text text-anchor="middle" x="80.5" y="-13" font-family="Helvetica,sans-Serif" font-size="10.00">OverlayWrapper::mouseReleased</text>
</g>
<!-- Node111 -->
<g id="node2" class="node"><title>Node111</title>
<g id="a_node2"><a xlink:href="../../db/df1/class_g_u_i_input_manager.html#a5f096906671c8b2fc404353cb0cc3cf4" target="_top" xlink:title="GUIInputManager::mouseReleased">
<polygon fill="white" stroke="black" points="197,-6 197,-25 364,-25 364,-6 197,-6"/>
<text text-anchor="middle" x="280.5" y="-13" font-family="Helvetica,sans-Serif" font-size="10.00">GUIInputManager::mouseReleased</text>
</a>
</g>
</g>
<!-- Node110&#45;&gt;Node111 -->
<g id="edge1" class="edge"><title>Node110&#45;&gt;Node111</title>
<path fill="none" stroke="midnightblue" d="M171.413,-15.5C179.854,-15.5 188.383,-15.5 196.753,-15.5"/>
<polygon fill="midnightblue" stroke="midnightblue" points="171.178,-12.0001 161.178,-15.5 171.178,-19.0001 171.178,-12.0001"/>
</g>
<!-- Node112 -->
<g id="node3" class="node"><title>Node112</title>
<g id="a_node3"><a xlink:href="../../db/df1/class_g_u_i_input_manager.html#ab59361b8e1a9e31e53b5e5523f2b4801" target="_top" xlink:title="GUIInputManager::getLast\lMouseMoveTime">
<polygon fill="white" stroke="black" points="400,-0.5 400,-30.5 530,-30.5 530,-0.5 400,-0.5"/>
<text text-anchor="start" x="408" y="-18.5" font-family="Helvetica,sans-Serif" font-size="10.00">GUIInputManager::getLast</text>
<text text-anchor="middle" x="465" y="-7.5" font-family="Helvetica,sans-Serif" font-size="10.00">MouseMoveTime</text>
</a>
</g>
</g>
<!-- Node111&#45;&gt;Node112 -->
<g id="edge2" class="edge"><title>Node111&#45;&gt;Node112</title>
<path fill="none" stroke="midnightblue" d="M374.341,-15.5C382.982,-15.5 391.605,-15.5 399.898,-15.5"/>
<polygon fill="midnightblue" stroke="midnightblue" points="374.206,-12.0001 364.206,-15.5 374.206,-19.0001 374.206,-12.0001"/>
</g>
<!-- Node113 -->
<g id="node4" class="node"><title>Node113</title>
<g id="a_node4"><a xlink:href="../../d8/d11/class_ro_r_1_1_g_u_i_manager.html#aae1570a62049085aa74ce274ac9a70ad" target="_top" xlink:title="RoR::GUIManager::frameStarted">
<polygon fill="white" stroke="black" points="566,-6 566,-25 723,-25 723,-6 566,-6"/>
<text text-anchor="middle" x="644.5" y="-13" font-family="Helvetica,sans-Serif" font-size="10.00">RoR::GUIManager::frameStarted</text>
</a>
</g>
</g>
<!-- Node112&#45;&gt;Node113 -->
<g id="edge3" class="edge"><title>Node112&#45;&gt;Node113</title>
<path fill="none" stroke="midnightblue" d="M540.289,-15.5C548.748,-15.5 557.387,-15.5 565.888,-15.5"/>
<polygon fill="midnightblue" stroke="midnightblue" points="540.082,-12.0001 530.082,-15.5 540.082,-19.0001 540.082,-12.0001"/>
</g>
<!-- Node114 -->
<g id="node5" class="node"><title>Node114</title>
<g id="a_node5"><a xlink:href="../../d8/d11/class_ro_r_1_1_g_u_i_manager.html#a4ab273bd0538649818c84b38e8a06100" target="_top" xlink:title="RoR::GUIManager::GetTheme">
<polygon fill="white" stroke="black" points="759,-6 759,-25 905,-25 905,-6 759,-6"/>
<text text-anchor="middle" x="832" y="-13" font-family="Helvetica,sans-Serif" font-size="10.00">RoR::GUIManager::GetTheme</text>
</a>
</g>
</g>
<!-- Node113&#45;&gt;Node114 -->
<g id="edge4" class="edge"><title>Node113&#45;&gt;Node114</title>
<path fill="none" stroke="midnightblue" d="M733.125,-15.5C741.707,-15.5 750.349,-15.5 758.754,-15.5"/>
<polygon fill="midnightblue" stroke="midnightblue" points="733.094,-12.0001 723.094,-15.5 733.094,-19.0001 733.094,-12.0001"/>
</g>
<!-- Node115 -->
<g id="node6" class="node"><title>Node115</title>
<g id="a_node6"><a xlink:href="../../d4/d8f/class_ro_r_1_1_g_u_i_1_1_multiplayer_selector.html#a8c98e9ba03c8afb1d1a26ec06192862e" target="_top" xlink:title="RoR::GUI::MultiplayerSelector\l::~MultiplayerSelector">
<polygon fill="white" stroke="black" points="941,-0.5 941,-30.5 1088,-30.5 1088,-0.5 941,-0.5"/>
<text text-anchor="start" x="949" y="-18.5" font-family="Helvetica,sans-Serif" font-size="10.00">RoR::GUI::MultiplayerSelector</text>
<text text-anchor="middle" x="1014.5" y="-7.5" font-family="Helvetica,sans-Serif" font-size="10.00">::~MultiplayerSelector</text>
</a>
</g>
</g>
<!-- Node114&#45;&gt;Node115 -->
<g id="edge5" class="edge"><title>Node114&#45;&gt;Node115</title>
<path fill="none" stroke="midnightblue" d="M915.142,-15.5C923.737,-15.5 932.431,-15.5 940.909,-15.5"/>
<polygon fill="midnightblue" stroke="midnightblue" points="915.117,-12.0001 905.117,-15.5 915.117,-19.0001 915.117,-12.0001"/>
</g>
</g>
</svg>
        <g id="navigator" transform="translate(0 0)" fill="#404254">
                <rect fill="#f2f5e9" fill-opacity="0.5" stroke="#606060" stroke-width=".5" x="0" y="0" width="60" height="60"/>
                <use id="zoomplus" xlink:href="#zoomPlus" x="17" y="9" onmousedown="handleZoom(evt,'in')"/>
                <use id="zoomminus" xlink:href="#zoomMin" x="42" y="9" onmousedown="handleZoom(evt,'out')"/>
                <use id="reset" xlink:href="#resetDef" x="30" y="36" onmousedown="handleReset()"/>
                <g id="arrowUp" xlink:href="#dirArrow" transform="translate(30 24)" onmousedown="handlePan(0,-1)">
                  <use xlink:href="#rim" fill="#404040">
                        <set attributeName="fill" to="#808080" begin="arrowUp.mouseover" end="arrowUp.mouseout"/>
                  </use>
                  <path fill="none" stroke="white" stroke-width="1.5" d="M0,-3.0v7 M-2.5,-0.5L0,-3.0L2.5,-0.5"/>
                </g>
                <g id="arrowRight" xlink:href="#dirArrow" transform="rotate(90) translate(36 -43)" onmousedown="handlePan(1,0)">
                  <use xlink:href="#rim" fill="#404040">
                        <set attributeName="fill" to="#808080" begin="arrowRight.mouseover" end="arrowRight.mouseout"/>
                  </use>
                  <path fill="none" stroke="white" stroke-width="1.5" d="M0,-3.0v7 M-2.5,-0.5L0,-3.0L2.5,-0.5"/>
                </g>
                <g id="arrowDown" xlink:href="#dirArrow" transform="rotate(180) translate(-30 -48)" onmousedown="handlePan(0,1)">
                  <use xlink:href="#rim" fill="#404040">
                        <set attributeName="fill" to="#808080" begin="arrowDown.mouseover" end="arrowDown.mouseout"/>
                  </use>
                  <path fill="none" stroke="white" stroke-width="1.5" d="M0,-3.0v7 M-2.5,-0.5L0,-3.0L2.5,-0.5"/>
                </g>
                <g id="arrowLeft" xlink:href="#dirArrow" transform="rotate(270) translate(-36 17)" onmousedown="handlePan(-1,0)">
                  <use xlink:href="#rim" fill="#404040">
                        <set attributeName="fill" to="#808080" begin="arrowLeft.mouseover" end="arrowLeft.mouseout"/>
                  </use>
                  <path fill="none" stroke="white" stroke-width="1.5" d="M0,-3.0v7 M-2.5,-0.5L0,-3.0L2.5,-0.5"/>
                </g>
        </g>
        <svg viewBox="0 0 15 15" width="100%" height="30px" preserveAspectRatio="xMaxYMin meet">
         <g id="arrow_out" transform="scale(0.3 0.3)">
          <a xlink:href="class_overlay_wrapper_a813c49ce923d19067d0a656c0d79c610_icgraph_org.svg" target="_base">
           <rect id="button" ry="5" rx="5" y="6" x="6" height="38" width="38"
                fill="#f2f5e9" fill-opacity="0.5" stroke="#606060" stroke-width="1.0"/>
           <path id="arrow"
             d="M 11.500037,31.436501 C 11.940474,20.09759 22.043105,11.32322 32.158766,21.979434 L 37.068811,17.246167 C 37.068811,17.246167 37.088388,32 37.088388,32 L 22.160133,31.978069 C 22.160133,31.978069 26.997745,27.140456 26.997745,27.140456 C 18.528582,18.264221 13.291696,25.230495 11.500037,31.436501 z"
             style="fill:#404040;"/>
          </a>
         </g>
        </svg>
</svg>
