<?xml version="1.0" encoding="UTF-8" standalone="no"?>
<!DOCTYPE svg PUBLIC "-//W3C//DTD SVG 1.1//EN"
 "http://www.w3.org/Graphics/SVG/1.1/DTD/svg11.dtd">
<!-- Generated by graphviz version 2.38.0 (20140413.2041)
 -->
<!-- Title: OverlayWrapper::UpdateLandVehicleHUD Pages: 1 -->
<svg width="325pt" height="180pt"
 viewBox="0.00 0.00 325.00 180.00" xmlns="http://www.w3.org/2000/svg" xmlns:xlink="http://www.w3.org/1999/xlink">
<g id="graph0" class="graph" transform="scale(1 1) rotate(0) translate(4 176)">
<title>OverlayWrapper::UpdateLandVehicleHUD</title>
<polygon fill="white" stroke="none" points="-4,4 -4,-176 321,-176 321,4 -4,4"/>
<!-- Node273 -->
<g id="node1" class="node"><title>Node273</title>
<polygon fill="#bfbfbf" stroke="black" points="0,-71 0,-101 143,-101 143,-71 0,-71"/>
<text text-anchor="start" x="8" y="-89" font-family="Helvetica,sans-Serif" font-size="10.00">OverlayWrapper::UpdateLand</text>
<text text-anchor="middle" x="71.5" y="-78" font-family="Helvetica,sans-Serif" font-size="10.00">VehicleHUD</text>
</g>
<!-- Node274 -->
<g id="node2" class="node"><title>Node274</title>
<g id="a_node2"><a xlink:href="../../d6/de4/class_beam_engine.html#ae5f87426f9dc96c4f4bf377b53e9936a" target="_top" xlink:title="BeamEngine::getGear">
<polygon fill="white" stroke="black" points="191.5,-152.5 191.5,-171.5 304.5,-171.5 304.5,-152.5 191.5,-152.5"/>
<text text-anchor="middle" x="248" y="-159.5" font-family="Helvetica,sans-Serif" font-size="10.00">BeamEngine::getGear</text>
</a>
</g>
</g>
<!-- Node273&#45;&gt;Node274 -->
<g id="edge1" class="edge"><title>Node273&#45;&gt;Node274</title>
<path fill="none" stroke="midnightblue" d="M97.1429,-101.194C118.263,-113.721 149.81,-131.275 179,-143 184.897,-145.369 191.194,-147.557 197.488,-149.541"/>
<polygon fill="midnightblue" stroke="midnightblue" points="196.733,-152.969 207.317,-152.488 198.743,-146.264 196.733,-152.969"/>
</g>
<!-- Node275 -->
<g id="node3" class="node"><title>Node275</title>
<g id="a_node3"><a xlink:href="../../d6/de4/class_beam_engine.html#a7231a53b2dd66a597463fd00cbeabb1f" target="_top" xlink:title="BeamEngine::getNumGears">
<polygon fill="white" stroke="black" points="179,-114.5 179,-133.5 317,-133.5 317,-114.5 179,-114.5"/>
<text text-anchor="middle" x="248" y="-121.5" font-family="Helvetica,sans-Serif" font-size="10.00">BeamEngine::getNumGears</text>
</a>
</g>
</g>
<!-- Node273&#45;&gt;Node275 -->
<g id="edge2" class="edge"><title>Node273&#45;&gt;Node275</title>
<path fill="none" stroke="midnightblue" d="M141.467,-101.019C158.744,-104.781 177.023,-108.761 193.426,-112.333"/>
<polygon fill="midnightblue" stroke="midnightblue" points="192.855,-115.791 203.371,-114.499 194.345,-108.951 192.855,-115.791"/>
</g>
<!-- Node276 -->
<g id="node4" class="node"><title>Node276</title>
<g id="a_node4"><a xlink:href="../../d6/de4/class_beam_engine.html#afc790a312867e2f3072905f5c6a47f71" target="_top" xlink:title="BeamEngine::getAutoShift">
<polygon fill="white" stroke="black" points="182.5,-76.5 182.5,-95.5 313.5,-95.5 313.5,-76.5 182.5,-76.5"/>
<text text-anchor="middle" x="248" y="-83.5" font-family="Helvetica,sans-Serif" font-size="10.00">BeamEngine::getAutoShift</text>
</a>
</g>
</g>
<!-- Node273&#45;&gt;Node276 -->
<g id="edge3" class="edge"><title>Node273&#45;&gt;Node276</title>
<path fill="none" stroke="midnightblue" d="M143.224,-86C152.729,-86 162.506,-86 172.08,-86"/>
<polygon fill="midnightblue" stroke="midnightblue" points="172.368,-89.5001 182.368,-86 172.368,-82.5001 172.368,-89.5001"/>
</g>
<!-- Node277 -->
<g id="node5" class="node"><title>Node277</title>
<g id="a_node5"><a xlink:href="../../d6/de4/class_beam_engine.html#a0da07abab36323b70d48fe5e9efe01fc" target="_top" xlink:title="BeamEngine::getMaxRPM">
<polygon fill="white" stroke="black" points="182,-38.5 182,-57.5 314,-57.5 314,-38.5 182,-38.5"/>
<text text-anchor="middle" x="248" y="-45.5" font-family="Helvetica,sans-Serif" font-size="10.00">BeamEngine::getMaxRPM</text>
</a>
</g>
</g>
<!-- Node273&#45;&gt;Node277 -->
<g id="edge4" class="edge"><title>Node273&#45;&gt;Node277</title>
<path fill="none" stroke="midnightblue" d="M141.467,-70.9814C158.744,-67.219 177.023,-63.2386 193.426,-59.6666"/>
<polygon fill="midnightblue" stroke="midnightblue" points="194.345,-63.0486 203.371,-57.5009 192.855,-56.2089 194.345,-63.0486"/>
</g>
<!-- Node278 -->
<g id="node6" class="node"><title>Node278</title>
<g id="a_node6"><a xlink:href="../../d6/de4/class_beam_engine.html#a871214fce37bde9b73e59494e2dc2bca" target="_top" xlink:title="BeamEngine::getRPM">
<polygon fill="white" stroke="black" points="191.5,-0.5 191.5,-19.5 304.5,-19.5 304.5,-0.5 191.5,-0.5"/>
<text text-anchor="middle" x="248" y="-7.5" font-family="Helvetica,sans-Serif" font-size="10.00">BeamEngine::getRPM</text>
</a>
</g>
</g>
<!-- Node273&#45;&gt;Node278 -->
<g id="edge5" class="edge"><title>Node273&#45;&gt;Node278</title>
<path fill="none" stroke="midnightblue" d="M97.1429,-70.8058C118.263,-58.2789 149.81,-40.7247 179,-29 184.897,-26.6314 191.194,-24.4429 197.488,-22.4588"/>
<polygon fill="midnightblue" stroke="midnightblue" points="198.743,-25.7364 207.317,-19.5124 196.733,-19.0312 198.743,-25.7364"/>
</g>
</g>
</svg>
