<?xml version="1.0" encoding="UTF-8" standalone="no"?>
<!DOCTYPE svg PUBLIC "-//W3C//DTD SVG 1.1//EN"
 "http://www.w3.org/Graphics/SVG/1.1/DTD/svg11.dtd">
<!-- Generated by graphviz version 2.38.0 (20140413.2041)
 -->
<!-- Title: OverlayWrapper::OverlayWrapper Pages: 1 -->
<svg width="721pt" height="192pt"
 viewBox="0.00 0.00 721.00 192.00" xmlns="http://www.w3.org/2000/svg" xmlns:xlink="http://www.w3.org/1999/xlink">
<g id="graph0" class="graph" transform="scale(1 1) rotate(0) translate(4 188)">
<title>OverlayWrapper::OverlayWrapper</title>
<polygon fill="white" stroke="none" points="-4,4 -4,-188 717,-188 717,4 -4,4"/>
<!-- Node0 -->
<g id="node1" class="node"><title>Node0</title>
<polygon fill="#bfbfbf" stroke="black" points="0,-120.5 0,-139.5 161,-139.5 161,-120.5 0,-120.5"/>
<text text-anchor="middle" x="80.5" y="-127.5" font-family="Helvetica,sans-Serif" font-size="10.00">OverlayWrapper::OverlayWrapper</text>
</g>
<!-- Node1 -->
<g id="node2" class="node"><title>Node1</title>
<g id="a_node2"><a xlink:href="../../df/d86/namespace_ro_r_1_1_app.html#ab0161218de3dc36879f3e69b84238eba" target="_top" xlink:title="RoR::App::GetOgreSubsystem">
<polygon fill="white" stroke="black" points="197,-164.5 197,-183.5 348,-183.5 348,-164.5 197,-164.5"/>
<text text-anchor="middle" x="272.5" y="-171.5" font-family="Helvetica,sans-Serif" font-size="10.00">RoR::App::GetOgreSubsystem</text>
</a>
</g>
</g>
<!-- Node0&#45;&gt;Node1 -->
<g id="edge1" class="edge"><title>Node0&#45;&gt;Node1</title>
<path fill="none" stroke="midnightblue" d="M122.727,-139.547C151.36,-146.178 189.71,-155.059 220.301,-162.143"/>
<polygon fill="midnightblue" stroke="midnightblue" points="219.821,-165.625 230.353,-164.471 221.401,-158.805 219.821,-165.625"/>
</g>
<!-- Node2 -->
<g id="node3" class="node"><title>Node2</title>
<g id="a_node3"><a xlink:href="../../df/db5/class_ro_r_1_1_ogre_subsystem.html#aec5be99797f9add72578fb1fbfec582f" target="_top" xlink:title="RoR::OgreSubsystem\l::GetRenderWindow">
<polygon fill="white" stroke="black" points="216.5,-115 216.5,-145 328.5,-145 328.5,-115 216.5,-115"/>
<text text-anchor="start" x="224.5" y="-133" font-family="Helvetica,sans-Serif" font-size="10.00">RoR::OgreSubsystem</text>
<text text-anchor="middle" x="272.5" y="-122" font-family="Helvetica,sans-Serif" font-size="10.00">::GetRenderWindow</text>
</a>
</g>
</g>
<!-- Node0&#45;&gt;Node2 -->
<g id="edge2" class="edge"><title>Node0&#45;&gt;Node2</title>
<path fill="none" stroke="midnightblue" d="M161.251,-130C176.206,-130 191.678,-130 206.133,-130"/>
<polygon fill="midnightblue" stroke="midnightblue" points="206.457,-133.5 216.457,-130 206.457,-126.5 206.457,-133.5"/>
</g>
<!-- Node3 -->
<g id="node4" class="node"><title>Node3</title>
<g id="a_node4"><a xlink:href="../../df/d47/class_overlay_wrapper.html#ad7b118e7cbe7a185df4473e11bd8a46d" target="_top" xlink:title="OverlayWrapper::init">
<polygon fill="white" stroke="black" points="220.5,-76.5 220.5,-95.5 324.5,-95.5 324.5,-76.5 220.5,-76.5"/>
<text text-anchor="middle" x="272.5" y="-83.5" font-family="Helvetica,sans-Serif" font-size="10.00">OverlayWrapper::init</text>
</a>
</g>
</g>
<!-- Node0&#45;&gt;Node3 -->
<g id="edge3" class="edge"><title>Node0&#45;&gt;Node3</title>
<path fill="none" stroke="midnightblue" d="M122.727,-120.453C151.36,-113.822 189.71,-104.941 220.301,-97.8565"/>
<polygon fill="midnightblue" stroke="midnightblue" points="221.401,-101.195 230.353,-95.5287 219.821,-94.3751 221.401,-101.195"/>
</g>
<!-- Node4 -->
<g id="node5" class="node"><title>Node4</title>
<g id="a_node5"><a xlink:href="../../df/d47/class_overlay_wrapper.html#a1efa678e12875b4b84ab42dbb184edd4" target="_top" xlink:title="OverlayWrapper::loadOverlay">
<polygon fill="white" stroke="black" points="384.5,-164.5 384.5,-183.5 526.5,-183.5 526.5,-164.5 384.5,-164.5"/>
<text text-anchor="middle" x="455.5" y="-171.5" font-family="Helvetica,sans-Serif" font-size="10.00">OverlayWrapper::loadOverlay</text>
</a>
</g>
</g>
<!-- Node3&#45;&gt;Node4 -->
<g id="edge4" class="edge"><title>Node3&#45;&gt;Node4</title>
<path fill="none" stroke="midnightblue" d="M324.809,-94.8428C332.987,-97.6087 341.035,-101.238 348,-106 370.308,-121.252 361.7,-139.737 384,-155 386.913,-156.994 390.026,-158.778 393.261,-160.376"/>
<polygon fill="midnightblue" stroke="midnightblue" points="392.069,-163.673 402.638,-164.401 394.83,-157.24 392.069,-163.673"/>
</g>
<!-- Node6 -->
<g id="node7" class="node"><title>Node6</title>
<g id="a_node7"><a xlink:href="../../df/d47/class_overlay_wrapper.html#aa751cd9eecb3717a754cf91c6be2ce4d" target="_top" xlink:title="OverlayWrapper::loadOverlay\lElement">
<polygon fill="white" stroke="black" points="384.5,-115 384.5,-145 526.5,-145 526.5,-115 384.5,-115"/>
<text text-anchor="start" x="392.5" y="-133" font-family="Helvetica,sans-Serif" font-size="10.00">OverlayWrapper::loadOverlay</text>
<text text-anchor="middle" x="455.5" y="-122" font-family="Helvetica,sans-Serif" font-size="10.00">Element</text>
</a>
</g>
</g>
<!-- Node3&#45;&gt;Node6 -->
<g id="edge6" class="edge"><title>Node3&#45;&gt;Node6</title>
<path fill="none" stroke="midnightblue" d="M312.774,-95.5473C333.244,-100.523 358.926,-106.767 382.787,-112.567"/>
<polygon fill="midnightblue" stroke="midnightblue" points="381.983,-115.973 392.527,-114.935 383.636,-109.171 381.983,-115.973"/>
</g>
<!-- Node7 -->
<g id="node8" class="node"><title>Node7</title>
<g id="a_node8"><a xlink:href="../../d9/de9/struct_error_utils.html#aec73b03c7829838888bbecf9acda1b98" target="_top" xlink:title="ErrorUtils::ShowError">
<polygon fill="white" stroke="black" points="401.5,-76.5 401.5,-95.5 509.5,-95.5 509.5,-76.5 401.5,-76.5"/>
<text text-anchor="middle" x="455.5" y="-83.5" font-family="Helvetica,sans-Serif" font-size="10.00">ErrorUtils::ShowError</text>
</a>
</g>
</g>
<!-- Node3&#45;&gt;Node7 -->
<g id="edge7" class="edge"><title>Node3&#45;&gt;Node7</title>
<path fill="none" stroke="midnightblue" d="M324.883,-86C345.545,-86 369.575,-86 391.292,-86"/>
<polygon fill="midnightblue" stroke="midnightblue" points="391.413,-89.5001 401.413,-86 391.413,-82.5001 391.413,-89.5001"/>
</g>
<!-- Node9 -->
<g id="node10" class="node"><title>Node9</title>
<g id="a_node10"><a xlink:href="../../df/d47/class_overlay_wrapper.html#af04680c7e12a731fef2db00e3dcd8143" target="_top" xlink:title="OverlayWrapper::resizePanel">
<polygon fill="white" stroke="black" points="384,-38.5 384,-57.5 527,-57.5 527,-38.5 384,-38.5"/>
<text text-anchor="middle" x="455.5" y="-45.5" font-family="Helvetica,sans-Serif" font-size="10.00">OverlayWrapper::resizePanel</text>
</a>
</g>
</g>
<!-- Node3&#45;&gt;Node9 -->
<g id="edge9" class="edge"><title>Node3&#45;&gt;Node9</title>
<path fill="none" stroke="midnightblue" d="M319.174,-76.411C343.489,-71.3061 373.58,-64.9887 399.208,-59.6082"/>
<polygon fill="midnightblue" stroke="midnightblue" points="400.087,-63.0001 409.154,-57.5201 398.649,-56.1495 400.087,-63.0001"/>
</g>
<!-- Node10 -->
<g id="node11" class="node"><title>Node10</title>
<g id="a_node11"><a xlink:href="../../df/d47/class_overlay_wrapper.html#adbd14cda6b9c56d4cb3e136ea6447d63" target="_top" xlink:title="OverlayWrapper::reposPanel">
<polygon fill="white" stroke="black" points="385.5,-0.5 385.5,-19.5 525.5,-19.5 525.5,-0.5 385.5,-0.5"/>
<text text-anchor="middle" x="455.5" y="-7.5" font-family="Helvetica,sans-Serif" font-size="10.00">OverlayWrapper::reposPanel</text>
</a>
</g>
</g>
<!-- Node3&#45;&gt;Node10 -->
<g id="edge10" class="edge"><title>Node3&#45;&gt;Node10</title>
<path fill="none" stroke="midnightblue" d="M289.469,-76.3797C310.516,-64.0279 348.979,-42.5731 384,-29 390.194,-26.5993 396.807,-24.3853 403.407,-22.3821"/>
<polygon fill="midnightblue" stroke="midnightblue" points="404.385,-25.7428 413.018,-19.6009 402.439,-19.0187 404.385,-25.7428"/>
</g>
<!-- Node5 -->
<g id="node6" class="node"><title>Node5</title>
<g id="a_node6"><a xlink:href="../../df/d47/class_overlay_wrapper.html#a10e6c145bc3e376b6cc2159929898b1d" target="_top" xlink:title="OverlayWrapper::resizeOverlay">
<polygon fill="white" stroke="black" points="563,-164.5 563,-183.5 713,-183.5 713,-164.5 563,-164.5"/>
<text text-anchor="middle" x="638" y="-171.5" font-family="Helvetica,sans-Serif" font-size="10.00">OverlayWrapper::resizeOverlay</text>
</a>
</g>
</g>
<!-- Node4&#45;&gt;Node5 -->
<g id="edge5" class="edge"><title>Node4&#45;&gt;Node5</title>
<path fill="none" stroke="midnightblue" d="M526.544,-174C535.091,-174 543.893,-174 552.622,-174"/>
<polygon fill="midnightblue" stroke="midnightblue" points="552.815,-177.5 562.815,-174 552.815,-170.5 552.815,-177.5"/>
</g>
<!-- Node8 -->
<g id="node9" class="node"><title>Node8</title>
<g id="a_node9"><a xlink:href="../../d9/de9/struct_error_utils.html#a3250a36825c8b55b26d1565addb7e922" target="_top" xlink:title="ErrorUtils::ShowMsgBox">
<polygon fill="white" stroke="black" points="576.5,-76.5 576.5,-95.5 699.5,-95.5 699.5,-76.5 576.5,-76.5"/>
<text text-anchor="middle" x="638" y="-83.5" font-family="Helvetica,sans-Serif" font-size="10.00">ErrorUtils::ShowMsgBox</text>
</a>
</g>
</g>
<!-- Node7&#45;&gt;Node8 -->
<g id="edge8" class="edge"><title>Node7&#45;&gt;Node8</title>
<path fill="none" stroke="midnightblue" d="M509.68,-86C527.397,-86 547.422,-86 566.257,-86"/>
<polygon fill="midnightblue" stroke="midnightblue" points="566.276,-89.5001 576.276,-86 566.276,-82.5001 566.276,-89.5001"/>
</g>
</g>
</svg>
