<?xml version="1.0" encoding="UTF-8" standalone="no"?>
<!DOCTYPE svg PUBLIC "-//W3C//DTD SVG 1.1//EN"
 "http://www.w3.org/Graphics/SVG/1.1/DTD/svg11.dtd">
<!-- Generated by graphviz version 2.38.0 (20140413.2041)
 -->
<!-- Title: source/main/physics/flex/FlexMesh.h Pages: 1 -->
<svg width="512pt" height="173pt"
 viewBox="0.00 0.00 512.00 173.00" xmlns="http://www.w3.org/2000/svg" xmlns:xlink="http://www.w3.org/1999/xlink">
<g id="graph0" class="graph" transform="scale(1 1) rotate(0) translate(4 169)">
<title>source/main/physics/flex/FlexMesh.h</title>
<polygon fill="white" stroke="none" points="-4,4 -4,-169 508,-169 508,4 -4,4"/>
<!-- Node24 -->
<g id="node1" class="node"><title>Node24</title>
<polygon fill="#bfbfbf" stroke="black" points="237,-134.5 237,-164.5 344,-164.5 344,-134.5 237,-134.5"/>
<text text-anchor="start" x="245" y="-152.5" font-family="Helvetica,sans-Serif" font-size="10.00">source/main/physics</text>
<text text-anchor="middle" x="290.5" y="-141.5" font-family="Helvetica,sans-Serif" font-size="10.00">/flex/FlexMesh.h</text>
</g>
<!-- Node25 -->
<g id="node2" class="node"><title>Node25</title>
<g id="a_node2"><a xlink:href="../../d2/d74/_beam_8cpp.html" target="_top" xlink:title="source/main/physics\l/Beam.cpp">
<polygon fill="white" stroke="black" points="0,-0.5 0,-30.5 107,-30.5 107,-0.5 0,-0.5"/>
<text text-anchor="start" x="8" y="-18.5" font-family="Helvetica,sans-Serif" font-size="10.00">source/main/physics</text>
<text text-anchor="middle" x="53.5" y="-7.5" font-family="Helvetica,sans-Serif" font-size="10.00">/Beam.cpp</text>
</a>
</g>
</g>
<!-- Node24&#45;&gt;Node25 -->
<g id="edge1" class="edge"><title>Node24&#45;&gt;Node25</title>
<path fill="none" stroke="midnightblue" d="M247.264,-130.331C226.707,-121.269 201.986,-109.751 180.5,-98 141.425,-76.6297 98.2422,-47.7021 73.6385,-30.678"/>
<polygon fill="midnightblue" stroke="midnightblue" points="246.123,-133.651 256.688,-134.442 248.922,-127.235 246.123,-133.651"/>
</g>
<!-- Node26 -->
<g id="node3" class="node"><title>Node26</title>
<g id="a_node3"><a xlink:href="../../db/dc2/_flex_mesh_wheel_8h.html" target="_top" xlink:title="source/main/physics\l/flex/FlexMeshWheel.h">
<polygon fill="white" stroke="black" points="189.5,-67.5 189.5,-97.5 305.5,-97.5 305.5,-67.5 189.5,-67.5"/>
<text text-anchor="start" x="197.5" y="-85.5" font-family="Helvetica,sans-Serif" font-size="10.00">source/main/physics</text>
<text text-anchor="middle" x="247.5" y="-74.5" font-family="Helvetica,sans-Serif" font-size="10.00">/flex/FlexMeshWheel.h</text>
</a>
</g>
</g>
<!-- Node24&#45;&gt;Node26 -->
<g id="edge2" class="edge"><title>Node24&#45;&gt;Node26</title>
<path fill="none" stroke="midnightblue" d="M275.527,-125.867C269.304,-116.459 262.274,-105.833 256.812,-97.5765"/>
<polygon fill="midnightblue" stroke="midnightblue" points="272.733,-127.987 281.17,-134.396 278.571,-124.125 272.733,-127.987"/>
</g>
<!-- Node29 -->
<g id="node6" class="node"><title>Node29</title>
<g id="a_node6"><a xlink:href="../../df/df5/_rig_spawner_8cpp.html" target="_top" xlink:title="Vehicle spawning logic. ">
<polygon fill="white" stroke="black" points="397,-0.5 397,-30.5 504,-30.5 504,-0.5 397,-0.5"/>
<text text-anchor="start" x="405" y="-18.5" font-family="Helvetica,sans-Serif" font-size="10.00">source/main/physics</text>
<text text-anchor="middle" x="450.5" y="-7.5" font-family="Helvetica,sans-Serif" font-size="10.00">/RigSpawner.cpp</text>
</a>
</g>
</g>
<!-- Node24&#45;&gt;Node29 -->
<g id="edge8" class="edge"><title>Node24&#45;&gt;Node29</title>
<path fill="none" stroke="midnightblue" d="M304.194,-125.736C315.681,-108.057 333.404,-83.8019 353.5,-67 371.707,-51.7772 395.26,-39.3803 414.598,-30.679"/>
<polygon fill="midnightblue" stroke="midnightblue" points="301.16,-123.984 298.775,-134.307 307.077,-127.724 301.16,-123.984"/>
</g>
<!-- Node30 -->
<g id="node7" class="node"><title>Node30</title>
<g id="a_node7"><a xlink:href="../../d1/d81/_flex_mesh_8cpp.html" target="_top" xlink:title="source/main/physics\l/flex/FlexMesh.cpp">
<polygon fill="white" stroke="black" points="362,-67.5 362,-97.5 469,-97.5 469,-67.5 362,-67.5"/>
<text text-anchor="start" x="370" y="-85.5" font-family="Helvetica,sans-Serif" font-size="10.00">source/main/physics</text>
<text text-anchor="middle" x="415.5" y="-74.5" font-family="Helvetica,sans-Serif" font-size="10.00">/flex/FlexMesh.cpp</text>
</a>
</g>
</g>
<!-- Node24&#45;&gt;Node30 -->
<g id="edge7" class="edge"><title>Node24&#45;&gt;Node30</title>
<path fill="none" stroke="midnightblue" d="M326.626,-129.714C346.34,-119.463 370.341,-106.983 388.43,-97.5765"/>
<polygon fill="midnightblue" stroke="midnightblue" points="324.881,-126.677 317.623,-134.396 328.11,-132.888 324.881,-126.677"/>
</g>
<!-- Node26&#45;&gt;Node25 -->
<g id="edge3" class="edge"><title>Node26&#45;&gt;Node25</title>
<path fill="none" stroke="midnightblue" d="M195.543,-64.0917C164.226,-53.5988 124.857,-40.4082 95.513,-30.5765"/>
<polygon fill="midnightblue" stroke="midnightblue" points="194.811,-67.5376 205.405,-67.396 197.035,-60.9003 194.811,-67.5376"/>
</g>
<!-- Node27 -->
<g id="node4" class="node"><title>Node27</title>
<g id="a_node4"><a xlink:href="../../da/d91/_flex_factory_8cpp.html" target="_top" xlink:title="source/main/physics\l/flex/FlexFactory.cpp">
<polygon fill="white" stroke="black" points="125.5,-0.5 125.5,-30.5 233.5,-30.5 233.5,-0.5 125.5,-0.5"/>
<text text-anchor="start" x="133.5" y="-18.5" font-family="Helvetica,sans-Serif" font-size="10.00">source/main/physics</text>
<text text-anchor="middle" x="179.5" y="-7.5" font-family="Helvetica,sans-Serif" font-size="10.00">/flex/FlexFactory.cpp</text>
</a>
</g>
</g>
<!-- Node26&#45;&gt;Node27 -->
<g id="edge4" class="edge"><title>Node26&#45;&gt;Node27</title>
<path fill="none" stroke="midnightblue" d="M225.334,-60.3115C215.133,-50.5612 203.309,-39.259 194.226,-30.5765"/>
<polygon fill="midnightblue" stroke="midnightblue" points="223.098,-63.0162 232.745,-67.396 227.935,-57.9561 223.098,-63.0162"/>
</g>
<!-- Node28 -->
<g id="node5" class="node"><title>Node28</title>
<g id="a_node5"><a xlink:href="../../d5/d4a/_flex_mesh_wheel_8cpp.html" target="_top" xlink:title="source/main/physics\l/flex/FlexMeshWheel.cpp">
<polygon fill="white" stroke="black" points="252,-0.5 252,-30.5 379,-30.5 379,-0.5 252,-0.5"/>
<text text-anchor="start" x="260" y="-18.5" font-family="Helvetica,sans-Serif" font-size="10.00">source/main/physics</text>
<text text-anchor="middle" x="315.5" y="-7.5" font-family="Helvetica,sans-Serif" font-size="10.00">/flex/FlexMeshWheel.cpp</text>
</a>
</g>
</g>
<!-- Node26&#45;&gt;Node28 -->
<g id="edge5" class="edge"><title>Node26&#45;&gt;Node28</title>
<path fill="none" stroke="midnightblue" d="M269.666,-60.3115C279.867,-50.5612 291.691,-39.259 300.774,-30.5765"/>
<polygon fill="midnightblue" stroke="midnightblue" points="267.065,-57.9561 262.255,-67.396 271.902,-63.0162 267.065,-57.9561"/>
</g>
<!-- Node26&#45;&gt;Node29 -->
<g id="edge6" class="edge"><title>Node26&#45;&gt;Node29</title>
<path fill="none" stroke="midnightblue" d="M301.442,-64.2278C334.281,-53.7131 375.7,-40.4508 406.538,-30.5765"/>
<polygon fill="midnightblue" stroke="midnightblue" points="300.004,-61.0131 291.548,-67.396 302.139,-67.6797 300.004,-61.0131"/>
</g>
</g>
</svg>
