<?xml version="1.0" encoding="UTF-8" standalone="no"?>
<!DOCTYPE svg PUBLIC "-//W3C//DTD SVG 1.1//EN"
 "http://www.w3.org/Graphics/SVG/1.1/DTD/svg11.dtd">
<!-- Generated by graphviz version 2.38.0 (20140413.2041)
 -->
<!-- Title: source/main/gfx/hydrax/Module.h Pages: 1 -->
<svg width="2148pt" height="375pt"
 viewBox="0.00 0.00 2148.00 375.00" xmlns="http://www.w3.org/2000/svg" xmlns:xlink="http://www.w3.org/1999/xlink">
<g id="graph0" class="graph" transform="scale(1 1) rotate(0) translate(4 371)">
<title>source/main/gfx/hydrax/Module.h</title>
<polygon fill="white" stroke="none" points="-4,4 -4,-371 2144,-371 2144,4 -4,4"/>
<!-- Node0 -->
<g id="node1" class="node"><title>Node0</title>
<polygon fill="#bfbfbf" stroke="black" points="185,-336.5 185,-366.5 303,-366.5 303,-336.5 185,-336.5"/>
<text text-anchor="start" x="193" y="-354.5" font-family="Helvetica,sans-Serif" font-size="10.00">source/main/gfx/hydrax</text>
<text text-anchor="middle" x="244" y="-343.5" font-family="Helvetica,sans-Serif" font-size="10.00">/Module.h</text>
</g>
<!-- Node1 -->
<g id="node2" class="node"><title>Node1</title>
<g id="a_node2"><a xlink:href="../../dc/d89/hydrax_2_prerequisites_8h.html" target="_top" xlink:title="Prerequisites.h">
<polygon fill="white" stroke="black" points="195,-56.5 195,-75.5 277,-75.5 277,-56.5 195,-56.5"/>
<text text-anchor="middle" x="236" y="-63.5" font-family="Helvetica,sans-Serif" font-size="10.00">Prerequisites.h</text>
</a>
</g>
</g>
<!-- Node0&#45;&gt;Node1 -->
<g id="edge1" class="edge"><title>Node0&#45;&gt;Node1</title>
<path fill="none" stroke="midnightblue" d="M184.934,-347.642C112.722,-340.601 0,-316.549 0,-235 0,-235 0,-235 0,-177 0,-96.1656 115.15,-74.5877 184.582,-68.9242"/>
<polygon fill="midnightblue" stroke="midnightblue" points="185.173,-72.3905 194.892,-68.172 184.664,-65.4091 185.173,-72.3905"/>
</g>
<!-- Node3 -->
<g id="node4" class="node"><title>Node3</title>
<g id="a_node4"><a xlink:href="../../d8/d9c/_ro_r_prerequisites_8h.html" target="_top" xlink:title="RoRPrerequisites.h">
<polygon fill="white" stroke="black" points="1142.5,-280.5 1142.5,-299.5 1243.5,-299.5 1243.5,-280.5 1142.5,-280.5"/>
<text text-anchor="middle" x="1193" y="-287.5" font-family="Helvetica,sans-Serif" font-size="10.00">RoRPrerequisites.h</text>
</a>
</g>
</g>
<!-- Node0&#45;&gt;Node3 -->
<g id="edge3" class="edge"><title>Node0&#45;&gt;Node3</title>
<path fill="none" stroke="midnightblue" d="M303.006,-346.8C472.654,-336.164 960.548,-305.574 1132.3,-294.806"/>
<polygon fill="midnightblue" stroke="midnightblue" points="1132.66,-298.29 1142.42,-294.171 1132.22,-291.304 1132.66,-298.29"/>
</g>
<!-- Node21 -->
<g id="node22" class="node"><title>Node21</title>
<g id="a_node22"><a xlink:href="../../d0/dde/_noise_8h.html" target="_top" xlink:title="Noise.h">
<polygon fill="white" stroke="black" points="132,-280.5 132,-299.5 182,-299.5 182,-280.5 132,-280.5"/>
<text text-anchor="middle" x="157" y="-287.5" font-family="Helvetica,sans-Serif" font-size="10.00">Noise.h</text>
</a>
</g>
</g>
<!-- Node0&#45;&gt;Node21 -->
<g id="edge22" class="edge"><title>Node0&#45;&gt;Node21</title>
<path fill="none" stroke="midnightblue" d="M223.382,-336.399C209.697,-327.04 191.789,-314.792 178.022,-305.377"/>
<polygon fill="midnightblue" stroke="midnightblue" points="179.889,-302.414 169.659,-299.658 175.938,-308.192 179.889,-302.414"/>
</g>
<!-- Node22 -->
<g id="node23" class="node"><title>Node22</title>
<g id="a_node23"><a xlink:href="../../de/daf/_g_p_u_normal_map_manager_8h.html" target="_top" xlink:title="GPUNormalMapManager.h">
<polygon fill="white" stroke="black" points="90.5,-224.5 90.5,-243.5 223.5,-243.5 223.5,-224.5 90.5,-224.5"/>
<text text-anchor="middle" x="157" y="-231.5" font-family="Helvetica,sans-Serif" font-size="10.00">GPUNormalMapManager.h</text>
</a>
</g>
</g>
<!-- Node0&#45;&gt;Node22 -->
<g id="edge42" class="edge"><title>Node0&#45;&gt;Node22</title>
<path fill="none" stroke="midnightblue" d="M233.451,-336.448C222.762,-322.213 205.746,-299.566 191,-280 183.914,-270.598 175.984,-260.101 169.566,-251.612"/>
<polygon fill="midnightblue" stroke="midnightblue" points="172.348,-249.487 163.524,-243.622 166.764,-253.709 172.348,-249.487"/>
</g>
<!-- Node26 -->
<g id="node27" class="node"><title>Node26</title>
<g id="a_node27"><a xlink:href="../../d2/da1/_mesh_8h.html" target="_top" xlink:title="Mesh.h">
<polygon fill="white" stroke="black" points="336.5,-224.5 336.5,-243.5 385.5,-243.5 385.5,-224.5 336.5,-224.5"/>
<text text-anchor="middle" x="361" y="-231.5" font-family="Helvetica,sans-Serif" font-size="10.00">Mesh.h</text>
</a>
</g>
</g>
<!-- Node0&#45;&gt;Node26 -->
<g id="edge33" class="edge"><title>Node0&#45;&gt;Node26</title>
<path fill="none" stroke="midnightblue" d="M258.346,-336.337C280.289,-314.676 322.047,-273.453 344.962,-250.832"/>
<polygon fill="midnightblue" stroke="midnightblue" points="347.56,-253.186 352.218,-243.669 342.643,-248.204 347.56,-253.186"/>
</g>
<!-- Node28 -->
<g id="node29" class="node"><title>Node28</title>
<g id="a_node29"><a xlink:href="../../d4/d16/_material_manager_8h.html" target="_top" xlink:title="MaterialManager.h">
<polygon fill="white" stroke="black" points="235.5,-168.5 235.5,-187.5 332.5,-187.5 332.5,-168.5 235.5,-168.5"/>
<text text-anchor="middle" x="284" y="-175.5" font-family="Helvetica,sans-Serif" font-size="10.00">MaterialManager.h</text>
</a>
</g>
</g>
<!-- Node0&#45;&gt;Node28 -->
<g id="edge39" class="edge"><title>Node0&#45;&gt;Node28</title>
<path fill="none" stroke="midnightblue" d="M247.273,-336.465C254.448,-305.704 271.562,-232.329 279.638,-197.7"/>
<polygon fill="midnightblue" stroke="midnightblue" points="283.141,-198.093 282.004,-187.56 276.324,-196.503 283.141,-198.093"/>
</g>
<!-- Node2 -->
<g id="node3" class="node"><title>Node2</title>
<polygon fill="white" stroke="#bfbfbf" points="213,-0.5 213,-19.5 259,-19.5 259,-0.5 213,-0.5"/>
<text text-anchor="middle" x="236" y="-7.5" font-family="Helvetica,sans-Serif" font-size="10.00">Ogre.h</text>
</g>
<!-- Node1&#45;&gt;Node2 -->
<g id="edge2" class="edge"><title>Node1&#45;&gt;Node2</title>
<path fill="none" stroke="midnightblue" d="M236,-56.083C236,-49.0059 236,-38.8611 236,-29.9865"/>
<polygon fill="midnightblue" stroke="midnightblue" points="239.5,-29.751 236,-19.7511 232.5,-29.7511 239.5,-29.751"/>
</g>
<!-- Node4 -->
<g id="node5" class="node"><title>Node4</title>
<polygon fill="white" stroke="#bfbfbf" points="1014.5,-224.5 1014.5,-243.5 1117.5,-243.5 1117.5,-224.5 1014.5,-224.5"/>
<text text-anchor="middle" x="1066" y="-231.5" font-family="Helvetica,sans-Serif" font-size="10.00">OgrePrerequisites.h</text>
</g>
<!-- Node3&#45;&gt;Node4 -->
<g id="edge4" class="edge"><title>Node3&#45;&gt;Node4</title>
<path fill="none" stroke="midnightblue" d="M1172.88,-280.444C1151.98,-271.557 1119.07,-257.563 1095.28,-247.451"/>
<polygon fill="midnightblue" stroke="midnightblue" points="1096.6,-244.208 1086.03,-243.516 1093.86,-250.65 1096.6,-244.208"/>
</g>
<!-- Node5 -->
<g id="node6" class="node"><title>Node5</title>
<polygon fill="white" stroke="#bfbfbf" points="1135.5,-224.5 1135.5,-243.5 1250.5,-243.5 1250.5,-224.5 1135.5,-224.5"/>
<text text-anchor="middle" x="1193" y="-231.5" font-family="Helvetica,sans-Serif" font-size="10.00">OgreAxisAlignedBox.h</text>
</g>
<!-- Node3&#45;&gt;Node5 -->
<g id="edge5" class="edge"><title>Node3&#45;&gt;Node5</title>
<path fill="none" stroke="midnightblue" d="M1193,-280.083C1193,-273.006 1193,-262.861 1193,-253.986"/>
<polygon fill="midnightblue" stroke="midnightblue" points="1196.5,-253.751 1193,-243.751 1189.5,-253.751 1196.5,-253.751"/>
</g>
<!-- Node6 -->
<g id="node7" class="node"><title>Node6</title>
<polygon fill="white" stroke="#bfbfbf" points="1269,-224.5 1269,-243.5 1367,-243.5 1367,-224.5 1269,-224.5"/>
<text text-anchor="middle" x="1318" y="-231.5" font-family="Helvetica,sans-Serif" font-size="10.00">OgreColourValue.h</text>
</g>
<!-- Node3&#45;&gt;Node6 -->
<g id="edge6" class="edge"><title>Node3&#45;&gt;Node6</title>
<path fill="none" stroke="midnightblue" d="M1212.81,-280.444C1233.29,-271.596 1265.48,-257.687 1288.86,-247.586"/>
<polygon fill="midnightblue" stroke="midnightblue" points="1290.49,-250.695 1298.29,-243.516 1287.72,-244.269 1290.49,-250.695"/>
</g>
<!-- Node7 -->
<g id="node8" class="node"><title>Node7</title>
<polygon fill="white" stroke="#bfbfbf" points="1385.5,-224.5 1385.5,-243.5 1486.5,-243.5 1486.5,-224.5 1385.5,-224.5"/>
<text text-anchor="middle" x="1436" y="-231.5" font-family="Helvetica,sans-Serif" font-size="10.00">OgreHeaderPrefix.h</text>
</g>
<!-- Node3&#45;&gt;Node7 -->
<g id="edge7" class="edge"><title>Node3&#45;&gt;Node7</title>
<path fill="none" stroke="midnightblue" d="M1231.5,-280.444C1273.81,-271.043 1341.82,-255.929 1387.67,-245.739"/>
<polygon fill="midnightblue" stroke="midnightblue" points="1388.67,-249.102 1397.68,-243.516 1387.15,-242.269 1388.67,-249.102"/>
</g>
<!-- Node8 -->
<g id="node9" class="node"><title>Node8</title>
<polygon fill="white" stroke="#bfbfbf" points="1504.5,-224.5 1504.5,-243.5 1603.5,-243.5 1603.5,-224.5 1504.5,-224.5"/>
<text text-anchor="middle" x="1554" y="-231.5" font-family="Helvetica,sans-Serif" font-size="10.00">OgreLogManager.h</text>
</g>
<!-- Node3&#45;&gt;Node8 -->
<g id="edge8" class="edge"><title>Node3&#45;&gt;Node8</title>
<path fill="none" stroke="midnightblue" d="M1243.68,-281.576C1301.8,-273.039 1400.26,-258.508 1494.36,-244.243"/>
<polygon fill="midnightblue" stroke="midnightblue" points="1494.97,-247.69 1504.33,-242.729 1493.92,-240.769 1494.97,-247.69"/>
</g>
<!-- Node9 -->
<g id="node10" class="node"><title>Node9</title>
<polygon fill="white" stroke="#bfbfbf" points="1621.5,-224.5 1621.5,-243.5 1714.5,-243.5 1714.5,-224.5 1621.5,-224.5"/>
<text text-anchor="middle" x="1668" y="-231.5" font-family="Helvetica,sans-Serif" font-size="10.00">OgreQuaternion.h</text>
</g>
<!-- Node3&#45;&gt;Node9 -->
<g id="edge9" class="edge"><title>Node3&#45;&gt;Node9</title>
<path fill="none" stroke="midnightblue" d="M1243.54,-284.498C1320.68,-277.426 1472.67,-262.702 1611.26,-244.177"/>
<polygon fill="midnightblue" stroke="midnightblue" points="1611.78,-247.64 1621.22,-242.836 1610.84,-240.702 1611.78,-247.64"/>
</g>
<!-- Node10 -->
<g id="node11" class="node"><title>Node10</title>
<polygon fill="white" stroke="#bfbfbf" points="1732.5,-224.5 1732.5,-243.5 1803.5,-243.5 1803.5,-224.5 1732.5,-224.5"/>
<text text-anchor="middle" x="1768" y="-231.5" font-family="Helvetica,sans-Serif" font-size="10.00">OgreString.h</text>
</g>
<!-- Node3&#45;&gt;Node10 -->
<g id="edge10" class="edge"><title>Node3&#45;&gt;Node10</title>
<path fill="none" stroke="midnightblue" d="M1243.74,-286.683C1336.79,-282.004 1541.09,-269.73 1722.08,-244.139"/>
<polygon fill="midnightblue" stroke="midnightblue" points="1722.64,-247.594 1732.04,-242.713 1721.65,-240.665 1722.64,-247.594"/>
</g>
<!-- Node11 -->
<g id="node12" class="node"><title>Node11</title>
<polygon fill="white" stroke="#bfbfbf" points="1822,-224.5 1822,-243.5 1934,-243.5 1934,-224.5 1822,-224.5"/>
<text text-anchor="middle" x="1878" y="-231.5" font-family="Helvetica,sans-Serif" font-size="10.00">OgreStringConverter.h</text>
</g>
<!-- Node3&#45;&gt;Node11 -->
<g id="edge11" class="edge"><title>Node3&#45;&gt;Node11</title>
<path fill="none" stroke="midnightblue" d="M1243.73,-286.44C1348.07,-280.931 1594.49,-266.671 1811.67,-244.078"/>
<polygon fill="midnightblue" stroke="midnightblue" points="1812.08,-247.554 1821.66,-243.03 1811.35,-240.592 1812.08,-247.554"/>
</g>
<!-- Node12 -->
<g id="node13" class="node"><title>Node12</title>
<polygon fill="white" stroke="#bfbfbf" points="1952.5,-224.5 1952.5,-243.5 2041.5,-243.5 2041.5,-224.5 1952.5,-224.5"/>
<text text-anchor="middle" x="1997" y="-231.5" font-family="Helvetica,sans-Serif" font-size="10.00">OgreUTFString.h</text>
</g>
<!-- Node3&#45;&gt;Node12 -->
<g id="edge12" class="edge"><title>Node3&#45;&gt;Node12</title>
<path fill="none" stroke="midnightblue" d="M1243.63,-287.8C1363.32,-284.568 1673.16,-273.892 1942.3,-243.948"/>
<polygon fill="midnightblue" stroke="midnightblue" points="1942.72,-247.424 1952.26,-242.829 1941.93,-240.467 1942.72,-247.424"/>
</g>
<!-- Node13 -->
<g id="node14" class="node"><title>Node13</title>
<polygon fill="white" stroke="#bfbfbf" points="2060,-224.5 2060,-243.5 2140,-243.5 2140,-224.5 2060,-224.5"/>
<text text-anchor="middle" x="2100" y="-231.5" font-family="Helvetica,sans-Serif" font-size="10.00">OgreVector2.h</text>
</g>
<!-- Node3&#45;&gt;Node13 -->
<g id="edge13" class="edge"><title>Node3&#45;&gt;Node13</title>
<path fill="none" stroke="midnightblue" d="M1243.96,-288.621C1375.68,-287.151 1738.29,-279.989 2049.82,-243.975"/>
<polygon fill="midnightblue" stroke="midnightblue" points="2050.43,-247.428 2059.95,-242.791 2049.61,-240.475 2050.43,-247.428"/>
</g>
<!-- Node14 -->
<g id="node15" class="node"><title>Node14</title>
<polygon fill="white" stroke="#bfbfbf" points="404,-224.5 404,-243.5 484,-243.5 484,-224.5 404,-224.5"/>
<text text-anchor="middle" x="444" y="-231.5" font-family="Helvetica,sans-Serif" font-size="10.00">OgreVector3.h</text>
</g>
<!-- Node3&#45;&gt;Node14 -->
<g id="edge14" class="edge"><title>Node3&#45;&gt;Node14</title>
<path fill="none" stroke="midnightblue" d="M1142.27,-287.462C1027.3,-283.596 738.23,-271.725 498,-244 496.725,-243.853 495.435,-243.696 494.134,-243.532"/>
<polygon fill="midnightblue" stroke="midnightblue" points="494.427,-240.039 484.041,-242.134 493.466,-246.973 494.427,-240.039"/>
</g>
<!-- Node15 -->
<g id="node16" class="node"><title>Node15</title>
<g id="a_node16"><a xlink:href="../../d3/d73/_forward_declarations_8h.html" target="_top" xlink:title="Global forward declarations. ">
<polygon fill="white" stroke="black" points="517.5,-168.5 517.5,-187.5 630.5,-187.5 630.5,-168.5 517.5,-168.5"/>
<text text-anchor="middle" x="574" y="-175.5" font-family="Helvetica,sans-Serif" font-size="10.00">ForwardDeclarations.h</text>
</a>
</g>
</g>
<!-- Node3&#45;&gt;Node15 -->
<g id="edge15" class="edge"><title>Node3&#45;&gt;Node15</title>
<path fill="none" stroke="midnightblue" d="M1142.41,-289.435C994.805,-290.178 572.461,-288.375 531,-244 516.552,-228.537 535.809,-207.706 552.979,-193.838"/>
<polygon fill="midnightblue" stroke="midnightblue" points="555.264,-196.497 561.084,-187.643 551.014,-190.935 555.264,-196.497"/>
</g>
<!-- Node16 -->
<g id="node17" class="node"><title>Node16</title>
<g id="a_node17"><a xlink:href="../../d7/dfa/_global_environment_8h.html" target="_top" xlink:title="GlobalEnvironment.h">
<polygon fill="white" stroke="black" points="540,-224.5 540,-243.5 646,-243.5 646,-224.5 540,-224.5"/>
<text text-anchor="middle" x="593" y="-231.5" font-family="Helvetica,sans-Serif" font-size="10.00">GlobalEnvironment.h</text>
</a>
</g>
</g>
<!-- Node3&#45;&gt;Node16 -->
<g id="edge16" class="edge"><title>Node3&#45;&gt;Node16</title>
<path fill="none" stroke="midnightblue" d="M1142.46,-285.8C1048.75,-279.644 841.462,-264.978 656.271,-244.08"/>
<polygon fill="midnightblue" stroke="midnightblue" points="656.404,-240.573 646.072,-242.92 655.613,-247.528 656.404,-240.573"/>
</g>
<!-- Node17 -->
<g id="node18" class="node"><title>Node17</title>
<g id="a_node18"><a xlink:href="../../dc/de5/_zeroed_memory_allocator_8h.html" target="_top" xlink:title="ZeroedMemoryAllocator.h">
<polygon fill="white" stroke="black" points="664,-224.5 664,-243.5 792,-243.5 792,-224.5 664,-224.5"/>
<text text-anchor="middle" x="728" y="-231.5" font-family="Helvetica,sans-Serif" font-size="10.00">ZeroedMemoryAllocator.h</text>
</a>
</g>
</g>
<!-- Node3&#45;&gt;Node17 -->
<g id="edge18" class="edge"><title>Node3&#45;&gt;Node17</title>
<path fill="none" stroke="midnightblue" d="M1142.24,-283.31C1069.4,-275.115 930.711,-259.399 802.119,-244.125"/>
<polygon fill="midnightblue" stroke="midnightblue" points="802.434,-240.638 792.09,-242.932 801.607,-247.589 802.434,-240.638"/>
</g>
<!-- Node18 -->
<g id="node19" class="node"><title>Node18</title>
<g id="a_node19"><a xlink:href="../../d7/d85/_bit_flags_8h.html" target="_top" xlink:title="BitFlags.h">
<polygon fill="white" stroke="black" points="810.5,-224.5 810.5,-243.5 871.5,-243.5 871.5,-224.5 810.5,-224.5"/>
<text text-anchor="middle" x="841" y="-231.5" font-family="Helvetica,sans-Serif" font-size="10.00">BitFlags.h</text>
</a>
</g>
</g>
<!-- Node3&#45;&gt;Node18 -->
<g id="edge19" class="edge"><title>Node3&#45;&gt;Node18</title>
<path fill="none" stroke="midnightblue" d="M1142.28,-282.921C1082.43,-275.473 979.734,-261.834 881.615,-243.98"/>
<polygon fill="midnightblue" stroke="midnightblue" points="881.992,-240.491 871.524,-242.126 880.727,-247.376 881.992,-240.491"/>
</g>
<!-- Node20 -->
<g id="node21" class="node"><title>Node20</title>
<polygon fill="white" stroke="#bfbfbf" points="889.5,-224.5 889.5,-243.5 996.5,-243.5 996.5,-224.5 889.5,-224.5"/>
<text text-anchor="middle" x="943" y="-231.5" font-family="Helvetica,sans-Serif" font-size="10.00">MyGUI_Prerequest.h</text>
</g>
<!-- Node3&#45;&gt;Node20 -->
<g id="edge21" class="edge"><title>Node3&#45;&gt;Node20</title>
<path fill="none" stroke="midnightblue" d="M1153.39,-280.444C1109.77,-271.023 1039.6,-255.866 992.422,-245.675"/>
<polygon fill="midnightblue" stroke="midnightblue" points="992.941,-242.207 982.428,-243.516 991.464,-249.049 992.941,-242.207"/>
</g>
<!-- Node16&#45;&gt;Node15 -->
<g id="edge17" class="edge"><title>Node16&#45;&gt;Node15</title>
<path fill="none" stroke="midnightblue" d="M589.863,-224.083C587.317,-216.849 583.644,-206.409 580.473,-197.397"/>
<polygon fill="midnightblue" stroke="midnightblue" points="583.7,-196.023 577.079,-187.751 577.097,-198.346 583.7,-196.023"/>
</g>
<!-- Node19 -->
<g id="node20" class="node"><title>Node19</title>
<polygon fill="white" stroke="#bfbfbf" points="818,-168.5 818,-187.5 864,-187.5 864,-168.5 818,-168.5"/>
<text text-anchor="middle" x="841" y="-175.5" font-family="Helvetica,sans-Serif" font-size="10.00">cstdint</text>
</g>
<!-- Node18&#45;&gt;Node19 -->
<g id="edge20" class="edge"><title>Node18&#45;&gt;Node19</title>
<path fill="none" stroke="midnightblue" d="M841,-224.083C841,-217.006 841,-206.861 841,-197.986"/>
<polygon fill="midnightblue" stroke="midnightblue" points="844.5,-197.751 841,-187.751 837.5,-197.751 844.5,-197.751"/>
</g>
<!-- Node21&#45;&gt;Node1 -->
<g id="edge23" class="edge"><title>Node21&#45;&gt;Node1</title>
<path fill="none" stroke="midnightblue" d="M131.996,-281.572C114.301,-274.859 91.8592,-263.05 81,-244 76.5979,-236.278 79.346,-232.734 81,-224 90.9516,-171.453 87.3882,-150.021 125,-112 141.223,-95.6009 164.229,-84.9643 185.093,-78.1756"/>
<polygon fill="midnightblue" stroke="midnightblue" points="186.253,-81.4811 194.809,-75.232 184.224,-74.7818 186.253,-81.4811"/>
</g>
<!-- Node21&#45;&gt;Node22 -->
<g id="edge24" class="edge"><title>Node21&#45;&gt;Node22</title>
<path fill="none" stroke="midnightblue" d="M157,-280.083C157,-273.006 157,-262.861 157,-253.986"/>
<polygon fill="midnightblue" stroke="midnightblue" points="160.5,-253.751 157,-243.751 153.5,-253.751 160.5,-253.751"/>
</g>
<!-- Node22&#45;&gt;Node1 -->
<g id="edge25" class="edge"><title>Node22&#45;&gt;Node1</title>
<path fill="none" stroke="midnightblue" d="M148.786,-224.182C141.456,-215.663 131.245,-202.019 127,-188 116.997,-154.963 120.783,-138.418 143,-112 155.955,-96.5949 175.423,-86.0486 193.204,-79.0616"/>
<polygon fill="midnightblue" stroke="midnightblue" points="194.663,-82.2548 202.857,-75.5378 192.263,-75.6792 194.663,-82.2548"/>
</g>
<!-- Node23 -->
<g id="node24" class="node"><title>Node23</title>
<g id="a_node24"><a xlink:href="../../d7/d86/_enums_8h.html" target="_top" xlink:title="Enums.h">
<polygon fill="white" stroke="black" points="152,-112.5 152,-131.5 208,-131.5 208,-112.5 152,-112.5"/>
<text text-anchor="middle" x="180" y="-119.5" font-family="Helvetica,sans-Serif" font-size="10.00">Enums.h</text>
</a>
</g>
</g>
<!-- Node22&#45;&gt;Node23 -->
<g id="edge26" class="edge"><title>Node22&#45;&gt;Node23</title>
<path fill="none" stroke="midnightblue" d="M149.662,-224.48C139.817,-211.959 124.497,-187.913 133,-168 138.147,-155.947 148.281,-145.576 157.826,-137.839"/>
<polygon fill="midnightblue" stroke="midnightblue" points="160.04,-140.553 165.922,-131.741 155.828,-134.962 160.04,-140.553"/>
</g>
<!-- Node24 -->
<g id="node25" class="node"><title>Node24</title>
<g id="a_node25"><a xlink:href="../../d8/db0/_rtt_manager_8h.html" target="_top" xlink:title="RttManager.h">
<polygon fill="white" stroke="black" points="142.5,-168.5 142.5,-187.5 217.5,-187.5 217.5,-168.5 142.5,-168.5"/>
<text text-anchor="middle" x="180" y="-175.5" font-family="Helvetica,sans-Serif" font-size="10.00">RttManager.h</text>
</a>
</g>
</g>
<!-- Node22&#45;&gt;Node24 -->
<g id="edge28" class="edge"><title>Node22&#45;&gt;Node24</title>
<path fill="none" stroke="midnightblue" d="M160.798,-224.083C163.913,-216.77 168.423,-206.181 172.289,-197.103"/>
<polygon fill="midnightblue" stroke="midnightblue" points="175.574,-198.323 176.273,-187.751 169.134,-195.58 175.574,-198.323"/>
</g>
<!-- Node23&#45;&gt;Node1 -->
<g id="edge27" class="edge"><title>Node23&#45;&gt;Node1</title>
<path fill="none" stroke="midnightblue" d="M188.997,-112.324C197.194,-104.42 209.506,-92.5482 219.472,-82.9377"/>
<polygon fill="midnightblue" stroke="midnightblue" points="222.07,-85.2947 226.839,-75.8339 217.211,-80.2558 222.07,-85.2947"/>
</g>
<!-- Node24&#45;&gt;Node1 -->
<g id="edge29" class="edge"><title>Node24&#45;&gt;Node1</title>
<path fill="none" stroke="midnightblue" d="M188.832,-168.477C197.188,-159.958 209.532,-146.128 217,-132 224.726,-117.383 229.698,-99.2113 232.609,-85.8006"/>
<polygon fill="midnightblue" stroke="midnightblue" points="236.073,-86.3279 234.585,-75.838 229.206,-84.9657 236.073,-86.3279"/>
</g>
<!-- Node24&#45;&gt;Node23 -->
<g id="edge30" class="edge"><title>Node24&#45;&gt;Node23</title>
<path fill="none" stroke="midnightblue" d="M180,-168.083C180,-161.006 180,-150.861 180,-141.986"/>
<polygon fill="midnightblue" stroke="midnightblue" points="183.5,-141.751 180,-131.751 176.5,-141.751 183.5,-141.751"/>
</g>
<!-- Node25 -->
<g id="node26" class="node"><title>Node25</title>
<g id="a_node26"><a xlink:href="../../d7/d8e/_help_8h.html" target="_top" xlink:title="Help.h">
<polygon fill="white" stroke="black" points="323,-112.5 323,-131.5 367,-131.5 367,-112.5 323,-112.5"/>
<text text-anchor="middle" x="345" y="-119.5" font-family="Helvetica,sans-Serif" font-size="10.00">Help.h</text>
</a>
</g>
</g>
<!-- Node24&#45;&gt;Node25 -->
<g id="edge31" class="edge"><title>Node24&#45;&gt;Node25</title>
<path fill="none" stroke="midnightblue" d="M206.145,-168.444C235.253,-158.917 282.291,-143.523 313.43,-133.332"/>
<polygon fill="midnightblue" stroke="midnightblue" points="314.523,-136.657 322.938,-130.22 312.345,-130.004 314.523,-136.657"/>
</g>
<!-- Node25&#45;&gt;Node1 -->
<g id="edge32" class="edge"><title>Node25&#45;&gt;Node1</title>
<path fill="none" stroke="midnightblue" d="M327.487,-112.324C309.928,-103.625 282.669,-90.1202 262.469,-80.113"/>
<polygon fill="midnightblue" stroke="midnightblue" points="263.984,-76.9575 253.469,-75.6545 260.876,-83.23 263.984,-76.9575"/>
</g>
<!-- Node26&#45;&gt;Node1 -->
<g id="edge34" class="edge"><title>Node26&#45;&gt;Node1</title>
<path fill="none" stroke="midnightblue" d="M384.082,-224.392C407.607,-215.095 441.657,-200.003 449,-188 453.639,-180.418 452.168,-176.305 449,-168 424.763,-104.464 342.257,-80.8563 287.332,-72.1114"/>
<polygon fill="midnightblue" stroke="midnightblue" points="287.822,-68.6459 277.418,-70.6453 286.798,-75.5706 287.822,-68.6459"/>
</g>
<!-- Node26&#45;&gt;Node25 -->
<g id="edge35" class="edge"><title>Node26&#45;&gt;Node25</title>
<path fill="none" stroke="midnightblue" d="M359.745,-224.368C357.162,-206.617 351.206,-165.666 347.705,-141.597"/>
<polygon fill="midnightblue" stroke="midnightblue" points="351.153,-140.983 346.25,-131.591 344.226,-141.991 351.153,-140.983"/>
</g>
<!-- Node27 -->
<g id="node28" class="node"><title>Node27</title>
<g id="a_node28"><a xlink:href="../../d9/de5/_image_8h.html" target="_top" xlink:title="Image.h">
<polygon fill="white" stroke="black" points="389.5,-168.5 389.5,-187.5 440.5,-187.5 440.5,-168.5 389.5,-168.5"/>
<text text-anchor="middle" x="415" y="-175.5" font-family="Helvetica,sans-Serif" font-size="10.00">Image.h</text>
</a>
</g>
</g>
<!-- Node26&#45;&gt;Node27 -->
<g id="edge36" class="edge"><title>Node26&#45;&gt;Node27</title>
<path fill="none" stroke="midnightblue" d="M369.917,-224.083C377.78,-216.22 389.431,-204.569 398.919,-195.081"/>
<polygon fill="midnightblue" stroke="midnightblue" points="401.653,-197.297 406.249,-187.751 396.703,-192.347 401.653,-197.297"/>
</g>
<!-- Node27&#45;&gt;Node1 -->
<g id="edge37" class="edge"><title>Node27&#45;&gt;Node1</title>
<path fill="none" stroke="midnightblue" d="M412.148,-168.49C407.075,-154.633 395.176,-127.214 376,-112 350.416,-91.7024 315.444,-80.4538 286.855,-74.2789"/>
<polygon fill="midnightblue" stroke="midnightblue" points="287.529,-70.8444 277.034,-72.2998 286.146,-77.7064 287.529,-70.8444"/>
</g>
<!-- Node27&#45;&gt;Node25 -->
<g id="edge38" class="edge"><title>Node27&#45;&gt;Node25</title>
<path fill="none" stroke="midnightblue" d="M403.753,-168.324C393.203,-160.185 377.199,-147.839 364.558,-138.087"/>
<polygon fill="midnightblue" stroke="midnightblue" points="366.507,-135.171 356.451,-131.834 362.231,-140.713 366.507,-135.171"/>
</g>
<!-- Node28&#45;&gt;Node1 -->
<g id="edge40" class="edge"><title>Node28&#45;&gt;Node1</title>
<path fill="none" stroke="midnightblue" d="M280.234,-168.368C272.417,-150.456 254.294,-108.923 243.832,-84.9482"/>
<polygon fill="midnightblue" stroke="midnightblue" points="246.956,-83.357 239.749,-75.5914 240.541,-86.1566 246.956,-83.357"/>
</g>
<!-- Node28&#45;&gt;Node23 -->
<g id="edge41" class="edge"><title>Node28&#45;&gt;Node23</title>
<path fill="none" stroke="midnightblue" d="M267.291,-168.324C250.688,-159.703 224.998,-146.364 205.78,-136.386"/>
<polygon fill="midnightblue" stroke="midnightblue" points="207.156,-133.156 196.668,-131.655 203.93,-139.369 207.156,-133.156"/>
</g>
</g>
</svg>
