<?xml version="1.0" encoding="UTF-8" standalone="no"?>
<!DOCTYPE svg PUBLIC "-//W3C//DTD SVG 1.1//EN"
 "http://www.w3.org/Graphics/SVG/1.1/DTD/svg11.dtd">
<!-- Generated by graphviz version 2.38.0 (20140413.2041)
 -->
<!-- Title: Axle Pages: 1 -->
<svg width="240pt" height="95pt"
 viewBox="0.00 0.00 239.50 95.00" xmlns="http://www.w3.org/2000/svg" xmlns:xlink="http://www.w3.org/1999/xlink">
<g id="graph0" class="graph" transform="scale(1 1) rotate(0) translate(4 91)">
<title>Axle</title>
<polygon fill="white" stroke="none" points="-4,4 -4,-91 235.5,-91 235.5,4 -4,4"/>
<!-- Node2 -->
<g id="node1" class="node"><title>Node2</title>
<polygon fill="#bfbfbf" stroke="black" points="103.5,-0.5 103.5,-19.5 139.5,-19.5 139.5,-0.5 103.5,-0.5"/>
<text text-anchor="middle" x="121.5" y="-7.5" font-family="Helvetica,sans-Serif" font-size="10.00">Axle</text>
</g>
<!-- Node3 -->
<g id="node2" class="node"><title>Node3</title>
<g id="a_node2"><a xlink:href="../../d7/d0c/class_zeroed_memory_allocator.html" target="_top" xlink:title="ZeroedMemoryAllocator">
<polygon fill="white" stroke="black" points="0,-67.5 0,-86.5 119,-86.5 119,-67.5 0,-67.5"/>
<text text-anchor="middle" x="59.5" y="-74.5" font-family="Helvetica,sans-Serif" font-size="10.00">ZeroedMemoryAllocator</text>
</a>
</g>
</g>
<!-- Node3&#45;&gt;Node2 -->
<g id="edge1" class="edge"><title>Node3&#45;&gt;Node2</title>
<path fill="none" stroke="midnightblue" d="M74.7646,-59.9968C86.9235,-47.2496 103.477,-29.8947 113.271,-19.6273"/>
<polygon fill="midnightblue" stroke="midnightblue" points="72.2311,-57.582 67.8616,-67.2338 77.2964,-62.4134 72.2311,-57.582"/>
</g>
<!-- Node4 -->
<g id="node3" class="node"><title>Node4</title>
<g id="a_node3"><a xlink:href="../../d7/d98/structdifferential__data__t.html" target="_top" xlink:title="differential_data_t">
<polygon fill="white" stroke="black" points="137.5,-67.5 137.5,-86.5 229.5,-86.5 229.5,-67.5 137.5,-67.5"/>
<text text-anchor="middle" x="183.5" y="-74.5" font-family="Helvetica,sans-Serif" font-size="10.00">differential_data_t</text>
</a>
</g>
</g>
<!-- Node4&#45;&gt;Node2 -->
<g id="edge2" class="edge"><title>Node4&#45;&gt;Node2</title>
<path fill="none" stroke="#9a32cd" stroke-dasharray="5,2" d="M168.235,-59.9968C156.077,-47.2496 139.523,-29.8947 129.729,-19.6273"/>
<polygon fill="#9a32cd" stroke="#9a32cd" points="165.704,-62.4134 175.138,-67.2338 170.769,-57.582 165.704,-62.4134"/>
<text text-anchor="middle" x="194" y="-41" font-family="Helvetica,sans-Serif" font-size="10.00"> current_callback</text>
</g>
</g>
</svg>
