<?xml version="1.0" encoding="UTF-8" standalone="no"?>
<!DOCTYPE svg PUBLIC "-//W3C//DTD SVG 1.1//EN"
 "http://www.w3.org/Graphics/SVG/1.1/DTD/svg11.dtd">
<!-- Generated by graphviz version 2.38.0 (20140413.2041)
 -->
<!-- Title: Hydrax::TextureManager::_updateNormalMap Pages: 1 -->
<svg width="450pt" height="204pt"
 viewBox="0.00 0.00 450.00 204.00" xmlns="http://www.w3.org/2000/svg" xmlns:xlink="http://www.w3.org/1999/xlink">
<g id="graph0" class="graph" transform="scale(1 1) rotate(0) translate(4 200)">
<title>Hydrax::TextureManager::_updateNormalMap</title>
<polygon fill="white" stroke="none" points="-4,4 -4,-200 446,-200 446,4 -4,4"/>
<!-- Node15 -->
<g id="node1" class="node"><title>Node15</title>
<polygon fill="#bfbfbf" stroke="black" points="0,-61 0,-91 123,-91 123,-61 0,-61"/>
<text text-anchor="start" x="8" y="-79" font-family="Helvetica,sans-Serif" font-size="10.00">Hydrax::TextureManager</text>
<text text-anchor="middle" x="61.5" y="-68" font-family="Helvetica,sans-Serif" font-size="10.00">::_updateNormalMap</text>
</g>
<!-- Node16 -->
<g id="node2" class="node"><title>Node16</title>
<g id="a_node2"><a xlink:href="../../dc/d56/class_hydrax_1_1_image.html#ada84c566658183bba98655438cd83bd0" target="_top" xlink:title="Hydrax::Image::getType">
<polygon fill="white" stroke="black" points="161,-176.5 161,-195.5 281,-195.5 281,-176.5 161,-176.5"/>
<text text-anchor="middle" x="221" y="-183.5" font-family="Helvetica,sans-Serif" font-size="10.00">Hydrax::Image::getType</text>
</a>
</g>
</g>
<!-- Node15&#45;&gt;Node16 -->
<g id="edge1" class="edge"><title>Node15&#45;&gt;Node16</title>
<path fill="none" stroke="midnightblue" d="M74.631,-91.1135C91.5207,-111.204 124.011,-146.546 159,-167 162.663,-169.141 166.593,-171.067 170.628,-172.793"/>
<polygon fill="midnightblue" stroke="midnightblue" points="169.571,-176.137 180.161,-176.468 172.089,-169.605 169.571,-176.137"/>
</g>
<!-- Node17 -->
<g id="node3" class="node"><title>Node17</title>
<g id="a_node3"><a xlink:href="../../d5/daf/class_hydrax_1_1_texture_manager.html#a7f15f24a8ff1372f6a1840c27aec655f" target="_top" xlink:title="Hydrax::TextureManager\l::getTexture">
<polygon fill="white" stroke="black" points="159.5,-127 159.5,-157 282.5,-157 282.5,-127 159.5,-127"/>
<text text-anchor="start" x="167.5" y="-145" font-family="Helvetica,sans-Serif" font-size="10.00">Hydrax::TextureManager</text>
<text text-anchor="middle" x="221" y="-134" font-family="Helvetica,sans-Serif" font-size="10.00">::getTexture</text>
</a>
</g>
</g>
<!-- Node15&#45;&gt;Node17 -->
<g id="edge2" class="edge"><title>Node15&#45;&gt;Node17</title>
<path fill="none" stroke="midnightblue" d="M97.7462,-91.1029C116.003,-98.8936 138.674,-108.517 159,-117 163.699,-118.961 168.606,-120.995 173.508,-123.018"/>
<polygon fill="midnightblue" stroke="midnightblue" points="172.292,-126.302 182.872,-126.872 174.957,-119.829 172.292,-126.302"/>
</g>
<!-- Node18 -->
<g id="node4" class="node"><title>Node18</title>
<g id="a_node4"><a xlink:href="../../dc/d56/class_hydrax_1_1_image.html#a501f5ea487a159512cd2abc0e4bc72dc" target="_top" xlink:title="Hydrax::Image::getSize">
<polygon fill="white" stroke="black" points="161.5,-88.5 161.5,-107.5 280.5,-107.5 280.5,-88.5 161.5,-88.5"/>
<text text-anchor="middle" x="221" y="-95.5" font-family="Helvetica,sans-Serif" font-size="10.00">Hydrax::Image::getSize</text>
</a>
</g>
</g>
<!-- Node15&#45;&gt;Node18 -->
<g id="edge3" class="edge"><title>Node15&#45;&gt;Node18</title>
<path fill="none" stroke="midnightblue" d="M123.394,-84.5058C132.548,-85.7844 142.042,-87.1106 151.344,-88.41"/>
<polygon fill="midnightblue" stroke="midnightblue" points="150.951,-91.8889 161.339,-89.8061 151.919,-84.9562 150.951,-91.8889"/>
</g>
<!-- Node19 -->
<g id="node5" class="node"><title>Node19</title>
<g id="a_node5"><a xlink:href="../../d5/daf/class_hydrax_1_1_texture_manager.html#a734792ef5da27e9534bc950460c2c7bc" target="_top" xlink:title="Hydrax::TextureManager\l::getTextureName">
<polygon fill="white" stroke="black" points="159.5,-39 159.5,-69 282.5,-69 282.5,-39 159.5,-39"/>
<text text-anchor="start" x="167.5" y="-57" font-family="Helvetica,sans-Serif" font-size="10.00">Hydrax::TextureManager</text>
<text text-anchor="middle" x="221" y="-46" font-family="Helvetica,sans-Serif" font-size="10.00">::getTextureName</text>
</a>
</g>
</g>
<!-- Node15&#45;&gt;Node19 -->
<g id="edge4" class="edge"><title>Node15&#45;&gt;Node19</title>
<path fill="none" stroke="midnightblue" d="M122.943,-60.9719C131.641,-59.5978 140.655,-58.2949 149.526,-57.1272"/>
<polygon fill="midnightblue" stroke="midnightblue" points="149.977,-60.5981 159.458,-55.8696 149.098,-53.6536 149.977,-60.5981"/>
</g>
<!-- Node22 -->
<g id="node8" class="node"><title>Node22</title>
<g id="a_node8"><a xlink:href="../../dc/d56/class_hydrax_1_1_image.html#a8fcfbc35fc120bfba4f785177e22d017" target="_top" xlink:title="Hydrax::Image::getValue">
<polygon fill="white" stroke="black" points="159,-0.5 159,-19.5 283,-19.5 283,-0.5 159,-0.5"/>
<text text-anchor="middle" x="221" y="-7.5" font-family="Helvetica,sans-Serif" font-size="10.00">Hydrax::Image::getValue</text>
</a>
</g>
</g>
<!-- Node15&#45;&gt;Node22 -->
<g id="edge8" class="edge"><title>Node15&#45;&gt;Node22</title>
<path fill="none" stroke="midnightblue" d="M91.6292,-60.9141C110.554,-51.4138 135.912,-39.2437 159,-30 165.326,-27.4673 172.11,-25.0036 178.772,-22.7203"/>
<polygon fill="midnightblue" stroke="midnightblue" points="179.998,-26.0008 188.378,-19.5173 177.784,-19.3603 179.998,-26.0008"/>
</g>
<!-- Node19&#45;&gt;Node15 -->
<g id="edge7" class="edge"><title>Node19&#45;&gt;Node15</title>
<path fill="none" stroke="midnightblue" d="M159.528,-69.0326C151.014,-70.3775 142.198,-71.6539 133.509,-72.8022"/>
<polygon fill="midnightblue" stroke="midnightblue" points="132.873,-69.3548 123.394,-74.0876 133.755,-76.299 132.873,-69.3548"/>
</g>
<!-- Node20 -->
<g id="node6" class="node"><title>Node20</title>
<g id="a_node6"><a xlink:href="../../d5/daf/class_hydrax_1_1_texture_manager.html#a4a9858adc2b5ebcfdee45a9d28f706a5" target="_top" xlink:title="Hydrax::TextureManager\l::_createTexture">
<polygon fill="white" stroke="black" points="319,-64 319,-94 442,-94 442,-64 319,-64"/>
<text text-anchor="start" x="327" y="-82" font-family="Helvetica,sans-Serif" font-size="10.00">Hydrax::TextureManager</text>
<text text-anchor="middle" x="380.5" y="-71" font-family="Helvetica,sans-Serif" font-size="10.00">::_createTexture</text>
</a>
</g>
</g>
<!-- Node19&#45;&gt;Node20 -->
<g id="edge5" class="edge"><title>Node19&#45;&gt;Node20</title>
<path fill="none" stroke="midnightblue" d="M282.894,-63.6657C291.355,-65.0088 300.107,-66.398 308.73,-67.7667"/>
<polygon fill="midnightblue" stroke="midnightblue" points="308.343,-71.249 318.768,-69.3601 309.441,-64.3356 308.343,-71.249"/>
</g>
<!-- Node21 -->
<g id="node7" class="node"><title>Node21</title>
<g id="a_node7"><a xlink:href="../../d5/daf/class_hydrax_1_1_texture_manager.html#ae1576e62e86d4a51643fcbdb11ba843f" target="_top" xlink:title="Hydrax::TextureManager\l::_getTexture">
<polygon fill="white" stroke="black" points="319,-15 319,-45 442,-45 442,-15 319,-15"/>
<text text-anchor="start" x="327" y="-33" font-family="Helvetica,sans-Serif" font-size="10.00">Hydrax::TextureManager</text>
<text text-anchor="middle" x="380.5" y="-22" font-family="Helvetica,sans-Serif" font-size="10.00">::_getTexture</text>
</a>
</g>
</g>
<!-- Node19&#45;&gt;Node21 -->
<g id="edge6" class="edge"><title>Node19&#45;&gt;Node21</title>
<path fill="none" stroke="midnightblue" d="M282.894,-44.721C291.355,-43.4316 300.107,-42.098 308.73,-40.784"/>
<polygon fill="midnightblue" stroke="midnightblue" points="309.41,-44.2209 318.768,-39.2543 308.355,-37.3008 309.41,-44.2209"/>
</g>
</g>
</svg>
