<?xml version="1.0" encoding="UTF-8" standalone="no"?>
<!DOCTYPE svg PUBLIC "-//W3C//DTD SVG 1.1//EN"
 "http://www.w3.org/Graphics/SVG/1.1/DTD/svg11.dtd">
<!-- Generated by graphviz version 2.38.0 (20140413.2041)
 -->
<!-- Title: Ogre::ShaderParticleRenderer::setVertexFormatTexture Pages: 1 -->
<svg width="356pt" height="39pt"
 viewBox="0.00 0.00 356.00 39.00" xmlns="http://www.w3.org/2000/svg" xmlns:xlink="http://www.w3.org/1999/xlink">
<g id="graph0" class="graph" transform="scale(1 1) rotate(0) translate(4 35)">
<title>Ogre::ShaderParticleRenderer::setVertexFormatTexture</title>
<polygon fill="white" stroke="none" points="-4,4 -4,-35 352,-35 352,4 -4,4"/>
<!-- Node163 -->
<g id="node1" class="node"><title>Node163</title>
<polygon fill="#bfbfbf" stroke="black" points="0,-0.5 0,-30.5 146,-30.5 146,-0.5 0,-0.5"/>
<text text-anchor="start" x="8" y="-18.5" font-family="Helvetica,sans-Serif" font-size="10.00">Ogre::ShaderParticleRenderer</text>
<text text-anchor="middle" x="73" y="-7.5" font-family="Helvetica,sans-Serif" font-size="10.00">::setVertexFormatTexture</text>
</g>
<!-- Node164 -->
<g id="node2" class="node"><title>Node164</title>
<g id="a_node2"><a xlink:href="../../d3/db8/class_ogre_1_1_shader_particle_renderer_1_1_cmd_vertex_format_texture.html#a09c7cd4e2351a2bff21d69b867975589" target="_top" xlink:title="Ogre::ShaderParticleRenderer\l::CmdVertexFormatTexture::doSet">
<polygon fill="white" stroke="black" points="182,-0.5 182,-30.5 348,-30.5 348,-0.5 182,-0.5"/>
<text text-anchor="start" x="190" y="-18.5" font-family="Helvetica,sans-Serif" font-size="10.00">Ogre::ShaderParticleRenderer</text>
<text text-anchor="middle" x="265" y="-7.5" font-family="Helvetica,sans-Serif" font-size="10.00">::CmdVertexFormatTexture::doSet</text>
</a>
</g>
</g>
<!-- Node163&#45;&gt;Node164 -->
<g id="edge1" class="edge"><title>Node163&#45;&gt;Node164</title>
<path fill="none" stroke="midnightblue" d="M156.311,-15.5C164.751,-15.5 173.327,-15.5 181.767,-15.5"/>
<polygon fill="midnightblue" stroke="midnightblue" points="156.102,-12.0001 146.102,-15.5 156.102,-19.0001 156.102,-12.0001"/>
</g>
</g>
</svg>
