<?xml version="1.0" encoding="UTF-8" standalone="no"?>
<!DOCTYPE svg PUBLIC "-//W3C//DTD SVG 1.1//EN"
 "http://www.w3.org/Graphics/SVG/1.1/DTD/svg11.dtd">
<!-- Generated by graphviz version 2.38.0 (20140413.2041)
 -->
<!-- Title: source/main/gui/imgui/imgui_draw.cpp Pages: 1 -->
<!--zoomable 207 -->
<svg id="main" version="1.1" xmlns="http://www.w3.org/2000/svg" xmlns:xlink="http://www.w3.org/1999/xlink" xml:space="preserve" onload="init(evt)">
<style type="text/css"><![CDATA[
.edge:hover path { stroke: red; }
.edge:hover polygon { stroke: red; fill: red; }
]]></style>
<script type="text/javascript"><![CDATA[
var edges = document.getElementsByTagName('g');
if (edges && edges.length) {
  for (var i=0;i<edges.length;i++) {
    if (edges[i].id.substr(0,4)=='edge') {
      edges[i].setAttribute('class','edge');
    }
  }
}
]]></script>
        <defs>
                <circle id="rim" cx="0" cy="0" r="7"/>
                <circle id="rim2" cx="0" cy="0" r="3.5"/>
                <g id="zoomPlus">
                        <use xlink:href="#rim" fill="#404040">
                                <set attributeName="fill" to="#808080" begin="zoomplus.mouseover" end="zoomplus.mouseout"/>
                        </use>
                        <path d="M-4,0h8M0,-4v8" fill="none" stroke="white" stroke-width="1.5" pointer-events="none"/>
                </g>
                <g id="zoomMin">
                        <use xlink:href="#rim" fill="#404040">
                                <set attributeName="fill" to="#808080" begin="zoomminus.mouseover" end="zoomminus.mouseout"/>
                        </use>
                        <path d="M-4,0h8" fill="none" stroke="white" stroke-width="1.5" pointer-events="none"/>
                </g>
                <g id="dirArrow">
                        <path fill="none" stroke="white" stroke-width="1.5" d="M0,-3.0v7 M-2.5,-0.5L0,-3.0L2.5,-0.5"/>
                </g>
               <g id="resetDef">
                       <use xlink:href="#rim2" fill="#404040">
                               <set attributeName="fill" to="#808080" begin="reset.mouseover" end="reset.mouseout"/>
                       </use>
               </g>
        </defs>

<script type="text/javascript">
var viewWidth = 807;
var viewHeight = 207;
var sectionId = 'dynsection-0';
</script>
<script xlink:href="../../svgpan.js"/>
<svg id="graph" class="graph">
<g id="viewport">
<title>source/main/gui/imgui/imgui_draw.cpp</title>
<polygon fill="white" stroke="none" points="-4,4 -4,-203 802.5,-203 802.5,4 -4,4"/>
<!-- Node0 -->
<g id="node1" class="node"><title>Node0</title>
<polygon fill="#bfbfbf" stroke="black" points="480.5,-168.5 480.5,-198.5 592.5,-198.5 592.5,-168.5 480.5,-168.5"/>
<text text-anchor="start" x="488.5" y="-186.5" font-family="Helvetica,sans-Serif" font-size="10.00">source/main/gui/imgui</text>
<text text-anchor="middle" x="536.5" y="-175.5" font-family="Helvetica,sans-Serif" font-size="10.00">/imgui_draw.cpp</text>
</g>
<!-- Node1 -->
<g id="node2" class="node"><title>Node1</title>
<g id="a_node2"><a xlink:href="../../db/d19/imgui_8h.html" target="_top" xlink:title="imgui.h">
<polygon fill="white" stroke="black" points="212.5,-112.5 212.5,-131.5 260.5,-131.5 260.5,-112.5 212.5,-112.5"/>
<text text-anchor="middle" x="236.5" y="-119.5" font-family="Helvetica,sans-Serif" font-size="10.00">imgui.h</text>
</a>
</g>
</g>
<!-- Node0&#45;&gt;Node1 -->
<g id="edge1" class="edge"><title>Node0&#45;&gt;Node1</title>
<path fill="none" stroke="midnightblue" d="M480.424,-171.378C418.705,-159.137 321.487,-139.856 270.418,-129.727"/>
<polygon fill="midnightblue" stroke="midnightblue" points="271.036,-126.282 260.547,-127.769 269.675,-133.148 271.036,-126.282"/>
</g>
<!-- Node8 -->
<g id="node9" class="node"><title>Node8</title>
<g id="a_node9"><a xlink:href="../../d1/da2/imgui__internal_8h.html" target="_top" xlink:title="imgui_internal.h">
<polygon fill="white" stroke="black" points="444,-112.5 444,-131.5 529,-131.5 529,-112.5 444,-112.5"/>
<text text-anchor="middle" x="486.5" y="-119.5" font-family="Helvetica,sans-Serif" font-size="10.00">imgui_internal.h</text>
</a>
</g>
</g>
<!-- Node0&#45;&gt;Node8 -->
<g id="edge8" class="edge"><title>Node0&#45;&gt;Node8</title>
<path fill="none" stroke="midnightblue" d="M524.651,-168.399C517.385,-159.753 508.048,-148.642 500.429,-139.576"/>
<polygon fill="midnightblue" stroke="midnightblue" points="502.888,-137.062 493.775,-131.658 497.529,-141.565 502.888,-137.062"/>
</g>
<!-- Node9 -->
<g id="node10" class="node"><title>Node9</title>
<polygon fill="white" stroke="#bfbfbf" points="388.5,-56.5 388.5,-75.5 434.5,-75.5 434.5,-56.5 388.5,-56.5"/>
<text text-anchor="middle" x="411.5" y="-63.5" font-family="Helvetica,sans-Serif" font-size="10.00">stdio.h</text>
</g>
<!-- Node0&#45;&gt;Node9 -->
<g id="edge13" class="edge"><title>Node0&#45;&gt;Node9</title>
<path fill="none" stroke="midnightblue" d="M490.446,-168.468C470.927,-160.501 449.317,-148.704 434.5,-132 422.967,-118.998 417.118,-99.8371 414.215,-85.685"/>
<polygon fill="midnightblue" stroke="midnightblue" points="417.627,-84.8755 412.466,-75.6225 410.73,-86.0741 417.627,-84.8755"/>
</g>
<!-- Node12 -->
<g id="node13" class="node"><title>Node12</title>
<polygon fill="white" stroke="#bfbfbf" points="644.5,-112.5 644.5,-131.5 694.5,-131.5 694.5,-112.5 644.5,-112.5"/>
<text text-anchor="middle" x="669.5" y="-119.5" font-family="Helvetica,sans-Serif" font-size="10.00">alloca.h</text>
</g>
<!-- Node0&#45;&gt;Node12 -->
<g id="edge14" class="edge"><title>Node0&#45;&gt;Node12</title>
<path fill="none" stroke="midnightblue" d="M568.019,-168.399C590.135,-158.505 619.467,-145.383 640.906,-135.792"/>
<polygon fill="midnightblue" stroke="midnightblue" points="642.448,-138.936 650.147,-131.658 639.59,-132.547 642.448,-138.936"/>
</g>
<!-- Node13 -->
<g id="node14" class="node"><title>Node13</title>
<g id="a_node14"><a xlink:href="../../df/d1e/stb__rect__pack_8h.html" target="_top" xlink:title="stb_rect_pack.h">
<polygon fill="white" stroke="black" points="712.5,-112.5 712.5,-131.5 798.5,-131.5 798.5,-112.5 712.5,-112.5"/>
<text text-anchor="middle" x="755.5" y="-119.5" font-family="Helvetica,sans-Serif" font-size="10.00">stb_rect_pack.h</text>
</a>
</g>
</g>
<!-- Node0&#45;&gt;Node13 -->
<g id="edge15" class="edge"><title>Node0&#45;&gt;Node13</title>
<path fill="none" stroke="midnightblue" d="M588.123,-168.475C626.565,-158.03 678.362,-143.958 714.104,-134.247"/>
<polygon fill="midnightblue" stroke="midnightblue" points="715.458,-137.506 724.191,-131.506 713.623,-130.751 715.458,-137.506"/>
</g>
<!-- Node15 -->
<g id="node16" class="node"><title>Node15</title>
<g id="a_node16"><a xlink:href="../../d7/d6f/stb__truetype_8h.html" target="_top" xlink:title="stb_truetype.h">
<polygon fill="white" stroke="black" points="547,-112.5 547,-131.5 626,-131.5 626,-112.5 547,-112.5"/>
<text text-anchor="middle" x="586.5" y="-119.5" font-family="Helvetica,sans-Serif" font-size="10.00">stb_truetype.h</text>
</a>
</g>
</g>
<!-- Node0&#45;&gt;Node15 -->
<g id="edge17" class="edge"><title>Node0&#45;&gt;Node15</title>
<path fill="none" stroke="midnightblue" d="M548.349,-168.399C555.615,-159.753 564.952,-148.642 572.571,-139.576"/>
<polygon fill="midnightblue" stroke="midnightblue" points="575.471,-141.565 579.225,-131.658 570.112,-137.062 575.471,-141.565"/>
</g>
<!-- Node2 -->
<g id="node3" class="node"><title>Node2</title>
<g id="a_node3"><a xlink:href="../../dc/dad/imconfig_8h.html" target="_top" xlink:title="imconfig.h">
<polygon fill="white" stroke="black" points="0,-56.5 0,-75.5 61,-75.5 61,-56.5 0,-56.5"/>
<text text-anchor="middle" x="30.5" y="-63.5" font-family="Helvetica,sans-Serif" font-size="10.00">imconfig.h</text>
</a>
</g>
</g>
<!-- Node1&#45;&gt;Node2 -->
<g id="edge2" class="edge"><title>Node1&#45;&gt;Node2</title>
<path fill="none" stroke="midnightblue" d="M212.466,-114.7C177.757,-105.601 113.148,-88.6649 70.9962,-77.6155"/>
<polygon fill="midnightblue" stroke="midnightblue" points="71.6178,-74.1603 61.0571,-75.0101 69.8428,-80.9315 71.6178,-74.1603"/>
</g>
<!-- Node3 -->
<g id="node4" class="node"><title>Node3</title>
<polygon fill="white" stroke="#bfbfbf" points="79,-56.5 79,-75.5 122,-75.5 122,-56.5 79,-56.5"/>
<text text-anchor="middle" x="100.5" y="-63.5" font-family="Helvetica,sans-Serif" font-size="10.00">float.h</text>
</g>
<!-- Node1&#45;&gt;Node3 -->
<g id="edge3" class="edge"><title>Node1&#45;&gt;Node3</title>
<path fill="none" stroke="midnightblue" d="M214.95,-112.444C192.469,-103.517 157.012,-89.4387 131.52,-79.3168"/>
<polygon fill="midnightblue" stroke="midnightblue" points="132.535,-75.9539 121.949,-75.5164 129.951,-82.4598 132.535,-75.9539"/>
</g>
<!-- Node4 -->
<g id="node5" class="node"><title>Node4</title>
<polygon fill="white" stroke="#bfbfbf" points="140.5,-56.5 140.5,-75.5 192.5,-75.5 192.5,-56.5 140.5,-56.5"/>
<text text-anchor="middle" x="166.5" y="-63.5" font-family="Helvetica,sans-Serif" font-size="10.00">stdarg.h</text>
</g>
<!-- Node1&#45;&gt;Node4 -->
<g id="edge4" class="edge"><title>Node1&#45;&gt;Node4</title>
<path fill="none" stroke="midnightblue" d="M225.253,-112.324C214.703,-104.185 198.699,-91.8395 186.058,-82.0874"/>
<polygon fill="midnightblue" stroke="midnightblue" points="188.007,-79.1707 177.951,-75.8339 183.731,-84.7132 188.007,-79.1707"/>
</g>
<!-- Node5 -->
<g id="node6" class="node"><title>Node5</title>
<polygon fill="white" stroke="#bfbfbf" points="211,-56.5 211,-75.5 262,-75.5 262,-56.5 211,-56.5"/>
<text text-anchor="middle" x="236.5" y="-63.5" font-family="Helvetica,sans-Serif" font-size="10.00">stddef.h</text>
</g>
<!-- Node1&#45;&gt;Node5 -->
<g id="edge5" class="edge"><title>Node1&#45;&gt;Node5</title>
<path fill="none" stroke="midnightblue" d="M236.5,-112.083C236.5,-105.006 236.5,-94.8611 236.5,-85.9865"/>
<polygon fill="midnightblue" stroke="midnightblue" points="240,-85.751 236.5,-75.7511 233,-85.7511 240,-85.751"/>
</g>
<!-- Node6 -->
<g id="node7" class="node"><title>Node6</title>
<polygon fill="white" stroke="#bfbfbf" points="466,-0.5 466,-19.5 515,-19.5 515,-0.5 466,-0.5"/>
<text text-anchor="middle" x="490.5" y="-7.5" font-family="Helvetica,sans-Serif" font-size="10.00">string.h</text>
</g>
<!-- Node1&#45;&gt;Node6 -->
<g id="edge6" class="edge"><title>Node1&#45;&gt;Node6</title>
<path fill="none" stroke="midnightblue" d="M243.628,-112.382C255.698,-98.3693 281.585,-70.7314 309.5,-56 356.617,-31.1349 417.934,-19.6436 455.737,-14.6062"/>
<polygon fill="midnightblue" stroke="midnightblue" points="456.257,-18.0684 465.744,-13.3508 455.386,-11.1228 456.257,-18.0684"/>
</g>
<!-- Node7 -->
<g id="node8" class="node"><title>Node7</title>
<polygon fill="white" stroke="#bfbfbf" points="318.5,-56.5 318.5,-75.5 370.5,-75.5 370.5,-56.5 318.5,-56.5"/>
<text text-anchor="middle" x="344.5" y="-63.5" font-family="Helvetica,sans-Serif" font-size="10.00">assert.h</text>
</g>
<!-- Node1&#45;&gt;Node7 -->
<g id="edge7" class="edge"><title>Node1&#45;&gt;Node7</title>
<path fill="none" stroke="midnightblue" d="M253.852,-112.324C271.172,-103.664 298.015,-90.2424 318.002,-80.249"/>
<polygon fill="midnightblue" stroke="midnightblue" points="319.812,-83.2572 327.191,-75.6545 316.681,-76.9962 319.812,-83.2572"/>
</g>
<!-- Node8&#45;&gt;Node9 -->
<g id="edge9" class="edge"><title>Node8&#45;&gt;Node9</title>
<path fill="none" stroke="midnightblue" d="M474.45,-112.324C463.037,-104.107 445.669,-91.6017 432.065,-81.8069"/>
<polygon fill="midnightblue" stroke="midnightblue" points="433.93,-78.8366 423.769,-75.8339 429.84,-84.5174 433.93,-78.8366"/>
</g>
<!-- Node10 -->
<g id="node11" class="node"><title>Node10</title>
<polygon fill="white" stroke="#bfbfbf" points="547,-56.5 547,-75.5 594,-75.5 594,-56.5 547,-56.5"/>
<text text-anchor="middle" x="570.5" y="-63.5" font-family="Helvetica,sans-Serif" font-size="10.00">math.h</text>
</g>
<!-- Node8&#45;&gt;Node10 -->
<g id="edge10" class="edge"><title>Node8&#45;&gt;Node10</title>
<path fill="none" stroke="midnightblue" d="M499.996,-112.324C513.1,-103.9 533.212,-90.9709 548.607,-81.0741"/>
<polygon fill="midnightblue" stroke="midnightblue" points="550.518,-84.0063 557.037,-75.6545 546.733,-78.118 550.518,-84.0063"/>
</g>
<!-- Node11 -->
<g id="node12" class="node"><title>Node11</title>
<g id="a_node12"><a xlink:href="../../d4/dfd/stb__textedit_8h.html" target="_top" xlink:title="stb_textedit.h">
<polygon fill="white" stroke="black" points="452.5,-56.5 452.5,-75.5 528.5,-75.5 528.5,-56.5 452.5,-56.5"/>
<text text-anchor="middle" x="490.5" y="-63.5" font-family="Helvetica,sans-Serif" font-size="10.00">stb_textedit.h</text>
</a>
</g>
</g>
<!-- Node8&#45;&gt;Node11 -->
<g id="edge11" class="edge"><title>Node8&#45;&gt;Node11</title>
<path fill="none" stroke="midnightblue" d="M487.161,-112.083C487.685,-105.006 488.436,-94.8611 489.094,-85.9865"/>
<polygon fill="midnightblue" stroke="midnightblue" points="492.603,-85.9823 489.852,-75.7511 485.623,-85.4652 492.603,-85.9823"/>
</g>
<!-- Node11&#45;&gt;Node6 -->
<g id="edge12" class="edge"><title>Node11&#45;&gt;Node6</title>
<path fill="none" stroke="midnightblue" d="M490.5,-56.083C490.5,-49.0059 490.5,-38.8611 490.5,-29.9865"/>
<polygon fill="midnightblue" stroke="midnightblue" points="494,-29.751 490.5,-19.7511 487,-29.7511 494,-29.751"/>
</g>
<!-- Node14 -->
<g id="node15" class="node"><title>Node14</title>
<polygon fill="white" stroke="#bfbfbf" points="731.5,-56.5 731.5,-75.5 779.5,-75.5 779.5,-56.5 731.5,-56.5"/>
<text text-anchor="middle" x="755.5" y="-63.5" font-family="Helvetica,sans-Serif" font-size="10.00">stdlib.h</text>
</g>
<!-- Node13&#45;&gt;Node14 -->
<g id="edge16" class="edge"><title>Node13&#45;&gt;Node14</title>
<path fill="none" stroke="midnightblue" d="M755.5,-112.083C755.5,-105.006 755.5,-94.8611 755.5,-85.9865"/>
<polygon fill="midnightblue" stroke="midnightblue" points="759,-85.751 755.5,-75.7511 752,-85.7511 759,-85.751"/>
</g>
<!-- Node15&#45;&gt;Node6 -->
<g id="edge19" class="edge"><title>Node15&#45;&gt;Node6</title>
<path fill="none" stroke="midnightblue" d="M592.707,-112.239C601.261,-98.984 614.345,-73.5238 602.5,-56 585.303,-30.5575 551.093,-19.4976 524.983,-14.6912"/>
<polygon fill="midnightblue" stroke="midnightblue" points="525.503,-11.2299 515.072,-13.0887 524.385,-18.1401 525.503,-11.2299"/>
</g>
<!-- Node15&#45;&gt;Node10 -->
<g id="edge18" class="edge"><title>Node15&#45;&gt;Node10</title>
<path fill="none" stroke="midnightblue" d="M583.858,-112.083C581.714,-104.849 578.621,-94.4087 575.951,-85.3968"/>
<polygon fill="midnightblue" stroke="midnightblue" points="579.29,-84.3447 573.093,-75.7511 572.578,-86.3334 579.29,-84.3447"/>
</g>
<!-- Node16 -->
<g id="node17" class="node"><title>Node16</title>
<polygon fill="white" stroke="#bfbfbf" points="650.5,-56.5 650.5,-75.5 710.5,-75.5 710.5,-56.5 650.5,-56.5"/>
<text text-anchor="middle" x="680.5" y="-63.5" font-family="Helvetica,sans-Serif" font-size="10.00">memory.h</text>
</g>
<!-- Node15&#45;&gt;Node16 -->
<g id="edge20" class="edge"><title>Node15&#45;&gt;Node16</title>
<path fill="none" stroke="midnightblue" d="M601.603,-112.324C616.403,-103.822 639.194,-90.7288 656.482,-80.7975"/>
<polygon fill="midnightblue" stroke="midnightblue" points="658.507,-83.6707 665.435,-75.6545 655.02,-77.6009 658.507,-83.6707"/>
</g>
</g>
</svg>
        <g id="navigator" transform="translate(0 0)" fill="#404254">
                <rect fill="#f2f5e9" fill-opacity="0.5" stroke="#606060" stroke-width=".5" x="0" y="0" width="60" height="60"/>
                <use id="zoomplus" xlink:href="#zoomPlus" x="17" y="9" onmousedown="handleZoom(evt,'in')"/>
                <use id="zoomminus" xlink:href="#zoomMin" x="42" y="9" onmousedown="handleZoom(evt,'out')"/>
                <use id="reset" xlink:href="#resetDef" x="30" y="36" onmousedown="handleReset()"/>
                <g id="arrowUp" xlink:href="#dirArrow" transform="translate(30 24)" onmousedown="handlePan(0,-1)">
                  <use xlink:href="#rim" fill="#404040">
                        <set attributeName="fill" to="#808080" begin="arrowUp.mouseover" end="arrowUp.mouseout"/>
                  </use>
                  <path fill="none" stroke="white" stroke-width="1.5" d="M0,-3.0v7 M-2.5,-0.5L0,-3.0L2.5,-0.5"/>
                </g>
                <g id="arrowRight" xlink:href="#dirArrow" transform="rotate(90) translate(36 -43)" onmousedown="handlePan(1,0)">
                  <use xlink:href="#rim" fill="#404040">
                        <set attributeName="fill" to="#808080" begin="arrowRight.mouseover" end="arrowRight.mouseout"/>
                  </use>
                  <path fill="none" stroke="white" stroke-width="1.5" d="M0,-3.0v7 M-2.5,-0.5L0,-3.0L2.5,-0.5"/>
                </g>
                <g id="arrowDown" xlink:href="#dirArrow" transform="rotate(180) translate(-30 -48)" onmousedown="handlePan(0,1)">
                  <use xlink:href="#rim" fill="#404040">
                        <set attributeName="fill" to="#808080" begin="arrowDown.mouseover" end="arrowDown.mouseout"/>
                  </use>
                  <path fill="none" stroke="white" stroke-width="1.5" d="M0,-3.0v7 M-2.5,-0.5L0,-3.0L2.5,-0.5"/>
                </g>
                <g id="arrowLeft" xlink:href="#dirArrow" transform="rotate(270) translate(-36 17)" onmousedown="handlePan(-1,0)">
                  <use xlink:href="#rim" fill="#404040">
                        <set attributeName="fill" to="#808080" begin="arrowLeft.mouseover" end="arrowLeft.mouseout"/>
                  </use>
                  <path fill="none" stroke="white" stroke-width="1.5" d="M0,-3.0v7 M-2.5,-0.5L0,-3.0L2.5,-0.5"/>
                </g>
        </g>
        <svg viewBox="0 0 15 15" width="100%" height="30px" preserveAspectRatio="xMaxYMin meet">
         <g id="arrow_out" transform="scale(0.3 0.3)">
          <a xlink:href="imgui__draw_8cpp__incl_org.svg" target="_base">
           <rect id="button" ry="5" rx="5" y="6" x="6" height="38" width="38"
                fill="#f2f5e9" fill-opacity="0.5" stroke="#606060" stroke-width="1.0"/>
           <path id="arrow"
             d="M 11.500037,31.436501 C 11.940474,20.09759 22.043105,11.32322 32.158766,21.979434 L 37.068811,17.246167 C 37.068811,17.246167 37.088388,32 37.088388,32 L 22.160133,31.978069 C 22.160133,31.978069 26.997745,27.140456 26.997745,27.140456 C 18.528582,18.264221 13.291696,25.230495 11.500037,31.436501 z"
             style="fill:#404040;"/>
          </a>
         </g>
        </svg>
</svg>
