<?xml version="1.0" encoding="UTF-8" standalone="no"?>
<!DOCTYPE svg PUBLIC "-//W3C//DTD SVG 1.1//EN"
 "http://www.w3.org/Graphics/SVG/1.1/DTD/svg11.dtd">
<!-- Generated by graphviz version 2.38.0 (20140413.2041)
 -->
<!-- Title: source/main/utils/FileSystemInfo.h Pages: 1 -->
<svg width="314pt" height="95pt"
 viewBox="0.00 0.00 313.50 95.00" xmlns="http://www.w3.org/2000/svg" xmlns:xlink="http://www.w3.org/1999/xlink">
<g id="graph0" class="graph" transform="scale(1 1) rotate(0) translate(4 91)">
<title>source/main/utils/FileSystemInfo.h</title>
<polygon fill="white" stroke="none" points="-4,4 -4,-91 309.5,-91 309.5,4 -4,4"/>
<!-- Node0 -->
<g id="node1" class="node"><title>Node0</title>
<polygon fill="#bfbfbf" stroke="black" points="98,-56.5 98,-86.5 241,-86.5 241,-56.5 98,-56.5"/>
<text text-anchor="start" x="106" y="-74.5" font-family="Helvetica,sans-Serif" font-size="10.00">source/main/utils/FileSystem</text>
<text text-anchor="middle" x="169.5" y="-63.5" font-family="Helvetica,sans-Serif" font-size="10.00">Info.h</text>
</g>
<!-- Node1 -->
<g id="node2" class="node"><title>Node1</title>
<polygon fill="white" stroke="#bfbfbf" points="0,-0.5 0,-19.5 55,-19.5 55,-0.5 0,-0.5"/>
<text text-anchor="middle" x="27.5" y="-7.5" font-family="Helvetica,sans-Serif" font-size="10.00">MyGUI.h</text>
</g>
<!-- Node0&#45;&gt;Node1 -->
<g id="edge1" class="edge"><title>Node0&#45;&gt;Node1</title>
<path fill="none" stroke="midnightblue" d="M135.848,-56.3993C112.023,-46.4163 80.3539,-33.1465 57.4119,-23.5335"/>
<polygon fill="midnightblue" stroke="midnightblue" points="58.738,-20.2944 48.1623,-19.6578 56.0327,-26.7505 58.738,-20.2944"/>
</g>
<!-- Node2 -->
<g id="node3" class="node"><title>Node2</title>
<polygon fill="white" stroke="#bfbfbf" points="73.5,-0.5 73.5,-19.5 135.5,-19.5 135.5,-0.5 73.5,-0.5"/>
<text text-anchor="middle" x="104.5" y="-7.5" font-family="Helvetica,sans-Serif" font-size="10.00">windows.h</text>
</g>
<!-- Node0&#45;&gt;Node2 -->
<g id="edge2" class="edge"><title>Node0&#45;&gt;Node2</title>
<path fill="none" stroke="midnightblue" d="M154.096,-56.3993C144.261,-47.3967 131.507,-35.7214 121.395,-26.4652"/>
<polygon fill="midnightblue" stroke="midnightblue" points="123.698,-23.8282 113.958,-19.6578 118.971,-28.9916 123.698,-23.8282"/>
</g>
<!-- Node3 -->
<g id="node4" class="node"><title>Node3</title>
<polygon fill="white" stroke="#bfbfbf" points="153.5,-0.5 153.5,-19.5 185.5,-19.5 185.5,-0.5 153.5,-0.5"/>
<text text-anchor="middle" x="169.5" y="-7.5" font-family="Helvetica,sans-Serif" font-size="10.00">io.h</text>
</g>
<!-- Node0&#45;&gt;Node3 -->
<g id="edge3" class="edge"><title>Node0&#45;&gt;Node3</title>
<path fill="none" stroke="midnightblue" d="M169.5,-56.3993C169.5,-48.4664 169.5,-38.458 169.5,-29.8583"/>
<polygon fill="midnightblue" stroke="midnightblue" points="173,-29.6577 169.5,-19.6578 166,-29.6578 173,-29.6577"/>
</g>
<!-- Node4 -->
<g id="node5" class="node"><title>Node4</title>
<polygon fill="white" stroke="#bfbfbf" points="204,-0.5 204,-19.5 245,-19.5 245,-0.5 204,-0.5"/>
<text text-anchor="middle" x="224.5" y="-7.5" font-family="Helvetica,sans-Serif" font-size="10.00">string</text>
</g>
<!-- Node0&#45;&gt;Node4 -->
<g id="edge4" class="edge"><title>Node0&#45;&gt;Node4</title>
<path fill="none" stroke="midnightblue" d="M182.534,-56.3993C190.691,-47.575 201.222,-36.1827 209.694,-27.0178"/>
<polygon fill="midnightblue" stroke="midnightblue" points="212.279,-29.3769 216.497,-19.6578 207.139,-24.6253 212.279,-29.3769"/>
</g>
<!-- Node5 -->
<g id="node6" class="node"><title>Node5</title>
<polygon fill="white" stroke="#bfbfbf" points="263.5,-0.5 263.5,-19.5 305.5,-19.5 305.5,-0.5 263.5,-0.5"/>
<text text-anchor="middle" x="284.5" y="-7.5" font-family="Helvetica,sans-Serif" font-size="10.00">vector</text>
</g>
<!-- Node0&#45;&gt;Node5 -->
<g id="edge5" class="edge"><title>Node0&#45;&gt;Node5</title>
<path fill="none" stroke="midnightblue" d="M196.753,-56.3993C215.532,-46.6837 240.326,-33.8551 258.768,-24.3137"/>
<polygon fill="midnightblue" stroke="midnightblue" points="260.493,-27.3617 267.766,-19.6578 257.276,-21.1445 260.493,-27.3617"/>
</g>
</g>
</svg>
