<?xml version="1.0" encoding="UTF-8" standalone="no"?>
<!DOCTYPE svg PUBLIC "-//W3C//DTD SVG 1.1//EN"
 "http://www.w3.org/Graphics/SVG/1.1/DTD/svg11.dtd">
<!-- Generated by graphviz version 2.38.0 (20140413.2041)
 -->
<!-- Title: SkyX::VClouds::LightningManager::_setVisible Pages: 1 -->
<svg width="459pt" height="88pt"
 viewBox="0.00 0.00 459.00 88.00" xmlns="http://www.w3.org/2000/svg" xmlns:xlink="http://www.w3.org/1999/xlink">
<g id="graph0" class="graph" transform="scale(1 1) rotate(0) translate(4 84)">
<title>SkyX::VClouds::LightningManager::_setVisible</title>
<polygon fill="white" stroke="none" points="-4,4 -4,-84 455,-84 455,4 -4,4"/>
<!-- Node7 -->
<g id="node1" class="node"><title>Node7</title>
<polygon fill="#bfbfbf" stroke="black" points="0,-24.5 0,-54.5 127,-54.5 127,-24.5 0,-24.5"/>
<text text-anchor="start" x="8" y="-42.5" font-family="Helvetica,sans-Serif" font-size="10.00">SkyX::VClouds::Lightning</text>
<text text-anchor="middle" x="63.5" y="-31.5" font-family="Helvetica,sans-Serif" font-size="10.00">Manager::_setVisible</text>
</g>
<!-- Node8 -->
<g id="node2" class="node"><title>Node8</title>
<g id="a_node2"><a xlink:href="../../d2/df0/class_sky_x_1_1_v_clouds_1_1_lightning_manager.html#a353ca4c6aa5674f80c2bd3eeb9a701fb" target="_top" xlink:title="SkyX::VClouds::Lightning\lManager::isCreated">
<polygon fill="white" stroke="black" points="163,-49.5 163,-79.5 290,-79.5 290,-49.5 163,-49.5"/>
<text text-anchor="start" x="171" y="-67.5" font-family="Helvetica,sans-Serif" font-size="10.00">SkyX::VClouds::Lightning</text>
<text text-anchor="middle" x="226.5" y="-56.5" font-family="Helvetica,sans-Serif" font-size="10.00">Manager::isCreated</text>
</a>
</g>
</g>
<!-- Node7&#45;&gt;Node8 -->
<g id="edge1" class="edge"><title>Node7&#45;&gt;Node8</title>
<path fill="none" stroke="midnightblue" d="M137.218,-50.7917C145.813,-52.1262 154.527,-53.4793 162.963,-54.7893"/>
<polygon fill="midnightblue" stroke="midnightblue" points="137.626,-47.3132 127.208,-49.2372 136.552,-54.2303 137.626,-47.3132"/>
</g>
<!-- Node9 -->
<g id="node3" class="node"><title>Node9</title>
<g id="a_node3"><a xlink:href="../../d5/db6/class_sky_x_1_1_v_clouds_1_1_v_clouds.html#a1894e0d1a382620f1f1318abfff0d6c9" target="_top" xlink:title="SkyX::VClouds::VClouds\l::setVisible">
<polygon fill="white" stroke="black" points="164,-0.5 164,-30.5 289,-30.5 289,-0.5 164,-0.5"/>
<text text-anchor="start" x="172" y="-18.5" font-family="Helvetica,sans-Serif" font-size="10.00">SkyX::VClouds::VClouds</text>
<text text-anchor="middle" x="226.5" y="-7.5" font-family="Helvetica,sans-Serif" font-size="10.00">::setVisible</text>
</a>
</g>
</g>
<!-- Node7&#45;&gt;Node9 -->
<g id="edge2" class="edge"><title>Node7&#45;&gt;Node9</title>
<path fill="none" stroke="midnightblue" d="M137.159,-28.6688C146.043,-27.3446 155.055,-26.0012 163.757,-24.704"/>
<polygon fill="midnightblue" stroke="midnightblue" points="136.582,-25.216 127.208,-30.1523 137.615,-32.1395 136.582,-25.216"/>
</g>
<!-- Node10 -->
<g id="node4" class="node"><title>Node10</title>
<g id="a_node4"><a xlink:href="../../d5/db6/class_sky_x_1_1_v_clouds_1_1_v_clouds.html#adebea1696a4c366dad0d2f1c2e89b89e" target="_top" xlink:title="SkyX::VClouds::VClouds\l::getWheater">
<polygon fill="white" stroke="black" points="326,-0.5 326,-30.5 451,-30.5 451,-0.5 326,-0.5"/>
<text text-anchor="start" x="334" y="-18.5" font-family="Helvetica,sans-Serif" font-size="10.00">SkyX::VClouds::VClouds</text>
<text text-anchor="middle" x="388.5" y="-7.5" font-family="Helvetica,sans-Serif" font-size="10.00">::getWheater</text>
</a>
</g>
</g>
<!-- Node9&#45;&gt;Node10 -->
<g id="edge3" class="edge"><title>Node9&#45;&gt;Node10</title>
<path fill="none" stroke="midnightblue" d="M299.561,-15.5C308.322,-15.5 317.212,-15.5 325.804,-15.5"/>
<polygon fill="midnightblue" stroke="midnightblue" points="299.36,-12.0001 289.36,-15.5 299.36,-19.0001 299.36,-12.0001"/>
</g>
</g>
</svg>
