<?xml version="1.0" encoding="UTF-8" standalone="no"?>
<!DOCTYPE svg PUBLIC "-//W3C//DTD SVG 1.1//EN"
 "http://www.w3.org/Graphics/SVG/1.1/DTD/svg11.dtd">
<!-- Generated by graphviz version 2.38.0 (20140413.2041)
 -->
<!-- Title: MeshObject::loadMesh Pages: 1 -->
<svg width="958pt" height="333pt"
 viewBox="0.00 0.00 958.00 333.00" xmlns="http://www.w3.org/2000/svg" xmlns:xlink="http://www.w3.org/1999/xlink">
<g id="graph0" class="graph" transform="scale(1 1) rotate(0) translate(4 329)">
<title>MeshObject::loadMesh</title>
<polygon fill="white" stroke="none" points="-4,4 -4,-329 954,-329 954,4 -4,4"/>
<!-- Node62 -->
<g id="node1" class="node"><title>Node62</title>
<polygon fill="#bfbfbf" stroke="black" points="0,-153 0,-172 117,-172 117,-153 0,-153"/>
<text text-anchor="middle" x="58.5" y="-160" font-family="Helvetica,sans-Serif" font-size="10.00">MeshObject::loadMesh</text>
</g>
<!-- Node63 -->
<g id="node2" class="node"><title>Node63</title>
<g id="a_node2"><a xlink:href="../../df/db5/class_ro_r_1_1_ogre_subsystem.html#ae2fa22407ec624ee62a348021de98ea4" target="_top" xlink:title="RoR::OgreSubsystem\l::GetMaterialByName">
<polygon fill="white" stroke="black" points="162,-191.5 162,-221.5 274,-221.5 274,-191.5 162,-191.5"/>
<text text-anchor="start" x="170" y="-209.5" font-family="Helvetica,sans-Serif" font-size="10.00">RoR::OgreSubsystem</text>
<text text-anchor="middle" x="218" y="-198.5" font-family="Helvetica,sans-Serif" font-size="10.00">::GetMaterialByName</text>
</a>
</g>
</g>
<!-- Node62&#45;&gt;Node63 -->
<g id="edge1" class="edge"><title>Node62&#45;&gt;Node63</title>
<path fill="none" stroke="midnightblue" d="M93.6752,-172.047C111.091,-176.913 132.844,-182.99 153.211,-188.68"/>
<polygon fill="midnightblue" stroke="midnightblue" points="152.5,-192.115 163.073,-191.435 154.383,-185.373 152.5,-192.115"/>
</g>
<!-- Node64 -->
<g id="node3" class="node"><title>Node64</title>
<g id="a_node3"><a xlink:href="../../dc/d69/class_mesh_object.html#a02f1d3412dfdec5ab09967f8ab86486c" target="_top" xlink:title="MeshObject::postProcess">
<polygon fill="white" stroke="black" points="153,-153 153,-172 283,-172 283,-153 153,-153"/>
<text text-anchor="middle" x="218" y="-160" font-family="Helvetica,sans-Serif" font-size="10.00">MeshObject::postProcess</text>
</a>
</g>
</g>
<!-- Node62&#45;&gt;Node64 -->
<g id="edge2" class="edge"><title>Node62&#45;&gt;Node64</title>
<path fill="none" stroke="midnightblue" d="M117.253,-162.5C125.582,-162.5 134.25,-162.5 142.844,-162.5"/>
<polygon fill="midnightblue" stroke="midnightblue" points="142.875,-166 152.875,-162.5 142.875,-159 142.875,-166"/>
</g>
<!-- Node77 -->
<g id="node16" class="node"><title>Node77</title>
<g id="a_node16"><a xlink:href="../../d9/da3/_application_8h.html#ac91efe9de379ef0fde6e0c6f369dfb35" target="_top" xlink:title="Legacy alias &#45; formerly a macro. ">
<polygon fill="white" stroke="black" points="338,-115 338,-134 375,-134 375,-115 338,-115"/>
<text text-anchor="middle" x="356.5" y="-122" font-family="Helvetica,sans-Serif" font-size="10.00">LOG</text>
</a>
</g>
</g>
<!-- Node62&#45;&gt;Node77 -->
<g id="edge21" class="edge"><title>Node62&#45;&gt;Node77</title>
<path fill="none" stroke="midnightblue" d="M101.687,-152.93C117.691,-149.563 136.123,-145.999 153,-143.5 215.1,-134.304 288.611,-128.717 327.733,-126.162"/>
<polygon fill="midnightblue" stroke="midnightblue" points="328.06,-129.648 337.817,-125.521 327.616,-122.662 328.06,-129.648"/>
</g>
<!-- Node65 -->
<g id="node4" class="node"><title>Node65</title>
<g id="a_node4"><a xlink:href="../../dd/de8/namespaceutf8.html#a75394fbfe91b1122e2602a6d73c5f612" target="_top" xlink:title="utf8::distance">
<polygon fill="white" stroke="black" points="319,-153 319,-172 394,-172 394,-153 319,-153"/>
<text text-anchor="middle" x="356.5" y="-160" font-family="Helvetica,sans-Serif" font-size="10.00">utf8::distance</text>
</a>
</g>
</g>
<!-- Node64&#45;&gt;Node65 -->
<g id="edge3" class="edge"><title>Node64&#45;&gt;Node65</title>
<path fill="none" stroke="midnightblue" d="M283.253,-162.5C291.81,-162.5 300.451,-162.5 308.636,-162.5"/>
<polygon fill="midnightblue" stroke="midnightblue" points="308.719,-166 318.718,-162.5 308.718,-159 308.719,-166"/>
</g>
<!-- Node64&#45;&gt;Node77 -->
<g id="edge19" class="edge"><title>Node64&#45;&gt;Node77</title>
<path fill="none" stroke="midnightblue" d="M253.445,-152.911C276.521,-146.487 306.496,-138.142 327.98,-132.161"/>
<polygon fill="midnightblue" stroke="midnightblue" points="329.083,-135.487 337.777,-129.434 327.205,-128.744 329.083,-135.487"/>
</g>
<!-- Node66 -->
<g id="node5" class="node"><title>Node66</title>
<g id="a_node5"><a xlink:href="../../dd/de8/namespaceutf8.html#afc093dfde66a6f52cb4a5caefe0e580d" target="_top" xlink:title="utf8::next">
<polygon fill="white" stroke="black" points="430,-153 430,-172 487,-172 487,-153 430,-153"/>
<text text-anchor="middle" x="458.5" y="-160" font-family="Helvetica,sans-Serif" font-size="10.00">utf8::next</text>
</a>
</g>
</g>
<!-- Node65&#45;&gt;Node66 -->
<g id="edge4" class="edge"><title>Node65&#45;&gt;Node66</title>
<path fill="none" stroke="midnightblue" d="M394.168,-162.5C402.478,-162.5 411.316,-162.5 419.673,-162.5"/>
<polygon fill="midnightblue" stroke="midnightblue" points="419.922,-166 429.922,-162.5 419.922,-159 419.922,-166"/>
</g>
<!-- Node67 -->
<g id="node6" class="node"><title>Node67</title>
<g id="a_node6"><a xlink:href="../../d0/d96/namespaceutf8_1_1internal.html#abe95547575fcc81911e381df03f8ebfe" target="_top" xlink:title="utf8::internal::validate_next">
<polygon fill="white" stroke="black" points="523,-153 523,-172 655,-172 655,-153 523,-153"/>
<text text-anchor="middle" x="589" y="-160" font-family="Helvetica,sans-Serif" font-size="10.00">utf8::internal::validate_next</text>
</a>
</g>
</g>
<!-- Node66&#45;&gt;Node67 -->
<g id="edge5" class="edge"><title>Node66&#45;&gt;Node67</title>
<path fill="none" stroke="midnightblue" d="M487.066,-162.5C494.865,-162.5 503.748,-162.5 512.935,-162.5"/>
<polygon fill="midnightblue" stroke="midnightblue" points="512.985,-166 522.985,-162.5 512.985,-159 512.985,-166"/>
</g>
<!-- Node68 -->
<g id="node7" class="node"><title>Node68</title>
<g id="a_node7"><a xlink:href="../../d0/d96/namespaceutf8_1_1internal.html#aadbe437cba7bfcc4df2638f633e9787c" target="_top" xlink:title="utf8::internal::sequence\l_length">
<polygon fill="white" stroke="black" points="691,-294.5 691,-324.5 809,-324.5 809,-294.5 691,-294.5"/>
<text text-anchor="start" x="699" y="-312.5" font-family="Helvetica,sans-Serif" font-size="10.00">utf8::internal::sequence</text>
<text text-anchor="middle" x="750" y="-301.5" font-family="Helvetica,sans-Serif" font-size="10.00">_length</text>
</a>
</g>
</g>
<!-- Node67&#45;&gt;Node68 -->
<g id="edge6" class="edge"><title>Node67&#45;&gt;Node68</title>
<path fill="none" stroke="midnightblue" d="M595.6,-172.173C609.198,-194.897 646.159,-252.266 691,-285.5 692.849,-286.871 694.789,-288.179 696.79,-289.425"/>
<polygon fill="midnightblue" stroke="midnightblue" points="695.442,-292.68 705.88,-294.496 698.852,-286.568 695.442,-292.68"/>
</g>
<!-- Node70 -->
<g id="node9" class="node"><title>Node70</title>
<g id="a_node9"><a xlink:href="../../d0/d96/namespaceutf8_1_1internal.html#a6e5df73716136aec55e8fcf3309038b6" target="_top" xlink:title="get_sequence_x functions decode utf&#45;8 sequences of the length x ">
<polygon fill="white" stroke="black" points="705.5,-245.5 705.5,-275.5 794.5,-275.5 794.5,-245.5 705.5,-245.5"/>
<text text-anchor="start" x="713.5" y="-263.5" font-family="Helvetica,sans-Serif" font-size="10.00">utf8::internal::get</text>
<text text-anchor="middle" x="750" y="-252.5" font-family="Helvetica,sans-Serif" font-size="10.00">_sequence_1</text>
</a>
</g>
</g>
<!-- Node67&#45;&gt;Node70 -->
<g id="edge8" class="edge"><title>Node67&#45;&gt;Node70</title>
<path fill="none" stroke="midnightblue" d="M601.555,-172.154C619.753,-187.048 656.57,-215.951 691,-235.5 694.389,-237.425 697.956,-239.297 701.585,-241.094"/>
<polygon fill="midnightblue" stroke="midnightblue" points="700.133,-244.279 710.669,-245.394 703.128,-237.952 700.133,-244.279"/>
</g>
<!-- Node71 -->
<g id="node10" class="node"><title>Node71</title>
<g id="a_node10"><a xlink:href="../../d0/d96/namespaceutf8_1_1internal.html#a9d641b9546be985f9f0fd4955ac42a24" target="_top" xlink:title="utf8::internal::get\l_sequence_2">
<polygon fill="white" stroke="black" points="705.5,-196.5 705.5,-226.5 794.5,-226.5 794.5,-196.5 705.5,-196.5"/>
<text text-anchor="start" x="713.5" y="-214.5" font-family="Helvetica,sans-Serif" font-size="10.00">utf8::internal::get</text>
<text text-anchor="middle" x="750" y="-203.5" font-family="Helvetica,sans-Serif" font-size="10.00">_sequence_2</text>
</a>
</g>
</g>
<!-- Node67&#45;&gt;Node71 -->
<g id="edge10" class="edge"><title>Node67&#45;&gt;Node71</title>
<path fill="none" stroke="midnightblue" d="M621.034,-172.064C642.257,-178.604 670.931,-187.441 695.756,-195.092"/>
<polygon fill="midnightblue" stroke="midnightblue" points="694.826,-198.467 705.413,-198.068 696.887,-191.778 694.826,-198.467"/>
</g>
<!-- Node72 -->
<g id="node11" class="node"><title>Node72</title>
<g id="a_node11"><a xlink:href="../../d0/d96/namespaceutf8_1_1internal.html#ac1809a1fb3fa6983d64a0d3a39646008" target="_top" xlink:title="utf8::internal::get\l_sequence_3">
<polygon fill="white" stroke="black" points="705.5,-147.5 705.5,-177.5 794.5,-177.5 794.5,-147.5 705.5,-147.5"/>
<text text-anchor="start" x="713.5" y="-165.5" font-family="Helvetica,sans-Serif" font-size="10.00">utf8::internal::get</text>
<text text-anchor="middle" x="750" y="-154.5" font-family="Helvetica,sans-Serif" font-size="10.00">_sequence_3</text>
</a>
</g>
</g>
<!-- Node67&#45;&gt;Node72 -->
<g id="edge12" class="edge"><title>Node67&#45;&gt;Node72</title>
<path fill="none" stroke="midnightblue" d="M655.13,-162.5C668.394,-162.5 682.209,-162.5 695.033,-162.5"/>
<polygon fill="midnightblue" stroke="midnightblue" points="695.076,-166 705.076,-162.5 695.076,-159 695.076,-166"/>
</g>
<!-- Node73 -->
<g id="node12" class="node"><title>Node73</title>
<g id="a_node12"><a xlink:href="../../d0/d96/namespaceutf8_1_1internal.html#ad1958e7c6746ba6b1fbb0d81b88b346c" target="_top" xlink:title="utf8::internal::get\l_sequence_4">
<polygon fill="white" stroke="black" points="705.5,-98.5 705.5,-128.5 794.5,-128.5 794.5,-98.5 705.5,-98.5"/>
<text text-anchor="start" x="713.5" y="-116.5" font-family="Helvetica,sans-Serif" font-size="10.00">utf8::internal::get</text>
<text text-anchor="middle" x="750" y="-105.5" font-family="Helvetica,sans-Serif" font-size="10.00">_sequence_4</text>
</a>
</g>
</g>
<!-- Node67&#45;&gt;Node73 -->
<g id="edge14" class="edge"><title>Node67&#45;&gt;Node73</title>
<path fill="none" stroke="midnightblue" d="M621.034,-152.936C642.257,-146.396 670.931,-137.559 695.756,-129.908"/>
<polygon fill="midnightblue" stroke="midnightblue" points="696.887,-133.222 705.413,-126.932 694.826,-126.533 696.887,-133.222"/>
</g>
<!-- Node74 -->
<g id="node13" class="node"><title>Node74</title>
<g id="a_node13"><a xlink:href="../../d0/d96/namespaceutf8_1_1internal.html#a97b553137aaeda6e8ca6f8d46f78fd79" target="_top" xlink:title="utf8::internal::is\l_code_point_valid">
<polygon fill="white" stroke="black" points="703.5,-49.5 703.5,-79.5 796.5,-79.5 796.5,-49.5 703.5,-49.5"/>
<text text-anchor="start" x="711.5" y="-67.5" font-family="Helvetica,sans-Serif" font-size="10.00">utf8::internal::is</text>
<text text-anchor="middle" x="750" y="-56.5" font-family="Helvetica,sans-Serif" font-size="10.00">_code_point_valid</text>
</a>
</g>
</g>
<!-- Node67&#45;&gt;Node74 -->
<g id="edge16" class="edge"><title>Node67&#45;&gt;Node74</title>
<path fill="none" stroke="midnightblue" d="M601.201,-152.885C619.214,-137.757 656.138,-108.107 691,-88.5 693.849,-86.8974 696.828,-85.3408 699.865,-83.8415"/>
<polygon fill="midnightblue" stroke="midnightblue" points="701.513,-86.9349 709.087,-79.5264 698.546,-80.5947 701.513,-86.9349"/>
</g>
<!-- Node76 -->
<g id="node15" class="node"><title>Node76</title>
<g id="a_node15"><a xlink:href="../../d0/d96/namespaceutf8_1_1internal.html#a3160f6f24dff465f64f83cb0e66995c6" target="_top" xlink:title="utf8::internal::is\l_overlong_sequence">
<polygon fill="white" stroke="black" points="698,-0.5 698,-30.5 802,-30.5 802,-0.5 698,-0.5"/>
<text text-anchor="start" x="706" y="-18.5" font-family="Helvetica,sans-Serif" font-size="10.00">utf8::internal::is</text>
<text text-anchor="middle" x="750" y="-7.5" font-family="Helvetica,sans-Serif" font-size="10.00">_overlong_sequence</text>
</a>
</g>
</g>
<!-- Node67&#45;&gt;Node76 -->
<g id="edge18" class="edge"><title>Node67&#45;&gt;Node76</title>
<path fill="none" stroke="midnightblue" d="M595.6,-152.827C609.198,-130.103 646.159,-72.7344 691,-39.5 692.849,-38.1292 694.789,-36.8213 696.79,-35.5751"/>
<polygon fill="midnightblue" stroke="midnightblue" points="698.852,-38.4325 705.88,-30.5036 695.442,-32.3195 698.852,-38.4325"/>
</g>
<!-- Node69 -->
<g id="node8" class="node"><title>Node69</title>
<g id="a_node8"><a xlink:href="../../d0/d96/namespaceutf8_1_1internal.html#adf6e0469e279b9562aa461b4c3c1e7e4" target="_top" xlink:title="utf8::internal::mask8">
<polygon fill="white" stroke="black" points="845,-202 845,-221 950,-221 950,-202 845,-202"/>
<text text-anchor="middle" x="897.5" y="-209" font-family="Helvetica,sans-Serif" font-size="10.00">utf8::internal::mask8</text>
</a>
</g>
</g>
<!-- Node68&#45;&gt;Node69 -->
<g id="edge7" class="edge"><title>Node68&#45;&gt;Node69</title>
<path fill="none" stroke="midnightblue" d="M792.038,-294.398C797.877,-291.714 803.695,-288.732 809,-285.5 835.866,-269.133 862.926,-244.752 879.691,-228.502"/>
<polygon fill="midnightblue" stroke="midnightblue" points="882.384,-230.762 887.048,-221.248 877.47,-225.777 882.384,-230.762"/>
</g>
<!-- Node70&#45;&gt;Node69 -->
<g id="edge9" class="edge"><title>Node70&#45;&gt;Node69</title>
<path fill="none" stroke="midnightblue" d="M794.655,-245.798C814.992,-238.95 838.96,-230.878 858.535,-224.286"/>
<polygon fill="midnightblue" stroke="midnightblue" points="859.681,-227.593 868.041,-221.084 857.447,-220.959 859.681,-227.593"/>
</g>
<!-- Node71&#45;&gt;Node69 -->
<g id="edge11" class="edge"><title>Node71&#45;&gt;Node69</title>
<path fill="none" stroke="midnightblue" d="M794.655,-211.5C807.262,-211.5 821.265,-211.5 834.751,-211.5"/>
<polygon fill="midnightblue" stroke="midnightblue" points="834.932,-215 844.932,-211.5 834.932,-208 834.932,-215"/>
</g>
<!-- Node72&#45;&gt;Node69 -->
<g id="edge13" class="edge"><title>Node72&#45;&gt;Node69</title>
<path fill="none" stroke="midnightblue" d="M794.655,-177.202C814.992,-184.05 838.96,-192.122 858.535,-198.714"/>
<polygon fill="midnightblue" stroke="midnightblue" points="857.447,-202.041 868.041,-201.916 859.681,-195.407 857.447,-202.041"/>
</g>
<!-- Node73&#45;&gt;Node69 -->
<g id="edge15" class="edge"><title>Node73&#45;&gt;Node69</title>
<path fill="none" stroke="midnightblue" d="M792.038,-128.602C797.877,-131.286 803.695,-134.268 809,-137.5 835.866,-153.867 862.926,-178.248 879.691,-194.498"/>
<polygon fill="midnightblue" stroke="midnightblue" points="877.47,-197.223 887.048,-201.752 882.384,-192.238 877.47,-197.223"/>
</g>
<!-- Node75 -->
<g id="node14" class="node"><title>Node75</title>
<g id="a_node14"><a xlink:href="../../d0/d96/namespaceutf8_1_1internal.html#a31a185a6bc8b9bf454191a8a95a93595" target="_top" xlink:title="utf8::internal::is\l_surrogate">
<polygon fill="white" stroke="black" points="856,-49.5 856,-79.5 939,-79.5 939,-49.5 856,-49.5"/>
<text text-anchor="start" x="864" y="-67.5" font-family="Helvetica,sans-Serif" font-size="10.00">utf8::internal::is</text>
<text text-anchor="middle" x="897.5" y="-56.5" font-family="Helvetica,sans-Serif" font-size="10.00">_surrogate</text>
</a>
</g>
</g>
<!-- Node74&#45;&gt;Node75 -->
<g id="edge17" class="edge"><title>Node74&#45;&gt;Node75</title>
<path fill="none" stroke="midnightblue" d="M796.638,-64.5C812.225,-64.5 829.75,-64.5 845.717,-64.5"/>
<polygon fill="midnightblue" stroke="midnightblue" points="845.949,-68.0001 855.949,-64.5 845.949,-61.0001 845.949,-68.0001"/>
</g>
<!-- Node78 -->
<g id="node17" class="node"><title>Node78</title>
<g id="a_node17"><a xlink:href="../../dd/dd2/namespace_ro_r.html#a15fdb48aba128c41a9c75357c2282694" target="_top" xlink:title="The ultimate, application&#45;wide logging function. Adds a line (any length) in &#39;RoR.log&#39; file. ">
<polygon fill="white" stroke="black" points="430,-115 430,-134 487,-134 487,-115 430,-115"/>
<text text-anchor="middle" x="458.5" y="-122" font-family="Helvetica,sans-Serif" font-size="10.00">RoR::Log</text>
</a>
</g>
</g>
<!-- Node77&#45;&gt;Node78 -->
<g id="edge20" class="edge"><title>Node77&#45;&gt;Node78</title>
<path fill="none" stroke="midnightblue" d="M375.378,-124.5C387.702,-124.5 404.542,-124.5 419.765,-124.5"/>
<polygon fill="midnightblue" stroke="midnightblue" points="419.97,-128 429.97,-124.5 419.97,-121 419.97,-128"/>
</g>
</g>
</svg>
