<?xml version="1.0" encoding="UTF-8" standalone="no"?>
<!DOCTYPE svg PUBLIC "-//W3C//DTD SVG 1.1//EN"
 "http://www.w3.org/Graphics/SVG/1.1/DTD/svg11.dtd">
<!-- Generated by graphviz version 2.38.0 (20140413.2041)
 -->
<!-- Title: PointColDetector::kdnode_t Pages: 1 -->
<svg width="144pt" height="162pt"
 viewBox="0.00 0.00 144.00 162.00" xmlns="http://www.w3.org/2000/svg" xmlns:xlink="http://www.w3.org/1999/xlink">
<g id="graph0" class="graph" transform="scale(1 1) rotate(0) translate(4 158)">
<title>PointColDetector::kdnode_t</title>
<polygon fill="white" stroke="none" points="-4,4 -4,-158 140,-158 140,4 -4,4"/>
<!-- Node1 -->
<g id="node1" class="node"><title>Node1</title>
<polygon fill="#bfbfbf" stroke="black" points="0,-0.5 0,-19.5 136,-19.5 136,-0.5 0,-0.5"/>
<text text-anchor="middle" x="68" y="-7.5" font-family="Helvetica,sans-Serif" font-size="10.00">PointColDetector::kdnode_t</text>
</g>
<!-- Node2 -->
<g id="node2" class="node"><title>Node2</title>
<g id="a_node2"><a xlink:href="../../dc/d97/struct_point_col_detector_1_1refelem__t.html" target="_top" xlink:title="PointColDetector::refelem_t">
<polygon fill="white" stroke="black" points="0,-67.5 0,-86.5 136,-86.5 136,-67.5 0,-67.5"/>
<text text-anchor="middle" x="68" y="-74.5" font-family="Helvetica,sans-Serif" font-size="10.00">PointColDetector::refelem_t</text>
</a>
</g>
</g>
<!-- Node2&#45;&gt;Node1 -->
<g id="edge1" class="edge"><title>Node2&#45;&gt;Node1</title>
<path fill="none" stroke="#9a32cd" stroke-dasharray="5,2" d="M68,-57.037C68,-44.6703 68,-29.1198 68,-19.6273"/>
<polygon fill="#9a32cd" stroke="#9a32cd" points="64.5001,-57.2338 68,-67.2338 71.5001,-57.2338 64.5001,-57.2338"/>
<text text-anchor="middle" x="75" y="-41" font-family="Helvetica,sans-Serif" font-size="10.00"> ref</text>
</g>
<!-- Node3 -->
<g id="node3" class="node"><title>Node3</title>
<g id="a_node3"><a xlink:href="../../db/d37/struct_point_col_detector_1_1pointid__t.html" target="_top" xlink:title="PointColDetector::pointid_t">
<polygon fill="white" stroke="black" points="1.5,-134.5 1.5,-153.5 134.5,-153.5 134.5,-134.5 1.5,-134.5"/>
<text text-anchor="middle" x="68" y="-141.5" font-family="Helvetica,sans-Serif" font-size="10.00">PointColDetector::pointid_t</text>
</a>
</g>
</g>
<!-- Node3&#45;&gt;Node2 -->
<g id="edge2" class="edge"><title>Node3&#45;&gt;Node2</title>
<path fill="none" stroke="#9a32cd" stroke-dasharray="5,2" d="M68,-124.037C68,-111.67 68,-96.1198 68,-86.6273"/>
<polygon fill="#9a32cd" stroke="#9a32cd" points="64.5001,-124.234 68,-134.234 71.5001,-124.234 64.5001,-124.234"/>
<text text-anchor="middle" x="81.5" y="-108" font-family="Helvetica,sans-Serif" font-size="10.00"> pidref</text>
</g>
</g>
</svg>
