<?xml version="1.0" encoding="UTF-8" standalone="no"?>
<!DOCTYPE svg PUBLIC "-//W3C//DTD SVG 1.1//EN"
 "http://www.w3.org/Graphics/SVG/1.1/DTD/svg11.dtd">
<!-- Generated by graphviz version 2.38.0 (20140413.2041)
 -->
<!-- Title: SlideNode::getClosestRail Pages: 1 -->
<svg width="433pt" height="28pt"
 viewBox="0.00 0.00 433.00 28.00" xmlns="http://www.w3.org/2000/svg" xmlns:xlink="http://www.w3.org/1999/xlink">
<g id="graph0" class="graph" transform="scale(1 1) rotate(0) translate(4 24)">
<title>SlideNode::getClosestRail</title>
<polygon fill="white" stroke="none" points="-4,4 -4,-24 429,-24 429,4 -4,4"/>
<!-- Node38 -->
<g id="node1" class="node"><title>Node38</title>
<polygon fill="#bfbfbf" stroke="black" points="0,-0.5 0,-19.5 130,-19.5 130,-0.5 0,-0.5"/>
<text text-anchor="middle" x="65" y="-7.5" font-family="Helvetica,sans-Serif" font-size="10.00">SlideNode::getClosestRail</text>
</g>
<!-- Node39 -->
<g id="node2" class="node"><title>Node39</title>
<g id="a_node2"><a xlink:href="../../d5/def/class_slide_node.html#ac5fd218cba138435059c5aec3ce59393" target="_top" xlink:title="SlideNode::getLenTo">
<polygon fill="white" stroke="black" points="166,-0.5 166,-19.5 273,-19.5 273,-0.5 166,-0.5"/>
<text text-anchor="middle" x="219.5" y="-7.5" font-family="Helvetica,sans-Serif" font-size="10.00">SlideNode::getLenTo</text>
</a>
</g>
</g>
<!-- Node38&#45;&gt;Node39 -->
<g id="edge1" class="edge"><title>Node38&#45;&gt;Node39</title>
<path fill="none" stroke="midnightblue" d="M130.232,-10C138.681,-10 147.332,-10 155.756,-10"/>
<polygon fill="midnightblue" stroke="midnightblue" points="155.89,-13.5001 165.89,-10 155.89,-6.5001 155.89,-13.5001"/>
</g>
<!-- Node40 -->
<g id="node3" class="node"><title>Node40</title>
<g id="a_node3"><a xlink:href="../../de/d17/class_rail_group.html#a8a73190526b67d47372c697703abf5d5" target="_top" xlink:title="RailGroup::getStartRail">
<polygon fill="white" stroke="black" points="309,-0.5 309,-19.5 425,-19.5 425,-0.5 309,-0.5"/>
<text text-anchor="middle" x="367" y="-7.5" font-family="Helvetica,sans-Serif" font-size="10.00">RailGroup::getStartRail</text>
</a>
</g>
</g>
<!-- Node39&#45;&gt;Node40 -->
<g id="edge2" class="edge"><title>Node39&#45;&gt;Node40</title>
<path fill="none" stroke="midnightblue" d="M273.029,-10C281.337,-10 290.027,-10 298.616,-10"/>
<polygon fill="midnightblue" stroke="midnightblue" points="298.625,-13.5001 308.625,-10 298.625,-6.5001 298.625,-13.5001"/>
</g>
</g>
</svg>
