<?xml version="1.0" encoding="UTF-8" standalone="no"?>
<!DOCTYPE svg PUBLIC "-//W3C//DTD SVG 1.1//EN"
 "http://www.w3.org/Graphics/SVG/1.1/DTD/svg11.dtd">
<!-- Generated by graphviz version 2.38.0 (20140413.2041)
 -->
<!-- Title: SlideNode::setDefaultRail Pages: 1 -->
<svg width="640pt" height="28pt"
 viewBox="0.00 0.00 640.00 28.00" xmlns="http://www.w3.org/2000/svg" xmlns:xlink="http://www.w3.org/1999/xlink">
<g id="graph0" class="graph" transform="scale(1 1) rotate(0) translate(4 24)">
<title>SlideNode::setDefaultRail</title>
<polygon fill="white" stroke="none" points="-4,4 -4,-24 636,-24 636,4 -4,4"/>
<!-- Node251 -->
<g id="node1" class="node"><title>Node251</title>
<polygon fill="#bfbfbf" stroke="black" points="0,-0.5 0,-19.5 127,-19.5 127,-0.5 0,-0.5"/>
<text text-anchor="middle" x="63.5" y="-7.5" font-family="Helvetica,sans-Serif" font-size="10.00">SlideNode::setDefaultRail</text>
</g>
<!-- Node252 -->
<g id="node2" class="node"><title>Node252</title>
<g id="a_node2"><a xlink:href="../../db/d35/class_rig_spawner.html#aeb9cc73a5856b289f91e6a46115a01ad" target="_top" xlink:title="RigSpawner::ProcessSlidenode">
<polygon fill="white" stroke="black" points="163,-0.5 163,-19.5 316,-19.5 316,-0.5 163,-0.5"/>
<text text-anchor="middle" x="239.5" y="-7.5" font-family="Helvetica,sans-Serif" font-size="10.00">RigSpawner::ProcessSlidenode</text>
</a>
</g>
</g>
<!-- Node251&#45;&gt;Node252 -->
<g id="edge1" class="edge"><title>Node251&#45;&gt;Node252</title>
<path fill="none" stroke="midnightblue" d="M137.411,-10C145.775,-10 154.318,-10 162.719,-10"/>
<polygon fill="midnightblue" stroke="midnightblue" points="137.318,-6.5001 127.318,-10 137.318,-13.5001 137.318,-6.5001"/>
</g>
<!-- Node253 -->
<g id="node3" class="node"><title>Node253</title>
<g id="a_node3"><a xlink:href="../../db/d35/class_rig_spawner.html#a67da85dd09bd864df9dc924f6f2a7d49" target="_top" xlink:title="RigSpawner::SpawnRig">
<polygon fill="white" stroke="black" points="352,-0.5 352,-19.5 470,-19.5 470,-0.5 352,-0.5"/>
<text text-anchor="middle" x="411" y="-7.5" font-family="Helvetica,sans-Serif" font-size="10.00">RigSpawner::SpawnRig</text>
</a>
</g>
</g>
<!-- Node252&#45;&gt;Node253 -->
<g id="edge2" class="edge"><title>Node252&#45;&gt;Node253</title>
<path fill="none" stroke="midnightblue" d="M326.402,-10C334.996,-10 343.575,-10 351.784,-10"/>
<polygon fill="midnightblue" stroke="midnightblue" points="326.326,-6.5001 316.326,-10 326.326,-13.5001 326.326,-6.5001"/>
</g>
<!-- Node254 -->
<g id="node4" class="node"><title>Node254</title>
<g id="a_node4"><a xlink:href="../../db/d35/class_rig_spawner.html#ac7a7f5955b466a52eb2507f435083b0b" target="_top" xlink:title="RigSpawner::RigSpawner">
<polygon fill="white" stroke="black" points="506,-0.5 506,-19.5 632,-19.5 632,-0.5 506,-0.5"/>
<text text-anchor="middle" x="569" y="-7.5" font-family="Helvetica,sans-Serif" font-size="10.00">RigSpawner::RigSpawner</text>
</a>
</g>
</g>
<!-- Node253&#45;&gt;Node254 -->
<g id="edge3" class="edge"><title>Node253&#45;&gt;Node254</title>
<path fill="none" stroke="midnightblue" d="M480.363,-10C488.872,-10 497.536,-10 505.942,-10"/>
<polygon fill="midnightblue" stroke="midnightblue" points="480.089,-6.5001 470.089,-10 480.089,-13.5001 480.089,-6.5001"/>
</g>
</g>
</svg>
