<?xml version="1.0" encoding="UTF-8" standalone="no"?>
<!DOCTYPE svg PUBLIC "-//W3C//DTD SVG 1.1//EN"
 "http://www.w3.org/Graphics/SVG/1.1/DTD/svg11.dtd">
<!-- Generated by graphviz version 2.38.0 (20140413.2041)
 -->
<!-- Title: LanguageEngine Pages: 1 -->
<svg width="208pt" height="152pt"
 viewBox="0.00 0.00 207.50 152.00" xmlns="http://www.w3.org/2000/svg" xmlns:xlink="http://www.w3.org/1999/xlink">
<g id="graph0" class="graph" transform="scale(1 1) rotate(0) translate(4 148)">
<title>LanguageEngine</title>
<polygon fill="white" stroke="none" points="-4,4 -4,-148 203.5,-148 203.5,4 -4,4"/>
<!-- Node3 -->
<g id="node1" class="node"><title>Node3</title>
<polygon fill="#bfbfbf" stroke="black" points="38.5,-67.5 38.5,-86.5 127.5,-86.5 127.5,-67.5 38.5,-67.5"/>
<text text-anchor="middle" x="83" y="-74.5" font-family="Helvetica,sans-Serif" font-size="10.00">LanguageEngine</text>
</g>
<!-- Node3&#45;&gt;Node3 -->
<g id="edge4" class="edge"><title>Node3&#45;&gt;Node3</title>
<path fill="none" stroke="#9a32cd" stroke-dasharray="5,2" d="M137.826,-81.1012C142.549,-80.2299 145.5,-78.8628 145.5,-77 145.5,-74.0195 137.946,-72.3081 127.663,-71.8657"/>
<polygon fill="#9a32cd" stroke="#9a32cd" points="137.258,-77.6408 127.663,-82.1343 137.966,-84.6049 137.258,-77.6408"/>
<text text-anchor="middle" x="172.5" y="-74.5" font-family="Helvetica,sans-Serif" font-size="10.00"> myInstance</text>
</g>
<!-- Node4 -->
<g id="node2" class="node"><title>Node4</title>
<g id="a_node2"><a xlink:href="../../d1/dc2/class_ro_r_singleton.html" target="_top" xlink:title="RoRSingleton\&lt; LanguageEngine \&gt;">
<polygon fill="white" stroke="black" points="0,-0.5 0,-19.5 166,-19.5 166,-0.5 0,-0.5"/>
<text text-anchor="middle" x="83" y="-7.5" font-family="Helvetica,sans-Serif" font-size="10.00">RoRSingleton&lt; LanguageEngine &gt;</text>
</a>
</g>
</g>
<!-- Node3&#45;&gt;Node4 -->
<g id="edge2" class="edge"><title>Node3&#45;&gt;Node4</title>
<path fill="none" stroke="#9a32cd" stroke-dasharray="5,2" d="M59.1841,-61.0146C55.4637,-57.5489 52.1457,-53.5279 50,-49 44.5371,-37.4719 56.0388,-26.7333 66.9316,-19.6333"/>
<polygon fill="#9a32cd" stroke="#9a32cd" points="57.1319,-63.8542 67.1394,-67.3329 61.4855,-58.3728 57.1319,-63.8542"/>
<text text-anchor="middle" x="73" y="-41" font-family="Helvetica,sans-Serif" font-size="10.00"> _instance</text>
</g>
<!-- Node4&#45;&gt;Node3 -->
<g id="edge1" class="edge"><title>Node4&#45;&gt;Node3</title>
<path fill="none" stroke="midnightblue" d="M96.3978,-28.2509C99.8144,-34.6244 102.02,-42.0018 100,-49 98.0955,-55.5994 94.0474,-62.1403 90.3792,-67.1311"/>
<polygon fill="midnightblue" stroke="midnightblue" points="99.2734,-26.253 90.8763,-19.7925 93.4117,-30.0794 99.2734,-26.253"/>
</g>
<!-- Node5 -->
<g id="node3" class="node"><title>Node5</title>
<g id="a_node3"><a xlink:href="../../d7/d0c/class_zeroed_memory_allocator.html" target="_top" xlink:title="ZeroedMemoryAllocator">
<polygon fill="white" stroke="black" points="23.5,-124.5 23.5,-143.5 142.5,-143.5 142.5,-124.5 23.5,-124.5"/>
<text text-anchor="middle" x="83" y="-131.5" font-family="Helvetica,sans-Serif" font-size="10.00">ZeroedMemoryAllocator</text>
</a>
</g>
</g>
<!-- Node5&#45;&gt;Node3 -->
<g id="edge3" class="edge"><title>Node5&#45;&gt;Node3</title>
<path fill="none" stroke="midnightblue" d="M83,-114.117C83,-104.817 83,-94.0557 83,-86.7149"/>
<polygon fill="midnightblue" stroke="midnightblue" points="79.5001,-114.406 83,-124.406 86.5001,-114.406 79.5001,-114.406"/>
</g>
</g>
</svg>
