<?xml version="1.0" encoding="UTF-8" standalone="no"?>
<!DOCTYPE svg PUBLIC "-//W3C//DTD SVG 1.1//EN"
 "http://www.w3.org/Graphics/SVG/1.1/DTD/svg11.dtd">
<!-- Generated by graphviz version 2.38.0 (20140413.2041)
 -->
<!-- Title: CameraBehaviorVehicle Pages: 1 -->
<svg width="332pt" height="263pt"
 viewBox="0.00 0.00 331.50 263.00" xmlns="http://www.w3.org/2000/svg" xmlns:xlink="http://www.w3.org/1999/xlink">
<g id="graph0" class="graph" transform="scale(1 1) rotate(0) translate(4 259)">
<title>CameraBehaviorVehicle</title>
<polygon fill="white" stroke="none" points="-4,4 -4,-259 327.5,-259 327.5,4 -4,4"/>
<!-- Node0 -->
<g id="node1" class="node"><title>Node0</title>
<polygon fill="#bfbfbf" stroke="black" points="105,-56.5 105,-75.5 224,-75.5 224,-56.5 105,-56.5"/>
<text text-anchor="middle" x="164.5" y="-63.5" font-family="Helvetica,sans-Serif" font-size="10.00">CameraBehaviorVehicle</text>
</g>
<!-- Node4 -->
<g id="node5" class="node"><title>Node4</title>
<g id="a_node5"><a xlink:href="../../d4/ded/class_camera_behavior_vehicle_cine_cam.html" target="_top" xlink:title="CameraBehaviorVehicleCineCam">
<polygon fill="white" stroke="black" points="0,-0.5 0,-19.5 159,-19.5 159,-0.5 0,-0.5"/>
<text text-anchor="middle" x="79.5" y="-7.5" font-family="Helvetica,sans-Serif" font-size="10.00">CameraBehaviorVehicleCineCam</text>
</a>
</g>
</g>
<!-- Node0&#45;&gt;Node4 -->
<g id="edge4" class="edge"><title>Node0&#45;&gt;Node4</title>
<path fill="none" stroke="midnightblue" d="M142.306,-50.9005C126.72,-40.9986 106.37,-28.0705 93.1228,-19.6545"/>
<polygon fill="midnightblue" stroke="midnightblue" points="140.526,-53.9158 150.843,-56.324 144.279,-48.0073 140.526,-53.9158"/>
</g>
<!-- Node5 -->
<g id="node6" class="node"><title>Node5</title>
<g id="a_node6"><a xlink:href="../../da/d42/class_camera_behavior_vehicle_spline.html" target="_top" xlink:title="CameraBehaviorVehicleSpline">
<polygon fill="white" stroke="black" points="177.5,-0.5 177.5,-19.5 323.5,-19.5 323.5,-0.5 177.5,-0.5"/>
<text text-anchor="middle" x="250.5" y="-7.5" font-family="Helvetica,sans-Serif" font-size="10.00">CameraBehaviorVehicleSpline</text>
</a>
</g>
</g>
<!-- Node0&#45;&gt;Node5 -->
<g id="edge5" class="edge"><title>Node0&#45;&gt;Node5</title>
<path fill="none" stroke="midnightblue" d="M186.955,-50.9005C202.724,-40.9986 223.314,-28.0705 236.717,-19.6545"/>
<polygon fill="midnightblue" stroke="midnightblue" points="184.925,-48.0421 178.317,-56.324 188.648,-53.9704 184.925,-48.0421"/>
</g>
<!-- Node1 -->
<g id="node2" class="node"><title>Node1</title>
<g id="a_node2"><a xlink:href="../../db/d5e/class_camera_behavior_orbit.html" target="_top" xlink:title="CameraBehaviorOrbit">
<polygon fill="white" stroke="black" points="110.5,-112.5 110.5,-131.5 218.5,-131.5 218.5,-112.5 110.5,-112.5"/>
<text text-anchor="middle" x="164.5" y="-119.5" font-family="Helvetica,sans-Serif" font-size="10.00">CameraBehaviorOrbit</text>
</a>
</g>
</g>
<!-- Node1&#45;&gt;Node0 -->
<g id="edge1" class="edge"><title>Node1&#45;&gt;Node0</title>
<path fill="none" stroke="midnightblue" d="M164.5,-101.805C164.5,-92.9102 164.5,-82.7798 164.5,-75.7511"/>
<polygon fill="midnightblue" stroke="midnightblue" points="161,-102.083 164.5,-112.083 168,-102.083 161,-102.083"/>
</g>
<!-- Node2 -->
<g id="node3" class="node"><title>Node2</title>
<g id="a_node3"><a xlink:href="../../db/df1/class_i_behavior.html" target="_top" xlink:title="IBehavior\&lt; CameraManager\l::CameraContext \&gt;">
<polygon fill="white" stroke="black" points="96.5,-168.5 96.5,-198.5 232.5,-198.5 232.5,-168.5 96.5,-168.5"/>
<text text-anchor="start" x="104.5" y="-186.5" font-family="Helvetica,sans-Serif" font-size="10.00">IBehavior&lt; CameraManager</text>
<text text-anchor="middle" x="164.5" y="-175.5" font-family="Helvetica,sans-Serif" font-size="10.00">::CameraContext &gt;</text>
</a>
</g>
</g>
<!-- Node2&#45;&gt;Node1 -->
<g id="edge2" class="edge"><title>Node2&#45;&gt;Node1</title>
<path fill="none" stroke="midnightblue" d="M164.5,-158.289C164.5,-148.857 164.5,-138.655 164.5,-131.658"/>
<polygon fill="midnightblue" stroke="midnightblue" points="161,-158.399 164.5,-168.399 168,-158.399 161,-158.399"/>
</g>
<!-- Node3 -->
<g id="node4" class="node"><title>Node3</title>
<g id="a_node4"><a xlink:href="../../d7/d0c/class_zeroed_memory_allocator.html" target="_top" xlink:title="ZeroedMemoryAllocator">
<polygon fill="white" stroke="black" points="105,-235.5 105,-254.5 224,-254.5 224,-235.5 105,-235.5"/>
<text text-anchor="middle" x="164.5" y="-242.5" font-family="Helvetica,sans-Serif" font-size="10.00">ZeroedMemoryAllocator</text>
</a>
</g>
</g>
<!-- Node3&#45;&gt;Node2 -->
<g id="edge3" class="edge"><title>Node3&#45;&gt;Node2</title>
<path fill="none" stroke="midnightblue" d="M164.5,-225.235C164.5,-216.586 164.5,-206.497 164.5,-198.523"/>
<polygon fill="midnightblue" stroke="midnightblue" points="161,-225.475 164.5,-235.475 168,-225.475 161,-225.475"/>
</g>
</g>
</svg>
