<?xml version="1.0" encoding="UTF-8" standalone="no"?>
<!DOCTYPE svg PUBLIC "-//W3C//DTD SVG 1.1//EN"
 "http://www.w3.org/Graphics/SVG/1.1/DTD/svg11.dtd">
<!-- Generated by graphviz version 2.38.0 (20140413.2041)
 -->
<!-- Title: Screwprop::setThrottle Pages: 1 -->
<svg width="487pt" height="78pt"
 viewBox="0.00 0.00 487.00 77.50" xmlns="http://www.w3.org/2000/svg" xmlns:xlink="http://www.w3.org/1999/xlink">
<g id="graph0" class="graph" transform="scale(1 1) rotate(0) translate(4 73.5)">
<title>Screwprop::setThrottle</title>
<polygon fill="white" stroke="none" points="-4,4 -4,-73.5 483,-73.5 483,4 -4,4"/>
<!-- Node24 -->
<g id="node1" class="node"><title>Node24</title>
<polygon fill="#bfbfbf" stroke="black" points="0,-22.5 0,-41.5 114,-41.5 114,-22.5 0,-22.5"/>
<text text-anchor="middle" x="57" y="-29.5" font-family="Helvetica,sans-Serif" font-size="10.00">Screwprop::setThrottle</text>
</g>
<!-- Node25 -->
<g id="node2" class="node"><title>Node25</title>
<g id="a_node2"><a xlink:href="../../dd/dbe/class_ro_r_frame_listener.html#afec2a0f00ed552c21d22aae76329bf38" target="_top" xlink:title="RoRFrameListener::Update\lInputEvents">
<polygon fill="white" stroke="black" points="150,-39 150,-69 284,-69 284,-39 150,-39"/>
<text text-anchor="start" x="158" y="-57" font-family="Helvetica,sans-Serif" font-size="10.00">RoRFrameListener::Update</text>
<text text-anchor="middle" x="217" y="-46" font-family="Helvetica,sans-Serif" font-size="10.00">InputEvents</text>
</a>
</g>
</g>
<!-- Node24&#45;&gt;Node25 -->
<g id="edge1" class="edge"><title>Node24&#45;&gt;Node25</title>
<path fill="none" stroke="midnightblue" d="M124.301,-41.2317C132.725,-42.4047 141.347,-43.6053 149.77,-44.7781"/>
<polygon fill="midnightblue" stroke="midnightblue" points="124.537,-37.7309 114.15,-39.8183 123.572,-44.6641 124.537,-37.7309"/>
</g>
<!-- Node27 -->
<g id="node4" class="node"><title>Node27</title>
<g id="a_node4"><a xlink:href="../../d7/d3a/class_screwprop.html#ac01b2113dead1f9ca6278ebdaa4606e6" target="_top" xlink:title="Screwprop::reset">
<polygon fill="white" stroke="black" points="172,-0.5 172,-19.5 262,-19.5 262,-0.5 172,-0.5"/>
<text text-anchor="middle" x="217" y="-7.5" font-family="Helvetica,sans-Serif" font-size="10.00">Screwprop::reset</text>
</a>
</g>
</g>
<!-- Node24&#45;&gt;Node27 -->
<g id="edge3" class="edge"><title>Node24&#45;&gt;Node27</title>
<path fill="none" stroke="midnightblue" d="M124.083,-22.7986C140.23,-20.5503 157.116,-18.199 171.946,-16.1342"/>
<polygon fill="midnightblue" stroke="midnightblue" points="123.572,-19.3359 114.15,-24.1817 124.537,-26.269 123.572,-19.3359"/>
</g>
<!-- Node26 -->
<g id="node3" class="node"><title>Node26</title>
<g id="a_node3"><a xlink:href="../../dd/dbe/class_ro_r_frame_listener.html#acdda0026f9324c3b7f48568624e07115" target="_top" xlink:title="RoRFrameListener::frameStarted">
<polygon fill="white" stroke="black" points="320,-44.5 320,-63.5 479,-63.5 479,-44.5 320,-44.5"/>
<text text-anchor="middle" x="399.5" y="-51.5" font-family="Helvetica,sans-Serif" font-size="10.00">RoRFrameListener::frameStarted</text>
</a>
</g>
</g>
<!-- Node25&#45;&gt;Node26 -->
<g id="edge2" class="edge"><title>Node25&#45;&gt;Node26</title>
<path fill="none" stroke="midnightblue" d="M294.343,-54C302.753,-54 311.328,-54 319.767,-54"/>
<polygon fill="midnightblue" stroke="midnightblue" points="294.187,-50.5001 284.187,-54 294.187,-57.5001 294.187,-50.5001"/>
</g>
<!-- Node28 -->
<g id="node5" class="node"><title>Node28</title>
<g id="a_node5"><a xlink:href="../../d7/d3a/class_screwprop.html#a19ed937f5b207458bfcb80beab8f13ee" target="_top" xlink:title="Screwprop::Screwprop">
<polygon fill="white" stroke="black" points="342.5,-0.5 342.5,-19.5 456.5,-19.5 456.5,-0.5 342.5,-0.5"/>
<text text-anchor="middle" x="399.5" y="-7.5" font-family="Helvetica,sans-Serif" font-size="10.00">Screwprop::Screwprop</text>
</a>
</g>
</g>
<!-- Node27&#45;&gt;Node28 -->
<g id="edge4" class="edge"><title>Node27&#45;&gt;Node28</title>
<path fill="none" stroke="midnightblue" d="M272.399,-10C294.562,-10 320.169,-10 342.494,-10"/>
<polygon fill="midnightblue" stroke="midnightblue" points="272.155,-6.5001 262.155,-10 272.155,-13.5001 272.155,-6.5001"/>
</g>
</g>
</svg>
