<?xml version="1.0" encoding="UTF-8" standalone="no"?>
<!DOCTYPE svg PUBLIC "-//W3C//DTD SVG 1.1//EN"
 "http://www.w3.org/Graphics/SVG/1.1/DTD/svg11.dtd">
<!-- Generated by graphviz version 2.38.0 (20140413.2041)
 -->
<!-- Title: SurveyMapManager::setMapZoomRelative Pages: 1 -->
<svg width="894pt" height="285pt"
 viewBox="0.00 0.00 894.00 285.00" xmlns="http://www.w3.org/2000/svg" xmlns:xlink="http://www.w3.org/1999/xlink">
<g id="graph0" class="graph" transform="scale(1 1) rotate(0) translate(4 281)">
<title>SurveyMapManager::setMapZoomRelative</title>
<polygon fill="white" stroke="none" points="-4,4 -4,-281 890,-281 890,4 -4,4"/>
<!-- Node1298 -->
<g id="node1" class="node"><title>Node1298</title>
<polygon fill="#bfbfbf" stroke="black" points="0,-55.5 0,-85.5 140,-85.5 140,-55.5 0,-55.5"/>
<text text-anchor="start" x="8" y="-73.5" font-family="Helvetica,sans-Serif" font-size="10.00">SurveyMapManager::setMap</text>
<text text-anchor="middle" x="70" y="-62.5" font-family="Helvetica,sans-Serif" font-size="10.00">ZoomRelative</text>
</g>
<!-- Node1299 -->
<g id="node2" class="node"><title>Node1299</title>
<g id="a_node2"><a xlink:href="../../db/dd2/class_survey_map_manager.html#ac7fddea7dd7050147998b735d3157718" target="_top" xlink:title="SurveyMapManager::setMapZoom">
<polygon fill="white" stroke="black" points="176,-99 176,-118 340,-118 340,-99 176,-99"/>
<text text-anchor="middle" x="258" y="-106" font-family="Helvetica,sans-Serif" font-size="10.00">SurveyMapManager::setMapZoom</text>
</a>
</g>
</g>
<!-- Node1298&#45;&gt;Node1299 -->
<g id="edge1" class="edge"><title>Node1298&#45;&gt;Node1299</title>
<path fill="none" stroke="midnightblue" d="M140.26,-84.6498C160.046,-88.6922 181.369,-93.0485 200.309,-96.9179"/>
<polygon fill="midnightblue" stroke="midnightblue" points="199.769,-100.38 210.267,-98.9524 201.17,-93.5215 199.769,-100.38"/>
</g>
<!-- Node1300 -->
<g id="node3" class="node"><title>Node1300</title>
<g id="a_node3"><a xlink:href="../../d2/dd0/class_survey_map_texture_creator.html#a889f0dd0655063c8cb78116cee9e6b1d" target="_top" xlink:title="SurveyMapTextureCreator\l::update">
<polygon fill="white" stroke="black" points="376,-93.5 376,-123.5 504,-123.5 504,-93.5 376,-93.5"/>
<text text-anchor="start" x="384" y="-111.5" font-family="Helvetica,sans-Serif" font-size="10.00">SurveyMapTextureCreator</text>
<text text-anchor="middle" x="440" y="-100.5" font-family="Helvetica,sans-Serif" font-size="10.00">::update</text>
</a>
</g>
</g>
<!-- Node1298&#45;&gt;Node1300 -->
<g id="edge21" class="edge"><title>Node1298&#45;&gt;Node1300</title>
<path fill="none" stroke="midnightblue" d="M140.055,-73.1122C194.528,-75.7184 272.34,-80.6498 340,-89.5 348.357,-90.5931 357.073,-91.9472 365.717,-93.4256"/>
<polygon fill="midnightblue" stroke="midnightblue" points="365.349,-96.9148 375.806,-95.2099 366.568,-90.0217 365.349,-96.9148"/>
</g>
<!-- Node1305 -->
<g id="node8" class="node"><title>Node1305</title>
<g id="a_node8"><a xlink:href="../../db/dd2/class_survey_map_manager.html#a61db6a2c4c30c2ed0cd18b50ea02f479" target="_top" xlink:title="SurveyMapManager::setMap\lCenter">
<polygon fill="white" stroke="black" points="743,-0.5 743,-30.5 883,-30.5 883,-0.5 743,-0.5"/>
<text text-anchor="start" x="751" y="-18.5" font-family="Helvetica,sans-Serif" font-size="10.00">SurveyMapManager::setMap</text>
<text text-anchor="middle" x="813" y="-7.5" font-family="Helvetica,sans-Serif" font-size="10.00">Center</text>
</a>
</g>
</g>
<!-- Node1298&#45;&gt;Node1305 -->
<g id="edge20" class="edge"><title>Node1298&#45;&gt;Node1305</title>
<path fill="none" stroke="midnightblue" d="M140.075,-63.6829C231.492,-54.8393 397.716,-39.3778 540,-29.5 604.811,-25.0006 678.402,-21.2982 732.681,-18.8334"/>
<polygon fill="midnightblue" stroke="midnightblue" points="733.095,-22.3184 742.927,-18.3723 732.78,-15.3255 733.095,-22.3184"/>
</g>
<!-- Node1299&#45;&gt;Node1300 -->
<g id="edge2" class="edge"><title>Node1299&#45;&gt;Node1300</title>
<path fill="none" stroke="midnightblue" d="M340.048,-108.5C348.606,-108.5 357.273,-108.5 365.735,-108.5"/>
<polygon fill="midnightblue" stroke="midnightblue" points="365.935,-112 375.935,-108.5 365.935,-105 365.935,-112"/>
</g>
<!-- Node1301 -->
<g id="node4" class="node"><title>Node1301</title>
<g id="a_node4"><a xlink:href="../../db/dd2/class_survey_map_manager.html#aec8d2ee435b736ae628d3924a6d2b29d" target="_top" xlink:title="SurveyMapManager::getMapSize">
<polygon fill="white" stroke="black" points="542,-77 542,-96 702,-96 702,-77 542,-77"/>
<text text-anchor="middle" x="622" y="-84" font-family="Helvetica,sans-Serif" font-size="10.00">SurveyMapManager::getMapSize</text>
</a>
</g>
</g>
<!-- Node1300&#45;&gt;Node1301 -->
<g id="edge3" class="edge"><title>Node1300&#45;&gt;Node1301</title>
<path fill="none" stroke="midnightblue" d="M504.208,-100.775C513.531,-99.6351 523.276,-98.4441 532.989,-97.2569"/>
<polygon fill="midnightblue" stroke="midnightblue" points="533.58,-100.711 543.082,-96.0233 532.731,-93.7624 533.58,-100.711"/>
</g>
<!-- Node1302 -->
<g id="node5" class="node"><title>Node1302</title>
<g id="a_node5"><a xlink:href="../../db/dd2/class_survey_map_manager.html#aa11b4ff9fe6e40c5b75e7fcc7a0ea704" target="_top" xlink:title="SurveyMapManager::getMap\lCenter">
<polygon fill="white" stroke="black" points="552,-229.5 552,-259.5 692,-259.5 692,-229.5 552,-229.5"/>
<text text-anchor="start" x="560" y="-247.5" font-family="Helvetica,sans-Serif" font-size="10.00">SurveyMapManager::getMap</text>
<text text-anchor="middle" x="622" y="-236.5" font-family="Helvetica,sans-Serif" font-size="10.00">Center</text>
</a>
</g>
</g>
<!-- Node1300&#45;&gt;Node1302 -->
<g id="edge4" class="edge"><title>Node1300&#45;&gt;Node1302</title>
<path fill="none" stroke="midnightblue" d="M454.248,-123.773C472.217,-143.85 505.992,-179.392 540,-203.5 551.271,-211.49 564.32,-218.815 576.608,-224.994"/>
<polygon fill="midnightblue" stroke="midnightblue" points="575.293,-228.247 585.815,-229.488 578.363,-221.956 575.293,-228.247"/>
</g>
<!-- Node1304 -->
<g id="node7" class="node"><title>Node1304</title>
<g id="a_node7"><a xlink:href="../../db/dd2/class_survey_map_manager.html#a52d4394a3be9430d483e3ae058077019" target="_top" xlink:title="SurveyMapManager::getMapZoom">
<polygon fill="white" stroke="black" points="540,-39 540,-58 704,-58 704,-39 540,-39"/>
<text text-anchor="middle" x="622" y="-46" font-family="Helvetica,sans-Serif" font-size="10.00">SurveyMapManager::getMapZoom</text>
</a>
</g>
</g>
<!-- Node1300&#45;&gt;Node1304 -->
<g id="edge6" class="edge"><title>Node1300&#45;&gt;Node1304</title>
<path fill="none" stroke="midnightblue" d="M473.501,-93.4739C492.584,-85.0485 517.334,-74.7985 540,-67.5 547.82,-64.982 556.163,-62.645 564.411,-60.5329"/>
<polygon fill="midnightblue" stroke="midnightblue" points="565.513,-63.8659 574.383,-58.0711 563.836,-57.07 565.513,-63.8659"/>
</g>
<!-- Node1306 -->
<g id="node9" class="node"><title>Node1306</title>
<g id="a_node9"><a xlink:href="../../d2/dd0/class_survey_map_texture_creator.html#aeeb03c9272b7b29ff6d346a9f4611dc5" target="_top" xlink:title="SurveyMapTextureCreator\l::preRenderTargetUpdate">
<polygon fill="white" stroke="black" points="558,-115.5 558,-145.5 686,-145.5 686,-115.5 558,-115.5"/>
<text text-anchor="start" x="566" y="-133.5" font-family="Helvetica,sans-Serif" font-size="10.00">SurveyMapTextureCreator</text>
<text text-anchor="middle" x="622" y="-122.5" font-family="Helvetica,sans-Serif" font-size="10.00">::preRenderTargetUpdate</text>
</a>
</g>
</g>
<!-- Node1300&#45;&gt;Node1306 -->
<g id="edge8" class="edge"><title>Node1300&#45;&gt;Node1306</title>
<path fill="none" stroke="midnightblue" d="M504.208,-116.225C518.365,-117.956 533.494,-119.805 548.011,-121.579"/>
<polygon fill="midnightblue" stroke="midnightblue" points="547.593,-125.054 557.944,-122.793 548.443,-118.106 547.593,-125.054"/>
</g>
<!-- Node1312 -->
<g id="node15" class="node"><title>Node1312</title>
<g id="a_node15"><a xlink:href="../../d2/dd0/class_survey_map_texture_creator.html#aeee3a35731188515be6a257bab889a84" target="_top" xlink:title="SurveyMapTextureCreator\l::postRenderTargetUpdate">
<polygon fill="white" stroke="black" points="557,-164.5 557,-194.5 687,-194.5 687,-164.5 557,-164.5"/>
<text text-anchor="start" x="565" y="-182.5" font-family="Helvetica,sans-Serif" font-size="10.00">SurveyMapTextureCreator</text>
<text text-anchor="middle" x="622" y="-171.5" font-family="Helvetica,sans-Serif" font-size="10.00">::postRenderTargetUpdate</text>
</a>
</g>
</g>
<!-- Node1300&#45;&gt;Node1312 -->
<g id="edge14" class="edge"><title>Node1300&#45;&gt;Node1312</title>
<path fill="none" stroke="midnightblue" d="M470.872,-123.673C490.283,-133.207 516.297,-145.384 540,-154.5 545.949,-156.788 552.204,-159.018 558.491,-161.143"/>
<polygon fill="midnightblue" stroke="midnightblue" points="557.764,-164.588 568.357,-164.39 559.953,-157.939 557.764,-164.588"/>
</g>
<!-- Node1303 -->
<g id="node6" class="node"><title>Node1303</title>
<g id="a_node6"><a xlink:href="../../db/dd2/class_survey_map_manager.html#a780715983d5ad1c19af5ec448f416dee" target="_top" xlink:title="SurveyMapManager::setMap\lTexture">
<polygon fill="white" stroke="black" points="743,-246.5 743,-276.5 883,-276.5 883,-246.5 743,-246.5"/>
<text text-anchor="start" x="751" y="-264.5" font-family="Helvetica,sans-Serif" font-size="10.00">SurveyMapManager::setMap</text>
<text text-anchor="middle" x="813" y="-253.5" font-family="Helvetica,sans-Serif" font-size="10.00">Texture</text>
</a>
</g>
</g>
<!-- Node1302&#45;&gt;Node1303 -->
<g id="edge5" class="edge"><title>Node1302&#45;&gt;Node1303</title>
<path fill="none" stroke="midnightblue" d="M692.036,-250.71C705.228,-251.896 719.137,-253.147 732.623,-254.36"/>
<polygon fill="midnightblue" stroke="midnightblue" points="732.562,-257.869 742.835,-255.279 733.189,-250.897 732.562,-257.869"/>
</g>
<!-- Node1304&#45;&gt;Node1305 -->
<g id="edge7" class="edge"><title>Node1304&#45;&gt;Node1305</title>
<path fill="none" stroke="midnightblue" d="M677.413,-38.9993C694.699,-35.9811 714.182,-32.5794 732.844,-29.3209"/>
<polygon fill="midnightblue" stroke="midnightblue" points="733.56,-32.7489 742.809,-27.581 732.356,-25.8532 733.56,-32.7489"/>
</g>
<!-- Node1307 -->
<g id="node10" class="node"><title>Node1307</title>
<g id="a_node10"><a xlink:href="../../d3/d16/class_terrain_manager.html#a1d0227a71a4e114099797646ff6756b7" target="_top" xlink:title="TerrainManager::getWater">
<polygon fill="white" stroke="black" points="748.5,-170 748.5,-189 877.5,-189 877.5,-170 748.5,-170"/>
<text text-anchor="middle" x="813" y="-177" font-family="Helvetica,sans-Serif" font-size="10.00">TerrainManager::getWater</text>
</a>
</g>
</g>
<!-- Node1306&#45;&gt;Node1307 -->
<g id="edge9" class="edge"><title>Node1306&#45;&gt;Node1307</title>
<path fill="none" stroke="midnightblue" d="M680.991,-145.535C708.1,-152.563 739.947,-160.82 765.453,-167.432"/>
<polygon fill="midnightblue" stroke="midnightblue" points="764.691,-170.85 775.249,-169.972 766.448,-164.074 764.691,-170.85"/>
</g>
<!-- Node1308 -->
<g id="node11" class="node"><title>Node1308</title>
<g id="a_node11"><a xlink:href="../../d1/dd9/class_i_water.html#a7d7819f7cf473aa8a99ddca7cbdec0bc" target="_top" xlink:title="IWater::setCamera">
<polygon fill="white" stroke="black" points="764,-132 764,-151 862,-151 862,-132 764,-132"/>
<text text-anchor="middle" x="813" y="-139" font-family="Helvetica,sans-Serif" font-size="10.00">IWater::setCamera</text>
</a>
</g>
</g>
<!-- Node1306&#45;&gt;Node1308 -->
<g id="edge10" class="edge"><title>Node1306&#45;&gt;Node1308</title>
<path fill="none" stroke="midnightblue" d="M686.197,-134.178C707.961,-135.445 732.223,-136.857 753.588,-138.1"/>
<polygon fill="midnightblue" stroke="midnightblue" points="753.634,-141.609 763.82,-138.696 754.04,-134.621 753.634,-141.609"/>
</g>
<!-- Node1309 -->
<g id="node12" class="node"><title>Node1309</title>
<g id="a_node12"><a xlink:href="../../d1/dd9/class_i_water.html#aafd64d3659a952b2667c9124b9c41572" target="_top" xlink:title="IWater::moveTo">
<polygon fill="white" stroke="black" points="771,-94 771,-113 855,-113 855,-94 771,-94"/>
<text text-anchor="middle" x="813" y="-101" font-family="Helvetica,sans-Serif" font-size="10.00">IWater::moveTo</text>
</a>
</g>
</g>
<!-- Node1306&#45;&gt;Node1309 -->
<g id="edge11" class="edge"><title>Node1306&#45;&gt;Node1309</title>
<path fill="none" stroke="midnightblue" d="M686.197,-121.472C710.501,-118 737.92,-114.083 760.942,-110.794"/>
<polygon fill="midnightblue" stroke="midnightblue" points="761.445,-114.258 770.85,-109.379 760.455,-107.328 761.445,-114.258"/>
</g>
<!-- Node1310 -->
<g id="node13" class="node"><title>Node1310</title>
<g id="a_node13"><a xlink:href="../../d1/dd9/class_i_water.html#a1c85ea2684f75ada32395e8497b67ead" target="_top" xlink:title="Returns static water level configured in &#39;terrn2&#39;. ">
<polygon fill="white" stroke="black" points="740,-56 740,-75 886,-75 886,-56 740,-56"/>
<text text-anchor="middle" x="813" y="-63" font-family="Helvetica,sans-Serif" font-size="10.00">IWater::GetStaticWaterHeight</text>
</a>
</g>
</g>
<!-- Node1306&#45;&gt;Node1310 -->
<g id="edge12" class="edge"><title>Node1306&#45;&gt;Node1310</title>
<path fill="none" stroke="midnightblue" d="M678.087,-115.364C686.878,-112.418 695.78,-109.109 704,-105.5 720.96,-98.0533 722.889,-91.5944 740,-84.5 745.799,-82.0955 751.989,-79.9195 758.213,-77.9719"/>
<polygon fill="midnightblue" stroke="midnightblue" points="759.366,-81.2812 767.97,-75.0993 757.389,-74.5662 759.366,-81.2812"/>
</g>
<!-- Node1311 -->
<g id="node14" class="node"><title>Node1311</title>
<g id="a_node14"><a xlink:href="../../d1/dd9/class_i_water.html#a2fb52c8272f9e090a8a59e5a13f5ef91" target="_top" xlink:title="IWater::update">
<polygon fill="white" stroke="black" points="773,-208 773,-227 853,-227 853,-208 773,-208"/>
<text text-anchor="middle" x="813" y="-215" font-family="Helvetica,sans-Serif" font-size="10.00">IWater::update</text>
</a>
</g>
</g>
<!-- Node1306&#45;&gt;Node1311 -->
<g id="edge13" class="edge"><title>Node1306&#45;&gt;Node1311</title>
<path fill="none" stroke="midnightblue" d="M686.169,-145.091C692.436,-147.736 698.503,-150.847 704,-154.5 725.044,-168.485 718.749,-184.832 740,-198.5 746.957,-202.974 754.934,-206.399 762.987,-209.019"/>
<polygon fill="midnightblue" stroke="midnightblue" points="762.206,-212.436 772.784,-211.833 764.139,-205.708 762.206,-212.436"/>
</g>
<!-- Node1312&#45;&gt;Node1307 -->
<g id="edge15" class="edge"><title>Node1312&#45;&gt;Node1307</title>
<path fill="none" stroke="midnightblue" d="M687.251,-179.5C703.557,-179.5 721.206,-179.5 737.956,-179.5"/>
<polygon fill="midnightblue" stroke="midnightblue" points="738.248,-183 748.248,-179.5 738.248,-176 738.248,-183"/>
</g>
<!-- Node1312&#45;&gt;Node1308 -->
<g id="edge16" class="edge"><title>Node1312&#45;&gt;Node1308</title>
<path fill="none" stroke="midnightblue" d="M687.251,-166.582C709.145,-162.18 733.462,-157.291 754.769,-153.007"/>
<polygon fill="midnightblue" stroke="midnightblue" points="755.53,-156.424 764.644,-151.021 754.15,-149.561 755.53,-156.424"/>
</g>
<!-- Node1312&#45;&gt;Node1309 -->
<g id="edge17" class="edge"><title>Node1312&#45;&gt;Node1309</title>
<path fill="none" stroke="midnightblue" d="M682.202,-164.493C689.75,-161.643 697.204,-158.328 704,-154.5 722.652,-143.993 721.135,-132.619 740,-122.5 746.501,-119.013 753.681,-116.137 760.914,-113.772"/>
<polygon fill="midnightblue" stroke="midnightblue" points="762.16,-117.053 770.753,-110.855 760.17,-110.342 762.16,-117.053"/>
</g>
<!-- Node1312&#45;&gt;Node1310 -->
<g id="edge18" class="edge"><title>Node1312&#45;&gt;Node1310</title>
<path fill="none" stroke="midnightblue" d="M687.027,-165.216C693.13,-162.285 698.924,-158.754 704,-154.5 730.812,-132.027 712.729,-106.413 740,-84.5 742.267,-82.678 744.693,-81.0295 747.23,-79.5381"/>
<polygon fill="midnightblue" stroke="midnightblue" points="748.84,-82.6462 756.225,-75.0487 745.714,-76.383 748.84,-82.6462"/>
</g>
<!-- Node1312&#45;&gt;Node1311 -->
<g id="edge19" class="edge"><title>Node1312&#45;&gt;Node1311</title>
<path fill="none" stroke="midnightblue" d="M687.251,-192.418C712.047,-197.404 739.95,-203.014 763.069,-207.662"/>
<polygon fill="midnightblue" stroke="midnightblue" points="762.498,-211.117 772.992,-209.657 763.878,-204.255 762.498,-211.117"/>
</g>
</g>
</svg>
