<?xml version="1.0" encoding="UTF-8" standalone="no"?>
<!DOCTYPE svg PUBLIC "-//W3C//DTD SVG 1.1//EN"
 "http://www.w3.org/Graphics/SVG/1.1/DTD/svg11.dtd">
<!-- Generated by graphviz version 2.38.0 (20140413.2041)
 -->
<!-- Title: source/main/gfx/skyx/SCfgFileManager.h Pages: 1 -->
<svg width="190pt" height="207pt"
 viewBox="0.00 0.00 190.00 207.00" xmlns="http://www.w3.org/2000/svg" xmlns:xlink="http://www.w3.org/1999/xlink">
<g id="graph0" class="graph" transform="scale(1 1) rotate(0) translate(4 203)">
<title>source/main/gfx/skyx/SCfgFileManager.h</title>
<polygon fill="white" stroke="none" points="-4,4 -4,-203 186,-203 186,4 -4,4"/>
<!-- Node0 -->
<g id="node1" class="node"><title>Node0</title>
<polygon fill="#bfbfbf" stroke="black" points="35,-168.5 35,-198.5 145,-198.5 145,-168.5 35,-168.5"/>
<text text-anchor="start" x="43" y="-186.5" font-family="Helvetica,sans-Serif" font-size="10.00">source/main/gfx/skyx</text>
<text text-anchor="middle" x="90" y="-175.5" font-family="Helvetica,sans-Serif" font-size="10.00">/SCfgFileManager.h</text>
</g>
<!-- Node1 -->
<g id="node2" class="node"><title>Node1</title>
<g id="a_node2"><a xlink:href="../../d4/d87/skyx_2_prerequisites_8h.html" target="_top" xlink:title="Prerequisites.h">
<polygon fill="white" stroke="black" points="0,-56.5 0,-75.5 82,-75.5 82,-56.5 0,-56.5"/>
<text text-anchor="middle" x="41" y="-63.5" font-family="Helvetica,sans-Serif" font-size="10.00">Prerequisites.h</text>
</a>
</g>
</g>
<!-- Node0&#45;&gt;Node1 -->
<g id="edge1" class="edge"><title>Node0&#45;&gt;Node1</title>
<path fill="none" stroke="midnightblue" d="M83.9916,-168.337C75.0828,-147.338 58.3749,-107.955 48.6185,-84.9579"/>
<polygon fill="midnightblue" stroke="midnightblue" points="51.8055,-83.5083 44.6779,-75.6695 45.3615,-86.2422 51.8055,-83.5083"/>
</g>
<!-- Node3 -->
<g id="node4" class="node"><title>Node3</title>
<g id="a_node4"><a xlink:href="../../d7/d8e/_help_8h.html" target="_top" xlink:title="Help.h">
<polygon fill="white" stroke="black" points="106,-112.5 106,-131.5 150,-131.5 150,-112.5 106,-112.5"/>
<text text-anchor="middle" x="128" y="-119.5" font-family="Helvetica,sans-Serif" font-size="10.00">Help.h</text>
</a>
</g>
</g>
<!-- Node0&#45;&gt;Node3 -->
<g id="edge3" class="edge"><title>Node0&#45;&gt;Node3</title>
<path fill="none" stroke="midnightblue" d="M99.0055,-168.399C104.413,-159.932 111.332,-149.099 117.054,-140.139"/>
<polygon fill="midnightblue" stroke="midnightblue" points="120.038,-141.97 122.471,-131.658 114.138,-138.202 120.038,-141.97"/>
</g>
<!-- Node2 -->
<g id="node3" class="node"><title>Node2</title>
<polygon fill="white" stroke="#bfbfbf" points="68,-0.5 68,-19.5 114,-19.5 114,-0.5 68,-0.5"/>
<text text-anchor="middle" x="91" y="-7.5" font-family="Helvetica,sans-Serif" font-size="10.00">Ogre.h</text>
</g>
<!-- Node1&#45;&gt;Node2 -->
<g id="edge2" class="edge"><title>Node1&#45;&gt;Node2</title>
<path fill="none" stroke="midnightblue" d="M49.2565,-56.083C56.4647,-48.2982 67.1098,-36.8015 75.8458,-27.3665"/>
<polygon fill="midnightblue" stroke="midnightblue" points="78.6712,-29.4666 82.8972,-19.7511 73.5349,-24.7108 78.6712,-29.4666"/>
</g>
<!-- Node4 -->
<g id="node5" class="node"><title>Node4</title>
<g id="a_node5"><a xlink:href="../../dc/d89/hydrax_2_prerequisites_8h.html" target="_top" xlink:title="Prerequisites.h">
<polygon fill="white" stroke="black" points="100,-56.5 100,-75.5 182,-75.5 182,-56.5 100,-56.5"/>
<text text-anchor="middle" x="141" y="-63.5" font-family="Helvetica,sans-Serif" font-size="10.00">Prerequisites.h</text>
</a>
</g>
</g>
<!-- Node3&#45;&gt;Node4 -->
<g id="edge4" class="edge"><title>Node3&#45;&gt;Node4</title>
<path fill="none" stroke="midnightblue" d="M130.147,-112.083C131.869,-104.927 134.347,-94.6353 136.5,-85.6911"/>
<polygon fill="midnightblue" stroke="midnightblue" points="139.955,-86.2925 138.893,-75.7511 133.15,-84.6541 139.955,-86.2925"/>
</g>
<!-- Node4&#45;&gt;Node2 -->
<g id="edge5" class="edge"><title>Node4&#45;&gt;Node2</title>
<path fill="none" stroke="midnightblue" d="M132.744,-56.083C125.535,-48.2982 114.89,-36.8015 106.154,-27.3665"/>
<polygon fill="midnightblue" stroke="midnightblue" points="108.465,-24.7108 99.1028,-19.7511 103.329,-29.4666 108.465,-24.7108"/>
</g>
</g>
</svg>
