<?xml version="1.0" encoding="UTF-8" standalone="no"?>
<!DOCTYPE svg PUBLIC "-//W3C//DTD SVG 1.1//EN"
 "http://www.w3.org/Graphics/SVG/1.1/DTD/svg11.dtd">
<!-- Generated by graphviz version 2.38.0 (20140413.2041)
 -->
<!-- Title: RoR::GUI::RigSpawnerReportWindow::IsVisible Pages: 1 -->
<svg width="326pt" height="39pt"
 viewBox="0.00 0.00 326.00 39.00" xmlns="http://www.w3.org/2000/svg" xmlns:xlink="http://www.w3.org/1999/xlink">
<g id="graph0" class="graph" transform="scale(1 1) rotate(0) translate(4 35)">
<title>RoR::GUI::RigSpawnerReportWindow::IsVisible</title>
<polygon fill="white" stroke="none" points="-4,4 -4,-35 322,-35 322,4 -4,4"/>
<!-- Node5 -->
<g id="node1" class="node"><title>Node5</title>
<polygon fill="#bfbfbf" stroke="black" points="0,-0.5 0,-30.5 144,-30.5 144,-0.5 0,-0.5"/>
<text text-anchor="start" x="8" y="-18.5" font-family="Helvetica,sans-Serif" font-size="10.00">RoR::GUI::RigSpawnerReport</text>
<text text-anchor="middle" x="72" y="-7.5" font-family="Helvetica,sans-Serif" font-size="10.00">Window::IsVisible</text>
</g>
<!-- Node6 -->
<g id="node2" class="node"><title>Node6</title>
<g id="a_node2"><a xlink:href="../../d8/d11/class_ro_r_1_1_g_u_i_manager.html#af75bec0c24680fa1cecea12d447cf87e" target="_top" xlink:title="RoR::GUIManager::IsVisible\l_SpawnerReport">
<polygon fill="white" stroke="black" points="180,-0.5 180,-30.5 318,-30.5 318,-0.5 180,-0.5"/>
<text text-anchor="start" x="188" y="-18.5" font-family="Helvetica,sans-Serif" font-size="10.00">RoR::GUIManager::IsVisible</text>
<text text-anchor="middle" x="249" y="-7.5" font-family="Helvetica,sans-Serif" font-size="10.00">_SpawnerReport</text>
</a>
</g>
</g>
<!-- Node5&#45;&gt;Node6 -->
<g id="edge1" class="edge"><title>Node5&#45;&gt;Node6</title>
<path fill="none" stroke="midnightblue" d="M154.237,-15.5C162.854,-15.5 171.553,-15.5 179.996,-15.5"/>
<polygon fill="midnightblue" stroke="midnightblue" points="154.179,-12.0001 144.179,-15.5 154.179,-19.0001 154.179,-12.0001"/>
</g>
</g>
</svg>
