<?xml version="1.0" encoding="UTF-8" standalone="no"?>
<!DOCTYPE svg PUBLIC "-//W3C//DTD SVG 1.1//EN"
 "http://www.w3.org/Graphics/SVG/1.1/DTD/svg11.dtd">
<!-- Generated by graphviz version 2.38.0 (20140413.2041)
 -->
<!-- Title: Hydrax::Noise::Real::saveCfg Pages: 1 -->
<svg width="414pt" height="88pt"
 viewBox="0.00 0.00 414.00 88.00" xmlns="http://www.w3.org/2000/svg" xmlns:xlink="http://www.w3.org/1999/xlink">
<g id="graph0" class="graph" transform="scale(1 1) rotate(0) translate(4 84)">
<title>Hydrax::Noise::Real::saveCfg</title>
<polygon fill="white" stroke="none" points="-4,4 -4,-84 410,-84 410,4 -4,4"/>
<!-- Node270 -->
<g id="node1" class="node"><title>Node270</title>
<polygon fill="#bfbfbf" stroke="black" points="0,-24.5 0,-54.5 104,-54.5 104,-24.5 0,-24.5"/>
<text text-anchor="start" x="8" y="-42.5" font-family="Helvetica,sans-Serif" font-size="10.00">Hydrax::Noise::Real</text>
<text text-anchor="middle" x="52" y="-31.5" font-family="Helvetica,sans-Serif" font-size="10.00">::saveCfg</text>
</g>
<!-- Node271 -->
<g id="node2" class="node"><title>Node271</title>
<g id="a_node2"><a xlink:href="../../db/d29/class_hydrax_1_1_noise_1_1_perlin.html#a4f1f70a3375ac2b2f5e09011e7cc7ef3" target="_top" xlink:title="Hydrax::Noise::Perlin\l::saveCfg">
<polygon fill="white" stroke="black" points="140,-24.5 140,-54.5 249,-54.5 249,-24.5 140,-24.5"/>
<text text-anchor="start" x="148" y="-42.5" font-family="Helvetica,sans-Serif" font-size="10.00">Hydrax::Noise::Perlin</text>
<text text-anchor="middle" x="194.5" y="-31.5" font-family="Helvetica,sans-Serif" font-size="10.00">::saveCfg</text>
</a>
</g>
</g>
<!-- Node270&#45;&gt;Node271 -->
<g id="edge1" class="edge"><title>Node270&#45;&gt;Node271</title>
<path fill="none" stroke="midnightblue" d="M104.121,-39.5C112.468,-39.5 121.204,-39.5 129.808,-39.5"/>
<polygon fill="midnightblue" stroke="midnightblue" points="129.816,-43.0001 139.816,-39.5 129.816,-36.0001 129.816,-43.0001"/>
</g>
<!-- Node272 -->
<g id="node3" class="node"><title>Node272</title>
<g id="a_node3"><a xlink:href="../../da/d26/class_hydrax_1_1_noise_1_1_noise.html#aac0a9fe1533ddd87467edb954f8abea8" target="_top" xlink:title="Hydrax::Noise::Noise\l::saveCfg">
<polygon fill="white" stroke="black" points="291,-49.5 291,-79.5 400,-79.5 400,-49.5 291,-49.5"/>
<text text-anchor="start" x="299" y="-67.5" font-family="Helvetica,sans-Serif" font-size="10.00">Hydrax::Noise::Noise</text>
<text text-anchor="middle" x="345.5" y="-56.5" font-family="Helvetica,sans-Serif" font-size="10.00">::saveCfg</text>
</a>
</g>
</g>
<!-- Node271&#45;&gt;Node272 -->
<g id="edge2" class="edge"><title>Node271&#45;&gt;Node272</title>
<path fill="none" stroke="midnightblue" d="M249.292,-48.5256C259.526,-50.2426 270.326,-52.0546 280.832,-53.8174"/>
<polygon fill="midnightblue" stroke="midnightblue" points="280.345,-57.2846 290.787,-55.4877 281.504,-50.3811 280.345,-57.2846"/>
</g>
<!-- Node273 -->
<g id="node4" class="node"><title>Node273</title>
<g id="a_node4"><a xlink:href="../../d6/de1/class_hydrax_1_1_cfg_file_manager.html#a020c0d58713f7ecbd396101247bcab1b" target="_top" xlink:title="Hydrax::CfgFileManager\l::_getCfgString">
<polygon fill="white" stroke="black" points="285,-0.5 285,-30.5 406,-30.5 406,-0.5 285,-0.5"/>
<text text-anchor="start" x="293" y="-18.5" font-family="Helvetica,sans-Serif" font-size="10.00">Hydrax::CfgFileManager</text>
<text text-anchor="middle" x="345.5" y="-7.5" font-family="Helvetica,sans-Serif" font-size="10.00">::_getCfgString</text>
</a>
</g>
</g>
<!-- Node271&#45;&gt;Node273 -->
<g id="edge3" class="edge"><title>Node271&#45;&gt;Node273</title>
<path fill="none" stroke="midnightblue" d="M249.292,-30.8354C257.62,-29.494 266.323,-28.0922 274.938,-26.7046"/>
<polygon fill="midnightblue" stroke="midnightblue" points="275.666,-30.1325 284.982,-25.0867 274.553,-23.2216 275.666,-30.1325"/>
</g>
</g>
</svg>
