<?xml version="1.0" encoding="UTF-8" standalone="no"?>
<!DOCTYPE svg PUBLIC "-//W3C//DTD SVG 1.1//EN"
 "http://www.w3.org/Graphics/SVG/1.1/DTD/svg11.dtd">
<!-- Generated by graphviz version 2.38.0 (20140413.2041)
 -->
<!-- Title: source/main/gfx/skyx/BasicController.h Pages: 1 -->
<!--zoomable 307 -->
<svg id="main" version="1.1" xmlns="http://www.w3.org/2000/svg" xmlns:xlink="http://www.w3.org/1999/xlink" xml:space="preserve" onload="init(evt)">
<style type="text/css"><![CDATA[
.edge:hover path { stroke: red; }
.edge:hover polygon { stroke: red; fill: red; }
]]></style>
<script type="text/javascript"><![CDATA[
var edges = document.getElementsByTagName('g');
if (edges && edges.length) {
  for (var i=0;i<edges.length;i++) {
    if (edges[i].id.substr(0,4)=='edge') {
      edges[i].setAttribute('class','edge');
    }
  }
}
]]></script>
        <defs>
                <circle id="rim" cx="0" cy="0" r="7"/>
                <circle id="rim2" cx="0" cy="0" r="3.5"/>
                <g id="zoomPlus">
                        <use xlink:href="#rim" fill="#404040">
                                <set attributeName="fill" to="#808080" begin="zoomplus.mouseover" end="zoomplus.mouseout"/>
                        </use>
                        <path d="M-4,0h8M0,-4v8" fill="none" stroke="white" stroke-width="1.5" pointer-events="none"/>
                </g>
                <g id="zoomMin">
                        <use xlink:href="#rim" fill="#404040">
                                <set attributeName="fill" to="#808080" begin="zoomminus.mouseover" end="zoomminus.mouseout"/>
                        </use>
                        <path d="M-4,0h8" fill="none" stroke="white" stroke-width="1.5" pointer-events="none"/>
                </g>
                <g id="dirArrow">
                        <path fill="none" stroke="white" stroke-width="1.5" d="M0,-3.0v7 M-2.5,-0.5L0,-3.0L2.5,-0.5"/>
                </g>
               <g id="resetDef">
                       <use xlink:href="#rim2" fill="#404040">
                               <set attributeName="fill" to="#808080" begin="reset.mouseover" end="reset.mouseout"/>
                       </use>
               </g>
        </defs>

<script type="text/javascript">
var viewWidth = 4941;
var viewHeight = 307;
var sectionId = 'dynsection-1';
</script>
<script xlink:href="../../svgpan.js"/>
<svg id="graph" class="graph">
<g id="viewport">
<title>source/main/gfx/skyx/BasicController.h</title>
<polygon fill="white" stroke="none" points="-4,4 -4,-303 4937,-303 4937,4 -4,4"/>
<!-- Node4 -->
<g id="node1" class="node"><title>Node4</title>
<polygon fill="#bfbfbf" stroke="black" points="1277.5,-268.5 1277.5,-298.5 1387.5,-298.5 1387.5,-268.5 1277.5,-268.5"/>
<text text-anchor="start" x="1285.5" y="-286.5" font-family="Helvetica,sans-Serif" font-size="10.00">source/main/gfx/skyx</text>
<text text-anchor="middle" x="1332.5" y="-275.5" font-family="Helvetica,sans-Serif" font-size="10.00">/BasicController.h</text>
</g>
<!-- Node5 -->
<g id="node2" class="node"><title>Node5</title>
<g id="a_node2"><a xlink:href="../../d3/d6c/_sky_x_8h.html" target="_top" xlink:title="source/main/gfx/skyx\l/SkyX.h">
<polygon fill="white" stroke="black" points="1213.5,-201.5 1213.5,-231.5 1323.5,-231.5 1323.5,-201.5 1213.5,-201.5"/>
<text text-anchor="start" x="1221.5" y="-219.5" font-family="Helvetica,sans-Serif" font-size="10.00">source/main/gfx/skyx</text>
<text text-anchor="middle" x="1268.5" y="-208.5" font-family="Helvetica,sans-Serif" font-size="10.00">/SkyX.h</text>
</a>
</g>
</g>
<!-- Node4&#45;&gt;Node5 -->
<g id="edge1" class="edge"><title>Node4&#45;&gt;Node5</title>
<path fill="none" stroke="midnightblue" d="M1311.35,-261.024C1301.82,-251.34 1290.83,-240.174 1282.36,-231.577"/>
<polygon fill="midnightblue" stroke="midnightblue" points="1309.1,-263.726 1318.61,-268.396 1314.09,-258.815 1309.1,-263.726"/>
</g>
<!-- Node50 -->
<g id="node47" class="node"><title>Node50</title>
<g id="a_node47"><a xlink:href="../../d6/d15/_basic_controller_8cpp.html" target="_top" xlink:title="source/main/gfx/skyx\l/BasicController.cpp">
<polygon fill="white" stroke="black" points="1341.5,-201.5 1341.5,-231.5 1451.5,-231.5 1451.5,-201.5 1341.5,-201.5"/>
<text text-anchor="start" x="1349.5" y="-219.5" font-family="Helvetica,sans-Serif" font-size="10.00">source/main/gfx/skyx</text>
<text text-anchor="middle" x="1396.5" y="-208.5" font-family="Helvetica,sans-Serif" font-size="10.00">/BasicController.cpp</text>
</a>
</g>
</g>
<!-- Node4&#45;&gt;Node50 -->
<g id="edge47" class="edge"><title>Node4&#45;&gt;Node50</title>
<path fill="none" stroke="midnightblue" d="M1353.65,-261.024C1363.18,-251.34 1374.17,-240.174 1382.64,-231.577"/>
<polygon fill="midnightblue" stroke="midnightblue" points="1350.91,-258.815 1346.39,-268.396 1355.9,-263.726 1350.91,-258.815"/>
</g>
<!-- Node6 -->
<g id="node3" class="node"><title>Node6</title>
<g id="a_node3"><a xlink:href="../../df/d0e/_atmosphere_manager_8cpp.html" target="_top" xlink:title="source/main/gfx/skyx\l/AtmosphereManager.cpp">
<polygon fill="white" stroke="black" points="618.5,-134.5 618.5,-164.5 746.5,-164.5 746.5,-134.5 618.5,-134.5"/>
<text text-anchor="start" x="626.5" y="-152.5" font-family="Helvetica,sans-Serif" font-size="10.00">source/main/gfx/skyx</text>
<text text-anchor="middle" x="682.5" y="-141.5" font-family="Helvetica,sans-Serif" font-size="10.00">/AtmosphereManager.cpp</text>
</a>
</g>
</g>
<!-- Node5&#45;&gt;Node6 -->
<g id="edge2" class="edge"><title>Node5&#45;&gt;Node6</title>
<path fill="none" stroke="midnightblue" d="M1203.22,-211.132C1105.52,-204.13 915.6,-188.722 755.5,-165 752.56,-164.564 749.559,-164.09 746.532,-163.587"/>
<polygon fill="midnightblue" stroke="midnightblue" points="1203.02,-214.627 1213.24,-211.844 1203.52,-207.644 1203.02,-214.627"/>
</g>
<!-- Node7 -->
<g id="node4" class="node"><title>Node7</title>
<g id="a_node4"><a xlink:href="../../d1/d7f/_clouds_manager_8cpp.html" target="_top" xlink:title="source/main/gfx/skyx\l/CloudsManager.cpp">
<polygon fill="white" stroke="black" points="764.5,-134.5 764.5,-164.5 874.5,-164.5 874.5,-134.5 764.5,-134.5"/>
<text text-anchor="start" x="772.5" y="-152.5" font-family="Helvetica,sans-Serif" font-size="10.00">source/main/gfx/skyx</text>
<text text-anchor="middle" x="819.5" y="-141.5" font-family="Helvetica,sans-Serif" font-size="10.00">/CloudsManager.cpp</text>
</a>
</g>
</g>
<!-- Node5&#45;&gt;Node7 -->
<g id="edge3" class="edge"><title>Node5&#45;&gt;Node7</title>
<path fill="none" stroke="midnightblue" d="M1203.42,-208.819C1126.64,-200.509 995.282,-184.95 883.5,-165 880.584,-164.48 877.6,-163.915 874.592,-163.321"/>
<polygon fill="midnightblue" stroke="midnightblue" points="1203.11,-212.306 1213.42,-209.894 1203.86,-205.346 1203.11,-212.306"/>
</g>
<!-- Node8 -->
<g id="node5" class="node"><title>Node8</title>
<g id="a_node5"><a xlink:href="../../da/d55/_g_p_u_manager_8cpp.html" target="_top" xlink:title="source/main/gfx/skyx\l/GPUManager.cpp">
<polygon fill="white" stroke="black" points="892.5,-134.5 892.5,-164.5 1002.5,-164.5 1002.5,-134.5 892.5,-134.5"/>
<text text-anchor="start" x="900.5" y="-152.5" font-family="Helvetica,sans-Serif" font-size="10.00">source/main/gfx/skyx</text>
<text text-anchor="middle" x="947.5" y="-141.5" font-family="Helvetica,sans-Serif" font-size="10.00">/GPUManager.cpp</text>
</a>
</g>
</g>
<!-- Node5&#45;&gt;Node8 -->
<g id="edge4" class="edge"><title>Node5&#45;&gt;Node8</title>
<path fill="none" stroke="midnightblue" d="M1203.17,-203.2C1151.16,-193.28 1076.56,-178.76 1011.5,-165 1008.6,-164.387 1005.63,-163.749 1002.64,-163.098"/>
<polygon fill="midnightblue" stroke="midnightblue" points="1202.78,-206.689 1213.26,-205.122 1204.09,-199.813 1202.78,-206.689"/>
</g>
<!-- Node9 -->
<g id="node6" class="node"><title>Node9</title>
<g id="a_node6"><a xlink:href="../../d5/dfd/_mesh_manager_8cpp.html" target="_top" xlink:title="source/main/gfx/skyx\l/MeshManager.cpp">
<polygon fill="white" stroke="black" points="1020.5,-134.5 1020.5,-164.5 1130.5,-164.5 1130.5,-134.5 1020.5,-134.5"/>
<text text-anchor="start" x="1028.5" y="-152.5" font-family="Helvetica,sans-Serif" font-size="10.00">source/main/gfx/skyx</text>
<text text-anchor="middle" x="1075.5" y="-141.5" font-family="Helvetica,sans-Serif" font-size="10.00">/MeshManager.cpp</text>
</a>
</g>
</g>
<!-- Node5&#45;&gt;Node9 -->
<g id="edge5" class="edge"><title>Node5&#45;&gt;Node9</title>
<path fill="none" stroke="midnightblue" d="M1216.81,-198.092C1185.66,-187.599 1146.49,-174.408 1117.3,-164.577"/>
<polygon fill="midnightblue" stroke="midnightblue" points="1216.03,-201.521 1226.62,-201.396 1218.26,-194.887 1216.03,-201.521"/>
</g>
<!-- Node10 -->
<g id="node7" class="node"><title>Node10</title>
<g id="a_node7"><a xlink:href="../../d3/d06/_moon_manager_8cpp.html" target="_top" xlink:title="source/main/gfx/skyx\l/MoonManager.cpp">
<polygon fill="white" stroke="black" points="1148.5,-134.5 1148.5,-164.5 1258.5,-164.5 1258.5,-134.5 1148.5,-134.5"/>
<text text-anchor="start" x="1156.5" y="-152.5" font-family="Helvetica,sans-Serif" font-size="10.00">source/main/gfx/skyx</text>
<text text-anchor="middle" x="1203.5" y="-141.5" font-family="Helvetica,sans-Serif" font-size="10.00">/MoonManager.cpp</text>
</a>
</g>
</g>
<!-- Node5&#45;&gt;Node10 -->
<g id="edge6" class="edge"><title>Node5&#45;&gt;Node10</title>
<path fill="none" stroke="midnightblue" d="M1247.31,-194.311C1237.56,-184.561 1226.26,-173.259 1217.58,-164.577"/>
<polygon fill="midnightblue" stroke="midnightblue" points="1244.85,-196.8 1254.4,-201.396 1249.8,-191.85 1244.85,-196.8"/>
</g>
<!-- Node11 -->
<g id="node8" class="node"><title>Node11</title>
<g id="a_node8"><a xlink:href="../../d2/d9e/_s_cfg_file_manager_8cpp.html" target="_top" xlink:title="source/main/gfx/skyx\l/SCfgFileManager.cpp">
<polygon fill="white" stroke="black" points="1277,-134.5 1277,-164.5 1390,-164.5 1390,-134.5 1277,-134.5"/>
<text text-anchor="start" x="1285" y="-152.5" font-family="Helvetica,sans-Serif" font-size="10.00">source/main/gfx/skyx</text>
<text text-anchor="middle" x="1333.5" y="-141.5" font-family="Helvetica,sans-Serif" font-size="10.00">/SCfgFileManager.cpp</text>
</a>
</g>
</g>
<!-- Node5&#45;&gt;Node11 -->
<g id="edge7" class="edge"><title>Node5&#45;&gt;Node11</title>
<path fill="none" stroke="midnightblue" d="M1289.69,-194.311C1299.44,-184.561 1310.74,-173.259 1319.42,-164.577"/>
<polygon fill="midnightblue" stroke="midnightblue" points="1287.2,-191.85 1282.6,-201.396 1292.15,-196.8 1287.2,-191.85"/>
</g>
<!-- Node12 -->
<g id="node9" class="node"><title>Node12</title>
<g id="a_node9"><a xlink:href="../../d8/d0d/_sky_x_8cpp.html" target="_top" xlink:title="source/main/gfx/skyx\l/SkyX.cpp">
<polygon fill="white" stroke="black" points="1408.5,-134.5 1408.5,-164.5 1518.5,-164.5 1518.5,-134.5 1408.5,-134.5"/>
<text text-anchor="start" x="1416.5" y="-152.5" font-family="Helvetica,sans-Serif" font-size="10.00">source/main/gfx/skyx</text>
<text text-anchor="middle" x="1463.5" y="-141.5" font-family="Helvetica,sans-Serif" font-size="10.00">/SkyX.cpp</text>
</a>
</g>
</g>
<!-- Node5&#45;&gt;Node12 -->
<g id="edge8" class="edge"><title>Node5&#45;&gt;Node12</title>
<path fill="none" stroke="midnightblue" d="M1320.32,-198.228C1351.86,-187.713 1391.65,-174.451 1421.27,-164.577"/>
<polygon fill="midnightblue" stroke="midnightblue" points="1319.19,-194.913 1310.81,-201.396 1321.41,-201.554 1319.19,-194.913"/>
</g>
<!-- Node13 -->
<g id="node10" class="node"><title>Node13</title>
<g id="a_node10"><a xlink:href="../../d9/d70/_v_clouds_8cpp.html" target="_top" xlink:title="source/main/gfx/skyx\l/VClouds/VClouds.cpp">
<polygon fill="white" stroke="black" points="1537,-134.5 1537,-164.5 1652,-164.5 1652,-134.5 1537,-134.5"/>
<text text-anchor="start" x="1545" y="-152.5" font-family="Helvetica,sans-Serif" font-size="10.00">source/main/gfx/skyx</text>
<text text-anchor="middle" x="1594.5" y="-141.5" font-family="Helvetica,sans-Serif" font-size="10.00">/VClouds/VClouds.cpp</text>
</a>
</g>
</g>
<!-- Node5&#45;&gt;Node13 -->
<g id="edge9" class="edge"><title>Node5&#45;&gt;Node13</title>
<path fill="none" stroke="midnightblue" d="M1333.67,-200.809C1420.52,-183.17 1444.21,-181.697 1527.5,-165 1530.53,-164.392 1533.64,-163.758 1536.78,-163.109"/>
<polygon fill="midnightblue" stroke="midnightblue" points="1332.72,-197.429 1323.63,-202.862 1334.13,-204.287 1332.72,-197.429"/>
</g>
<!-- Node14 -->
<g id="node11" class="node"><title>Node14</title>
<g id="a_node11"><a xlink:href="../../d6/d54/_v_clouds_manager_8cpp.html" target="_top" xlink:title="source/main/gfx/skyx\l/VCloudsManager.cpp">
<polygon fill="white" stroke="black" points="1670,-134.5 1670,-164.5 1783,-164.5 1783,-134.5 1670,-134.5"/>
<text text-anchor="start" x="1678" y="-152.5" font-family="Helvetica,sans-Serif" font-size="10.00">source/main/gfx/skyx</text>
<text text-anchor="middle" x="1726.5" y="-141.5" font-family="Helvetica,sans-Serif" font-size="10.00">/VCloudsManager.cpp</text>
</a>
</g>
</g>
<!-- Node5&#45;&gt;Node14 -->
<g id="edge10" class="edge"><title>Node5&#45;&gt;Node14</title>
<path fill="none" stroke="midnightblue" d="M1333.78,-200.915C1479.37,-177.245 1519.64,-188.51 1661.5,-165 1664.24,-164.546 1667.03,-164.05 1669.85,-163.524"/>
<polygon fill="midnightblue" stroke="midnightblue" points="1332.87,-197.518 1323.58,-202.603 1334.02,-204.424 1332.87,-197.518"/>
</g>
<!-- Node15 -->
<g id="node12" class="node"><title>Node15</title>
<g id="a_node12"><a xlink:href="../../d1/d49/_sky_x_manager_8h.html" target="_top" xlink:title="source/main/gfx/SkyXManager.h">
<polygon fill="white" stroke="black" points="1801,-140 1801,-159 1958,-159 1958,-140 1801,-140"/>
<text text-anchor="middle" x="1879.5" y="-147" font-family="Helvetica,sans-Serif" font-size="10.00">source/main/gfx/SkyXManager.h</text>
</a>
</g>
</g>
<!-- Node5&#45;&gt;Node15 -->
<g id="edge11" class="edge"><title>Node5&#45;&gt;Node15</title>
<path fill="none" stroke="midnightblue" d="M1333.67,-200.975C1537.02,-170.884 1592.23,-189.479 1792.5,-165 1805.72,-163.384 1820.01,-161.191 1833.1,-159.001"/>
<polygon fill="midnightblue" stroke="midnightblue" points="1332.93,-197.547 1323.56,-202.493 1333.97,-204.47 1332.93,-197.547"/>
</g>
<!-- Node16 -->
<g id="node13" class="node"><title>Node16</title>
<g id="a_node13"><a xlink:href="../../d2/d32/_sky_x_manager_8cpp.html" target="_top" xlink:title="source/main/gfx/SkyXManager.cpp">
<polygon fill="white" stroke="black" points="0,-6 0,-25 167,-25 167,-6 0,-6"/>
<text text-anchor="middle" x="83.5" y="-13" font-family="Helvetica,sans-Serif" font-size="10.00">source/main/gfx/SkyXManager.cpp</text>
</a>
</g>
</g>
<!-- Node15&#45;&gt;Node16 -->
<g id="edge12" class="edge"><title>Node15&#45;&gt;Node16</title>
<path fill="none" stroke="midnightblue" d="M1823.46,-138.3C1813.19,-136.676 1802.54,-135.153 1792.5,-134 1077.08,-51.8115 891.273,-110.031 175.5,-31 161.357,-29.4384 146.066,-27.237 132.088,-25.0203"/>
<polygon fill="midnightblue" stroke="midnightblue" points="1823.14,-141.794 1833.57,-139.949 1824.26,-134.885 1823.14,-141.794"/>
</g>
<!-- Node17 -->
<g id="node14" class="node"><title>Node17</title>
<g id="a_node14"><a xlink:href="../../d1/d85/_terrain_manager_8h.html" target="_top" xlink:title="source/main/terrain\l/TerrainManager.h">
<polygon fill="white" stroke="black" points="2431.5,-67.5 2431.5,-97.5 2531.5,-97.5 2531.5,-67.5 2431.5,-67.5"/>
<text text-anchor="start" x="2439.5" y="-85.5" font-family="Helvetica,sans-Serif" font-size="10.00">source/main/terrain</text>
<text text-anchor="middle" x="2481.5" y="-74.5" font-family="Helvetica,sans-Serif" font-size="10.00">/TerrainManager.h</text>
</a>
</g>
</g>
<!-- Node15&#45;&gt;Node17 -->
<g id="edge13" class="edge"><title>Node15&#45;&gt;Node17</title>
<path fill="none" stroke="midnightblue" d="M1968.39,-138.903C2096.63,-125.056 2329.34,-99.9287 2431.33,-88.9166"/>
<polygon fill="midnightblue" stroke="midnightblue" points="1967.77,-135.449 1958.2,-140.002 1968.52,-142.409 1967.77,-135.449"/>
</g>
<!-- Node17&#45;&gt;Node16 -->
<g id="edge25" class="edge"><title>Node17&#45;&gt;Node16</title>
<path fill="none" stroke="midnightblue" d="M2421.21,-80.6652C2080.64,-75.8842 404.649,-51.4735 175.5,-31 160.522,-29.6618 144.285,-27.3823 129.68,-25.0219"/>
<polygon fill="midnightblue" stroke="midnightblue" points="2421.32,-84.1669 2431.36,-80.8074 2421.42,-77.1675 2421.32,-84.1669"/>
</g>
<!-- Node18 -->
<g id="node15" class="node"><title>Node18</title>
<g id="a_node15"><a xlink:href="../../d9/de9/_auto_pilot_8cpp.html" target="_top" xlink:title="source/main/gameplay\l/AutoPilot.cpp">
<polygon fill="white" stroke="black" points="185,-0.5 185,-30.5 300,-30.5 300,-0.5 185,-0.5"/>
<text text-anchor="start" x="193" y="-18.5" font-family="Helvetica,sans-Serif" font-size="10.00">source/main/gameplay</text>
<text text-anchor="middle" x="242.5" y="-7.5" font-family="Helvetica,sans-Serif" font-size="10.00">/AutoPilot.cpp</text>
</a>
</g>
</g>
<!-- Node17&#45;&gt;Node18 -->
<g id="edge14" class="edge"><title>Node17&#45;&gt;Node18</title>
<path fill="none" stroke="midnightblue" d="M2420.76,-80.7888C2091.03,-76.834 522.887,-56.796 308.5,-31 305.821,-30.6777 303.091,-30.2962 300.34,-29.8688"/>
<polygon fill="midnightblue" stroke="midnightblue" points="2421.02,-84.292 2431.06,-80.9119 2421.11,-77.2925 2421.02,-84.292"/>
</g>
<!-- Node19 -->
<g id="node16" class="node"><title>Node19</title>
<g id="a_node16"><a xlink:href="../../d0/dbf/_character_8cpp.html" target="_top" xlink:title="source/main/gameplay\l/Character.cpp">
<polygon fill="white" stroke="black" points="318,-0.5 318,-30.5 433,-30.5 433,-0.5 318,-0.5"/>
<text text-anchor="start" x="326" y="-18.5" font-family="Helvetica,sans-Serif" font-size="10.00">source/main/gameplay</text>
<text text-anchor="middle" x="375.5" y="-7.5" font-family="Helvetica,sans-Serif" font-size="10.00">/Character.cpp</text>
</a>
</g>
</g>
<!-- Node17&#45;&gt;Node19 -->
<g id="edge15" class="edge"><title>Node17&#45;&gt;Node19</title>
<path fill="none" stroke="midnightblue" d="M2420.97,-80.693C2103.96,-76.374 642.003,-55.2794 441.5,-31 438.821,-30.6756 436.091,-30.2925 433.341,-29.8638"/>
<polygon fill="midnightblue" stroke="midnightblue" points="2421.27,-84.1974 2431.32,-80.8336 2421.37,-77.198 2421.27,-84.1974"/>
</g>
<!-- Node20 -->
<g id="node17" class="node"><title>Node20</title>
<g id="a_node17"><a xlink:href="../../d8/dd2/_landusemap_8cpp.html" target="_top" xlink:title="source/main/gameplay\l/Landusemap.cpp">
<polygon fill="white" stroke="black" points="451,-0.5 451,-30.5 566,-30.5 566,-0.5 451,-0.5"/>
<text text-anchor="start" x="459" y="-18.5" font-family="Helvetica,sans-Serif" font-size="10.00">source/main/gameplay</text>
<text text-anchor="middle" x="508.5" y="-7.5" font-family="Helvetica,sans-Serif" font-size="10.00">/Landusemap.cpp</text>
</a>
</g>
</g>
<!-- Node17&#45;&gt;Node20 -->
<g id="edge16" class="edge"><title>Node17&#45;&gt;Node20</title>
<path fill="none" stroke="midnightblue" d="M2421,-81.4429C2138.17,-80.9391 944.504,-76.1285 574.5,-31 571.822,-30.6733 569.092,-30.2883 566.341,-29.8581"/>
<polygon fill="midnightblue" stroke="midnightblue" points="2421.06,-84.9429 2431.07,-81.4596 2421.07,-77.9429 2421.06,-84.9429"/>
</g>
<!-- Node21 -->
<g id="node18" class="node"><title>Node21</title>
<g id="a_node18"><a xlink:href="../../dc/d70/_road2_8cpp.html" target="_top" xlink:title="source/main/gameplay\l/Road2.cpp">
<polygon fill="white" stroke="black" points="584,-0.5 584,-30.5 699,-30.5 699,-0.5 584,-0.5"/>
<text text-anchor="start" x="592" y="-18.5" font-family="Helvetica,sans-Serif" font-size="10.00">source/main/gameplay</text>
<text text-anchor="middle" x="641.5" y="-7.5" font-family="Helvetica,sans-Serif" font-size="10.00">/Road2.cpp</text>
</a>
</g>
</g>
<!-- Node17&#45;&gt;Node21 -->
<g id="edge17" class="edge"><title>Node17&#45;&gt;Node21</title>
<path fill="none" stroke="midnightblue" d="M2421.31,-81.3043C2151.29,-80.1935 1050,-73.1183 707.5,-31 704.822,-30.6707 702.092,-30.2835 699.342,-29.8514"/>
<polygon fill="midnightblue" stroke="midnightblue" points="2421.3,-84.8042 2431.31,-81.3443 2421.32,-77.8043 2421.3,-84.8042"/>
</g>
<!-- Node22 -->
<g id="node19" class="node"><title>Node22</title>
<g id="a_node19"><a xlink:href="../../de/dbe/_ro_r_frame_listener_8cpp.html" target="_top" xlink:title="source/main/gameplay\l/RoRFrameListener.cpp">
<polygon fill="white" stroke="black" points="717,-0.5 717,-30.5 836,-30.5 836,-0.5 717,-0.5"/>
<text text-anchor="start" x="725" y="-18.5" font-family="Helvetica,sans-Serif" font-size="10.00">source/main/gameplay</text>
<text text-anchor="middle" x="776.5" y="-7.5" font-family="Helvetica,sans-Serif" font-size="10.00">/RoRFrameListener.cpp</text>
</a>
</g>
</g>
<!-- Node17&#45;&gt;Node22 -->
<g id="edge18" class="edge"><title>Node17&#45;&gt;Node22</title>
<path fill="none" stroke="midnightblue" d="M2421.05,-81.0611C2163.86,-78.9739 1159.45,-68.536 845.5,-31 842.461,-30.6367 839.358,-30.2061 836.232,-29.7248"/>
<polygon fill="midnightblue" stroke="midnightblue" points="2421.28,-84.563 2431.31,-81.1432 2421.34,-77.5632 2421.28,-84.563"/>
</g>
<!-- Node23 -->
<g id="node20" class="node"><title>Node23</title>
<g id="a_node20"><a xlink:href="../../d9/dd6/_camera_behavior_orbit_8cpp.html" target="_top" xlink:title="source/main/gfx/camera\l/CameraBehaviorOrbit.cpp">
<polygon fill="white" stroke="black" points="854.5,-0.5 854.5,-30.5 984.5,-30.5 984.5,-0.5 854.5,-0.5"/>
<text text-anchor="start" x="862.5" y="-18.5" font-family="Helvetica,sans-Serif" font-size="10.00">source/main/gfx/camera</text>
<text text-anchor="middle" x="919.5" y="-7.5" font-family="Helvetica,sans-Serif" font-size="10.00">/CameraBehaviorOrbit.cpp</text>
</a>
</g>
</g>
<!-- Node17&#45;&gt;Node23 -->
<g id="edge19" class="edge"><title>Node17&#45;&gt;Node23</title>
<path fill="none" stroke="midnightblue" d="M2421.42,-80.7414C2179.64,-77.4908 1277.22,-63.401 993.5,-31 990.638,-30.6732 987.722,-30.2955 984.782,-29.878"/>
<polygon fill="midnightblue" stroke="midnightblue" points="2421.38,-84.2411 2431.42,-80.8748 2421.47,-77.2417 2421.38,-84.2411"/>
</g>
<!-- Node24 -->
<g id="node21" class="node"><title>Node24</title>
<g id="a_node21"><a xlink:href="../../d4/d8a/_camera_behavior_static_8cpp.html" target="_top" xlink:title="source/main/gfx/camera\l/CameraBehaviorStatic.cpp">
<polygon fill="white" stroke="black" points="1002.5,-0.5 1002.5,-30.5 1136.5,-30.5 1136.5,-0.5 1002.5,-0.5"/>
<text text-anchor="start" x="1010.5" y="-18.5" font-family="Helvetica,sans-Serif" font-size="10.00">source/main/gfx/camera</text>
<text text-anchor="middle" x="1069.5" y="-7.5" font-family="Helvetica,sans-Serif" font-size="10.00">/CameraBehaviorStatic.cpp</text>
</a>
</g>
</g>
<!-- Node17&#45;&gt;Node24 -->
<g id="edge20" class="edge"><title>Node17&#45;&gt;Node24</title>
<path fill="none" stroke="midnightblue" d="M2421.32,-80.4321C2195.39,-76.2354 1397.9,-59.6826 1145.5,-31 1142.56,-30.6663 1139.57,-30.2829 1136.55,-29.8608"/>
<polygon fill="midnightblue" stroke="midnightblue" points="2421.26,-83.9316 2431.32,-80.6168 2421.39,-76.9327 2421.26,-83.9316"/>
</g>
<!-- Node25 -->
<g id="node22" class="node"><title>Node25</title>
<g id="a_node22"><a xlink:href="../../d9/dd4/_dust_pool_8cpp.html" target="_top" xlink:title="source/main/gfx/DustPool.cpp">
<polygon fill="white" stroke="black" points="1155,-6 1155,-25 1302,-25 1302,-6 1155,-6"/>
<text text-anchor="middle" x="1228.5" y="-13" font-family="Helvetica,sans-Serif" font-size="10.00">source/main/gfx/DustPool.cpp</text>
</a>
</g>
</g>
<!-- Node17&#45;&gt;Node25 -->
<g id="edge21" class="edge"><title>Node17&#45;&gt;Node25</title>
<path fill="none" stroke="midnightblue" d="M2421.26,-81.6528C2248.15,-81.4998 1734.65,-76.8981 1311.5,-31 1298.27,-29.5646 1283.95,-27.3174 1271,-25.0171"/>
<polygon fill="midnightblue" stroke="midnightblue" points="2421.43,-85.1527 2431.43,-81.6569 2421.44,-78.1527 2421.43,-85.1527"/>
</g>
<!-- Node26 -->
<g id="node23" class="node"><title>Node26</title>
<g id="a_node23"><a xlink:href="../../db/d8f/_environment_map_8cpp.html" target="_top" xlink:title="source/main/gfx/Environment\lMap.cpp">
<polygon fill="white" stroke="black" points="1320.5,-0.5 1320.5,-30.5 1462.5,-30.5 1462.5,-0.5 1320.5,-0.5"/>
<text text-anchor="start" x="1328.5" y="-18.5" font-family="Helvetica,sans-Serif" font-size="10.00">source/main/gfx/Environment</text>
<text text-anchor="middle" x="1391.5" y="-7.5" font-family="Helvetica,sans-Serif" font-size="10.00">Map.cpp</text>
</a>
</g>
</g>
<!-- Node17&#45;&gt;Node26 -->
<g id="edge22" class="edge"><title>Node17&#45;&gt;Node26</title>
<path fill="none" stroke="midnightblue" d="M2421,-81.198C2263.85,-79.8245 1829.97,-72.2726 1471.5,-31 1468.56,-30.661 1465.56,-30.28 1462.53,-29.8662"/>
<polygon fill="midnightblue" stroke="midnightblue" points="2421.37,-84.701 2431.39,-81.2832 2421.42,-77.7012 2421.37,-84.701"/>
</g>
<!-- Node27 -->
<g id="node24" class="node"><title>Node27</title>
<g id="a_node24"><a xlink:href="../../d0/d8d/_gfx_actor_8cpp.html" target="_top" xlink:title="source/main/gfx/GfxActor.cpp">
<polygon fill="white" stroke="black" points="1480.5,-6 1480.5,-25 1626.5,-25 1626.5,-6 1480.5,-6"/>
<text text-anchor="middle" x="1553.5" y="-13" font-family="Helvetica,sans-Serif" font-size="10.00">source/main/gfx/GfxActor.cpp</text>
</a>
</g>
</g>
<!-- Node17&#45;&gt;Node27 -->
<g id="edge23" class="edge"><title>Node17&#45;&gt;Node27</title>
<path fill="none" stroke="midnightblue" d="M2421.24,-80.2888C2282.28,-76.9754 1928.81,-65.5704 1635.5,-31 1622.72,-29.4939 1608.92,-27.2825 1596.34,-25.0382"/>
<polygon fill="midnightblue" stroke="midnightblue" points="2421.18,-83.7884 2431.26,-80.5226 2421.35,-76.7903 2421.18,-83.7884"/>
</g>
<!-- Node28 -->
<g id="node25" class="node"><title>Node28</title>
<g id="a_node25"><a xlink:href="../../d2/dac/_hydrax_water_8cpp.html" target="_top" xlink:title="source/main/gfx/HydraxWater.cpp">
<polygon fill="white" stroke="black" points="1644.5,-6 1644.5,-25 1808.5,-25 1808.5,-6 1644.5,-6"/>
<text text-anchor="middle" x="1726.5" y="-13" font-family="Helvetica,sans-Serif" font-size="10.00">source/main/gfx/HydraxWater.cpp</text>
</a>
</g>
</g>
<!-- Node17&#45;&gt;Node28 -->
<g id="edge24" class="edge"><title>Node17&#45;&gt;Node28</title>
<path fill="none" stroke="midnightblue" d="M2421.22,-78.5768C2304.44,-72.5456 2039.3,-57.0606 1817.5,-31 1803.84,-29.3945 1789.08,-27.2313 1775.51,-25.0663"/>
<polygon fill="midnightblue" stroke="midnightblue" points="2421.22,-82.0811 2431.39,-79.0971 2421.58,-75.0903 2421.22,-82.0811"/>
</g>
<!-- Node29 -->
<g id="node26" class="node"><title>Node29</title>
<g id="a_node26"><a xlink:href="../../d7/dca/_water_8cpp.html" target="_top" xlink:title="source/main/gfx/Water.cpp">
<polygon fill="white" stroke="black" points="1826.5,-6 1826.5,-25 1960.5,-25 1960.5,-6 1826.5,-6"/>
<text text-anchor="middle" x="1893.5" y="-13" font-family="Helvetica,sans-Serif" font-size="10.00">source/main/gfx/Water.cpp</text>
</a>
</g>
</g>
<!-- Node17&#45;&gt;Node29 -->
<g id="edge26" class="edge"><title>Node17&#45;&gt;Node29</title>
<path fill="none" stroke="midnightblue" d="M2421.2,-77.2613C2325.4,-70.1414 2132.7,-54.2411 1970.5,-31 1959.05,-29.36 1946.72,-27.2105 1935.35,-25.0706"/>
<polygon fill="midnightblue" stroke="midnightblue" points="2421.05,-80.7596 2431.28,-78.0046 2421.56,-73.7786 2421.05,-80.7596"/>
</g>
<!-- Node30 -->
<g id="node27" class="node"><title>Node30</title>
<g id="a_node27"><a xlink:href="../../d4/d90/_g_u_i_manager_8cpp.html" target="_top" xlink:title="source/main/gui/GUIManager.cpp">
<polygon fill="white" stroke="black" points="1979,-6 1979,-25 2140,-25 2140,-6 1979,-6"/>
<text text-anchor="middle" x="2059.5" y="-13" font-family="Helvetica,sans-Serif" font-size="10.00">source/main/gui/GUIManager.cpp</text>
</a>
</g>
</g>
<!-- Node17&#45;&gt;Node30 -->
<g id="edge27" class="edge"><title>Node17&#45;&gt;Node30</title>
<path fill="none" stroke="midnightblue" d="M2421.12,-72.479C2354.57,-62.4975 2244.36,-45.8558 2149.5,-31 2137.3,-29.09 2124.18,-26.9978 2111.84,-25.0118"/>
<polygon fill="midnightblue" stroke="midnightblue" points="2421.01,-76.0014 2431.42,-74.0225 2422.05,-69.0787 2421.01,-76.0014"/>
</g>
<!-- Node31 -->
<g id="node28" class="node"><title>Node31</title>
<g id="a_node28"><a xlink:href="../../d3/dfd/_overlay_wrapper_8cpp.html" target="_top" xlink:title="source/main/gui/OverlayWrapper.cpp">
<polygon fill="white" stroke="black" points="2158.5,-6 2158.5,-25 2334.5,-25 2334.5,-6 2158.5,-6"/>
<text text-anchor="middle" x="2246.5" y="-13" font-family="Helvetica,sans-Serif" font-size="10.00">source/main/gui/OverlayWrapper.cpp</text>
</a>
</g>
</g>
<!-- Node17&#45;&gt;Node31 -->
<g id="edge28" class="edge"><title>Node17&#45;&gt;Node31</title>
<path fill="none" stroke="midnightblue" d="M2421.53,-64.9115C2375.57,-52.1997 2314.02,-35.1764 2277.49,-25.072"/>
<polygon fill="midnightblue" stroke="midnightblue" points="2420.8,-68.343 2431.37,-67.6356 2422.67,-61.5963 2420.8,-68.343"/>
</g>
<!-- Node32 -->
<g id="node29" class="node"><title>Node32</title>
<g id="a_node29"><a xlink:href="../../db/db8/_g_u_i___game_console_8cpp.html" target="_top" xlink:title="source/main/gui/panels\l/GUI_GameConsole.cpp">
<polygon fill="white" stroke="black" points="2352.5,-0.5 2352.5,-30.5 2474.5,-30.5 2474.5,-0.5 2352.5,-0.5"/>
<text text-anchor="start" x="2360.5" y="-18.5" font-family="Helvetica,sans-Serif" font-size="10.00">source/main/gui/panels</text>
<text text-anchor="middle" x="2413.5" y="-7.5" font-family="Helvetica,sans-Serif" font-size="10.00">/GUI_GameConsole.cpp</text>
</a>
</g>
</g>
<!-- Node17&#45;&gt;Node32 -->
<g id="edge29" class="edge"><title>Node17&#45;&gt;Node32</title>
<path fill="none" stroke="midnightblue" d="M2459.33,-60.3115C2449.13,-50.5612 2437.31,-39.259 2428.23,-30.5765"/>
<polygon fill="midnightblue" stroke="midnightblue" points="2457.1,-63.0162 2466.75,-67.396 2461.93,-57.9561 2457.1,-63.0162"/>
</g>
<!-- Node33 -->
<g id="node30" class="node"><title>Node33</title>
<g id="a_node30"><a xlink:href="../../df/d0a/main_8cpp.html" target="_top" xlink:title="source/main/main.cpp">
<polygon fill="white" stroke="black" points="2493,-6 2493,-25 2606,-25 2606,-6 2493,-6"/>
<text text-anchor="middle" x="2549.5" y="-13" font-family="Helvetica,sans-Serif" font-size="10.00">source/main/main.cpp</text>
</a>
</g>
</g>
<!-- Node17&#45;&gt;Node33 -->
<g id="edge30" class="edge"><title>Node17&#45;&gt;Node33</title>
<path fill="none" stroke="midnightblue" d="M2503.64,-60.335C2516.13,-48.401 2531.05,-34.1359 2540.4,-25.1945"/>
<polygon fill="midnightblue" stroke="midnightblue" points="2501.07,-57.9561 2496.25,-67.396 2505.9,-63.0162 2501.07,-57.9561"/>
</g>
<!-- Node34 -->
<g id="node31" class="node"><title>Node34</title>
<g id="a_node31"><a xlink:href="../../dc/df0/_main_menu_8cpp.html" target="_top" xlink:title="source/main/MainMenu.cpp">
<polygon fill="white" stroke="black" points="2624,-6 2624,-25 2761,-25 2761,-6 2624,-6"/>
<text text-anchor="middle" x="2692.5" y="-13" font-family="Helvetica,sans-Serif" font-size="10.00">source/main/MainMenu.cpp</text>
</a>
</g>
</g>
<!-- Node17&#45;&gt;Node34 -->
<g id="edge31" class="edge"><title>Node17&#45;&gt;Node34</title>
<path fill="none" stroke="midnightblue" d="M2536.65,-64.5102C2577.83,-51.8251 2632.38,-35.0219 2664.81,-25.0287"/>
<polygon fill="midnightblue" stroke="midnightblue" points="2535.55,-61.187 2527.02,-67.476 2537.61,-67.8768 2535.55,-61.187"/>
</g>
<!-- Node35 -->
<g id="node32" class="node"><title>Node35</title>
<g id="a_node32"><a xlink:href="../../d2/d74/_beam_8cpp.html" target="_top" xlink:title="source/main/physics\l/Beam.cpp">
<polygon fill="white" stroke="black" points="2779,-0.5 2779,-30.5 2886,-30.5 2886,-0.5 2779,-0.5"/>
<text text-anchor="start" x="2787" y="-18.5" font-family="Helvetica,sans-Serif" font-size="10.00">source/main/physics</text>
<text text-anchor="middle" x="2832.5" y="-7.5" font-family="Helvetica,sans-Serif" font-size="10.00">/Beam.cpp</text>
</a>
</g>
</g>
<!-- Node17&#45;&gt;Node35 -->
<g id="edge32" class="edge"><title>Node17&#45;&gt;Node35</title>
<path fill="none" stroke="midnightblue" d="M2541.71,-72.0005C2600.3,-62.5162 2691.76,-47.0731 2770.5,-31 2773.21,-30.4473 2775.98,-29.8642 2778.77,-29.262"/>
<polygon fill="midnightblue" stroke="midnightblue" points="2540.84,-68.596 2531.52,-73.6433 2541.95,-75.5068 2540.84,-68.596"/>
</g>
<!-- Node36 -->
<g id="node33" class="node"><title>Node36</title>
<g id="a_node33"><a xlink:href="../../d0/d6f/_beam_forces_euler_8cpp.html" target="_top" xlink:title="source/main/physics\l/BeamForcesEuler.cpp">
<polygon fill="white" stroke="black" points="2904.5,-0.5 2904.5,-30.5 3020.5,-30.5 3020.5,-0.5 2904.5,-0.5"/>
<text text-anchor="start" x="2912.5" y="-18.5" font-family="Helvetica,sans-Serif" font-size="10.00">source/main/physics</text>
<text text-anchor="middle" x="2962.5" y="-7.5" font-family="Helvetica,sans-Serif" font-size="10.00">/BeamForcesEuler.cpp</text>
</a>
</g>
</g>
<!-- Node17&#45;&gt;Node36 -->
<g id="edge33" class="edge"><title>Node17&#45;&gt;Node36</title>
<path fill="none" stroke="midnightblue" d="M2541.73,-75.9023C2622.54,-67.9939 2770.37,-52.1256 2895.5,-31 2898.43,-30.5047 2901.43,-29.9678 2904.46,-29.4023"/>
<polygon fill="midnightblue" stroke="midnightblue" points="2541.36,-72.4226 2531.74,-76.8732 2542.03,-79.3898 2541.36,-72.4226"/>
</g>
<!-- Node37 -->
<g id="node34" class="node"><title>Node37</title>
<g id="a_node34"><a xlink:href="../../d2/d8c/_collisions_8cpp.html" target="_top" xlink:title="source/main/physics\l/collision/Collisions.cpp">
<polygon fill="white" stroke="black" points="3039,-0.5 3039,-30.5 3158,-30.5 3158,-0.5 3039,-0.5"/>
<text text-anchor="start" x="3047" y="-18.5" font-family="Helvetica,sans-Serif" font-size="10.00">source/main/physics</text>
<text text-anchor="middle" x="3098.5" y="-7.5" font-family="Helvetica,sans-Serif" font-size="10.00">/collision/Collisions.cpp</text>
</a>
</g>
</g>
<!-- Node17&#45;&gt;Node37 -->
<g id="edge34" class="edge"><title>Node17&#45;&gt;Node37</title>
<path fill="none" stroke="midnightblue" d="M2541.63,-78.2324C2642.78,-72.2279 2853.22,-57.5549 3029.5,-31 3032.53,-30.5442 3035.62,-30.0391 3038.74,-29.4987"/>
<polygon fill="midnightblue" stroke="midnightblue" points="2541.38,-74.741 2531.6,-78.8205 2541.79,-81.729 2541.38,-74.741"/>
</g>
<!-- Node38 -->
<g id="node35" class="node"><title>Node38</title>
<g id="a_node35"><a xlink:href="../../df/df5/_rig_spawner_8cpp.html" target="_top" xlink:title="Vehicle spawning logic. ">
<polygon fill="white" stroke="black" points="3176,-0.5 3176,-30.5 3283,-30.5 3283,-0.5 3176,-0.5"/>
<text text-anchor="start" x="3184" y="-18.5" font-family="Helvetica,sans-Serif" font-size="10.00">source/main/physics</text>
<text text-anchor="middle" x="3229.5" y="-7.5" font-family="Helvetica,sans-Serif" font-size="10.00">/RigSpawner.cpp</text>
</a>
</g>
</g>
<!-- Node17&#45;&gt;Node38 -->
<g id="edge35" class="edge"><title>Node17&#45;&gt;Node38</title>
<path fill="none" stroke="midnightblue" d="M2541.8,-80.2224C2661.66,-76.9874 2938.09,-66.0508 3167.5,-31 3170.23,-30.5826 3173.02,-30.1085 3175.83,-29.5926"/>
<polygon fill="midnightblue" stroke="midnightblue" points="2541.63,-76.7256 2531.72,-80.4861 2541.81,-83.7232 2541.63,-76.7256"/>
</g>
<!-- Node39 -->
<g id="node36" class="node"><title>Node39</title>
<g id="a_node36"><a xlink:href="../../de/df9/_buoyance_8cpp.html" target="_top" xlink:title="source/main/physics\l/water/Buoyance.cpp">
<polygon fill="white" stroke="black" points="3301.5,-0.5 3301.5,-30.5 3409.5,-30.5 3409.5,-0.5 3301.5,-0.5"/>
<text text-anchor="start" x="3309.5" y="-18.5" font-family="Helvetica,sans-Serif" font-size="10.00">source/main/physics</text>
<text text-anchor="middle" x="3355.5" y="-7.5" font-family="Helvetica,sans-Serif" font-size="10.00">/water/Buoyance.cpp</text>
</a>
</g>
</g>
<!-- Node17&#45;&gt;Node39 -->
<g id="edge36" class="edge"><title>Node17&#45;&gt;Node39</title>
<path fill="none" stroke="midnightblue" d="M2541.77,-81.1175C2676.86,-79.5251 3013.91,-71.4542 3292.5,-31 3295.39,-30.5807 3298.34,-30.0969 3301.31,-29.5662"/>
<polygon fill="midnightblue" stroke="midnightblue" points="2541.59,-77.6192 2531.63,-81.2292 2541.67,-84.6188 2541.59,-77.6192"/>
</g>
<!-- Node40 -->
<g id="node37" class="node"><title>Node40</title>
<g id="a_node37"><a xlink:href="../../d8/d11/_screw_prop_8cpp.html" target="_top" xlink:title="source/main/physics\l/water/ScrewProp.cpp">
<polygon fill="white" stroke="black" points="3427.5,-0.5 3427.5,-30.5 3539.5,-30.5 3539.5,-0.5 3427.5,-0.5"/>
<text text-anchor="start" x="3435.5" y="-18.5" font-family="Helvetica,sans-Serif" font-size="10.00">source/main/physics</text>
<text text-anchor="middle" x="3483.5" y="-7.5" font-family="Helvetica,sans-Serif" font-size="10.00">/water/ScrewProp.cpp</text>
</a>
</g>
</g>
<!-- Node17&#45;&gt;Node40 -->
<g id="edge37" class="edge"><title>Node17&#45;&gt;Node40</title>
<path fill="none" stroke="midnightblue" d="M2541.87,-81.6985C2691.26,-81.4419 3089.89,-76.191 3418.5,-31 3421.36,-30.6062 3424.29,-30.151 3427.23,-29.6502"/>
<polygon fill="midnightblue" stroke="midnightblue" points="2541.55,-78.1988 2531.55,-81.7089 2541.55,-85.1988 2541.55,-78.1988"/>
</g>
<!-- Node41 -->
<g id="node38" class="node"><title>Node41</title>
<g id="a_node38"><a xlink:href="../../d3/d99/_cache_system_8cpp.html" target="_top" xlink:title="source/main/resources\l/CacheSystem.cpp">
<polygon fill="white" stroke="black" points="3557.5,-0.5 3557.5,-30.5 3673.5,-30.5 3673.5,-0.5 3557.5,-0.5"/>
<text text-anchor="start" x="3565.5" y="-18.5" font-family="Helvetica,sans-Serif" font-size="10.00">source/main/resources</text>
<text text-anchor="middle" x="3615.5" y="-7.5" font-family="Helvetica,sans-Serif" font-size="10.00">/CacheSystem.cpp</text>
</a>
</g>
</g>
<!-- Node17&#45;&gt;Node41 -->
<g id="edge38" class="edge"><title>Node17&#45;&gt;Node41</title>
<path fill="none" stroke="midnightblue" d="M2542.08,-82.1369C2705.36,-83.0985 3167.95,-80.8345 3548.5,-31 3551.45,-30.6137 3554.46,-30.1645 3557.5,-29.6685"/>
<polygon fill="midnightblue" stroke="midnightblue" points="2541.78,-78.635 2531.76,-82.0694 2541.74,-85.6348 2541.78,-78.635"/>
</g>
<!-- Node42 -->
<g id="node39" class="node"><title>Node42</title>
<g id="a_node39"><a xlink:href="../../d5/da6/_game_script_8cpp.html" target="_top" xlink:title="source/main/scripting\l/GameScript.cpp">
<polygon fill="white" stroke="black" points="3691.5,-0.5 3691.5,-30.5 3801.5,-30.5 3801.5,-0.5 3691.5,-0.5"/>
<text text-anchor="start" x="3699.5" y="-18.5" font-family="Helvetica,sans-Serif" font-size="10.00">source/main/scripting</text>
<text text-anchor="middle" x="3746.5" y="-7.5" font-family="Helvetica,sans-Serif" font-size="10.00">/GameScript.cpp</text>
</a>
</g>
</g>
<!-- Node17&#45;&gt;Node42 -->
<g id="edge39" class="edge"><title>Node17&#45;&gt;Node42</title>
<path fill="none" stroke="midnightblue" d="M2541.83,-80.4066C2753.02,-76.3533 3458.35,-60.8555 3682.5,-31 3685.44,-30.6089 3688.44,-30.1477 3691.46,-29.6347"/>
<polygon fill="midnightblue" stroke="midnightblue" points="2541.49,-76.9123 2531.56,-80.6021 2541.62,-83.911 2541.49,-76.9123"/>
</g>
<!-- Node43 -->
<g id="node40" class="node"><title>Node43</title>
<g id="a_node40"><a xlink:href="../../d0/de1/_survey_map_entity_8cpp.html" target="_top" xlink:title="source/main/terrain\l/map/SurveyMapEntity.cpp">
<polygon fill="white" stroke="black" points="3819.5,-0.5 3819.5,-30.5 3953.5,-30.5 3953.5,-0.5 3819.5,-0.5"/>
<text text-anchor="start" x="3827.5" y="-18.5" font-family="Helvetica,sans-Serif" font-size="10.00">source/main/terrain</text>
<text text-anchor="middle" x="3886.5" y="-7.5" font-family="Helvetica,sans-Serif" font-size="10.00">/map/SurveyMapEntity.cpp</text>
</a>
</g>
</g>
<!-- Node17&#45;&gt;Node43 -->
<g id="edge40" class="edge"><title>Node17&#45;&gt;Node43</title>
<path fill="none" stroke="midnightblue" d="M2542.08,-80.4107C2767.79,-76.1639 3559.69,-59.5273 3810.5,-31 3813.44,-30.666 3816.43,-30.2824 3819.45,-29.8601"/>
<polygon fill="midnightblue" stroke="midnightblue" points="2541.7,-76.9172 2531.77,-80.6036 2541.83,-83.916 2541.7,-76.9172"/>
</g>
<!-- Node44 -->
<g id="node41" class="node"><title>Node44</title>
<g id="a_node41"><a xlink:href="../../d7/d5a/_survey_map_manager_8cpp.html" target="_top" xlink:title="source/main/terrain\l/map/SurveyMapManager.cpp">
<polygon fill="white" stroke="black" points="3971.5,-0.5 3971.5,-30.5 4117.5,-30.5 4117.5,-0.5 3971.5,-0.5"/>
<text text-anchor="start" x="3979.5" y="-18.5" font-family="Helvetica,sans-Serif" font-size="10.00">source/main/terrain</text>
<text text-anchor="middle" x="4044.5" y="-7.5" font-family="Helvetica,sans-Serif" font-size="10.00">/map/SurveyMapManager.cpp</text>
</a>
</g>
</g>
<!-- Node17&#45;&gt;Node44 -->
<g id="edge41" class="edge"><title>Node17&#45;&gt;Node44</title>
<path fill="none" stroke="midnightblue" d="M2542.05,-80.5752C2783.75,-76.7068 3680.13,-60.6304 3962.5,-31 3965.38,-30.6982 3968.3,-30.3551 3971.25,-29.979"/>
<polygon fill="midnightblue" stroke="midnightblue" points="2541.65,-77.081 2531.7,-80.7397 2541.76,-84.0801 2541.65,-77.081"/>
</g>
<!-- Node45 -->
<g id="node42" class="node"><title>Node45</title>
<g id="a_node42"><a xlink:href="../../d4/d2e/_survey_map_texture_creator_8cpp.html" target="_top" xlink:title="source/main/terrain\l/map/SurveyMapTextureCreator.cpp">
<polygon fill="white" stroke="black" points="4135.5,-0.5 4135.5,-30.5 4307.5,-30.5 4307.5,-0.5 4135.5,-0.5"/>
<text text-anchor="start" x="4143.5" y="-18.5" font-family="Helvetica,sans-Serif" font-size="10.00">source/main/terrain</text>
<text text-anchor="middle" x="4221.5" y="-7.5" font-family="Helvetica,sans-Serif" font-size="10.00">/map/SurveyMapTextureCreator.cpp</text>
</a>
</g>
</g>
<!-- Node17&#45;&gt;Node45 -->
<g id="edge42" class="edge"><title>Node17&#45;&gt;Node45</title>
<path fill="none" stroke="midnightblue" d="M2541.8,-80.6258C2799.53,-76.739 3809.72,-59.9315 4126.5,-31 4129.41,-30.7345 4132.36,-30.4375 4135.34,-30.1145"/>
<polygon fill="midnightblue" stroke="midnightblue" points="2541.47,-77.1303 2531.52,-80.78 2541.58,-84.1295 2541.47,-77.1303"/>
</g>
<!-- Node46 -->
<g id="node43" class="node"><title>Node46</title>
<g id="a_node43"><a xlink:href="../../dd/d14/_terrain_geometry_manager_8cpp.html" target="_top" xlink:title="source/main/terrain\l/TerrainGeometryManager.cpp">
<polygon fill="white" stroke="black" points="4325.5,-0.5 4325.5,-30.5 4473.5,-30.5 4473.5,-0.5 4325.5,-0.5"/>
<text text-anchor="start" x="4333.5" y="-18.5" font-family="Helvetica,sans-Serif" font-size="10.00">source/main/terrain</text>
<text text-anchor="middle" x="4399.5" y="-7.5" font-family="Helvetica,sans-Serif" font-size="10.00">/TerrainGeometryManager.cpp</text>
</a>
</g>
</g>
<!-- Node17&#45;&gt;Node46 -->
<g id="edge43" class="edge"><title>Node17&#45;&gt;Node46</title>
<path fill="none" stroke="midnightblue" d="M2541.89,-81.02C2817.82,-78.6451 3960.58,-66.7954 4316.5,-31 4319.41,-30.7072 4322.37,-30.3717 4325.36,-30.0019"/>
<polygon fill="midnightblue" stroke="midnightblue" points="2541.65,-77.5218 2531.68,-81.1069 2541.71,-84.5215 2541.65,-77.5218"/>
</g>
<!-- Node47 -->
<g id="node44" class="node"><title>Node47</title>
<g id="a_node44"><a xlink:href="../../d8/d4d/_terrain_manager_8cpp.html" target="_top" xlink:title="source/main/terrain\l/TerrainManager.cpp">
<polygon fill="white" stroke="black" points="4492,-0.5 4492,-30.5 4597,-30.5 4597,-0.5 4492,-0.5"/>
<text text-anchor="start" x="4500" y="-18.5" font-family="Helvetica,sans-Serif" font-size="10.00">source/main/terrain</text>
<text text-anchor="middle" x="4544.5" y="-7.5" font-family="Helvetica,sans-Serif" font-size="10.00">/TerrainManager.cpp</text>
</a>
</g>
</g>
<!-- Node17&#45;&gt;Node47 -->
<g id="edge44" class="edge"><title>Node17&#45;&gt;Node47</title>
<path fill="none" stroke="midnightblue" d="M2542.09,-81.6398C2833.57,-82.0574 4093.29,-80.8897 4482.5,-31 4485.57,-30.6065 4488.71,-30.1256 4491.87,-29.5811"/>
<polygon fill="midnightblue" stroke="midnightblue" points="2541.74,-78.1394 2531.73,-81.6237 2541.73,-85.1394 2541.74,-78.1394"/>
</g>
<!-- Node48 -->
<g id="node45" class="node"><title>Node48</title>
<g id="a_node45"><a xlink:href="../../d2/d0a/_terrain_object_manager_8cpp.html" target="_top" xlink:title="source/main/terrain\l/TerrainObjectManager.cpp">
<polygon fill="white" stroke="black" points="4615.5,-0.5 4615.5,-30.5 4749.5,-30.5 4749.5,-0.5 4615.5,-0.5"/>
<text text-anchor="start" x="4623.5" y="-18.5" font-family="Helvetica,sans-Serif" font-size="10.00">source/main/terrain</text>
<text text-anchor="middle" x="4682.5" y="-7.5" font-family="Helvetica,sans-Serif" font-size="10.00">/TerrainObjectManager.cpp</text>
</a>
</g>
</g>
<!-- Node17&#45;&gt;Node48 -->
<g id="edge45" class="edge"><title>Node17&#45;&gt;Node48</title>
<path fill="none" stroke="midnightblue" d="M2541.85,-81.4093C2843.57,-80.7511 4190.36,-75.3368 4606.5,-31 4609.44,-30.6869 4612.43,-30.3206 4615.45,-29.9124"/>
<polygon fill="midnightblue" stroke="midnightblue" points="2541.55,-77.9099 2531.56,-81.4308 2541.57,-84.9098 2541.55,-77.9099"/>
</g>
<!-- Node49 -->
<g id="node46" class="node"><title>Node49</title>
<g id="a_node46"><a xlink:href="../../df/d8a/_mesh_object_8cpp.html" target="_top" xlink:title="source/main/utils/MeshObject.cpp">
<polygon fill="white" stroke="black" points="4768,-6 4768,-25 4933,-25 4933,-6 4768,-6"/>
<text text-anchor="middle" x="4850.5" y="-13" font-family="Helvetica,sans-Serif" font-size="10.00">source/main/utils/MeshObject.cpp</text>
</a>
</g>
</g>
<!-- Node17&#45;&gt;Node49 -->
<g id="edge46" class="edge"><title>Node17&#45;&gt;Node49</title>
<path fill="none" stroke="midnightblue" d="M2542.02,-81.2577C2856.85,-79.8298 4309.94,-71.1396 4758.5,-31 4773.48,-29.6597 4789.71,-27.3796 4804.32,-25.0194"/>
<polygon fill="midnightblue" stroke="midnightblue" points="2541.72,-77.7589 2531.74,-81.3036 2541.76,-84.7588 2541.72,-77.7589"/>
</g>
</g>
</svg>
        <g id="navigator" transform="translate(0 0)" fill="#404254">
                <rect fill="#f2f5e9" fill-opacity="0.5" stroke="#606060" stroke-width=".5" x="0" y="0" width="60" height="60"/>
                <use id="zoomplus" xlink:href="#zoomPlus" x="17" y="9" onmousedown="handleZoom(evt,'in')"/>
                <use id="zoomminus" xlink:href="#zoomMin" x="42" y="9" onmousedown="handleZoom(evt,'out')"/>
                <use id="reset" xlink:href="#resetDef" x="30" y="36" onmousedown="handleReset()"/>
                <g id="arrowUp" xlink:href="#dirArrow" transform="translate(30 24)" onmousedown="handlePan(0,-1)">
                  <use xlink:href="#rim" fill="#404040">
                        <set attributeName="fill" to="#808080" begin="arrowUp.mouseover" end="arrowUp.mouseout"/>
                  </use>
                  <path fill="none" stroke="white" stroke-width="1.5" d="M0,-3.0v7 M-2.5,-0.5L0,-3.0L2.5,-0.5"/>
                </g>
                <g id="arrowRight" xlink:href="#dirArrow" transform="rotate(90) translate(36 -43)" onmousedown="handlePan(1,0)">
                  <use xlink:href="#rim" fill="#404040">
                        <set attributeName="fill" to="#808080" begin="arrowRight.mouseover" end="arrowRight.mouseout"/>
                  </use>
                  <path fill="none" stroke="white" stroke-width="1.5" d="M0,-3.0v7 M-2.5,-0.5L0,-3.0L2.5,-0.5"/>
                </g>
                <g id="arrowDown" xlink:href="#dirArrow" transform="rotate(180) translate(-30 -48)" onmousedown="handlePan(0,1)">
                  <use xlink:href="#rim" fill="#404040">
                        <set attributeName="fill" to="#808080" begin="arrowDown.mouseover" end="arrowDown.mouseout"/>
                  </use>
                  <path fill="none" stroke="white" stroke-width="1.5" d="M0,-3.0v7 M-2.5,-0.5L0,-3.0L2.5,-0.5"/>
                </g>
                <g id="arrowLeft" xlink:href="#dirArrow" transform="rotate(270) translate(-36 17)" onmousedown="handlePan(-1,0)">
                  <use xlink:href="#rim" fill="#404040">
                        <set attributeName="fill" to="#808080" begin="arrowLeft.mouseover" end="arrowLeft.mouseout"/>
                  </use>
                  <path fill="none" stroke="white" stroke-width="1.5" d="M0,-3.0v7 M-2.5,-0.5L0,-3.0L2.5,-0.5"/>
                </g>
        </g>
        <svg viewBox="0 0 15 15" width="100%" height="30px" preserveAspectRatio="xMaxYMin meet">
         <g id="arrow_out" transform="scale(0.3 0.3)">
          <a xlink:href="_basic_controller_8h__dep__incl_org.svg" target="_base">
           <rect id="button" ry="5" rx="5" y="6" x="6" height="38" width="38"
                fill="#f2f5e9" fill-opacity="0.5" stroke="#606060" stroke-width="1.0"/>
           <path id="arrow"
             d="M 11.500037,31.436501 C 11.940474,20.09759 22.043105,11.32322 32.158766,21.979434 L 37.068811,17.246167 C 37.068811,17.246167 37.088388,32 37.088388,32 L 22.160133,31.978069 C 22.160133,31.978069 26.997745,27.140456 26.997745,27.140456 C 18.528582,18.264221 13.291696,25.230495 11.500037,31.436501 z"
             style="fill:#404040;"/>
          </a>
         </g>
        </svg>
</svg>
