<?xml version="1.0" encoding="UTF-8" standalone="no"?>
<!DOCTYPE svg PUBLIC "-//W3C//DTD SVG 1.1//EN"
 "http://www.w3.org/Graphics/SVG/1.1/DTD/svg11.dtd">
<!-- Generated by graphviz version 2.38.0 (20140413.2041)
 -->
<!-- Title: Hydrax::MaterialManager::removeMaterials Pages: 1 -->
<svg width="632pt" height="39pt"
 viewBox="0.00 0.00 632.00 39.00" xmlns="http://www.w3.org/2000/svg" xmlns:xlink="http://www.w3.org/1999/xlink">
<g id="graph0" class="graph" transform="scale(1 1) rotate(0) translate(4 35)">
<title>Hydrax::MaterialManager::removeMaterials</title>
<polygon fill="white" stroke="none" points="-4,4 -4,-35 628,-35 628,4 -4,4"/>
<!-- Node665 -->
<g id="node1" class="node"><title>Node665</title>
<polygon fill="#bfbfbf" stroke="black" points="0,-0.5 0,-30.5 125,-30.5 125,-0.5 0,-0.5"/>
<text text-anchor="start" x="8" y="-18.5" font-family="Helvetica,sans-Serif" font-size="10.00">Hydrax::MaterialManager</text>
<text text-anchor="middle" x="62.5" y="-7.5" font-family="Helvetica,sans-Serif" font-size="10.00">::removeMaterials</text>
</g>
<!-- Node666 -->
<g id="node2" class="node"><title>Node666</title>
<g id="a_node2"><a xlink:href="../../da/d12/class_hydrax_1_1_material_manager.html#a160d27bd9ff0fac665ce5ce7c4e013e9" target="_top" xlink:title="Hydrax::MaterialManager\l::removeCompositor">
<polygon fill="white" stroke="black" points="161,-0.5 161,-30.5 286,-30.5 286,-0.5 161,-0.5"/>
<text text-anchor="start" x="169" y="-18.5" font-family="Helvetica,sans-Serif" font-size="10.00">Hydrax::MaterialManager</text>
<text text-anchor="middle" x="223.5" y="-7.5" font-family="Helvetica,sans-Serif" font-size="10.00">::removeCompositor</text>
</a>
</g>
</g>
<!-- Node665&#45;&gt;Node666 -->
<g id="edge1" class="edge"><title>Node665&#45;&gt;Node666</title>
<path fill="none" stroke="midnightblue" d="M125.429,-15.5C133.674,-15.5 142.184,-15.5 150.58,-15.5"/>
<polygon fill="midnightblue" stroke="midnightblue" points="150.74,-19.0001 160.74,-15.5 150.74,-12.0001 150.74,-19.0001"/>
</g>
<!-- Node667 -->
<g id="node3" class="node"><title>Node667</title>
<g id="a_node3"><a xlink:href="../../da/d12/class_hydrax_1_1_material_manager.html#a61bccef34841ce9c0ce6c53ff27f136b" target="_top" xlink:title="Hydrax::MaterialManager\l::setCompositorEnable">
<polygon fill="white" stroke="black" points="322,-0.5 322,-30.5 447,-30.5 447,-0.5 322,-0.5"/>
<text text-anchor="start" x="330" y="-18.5" font-family="Helvetica,sans-Serif" font-size="10.00">Hydrax::MaterialManager</text>
<text text-anchor="middle" x="384.5" y="-7.5" font-family="Helvetica,sans-Serif" font-size="10.00">::setCompositorEnable</text>
</a>
</g>
</g>
<!-- Node666&#45;&gt;Node667 -->
<g id="edge2" class="edge"><title>Node666&#45;&gt;Node667</title>
<path fill="none" stroke="midnightblue" d="M286.429,-15.5C294.674,-15.5 303.184,-15.5 311.58,-15.5"/>
<polygon fill="midnightblue" stroke="midnightblue" points="311.74,-19.0001 321.74,-15.5 311.74,-12.0001 311.74,-19.0001"/>
</g>
<!-- Node668 -->
<g id="node4" class="node"><title>Node668</title>
<g id="a_node4"><a xlink:href="../../dd/d65/class_hydrax_1_1_hydrax.html#a969555d8f856a43c4ca6c92bb0958bf1" target="_top" xlink:title="Hydrax::Hydrax::getViewport">
<polygon fill="white" stroke="black" points="483,-6 483,-25 624,-25 624,-6 483,-6"/>
<text text-anchor="middle" x="553.5" y="-13" font-family="Helvetica,sans-Serif" font-size="10.00">Hydrax::Hydrax::getViewport</text>
</a>
</g>
</g>
<!-- Node667&#45;&gt;Node668 -->
<g id="edge3" class="edge"><title>Node667&#45;&gt;Node668</title>
<path fill="none" stroke="midnightblue" d="M447.21,-15.5C455.558,-15.5 464.218,-15.5 472.824,-15.5"/>
<polygon fill="midnightblue" stroke="midnightblue" points="472.88,-19.0001 482.88,-15.5 472.88,-12.0001 472.88,-19.0001"/>
</g>
</g>
</svg>
