<?xml version="1.0" encoding="UTF-8" standalone="no"?>
<!DOCTYPE svg PUBLIC "-//W3C//DTD SVG 1.1//EN"
 "http://www.w3.org/Graphics/SVG/1.1/DTD/svg11.dtd">
<!-- Generated by graphviz version 2.38.0 (20140413.2041)
 -->
<!-- Title: Hydrax::MaterialManager::_createDepthTextureGPUPrograms Pages: 1 -->
<svg width="521pt" height="112pt"
 viewBox="0.00 0.00 521.00 112.00" xmlns="http://www.w3.org/2000/svg" xmlns:xlink="http://www.w3.org/1999/xlink">
<g id="graph0" class="graph" transform="scale(1 1) rotate(0) translate(4 108)">
<title>Hydrax::MaterialManager::_createDepthTextureGPUPrograms</title>
<polygon fill="white" stroke="none" points="-4,4 -4,-108 517,-108 517,4 -4,4"/>
<!-- Node34 -->
<g id="node1" class="node"><title>Node34</title>
<polygon fill="#bfbfbf" stroke="black" points="0,-24.5 0,-54.5 176,-54.5 176,-24.5 0,-24.5"/>
<text text-anchor="start" x="8" y="-42.5" font-family="Helvetica,sans-Serif" font-size="10.00">Hydrax::MaterialManager</text>
<text text-anchor="middle" x="88" y="-31.5" font-family="Helvetica,sans-Serif" font-size="10.00">::_createDepthTextureGPUPrograms</text>
</g>
<!-- Node35 -->
<g id="node2" class="node"><title>Node35</title>
<g id="a_node2"><a xlink:href="../../da/d12/class_hydrax_1_1_material_manager.html#a0ee548c5ba041a7e26a1561dbac28ae4" target="_top" xlink:title="Hydrax::MaterialManager\l::addDepthTextureTechnique">
<polygon fill="white" stroke="black" points="212,-49.5 212,-79.5 352,-79.5 352,-49.5 212,-49.5"/>
<text text-anchor="start" x="220" y="-67.5" font-family="Helvetica,sans-Serif" font-size="10.00">Hydrax::MaterialManager</text>
<text text-anchor="middle" x="282" y="-56.5" font-family="Helvetica,sans-Serif" font-size="10.00">::addDepthTextureTechnique</text>
</a>
</g>
</g>
<!-- Node34&#45;&gt;Node35 -->
<g id="edge1" class="edge"><title>Node34&#45;&gt;Node35</title>
<path fill="none" stroke="midnightblue" d="M186.169,-52.1523C194.832,-53.2802 203.481,-54.4064 211.836,-55.4943"/>
<polygon fill="midnightblue" stroke="midnightblue" points="186.38,-48.6502 176.012,-50.8297 185.476,-55.5916 186.38,-48.6502"/>
</g>
<!-- Node38 -->
<g id="node5" class="node"><title>Node38</title>
<g id="a_node5"><a xlink:href="../../da/d12/class_hydrax_1_1_material_manager.html#a964a29c17a27037791f2b1c76bdf2aea" target="_top" xlink:title="Hydrax::MaterialManager\l::getDepthTechniques">
<polygon fill="white" stroke="black" points="219.5,-0.5 219.5,-30.5 344.5,-30.5 344.5,-0.5 219.5,-0.5"/>
<text text-anchor="start" x="227.5" y="-18.5" font-family="Helvetica,sans-Serif" font-size="10.00">Hydrax::MaterialManager</text>
<text text-anchor="middle" x="282" y="-7.5" font-family="Helvetica,sans-Serif" font-size="10.00">::getDepthTechniques</text>
</a>
</g>
</g>
<!-- Node34&#45;&gt;Node38 -->
<g id="edge4" class="edge"><title>Node34&#45;&gt;Node38</title>
<path fill="none" stroke="midnightblue" d="M185.952,-27.381C197.277,-25.9654 208.584,-24.552 219.243,-23.2197"/>
<polygon fill="midnightblue" stroke="midnightblue" points="185.5,-23.9101 176.012,-28.6235 186.369,-30.8561 185.5,-23.9101"/>
</g>
<!-- Node36 -->
<g id="node3" class="node"><title>Node36</title>
<g id="a_node3"><a xlink:href="../../da/d12/class_hydrax_1_1_material_manager.html#a6aa7b0a92b824348577d506f7bcf581b" target="_top" xlink:title="Hydrax::MaterialManager\l::createMaterials">
<polygon fill="white" stroke="black" points="388,-73.5 388,-103.5 513,-103.5 513,-73.5 388,-73.5"/>
<text text-anchor="start" x="396" y="-91.5" font-family="Helvetica,sans-Serif" font-size="10.00">Hydrax::MaterialManager</text>
<text text-anchor="middle" x="450.5" y="-80.5" font-family="Helvetica,sans-Serif" font-size="10.00">::createMaterials</text>
</a>
</g>
</g>
<!-- Node35&#45;&gt;Node36 -->
<g id="edge2" class="edge"><title>Node35&#45;&gt;Node36</title>
<path fill="none" stroke="midnightblue" d="M362.262,-75.9252C370.905,-77.171 379.606,-78.4252 387.99,-79.6337"/>
<polygon fill="midnightblue" stroke="midnightblue" points="362.562,-72.4322 352.165,-74.4697 361.563,-79.3606 362.562,-72.4322"/>
</g>
<!-- Node37 -->
<g id="node4" class="node"><title>Node37</title>
<g id="a_node4"><a xlink:href="../../da/d12/class_hydrax_1_1_material_manager.html#af2cdac2ad510d1c62d52916dbb95977c" target="_top" xlink:title="Hydrax::MaterialManager\l::getLastOptions">
<polygon fill="white" stroke="black" points="388,-24.5 388,-54.5 513,-54.5 513,-24.5 388,-24.5"/>
<text text-anchor="start" x="396" y="-42.5" font-family="Helvetica,sans-Serif" font-size="10.00">Hydrax::MaterialManager</text>
<text text-anchor="middle" x="450.5" y="-31.5" font-family="Helvetica,sans-Serif" font-size="10.00">::getLastOptions</text>
</a>
</g>
</g>
<!-- Node35&#45;&gt;Node37 -->
<g id="edge3" class="edge"><title>Node35&#45;&gt;Node37</title>
<path fill="none" stroke="midnightblue" d="M362.262,-52.5988C370.905,-51.301 379.606,-49.9946 387.99,-48.7357"/>
<polygon fill="midnightblue" stroke="midnightblue" points="361.534,-49.1688 352.165,-54.1149 362.573,-56.0912 361.534,-49.1688"/>
</g>
</g>
</svg>
