<?xml version="1.0" encoding="UTF-8" standalone="no"?>
<!DOCTYPE svg PUBLIC "-//W3C//DTD SVG 1.1//EN"
 "http://www.w3.org/Graphics/SVG/1.1/DTD/svg11.dtd">
<!-- Generated by graphviz version 2.38.0 (20140413.2041)
 -->
<!-- Title: SkyX::VClouds::GeometryBlock::_updateZoneBSlice Pages: 1 -->
<svg width="1458pt" height="323pt"
 viewBox="0.00 0.00 1458.00 323.00" xmlns="http://www.w3.org/2000/svg" xmlns:xlink="http://www.w3.org/1999/xlink">
<g id="graph0" class="graph" transform="scale(1 1) rotate(0) translate(4 319)">
<title>SkyX::VClouds::GeometryBlock::_updateZoneBSlice</title>
<polygon fill="white" stroke="none" points="-4,4 -4,-319 1454,-319 1454,4 -4,4"/>
<!-- Node103 -->
<g id="node1" class="node"><title>Node103</title>
<polygon fill="#bfbfbf" stroke="black" points="0,-205.5 0,-235.5 155,-235.5 155,-205.5 0,-205.5"/>
<text text-anchor="start" x="8" y="-223.5" font-family="Helvetica,sans-Serif" font-size="10.00">SkyX::VClouds::GeometryBlock</text>
<text text-anchor="middle" x="77.5" y="-212.5" font-family="Helvetica,sans-Serif" font-size="10.00">::_updateZoneBSlice</text>
</g>
<!-- Node104 -->
<g id="node2" class="node"><title>Node104</title>
<g id="a_node2"><a xlink:href="../../d9/df9/class_sky_x_1_1_v_clouds_1_1_geometry_block.html#acf52579de6b080f63399b0025279f3e2" target="_top" xlink:title="SkyX::VClouds::GeometryBlock\l::_setVertexData">
<polygon fill="white" stroke="black" points="191,-205.5 191,-235.5 346,-235.5 346,-205.5 191,-205.5"/>
<text text-anchor="start" x="199" y="-223.5" font-family="Helvetica,sans-Serif" font-size="10.00">SkyX::VClouds::GeometryBlock</text>
<text text-anchor="middle" x="268.5" y="-212.5" font-family="Helvetica,sans-Serif" font-size="10.00">::_setVertexData</text>
</a>
</g>
</g>
<!-- Node103&#45;&gt;Node104 -->
<g id="edge1" class="edge"><title>Node103&#45;&gt;Node104</title>
<path fill="none" stroke="midnightblue" d="M155.101,-220.5C163.559,-220.5 172.215,-220.5 180.786,-220.5"/>
<polygon fill="midnightblue" stroke="midnightblue" points="180.79,-224 190.79,-220.5 180.79,-217 180.79,-224"/>
</g>
<!-- Node105 -->
<g id="node3" class="node"><title>Node105</title>
<g id="a_node3"><a xlink:href="../../d5/db6/class_sky_x_1_1_v_clouds_1_1_v_clouds.html#aa26c35e95bc1cdc184e8d3536a110aab" target="_top" xlink:title="SkyX::VClouds::VClouds\l::getDistanceFallingParams">
<polygon fill="white" stroke="black" points="382,-279.5 382,-309.5 519,-309.5 519,-279.5 382,-279.5"/>
<text text-anchor="start" x="390" y="-297.5" font-family="Helvetica,sans-Serif" font-size="10.00">SkyX::VClouds::VClouds</text>
<text text-anchor="middle" x="450.5" y="-286.5" font-family="Helvetica,sans-Serif" font-size="10.00">::getDistanceFallingParams</text>
</a>
</g>
</g>
<!-- Node104&#45;&gt;Node105 -->
<g id="edge2" class="edge"><title>Node104&#45;&gt;Node105</title>
<path fill="none" stroke="midnightblue" d="M301.712,-235.604C324.057,-245.887 354.608,-259.562 382,-270.5 386.526,-272.307 391.249,-274.124 396.001,-275.904"/>
<polygon fill="midnightblue" stroke="midnightblue" points="395.151,-279.321 405.744,-279.494 397.57,-272.753 395.151,-279.321"/>
</g>
<!-- Node108 -->
<g id="node6" class="node"><title>Node108</title>
<g id="a_node6"><a xlink:href="../../d5/db6/class_sky_x_1_1_v_clouds_1_1_v_clouds.html#a395f7876b1357007b1137cdbf972aac6" target="_top" xlink:title="SkyX::VClouds::VClouds\l::getCloudFieldScale">
<polygon fill="white" stroke="black" points="388,-230.5 388,-260.5 513,-260.5 513,-230.5 388,-230.5"/>
<text text-anchor="start" x="396" y="-248.5" font-family="Helvetica,sans-Serif" font-size="10.00">SkyX::VClouds::VClouds</text>
<text text-anchor="middle" x="450.5" y="-237.5" font-family="Helvetica,sans-Serif" font-size="10.00">::getCloudFieldScale</text>
</a>
</g>
</g>
<!-- Node104&#45;&gt;Node108 -->
<g id="edge5" class="edge"><title>Node104&#45;&gt;Node108</title>
<path fill="none" stroke="midnightblue" d="M346.097,-231.139C356.684,-232.609 367.524,-234.114 378.013,-235.571"/>
<polygon fill="midnightblue" stroke="midnightblue" points="377.556,-239.041 387.943,-236.95 378.519,-232.108 377.556,-239.041"/>
</g>
<!-- Node109 -->
<g id="node7" class="node"><title>Node109</title>
<g id="a_node7"><a xlink:href="../../d5/db6/class_sky_x_1_1_v_clouds_1_1_v_clouds.html#a2f21ac89a85582095de6b1a44c8530f7" target="_top" xlink:title="SkyX::VClouds::VClouds\l::getNoiseScale">
<polygon fill="white" stroke="black" points="388,-181.5 388,-211.5 513,-211.5 513,-181.5 388,-181.5"/>
<text text-anchor="start" x="396" y="-199.5" font-family="Helvetica,sans-Serif" font-size="10.00">SkyX::VClouds::VClouds</text>
<text text-anchor="middle" x="450.5" y="-188.5" font-family="Helvetica,sans-Serif" font-size="10.00">::getNoiseScale</text>
</a>
</g>
</g>
<!-- Node104&#45;&gt;Node109 -->
<g id="edge6" class="edge"><title>Node104&#45;&gt;Node109</title>
<path fill="none" stroke="midnightblue" d="M346.097,-210.287C356.684,-208.875 367.524,-207.43 378.013,-206.032"/>
<polygon fill="midnightblue" stroke="midnightblue" points="378.493,-209.499 387.943,-204.708 377.568,-202.56 378.493,-209.499"/>
</g>
<!-- Node125 -->
<g id="node23" class="node"><title>Node125</title>
<g id="a_node23"><a xlink:href="../../d5/db6/class_sky_x_1_1_v_clouds_1_1_v_clouds.html#a70d989ea8c00d11a4f67ce64615f197b" target="_top" xlink:title="SkyX::VClouds::VClouds\l::getGlobalOpacity">
<polygon fill="white" stroke="black" points="388,-132.5 388,-162.5 513,-162.5 513,-132.5 388,-132.5"/>
<text text-anchor="start" x="396" y="-150.5" font-family="Helvetica,sans-Serif" font-size="10.00">SkyX::VClouds::VClouds</text>
<text text-anchor="middle" x="450.5" y="-139.5" font-family="Helvetica,sans-Serif" font-size="10.00">::getGlobalOpacity</text>
</a>
</g>
</g>
<!-- Node104&#45;&gt;Node125 -->
<g id="edge22" class="edge"><title>Node104&#45;&gt;Node125</title>
<path fill="none" stroke="midnightblue" d="M303.786,-205.359C325.98,-195.686 355.565,-183.028 382,-172.5 387.355,-170.367 392.972,-168.192 398.582,-166.058"/>
<polygon fill="midnightblue" stroke="midnightblue" points="399.846,-169.322 407.97,-162.52 397.378,-162.771 399.846,-169.322"/>
</g>
<!-- Node106 -->
<g id="node4" class="node"><title>Node106</title>
<g id="a_node4"><a xlink:href="../../d5/db6/class_sky_x_1_1_v_clouds_1_1_v_clouds.html#a2ad502f0a4e4f3abfca677029d38ef24" target="_top" xlink:title="SkyX::VClouds::VClouds\l::setRenderQueueGroups">
<polygon fill="white" stroke="black" points="555,-279.5 555,-309.5 682,-309.5 682,-279.5 555,-279.5"/>
<text text-anchor="start" x="563" y="-297.5" font-family="Helvetica,sans-Serif" font-size="10.00">SkyX::VClouds::VClouds</text>
<text text-anchor="middle" x="618.5" y="-286.5" font-family="Helvetica,sans-Serif" font-size="10.00">::setRenderQueueGroups</text>
</a>
</g>
</g>
<!-- Node105&#45;&gt;Node106 -->
<g id="edge3" class="edge"><title>Node105&#45;&gt;Node106</title>
<path fill="none" stroke="midnightblue" d="M519.019,-294.5C527.442,-294.5 536.086,-294.5 544.587,-294.5"/>
<polygon fill="midnightblue" stroke="midnightblue" points="544.861,-298 554.861,-294.5 544.861,-291 544.861,-298"/>
</g>
<!-- Node107 -->
<g id="node5" class="node"><title>Node107</title>
<g id="a_node5"><a xlink:href="../../d4/da3/class_sky_x_1_1_v_clouds_1_1_geometry_manager.html#aae6a88597f3c7a1a17429b6b72cd9c3f" target="_top" xlink:title="SkyX::VClouds::GeometryManager\l::_updateRenderQueueGroup">
<polygon fill="white" stroke="black" points="718,-279.5 718,-309.5 886,-309.5 886,-279.5 718,-279.5"/>
<text text-anchor="start" x="726" y="-297.5" font-family="Helvetica,sans-Serif" font-size="10.00">SkyX::VClouds::GeometryManager</text>
<text text-anchor="middle" x="802" y="-286.5" font-family="Helvetica,sans-Serif" font-size="10.00">::_updateRenderQueueGroup</text>
</a>
</g>
</g>
<!-- Node106&#45;&gt;Node107 -->
<g id="edge4" class="edge"><title>Node106&#45;&gt;Node107</title>
<path fill="none" stroke="midnightblue" d="M682.216,-294.5C690.465,-294.5 699.056,-294.5 707.678,-294.5"/>
<polygon fill="midnightblue" stroke="midnightblue" points="707.795,-298 717.795,-294.5 707.795,-291 707.795,-298"/>
</g>
<!-- Node110 -->
<g id="node8" class="node"><title>Node110</title>
<g id="a_node8"><a xlink:href="../../d5/db6/class_sky_x_1_1_v_clouds_1_1_v_clouds.html#aa6ac12481422e7771b0e04e1cbc2dc28" target="_top" xlink:title="SkyX::VClouds::VClouds\l::setWheater">
<polygon fill="white" stroke="black" points="556,-181.5 556,-211.5 681,-211.5 681,-181.5 556,-181.5"/>
<text text-anchor="start" x="564" y="-199.5" font-family="Helvetica,sans-Serif" font-size="10.00">SkyX::VClouds::VClouds</text>
<text text-anchor="middle" x="618.5" y="-188.5" font-family="Helvetica,sans-Serif" font-size="10.00">::setWheater</text>
</a>
</g>
</g>
<!-- Node109&#45;&gt;Node110 -->
<g id="edge7" class="edge"><title>Node109&#45;&gt;Node110</title>
<path fill="none" stroke="midnightblue" d="M513.312,-196.5C523.86,-196.5 534.898,-196.5 545.679,-196.5"/>
<polygon fill="midnightblue" stroke="midnightblue" points="545.913,-200 555.913,-196.5 545.913,-193 545.913,-200"/>
</g>
<!-- Node111 -->
<g id="node9" class="node"><title>Node111</title>
<g id="a_node9"><a xlink:href="../../dd/d4b/class_sky_x_1_1_v_clouds_1_1_data_manager.html#a4f167b2a9517f6098b61d8e8a9dad4ce" target="_top" xlink:title="SkyX::VClouds::DataManager\l::setWheater">
<polygon fill="white" stroke="black" points="729,-181.5 729,-211.5 875,-211.5 875,-181.5 729,-181.5"/>
<text text-anchor="start" x="737" y="-199.5" font-family="Helvetica,sans-Serif" font-size="10.00">SkyX::VClouds::DataManager</text>
<text text-anchor="middle" x="802" y="-188.5" font-family="Helvetica,sans-Serif" font-size="10.00">::setWheater</text>
</a>
</g>
</g>
<!-- Node110&#45;&gt;Node111 -->
<g id="edge8" class="edge"><title>Node110&#45;&gt;Node111</title>
<path fill="none" stroke="midnightblue" d="M681.201,-196.5C693.283,-196.5 706.134,-196.5 718.762,-196.5"/>
<polygon fill="midnightblue" stroke="midnightblue" points="718.824,-200 728.824,-196.5 718.824,-193 718.824,-200"/>
</g>
<!-- Node112 -->
<g id="node10" class="node"><title>Node112</title>
<g id="a_node10"><a xlink:href="../../dd/d4b/class_sky_x_1_1_v_clouds_1_1_data_manager.html#a5c9098523dacb817567a973ca4fc6638" target="_top" xlink:title="SkyX::VClouds::DataManager\l::addEllipsoid">
<polygon fill="white" stroke="black" points="922,-274.5 922,-304.5 1068,-304.5 1068,-274.5 922,-274.5"/>
<text text-anchor="start" x="930" y="-292.5" font-family="Helvetica,sans-Serif" font-size="10.00">SkyX::VClouds::DataManager</text>
<text text-anchor="middle" x="995" y="-281.5" font-family="Helvetica,sans-Serif" font-size="10.00">::addEllipsoid</text>
</a>
</g>
</g>
<!-- Node111&#45;&gt;Node112 -->
<g id="edge9" class="edge"><title>Node111&#45;&gt;Node112</title>
<path fill="none" stroke="midnightblue" d="M833.246,-211.695C857.251,-223.706 891.695,-240.834 922,-255.5 931.807,-260.246 942.399,-265.292 952.364,-270.004"/>
<polygon fill="midnightblue" stroke="midnightblue" points="951.143,-273.298 961.68,-274.398 954.129,-266.967 951.143,-273.298"/>
</g>
<!-- Node115 -->
<g id="node13" class="node"><title>Node115</title>
<g id="a_node13"><a xlink:href="../../dd/d4b/class_sky_x_1_1_v_clouds_1_1_data_manager.html#a2a97e5361a5d3aff48818a9a0f877cdf" target="_top" xlink:title="SkyX::VClouds::DataManager\l::_updateProbabilities">
<polygon fill="white" stroke="black" points="922,-215.5 922,-245.5 1068,-245.5 1068,-215.5 922,-215.5"/>
<text text-anchor="start" x="930" y="-233.5" font-family="Helvetica,sans-Serif" font-size="10.00">SkyX::VClouds::DataManager</text>
<text text-anchor="middle" x="995" y="-222.5" font-family="Helvetica,sans-Serif" font-size="10.00">::_updateProbabilities</text>
</a>
</g>
</g>
<!-- Node111&#45;&gt;Node115 -->
<g id="edge12" class="edge"><title>Node111&#45;&gt;Node115</title>
<path fill="none" stroke="midnightblue" d="M875.209,-209.354C887.093,-211.47 899.49,-213.676 911.601,-215.832"/>
<polygon fill="midnightblue" stroke="midnightblue" points="911.23,-219.321 921.689,-217.628 912.457,-212.429 911.23,-219.321"/>
</g>
<!-- Node117 -->
<g id="node15" class="node"><title>Node117</title>
<g id="a_node15"><a xlink:href="../../dd/d4b/class_sky_x_1_1_v_clouds_1_1_data_manager.html#ae8e39e54096d75b0af7da9498c4183c1" target="_top" xlink:title="SkyX::VClouds::DataManager\l::_performCalculations">
<polygon fill="white" stroke="black" points="922,-147.5 922,-177.5 1068,-177.5 1068,-147.5 922,-147.5"/>
<text text-anchor="start" x="930" y="-165.5" font-family="Helvetica,sans-Serif" font-size="10.00">SkyX::VClouds::DataManager</text>
<text text-anchor="middle" x="995" y="-154.5" font-family="Helvetica,sans-Serif" font-size="10.00">::_performCalculations</text>
</a>
</g>
</g>
<!-- Node111&#45;&gt;Node117 -->
<g id="edge14" class="edge"><title>Node111&#45;&gt;Node117</title>
<path fill="none" stroke="midnightblue" d="M875.209,-183.646C887.093,-181.53 899.49,-179.324 911.601,-177.168"/>
<polygon fill="midnightblue" stroke="midnightblue" points="912.457,-180.571 921.689,-175.372 911.23,-173.679 912.457,-180.571"/>
</g>
<!-- Node124 -->
<g id="node22" class="node"><title>Node124</title>
<g id="a_node22"><a xlink:href="../../dd/d4b/class_sky_x_1_1_v_clouds_1_1_data_manager.html#a6ecc0fe2005d507b1fe3ceb892693afb" target="_top" xlink:title="SkyX::VClouds::DataManager\l::_updateVolTextureData">
<polygon fill="white" stroke="black" points="922,-98.5 922,-128.5 1068,-128.5 1068,-98.5 922,-98.5"/>
<text text-anchor="start" x="930" y="-116.5" font-family="Helvetica,sans-Serif" font-size="10.00">SkyX::VClouds::DataManager</text>
<text text-anchor="middle" x="995" y="-105.5" font-family="Helvetica,sans-Serif" font-size="10.00">::_updateVolTextureData</text>
</a>
</g>
</g>
<!-- Node111&#45;&gt;Node124 -->
<g id="edge21" class="edge"><title>Node111&#45;&gt;Node124</title>
<path fill="none" stroke="midnightblue" d="M831.416,-181.46C855.253,-169.134 890.377,-151.641 922,-138.5 927.323,-136.288 932.919,-134.105 938.541,-132.005"/>
<polygon fill="midnightblue" stroke="midnightblue" points="939.79,-135.275 947.985,-128.559 937.391,-128.699 939.79,-135.275"/>
</g>
<!-- Node113 -->
<g id="node11" class="node"><title>Node113</title>
<g id="a_node11"><a xlink:href="../../da/dcf/class_sky_x_1_1_v_clouds_1_1_ellipsoid.html#adbcf70c0af4ff83b7de291113e1a9154" target="_top" xlink:title="SkyX::VClouds::Ellipsoid\l::updateProbabilities">
<polygon fill="white" stroke="black" points="1134,-284.5 1134,-314.5 1259,-314.5 1259,-284.5 1134,-284.5"/>
<text text-anchor="start" x="1142" y="-302.5" font-family="Helvetica,sans-Serif" font-size="10.00">SkyX::VClouds::Ellipsoid</text>
<text text-anchor="middle" x="1196.5" y="-291.5" font-family="Helvetica,sans-Serif" font-size="10.00">::updateProbabilities</text>
</a>
</g>
</g>
<!-- Node112&#45;&gt;Node113 -->
<g id="edge10" class="edge"><title>Node112&#45;&gt;Node113</title>
<path fill="none" stroke="midnightblue" d="M1068.02,-293.11C1086.11,-294.017 1105.53,-294.99 1123.61,-295.897"/>
<polygon fill="midnightblue" stroke="midnightblue" points="1123.63,-299.402 1133.79,-296.407 1123.98,-292.411 1123.63,-299.402"/>
</g>
<!-- Node114 -->
<g id="node12" class="node"><title>Node114</title>
<g id="a_node12"><a xlink:href="../../da/dcf/class_sky_x_1_1_v_clouds_1_1_ellipsoid.html#ac582b6d55864fd94852edceb5d261980" target="_top" xlink:title="SkyX::VClouds::Ellipsoid\l::_getLength">
<polygon fill="white" stroke="black" points="1325,-284.5 1325,-314.5 1450,-314.5 1450,-284.5 1325,-284.5"/>
<text text-anchor="start" x="1333" y="-302.5" font-family="Helvetica,sans-Serif" font-size="10.00">SkyX::VClouds::Ellipsoid</text>
<text text-anchor="middle" x="1387.5" y="-291.5" font-family="Helvetica,sans-Serif" font-size="10.00">::_getLength</text>
</a>
</g>
</g>
<!-- Node113&#45;&gt;Node114 -->
<g id="edge11" class="edge"><title>Node113&#45;&gt;Node114</title>
<path fill="none" stroke="midnightblue" d="M1259.12,-299.5C1276.94,-299.5 1296.53,-299.5 1314.9,-299.5"/>
<polygon fill="midnightblue" stroke="midnightblue" points="1314.96,-303 1324.96,-299.5 1314.96,-296 1314.96,-303"/>
</g>
<!-- Node116 -->
<g id="node14" class="node"><title>Node116</title>
<g id="a_node14"><a xlink:href="../../dd/d4b/class_sky_x_1_1_v_clouds_1_1_data_manager.html#ae60b2c2ca491e9ff062c0daa6e6e82cd" target="_top" xlink:title="SkyX::VClouds::DataManager\l::_clearProbabilities">
<polygon fill="white" stroke="black" points="1123.5,-235.5 1123.5,-265.5 1269.5,-265.5 1269.5,-235.5 1123.5,-235.5"/>
<text text-anchor="start" x="1131.5" y="-253.5" font-family="Helvetica,sans-Serif" font-size="10.00">SkyX::VClouds::DataManager</text>
<text text-anchor="middle" x="1196.5" y="-242.5" font-family="Helvetica,sans-Serif" font-size="10.00">::_clearProbabilities</text>
</a>
</g>
</g>
<!-- Node115&#45;&gt;Node116 -->
<g id="edge13" class="edge"><title>Node115&#45;&gt;Node116</title>
<path fill="none" stroke="midnightblue" d="M1068.02,-237.72C1082.62,-239.184 1098.08,-240.734 1113.01,-242.231"/>
<polygon fill="midnightblue" stroke="midnightblue" points="1112.95,-245.742 1123.25,-243.257 1113.65,-238.776 1112.95,-245.742"/>
</g>
<!-- Node118 -->
<g id="node16" class="node"><title>Node118</title>
<g id="a_node16"><a xlink:href="../../d9/dcd/class_sky_x_1_1_v_clouds_1_1_fast_fake_random.html#aa452b0f2d0511e0913c3e367279ac630" target="_top" xlink:title="SkyX::VClouds::FastFakeRandom::get">
<polygon fill="white" stroke="black" points="1104,-197 1104,-216 1289,-216 1289,-197 1104,-197"/>
<text text-anchor="middle" x="1196.5" y="-204" font-family="Helvetica,sans-Serif" font-size="10.00">SkyX::VClouds::FastFakeRandom::get</text>
</a>
</g>
</g>
<!-- Node117&#45;&gt;Node118 -->
<g id="edge15" class="edge"><title>Node117&#45;&gt;Node118</title>
<path fill="none" stroke="midnightblue" d="M1059.91,-177.546C1074.39,-180.886 1089.71,-184.364 1104,-187.5 1115.15,-189.949 1127.09,-192.487 1138.54,-194.881"/>
<polygon fill="midnightblue" stroke="midnightblue" points="1137.93,-198.33 1148.44,-196.941 1139.36,-191.477 1137.93,-198.33"/>
</g>
<!-- Node119 -->
<g id="node17" class="node"><title>Node119</title>
<g id="a_node17"><a xlink:href="../../dd/d4b/class_sky_x_1_1_v_clouds_1_1_data_manager.html#abd110de3d9abb1bb8d1c0f4ee1d6656a" target="_top" xlink:title="SkyX::VClouds::DataManager\l::_fact">
<polygon fill="white" stroke="black" points="1123.5,-147.5 1123.5,-177.5 1269.5,-177.5 1269.5,-147.5 1123.5,-147.5"/>
<text text-anchor="start" x="1131.5" y="-165.5" font-family="Helvetica,sans-Serif" font-size="10.00">SkyX::VClouds::DataManager</text>
<text text-anchor="middle" x="1196.5" y="-154.5" font-family="Helvetica,sans-Serif" font-size="10.00">::_fact</text>
</a>
</g>
</g>
<!-- Node117&#45;&gt;Node119 -->
<g id="edge16" class="edge"><title>Node117&#45;&gt;Node119</title>
<path fill="none" stroke="midnightblue" d="M1068.02,-162.5C1082.62,-162.5 1098.08,-162.5 1113.01,-162.5"/>
<polygon fill="midnightblue" stroke="midnightblue" points="1113.25,-166 1123.25,-162.5 1113.25,-159 1113.25,-166"/>
</g>
<!-- Node120 -->
<g id="node18" class="node"><title>Node120</title>
<g id="a_node18"><a xlink:href="../../dd/d4b/class_sky_x_1_1_v_clouds_1_1_data_manager.html#a924caf7fd74797ed47dd910dbc736baf" target="_top" xlink:title="SkyX::VClouds::DataManager\l::_getDensityAt">
<polygon fill="white" stroke="black" points="1123.5,-98.5 1123.5,-128.5 1269.5,-128.5 1269.5,-98.5 1123.5,-98.5"/>
<text text-anchor="start" x="1131.5" y="-116.5" font-family="Helvetica,sans-Serif" font-size="10.00">SkyX::VClouds::DataManager</text>
<text text-anchor="middle" x="1196.5" y="-105.5" font-family="Helvetica,sans-Serif" font-size="10.00">::_getDensityAt</text>
</a>
</g>
</g>
<!-- Node117&#45;&gt;Node120 -->
<g id="edge17" class="edge"><title>Node117&#45;&gt;Node120</title>
<path fill="none" stroke="midnightblue" d="M1057.21,-147.465C1078.47,-142.245 1102.48,-136.346 1124.46,-130.947"/>
<polygon fill="midnightblue" stroke="midnightblue" points="1125.53,-134.29 1134.4,-128.506 1123.86,-127.493 1125.53,-134.29"/>
</g>
<!-- Node121 -->
<g id="node19" class="node"><title>Node121</title>
<g id="a_node19"><a xlink:href="../../d5/db6/class_sky_x_1_1_v_clouds_1_1_v_clouds.html#a1fdbb73c54070573ef6a1044bfe74d4e" target="_top" xlink:title="SkyX::VClouds::VClouds\l::getSunDirection">
<polygon fill="white" stroke="black" points="1134,-49.5 1134,-79.5 1259,-79.5 1259,-49.5 1134,-49.5"/>
<text text-anchor="start" x="1142" y="-67.5" font-family="Helvetica,sans-Serif" font-size="10.00">SkyX::VClouds::VClouds</text>
<text text-anchor="middle" x="1196.5" y="-56.5" font-family="Helvetica,sans-Serif" font-size="10.00">::getSunDirection</text>
</a>
</g>
</g>
<!-- Node117&#45;&gt;Node121 -->
<g id="edge18" class="edge"><title>Node117&#45;&gt;Node121</title>
<path fill="none" stroke="midnightblue" d="M1052.71,-147.405C1058.11,-144.862 1063.31,-141.913 1068,-138.5 1089.84,-122.591 1081.73,-104.802 1104,-89.5 1110.16,-85.2689 1117.01,-81.7523 1124.11,-78.8299"/>
<polygon fill="midnightblue" stroke="midnightblue" points="1125.75,-81.9556 1133.91,-75.2016 1123.32,-75.3909 1125.75,-81.9556"/>
</g>
<!-- Node123 -->
<g id="node21" class="node"><title>Node123</title>
<g id="a_node21"><a xlink:href="../../dd/d4b/class_sky_x_1_1_v_clouds_1_1_data_manager.html#a4ca9d6b3c01834b3e0a2cc36b932d3d4" target="_top" xlink:title="SkyX::VClouds::DataManager\l::_getLightAbsorcionAt">
<polygon fill="white" stroke="black" points="1123.5,-0.5 1123.5,-30.5 1269.5,-30.5 1269.5,-0.5 1123.5,-0.5"/>
<text text-anchor="start" x="1131.5" y="-18.5" font-family="Helvetica,sans-Serif" font-size="10.00">SkyX::VClouds::DataManager</text>
<text text-anchor="middle" x="1196.5" y="-7.5" font-family="Helvetica,sans-Serif" font-size="10.00">::_getLightAbsorcionAt</text>
</a>
</g>
</g>
<!-- Node117&#45;&gt;Node123 -->
<g id="edge20" class="edge"><title>Node117&#45;&gt;Node123</title>
<path fill="none" stroke="midnightblue" d="M1056.24,-147.312C1060.51,-144.809 1064.5,-141.895 1068,-138.5 1101.3,-106.19 1069.82,-71.8814 1104,-40.5 1107.14,-37.6183 1110.58,-35.0637 1114.22,-32.7995"/>
<polygon fill="midnightblue" stroke="midnightblue" points="1115.93,-35.8568 1123.07,-28.0263 1112.6,-29.6971 1115.93,-35.8568"/>
</g>
<!-- Node122 -->
<g id="node20" class="node"><title>Node122</title>
<g id="a_node20"><a xlink:href="../../d5/db6/class_sky_x_1_1_v_clouds_1_1_v_clouds.html#ad61914b822477e7a2f9502d68ffed256" target="_top" xlink:title="SkyX::VClouds::VClouds\l::setSunColor">
<polygon fill="white" stroke="black" points="1325,-49.5 1325,-79.5 1450,-79.5 1450,-49.5 1325,-49.5"/>
<text text-anchor="start" x="1333" y="-67.5" font-family="Helvetica,sans-Serif" font-size="10.00">SkyX::VClouds::VClouds</text>
<text text-anchor="middle" x="1387.5" y="-56.5" font-family="Helvetica,sans-Serif" font-size="10.00">::setSunColor</text>
</a>
</g>
</g>
<!-- Node121&#45;&gt;Node122 -->
<g id="edge19" class="edge"><title>Node121&#45;&gt;Node122</title>
<path fill="none" stroke="midnightblue" d="M1259.12,-64.5C1276.94,-64.5 1296.53,-64.5 1314.9,-64.5"/>
<polygon fill="midnightblue" stroke="midnightblue" points="1314.96,-68.0001 1324.96,-64.5 1314.96,-61.0001 1314.96,-68.0001"/>
</g>
</g>
</svg>
