<?xml version="1.0" encoding="UTF-8" standalone="no"?>
<!DOCTYPE svg PUBLIC "-//W3C//DTD SVG 1.1//EN"
 "http://www.w3.org/Graphics/SVG/1.1/DTD/svg11.dtd">
<!-- Generated by graphviz version 2.38.0 (20140413.2041)
 -->
<!-- Title: RigDef::Rotator Pages: 1 -->
<svg width="208pt" height="117pt"
 viewBox="0.00 0.00 207.50 117.00" xmlns="http://www.w3.org/2000/svg" xmlns:xlink="http://www.w3.org/1999/xlink">
<g id="graph0" class="graph" transform="scale(1 1) rotate(0) translate(4 113)">
<title>RigDef::Rotator</title>
<polygon fill="white" stroke="none" points="-4,4 -4,-113 203.5,-113 203.5,4 -4,4"/>
<!-- Node2 -->
<g id="node1" class="node"><title>Node2</title>
<polygon fill="#bfbfbf" stroke="black" points="62.5,-0.5 62.5,-19.5 145.5,-19.5 145.5,-0.5 62.5,-0.5"/>
<text text-anchor="middle" x="104" y="-7.5" font-family="Helvetica,sans-Serif" font-size="10.00">RigDef::Rotator</text>
</g>
<!-- Node3 -->
<g id="node2" class="node"><title>Node3</title>
<g id="a_node2"><a xlink:href="../../d2/dad/class_rig_def_1_1_node_1_1_ref.html" target="_top" xlink:title="RigDef::Node::Ref">
<polygon fill="white" stroke="black" points="0,-89.5 0,-108.5 94,-108.5 94,-89.5 0,-89.5"/>
<text text-anchor="middle" x="47" y="-96.5" font-family="Helvetica,sans-Serif" font-size="10.00">RigDef::Node::Ref</text>
</a>
</g>
</g>
<!-- Node3&#45;&gt;Node2 -->
<g id="edge1" class="edge"><title>Node3&#45;&gt;Node2</title>
<path fill="none" stroke="#9a32cd" stroke-dasharray="5,2" d="M42.5551,-79.5615C40.5735,-66.8917 40.1842,-50.2179 48,-38 53.4091,-29.5444 62.2786,-23.669 71.3805,-19.6151"/>
<polygon fill="#9a32cd" stroke="#9a32cd" points="39.1408,-80.3366 44.5402,-89.4523 46.0039,-78.9591 39.1408,-80.3366"/>
<text text-anchor="middle" x="93.5" y="-63" font-family="Helvetica,sans-Serif" font-size="10.00"> base_plate_nodes</text>
<text text-anchor="middle" x="93.5" y="-52" font-family="Helvetica,sans-Serif" font-size="10.00">axis_nodes</text>
<text text-anchor="middle" x="93.5" y="-41" font-family="Helvetica,sans-Serif" font-size="10.00">rotating_plate_nodes</text>
</g>
<!-- Node4 -->
<g id="node3" class="node"><title>Node4</title>
<g id="a_node3"><a xlink:href="../../da/d50/struct_rig_def_1_1_inertia.html" target="_top" xlink:title="RigDef::Inertia">
<polygon fill="white" stroke="black" points="122.5,-89.5 122.5,-108.5 199.5,-108.5 199.5,-89.5 122.5,-89.5"/>
<text text-anchor="middle" x="161" y="-96.5" font-family="Helvetica,sans-Serif" font-size="10.00">RigDef::Inertia</text>
</a>
</g>
</g>
<!-- Node4&#45;&gt;Node2 -->
<g id="edge2" class="edge"><title>Node4&#45;&gt;Node2</title>
<path fill="none" stroke="#9a32cd" stroke-dasharray="5,2" d="M157.033,-79.2895C153.711,-66.7405 148.031,-50.3189 139,-38 133.646,-30.6966 125.792,-24.3895 118.879,-19.7119"/>
<polygon fill="#9a32cd" stroke="#9a32cd" points="153.651,-80.2004 159.369,-89.1199 160.462,-78.5815 153.651,-80.2004"/>
<text text-anchor="middle" x="170" y="-52" font-family="Helvetica,sans-Serif" font-size="10.00"> inertia</text>
</g>
</g>
</svg>
