<?xml version="1.0" encoding="UTF-8" standalone="no"?>
<!DOCTYPE svg PUBLIC "-//W3C//DTD SVG 1.1//EN"
 "http://www.w3.org/Graphics/SVG/1.1/DTD/svg11.dtd">
<!-- Generated by graphviz version 2.38.0 (20140413.2041)
 -->
<!-- Title: RoR::RigLoadingProfiler::Checkpoint Pages: 1 -->
<svg width="284pt" height="66pt"
 viewBox="0.00 0.00 284.00 66.00" xmlns="http://www.w3.org/2000/svg" xmlns:xlink="http://www.w3.org/1999/xlink">
<g id="graph0" class="graph" transform="scale(1 1) rotate(0) translate(4 62)">
<title>RoR::RigLoadingProfiler::Checkpoint</title>
<polygon fill="white" stroke="none" points="-4,4 -4,-62 280,-62 280,4 -4,4"/>
<!-- Node2 -->
<g id="node1" class="node"><title>Node2</title>
<polygon fill="#bfbfbf" stroke="black" points="0,-14 0,-44 119,-44 119,-14 0,-14"/>
<text text-anchor="start" x="8" y="-32" font-family="Helvetica,sans-Serif" font-size="10.00">RoR::RigLoadingProfiler</text>
<text text-anchor="middle" x="59.5" y="-21" font-family="Helvetica,sans-Serif" font-size="10.00">::Checkpoint</text>
</g>
<!-- Node3 -->
<g id="node2" class="node"><title>Node3</title>
<g id="a_node2"><a xlink:href="../../da/d8f/class_precision_timer.html#a99fcefcc051dacc2e47236323b7e0311" target="_top" xlink:title="PrecisionTimer::elapsed">
<polygon fill="white" stroke="black" points="155,-38.5 155,-57.5 276,-57.5 276,-38.5 155,-38.5"/>
<text text-anchor="middle" x="215.5" y="-45.5" font-family="Helvetica,sans-Serif" font-size="10.00">PrecisionTimer::elapsed</text>
</a>
</g>
</g>
<!-- Node2&#45;&gt;Node3 -->
<g id="edge1" class="edge"><title>Node2&#45;&gt;Node3</title>
<path fill="none" stroke="midnightblue" d="M119.16,-36.2373C127.591,-37.2775 136.334,-38.3561 144.95,-39.4192"/>
<polygon fill="midnightblue" stroke="midnightblue" points="144.629,-42.906 154.982,-40.6569 145.486,-35.9586 144.629,-42.906"/>
</g>
<!-- Node4 -->
<g id="node3" class="node"><title>Node4</title>
<g id="a_node3"><a xlink:href="../../da/d8f/class_precision_timer.html#a8433a3ba0af62a025d512c09f2eade3d" target="_top" xlink:title="PrecisionTimer::restart">
<polygon fill="white" stroke="black" points="158,-0.5 158,-19.5 273,-19.5 273,-0.5 158,-0.5"/>
<text text-anchor="middle" x="215.5" y="-7.5" font-family="Helvetica,sans-Serif" font-size="10.00">PrecisionTimer::restart</text>
</a>
</g>
</g>
<!-- Node2&#45;&gt;Node4 -->
<g id="edge2" class="edge"><title>Node2&#45;&gt;Node4</title>
<path fill="none" stroke="midnightblue" d="M119.16,-21.7627C128.461,-20.6152 138.141,-19.4209 147.613,-18.2523"/>
<polygon fill="midnightblue" stroke="midnightblue" points="148.286,-21.6959 157.782,-16.9976 147.429,-14.7485 148.286,-21.6959"/>
</g>
</g>
</svg>
