<?xml version="1.0" encoding="UTF-8" standalone="no"?>
<!DOCTYPE svg PUBLIC "-//W3C//DTD SVG 1.1//EN"
 "http://www.w3.org/Graphics/SVG/1.1/DTD/svg11.dtd">
<!-- Generated by graphviz version 2.38.0 (20140413.2041)
 -->
<!-- Title: SkyX::VClouds::GeometryManager::getSceneNode Pages: 1 -->
<!--zoomable 282 -->
<svg id="main" version="1.1" xmlns="http://www.w3.org/2000/svg" xmlns:xlink="http://www.w3.org/1999/xlink" xml:space="preserve" onload="init(evt)">
<style type="text/css"><![CDATA[
.edge:hover path { stroke: red; }
.edge:hover polygon { stroke: red; fill: red; }
]]></style>
<script type="text/javascript"><![CDATA[
var edges = document.getElementsByTagName('g');
if (edges && edges.length) {
  for (var i=0;i<edges.length;i++) {
    if (edges[i].id.substr(0,4)=='edge') {
      edges[i].setAttribute('class','edge');
    }
  }
}
]]></script>
        <defs>
                <circle id="rim" cx="0" cy="0" r="7"/>
                <circle id="rim2" cx="0" cy="0" r="3.5"/>
                <g id="zoomPlus">
                        <use xlink:href="#rim" fill="#404040">
                                <set attributeName="fill" to="#808080" begin="zoomplus.mouseover" end="zoomplus.mouseout"/>
                        </use>
                        <path d="M-4,0h8M0,-4v8" fill="none" stroke="white" stroke-width="1.5" pointer-events="none"/>
                </g>
                <g id="zoomMin">
                        <use xlink:href="#rim" fill="#404040">
                                <set attributeName="fill" to="#808080" begin="zoomminus.mouseover" end="zoomminus.mouseout"/>
                        </use>
                        <path d="M-4,0h8" fill="none" stroke="white" stroke-width="1.5" pointer-events="none"/>
                </g>
                <g id="dirArrow">
                        <path fill="none" stroke="white" stroke-width="1.5" d="M0,-3.0v7 M-2.5,-0.5L0,-3.0L2.5,-0.5"/>
                </g>
               <g id="resetDef">
                       <use xlink:href="#rim2" fill="#404040">
                               <set attributeName="fill" to="#808080" begin="reset.mouseover" end="reset.mouseout"/>
                       </use>
               </g>
        </defs>

<script type="text/javascript">
var viewWidth = 857;
var viewHeight = 282;
var sectionId = 'dynsection-12';
</script>
<script xlink:href="../../svgpan.js"/>
<svg id="graph" class="graph">
<g id="viewport">
<title>SkyX::VClouds::GeometryManager::getSceneNode</title>
<polygon fill="white" stroke="none" points="-4,4 -4,-278 853,-278 853,4 -4,4"/>
<!-- Node104 -->
<g id="node1" class="node"><title>Node104</title>
<polygon fill="#bfbfbf" stroke="black" points="0,-92.5 0,-122.5 168,-122.5 168,-92.5 0,-92.5"/>
<text text-anchor="start" x="8" y="-110.5" font-family="Helvetica,sans-Serif" font-size="10.00">SkyX::VClouds::GeometryManager</text>
<text text-anchor="middle" x="84" y="-99.5" font-family="Helvetica,sans-Serif" font-size="10.00">::getSceneNode</text>
</g>
<!-- Node105 -->
<g id="node2" class="node"><title>Node105</title>
<g id="a_node2"><a xlink:href="../../d2/df0/class_sky_x_1_1_v_clouds_1_1_lightning_manager.html#a88fddd5b64c3bfcbbb7d038af5bf3f8c" target="_top" xlink:title="SkyX::VClouds::Lightning\lManager::updateMaterial">
<polygon fill="white" stroke="black" points="204,-153.5 204,-183.5 331,-183.5 331,-153.5 204,-153.5"/>
<text text-anchor="start" x="212" y="-171.5" font-family="Helvetica,sans-Serif" font-size="10.00">SkyX::VClouds::Lightning</text>
<text text-anchor="middle" x="267.5" y="-160.5" font-family="Helvetica,sans-Serif" font-size="10.00">Manager::updateMaterial</text>
</a>
</g>
</g>
<!-- Node104&#45;&gt;Node105 -->
<g id="edge1" class="edge"><title>Node104&#45;&gt;Node105</title>
<path fill="none" stroke="midnightblue" d="M139.672,-125.875C165.937,-134.702 197.017,-145.148 221.837,-153.489"/>
<polygon fill="midnightblue" stroke="midnightblue" points="140.459,-122.447 129.865,-122.579 138.229,-129.082 140.459,-122.447"/>
</g>
<!-- Node112 -->
<g id="node9" class="node"><title>Node112</title>
<g id="a_node9"><a xlink:href="../../d5/db6/class_sky_x_1_1_v_clouds_1_1_v_clouds.html#a3c5adca159dc371b8624e055f260009b" target="_top" xlink:title="SkyX::VClouds::VClouds\l::create">
<polygon fill="white" stroke="black" points="205,-92.5 205,-122.5 330,-122.5 330,-92.5 205,-92.5"/>
<text text-anchor="start" x="213" y="-110.5" font-family="Helvetica,sans-Serif" font-size="10.00">SkyX::VClouds::VClouds</text>
<text text-anchor="middle" x="267.5" y="-99.5" font-family="Helvetica,sans-Serif" font-size="10.00">::create</text>
</a>
</g>
</g>
<!-- Node104&#45;&gt;Node112 -->
<g id="edge9" class="edge"><title>Node104&#45;&gt;Node112</title>
<path fill="none" stroke="midnightblue" d="M178.256,-107.5C187.302,-107.5 196.315,-107.5 204.934,-107.5"/>
<polygon fill="midnightblue" stroke="midnightblue" points="178.048,-104 168.048,-107.5 178.048,-111 178.048,-104"/>
</g>
<!-- Node116 -->
<g id="node13" class="node"><title>Node116</title>
<g id="a_node13"><a xlink:href="../../d5/db6/class_sky_x_1_1_v_clouds_1_1_v_clouds.html#a1894e0d1a382620f1f1318abfff0d6c9" target="_top" xlink:title="SkyX::VClouds::VClouds\l::setVisible">
<polygon fill="white" stroke="black" points="205,-19.5 205,-49.5 330,-49.5 330,-19.5 205,-19.5"/>
<text text-anchor="start" x="213" y="-37.5" font-family="Helvetica,sans-Serif" font-size="10.00">SkyX::VClouds::VClouds</text>
<text text-anchor="middle" x="267.5" y="-26.5" font-family="Helvetica,sans-Serif" font-size="10.00">::setVisible</text>
</a>
</g>
</g>
<!-- Node104&#45;&gt;Node116 -->
<g id="edge13" class="edge"><title>Node104&#45;&gt;Node116</title>
<path fill="none" stroke="midnightblue" d="M132.078,-88.5651C162.237,-76.4351 200.845,-60.9065 228.941,-49.6063"/>
<polygon fill="midnightblue" stroke="midnightblue" points="130.579,-85.3956 122.607,-92.3744 133.191,-91.89 130.579,-85.3956"/>
</g>
<!-- Node106 -->
<g id="node3" class="node"><title>Node106</title>
<g id="a_node3"><a xlink:href="../../d2/df0/class_sky_x_1_1_v_clouds_1_1_lightning_manager.html#ac2ab6237304f920fce09c292dea77c03" target="_top" xlink:title="SkyX::VClouds::Lightning\lManager::update">
<polygon fill="white" stroke="black" points="367,-196.5 367,-226.5 494,-226.5 494,-196.5 367,-196.5"/>
<text text-anchor="start" x="375" y="-214.5" font-family="Helvetica,sans-Serif" font-size="10.00">SkyX::VClouds::Lightning</text>
<text text-anchor="middle" x="430.5" y="-203.5" font-family="Helvetica,sans-Serif" font-size="10.00">Manager::update</text>
</a>
</g>
</g>
<!-- Node105&#45;&gt;Node106 -->
<g id="edge2" class="edge"><title>Node105&#45;&gt;Node106</title>
<path fill="none" stroke="midnightblue" d="M334.514,-186.131C347.364,-189.563 360.722,-193.131 373.222,-196.469"/>
<polygon fill="midnightblue" stroke="midnightblue" points="335.374,-182.738 324.81,-183.539 333.568,-189.501 335.374,-182.738"/>
</g>
<!-- Node107 -->
<g id="node4" class="node"><title>Node107</title>
<g id="a_node4"><a xlink:href="../../dc/dc9/class_sky_x_1_1_v_clouds_1_1_lightning_manager_1_1_listener.html#af265ea73234d9b7dfdb64fc017e7da88" target="_top" xlink:title="SkyX::VClouds::Lightning\lManager::Listener::lightningAdded">
<polygon fill="white" stroke="black" points="530,-243.5 530,-273.5 694,-273.5 694,-243.5 530,-243.5"/>
<text text-anchor="start" x="538" y="-261.5" font-family="Helvetica,sans-Serif" font-size="10.00">SkyX::VClouds::Lightning</text>
<text text-anchor="middle" x="612" y="-250.5" font-family="Helvetica,sans-Serif" font-size="10.00">Manager::Listener::lightningAdded</text>
</a>
</g>
</g>
<!-- Node105&#45;&gt;Node107 -->
<g id="edge6" class="edge"><title>Node105&#45;&gt;Node107</title>
<path fill="none" stroke="midnightblue" d="M292.512,-190.402C311.316,-206.154 338.914,-226.341 367,-236.5 419.096,-255.344 481.343,-260.708 529.927,-261.43"/>
<polygon fill="midnightblue" stroke="midnightblue" points="294.633,-187.611 284.768,-183.747 290.071,-192.92 294.633,-187.611"/>
</g>
<!-- Node110 -->
<g id="node7" class="node"><title>Node110</title>
<g id="a_node7"><a xlink:href="../../d5/db6/class_sky_x_1_1_v_clouds_1_1_v_clouds.html#a897f7d8b8357b460a9b1fbd559772c29" target="_top" xlink:title="SkyX::VClouds::VClouds\l::notifyCameraRender">
<polygon fill="white" stroke="black" points="368,-147.5 368,-177.5 493,-177.5 493,-147.5 368,-147.5"/>
<text text-anchor="start" x="376" y="-165.5" font-family="Helvetica,sans-Serif" font-size="10.00">SkyX::VClouds::VClouds</text>
<text text-anchor="middle" x="430.5" y="-154.5" font-family="Helvetica,sans-Serif" font-size="10.00">::notifyCameraRender</text>
</a>
</g>
</g>
<!-- Node105&#45;&gt;Node110 -->
<g id="edge7" class="edge"><title>Node105&#45;&gt;Node110</title>
<path fill="none" stroke="midnightblue" d="M341.446,-165.782C350.236,-165.454 359.148,-165.122 367.757,-164.801"/>
<polygon fill="midnightblue" stroke="midnightblue" points="341.071,-162.293 331.208,-166.163 341.331,-169.288 341.071,-162.293"/>
</g>
<!-- Node106&#45;&gt;Node107 -->
<g id="edge3" class="edge"><title>Node106&#45;&gt;Node107</title>
<path fill="none" stroke="midnightblue" d="M498.679,-229.09C516.76,-233.824 536.148,-238.901 553.64,-243.481"/>
<polygon fill="midnightblue" stroke="midnightblue" points="499.349,-225.648 488.788,-226.5 497.576,-232.419 499.349,-225.648"/>
</g>
<!-- Node108 -->
<g id="node5" class="node"><title>Node108</title>
<g id="a_node5"><a xlink:href="../../d5/db6/class_sky_x_1_1_v_clouds_1_1_v_clouds.html#acf68c63f12d3688b6adc295ca887a438" target="_top" xlink:title="SkyX::VClouds::VClouds\l::update">
<polygon fill="white" stroke="black" points="549.5,-194.5 549.5,-224.5 674.5,-224.5 674.5,-194.5 549.5,-194.5"/>
<text text-anchor="start" x="557.5" y="-212.5" font-family="Helvetica,sans-Serif" font-size="10.00">SkyX::VClouds::VClouds</text>
<text text-anchor="middle" x="612" y="-201.5" font-family="Helvetica,sans-Serif" font-size="10.00">::update</text>
</a>
</g>
</g>
<!-- Node106&#45;&gt;Node108 -->
<g id="edge4" class="edge"><title>Node106&#45;&gt;Node108</title>
<path fill="none" stroke="midnightblue" d="M504.249,-210.689C519.194,-210.523 534.791,-210.349 549.301,-210.187"/>
<polygon fill="midnightblue" stroke="midnightblue" points="503.989,-207.192 494.028,-210.803 504.067,-214.192 503.989,-207.192"/>
</g>
<!-- Node109 -->
<g id="node6" class="node"><title>Node109</title>
<g id="a_node6"><a xlink:href="../../d7/d45/class_sky_x_1_1_v_clouds_manager.html#a7c25472c85244e6889b371384b5aff70" target="_top" xlink:title="SkyX::VCloudsManager\l::update">
<polygon fill="white" stroke="black" points="730,-194.5 730,-224.5 849,-224.5 849,-194.5 730,-194.5"/>
<text text-anchor="start" x="738" y="-212.5" font-family="Helvetica,sans-Serif" font-size="10.00">SkyX::VCloudsManager</text>
<text text-anchor="middle" x="789.5" y="-201.5" font-family="Helvetica,sans-Serif" font-size="10.00">::update</text>
</a>
</g>
</g>
<!-- Node108&#45;&gt;Node109 -->
<g id="edge5" class="edge"><title>Node108&#45;&gt;Node109</title>
<path fill="none" stroke="midnightblue" d="M685.066,-209.5C699.962,-209.5 715.482,-209.5 729.831,-209.5"/>
<polygon fill="midnightblue" stroke="midnightblue" points="684.875,-206 674.875,-209.5 684.875,-213 684.875,-206"/>
</g>
<!-- Node111 -->
<g id="node8" class="node"><title>Node111</title>
<g id="a_node8"><a xlink:href="../../d7/d45/class_sky_x_1_1_v_clouds_manager.html#aa333a7f4c33035ace1076046d4a5d24e" target="_top" xlink:title="SkyX::VCloudsManager\l::notifyCameraRender">
<polygon fill="white" stroke="black" points="552.5,-145.5 552.5,-175.5 671.5,-175.5 671.5,-145.5 552.5,-145.5"/>
<text text-anchor="start" x="560.5" y="-163.5" font-family="Helvetica,sans-Serif" font-size="10.00">SkyX::VCloudsManager</text>
<text text-anchor="middle" x="612" y="-152.5" font-family="Helvetica,sans-Serif" font-size="10.00">::notifyCameraRender</text>
</a>
</g>
</g>
<!-- Node110&#45;&gt;Node111 -->
<g id="edge8" class="edge"><title>Node110&#45;&gt;Node111</title>
<path fill="none" stroke="midnightblue" d="M503.062,-161.703C519.393,-161.521 536.563,-161.329 552.284,-161.154"/>
<polygon fill="midnightblue" stroke="midnightblue" points="502.983,-158.203 493.023,-161.815 503.061,-165.203 502.983,-158.203"/>
</g>
<!-- Node113 -->
<g id="node10" class="node"><title>Node113</title>
<g id="a_node10"><a xlink:href="../../d5/db6/class_sky_x_1_1_v_clouds_1_1_v_clouds.html#ab859795b0c4a32358b726c9e1eef35c6" target="_top" xlink:title="SkyX::VClouds::VClouds\l::create">
<polygon fill="white" stroke="black" points="368,-98.5 368,-128.5 493,-128.5 493,-98.5 368,-98.5"/>
<text text-anchor="start" x="376" y="-116.5" font-family="Helvetica,sans-Serif" font-size="10.00">SkyX::VClouds::VClouds</text>
<text text-anchor="middle" x="430.5" y="-105.5" font-family="Helvetica,sans-Serif" font-size="10.00">::create</text>
</a>
</g>
</g>
<!-- Node112&#45;&gt;Node113 -->
<g id="edge10" class="edge"><title>Node112&#45;&gt;Node113</title>
<path fill="none" stroke="midnightblue" d="M340.511,-110.184C349.646,-110.524 358.927,-110.87 367.879,-111.204"/>
<polygon fill="midnightblue" stroke="midnightblue" points="340.41,-106.678 330.286,-109.803 340.149,-113.673 340.41,-106.678"/>
</g>
<!-- Node114 -->
<g id="node11" class="node"><title>Node114</title>
<g id="a_node11"><a xlink:href="../../d7/d45/class_sky_x_1_1_v_clouds_manager.html#a6931df17a25e8691796aa4d9c68467cb" target="_top" xlink:title="SkyX::VCloudsManager\l::create">
<polygon fill="white" stroke="black" points="371,-49.5 371,-79.5 490,-79.5 490,-49.5 371,-49.5"/>
<text text-anchor="start" x="379" y="-67.5" font-family="Helvetica,sans-Serif" font-size="10.00">SkyX::VCloudsManager</text>
<text text-anchor="middle" x="430.5" y="-56.5" font-family="Helvetica,sans-Serif" font-size="10.00">::create</text>
</a>
</g>
</g>
<!-- Node112&#45;&gt;Node114 -->
<g id="edge11" class="edge"><title>Node112&#45;&gt;Node114</title>
<path fill="none" stroke="midnightblue" d="M334.514,-89.8689C347.364,-86.437 360.722,-82.8692 373.222,-79.5308"/>
<polygon fill="midnightblue" stroke="midnightblue" points="333.568,-86.4988 324.81,-92.4607 335.374,-93.2617 333.568,-86.4988"/>
</g>
<!-- Node115 -->
<g id="node12" class="node"><title>Node115</title>
<g id="a_node12"><a xlink:href="../../d6/de7/class_sky_x_1_1_cfg_file_manager.html#a38d52b744527dc5b536243e8f549eb7d" target="_top" xlink:title="SkyX::CfgFileManager\l::load">
<polygon fill="white" stroke="black" points="555.5,-49.5 555.5,-79.5 668.5,-79.5 668.5,-49.5 555.5,-49.5"/>
<text text-anchor="start" x="563.5" y="-67.5" font-family="Helvetica,sans-Serif" font-size="10.00">SkyX::CfgFileManager</text>
<text text-anchor="middle" x="612" y="-56.5" font-family="Helvetica,sans-Serif" font-size="10.00">::load</text>
</a>
</g>
</g>
<!-- Node114&#45;&gt;Node115 -->
<g id="edge12" class="edge"><title>Node114&#45;&gt;Node115</title>
<path fill="none" stroke="midnightblue" d="M500.521,-64.5C518.699,-64.5 538.077,-64.5 555.446,-64.5"/>
<polygon fill="midnightblue" stroke="midnightblue" points="500.275,-61.0001 490.275,-64.5 500.275,-68.0001 500.275,-61.0001"/>
</g>
<!-- Node117 -->
<g id="node14" class="node"><title>Node117</title>
<g id="a_node14"><a xlink:href="../../d5/db6/class_sky_x_1_1_v_clouds_1_1_v_clouds.html#adebea1696a4c366dad0d2f1c2e89b89e" target="_top" xlink:title="SkyX::VClouds::VClouds\l::getWheater">
<polygon fill="white" stroke="black" points="368,-0.5 368,-30.5 493,-30.5 493,-0.5 368,-0.5"/>
<text text-anchor="start" x="376" y="-18.5" font-family="Helvetica,sans-Serif" font-size="10.00">SkyX::VClouds::VClouds</text>
<text text-anchor="middle" x="430.5" y="-7.5" font-family="Helvetica,sans-Serif" font-size="10.00">::getWheater</text>
</a>
</g>
</g>
<!-- Node116&#45;&gt;Node117 -->
<g id="edge14" class="edge"><title>Node116&#45;&gt;Node117</title>
<path fill="none" stroke="midnightblue" d="M340.511,-26.0018C349.646,-24.9238 358.927,-23.8285 367.879,-22.772"/>
<polygon fill="midnightblue" stroke="midnightblue" points="339.807,-22.5605 330.286,-27.2084 340.628,-29.5122 339.807,-22.5605"/>
</g>
</g>
</svg>
        <g id="navigator" transform="translate(0 0)" fill="#404254">
                <rect fill="#f2f5e9" fill-opacity="0.5" stroke="#606060" stroke-width=".5" x="0" y="0" width="60" height="60"/>
                <use id="zoomplus" xlink:href="#zoomPlus" x="17" y="9" onmousedown="handleZoom(evt,'in')"/>
                <use id="zoomminus" xlink:href="#zoomMin" x="42" y="9" onmousedown="handleZoom(evt,'out')"/>
                <use id="reset" xlink:href="#resetDef" x="30" y="36" onmousedown="handleReset()"/>
                <g id="arrowUp" xlink:href="#dirArrow" transform="translate(30 24)" onmousedown="handlePan(0,-1)">
                  <use xlink:href="#rim" fill="#404040">
                        <set attributeName="fill" to="#808080" begin="arrowUp.mouseover" end="arrowUp.mouseout"/>
                  </use>
                  <path fill="none" stroke="white" stroke-width="1.5" d="M0,-3.0v7 M-2.5,-0.5L0,-3.0L2.5,-0.5"/>
                </g>
                <g id="arrowRight" xlink:href="#dirArrow" transform="rotate(90) translate(36 -43)" onmousedown="handlePan(1,0)">
                  <use xlink:href="#rim" fill="#404040">
                        <set attributeName="fill" to="#808080" begin="arrowRight.mouseover" end="arrowRight.mouseout"/>
                  </use>
                  <path fill="none" stroke="white" stroke-width="1.5" d="M0,-3.0v7 M-2.5,-0.5L0,-3.0L2.5,-0.5"/>
                </g>
                <g id="arrowDown" xlink:href="#dirArrow" transform="rotate(180) translate(-30 -48)" onmousedown="handlePan(0,1)">
                  <use xlink:href="#rim" fill="#404040">
                        <set attributeName="fill" to="#808080" begin="arrowDown.mouseover" end="arrowDown.mouseout"/>
                  </use>
                  <path fill="none" stroke="white" stroke-width="1.5" d="M0,-3.0v7 M-2.5,-0.5L0,-3.0L2.5,-0.5"/>
                </g>
                <g id="arrowLeft" xlink:href="#dirArrow" transform="rotate(270) translate(-36 17)" onmousedown="handlePan(-1,0)">
                  <use xlink:href="#rim" fill="#404040">
                        <set attributeName="fill" to="#808080" begin="arrowLeft.mouseover" end="arrowLeft.mouseout"/>
                  </use>
                  <path fill="none" stroke="white" stroke-width="1.5" d="M0,-3.0v7 M-2.5,-0.5L0,-3.0L2.5,-0.5"/>
                </g>
        </g>
        <svg viewBox="0 0 15 15" width="100%" height="30px" preserveAspectRatio="xMaxYMin meet">
         <g id="arrow_out" transform="scale(0.3 0.3)">
          <a xlink:href="class_sky_x_1_1_v_clouds_1_1_geometry_manager_a2b6b9f4660a9b4d24bb85a19cca10f9d_icgraph_org.svg" target="_base">
           <rect id="button" ry="5" rx="5" y="6" x="6" height="38" width="38"
                fill="#f2f5e9" fill-opacity="0.5" stroke="#606060" stroke-width="1.0"/>
           <path id="arrow"
             d="M 11.500037,31.436501 C 11.940474,20.09759 22.043105,11.32322 32.158766,21.979434 L 37.068811,17.246167 C 37.068811,17.246167 37.088388,32 37.088388,32 L 22.160133,31.978069 C 22.160133,31.978069 26.997745,27.140456 26.997745,27.140456 C 18.528582,18.264221 13.291696,25.230495 11.500037,31.436501 z"
             style="fill:#404040;"/>
          </a>
         </g>
        </svg>
</svg>
