<?xml version="1.0" encoding="UTF-8" standalone="no"?>
<!DOCTYPE svg PUBLIC "-//W3C//DTD SVG 1.1//EN"
 "http://www.w3.org/Graphics/SVG/1.1/DTD/svg11.dtd">
<!-- Generated by graphviz version 2.38.0 (20140413.2041)
 -->
<!-- Title: SkyX::SkyX::getMeshManager Pages: 1 -->
<!--zoomable 263 -->
<svg id="main" version="1.1" xmlns="http://www.w3.org/2000/svg" xmlns:xlink="http://www.w3.org/1999/xlink" xml:space="preserve" onload="init(evt)">
<style type="text/css"><![CDATA[
.edge:hover path { stroke: red; }
.edge:hover polygon { stroke: red; fill: red; }
]]></style>
<script type="text/javascript"><![CDATA[
var edges = document.getElementsByTagName('g');
if (edges && edges.length) {
  for (var i=0;i<edges.length;i++) {
    if (edges[i].id.substr(0,4)=='edge') {
      edges[i].setAttribute('class','edge');
    }
  }
}
]]></script>
        <defs>
                <circle id="rim" cx="0" cy="0" r="7"/>
                <circle id="rim2" cx="0" cy="0" r="3.5"/>
                <g id="zoomPlus">
                        <use xlink:href="#rim" fill="#404040">
                                <set attributeName="fill" to="#808080" begin="zoomplus.mouseover" end="zoomplus.mouseout"/>
                        </use>
                        <path d="M-4,0h8M0,-4v8" fill="none" stroke="white" stroke-width="1.5" pointer-events="none"/>
                </g>
                <g id="zoomMin">
                        <use xlink:href="#rim" fill="#404040">
                                <set attributeName="fill" to="#808080" begin="zoomminus.mouseover" end="zoomminus.mouseout"/>
                        </use>
                        <path d="M-4,0h8" fill="none" stroke="white" stroke-width="1.5" pointer-events="none"/>
                </g>
                <g id="dirArrow">
                        <path fill="none" stroke="white" stroke-width="1.5" d="M0,-3.0v7 M-2.5,-0.5L0,-3.0L2.5,-0.5"/>
                </g>
               <g id="resetDef">
                       <use xlink:href="#rim2" fill="#404040">
                               <set attributeName="fill" to="#808080" begin="reset.mouseover" end="reset.mouseout"/>
                       </use>
               </g>
        </defs>

<script type="text/javascript">
var viewWidth = 1381;
var viewHeight = 263;
var sectionId = 'dynsection-9';
</script>
<script xlink:href="../../svgpan.js"/>
<svg id="graph" class="graph">
<g id="viewport">
<title>SkyX::SkyX::getMeshManager</title>
<polygon fill="white" stroke="none" points="-4,4 -4,-259 1377,-259 1377,4 -4,4"/>
<!-- Node93 -->
<g id="node1" class="node"><title>Node93</title>
<polygon fill="#bfbfbf" stroke="black" points="0,-80 0,-99 149,-99 149,-80 0,-80"/>
<text text-anchor="middle" x="74.5" y="-87" font-family="Helvetica,sans-Serif" font-size="10.00">SkyX::SkyX::getMeshManager</text>
</g>
<!-- Node94 -->
<g id="node2" class="node"><title>Node94</title>
<g id="a_node2"><a xlink:href="../../d8/d41/class_sky_x_1_1_g_p_u_manager.html#a5cdf4a1ea705ca36dc0df320c7495fd5" target="_top" xlink:title="SkyX::GPUManager::setGpu\lProgramParameter">
<polygon fill="white" stroke="black" points="185,-156.5 185,-186.5 326,-186.5 326,-156.5 185,-156.5"/>
<text text-anchor="start" x="193" y="-174.5" font-family="Helvetica,sans-Serif" font-size="10.00">SkyX::GPUManager::setGpu</text>
<text text-anchor="middle" x="255.5" y="-163.5" font-family="Helvetica,sans-Serif" font-size="10.00">ProgramParameter</text>
</a>
</g>
</g>
<!-- Node93&#45;&gt;Node94 -->
<g id="edge1" class="edge"><title>Node93&#45;&gt;Node94</title>
<path fill="none" stroke="midnightblue" d="M105.722,-103.345C137.855,-118.065 188.513,-141.271 221.625,-156.44"/>
<polygon fill="midnightblue" stroke="midnightblue" points="106.933,-100.05 96.3839,-99.0669 104.018,-106.414 106.933,-100.05"/>
</g>
<!-- Node97 -->
<g id="node5" class="node"><title>Node97</title>
<g id="a_node5"><a xlink:href="../../d6/de7/class_sky_x_1_1_cfg_file_manager.html#a38d52b744527dc5b536243e8f549eb7d" target="_top" xlink:title="SkyX::CfgFileManager\l::load">
<polygon fill="white" stroke="black" points="1260,-181.5 1260,-211.5 1373,-211.5 1373,-181.5 1260,-181.5"/>
<text text-anchor="start" x="1268" y="-199.5" font-family="Helvetica,sans-Serif" font-size="10.00">SkyX::CfgFileManager</text>
<text text-anchor="middle" x="1316.5" y="-188.5" font-family="Helvetica,sans-Serif" font-size="10.00">::load</text>
</a>
</g>
</g>
<!-- Node93&#45;&gt;Node97 -->
<g id="edge18" class="edge"><title>Node93&#45;&gt;Node97</title>
<path fill="none" stroke="midnightblue" d="M159.426,-96.5622C230.905,-101.967 336.368,-108.5 428.5,-108.5 428.5,-108.5 428.5,-108.5 987.5,-108.5 1092.95,-108.5 1125.43,-90.0428 1224,-127.5 1254.87,-139.232 1284.18,-164.761 1300.97,-181.262"/>
<polygon fill="midnightblue" stroke="midnightblue" points="159.37,-93.0478 149.132,-95.774 158.836,-100.027 159.37,-93.0478"/>
</g>
<!-- Node104 -->
<g id="node12" class="node"><title>Node104</title>
<g id="a_node12"><a xlink:href="../../dd/dab/class_sky_x_1_1_moon_manager.html#a889bc3d2b3cccf3c52d5adee66a82dfb" target="_top" xlink:title="SkyX::MoonManager::\lupdateGeometry">
<polygon fill="white" stroke="black" points="373,-49.5 373,-79.5 486,-79.5 486,-49.5 373,-49.5"/>
<text text-anchor="start" x="381" y="-67.5" font-family="Helvetica,sans-Serif" font-size="10.00">SkyX::MoonManager::</text>
<text text-anchor="middle" x="429.5" y="-56.5" font-family="Helvetica,sans-Serif" font-size="10.00">updateGeometry</text>
</a>
</g>
</g>
<!-- Node93&#45;&gt;Node104 -->
<g id="edge14" class="edge"><title>Node93&#45;&gt;Node104</title>
<path fill="none" stroke="midnightblue" d="M159.046,-83.5832C225.117,-78.9039 315.505,-72.5025 372.954,-68.4339"/>
<polygon fill="midnightblue" stroke="midnightblue" points="158.798,-80.0918 149.071,-84.2896 159.293,-87.0743 158.798,-80.0918"/>
</g>
<!-- Node105 -->
<g id="node13" class="node"><title>Node105</title>
<g id="a_node13"><a xlink:href="../../dd/dab/class_sky_x_1_1_moon_manager.html#aa6ef3ce76c121a04973fe62de56f7f86" target="_top" xlink:title="SkyX::MoonManager::\l_updateMoonBounds">
<polygon fill="white" stroke="black" points="199,-11.5 199,-41.5 312,-41.5 312,-11.5 199,-11.5"/>
<text text-anchor="start" x="207" y="-29.5" font-family="Helvetica,sans-Serif" font-size="10.00">SkyX::MoonManager::</text>
<text text-anchor="middle" x="255.5" y="-18.5" font-family="Helvetica,sans-Serif" font-size="10.00">_updateMoonBounds</text>
</a>
</g>
</g>
<!-- Node93&#45;&gt;Node105 -->
<g id="edge15" class="edge"><title>Node93&#45;&gt;Node105</title>
<path fill="none" stroke="midnightblue" d="M112.387,-76.5173C141.247,-66.36 181.422,-52.2201 211.696,-41.565"/>
<polygon fill="midnightblue" stroke="midnightblue" points="110.957,-73.3102 102.686,-79.9317 113.281,-79.9131 110.957,-73.3102"/>
</g>
<!-- Node95 -->
<g id="node3" class="node"><title>Node95</title>
<g id="a_node3"><a xlink:href="../../dd/d55/class_sky_x_1_1_atmosphere_manager.html#a806c5314af7ee02de3d25bfd4300866e" target="_top" xlink:title="SkyX::AtmosphereManager\l::_update">
<polygon fill="white" stroke="black" points="362,-165.5 362,-195.5 497,-195.5 497,-165.5 362,-165.5"/>
<text text-anchor="start" x="370" y="-183.5" font-family="Helvetica,sans-Serif" font-size="10.00">SkyX::AtmosphereManager</text>
<text text-anchor="middle" x="429.5" y="-172.5" font-family="Helvetica,sans-Serif" font-size="10.00">::_update</text>
</a>
</g>
</g>
<!-- Node94&#45;&gt;Node95 -->
<g id="edge2" class="edge"><title>Node94&#45;&gt;Node95</title>
<path fill="none" stroke="midnightblue" d="M336.703,-175.697C345.149,-176.139 353.67,-176.584 361.939,-177.017"/>
<polygon fill="midnightblue" stroke="midnightblue" points="336.628,-172.188 326.459,-175.161 336.262,-179.178 336.628,-172.188"/>
</g>
<!-- Node96 -->
<g id="node4" class="node"><title>Node96</title>
<g id="a_node4"><a xlink:href="../../dd/d55/class_sky_x_1_1_atmosphere_manager.html#ae5e002b202e13b4af6fe205ca97c7bfc" target="_top" xlink:title="SkyX::AtmosphereManager\l::setOptions">
<polygon fill="white" stroke="black" points="919,-224.5 919,-254.5 1054,-254.5 1054,-224.5 919,-224.5"/>
<text text-anchor="start" x="927" y="-242.5" font-family="Helvetica,sans-Serif" font-size="10.00">SkyX::AtmosphereManager</text>
<text text-anchor="middle" x="986.5" y="-231.5" font-family="Helvetica,sans-Serif" font-size="10.00">::setOptions</text>
</a>
</g>
</g>
<!-- Node95&#45;&gt;Node96 -->
<g id="edge3" class="edge"><title>Node95&#45;&gt;Node96</title>
<path fill="none" stroke="midnightblue" d="M477.618,-199.035C494.788,-205.01 514.523,-210.99 533,-214.5 668.269,-240.198 830.053,-242.444 918.89,-241.293"/>
<polygon fill="midnightblue" stroke="midnightblue" points="478.429,-195.608 467.834,-195.536 476.072,-202.199 478.429,-195.608"/>
</g>
<!-- Node98 -->
<g id="node6" class="node"><title>Node98</title>
<g id="a_node6"><a xlink:href="../../dd/d55/class_sky_x_1_1_atmosphere_manager.html#abcdfead934afa273afdeb542ab2633b2" target="_top" xlink:title="SkyX::AtmosphereManager\l::getOptions">
<polygon fill="white" stroke="black" points="533,-175.5 533,-205.5 668,-205.5 668,-175.5 533,-175.5"/>
<text text-anchor="start" x="541" y="-193.5" font-family="Helvetica,sans-Serif" font-size="10.00">SkyX::AtmosphereManager</text>
<text text-anchor="middle" x="600.5" y="-182.5" font-family="Helvetica,sans-Serif" font-size="10.00">::getOptions</text>
</a>
</g>
</g>
<!-- Node95&#45;&gt;Node98 -->
<g id="edge5" class="edge"><title>Node95&#45;&gt;Node98</title>
<path fill="none" stroke="midnightblue" d="M507.551,-185.059C516.019,-185.56 524.589,-186.067 532.915,-186.56"/>
<polygon fill="midnightblue" stroke="midnightblue" points="507.483,-181.549 497.293,-184.452 507.069,-188.537 507.483,-181.549"/>
</g>
<!-- Node103 -->
<g id="node11" class="node"><title>Node103</title>
<g id="a_node11"><a xlink:href="../../d8/d41/class_sky_x_1_1_g_p_u_manager.html#af949460a2e4caace1847cb0b251516a1" target="_top" xlink:title="SkyX::GPUManager::addGroundPass">
<polygon fill="white" stroke="black" points="704,-137 704,-156 883,-156 883,-137 704,-137"/>
<text text-anchor="middle" x="793.5" y="-144" font-family="Helvetica,sans-Serif" font-size="10.00">SkyX::GPUManager::addGroundPass</text>
</a>
</g>
</g>
<!-- Node95&#45;&gt;Node103 -->
<g id="edge13" class="edge"><title>Node95&#45;&gt;Node103</title>
<path fill="none" stroke="midnightblue" d="M507.259,-168.652C515.93,-167.497 524.648,-166.416 533,-165.5 589.691,-159.285 653.579,-154.579 703.778,-151.405"/>
<polygon fill="midnightblue" stroke="midnightblue" points="506.56,-165.215 497.126,-170.038 507.508,-172.151 506.56,-165.215"/>
</g>
<!-- Node96&#45;&gt;Node97 -->
<g id="edge4" class="edge"><title>Node96&#45;&gt;Node97</title>
<path fill="none" stroke="midnightblue" d="M1064.23,-233.739C1110.63,-229.753 1170.9,-223.686 1224,-215.5 1235.55,-213.72 1247.83,-211.439 1259.53,-209.079"/>
<polygon fill="midnightblue" stroke="midnightblue" points="1063.92,-230.253 1054.25,-234.583 1064.51,-237.228 1063.92,-230.253"/>
</g>
<!-- Node99 -->
<g id="node7" class="node"><title>Node99</title>
<g id="a_node7"><a xlink:href="../../d6/d50/class_sky_x_1_1_cloud_layer.html#ac21bd19a89d1a9631ede722756a0ffb2" target="_top" xlink:title="SkyX::CloudLayer::\l_updateInternalPassParameters">
<polygon fill="white" stroke="black" points="716,-175.5 716,-205.5 871,-205.5 871,-175.5 716,-175.5"/>
<text text-anchor="start" x="724" y="-193.5" font-family="Helvetica,sans-Serif" font-size="10.00">SkyX::CloudLayer::</text>
<text text-anchor="middle" x="793.5" y="-182.5" font-family="Helvetica,sans-Serif" font-size="10.00">_updateInternalPassParameters</text>
</a>
</g>
</g>
<!-- Node98&#45;&gt;Node99 -->
<g id="edge6" class="edge"><title>Node98&#45;&gt;Node99</title>
<path fill="none" stroke="midnightblue" d="M678.278,-190.5C690.617,-190.5 703.39,-190.5 715.728,-190.5"/>
<polygon fill="midnightblue" stroke="midnightblue" points="678.034,-187 668.034,-190.5 678.034,-194 678.034,-187"/>
</g>
<!-- Node98&#45;&gt;Node103 -->
<g id="edge12" class="edge"><title>Node98&#45;&gt;Node103</title>
<path fill="none" stroke="midnightblue" d="M671.701,-173.104C682.506,-170.506 693.543,-167.897 704,-165.5 717.939,-162.305 733.151,-158.98 746.969,-156.022"/>
<polygon fill="midnightblue" stroke="midnightblue" points="670.764,-169.73 661.867,-175.481 672.409,-176.534 670.764,-169.73"/>
</g>
<!-- Node100 -->
<g id="node8" class="node"><title>Node100</title>
<g id="a_node8"><a xlink:href="../../d6/d50/class_sky_x_1_1_cloud_layer.html#add18a961fbd1e2a0f2c700694d4c1069" target="_top" xlink:title="SkyX::CloudLayer::\l_registerCloudLayer">
<polygon fill="white" stroke="black" points="935,-175.5 935,-205.5 1038,-205.5 1038,-175.5 935,-175.5"/>
<text text-anchor="start" x="943" y="-193.5" font-family="Helvetica,sans-Serif" font-size="10.00">SkyX::CloudLayer::</text>
<text text-anchor="middle" x="986.5" y="-182.5" font-family="Helvetica,sans-Serif" font-size="10.00">_registerCloudLayer</text>
</a>
</g>
</g>
<!-- Node99&#45;&gt;Node100 -->
<g id="edge7" class="edge"><title>Node99&#45;&gt;Node100</title>
<path fill="none" stroke="midnightblue" d="M881.237,-190.5C899.62,-190.5 918.439,-190.5 934.94,-190.5"/>
<polygon fill="midnightblue" stroke="midnightblue" points="881.087,-187 871.086,-190.5 881.086,-194 881.087,-187"/>
</g>
<!-- Node102 -->
<g id="node10" class="node"><title>Node102</title>
<g id="a_node10"><a xlink:href="../../d6/d50/class_sky_x_1_1_cloud_layer.html#ab0033e0fd011bd90fde4bed4e0966ea2" target="_top" xlink:title="SkyX::CloudLayer::getSun\lGradient">
<polygon fill="white" stroke="black" points="1091.5,-137.5 1091.5,-167.5 1222.5,-167.5 1222.5,-137.5 1091.5,-137.5"/>
<text text-anchor="start" x="1099.5" y="-155.5" font-family="Helvetica,sans-Serif" font-size="10.00">SkyX::CloudLayer::getSun</text>
<text text-anchor="middle" x="1157" y="-144.5" font-family="Helvetica,sans-Serif" font-size="10.00">Gradient</text>
</a>
</g>
</g>
<!-- Node99&#45;&gt;Node102 -->
<g id="edge11" class="edge"><title>Node99&#45;&gt;Node102</title>
<path fill="none" stroke="midnightblue" d="M870.011,-173.535C886.11,-170.425 903.062,-167.527 919,-165.5 977.047,-158.119 1043.62,-154.926 1091.4,-153.547"/>
<polygon fill="midnightblue" stroke="midnightblue" points="869.245,-170.119 860.115,-175.493 870.604,-176.986 869.245,-170.119"/>
</g>
<!-- Node101 -->
<g id="node9" class="node"><title>Node101</title>
<g id="a_node9"><a xlink:href="../../dd/d89/class_sky_x_1_1_clouds_manager.html#a49f0f35194ca5363129f38e4958f26de" target="_top" xlink:title="SkyX::CloudsManager::add">
<polygon fill="white" stroke="black" points="1090,-187 1090,-206 1224,-206 1224,-187 1090,-187"/>
<text text-anchor="middle" x="1157" y="-194" font-family="Helvetica,sans-Serif" font-size="10.00">SkyX::CloudsManager::add</text>
</a>
</g>
</g>
<!-- Node100&#45;&gt;Node101 -->
<g id="edge8" class="edge"><title>Node100&#45;&gt;Node101</title>
<path fill="none" stroke="midnightblue" d="M1048.2,-192.662C1061.73,-193.143 1076.14,-193.656 1089.87,-194.145"/>
<polygon fill="midnightblue" stroke="midnightblue" points="1048.17,-189.158 1038.06,-192.3 1047.92,-196.154 1048.17,-189.158"/>
</g>
<!-- Node100&#45;&gt;Node102 -->
<g id="edge10" class="edge"><title>Node100&#45;&gt;Node102</title>
<path fill="none" stroke="midnightblue" d="M1048.1,-176.833C1062.16,-173.662 1077.18,-170.275 1091.41,-167.067"/>
<polygon fill="midnightblue" stroke="midnightblue" points="1047.04,-173.484 1038.06,-179.099 1048.58,-180.313 1047.04,-173.484"/>
</g>
<!-- Node101&#45;&gt;Node97 -->
<g id="edge9" class="edge"><title>Node101&#45;&gt;Node97</title>
<path fill="none" stroke="midnightblue" d="M1234.61,-196.5C1243.07,-196.5 1251.56,-196.5 1259.7,-196.5"/>
<polygon fill="midnightblue" stroke="midnightblue" points="1234.34,-193 1224.34,-196.5 1234.34,-200 1234.34,-193"/>
</g>
<!-- Node105&#45;&gt;Node104 -->
<g id="edge16" class="edge"><title>Node105&#45;&gt;Node104</title>
<path fill="none" stroke="midnightblue" d="M322.542,-41.0907C339.18,-44.7664 356.872,-48.6751 372.937,-52.2244"/>
<polygon fill="midnightblue" stroke="midnightblue" points="322.863,-37.5773 312.343,-38.8375 321.353,-44.4125 322.863,-37.5773"/>
</g>
<!-- Node106 -->
<g id="node14" class="node"><title>Node106</title>
<g id="a_node14"><a xlink:href="../../dd/dab/class_sky_x_1_1_moon_manager.html#a3abfa243e61d2c153bae197a11a21f84" target="_top" xlink:title="SkyX::MoonManager::\lisCreated">
<polygon fill="white" stroke="black" points="373,-0.5 373,-30.5 486,-30.5 486,-0.5 373,-0.5"/>
<text text-anchor="start" x="381" y="-18.5" font-family="Helvetica,sans-Serif" font-size="10.00">SkyX::MoonManager::</text>
<text text-anchor="middle" x="429.5" y="-7.5" font-family="Helvetica,sans-Serif" font-size="10.00">isCreated</text>
</a>
</g>
</g>
<!-- Node105&#45;&gt;Node106 -->
<g id="edge17" class="edge"><title>Node105&#45;&gt;Node106</title>
<path fill="none" stroke="midnightblue" d="M322.542,-22.2764C339.18,-21.2124 356.872,-20.0809 372.937,-19.0535"/>
<polygon fill="midnightblue" stroke="midnightblue" points="322.1,-18.7974 312.343,-22.9286 322.546,-25.7832 322.1,-18.7974"/>
</g>
</g>
</svg>
        <g id="navigator" transform="translate(0 0)" fill="#404254">
                <rect fill="#f2f5e9" fill-opacity="0.5" stroke="#606060" stroke-width=".5" x="0" y="0" width="60" height="60"/>
                <use id="zoomplus" xlink:href="#zoomPlus" x="17" y="9" onmousedown="handleZoom(evt,'in')"/>
                <use id="zoomminus" xlink:href="#zoomMin" x="42" y="9" onmousedown="handleZoom(evt,'out')"/>
                <use id="reset" xlink:href="#resetDef" x="30" y="36" onmousedown="handleReset()"/>
                <g id="arrowUp" xlink:href="#dirArrow" transform="translate(30 24)" onmousedown="handlePan(0,-1)">
                  <use xlink:href="#rim" fill="#404040">
                        <set attributeName="fill" to="#808080" begin="arrowUp.mouseover" end="arrowUp.mouseout"/>
                  </use>
                  <path fill="none" stroke="white" stroke-width="1.5" d="M0,-3.0v7 M-2.5,-0.5L0,-3.0L2.5,-0.5"/>
                </g>
                <g id="arrowRight" xlink:href="#dirArrow" transform="rotate(90) translate(36 -43)" onmousedown="handlePan(1,0)">
                  <use xlink:href="#rim" fill="#404040">
                        <set attributeName="fill" to="#808080" begin="arrowRight.mouseover" end="arrowRight.mouseout"/>
                  </use>
                  <path fill="none" stroke="white" stroke-width="1.5" d="M0,-3.0v7 M-2.5,-0.5L0,-3.0L2.5,-0.5"/>
                </g>
                <g id="arrowDown" xlink:href="#dirArrow" transform="rotate(180) translate(-30 -48)" onmousedown="handlePan(0,1)">
                  <use xlink:href="#rim" fill="#404040">
                        <set attributeName="fill" to="#808080" begin="arrowDown.mouseover" end="arrowDown.mouseout"/>
                  </use>
                  <path fill="none" stroke="white" stroke-width="1.5" d="M0,-3.0v7 M-2.5,-0.5L0,-3.0L2.5,-0.5"/>
                </g>
                <g id="arrowLeft" xlink:href="#dirArrow" transform="rotate(270) translate(-36 17)" onmousedown="handlePan(-1,0)">
                  <use xlink:href="#rim" fill="#404040">
                        <set attributeName="fill" to="#808080" begin="arrowLeft.mouseover" end="arrowLeft.mouseout"/>
                  </use>
                  <path fill="none" stroke="white" stroke-width="1.5" d="M0,-3.0v7 M-2.5,-0.5L0,-3.0L2.5,-0.5"/>
                </g>
        </g>
        <svg viewBox="0 0 15 15" width="100%" height="30px" preserveAspectRatio="xMaxYMin meet">
         <g id="arrow_out" transform="scale(0.3 0.3)">
          <a xlink:href="class_sky_x_1_1_sky_x_a66c1cbd869fdbeaf4bb8950f4d295ea0_icgraph_org.svg" target="_base">
           <rect id="button" ry="5" rx="5" y="6" x="6" height="38" width="38"
                fill="#f2f5e9" fill-opacity="0.5" stroke="#606060" stroke-width="1.0"/>
           <path id="arrow"
             d="M 11.500037,31.436501 C 11.940474,20.09759 22.043105,11.32322 32.158766,21.979434 L 37.068811,17.246167 C 37.068811,17.246167 37.088388,32 37.088388,32 L 22.160133,31.978069 C 22.160133,31.978069 26.997745,27.140456 26.997745,27.140456 C 18.528582,18.264221 13.291696,25.230495 11.500037,31.436501 z"
             style="fill:#404040;"/>
          </a>
         </g>
        </svg>
</svg>
