<?xml version="1.0" encoding="UTF-8" standalone="no"?>
<!DOCTYPE svg PUBLIC "-//W3C//DTD SVG 1.1//EN"
 "http://www.w3.org/Graphics/SVG/1.1/DTD/svg11.dtd">
<!-- Generated by graphviz version 2.38.0 (20140413.2041)
 -->
<!-- Title: SkyX::SkyX::getController Pages: 1 -->
<!--zoomable 229 -->
<svg id="main" version="1.1" xmlns="http://www.w3.org/2000/svg" xmlns:xlink="http://www.w3.org/1999/xlink" xml:space="preserve" onload="init(evt)">
<style type="text/css"><![CDATA[
.edge:hover path { stroke: red; }
.edge:hover polygon { stroke: red; fill: red; }
]]></style>
<script type="text/javascript"><![CDATA[
var edges = document.getElementsByTagName('g');
if (edges && edges.length) {
  for (var i=0;i<edges.length;i++) {
    if (edges[i].id.substr(0,4)=='edge') {
      edges[i].setAttribute('class','edge');
    }
  }
}
]]></script>
        <defs>
                <circle id="rim" cx="0" cy="0" r="7"/>
                <circle id="rim2" cx="0" cy="0" r="3.5"/>
                <g id="zoomPlus">
                        <use xlink:href="#rim" fill="#404040">
                                <set attributeName="fill" to="#808080" begin="zoomplus.mouseover" end="zoomplus.mouseout"/>
                        </use>
                        <path d="M-4,0h8M0,-4v8" fill="none" stroke="white" stroke-width="1.5" pointer-events="none"/>
                </g>
                <g id="zoomMin">
                        <use xlink:href="#rim" fill="#404040">
                                <set attributeName="fill" to="#808080" begin="zoomminus.mouseover" end="zoomminus.mouseout"/>
                        </use>
                        <path d="M-4,0h8" fill="none" stroke="white" stroke-width="1.5" pointer-events="none"/>
                </g>
                <g id="dirArrow">
                        <path fill="none" stroke="white" stroke-width="1.5" d="M0,-3.0v7 M-2.5,-0.5L0,-3.0L2.5,-0.5"/>
                </g>
               <g id="resetDef">
                       <use xlink:href="#rim2" fill="#404040">
                               <set attributeName="fill" to="#808080" begin="reset.mouseover" end="reset.mouseout"/>
                       </use>
               </g>
        </defs>

<script type="text/javascript">
var viewWidth = 1167;
var viewHeight = 229;
var sectionId = 'dynsection-5';
</script>
<script xlink:href="../../svgpan.js"/>
<svg id="graph" class="graph">
<g id="viewport">
<title>SkyX::SkyX::getController</title>
<polygon fill="white" stroke="none" points="-4,4 -4,-225 1163,-225 1163,4 -4,4"/>
<!-- Node39 -->
<g id="node1" class="node"><title>Node39</title>
<polygon fill="#bfbfbf" stroke="black" points="0,-125 0,-144 128,-144 128,-125 0,-125"/>
<text text-anchor="middle" x="64" y="-132" font-family="Helvetica,sans-Serif" font-size="10.00">SkyX::SkyX::getController</text>
</g>
<!-- Node40 -->
<g id="node2" class="node"><title>Node40</title>
<g id="a_node2"><a xlink:href="../../dd/d55/class_sky_x_1_1_atmosphere_manager.html#a88e37230ed8317e61149c7c95ce3a8ac" target="_top" xlink:title="SkyX::AtmosphereManager\l::getColorAt">
<polygon fill="white" stroke="black" points="164,-185.5 164,-215.5 299,-215.5 299,-185.5 164,-185.5"/>
<text text-anchor="start" x="172" y="-203.5" font-family="Helvetica,sans-Serif" font-size="10.00">SkyX::AtmosphereManager</text>
<text text-anchor="middle" x="231.5" y="-192.5" font-family="Helvetica,sans-Serif" font-size="10.00">::getColorAt</text>
</a>
</g>
</g>
<!-- Node39&#45;&gt;Node40 -->
<g id="edge1" class="edge"><title>Node39&#45;&gt;Node40</title>
<path fill="none" stroke="midnightblue" d="M98.5628,-147.885C125.822,-158.755 164.259,-174.083 192.618,-185.393"/>
<polygon fill="midnightblue" stroke="midnightblue" points="99.6503,-144.55 89.0651,-144.097 97.0573,-151.052 99.6503,-144.55"/>
</g>
<!-- Node42 -->
<g id="node4" class="node"><title>Node42</title>
<g id="a_node4"><a xlink:href="../../d6/d50/class_sky_x_1_1_cloud_layer.html#ac21bd19a89d1a9631ede722756a0ffb2" target="_top" xlink:title="SkyX::CloudLayer::\l_updateInternalPassParameters">
<polygon fill="white" stroke="black" points="518,-146.5 518,-176.5 673,-176.5 673,-146.5 518,-146.5"/>
<text text-anchor="start" x="526" y="-164.5" font-family="Helvetica,sans-Serif" font-size="10.00">SkyX::CloudLayer::</text>
<text text-anchor="middle" x="595.5" y="-153.5" font-family="Helvetica,sans-Serif" font-size="10.00">_updateInternalPassParameters</text>
</a>
</g>
</g>
<!-- Node39&#45;&gt;Node42 -->
<g id="edge10" class="edge"><title>Node39&#45;&gt;Node42</title>
<path fill="none" stroke="midnightblue" d="M138.082,-138.227C237.895,-143.316 416.032,-152.4 517.732,-157.585"/>
<polygon fill="midnightblue" stroke="midnightblue" points="138.247,-134.731 128.082,-137.717 137.891,-141.721 138.247,-134.731"/>
</g>
<!-- Node48 -->
<g id="node10" class="node"><title>Node48</title>
<g id="a_node10"><a xlink:href="../../dd/dab/class_sky_x_1_1_moon_manager.html#a889bc3d2b3cccf3c52d5adee66a82dfb" target="_top" xlink:title="SkyX::MoonManager::\lupdateGeometry">
<polygon fill="white" stroke="black" points="175,-97.5 175,-127.5 288,-127.5 288,-97.5 175,-97.5"/>
<text text-anchor="start" x="183" y="-115.5" font-family="Helvetica,sans-Serif" font-size="10.00">SkyX::MoonManager::</text>
<text text-anchor="middle" x="231.5" y="-104.5" font-family="Helvetica,sans-Serif" font-size="10.00">updateGeometry</text>
</a>
</g>
</g>
<!-- Node39&#45;&gt;Node48 -->
<g id="edge11" class="edge"><title>Node39&#45;&gt;Node48</title>
<path fill="none" stroke="midnightblue" d="M138.287,-124.758C150.593,-123.122 163.182,-121.449 174.946,-119.885"/>
<polygon fill="midnightblue" stroke="midnightblue" points="137.492,-121.333 128.041,-126.12 138.415,-128.272 137.492,-121.333"/>
</g>
<!-- Node49 -->
<g id="node11" class="node"><title>Node49</title>
<g id="a_node11"><a xlink:href="../../d7/d45/class_sky_x_1_1_v_clouds_manager.html#ae18e2c8203f4ce46607677c6171e12c2" target="_top" xlink:title="SkyX::VCloudsManager\l::_setLightParameters">
<polygon fill="white" stroke="black" points="721,-50.5 721,-80.5 840,-80.5 840,-50.5 721,-50.5"/>
<text text-anchor="start" x="729" y="-68.5" font-family="Helvetica,sans-Serif" font-size="10.00">SkyX::VCloudsManager</text>
<text text-anchor="middle" x="780.5" y="-57.5" font-family="Helvetica,sans-Serif" font-size="10.00">::_setLightParameters</text>
</a>
</g>
</g>
<!-- Node39&#45;&gt;Node49 -->
<g id="edge12" class="edge"><title>Node39&#45;&gt;Node49</title>
<path fill="none" stroke="midnightblue" d="M88.8011,-119.791C108.238,-108.637 136.839,-94.132 164,-87.5 363.439,-38.8029 609.938,-50.7764 720.723,-59.8068"/>
<polygon fill="midnightblue" stroke="midnightblue" points="86.8833,-116.859 80.0418,-124.949 90.4349,-122.891 86.8833,-116.859"/>
</g>
<!-- Node41 -->
<g id="node3" class="node"><title>Node41</title>
<g id="a_node3"><a xlink:href="../../dd/d55/class_sky_x_1_1_atmosphere_manager.html#abcdfead934afa273afdeb542ab2633b2" target="_top" xlink:title="SkyX::AtmosphereManager\l::getOptions">
<polygon fill="white" stroke="black" points="335,-185.5 335,-215.5 470,-215.5 470,-185.5 335,-185.5"/>
<text text-anchor="start" x="343" y="-203.5" font-family="Helvetica,sans-Serif" font-size="10.00">SkyX::AtmosphereManager</text>
<text text-anchor="middle" x="402.5" y="-192.5" font-family="Helvetica,sans-Serif" font-size="10.00">::getOptions</text>
</a>
</g>
</g>
<!-- Node40&#45;&gt;Node41 -->
<g id="edge2" class="edge"><title>Node40&#45;&gt;Node41</title>
<path fill="none" stroke="midnightblue" d="M309.551,-200.5C318.019,-200.5 326.589,-200.5 334.915,-200.5"/>
<polygon fill="midnightblue" stroke="midnightblue" points="309.293,-197 299.293,-200.5 309.293,-204 309.293,-197"/>
</g>
<!-- Node41&#45;&gt;Node42 -->
<g id="edge3" class="edge"><title>Node41&#45;&gt;Node42</title>
<path fill="none" stroke="midnightblue" d="M480.211,-184.837C493.675,-182.087 507.657,-179.232 521.031,-176.502"/>
<polygon fill="midnightblue" stroke="midnightblue" points="479.132,-181.485 470.034,-186.914 480.532,-188.343 479.132,-181.485"/>
</g>
<!-- Node47 -->
<g id="node9" class="node"><title>Node47</title>
<g id="a_node9"><a xlink:href="../../d8/d41/class_sky_x_1_1_g_p_u_manager.html#af949460a2e4caace1847cb0b251516a1" target="_top" xlink:title="SkyX::GPUManager::addGroundPass">
<polygon fill="white" stroke="black" points="506,-196 506,-215 685,-215 685,-196 506,-196"/>
<text text-anchor="middle" x="595.5" y="-203" font-family="Helvetica,sans-Serif" font-size="10.00">SkyX::GPUManager::addGroundPass</text>
</a>
</g>
</g>
<!-- Node41&#45;&gt;Node47 -->
<g id="edge9" class="edge"><title>Node41&#45;&gt;Node47</title>
<path fill="none" stroke="midnightblue" d="M480.161,-202.507C488.561,-202.727 497.163,-202.952 505.694,-203.175"/>
<polygon fill="midnightblue" stroke="midnightblue" points="480.123,-199.005 470.034,-202.242 479.939,-206.002 480.123,-199.005"/>
</g>
<!-- Node43 -->
<g id="node5" class="node"><title>Node43</title>
<g id="a_node5"><a xlink:href="../../d6/d50/class_sky_x_1_1_cloud_layer.html#add18a961fbd1e2a0f2c700694d4c1069" target="_top" xlink:title="SkyX::CloudLayer::\l_registerCloudLayer">
<polygon fill="white" stroke="black" points="729,-190.5 729,-220.5 832,-220.5 832,-190.5 729,-190.5"/>
<text text-anchor="start" x="737" y="-208.5" font-family="Helvetica,sans-Serif" font-size="10.00">SkyX::CloudLayer::</text>
<text text-anchor="middle" x="780.5" y="-197.5" font-family="Helvetica,sans-Serif" font-size="10.00">_registerCloudLayer</text>
</a>
</g>
</g>
<!-- Node42&#45;&gt;Node43 -->
<g id="edge4" class="edge"><title>Node42&#45;&gt;Node43</title>
<path fill="none" stroke="midnightblue" d="M668.717,-178.864C688.83,-183.7 710.245,-188.848 728.832,-193.317"/>
<polygon fill="midnightblue" stroke="midnightblue" points="669.508,-175.454 658.966,-176.519 667.871,-182.26 669.508,-175.454"/>
</g>
<!-- Node46 -->
<g id="node8" class="node"><title>Node46</title>
<g id="a_node8"><a xlink:href="../../d6/d50/class_sky_x_1_1_cloud_layer.html#ab0033e0fd011bd90fde4bed4e0966ea2" target="_top" xlink:title="SkyX::CloudLayer::getSun\lGradient">
<polygon fill="white" stroke="black" points="877.5,-147.5 877.5,-177.5 1008.5,-177.5 1008.5,-147.5 877.5,-147.5"/>
<text text-anchor="start" x="885.5" y="-165.5" font-family="Helvetica,sans-Serif" font-size="10.00">SkyX::CloudLayer::getSun</text>
<text text-anchor="middle" x="943" y="-154.5" font-family="Helvetica,sans-Serif" font-size="10.00">Gradient</text>
</a>
</g>
</g>
<!-- Node42&#45;&gt;Node46 -->
<g id="edge8" class="edge"><title>Node42&#45;&gt;Node46</title>
<path fill="none" stroke="midnightblue" d="M683.444,-161.752C743.726,-161.926 822.694,-162.155 877.423,-162.313"/>
<polygon fill="midnightblue" stroke="midnightblue" points="683.188,-158.251 673.178,-161.722 683.167,-165.251 683.188,-158.251"/>
</g>
<!-- Node44 -->
<g id="node6" class="node"><title>Node44</title>
<g id="a_node6"><a xlink:href="../../dd/d89/class_sky_x_1_1_clouds_manager.html#a49f0f35194ca5363129f38e4958f26de" target="_top" xlink:title="SkyX::CloudsManager::add">
<polygon fill="white" stroke="black" points="876,-197 876,-216 1010,-216 1010,-197 876,-197"/>
<text text-anchor="middle" x="943" y="-204" font-family="Helvetica,sans-Serif" font-size="10.00">SkyX::CloudsManager::add</text>
</a>
</g>
</g>
<!-- Node43&#45;&gt;Node44 -->
<g id="edge5" class="edge"><title>Node43&#45;&gt;Node44</title>
<path fill="none" stroke="midnightblue" d="M842.57,-205.881C853.49,-205.949 864.914,-206.02 875.966,-206.089"/>
<polygon fill="midnightblue" stroke="midnightblue" points="842.305,-202.379 832.283,-205.816 842.261,-209.379 842.305,-202.379"/>
</g>
<!-- Node43&#45;&gt;Node46 -->
<g id="edge7" class="edge"><title>Node43&#45;&gt;Node46</title>
<path fill="none" stroke="midnightblue" d="M842.085,-189.268C856.487,-185.41 871.79,-181.31 885.978,-177.509"/>
<polygon fill="midnightblue" stroke="midnightblue" points="841.037,-185.926 832.283,-191.895 842.848,-192.687 841.037,-185.926"/>
</g>
<!-- Node45 -->
<g id="node7" class="node"><title>Node45</title>
<g id="a_node7"><a xlink:href="../../d6/de7/class_sky_x_1_1_cfg_file_manager.html#a38d52b744527dc5b536243e8f549eb7d" target="_top" xlink:title="SkyX::CfgFileManager\l::load">
<polygon fill="white" stroke="black" points="1046,-98.5 1046,-128.5 1159,-128.5 1159,-98.5 1046,-98.5"/>
<text text-anchor="start" x="1054" y="-116.5" font-family="Helvetica,sans-Serif" font-size="10.00">SkyX::CfgFileManager</text>
<text text-anchor="middle" x="1102.5" y="-105.5" font-family="Helvetica,sans-Serif" font-size="10.00">::load</text>
</a>
</g>
</g>
<!-- Node44&#45;&gt;Node45 -->
<g id="edge6" class="edge"><title>Node44&#45;&gt;Node45</title>
<path fill="none" stroke="midnightblue" d="M994.226,-193.492C999.67,-191.436 1005.03,-189.111 1010,-186.5 1039.68,-170.903 1069.11,-145.086 1086.29,-128.702"/>
<polygon fill="midnightblue" stroke="midnightblue" points="992.699,-190.318 984.404,-196.908 994.999,-196.929 992.699,-190.318"/>
</g>
<!-- Node50 -->
<g id="node12" class="node"><title>Node50</title>
<g id="a_node12"><a xlink:href="../../d7/d45/class_sky_x_1_1_v_clouds_manager.html#a6931df17a25e8691796aa4d9c68467cb" target="_top" xlink:title="SkyX::VCloudsManager\l::create">
<polygon fill="white" stroke="black" points="883.5,-98.5 883.5,-128.5 1002.5,-128.5 1002.5,-98.5 883.5,-98.5"/>
<text text-anchor="start" x="891.5" y="-116.5" font-family="Helvetica,sans-Serif" font-size="10.00">SkyX::VCloudsManager</text>
<text text-anchor="middle" x="943" y="-105.5" font-family="Helvetica,sans-Serif" font-size="10.00">::create</text>
</a>
</g>
</g>
<!-- Node49&#45;&gt;Node50 -->
<g id="edge13" class="edge"><title>Node49&#45;&gt;Node50</title>
<path fill="none" stroke="midnightblue" d="M841.444,-83.4273C858.035,-88.389 875.865,-93.7213 891.836,-98.4976"/>
<polygon fill="midnightblue" stroke="midnightblue" points="842.426,-80.0679 831.843,-80.5558 840.421,-86.7744 842.426,-80.0679"/>
</g>
<!-- Node51 -->
<g id="node13" class="node"><title>Node51</title>
<g id="a_node13"><a xlink:href="../../d7/d45/class_sky_x_1_1_v_clouds_manager.html#a7c25472c85244e6889b371384b5aff70" target="_top" xlink:title="SkyX::VCloudsManager\l::update">
<polygon fill="white" stroke="black" points="883.5,-49.5 883.5,-79.5 1002.5,-79.5 1002.5,-49.5 883.5,-49.5"/>
<text text-anchor="start" x="891.5" y="-67.5" font-family="Helvetica,sans-Serif" font-size="10.00">SkyX::VCloudsManager</text>
<text text-anchor="middle" x="943" y="-56.5" font-family="Helvetica,sans-Serif" font-size="10.00">::update</text>
</a>
</g>
</g>
<!-- Node49&#45;&gt;Node51 -->
<g id="edge15" class="edge"><title>Node49&#45;&gt;Node51</title>
<path fill="none" stroke="midnightblue" d="M850.36,-65.071C861.373,-65.0023 872.678,-64.9319 883.422,-64.865"/>
<polygon fill="midnightblue" stroke="midnightblue" points="850.331,-61.571 840.353,-65.1333 850.375,-68.5708 850.331,-61.571"/>
</g>
<!-- Node52 -->
<g id="node14" class="node"><title>Node52</title>
<g id="a_node14"><a xlink:href="../../d7/d45/class_sky_x_1_1_v_clouds_manager.html#afd62d929ffeb8de654a30af55ddf490c" target="_top" xlink:title="SkyX::VCloudsManager\l::isCreated">
<polygon fill="white" stroke="black" points="883.5,-0.5 883.5,-30.5 1002.5,-30.5 1002.5,-0.5 883.5,-0.5"/>
<text text-anchor="start" x="891.5" y="-18.5" font-family="Helvetica,sans-Serif" font-size="10.00">SkyX::VCloudsManager</text>
<text text-anchor="middle" x="943" y="-7.5" font-family="Helvetica,sans-Serif" font-size="10.00">::isCreated</text>
</a>
</g>
</g>
<!-- Node49&#45;&gt;Node52 -->
<g id="edge16" class="edge"><title>Node49&#45;&gt;Node52</title>
<path fill="none" stroke="midnightblue" d="M839.348,-47.4789C857.135,-41.9378 876.518,-35.8995 893.602,-30.5774"/>
<polygon fill="midnightblue" stroke="midnightblue" points="838.162,-44.1824 829.655,-50.4984 840.244,-50.8656 838.162,-44.1824"/>
</g>
<!-- Node50&#45;&gt;Node45 -->
<g id="edge14" class="edge"><title>Node50&#45;&gt;Node45</title>
<path fill="none" stroke="midnightblue" d="M1012.74,-113.5C1023.83,-113.5 1035.2,-113.5 1045.94,-113.5"/>
<polygon fill="midnightblue" stroke="midnightblue" points="1012.65,-110 1002.65,-113.5 1012.65,-117 1012.65,-110"/>
</g>
<!-- Node52&#45;&gt;Node45 -->
<g id="edge17" class="edge"><title>Node52&#45;&gt;Node45</title>
<path fill="none" stroke="midnightblue" d="M1000.61,-34.6461C1003.84,-36.1799 1006.99,-37.7987 1010,-39.5 1039.35,-56.0861 1068.88,-82.0328 1086.16,-98.3835"/>
<polygon fill="midnightblue" stroke="midnightblue" points="1001.93,-31.4047 991.373,-30.5507 999.096,-37.8038 1001.93,-31.4047"/>
</g>
</g>
</svg>
        <g id="navigator" transform="translate(0 0)" fill="#404254">
                <rect fill="#f2f5e9" fill-opacity="0.5" stroke="#606060" stroke-width=".5" x="0" y="0" width="60" height="60"/>
                <use id="zoomplus" xlink:href="#zoomPlus" x="17" y="9" onmousedown="handleZoom(evt,'in')"/>
                <use id="zoomminus" xlink:href="#zoomMin" x="42" y="9" onmousedown="handleZoom(evt,'out')"/>
                <use id="reset" xlink:href="#resetDef" x="30" y="36" onmousedown="handleReset()"/>
                <g id="arrowUp" xlink:href="#dirArrow" transform="translate(30 24)" onmousedown="handlePan(0,-1)">
                  <use xlink:href="#rim" fill="#404040">
                        <set attributeName="fill" to="#808080" begin="arrowUp.mouseover" end="arrowUp.mouseout"/>
                  </use>
                  <path fill="none" stroke="white" stroke-width="1.5" d="M0,-3.0v7 M-2.5,-0.5L0,-3.0L2.5,-0.5"/>
                </g>
                <g id="arrowRight" xlink:href="#dirArrow" transform="rotate(90) translate(36 -43)" onmousedown="handlePan(1,0)">
                  <use xlink:href="#rim" fill="#404040">
                        <set attributeName="fill" to="#808080" begin="arrowRight.mouseover" end="arrowRight.mouseout"/>
                  </use>
                  <path fill="none" stroke="white" stroke-width="1.5" d="M0,-3.0v7 M-2.5,-0.5L0,-3.0L2.5,-0.5"/>
                </g>
                <g id="arrowDown" xlink:href="#dirArrow" transform="rotate(180) translate(-30 -48)" onmousedown="handlePan(0,1)">
                  <use xlink:href="#rim" fill="#404040">
                        <set attributeName="fill" to="#808080" begin="arrowDown.mouseover" end="arrowDown.mouseout"/>
                  </use>
                  <path fill="none" stroke="white" stroke-width="1.5" d="M0,-3.0v7 M-2.5,-0.5L0,-3.0L2.5,-0.5"/>
                </g>
                <g id="arrowLeft" xlink:href="#dirArrow" transform="rotate(270) translate(-36 17)" onmousedown="handlePan(-1,0)">
                  <use xlink:href="#rim" fill="#404040">
                        <set attributeName="fill" to="#808080" begin="arrowLeft.mouseover" end="arrowLeft.mouseout"/>
                  </use>
                  <path fill="none" stroke="white" stroke-width="1.5" d="M0,-3.0v7 M-2.5,-0.5L0,-3.0L2.5,-0.5"/>
                </g>
        </g>
        <svg viewBox="0 0 15 15" width="100%" height="30px" preserveAspectRatio="xMaxYMin meet">
         <g id="arrow_out" transform="scale(0.3 0.3)">
          <a xlink:href="class_sky_x_1_1_sky_x_aa964a6849d5e2b76b0a595c8712f3761_icgraph_org.svg" target="_base">
           <rect id="button" ry="5" rx="5" y="6" x="6" height="38" width="38"
                fill="#f2f5e9" fill-opacity="0.5" stroke="#606060" stroke-width="1.0"/>
           <path id="arrow"
             d="M 11.500037,31.436501 C 11.940474,20.09759 22.043105,11.32322 32.158766,21.979434 L 37.068811,17.246167 C 37.068811,17.246167 37.088388,32 37.088388,32 L 22.160133,31.978069 C 22.160133,31.978069 26.997745,27.140456 26.997745,27.140456 C 18.528582,18.264221 13.291696,25.230495 11.500037,31.436501 z"
             style="fill:#404040;"/>
          </a>
         </g>
        </svg>
</svg>
