<?xml version="1.0" encoding="UTF-8" standalone="no"?>
<!DOCTYPE svg PUBLIC "-//W3C//DTD SVG 1.1//EN"
 "http://www.w3.org/Graphics/SVG/1.1/DTD/svg11.dtd">
<!-- Generated by graphviz version 2.38.0 (20140413.2041)
 -->
<!-- Title: CameraBehaviorFixed::activate Pages: 1 -->
<svg width="515pt" height="152pt"
 viewBox="0.00 0.00 515.00 151.50" xmlns="http://www.w3.org/2000/svg" xmlns:xlink="http://www.w3.org/1999/xlink">
<g id="graph0" class="graph" transform="scale(1 1) rotate(0) translate(4 147.5)">
<title>CameraBehaviorFixed::activate</title>
<polygon fill="white" stroke="none" points="-4,4 -4,-147.5 511,-147.5 511,4 -4,4"/>
<!-- Node0 -->
<g id="node1" class="node"><title>Node0</title>
<polygon fill="#bfbfbf" stroke="black" points="0,-57.5 0,-87.5 111,-87.5 111,-57.5 0,-57.5"/>
<text text-anchor="start" x="8" y="-75.5" font-family="Helvetica,sans-Serif" font-size="10.00">CameraBehaviorFixed</text>
<text text-anchor="middle" x="55.5" y="-64.5" font-family="Helvetica,sans-Serif" font-size="10.00">::activate</text>
</g>
<!-- Node1 -->
<g id="node2" class="node"><title>Node1</title>
<g id="a_node2"><a xlink:href="../../df/d86/namespace_ro_r_1_1_app.html#aa04ed1e7b697aa1f33f1bb1297cb3e48" target="_top" xlink:title="RoR::App::GetConsole">
<polygon fill="white" stroke="black" points="175,-123 175,-142 291,-142 291,-123 175,-123"/>
<text text-anchor="middle" x="233" y="-130" font-family="Helvetica,sans-Serif" font-size="10.00">RoR::App::GetConsole</text>
</a>
</g>
</g>
<!-- Node0&#45;&gt;Node1 -->
<g id="edge1" class="edge"><title>Node0&#45;&gt;Node1</title>
<path fill="none" stroke="midnightblue" d="M89.1589,-87.5577C106.176,-95.0585 127.463,-103.908 147,-110.5 157.616,-114.082 169.143,-117.42 180.182,-120.36"/>
<polygon fill="midnightblue" stroke="midnightblue" points="179.585,-123.821 190.143,-122.943 181.342,-117.045 179.585,-123.821"/>
</g>
<!-- Node3 -->
<g id="node4" class="node"><title>Node3</title>
<g id="a_node4"><a xlink:href="../../d0/d9f/class_ro_r_1_1_console.html#a6883dfc6a1d760581a917e101b6357c5" target="_top" xlink:title="RoR::Console::putMessage">
<polygon fill="white" stroke="black" points="165,-82 165,-101 301,-101 301,-82 165,-82"/>
<text text-anchor="middle" x="233" y="-89" font-family="Helvetica,sans-Serif" font-size="10.00">RoR::Console::putMessage</text>
</a>
</g>
</g>
<!-- Node0&#45;&gt;Node3 -->
<g id="edge3" class="edge"><title>Node0&#45;&gt;Node3</title>
<path fill="none" stroke="midnightblue" d="M111.067,-78.4076C124.884,-79.9034 139.988,-81.5386 154.695,-83.1307"/>
<polygon fill="midnightblue" stroke="midnightblue" points="154.473,-86.6272 164.792,-84.2239 155.227,-79.6678 154.473,-86.6272"/>
</g>
<!-- Node5 -->
<g id="node6" class="node"><title>Node5</title>
<g id="a_node6"><a xlink:href="../../df/d86/namespace_ro_r_1_1_app.html#a68d6403d2b36006a6fa2d28f5ba8f12f" target="_top" xlink:title="RoR::App::GetGuiManager">
<polygon fill="white" stroke="black" points="166.5,-44 166.5,-63 299.5,-63 299.5,-44 166.5,-44"/>
<text text-anchor="middle" x="233" y="-51" font-family="Helvetica,sans-Serif" font-size="10.00">RoR::App::GetGuiManager</text>
</a>
</g>
</g>
<!-- Node0&#45;&gt;Node5 -->
<g id="edge5" class="edge"><title>Node0&#45;&gt;Node5</title>
<path fill="none" stroke="midnightblue" d="M111.067,-66.5924C125.293,-65.0524 140.883,-63.3646 155.999,-61.7281"/>
<polygon fill="midnightblue" stroke="midnightblue" points="156.8,-65.1618 166.366,-60.6057 156.047,-58.2025 156.8,-65.1618"/>
</g>
<!-- Node6 -->
<g id="node7" class="node"><title>Node6</title>
<g id="a_node7"><a xlink:href="../../d8/d11/class_ro_r_1_1_g_u_i_manager.html#a534a8e82d1b92384767ab1c555126bba" target="_top" xlink:title="RoR::GUIManager::PushNotification">
<polygon fill="white" stroke="black" points="147,-6 147,-25 319,-25 319,-6 147,-6"/>
<text text-anchor="middle" x="233" y="-13" font-family="Helvetica,sans-Serif" font-size="10.00">RoR::GUIManager::PushNotification</text>
</a>
</g>
</g>
<!-- Node0&#45;&gt;Node6 -->
<g id="edge6" class="edge"><title>Node0&#45;&gt;Node6</title>
<path fill="none" stroke="midnightblue" d="M88.649,-57.3572C105.711,-49.7431 127.193,-40.8168 147,-34.5 155.076,-31.9242 163.692,-29.5654 172.223,-27.4521"/>
<polygon fill="midnightblue" stroke="midnightblue" points="173.245,-30.8068 182.162,-25.0856 171.623,-23.9971 173.245,-30.8068"/>
</g>
<!-- Node2 -->
<g id="node3" class="node"><title>Node2</title>
<g id="a_node3"><a xlink:href="../../d8/d11/class_ro_r_1_1_g_u_i_manager.html#a982bc848eb4330aa9e57a54bfc60d975" target="_top" xlink:title="RoR::GUIManager::GetConsole">
<polygon fill="white" stroke="black" points="355,-124 355,-143 507,-143 507,-124 355,-124"/>
<text text-anchor="middle" x="431" y="-131" font-family="Helvetica,sans-Serif" font-size="10.00">RoR::GUIManager::GetConsole</text>
</a>
</g>
</g>
<!-- Node1&#45;&gt;Node2 -->
<g id="edge2" class="edge"><title>Node1&#45;&gt;Node2</title>
<path fill="none" stroke="midnightblue" d="M291.218,-132.792C307.92,-132.877 326.545,-132.972 344.591,-133.064"/>
<polygon fill="midnightblue" stroke="midnightblue" points="344.817,-136.565 354.834,-133.117 344.852,-129.565 344.817,-136.565"/>
</g>
<!-- Node4 -->
<g id="node5" class="node"><title>Node4</title>
<g id="a_node5"><a xlink:href="../../dd/df6/class_inter_thread_store_vector.html#a88d3f7e3e3ce109e13af1c46a12a50b0" target="_top" xlink:title="InterThreadStoreVector\l\&lt; ConsoleMessage \&gt;::push">
<polygon fill="white" stroke="black" points="362.5,-74.5 362.5,-104.5 499.5,-104.5 499.5,-74.5 362.5,-74.5"/>
<text text-anchor="start" x="370.5" y="-92.5" font-family="Helvetica,sans-Serif" font-size="10.00">InterThreadStoreVector</text>
<text text-anchor="middle" x="431" y="-81.5" font-family="Helvetica,sans-Serif" font-size="10.00">&lt; ConsoleMessage &gt;::push</text>
</a>
</g>
</g>
<!-- Node3&#45;&gt;Node4 -->
<g id="edge4" class="edge"><title>Node3&#45;&gt;Node4</title>
<path fill="none" stroke="midnightblue" d="M301.178,-90.8145C317.513,-90.6478 335.12,-90.4682 351.913,-90.2968"/>
<polygon fill="midnightblue" stroke="midnightblue" points="352.281,-93.7933 362.245,-90.1914 352.209,-86.7937 352.281,-93.7933"/>
</g>
<!-- Node7 -->
<g id="node8" class="node"><title>Node7</title>
<g id="a_node8"><a xlink:href="../../db/d12/class_ro_r_1_1_g_u_i_1_1_sim_utils.html#ac18f8c423994b93276f5f33b22e53d41" target="_top" xlink:title="RoR::GUI::SimUtils\l::PushNotification">
<polygon fill="white" stroke="black" points="380.5,-0.5 380.5,-30.5 481.5,-30.5 481.5,-0.5 380.5,-0.5"/>
<text text-anchor="start" x="388.5" y="-18.5" font-family="Helvetica,sans-Serif" font-size="10.00">RoR::GUI::SimUtils</text>
<text text-anchor="middle" x="431" y="-7.5" font-family="Helvetica,sans-Serif" font-size="10.00">::PushNotification</text>
</a>
</g>
</g>
<!-- Node6&#45;&gt;Node7 -->
<g id="edge7" class="edge"><title>Node6&#45;&gt;Node7</title>
<path fill="none" stroke="midnightblue" d="M319.113,-15.5C336.232,-15.5 353.885,-15.5 369.933,-15.5"/>
<polygon fill="midnightblue" stroke="midnightblue" points="370.225,-19.0001 380.225,-15.5 370.225,-12.0001 370.225,-19.0001"/>
</g>
</g>
</svg>
