<?xml version="1.0" encoding="UTF-8" standalone="no"?>
<!DOCTYPE svg PUBLIC "-//W3C//DTD SVG 1.1//EN"
 "http://www.w3.org/Graphics/SVG/1.1/DTD/svg11.dtd">
<!-- Generated by graphviz version 2.38.0 (20140413.2041)
 -->
<!-- Title: OgreImGui::ImGUIRenderable::setMaterial Pages: 1 -->
<svg width="515pt" height="88pt"
 viewBox="0.00 0.00 515.00 88.00" xmlns="http://www.w3.org/2000/svg" xmlns:xlink="http://www.w3.org/1999/xlink">
<g id="graph0" class="graph" transform="scale(1 1) rotate(0) translate(4 84)">
<title>OgreImGui::ImGUIRenderable::setMaterial</title>
<polygon fill="white" stroke="none" points="-4,4 -4,-84 511,-84 511,4 -4,4"/>
<!-- Node30 -->
<g id="node1" class="node"><title>Node30</title>
<polygon fill="#bfbfbf" stroke="black" points="0,-24.5 0,-54.5 145,-54.5 145,-24.5 0,-24.5"/>
<text text-anchor="start" x="8" y="-42.5" font-family="Helvetica,sans-Serif" font-size="10.00">OgreImGui::ImGUIRenderable</text>
<text text-anchor="middle" x="72.5" y="-31.5" font-family="Helvetica,sans-Serif" font-size="10.00">::setMaterial</text>
</g>
<!-- Node31 -->
<g id="node2" class="node"><title>Node31</title>
<g id="a_node2"><a xlink:href="../../dd/db8/class_ogre_im_gui_1_1_im_g_u_i_renderable.html#a895aba3721b5426ffe16f3223599e970" target="_top" xlink:title="OgreImGui::ImGUIRenderable\l::initImGUIRenderable">
<polygon fill="white" stroke="black" points="181,-49.5 181,-79.5 326,-79.5 326,-49.5 181,-49.5"/>
<text text-anchor="start" x="189" y="-67.5" font-family="Helvetica,sans-Serif" font-size="10.00">OgreImGui::ImGUIRenderable</text>
<text text-anchor="middle" x="253.5" y="-56.5" font-family="Helvetica,sans-Serif" font-size="10.00">::initImGUIRenderable</text>
</a>
</g>
</g>
<!-- Node30&#45;&gt;Node31 -->
<g id="edge1" class="edge"><title>Node30&#45;&gt;Node31</title>
<path fill="none" stroke="midnightblue" d="M155.043,-50.8887C163.638,-52.0891 172.332,-53.3034 180.804,-54.4866"/>
<polygon fill="midnightblue" stroke="midnightblue" points="155.405,-47.4054 145.017,-49.4884 154.437,-54.3381 155.405,-47.4054"/>
</g>
<!-- Node33 -->
<g id="node4" class="node"><title>Node33</title>
<g id="a_node4"><a xlink:href="../../dd/db8/class_ogre_im_gui_1_1_im_g_u_i_renderable.html#adaeaf9dde3f40934935c57b0d3a77c3d" target="_top" xlink:title="OgreImGui::ImGUIRenderable\l::getSquaredViewDepth">
<polygon fill="white" stroke="black" points="181,-0.5 181,-30.5 326,-30.5 326,-0.5 181,-0.5"/>
<text text-anchor="start" x="189" y="-18.5" font-family="Helvetica,sans-Serif" font-size="10.00">OgreImGui::ImGUIRenderable</text>
<text text-anchor="middle" x="253.5" y="-7.5" font-family="Helvetica,sans-Serif" font-size="10.00">::getSquaredViewDepth</text>
</a>
</g>
</g>
<!-- Node30&#45;&gt;Node33 -->
<g id="edge3" class="edge"><title>Node30&#45;&gt;Node33</title>
<path fill="none" stroke="midnightblue" d="M155.043,-28.5669C163.638,-27.4144 172.332,-26.2488 180.804,-25.1128"/>
<polygon fill="midnightblue" stroke="midnightblue" points="154.463,-25.1132 145.017,-29.9111 155.394,-32.0511 154.463,-25.1132"/>
</g>
<!-- Node32 -->
<g id="node3" class="node"><title>Node32</title>
<g id="a_node3"><a xlink:href="../../dd/db8/class_ogre_im_gui_1_1_im_g_u_i_renderable.html#a502fc3443f06290a500cdda2b1bd8019" target="_top" xlink:title="OgreImGui::ImGUIRenderable\l::ImGUIRenderable">
<polygon fill="white" stroke="black" points="362,-49.5 362,-79.5 507,-79.5 507,-49.5 362,-49.5"/>
<text text-anchor="start" x="370" y="-67.5" font-family="Helvetica,sans-Serif" font-size="10.00">OgreImGui::ImGUIRenderable</text>
<text text-anchor="middle" x="434.5" y="-56.5" font-family="Helvetica,sans-Serif" font-size="10.00">::ImGUIRenderable</text>
</a>
</g>
</g>
<!-- Node31&#45;&gt;Node32 -->
<g id="edge2" class="edge"><title>Node31&#45;&gt;Node32</title>
<path fill="none" stroke="midnightblue" d="M336.043,-64.5C344.638,-64.5 353.332,-64.5 361.804,-64.5"/>
<polygon fill="midnightblue" stroke="midnightblue" points="336.017,-61.0001 326.017,-64.5 336.017,-68.0001 336.017,-61.0001"/>
</g>
</g>
</svg>
