<?xml version="1.0" encoding="UTF-8" standalone="no"?>
<!DOCTYPE svg PUBLIC "-//W3C//DTD SVG 1.1//EN"
 "http://www.w3.org/Graphics/SVG/1.1/DTD/svg11.dtd">
<!-- Generated by graphviz version 2.38.0 (20140413.2041)
 -->
<!-- Title: OgreImGui::ImGUIRenderable::setMaterial Pages: 1 -->
<!--zoomable 88 -->
<svg id="main" version="1.1" xmlns="http://www.w3.org/2000/svg" xmlns:xlink="http://www.w3.org/1999/xlink" xml:space="preserve" onload="init(evt)">
<style type="text/css"><![CDATA[
.edge:hover path { stroke: red; }
.edge:hover polygon { stroke: red; fill: red; }
]]></style>
<script type="text/javascript"><![CDATA[
var edges = document.getElementsByTagName('g');
if (edges && edges.length) {
  for (var i=0;i<edges.length;i++) {
    if (edges[i].id.substr(0,4)=='edge') {
      edges[i].setAttribute('class','edge');
    }
  }
}
]]></script>
        <defs>
                <circle id="rim" cx="0" cy="0" r="7"/>
                <circle id="rim2" cx="0" cy="0" r="3.5"/>
                <g id="zoomPlus">
                        <use xlink:href="#rim" fill="#404040">
                                <set attributeName="fill" to="#808080" begin="zoomplus.mouseover" end="zoomplus.mouseout"/>
                        </use>
                        <path d="M-4,0h8M0,-4v8" fill="none" stroke="white" stroke-width="1.5" pointer-events="none"/>
                </g>
                <g id="zoomMin">
                        <use xlink:href="#rim" fill="#404040">
                                <set attributeName="fill" to="#808080" begin="zoomminus.mouseover" end="zoomminus.mouseout"/>
                        </use>
                        <path d="M-4,0h8" fill="none" stroke="white" stroke-width="1.5" pointer-events="none"/>
                </g>
                <g id="dirArrow">
                        <path fill="none" stroke="white" stroke-width="1.5" d="M0,-3.0v7 M-2.5,-0.5L0,-3.0L2.5,-0.5"/>
                </g>
               <g id="resetDef">
                       <use xlink:href="#rim2" fill="#404040">
                               <set attributeName="fill" to="#808080" begin="reset.mouseover" end="reset.mouseout"/>
                       </use>
               </g>
        </defs>

<script type="text/javascript">
var viewWidth = 515;
var viewHeight = 88;
var sectionId = 'dynsection-10';
</script>
<script xlink:href="../../svgpan.js"/>
<svg id="graph" class="graph">
<g id="viewport">
<title>OgreImGui::ImGUIRenderable::setMaterial</title>
<polygon fill="white" stroke="none" points="-4,4 -4,-84 511,-84 511,4 -4,4"/>
<!-- Node30 -->
<g id="node1" class="node"><title>Node30</title>
<polygon fill="#bfbfbf" stroke="black" points="0,-24.5 0,-54.5 145,-54.5 145,-24.5 0,-24.5"/>
<text text-anchor="start" x="8" y="-42.5" font-family="Helvetica,sans-Serif" font-size="10.00">OgreImGui::ImGUIRenderable</text>
<text text-anchor="middle" x="72.5" y="-31.5" font-family="Helvetica,sans-Serif" font-size="10.00">::setMaterial</text>
</g>
<!-- Node31 -->
<g id="node2" class="node"><title>Node31</title>
<g id="a_node2"><a xlink:href="../../dd/db8/class_ogre_im_gui_1_1_im_g_u_i_renderable.html#a895aba3721b5426ffe16f3223599e970" target="_top" xlink:title="OgreImGui::ImGUIRenderable\l::initImGUIRenderable">
<polygon fill="white" stroke="black" points="181,-49.5 181,-79.5 326,-79.5 326,-49.5 181,-49.5"/>
<text text-anchor="start" x="189" y="-67.5" font-family="Helvetica,sans-Serif" font-size="10.00">OgreImGui::ImGUIRenderable</text>
<text text-anchor="middle" x="253.5" y="-56.5" font-family="Helvetica,sans-Serif" font-size="10.00">::initImGUIRenderable</text>
</a>
</g>
</g>
<!-- Node30&#45;&gt;Node31 -->
<g id="edge1" class="edge"><title>Node30&#45;&gt;Node31</title>
<path fill="none" stroke="midnightblue" d="M155.043,-50.8887C163.638,-52.0891 172.332,-53.3034 180.804,-54.4866"/>
<polygon fill="midnightblue" stroke="midnightblue" points="155.405,-47.4054 145.017,-49.4884 154.437,-54.3381 155.405,-47.4054"/>
</g>
<!-- Node33 -->
<g id="node4" class="node"><title>Node33</title>
<g id="a_node4"><a xlink:href="../../dd/db8/class_ogre_im_gui_1_1_im_g_u_i_renderable.html#adaeaf9dde3f40934935c57b0d3a77c3d" target="_top" xlink:title="OgreImGui::ImGUIRenderable\l::getSquaredViewDepth">
<polygon fill="white" stroke="black" points="181,-0.5 181,-30.5 326,-30.5 326,-0.5 181,-0.5"/>
<text text-anchor="start" x="189" y="-18.5" font-family="Helvetica,sans-Serif" font-size="10.00">OgreImGui::ImGUIRenderable</text>
<text text-anchor="middle" x="253.5" y="-7.5" font-family="Helvetica,sans-Serif" font-size="10.00">::getSquaredViewDepth</text>
</a>
</g>
</g>
<!-- Node30&#45;&gt;Node33 -->
<g id="edge3" class="edge"><title>Node30&#45;&gt;Node33</title>
<path fill="none" stroke="midnightblue" d="M155.043,-28.5669C163.638,-27.4144 172.332,-26.2488 180.804,-25.1128"/>
<polygon fill="midnightblue" stroke="midnightblue" points="154.463,-25.1132 145.017,-29.9111 155.394,-32.0511 154.463,-25.1132"/>
</g>
<!-- Node32 -->
<g id="node3" class="node"><title>Node32</title>
<g id="a_node3"><a xlink:href="../../dd/db8/class_ogre_im_gui_1_1_im_g_u_i_renderable.html#a502fc3443f06290a500cdda2b1bd8019" target="_top" xlink:title="OgreImGui::ImGUIRenderable\l::ImGUIRenderable">
<polygon fill="white" stroke="black" points="362,-49.5 362,-79.5 507,-79.5 507,-49.5 362,-49.5"/>
<text text-anchor="start" x="370" y="-67.5" font-family="Helvetica,sans-Serif" font-size="10.00">OgreImGui::ImGUIRenderable</text>
<text text-anchor="middle" x="434.5" y="-56.5" font-family="Helvetica,sans-Serif" font-size="10.00">::ImGUIRenderable</text>
</a>
</g>
</g>
<!-- Node31&#45;&gt;Node32 -->
<g id="edge2" class="edge"><title>Node31&#45;&gt;Node32</title>
<path fill="none" stroke="midnightblue" d="M336.043,-64.5C344.638,-64.5 353.332,-64.5 361.804,-64.5"/>
<polygon fill="midnightblue" stroke="midnightblue" points="336.017,-61.0001 326.017,-64.5 336.017,-68.0001 336.017,-61.0001"/>
</g>
</g>
</svg>
        <g id="navigator" transform="translate(0 0)" fill="#404254">
                <rect fill="#f2f5e9" fill-opacity="0.5" stroke="#606060" stroke-width=".5" x="0" y="0" width="60" height="60"/>
                <use id="zoomplus" xlink:href="#zoomPlus" x="17" y="9" onmousedown="handleZoom(evt,'in')"/>
                <use id="zoomminus" xlink:href="#zoomMin" x="42" y="9" onmousedown="handleZoom(evt,'out')"/>
                <use id="reset" xlink:href="#resetDef" x="30" y="36" onmousedown="handleReset()"/>
                <g id="arrowUp" xlink:href="#dirArrow" transform="translate(30 24)" onmousedown="handlePan(0,-1)">
                  <use xlink:href="#rim" fill="#404040">
                        <set attributeName="fill" to="#808080" begin="arrowUp.mouseover" end="arrowUp.mouseout"/>
                  </use>
                  <path fill="none" stroke="white" stroke-width="1.5" d="M0,-3.0v7 M-2.5,-0.5L0,-3.0L2.5,-0.5"/>
                </g>
                <g id="arrowRight" xlink:href="#dirArrow" transform="rotate(90) translate(36 -43)" onmousedown="handlePan(1,0)">
                  <use xlink:href="#rim" fill="#404040">
                        <set attributeName="fill" to="#808080" begin="arrowRight.mouseover" end="arrowRight.mouseout"/>
                  </use>
                  <path fill="none" stroke="white" stroke-width="1.5" d="M0,-3.0v7 M-2.5,-0.5L0,-3.0L2.5,-0.5"/>
                </g>
                <g id="arrowDown" xlink:href="#dirArrow" transform="rotate(180) translate(-30 -48)" onmousedown="handlePan(0,1)">
                  <use xlink:href="#rim" fill="#404040">
                        <set attributeName="fill" to="#808080" begin="arrowDown.mouseover" end="arrowDown.mouseout"/>
                  </use>
                  <path fill="none" stroke="white" stroke-width="1.5" d="M0,-3.0v7 M-2.5,-0.5L0,-3.0L2.5,-0.5"/>
                </g>
                <g id="arrowLeft" xlink:href="#dirArrow" transform="rotate(270) translate(-36 17)" onmousedown="handlePan(-1,0)">
                  <use xlink:href="#rim" fill="#404040">
                        <set attributeName="fill" to="#808080" begin="arrowLeft.mouseover" end="arrowLeft.mouseout"/>
                  </use>
                  <path fill="none" stroke="white" stroke-width="1.5" d="M0,-3.0v7 M-2.5,-0.5L0,-3.0L2.5,-0.5"/>
                </g>
        </g>
        <svg viewBox="0 0 15 15" width="100%" height="30px" preserveAspectRatio="xMaxYMin meet">
         <g id="arrow_out" transform="scale(0.3 0.3)">
          <a xlink:href="class_ogre_im_gui_1_1_im_g_u_i_renderable_acb7dea2ce67fa5c53fbb128745405fb7_icgraph_org.svg" target="_base">
           <rect id="button" ry="5" rx="5" y="6" x="6" height="38" width="38"
                fill="#f2f5e9" fill-opacity="0.5" stroke="#606060" stroke-width="1.0"/>
           <path id="arrow"
             d="M 11.500037,31.436501 C 11.940474,20.09759 22.043105,11.32322 32.158766,21.979434 L 37.068811,17.246167 C 37.068811,17.246167 37.088388,32 37.088388,32 L 22.160133,31.978069 C 22.160133,31.978069 26.997745,27.140456 26.997745,27.140456 C 18.528582,18.264221 13.291696,25.230495 11.500037,31.436501 z"
             style="fill:#404040;"/>
          </a>
         </g>
        </svg>
</svg>
