<?xml version="1.0" encoding="UTF-8" standalone="no"?>
<!DOCTYPE svg PUBLIC "-//W3C//DTD SVG 1.1//EN"
 "http://www.w3.org/Graphics/SVG/1.1/DTD/svg11.dtd">
<!-- Generated by graphviz version 2.38.0 (20140413.2041)
 -->
<!-- Title: CScriptAny::Release Pages: 1 -->
<svg width="682pt" height="28pt"
 viewBox="0.00 0.00 682.00 28.00" xmlns="http://www.w3.org/2000/svg" xmlns:xlink="http://www.w3.org/1999/xlink">
<g id="graph0" class="graph" transform="scale(1 1) rotate(0) translate(4 24)">
<title>CScriptAny::Release</title>
<polygon fill="white" stroke="none" points="-4,4 -4,-24 678,-24 678,4 -4,4"/>
<!-- Node56 -->
<g id="node1" class="node"><title>Node56</title>
<polygon fill="#bfbfbf" stroke="black" points="0,-0.5 0,-19.5 107,-19.5 107,-0.5 0,-0.5"/>
<text text-anchor="middle" x="53.5" y="-7.5" font-family="Helvetica,sans-Serif" font-size="10.00">CScriptAny::Release</text>
</g>
<!-- Node57 -->
<g id="node2" class="node"><title>Node57</title>
<g id="a_node2"><a xlink:href="../../d2/d49/scriptany_8cpp.html#a75d73090901bbe00e3071191e42037ec" target="_top" xlink:title="ScriptAny_Release_Generic">
<polygon fill="white" stroke="black" points="143,-0.5 143,-19.5 282,-19.5 282,-0.5 143,-0.5"/>
<text text-anchor="middle" x="212.5" y="-7.5" font-family="Helvetica,sans-Serif" font-size="10.00">ScriptAny_Release_Generic</text>
</a>
</g>
</g>
<!-- Node56&#45;&gt;Node57 -->
<g id="edge1" class="edge"><title>Node56&#45;&gt;Node57</title>
<path fill="none" stroke="midnightblue" d="M117.281,-10C125.657,-10 134.281,-10 142.752,-10"/>
<polygon fill="midnightblue" stroke="midnightblue" points="117.216,-6.5001 107.215,-10 117.215,-13.5001 117.216,-6.5001"/>
</g>
<!-- Node58 -->
<g id="node3" class="node"><title>Node58</title>
<g id="a_node3"><a xlink:href="../../dc/d00/scriptany_8h.html#ade7875aa9250cb75598a7bfa20ca8c2d" target="_top" xlink:title="RegisterScriptAny_Generic">
<polygon fill="white" stroke="black" points="318,-0.5 318,-19.5 452,-19.5 452,-0.5 318,-0.5"/>
<text text-anchor="middle" x="385" y="-7.5" font-family="Helvetica,sans-Serif" font-size="10.00">RegisterScriptAny_Generic</text>
</a>
</g>
</g>
<!-- Node57&#45;&gt;Node58 -->
<g id="edge2" class="edge"><title>Node57&#45;&gt;Node58</title>
<path fill="none" stroke="midnightblue" d="M292.621,-10C301.088,-10 309.635,-10 317.927,-10"/>
<polygon fill="midnightblue" stroke="midnightblue" points="292.357,-6.5001 282.357,-10 292.357,-13.5001 292.357,-6.5001"/>
</g>
<!-- Node59 -->
<g id="node4" class="node"><title>Node59</title>
<g id="a_node4"><a xlink:href="../../dc/d00/scriptany_8h.html#a13b8b1995d1ba5f1031f76ac76eea446" target="_top" xlink:title="RegisterScriptAny">
<polygon fill="white" stroke="black" points="488,-0.5 488,-19.5 583,-19.5 583,-0.5 488,-0.5"/>
<text text-anchor="middle" x="535.5" y="-7.5" font-family="Helvetica,sans-Serif" font-size="10.00">RegisterScriptAny</text>
</a>
</g>
</g>
<!-- Node58&#45;&gt;Node59 -->
<g id="edge3" class="edge"><title>Node58&#45;&gt;Node59</title>
<path fill="none" stroke="midnightblue" d="M462.503,-10C471.09,-10 479.636,-10 487.682,-10"/>
<polygon fill="midnightblue" stroke="midnightblue" points="462.432,-6.5001 452.432,-10 462.432,-13.5001 462.432,-6.5001"/>
</g>
<!-- Node60 -->
<g id="node5" class="node"><title>Node60</title>
<g id="a_node5"><a xlink:href="../../d4/d5f/_script_engine_8cpp.html#a72e7735b6ca109323b2aa797f7b7b45d" target="_top" xlink:title="logString">
<polygon fill="white" stroke="black" points="619,-0.5 619,-19.5 674,-19.5 674,-0.5 619,-0.5"/>
<text text-anchor="middle" x="646.5" y="-7.5" font-family="Helvetica,sans-Serif" font-size="10.00">logString</text>
</a>
</g>
</g>
<!-- Node59&#45;&gt;Node60 -->
<g id="edge4" class="edge"><title>Node59&#45;&gt;Node60</title>
<path fill="none" stroke="midnightblue" d="M593.176,-10C602.168,-10 611.081,-10 618.934,-10"/>
<polygon fill="midnightblue" stroke="midnightblue" points="593.042,-6.5001 583.042,-10 593.042,-13.5001 593.042,-6.5001"/>
</g>
</g>
</svg>
