<?xml version="1.0" encoding="UTF-8" standalone="no"?>
<!DOCTYPE svg PUBLIC "-//W3C//DTD SVG 1.1//EN"
 "http://www.w3.org/Graphics/SVG/1.1/DTD/svg11.dtd">
<!-- Generated by graphviz version 2.38.0 (20140413.2041)
 -->
<!-- Title: CScriptAny::GetFlag Pages: 1 -->
<svg width="681pt" height="28pt"
 viewBox="0.00 0.00 681.00 28.00" xmlns="http://www.w3.org/2000/svg" xmlns:xlink="http://www.w3.org/1999/xlink">
<g id="graph0" class="graph" transform="scale(1 1) rotate(0) translate(4 24)">
<title>CScriptAny::GetFlag</title>
<polygon fill="white" stroke="none" points="-4,4 -4,-24 677,-24 677,4 -4,4"/>
<!-- Node39 -->
<g id="node1" class="node"><title>Node39</title>
<polygon fill="#bfbfbf" stroke="black" points="0,-0.5 0,-19.5 107,-19.5 107,-0.5 0,-0.5"/>
<text text-anchor="middle" x="53.5" y="-7.5" font-family="Helvetica,sans-Serif" font-size="10.00">CScriptAny::GetFlag</text>
</g>
<!-- Node40 -->
<g id="node2" class="node"><title>Node40</title>
<g id="a_node2"><a xlink:href="../../d2/d49/scriptany_8cpp.html#a5ef98c12f45ebc46583691e62627f244" target="_top" xlink:title="ScriptAny_GetFlag_Generic">
<polygon fill="white" stroke="black" points="143,-0.5 143,-19.5 281,-19.5 281,-0.5 143,-0.5"/>
<text text-anchor="middle" x="212" y="-7.5" font-family="Helvetica,sans-Serif" font-size="10.00">ScriptAny_GetFlag_Generic</text>
</a>
</g>
</g>
<!-- Node39&#45;&gt;Node40 -->
<g id="edge1" class="edge"><title>Node39&#45;&gt;Node40</title>
<path fill="none" stroke="midnightblue" d="M117.161,-10C125.576,-10 134.243,-10 142.749,-10"/>
<polygon fill="midnightblue" stroke="midnightblue" points="117.048,-6.5001 107.048,-10 117.048,-13.5001 117.048,-6.5001"/>
</g>
<!-- Node41 -->
<g id="node3" class="node"><title>Node41</title>
<g id="a_node3"><a xlink:href="../../dc/d00/scriptany_8h.html#ade7875aa9250cb75598a7bfa20ca8c2d" target="_top" xlink:title="RegisterScriptAny_Generic">
<polygon fill="white" stroke="black" points="317,-0.5 317,-19.5 451,-19.5 451,-0.5 317,-0.5"/>
<text text-anchor="middle" x="384" y="-7.5" font-family="Helvetica,sans-Serif" font-size="10.00">RegisterScriptAny_Generic</text>
</a>
</g>
</g>
<!-- Node40&#45;&gt;Node41 -->
<g id="edge2" class="edge"><title>Node40&#45;&gt;Node41</title>
<path fill="none" stroke="midnightblue" d="M291.428,-10C299.896,-10 308.451,-10 316.754,-10"/>
<polygon fill="midnightblue" stroke="midnightblue" points="291.166,-6.5001 281.166,-10 291.166,-13.5001 291.166,-6.5001"/>
</g>
<!-- Node42 -->
<g id="node4" class="node"><title>Node42</title>
<g id="a_node4"><a xlink:href="../../dc/d00/scriptany_8h.html#a13b8b1995d1ba5f1031f76ac76eea446" target="_top" xlink:title="RegisterScriptAny">
<polygon fill="white" stroke="black" points="487,-0.5 487,-19.5 582,-19.5 582,-0.5 487,-0.5"/>
<text text-anchor="middle" x="534.5" y="-7.5" font-family="Helvetica,sans-Serif" font-size="10.00">RegisterScriptAny</text>
</a>
</g>
</g>
<!-- Node41&#45;&gt;Node42 -->
<g id="edge3" class="edge"><title>Node41&#45;&gt;Node42</title>
<path fill="none" stroke="midnightblue" d="M461.503,-10C470.09,-10 478.636,-10 486.682,-10"/>
<polygon fill="midnightblue" stroke="midnightblue" points="461.432,-6.5001 451.432,-10 461.432,-13.5001 461.432,-6.5001"/>
</g>
<!-- Node43 -->
<g id="node5" class="node"><title>Node43</title>
<g id="a_node5"><a xlink:href="../../d4/d5f/_script_engine_8cpp.html#a72e7735b6ca109323b2aa797f7b7b45d" target="_top" xlink:title="logString">
<polygon fill="white" stroke="black" points="618,-0.5 618,-19.5 673,-19.5 673,-0.5 618,-0.5"/>
<text text-anchor="middle" x="645.5" y="-7.5" font-family="Helvetica,sans-Serif" font-size="10.00">logString</text>
</a>
</g>
</g>
<!-- Node42&#45;&gt;Node43 -->
<g id="edge4" class="edge"><title>Node42&#45;&gt;Node43</title>
<path fill="none" stroke="midnightblue" d="M592.176,-10C601.168,-10 610.081,-10 617.934,-10"/>
<polygon fill="midnightblue" stroke="midnightblue" points="592.042,-6.5001 582.042,-10 592.042,-13.5001 592.042,-6.5001"/>
</g>
</g>
</svg>
