<?xml version="1.0" encoding="UTF-8" standalone="no"?>
<!DOCTYPE svg PUBLIC "-//W3C//DTD SVG 1.1//EN"
 "http://www.w3.org/Graphics/SVG/1.1/DTD/svg11.dtd">
<!-- Generated by graphviz version 2.38.0 (20140413.2041)
 -->
<!-- Title: removeCollisionBox Pages: 1 -->
<svg width="428pt" height="78pt"
 viewBox="0.00 0.00 428.00 77.50" xmlns="http://www.w3.org/2000/svg" xmlns:xlink="http://www.w3.org/1999/xlink">
<g id="graph0" class="graph" transform="scale(1 1) rotate(0) translate(4 73.5)">
<title>removeCollisionBox</title>
<polygon fill="white" stroke="none" points="-4,4 -4,-73.5 424,-73.5 424,4 -4,4"/>
<!-- Node17 -->
<g id="node1" class="node"><title>Node17</title>
<polygon fill="#bfbfbf" stroke="black" points="0,-28 0,-47 101,-47 101,-28 0,-28"/>
<text text-anchor="middle" x="50.5" y="-35" font-family="Helvetica,sans-Serif" font-size="10.00">removeCollisionBox</text>
</g>
<!-- Node18 -->
<g id="node2" class="node"><title>Node18</title>
<g id="a_node2"><a xlink:href="../../d9/d39/class_collisions.html#a1fa156bf0bab59802a6f1724d8801151" target="_top" xlink:title="Collisions::getEvent">
<polygon fill="white" stroke="black" points="142,-50 142,-69 244,-69 244,-50 142,-50"/>
<text text-anchor="middle" x="193" y="-57" font-family="Helvetica,sans-Serif" font-size="10.00">Collisions::getEvent</text>
</a>
</g>
</g>
<!-- Node17&#45;&gt;Node18 -->
<g id="edge1" class="edge"><title>Node17&#45;&gt;Node18</title>
<path fill="none" stroke="midnightblue" d="M111.159,-46.8417C121.42,-48.4483 131.989,-50.1033 141.964,-51.6652"/>
<polygon fill="midnightblue" stroke="midnightblue" points="111.456,-43.3456 101.035,-45.2564 110.373,-50.2613 111.456,-43.3456"/>
</g>
<!-- Node19 -->
<g id="node3" class="node"><title>Node19</title>
<g id="a_node3"><a xlink:href="../../d6/d14/class_terrain_object_manager.html#a810b822abfbab9dd498a884f1787512c" target="_top" xlink:title="TerrainObjectManager\l::unloadObject">
<polygon fill="white" stroke="black" points="137,-0.5 137,-30.5 249,-30.5 249,-0.5 137,-0.5"/>
<text text-anchor="start" x="145" y="-18.5" font-family="Helvetica,sans-Serif" font-size="10.00">TerrainObjectManager</text>
<text text-anchor="middle" x="193" y="-7.5" font-family="Helvetica,sans-Serif" font-size="10.00">::unloadObject</text>
</a>
</g>
</g>
<!-- Node17&#45;&gt;Node19 -->
<g id="edge2" class="edge"><title>Node17&#45;&gt;Node19</title>
<path fill="none" stroke="midnightblue" d="M110.93,-28.1942C119.472,-26.8567 128.232,-25.485 136.69,-24.1607"/>
<polygon fill="midnightblue" stroke="midnightblue" points="110.373,-24.7387 101.035,-29.7436 111.456,-31.6544 110.373,-24.7387"/>
</g>
<!-- Node20 -->
<g id="node4" class="node"><title>Node20</title>
<g id="a_node4"><a xlink:href="../../d5/de5/class_game_script.html#ac9ef8b95e5fd759b73ef414e9ae9a6a8" target="_top" xlink:title="GameScript::destroyObject">
<polygon fill="white" stroke="black" points="285,-6 285,-25 420,-25 420,-6 285,-6"/>
<text text-anchor="middle" x="352.5" y="-13" font-family="Helvetica,sans-Serif" font-size="10.00">GameScript::destroyObject</text>
</a>
</g>
</g>
<!-- Node19&#45;&gt;Node20 -->
<g id="edge3" class="edge"><title>Node19&#45;&gt;Node20</title>
<path fill="none" stroke="midnightblue" d="M259.246,-15.5C267.685,-15.5 276.337,-15.5 284.799,-15.5"/>
<polygon fill="midnightblue" stroke="midnightblue" points="259.086,-12.0001 249.086,-15.5 259.086,-19.0001 259.086,-12.0001"/>
</g>
</g>
</svg>
