<?xml version="1.0" encoding="UTF-8" standalone="no"?>
<!DOCTYPE svg PUBLIC "-//W3C//DTD SVG 1.1//EN"
 "http://www.w3.org/Graphics/SVG/1.1/DTD/svg11.dtd">
<!-- Generated by graphviz version 2.38.0 (20140413.2041)
 -->
<!-- Title: Ogre::TerrainPSSMMaterialGenerator::SM2Profile::ShaderHelperHLSL::createVertexProgram Pages: 1 -->
<svg width="377pt" height="110pt"
 viewBox="0.00 0.00 377.00 110.00" xmlns="http://www.w3.org/2000/svg" xmlns:xlink="http://www.w3.org/1999/xlink">
<g id="graph0" class="graph" transform="scale(1 1) rotate(0) translate(4 106)">
<title>Ogre::TerrainPSSMMaterialGenerator::SM2Profile::ShaderHelperHLSL::createVertexProgram</title>
<polygon fill="white" stroke="none" points="-4,4 -4,-106 373,-106 373,4 -4,4"/>
<!-- Node4 -->
<g id="node1" class="node"><title>Node4</title>
<polygon fill="#bfbfbf" stroke="black" points="0,-30.5 0,-71.5 197,-71.5 197,-30.5 0,-30.5"/>
<text text-anchor="start" x="8" y="-59.5" font-family="Helvetica,sans-Serif" font-size="10.00">Ogre::TerrainPSSMMaterial</text>
<text text-anchor="start" x="8" y="-48.5" font-family="Helvetica,sans-Serif" font-size="10.00">Generator::SM2Profile::</text>
<text text-anchor="middle" x="98.5" y="-37.5" font-family="Helvetica,sans-Serif" font-size="10.00">ShaderHelperHLSL::createVertexProgram</text>
</g>
<!-- Node5 -->
<g id="node2" class="node"><title>Node5</title>
<g id="a_node2"><a xlink:href="../../d5/d2c/class_ogre_1_1_terrain_p_s_s_m_material_generator_1_1_s_m2_profile.html#aae46b47d9f5e62d7b33083bbcf9dbab8" target="_top" xlink:title="Ogre::TerrainPSSMMaterial\lGenerator::SM2Profile::\l_isSM4Available">
<polygon fill="white" stroke="black" points="233,-60.5 233,-101.5 369,-101.5 369,-60.5 233,-60.5"/>
<text text-anchor="start" x="241" y="-89.5" font-family="Helvetica,sans-Serif" font-size="10.00">Ogre::TerrainPSSMMaterial</text>
<text text-anchor="start" x="241" y="-78.5" font-family="Helvetica,sans-Serif" font-size="10.00">Generator::SM2Profile::</text>
<text text-anchor="middle" x="301" y="-67.5" font-family="Helvetica,sans-Serif" font-size="10.00">_isSM4Available</text>
</a>
</g>
</g>
<!-- Node4&#45;&gt;Node5 -->
<g id="edge1" class="edge"><title>Node4&#45;&gt;Node5</title>
<path fill="none" stroke="midnightblue" d="M197.107,-65.6045C205.745,-66.897 214.409,-68.1934 222.843,-69.4552"/>
<polygon fill="midnightblue" stroke="midnightblue" points="222.59,-72.9564 232.998,-70.9748 223.626,-66.0334 222.59,-72.9564"/>
</g>
<!-- Node6 -->
<g id="node3" class="node"><title>Node6</title>
<g id="a_node3"><a xlink:href="../../d5/d2c/class_ogre_1_1_terrain_p_s_s_m_material_generator_1_1_s_m2_profile.html#ad7747216459a21eb494a7e681165a77b" target="_top" xlink:title="Internal. ">
<polygon fill="white" stroke="black" points="233,-0.5 233,-41.5 369,-41.5 369,-0.5 233,-0.5"/>
<text text-anchor="start" x="241" y="-29.5" font-family="Helvetica,sans-Serif" font-size="10.00">Ogre::TerrainPSSMMaterial</text>
<text text-anchor="start" x="241" y="-18.5" font-family="Helvetica,sans-Serif" font-size="10.00">Generator::SM2Profile::</text>
<text text-anchor="middle" x="301" y="-7.5" font-family="Helvetica,sans-Serif" font-size="10.00">_isSM3Available</text>
</a>
</g>
</g>
<!-- Node4&#45;&gt;Node6 -->
<g id="edge2" class="edge"><title>Node4&#45;&gt;Node6</title>
<path fill="none" stroke="midnightblue" d="M197.107,-36.3955C205.745,-35.103 214.409,-33.8066 222.843,-32.5448"/>
<polygon fill="midnightblue" stroke="midnightblue" points="223.626,-35.9666 232.998,-31.0252 222.59,-29.0436 223.626,-35.9666"/>
</g>
</g>
</svg>
