<?xml version="1.0" encoding="UTF-8" standalone="no"?>
<!DOCTYPE svg PUBLIC "-//W3C//DTD SVG 1.1//EN"
 "http://www.w3.org/Graphics/SVG/1.1/DTD/svg11.dtd">
<!-- Generated by graphviz version 2.38.0 (20140413.2041)
 -->
<!-- Title: Water::isCameraUnderWater Pages: 1 -->
<svg width="460pt" height="66pt"
 viewBox="0.00 0.00 460.00 66.00" xmlns="http://www.w3.org/2000/svg" xmlns:xlink="http://www.w3.org/1999/xlink">
<g id="graph0" class="graph" transform="scale(1 1) rotate(0) translate(4 62)">
<title>Water::isCameraUnderWater</title>
<polygon fill="white" stroke="none" points="-4,4 -4,-62 456,-62 456,4 -4,4"/>
<!-- Node46 -->
<g id="node1" class="node"><title>Node46</title>
<polygon fill="#bfbfbf" stroke="black" points="0,-19.5 0,-38.5 142,-38.5 142,-19.5 0,-19.5"/>
<text text-anchor="middle" x="71" y="-26.5" font-family="Helvetica,sans-Serif" font-size="10.00">Water::isCameraUnderWater</text>
</g>
<!-- Node47 -->
<g id="node2" class="node"><title>Node47</title>
<g id="a_node2"><a xlink:href="../../dd/dd6/class_water.html#a18fce2c0b2c45ee4ea8e413fcb4bdafa" target="_top" xlink:title="Water::update">
<polygon fill="white" stroke="black" points="212,-38.5 212,-57.5 290,-57.5 290,-38.5 212,-38.5"/>
<text text-anchor="middle" x="251" y="-45.5" font-family="Helvetica,sans-Serif" font-size="10.00">Water::update</text>
</a>
</g>
</g>
<!-- Node46&#45;&gt;Node47 -->
<g id="edge1" class="edge"><title>Node46&#45;&gt;Node47</title>
<path fill="none" stroke="midnightblue" d="M152.201,-37.5608C172.933,-39.7738 194.309,-42.0555 211.768,-43.9191"/>
<polygon fill="midnightblue" stroke="midnightblue" points="152.41,-34.0633 142.095,-36.482 151.667,-41.0237 152.41,-34.0633"/>
</g>
<!-- Node49 -->
<g id="node4" class="node"><title>Node49</title>
<g id="a_node4"><a xlink:href="../../dd/dd6/class_water.html#a9a733ea131931c7625bbbcfb6c10d939" target="_top" xlink:title="Water::updateReflectionPlane">
<polygon fill="white" stroke="black" points="178,-0.5 178,-19.5 324,-19.5 324,-0.5 178,-0.5"/>
<text text-anchor="middle" x="251" y="-7.5" font-family="Helvetica,sans-Serif" font-size="10.00">Water::updateReflectionPlane</text>
</a>
</g>
</g>
<!-- Node46&#45;&gt;Node49 -->
<g id="edge3" class="edge"><title>Node46&#45;&gt;Node49</title>
<path fill="none" stroke="midnightblue" d="M152.118,-20.4481C160.716,-19.5303 169.426,-18.6006 177.922,-17.6937"/>
<polygon fill="midnightblue" stroke="midnightblue" points="151.667,-16.9763 142.095,-21.518 152.41,-23.9367 151.667,-16.9763"/>
</g>
<!-- Node48 -->
<g id="node3" class="node"><title>Node48</title>
<g id="a_node3"><a xlink:href="../../dd/dd6/class_water.html#ab3c688bc459bf677f8a235cd42c9daae" target="_top" xlink:title="Water::framestep">
<polygon fill="white" stroke="black" points="360,-38.5 360,-57.5 452,-57.5 452,-38.5 360,-38.5"/>
<text text-anchor="middle" x="406" y="-45.5" font-family="Helvetica,sans-Serif" font-size="10.00">Water::framestep</text>
</a>
</g>
</g>
<!-- Node47&#45;&gt;Node48 -->
<g id="edge2" class="edge"><title>Node47&#45;&gt;Node48</title>
<path fill="none" stroke="midnightblue" d="M300.215,-48C319.318,-48 341.16,-48 359.941,-48"/>
<polygon fill="midnightblue" stroke="midnightblue" points="300.214,-44.5001 290.214,-48 300.214,-51.5001 300.214,-44.5001"/>
</g>
<!-- Node50 -->
<g id="node5" class="node"><title>Node50</title>
<g id="a_node5"><a xlink:href="../../dd/dd6/class_water.html#a13622d0f0f5a4c2c0504d4df580f1aa8" target="_top" xlink:title="Water::moveTo">
<polygon fill="white" stroke="black" points="365,-0.5 365,-19.5 447,-19.5 447,-0.5 365,-0.5"/>
<text text-anchor="middle" x="406" y="-7.5" font-family="Helvetica,sans-Serif" font-size="10.00">Water::moveTo</text>
</a>
</g>
</g>
<!-- Node49&#45;&gt;Node50 -->
<g id="edge4" class="edge"><title>Node49&#45;&gt;Node50</title>
<path fill="none" stroke="midnightblue" d="M334.165,-10C344.728,-10 355.146,-10 364.607,-10"/>
<polygon fill="midnightblue" stroke="midnightblue" points="334.02,-6.5001 324.02,-10 334.02,-13.5001 334.02,-6.5001"/>
</g>
</g>
</svg>
