<?xml version="1.0" encoding="UTF-8" standalone="no"?>
<!DOCTYPE svg PUBLIC "-//W3C//DTD SVG 1.1//EN"
 "http://www.w3.org/Graphics/SVG/1.1/DTD/svg11.dtd">
<!-- Generated by graphviz version 2.38.0 (20140413.2041)
 -->
<!-- Title: RoR::BeamFactory::activateAllTrucks Pages: 1 -->
<!--zoomable 112 -->
<svg id="main" version="1.1" xmlns="http://www.w3.org/2000/svg" xmlns:xlink="http://www.w3.org/1999/xlink" xml:space="preserve" onload="init(evt)">
<style type="text/css"><![CDATA[
.edge:hover path { stroke: red; }
.edge:hover polygon { stroke: red; fill: red; }
]]></style>
<script type="text/javascript"><![CDATA[
var edges = document.getElementsByTagName('g');
if (edges && edges.length) {
  for (var i=0;i<edges.length;i++) {
    if (edges[i].id.substr(0,4)=='edge') {
      edges[i].setAttribute('class','edge');
    }
  }
}
]]></script>
        <defs>
                <circle id="rim" cx="0" cy="0" r="7"/>
                <circle id="rim2" cx="0" cy="0" r="3.5"/>
                <g id="zoomPlus">
                        <use xlink:href="#rim" fill="#404040">
                                <set attributeName="fill" to="#808080" begin="zoomplus.mouseover" end="zoomplus.mouseout"/>
                        </use>
                        <path d="M-4,0h8M0,-4v8" fill="none" stroke="white" stroke-width="1.5" pointer-events="none"/>
                </g>
                <g id="zoomMin">
                        <use xlink:href="#rim" fill="#404040">
                                <set attributeName="fill" to="#808080" begin="zoomminus.mouseover" end="zoomminus.mouseout"/>
                        </use>
                        <path d="M-4,0h8" fill="none" stroke="white" stroke-width="1.5" pointer-events="none"/>
                </g>
                <g id="dirArrow">
                        <path fill="none" stroke="white" stroke-width="1.5" d="M0,-3.0v7 M-2.5,-0.5L0,-3.0L2.5,-0.5"/>
                </g>
               <g id="resetDef">
                       <use xlink:href="#rim2" fill="#404040">
                               <set attributeName="fill" to="#808080" begin="reset.mouseover" end="reset.mouseout"/>
                       </use>
               </g>
        </defs>

<script type="text/javascript">
var viewWidth = 1190;
var viewHeight = 112;
var sectionId = 'dynsection-4';
</script>
<script xlink:href="../../svgpan.js"/>
<svg id="graph" class="graph">
<g id="viewport">
<title>RoR::BeamFactory::activateAllTrucks</title>
<polygon fill="white" stroke="none" points="-4,4 -4,-108 1186,-108 1186,4 -4,4"/>
<!-- Node13 -->
<g id="node1" class="node"><title>Node13</title>
<polygon fill="#bfbfbf" stroke="black" points="0,-24.5 0,-54.5 139,-54.5 139,-24.5 0,-24.5"/>
<text text-anchor="start" x="8" y="-42.5" font-family="Helvetica,sans-Serif" font-size="10.00">RoR::BeamFactory::activate</text>
<text text-anchor="middle" x="69.5" y="-31.5" font-family="Helvetica,sans-Serif" font-size="10.00">AllTrucks</text>
</g>
<!-- Node14 -->
<g id="node2" class="node"><title>Node14</title>
<g id="a_node2"><a xlink:href="../../d6/d19/class_ro_r_1_1_g_u_i_1_1_top_menubar.html#ad1c44bd3c1247dcd8b876ff7728fac32" target="_top" xlink:title="RoR::GUI::TopMenubar\l::onMenuBtn">
<polygon fill="white" stroke="black" points="191.5,-49.5 191.5,-79.5 308.5,-79.5 308.5,-49.5 191.5,-49.5"/>
<text text-anchor="start" x="199.5" y="-67.5" font-family="Helvetica,sans-Serif" font-size="10.00">RoR::GUI::TopMenubar</text>
<text text-anchor="middle" x="250" y="-56.5" font-family="Helvetica,sans-Serif" font-size="10.00">::onMenuBtn</text>
</a>
</g>
</g>
<!-- Node13&#45;&gt;Node14 -->
<g id="edge1" class="edge"><title>Node13&#45;&gt;Node14</title>
<path fill="none" stroke="midnightblue" d="M149.246,-50.5289C163.431,-52.5155 177.974,-54.5523 191.416,-56.435"/>
<polygon fill="midnightblue" stroke="midnightblue" points="149.391,-47.0151 139.002,-49.0942 148.42,-53.9474 149.391,-47.0151"/>
</g>
<!-- Node22 -->
<g id="node10" class="node"><title>Node22</title>
<g id="a_node10"><a xlink:href="../../d5/d53/class_ro_r_1_1_beam_factory.html#a956daf2456327302b07b9e20ed83f554" target="_top" xlink:title="RoR::BeamFactory::AreTrucks\lForcedActive">
<polygon fill="white" stroke="black" points="175,-0.5 175,-30.5 325,-30.5 325,-0.5 175,-0.5"/>
<text text-anchor="start" x="183" y="-18.5" font-family="Helvetica,sans-Serif" font-size="10.00">RoR::BeamFactory::AreTrucks</text>
<text text-anchor="middle" x="250" y="-7.5" font-family="Helvetica,sans-Serif" font-size="10.00">ForcedActive</text>
</a>
</g>
</g>
<!-- Node13&#45;&gt;Node22 -->
<g id="edge9" class="edge"><title>Node13&#45;&gt;Node22</title>
<path fill="none" stroke="midnightblue" d="M148.974,-28.9489C157.538,-27.7975 166.235,-26.628 174.746,-25.4838"/>
<polygon fill="midnightblue" stroke="midnightblue" points="148.447,-25.4882 139.002,-30.2896 149.38,-32.4258 148.447,-25.4882"/>
</g>
<!-- Node15 -->
<g id="node3" class="node"><title>Node15</title>
<g id="a_node3"><a xlink:href="../../d6/d19/class_ro_r_1_1_g_u_i_1_1_top_menubar.html#aba4f8b1030da3a9d3b4394562d60a05a" target="_top" xlink:title="RoR::GUI::TopMenubar\l::TopMenubar">
<polygon fill="white" stroke="black" points="361,-73.5 361,-103.5 478,-103.5 478,-73.5 361,-73.5"/>
<text text-anchor="start" x="369" y="-91.5" font-family="Helvetica,sans-Serif" font-size="10.00">RoR::GUI::TopMenubar</text>
<text text-anchor="middle" x="419.5" y="-80.5" font-family="Helvetica,sans-Serif" font-size="10.00">::TopMenubar</text>
</a>
</g>
</g>
<!-- Node14&#45;&gt;Node15 -->
<g id="edge2" class="edge"><title>Node14&#45;&gt;Node15</title>
<path fill="none" stroke="midnightblue" d="M318.67,-74.196C332.621,-76.1949 347.19,-78.2824 360.75,-80.2253"/>
<polygon fill="midnightblue" stroke="midnightblue" points="319.039,-70.7133 308.644,-72.7594 318.046,-77.6425 319.039,-70.7133"/>
</g>
<!-- Node16 -->
<g id="node4" class="node"><title>Node16</title>
<g id="a_node4"><a xlink:href="../../d6/d19/class_ro_r_1_1_g_u_i_1_1_top_menubar.html#a1a4c2b4a27eb2a018b6b8ea49528f22a" target="_top" xlink:title="RoR::GUI::TopMenubar\l::SetSimController">
<polygon fill="white" stroke="black" points="361,-24.5 361,-54.5 478,-54.5 478,-24.5 361,-24.5"/>
<text text-anchor="start" x="369" y="-42.5" font-family="Helvetica,sans-Serif" font-size="10.00">RoR::GUI::TopMenubar</text>
<text text-anchor="middle" x="419.5" y="-31.5" font-family="Helvetica,sans-Serif" font-size="10.00">::SetSimController</text>
</a>
</g>
</g>
<!-- Node14&#45;&gt;Node16 -->
<g id="edge3" class="edge"><title>Node14&#45;&gt;Node16</title>
<path fill="none" stroke="midnightblue" d="M318.67,-54.4C332.621,-52.3178 347.19,-50.1433 360.75,-48.1194"/>
<polygon fill="midnightblue" stroke="midnightblue" points="318.018,-50.9585 308.644,-55.8964 319.051,-57.8818 318.018,-50.9585"/>
</g>
<!-- Node17 -->
<g id="node5" class="node"><title>Node17</title>
<g id="a_node5"><a xlink:href="../../d8/d11/class_ro_r_1_1_g_u_i_manager.html#a875185e93587aeb2ab73220c1d2d4fc8" target="_top" xlink:title="RoR::GUIManager::SetSimController">
<polygon fill="white" stroke="black" points="514,-30 514,-49 689,-49 689,-30 514,-30"/>
<text text-anchor="middle" x="601.5" y="-37" font-family="Helvetica,sans-Serif" font-size="10.00">RoR::GUIManager::SetSimController</text>
</a>
</g>
</g>
<!-- Node16&#45;&gt;Node17 -->
<g id="edge4" class="edge"><title>Node16&#45;&gt;Node17</title>
<path fill="none" stroke="midnightblue" d="M488.695,-39.5C496.915,-39.5 505.393,-39.5 513.832,-39.5"/>
<polygon fill="midnightblue" stroke="midnightblue" points="488.444,-36.0001 478.444,-39.5 488.444,-43.0001 488.444,-36.0001"/>
</g>
<!-- Node18 -->
<g id="node6" class="node"><title>Node18</title>
<g id="a_node6"><a xlink:href="../../dd/dbe/class_ro_r_frame_listener.html#a9e239911ad148aa76c58202920090f76" target="_top" xlink:title="RoRFrameListener::EnterGameplayLoop">
<polygon fill="white" stroke="black" points="725,-30 725,-49 917,-49 917,-30 725,-30"/>
<text text-anchor="middle" x="821" y="-37" font-family="Helvetica,sans-Serif" font-size="10.00">RoRFrameListener::EnterGameplayLoop</text>
</a>
</g>
</g>
<!-- Node17&#45;&gt;Node18 -->
<g id="edge5" class="edge"><title>Node17&#45;&gt;Node18</title>
<path fill="none" stroke="midnightblue" d="M699.333,-39.5C707.784,-39.5 716.333,-39.5 724.771,-39.5"/>
<polygon fill="midnightblue" stroke="midnightblue" points="699.087,-36.0001 689.087,-39.5 699.087,-43.0001 699.087,-36.0001"/>
</g>
<!-- Node19 -->
<g id="node7" class="node"><title>Node19</title>
<g id="a_node7"><a xlink:href="../../dd/dbe/class_ro_r_frame_listener.html#ad598075b5f183208c0de43b9248bb44b" target="_top" xlink:title="RoRFrameListener::getTime">
<polygon fill="white" stroke="black" points="953,-49 953,-68 1091,-68 1091,-49 953,-49"/>
<text text-anchor="middle" x="1022" y="-56" font-family="Helvetica,sans-Serif" font-size="10.00">RoRFrameListener::getTime</text>
</a>
</g>
</g>
<!-- Node18&#45;&gt;Node19 -->
<g id="edge6" class="edge"><title>Node18&#45;&gt;Node19</title>
<path fill="none" stroke="midnightblue" d="M927.335,-49.5571C936.02,-50.3863 944.646,-51.2099 952.946,-52.0023"/>
<polygon fill="midnightblue" stroke="midnightblue" points="927.416,-46.049 917.129,-48.5826 926.751,-53.0173 927.416,-46.049"/>
</g>
<!-- Node20 -->
<g id="node8" class="node"><title>Node20</title>
<g id="a_node8"><a xlink:href="../../df/d0a/main_8cpp.html#a0ddf1224851353fc92bfbff6f499fa97" target="_top" xlink:title="main">
<polygon fill="white" stroke="black" points="1003,-11 1003,-30 1041,-30 1041,-11 1003,-11"/>
<text text-anchor="middle" x="1022" y="-18" font-family="Helvetica,sans-Serif" font-size="10.00">main</text>
</a>
</g>
</g>
<!-- Node18&#45;&gt;Node20 -->
<g id="edge7" class="edge"><title>Node18&#45;&gt;Node20</title>
<path fill="none" stroke="midnightblue" d="M927.441,-29.4328C956.56,-26.6525 984.999,-23.9373 1002.73,-22.2441"/>
<polygon fill="midnightblue" stroke="midnightblue" points="926.751,-25.9827 917.129,-30.4174 927.416,-32.951 926.751,-25.9827"/>
</g>
<!-- Node21 -->
<g id="node9" class="node"><title>Node21</title>
<g id="a_node9"><a xlink:href="../../df/d0a/main_8cpp.html#a2922bc5d5c2d77a3020cfbf9df12aab0" target="_top" xlink:title="WinMain">
<polygon fill="white" stroke="black" points="1127,-11 1127,-30 1182,-30 1182,-11 1127,-11"/>
<text text-anchor="middle" x="1154.5" y="-18" font-family="Helvetica,sans-Serif" font-size="10.00">WinMain</text>
</a>
</g>
</g>
<!-- Node20&#45;&gt;Node21 -->
<g id="edge8" class="edge"><title>Node20&#45;&gt;Node21</title>
<path fill="none" stroke="midnightblue" d="M1051.39,-20.5C1073.84,-20.5 1104.96,-20.5 1126.92,-20.5"/>
<polygon fill="midnightblue" stroke="midnightblue" points="1051.15,-17.0001 1041.15,-20.5 1051.15,-24.0001 1051.15,-17.0001"/>
</g>
</g>
</svg>
        <g id="navigator" transform="translate(0 0)" fill="#404254">
                <rect fill="#f2f5e9" fill-opacity="0.5" stroke="#606060" stroke-width=".5" x="0" y="0" width="60" height="60"/>
                <use id="zoomplus" xlink:href="#zoomPlus" x="17" y="9" onmousedown="handleZoom(evt,'in')"/>
                <use id="zoomminus" xlink:href="#zoomMin" x="42" y="9" onmousedown="handleZoom(evt,'out')"/>
                <use id="reset" xlink:href="#resetDef" x="30" y="36" onmousedown="handleReset()"/>
                <g id="arrowUp" xlink:href="#dirArrow" transform="translate(30 24)" onmousedown="handlePan(0,-1)">
                  <use xlink:href="#rim" fill="#404040">
                        <set attributeName="fill" to="#808080" begin="arrowUp.mouseover" end="arrowUp.mouseout"/>
                  </use>
                  <path fill="none" stroke="white" stroke-width="1.5" d="M0,-3.0v7 M-2.5,-0.5L0,-3.0L2.5,-0.5"/>
                </g>
                <g id="arrowRight" xlink:href="#dirArrow" transform="rotate(90) translate(36 -43)" onmousedown="handlePan(1,0)">
                  <use xlink:href="#rim" fill="#404040">
                        <set attributeName="fill" to="#808080" begin="arrowRight.mouseover" end="arrowRight.mouseout"/>
                  </use>
                  <path fill="none" stroke="white" stroke-width="1.5" d="M0,-3.0v7 M-2.5,-0.5L0,-3.0L2.5,-0.5"/>
                </g>
                <g id="arrowDown" xlink:href="#dirArrow" transform="rotate(180) translate(-30 -48)" onmousedown="handlePan(0,1)">
                  <use xlink:href="#rim" fill="#404040">
                        <set attributeName="fill" to="#808080" begin="arrowDown.mouseover" end="arrowDown.mouseout"/>
                  </use>
                  <path fill="none" stroke="white" stroke-width="1.5" d="M0,-3.0v7 M-2.5,-0.5L0,-3.0L2.5,-0.5"/>
                </g>
                <g id="arrowLeft" xlink:href="#dirArrow" transform="rotate(270) translate(-36 17)" onmousedown="handlePan(-1,0)">
                  <use xlink:href="#rim" fill="#404040">
                        <set attributeName="fill" to="#808080" begin="arrowLeft.mouseover" end="arrowLeft.mouseout"/>
                  </use>
                  <path fill="none" stroke="white" stroke-width="1.5" d="M0,-3.0v7 M-2.5,-0.5L0,-3.0L2.5,-0.5"/>
                </g>
        </g>
        <svg viewBox="0 0 15 15" width="100%" height="30px" preserveAspectRatio="xMaxYMin meet">
         <g id="arrow_out" transform="scale(0.3 0.3)">
          <a xlink:href="class_ro_r_1_1_beam_factory_a36cdabb2cae397b3ecb2a8cf2b19373f_icgraph_org.svg" target="_base">
           <rect id="button" ry="5" rx="5" y="6" x="6" height="38" width="38"
                fill="#f2f5e9" fill-opacity="0.5" stroke="#606060" stroke-width="1.0"/>
           <path id="arrow"
             d="M 11.500037,31.436501 C 11.940474,20.09759 22.043105,11.32322 32.158766,21.979434 L 37.068811,17.246167 C 37.068811,17.246167 37.088388,32 37.088388,32 L 22.160133,31.978069 C 22.160133,31.978069 26.997745,27.140456 26.997745,27.140456 C 18.528582,18.264221 13.291696,25.230495 11.500037,31.436501 z"
             style="fill:#404040;"/>
          </a>
         </g>
        </svg>
</svg>
