<?xml version="1.0" encoding="UTF-8" standalone="no"?>
<!DOCTYPE svg PUBLIC "-//W3C//DTD SVG 1.1//EN"
 "http://www.w3.org/Graphics/SVG/1.1/DTD/svg11.dtd">
<!-- Generated by graphviz version 2.38.0 (20140413.2041)
 -->
<!-- Title: RoR::BeamFactory::windowResized Pages: 1 -->
<svg width="1403pt" height="126pt"
 viewBox="0.00 0.00 1403.00 125.50" xmlns="http://www.w3.org/2000/svg" xmlns:xlink="http://www.w3.org/1999/xlink">
<g id="graph0" class="graph" transform="scale(1 1) rotate(0) translate(4 121.5)">
<title>RoR::BeamFactory::windowResized</title>
<polygon fill="white" stroke="none" points="-4,4 -4,-121.5 1399,-121.5 1399,4 -4,4"/>
<!-- Node3190 -->
<g id="node1" class="node"><title>Node3190</title>
<polygon fill="#bfbfbf" stroke="black" points="0,-62 0,-92 137,-92 137,-62 0,-62"/>
<text text-anchor="start" x="8" y="-80" font-family="Helvetica,sans-Serif" font-size="10.00">RoR::BeamFactory::window</text>
<text text-anchor="middle" x="68.5" y="-69" font-family="Helvetica,sans-Serif" font-size="10.00">Resized</text>
</g>
<!-- Node3191 -->
<g id="node2" class="node"><title>Node3191</title>
<g id="a_node2"><a xlink:href="../../dd/dbe/class_ro_r_frame_listener.html#a967b4a6d8650f6655e436dfeee0172b2" target="_top" xlink:title="RoRFrameListener::window\lResized">
<polygon fill="white" stroke="black" points="180,-87 180,-117 315,-117 315,-87 180,-87"/>
<text text-anchor="start" x="188" y="-105" font-family="Helvetica,sans-Serif" font-size="10.00">RoRFrameListener::window</text>
<text text-anchor="middle" x="247.5" y="-94" font-family="Helvetica,sans-Serif" font-size="10.00">Resized</text>
</a>
</g>
</g>
<!-- Node3190&#45;&gt;Node3191 -->
<g id="edge1" class="edge"><title>Node3190&#45;&gt;Node3191</title>
<path fill="none" stroke="midnightblue" d="M147.088,-87.9587C157.973,-89.4961 169.081,-91.0651 179.741,-92.5708"/>
<polygon fill="midnightblue" stroke="midnightblue" points="147.565,-84.4915 137.174,-86.5584 146.586,-91.4227 147.565,-84.4915"/>
</g>
<!-- Node3193 -->
<g id="node4" class="node"><title>Node3193</title>
<g id="a_node4"><a xlink:href="../../d5/d53/class_ro_r_1_1_beam_factory.html#aa11e48261a71eefba8b8b6cb3c17feaa" target="_top" xlink:title="RoR::BeamFactory::setTrucks\lForcedActive">
<polygon fill="white" stroke="black" points="173,-38 173,-68 322,-68 322,-38 173,-38"/>
<text text-anchor="start" x="181" y="-56" font-family="Helvetica,sans-Serif" font-size="10.00">RoR::BeamFactory::setTrucks</text>
<text text-anchor="middle" x="247.5" y="-45" font-family="Helvetica,sans-Serif" font-size="10.00">ForcedActive</text>
</a>
</g>
</g>
<!-- Node3190&#45;&gt;Node3193 -->
<g id="edge3" class="edge"><title>Node3190&#45;&gt;Node3193</title>
<path fill="none" stroke="midnightblue" d="M147.158,-66.4701C155.733,-65.3073 164.447,-64.1258 172.97,-62.9702"/>
<polygon fill="midnightblue" stroke="midnightblue" points="146.613,-63.0119 137.174,-67.8239 147.553,-69.9484 146.613,-63.0119"/>
</g>
<!-- Node3192 -->
<g id="node3" class="node"><title>Node3192</title>
<g id="a_node3"><a xlink:href="../../dd/dbe/class_ro_r_frame_listener.html#a3fc07ee118bafb7f186254c2a976f8bf" target="_top" xlink:title="RoRFrameListener::GetSkidmarkConf">
<polygon fill="white" stroke="black" points="358,-92.5 358,-111.5 538,-111.5 538,-92.5 358,-92.5"/>
<text text-anchor="middle" x="448" y="-99.5" font-family="Helvetica,sans-Serif" font-size="10.00">RoRFrameListener::GetSkidmarkConf</text>
</a>
</g>
</g>
<!-- Node3191&#45;&gt;Node3192 -->
<g id="edge2" class="edge"><title>Node3191&#45;&gt;Node3192</title>
<path fill="none" stroke="midnightblue" d="M325.281,-102C335.984,-102 347.054,-102 357.959,-102"/>
<polygon fill="midnightblue" stroke="midnightblue" points="325.15,-98.5001 315.15,-102 325.15,-105.5 325.15,-98.5001"/>
</g>
<!-- Node3194 -->
<g id="node5" class="node"><title>Node3194</title>
<g id="a_node5"><a xlink:href="../../d6/d19/class_ro_r_1_1_g_u_i_1_1_top_menubar.html#ad1c44bd3c1247dcd8b876ff7728fac32" target="_top" xlink:title="RoR::GUI::TopMenubar\l::onMenuBtn">
<polygon fill="white" stroke="black" points="389.5,-38 389.5,-68 506.5,-68 506.5,-38 389.5,-38"/>
<text text-anchor="start" x="397.5" y="-56" font-family="Helvetica,sans-Serif" font-size="10.00">RoR::GUI::TopMenubar</text>
<text text-anchor="middle" x="448" y="-45" font-family="Helvetica,sans-Serif" font-size="10.00">::onMenuBtn</text>
</a>
</g>
</g>
<!-- Node3193&#45;&gt;Node3194 -->
<g id="edge4" class="edge"><title>Node3193&#45;&gt;Node3194</title>
<path fill="none" stroke="midnightblue" d="M332.378,-53C351.554,-53 371.515,-53 389.303,-53"/>
<polygon fill="midnightblue" stroke="midnightblue" points="332.132,-49.5001 322.132,-53 332.132,-56.5001 332.132,-49.5001"/>
</g>
<!-- Node3195 -->
<g id="node6" class="node"><title>Node3195</title>
<g id="a_node6"><a xlink:href="../../d6/d19/class_ro_r_1_1_g_u_i_1_1_top_menubar.html#aba4f8b1030da3a9d3b4394562d60a05a" target="_top" xlink:title="RoR::GUI::TopMenubar\l::TopMenubar">
<polygon fill="white" stroke="black" points="574,-63 574,-93 691,-93 691,-63 574,-63"/>
<text text-anchor="start" x="582" y="-81" font-family="Helvetica,sans-Serif" font-size="10.00">RoR::GUI::TopMenubar</text>
<text text-anchor="middle" x="632.5" y="-70" font-family="Helvetica,sans-Serif" font-size="10.00">::TopMenubar</text>
</a>
</g>
</g>
<!-- Node3194&#45;&gt;Node3195 -->
<g id="edge5" class="edge"><title>Node3194&#45;&gt;Node3195</title>
<path fill="none" stroke="midnightblue" d="M516.707,-62.2749C535.478,-64.8464 555.677,-67.6133 573.819,-70.0984"/>
<polygon fill="midnightblue" stroke="midnightblue" points="517.127,-58.7998 506.744,-60.9102 516.177,-65.735 517.127,-58.7998"/>
</g>
<!-- Node3196 -->
<g id="node7" class="node"><title>Node3196</title>
<g id="a_node7"><a xlink:href="../../d6/d19/class_ro_r_1_1_g_u_i_1_1_top_menubar.html#a1a4c2b4a27eb2a018b6b8ea49528f22a" target="_top" xlink:title="RoR::GUI::TopMenubar\l::SetSimController">
<polygon fill="white" stroke="black" points="574,-14 574,-44 691,-44 691,-14 574,-14"/>
<text text-anchor="start" x="582" y="-32" font-family="Helvetica,sans-Serif" font-size="10.00">RoR::GUI::TopMenubar</text>
<text text-anchor="middle" x="632.5" y="-21" font-family="Helvetica,sans-Serif" font-size="10.00">::SetSimController</text>
</a>
</g>
</g>
<!-- Node3194&#45;&gt;Node3196 -->
<g id="edge6" class="edge"><title>Node3194&#45;&gt;Node3196</title>
<path fill="none" stroke="midnightblue" d="M516.707,-44.0961C535.478,-41.6275 555.677,-38.9713 573.819,-36.5855"/>
<polygon fill="midnightblue" stroke="midnightblue" points="516.202,-40.6322 506.744,-45.4063 517.115,-47.5724 516.202,-40.6322"/>
</g>
<!-- Node3197 -->
<g id="node8" class="node"><title>Node3197</title>
<g id="a_node8"><a xlink:href="../../d8/d11/class_ro_r_1_1_g_u_i_manager.html#a875185e93587aeb2ab73220c1d2d4fc8" target="_top" xlink:title="RoR::GUIManager::SetSimController">
<polygon fill="white" stroke="black" points="727,-19.5 727,-38.5 902,-38.5 902,-19.5 727,-19.5"/>
<text text-anchor="middle" x="814.5" y="-26.5" font-family="Helvetica,sans-Serif" font-size="10.00">RoR::GUIManager::SetSimController</text>
</a>
</g>
</g>
<!-- Node3196&#45;&gt;Node3197 -->
<g id="edge7" class="edge"><title>Node3196&#45;&gt;Node3197</title>
<path fill="none" stroke="midnightblue" d="M701.695,-29C709.915,-29 718.393,-29 726.832,-29"/>
<polygon fill="midnightblue" stroke="midnightblue" points="701.444,-25.5001 691.444,-29 701.444,-32.5001 701.444,-25.5001"/>
</g>
<!-- Node3198 -->
<g id="node9" class="node"><title>Node3198</title>
<g id="a_node9"><a xlink:href="../../dd/dbe/class_ro_r_frame_listener.html#a9e239911ad148aa76c58202920090f76" target="_top" xlink:title="RoRFrameListener::EnterGameplayLoop">
<polygon fill="white" stroke="black" points="938,-19.5 938,-38.5 1130,-38.5 1130,-19.5 938,-19.5"/>
<text text-anchor="middle" x="1034" y="-26.5" font-family="Helvetica,sans-Serif" font-size="10.00">RoRFrameListener::EnterGameplayLoop</text>
</a>
</g>
</g>
<!-- Node3197&#45;&gt;Node3198 -->
<g id="edge8" class="edge"><title>Node3197&#45;&gt;Node3198</title>
<path fill="none" stroke="midnightblue" d="M912.333,-29C920.784,-29 929.333,-29 937.771,-29"/>
<polygon fill="midnightblue" stroke="midnightblue" points="912.087,-25.5001 902.087,-29 912.087,-32.5001 912.087,-25.5001"/>
</g>
<!-- Node3199 -->
<g id="node10" class="node"><title>Node3199</title>
<g id="a_node10"><a xlink:href="../../dd/dbe/class_ro_r_frame_listener.html#ad598075b5f183208c0de43b9248bb44b" target="_top" xlink:title="RoRFrameListener::getTime">
<polygon fill="white" stroke="black" points="1166,-38.5 1166,-57.5 1304,-57.5 1304,-38.5 1166,-38.5"/>
<text text-anchor="middle" x="1235" y="-45.5" font-family="Helvetica,sans-Serif" font-size="10.00">RoRFrameListener::getTime</text>
</a>
</g>
</g>
<!-- Node3198&#45;&gt;Node3199 -->
<g id="edge9" class="edge"><title>Node3198&#45;&gt;Node3199</title>
<path fill="none" stroke="midnightblue" d="M1140.34,-39.0571C1149.02,-39.8863 1157.65,-40.7099 1165.95,-41.5023"/>
<polygon fill="midnightblue" stroke="midnightblue" points="1140.42,-35.549 1130.13,-38.0826 1139.75,-42.5173 1140.42,-35.549"/>
</g>
<!-- Node3200 -->
<g id="node11" class="node"><title>Node3200</title>
<g id="a_node11"><a xlink:href="../../df/d0a/main_8cpp.html#a0ddf1224851353fc92bfbff6f499fa97" target="_top" xlink:title="main">
<polygon fill="white" stroke="black" points="1216,-0.5 1216,-19.5 1254,-19.5 1254,-0.5 1216,-0.5"/>
<text text-anchor="middle" x="1235" y="-7.5" font-family="Helvetica,sans-Serif" font-size="10.00">main</text>
</a>
</g>
</g>
<!-- Node3198&#45;&gt;Node3200 -->
<g id="edge10" class="edge"><title>Node3198&#45;&gt;Node3200</title>
<path fill="none" stroke="midnightblue" d="M1140.44,-18.9328C1169.56,-16.1525 1198,-13.4373 1215.73,-11.7441"/>
<polygon fill="midnightblue" stroke="midnightblue" points="1139.75,-15.4827 1130.13,-19.9174 1140.42,-22.451 1139.75,-15.4827"/>
</g>
<!-- Node3201 -->
<g id="node12" class="node"><title>Node3201</title>
<g id="a_node12"><a xlink:href="../../df/d0a/main_8cpp.html#a2922bc5d5c2d77a3020cfbf9df12aab0" target="_top" xlink:title="WinMain">
<polygon fill="white" stroke="black" points="1340,-0.5 1340,-19.5 1395,-19.5 1395,-0.5 1340,-0.5"/>
<text text-anchor="middle" x="1367.5" y="-7.5" font-family="Helvetica,sans-Serif" font-size="10.00">WinMain</text>
</a>
</g>
</g>
<!-- Node3200&#45;&gt;Node3201 -->
<g id="edge11" class="edge"><title>Node3200&#45;&gt;Node3201</title>
<path fill="none" stroke="midnightblue" d="M1264.39,-10C1286.84,-10 1317.96,-10 1339.92,-10"/>
<polygon fill="midnightblue" stroke="midnightblue" points="1264.15,-6.5001 1254.15,-10 1264.15,-13.5001 1264.15,-6.5001"/>
</g>
</g>
</svg>
