<?xml version="1.0" encoding="UTF-8" standalone="no"?>
<!DOCTYPE svg PUBLIC "-//W3C//DTD SVG 1.1//EN"
 "http://www.w3.org/Graphics/SVG/1.1/DTD/svg11.dtd">
<!-- Generated by graphviz version 2.38.0 (20140413.2041)
 -->
<!-- Title: RoR::BeamFactory::CreateLocalRigInstance Pages: 1 -->
<svg width="1422pt" height="261pt"
 viewBox="0.00 0.00 1422.00 260.50" xmlns="http://www.w3.org/2000/svg" xmlns:xlink="http://www.w3.org/1999/xlink">
<g id="graph0" class="graph" transform="scale(1 1) rotate(0) translate(4 256.5)">
<title>RoR::BeamFactory::CreateLocalRigInstance</title>
<polygon fill="white" stroke="none" points="-4,4 -4,-256.5 1418,-256.5 1418,4 -4,4"/>
<!-- Node214 -->
<g id="node1" class="node"><title>Node214</title>
<polygon fill="#bfbfbf" stroke="black" points="0,-114 0,-144 134,-144 134,-114 0,-114"/>
<text text-anchor="start" x="8" y="-132" font-family="Helvetica,sans-Serif" font-size="10.00">RoR::BeamFactory::Create</text>
<text text-anchor="middle" x="67" y="-121" font-family="Helvetica,sans-Serif" font-size="10.00">LocalRigInstance</text>
</g>
<!-- Node215 -->
<g id="node2" class="node"><title>Node215</title>
<g id="a_node2"><a xlink:href="../../dd/dbe/class_ro_r_frame_listener.html#afec2a0f00ed552c21d22aae76329bf38" target="_top" xlink:title="RoRFrameListener::Update\lInputEvents">
<polygon fill="white" stroke="black" points="348.5,-222 348.5,-252 482.5,-252 482.5,-222 348.5,-222"/>
<text text-anchor="start" x="356.5" y="-240" font-family="Helvetica,sans-Serif" font-size="10.00">RoRFrameListener::Update</text>
<text text-anchor="middle" x="415.5" y="-229" font-family="Helvetica,sans-Serif" font-size="10.00">InputEvents</text>
</a>
</g>
</g>
<!-- Node214&#45;&gt;Node215 -->
<g id="edge1" class="edge"><title>Node214&#45;&gt;Node215</title>
<path fill="none" stroke="midnightblue" d="M98.2063,-149.549C117.879,-162.063 144.533,-177.432 170,-187 228.303,-208.904 298.222,-221.974 348.328,-229.225"/>
<polygon fill="midnightblue" stroke="midnightblue" points="99.9841,-146.53 89.6883,-144.031 96.1784,-152.405 99.9841,-146.53"/>
</g>
<!-- Node217 -->
<g id="node4" class="node"><title>Node217</title>
<g id="a_node4"><a xlink:href="../../dd/dbe/class_ro_r_frame_listener.html#a65f2dfb4f70e20076cc0dbc041f96bb0" target="_top" xlink:title="RoRFrameListener::Reload\lPlayerActor">
<polygon fill="white" stroke="black" points="170,-148 170,-178 304,-178 304,-148 170,-148"/>
<text text-anchor="start" x="178" y="-166" font-family="Helvetica,sans-Serif" font-size="10.00">RoRFrameListener::Reload</text>
<text text-anchor="middle" x="237" y="-155" font-family="Helvetica,sans-Serif" font-size="10.00">PlayerActor</text>
</a>
</g>
</g>
<!-- Node214&#45;&gt;Node217 -->
<g id="edge3" class="edge"><title>Node214&#45;&gt;Node217</title>
<path fill="none" stroke="midnightblue" d="M144.317,-144.445C152.826,-146.167 161.441,-147.911 169.809,-149.604"/>
<polygon fill="midnightblue" stroke="midnightblue" points="144.894,-140.991 134.398,-142.438 143.505,-147.852 144.894,-140.991"/>
</g>
<!-- Node227 -->
<g id="node14" class="node"><title>Node227</title>
<g id="a_node14"><a xlink:href="../../dd/dbe/class_ro_r_frame_listener.html#aca3931d7a75f2ad4b9d36c4fcd03a3c9" target="_top" xlink:title="RoRFrameListener::SetupGameplayLoop">
<polygon fill="white" stroke="black" points="727,-69.5 727,-88.5 921,-88.5 921,-69.5 727,-69.5"/>
<text text-anchor="middle" x="824" y="-76.5" font-family="Helvetica,sans-Serif" font-size="10.00">RoRFrameListener::SetupGameplayLoop</text>
</a>
</g>
</g>
<!-- Node214&#45;&gt;Node227 -->
<g id="edge14" class="edge"><title>Node214&#45;&gt;Node227</title>
<path fill="none" stroke="midnightblue" d="M144.105,-123.96C282.488,-114.795 575.026,-95.4221 726.923,-85.3627"/>
<polygon fill="midnightblue" stroke="midnightblue" points="143.757,-120.475 134.01,-124.628 144.219,-127.46 143.757,-120.475"/>
</g>
<!-- Node228 -->
<g id="node15" class="node"><title>Node228</title>
<g id="a_node15"><a xlink:href="../../d6/d14/class_terrain_object_manager.html#a202d577cb222f42c46e5b6600c9626a4" target="_top" xlink:title="TerrainObjectManager\l::loadPreloadedTrucks">
<polygon fill="white" stroke="black" points="180.5,-36 180.5,-66 293.5,-66 293.5,-36 180.5,-36"/>
<text text-anchor="start" x="188.5" y="-54" font-family="Helvetica,sans-Serif" font-size="10.00">TerrainObjectManager</text>
<text text-anchor="middle" x="237" y="-43" font-family="Helvetica,sans-Serif" font-size="10.00">::loadPreloadedTrucks</text>
</a>
</g>
</g>
<!-- Node214&#45;&gt;Node228 -->
<g id="edge17" class="edge"><title>Node214&#45;&gt;Node228</title>
<path fill="none" stroke="midnightblue" d="M108.752,-109.672C127.396,-100.868 149.79,-90.3481 170,-81 180.624,-76.0859 192.239,-70.7831 202.723,-66.0224"/>
<polygon fill="midnightblue" stroke="midnightblue" points="107.197,-106.536 99.6519,-113.973 110.189,-112.864 107.197,-106.536"/>
</g>
<!-- Node216 -->
<g id="node3" class="node"><title>Node216</title>
<g id="a_node3"><a xlink:href="../../dd/dbe/class_ro_r_frame_listener.html#acdda0026f9324c3b7f48568624e07115" target="_top" xlink:title="RoRFrameListener::frameStarted">
<polygon fill="white" stroke="black" points="529.5,-227.5 529.5,-246.5 688.5,-246.5 688.5,-227.5 529.5,-227.5"/>
<text text-anchor="middle" x="609" y="-234.5" font-family="Helvetica,sans-Serif" font-size="10.00">RoRFrameListener::frameStarted</text>
</a>
</g>
</g>
<!-- Node215&#45;&gt;Node216 -->
<g id="edge2" class="edge"><title>Node215&#45;&gt;Node216</title>
<path fill="none" stroke="midnightblue" d="M493.032,-237C504.965,-237 517.313,-237 529.294,-237"/>
<polygon fill="midnightblue" stroke="midnightblue" points="492.672,-233.5 482.672,-237 492.672,-240.5 492.672,-233.5"/>
</g>
<!-- Node217&#45;&gt;Node215 -->
<g id="edge4" class="edge"><title>Node217&#45;&gt;Node215</title>
<path fill="none" stroke="midnightblue" d="M276.214,-182.747C295.151,-192.174 318.512,-203.273 340,-212 348.469,-215.44 357.608,-218.791 366.486,-221.865"/>
<polygon fill="midnightblue" stroke="midnightblue" points="277.533,-179.493 267.025,-178.132 274.391,-185.748 277.533,-179.493"/>
</g>
<!-- Node218 -->
<g id="node5" class="node"><title>Node218</title>
<g id="a_node5"><a xlink:href="../../dd/dbe/class_ro_r_frame_listener.html#a627bc038df63cfa463e0ad24ab9c0b38" target="_top" xlink:title="RoRFrameListener::GetPlayer\lActor">
<polygon fill="white" stroke="black" points="342,-173 342,-203 489,-203 489,-173 342,-173"/>
<text text-anchor="start" x="350" y="-191" font-family="Helvetica,sans-Serif" font-size="10.00">RoRFrameListener::GetPlayer</text>
<text text-anchor="middle" x="415.5" y="-180" font-family="Helvetica,sans-Serif" font-size="10.00">Actor</text>
</a>
</g>
</g>
<!-- Node217&#45;&gt;Node218 -->
<g id="edge5" class="edge"><title>Node217&#45;&gt;Node218</title>
<path fill="none" stroke="midnightblue" d="M314.156,-173.787C323.391,-175.095 332.807,-176.429 341.988,-177.729"/>
<polygon fill="midnightblue" stroke="midnightblue" points="314.616,-170.317 304.224,-172.38 313.635,-177.248 314.616,-170.317"/>
</g>
<!-- Node219 -->
<g id="node6" class="node"><title>Node219</title>
<g id="a_node6"><a xlink:href="../../d6/d19/class_ro_r_1_1_g_u_i_1_1_top_menubar.html#ad1c44bd3c1247dcd8b876ff7728fac32" target="_top" xlink:title="RoR::GUI::TopMenubar\l::onMenuBtn">
<polygon fill="white" stroke="black" points="357,-124 357,-154 474,-154 474,-124 357,-124"/>
<text text-anchor="start" x="365" y="-142" font-family="Helvetica,sans-Serif" font-size="10.00">RoR::GUI::TopMenubar</text>
<text text-anchor="middle" x="415.5" y="-131" font-family="Helvetica,sans-Serif" font-size="10.00">::onMenuBtn</text>
</a>
</g>
</g>
<!-- Node217&#45;&gt;Node219 -->
<g id="edge6" class="edge"><title>Node217&#45;&gt;Node219</title>
<path fill="none" stroke="midnightblue" d="M314.486,-152.6C328.708,-150.666 343.346,-148.675 356.886,-146.834"/>
<polygon fill="midnightblue" stroke="midnightblue" points="313.661,-149.179 304.224,-153.995 314.605,-156.116 313.661,-149.179"/>
</g>
<!-- Node220 -->
<g id="node7" class="node"><title>Node220</title>
<g id="a_node7"><a xlink:href="../../d6/d19/class_ro_r_1_1_g_u_i_1_1_top_menubar.html#aba4f8b1030da3a9d3b4394562d60a05a" target="_top" xlink:title="RoR::GUI::TopMenubar\l::TopMenubar">
<polygon fill="white" stroke="black" points="550.5,-173 550.5,-203 667.5,-203 667.5,-173 550.5,-173"/>
<text text-anchor="start" x="558.5" y="-191" font-family="Helvetica,sans-Serif" font-size="10.00">RoR::GUI::TopMenubar</text>
<text text-anchor="middle" x="609" y="-180" font-family="Helvetica,sans-Serif" font-size="10.00">::TopMenubar</text>
</a>
</g>
</g>
<!-- Node219&#45;&gt;Node220 -->
<g id="edge7" class="edge"><title>Node219&#45;&gt;Node220</title>
<path fill="none" stroke="midnightblue" d="M484.011,-156.274C505.694,-161.822 529.498,-167.913 550.402,-173.262"/>
<polygon fill="midnightblue" stroke="midnightblue" points="484.772,-152.856 474.216,-153.768 483.036,-159.638 484.772,-152.856"/>
</g>
<!-- Node221 -->
<g id="node8" class="node"><title>Node221</title>
<g id="a_node8"><a xlink:href="../../d6/d19/class_ro_r_1_1_g_u_i_1_1_top_menubar.html#a1a4c2b4a27eb2a018b6b8ea49528f22a" target="_top" xlink:title="RoR::GUI::TopMenubar\l::SetSimController">
<polygon fill="white" stroke="black" points="550.5,-124 550.5,-154 667.5,-154 667.5,-124 550.5,-124"/>
<text text-anchor="start" x="558.5" y="-142" font-family="Helvetica,sans-Serif" font-size="10.00">RoR::GUI::TopMenubar</text>
<text text-anchor="middle" x="609" y="-131" font-family="Helvetica,sans-Serif" font-size="10.00">::SetSimController</text>
</a>
</g>
</g>
<!-- Node219&#45;&gt;Node221 -->
<g id="edge8" class="edge"><title>Node219&#45;&gt;Node221</title>
<path fill="none" stroke="midnightblue" d="M484.304,-139C505.908,-139 529.592,-139 550.402,-139"/>
<polygon fill="midnightblue" stroke="midnightblue" points="484.216,-135.5 474.216,-139 484.216,-142.5 484.216,-135.5"/>
</g>
<!-- Node222 -->
<g id="node9" class="node"><title>Node222</title>
<g id="a_node9"><a xlink:href="../../d8/d11/class_ro_r_1_1_g_u_i_manager.html#a875185e93587aeb2ab73220c1d2d4fc8" target="_top" xlink:title="RoR::GUIManager::SetSimController">
<polygon fill="white" stroke="black" points="736.5,-129.5 736.5,-148.5 911.5,-148.5 911.5,-129.5 736.5,-129.5"/>
<text text-anchor="middle" x="824" y="-136.5" font-family="Helvetica,sans-Serif" font-size="10.00">RoR::GUIManager::SetSimController</text>
</a>
</g>
</g>
<!-- Node221&#45;&gt;Node222 -->
<g id="edge9" class="edge"><title>Node221&#45;&gt;Node222</title>
<path fill="none" stroke="midnightblue" d="M677.798,-139C696.452,-139 716.94,-139 736.494,-139"/>
<polygon fill="midnightblue" stroke="midnightblue" points="677.641,-135.5 667.641,-139 677.641,-142.5 677.641,-135.5"/>
</g>
<!-- Node223 -->
<g id="node10" class="node"><title>Node223</title>
<g id="a_node10"><a xlink:href="../../dd/dbe/class_ro_r_frame_listener.html#a9e239911ad148aa76c58202920090f76" target="_top" xlink:title="RoRFrameListener::EnterGameplayLoop">
<polygon fill="white" stroke="black" points="957,-129.5 957,-148.5 1149,-148.5 1149,-129.5 957,-129.5"/>
<text text-anchor="middle" x="1053" y="-136.5" font-family="Helvetica,sans-Serif" font-size="10.00">RoRFrameListener::EnterGameplayLoop</text>
</a>
</g>
</g>
<!-- Node222&#45;&gt;Node223 -->
<g id="edge10" class="edge"><title>Node222&#45;&gt;Node223</title>
<path fill="none" stroke="midnightblue" d="M921.915,-139C933.519,-139 945.36,-139 956.938,-139"/>
<polygon fill="midnightblue" stroke="midnightblue" points="921.791,-135.5 911.791,-139 921.791,-142.5 921.791,-135.5"/>
</g>
<!-- Node224 -->
<g id="node11" class="node"><title>Node224</title>
<g id="a_node11"><a xlink:href="../../dd/dbe/class_ro_r_frame_listener.html#ad598075b5f183208c0de43b9248bb44b" target="_top" xlink:title="RoRFrameListener::getTime">
<polygon fill="white" stroke="black" points="1185,-62.5 1185,-81.5 1323,-81.5 1323,-62.5 1185,-62.5"/>
<text text-anchor="middle" x="1254" y="-69.5" font-family="Helvetica,sans-Serif" font-size="10.00">RoRFrameListener::getTime</text>
</a>
</g>
</g>
<!-- Node223&#45;&gt;Node224 -->
<g id="edge11" class="edge"><title>Node223&#45;&gt;Node224</title>
<path fill="none" stroke="midnightblue" d="M1092.37,-126.083C1131.04,-113.061 1189.84,-93.2653 1224.54,-81.5817"/>
<polygon fill="midnightblue" stroke="midnightblue" points="1090.87,-122.893 1082.51,-129.401 1093.11,-129.527 1090.87,-122.893"/>
</g>
<!-- Node225 -->
<g id="node12" class="node"><title>Node225</title>
<g id="a_node12"><a xlink:href="../../df/d0a/main_8cpp.html#a0ddf1224851353fc92bfbff6f499fa97" target="_top" xlink:title="main">
<polygon fill="white" stroke="black" points="1235,-119.5 1235,-138.5 1273,-138.5 1273,-119.5 1235,-119.5"/>
<text text-anchor="middle" x="1254" y="-126.5" font-family="Helvetica,sans-Serif" font-size="10.00">main</text>
</a>
</g>
</g>
<!-- Node223&#45;&gt;Node225 -->
<g id="edge12" class="edge"><title>Node223&#45;&gt;Node225</title>
<path fill="none" stroke="midnightblue" d="M1159.44,-133.701C1188.56,-132.238 1217,-130.809 1234.73,-129.918"/>
<polygon fill="midnightblue" stroke="midnightblue" points="1158.94,-130.222 1149.13,-134.22 1159.29,-137.213 1158.94,-130.222"/>
</g>
<!-- Node226 -->
<g id="node13" class="node"><title>Node226</title>
<g id="a_node13"><a xlink:href="../../df/d0a/main_8cpp.html#a2922bc5d5c2d77a3020cfbf9df12aab0" target="_top" xlink:title="WinMain">
<polygon fill="white" stroke="black" points="1359,-119.5 1359,-138.5 1414,-138.5 1414,-119.5 1359,-119.5"/>
<text text-anchor="middle" x="1386.5" y="-126.5" font-family="Helvetica,sans-Serif" font-size="10.00">WinMain</text>
</a>
</g>
</g>
<!-- Node225&#45;&gt;Node226 -->
<g id="edge13" class="edge"><title>Node225&#45;&gt;Node226</title>
<path fill="none" stroke="midnightblue" d="M1283.39,-129C1305.84,-129 1336.96,-129 1358.92,-129"/>
<polygon fill="midnightblue" stroke="midnightblue" points="1283.15,-125.5 1273.15,-129 1283.15,-132.5 1283.15,-125.5"/>
</g>
<!-- Node227&#45;&gt;Node224 -->
<g id="edge15" class="edge"><title>Node227&#45;&gt;Node224</title>
<path fill="none" stroke="midnightblue" d="M931.08,-77.265C1010.42,-75.9674 1116.58,-74.2312 1184.89,-73.114"/>
<polygon fill="midnightblue" stroke="midnightblue" points="930.993,-73.7659 921.052,-77.4291 931.107,-80.765 930.993,-73.7659"/>
</g>
<!-- Node227&#45;&gt;Node225 -->
<g id="edge16" class="edge"><title>Node227&#45;&gt;Node225</title>
<path fill="none" stroke="midnightblue" d="M916.657,-89.7076C1020.19,-101.803 1181.27,-120.62 1234.93,-126.888"/>
<polygon fill="midnightblue" stroke="midnightblue" points="916.85,-86.2064 906.511,-88.5223 916.037,-93.1591 916.85,-86.2064"/>
</g>
<!-- Node229 -->
<g id="node16" class="node"><title>Node229</title>
<g id="a_node16"><a xlink:href="../../d3/d16/class_terrain_manager.html#ac666fc0221c16001186b83cd6df66691" target="_top" xlink:title="TerrainManager::loadPreloaded\lTrucks">
<polygon fill="white" stroke="black" points="340,-36 340,-66 491,-66 491,-36 340,-36"/>
<text text-anchor="start" x="348" y="-54" font-family="Helvetica,sans-Serif" font-size="10.00">TerrainManager::loadPreloaded</text>
<text text-anchor="middle" x="415.5" y="-43" font-family="Helvetica,sans-Serif" font-size="10.00">Trucks</text>
</a>
</g>
</g>
<!-- Node228&#45;&gt;Node229 -->
<g id="edge18" class="edge"><title>Node228&#45;&gt;Node229</title>
<path fill="none" stroke="midnightblue" d="M303.989,-51C315.722,-51 328.017,-51 339.968,-51"/>
<polygon fill="midnightblue" stroke="midnightblue" points="303.846,-47.5001 293.846,-51 303.846,-54.5001 303.846,-47.5001"/>
</g>
<!-- Node229&#45;&gt;Node227 -->
<g id="edge19" class="edge"><title>Node229&#45;&gt;Node227</title>
<path fill="none" stroke="midnightblue" d="M501.382,-56.8467C567.108,-61.374 658.181,-67.6472 726.641,-72.3627"/>
<polygon fill="midnightblue" stroke="midnightblue" points="501.275,-53.3312 491.058,-56.1356 500.794,-60.3146 501.275,-53.3312"/>
</g>
<!-- Node230 -->
<g id="node17" class="node"><title>Node230</title>
<g id="a_node17"><a xlink:href="../../d3/d16/class_terrain_manager.html#a7c0eff44d224bbca740dc2ab171fd7bf" target="_top" xlink:title="TerrainManager::GetSimController">
<polygon fill="white" stroke="black" points="527,-0.5 527,-19.5 691,-19.5 691,-0.5 527,-0.5"/>
<text text-anchor="middle" x="609" y="-7.5" font-family="Helvetica,sans-Serif" font-size="10.00">TerrainManager::GetSimController</text>
</a>
</g>
</g>
<!-- Node229&#45;&gt;Node230 -->
<g id="edge20" class="edge"><title>Node229&#45;&gt;Node230</title>
<path fill="none" stroke="midnightblue" d="M496.741,-33.8204C519.532,-28.941 543.526,-23.8039 563.374,-19.5545"/>
<polygon fill="midnightblue" stroke="midnightblue" points="495.766,-30.4499 486.72,-35.9659 497.231,-37.2947 495.766,-30.4499"/>
</g>
<!-- Node230&#45;&gt;Node228 -->
<g id="edge21" class="edge"><title>Node230&#45;&gt;Node228</title>
<path fill="none" stroke="midnightblue" d="M516.766,-11.364C464.733,-13.1602 398.437,-17.1684 340,-26 324.045,-28.4112 306.932,-32.1431 291.367,-35.9943"/>
<polygon fill="midnightblue" stroke="midnightblue" points="517.095,-14.8553 526.976,-11.0334 516.868,-7.85892 517.095,-14.8553"/>
</g>
</g>
</svg>
