<?xml version="1.0" encoding="UTF-8" standalone="no"?>
<!DOCTYPE svg PUBLIC "-//W3C//DTD SVG 1.1//EN"
 "http://www.w3.org/Graphics/SVG/1.1/DTD/svg11.dtd">
<!-- Generated by graphviz version 2.38.0 (20140413.2041)
 -->
<!-- Title: RoR::BeamFactory::UpdateSleepingState Pages: 1 -->
<!--zoomable 172 -->
<svg id="main" version="1.1" xmlns="http://www.w3.org/2000/svg" xmlns:xlink="http://www.w3.org/1999/xlink" xml:space="preserve" onload="init(evt)">
<style type="text/css"><![CDATA[
.edge:hover path { stroke: red; }
.edge:hover polygon { stroke: red; fill: red; }
]]></style>
<script type="text/javascript"><![CDATA[
var edges = document.getElementsByTagName('g');
if (edges && edges.length) {
  for (var i=0;i<edges.length;i++) {
    if (edges[i].id.substr(0,4)=='edge') {
      edges[i].setAttribute('class','edge');
    }
  }
}
]]></script>
        <defs>
                <circle id="rim" cx="0" cy="0" r="7"/>
                <circle id="rim2" cx="0" cy="0" r="3.5"/>
                <g id="zoomPlus">
                        <use xlink:href="#rim" fill="#404040">
                                <set attributeName="fill" to="#808080" begin="zoomplus.mouseover" end="zoomplus.mouseout"/>
                        </use>
                        <path d="M-4,0h8M0,-4v8" fill="none" stroke="white" stroke-width="1.5" pointer-events="none"/>
                </g>
                <g id="zoomMin">
                        <use xlink:href="#rim" fill="#404040">
                                <set attributeName="fill" to="#808080" begin="zoomminus.mouseover" end="zoomminus.mouseout"/>
                        </use>
                        <path d="M-4,0h8" fill="none" stroke="white" stroke-width="1.5" pointer-events="none"/>
                </g>
                <g id="dirArrow">
                        <path fill="none" stroke="white" stroke-width="1.5" d="M0,-3.0v7 M-2.5,-0.5L0,-3.0L2.5,-0.5"/>
                </g>
               <g id="resetDef">
                       <use xlink:href="#rim2" fill="#404040">
                               <set attributeName="fill" to="#808080" begin="reset.mouseover" end="reset.mouseout"/>
                       </use>
               </g>
        </defs>

<script type="text/javascript">
var viewWidth = 1006;
var viewHeight = 172;
var sectionId = 'dynsection-81';
</script>
<script xlink:href="../../svgpan.js"/>
<svg id="graph" class="graph">
<g id="viewport">
<title>RoR::BeamFactory::UpdateSleepingState</title>
<polygon fill="white" stroke="none" points="-4,4 -4,-168 1002,-168 1002,4 -4,4"/>
<!-- Node3102 -->
<g id="node1" class="node"><title>Node3102</title>
<polygon fill="#bfbfbf" stroke="black" points="0,-108.5 0,-138.5 137,-138.5 137,-108.5 0,-108.5"/>
<text text-anchor="start" x="8" y="-126.5" font-family="Helvetica,sans-Serif" font-size="10.00">RoR::BeamFactory::Update</text>
<text text-anchor="middle" x="68.5" y="-115.5" font-family="Helvetica,sans-Serif" font-size="10.00">SleepingState</text>
</g>
<!-- Node3103 -->
<g id="node2" class="node"><title>Node3103</title>
<g id="a_node2"><a xlink:href="../../d5/d53/class_ro_r_1_1_beam_factory.html#aeb17b3a10c961e56770f7dc87a16625c" target="_top" xlink:title="RoR::BeamFactory::getCurrent\lTruck">
<polygon fill="white" stroke="black" points="173,-133.5 173,-163.5 324,-163.5 324,-133.5 173,-133.5"/>
<text text-anchor="start" x="181" y="-151.5" font-family="Helvetica,sans-Serif" font-size="10.00">RoR::BeamFactory::getCurrent</text>
<text text-anchor="middle" x="248.5" y="-140.5" font-family="Helvetica,sans-Serif" font-size="10.00">Truck</text>
</a>
</g>
</g>
<!-- Node3102&#45;&gt;Node3103 -->
<g id="edge1" class="edge"><title>Node3102&#45;&gt;Node3103</title>
<path fill="none" stroke="midnightblue" d="M137.048,-132.987C145.46,-134.169 154.144,-135.388 162.774,-136.6"/>
<polygon fill="midnightblue" stroke="midnightblue" points="162.471,-140.092 172.861,-138.017 163.445,-133.16 162.471,-140.092"/>
</g>
<!-- Node3105 -->
<g id="node4" class="node"><title>Node3105</title>
<g id="a_node4"><a xlink:href="../../d5/d53/class_ro_r_1_1_beam_factory.html#a79720bddfd56a8689f7e60f93e1678cd" target="_top" xlink:title="RoR::BeamFactory::Recursive\lActivation">
<polygon fill="white" stroke="black" points="174.5,-84.5 174.5,-114.5 322.5,-114.5 322.5,-84.5 174.5,-84.5"/>
<text text-anchor="start" x="182.5" y="-102.5" font-family="Helvetica,sans-Serif" font-size="10.00">RoR::BeamFactory::Recursive</text>
<text text-anchor="middle" x="248.5" y="-91.5" font-family="Helvetica,sans-Serif" font-size="10.00">Activation</text>
</a>
</g>
</g>
<!-- Node3102&#45;&gt;Node3105 -->
<g id="edge3" class="edge"><title>Node3102&#45;&gt;Node3105</title>
<path fill="none" stroke="midnightblue" d="M137.048,-114.392C145.909,-113.198 155.071,-111.962 164.154,-110.738"/>
<polygon fill="midnightblue" stroke="midnightblue" points="164.914,-114.167 174.356,-109.362 163.978,-107.23 164.914,-114.167"/>
</g>
<!-- Node3104 -->
<g id="node3" class="node"><title>Node3104</title>
<g id="a_node3"><a xlink:href="../../d5/d53/class_ro_r_1_1_beam_factory.html#aadb09a68dc35fad593189242429df218" target="_top" xlink:title="RoR::BeamFactory::getTruck">
<polygon fill="white" stroke="black" points="377.5,-139 377.5,-158 520.5,-158 520.5,-139 377.5,-139"/>
<text text-anchor="middle" x="449" y="-146" font-family="Helvetica,sans-Serif" font-size="10.00">RoR::BeamFactory::getTruck</text>
</a>
</g>
</g>
<!-- Node3103&#45;&gt;Node3104 -->
<g id="edge2" class="edge"><title>Node3103&#45;&gt;Node3104</title>
<path fill="none" stroke="midnightblue" d="M324.261,-148.5C338.234,-148.5 352.898,-148.5 367.047,-148.5"/>
<polygon fill="midnightblue" stroke="midnightblue" points="367.242,-152 377.242,-148.5 367.242,-145 367.242,-152"/>
</g>
<!-- Node3106 -->
<g id="node5" class="node"><title>Node3106</title>
<g id="a_node5"><a xlink:href="../../d5/d53/class_ro_r_1_1_beam_factory.html#acab7b0c4b54d1d6c4950882447ed6661" target="_top" xlink:title="Returns whether or not the bounding boxes of truck a and truck b intersect. Based on the truck collis...">
<polygon fill="white" stroke="black" points="360,-87.5 360,-117.5 538,-117.5 538,-87.5 360,-87.5"/>
<text text-anchor="start" x="368" y="-105.5" font-family="Helvetica,sans-Serif" font-size="10.00">RoR::BeamFactory::truckIntersection</text>
<text text-anchor="middle" x="449" y="-94.5" font-family="Helvetica,sans-Serif" font-size="10.00">CollAABB</text>
</a>
</g>
</g>
<!-- Node3105&#45;&gt;Node3106 -->
<g id="edge4" class="edge"><title>Node3105&#45;&gt;Node3106</title>
<path fill="none" stroke="midnightblue" d="M322.568,-100.604C331.403,-100.738 340.536,-100.876 349.659,-101.014"/>
<polygon fill="midnightblue" stroke="midnightblue" points="349.887,-104.517 359.938,-101.169 349.992,-97.5183 349.887,-104.517"/>
</g>
<!-- Node3109 -->
<g id="node8" class="node"><title>Node3109</title>
<g id="a_node8"><a xlink:href="../../d5/d53/class_ro_r_1_1_beam_factory.html#aede50015ffb569b00e4afee1a34fa854" target="_top" xlink:title="Returns whether or not the bounding boxes of truck a and truck b might intersect during the next fram...">
<polygon fill="white" stroke="black" points="381.5,-38.5 381.5,-68.5 516.5,-68.5 516.5,-38.5 381.5,-38.5"/>
<text text-anchor="start" x="389.5" y="-56.5" font-family="Helvetica,sans-Serif" font-size="10.00">RoR::BeamFactory::predict</text>
<text text-anchor="middle" x="449" y="-45.5" font-family="Helvetica,sans-Serif" font-size="10.00">TruckIntersectionCollAABB</text>
</a>
</g>
</g>
<!-- Node3105&#45;&gt;Node3109 -->
<g id="edge8" class="edge"><title>Node3105&#45;&gt;Node3109</title>
<path fill="none" stroke="midnightblue" d="M314.496,-84.4379C333.272,-80.0869 353.911,-75.3039 373.231,-70.8268"/>
<polygon fill="midnightblue" stroke="midnightblue" points="374.245,-74.1846 383.197,-68.5174 372.665,-67.3653 374.245,-74.1846"/>
</g>
<!-- Node3107 -->
<g id="node6" class="node"><title>Node3107</title>
<g id="a_node6"><a xlink:href="../../d5/d53/class_ro_r_1_1_beam_factory.html#a65a7adae4e12c91a71eedf77d9b739a9" target="_top" xlink:title="Returns whether or not the bounding boxes of truck a and truck b intersect. Based on the default truc...">
<polygon fill="white" stroke="black" points="574,-126 574,-145 779,-145 779,-126 574,-126"/>
<text text-anchor="middle" x="676.5" y="-133" font-family="Helvetica,sans-Serif" font-size="10.00">RoR::BeamFactory::truckIntersectionAABB</text>
</a>
</g>
</g>
<!-- Node3106&#45;&gt;Node3107 -->
<g id="edge5" class="edge"><title>Node3106&#45;&gt;Node3107</title>
<path fill="none" stroke="midnightblue" d="M538.153,-115.4C558.759,-118.416 580.518,-121.6 600.491,-124.523"/>
<polygon fill="midnightblue" stroke="midnightblue" points="600.045,-127.995 610.447,-125.98 601.059,-121.069 600.045,-127.995"/>
</g>
<!-- Node3108 -->
<g id="node7" class="node"><title>Node3108</title>
<g id="a_node7"><a xlink:href="../../d5/d53/class_ro_r_1_1_beam_factory.html#abea20f91f941f569f0b95f32ae2638ec" target="_top" xlink:title="Returns whether or not the two (scaled) bounding boxes intersect. ">
<polygon fill="white" stroke="black" points="815,-69 815,-88 998,-88 998,-69 815,-69"/>
<text text-anchor="middle" x="906.5" y="-76" font-family="Helvetica,sans-Serif" font-size="10.00">RoR::BeamFactory::intersectionAABB</text>
</a>
</g>
</g>
<!-- Node3106&#45;&gt;Node3108 -->
<g id="edge7" class="edge"><title>Node3106&#45;&gt;Node3108</title>
<path fill="none" stroke="midnightblue" d="M538.095,-97.8583C614.482,-93.8335 725.008,-88.01 804.863,-83.8025"/>
<polygon fill="midnightblue" stroke="midnightblue" points="805.134,-87.2932 814.936,-83.2718 804.765,-80.3029 805.134,-87.2932"/>
</g>
<!-- Node3107&#45;&gt;Node3108 -->
<g id="edge6" class="edge"><title>Node3107&#45;&gt;Node3108</title>
<path fill="none" stroke="midnightblue" d="M719.034,-125.906C737.431,-121.599 759.319,-116.393 779,-111.5 805.886,-104.815 835.892,-97.003 859.931,-90.658"/>
<polygon fill="midnightblue" stroke="midnightblue" points="861.069,-93.9773 869.841,-88.0361 859.278,-87.2102 861.069,-93.9773"/>
</g>
<!-- Node3109&#45;&gt;Node3108 -->
<g id="edge11" class="edge"><title>Node3109&#45;&gt;Node3108</title>
<path fill="none" stroke="midnightblue" d="M516.721,-57.162C592.428,-61.3171 716.737,-68.1398 804.376,-72.9498"/>
<polygon fill="midnightblue" stroke="midnightblue" points="804.431,-76.458 814.608,-73.5114 804.815,-69.4686 804.431,-76.458"/>
</g>
<!-- Node3110 -->
<g id="node9" class="node"><title>Node3110</title>
<g id="a_node9"><a xlink:href="../../d5/d53/class_ro_r_1_1_beam_factory.html#a6e019b56235074247a1c7e058f219f92" target="_top" xlink:title="Returns whether or not the bounding boxes of truck a and truck b might intersect during the next fram...">
<polygon fill="white" stroke="black" points="609,-0.5 609,-30.5 744,-30.5 744,-0.5 609,-0.5"/>
<text text-anchor="start" x="617" y="-18.5" font-family="Helvetica,sans-Serif" font-size="10.00">RoR::BeamFactory::predict</text>
<text text-anchor="middle" x="676.5" y="-7.5" font-family="Helvetica,sans-Serif" font-size="10.00">TruckIntersectionAABB</text>
</a>
</g>
</g>
<!-- Node3109&#45;&gt;Node3110 -->
<g id="edge9" class="edge"><title>Node3109&#45;&gt;Node3110</title>
<path fill="none" stroke="midnightblue" d="M516.742,-42.253C542.538,-37.906 572.212,-32.9055 598.873,-28.4128"/>
<polygon fill="midnightblue" stroke="midnightblue" points="599.65,-31.8313 608.929,-26.7182 598.486,-24.9286 599.65,-31.8313"/>
</g>
<!-- Node3110&#45;&gt;Node3108 -->
<g id="edge10" class="edge"><title>Node3110&#45;&gt;Node3108</title>
<path fill="none" stroke="midnightblue" d="M731.822,-30.51C771.312,-41.4216 824.106,-56.0096 861.083,-66.227"/>
<polygon fill="midnightblue" stroke="midnightblue" points="860.498,-69.6963 871.069,-68.9862 862.362,-62.9492 860.498,-69.6963"/>
</g>
</g>
</svg>
        <g id="navigator" transform="translate(0 0)" fill="#404254">
                <rect fill="#f2f5e9" fill-opacity="0.5" stroke="#606060" stroke-width=".5" x="0" y="0" width="60" height="60"/>
                <use id="zoomplus" xlink:href="#zoomPlus" x="17" y="9" onmousedown="handleZoom(evt,'in')"/>
                <use id="zoomminus" xlink:href="#zoomMin" x="42" y="9" onmousedown="handleZoom(evt,'out')"/>
                <use id="reset" xlink:href="#resetDef" x="30" y="36" onmousedown="handleReset()"/>
                <g id="arrowUp" xlink:href="#dirArrow" transform="translate(30 24)" onmousedown="handlePan(0,-1)">
                  <use xlink:href="#rim" fill="#404040">
                        <set attributeName="fill" to="#808080" begin="arrowUp.mouseover" end="arrowUp.mouseout"/>
                  </use>
                  <path fill="none" stroke="white" stroke-width="1.5" d="M0,-3.0v7 M-2.5,-0.5L0,-3.0L2.5,-0.5"/>
                </g>
                <g id="arrowRight" xlink:href="#dirArrow" transform="rotate(90) translate(36 -43)" onmousedown="handlePan(1,0)">
                  <use xlink:href="#rim" fill="#404040">
                        <set attributeName="fill" to="#808080" begin="arrowRight.mouseover" end="arrowRight.mouseout"/>
                  </use>
                  <path fill="none" stroke="white" stroke-width="1.5" d="M0,-3.0v7 M-2.5,-0.5L0,-3.0L2.5,-0.5"/>
                </g>
                <g id="arrowDown" xlink:href="#dirArrow" transform="rotate(180) translate(-30 -48)" onmousedown="handlePan(0,1)">
                  <use xlink:href="#rim" fill="#404040">
                        <set attributeName="fill" to="#808080" begin="arrowDown.mouseover" end="arrowDown.mouseout"/>
                  </use>
                  <path fill="none" stroke="white" stroke-width="1.5" d="M0,-3.0v7 M-2.5,-0.5L0,-3.0L2.5,-0.5"/>
                </g>
                <g id="arrowLeft" xlink:href="#dirArrow" transform="rotate(270) translate(-36 17)" onmousedown="handlePan(-1,0)">
                  <use xlink:href="#rim" fill="#404040">
                        <set attributeName="fill" to="#808080" begin="arrowLeft.mouseover" end="arrowLeft.mouseout"/>
                  </use>
                  <path fill="none" stroke="white" stroke-width="1.5" d="M0,-3.0v7 M-2.5,-0.5L0,-3.0L2.5,-0.5"/>
                </g>
        </g>
        <svg viewBox="0 0 15 15" width="100%" height="30px" preserveAspectRatio="xMaxYMin meet">
         <g id="arrow_out" transform="scale(0.3 0.3)">
          <a xlink:href="class_ro_r_1_1_beam_factory_a1a0708c3248c3759a0352257a4af458b_cgraph_org.svg" target="_base">
           <rect id="button" ry="5" rx="5" y="6" x="6" height="38" width="38"
                fill="#f2f5e9" fill-opacity="0.5" stroke="#606060" stroke-width="1.0"/>
           <path id="arrow"
             d="M 11.500037,31.436501 C 11.940474,20.09759 22.043105,11.32322 32.158766,21.979434 L 37.068811,17.246167 C 37.068811,17.246167 37.088388,32 37.088388,32 L 22.160133,31.978069 C 22.160133,31.978069 26.997745,27.140456 26.997745,27.140456 C 18.528582,18.264221 13.291696,25.230495 11.500037,31.436501 z"
             style="fill:#404040;"/>
          </a>
         </g>
        </svg>
</svg>
