<?xml version="1.0" encoding="UTF-8" standalone="no"?>
<!DOCTYPE svg PUBLIC "-//W3C//DTD SVG 1.1//EN"
 "http://www.w3.org/Graphics/SVG/1.1/DTD/svg11.dtd">
<!-- Generated by graphviz version 2.38.0 (20140413.2041)
 -->
<!-- Title: RoR::BeamFactory::enterPreviousTruck Pages: 1 -->
<svg width="2048pt" height="713pt"
 viewBox="0.00 0.00 2048.00 713.40" xmlns="http://www.w3.org/2000/svg" xmlns:xlink="http://www.w3.org/1999/xlink">
<g id="graph0" class="graph" transform="scale(1 1) rotate(0) translate(4 709.4)">
<title>RoR::BeamFactory::enterPreviousTruck</title>
<polygon fill="white" stroke="none" points="-4,4 -4,-709.4 2044,-709.4 2044,4 -4,4"/>
<!-- Node852 -->
<g id="node1" class="node"><title>Node852</title>
<polygon fill="#bfbfbf" stroke="black" points="0,-501.4 0,-531.4 164,-531.4 164,-501.4 0,-501.4"/>
<text text-anchor="start" x="8" y="-519.4" font-family="Helvetica,sans-Serif" font-size="10.00">RoR::BeamFactory::enterPrevious</text>
<text text-anchor="middle" x="82" y="-508.4" font-family="Helvetica,sans-Serif" font-size="10.00">Truck</text>
</g>
<!-- Node853 -->
<g id="node2" class="node"><title>Node853</title>
<g id="a_node2"><a xlink:href="../../dd/dbe/class_ro_r_frame_listener.html#afec2a0f00ed552c21d22aae76329bf38" target="_top" xlink:title="RoRFrameListener::Update\lInputEvents">
<polygon fill="white" stroke="black" points="976.5,-507.4 976.5,-537.4 1110.5,-537.4 1110.5,-507.4 976.5,-507.4"/>
<text text-anchor="start" x="984.5" y="-525.4" font-family="Helvetica,sans-Serif" font-size="10.00">RoRFrameListener::Update</text>
<text text-anchor="middle" x="1043.5" y="-514.4" font-family="Helvetica,sans-Serif" font-size="10.00">InputEvents</text>
</a>
</g>
</g>
<!-- Node852&#45;&gt;Node853 -->
<g id="edge1" class="edge"><title>Node852&#45;&gt;Node853</title>
<path fill="none" stroke="midnightblue" d="M145.864,-533.983C218.151,-552.623 340.675,-579.4 448,-579.4 448,-579.4 448,-579.4 636.5,-579.4 765.505,-579.4 799.222,-582.265 926,-558.4 951.693,-553.564 979.709,-545.016 1001.83,-537.463"/>
<polygon fill="midnightblue" stroke="midnightblue" points="146.564,-530.548 136.004,-531.41 144.797,-537.322 146.564,-530.548"/>
</g>
<!-- Node855 -->
<g id="node4" class="node"><title>Node855</title>
<g id="a_node4"><a xlink:href="../../d5/d53/class_ro_r_1_1_beam_factory.html#af97e1d1b1238dc08e1bc6ed5b1491e91" target="_top" xlink:title="RoR::BeamFactory::getTruck\lCount">
<polygon fill="white" stroke="black" points="200,-422.4 200,-452.4 343,-452.4 343,-422.4 200,-422.4"/>
<text text-anchor="start" x="208" y="-440.4" font-family="Helvetica,sans-Serif" font-size="10.00">RoR::BeamFactory::getTruck</text>
<text text-anchor="middle" x="271.5" y="-429.4" font-family="Helvetica,sans-Serif" font-size="10.00">Count</text>
</a>
</g>
</g>
<!-- Node852&#45;&gt;Node855 -->
<g id="edge3" class="edge"><title>Node852&#45;&gt;Node855</title>
<path fill="none" stroke="midnightblue" d="M128.038,-497.424C160.699,-483.663 204.282,-465.3 234.605,-452.524"/>
<polygon fill="midnightblue" stroke="midnightblue" points="126.565,-494.247 118.709,-501.355 129.283,-500.698 126.565,-494.247"/>
</g>
<!-- Node854 -->
<g id="node3" class="node"><title>Node854</title>
<g id="a_node3"><a xlink:href="../../dd/dbe/class_ro_r_frame_listener.html#acdda0026f9324c3b7f48568624e07115" target="_top" xlink:title="RoRFrameListener::frameStarted">
<polygon fill="white" stroke="black" points="1163.5,-651.9 1163.5,-670.9 1322.5,-670.9 1322.5,-651.9 1163.5,-651.9"/>
<text text-anchor="middle" x="1243" y="-658.9" font-family="Helvetica,sans-Serif" font-size="10.00">RoRFrameListener::frameStarted</text>
</a>
</g>
</g>
<!-- Node853&#45;&gt;Node854 -->
<g id="edge2" class="edge"><title>Node853&#45;&gt;Node854</title>
<path fill="none" stroke="midnightblue" d="M1087.61,-542.099C1100,-548.36 1113.32,-555.681 1125,-563.4 1167.66,-591.603 1212.5,-632.982 1231.98,-651.64"/>
<polygon fill="midnightblue" stroke="midnightblue" points="1088.86,-538.817 1078.35,-537.528 1085.77,-545.094 1088.86,-538.817"/>
</g>
<!-- Node855&#45;&gt;Node853 -->
<g id="edge4" class="edge"><title>Node855&#45;&gt;Node853</title>
<path fill="none" stroke="midnightblue" d="M297.303,-458.828C317.718,-475.008 348.21,-495.98 379,-505.4 589.18,-569.711 854.518,-547.622 976.123,-532.184"/>
<polygon fill="midnightblue" stroke="midnightblue" points="299.431,-456.048 289.464,-452.456 295.016,-461.479 299.431,-456.048"/>
</g>
<!-- Node855&#45;&gt;Node854 -->
<g id="edge5" class="edge"><title>Node855&#45;&gt;Node854</title>
<path fill="none" stroke="midnightblue" d="M287.994,-461.031C332.997,-526.496 470.944,-705.4 634.5,-705.4 634.5,-705.4 634.5,-705.4 840,-705.4 965.673,-705.4 1112.14,-683.889 1188.88,-670.948"/>
<polygon fill="midnightblue" stroke="midnightblue" points="290.774,-458.894 282.268,-452.577 284.978,-462.82 290.774,-458.894"/>
</g>
<!-- Node856 -->
<g id="node5" class="node"><title>Node856</title>
<g id="a_node5"><a xlink:href="../../dd/dbe/class_ro_r_frame_listener.html#a57679664f6f2299add5b6ba7fcbb1b11" target="_top" xlink:title="RoRFrameListener::ShowLoaderGUI">
<polygon fill="white" stroke="black" points="1362,-149.9 1362,-168.9 1535,-168.9 1535,-149.9 1362,-149.9"/>
<text text-anchor="middle" x="1448.5" y="-156.9" font-family="Helvetica,sans-Serif" font-size="10.00">RoRFrameListener::ShowLoaderGUI</text>
</a>
</g>
</g>
<!-- Node855&#45;&gt;Node856 -->
<g id="edge6" class="edge"><title>Node855&#45;&gt;Node856</title>
<path fill="none" stroke="midnightblue" d="M275.122,-412.093C282.164,-355.815 306.179,-218.63 379,-134.4 462.862,-37.4007 506.275,-0.400442 634.5,-0.400442 634.5,-0.400442 634.5,-0.400442 1044.5,-0.400442 1171.99,-0.400442 1216.17,6.00663 1325,-60.4004 1346.57,-73.5618 1342.1,-87.6316 1361,-104.4 1382.17,-123.179 1410.41,-139.848 1428.77,-149.784"/>
<polygon fill="midnightblue" stroke="midnightblue" points="271.622,-411.89 273.93,-422.231 278.574,-412.708 271.622,-411.89"/>
</g>
<!-- Node858 -->
<g id="node7" class="node"><title>Node858</title>
<g id="a_node7"><a xlink:href="../../dd/dbe/class_ro_r_frame_listener.html#a1487efccac9d66315b8885f07448f83a" target="_top" xlink:title="RoRFrameListener::GetNum\lActors">
<polygon fill="white" stroke="black" points="379,-466.4 379,-496.4 519,-496.4 519,-466.4 379,-466.4"/>
<text text-anchor="start" x="387" y="-484.4" font-family="Helvetica,sans-Serif" font-size="10.00">RoRFrameListener::GetNum</text>
<text text-anchor="middle" x="449" y="-473.4" font-family="Helvetica,sans-Serif" font-size="10.00">Actors</text>
</a>
</g>
</g>
<!-- Node855&#45;&gt;Node858 -->
<g id="edge8" class="edge"><title>Node855&#45;&gt;Node858</title>
<path fill="none" stroke="midnightblue" d="M342.243,-454.886C357.407,-458.688 373.321,-462.677 388.066,-466.374"/>
<polygon fill="midnightblue" stroke="midnightblue" points="342.957,-451.457 332.406,-452.42 341.255,-458.247 342.957,-451.457"/>
</g>
<!-- Node859 -->
<g id="node8" class="node"><title>Node859</title>
<g id="a_node8"><a xlink:href="../../d7/d9d/class_ro_r_1_1_scene_mouse.html#a4b6998ce12990478a6a2bf2e59b2eb1d" target="_top" xlink:title="RoR::SceneMouse::mouseMoved">
<polygon fill="white" stroke="black" points="555,-98.9004 555,-117.9 716,-117.9 716,-98.9004 555,-98.9004"/>
<text text-anchor="middle" x="635.5" y="-105.9" font-family="Helvetica,sans-Serif" font-size="10.00">RoR::SceneMouse::mouseMoved</text>
</a>
</g>
</g>
<!-- Node855&#45;&gt;Node859 -->
<g id="edge9" class="edge"><title>Node855&#45;&gt;Node859</title>
<path fill="none" stroke="midnightblue" d="M278.167,-412.276C289.623,-366.889 319.65,-270.725 379,-214.4 437.173,-159.193 528.177,-130.905 584.422,-117.909"/>
<polygon fill="midnightblue" stroke="midnightblue" points="274.724,-411.622 275.764,-422.166 281.526,-413.275 274.724,-411.622"/>
</g>
<!-- Node865 -->
<g id="node14" class="node"><title>Node865</title>
<g id="a_node14"><a xlink:href="../../d6/d19/class_ro_r_1_1_g_u_i_1_1_top_menubar.html#addbf2f7c7b987d76109c9ed95f966437" target="_top" xlink:title="RoR::GUI::TopMenubar\l::addUserToMenu">
<polygon fill="white" stroke="black" points="390.5,-275.4 390.5,-305.4 507.5,-305.4 507.5,-275.4 390.5,-275.4"/>
<text text-anchor="start" x="398.5" y="-293.4" font-family="Helvetica,sans-Serif" font-size="10.00">RoR::GUI::TopMenubar</text>
<text text-anchor="middle" x="449" y="-282.4" font-family="Helvetica,sans-Serif" font-size="10.00">::addUserToMenu</text>
</a>
</g>
</g>
<!-- Node855&#45;&gt;Node865 -->
<g id="edge15" class="edge"><title>Node855&#45;&gt;Node865</title>
<path fill="none" stroke="midnightblue" d="M298.729,-415.431C334.814,-385.206 398.832,-331.584 429.978,-305.496"/>
<polygon fill="midnightblue" stroke="midnightblue" points="296.039,-413.118 290.621,-422.223 300.534,-418.484 296.039,-413.118"/>
</g>
<!-- Node866 -->
<g id="node15" class="node"><title>Node866</title>
<g id="a_node15"><a xlink:href="../../d6/d19/class_ro_r_1_1_g_u_i_1_1_top_menubar.html#a70583f192ad3c430862d4e17afac2a2f" target="_top" xlink:title="RoR::GUI::TopMenubar\l::vehiclesListUpdate">
<polygon fill="white" stroke="black" points="577,-198.4 577,-228.4 694,-228.4 694,-198.4 577,-198.4"/>
<text text-anchor="start" x="585" y="-216.4" font-family="Helvetica,sans-Serif" font-size="10.00">RoR::GUI::TopMenubar</text>
<text text-anchor="middle" x="635.5" y="-205.4" font-family="Helvetica,sans-Serif" font-size="10.00">::vehiclesListUpdate</text>
</a>
</g>
</g>
<!-- Node855&#45;&gt;Node866 -->
<g id="edge30" class="edge"><title>Node855&#45;&gt;Node866</title>
<path fill="none" stroke="midnightblue" d="M280.616,-412.551C294.41,-374.462 326.189,-302.2 379,-265.4 437.774,-224.446 521.517,-214.254 576.901,-212.442"/>
<polygon fill="midnightblue" stroke="midnightblue" points="277.194,-411.735 277.2,-422.33 283.802,-414.044 277.194,-411.735"/>
</g>
<!-- Node876 -->
<g id="node25" class="node"><title>Node876</title>
<g id="a_node25"><a xlink:href="../../df/df9/class_beam.html#a7f17e89ec7dfd80a13382d1df2155bdb" target="_top" xlink:title="Beam::toggleSlideNodeLock">
<polygon fill="white" stroke="black" points="379,-427.9 379,-446.9 519,-446.9 519,-427.9 379,-427.9"/>
<text text-anchor="middle" x="449" y="-434.9" font-family="Helvetica,sans-Serif" font-size="10.00">Beam::toggleSlideNodeLock</text>
</a>
</g>
</g>
<!-- Node855&#45;&gt;Node876 -->
<g id="edge31" class="edge"><title>Node855&#45;&gt;Node876</title>
<path fill="none" stroke="midnightblue" d="M353.171,-437.4C361.783,-437.4 370.487,-437.4 378.947,-437.4"/>
<polygon fill="midnightblue" stroke="midnightblue" points="353.124,-433.901 343.124,-437.4 353.124,-440.901 353.124,-433.901"/>
</g>
<!-- Node857 -->
<g id="node6" class="node"><title>Node857</title>
<g id="a_node6"><a xlink:href="../../dd/dbe/class_ro_r_frame_listener.html#ad598075b5f183208c0de43b9248bb44b" target="_top" xlink:title="RoRFrameListener::getTime">
<polygon fill="white" stroke="black" points="1806.5,-265.9 1806.5,-284.9 1944.5,-284.9 1944.5,-265.9 1806.5,-265.9"/>
<text text-anchor="middle" x="1875.5" y="-272.9" font-family="Helvetica,sans-Serif" font-size="10.00">RoRFrameListener::getTime</text>
</a>
</g>
</g>
<!-- Node856&#45;&gt;Node857 -->
<g id="edge7" class="edge"><title>Node856&#45;&gt;Node857</title>
<path fill="none" stroke="midnightblue" d="M1494.53,-171.692C1579.76,-194.953 1762.93,-244.949 1839.62,-265.879"/>
<polygon fill="midnightblue" stroke="midnightblue" points="1495.21,-168.249 1484.64,-168.992 1493.37,-175.002 1495.21,-168.249"/>
</g>
<!-- Node860 -->
<g id="node9" class="node"><title>Node860</title>
<g id="a_node9"><a xlink:href="../../db/df1/class_g_u_i_input_manager.html#a2f52a8c0b01fca8c55a954bdb7d2ab79" target="_top" xlink:title="GUIInputManager::mouseMoved">
<polygon fill="white" stroke="black" points="966,-28.9004 966,-47.9004 1121,-47.9004 1121,-28.9004 966,-28.9004"/>
<text text-anchor="middle" x="1043.5" y="-35.9004" font-family="Helvetica,sans-Serif" font-size="10.00">GUIInputManager::mouseMoved</text>
</a>
</g>
</g>
<!-- Node859&#45;&gt;Node860 -->
<g id="edge10" class="edge"><title>Node859&#45;&gt;Node860</title>
<path fill="none" stroke="midnightblue" d="M702.007,-97.1061C781.13,-83.4642 912.832,-60.7569 987.118,-47.9491"/>
<polygon fill="midnightblue" stroke="midnightblue" points="700.937,-93.7388 691.677,-98.8871 702.127,-100.637 700.937,-93.7388"/>
</g>
<!-- Node861 -->
<g id="node10" class="node"><title>Node861</title>
<g id="a_node10"><a xlink:href="../../db/df1/class_g_u_i_input_manager.html#ab59361b8e1a9e31e53b5e5523f2b4801" target="_top" xlink:title="GUIInputManager::getLast\lMouseMoveTime">
<polygon fill="white" stroke="black" points="1178,-70.4004 1178,-100.4 1308,-100.4 1308,-70.4004 1178,-70.4004"/>
<text text-anchor="start" x="1186" y="-88.4004" font-family="Helvetica,sans-Serif" font-size="10.00">GUIInputManager::getLast</text>
<text text-anchor="middle" x="1243" y="-77.4004" font-family="Helvetica,sans-Serif" font-size="10.00">MouseMoveTime</text>
</a>
</g>
</g>
<!-- Node860&#45;&gt;Node861 -->
<g id="edge11" class="edge"><title>Node860&#45;&gt;Node861</title>
<path fill="none" stroke="midnightblue" d="M1094.86,-50.26C1104.85,-52.6201 1115.26,-55.0845 1125,-57.4004 1142.68,-61.6021 1161.85,-66.1817 1179.47,-70.3972"/>
<polygon fill="midnightblue" stroke="midnightblue" points="1095.58,-46.8355 1085.05,-47.9441 1093.97,-53.6482 1095.58,-46.8355"/>
</g>
<!-- Node862 -->
<g id="node11" class="node"><title>Node862</title>
<g id="a_node11"><a xlink:href="../../d8/d11/class_ro_r_1_1_g_u_i_manager.html#aae1570a62049085aa74ce274ac9a70ad" target="_top" xlink:title="RoR::GUIManager::frameStarted">
<polygon fill="white" stroke="black" points="1370,-75.9004 1370,-94.9004 1527,-94.9004 1527,-75.9004 1370,-75.9004"/>
<text text-anchor="middle" x="1448.5" y="-82.9004" font-family="Helvetica,sans-Serif" font-size="10.00">RoR::GUIManager::frameStarted</text>
</a>
</g>
</g>
<!-- Node861&#45;&gt;Node862 -->
<g id="edge12" class="edge"><title>Node861&#45;&gt;Node862</title>
<path fill="none" stroke="midnightblue" d="M1318.38,-85.4004C1335.11,-85.4004 1352.92,-85.4004 1369.79,-85.4004"/>
<polygon fill="midnightblue" stroke="midnightblue" points="1318.11,-81.9005 1308.11,-85.4004 1318.11,-88.9005 1318.11,-81.9005"/>
</g>
<!-- Node863 -->
<g id="node12" class="node"><title>Node863</title>
<g id="a_node12"><a xlink:href="../../d8/d11/class_ro_r_1_1_g_u_i_manager.html#a4ab273bd0538649818c84b38e8a06100" target="_top" xlink:title="RoR::GUIManager::GetTheme">
<polygon fill="white" stroke="black" points="1596,-75.9004 1596,-94.9004 1742,-94.9004 1742,-75.9004 1596,-75.9004"/>
<text text-anchor="middle" x="1669" y="-82.9004" font-family="Helvetica,sans-Serif" font-size="10.00">RoR::GUIManager::GetTheme</text>
</a>
</g>
</g>
<!-- Node862&#45;&gt;Node863 -->
<g id="edge13" class="edge"><title>Node862&#45;&gt;Node863</title>
<path fill="none" stroke="midnightblue" d="M1537.21,-85.4004C1556.62,-85.4004 1576.99,-85.4004 1595.71,-85.4004"/>
<polygon fill="midnightblue" stroke="midnightblue" points="1537.15,-81.9005 1527.15,-85.4004 1537.15,-88.9005 1537.15,-81.9005"/>
</g>
<!-- Node864 -->
<g id="node13" class="node"><title>Node864</title>
<g id="a_node13"><a xlink:href="../../d4/d8f/class_ro_r_1_1_g_u_i_1_1_multiplayer_selector.html#a8c98e9ba03c8afb1d1a26ec06192862e" target="_top" xlink:title="RoR::GUI::MultiplayerSelector\l::~MultiplayerSelector">
<polygon fill="white" stroke="black" points="1802,-70.4004 1802,-100.4 1949,-100.4 1949,-70.4004 1802,-70.4004"/>
<text text-anchor="start" x="1810" y="-88.4004" font-family="Helvetica,sans-Serif" font-size="10.00">RoR::GUI::MultiplayerSelector</text>
<text text-anchor="middle" x="1875.5" y="-77.4004" font-family="Helvetica,sans-Serif" font-size="10.00">::~MultiplayerSelector</text>
</a>
</g>
</g>
<!-- Node863&#45;&gt;Node864 -->
<g id="edge14" class="edge"><title>Node863&#45;&gt;Node864</title>
<path fill="none" stroke="midnightblue" d="M1752.18,-85.4004C1768.56,-85.4004 1785.64,-85.4004 1801.67,-85.4004"/>
<polygon fill="midnightblue" stroke="midnightblue" points="1752.1,-81.9005 1742.1,-85.4004 1752.1,-88.9005 1752.1,-81.9005"/>
</g>
<!-- Node865&#45;&gt;Node866 -->
<g id="edge16" class="edge"><title>Node865&#45;&gt;Node866</title>
<path fill="none" stroke="midnightblue" d="M495.495,-271.413C527.168,-258.195 568.836,-240.805 598.265,-228.523"/>
<polygon fill="midnightblue" stroke="midnightblue" points="493.892,-268.29 486.011,-275.371 496.588,-274.75 493.892,-268.29"/>
</g>
<!-- Node871 -->
<g id="node20" class="node"><title>Node871</title>
<g id="a_node20"><a xlink:href="../../d6/d19/class_ro_r_1_1_g_u_i_1_1_top_menubar.html#a1a4c2b4a27eb2a018b6b8ea49528f22a" target="_top" xlink:title="RoR::GUI::TopMenubar\l::SetSimController">
<polygon fill="white" stroke="black" points="1184.5,-251.4 1184.5,-281.4 1301.5,-281.4 1301.5,-251.4 1184.5,-251.4"/>
<text text-anchor="start" x="1192.5" y="-269.4" font-family="Helvetica,sans-Serif" font-size="10.00">RoR::GUI::TopMenubar</text>
<text text-anchor="middle" x="1243" y="-258.4" font-family="Helvetica,sans-Serif" font-size="10.00">::SetSimController</text>
</a>
</g>
</g>
<!-- Node865&#45;&gt;Node871 -->
<g id="edge29" class="edge"><title>Node865&#45;&gt;Node871</title>
<path fill="none" stroke="midnightblue" d="M518.072,-288.486C639.834,-285.039 902.972,-277.485 1125,-270.4 1144.3,-269.785 1165.39,-269.075 1184.28,-268.426"/>
<polygon fill="midnightblue" stroke="midnightblue" points="517.687,-284.995 507.79,-288.777 517.885,-291.993 517.687,-284.995"/>
</g>
<!-- Node867 -->
<g id="node16" class="node"><title>Node867</title>
<g id="a_node16"><a xlink:href="../../d6/d19/class_ro_r_1_1_g_u_i_1_1_top_menubar.html#a85cdceff2c0f1196726097bc04953567" target="_top" xlink:title="RoR::GUI::TopMenubar\l::updatePositionUponMousePosition">
<polygon fill="white" stroke="black" points="752,-111.4 752,-141.4 926,-141.4 926,-111.4 752,-111.4"/>
<text text-anchor="start" x="760" y="-129.4" font-family="Helvetica,sans-Serif" font-size="10.00">RoR::GUI::TopMenubar</text>
<text text-anchor="middle" x="839" y="-118.4" font-family="Helvetica,sans-Serif" font-size="10.00">::updatePositionUponMousePosition</text>
</a>
</g>
</g>
<!-- Node866&#45;&gt;Node867 -->
<g id="edge17" class="edge"><title>Node866&#45;&gt;Node867</title>
<path fill="none" stroke="midnightblue" d="M681.069,-194.157C717.788,-178.303 769.142,-156.131 802.966,-141.527"/>
<polygon fill="midnightblue" stroke="midnightblue" points="679.392,-191.069 671.599,-198.246 682.167,-197.496 679.392,-191.069"/>
</g>
<!-- Node866&#45;&gt;Node871 -->
<g id="edge23" class="edge"><title>Node866&#45;&gt;Node871</title>
<path fill="none" stroke="midnightblue" d="M704.388,-207.105C799.452,-199.958 977.178,-192.699 1125,-221.4 1155.55,-227.332 1188.48,-240.678 1211.59,-251.305"/>
<polygon fill="midnightblue" stroke="midnightblue" points="704.03,-203.622 694.331,-207.884 704.571,-210.601 704.03,-203.622"/>
</g>
<!-- Node867&#45;&gt;Node860 -->
<g id="edge18" class="edge"><title>Node867&#45;&gt;Node860</title>
<path fill="none" stroke="midnightblue" d="M873.544,-106.01C903.196,-88.2513 944.392,-64.2958 962,-57.4004 971.493,-53.6827 981.913,-50.5657 992.015,-48.0022"/>
<polygon fill="midnightblue" stroke="midnightblue" points="871.518,-103.145 864.751,-111.297 875.125,-109.144 871.518,-103.145"/>
</g>
<!-- Node868 -->
<g id="node17" class="node"><title>Node868</title>
<g id="a_node17"><a xlink:href="../../db/df1/class_g_u_i_input_manager.html#a2e10c3db1bd7068fc87476ce1cceb7c6" target="_top" xlink:title="GUIInputManager::mousePressed">
<polygon fill="white" stroke="black" points="962,-116.9 962,-135.9 1125,-135.9 1125,-116.9 962,-116.9"/>
<text text-anchor="middle" x="1043.5" y="-123.9" font-family="Helvetica,sans-Serif" font-size="10.00">GUIInputManager::mousePressed</text>
</a>
</g>
</g>
<!-- Node867&#45;&gt;Node868 -->
<g id="edge19" class="edge"><title>Node867&#45;&gt;Node868</title>
<path fill="none" stroke="midnightblue" d="M936.215,-126.4C944.802,-126.4 953.437,-126.4 961.872,-126.4"/>
<polygon fill="midnightblue" stroke="midnightblue" points="936.172,-122.901 926.172,-126.4 936.172,-129.901 936.172,-122.901"/>
</g>
<!-- Node869 -->
<g id="node18" class="node"><title>Node869</title>
<g id="a_node18"><a xlink:href="../../d6/d19/class_ro_r_1_1_g_u_i_1_1_top_menubar.html#aba4f8b1030da3a9d3b4394562d60a05a" target="_top" xlink:title="RoR::GUI::TopMenubar\l::TopMenubar">
<polygon fill="white" stroke="black" points="1184.5,-167.4 1184.5,-197.4 1301.5,-197.4 1301.5,-167.4 1184.5,-167.4"/>
<text text-anchor="start" x="1192.5" y="-185.4" font-family="Helvetica,sans-Serif" font-size="10.00">RoR::GUI::TopMenubar</text>
<text text-anchor="middle" x="1243" y="-174.4" font-family="Helvetica,sans-Serif" font-size="10.00">::TopMenubar</text>
</a>
</g>
</g>
<!-- Node867&#45;&gt;Node869 -->
<g id="edge21" class="edge"><title>Node867&#45;&gt;Node869</title>
<path fill="none" stroke="midnightblue" d="M936.418,-141.628C945.065,-142.929 953.689,-144.204 962,-145.4 1038.8,-156.454 1127.65,-167.981 1184.3,-175.171"/>
<polygon fill="midnightblue" stroke="midnightblue" points="936.686,-138.128 926.274,-140.091 935.637,-145.049 936.686,-138.128"/>
</g>
<!-- Node870 -->
<g id="node19" class="node"><title>Node870</title>
<g id="a_node19"><a xlink:href="../../d6/d19/class_ro_r_1_1_g_u_i_1_1_top_menubar.html#a180dd47d14be5a44450e0569c5dd8522" target="_top" xlink:title="RoR::GUI::TopMenubar\l::getMenuHeight">
<polygon fill="white" stroke="black" points="985,-67.4004 985,-97.4004 1102,-97.4004 1102,-67.4004 985,-67.4004"/>
<text text-anchor="start" x="993" y="-85.4004" font-family="Helvetica,sans-Serif" font-size="10.00">RoR::GUI::TopMenubar</text>
<text text-anchor="middle" x="1043.5" y="-74.4004" font-family="Helvetica,sans-Serif" font-size="10.00">::getMenuHeight</text>
</a>
</g>
</g>
<!-- Node867&#45;&gt;Node870 -->
<g id="edge22" class="edge"><title>Node867&#45;&gt;Node870</title>
<path fill="none" stroke="midnightblue" d="M919.072,-109.219C940.983,-104.458 964.352,-99.3808 984.794,-94.9389"/>
<polygon fill="midnightblue" stroke="midnightblue" points="918.151,-105.838 909.123,-111.381 919.638,-112.678 918.151,-105.838"/>
</g>
<!-- Node868&#45;&gt;Node861 -->
<g id="edge20" class="edge"><title>Node868&#45;&gt;Node861</title>
<path fill="none" stroke="midnightblue" d="M1100.35,-114.806C1124.45,-109.803 1152.78,-103.923 1177.74,-98.7403"/>
<polygon fill="midnightblue" stroke="midnightblue" points="1099.39,-111.432 1090.31,-116.891 1100.81,-118.285 1099.39,-111.432"/>
</g>
<!-- Node872 -->
<g id="node21" class="node"><title>Node872</title>
<g id="a_node21"><a xlink:href="../../d8/d11/class_ro_r_1_1_g_u_i_manager.html#a875185e93587aeb2ab73220c1d2d4fc8" target="_top" xlink:title="RoR::GUIManager::SetSimController">
<polygon fill="white" stroke="black" points="1361,-259.9 1361,-278.9 1536,-278.9 1536,-259.9 1361,-259.9"/>
<text text-anchor="middle" x="1448.5" y="-266.9" font-family="Helvetica,sans-Serif" font-size="10.00">RoR::GUIManager::SetSimController</text>
</a>
</g>
</g>
<!-- Node871&#45;&gt;Node872 -->
<g id="edge24" class="edge"><title>Node871&#45;&gt;Node872</title>
<path fill="none" stroke="midnightblue" d="M1311.86,-267.401C1327.51,-267.632 1344.37,-267.88 1360.7,-268.121"/>
<polygon fill="midnightblue" stroke="midnightblue" points="1311.82,-263.9 1301.77,-267.252 1311.72,-270.899 1311.82,-263.9"/>
</g>
<!-- Node873 -->
<g id="node22" class="node"><title>Node873</title>
<g id="a_node22"><a xlink:href="../../dd/dbe/class_ro_r_frame_listener.html#a9e239911ad148aa76c58202920090f76" target="_top" xlink:title="RoRFrameListener::EnterGameplayLoop">
<polygon fill="white" stroke="black" points="1573,-265.9 1573,-284.9 1765,-284.9 1765,-265.9 1573,-265.9"/>
<text text-anchor="middle" x="1669" y="-272.9" font-family="Helvetica,sans-Serif" font-size="10.00">RoRFrameListener::EnterGameplayLoop</text>
</a>
</g>
</g>
<!-- Node872&#45;&gt;Node873 -->
<g id="edge25" class="edge"><title>Node872&#45;&gt;Node873</title>
<path fill="none" stroke="midnightblue" d="M1546.4,-272.061C1555.17,-272.302 1564.05,-272.546 1572.8,-272.786"/>
<polygon fill="midnightblue" stroke="midnightblue" points="1546.26,-268.556 1536.17,-271.78 1546.07,-275.554 1546.26,-268.556"/>
</g>
<!-- Node873&#45;&gt;Node857 -->
<g id="edge26" class="edge"><title>Node873&#45;&gt;Node857</title>
<path fill="none" stroke="midnightblue" d="M1775.24,-275.4C1785.85,-275.4 1796.42,-275.4 1806.48,-275.4"/>
<polygon fill="midnightblue" stroke="midnightblue" points="1775.07,-271.901 1765.07,-275.4 1775.07,-278.901 1775.07,-271.901"/>
</g>
<!-- Node874 -->
<g id="node23" class="node"><title>Node874</title>
<g id="a_node23"><a xlink:href="../../df/d0a/main_8cpp.html#a0ddf1224851353fc92bfbff6f499fa97" target="_top" xlink:title="main">
<polygon fill="white" stroke="black" points="1856.5,-309.9 1856.5,-328.9 1894.5,-328.9 1894.5,-309.9 1856.5,-309.9"/>
<text text-anchor="middle" x="1875.5" y="-316.9" font-family="Helvetica,sans-Serif" font-size="10.00">main</text>
</a>
</g>
</g>
<!-- Node873&#45;&gt;Node874 -->
<g id="edge27" class="edge"><title>Node873&#45;&gt;Node874</title>
<path fill="none" stroke="midnightblue" d="M1724.32,-287.088C1768.15,-296.519 1827.18,-309.218 1856.46,-315.519"/>
<polygon fill="midnightblue" stroke="midnightblue" points="1724.89,-283.63 1714.37,-284.948 1723.41,-290.473 1724.89,-283.63"/>
</g>
<!-- Node875 -->
<g id="node24" class="node"><title>Node875</title>
<g id="a_node24"><a xlink:href="../../df/d0a/main_8cpp.html#a2922bc5d5c2d77a3020cfbf9df12aab0" target="_top" xlink:title="WinMain">
<polygon fill="white" stroke="black" points="1985,-309.9 1985,-328.9 2040,-328.9 2040,-309.9 1985,-309.9"/>
<text text-anchor="middle" x="2012.5" y="-316.9" font-family="Helvetica,sans-Serif" font-size="10.00">WinMain</text>
</a>
</g>
</g>
<!-- Node874&#45;&gt;Node875 -->
<g id="edge28" class="edge"><title>Node874&#45;&gt;Node875</title>
<path fill="none" stroke="midnightblue" d="M1904.77,-319.4C1928.33,-319.4 1961.64,-319.4 1984.76,-319.4"/>
<polygon fill="midnightblue" stroke="midnightblue" points="1904.71,-315.901 1894.71,-319.4 1904.71,-322.901 1904.71,-315.901"/>
</g>
<!-- Node876&#45;&gt;Node853 -->
<g id="edge32" class="edge"><title>Node876&#45;&gt;Node853</title>
<path fill="none" stroke="midnightblue" d="M520.335,-448.474C581.508,-458.019 672.555,-472.018 752,-483.4 828.943,-494.424 917.491,-506.178 976.402,-513.865"/>
<polygon fill="midnightblue" stroke="midnightblue" points="520.824,-445.008 510.404,-446.923 519.743,-451.924 520.824,-445.008"/>
</g>
<!-- Node877 -->
<g id="node26" class="node"><title>Node877</title>
<g id="a_node26"><a xlink:href="../../df/df9/class_beam.html#aabe018af621de69910d145fe2967ad11" target="_top" xlink:title="Beam::IsNodeIdValid">
<polygon fill="white" stroke="black" points="582,-607.9 582,-626.9 689,-626.9 689,-607.9 582,-607.9"/>
<text text-anchor="middle" x="635.5" y="-614.9" font-family="Helvetica,sans-Serif" font-size="10.00">Beam::IsNodeIdValid</text>
</a>
</g>
</g>
<!-- Node876&#45;&gt;Node877 -->
<g id="edge33" class="edge"><title>Node876&#45;&gt;Node877</title>
<path fill="none" stroke="midnightblue" d="M511.227,-451.336C513.953,-452.853 516.562,-454.535 519,-456.4 544,-475.531 537.162,-491.462 555,-517.4 578.878,-552.122 611.104,-590.388 626.134,-607.811"/>
<polygon fill="midnightblue" stroke="midnightblue" points="512.728,-448.174 502.195,-447.03 509.716,-454.493 512.728,-448.174"/>
</g>
<!-- Node882 -->
<g id="node31" class="node"><title>Node882</title>
<g id="a_node31"><a xlink:href="../../d5/d53/class_ro_r_1_1_beam_factory.html#aa770c50decf07b87d7ac747b64b8e3e5" target="_top" xlink:title="RoR::BeamFactory::Create\lLocalRigInstance">
<polygon fill="white" stroke="black" points="568.5,-406.4 568.5,-436.4 702.5,-436.4 702.5,-406.4 568.5,-406.4"/>
<text text-anchor="start" x="576.5" y="-424.4" font-family="Helvetica,sans-Serif" font-size="10.00">RoR::BeamFactory::Create</text>
<text text-anchor="middle" x="635.5" y="-413.4" font-family="Helvetica,sans-Serif" font-size="10.00">LocalRigInstance</text>
</a>
</g>
</g>
<!-- Node876&#45;&gt;Node882 -->
<g id="edge39" class="edge"><title>Node876&#45;&gt;Node882</title>
<path fill="none" stroke="midnightblue" d="M529.497,-430.506C542.421,-429.386 555.685,-428.235 568.249,-427.146"/>
<polygon fill="midnightblue" stroke="midnightblue" points="528.886,-427.046 519.226,-431.397 529.491,-434.02 528.886,-427.046"/>
</g>
<!-- Node878 -->
<g id="node27" class="node"><title>Node878</title>
<g id="a_node27"><a xlink:href="../../dd/dbe/class_ro_r_frame_listener.html#a46c793a3229156a678a3829a6fe59be6" target="_top" xlink:title="RoRFrameListener::Update\lForceFeedback">
<polygon fill="white" stroke="black" points="772,-646.4 772,-676.4 906,-676.4 906,-646.4 772,-646.4"/>
<text text-anchor="start" x="780" y="-664.4" font-family="Helvetica,sans-Serif" font-size="10.00">RoRFrameListener::Update</text>
<text text-anchor="middle" x="839" y="-653.4" font-family="Helvetica,sans-Serif" font-size="10.00">ForceFeedback</text>
</a>
</g>
</g>
<!-- Node877&#45;&gt;Node878 -->
<g id="edge34" class="edge"><title>Node877&#45;&gt;Node878</title>
<path fill="none" stroke="midnightblue" d="M690.265,-629.141C715.302,-634.608 745.329,-641.165 771.753,-646.935"/>
<polygon fill="midnightblue" stroke="midnightblue" points="690.739,-625.662 680.222,-626.948 689.246,-632.501 690.739,-625.662"/>
</g>
<!-- Node879 -->
<g id="node28" class="node"><title>Node879</title>
<g id="a_node28"><a xlink:href="../../df/df9/class_beam.html#ab0cbc6c4e3822fc5786af2c8036f7efb" target="_top" xlink:title="Beam::LoadTruck">
<polygon fill="white" stroke="black" points="792.5,-607.9 792.5,-626.9 885.5,-626.9 885.5,-607.9 792.5,-607.9"/>
<text text-anchor="middle" x="839" y="-614.9" font-family="Helvetica,sans-Serif" font-size="10.00">Beam::LoadTruck</text>
</a>
</g>
</g>
<!-- Node877&#45;&gt;Node879 -->
<g id="edge36" class="edge"><title>Node877&#45;&gt;Node879</title>
<path fill="none" stroke="midnightblue" d="M699.192,-617.4C729.381,-617.4 764.914,-617.4 792.471,-617.4"/>
<polygon fill="midnightblue" stroke="midnightblue" points="699.179,-613.901 689.179,-617.4 699.179,-620.901 699.179,-613.901"/>
</g>
<!-- Node878&#45;&gt;Node854 -->
<g id="edge35" class="edge"><title>Node878&#45;&gt;Node854</title>
<path fill="none" stroke="midnightblue" d="M916.57,-661.4C987.343,-661.4 1092.04,-661.4 1163.44,-661.4"/>
<polygon fill="midnightblue" stroke="midnightblue" points="916.382,-657.901 906.382,-661.4 916.382,-664.901 916.382,-657.901"/>
</g>
<!-- Node880 -->
<g id="node29" class="node"><title>Node880</title>
<g id="a_node29"><a xlink:href="../../df/df9/class_beam.html#a0d55b25fa0d1623305f3ac51694cbd42" target="_top" xlink:title="Beam::Beam">
<polygon fill="white" stroke="black" points="1006.5,-610.9 1006.5,-629.9 1080.5,-629.9 1080.5,-610.9 1006.5,-610.9"/>
<text text-anchor="middle" x="1043.5" y="-617.9" font-family="Helvetica,sans-Serif" font-size="10.00">Beam::Beam</text>
</a>
</g>
</g>
<!-- Node879&#45;&gt;Node880 -->
<g id="edge37" class="edge"><title>Node879&#45;&gt;Node880</title>
<path fill="none" stroke="midnightblue" d="M895.854,-618.228C931.143,-618.751 975.71,-619.411 1006.4,-619.866"/>
<polygon fill="midnightblue" stroke="midnightblue" points="895.748,-614.726 885.697,-618.077 895.644,-621.725 895.748,-614.726"/>
</g>
<!-- Node881 -->
<g id="node30" class="node"><title>Node881</title>
<g id="a_node30"><a xlink:href="../../df/df9/class_beam.html#a3176be8102041493ae018fd5d66607dd" target="_top" xlink:title="Beam::getVelocity">
<polygon fill="white" stroke="black" points="995,-572.9 995,-591.9 1092,-591.9 1092,-572.9 995,-572.9"/>
<text text-anchor="middle" x="1043.5" y="-579.9" font-family="Helvetica,sans-Serif" font-size="10.00">Beam::getVelocity</text>
</a>
</g>
</g>
<!-- Node879&#45;&gt;Node881 -->
<g id="edge38" class="edge"><title>Node879&#45;&gt;Node881</title>
<path fill="none" stroke="midnightblue" d="M895.934,-607.733C926.997,-602.364 965.229,-595.756 994.856,-590.635"/>
<polygon fill="midnightblue" stroke="midnightblue" points="894.955,-604.35 885.697,-609.502 896.147,-611.248 894.955,-604.35"/>
</g>
<!-- Node882&#45;&gt;Node853 -->
<g id="edge40" class="edge"><title>Node882&#45;&gt;Node853</title>
<path fill="none" stroke="midnightblue" d="M712.441,-438.249C770.971,-451.473 853.831,-470.713 926,-489.4 947.47,-494.96 971.029,-501.541 991.31,-507.359"/>
<polygon fill="midnightblue" stroke="midnightblue" points="713.059,-434.8 702.534,-436.015 711.519,-441.629 713.059,-434.8"/>
</g>
<!-- Node883 -->
<g id="node32" class="node"><title>Node883</title>
<g id="a_node32"><a xlink:href="../../dd/dbe/class_ro_r_frame_listener.html#a65f2dfb4f70e20076cc0dbc041f96bb0" target="_top" xlink:title="RoRFrameListener::Reload\lPlayerActor">
<polygon fill="white" stroke="black" points="772,-357.4 772,-387.4 906,-387.4 906,-357.4 772,-357.4"/>
<text text-anchor="start" x="780" y="-375.4" font-family="Helvetica,sans-Serif" font-size="10.00">RoRFrameListener::Reload</text>
<text text-anchor="middle" x="839" y="-364.4" font-family="Helvetica,sans-Serif" font-size="10.00">PlayerActor</text>
</a>
</g>
</g>
<!-- Node882&#45;&gt;Node883 -->
<g id="edge41" class="edge"><title>Node882&#45;&gt;Node883</title>
<path fill="none" stroke="midnightblue" d="M708.069,-403.997C730.359,-398.576 754.735,-392.648 776.291,-387.407"/>
<polygon fill="midnightblue" stroke="midnightblue" points="707.216,-400.602 698.326,-406.366 708.87,-407.404 707.216,-400.602"/>
</g>
<!-- Node886 -->
<g id="node35" class="node"><title>Node886</title>
<g id="a_node35"><a xlink:href="../../dd/dbe/class_ro_r_frame_listener.html#aca3931d7a75f2ad4b9d36c4fcd03a3c9" target="_top" xlink:title="RoRFrameListener::SetupGameplayLoop">
<polygon fill="white" stroke="black" points="1572,-315.9 1572,-334.9 1766,-334.9 1766,-315.9 1572,-315.9"/>
<text text-anchor="middle" x="1669" y="-322.9" font-family="Helvetica,sans-Serif" font-size="10.00">RoRFrameListener::SetupGameplayLoop</text>
</a>
</g>
</g>
<!-- Node882&#45;&gt;Node886 -->
<g id="edge47" class="edge"><title>Node882&#45;&gt;Node886</title>
<path fill="none" stroke="midnightblue" d="M661.725,-399.843C683.908,-382.276 717.896,-358.61 752,-347.4 874.918,-307 913.113,-328.4 1042.5,-328.4 1042.5,-328.4 1042.5,-328.4 1244,-328.4 1356.44,-328.4 1485.66,-327.332 1571.59,-326.471"/>
<polygon fill="midnightblue" stroke="midnightblue" points="659.395,-397.225 653.825,-406.238 663.8,-402.666 659.395,-397.225"/>
</g>
<!-- Node887 -->
<g id="node36" class="node"><title>Node887</title>
<g id="a_node36"><a xlink:href="../../d6/d14/class_terrain_object_manager.html#a202d577cb222f42c46e5b6600c9626a4" target="_top" xlink:title="TerrainObjectManager\l::loadPreloadedTrucks">
<polygon fill="white" stroke="black" points="782.5,-406.4 782.5,-436.4 895.5,-436.4 895.5,-406.4 782.5,-406.4"/>
<text text-anchor="start" x="790.5" y="-424.4" font-family="Helvetica,sans-Serif" font-size="10.00">TerrainObjectManager</text>
<text text-anchor="middle" x="839" y="-413.4" font-family="Helvetica,sans-Serif" font-size="10.00">::loadPreloadedTrucks</text>
</a>
</g>
</g>
<!-- Node882&#45;&gt;Node887 -->
<g id="edge50" class="edge"><title>Node882&#45;&gt;Node887</title>
<path fill="none" stroke="midnightblue" d="M712.893,-421.4C736.03,-421.4 760.99,-421.4 782.485,-421.4"/>
<polygon fill="midnightblue" stroke="midnightblue" points="712.758,-417.901 702.758,-421.4 712.758,-424.901 712.758,-417.901"/>
</g>
<!-- Node883&#45;&gt;Node853 -->
<g id="edge42" class="edge"><title>Node883&#45;&gt;Node853</title>
<path fill="none" stroke="midnightblue" d="M915.615,-390.224C919.236,-392.083 922.722,-394.135 926,-396.4 948.232,-411.763 944.168,-425.095 962,-445.4 982.163,-468.361 1008.1,-492.31 1025.01,-507.282"/>
<polygon fill="midnightblue" stroke="midnightblue" points="916.932,-386.978 906.383,-385.989 914.013,-393.34 916.932,-386.978"/>
</g>
<!-- Node884 -->
<g id="node33" class="node"><title>Node884</title>
<g id="a_node33"><a xlink:href="../../dd/dbe/class_ro_r_frame_listener.html#a627bc038df63cfa463e0ad24ab9c0b38" target="_top" xlink:title="RoRFrameListener::GetPlayer\lActor">
<polygon fill="white" stroke="black" points="970,-357.4 970,-387.4 1117,-387.4 1117,-357.4 970,-357.4"/>
<text text-anchor="start" x="978" y="-375.4" font-family="Helvetica,sans-Serif" font-size="10.00">RoRFrameListener::GetPlayer</text>
<text text-anchor="middle" x="1043.5" y="-364.4" font-family="Helvetica,sans-Serif" font-size="10.00">Actor</text>
</a>
</g>
</g>
<!-- Node883&#45;&gt;Node884 -->
<g id="edge43" class="edge"><title>Node883&#45;&gt;Node884</title>
<path fill="none" stroke="midnightblue" d="M916.24,-372.4C933.827,-372.4 952.489,-372.4 969.916,-372.4"/>
<polygon fill="midnightblue" stroke="midnightblue" points="916.026,-368.901 906.026,-372.4 916.026,-375.901 916.026,-368.901"/>
</g>
<!-- Node885 -->
<g id="node34" class="node"><title>Node885</title>
<g id="a_node34"><a xlink:href="../../d6/d19/class_ro_r_1_1_g_u_i_1_1_top_menubar.html#ad1c44bd3c1247dcd8b876ff7728fac32" target="_top" xlink:title="RoR::GUI::TopMenubar\l::onMenuBtn">
<polygon fill="white" stroke="black" points="985,-231.4 985,-261.4 1102,-261.4 1102,-231.4 985,-231.4"/>
<text text-anchor="start" x="993" y="-249.4" font-family="Helvetica,sans-Serif" font-size="10.00">RoR::GUI::TopMenubar</text>
<text text-anchor="middle" x="1043.5" y="-238.4" font-family="Helvetica,sans-Serif" font-size="10.00">::onMenuBtn</text>
</a>
</g>
</g>
<!-- Node883&#45;&gt;Node885 -->
<g id="edge44" class="edge"><title>Node883&#45;&gt;Node885</title>
<path fill="none" stroke="midnightblue" d="M872.924,-351.914C913.666,-326.564 982.078,-283.996 1018.3,-261.457"/>
<polygon fill="midnightblue" stroke="midnightblue" points="871.068,-348.947 864.426,-357.202 874.766,-354.891 871.068,-348.947"/>
</g>
<!-- Node885&#45;&gt;Node869 -->
<g id="edge45" class="edge"><title>Node885&#45;&gt;Node869</title>
<path fill="none" stroke="midnightblue" d="M1100.33,-228.31C1130.43,-218.555 1167.14,-206.66 1195.64,-197.422"/>
<polygon fill="midnightblue" stroke="midnightblue" points="1099.24,-224.983 1090.8,-231.395 1101.4,-231.642 1099.24,-224.983"/>
</g>
<!-- Node885&#45;&gt;Node871 -->
<g id="edge46" class="edge"><title>Node885&#45;&gt;Node871</title>
<path fill="none" stroke="midnightblue" d="M1112.36,-253.272C1135.77,-255.643 1161.75,-258.274 1184.27,-260.555"/>
<polygon fill="midnightblue" stroke="midnightblue" points="1112.46,-249.764 1102.16,-252.239 1111.75,-256.729 1112.46,-249.764"/>
</g>
<!-- Node886&#45;&gt;Node857 -->
<g id="edge48" class="edge"><title>Node886&#45;&gt;Node857</title>
<path fill="none" stroke="midnightblue" d="M1718.66,-313.502C1754.34,-304.78 1802.14,-293.093 1835.35,-284.972"/>
<polygon fill="midnightblue" stroke="midnightblue" points="1717.83,-310.103 1708.95,-315.878 1719.49,-316.903 1717.83,-310.103"/>
</g>
<!-- Node886&#45;&gt;Node874 -->
<g id="edge49" class="edge"><title>Node886&#45;&gt;Node874</title>
<path fill="none" stroke="midnightblue" d="M1776.29,-322.282C1807.16,-321.376 1837.54,-320.485 1856.15,-319.939"/>
<polygon fill="midnightblue" stroke="midnightblue" points="1776.15,-318.784 1766.26,-322.576 1776.36,-325.781 1776.15,-318.784"/>
</g>
<!-- Node888 -->
<g id="node37" class="node"><title>Node888</title>
<g id="a_node37"><a xlink:href="../../d3/d16/class_terrain_manager.html#ac666fc0221c16001186b83cd6df66691" target="_top" xlink:title="TerrainManager::loadPreloaded\lTrucks">
<polygon fill="white" stroke="black" points="968,-406.4 968,-436.4 1119,-436.4 1119,-406.4 968,-406.4"/>
<text text-anchor="start" x="976" y="-424.4" font-family="Helvetica,sans-Serif" font-size="10.00">TerrainManager::loadPreloaded</text>
<text text-anchor="middle" x="1043.5" y="-413.4" font-family="Helvetica,sans-Serif" font-size="10.00">Trucks</text>
</a>
</g>
</g>
<!-- Node887&#45;&gt;Node888 -->
<g id="edge51" class="edge"><title>Node887&#45;&gt;Node888</title>
<path fill="none" stroke="midnightblue" d="M905.735,-421.4C925.51,-421.4 947.355,-421.4 967.673,-421.4"/>
<polygon fill="midnightblue" stroke="midnightblue" points="905.602,-417.901 895.602,-421.4 905.602,-424.901 905.602,-417.901"/>
</g>
<!-- Node888&#45;&gt;Node886 -->
<g id="edge52" class="edge"><title>Node888&#45;&gt;Node886</title>
<path fill="none" stroke="midnightblue" d="M1129.17,-408.364C1256.32,-388.787 1493.6,-352.253 1605.96,-334.953"/>
<polygon fill="midnightblue" stroke="midnightblue" points="1128.44,-404.935 1119.09,-409.916 1129.51,-411.853 1128.44,-404.935"/>
</g>
<!-- Node889 -->
<g id="node38" class="node"><title>Node889</title>
<g id="a_node38"><a xlink:href="../../d3/d16/class_terrain_manager.html#a7c0eff44d224bbca740dc2ab171fd7bf" target="_top" xlink:title="TerrainManager::GetSimController">
<polygon fill="white" stroke="black" points="1161,-433.9 1161,-452.9 1325,-452.9 1325,-433.9 1161,-433.9"/>
<text text-anchor="middle" x="1243" y="-440.9" font-family="Helvetica,sans-Serif" font-size="10.00">TerrainManager::GetSimController</text>
</a>
</g>
</g>
<!-- Node888&#45;&gt;Node889 -->
<g id="edge53" class="edge"><title>Node888&#45;&gt;Node889</title>
<path fill="none" stroke="midnightblue" d="M1129.19,-430.834C1139.72,-432.008 1150.48,-433.206 1160.96,-434.373"/>
<polygon fill="midnightblue" stroke="midnightblue" points="1129.49,-427.346 1119.17,-429.718 1128.72,-434.303 1129.49,-427.346"/>
</g>
<!-- Node889&#45;&gt;Node887 -->
<g id="edge54" class="edge"><title>Node889&#45;&gt;Node887</title>
<path fill="none" stroke="midnightblue" d="M1150.88,-448.835C1096.03,-450.918 1024.86,-451.524 962,-445.4 940.086,-443.265 916.266,-439.022 895.539,-434.689"/>
<polygon fill="midnightblue" stroke="midnightblue" points="1151.08,-452.33 1160.93,-448.43 1150.8,-445.335 1151.08,-452.33"/>
</g>
</g>
</svg>
