<?xml version="1.0" encoding="UTF-8" standalone="no"?>
<!DOCTYPE svg PUBLIC "-//W3C//DTD SVG 1.1//EN"
 "http://www.w3.org/Graphics/SVG/1.1/DTD/svg11.dtd">
<!-- Generated by graphviz version 2.38.0 (20140413.2041)
 -->
<!-- Title: RoR::BeamFactory::getTrucks Pages: 1 -->
<svg width="1743pt" height="302pt"
 viewBox="0.00 0.00 1743.00 301.57" xmlns="http://www.w3.org/2000/svg" xmlns:xlink="http://www.w3.org/1999/xlink">
<g id="graph0" class="graph" transform="scale(1 1) rotate(0) translate(4 297.572)">
<title>RoR::BeamFactory::getTrucks</title>
<polygon fill="white" stroke="none" points="-4,4 -4,-297.572 1739,-297.572 1739,4 -4,4"/>
<!-- Node1732 -->
<g id="node1" class="node"><title>Node1732</title>
<polygon fill="#bfbfbf" stroke="black" points="0,-176.5 0,-195.5 149,-195.5 149,-176.5 0,-176.5"/>
<text text-anchor="middle" x="74.5" y="-183.5" font-family="Helvetica,sans-Serif" font-size="10.00">RoR::BeamFactory::getTrucks</text>
</g>
<!-- Node1733 -->
<g id="node2" class="node"><title>Node1733</title>
<g id="a_node2"><a xlink:href="../../dd/dbe/class_ro_r_frame_listener.html#afec2a0f00ed552c21d22aae76329bf38" target="_top" xlink:title="RoRFrameListener::Update\lInputEvents">
<polygon fill="white" stroke="black" points="185,-237 185,-267 319,-267 319,-237 185,-237"/>
<text text-anchor="start" x="193" y="-255" font-family="Helvetica,sans-Serif" font-size="10.00">RoRFrameListener::Update</text>
<text text-anchor="middle" x="252" y="-244" font-family="Helvetica,sans-Serif" font-size="10.00">InputEvents</text>
</a>
</g>
</g>
<!-- Node1732&#45;&gt;Node1733 -->
<g id="edge1" class="edge"><title>Node1732&#45;&gt;Node1733</title>
<path fill="none" stroke="midnightblue" d="M110.711,-199.242C139.639,-210.121 180.624,-225.534 210.829,-236.893"/>
<polygon fill="midnightblue" stroke="midnightblue" points="111.611,-195.841 101.019,-195.597 109.147,-202.393 111.611,-195.841"/>
</g>
<!-- Node1734 -->
<g id="node3" class="node"><title>Node1734</title>
<g id="a_node3"><a xlink:href="../../dd/dbe/class_ro_r_frame_listener.html#acdda0026f9324c3b7f48568624e07115" target="_top" xlink:title="RoRFrameListener::frameStarted">
<polygon fill="white" stroke="black" points="362,-264.5 362,-283.5 521,-283.5 521,-264.5 362,-264.5"/>
<text text-anchor="middle" x="441.5" y="-271.5" font-family="Helvetica,sans-Serif" font-size="10.00">RoRFrameListener::frameStarted</text>
</a>
</g>
</g>
<!-- Node1732&#45;&gt;Node1734 -->
<g id="edge3" class="edge"><title>Node1732&#45;&gt;Node1734</title>
<path fill="none" stroke="midnightblue" d="M89.5842,-203.563C108.536,-225.634 144.569,-262.393 185,-277 255.718,-302.549 344.798,-292.951 396.923,-283.547"/>
<polygon fill="midnightblue" stroke="midnightblue" points="92.064,-201.072 82.9699,-195.636 86.6893,-205.557 92.064,-201.072"/>
</g>
<!-- Node1735 -->
<g id="node4" class="node"><title>Node1735</title>
<g id="a_node4"><a xlink:href="../../dd/dbe/class_ro_r_frame_listener.html#a57679664f6f2299add5b6ba7fcbb1b11" target="_top" xlink:title="RoRFrameListener::ShowLoaderGUI">
<polygon fill="white" stroke="black" points="355,-201.5 355,-220.5 528,-220.5 528,-201.5 355,-201.5"/>
<text text-anchor="middle" x="441.5" y="-208.5" font-family="Helvetica,sans-Serif" font-size="10.00">RoRFrameListener::ShowLoaderGUI</text>
</a>
</g>
</g>
<!-- Node1732&#45;&gt;Node1735 -->
<g id="edge4" class="edge"><title>Node1732&#45;&gt;Node1735</title>
<path fill="none" stroke="midnightblue" d="M159.693,-191.767C218.246,-195.777 296.041,-201.106 354.899,-205.137"/>
<polygon fill="midnightblue" stroke="midnightblue" points="159.579,-188.251 149.363,-191.059 159.101,-195.234 159.579,-188.251"/>
</g>
<!-- Node1737 -->
<g id="node6" class="node"><title>Node1737</title>
<g id="a_node6"><a xlink:href="../../d7/d9d/class_ro_r_1_1_scene_mouse.html#a4b6998ce12990478a6a2bf2e59b2eb1d" target="_top" xlink:title="RoR::SceneMouse::mouseMoved">
<polygon fill="white" stroke="black" points="570.5,-25.5 570.5,-44.5 731.5,-44.5 731.5,-25.5 570.5,-25.5"/>
<text text-anchor="middle" x="651" y="-32.5" font-family="Helvetica,sans-Serif" font-size="10.00">RoR::SceneMouse::mouseMoved</text>
</a>
</g>
</g>
<!-- Node1732&#45;&gt;Node1737 -->
<g id="edge6" class="edge"><title>Node1732&#45;&gt;Node1737</title>
<path fill="none" stroke="midnightblue" d="M95.6486,-170.186C116.723,-154.47 151.36,-130.9 185,-118 314.401,-68.3784 475.602,-48.1009 570.223,-40.0495"/>
<polygon fill="midnightblue" stroke="midnightblue" points="93.3333,-167.55 87.4894,-176.387 97.5689,-173.123 93.3333,-167.55"/>
</g>
<!-- Node1743 -->
<g id="node12" class="node"><title>Node1743</title>
<g id="a_node12"><a xlink:href="../../d6/d19/class_ro_r_1_1_g_u_i_1_1_top_menubar.html#addbf2f7c7b987d76109c9ed95f966437" target="_top" xlink:title="RoR::GUI::TopMenubar\l::addUserToMenu">
<polygon fill="white" stroke="black" points="193.5,-149 193.5,-179 310.5,-179 310.5,-149 193.5,-149"/>
<text text-anchor="start" x="201.5" y="-167" font-family="Helvetica,sans-Serif" font-size="10.00">RoR::GUI::TopMenubar</text>
<text text-anchor="middle" x="252" y="-156" font-family="Helvetica,sans-Serif" font-size="10.00">::addUserToMenu</text>
</a>
</g>
</g>
<!-- Node1732&#45;&gt;Node1743 -->
<g id="edge12" class="edge"><title>Node1732&#45;&gt;Node1743</title>
<path fill="none" stroke="midnightblue" d="M159.239,-175.503C170.751,-174.06 182.356,-172.605 193.259,-171.238"/>
<polygon fill="midnightblue" stroke="midnightblue" points="158.652,-172.049 149.165,-176.766 159.523,-178.995 158.652,-172.049"/>
</g>
<!-- Node1744 -->
<g id="node13" class="node"><title>Node1744</title>
<g id="a_node13"><a xlink:href="../../d6/d19/class_ro_r_1_1_g_u_i_1_1_top_menubar.html#a70583f192ad3c430862d4e17afac2a2f" target="_top" xlink:title="RoR::GUI::TopMenubar\l::vehiclesListUpdate">
<polygon fill="white" stroke="black" points="383,-105 383,-135 500,-135 500,-105 383,-105"/>
<text text-anchor="start" x="391" y="-123" font-family="Helvetica,sans-Serif" font-size="10.00">RoR::GUI::TopMenubar</text>
<text text-anchor="middle" x="441.5" y="-112" font-family="Helvetica,sans-Serif" font-size="10.00">::vehiclesListUpdate</text>
</a>
</g>
</g>
<!-- Node1732&#45;&gt;Node1744 -->
<g id="edge27" class="edge"><title>Node1732&#45;&gt;Node1744</title>
<path fill="none" stroke="midnightblue" d="M101.605,-171.865C123.271,-160.862 155.241,-146.277 185,-139 251.539,-122.728 330.483,-119.158 382.828,-118.896"/>
<polygon fill="midnightblue" stroke="midnightblue" points="99.9709,-168.77 92.7038,-176.48 103.193,-174.985 99.9709,-168.77"/>
</g>
<!-- Node1733&#45;&gt;Node1734 -->
<g id="edge2" class="edge"><title>Node1733&#45;&gt;Node1734</title>
<path fill="none" stroke="midnightblue" d="M329.276,-260.95C340.006,-262.209 351.051,-263.505 361.825,-264.769"/>
<polygon fill="midnightblue" stroke="midnightblue" points="329.445,-257.446 319.105,-259.756 328.629,-264.398 329.445,-257.446"/>
</g>
<!-- Node1736 -->
<g id="node5" class="node"><title>Node1736</title>
<g id="a_node5"><a xlink:href="../../dd/dbe/class_ro_r_frame_listener.html#ad598075b5f183208c0de43b9248bb44b" target="_top" xlink:title="RoRFrameListener::getTime">
<polygon fill="white" stroke="black" points="1222.5,-213.5 1222.5,-232.5 1360.5,-232.5 1360.5,-213.5 1222.5,-213.5"/>
<text text-anchor="middle" x="1291.5" y="-220.5" font-family="Helvetica,sans-Serif" font-size="10.00">RoRFrameListener::getTime</text>
</a>
</g>
</g>
<!-- Node1735&#45;&gt;Node1736 -->
<g id="edge5" class="edge"><title>Node1735&#45;&gt;Node1736</title>
<path fill="none" stroke="midnightblue" d="M538.195,-212.354C711.173,-214.802 1071.87,-219.906 1222.31,-222.035"/>
<polygon fill="midnightblue" stroke="midnightblue" points="538.133,-208.853 528.084,-212.211 538.034,-215.852 538.133,-208.853"/>
</g>
<!-- Node1738 -->
<g id="node7" class="node"><title>Node1738</title>
<g id="a_node7"><a xlink:href="../../db/df1/class_g_u_i_input_manager.html#a2f52a8c0b01fca8c55a954bdb7d2ab79" target="_top" xlink:title="GUIInputManager::mouseMoved">
<polygon fill="white" stroke="black" points="784,-0.5 784,-19.5 939,-19.5 939,-0.5 784,-0.5"/>
<text text-anchor="middle" x="861.5" y="-7.5" font-family="Helvetica,sans-Serif" font-size="10.00">GUIInputManager::mouseMoved</text>
</a>
</g>
</g>
<!-- Node1737&#45;&gt;Node1738 -->
<g id="edge7" class="edge"><title>Node1737&#45;&gt;Node1738</title>
<path fill="none" stroke="midnightblue" d="M741.561,-24.2613C755.597,-22.5784 769.995,-20.852 783.71,-19.2074"/>
<polygon fill="midnightblue" stroke="midnightblue" points="740.932,-20.8115 731.42,-25.4773 741.765,-27.7618 740.932,-20.8115"/>
</g>
<!-- Node1739 -->
<g id="node8" class="node"><title>Node1739</title>
<g id="a_node8"><a xlink:href="../../db/df1/class_g_u_i_input_manager.html#ab59361b8e1a9e31e53b5e5523f2b4801" target="_top" xlink:title="GUIInputManager::getLast\lMouseMoveTime">
<polygon fill="white" stroke="black" points="1016,-61 1016,-91 1146,-91 1146,-61 1016,-61"/>
<text text-anchor="start" x="1024" y="-79" font-family="Helvetica,sans-Serif" font-size="10.00">GUIInputManager::getLast</text>
<text text-anchor="middle" x="1081" y="-68" font-family="Helvetica,sans-Serif" font-size="10.00">MouseMoveTime</text>
</a>
</g>
</g>
<!-- Node1738&#45;&gt;Node1739 -->
<g id="edge8" class="edge"><title>Node1738&#45;&gt;Node1739</title>
<path fill="none" stroke="midnightblue" d="M921.281,-21.8456C930.605,-24.0303 940.103,-26.4382 949,-29 980.81,-38.1591 1016.09,-50.9756 1042.02,-60.9117"/>
<polygon fill="midnightblue" stroke="midnightblue" points="921.797,-18.3735 911.269,-19.5659 920.243,-25.1988 921.797,-18.3735"/>
</g>
<!-- Node1740 -->
<g id="node9" class="node"><title>Node1740</title>
<g id="a_node9"><a xlink:href="../../d8/d11/class_ro_r_1_1_g_u_i_manager.html#aae1570a62049085aa74ce274ac9a70ad" target="_top" xlink:title="RoR::GUIManager::frameStarted">
<polygon fill="white" stroke="black" points="1213,-66.5 1213,-85.5 1370,-85.5 1370,-66.5 1213,-66.5"/>
<text text-anchor="middle" x="1291.5" y="-73.5" font-family="Helvetica,sans-Serif" font-size="10.00">RoR::GUIManager::frameStarted</text>
</a>
</g>
</g>
<!-- Node1739&#45;&gt;Node1740 -->
<g id="edge9" class="edge"><title>Node1739&#45;&gt;Node1740</title>
<path fill="none" stroke="midnightblue" d="M1156.3,-76C1174.66,-76 1194.37,-76 1212.88,-76"/>
<polygon fill="midnightblue" stroke="midnightblue" points="1156.26,-72.5001 1146.26,-76 1156.26,-79.5001 1156.26,-72.5001"/>
</g>
<!-- Node1741 -->
<g id="node10" class="node"><title>Node1741</title>
<g id="a_node10"><a xlink:href="../../d8/d11/class_ro_r_1_1_g_u_i_manager.html#a4ab273bd0538649818c84b38e8a06100" target="_top" xlink:title="RoR::GUIManager::GetTheme">
<polygon fill="white" stroke="black" points="1406,-66.5 1406,-85.5 1552,-85.5 1552,-66.5 1406,-66.5"/>
<text text-anchor="middle" x="1479" y="-73.5" font-family="Helvetica,sans-Serif" font-size="10.00">RoR::GUIManager::GetTheme</text>
</a>
</g>
</g>
<!-- Node1740&#45;&gt;Node1741 -->
<g id="edge10" class="edge"><title>Node1740&#45;&gt;Node1741</title>
<path fill="none" stroke="midnightblue" d="M1380.12,-76C1388.71,-76 1397.35,-76 1405.75,-76"/>
<polygon fill="midnightblue" stroke="midnightblue" points="1380.09,-72.5001 1370.09,-76 1380.09,-79.5001 1380.09,-72.5001"/>
</g>
<!-- Node1742 -->
<g id="node11" class="node"><title>Node1742</title>
<g id="a_node11"><a xlink:href="../../d4/d8f/class_ro_r_1_1_g_u_i_1_1_multiplayer_selector.html#a8c98e9ba03c8afb1d1a26ec06192862e" target="_top" xlink:title="RoR::GUI::MultiplayerSelector\l::~MultiplayerSelector">
<polygon fill="white" stroke="black" points="1588,-61 1588,-91 1735,-91 1735,-61 1588,-61"/>
<text text-anchor="start" x="1596" y="-79" font-family="Helvetica,sans-Serif" font-size="10.00">RoR::GUI::MultiplayerSelector</text>
<text text-anchor="middle" x="1661.5" y="-68" font-family="Helvetica,sans-Serif" font-size="10.00">::~MultiplayerSelector</text>
</a>
</g>
</g>
<!-- Node1741&#45;&gt;Node1742 -->
<g id="edge11" class="edge"><title>Node1741&#45;&gt;Node1742</title>
<path fill="none" stroke="midnightblue" d="M1562.14,-76C1570.74,-76 1579.43,-76 1587.91,-76"/>
<polygon fill="midnightblue" stroke="midnightblue" points="1562.12,-72.5001 1552.12,-76 1562.12,-79.5001 1562.12,-72.5001"/>
</g>
<!-- Node1743&#45;&gt;Node1744 -->
<g id="edge13" class="edge"><title>Node1743&#45;&gt;Node1744</title>
<path fill="none" stroke="midnightblue" d="M320.387,-148.186C340.802,-143.396 363.032,-138.179 382.755,-133.551"/>
<polygon fill="midnightblue" stroke="midnightblue" points="319.466,-144.807 310.53,-150.5 321.066,-151.622 319.466,-144.807"/>
</g>
<!-- Node1749 -->
<g id="node18" class="node"><title>Node1749</title>
<g id="a_node18"><a xlink:href="../../d6/d19/class_ro_r_1_1_g_u_i_1_1_top_menubar.html#a1a4c2b4a27eb2a018b6b8ea49528f22a" target="_top" xlink:title="RoR::GUI::TopMenubar\l::SetSimController">
<polygon fill="white" stroke="black" points="592.5,-149 592.5,-179 709.5,-179 709.5,-149 592.5,-149"/>
<text text-anchor="start" x="600.5" y="-167" font-family="Helvetica,sans-Serif" font-size="10.00">RoR::GUI::TopMenubar</text>
<text text-anchor="middle" x="651" y="-156" font-family="Helvetica,sans-Serif" font-size="10.00">::SetSimController</text>
</a>
</g>
</g>
<!-- Node1743&#45;&gt;Node1749 -->
<g id="edge26" class="edge"><title>Node1743&#45;&gt;Node1749</title>
<path fill="none" stroke="midnightblue" d="M320.729,-164C397.143,-164 520.136,-164 592.203,-164"/>
<polygon fill="midnightblue" stroke="midnightblue" points="320.727,-160.5 310.727,-164 320.727,-167.5 320.727,-160.5"/>
</g>
<!-- Node1745 -->
<g id="node14" class="node"><title>Node1745</title>
<g id="a_node14"><a xlink:href="../../d6/d19/class_ro_r_1_1_g_u_i_1_1_top_menubar.html#a85cdceff2c0f1196726097bc04953567" target="_top" xlink:title="RoR::GUI::TopMenubar\l::updatePositionUponMousePosition">
<polygon fill="white" stroke="black" points="564,-88 564,-118 738,-118 738,-88 564,-88"/>
<text text-anchor="start" x="572" y="-106" font-family="Helvetica,sans-Serif" font-size="10.00">RoR::GUI::TopMenubar</text>
<text text-anchor="middle" x="651" y="-95" font-family="Helvetica,sans-Serif" font-size="10.00">::updatePositionUponMousePosition</text>
</a>
</g>
</g>
<!-- Node1744&#45;&gt;Node1745 -->
<g id="edge14" class="edge"><title>Node1744&#45;&gt;Node1745</title>
<path fill="none" stroke="midnightblue" d="M510.459,-114.432C527.556,-113.032 546.13,-111.51 563.983,-110.047"/>
<polygon fill="midnightblue" stroke="midnightblue" points="509.706,-110.982 500.025,-115.287 510.277,-117.959 509.706,-110.982"/>
</g>
<!-- Node1744&#45;&gt;Node1749 -->
<g id="edge20" class="edge"><title>Node1744&#45;&gt;Node1749</title>
<path fill="none" stroke="midnightblue" d="M510.02,-134.317C536.607,-139.955 566.825,-146.363 592.363,-151.778"/>
<polygon fill="midnightblue" stroke="midnightblue" points="510.533,-130.849 500.025,-132.198 509.081,-137.696 510.533,-130.849"/>
</g>
<!-- Node1745&#45;&gt;Node1738 -->
<g id="edge15" class="edge"><title>Node1745&#45;&gt;Node1738</title>
<path fill="none" stroke="midnightblue" d="M688.615,-83.0853C704.045,-74.4505 722.081,-64.0346 738,-54 754.479,-43.6124 756.147,-36.7934 774,-29 782.877,-25.1246 792.624,-22.006 802.275,-19.5063"/>
<polygon fill="midnightblue" stroke="midnightblue" points="686.908,-80.0298 679.868,-87.9471 690.309,-86.1483 686.908,-80.0298"/>
</g>
<!-- Node1746 -->
<g id="node15" class="node"><title>Node1746</title>
<g id="a_node15"><a xlink:href="../../db/df1/class_g_u_i_input_manager.html#a2e10c3db1bd7068fc87476ce1cceb7c6" target="_top" xlink:title="GUIInputManager::mousePressed">
<polygon fill="white" stroke="black" points="780,-137.5 780,-156.5 943,-156.5 943,-137.5 780,-137.5"/>
<text text-anchor="middle" x="861.5" y="-144.5" font-family="Helvetica,sans-Serif" font-size="10.00">GUIInputManager::mousePressed</text>
</a>
</g>
</g>
<!-- Node1745&#45;&gt;Node1746 -->
<g id="edge16" class="edge"><title>Node1745&#45;&gt;Node1746</title>
<path fill="none" stroke="midnightblue" d="M732.965,-120.086C760.975,-125.997 791.347,-132.407 815.424,-137.488"/>
<polygon fill="midnightblue" stroke="midnightblue" points="733.678,-116.66 723.171,-118.019 732.233,-123.509 733.678,-116.66"/>
</g>
<!-- Node1747 -->
<g id="node16" class="node"><title>Node1747</title>
<g id="a_node16"><a xlink:href="../../d6/d19/class_ro_r_1_1_g_u_i_1_1_top_menubar.html#aba4f8b1030da3a9d3b4394562d60a05a" target="_top" xlink:title="RoR::GUI::TopMenubar\l::TopMenubar">
<polygon fill="white" stroke="black" points="803,-88 803,-118 920,-118 920,-88 803,-88"/>
<text text-anchor="start" x="811" y="-106" font-family="Helvetica,sans-Serif" font-size="10.00">RoR::GUI::TopMenubar</text>
<text text-anchor="middle" x="861.5" y="-95" font-family="Helvetica,sans-Serif" font-size="10.00">::TopMenubar</text>
</a>
</g>
</g>
<!-- Node1745&#45;&gt;Node1747 -->
<g id="edge18" class="edge"><title>Node1745&#45;&gt;Node1747</title>
<path fill="none" stroke="midnightblue" d="M748.069,-103C766.817,-103 785.921,-103 802.934,-103"/>
<polygon fill="midnightblue" stroke="midnightblue" points="748.009,-99.5001 738.009,-103 748.009,-106.5 748.009,-99.5001"/>
</g>
<!-- Node1748 -->
<g id="node17" class="node"><title>Node1748</title>
<g id="a_node17"><a xlink:href="../../d6/d19/class_ro_r_1_1_g_u_i_1_1_top_menubar.html#a180dd47d14be5a44450e0569c5dd8522" target="_top" xlink:title="RoR::GUI::TopMenubar\l::getMenuHeight">
<polygon fill="white" stroke="black" points="803,-39 803,-69 920,-69 920,-39 803,-39"/>
<text text-anchor="start" x="811" y="-57" font-family="Helvetica,sans-Serif" font-size="10.00">RoR::GUI::TopMenubar</text>
<text text-anchor="middle" x="861.5" y="-46" font-family="Helvetica,sans-Serif" font-size="10.00">::getMenuHeight</text>
</a>
</g>
</g>
<!-- Node1745&#45;&gt;Node1748 -->
<g id="edge19" class="edge"><title>Node1745&#45;&gt;Node1748</title>
<path fill="none" stroke="midnightblue" d="M725.864,-85.6411C751.083,-79.7144 778.901,-73.1767 802.673,-67.5901"/>
<polygon fill="midnightblue" stroke="midnightblue" points="724.908,-82.2703 715.974,-87.9654 726.509,-89.0847 724.908,-82.2703"/>
</g>
<!-- Node1746&#45;&gt;Node1739 -->
<g id="edge17" class="edge"><title>Node1746&#45;&gt;Node1739</title>
<path fill="none" stroke="midnightblue" d="M919.346,-135.089C929.296,-132.654 939.5,-129.931 949,-127 982.349,-116.712 1019.32,-102.004 1045.45,-91.0243"/>
<polygon fill="midnightblue" stroke="midnightblue" points="918.436,-131.708 909.516,-137.424 920.054,-138.518 918.436,-131.708"/>
</g>
<!-- Node1750 -->
<g id="node19" class="node"><title>Node1750</title>
<g id="a_node19"><a xlink:href="../../d8/d11/class_ro_r_1_1_g_u_i_manager.html#a875185e93587aeb2ab73220c1d2d4fc8" target="_top" xlink:title="RoR::GUIManager::SetSimController">
<polygon fill="white" stroke="black" points="774,-175.5 774,-194.5 949,-194.5 949,-175.5 774,-175.5"/>
<text text-anchor="middle" x="861.5" y="-182.5" font-family="Helvetica,sans-Serif" font-size="10.00">RoR::GUIManager::SetSimController</text>
</a>
</g>
</g>
<!-- Node1749&#45;&gt;Node1750 -->
<g id="edge21" class="edge"><title>Node1749&#45;&gt;Node1750</title>
<path fill="none" stroke="midnightblue" d="M719.528,-170.801C736.85,-172.546 755.724,-174.447 773.864,-176.274"/>
<polygon fill="midnightblue" stroke="midnightblue" points="719.826,-167.314 709.525,-169.794 719.124,-174.279 719.826,-167.314"/>
</g>
<!-- Node1751 -->
<g id="node20" class="node"><title>Node1751</title>
<g id="a_node20"><a xlink:href="../../dd/dbe/class_ro_r_frame_listener.html#a9e239911ad148aa76c58202920090f76" target="_top" xlink:title="RoRFrameListener::EnterGameplayLoop">
<polygon fill="white" stroke="black" points="985,-175.5 985,-194.5 1177,-194.5 1177,-175.5 985,-175.5"/>
<text text-anchor="middle" x="1081" y="-182.5" font-family="Helvetica,sans-Serif" font-size="10.00">RoRFrameListener::EnterGameplayLoop</text>
</a>
</g>
</g>
<!-- Node1750&#45;&gt;Node1751 -->
<g id="edge22" class="edge"><title>Node1750&#45;&gt;Node1751</title>
<path fill="none" stroke="midnightblue" d="M959.333,-185C967.784,-185 976.333,-185 984.771,-185"/>
<polygon fill="midnightblue" stroke="midnightblue" points="959.087,-181.5 949.087,-185 959.087,-188.5 959.087,-181.5"/>
</g>
<!-- Node1751&#45;&gt;Node1736 -->
<g id="edge23" class="edge"><title>Node1751&#45;&gt;Node1736</title>
<path fill="none" stroke="midnightblue" d="M1144.26,-196.347C1174.17,-201.799 1209.63,-208.261 1238.13,-213.456"/>
<polygon fill="midnightblue" stroke="midnightblue" points="1144.81,-192.89 1134.34,-194.54 1143.55,-199.776 1144.81,-192.89"/>
</g>
<!-- Node1752 -->
<g id="node21" class="node"><title>Node1752</title>
<g id="a_node21"><a xlink:href="../../df/d0a/main_8cpp.html#a0ddf1224851353fc92bfbff6f499fa97" target="_top" xlink:title="main">
<polygon fill="white" stroke="black" points="1272.5,-175.5 1272.5,-194.5 1310.5,-194.5 1310.5,-175.5 1272.5,-175.5"/>
<text text-anchor="middle" x="1291.5" y="-182.5" font-family="Helvetica,sans-Serif" font-size="10.00">main</text>
</a>
</g>
</g>
<!-- Node1751&#45;&gt;Node1752 -->
<g id="edge24" class="edge"><title>Node1751&#45;&gt;Node1752</title>
<path fill="none" stroke="midnightblue" d="M1187.27,-185C1220.09,-185 1252.77,-185 1272.3,-185"/>
<polygon fill="midnightblue" stroke="midnightblue" points="1187.1,-181.5 1177.1,-185 1187.1,-188.5 1187.1,-181.5"/>
</g>
<!-- Node1753 -->
<g id="node22" class="node"><title>Node1753</title>
<g id="a_node22"><a xlink:href="../../df/d0a/main_8cpp.html#a2922bc5d5c2d77a3020cfbf9df12aab0" target="_top" xlink:title="WinMain">
<polygon fill="white" stroke="black" points="1451.5,-175.5 1451.5,-194.5 1506.5,-194.5 1506.5,-175.5 1451.5,-175.5"/>
<text text-anchor="middle" x="1479" y="-182.5" font-family="Helvetica,sans-Serif" font-size="10.00">WinMain</text>
</a>
</g>
</g>
<!-- Node1752&#45;&gt;Node1753 -->
<g id="edge25" class="edge"><title>Node1752&#45;&gt;Node1753</title>
<path fill="none" stroke="midnightblue" d="M1320.76,-185C1356.19,-185 1416.45,-185 1451.18,-185"/>
<polygon fill="midnightblue" stroke="midnightblue" points="1320.62,-181.5 1310.62,-185 1320.62,-188.5 1320.62,-181.5"/>
</g>
</g>
</svg>
