<?xml version="1.0" encoding="UTF-8" standalone="no"?>
<!DOCTYPE svg PUBLIC "-//W3C//DTD SVG 1.1//EN"
 "http://www.w3.org/Graphics/SVG/1.1/DTD/svg11.dtd">
<!-- Generated by graphviz version 2.38.0 (20140413.2041)
 -->
<!-- Title: Hydrax::GodRaysManager::_isComponent Pages: 1 -->
<svg width="994pt" height="88pt"
 viewBox="0.00 0.00 994.00 88.00" xmlns="http://www.w3.org/2000/svg" xmlns:xlink="http://www.w3.org/1999/xlink">
<g id="graph0" class="graph" transform="scale(1 1) rotate(0) translate(4 84)">
<title>Hydrax::GodRaysManager::_isComponent</title>
<polygon fill="white" stroke="none" points="-4,4 -4,-84 990,-84 990,4 -4,4"/>
<!-- Node57 -->
<g id="node1" class="node"><title>Node57</title>
<polygon fill="#bfbfbf" stroke="black" points="0,-24.5 0,-54.5 131,-54.5 131,-24.5 0,-24.5"/>
<text text-anchor="start" x="8" y="-42.5" font-family="Helvetica,sans-Serif" font-size="10.00">Hydrax::GodRaysManager</text>
<text text-anchor="middle" x="65.5" y="-31.5" font-family="Helvetica,sans-Serif" font-size="10.00">::_isComponent</text>
</g>
<!-- Node58 -->
<g id="node2" class="node"><title>Node58</title>
<g id="a_node2"><a xlink:href="../../d2/dd3/class_hydrax_1_1_god_rays_manager.html#ad8e21289bddd02ed9a62b3a2db1ff54f" target="_top" xlink:title="Hydrax::GodRaysManager\l::_createMaterials">
<polygon fill="white" stroke="black" points="167,-24.5 167,-54.5 298,-54.5 298,-24.5 167,-24.5"/>
<text text-anchor="start" x="175" y="-42.5" font-family="Helvetica,sans-Serif" font-size="10.00">Hydrax::GodRaysManager</text>
<text text-anchor="middle" x="232.5" y="-31.5" font-family="Helvetica,sans-Serif" font-size="10.00">::_createMaterials</text>
</a>
</g>
</g>
<!-- Node57&#45;&gt;Node58 -->
<g id="edge1" class="edge"><title>Node57&#45;&gt;Node58</title>
<path fill="none" stroke="midnightblue" d="M141.239,-39.5C149.821,-39.5 158.516,-39.5 166.948,-39.5"/>
<polygon fill="midnightblue" stroke="midnightblue" points="141.239,-36.0001 131.239,-39.5 141.239,-43.0001 141.239,-36.0001"/>
</g>
<!-- Node59 -->
<g id="node3" class="node"><title>Node59</title>
<g id="a_node3"><a xlink:href="../../d2/dd3/class_hydrax_1_1_god_rays_manager.html#ad6e8cfa4b9bde36b668d04ae3cfe8d00" target="_top" xlink:title="Hydrax::GodRaysManager\l::create">
<polygon fill="white" stroke="black" points="334,-24.5 334,-54.5 465,-54.5 465,-24.5 334,-24.5"/>
<text text-anchor="start" x="342" y="-42.5" font-family="Helvetica,sans-Serif" font-size="10.00">Hydrax::GodRaysManager</text>
<text text-anchor="middle" x="399.5" y="-31.5" font-family="Helvetica,sans-Serif" font-size="10.00">::create</text>
</a>
</g>
</g>
<!-- Node58&#45;&gt;Node59 -->
<g id="edge2" class="edge"><title>Node58&#45;&gt;Node59</title>
<path fill="none" stroke="midnightblue" d="M308.239,-32.7766C316.821,-32.7176 325.516,-32.7567 333.948,-32.894"/>
<polygon fill="midnightblue" stroke="midnightblue" points="308.198,-29.2768 298.239,-32.891 308.278,-36.2763 308.198,-29.2768"/>
</g>
<!-- Node59&#45;&gt;Node58 -->
<g id="edge7" class="edge"><title>Node59&#45;&gt;Node58</title>
<path fill="none" stroke="midnightblue" d="M323.671,-46.224C315.182,-46.2817 306.583,-46.2434 298.239,-46.109"/>
<polygon fill="midnightblue" stroke="midnightblue" points="323.989,-49.7207 333.948,-46.106 323.908,-42.7211 323.989,-49.7207"/>
</g>
<!-- Node60 -->
<g id="node4" class="node"><title>Node60</title>
<g id="a_node4"><a xlink:href="../../d2/dd3/class_hydrax_1_1_god_rays_manager.html#a4a85152f7e71a50c473ae65b299f3465" target="_top" xlink:title="Hydrax::GodRaysManager\l::setObjectIntersectionsEnabled">
<polygon fill="white" stroke="black" points="501,-24.5 501,-54.5 656,-54.5 656,-24.5 501,-24.5"/>
<text text-anchor="start" x="509" y="-42.5" font-family="Helvetica,sans-Serif" font-size="10.00">Hydrax::GodRaysManager</text>
<text text-anchor="middle" x="578.5" y="-31.5" font-family="Helvetica,sans-Serif" font-size="10.00">::setObjectIntersectionsEnabled</text>
</a>
</g>
</g>
<!-- Node59&#45;&gt;Node60 -->
<g id="edge3" class="edge"><title>Node59&#45;&gt;Node60</title>
<path fill="none" stroke="midnightblue" d="M475.298,-39.5C483.702,-39.5 492.274,-39.5 500.702,-39.5"/>
<polygon fill="midnightblue" stroke="midnightblue" points="475.152,-36.0001 465.152,-39.5 475.152,-43.0001 475.152,-36.0001"/>
</g>
<!-- Node61 -->
<g id="node5" class="node"><title>Node61</title>
<g id="a_node5"><a xlink:href="../../d6/de1/class_hydrax_1_1_cfg_file_manager.html#aa814b728a2c0cd30f3e2851398bacb6b" target="_top" xlink:title="Hydrax::CfgFileManager\l::_loadComponentsSettings">
<polygon fill="white" stroke="black" points="692,-49.5 692,-79.5 829,-79.5 829,-49.5 692,-49.5"/>
<text text-anchor="start" x="700" y="-67.5" font-family="Helvetica,sans-Serif" font-size="10.00">Hydrax::CfgFileManager</text>
<text text-anchor="middle" x="760.5" y="-56.5" font-family="Helvetica,sans-Serif" font-size="10.00">::_loadComponentsSettings</text>
</a>
</g>
</g>
<!-- Node60&#45;&gt;Node61 -->
<g id="edge4" class="edge"><title>Node60&#45;&gt;Node61</title>
<path fill="none" stroke="midnightblue" d="M666.165,-51.5368C674.773,-52.7324 683.422,-53.9336 691.796,-55.0967"/>
<polygon fill="midnightblue" stroke="midnightblue" points="666.484,-48.0475 656.097,-50.1385 665.521,-54.981 666.484,-48.0475"/>
</g>
<!-- Node63 -->
<g id="node7" class="node"><title>Node63</title>
<g id="a_node7"><a xlink:href="../../d2/dd3/class_hydrax_1_1_god_rays_manager.html#ab2c13437ed508bbc27ef2dbbbe480dff" target="_top" xlink:title="Hydrax::GodRaysManager\l::isVisible">
<polygon fill="white" stroke="black" points="695,-0.5 695,-30.5 826,-30.5 826,-0.5 695,-0.5"/>
<text text-anchor="start" x="703" y="-18.5" font-family="Helvetica,sans-Serif" font-size="10.00">Hydrax::GodRaysManager</text>
<text text-anchor="middle" x="760.5" y="-7.5" font-family="Helvetica,sans-Serif" font-size="10.00">::isVisible</text>
</a>
</g>
</g>
<!-- Node60&#45;&gt;Node63 -->
<g id="edge6" class="edge"><title>Node60&#45;&gt;Node63</title>
<path fill="none" stroke="midnightblue" d="M666.145,-27.9474C675.822,-26.6571 685.551,-25.3598 694.884,-24.1155"/>
<polygon fill="midnightblue" stroke="midnightblue" points="665.547,-24.496 656.097,-29.287 666.472,-31.4346 665.547,-24.496"/>
</g>
<!-- Node62 -->
<g id="node6" class="node"><title>Node62</title>
<g id="a_node6"><a xlink:href="../../d6/de1/class_hydrax_1_1_cfg_file_manager.html#a0e050d2bf65e31ee39c0e28c481702f8" target="_top" xlink:title="Hydrax::CfgFileManager\l::load">
<polygon fill="white" stroke="black" points="865,-49.5 865,-79.5 986,-79.5 986,-49.5 865,-49.5"/>
<text text-anchor="start" x="873" y="-67.5" font-family="Helvetica,sans-Serif" font-size="10.00">Hydrax::CfgFileManager</text>
<text text-anchor="middle" x="925.5" y="-56.5" font-family="Helvetica,sans-Serif" font-size="10.00">::load</text>
</a>
</g>
</g>
<!-- Node61&#45;&gt;Node62 -->
<g id="edge5" class="edge"><title>Node61&#45;&gt;Node62</title>
<path fill="none" stroke="midnightblue" d="M839.245,-64.5C847.835,-64.5 856.48,-64.5 864.798,-64.5"/>
<polygon fill="midnightblue" stroke="midnightblue" points="839.211,-61.0001 829.211,-64.5 839.211,-68.0001 839.211,-61.0001"/>
</g>
</g>
</svg>
