<?xml version="1.0" encoding="UTF-8" standalone="no"?>
<!DOCTYPE svg PUBLIC "-//W3C//DTD SVG 1.1//EN"
 "http://www.w3.org/Graphics/SVG/1.1/DTD/svg11.dtd">
<!-- Generated by graphviz version 2.38.0 (20140413.2041)
 -->
<!-- Title: Hydrax::GodRaysManager::create Pages: 1 -->
<!--zoomable 472 -->
<svg id="main" version="1.1" xmlns="http://www.w3.org/2000/svg" xmlns:xlink="http://www.w3.org/1999/xlink" xml:space="preserve" onload="init(evt)">
<style type="text/css"><![CDATA[
.edge:hover path { stroke: red; }
.edge:hover polygon { stroke: red; fill: red; }
]]></style>
<script type="text/javascript"><![CDATA[
var edges = document.getElementsByTagName('g');
if (edges && edges.length) {
  for (var i=0;i<edges.length;i++) {
    if (edges[i].id.substr(0,4)=='edge') {
      edges[i].setAttribute('class','edge');
    }
  }
}
]]></script>
        <defs>
                <circle id="rim" cx="0" cy="0" r="7"/>
                <circle id="rim2" cx="0" cy="0" r="3.5"/>
                <g id="zoomPlus">
                        <use xlink:href="#rim" fill="#404040">
                                <set attributeName="fill" to="#808080" begin="zoomplus.mouseover" end="zoomplus.mouseout"/>
                        </use>
                        <path d="M-4,0h8M0,-4v8" fill="none" stroke="white" stroke-width="1.5" pointer-events="none"/>
                </g>
                <g id="zoomMin">
                        <use xlink:href="#rim" fill="#404040">
                                <set attributeName="fill" to="#808080" begin="zoomminus.mouseover" end="zoomminus.mouseout"/>
                        </use>
                        <path d="M-4,0h8" fill="none" stroke="white" stroke-width="1.5" pointer-events="none"/>
                </g>
                <g id="dirArrow">
                        <path fill="none" stroke="white" stroke-width="1.5" d="M0,-3.0v7 M-2.5,-0.5L0,-3.0L2.5,-0.5"/>
                </g>
               <g id="resetDef">
                       <use xlink:href="#rim2" fill="#404040">
                               <set attributeName="fill" to="#808080" begin="reset.mouseover" end="reset.mouseout"/>
                       </use>
               </g>
        </defs>

<script type="text/javascript">
var viewWidth = 725;
var viewHeight = 472;
var sectionId = 'dynsection-18';
</script>
<script xlink:href="../../svgpan.js"/>
<svg id="graph" class="graph">
<g id="viewport">
<title>Hydrax::GodRaysManager::create</title>
<polygon fill="white" stroke="none" points="-4,4 -4,-468 721,-468 721,4 -4,4"/>
<!-- Node96 -->
<g id="node1" class="node"><title>Node96</title>
<polygon fill="#bfbfbf" stroke="black" points="0,-238.5 0,-268.5 131,-268.5 131,-238.5 0,-238.5"/>
<text text-anchor="start" x="8" y="-256.5" font-family="Helvetica,sans-Serif" font-size="10.00">Hydrax::GodRaysManager</text>
<text text-anchor="middle" x="65.5" y="-245.5" font-family="Helvetica,sans-Serif" font-size="10.00">::create</text>
</g>
<!-- Node97 -->
<g id="node2" class="node"><title>Node97</title>
<g id="a_node2"><a xlink:href="../../db/d29/class_hydrax_1_1_noise_1_1_perlin.html#a3e260e7c239d90da210aa3e27289c6f0" target="_top" xlink:title="Hydrax::Noise::Perlin\l::create">
<polygon fill="white" stroke="black" points="178,-380.5 178,-410.5 287,-410.5 287,-380.5 178,-380.5"/>
<text text-anchor="start" x="186" y="-398.5" font-family="Helvetica,sans-Serif" font-size="10.00">Hydrax::Noise::Perlin</text>
<text text-anchor="middle" x="232.5" y="-387.5" font-family="Helvetica,sans-Serif" font-size="10.00">::create</text>
</a>
</g>
</g>
<!-- Node96&#45;&gt;Node97 -->
<g id="edge1" class="edge"><title>Node96&#45;&gt;Node97</title>
<path fill="none" stroke="midnightblue" d="M78.2087,-268.785C95.7458,-290.967 130.674,-332.485 167,-360.5 174.037,-365.927 182.027,-370.995 189.929,-375.496"/>
<polygon fill="midnightblue" stroke="midnightblue" points="188.305,-378.597 198.758,-380.327 191.665,-372.457 188.305,-378.597"/>
</g>
<!-- Node101 -->
<g id="node6" class="node"><title>Node101</title>
<g id="a_node6"><a xlink:href="../../dd/d65/class_hydrax_1_1_hydrax.html#a4f6dfef270938f04d0430eaf8e1fa88f" target="_top" xlink:title="Hydrax::Hydrax::getScene\lManager">
<polygon fill="white" stroke="black" points="379.5,-286.5 379.5,-316.5 510.5,-316.5 510.5,-286.5 379.5,-286.5"/>
<text text-anchor="start" x="387.5" y="-304.5" font-family="Helvetica,sans-Serif" font-size="10.00">Hydrax::Hydrax::getScene</text>
<text text-anchor="middle" x="445" y="-293.5" font-family="Helvetica,sans-Serif" font-size="10.00">Manager</text>
</a>
</g>
</g>
<!-- Node96&#45;&gt;Node101 -->
<g id="edge5" class="edge"><title>Node96&#45;&gt;Node101</title>
<path fill="none" stroke="midnightblue" d="M80.7389,-268.733C98.7828,-286.805 131.799,-315.938 167,-327.5 222.315,-345.668 240.004,-332.624 298,-327.5 321.345,-325.438 346.549,-321.554 369.336,-317.406"/>
<polygon fill="midnightblue" stroke="midnightblue" points="370.091,-320.826 379.281,-315.552 368.808,-313.944 370.091,-320.826"/>
</g>
<!-- Node102 -->
<g id="node7" class="node"><title>Node102</title>
<g id="a_node7"><a xlink:href="../../d2/dd3/class_hydrax_1_1_god_rays_manager.html#ae9b48811f31edab50567458b6a59cebb" target="_top" xlink:title="Hydrax::GodRaysManager\l::_createDepthRTT">
<polygon fill="white" stroke="black" points="167,-287.5 167,-317.5 298,-317.5 298,-287.5 167,-287.5"/>
<text text-anchor="start" x="175" y="-305.5" font-family="Helvetica,sans-Serif" font-size="10.00">Hydrax::GodRaysManager</text>
<text text-anchor="middle" x="232.5" y="-294.5" font-family="Helvetica,sans-Serif" font-size="10.00">::_createDepthRTT</text>
</a>
</g>
</g>
<!-- Node96&#45;&gt;Node102 -->
<g id="edge6" class="edge"><title>Node96&#45;&gt;Node102</title>
<path fill="none" stroke="midnightblue" d="M117.352,-268.601C134.369,-273.655 153.504,-279.338 171.173,-284.585"/>
<polygon fill="midnightblue" stroke="midnightblue" points="170.233,-287.957 180.816,-287.448 172.226,-281.246 170.233,-287.957"/>
</g>
<!-- Node103 -->
<g id="node8" class="node"><title>Node103</title>
<g id="a_node8"><a xlink:href="../../d2/dd3/class_hydrax_1_1_god_rays_manager.html#ad8e21289bddd02ed9a62b3a2db1ff54f" target="_top" xlink:title="Hydrax::GodRaysManager\l::_createMaterials">
<polygon fill="white" stroke="black" points="167,-140.5 167,-170.5 298,-170.5 298,-140.5 167,-140.5"/>
<text text-anchor="start" x="175" y="-158.5" font-family="Helvetica,sans-Serif" font-size="10.00">Hydrax::GodRaysManager</text>
<text text-anchor="middle" x="232.5" y="-147.5" font-family="Helvetica,sans-Serif" font-size="10.00">::_createMaterials</text>
</a>
</g>
</g>
<!-- Node96&#45;&gt;Node103 -->
<g id="edge7" class="edge"><title>Node96&#45;&gt;Node103</title>
<path fill="none" stroke="midnightblue" d="M77.2656,-238.375C93.3714,-221.386 125.304,-194.864 157.509,-175.868"/>
<polygon fill="midnightblue" stroke="midnightblue" points="159.612,-178.699 166.587,-170.724 156.161,-172.609 159.612,-178.699"/>
</g>
<!-- Node110 -->
<g id="node15" class="node"><title>Node110</title>
<g id="a_node15"><a xlink:href="../../d2/dd3/class_hydrax_1_1_god_rays_manager.html#abe86da8a21691f1bac9d817147c9edba" target="_top" xlink:title="Hydrax::GodRaysManager\l::addDepthTechnique">
<polygon fill="white" stroke="black" points="167,-189.5 167,-219.5 298,-219.5 298,-189.5 167,-189.5"/>
<text text-anchor="start" x="175" y="-207.5" font-family="Helvetica,sans-Serif" font-size="10.00">Hydrax::GodRaysManager</text>
<text text-anchor="middle" x="232.5" y="-196.5" font-family="Helvetica,sans-Serif" font-size="10.00">::addDepthTechnique</text>
</a>
</g>
</g>
<!-- Node96&#45;&gt;Node110 -->
<g id="edge15" class="edge"><title>Node96&#45;&gt;Node110</title>
<path fill="none" stroke="midnightblue" d="M117.352,-238.399C134.369,-233.345 153.504,-227.662 171.173,-222.415"/>
<polygon fill="midnightblue" stroke="midnightblue" points="172.226,-225.754 180.816,-219.552 170.233,-219.043 172.226,-225.754"/>
</g>
<!-- Node111 -->
<g id="node16" class="node"><title>Node111</title>
<g id="a_node16"><a xlink:href="../../d2/dd3/class_hydrax_1_1_god_rays_manager.html#ab60cb054a3c4948b82c0b1c3736d17b3" target="_top" xlink:title="Hydrax::GodRaysManager\l::_createGodRays">
<polygon fill="white" stroke="black" points="167,-238.5 167,-268.5 298,-268.5 298,-238.5 167,-238.5"/>
<text text-anchor="start" x="175" y="-256.5" font-family="Helvetica,sans-Serif" font-size="10.00">Hydrax::GodRaysManager</text>
<text text-anchor="middle" x="232.5" y="-245.5" font-family="Helvetica,sans-Serif" font-size="10.00">::_createGodRays</text>
</a>
</g>
</g>
<!-- Node96&#45;&gt;Node111 -->
<g id="edge17" class="edge"><title>Node96&#45;&gt;Node111</title>
<path fill="none" stroke="midnightblue" d="M131.239,-253.5C139.583,-253.5 148.182,-253.5 156.671,-253.5"/>
<polygon fill="midnightblue" stroke="midnightblue" points="156.948,-257 166.948,-253.5 156.948,-250 156.948,-257"/>
</g>
<!-- Node98 -->
<g id="node3" class="node"><title>Node98</title>
<g id="a_node3"><a xlink:href="../../da/d26/class_hydrax_1_1_noise_1_1_noise.html#a68f6b9566fb7f62653dd6ed9702e286e" target="_top" xlink:title="Hydrax::Noise::Noise\l::isCreated">
<polygon fill="white" stroke="black" points="390.5,-384.5 390.5,-414.5 499.5,-414.5 499.5,-384.5 390.5,-384.5"/>
<text text-anchor="start" x="398.5" y="-402.5" font-family="Helvetica,sans-Serif" font-size="10.00">Hydrax::Noise::Noise</text>
<text text-anchor="middle" x="445" y="-391.5" font-family="Helvetica,sans-Serif" font-size="10.00">::isCreated</text>
</a>
</g>
</g>
<!-- Node97&#45;&gt;Node98 -->
<g id="edge2" class="edge"><title>Node97&#45;&gt;Node98</title>
<path fill="none" stroke="midnightblue" d="M287.163,-396.52C315.493,-397.058 350.447,-397.722 380.163,-398.287"/>
<polygon fill="midnightblue" stroke="midnightblue" points="380.371,-401.791 390.435,-398.482 380.504,-394.793 380.371,-401.791"/>
</g>
<!-- Node99 -->
<g id="node4" class="node"><title>Node99</title>
<g id="a_node4"><a xlink:href="../../da/d26/class_hydrax_1_1_noise_1_1_noise.html#abe9cf8765feed765e6a35b0779125f6a" target="_top" xlink:title="Hydrax::Noise::Noise\l::create">
<polygon fill="white" stroke="black" points="390.5,-335.5 390.5,-365.5 499.5,-365.5 499.5,-335.5 390.5,-335.5"/>
<text text-anchor="start" x="398.5" y="-353.5" font-family="Helvetica,sans-Serif" font-size="10.00">Hydrax::Noise::Noise</text>
<text text-anchor="middle" x="445" y="-342.5" font-family="Helvetica,sans-Serif" font-size="10.00">::create</text>
</a>
</g>
</g>
<!-- Node97&#45;&gt;Node99 -->
<g id="edge3" class="edge"><title>Node97&#45;&gt;Node99</title>
<path fill="none" stroke="midnightblue" d="M287.163,-384.028C315.616,-377.945 350.753,-370.434 380.552,-364.064"/>
<polygon fill="midnightblue" stroke="midnightblue" points="381.388,-367.464 390.435,-361.951 379.925,-360.619 381.388,-367.464"/>
</g>
<!-- Node100 -->
<g id="node5" class="node"><title>Node100</title>
<g id="a_node5"><a xlink:href="../../db/d29/class_hydrax_1_1_noise_1_1_perlin.html#a79f375919de9abd4823e60ce003a95e6" target="_top" xlink:title="Hydrax::Noise::Perlin\l::_initNoise">
<polygon fill="white" stroke="black" points="390.5,-433.5 390.5,-463.5 499.5,-463.5 499.5,-433.5 390.5,-433.5"/>
<text text-anchor="start" x="398.5" y="-451.5" font-family="Helvetica,sans-Serif" font-size="10.00">Hydrax::Noise::Perlin</text>
<text text-anchor="middle" x="445" y="-440.5" font-family="Helvetica,sans-Serif" font-size="10.00">::_initNoise</text>
</a>
</g>
</g>
<!-- Node97&#45;&gt;Node100 -->
<g id="edge4" class="edge"><title>Node97&#45;&gt;Node100</title>
<path fill="none" stroke="midnightblue" d="M283.163,-410.536C299.315,-415.236 317.363,-420.29 334,-424.5 349,-428.296 365.241,-432.039 380.522,-435.4"/>
<polygon fill="midnightblue" stroke="midnightblue" points="379.887,-438.843 390.402,-437.549 381.375,-432.003 379.887,-438.843"/>
</g>
<!-- Node103&#45;&gt;Node96 -->
<g id="edge11" class="edge"><title>Node103&#45;&gt;Node96</title>
<path fill="none" stroke="midnightblue" d="M207.83,-170.547C195.324,-175.7 179.929,-181.513 167,-188.5 143.692,-201.096 119.722,-218.541 101.04,-232.349"/>
<polygon fill="midnightblue" stroke="midnightblue" points="98.8082,-229.646 92.8496,-238.407 102.971,-235.274 98.8082,-229.646"/>
</g>
<!-- Node104 -->
<g id="node9" class="node"><title>Node104</title>
<g id="a_node9"><a xlink:href="../../dd/d65/class_hydrax_1_1_hydrax.html#aa8fa3a97e0a3e75348d05e655bcc4386" target="_top" xlink:title="Hydrax::Hydrax::getShaderMode">
<polygon fill="white" stroke="black" points="366,-197 366,-216 524,-216 524,-197 366,-197"/>
<text text-anchor="middle" x="445" y="-204" font-family="Helvetica,sans-Serif" font-size="10.00">Hydrax::Hydrax::getShaderMode</text>
</a>
</g>
</g>
<!-- Node103&#45;&gt;Node104 -->
<g id="edge8" class="edge"><title>Node103&#45;&gt;Node104</title>
<path fill="none" stroke="midnightblue" d="M278.207,-170.544C295.507,-176.034 315.553,-181.995 334,-186.5 346.922,-189.656 360.809,-192.555 374.218,-195.109"/>
<polygon fill="midnightblue" stroke="midnightblue" points="373.883,-198.607 384.354,-196.994 375.163,-191.725 373.883,-198.607"/>
</g>
<!-- Node105 -->
<g id="node10" class="node"><title>Node105</title>
<g id="a_node10"><a xlink:href="../../dd/d65/class_hydrax_1_1_hydrax.html#a572279649449549c7be3ef809221fbae" target="_top" xlink:title="Hydrax::Hydrax::getMaterial\lManager">
<polygon fill="white" stroke="black" points="376,-49.5 376,-79.5 514,-79.5 514,-49.5 376,-49.5"/>
<text text-anchor="start" x="384" y="-67.5" font-family="Helvetica,sans-Serif" font-size="10.00">Hydrax::Hydrax::getMaterial</text>
<text text-anchor="middle" x="445" y="-56.5" font-family="Helvetica,sans-Serif" font-size="10.00">Manager</text>
</a>
</g>
</g>
<!-- Node103&#45;&gt;Node105 -->
<g id="edge9" class="edge"><title>Node103&#45;&gt;Node105</title>
<path fill="none" stroke="midnightblue" d="M251.551,-140.402C270.79,-125.078 302.729,-101.773 334,-88.5 344.056,-84.2316 354.965,-80.683 365.874,-77.7434"/>
<polygon fill="midnightblue" stroke="midnightblue" points="367.034,-81.0602 375.868,-75.2117 365.315,-74.2745 367.034,-81.0602"/>
</g>
<!-- Node106 -->
<g id="node11" class="node"><title>Node106</title>
<g id="a_node11"><a xlink:href="../../d2/dd3/class_hydrax_1_1_god_rays_manager.html#a79cf6bc81631374b048b49d31dddf1ab" target="_top" xlink:title="Hydrax::GodRaysManager\l::_isComponent">
<polygon fill="white" stroke="black" points="379.5,-0.5 379.5,-30.5 510.5,-30.5 510.5,-0.5 379.5,-0.5"/>
<text text-anchor="start" x="387.5" y="-18.5" font-family="Helvetica,sans-Serif" font-size="10.00">Hydrax::GodRaysManager</text>
<text text-anchor="middle" x="445" y="-7.5" font-family="Helvetica,sans-Serif" font-size="10.00">::_isComponent</text>
</a>
</g>
</g>
<!-- Node103&#45;&gt;Node106 -->
<g id="edge10" class="edge"><title>Node103&#45;&gt;Node106</title>
<path fill="none" stroke="midnightblue" d="M242.13,-140.306C257.279,-115.11 291.156,-64.9404 334,-39.5 344.808,-33.0822 357.128,-28.3742 369.517,-24.9221"/>
<polygon fill="midnightblue" stroke="midnightblue" points="370.603,-28.2577 379.441,-22.4141 368.888,-21.4711 370.603,-28.2577"/>
</g>
<!-- Node107 -->
<g id="node12" class="node"><title>Node107</title>
<g id="a_node12"><a xlink:href="../../da/d12/class_hydrax_1_1_material_manager.html#a9374e09a2d918becab5db16240d2b8e1" target="_top" xlink:title="Hydrax::MaterialManager\l::fillGpuProgramsToPass">
<polygon fill="white" stroke="black" points="382.5,-147.5 382.5,-177.5 507.5,-177.5 507.5,-147.5 382.5,-147.5"/>
<text text-anchor="start" x="390.5" y="-165.5" font-family="Helvetica,sans-Serif" font-size="10.00">Hydrax::MaterialManager</text>
<text text-anchor="middle" x="445" y="-154.5" font-family="Helvetica,sans-Serif" font-size="10.00">::fillGpuProgramsToPass</text>
</a>
</g>
</g>
<!-- Node103&#45;&gt;Node107 -->
<g id="edge12" class="edge"><title>Node103&#45;&gt;Node107</title>
<path fill="none" stroke="midnightblue" d="M298.087,-157.648C321.563,-158.428 348.229,-159.315 372.284,-160.115"/>
<polygon fill="midnightblue" stroke="midnightblue" points="372.306,-163.618 382.417,-160.452 372.539,-156.622 372.306,-163.618"/>
</g>
<!-- Node109 -->
<g id="node14" class="node"><title>Node109</title>
<g id="a_node14"><a xlink:href="../../d5/df8/_god_rays_manager_8cpp.html#a9a8a2eee3dd42693f229dd45c59839a2" target="_top" xlink:title="PROJECTIONCLIPSPACE2DTOIMAGESPACE\l_PERSPECTIVE">
<polygon fill="white" stroke="black" points="334,-98.5 334,-128.5 556,-128.5 556,-98.5 334,-98.5"/>
<text text-anchor="start" x="342" y="-116.5" font-family="Helvetica,sans-Serif" font-size="10.00">PROJECTIONCLIPSPACE2DTOIMAGESPACE</text>
<text text-anchor="middle" x="445" y="-105.5" font-family="Helvetica,sans-Serif" font-size="10.00">_PERSPECTIVE</text>
</a>
</g>
</g>
<!-- Node103&#45;&gt;Node109 -->
<g id="edge14" class="edge"><title>Node103&#45;&gt;Node109</title>
<path fill="none" stroke="midnightblue" d="M298.087,-142.613C317.198,-138.8 338.421,-134.566 358.63,-130.533"/>
<polygon fill="midnightblue" stroke="midnightblue" points="359.333,-133.962 368.455,-128.573 357.964,-127.097 359.333,-133.962"/>
</g>
<!-- Node108 -->
<g id="node13" class="node"><title>Node108</title>
<g id="a_node13"><a xlink:href="../../da/d12/class_hydrax_1_1_material_manager.html#ac0f7c351a7df142a04023c3409d6d871" target="_top" xlink:title="Hydrax::MaterialManager\l::createGpuProgram">
<polygon fill="white" stroke="black" points="592,-147.5 592,-177.5 717,-177.5 717,-147.5 592,-147.5"/>
<text text-anchor="start" x="600" y="-165.5" font-family="Helvetica,sans-Serif" font-size="10.00">Hydrax::MaterialManager</text>
<text text-anchor="middle" x="654.5" y="-154.5" font-family="Helvetica,sans-Serif" font-size="10.00">::createGpuProgram</text>
</a>
</g>
</g>
<!-- Node107&#45;&gt;Node108 -->
<g id="edge13" class="edge"><title>Node107&#45;&gt;Node108</title>
<path fill="none" stroke="midnightblue" d="M507.695,-162.5C530.901,-162.5 557.486,-162.5 581.545,-162.5"/>
<polygon fill="midnightblue" stroke="midnightblue" points="581.684,-166 591.684,-162.5 581.684,-159 581.684,-166"/>
</g>
<!-- Node110&#45;&gt;Node104 -->
<g id="edge16" class="edge"><title>Node110&#45;&gt;Node104</title>
<path fill="none" stroke="midnightblue" d="M298.087,-205.114C316.303,-205.287 336.44,-205.478 355.787,-205.662"/>
<polygon fill="midnightblue" stroke="midnightblue" points="355.785,-209.162 365.818,-205.757 355.852,-202.162 355.785,-209.162"/>
</g>
<!-- Node111&#45;&gt;Node101 -->
<g id="edge18" class="edge"><title>Node111&#45;&gt;Node101</title>
<path fill="none" stroke="midnightblue" d="M295.644,-268.541C308.324,-271.554 321.584,-274.663 334,-277.5 345.463,-280.119 357.613,-282.832 369.494,-285.451"/>
<polygon fill="midnightblue" stroke="midnightblue" points="368.871,-288.898 379.389,-287.625 370.373,-282.061 368.871,-288.898"/>
</g>
<!-- Node112 -->
<g id="node17" class="node"><title>Node112</title>
<g id="a_node17"><a xlink:href="../../dd/d65/class_hydrax_1_1_hydrax.html#aa2e090a9b1b0847b6017c8893e86dc3a" target="_top" xlink:title="Hydrax::Hydrax::_isCurrent\lFrameUnderwater">
<polygon fill="white" stroke="black" points="378,-237.5 378,-267.5 512,-267.5 512,-237.5 378,-237.5"/>
<text text-anchor="start" x="386" y="-255.5" font-family="Helvetica,sans-Serif" font-size="10.00">Hydrax::Hydrax::_isCurrent</text>
<text text-anchor="middle" x="445" y="-244.5" font-family="Helvetica,sans-Serif" font-size="10.00">FrameUnderwater</text>
</a>
</g>
</g>
<!-- Node111&#45;&gt;Node112 -->
<g id="edge19" class="edge"><title>Node111&#45;&gt;Node112</title>
<path fill="none" stroke="midnightblue" d="M298.087,-253.193C319.991,-253.089 344.672,-252.972 367.418,-252.864"/>
<polygon fill="midnightblue" stroke="midnightblue" points="367.733,-256.362 377.716,-252.815 367.7,-249.363 367.733,-256.362"/>
</g>
</g>
</svg>
        <g id="navigator" transform="translate(0 0)" fill="#404254">
                <rect fill="#f2f5e9" fill-opacity="0.5" stroke="#606060" stroke-width=".5" x="0" y="0" width="60" height="60"/>
                <use id="zoomplus" xlink:href="#zoomPlus" x="17" y="9" onmousedown="handleZoom(evt,'in')"/>
                <use id="zoomminus" xlink:href="#zoomMin" x="42" y="9" onmousedown="handleZoom(evt,'out')"/>
                <use id="reset" xlink:href="#resetDef" x="30" y="36" onmousedown="handleReset()"/>
                <g id="arrowUp" xlink:href="#dirArrow" transform="translate(30 24)" onmousedown="handlePan(0,-1)">
                  <use xlink:href="#rim" fill="#404040">
                        <set attributeName="fill" to="#808080" begin="arrowUp.mouseover" end="arrowUp.mouseout"/>
                  </use>
                  <path fill="none" stroke="white" stroke-width="1.5" d="M0,-3.0v7 M-2.5,-0.5L0,-3.0L2.5,-0.5"/>
                </g>
                <g id="arrowRight" xlink:href="#dirArrow" transform="rotate(90) translate(36 -43)" onmousedown="handlePan(1,0)">
                  <use xlink:href="#rim" fill="#404040">
                        <set attributeName="fill" to="#808080" begin="arrowRight.mouseover" end="arrowRight.mouseout"/>
                  </use>
                  <path fill="none" stroke="white" stroke-width="1.5" d="M0,-3.0v7 M-2.5,-0.5L0,-3.0L2.5,-0.5"/>
                </g>
                <g id="arrowDown" xlink:href="#dirArrow" transform="rotate(180) translate(-30 -48)" onmousedown="handlePan(0,1)">
                  <use xlink:href="#rim" fill="#404040">
                        <set attributeName="fill" to="#808080" begin="arrowDown.mouseover" end="arrowDown.mouseout"/>
                  </use>
                  <path fill="none" stroke="white" stroke-width="1.5" d="M0,-3.0v7 M-2.5,-0.5L0,-3.0L2.5,-0.5"/>
                </g>
                <g id="arrowLeft" xlink:href="#dirArrow" transform="rotate(270) translate(-36 17)" onmousedown="handlePan(-1,0)">
                  <use xlink:href="#rim" fill="#404040">
                        <set attributeName="fill" to="#808080" begin="arrowLeft.mouseover" end="arrowLeft.mouseout"/>
                  </use>
                  <path fill="none" stroke="white" stroke-width="1.5" d="M0,-3.0v7 M-2.5,-0.5L0,-3.0L2.5,-0.5"/>
                </g>
        </g>
        <svg viewBox="0 0 15 15" width="100%" height="30px" preserveAspectRatio="xMaxYMin meet">
         <g id="arrow_out" transform="scale(0.3 0.3)">
          <a xlink:href="class_hydrax_1_1_god_rays_manager_ad6e8cfa4b9bde36b668d04ae3cfe8d00_cgraph_org.svg" target="_base">
           <rect id="button" ry="5" rx="5" y="6" x="6" height="38" width="38"
                fill="#f2f5e9" fill-opacity="0.5" stroke="#606060" stroke-width="1.0"/>
           <path id="arrow"
             d="M 11.500037,31.436501 C 11.940474,20.09759 22.043105,11.32322 32.158766,21.979434 L 37.068811,17.246167 C 37.068811,17.246167 37.088388,32 37.088388,32 L 22.160133,31.978069 C 22.160133,31.978069 26.997745,27.140456 26.997745,27.140456 C 18.528582,18.264221 13.291696,25.230495 11.500037,31.436501 z"
             style="fill:#404040;"/>
          </a>
         </g>
        </svg>
</svg>
