<?xml version="1.0" encoding="UTF-8" standalone="no"?>
<!DOCTYPE svg PUBLIC "-//W3C//DTD SVG 1.1//EN"
 "http://www.w3.org/Graphics/SVG/1.1/DTD/svg11.dtd">
<!-- Generated by graphviz version 2.38.0 (20140413.2041)
 -->
<!-- Title: source/main/gameplay/Replay.h Pages: 1 -->
<svg width="520pt" height="106pt"
 viewBox="0.00 0.00 519.50 106.00" xmlns="http://www.w3.org/2000/svg" xmlns:xlink="http://www.w3.org/1999/xlink">
<g id="graph0" class="graph" transform="scale(1 1) rotate(0) translate(4 102)">
<title>source/main/gameplay/Replay.h</title>
<polygon fill="white" stroke="none" points="-4,4 -4,-102 515.5,-102 515.5,4 -4,4"/>
<!-- Node44 -->
<g id="node1" class="node"><title>Node44</title>
<polygon fill="#bfbfbf" stroke="black" points="200,-67.5 200,-97.5 315,-97.5 315,-67.5 200,-67.5"/>
<text text-anchor="start" x="208" y="-85.5" font-family="Helvetica,sans-Serif" font-size="10.00">source/main/gameplay</text>
<text text-anchor="middle" x="257.5" y="-74.5" font-family="Helvetica,sans-Serif" font-size="10.00">/Replay.h</text>
</g>
<!-- Node45 -->
<g id="node2" class="node"><title>Node45</title>
<g id="a_node2"><a xlink:href="../../d4/d57/_replay_8cpp.html" target="_top" xlink:title="source/main/gameplay\l/Replay.cpp">
<polygon fill="white" stroke="black" points="0,-0.5 0,-30.5 115,-30.5 115,-0.5 0,-0.5"/>
<text text-anchor="start" x="8" y="-18.5" font-family="Helvetica,sans-Serif" font-size="10.00">source/main/gameplay</text>
<text text-anchor="middle" x="57.5" y="-7.5" font-family="Helvetica,sans-Serif" font-size="10.00">/Replay.cpp</text>
</a>
</g>
</g>
<!-- Node44&#45;&gt;Node45 -->
<g id="edge1" class="edge"><title>Node44&#45;&gt;Node45</title>
<path fill="none" stroke="midnightblue" d="M204.355,-64.2278C172.002,-53.7131 131.195,-40.4508 100.812,-30.5765"/>
<polygon fill="midnightblue" stroke="midnightblue" points="203.511,-67.6337 214.103,-67.396 205.674,-60.9764 203.511,-67.6337"/>
</g>
<!-- Node46 -->
<g id="node3" class="node"><title>Node46</title>
<g id="a_node3"><a xlink:href="../../de/dbe/_ro_r_frame_listener_8cpp.html" target="_top" xlink:title="source/main/gameplay\l/RoRFrameListener.cpp">
<polygon fill="white" stroke="black" points="133,-0.5 133,-30.5 252,-30.5 252,-0.5 133,-0.5"/>
<text text-anchor="start" x="141" y="-18.5" font-family="Helvetica,sans-Serif" font-size="10.00">source/main/gameplay</text>
<text text-anchor="middle" x="192.5" y="-7.5" font-family="Helvetica,sans-Serif" font-size="10.00">/RoRFrameListener.cpp</text>
</a>
</g>
</g>
<!-- Node44&#45;&gt;Node46 -->
<g id="edge2" class="edge"><title>Node44&#45;&gt;Node46</title>
<path fill="none" stroke="midnightblue" d="M236.311,-60.3115C226.561,-50.5612 215.259,-39.259 206.577,-30.5765"/>
<polygon fill="midnightblue" stroke="midnightblue" points="233.85,-62.7998 243.396,-67.396 238.8,-57.85 233.85,-62.7998"/>
</g>
<!-- Node47 -->
<g id="node4" class="node"><title>Node47</title>
<g id="a_node4"><a xlink:href="../../d2/d74/_beam_8cpp.html" target="_top" xlink:title="source/main/physics\l/Beam.cpp">
<polygon fill="white" stroke="black" points="270,-0.5 270,-30.5 377,-30.5 377,-0.5 270,-0.5"/>
<text text-anchor="start" x="278" y="-18.5" font-family="Helvetica,sans-Serif" font-size="10.00">source/main/physics</text>
<text text-anchor="middle" x="323.5" y="-7.5" font-family="Helvetica,sans-Serif" font-size="10.00">/Beam.cpp</text>
</a>
</g>
</g>
<!-- Node44&#45;&gt;Node47 -->
<g id="edge3" class="edge"><title>Node44&#45;&gt;Node47</title>
<path fill="none" stroke="midnightblue" d="M279.015,-60.3115C288.915,-50.5612 300.391,-39.259 309.207,-30.5765"/>
<polygon fill="midnightblue" stroke="midnightblue" points="276.49,-57.8853 271.821,-67.396 281.402,-62.8728 276.49,-57.8853"/>
</g>
<!-- Node48 -->
<g id="node5" class="node"><title>Node48</title>
<g id="a_node5"><a xlink:href="../../d0/d6f/_beam_forces_euler_8cpp.html" target="_top" xlink:title="source/main/physics\l/BeamForcesEuler.cpp">
<polygon fill="white" stroke="black" points="395.5,-0.5 395.5,-30.5 511.5,-30.5 511.5,-0.5 395.5,-0.5"/>
<text text-anchor="start" x="403.5" y="-18.5" font-family="Helvetica,sans-Serif" font-size="10.00">source/main/physics</text>
<text text-anchor="middle" x="453.5" y="-7.5" font-family="Helvetica,sans-Serif" font-size="10.00">/BeamForcesEuler.cpp</text>
</a>
</g>
</g>
<!-- Node44&#45;&gt;Node48 -->
<g id="edge4" class="edge"><title>Node44&#45;&gt;Node48</title>
<path fill="none" stroke="midnightblue" d="M309.582,-64.2278C341.288,-53.7131 381.279,-40.4508 411.054,-30.5765"/>
<polygon fill="midnightblue" stroke="midnightblue" points="308.419,-60.9261 300.029,-67.396 310.622,-67.5702 308.419,-60.9261"/>
</g>
</g>
</svg>
