<?xml version="1.0" encoding="UTF-8" standalone="no"?>
<!DOCTYPE svg PUBLIC "-//W3C//DTD SVG 1.1//EN"
 "http://www.w3.org/Graphics/SVG/1.1/DTD/svg11.dtd">
<!-- Generated by graphviz version 2.38.0 (20140413.2041)
 -->
<!-- Title: CameraBehaviorVehicleSpline::createSpline Pages: 1 -->
<!--zoomable 382 -->
<svg id="main" version="1.1" xmlns="http://www.w3.org/2000/svg" xmlns:xlink="http://www.w3.org/1999/xlink" xml:space="preserve" onload="init(evt)">
<style type="text/css"><![CDATA[
.edge:hover path { stroke: red; }
.edge:hover polygon { stroke: red; fill: red; }
]]></style>
<script type="text/javascript"><![CDATA[
var edges = document.getElementsByTagName('g');
if (edges && edges.length) {
  for (var i=0;i<edges.length;i++) {
    if (edges[i].id.substr(0,4)=='edge') {
      edges[i].setAttribute('class','edge');
    }
  }
}
]]></script>
        <defs>
                <circle id="rim" cx="0" cy="0" r="7"/>
                <circle id="rim2" cx="0" cy="0" r="3.5"/>
                <g id="zoomPlus">
                        <use xlink:href="#rim" fill="#404040">
                                <set attributeName="fill" to="#808080" begin="zoomplus.mouseover" end="zoomplus.mouseout"/>
                        </use>
                        <path d="M-4,0h8M0,-4v8" fill="none" stroke="white" stroke-width="1.5" pointer-events="none"/>
                </g>
                <g id="zoomMin">
                        <use xlink:href="#rim" fill="#404040">
                                <set attributeName="fill" to="#808080" begin="zoomminus.mouseover" end="zoomminus.mouseout"/>
                        </use>
                        <path d="M-4,0h8" fill="none" stroke="white" stroke-width="1.5" pointer-events="none"/>
                </g>
                <g id="dirArrow">
                        <path fill="none" stroke="white" stroke-width="1.5" d="M0,-3.0v7 M-2.5,-0.5L0,-3.0L2.5,-0.5"/>
                </g>
               <g id="resetDef">
                       <use xlink:href="#rim2" fill="#404040">
                               <set attributeName="fill" to="#808080" begin="reset.mouseover" end="reset.mouseout"/>
                       </use>
               </g>
        </defs>

<script type="text/javascript">
var viewWidth = 676;
var viewHeight = 382;
var sectionId = 'dynsection-3';
</script>
<script xlink:href="../../svgpan.js"/>
<svg id="graph" class="graph">
<g id="viewport">
<title>CameraBehaviorVehicleSpline::createSpline</title>
<polygon fill="white" stroke="none" points="-4,4 -4,-378 672,-378 672,4 -4,4"/>
<!-- Node26 -->
<g id="node1" class="node"><title>Node26</title>
<polygon fill="#bfbfbf" stroke="black" points="0,-178 0,-208 146,-208 146,-178 0,-178"/>
<text text-anchor="start" x="8" y="-196" font-family="Helvetica,sans-Serif" font-size="10.00">CameraBehaviorVehicleSpline</text>
<text text-anchor="middle" x="73" y="-185" font-family="Helvetica,sans-Serif" font-size="10.00">::createSpline</text>
</g>
<!-- Node27 -->
<g id="node2" class="node"><title>Node27</title>
<g id="a_node2"><a xlink:href="../../df/df9/class_beam.html#a93991998d4398e5502eeb4f314e0bc50" target="_top" xlink:title="Beam::getAllLinkedBeams">
<polygon fill="white" stroke="black" points="182,-183.5 182,-202.5 314,-202.5 314,-183.5 182,-183.5"/>
<text text-anchor="middle" x="248" y="-190.5" font-family="Helvetica,sans-Serif" font-size="10.00">Beam::getAllLinkedBeams</text>
</a>
</g>
</g>
<!-- Node26&#45;&gt;Node27 -->
<g id="edge1" class="edge"><title>Node26&#45;&gt;Node27</title>
<path fill="none" stroke="midnightblue" d="M146.115,-193C154.552,-193 163.177,-193 171.656,-193"/>
<polygon fill="midnightblue" stroke="midnightblue" points="171.904,-196.5 181.904,-193 171.904,-189.5 171.904,-196.5"/>
</g>
<!-- Node28 -->
<g id="node3" class="node"><title>Node28</title>
<g id="a_node3"><a xlink:href="../../df/df9/class_beam.html#a4d676c7853c5cdcc93ca6b28c03b4575" target="_top" xlink:title="Beam::getBrakeLightVisible">
<polygon fill="white" stroke="black" points="357.5,-354.5 357.5,-373.5 494.5,-373.5 494.5,-354.5 357.5,-354.5"/>
<text text-anchor="middle" x="426" y="-361.5" font-family="Helvetica,sans-Serif" font-size="10.00">Beam::getBrakeLightVisible</text>
</a>
</g>
</g>
<!-- Node27&#45;&gt;Node28 -->
<g id="edge2" class="edge"><title>Node27&#45;&gt;Node28</title>
<path fill="none" stroke="midnightblue" d="M252.499,-202.619C262.839,-229.637 295.961,-306.729 350,-345 352.74,-346.941 355.661,-348.684 358.7,-350.249"/>
<polygon fill="midnightblue" stroke="midnightblue" points="357.553,-353.569 368.112,-354.431 360.395,-347.172 357.553,-353.569"/>
</g>
<!-- Node29 -->
<g id="node4" class="node"><title>Node29</title>
<g id="a_node4"><a xlink:href="../../df/df9/class_beam.html#ac7f7f85d7486d84bb769263e3bf2c0c7" target="_top" xlink:title="Beam::getReverseLightVisible">
<polygon fill="white" stroke="black" points="353,-316.5 353,-335.5 499,-335.5 499,-316.5 353,-316.5"/>
<text text-anchor="middle" x="426" y="-323.5" font-family="Helvetica,sans-Serif" font-size="10.00">Beam::getReverseLightVisible</text>
</a>
</g>
</g>
<!-- Node27&#45;&gt;Node29 -->
<g id="edge3" class="edge"><title>Node27&#45;&gt;Node29</title>
<path fill="none" stroke="midnightblue" d="M254.697,-202.697C268.231,-224.845 304.605,-279.358 350,-307 353.614,-309.201 357.474,-311.147 361.465,-312.869"/>
<polygon fill="midnightblue" stroke="midnightblue" points="360.37,-316.197 370.96,-316.493 362.866,-309.657 360.37,-316.197"/>
</g>
<!-- Node30 -->
<g id="node5" class="node"><title>Node30</title>
<g id="a_node5"><a xlink:href="../../df/df9/class_beam.html#a040d0110dffa4ca29b33fefe4f3b315f" target="_top" xlink:title="Beam::getCustomLightVisible">
<polygon fill="white" stroke="black" points="353,-278.5 353,-297.5 499,-297.5 499,-278.5 353,-278.5"/>
<text text-anchor="middle" x="426" y="-285.5" font-family="Helvetica,sans-Serif" font-size="10.00">Beam::getCustomLightVisible</text>
</a>
</g>
</g>
<!-- Node27&#45;&gt;Node30 -->
<g id="edge4" class="edge"><title>Node27&#45;&gt;Node30</title>
<path fill="none" stroke="midnightblue" d="M258.99,-202.725C276.157,-218.893 312.989,-251.276 350,-269 354.997,-271.393 360.331,-273.508 365.764,-275.373"/>
<polygon fill="midnightblue" stroke="midnightblue" points="365.008,-278.804 375.598,-278.465 367.108,-272.126 365.008,-278.804"/>
</g>
<!-- Node33 -->
<g id="node8" class="node"><title>Node33</title>
<g id="a_node8"><a xlink:href="../../df/df9/class_beam.html#a8c4384c194313f9dd21b7120b4766c43" target="_top" xlink:title="Beam::setCustomLightVisible">
<polygon fill="white" stroke="black" points="353,-240.5 353,-259.5 499,-259.5 499,-240.5 353,-240.5"/>
<text text-anchor="middle" x="426" y="-247.5" font-family="Helvetica,sans-Serif" font-size="10.00">Beam::setCustomLightVisible</text>
</a>
</g>
</g>
<!-- Node27&#45;&gt;Node33 -->
<g id="edge7" class="edge"><title>Node27&#45;&gt;Node33</title>
<path fill="none" stroke="midnightblue" d="M272.413,-202.66C292.718,-210.833 323.008,-222.532 350,-231 357.745,-233.43 366.012,-235.771 374.124,-237.93"/>
<polygon fill="midnightblue" stroke="midnightblue" points="373.338,-241.342 383.896,-240.467 375.097,-234.567 373.338,-241.342"/>
</g>
<!-- Node34 -->
<g id="node9" class="node"><title>Node34</title>
<g id="a_node9"><a xlink:href="../../df/df9/class_beam.html#a0c62c424bdbe7a6404d036a4673718a1" target="_top" xlink:title="Beam::getBeaconMode">
<polygon fill="white" stroke="black" points="366.5,-202.5 366.5,-221.5 485.5,-221.5 485.5,-202.5 366.5,-202.5"/>
<text text-anchor="middle" x="426" y="-209.5" font-family="Helvetica,sans-Serif" font-size="10.00">Beam::getBeaconMode</text>
</a>
</g>
</g>
<!-- Node27&#45;&gt;Node34 -->
<g id="edge9" class="edge"><title>Node27&#45;&gt;Node34</title>
<path fill="none" stroke="midnightblue" d="M314.036,-200.021C327.825,-201.51 342.423,-203.085 356.342,-204.588"/>
<polygon fill="midnightblue" stroke="midnightblue" points="356.018,-208.073 366.336,-205.667 356.77,-201.114 356.018,-208.073"/>
</g>
<!-- Node35 -->
<g id="node10" class="node"><title>Node35</title>
<g id="a_node10"><a xlink:href="../../df/df9/class_beam.html#a9f07d551fefe3b3aa94f29eef92a7f4f" target="_top" xlink:title="Beam::setBlinkType">
<polygon fill="white" stroke="black" points="374,-164.5 374,-183.5 478,-183.5 478,-164.5 374,-164.5"/>
<text text-anchor="middle" x="426" y="-171.5" font-family="Helvetica,sans-Serif" font-size="10.00">Beam::setBlinkType</text>
</a>
</g>
</g>
<!-- Node27&#45;&gt;Node35 -->
<g id="edge10" class="edge"><title>Node27&#45;&gt;Node35</title>
<path fill="none" stroke="midnightblue" d="M314.036,-185.979C330.262,-184.227 347.608,-182.355 363.649,-180.623"/>
<polygon fill="midnightblue" stroke="midnightblue" points="364.411,-184.061 373.977,-179.508 363.659,-177.102 364.411,-184.061"/>
</g>
<!-- Node36 -->
<g id="node11" class="node"><title>Node36</title>
<g id="a_node11"><a xlink:href="../../df/df9/class_beam.html#a5b4fc383c9b4aeda5713f3321fffdd19" target="_top" xlink:title="Beam::getBlinkType">
<polygon fill="white" stroke="black" points="374,-126.5 374,-145.5 478,-145.5 478,-126.5 374,-126.5"/>
<text text-anchor="middle" x="426" y="-133.5" font-family="Helvetica,sans-Serif" font-size="10.00">Beam::getBlinkType</text>
</a>
</g>
</g>
<!-- Node27&#45;&gt;Node36 -->
<g id="edge11" class="edge"><title>Node27&#45;&gt;Node36</title>
<path fill="none" stroke="midnightblue" d="M272.413,-183.34C292.718,-175.167 323.008,-163.468 350,-155 357.745,-152.57 366.012,-150.229 374.124,-148.07"/>
<polygon fill="midnightblue" stroke="midnightblue" points="375.097,-151.433 383.896,-145.533 373.338,-144.658 375.097,-151.433"/>
</g>
<!-- Node37 -->
<g id="node12" class="node"><title>Node37</title>
<g id="a_node12"><a xlink:href="../../df/df9/class_beam.html#ab7cea3a026bb573930b1c6e5bd7774c1" target="_top" xlink:title="Beam::getHeadingDirection\lAngle">
<polygon fill="white" stroke="black" points="358.5,-77 358.5,-107 493.5,-107 493.5,-77 358.5,-77"/>
<text text-anchor="start" x="366.5" y="-95" font-family="Helvetica,sans-Serif" font-size="10.00">Beam::getHeadingDirection</text>
<text text-anchor="middle" x="426" y="-84" font-family="Helvetica,sans-Serif" font-size="10.00">Angle</text>
</a>
</g>
</g>
<!-- Node27&#45;&gt;Node37 -->
<g id="edge12" class="edge"><title>Node27&#45;&gt;Node37</title>
<path fill="none" stroke="midnightblue" d="M259.419,-183.316C276.919,-167.495 313.86,-135.972 350,-117 354.185,-114.803 358.601,-112.745 363.111,-110.828"/>
<polygon fill="midnightblue" stroke="midnightblue" points="364.469,-114.054 372.454,-107.091 361.869,-107.555 364.469,-114.054"/>
</g>
<!-- Node38 -->
<g id="node13" class="node"><title>Node38</title>
<g id="a_node13"><a xlink:href="../../df/df9/class_beam.html#abe5e8d282f16a2a06f2ce49901cbcbfd" target="_top" xlink:title="Beam::getCustomParticleMode">
<polygon fill="white" stroke="black" points="350,-38.5 350,-57.5 502,-57.5 502,-38.5 350,-38.5"/>
<text text-anchor="middle" x="426" y="-45.5" font-family="Helvetica,sans-Serif" font-size="10.00">Beam::getCustomParticleMode</text>
</a>
</g>
</g>
<!-- Node27&#45;&gt;Node38 -->
<g id="edge13" class="edge"><title>Node27&#45;&gt;Node38</title>
<path fill="none" stroke="midnightblue" d="M253.9,-183.459C266.471,-159.968 302.264,-98.996 350,-68 353.855,-65.4968 358.014,-63.3056 362.328,-61.3876"/>
<polygon fill="midnightblue" stroke="midnightblue" points="363.929,-64.5195 371.961,-57.6105 361.374,-58.0025 363.929,-64.5195"/>
</g>
<!-- Node39 -->
<g id="node14" class="node"><title>Node39</title>
<g id="a_node14"><a xlink:href="../../df/df9/class_beam.html#a66ee505c58a0966b5a1b6ec965992bc0" target="_top" xlink:title="Beam::getLowestNode">
<polygon fill="white" stroke="black" points="368.5,-0.5 368.5,-19.5 483.5,-19.5 483.5,-0.5 368.5,-0.5"/>
<text text-anchor="middle" x="426" y="-7.5" font-family="Helvetica,sans-Serif" font-size="10.00">Beam::getLowestNode</text>
</a>
</g>
</g>
<!-- Node27&#45;&gt;Node39 -->
<g id="edge14" class="edge"><title>Node27&#45;&gt;Node39</title>
<path fill="none" stroke="midnightblue" d="M251.994,-183.451C261.395,-155.094 293.133,-70.7641 350,-29 352.847,-26.9091 355.9,-25.0474 359.088,-23.3896"/>
<polygon fill="midnightblue" stroke="midnightblue" points="360.668,-26.5172 368.365,-19.2374 357.808,-20.1279 360.668,-26.5172"/>
</g>
<!-- Node31 -->
<g id="node6" class="node"><title>Node31</title>
<g id="a_node6"><a xlink:href="../../d9/da3/_application_8h.html#ac91efe9de379ef0fde6e0c6f369dfb35" target="_top" xlink:title="Legacy alias &#45; formerly a macro. ">
<polygon fill="white" stroke="black" points="538,-259.5 538,-278.5 575,-278.5 575,-259.5 538,-259.5"/>
<text text-anchor="middle" x="556.5" y="-266.5" font-family="Helvetica,sans-Serif" font-size="10.00">LOG</text>
</a>
</g>
</g>
<!-- Node30&#45;&gt;Node31 -->
<g id="edge5" class="edge"><title>Node30&#45;&gt;Node31</title>
<path fill="none" stroke="midnightblue" d="M491.626,-278.444C504.376,-276.559 517.106,-274.677 527.808,-273.095"/>
<polygon fill="midnightblue" stroke="midnightblue" points="528.379,-276.548 537.759,-271.623 527.355,-269.624 528.379,-276.548"/>
</g>
<!-- Node32 -->
<g id="node7" class="node"><title>Node32</title>
<g id="a_node7"><a xlink:href="../../dd/dd2/namespace_ro_r.html#a15fdb48aba128c41a9c75357c2282694" target="_top" xlink:title="The ultimate, application&#45;wide logging function. Adds a line (any length) in &#39;RoR.log&#39; file. ">
<polygon fill="white" stroke="black" points="611,-259.5 611,-278.5 668,-278.5 668,-259.5 611,-259.5"/>
<text text-anchor="middle" x="639.5" y="-266.5" font-family="Helvetica,sans-Serif" font-size="10.00">RoR::Log</text>
</a>
</g>
</g>
<!-- Node31&#45;&gt;Node32 -->
<g id="edge6" class="edge"><title>Node31&#45;&gt;Node32</title>
<path fill="none" stroke="midnightblue" d="M575.076,-269C582.567,-269 591.618,-269 600.508,-269"/>
<polygon fill="midnightblue" stroke="midnightblue" points="600.766,-272.5 610.766,-269 600.766,-265.5 600.766,-272.5"/>
</g>
<!-- Node33&#45;&gt;Node31 -->
<g id="edge8" class="edge"><title>Node33&#45;&gt;Node31</title>
<path fill="none" stroke="midnightblue" d="M491.626,-259.556C504.376,-261.441 517.106,-263.323 527.808,-264.905"/>
<polygon fill="midnightblue" stroke="midnightblue" points="527.355,-268.376 537.759,-266.377 528.379,-261.452 527.355,-268.376"/>
</g>
</g>
</svg>
        <g id="navigator" transform="translate(0 0)" fill="#404254">
                <rect fill="#f2f5e9" fill-opacity="0.5" stroke="#606060" stroke-width=".5" x="0" y="0" width="60" height="60"/>
                <use id="zoomplus" xlink:href="#zoomPlus" x="17" y="9" onmousedown="handleZoom(evt,'in')"/>
                <use id="zoomminus" xlink:href="#zoomMin" x="42" y="9" onmousedown="handleZoom(evt,'out')"/>
                <use id="reset" xlink:href="#resetDef" x="30" y="36" onmousedown="handleReset()"/>
                <g id="arrowUp" xlink:href="#dirArrow" transform="translate(30 24)" onmousedown="handlePan(0,-1)">
                  <use xlink:href="#rim" fill="#404040">
                        <set attributeName="fill" to="#808080" begin="arrowUp.mouseover" end="arrowUp.mouseout"/>
                  </use>
                  <path fill="none" stroke="white" stroke-width="1.5" d="M0,-3.0v7 M-2.5,-0.5L0,-3.0L2.5,-0.5"/>
                </g>
                <g id="arrowRight" xlink:href="#dirArrow" transform="rotate(90) translate(36 -43)" onmousedown="handlePan(1,0)">
                  <use xlink:href="#rim" fill="#404040">
                        <set attributeName="fill" to="#808080" begin="arrowRight.mouseover" end="arrowRight.mouseout"/>
                  </use>
                  <path fill="none" stroke="white" stroke-width="1.5" d="M0,-3.0v7 M-2.5,-0.5L0,-3.0L2.5,-0.5"/>
                </g>
                <g id="arrowDown" xlink:href="#dirArrow" transform="rotate(180) translate(-30 -48)" onmousedown="handlePan(0,1)">
                  <use xlink:href="#rim" fill="#404040">
                        <set attributeName="fill" to="#808080" begin="arrowDown.mouseover" end="arrowDown.mouseout"/>
                  </use>
                  <path fill="none" stroke="white" stroke-width="1.5" d="M0,-3.0v7 M-2.5,-0.5L0,-3.0L2.5,-0.5"/>
                </g>
                <g id="arrowLeft" xlink:href="#dirArrow" transform="rotate(270) translate(-36 17)" onmousedown="handlePan(-1,0)">
                  <use xlink:href="#rim" fill="#404040">
                        <set attributeName="fill" to="#808080" begin="arrowLeft.mouseover" end="arrowLeft.mouseout"/>
                  </use>
                  <path fill="none" stroke="white" stroke-width="1.5" d="M0,-3.0v7 M-2.5,-0.5L0,-3.0L2.5,-0.5"/>
                </g>
        </g>
        <svg viewBox="0 0 15 15" width="100%" height="30px" preserveAspectRatio="xMaxYMin meet">
         <g id="arrow_out" transform="scale(0.3 0.3)">
          <a xlink:href="class_camera_behavior_vehicle_spline_a4c1bbdd426bd74cd545ec8314ed66c71_cgraph_org.svg" target="_base">
           <rect id="button" ry="5" rx="5" y="6" x="6" height="38" width="38"
                fill="#f2f5e9" fill-opacity="0.5" stroke="#606060" stroke-width="1.0"/>
           <path id="arrow"
             d="M 11.500037,31.436501 C 11.940474,20.09759 22.043105,11.32322 32.158766,21.979434 L 37.068811,17.246167 C 37.068811,17.246167 37.088388,32 37.088388,32 L 22.160133,31.978069 C 22.160133,31.978069 26.997745,27.140456 26.997745,27.140456 C 18.528582,18.264221 13.291696,25.230495 11.500037,31.436501 z"
             style="fill:#404040;"/>
          </a>
         </g>
        </svg>
</svg>
