<?xml version="1.0" encoding="UTF-8" standalone="no"?>
<!DOCTYPE svg PUBLIC "-//W3C//DTD SVG 1.1//EN"
 "http://www.w3.org/Graphics/SVG/1.1/DTD/svg11.dtd">
<!-- Generated by graphviz version 2.38.0 (20140413.2041)
 -->
<!-- Title: source/main/gfx/skyx/VClouds/LightningManager.cpp Pages: 1 -->
<svg width="454pt" height="263pt"
 viewBox="0.00 0.00 453.50 263.00" xmlns="http://www.w3.org/2000/svg" xmlns:xlink="http://www.w3.org/1999/xlink">
<g id="graph0" class="graph" transform="scale(1 1) rotate(0) translate(4 259)">
<title>source/main/gfx/skyx/VClouds/LightningManager.cpp</title>
<polygon fill="white" stroke="none" points="-4,4 -4,-259 449.5,-259 449.5,4 -4,4"/>
<!-- Node0 -->
<g id="node1" class="node"><title>Node0</title>
<polygon fill="#bfbfbf" stroke="black" points="87,-224.5 87,-254.5 242,-254.5 242,-224.5 87,-224.5"/>
<text text-anchor="start" x="95" y="-242.5" font-family="Helvetica,sans-Serif" font-size="10.00">source/main/gfx/skyx</text>
<text text-anchor="middle" x="164.5" y="-231.5" font-family="Helvetica,sans-Serif" font-size="10.00">/VClouds/LightningManager.cpp</text>
</g>
<!-- Node1 -->
<g id="node2" class="node"><title>Node1</title>
<g id="a_node2"><a xlink:href="../../d4/db8/_lightning_manager_8h.html" target="_top" xlink:title="LightningManager.h">
<polygon fill="white" stroke="black" points="0,-112.5 0,-131.5 101,-131.5 101,-112.5 0,-112.5"/>
<text text-anchor="middle" x="50.5" y="-119.5" font-family="Helvetica,sans-Serif" font-size="10.00">LightningManager.h</text>
</a>
</g>
</g>
<!-- Node0&#45;&gt;Node1 -->
<g id="edge1" class="edge"><title>Node0&#45;&gt;Node1</title>
<path fill="none" stroke="midnightblue" d="M150.521,-224.337C129.141,-202.676 88.4539,-161.453 66.1268,-138.832"/>
<polygon fill="midnightblue" stroke="midnightblue" points="68.5726,-136.328 59.0569,-131.669 63.5906,-141.245 68.5726,-136.328"/>
</g>
<!-- Node4 -->
<g id="node5" class="node"><title>Node4</title>
<g id="a_node5"><a xlink:href="../../d8/d7f/_v_clouds_8h.html" target="_top" xlink:title="VClouds.h">
<polygon fill="white" stroke="black" points="133.5,-168.5 133.5,-187.5 195.5,-187.5 195.5,-168.5 133.5,-168.5"/>
<text text-anchor="middle" x="164.5" y="-175.5" font-family="Helvetica,sans-Serif" font-size="10.00">VClouds.h</text>
</a>
</g>
</g>
<!-- Node0&#45;&gt;Node4 -->
<g id="edge5" class="edge"><title>Node0&#45;&gt;Node4</title>
<path fill="none" stroke="midnightblue" d="M164.5,-224.399C164.5,-216.466 164.5,-206.458 164.5,-197.858"/>
<polygon fill="midnightblue" stroke="midnightblue" points="168,-197.658 164.5,-187.658 161,-197.658 168,-197.658"/>
</g>
<!-- Node9 -->
<g id="node10" class="node"><title>Node9</title>
<g id="a_node10"><a xlink:href="../../d4/d87/skyx_2_prerequisites_8h.html" target="_top" xlink:title="skyx/Prerequisites.h">
<polygon fill="white" stroke="black" points="300.5,-168.5 300.5,-187.5 406.5,-187.5 406.5,-168.5 300.5,-168.5"/>
<text text-anchor="middle" x="353.5" y="-175.5" font-family="Helvetica,sans-Serif" font-size="10.00">skyx/Prerequisites.h</text>
</a>
</g>
</g>
<!-- Node0&#45;&gt;Node9 -->
<g id="edge16" class="edge"><title>Node0&#45;&gt;Node9</title>
<path fill="none" stroke="midnightblue" d="M209.29,-224.399C241.949,-214.118 285.68,-200.351 316.393,-190.682"/>
<polygon fill="midnightblue" stroke="midnightblue" points="317.787,-193.912 326.275,-187.571 315.685,-187.235 317.787,-193.912"/>
</g>
<!-- Node2 -->
<g id="node3" class="node"><title>Node2</title>
<polygon fill="white" stroke="#bfbfbf" points="126.5,-0.5 126.5,-19.5 208.5,-19.5 208.5,-0.5 126.5,-0.5"/>
<text text-anchor="middle" x="167.5" y="-7.5" font-family="Helvetica,sans-Serif" font-size="10.00">Prerequisites.h</text>
</g>
<!-- Node1&#45;&gt;Node2 -->
<g id="edge2" class="edge"><title>Node1&#45;&gt;Node2</title>
<path fill="none" stroke="midnightblue" d="M42.8509,-112.242C32.246,-98.9904 15.7459,-73.5349 28.5,-56 48.4062,-28.6322 85.3176,-17.5681 116.103,-13.2473"/>
<polygon fill="midnightblue" stroke="midnightblue" points="116.763,-16.6933 126.274,-12.0267 115.929,-9.74317 116.763,-16.6933"/>
</g>
<!-- Node3 -->
<g id="node4" class="node"><title>Node3</title>
<g id="a_node4"><a xlink:href="../../d5/d20/_lightning_8h.html" target="_top" xlink:title="Lightning.h">
<polygon fill="white" stroke="black" points="37.5,-56.5 37.5,-75.5 101.5,-75.5 101.5,-56.5 37.5,-56.5"/>
<text text-anchor="middle" x="69.5" y="-63.5" font-family="Helvetica,sans-Serif" font-size="10.00">Lightning.h</text>
</a>
</g>
</g>
<!-- Node1&#45;&gt;Node3 -->
<g id="edge3" class="edge"><title>Node1&#45;&gt;Node3</title>
<path fill="none" stroke="midnightblue" d="M53.6375,-112.083C56.1829,-104.849 59.8562,-94.4087 63.0271,-85.3968"/>
<polygon fill="midnightblue" stroke="midnightblue" points="66.4034,-86.3459 66.4209,-75.7511 59.8002,-84.0225 66.4034,-86.3459"/>
</g>
<!-- Node3&#45;&gt;Node2 -->
<g id="edge4" class="edge"><title>Node3&#45;&gt;Node2</title>
<path fill="none" stroke="midnightblue" d="M85.2454,-56.324C100.819,-47.7428 124.877,-34.486 142.959,-24.5224"/>
<polygon fill="midnightblue" stroke="midnightblue" points="144.724,-27.546 151.794,-19.6545 141.346,-21.4152 144.724,-27.546"/>
</g>
<!-- Node4&#45;&gt;Node1 -->
<g id="edge15" class="edge"><title>Node4&#45;&gt;Node1</title>
<path fill="none" stroke="midnightblue" d="M146.436,-168.444C127.925,-159.675 98.9193,-145.935 77.6445,-135.858"/>
<polygon fill="midnightblue" stroke="midnightblue" points="79.0148,-132.634 68.4791,-131.516 76.0182,-138.96 79.0148,-132.634"/>
</g>
<!-- Node4&#45;&gt;Node2 -->
<g id="edge6" class="edge"><title>Node4&#45;&gt;Node2</title>
<path fill="none" stroke="midnightblue" d="M160.389,-168.277C156.441,-159.383 150.755,-145.074 148.5,-132 142.228,-95.6391 153.188,-52.9791 160.901,-29.2644"/>
<polygon fill="midnightblue" stroke="midnightblue" points="164.308,-30.1176 164.24,-19.523 157.686,-27.8479 164.308,-30.1176"/>
</g>
<!-- Node5 -->
<g id="node6" class="node"><title>Node5</title>
<g id="a_node6"><a xlink:href="../../d2/d33/_data_manager_8h.html" target="_top" xlink:title="DataManager.h">
<polygon fill="white" stroke="black" points="158,-112.5 158,-131.5 241,-131.5 241,-112.5 158,-112.5"/>
<text text-anchor="middle" x="199.5" y="-119.5" font-family="Helvetica,sans-Serif" font-size="10.00">DataManager.h</text>
</a>
</g>
</g>
<!-- Node4&#45;&gt;Node5 -->
<g id="edge7" class="edge"><title>Node4&#45;&gt;Node5</title>
<path fill="none" stroke="midnightblue" d="M170.28,-168.083C175.172,-160.534 182.327,-149.495 188.333,-140.23"/>
<polygon fill="midnightblue" stroke="midnightblue" points="191.326,-142.046 193.828,-131.751 185.452,-138.239 191.326,-142.046"/>
</g>
<!-- Node7 -->
<g id="node8" class="node"><title>Node7</title>
<g id="a_node8"><a xlink:href="../../d1/dd0/_geometry_manager_8h.html" target="_top" xlink:title="GeometryManager.h">
<polygon fill="white" stroke="black" points="266,-112.5 266,-131.5 371,-131.5 371,-112.5 266,-112.5"/>
<text text-anchor="middle" x="318.5" y="-119.5" font-family="Helvetica,sans-Serif" font-size="10.00">GeometryManager.h</text>
</a>
</g>
</g>
<!-- Node4&#45;&gt;Node7 -->
<g id="edge11" class="edge"><title>Node4&#45;&gt;Node7</title>
<path fill="none" stroke="midnightblue" d="M188.902,-168.444C214.697,-159.399 255.577,-145.064 284.518,-134.916"/>
<polygon fill="midnightblue" stroke="midnightblue" points="285.934,-138.128 294.212,-131.516 283.618,-131.523 285.934,-138.128"/>
</g>
<!-- Node5&#45;&gt;Node2 -->
<g id="edge8" class="edge"><title>Node5&#45;&gt;Node2</title>
<path fill="none" stroke="midnightblue" d="M196.989,-112.368C191.802,-94.5366 179.804,-53.2953 172.815,-29.2717"/>
<polygon fill="midnightblue" stroke="midnightblue" points="176.153,-28.2157 169.999,-19.5914 169.432,-30.1711 176.153,-28.2157"/>
</g>
<!-- Node6 -->
<g id="node7" class="node"><title>Node6</title>
<g id="a_node7"><a xlink:href="../../db/d2b/_fast_fake_random_8h.html" target="_top" xlink:title="FastFakeRandom.h">
<polygon fill="white" stroke="black" points="195.5,-56.5 195.5,-75.5 297.5,-75.5 297.5,-56.5 195.5,-56.5"/>
<text text-anchor="middle" x="246.5" y="-63.5" font-family="Helvetica,sans-Serif" font-size="10.00">FastFakeRandom.h</text>
</a>
</g>
</g>
<!-- Node5&#45;&gt;Node6 -->
<g id="edge9" class="edge"><title>Node5&#45;&gt;Node6</title>
<path fill="none" stroke="midnightblue" d="M207.261,-112.083C214.037,-104.298 224.043,-92.8015 232.255,-83.3665"/>
<polygon fill="midnightblue" stroke="midnightblue" points="234.958,-85.592 238.883,-75.7511 229.678,-80.9963 234.958,-85.592"/>
</g>
<!-- Node6&#45;&gt;Node2 -->
<g id="edge10" class="edge"><title>Node6&#45;&gt;Node2</title>
<path fill="none" stroke="midnightblue" d="M233.807,-56.324C221.599,-47.979 202.922,-35.2122 188.497,-25.3524"/>
<polygon fill="midnightblue" stroke="midnightblue" points="190.392,-22.4082 180.161,-19.6545 186.442,-28.1871 190.392,-22.4082"/>
</g>
<!-- Node7&#45;&gt;Node2 -->
<g id="edge12" class="edge"><title>Node7&#45;&gt;Node2</title>
<path fill="none" stroke="midnightblue" d="M319.491,-112.234C320.532,-98.5073 320.425,-71.8724 306.5,-56 284.578,-31.0124 248.675,-19.8153 218.85,-14.8377"/>
<polygon fill="midnightblue" stroke="midnightblue" points="218.99,-11.3206 208.587,-13.324 217.969,-18.2457 218.99,-11.3206"/>
</g>
<!-- Node8 -->
<g id="node9" class="node"><title>Node8</title>
<g id="a_node9"><a xlink:href="../../df/d04/_geometry_block_8h.html" target="_top" xlink:title="GeometryBlock.h">
<polygon fill="white" stroke="black" points="353.5,-56.5 353.5,-75.5 445.5,-75.5 445.5,-56.5 353.5,-56.5"/>
<text text-anchor="middle" x="399.5" y="-63.5" font-family="Helvetica,sans-Serif" font-size="10.00">GeometryBlock.h</text>
</a>
</g>
</g>
<!-- Node7&#45;&gt;Node8 -->
<g id="edge13" class="edge"><title>Node7&#45;&gt;Node8</title>
<path fill="none" stroke="midnightblue" d="M331.514,-112.324C344.032,-103.979 363.182,-91.2122 377.971,-81.3524"/>
<polygon fill="midnightblue" stroke="midnightblue" points="380.139,-84.1137 386.518,-75.6545 376.256,-78.2894 380.139,-84.1137"/>
</g>
<!-- Node8&#45;&gt;Node2 -->
<g id="edge14" class="edge"><title>Node8&#45;&gt;Node2</title>
<path fill="none" stroke="midnightblue" d="M362.739,-56.4435C322.437,-47.0629 257.691,-31.9926 213.915,-21.8036"/>
<polygon fill="midnightblue" stroke="midnightblue" points="214.622,-18.3746 204.089,-19.5164 213.035,-25.1924 214.622,-18.3746"/>
</g>
<!-- Node10 -->
<g id="node11" class="node"><title>Node10</title>
<polygon fill="white" stroke="#bfbfbf" points="389.5,-112.5 389.5,-131.5 435.5,-131.5 435.5,-112.5 389.5,-112.5"/>
<text text-anchor="middle" x="412.5" y="-119.5" font-family="Helvetica,sans-Serif" font-size="10.00">Ogre.h</text>
</g>
<!-- Node9&#45;&gt;Node10 -->
<g id="edge17" class="edge"><title>Node9&#45;&gt;Node10</title>
<path fill="none" stroke="midnightblue" d="M362.979,-168.324C371.701,-160.341 384.843,-148.313 395.398,-138.653"/>
<polygon fill="midnightblue" stroke="midnightblue" points="397.834,-141.167 402.848,-131.834 393.108,-136.004 397.834,-141.167"/>
</g>
</g>
</svg>
