<?xml version="1.0" encoding="UTF-8" standalone="no"?>
<!DOCTYPE svg PUBLIC "-//W3C//DTD SVG 1.1//EN"
 "http://www.w3.org/Graphics/SVG/1.1/DTD/svg11.dtd">
<!-- Generated by graphviz version 2.38.0 (20140413.2041)
 -->
<!-- Title: source/main/gfx/hydrax/PressurePoint.cpp Pages: 1 -->
<svg width="2733pt" height="543pt"
 viewBox="0.00 0.00 2732.50 543.00" xmlns="http://www.w3.org/2000/svg" xmlns:xlink="http://www.w3.org/1999/xlink">
<g id="graph0" class="graph" transform="scale(1 1) rotate(0) translate(4 539)">
<title>source/main/gfx/hydrax/PressurePoint.cpp</title>
<polygon fill="white" stroke="none" points="-4,4 -4,-539 2728.5,-539 2728.5,4 -4,4"/>
<!-- Node0 -->
<g id="node1" class="node"><title>Node0</title>
<polygon fill="#bfbfbf" stroke="black" points="1011.5,-504.5 1011.5,-534.5 1129.5,-534.5 1129.5,-504.5 1011.5,-504.5"/>
<text text-anchor="start" x="1019.5" y="-522.5" font-family="Helvetica,sans-Serif" font-size="10.00">source/main/gfx/hydrax</text>
<text text-anchor="middle" x="1070.5" y="-511.5" font-family="Helvetica,sans-Serif" font-size="10.00">/PressurePoint.cpp</text>
</g>
<!-- Node1 -->
<g id="node2" class="node"><title>Node1</title>
<g id="a_node2"><a xlink:href="../../d8/d95/_pressure_point_8h.html" target="_top" xlink:title="PressurePoint.h">
<polygon fill="white" stroke="black" points="70.5,-392.5 70.5,-411.5 156.5,-411.5 156.5,-392.5 70.5,-392.5"/>
<text text-anchor="middle" x="113.5" y="-399.5" font-family="Helvetica,sans-Serif" font-size="10.00">PressurePoint.h</text>
</a>
</g>
</g>
<!-- Node0&#45;&gt;Node1 -->
<g id="edge1" class="edge"><title>Node0&#45;&gt;Node1</title>
<path fill="none" stroke="midnightblue" d="M1011.43,-511.679C868.747,-495.148 493.995,-451.396 181.5,-412 176.73,-411.399 171.773,-410.763 166.806,-410.119"/>
<polygon fill="midnightblue" stroke="midnightblue" points="167.026,-406.618 156.657,-408.794 166.119,-413.559 167.026,-406.618"/>
</g>
<!-- Node11 -->
<g id="node12" class="node"><title>Node11</title>
<g id="a_node12"><a xlink:href="../../de/d4c/_hydrax_8h.html" target="_top" xlink:title="Hydrax.h">
<polygon fill="white" stroke="black" points="1380.5,-448.5 1380.5,-467.5 1436.5,-467.5 1436.5,-448.5 1380.5,-448.5"/>
<text text-anchor="middle" x="1408.5" y="-455.5" font-family="Helvetica,sans-Serif" font-size="10.00">Hydrax.h</text>
</a>
</g>
</g>
<!-- Node0&#45;&gt;Node11 -->
<g id="edge18" class="edge"><title>Node0&#45;&gt;Node11</title>
<path fill="none" stroke="midnightblue" d="M1129.76,-508.068C1199.06,-495.869 1311.73,-476.035 1370.35,-465.717"/>
<polygon fill="midnightblue" stroke="midnightblue" points="1371.06,-469.145 1380.3,-463.965 1369.84,-462.251 1371.06,-469.145"/>
</g>
<!-- Node2 -->
<g id="node3" class="node"><title>Node2</title>
<polygon fill="white" stroke="#bfbfbf" points="0,-336.5 0,-355.5 47,-355.5 47,-336.5 0,-336.5"/>
<text text-anchor="middle" x="23.5" y="-343.5" font-family="Helvetica,sans-Serif" font-size="10.00">math.h</text>
</g>
<!-- Node1&#45;&gt;Node2 -->
<g id="edge2" class="edge"><title>Node1&#45;&gt;Node2</title>
<path fill="none" stroke="midnightblue" d="M99.0399,-392.324C85.0004,-383.9 63.4515,-370.971 46.9569,-361.074"/>
<polygon fill="midnightblue" stroke="midnightblue" points="48.2999,-357.798 37.9242,-355.655 44.6984,-363.801 48.2999,-357.798"/>
</g>
<!-- Node3 -->
<g id="node4" class="node"><title>Node3</title>
<g id="a_node4"><a xlink:href="../../dc/d89/hydrax_2_prerequisites_8h.html" target="_top" xlink:title="Prerequisites.h">
<polygon fill="white" stroke="black" points="558.5,-56.5 558.5,-75.5 640.5,-75.5 640.5,-56.5 558.5,-56.5"/>
<text text-anchor="middle" x="599.5" y="-63.5" font-family="Helvetica,sans-Serif" font-size="10.00">Prerequisites.h</text>
</a>
</g>
</g>
<!-- Node1&#45;&gt;Node3 -->
<g id="edge3" class="edge"><title>Node1&#45;&gt;Node3</title>
<path fill="none" stroke="midnightblue" d="M108.216,-392.231C97.7749,-374.043 75.5,-330.601 75.5,-291 75.5,-291 75.5,-291 75.5,-177 75.5,-81.0656 416.154,-68.3217 548.13,-66.9843"/>
<polygon fill="midnightblue" stroke="midnightblue" points="548.412,-70.4821 558.383,-66.8993 548.354,-63.4824 548.412,-70.4821"/>
</g>
<!-- Node5 -->
<g id="node6" class="node"><title>Node5</title>
<g id="a_node6"><a xlink:href="../../d0/dde/_noise_8h.html" target="_top" xlink:title="Noise.h">
<polygon fill="white" stroke="black" points="141.5,-280.5 141.5,-299.5 191.5,-299.5 191.5,-280.5 141.5,-280.5"/>
<text text-anchor="middle" x="166.5" y="-287.5" font-family="Helvetica,sans-Serif" font-size="10.00">Noise.h</text>
</a>
</g>
</g>
<!-- Node1&#45;&gt;Node5 -->
<g id="edge5" class="edge"><title>Node1&#45;&gt;Node5</title>
<path fill="none" stroke="midnightblue" d="M115.017,-392.215C117.464,-379.362 122.997,-354.909 132.5,-336 137.656,-325.741 145.223,-315.438 151.91,-307.284"/>
<polygon fill="midnightblue" stroke="midnightblue" points="154.59,-309.535 158.421,-299.657 149.266,-304.99 154.59,-309.535"/>
</g>
<!-- Node10 -->
<g id="node11" class="node"><title>Node10</title>
<g id="a_node11"><a xlink:href="../../d0/d0b/_perlin_8h.html" target="_top" xlink:title="Perlin.h">
<polygon fill="white" stroke="black" points="141.5,-336.5 141.5,-355.5 191.5,-355.5 191.5,-336.5 141.5,-336.5"/>
<text text-anchor="middle" x="166.5" y="-343.5" font-family="Helvetica,sans-Serif" font-size="10.00">Perlin.h</text>
</a>
</g>
</g>
<!-- Node1&#45;&gt;Node10 -->
<g id="edge16" class="edge"><title>Node1&#45;&gt;Node10</title>
<path fill="none" stroke="midnightblue" d="M122.252,-392.083C129.97,-384.22 141.405,-372.569 150.717,-363.081"/>
<polygon fill="midnightblue" stroke="midnightblue" points="153.404,-365.34 157.911,-355.751 148.408,-360.436 153.404,-365.34"/>
</g>
<!-- Node4 -->
<g id="node5" class="node"><title>Node4</title>
<polygon fill="white" stroke="#bfbfbf" points="576.5,-0.5 576.5,-19.5 622.5,-19.5 622.5,-0.5 576.5,-0.5"/>
<text text-anchor="middle" x="599.5" y="-7.5" font-family="Helvetica,sans-Serif" font-size="10.00">Ogre.h</text>
</g>
<!-- Node3&#45;&gt;Node4 -->
<g id="edge4" class="edge"><title>Node3&#45;&gt;Node4</title>
<path fill="none" stroke="midnightblue" d="M599.5,-56.083C599.5,-49.0059 599.5,-38.8611 599.5,-29.9865"/>
<polygon fill="midnightblue" stroke="midnightblue" points="603,-29.751 599.5,-19.7511 596,-29.7511 603,-29.751"/>
</g>
<!-- Node5&#45;&gt;Node3 -->
<g id="edge6" class="edge"><title>Node5&#45;&gt;Node3</title>
<path fill="none" stroke="midnightblue" d="M165.315,-280.321C161.899,-251.357 155.26,-157.308 205.5,-112 230.499,-89.4556 447.264,-75.0932 548.194,-69.5694"/>
<polygon fill="midnightblue" stroke="midnightblue" points="548.663,-73.0493 558.46,-69.0162 548.287,-66.0595 548.663,-73.0493"/>
</g>
<!-- Node6 -->
<g id="node7" class="node"><title>Node6</title>
<g id="a_node7"><a xlink:href="../../de/daf/_g_p_u_normal_map_manager_8h.html" target="_top" xlink:title="GPUNormalMapManager.h">
<polygon fill="white" stroke="black" points="286,-224.5 286,-243.5 419,-243.5 419,-224.5 286,-224.5"/>
<text text-anchor="middle" x="352.5" y="-231.5" font-family="Helvetica,sans-Serif" font-size="10.00">GPUNormalMapManager.h</text>
</a>
</g>
</g>
<!-- Node5&#45;&gt;Node6 -->
<g id="edge7" class="edge"><title>Node5&#45;&gt;Node6</title>
<path fill="none" stroke="midnightblue" d="M191.585,-281.717C222.764,-272.665 276.338,-257.111 313.04,-246.456"/>
<polygon fill="midnightblue" stroke="midnightblue" points="314.285,-249.739 322.912,-243.59 312.333,-243.017 314.285,-249.739"/>
</g>
<!-- Node6&#45;&gt;Node3 -->
<g id="edge8" class="edge"><title>Node6&#45;&gt;Node3</title>
<path fill="none" stroke="midnightblue" d="M351.067,-224.394C349.334,-211.342 347.746,-186.143 357.5,-168 376.696,-132.293 393.173,-129.994 429.5,-112 467.224,-93.3142 513.63,-81.7024 548.421,-74.9652"/>
<polygon fill="midnightblue" stroke="midnightblue" points="549.176,-78.3848 558.364,-73.1104 547.892,-71.5035 549.176,-78.3848"/>
</g>
<!-- Node7 -->
<g id="node8" class="node"><title>Node7</title>
<g id="a_node8"><a xlink:href="../../d7/d86/_enums_8h.html" target="_top" xlink:title="Enums.h">
<polygon fill="white" stroke="black" points="457.5,-112.5 457.5,-131.5 513.5,-131.5 513.5,-112.5 457.5,-112.5"/>
<text text-anchor="middle" x="485.5" y="-119.5" font-family="Helvetica,sans-Serif" font-size="10.00">Enums.h</text>
</a>
</g>
</g>
<!-- Node6&#45;&gt;Node7 -->
<g id="edge9" class="edge"><title>Node6&#45;&gt;Node7</title>
<path fill="none" stroke="midnightblue" d="M352.86,-224.256C353.882,-210.561 357.769,-183.967 372.5,-168 392.045,-146.815 422.874,-135.428 447.396,-129.413"/>
<polygon fill="midnightblue" stroke="midnightblue" points="448.478,-132.758 457.469,-127.152 446.945,-125.928 448.478,-132.758"/>
</g>
<!-- Node8 -->
<g id="node9" class="node"><title>Node8</title>
<g id="a_node9"><a xlink:href="../../d8/db0/_rtt_manager_8h.html" target="_top" xlink:title="RttManager.h">
<polygon fill="white" stroke="black" points="382,-168.5 382,-187.5 457,-187.5 457,-168.5 382,-168.5"/>
<text text-anchor="middle" x="419.5" y="-175.5" font-family="Helvetica,sans-Serif" font-size="10.00">RttManager.h</text>
</a>
</g>
</g>
<!-- Node6&#45;&gt;Node8 -->
<g id="edge11" class="edge"><title>Node6&#45;&gt;Node8</title>
<path fill="none" stroke="midnightblue" d="M363.265,-224.324C373.266,-216.263 388.387,-204.077 400.43,-194.369"/>
<polygon fill="midnightblue" stroke="midnightblue" points="402.95,-196.834 408.539,-187.834 398.557,-191.384 402.95,-196.834"/>
</g>
<!-- Node7&#45;&gt;Node3 -->
<g id="edge10" class="edge"><title>Node7&#45;&gt;Node3</title>
<path fill="none" stroke="midnightblue" d="M503.564,-112.444C522.075,-103.675 551.081,-89.9355 572.355,-79.8579"/>
<polygon fill="midnightblue" stroke="midnightblue" points="573.982,-82.9604 581.521,-75.5164 570.985,-76.6343 573.982,-82.9604"/>
</g>
<!-- Node8&#45;&gt;Node3 -->
<g id="edge12" class="edge"><title>Node8&#45;&gt;Node3</title>
<path fill="none" stroke="midnightblue" d="M420.945,-168.479C423.745,-154.605 431.226,-127.162 448.5,-112 476.141,-87.7383 516.398,-76.5485 548.395,-71.3921"/>
<polygon fill="midnightblue" stroke="midnightblue" points="549.078,-74.8296 558.467,-69.9211 548.067,-67.9031 549.078,-74.8296"/>
</g>
<!-- Node8&#45;&gt;Node7 -->
<g id="edge13" class="edge"><title>Node8&#45;&gt;Node7</title>
<path fill="none" stroke="midnightblue" d="M430.104,-168.324C439.956,-160.263 454.851,-148.077 466.715,-138.369"/>
<polygon fill="midnightblue" stroke="midnightblue" points="469.18,-140.875 474.703,-131.834 464.747,-135.457 469.18,-140.875"/>
</g>
<!-- Node9 -->
<g id="node10" class="node"><title>Node9</title>
<g id="a_node10"><a xlink:href="../../d7/d8e/_help_8h.html" target="_top" xlink:title="Help.h">
<polygon fill="white" stroke="black" points="2434.5,-112.5 2434.5,-131.5 2478.5,-131.5 2478.5,-112.5 2434.5,-112.5"/>
<text text-anchor="middle" x="2456.5" y="-119.5" font-family="Helvetica,sans-Serif" font-size="10.00">Help.h</text>
</a>
</g>
</g>
<!-- Node8&#45;&gt;Node9 -->
<g id="edge14" class="edge"><title>Node8&#45;&gt;Node9</title>
<path fill="none" stroke="midnightblue" d="M457.341,-175.229C500.459,-173.256 573.043,-170.073 635.5,-168 1359.52,-143.972 2245.86,-126.914 2424.32,-123.591"/>
<polygon fill="midnightblue" stroke="midnightblue" points="2424.43,-127.09 2434.37,-123.405 2424.3,-120.091 2424.43,-127.09"/>
</g>
<!-- Node9&#45;&gt;Node3 -->
<g id="edge15" class="edge"><title>Node9&#45;&gt;Node3</title>
<path fill="none" stroke="midnightblue" d="M2434.12,-119.061C2409.3,-116.984 2368.07,-113.752 2332.5,-112 1668.48,-79.2989 860.081,-69.5268 650.864,-67.4617"/>
<polygon fill="midnightblue" stroke="midnightblue" points="650.818,-63.9612 640.784,-67.3637 650.75,-70.9609 650.818,-63.9612"/>
</g>
<!-- Node10&#45;&gt;Node5 -->
<g id="edge17" class="edge"><title>Node10&#45;&gt;Node5</title>
<path fill="none" stroke="midnightblue" d="M166.5,-336.083C166.5,-329.006 166.5,-318.861 166.5,-309.986"/>
<polygon fill="midnightblue" stroke="midnightblue" points="170,-309.751 166.5,-299.751 163,-309.751 170,-309.751"/>
</g>
<!-- Node11&#45;&gt;Node3 -->
<g id="edge19" class="edge"><title>Node11&#45;&gt;Node3</title>
<path fill="none" stroke="midnightblue" d="M1436.79,-456.668C1618.56,-454.448 2616.54,-440.97 2673.5,-412 2706.23,-395.353 2724.5,-383.72 2724.5,-347 2724.5,-347 2724.5,-347 2724.5,-177 2724.5,-143.31 2714.64,-128.914 2685.5,-112 2640.13,-85.6591 967.488,-70.132 650.915,-67.426"/>
<polygon fill="midnightblue" stroke="midnightblue" points="650.687,-63.924 640.658,-67.3388 650.628,-70.9238 650.687,-63.924"/>
</g>
<!-- Node11&#45;&gt;Node6 -->
<g id="edge62" class="edge"><title>Node11&#45;&gt;Node6</title>
<path fill="none" stroke="midnightblue" d="M1380.36,-456.523C1224.61,-453.781 473.766,-439.187 433.5,-412 378.675,-374.983 360.334,-291.086 354.738,-253.646"/>
<polygon fill="midnightblue" stroke="midnightblue" points="358.191,-253.063 353.384,-243.622 351.254,-254 358.191,-253.063"/>
</g>
<!-- Node11&#45;&gt;Node7 -->
<g id="edge39" class="edge"><title>Node11&#45;&gt;Node7</title>
<path fill="none" stroke="midnightblue" d="M1380.37,-456.677C1225.69,-454.542 485.5,-439.489 485.5,-347 485.5,-347 485.5,-347 485.5,-233 485.5,-200.948 485.5,-163.643 485.5,-141.749"/>
<polygon fill="midnightblue" stroke="midnightblue" points="489,-141.558 485.5,-131.558 482,-141.558 489,-141.558"/>
</g>
<!-- Node11&#45;&gt;Node8 -->
<g id="edge51" class="edge"><title>Node11&#45;&gt;Node8</title>
<path fill="none" stroke="midnightblue" d="M1380.44,-456.519C1228.42,-453.806 509.079,-439.546 471.5,-412 446.663,-393.794 447.5,-377.795 447.5,-347 447.5,-347 447.5,-347 447.5,-289 447.5,-255.79 435.366,-218.634 427.073,-197.12"/>
<polygon fill="midnightblue" stroke="midnightblue" points="430.246,-195.628 423.276,-187.649 423.749,-198.233 430.246,-195.628"/>
</g>
<!-- Node11&#45;&gt;Node9 -->
<g id="edge40" class="edge"><title>Node11&#45;&gt;Node9</title>
<path fill="none" stroke="midnightblue" d="M1436.75,-457.061C1547.46,-456.986 1962.33,-453.765 2300.5,-412 2440.21,-394.745 2610.5,-487.774 2610.5,-347 2610.5,-347 2610.5,-347 2610.5,-289 2610.5,-215.203 2527.69,-160.373 2483.52,-136.377"/>
<polygon fill="midnightblue" stroke="midnightblue" points="2484.94,-133.172 2474.47,-131.597 2481.68,-139.362 2484.94,-133.172"/>
</g>
<!-- Node12 -->
<g id="node13" class="node"><title>Node12</title>
<g id="a_node13"><a xlink:href="../../d8/d9c/_ro_r_prerequisites_8h.html" target="_top" xlink:title="RoRPrerequisites.h">
<polygon fill="white" stroke="black" points="1358,-280.5 1358,-299.5 1459,-299.5 1459,-280.5 1358,-280.5"/>
<text text-anchor="middle" x="1408.5" y="-287.5" font-family="Helvetica,sans-Serif" font-size="10.00">RoRPrerequisites.h</text>
</a>
</g>
</g>
<!-- Node11&#45;&gt;Node12 -->
<g id="edge20" class="edge"><title>Node11&#45;&gt;Node12</title>
<path fill="none" stroke="midnightblue" d="M1408.5,-448.075C1408.5,-421.945 1408.5,-345.211 1408.5,-309.577"/>
<polygon fill="midnightblue" stroke="midnightblue" points="1412,-309.568 1408.5,-299.568 1405,-309.568 1412,-309.568"/>
</g>
<!-- Node30 -->
<g id="node31" class="node"><title>Node30</title>
<g id="a_node31"><a xlink:href="../../d2/da1/_mesh_8h.html" target="_top" xlink:title="Mesh.h">
<polygon fill="white" stroke="black" points="2495,-224.5 2495,-243.5 2544,-243.5 2544,-224.5 2495,-224.5"/>
<text text-anchor="middle" x="2519.5" y="-231.5" font-family="Helvetica,sans-Serif" font-size="10.00">Mesh.h</text>
</a>
</g>
</g>
<!-- Node11&#45;&gt;Node30 -->
<g id="edge41" class="edge"><title>Node11&#45;&gt;Node30</title>
<path fill="none" stroke="midnightblue" d="M1436.56,-452.215C1559.62,-431.067 2063.92,-342.765 2484.76,-244.3"/>
<polygon fill="midnightblue" stroke="midnightblue" points="2485.75,-247.663 2494.68,-241.972 2484.15,-240.848 2485.75,-247.663"/>
</g>
<!-- Node31 -->
<g id="node32" class="node"><title>Node31</title>
<g id="a_node32"><a xlink:href="../../d9/de5/_image_8h.html" target="_top" xlink:title="Image.h">
<polygon fill="white" stroke="black" points="2421,-168.5 2421,-187.5 2472,-187.5 2472,-168.5 2421,-168.5"/>
<text text-anchor="middle" x="2446.5" y="-175.5" font-family="Helvetica,sans-Serif" font-size="10.00">Image.h</text>
</a>
</g>
</g>
<!-- Node11&#45;&gt;Node31 -->
<g id="edge47" class="edge"><title>Node11&#45;&gt;Node31</title>
<path fill="none" stroke="midnightblue" d="M1436.7,-455.857C1614.46,-448.471 2572.5,-405.929 2572.5,-347 2572.5,-347 2572.5,-347 2572.5,-289 2572.5,-258.902 2573.54,-246.457 2553.5,-224 2535.03,-203.305 2505.5,-191.855 2482.13,-185.692"/>
<polygon fill="midnightblue" stroke="midnightblue" points="2482.76,-182.243 2472.22,-183.29 2481.11,-189.046 2482.76,-182.243"/>
</g>
<!-- Node32 -->
<g id="node33" class="node"><title>Node32</title>
<g id="a_node33"><a xlink:href="../../d4/d16/_material_manager_8h.html" target="_top" xlink:title="MaterialManager.h">
<polygon fill="white" stroke="black" points="552,-280.5 552,-299.5 649,-299.5 649,-280.5 552,-280.5"/>
<text text-anchor="middle" x="600.5" y="-287.5" font-family="Helvetica,sans-Serif" font-size="10.00">MaterialManager.h</text>
</a>
</g>
</g>
<!-- Node11&#45;&gt;Node32 -->
<g id="edge48" class="edge"><title>Node11&#45;&gt;Node32</title>
<path fill="none" stroke="midnightblue" d="M1380.12,-456.582C1256.42,-454.272 764.996,-439.876 640.5,-356 624.053,-344.919 613.164,-324.577 606.957,-309.59"/>
<polygon fill="midnightblue" stroke="midnightblue" points="610.074,-307.939 603.252,-299.833 603.53,-310.424 610.074,-307.939"/>
</g>
<!-- Node33 -->
<g id="node34" class="node"><title>Node33</title>
<g id="a_node34"><a xlink:href="../../d5/d67/_texture_manager_8h.html" target="_top" xlink:title="TextureManager.h">
<polygon fill="white" stroke="black" points="2382,-224.5 2382,-243.5 2477,-243.5 2477,-224.5 2382,-224.5"/>
<text text-anchor="middle" x="2429.5" y="-231.5" font-family="Helvetica,sans-Serif" font-size="10.00">TextureManager.h</text>
</a>
</g>
</g>
<!-- Node11&#45;&gt;Node33 -->
<g id="edge52" class="edge"><title>Node11&#45;&gt;Node33</title>
<path fill="none" stroke="midnightblue" d="M1432.6,-448.447C1514.68,-419.683 1791.29,-325.696 2027.5,-280 2176.03,-251.266 2218.42,-263.708 2371.61,-244.174"/>
<polygon fill="midnightblue" stroke="midnightblue" points="2372.4,-247.601 2381.87,-242.84 2371.5,-240.659 2372.4,-247.601"/>
</g>
<!-- Node34 -->
<g id="node35" class="node"><title>Node34</title>
<g id="a_node35"><a xlink:href="../../db/d06/_god_rays_manager_8h.html" target="_top" xlink:title="GodRaysManager.h">
<polygon fill="white" stroke="black" points="191,-392.5 191,-411.5 294,-411.5 294,-392.5 191,-392.5"/>
<text text-anchor="middle" x="242.5" y="-399.5" font-family="Helvetica,sans-Serif" font-size="10.00">GodRaysManager.h</text>
</a>
</g>
</g>
<!-- Node11&#45;&gt;Node34 -->
<g id="edge56" class="edge"><title>Node11&#45;&gt;Node34</title>
<path fill="none" stroke="midnightblue" d="M1380.3,-456.086C1258.9,-452.085 768.711,-435.276 366.5,-412 346.224,-410.827 324.1,-409.3 304.226,-407.838"/>
<polygon fill="midnightblue" stroke="midnightblue" points="304.293,-404.333 294.061,-407.082 303.773,-411.314 304.293,-404.333"/>
</g>
<!-- Node35 -->
<g id="node36" class="node"><title>Node35</title>
<g id="a_node36"><a xlink:href="../../d1/dad/_decals_manager_8h.html" target="_top" xlink:title="DecalsManager.h">
<polygon fill="white" stroke="black" points="2584.5,-112.5 2584.5,-131.5 2676.5,-131.5 2676.5,-112.5 2584.5,-112.5"/>
<text text-anchor="middle" x="2630.5" y="-119.5" font-family="Helvetica,sans-Serif" font-size="10.00">DecalsManager.h</text>
</a>
</g>
</g>
<!-- Node11&#45;&gt;Node35 -->
<g id="edge60" class="edge"><title>Node11&#45;&gt;Node35</title>
<path fill="none" stroke="midnightblue" d="M1436.54,-456.736C1615.64,-454.957 2593.63,-443.804 2647.5,-412 2676.51,-394.872 2686.5,-380.69 2686.5,-347 2686.5,-347 2686.5,-347 2686.5,-233 2686.5,-202.902 2681.57,-194.609 2667.5,-168 2661.9,-157.404 2653.56,-146.975 2646.21,-138.83"/>
<polygon fill="midnightblue" stroke="midnightblue" points="2648.73,-136.407 2639.33,-131.523 2643.64,-141.204 2648.73,-136.407"/>
</g>
<!-- Node36 -->
<g id="node37" class="node"><title>Node36</title>
<g id="a_node37"><a xlink:href="../../dd/ddd/_cfg_file_manager_8h.html" target="_top" xlink:title="CfgFileManager.h">
<polygon fill="white" stroke="black" points="2566.5,-168.5 2566.5,-187.5 2658.5,-187.5 2658.5,-168.5 2566.5,-168.5"/>
<text text-anchor="middle" x="2612.5" y="-175.5" font-family="Helvetica,sans-Serif" font-size="10.00">CfgFileManager.h</text>
</a>
</g>
</g>
<!-- Node11&#45;&gt;Node36 -->
<g id="edge63" class="edge"><title>Node11&#45;&gt;Node36</title>
<path fill="none" stroke="midnightblue" d="M1436.67,-456.839C1614.44,-455.715 2574.84,-447.986 2624.5,-412 2649.44,-393.931 2648.5,-377.795 2648.5,-347 2648.5,-347 2648.5,-347 2648.5,-289 2648.5,-254.982 2632.76,-217.85 2622.09,-196.6"/>
<polygon fill="midnightblue" stroke="midnightblue" points="2625.09,-194.772 2617.36,-187.527 2618.88,-198.012 2625.09,-194.772"/>
</g>
<!-- Node37 -->
<g id="node38" class="node"><title>Node37</title>
<g id="a_node38"><a xlink:href="../../dd/d7a/_module_8h.html" target="_top" xlink:title="Module.h">
<polygon fill="white" stroke="black" points="649.5,-336.5 649.5,-355.5 705.5,-355.5 705.5,-336.5 649.5,-336.5"/>
<text text-anchor="middle" x="677.5" y="-343.5" font-family="Helvetica,sans-Serif" font-size="10.00">Module.h</text>
</a>
</g>
</g>
<!-- Node11&#45;&gt;Node37 -->
<g id="edge66" class="edge"><title>Node11&#45;&gt;Node37</title>
<path fill="none" stroke="midnightblue" d="M1380.29,-452.755C1267.11,-435.723 845.768,-372.321 715.875,-352.775"/>
<polygon fill="midnightblue" stroke="midnightblue" points="716.034,-349.259 705.624,-351.232 714.992,-356.181 716.034,-349.259"/>
</g>
<!-- Node13 -->
<g id="node14" class="node"><title>Node13</title>
<polygon fill="white" stroke="#bfbfbf" points="869,-224.5 869,-243.5 972,-243.5 972,-224.5 869,-224.5"/>
<text text-anchor="middle" x="920.5" y="-231.5" font-family="Helvetica,sans-Serif" font-size="10.00">OgrePrerequisites.h</text>
</g>
<!-- Node12&#45;&gt;Node13 -->
<g id="edge21" class="edge"><title>Node12&#45;&gt;Node13</title>
<path fill="none" stroke="midnightblue" d="M1357.81,-284.344C1279.63,-277.013 1124.69,-261.885 982.293,-244.05"/>
<polygon fill="midnightblue" stroke="midnightblue" points="982.423,-240.539 972.064,-242.761 981.548,-247.484 982.423,-240.539"/>
</g>
<!-- Node14 -->
<g id="node15" class="node"><title>Node14</title>
<polygon fill="white" stroke="#bfbfbf" points="990,-224.5 990,-243.5 1105,-243.5 1105,-224.5 990,-224.5"/>
<text text-anchor="middle" x="1047.5" y="-231.5" font-family="Helvetica,sans-Serif" font-size="10.00">OgreAxisAlignedBox.h</text>
</g>
<!-- Node12&#45;&gt;Node14 -->
<g id="edge22" class="edge"><title>Node12&#45;&gt;Node14</title>
<path fill="none" stroke="midnightblue" d="M1357.92,-281.435C1294.39,-271.931 1185.18,-255.595 1114.69,-245.05"/>
<polygon fill="midnightblue" stroke="midnightblue" points="1114.98,-241.556 1104.58,-243.538 1113.95,-248.479 1114.98,-241.556"/>
</g>
<!-- Node15 -->
<g id="node16" class="node"><title>Node15</title>
<polygon fill="white" stroke="#bfbfbf" points="1123.5,-224.5 1123.5,-243.5 1221.5,-243.5 1221.5,-224.5 1123.5,-224.5"/>
<text text-anchor="middle" x="1172.5" y="-231.5" font-family="Helvetica,sans-Serif" font-size="10.00">OgreColourValue.h</text>
</g>
<!-- Node12&#45;&gt;Node15 -->
<g id="edge23" class="edge"><title>Node12&#45;&gt;Node15</title>
<path fill="none" stroke="midnightblue" d="M1371.11,-280.444C1330.11,-271.063 1264.25,-255.993 1219.72,-245.804"/>
<polygon fill="midnightblue" stroke="midnightblue" points="1220.25,-242.335 1209.72,-243.516 1218.69,-249.159 1220.25,-242.335"/>
</g>
<!-- Node16 -->
<g id="node17" class="node"><title>Node16</title>
<polygon fill="white" stroke="#bfbfbf" points="1240,-224.5 1240,-243.5 1341,-243.5 1341,-224.5 1240,-224.5"/>
<text text-anchor="middle" x="1290.5" y="-231.5" font-family="Helvetica,sans-Serif" font-size="10.00">OgreHeaderPrefix.h</text>
</g>
<!-- Node12&#45;&gt;Node16 -->
<g id="edge24" class="edge"><title>Node12&#45;&gt;Node16</title>
<path fill="none" stroke="midnightblue" d="M1389.8,-280.444C1370.56,-271.636 1340.35,-257.812 1318.3,-247.722"/>
<polygon fill="midnightblue" stroke="midnightblue" points="1319.66,-244.495 1309.11,-243.516 1316.75,-250.86 1319.66,-244.495"/>
</g>
<!-- Node17 -->
<g id="node18" class="node"><title>Node17</title>
<polygon fill="white" stroke="#bfbfbf" points="1359,-224.5 1359,-243.5 1458,-243.5 1458,-224.5 1359,-224.5"/>
<text text-anchor="middle" x="1408.5" y="-231.5" font-family="Helvetica,sans-Serif" font-size="10.00">OgreLogManager.h</text>
</g>
<!-- Node12&#45;&gt;Node17 -->
<g id="edge25" class="edge"><title>Node12&#45;&gt;Node17</title>
<path fill="none" stroke="midnightblue" d="M1408.5,-280.083C1408.5,-273.006 1408.5,-262.861 1408.5,-253.986"/>
<polygon fill="midnightblue" stroke="midnightblue" points="1412,-253.751 1408.5,-243.751 1405,-253.751 1412,-253.751"/>
</g>
<!-- Node18 -->
<g id="node19" class="node"><title>Node18</title>
<polygon fill="white" stroke="#bfbfbf" points="1476,-224.5 1476,-243.5 1569,-243.5 1569,-224.5 1476,-224.5"/>
<text text-anchor="middle" x="1522.5" y="-231.5" font-family="Helvetica,sans-Serif" font-size="10.00">OgreQuaternion.h</text>
</g>
<!-- Node12&#45;&gt;Node18 -->
<g id="edge26" class="edge"><title>Node12&#45;&gt;Node18</title>
<path fill="none" stroke="midnightblue" d="M1426.56,-280.444C1445.07,-271.675 1474.08,-257.935 1495.36,-247.858"/>
<polygon fill="midnightblue" stroke="midnightblue" points="1496.98,-250.96 1504.52,-243.516 1493.99,-244.634 1496.98,-250.96"/>
</g>
<!-- Node19 -->
<g id="node20" class="node"><title>Node19</title>
<polygon fill="white" stroke="#bfbfbf" points="1587,-224.5 1587,-243.5 1658,-243.5 1658,-224.5 1587,-224.5"/>
<text text-anchor="middle" x="1622.5" y="-231.5" font-family="Helvetica,sans-Serif" font-size="10.00">OgreString.h</text>
</g>
<!-- Node12&#45;&gt;Node19 -->
<g id="edge27" class="edge"><title>Node12&#45;&gt;Node19</title>
<path fill="none" stroke="midnightblue" d="M1442.41,-280.444C1479.35,-271.122 1538.55,-256.183 1578.92,-245.997"/>
<polygon fill="midnightblue" stroke="midnightblue" points="1579.91,-249.357 1588.75,-243.516 1578.2,-242.57 1579.91,-249.357"/>
</g>
<!-- Node20 -->
<g id="node21" class="node"><title>Node20</title>
<polygon fill="white" stroke="#bfbfbf" points="1676.5,-224.5 1676.5,-243.5 1788.5,-243.5 1788.5,-224.5 1676.5,-224.5"/>
<text text-anchor="middle" x="1732.5" y="-231.5" font-family="Helvetica,sans-Serif" font-size="10.00">OgreStringConverter.h</text>
</g>
<!-- Node12&#45;&gt;Node20 -->
<g id="edge28" class="edge"><title>Node12&#45;&gt;Node20</title>
<path fill="none" stroke="midnightblue" d="M1459.13,-280.563C1516.53,-270.995 1610.1,-255.4 1671.49,-245.169"/>
<polygon fill="midnightblue" stroke="midnightblue" points="1672.14,-248.608 1681.43,-243.512 1670.99,-241.703 1672.14,-248.608"/>
</g>
<!-- Node21 -->
<g id="node22" class="node"><title>Node21</title>
<polygon fill="white" stroke="#bfbfbf" points="1807,-224.5 1807,-243.5 1896,-243.5 1896,-224.5 1807,-224.5"/>
<text text-anchor="middle" x="1851.5" y="-231.5" font-family="Helvetica,sans-Serif" font-size="10.00">OgreUTFString.h</text>
</g>
<!-- Node12&#45;&gt;Node21 -->
<g id="edge29" class="edge"><title>Node12&#45;&gt;Node21</title>
<path fill="none" stroke="midnightblue" d="M1459.27,-283.945C1531.75,-276.548 1669.28,-261.843 1796.79,-244.035"/>
<polygon fill="midnightblue" stroke="midnightblue" points="1797.32,-247.496 1806.74,-242.637 1796.35,-240.564 1797.32,-247.496"/>
</g>
<!-- Node22 -->
<g id="node23" class="node"><title>Node22</title>
<polygon fill="white" stroke="#bfbfbf" points="1914.5,-224.5 1914.5,-243.5 1994.5,-243.5 1994.5,-224.5 1914.5,-224.5"/>
<text text-anchor="middle" x="1954.5" y="-231.5" font-family="Helvetica,sans-Serif" font-size="10.00">OgreVector2.h</text>
</g>
<!-- Node12&#45;&gt;Node22 -->
<g id="edge30" class="edge"><title>Node12&#45;&gt;Node22</title>
<path fill="none" stroke="midnightblue" d="M1459.11,-285.95C1547.42,-280.296 1735.52,-266.768 1904.37,-244.036"/>
<polygon fill="midnightblue" stroke="midnightblue" points="1905,-247.483 1914.44,-242.667 1904.06,-240.547 1905,-247.483"/>
</g>
<!-- Node23 -->
<g id="node24" class="node"><title>Node23</title>
<polygon fill="white" stroke="#bfbfbf" points="2012.5,-224.5 2012.5,-243.5 2092.5,-243.5 2092.5,-224.5 2012.5,-224.5"/>
<text text-anchor="middle" x="2052.5" y="-231.5" font-family="Helvetica,sans-Serif" font-size="10.00">OgreVector3.h</text>
</g>
<!-- Node12&#45;&gt;Node23 -->
<g id="edge31" class="edge"><title>Node12&#45;&gt;Node23</title>
<path fill="none" stroke="midnightblue" d="M1459.2,-285.861C1579.59,-278.3 1880.98,-258.7 2002.3,-243.989"/>
<polygon fill="midnightblue" stroke="midnightblue" points="2002.96,-247.434 2012.44,-242.715 2002.08,-240.489 2002.96,-247.434"/>
</g>
<!-- Node24 -->
<g id="node25" class="node"><title>Node24</title>
<g id="a_node25"><a xlink:href="../../d3/d73/_forward_declarations_8h.html" target="_top" xlink:title="Global forward declarations. ">
<polygon fill="white" stroke="black" points="645,-168.5 645,-187.5 758,-187.5 758,-168.5 645,-168.5"/>
<text text-anchor="middle" x="701.5" y="-175.5" font-family="Helvetica,sans-Serif" font-size="10.00">ForwardDeclarations.h</text>
</a>
</g>
</g>
<!-- Node12&#45;&gt;Node24 -->
<g id="edge32" class="edge"><title>Node12&#45;&gt;Node24</title>
<path fill="none" stroke="midnightblue" d="M1357.81,-287.855C1192.84,-283.886 680.559,-269.541 656.5,-244 641.781,-228.374 661.845,-207.579 679.684,-193.764"/>
<polygon fill="midnightblue" stroke="midnightblue" points="682.103,-196.33 688.1,-187.596 677.965,-190.684 682.103,-196.33"/>
</g>
<!-- Node25 -->
<g id="node26" class="node"><title>Node25</title>
<g id="a_node26"><a xlink:href="../../d7/dfa/_global_environment_8h.html" target="_top" xlink:title="GlobalEnvironment.h">
<polygon fill="white" stroke="black" points="665.5,-224.5 665.5,-243.5 771.5,-243.5 771.5,-224.5 665.5,-224.5"/>
<text text-anchor="middle" x="718.5" y="-231.5" font-family="Helvetica,sans-Serif" font-size="10.00">GlobalEnvironment.h</text>
</a>
</g>
</g>
<!-- Node12&#45;&gt;Node25 -->
<g id="edge33" class="edge"><title>Node12&#45;&gt;Node25</title>
<path fill="none" stroke="midnightblue" d="M1357.92,-286.624C1252.68,-281.412 1002.31,-267.604 781.717,-244.055"/>
<polygon fill="midnightblue" stroke="midnightblue" points="781.885,-240.553 771.568,-242.962 781.136,-247.512 781.885,-240.553"/>
</g>
<!-- Node26 -->
<g id="node27" class="node"><title>Node26</title>
<g id="a_node27"><a xlink:href="../../dc/de5/_zeroed_memory_allocator_8h.html" target="_top" xlink:title="ZeroedMemoryAllocator.h">
<polygon fill="white" stroke="black" points="2110.5,-224.5 2110.5,-243.5 2238.5,-243.5 2238.5,-224.5 2110.5,-224.5"/>
<text text-anchor="middle" x="2174.5" y="-231.5" font-family="Helvetica,sans-Serif" font-size="10.00">ZeroedMemoryAllocator.h</text>
</a>
</g>
</g>
<!-- Node12&#45;&gt;Node26 -->
<g id="edge35" class="edge"><title>Node12&#45;&gt;Node26</title>
<path fill="none" stroke="midnightblue" d="M1459.01,-286.723C1571.93,-281.416 1853.59,-266.977 2100.19,-244.069"/>
<polygon fill="midnightblue" stroke="midnightblue" points="2100.8,-247.528 2110.43,-243.112 2100.15,-240.559 2100.8,-247.528"/>
</g>
<!-- Node27 -->
<g id="node28" class="node"><title>Node27</title>
<g id="a_node28"><a xlink:href="../../d7/d85/_bit_flags_8h.html" target="_top" xlink:title="BitFlags.h">
<polygon fill="white" stroke="black" points="790,-224.5 790,-243.5 851,-243.5 851,-224.5 790,-224.5"/>
<text text-anchor="middle" x="820.5" y="-231.5" font-family="Helvetica,sans-Serif" font-size="10.00">BitFlags.h</text>
</a>
</g>
</g>
<!-- Node12&#45;&gt;Node27 -->
<g id="edge36" class="edge"><title>Node12&#45;&gt;Node27</title>
<path fill="none" stroke="midnightblue" d="M1357.88,-287.304C1262.44,-283.575 1049.31,-272.719 861.15,-244.053"/>
<polygon fill="midnightblue" stroke="midnightblue" points="861.492,-240.564 851.075,-242.497 860.424,-247.482 861.492,-240.564"/>
</g>
<!-- Node29 -->
<g id="node30" class="node"><title>Node29</title>
<polygon fill="white" stroke="#bfbfbf" points="2257,-224.5 2257,-243.5 2364,-243.5 2364,-224.5 2257,-224.5"/>
<text text-anchor="middle" x="2310.5" y="-231.5" font-family="Helvetica,sans-Serif" font-size="10.00">MyGUI_Prerequest.h</text>
</g>
<!-- Node12&#45;&gt;Node29 -->
<g id="edge38" class="edge"><title>Node12&#45;&gt;Node29</title>
<path fill="none" stroke="midnightblue" d="M1459.27,-286.539C1623.22,-278.558 2133.85,-253.412 2246.73,-243.905"/>
<polygon fill="midnightblue" stroke="midnightblue" points="2247.28,-247.37 2256.92,-242.982 2246.65,-240.398 2247.28,-247.37"/>
</g>
<!-- Node25&#45;&gt;Node24 -->
<g id="edge34" class="edge"><title>Node25&#45;&gt;Node24</title>
<path fill="none" stroke="midnightblue" d="M715.693,-224.083C713.415,-216.849 710.129,-206.409 707.292,-197.397"/>
<polygon fill="midnightblue" stroke="midnightblue" points="710.596,-196.239 704.255,-187.751 703.919,-198.341 710.596,-196.239"/>
</g>
<!-- Node28 -->
<g id="node29" class="node"><title>Node28</title>
<polygon fill="white" stroke="#bfbfbf" points="797.5,-168.5 797.5,-187.5 843.5,-187.5 843.5,-168.5 797.5,-168.5"/>
<text text-anchor="middle" x="820.5" y="-175.5" font-family="Helvetica,sans-Serif" font-size="10.00">cstdint</text>
</g>
<!-- Node27&#45;&gt;Node28 -->
<g id="edge37" class="edge"><title>Node27&#45;&gt;Node28</title>
<path fill="none" stroke="midnightblue" d="M820.5,-224.083C820.5,-217.006 820.5,-206.861 820.5,-197.986"/>
<polygon fill="midnightblue" stroke="midnightblue" points="824,-197.751 820.5,-187.751 817,-197.751 824,-197.751"/>
</g>
<!-- Node30&#45;&gt;Node3 -->
<g id="edge42" class="edge"><title>Node30&#45;&gt;Node3</title>
<path fill="none" stroke="midnightblue" d="M2494.73,-225.794C2491.97,-225.125 2489.18,-224.509 2486.5,-224 2260.29,-181.132 2200.59,-190.952 1971.5,-168 1700.16,-140.815 1632.42,-132.496 1360.5,-112 1093.77,-91.8955 773.873,-75.4874 651.011,-69.4701"/>
<polygon fill="midnightblue" stroke="midnightblue" points="650.936,-65.9624 640.777,-68.9706 650.595,-72.954 650.936,-65.9624"/>
</g>
<!-- Node30&#45;&gt;Node9 -->
<g id="edge43" class="edge"><title>Node30&#45;&gt;Node9</title>
<path fill="none" stroke="midnightblue" d="M2514.56,-224.368C2504.21,-206.296 2480.08,-164.176 2466.41,-140.307"/>
<polygon fill="midnightblue" stroke="midnightblue" points="2469.43,-138.53 2461.42,-131.591 2463.35,-142.008 2469.43,-138.53"/>
</g>
<!-- Node30&#45;&gt;Node31 -->
<g id="edge44" class="edge"><title>Node30&#45;&gt;Node31</title>
<path fill="none" stroke="midnightblue" d="M2507.77,-224.324C2496.66,-216.107 2479.76,-203.602 2466.52,-193.807"/>
<polygon fill="midnightblue" stroke="midnightblue" points="2468.56,-190.967 2458.44,-187.834 2464.4,-196.595 2468.56,-190.967"/>
</g>
<!-- Node31&#45;&gt;Node3 -->
<g id="edge45" class="edge"><title>Node31&#45;&gt;Node3</title>
<path fill="none" stroke="midnightblue" d="M2421.23,-168.427C2376.4,-153.678 2279.73,-123.939 2195.5,-112 1886.87,-68.2579 888.681,-66.6417 650.756,-66.8944"/>
<polygon fill="midnightblue" stroke="midnightblue" points="650.649,-63.3944 640.653,-66.9068 650.658,-70.3944 650.649,-63.3944"/>
</g>
<!-- Node31&#45;&gt;Node9 -->
<g id="edge46" class="edge"><title>Node31&#45;&gt;Node9</title>
<path fill="none" stroke="midnightblue" d="M2448.15,-168.083C2449.48,-160.927 2451.38,-150.635 2453.04,-141.691"/>
<polygon fill="midnightblue" stroke="midnightblue" points="2456.5,-142.221 2454.88,-131.751 2449.62,-140.947 2456.5,-142.221"/>
</g>
<!-- Node32&#45;&gt;Node3 -->
<g id="edge49" class="edge"><title>Node32&#45;&gt;Node3</title>
<path fill="none" stroke="midnightblue" d="M596.644,-280.249C592.942,-271.333 587.611,-257.006 585.5,-244 576.103,-186.091 576.686,-170.001 585.5,-112 586.868,-103.001 589.69,-93.3251 592.445,-85.2601"/>
<polygon fill="midnightblue" stroke="midnightblue" points="595.765,-86.3722 595.9,-75.7782 589.188,-83.9759 595.765,-86.3722"/>
</g>
<!-- Node32&#45;&gt;Node7 -->
<g id="edge50" class="edge"><title>Node32&#45;&gt;Node7</title>
<path fill="none" stroke="midnightblue" d="M587.462,-280.199C575.88,-271.894 559.046,-258.568 547.5,-244 521.574,-211.288 501.883,-166.034 492.183,-141.173"/>
<polygon fill="midnightblue" stroke="midnightblue" points="495.364,-139.691 488.545,-131.583 488.819,-142.174 495.364,-139.691"/>
</g>
<!-- Node33&#45;&gt;Node3 -->
<g id="edge53" class="edge"><title>Node33&#45;&gt;Node3</title>
<path fill="none" stroke="midnightblue" d="M2381.87,-225.11C2379.04,-224.714 2376.24,-224.34 2373.5,-224 1694.23,-139.467 863.097,-83.7257 650.767,-70.1981"/>
<polygon fill="midnightblue" stroke="midnightblue" points="650.748,-66.6899 640.546,-69.5491 650.304,-73.6758 650.748,-66.6899"/>
</g>
<!-- Node33&#45;&gt;Node7 -->
<g id="edge54" class="edge"><title>Node33&#45;&gt;Node7</title>
<path fill="none" stroke="midnightblue" d="M2381.89,-224.996C2379.05,-224.629 2376.24,-224.293 2373.5,-224 1995.8,-183.661 757.881,-133.709 523.86,-124.496"/>
<polygon fill="midnightblue" stroke="midnightblue" points="523.917,-120.996 513.787,-124.101 523.642,-127.991 523.917,-120.996"/>
</g>
<!-- Node33&#45;&gt;Node31 -->
<g id="edge55" class="edge"><title>Node33&#45;&gt;Node31</title>
<path fill="none" stroke="midnightblue" d="M2432.31,-224.083C2434.58,-216.849 2437.87,-206.409 2440.71,-197.397"/>
<polygon fill="midnightblue" stroke="midnightblue" points="2444.08,-198.341 2443.75,-187.751 2437.4,-196.239 2444.08,-198.341"/>
</g>
<!-- Node34&#45;&gt;Node3 -->
<g id="edge57" class="edge"><title>Node34&#45;&gt;Node3</title>
<path fill="none" stroke="midnightblue" d="M239.398,-392.289C233.12,-373.856 219.5,-329.435 219.5,-291 219.5,-291 219.5,-291 219.5,-177 219.5,-109.355 444.493,-80.6821 548.228,-71.0574"/>
<polygon fill="midnightblue" stroke="midnightblue" points="548.828,-74.5175 558.472,-70.1323 548.198,-67.5459 548.828,-74.5175"/>
</g>
<!-- Node34&#45;&gt;Node7 -->
<g id="edge59" class="edge"><title>Node34&#45;&gt;Node7</title>
<path fill="none" stroke="midnightblue" d="M241.974,-392.422C240.733,-365.288 240.095,-279.829 276.5,-224 315.032,-164.909 398.589,-139.406 447.58,-129.185"/>
<polygon fill="midnightblue" stroke="midnightblue" points="448.349,-132.601 457.481,-127.229 446.993,-125.733 448.349,-132.601"/>
</g>
<!-- Node34&#45;&gt;Node10 -->
<g id="edge58" class="edge"><title>Node34&#45;&gt;Node10</title>
<path fill="none" stroke="midnightblue" d="M230.289,-392.324C218.724,-384.107 201.125,-371.602 187.339,-361.807"/>
<polygon fill="midnightblue" stroke="midnightblue" points="189.112,-358.773 178.933,-355.834 185.057,-364.479 189.112,-358.773"/>
</g>
<!-- Node35&#45;&gt;Node3 -->
<g id="edge61" class="edge"><title>Node35&#45;&gt;Node3</title>
<path fill="none" stroke="midnightblue" d="M2584.5,-116.215C2567.54,-114.621 2548.16,-113 2530.5,-112 1784.44,-69.7811 874.091,-66.9654 650.757,-66.9444"/>
<polygon fill="midnightblue" stroke="midnightblue" points="650.644,-63.4443 640.644,-66.9453 650.645,-70.4443 650.644,-63.4443"/>
</g>
<!-- Node36&#45;&gt;Node3 -->
<g id="edge64" class="edge"><title>Node36&#45;&gt;Node3</title>
<path fill="none" stroke="midnightblue" d="M2600.5,-168.339C2579.07,-153.455 2532.27,-123.512 2487.5,-112 2305.48,-65.1968 934.919,-66.1339 650.92,-66.8389"/>
<polygon fill="midnightblue" stroke="midnightblue" points="650.884,-63.3389 640.893,-66.8649 650.902,-70.3389 650.884,-63.3389"/>
</g>
<!-- Node36&#45;&gt;Node9 -->
<g id="edge65" class="edge"><title>Node36&#45;&gt;Node9</title>
<path fill="none" stroke="midnightblue" d="M2587.78,-168.444C2560.88,-159.133 2517.79,-144.216 2488.37,-134.032"/>
<polygon fill="midnightblue" stroke="midnightblue" points="2489.18,-130.607 2478.58,-130.643 2486.89,-137.222 2489.18,-130.607"/>
</g>
<!-- Node37&#45;&gt;Node3 -->
<g id="edge67" class="edge"><title>Node37&#45;&gt;Node3</title>
<path fill="none" stroke="midnightblue" d="M674.862,-336.374C669.551,-318.953 657.247,-278.312 647.5,-244 631.157,-186.466 612.953,-118.062 604.419,-85.7198"/>
<polygon fill="midnightblue" stroke="midnightblue" points="607.754,-84.6399 601.823,-75.861 600.985,-86.4226 607.754,-84.6399"/>
</g>
<!-- Node37&#45;&gt;Node5 -->
<g id="edge69" class="edge"><title>Node37&#45;&gt;Node5</title>
<path fill="none" stroke="midnightblue" d="M649.299,-342.02C562.177,-332.813 297.44,-304.837 201.605,-294.71"/>
<polygon fill="midnightblue" stroke="midnightblue" points="201.87,-291.218 191.558,-293.648 201.134,-298.18 201.87,-291.218"/>
</g>
<!-- Node37&#45;&gt;Node6 -->
<g id="edge72" class="edge"><title>Node37&#45;&gt;Node6</title>
<path fill="none" stroke="midnightblue" d="M651.599,-336.434C624.407,-327.424 580.419,-312.806 542.5,-300 488.074,-281.62 424.996,-259.972 386.952,-246.877"/>
<polygon fill="midnightblue" stroke="midnightblue" points="387.971,-243.527 377.376,-243.58 385.692,-250.145 387.971,-243.527"/>
</g>
<!-- Node37&#45;&gt;Node12 -->
<g id="edge68" class="edge"><title>Node37&#45;&gt;Node12</title>
<path fill="none" stroke="midnightblue" d="M705.708,-342.916C813.007,-334.99 1197.23,-306.606 1347.58,-295.501"/>
<polygon fill="midnightblue" stroke="midnightblue" points="1348.27,-298.959 1357.99,-294.731 1347.76,-291.978 1348.27,-298.959"/>
</g>
<!-- Node37&#45;&gt;Node30 -->
<g id="edge70" class="edge"><title>Node37&#45;&gt;Node30</title>
<path fill="none" stroke="midnightblue" d="M705.544,-343.792C917.029,-334.634 2259.05,-275.697 2484.58,-243.889"/>
<polygon fill="midnightblue" stroke="midnightblue" points="2485.39,-247.307 2494.76,-242.349 2484.35,-240.386 2485.39,-247.307"/>
</g>
<!-- Node37&#45;&gt;Node32 -->
<g id="edge71" class="edge"><title>Node37&#45;&gt;Node32</title>
<path fill="none" stroke="midnightblue" d="M665.129,-336.324C653.342,-328.058 635.368,-315.453 621.364,-305.632"/>
<polygon fill="midnightblue" stroke="midnightblue" points="623.038,-302.531 612.841,-299.655 619.018,-308.262 623.038,-302.531"/>
</g>
</g>
</svg>
