<?xml version="1.0" encoding="UTF-8" standalone="no"?>
<!DOCTYPE svg PUBLIC "-//W3C//DTD SVG 1.1//EN"
 "http://www.w3.org/Graphics/SVG/1.1/DTD/svg11.dtd">
<!-- Generated by graphviz version 2.38.0 (20140413.2041)
 -->
<!-- Title: ImGuiTextFilter::Draw Pages: 1 -->
<svg width="789pt" height="142pt"
 viewBox="0.00 0.00 789.00 142.00" xmlns="http://www.w3.org/2000/svg" xmlns:xlink="http://www.w3.org/1999/xlink">
<g id="graph0" class="graph" transform="scale(1 1) rotate(0) translate(4 138)">
<title>ImGuiTextFilter::Draw</title>
<polygon fill="white" stroke="none" points="-4,4 -4,-138 785,-138 785,4 -4,4"/>
<!-- Node226 -->
<g id="node1" class="node"><title>Node226</title>
<polygon fill="#bfbfbf" stroke="black" points="0,-57.5 0,-76.5 110,-76.5 110,-57.5 0,-57.5"/>
<text text-anchor="middle" x="55" y="-64.5" font-family="Helvetica,sans-Serif" font-size="10.00">ImGuiTextFilter::Draw</text>
</g>
<!-- Node227 -->
<g id="node2" class="node"><title>Node227</title>
<g id="a_node2"><a xlink:href="../../df/d13/namespace_im_gui.html#a52880ae1ecdd704a083558d31c9bfa50" target="_top" xlink:title="ImGui::ShowTestWindow">
<polygon fill="white" stroke="black" points="484,-76.5 484,-95.5 609,-95.5 609,-76.5 484,-76.5"/>
<text text-anchor="middle" x="546.5" y="-83.5" font-family="Helvetica,sans-Serif" font-size="10.00">ImGui::ShowTestWindow</text>
</a>
</g>
</g>
<!-- Node226&#45;&gt;Node227 -->
<g id="edge1" class="edge"><title>Node226&#45;&gt;Node227</title>
<path fill="none" stroke="midnightblue" d="M120.268,-69.4946C214.891,-73.1674 390.528,-79.9847 483.712,-83.6017"/>
<polygon fill="midnightblue" stroke="midnightblue" points="120.384,-65.9965 110.255,-69.1059 120.112,-72.9912 120.384,-65.9965"/>
</g>
<!-- Node229 -->
<g id="node4" class="node"><title>Node229</title>
<g id="a_node4"><a xlink:href="../../df/d13/namespace_im_gui.html#ab2eb3dec78d054fe3feab1c091ec5de5" target="_top" xlink:title="ImGui::ShowStyleEditor">
<polygon fill="white" stroke="black" points="322.5,-114.5 322.5,-133.5 442.5,-133.5 442.5,-114.5 322.5,-114.5"/>
<text text-anchor="middle" x="382.5" y="-121.5" font-family="Helvetica,sans-Serif" font-size="10.00">ImGui::ShowStyleEditor</text>
</a>
</g>
</g>
<!-- Node226&#45;&gt;Node229 -->
<g id="edge4" class="edge"><title>Node226&#45;&gt;Node229</title>
<path fill="none" stroke="midnightblue" d="M86.8405,-80.4843C103.952,-87.4078 125.801,-95.3449 146,-100 205.07,-113.613 274.251,-119.507 322.282,-122.057"/>
<polygon fill="midnightblue" stroke="midnightblue" points="87.9394,-77.1511 77.3612,-76.5574 85.2603,-83.6181 87.9394,-77.1511"/>
</g>
<!-- Node230 -->
<g id="node5" class="node"><title>Node230</title>
<g id="a_node5"><a xlink:href="../../de/d1c/struct_example_app_console.html#a0518a09c7e8648dd52c7c06df19ac17a" target="_top" xlink:title="ExampleAppConsole::Draw">
<polygon fill="white" stroke="black" points="146,-0.5 146,-19.5 281,-19.5 281,-0.5 146,-0.5"/>
<text text-anchor="middle" x="213.5" y="-7.5" font-family="Helvetica,sans-Serif" font-size="10.00">ExampleAppConsole::Draw</text>
</a>
</g>
</g>
<!-- Node226&#45;&gt;Node230 -->
<g id="edge7" class="edge"><title>Node226&#45;&gt;Node230</title>
<path fill="none" stroke="midnightblue" d="M86.3693,-53.0922C103.648,-45.4547 125.809,-36.1175 146,-29 155.626,-25.6069 166.19,-22.3724 176.01,-19.5652"/>
<polygon fill="midnightblue" stroke="midnightblue" points="84.5136,-50.0878 76.8116,-57.3631 87.3695,-56.4788 84.5136,-50.0878"/>
</g>
<!-- Node232 -->
<g id="node7" class="node"><title>Node232</title>
<g id="a_node7"><a xlink:href="../../d1/db8/struct_example_app_log.html#a5ad3a4bdb89171b84aeaff96948a1f77" target="_top" xlink:title="ExampleAppLog::Draw">
<polygon fill="white" stroke="black" points="155.5,-38.5 155.5,-57.5 271.5,-57.5 271.5,-38.5 155.5,-38.5"/>
<text text-anchor="middle" x="213.5" y="-45.5" font-family="Helvetica,sans-Serif" font-size="10.00">ExampleAppLog::Draw</text>
</a>
</g>
</g>
<!-- Node226&#45;&gt;Node232 -->
<g id="edge10" class="edge"><title>Node226&#45;&gt;Node232</title>
<path fill="none" stroke="midnightblue" d="M120.36,-59.1864C131.964,-57.7775 143.99,-56.3175 155.371,-54.9358"/>
<polygon fill="midnightblue" stroke="midnightblue" points="119.802,-55.7283 110.297,-60.408 120.646,-62.6772 119.802,-55.7283"/>
</g>
<!-- Node228 -->
<g id="node3" class="node"><title>Node228</title>
<g id="a_node3"><a xlink:href="../../d5/d0a/imgui__demo_8cpp.html#a4dadf5e7b393795666d19af9694037cf" target="_top" xlink:title="ShowExampleAppLongText">
<polygon fill="white" stroke="black" points="645,-76.5 645,-95.5 781,-95.5 781,-76.5 645,-76.5"/>
<text text-anchor="middle" x="713" y="-83.5" font-family="Helvetica,sans-Serif" font-size="10.00">ShowExampleAppLongText</text>
</a>
</g>
</g>
<!-- Node227&#45;&gt;Node228 -->
<g id="edge2" class="edge"><title>Node227&#45;&gt;Node228</title>
<path fill="none" stroke="midnightblue" d="M619.464,-79.2971C627.942,-79.2191 636.567,-79.238 644.973,-79.3538"/>
<polygon fill="midnightblue" stroke="midnightblue" points="619.172,-75.8008 609.222,-79.4404 619.27,-82.8001 619.172,-75.8008"/>
</g>
<!-- Node228&#45;&gt;Node227 -->
<g id="edge3" class="edge"><title>Node228&#45;&gt;Node227</title>
<path fill="none" stroke="midnightblue" d="M634.916,-92.7381C626.301,-92.7777 617.609,-92.7182 609.222,-92.5596"/>
<polygon fill="midnightblue" stroke="midnightblue" points="635.005,-96.2376 644.973,-92.6462 634.941,-89.2379 635.005,-96.2376"/>
</g>
<!-- Node229&#45;&gt;Node227 -->
<g id="edge5" class="edge"><title>Node229&#45;&gt;Node227</title>
<path fill="none" stroke="midnightblue" d="M434.215,-112.104C456.986,-106.763 483.487,-100.546 504.915,-95.5201"/>
<polygon fill="midnightblue" stroke="midnightblue" points="433.316,-108.72 424.379,-114.411 434.915,-115.535 433.316,-108.72"/>
</g>
<!-- Node229&#45;&gt;Node228 -->
<g id="edge6" class="edge"><title>Node229&#45;&gt;Node228</title>
<path fill="none" stroke="midnightblue" d="M452.719,-119.936C497.431,-116.876 556.798,-111.997 609,-105 627.653,-102.5 648.06,-98.9157 665.752,-95.5326"/>
<polygon fill="midnightblue" stroke="midnightblue" points="452.29,-116.457 442.547,-120.619 452.759,-123.442 452.29,-116.457"/>
</g>
<!-- Node231 -->
<g id="node6" class="node"><title>Node231</title>
<g id="a_node6"><a xlink:href="../../d5/d0a/imgui__demo_8cpp.html#a8e5624314ae6402dd0ddf2a62aa91473" target="_top" xlink:title="ShowExampleAppConsole">
<polygon fill="white" stroke="black" points="317,-0.5 317,-19.5 448,-19.5 448,-0.5 317,-0.5"/>
<text text-anchor="middle" x="382.5" y="-7.5" font-family="Helvetica,sans-Serif" font-size="10.00">ShowExampleAppConsole</text>
</a>
</g>
</g>
<!-- Node230&#45;&gt;Node231 -->
<g id="edge8" class="edge"><title>Node230&#45;&gt;Node231</title>
<path fill="none" stroke="midnightblue" d="M291.704,-10C300.154,-10 308.691,-10 316.965,-10"/>
<polygon fill="midnightblue" stroke="midnightblue" points="291.463,-6.5001 281.463,-10 291.463,-13.5001 291.463,-6.5001"/>
</g>
<!-- Node231&#45;&gt;Node227 -->
<g id="edge9" class="edge"><title>Node231&#45;&gt;Node227</title>
<path fill="none" stroke="midnightblue" d="M431.182,-22.6162C436.923,-24.5529 442.645,-26.6869 448,-29 479.32,-42.529 513.107,-63.9996 531.538,-76.3661"/>
<polygon fill="midnightblue" stroke="midnightblue" points="432.152,-19.2522 421.562,-19.5464 430.024,-25.9209 432.152,-19.2522"/>
</g>
<!-- Node233 -->
<g id="node8" class="node"><title>Node233</title>
<g id="a_node8"><a xlink:href="../../d5/d0a/imgui__demo_8cpp.html#ad0303cf1f675002eb4e68c17a47b3f88" target="_top" xlink:title="ShowExampleAppLog">
<polygon fill="white" stroke="black" points="326.5,-38.5 326.5,-57.5 438.5,-57.5 438.5,-38.5 326.5,-38.5"/>
<text text-anchor="middle" x="382.5" y="-45.5" font-family="Helvetica,sans-Serif" font-size="10.00">ShowExampleAppLog</text>
</a>
</g>
</g>
<!-- Node232&#45;&gt;Node233 -->
<g id="edge11" class="edge"><title>Node232&#45;&gt;Node233</title>
<path fill="none" stroke="midnightblue" d="M281.661,-48C296.532,-48 312.123,-48 326.446,-48"/>
<polygon fill="midnightblue" stroke="midnightblue" points="281.505,-44.5001 271.505,-48 281.505,-51.5001 281.505,-44.5001"/>
</g>
<!-- Node233&#45;&gt;Node227 -->
<g id="edge12" class="edge"><title>Node233&#45;&gt;Node227</title>
<path fill="none" stroke="midnightblue" d="M434.215,-59.8961C456.986,-65.2374 483.487,-71.4537 504.915,-76.4799"/>
<polygon fill="midnightblue" stroke="midnightblue" points="434.915,-56.4653 424.379,-57.589 433.316,-63.2803 434.915,-56.4653"/>
</g>
</g>
</svg>
