<?xml version="1.0" encoding="UTF-8" standalone="no"?>
<!DOCTYPE svg PUBLIC "-//W3C//DTD SVG 1.1//EN"
 "http://www.w3.org/Graphics/SVG/1.1/DTD/svg11.dtd">
<!-- Generated by graphviz version 2.38.0 (20140413.2041)
 -->
<!-- Title: SkyX::VClouds::VClouds::getSunDirection Pages: 1 -->
<!--zoomable 240 -->
<svg id="main" version="1.1" xmlns="http://www.w3.org/2000/svg" xmlns:xlink="http://www.w3.org/1999/xlink" xml:space="preserve" onload="init(evt)">
<style type="text/css"><![CDATA[
.edge:hover path { stroke: red; }
.edge:hover polygon { stroke: red; fill: red; }
]]></style>
<script type="text/javascript"><![CDATA[
var edges = document.getElementsByTagName('g');
if (edges && edges.length) {
  for (var i=0;i<edges.length;i++) {
    if (edges[i].id.substr(0,4)=='edge') {
      edges[i].setAttribute('class','edge');
    }
  }
}
]]></script>
        <defs>
                <circle id="rim" cx="0" cy="0" r="7"/>
                <circle id="rim2" cx="0" cy="0" r="3.5"/>
                <g id="zoomPlus">
                        <use xlink:href="#rim" fill="#404040">
                                <set attributeName="fill" to="#808080" begin="zoomplus.mouseover" end="zoomplus.mouseout"/>
                        </use>
                        <path d="M-4,0h8M0,-4v8" fill="none" stroke="white" stroke-width="1.5" pointer-events="none"/>
                </g>
                <g id="zoomMin">
                        <use xlink:href="#rim" fill="#404040">
                                <set attributeName="fill" to="#808080" begin="zoomminus.mouseover" end="zoomminus.mouseout"/>
                        </use>
                        <path d="M-4,0h8" fill="none" stroke="white" stroke-width="1.5" pointer-events="none"/>
                </g>
                <g id="dirArrow">
                        <path fill="none" stroke="white" stroke-width="1.5" d="M0,-3.0v7 M-2.5,-0.5L0,-3.0L2.5,-0.5"/>
                </g>
               <g id="resetDef">
                       <use xlink:href="#rim2" fill="#404040">
                               <set attributeName="fill" to="#808080" begin="reset.mouseover" end="reset.mouseout"/>
                       </use>
               </g>
        </defs>

<script type="text/javascript">
var viewWidth = 1604;
var viewHeight = 240;
var sectionId = 'dynsection-22';
</script>
<script xlink:href="../../svgpan.js"/>
<svg id="graph" class="graph">
<g id="viewport">
<title>SkyX::VClouds::VClouds::getSunDirection</title>
<polygon fill="white" stroke="none" points="-4,4 -4,-236 1600,-236 1600,4 -4,4"/>
<!-- Node244 -->
<g id="node1" class="node"><title>Node244</title>
<polygon fill="#bfbfbf" stroke="black" points="0,-140.5 0,-170.5 125,-170.5 125,-140.5 0,-140.5"/>
<text text-anchor="start" x="8" y="-158.5" font-family="Helvetica,sans-Serif" font-size="10.00">SkyX::VClouds::VClouds</text>
<text text-anchor="middle" x="62.5" y="-147.5" font-family="Helvetica,sans-Serif" font-size="10.00">::getSunDirection</text>
</g>
<!-- Node245 -->
<g id="node2" class="node"><title>Node245</title>
<g id="a_node2"><a xlink:href="../../dd/d4b/class_sky_x_1_1_v_clouds_1_1_data_manager.html#ae8e39e54096d75b0af7da9498c4183c1" target="_top" xlink:title="SkyX::VClouds::DataManager\l::_performCalculations">
<polygon fill="white" stroke="black" points="161,-140.5 161,-170.5 307,-170.5 307,-140.5 161,-140.5"/>
<text text-anchor="start" x="169" y="-158.5" font-family="Helvetica,sans-Serif" font-size="10.00">SkyX::VClouds::DataManager</text>
<text text-anchor="middle" x="234" y="-147.5" font-family="Helvetica,sans-Serif" font-size="10.00">::_performCalculations</text>
</a>
</g>
</g>
<!-- Node244&#45;&gt;Node245 -->
<g id="edge1" class="edge"><title>Node244&#45;&gt;Node245</title>
<path fill="none" stroke="midnightblue" d="M135.319,-155.5C143.727,-155.5 152.309,-155.5 160.723,-155.5"/>
<polygon fill="midnightblue" stroke="midnightblue" points="135.173,-152 125.173,-155.5 135.173,-159 135.173,-152"/>
</g>
<!-- Node246 -->
<g id="node3" class="node"><title>Node246</title>
<g id="a_node3"><a xlink:href="../../dd/d4b/class_sky_x_1_1_v_clouds_1_1_data_manager.html#af4ac63d3dabfc812dbabf82e7b5eef43" target="_top" xlink:title="SkyX::VClouds::DataManager\l::update">
<polygon fill="white" stroke="black" points="525,-201.5 525,-231.5 671,-231.5 671,-201.5 525,-201.5"/>
<text text-anchor="start" x="533" y="-219.5" font-family="Helvetica,sans-Serif" font-size="10.00">SkyX::VClouds::DataManager</text>
<text text-anchor="middle" x="598" y="-208.5" font-family="Helvetica,sans-Serif" font-size="10.00">::update</text>
</a>
</g>
</g>
<!-- Node245&#45;&gt;Node246 -->
<g id="edge2" class="edge"><title>Node245&#45;&gt;Node246</title>
<path fill="none" stroke="midnightblue" d="M271.421,-175.224C291.849,-185.283 318.153,-196.61 343,-202.5 403.162,-216.762 473.487,-219.612 524.865,-219.267"/>
<polygon fill="midnightblue" stroke="midnightblue" points="272.981,-172.091 262.475,-170.716 269.83,-178.342 272.981,-172.091"/>
</g>
<!-- Node249 -->
<g id="node6" class="node"><title>Node249</title>
<g id="a_node6"><a xlink:href="../../dd/d4b/class_sky_x_1_1_v_clouds_1_1_data_manager.html#abc1bab189eb591d5c23064cd80ee2b03" target="_top" xlink:title="SkyX::VClouds::DataManager\l::forceToUpdateData">
<polygon fill="white" stroke="black" points="343,-162.5 343,-192.5 489,-192.5 489,-162.5 343,-162.5"/>
<text text-anchor="start" x="351" y="-180.5" font-family="Helvetica,sans-Serif" font-size="10.00">SkyX::VClouds::DataManager</text>
<text text-anchor="middle" x="416" y="-169.5" font-family="Helvetica,sans-Serif" font-size="10.00">::forceToUpdateData</text>
</a>
</g>
</g>
<!-- Node245&#45;&gt;Node249 -->
<g id="edge5" class="edge"><title>Node245&#45;&gt;Node249</title>
<path fill="none" stroke="midnightblue" d="M317.16,-165.542C325.718,-166.588 334.372,-167.645 342.808,-168.677"/>
<polygon fill="midnightblue" stroke="midnightblue" points="317.527,-162.061 307.176,-164.321 316.677,-169.009 317.527,-162.061"/>
</g>
<!-- Node250 -->
<g id="node7" class="node"><title>Node250</title>
<g id="a_node7"><a xlink:href="../../dd/d4b/class_sky_x_1_1_v_clouds_1_1_data_manager.html#a0a64efe48371a6b94e6e966e9d890fd3" target="_top" xlink:title="SkyX::VClouds::DataManager\l::_getInterpolation">
<polygon fill="white" stroke="black" points="525,-140.5 525,-170.5 671,-170.5 671,-140.5 525,-140.5"/>
<text text-anchor="start" x="533" y="-158.5" font-family="Helvetica,sans-Serif" font-size="10.00">SkyX::VClouds::DataManager</text>
<text text-anchor="middle" x="598" y="-147.5" font-family="Helvetica,sans-Serif" font-size="10.00">::_getInterpolation</text>
</a>
</g>
</g>
<!-- Node245&#45;&gt;Node250 -->
<g id="edge30" class="edge"><title>Node245&#45;&gt;Node250</title>
<path fill="none" stroke="midnightblue" d="M317.218,-152.979C325.921,-152.783 334.642,-152.616 343,-152.5 407.883,-151.599 424.117,-151.599 489,-152.5 500.628,-152.661 512.959,-152.921 524.97,-153.221"/>
<polygon fill="midnightblue" stroke="midnightblue" points="316.944,-149.484 307.03,-153.221 317.111,-156.482 316.944,-149.484"/>
</g>
<!-- Node251 -->
<g id="node8" class="node"><title>Node251</title>
<g id="a_node8"><a xlink:href="../../dd/d4b/class_sky_x_1_1_v_clouds_1_1_data_manager.html#a4f167b2a9517f6098b61d8e8a9dad4ce" target="_top" xlink:title="SkyX::VClouds::DataManager\l::setWheater">
<polygon fill="white" stroke="black" points="343,-74.5 343,-104.5 489,-104.5 489,-74.5 343,-74.5"/>
<text text-anchor="start" x="351" y="-92.5" font-family="Helvetica,sans-Serif" font-size="10.00">SkyX::VClouds::DataManager</text>
<text text-anchor="middle" x="416" y="-81.5" font-family="Helvetica,sans-Serif" font-size="10.00">::setWheater</text>
</a>
</g>
</g>
<!-- Node245&#45;&gt;Node251 -->
<g id="edge8" class="edge"><title>Node245&#45;&gt;Node251</title>
<path fill="none" stroke="midnightblue" d="M285.862,-136.851C313.704,-126.642 347.752,-114.157 373.897,-104.571"/>
<polygon fill="midnightblue" stroke="midnightblue" points="284.479,-133.63 276.296,-140.358 286.889,-140.202 284.479,-133.63"/>
</g>
<!-- Node247 -->
<g id="node4" class="node"><title>Node247</title>
<g id="a_node4"><a xlink:href="../../d5/db6/class_sky_x_1_1_v_clouds_1_1_v_clouds.html#acf68c63f12d3688b6adc295ca887a438" target="_top" xlink:title="SkyX::VClouds::VClouds\l::update">
<polygon fill="white" stroke="black" points="707,-197.5 707,-227.5 832,-227.5 832,-197.5 707,-197.5"/>
<text text-anchor="start" x="715" y="-215.5" font-family="Helvetica,sans-Serif" font-size="10.00">SkyX::VClouds::VClouds</text>
<text text-anchor="middle" x="769.5" y="-204.5" font-family="Helvetica,sans-Serif" font-size="10.00">::update</text>
</a>
</g>
</g>
<!-- Node246&#45;&gt;Node247 -->
<g id="edge3" class="edge"><title>Node246&#45;&gt;Node247</title>
<path fill="none" stroke="midnightblue" d="M681.377,-214.556C689.928,-214.354 698.511,-214.152 706.777,-213.957"/>
<polygon fill="midnightblue" stroke="midnightblue" points="681.29,-211.057 671.375,-214.792 681.455,-218.055 681.29,-211.057"/>
</g>
<!-- Node248 -->
<g id="node5" class="node"><title>Node248</title>
<g id="a_node5"><a xlink:href="../../d7/d45/class_sky_x_1_1_v_clouds_manager.html#a7c25472c85244e6889b371384b5aff70" target="_top" xlink:title="SkyX::VCloudsManager\l::update">
<polygon fill="white" stroke="black" points="886,-197.5 886,-227.5 1005,-227.5 1005,-197.5 886,-197.5"/>
<text text-anchor="start" x="894" y="-215.5" font-family="Helvetica,sans-Serif" font-size="10.00">SkyX::VCloudsManager</text>
<text text-anchor="middle" x="945.5" y="-204.5" font-family="Helvetica,sans-Serif" font-size="10.00">::update</text>
</a>
</g>
</g>
<!-- Node247&#45;&gt;Node248 -->
<g id="edge4" class="edge"><title>Node247&#45;&gt;Node248</title>
<path fill="none" stroke="midnightblue" d="M842.668,-212.5C857.025,-212.5 871.937,-212.5 885.777,-212.5"/>
<polygon fill="midnightblue" stroke="midnightblue" points="842.336,-209 832.336,-212.5 842.336,-216 842.336,-209"/>
</g>
<!-- Node249&#45;&gt;Node250 -->
<g id="edge6" class="edge"><title>Node249&#45;&gt;Node250</title>
<path fill="none" stroke="midnightblue" d="M499.16,-167.458C507.718,-166.412 516.372,-165.355 524.808,-164.323"/>
<polygon fill="midnightblue" stroke="midnightblue" points="498.677,-163.991 489.176,-168.679 499.527,-170.939 498.677,-163.991"/>
</g>
<!-- Node250&#45;&gt;Node247 -->
<g id="edge7" class="edge"><title>Node250&#45;&gt;Node247</title>
<path fill="none" stroke="midnightblue" d="M653.458,-173.813C676.106,-181.43 702.078,-190.163 723.606,-197.403"/>
<polygon fill="midnightblue" stroke="midnightblue" points="654.572,-170.495 643.978,-170.625 652.341,-177.13 654.572,-170.495"/>
</g>
<!-- Node251&#45;&gt;Node250 -->
<g id="edge9" class="edge"><title>Node251&#45;&gt;Node250</title>
<path fill="none" stroke="midnightblue" d="M467.862,-108.149C495.704,-118.358 529.752,-130.843 555.897,-140.429"/>
<polygon fill="midnightblue" stroke="midnightblue" points="468.889,-104.798 458.296,-104.642 466.479,-111.37 468.889,-104.798"/>
</g>
<!-- Node252 -->
<g id="node9" class="node"><title>Node252</title>
<g id="a_node9"><a xlink:href="../../d5/db6/class_sky_x_1_1_v_clouds_1_1_v_clouds.html#aa6ac12481422e7771b0e04e1cbc2dc28" target="_top" xlink:title="SkyX::VClouds::VClouds\l::setWheater">
<polygon fill="white" stroke="black" points="535.5,-74.5 535.5,-104.5 660.5,-104.5 660.5,-74.5 535.5,-74.5"/>
<text text-anchor="start" x="543.5" y="-92.5" font-family="Helvetica,sans-Serif" font-size="10.00">SkyX::VClouds::VClouds</text>
<text text-anchor="middle" x="598" y="-81.5" font-family="Helvetica,sans-Serif" font-size="10.00">::setWheater</text>
</a>
</g>
</g>
<!-- Node251&#45;&gt;Node252 -->
<g id="edge10" class="edge"><title>Node251&#45;&gt;Node252</title>
<path fill="none" stroke="midnightblue" d="M499.272,-89.5C511.366,-89.5 523.648,-89.5 535.235,-89.5"/>
<polygon fill="midnightblue" stroke="midnightblue" points="499.176,-86.0001 489.176,-89.5 499.176,-93.0001 499.176,-86.0001"/>
</g>
<!-- Node253 -->
<g id="node10" class="node"><title>Node253</title>
<g id="a_node10"><a xlink:href="../../d6/de7/class_sky_x_1_1_cfg_file_manager.html#a38d52b744527dc5b536243e8f549eb7d" target="_top" xlink:title="SkyX::CfgFileManager\l::load">
<polygon fill="white" stroke="black" points="1080,-0.5 1080,-30.5 1193,-30.5 1193,-0.5 1080,-0.5"/>
<text text-anchor="start" x="1088" y="-18.5" font-family="Helvetica,sans-Serif" font-size="10.00">SkyX::CfgFileManager</text>
<text text-anchor="middle" x="1136.5" y="-7.5" font-family="Helvetica,sans-Serif" font-size="10.00">::load</text>
</a>
</g>
</g>
<!-- Node252&#45;&gt;Node253 -->
<g id="edge11" class="edge"><title>Node252&#45;&gt;Node253</title>
<path fill="none" stroke="midnightblue" d="M656.741,-71.5813C710.756,-55.7198 793.988,-33.5715 868,-23.5 940.739,-13.6017 1025.59,-12.8742 1079.89,-13.7678"/>
<polygon fill="midnightblue" stroke="midnightblue" points="655.598,-68.2694 647.004,-74.4655 657.586,-74.9812 655.598,-68.2694"/>
</g>
<!-- Node254 -->
<g id="node11" class="node"><title>Node254</title>
<g id="a_node11"><a xlink:href="../../d5/db6/class_sky_x_1_1_v_clouds_1_1_v_clouds.html#a3c5adca159dc371b8624e055f260009b" target="_top" xlink:title="SkyX::VClouds::VClouds\l::create">
<polygon fill="white" stroke="black" points="707,-74.5 707,-104.5 832,-104.5 832,-74.5 707,-74.5"/>
<text text-anchor="start" x="715" y="-92.5" font-family="Helvetica,sans-Serif" font-size="10.00">SkyX::VClouds::VClouds</text>
<text text-anchor="middle" x="769.5" y="-81.5" font-family="Helvetica,sans-Serif" font-size="10.00">::create</text>
</a>
</g>
</g>
<!-- Node252&#45;&gt;Node254 -->
<g id="edge12" class="edge"><title>Node252&#45;&gt;Node254</title>
<path fill="none" stroke="midnightblue" d="M670.679,-89.5C682.717,-89.5 695.117,-89.5 706.873,-89.5"/>
<polygon fill="midnightblue" stroke="midnightblue" points="670.673,-86.0001 660.673,-89.5 670.673,-93.0001 670.673,-86.0001"/>
</g>
<!-- Node257 -->
<g id="node14" class="node"><title>Node257</title>
<g id="a_node14"><a xlink:href="../../d5/db6/class_sky_x_1_1_v_clouds_1_1_v_clouds.html#a2f21ac89a85582095de6b1a44c8530f7" target="_top" xlink:title="SkyX::VClouds::VClouds\l::getNoiseScale">
<polygon fill="white" stroke="black" points="707,-127.5 707,-157.5 832,-157.5 832,-127.5 707,-127.5"/>
<text text-anchor="start" x="715" y="-145.5" font-family="Helvetica,sans-Serif" font-size="10.00">SkyX::VClouds::VClouds</text>
<text text-anchor="middle" x="769.5" y="-134.5" font-family="Helvetica,sans-Serif" font-size="10.00">::getNoiseScale</text>
</a>
</g>
</g>
<!-- Node252&#45;&gt;Node257 -->
<g id="edge16" class="edge"><title>Node252&#45;&gt;Node257</title>
<path fill="none" stroke="midnightblue" d="M656.737,-107.554C677.41,-114.017 700.476,-121.23 720.261,-127.416"/>
<polygon fill="midnightblue" stroke="midnightblue" points="657.707,-104.19 647.119,-104.546 655.618,-110.871 657.707,-104.19"/>
</g>
<!-- Node255 -->
<g id="node12" class="node"><title>Node255</title>
<g id="a_node12"><a xlink:href="../../d5/db6/class_sky_x_1_1_v_clouds_1_1_v_clouds.html#ab859795b0c4a32358b726c9e1eef35c6" target="_top" xlink:title="SkyX::VClouds::VClouds\l::create">
<polygon fill="white" stroke="black" points="883,-33.5 883,-63.5 1008,-63.5 1008,-33.5 883,-33.5"/>
<text text-anchor="start" x="891" y="-51.5" font-family="Helvetica,sans-Serif" font-size="10.00">SkyX::VClouds::VClouds</text>
<text text-anchor="middle" x="945.5" y="-40.5" font-family="Helvetica,sans-Serif" font-size="10.00">::create</text>
</a>
</g>
</g>
<!-- Node254&#45;&gt;Node255 -->
<g id="edge13" class="edge"><title>Node254&#45;&gt;Node255</title>
<path fill="none" stroke="midnightblue" d="M842.081,-72.6331C855.617,-69.4437 869.667,-66.1332 882.863,-63.0236"/>
<polygon fill="midnightblue" stroke="midnightblue" points="841.267,-69.2292 832.336,-74.9295 842.872,-76.0426 841.267,-69.2292"/>
</g>
<!-- Node256 -->
<g id="node13" class="node"><title>Node256</title>
<g id="a_node13"><a xlink:href="../../d7/d45/class_sky_x_1_1_v_clouds_manager.html#a6931df17a25e8691796aa4d9c68467cb" target="_top" xlink:title="SkyX::VCloudsManager\l::create">
<polygon fill="white" stroke="black" points="886,-82.5 886,-112.5 1005,-112.5 1005,-82.5 886,-82.5"/>
<text text-anchor="start" x="894" y="-100.5" font-family="Helvetica,sans-Serif" font-size="10.00">SkyX::VCloudsManager</text>
<text text-anchor="middle" x="945.5" y="-89.5" font-family="Helvetica,sans-Serif" font-size="10.00">::create</text>
</a>
</g>
</g>
<!-- Node254&#45;&gt;Node256 -->
<g id="edge14" class="edge"><title>Node254&#45;&gt;Node256</title>
<path fill="none" stroke="midnightblue" d="M842.668,-92.8181C857.025,-93.4782 871.937,-94.1638 885.777,-94.8001"/>
<polygon fill="midnightblue" stroke="midnightblue" points="842.486,-89.3061 832.336,-92.343 842.164,-96.2987 842.486,-89.3061"/>
</g>
<!-- Node256&#45;&gt;Node253 -->
<g id="edge15" class="edge"><title>Node256&#45;&gt;Node253</title>
<path fill="none" stroke="midnightblue" d="M1006.02,-79.0443C1011.8,-76.9541 1017.54,-74.7592 1023,-72.5 1053.14,-60.0241 1086.31,-42.7616 1108.77,-30.5107"/>
<polygon fill="midnightblue" stroke="midnightblue" points="1004.56,-75.844 996.287,-82.456 1006.88,-82.4496 1004.56,-75.844"/>
</g>
<!-- Node258 -->
<g id="node15" class="node"><title>Node258</title>
<g id="a_node15"><a xlink:href="../../d9/df9/class_sky_x_1_1_v_clouds_1_1_geometry_block.html#acf52579de6b080f63399b0025279f3e2" target="_top" xlink:title="SkyX::VClouds::GeometryBlock\l::_setVertexData">
<polygon fill="white" stroke="black" points="868,-131.5 868,-161.5 1023,-161.5 1023,-131.5 868,-131.5"/>
<text text-anchor="start" x="876" y="-149.5" font-family="Helvetica,sans-Serif" font-size="10.00">SkyX::VClouds::GeometryBlock</text>
<text text-anchor="middle" x="945.5" y="-138.5" font-family="Helvetica,sans-Serif" font-size="10.00">::_setVertexData</text>
</a>
</g>
</g>
<!-- Node257&#45;&gt;Node258 -->
<g id="edge17" class="edge"><title>Node257&#45;&gt;Node258</title>
<path fill="none" stroke="midnightblue" d="M842.471,-144.155C850.876,-144.348 859.475,-144.545 867.94,-144.74"/>
<polygon fill="midnightblue" stroke="midnightblue" points="842.414,-140.652 832.336,-143.922 842.253,-147.651 842.414,-140.652"/>
</g>
<!-- Node259 -->
<g id="node16" class="node"><title>Node259</title>
<g id="a_node16"><a xlink:href="../../d9/df9/class_sky_x_1_1_v_clouds_1_1_geometry_block.html#afcaf3a79b96aeaca53c27f7180ed4949" target="_top" xlink:title="SkyX::VClouds::GeometryBlock\l::_updateZoneCSlice">
<polygon fill="white" stroke="black" points="1059,-71.5 1059,-101.5 1214,-101.5 1214,-71.5 1059,-71.5"/>
<text text-anchor="start" x="1067" y="-89.5" font-family="Helvetica,sans-Serif" font-size="10.00">SkyX::VClouds::GeometryBlock</text>
<text text-anchor="middle" x="1136.5" y="-78.5" font-family="Helvetica,sans-Serif" font-size="10.00">::_updateZoneCSlice</text>
</a>
</g>
</g>
<!-- Node258&#45;&gt;Node259 -->
<g id="edge18" class="edge"><title>Node258&#45;&gt;Node259</title>
<path fill="none" stroke="midnightblue" d="M1003,-128.351C1020.9,-122.619 1040.77,-116.275 1059,-110.5 1068.16,-107.599 1077.93,-104.518 1087.33,-101.565"/>
<polygon fill="midnightblue" stroke="midnightblue" points="1001.74,-125.081 993.28,-131.465 1003.87,-131.747 1001.74,-125.081"/>
</g>
<!-- Node262 -->
<g id="node19" class="node"><title>Node262</title>
<g id="a_node19"><a xlink:href="../../d9/df9/class_sky_x_1_1_v_clouds_1_1_geometry_block.html#ab28afaa96535fa9c568422be1f44baec" target="_top" xlink:title="SkyX::VClouds::GeometryBlock\l::setWorldOffset">
<polygon fill="white" stroke="black" points="1441,-140.5 1441,-170.5 1596,-170.5 1596,-140.5 1441,-140.5"/>
<text text-anchor="start" x="1449" y="-158.5" font-family="Helvetica,sans-Serif" font-size="10.00">SkyX::VClouds::GeometryBlock</text>
<text text-anchor="middle" x="1518.5" y="-147.5" font-family="Helvetica,sans-Serif" font-size="10.00">::setWorldOffset</text>
</a>
</g>
</g>
<!-- Node258&#45;&gt;Node262 -->
<g id="edge29" class="edge"><title>Node258&#45;&gt;Node262</title>
<path fill="none" stroke="midnightblue" d="M984.855,-166.51C997.122,-173.056 1010.71,-180.456 1023,-187.5 1039.27,-196.821 1040.95,-204.421 1059,-209.5 1209.26,-251.778 1396.25,-198.479 1477.12,-170.555"/>
<polygon fill="midnightblue" stroke="midnightblue" points="986.248,-163.287 975.774,-161.692 982.967,-169.471 986.248,-163.287"/>
</g>
<!-- Node263 -->
<g id="node20" class="node"><title>Node263</title>
<g id="a_node20"><a xlink:href="../../d9/df9/class_sky_x_1_1_v_clouds_1_1_geometry_block.html#aab5a7e7576713c869d555d31a041717f" target="_top" xlink:title="SkyX::VClouds::GeometryBlock\l::_updateZoneBSlice">
<polygon fill="white" stroke="black" points="1059,-120.5 1059,-150.5 1214,-150.5 1214,-120.5 1059,-120.5"/>
<text text-anchor="start" x="1067" y="-138.5" font-family="Helvetica,sans-Serif" font-size="10.00">SkyX::VClouds::GeometryBlock</text>
<text text-anchor="middle" x="1136.5" y="-127.5" font-family="Helvetica,sans-Serif" font-size="10.00">::_updateZoneBSlice</text>
</a>
</g>
</g>
<!-- Node258&#45;&gt;Node263 -->
<g id="edge23" class="edge"><title>Node258&#45;&gt;Node263</title>
<path fill="none" stroke="midnightblue" d="M1033.1,-141.46C1041.67,-140.961 1050.33,-140.457 1058.79,-139.965"/>
<polygon fill="midnightblue" stroke="midnightblue" points="1032.88,-137.967 1023.1,-142.042 1033.29,-144.955 1032.88,-137.967"/>
</g>
<!-- Node264 -->
<g id="node21" class="node"><title>Node264</title>
<g id="a_node21"><a xlink:href="../../d9/df9/class_sky_x_1_1_v_clouds_1_1_geometry_block.html#a965f4571b72848d4998abf566daf38fd" target="_top" xlink:title="SkyX::VClouds::GeometryBlock\l::_updateZoneASlice">
<polygon fill="white" stroke="black" points="1059,-169.5 1059,-199.5 1214,-199.5 1214,-169.5 1059,-169.5"/>
<text text-anchor="start" x="1067" y="-187.5" font-family="Helvetica,sans-Serif" font-size="10.00">SkyX::VClouds::GeometryBlock</text>
<text text-anchor="middle" x="1136.5" y="-176.5" font-family="Helvetica,sans-Serif" font-size="10.00">::_updateZoneASlice</text>
</a>
</g>
</g>
<!-- Node258&#45;&gt;Node264 -->
<g id="edge26" class="edge"><title>Node258&#45;&gt;Node264</title>
<path fill="none" stroke="midnightblue" d="M1031.03,-163.496C1040.93,-165.486 1050.97,-167.505 1060.73,-169.466"/>
<polygon fill="midnightblue" stroke="midnightblue" points="1031.69,-160.058 1021.2,-161.519 1030.31,-166.921 1031.69,-160.058"/>
</g>
<!-- Node260 -->
<g id="node17" class="node"><title>Node260</title>
<g id="a_node17"><a xlink:href="../../d9/df9/class_sky_x_1_1_v_clouds_1_1_geometry_block.html#af8e402fd695a5cf9e801f2b42c4cdcbb" target="_top" xlink:title="SkyX::VClouds::GeometryBlock\l::_updateGeometry">
<polygon fill="white" stroke="black" points="1250,-93.5 1250,-123.5 1405,-123.5 1405,-93.5 1250,-93.5"/>
<text text-anchor="start" x="1258" y="-111.5" font-family="Helvetica,sans-Serif" font-size="10.00">SkyX::VClouds::GeometryBlock</text>
<text text-anchor="middle" x="1327.5" y="-100.5" font-family="Helvetica,sans-Serif" font-size="10.00">::_updateGeometry</text>
</a>
</g>
</g>
<!-- Node259&#45;&gt;Node260 -->
<g id="edge19" class="edge"><title>Node259&#45;&gt;Node260</title>
<path fill="none" stroke="midnightblue" d="M1224.1,-96.5809C1232.67,-97.5784 1241.33,-98.5861 1249.79,-99.5708"/>
<polygon fill="midnightblue" stroke="midnightblue" points="1224.44,-93.0963 1214.1,-95.4165 1223.63,-100.049 1224.44,-93.0963"/>
</g>
<!-- Node259&#45;&gt;Node262 -->
<g id="edge22" class="edge"><title>Node259&#45;&gt;Node262</title>
<path fill="none" stroke="midnightblue" d="M1204.98,-69.5197C1261.44,-58.9906 1342.53,-52.6618 1405,-83.5 1428.59,-95.1479 1419.53,-115.286 1441,-130.5 1446.47,-134.378 1452.58,-137.68 1458.9,-140.487"/>
<polygon fill="midnightblue" stroke="midnightblue" points="1204.23,-66.1 1195.09,-71.4545 1205.58,-72.9699 1204.23,-66.1"/>
</g>
<!-- Node261 -->
<g id="node18" class="node"><title>Node261</title>
<g id="a_node18"><a xlink:href="../../d9/df9/class_sky_x_1_1_v_clouds_1_1_geometry_block.html#a8a9184545973028914c267dee8412c6b" target="_top" xlink:title="SkyX::VClouds::GeometryBlock\l::updateGeometry">
<polygon fill="white" stroke="black" points="1441,-91.5 1441,-121.5 1596,-121.5 1596,-91.5 1441,-91.5"/>
<text text-anchor="start" x="1449" y="-109.5" font-family="Helvetica,sans-Serif" font-size="10.00">SkyX::VClouds::GeometryBlock</text>
<text text-anchor="middle" x="1518.5" y="-98.5" font-family="Helvetica,sans-Serif" font-size="10.00">::updateGeometry</text>
</a>
</g>
</g>
<!-- Node260&#45;&gt;Node261 -->
<g id="edge20" class="edge"><title>Node260&#45;&gt;Node261</title>
<path fill="none" stroke="midnightblue" d="M1415.1,-107.584C1423.67,-107.493 1432.33,-107.401 1440.79,-107.312"/>
<polygon fill="midnightblue" stroke="midnightblue" points="1415.06,-104.084 1405.1,-107.689 1415.14,-111.083 1415.06,-104.084"/>
</g>
<!-- Node260&#45;&gt;Node262 -->
<g id="edge21" class="edge"><title>Node260&#45;&gt;Node262</title>
<path fill="none" stroke="midnightblue" d="M1398.71,-125.959C1417.89,-130.73 1438.52,-135.858 1457.1,-140.481"/>
<polygon fill="midnightblue" stroke="midnightblue" points="1399.37,-122.517 1388.82,-123.5 1397.68,-129.31 1399.37,-122.517"/>
</g>
<!-- Node263&#45;&gt;Node260 -->
<g id="edge24" class="edge"><title>Node263&#45;&gt;Node260</title>
<path fill="none" stroke="midnightblue" d="M1224.1,-123.128C1232.67,-121.904 1241.33,-120.667 1249.79,-119.459"/>
<polygon fill="midnightblue" stroke="midnightblue" points="1223.51,-119.678 1214.1,-124.557 1224.5,-126.608 1223.51,-119.678"/>
</g>
<!-- Node263&#45;&gt;Node262 -->
<g id="edge25" class="edge"><title>Node263&#45;&gt;Node262</title>
<path fill="none" stroke="midnightblue" d="M1224.66,-140.087C1289.85,-143.518 1378.17,-148.167 1440.72,-151.459"/>
<polygon fill="midnightblue" stroke="midnightblue" points="1224.57,-136.578 1214.4,-139.547 1224.2,-143.568 1224.57,-136.578"/>
</g>
<!-- Node264&#45;&gt;Node260 -->
<g id="edge27" class="edge"><title>Node264&#45;&gt;Node260</title>
<path fill="none" stroke="midnightblue" d="M1195.95,-166.134C1202.08,-163.99 1208.19,-161.759 1214,-159.5 1241.98,-148.623 1273,-134.39 1295.37,-123.725"/>
<polygon fill="midnightblue" stroke="midnightblue" points="1194.67,-162.872 1186.35,-169.424 1196.94,-169.495 1194.67,-162.872"/>
</g>
<!-- Node264&#45;&gt;Node262 -->
<g id="edge28" class="edge"><title>Node264&#45;&gt;Node262</title>
<path fill="none" stroke="midnightblue" d="M1224.66,-177.849C1289.85,-172.873 1378.17,-166.133 1440.72,-161.36"/>
<polygon fill="midnightblue" stroke="midnightblue" points="1224.1,-174.381 1214.4,-178.631 1224.64,-181.36 1224.1,-174.381"/>
</g>
</g>
</svg>
        <g id="navigator" transform="translate(0 0)" fill="#404254">
                <rect fill="#f2f5e9" fill-opacity="0.5" stroke="#606060" stroke-width=".5" x="0" y="0" width="60" height="60"/>
                <use id="zoomplus" xlink:href="#zoomPlus" x="17" y="9" onmousedown="handleZoom(evt,'in')"/>
                <use id="zoomminus" xlink:href="#zoomMin" x="42" y="9" onmousedown="handleZoom(evt,'out')"/>
                <use id="reset" xlink:href="#resetDef" x="30" y="36" onmousedown="handleReset()"/>
                <g id="arrowUp" xlink:href="#dirArrow" transform="translate(30 24)" onmousedown="handlePan(0,-1)">
                  <use xlink:href="#rim" fill="#404040">
                        <set attributeName="fill" to="#808080" begin="arrowUp.mouseover" end="arrowUp.mouseout"/>
                  </use>
                  <path fill="none" stroke="white" stroke-width="1.5" d="M0,-3.0v7 M-2.5,-0.5L0,-3.0L2.5,-0.5"/>
                </g>
                <g id="arrowRight" xlink:href="#dirArrow" transform="rotate(90) translate(36 -43)" onmousedown="handlePan(1,0)">
                  <use xlink:href="#rim" fill="#404040">
                        <set attributeName="fill" to="#808080" begin="arrowRight.mouseover" end="arrowRight.mouseout"/>
                  </use>
                  <path fill="none" stroke="white" stroke-width="1.5" d="M0,-3.0v7 M-2.5,-0.5L0,-3.0L2.5,-0.5"/>
                </g>
                <g id="arrowDown" xlink:href="#dirArrow" transform="rotate(180) translate(-30 -48)" onmousedown="handlePan(0,1)">
                  <use xlink:href="#rim" fill="#404040">
                        <set attributeName="fill" to="#808080" begin="arrowDown.mouseover" end="arrowDown.mouseout"/>
                  </use>
                  <path fill="none" stroke="white" stroke-width="1.5" d="M0,-3.0v7 M-2.5,-0.5L0,-3.0L2.5,-0.5"/>
                </g>
                <g id="arrowLeft" xlink:href="#dirArrow" transform="rotate(270) translate(-36 17)" onmousedown="handlePan(-1,0)">
                  <use xlink:href="#rim" fill="#404040">
                        <set attributeName="fill" to="#808080" begin="arrowLeft.mouseover" end="arrowLeft.mouseout"/>
                  </use>
                  <path fill="none" stroke="white" stroke-width="1.5" d="M0,-3.0v7 M-2.5,-0.5L0,-3.0L2.5,-0.5"/>
                </g>
        </g>
        <svg viewBox="0 0 15 15" width="100%" height="30px" preserveAspectRatio="xMaxYMin meet">
         <g id="arrow_out" transform="scale(0.3 0.3)">
          <a xlink:href="class_sky_x_1_1_v_clouds_1_1_v_clouds_a1fdbb73c54070573ef6a1044bfe74d4e_icgraph_org.svg" target="_base">
           <rect id="button" ry="5" rx="5" y="6" x="6" height="38" width="38"
                fill="#f2f5e9" fill-opacity="0.5" stroke="#606060" stroke-width="1.0"/>
           <path id="arrow"
             d="M 11.500037,31.436501 C 11.940474,20.09759 22.043105,11.32322 32.158766,21.979434 L 37.068811,17.246167 C 37.068811,17.246167 37.088388,32 37.088388,32 L 22.160133,31.978069 C 22.160133,31.978069 26.997745,27.140456 26.997745,27.140456 C 18.528582,18.264221 13.291696,25.230495 11.500037,31.436501 z"
             style="fill:#404040;"/>
          </a>
         </g>
        </svg>
</svg>
