<?xml version="1.0" encoding="UTF-8" standalone="no"?>
<!DOCTYPE svg PUBLIC "-//W3C//DTD SVG 1.1//EN"
 "http://www.w3.org/Graphics/SVG/1.1/DTD/svg11.dtd">
<!-- Generated by graphviz version 2.38.0 (20140413.2041)
 -->
<!-- Title: utf8::distance Pages: 1 -->
<!--zoomable 333 -->
<svg id="main" version="1.1" xmlns="http://www.w3.org/2000/svg" xmlns:xlink="http://www.w3.org/1999/xlink" xml:space="preserve" onload="init(evt)">
<style type="text/css"><![CDATA[
.edge:hover path { stroke: red; }
.edge:hover polygon { stroke: red; fill: red; }
]]></style>
<script type="text/javascript"><![CDATA[
var edges = document.getElementsByTagName('g');
if (edges && edges.length) {
  for (var i=0;i<edges.length;i++) {
    if (edges[i].id.substr(0,4)=='edge') {
      edges[i].setAttribute('class','edge');
    }
  }
}
]]></script>
        <defs>
                <circle id="rim" cx="0" cy="0" r="7"/>
                <circle id="rim2" cx="0" cy="0" r="3.5"/>
                <g id="zoomPlus">
                        <use xlink:href="#rim" fill="#404040">
                                <set attributeName="fill" to="#808080" begin="zoomplus.mouseover" end="zoomplus.mouseout"/>
                        </use>
                        <path d="M-4,0h8M0,-4v8" fill="none" stroke="white" stroke-width="1.5" pointer-events="none"/>
                </g>
                <g id="zoomMin">
                        <use xlink:href="#rim" fill="#404040">
                                <set attributeName="fill" to="#808080" begin="zoomminus.mouseover" end="zoomminus.mouseout"/>
                        </use>
                        <path d="M-4,0h8" fill="none" stroke="white" stroke-width="1.5" pointer-events="none"/>
                </g>
                <g id="dirArrow">
                        <path fill="none" stroke="white" stroke-width="1.5" d="M0,-3.0v7 M-2.5,-0.5L0,-3.0L2.5,-0.5"/>
                </g>
               <g id="resetDef">
                       <use xlink:href="#rim2" fill="#404040">
                               <set attributeName="fill" to="#808080" begin="reset.mouseover" end="reset.mouseout"/>
                       </use>
               </g>
        </defs>

<script type="text/javascript">
var viewWidth = 639;
var viewHeight = 333;
var sectionId = 'dynsection-3';
</script>
<script xlink:href="../../svgpan.js"/>
<svg id="graph" class="graph">
<g id="viewport">
<title>utf8::distance</title>
<polygon fill="white" stroke="none" points="-4,4 -4,-329 635,-329 635,4 -4,4"/>
<!-- Node174 -->
<g id="node1" class="node"><title>Node174</title>
<polygon fill="#bfbfbf" stroke="black" points="0,-153 0,-172 75,-172 75,-153 0,-153"/>
<text text-anchor="middle" x="37.5" y="-160" font-family="Helvetica,sans-Serif" font-size="10.00">utf8::distance</text>
</g>
<!-- Node175 -->
<g id="node2" class="node"><title>Node175</title>
<g id="a_node2"><a xlink:href="../../dd/de8/namespaceutf8.html#afc093dfde66a6f52cb4a5caefe0e580d" target="_top" xlink:title="utf8::next">
<polygon fill="white" stroke="black" points="111,-153 111,-172 168,-172 168,-153 111,-153"/>
<text text-anchor="middle" x="139.5" y="-160" font-family="Helvetica,sans-Serif" font-size="10.00">utf8::next</text>
</a>
</g>
</g>
<!-- Node174&#45;&gt;Node175 -->
<g id="edge1" class="edge"><title>Node174&#45;&gt;Node175</title>
<path fill="none" stroke="midnightblue" d="M75.1685,-162.5C83.4775,-162.5 92.3165,-162.5 100.673,-162.5"/>
<polygon fill="midnightblue" stroke="midnightblue" points="100.922,-166 110.922,-162.5 100.922,-159 100.922,-166"/>
</g>
<!-- Node176 -->
<g id="node3" class="node"><title>Node176</title>
<g id="a_node3"><a xlink:href="../../d0/d96/namespaceutf8_1_1internal.html#abe95547575fcc81911e381df03f8ebfe" target="_top" xlink:title="utf8::internal::validate_next">
<polygon fill="white" stroke="black" points="204,-153 204,-172 336,-172 336,-153 204,-153"/>
<text text-anchor="middle" x="270" y="-160" font-family="Helvetica,sans-Serif" font-size="10.00">utf8::internal::validate_next</text>
</a>
</g>
</g>
<!-- Node175&#45;&gt;Node176 -->
<g id="edge2" class="edge"><title>Node175&#45;&gt;Node176</title>
<path fill="none" stroke="midnightblue" d="M168.066,-162.5C175.865,-162.5 184.748,-162.5 193.935,-162.5"/>
<polygon fill="midnightblue" stroke="midnightblue" points="193.985,-166 203.985,-162.5 193.985,-159 193.985,-166"/>
</g>
<!-- Node177 -->
<g id="node4" class="node"><title>Node177</title>
<g id="a_node4"><a xlink:href="../../d0/d96/namespaceutf8_1_1internal.html#aadbe437cba7bfcc4df2638f633e9787c" target="_top" xlink:title="utf8::internal::sequence\l_length">
<polygon fill="white" stroke="black" points="372,-294.5 372,-324.5 490,-324.5 490,-294.5 372,-294.5"/>
<text text-anchor="start" x="380" y="-312.5" font-family="Helvetica,sans-Serif" font-size="10.00">utf8::internal::sequence</text>
<text text-anchor="middle" x="431" y="-301.5" font-family="Helvetica,sans-Serif" font-size="10.00">_length</text>
</a>
</g>
</g>
<!-- Node176&#45;&gt;Node177 -->
<g id="edge3" class="edge"><title>Node176&#45;&gt;Node177</title>
<path fill="none" stroke="midnightblue" d="M276.6,-172.173C290.198,-194.897 327.159,-252.266 372,-285.5 373.849,-286.871 375.789,-288.179 377.79,-289.425"/>
<polygon fill="midnightblue" stroke="midnightblue" points="376.442,-292.68 386.88,-294.496 379.852,-286.568 376.442,-292.68"/>
</g>
<!-- Node179 -->
<g id="node6" class="node"><title>Node179</title>
<g id="a_node6"><a xlink:href="../../d0/d96/namespaceutf8_1_1internal.html#a6e5df73716136aec55e8fcf3309038b6" target="_top" xlink:title="get_sequence_x functions decode utf&#45;8 sequences of the length x ">
<polygon fill="white" stroke="black" points="386.5,-245.5 386.5,-275.5 475.5,-275.5 475.5,-245.5 386.5,-245.5"/>
<text text-anchor="start" x="394.5" y="-263.5" font-family="Helvetica,sans-Serif" font-size="10.00">utf8::internal::get</text>
<text text-anchor="middle" x="431" y="-252.5" font-family="Helvetica,sans-Serif" font-size="10.00">_sequence_1</text>
</a>
</g>
</g>
<!-- Node176&#45;&gt;Node179 -->
<g id="edge5" class="edge"><title>Node176&#45;&gt;Node179</title>
<path fill="none" stroke="midnightblue" d="M282.201,-172.115C300.214,-187.243 337.138,-216.893 372,-236.5 374.849,-238.103 377.828,-239.659 380.865,-241.159"/>
<polygon fill="midnightblue" stroke="midnightblue" points="379.546,-244.405 390.087,-245.474 382.513,-238.065 379.546,-244.405"/>
</g>
<!-- Node180 -->
<g id="node7" class="node"><title>Node180</title>
<g id="a_node7"><a xlink:href="../../d0/d96/namespaceutf8_1_1internal.html#a9d641b9546be985f9f0fd4955ac42a24" target="_top" xlink:title="utf8::internal::get\l_sequence_2">
<polygon fill="white" stroke="black" points="386.5,-196.5 386.5,-226.5 475.5,-226.5 475.5,-196.5 386.5,-196.5"/>
<text text-anchor="start" x="394.5" y="-214.5" font-family="Helvetica,sans-Serif" font-size="10.00">utf8::internal::get</text>
<text text-anchor="middle" x="431" y="-203.5" font-family="Helvetica,sans-Serif" font-size="10.00">_sequence_2</text>
</a>
</g>
</g>
<!-- Node176&#45;&gt;Node180 -->
<g id="edge7" class="edge"><title>Node176&#45;&gt;Node180</title>
<path fill="none" stroke="midnightblue" d="M302.034,-172.064C323.257,-178.604 351.931,-187.441 376.756,-195.092"/>
<polygon fill="midnightblue" stroke="midnightblue" points="375.826,-198.467 386.413,-198.068 377.887,-191.778 375.826,-198.467"/>
</g>
<!-- Node181 -->
<g id="node8" class="node"><title>Node181</title>
<g id="a_node8"><a xlink:href="../../d0/d96/namespaceutf8_1_1internal.html#ac1809a1fb3fa6983d64a0d3a39646008" target="_top" xlink:title="utf8::internal::get\l_sequence_3">
<polygon fill="white" stroke="black" points="386.5,-147.5 386.5,-177.5 475.5,-177.5 475.5,-147.5 386.5,-147.5"/>
<text text-anchor="start" x="394.5" y="-165.5" font-family="Helvetica,sans-Serif" font-size="10.00">utf8::internal::get</text>
<text text-anchor="middle" x="431" y="-154.5" font-family="Helvetica,sans-Serif" font-size="10.00">_sequence_3</text>
</a>
</g>
</g>
<!-- Node176&#45;&gt;Node181 -->
<g id="edge9" class="edge"><title>Node176&#45;&gt;Node181</title>
<path fill="none" stroke="midnightblue" d="M336.13,-162.5C349.394,-162.5 363.209,-162.5 376.033,-162.5"/>
<polygon fill="midnightblue" stroke="midnightblue" points="376.076,-166 386.076,-162.5 376.076,-159 376.076,-166"/>
</g>
<!-- Node182 -->
<g id="node9" class="node"><title>Node182</title>
<g id="a_node9"><a xlink:href="../../d0/d96/namespaceutf8_1_1internal.html#ad1958e7c6746ba6b1fbb0d81b88b346c" target="_top" xlink:title="utf8::internal::get\l_sequence_4">
<polygon fill="white" stroke="black" points="386.5,-98.5 386.5,-128.5 475.5,-128.5 475.5,-98.5 386.5,-98.5"/>
<text text-anchor="start" x="394.5" y="-116.5" font-family="Helvetica,sans-Serif" font-size="10.00">utf8::internal::get</text>
<text text-anchor="middle" x="431" y="-105.5" font-family="Helvetica,sans-Serif" font-size="10.00">_sequence_4</text>
</a>
</g>
</g>
<!-- Node176&#45;&gt;Node182 -->
<g id="edge11" class="edge"><title>Node176&#45;&gt;Node182</title>
<path fill="none" stroke="midnightblue" d="M302.034,-152.936C323.257,-146.396 351.931,-137.559 376.756,-129.908"/>
<polygon fill="midnightblue" stroke="midnightblue" points="377.887,-133.222 386.413,-126.932 375.826,-126.533 377.887,-133.222"/>
</g>
<!-- Node183 -->
<g id="node10" class="node"><title>Node183</title>
<g id="a_node10"><a xlink:href="../../d0/d96/namespaceutf8_1_1internal.html#a97b553137aaeda6e8ca6f8d46f78fd79" target="_top" xlink:title="utf8::internal::is\l_code_point_valid">
<polygon fill="white" stroke="black" points="384.5,-49.5 384.5,-79.5 477.5,-79.5 477.5,-49.5 384.5,-49.5"/>
<text text-anchor="start" x="392.5" y="-67.5" font-family="Helvetica,sans-Serif" font-size="10.00">utf8::internal::is</text>
<text text-anchor="middle" x="431" y="-56.5" font-family="Helvetica,sans-Serif" font-size="10.00">_code_point_valid</text>
</a>
</g>
</g>
<!-- Node176&#45;&gt;Node183 -->
<g id="edge13" class="edge"><title>Node176&#45;&gt;Node183</title>
<path fill="none" stroke="midnightblue" d="M282.555,-152.846C300.753,-137.952 337.57,-109.049 372,-89.5 375.389,-87.5755 378.956,-85.7034 382.585,-83.9063"/>
<polygon fill="midnightblue" stroke="midnightblue" points="384.128,-87.0483 391.669,-79.6064 381.133,-80.7213 384.128,-87.0483"/>
</g>
<!-- Node185 -->
<g id="node12" class="node"><title>Node185</title>
<g id="a_node12"><a xlink:href="../../d0/d96/namespaceutf8_1_1internal.html#a3160f6f24dff465f64f83cb0e66995c6" target="_top" xlink:title="utf8::internal::is\l_overlong_sequence">
<polygon fill="white" stroke="black" points="379,-0.5 379,-30.5 483,-30.5 483,-0.5 379,-0.5"/>
<text text-anchor="start" x="387" y="-18.5" font-family="Helvetica,sans-Serif" font-size="10.00">utf8::internal::is</text>
<text text-anchor="middle" x="431" y="-7.5" font-family="Helvetica,sans-Serif" font-size="10.00">_overlong_sequence</text>
</a>
</g>
</g>
<!-- Node176&#45;&gt;Node185 -->
<g id="edge15" class="edge"><title>Node176&#45;&gt;Node185</title>
<path fill="none" stroke="midnightblue" d="M276.653,-152.951C290.364,-130.512 327.553,-73.8099 372,-40.5 374.344,-38.743 376.831,-37.0805 379.405,-35.5118"/>
<polygon fill="midnightblue" stroke="midnightblue" points="381.35,-38.4364 388.412,-30.5391 377.966,-32.3083 381.35,-38.4364"/>
</g>
<!-- Node178 -->
<g id="node5" class="node"><title>Node178</title>
<g id="a_node5"><a xlink:href="../../d0/d96/namespaceutf8_1_1internal.html#adf6e0469e279b9562aa461b4c3c1e7e4" target="_top" xlink:title="utf8::internal::mask8">
<polygon fill="white" stroke="black" points="526,-202 526,-221 631,-221 631,-202 526,-202"/>
<text text-anchor="middle" x="578.5" y="-209" font-family="Helvetica,sans-Serif" font-size="10.00">utf8::internal::mask8</text>
</a>
</g>
</g>
<!-- Node177&#45;&gt;Node178 -->
<g id="edge4" class="edge"><title>Node177&#45;&gt;Node178</title>
<path fill="none" stroke="midnightblue" d="M473.038,-294.398C478.877,-291.714 484.695,-288.732 490,-285.5 516.866,-269.133 543.926,-244.752 560.691,-228.502"/>
<polygon fill="midnightblue" stroke="midnightblue" points="563.384,-230.762 568.048,-221.248 558.47,-225.777 563.384,-230.762"/>
</g>
<!-- Node179&#45;&gt;Node178 -->
<g id="edge6" class="edge"><title>Node179&#45;&gt;Node178</title>
<path fill="none" stroke="midnightblue" d="M475.655,-245.798C495.992,-238.95 519.96,-230.878 539.535,-224.286"/>
<polygon fill="midnightblue" stroke="midnightblue" points="540.681,-227.593 549.041,-221.084 538.447,-220.959 540.681,-227.593"/>
</g>
<!-- Node180&#45;&gt;Node178 -->
<g id="edge8" class="edge"><title>Node180&#45;&gt;Node178</title>
<path fill="none" stroke="midnightblue" d="M475.655,-211.5C488.262,-211.5 502.265,-211.5 515.751,-211.5"/>
<polygon fill="midnightblue" stroke="midnightblue" points="515.932,-215 525.932,-211.5 515.932,-208 515.932,-215"/>
</g>
<!-- Node181&#45;&gt;Node178 -->
<g id="edge10" class="edge"><title>Node181&#45;&gt;Node178</title>
<path fill="none" stroke="midnightblue" d="M475.655,-177.202C495.992,-184.05 519.96,-192.122 539.535,-198.714"/>
<polygon fill="midnightblue" stroke="midnightblue" points="538.447,-202.041 549.041,-201.916 540.681,-195.407 538.447,-202.041"/>
</g>
<!-- Node182&#45;&gt;Node178 -->
<g id="edge12" class="edge"><title>Node182&#45;&gt;Node178</title>
<path fill="none" stroke="midnightblue" d="M471.156,-128.535C477.614,-131.532 484.115,-134.883 490,-138.5 516.651,-154.881 543.762,-178.877 560.596,-194.831"/>
<polygon fill="midnightblue" stroke="midnightblue" points="558.357,-197.534 567.988,-201.948 563.212,-192.491 558.357,-197.534"/>
</g>
<!-- Node184 -->
<g id="node11" class="node"><title>Node184</title>
<g id="a_node11"><a xlink:href="../../d0/d96/namespaceutf8_1_1internal.html#a31a185a6bc8b9bf454191a8a95a93595" target="_top" xlink:title="utf8::internal::is\l_surrogate">
<polygon fill="white" stroke="black" points="537,-49.5 537,-79.5 620,-79.5 620,-49.5 537,-49.5"/>
<text text-anchor="start" x="545" y="-67.5" font-family="Helvetica,sans-Serif" font-size="10.00">utf8::internal::is</text>
<text text-anchor="middle" x="578.5" y="-56.5" font-family="Helvetica,sans-Serif" font-size="10.00">_surrogate</text>
</a>
</g>
</g>
<!-- Node183&#45;&gt;Node184 -->
<g id="edge14" class="edge"><title>Node183&#45;&gt;Node184</title>
<path fill="none" stroke="midnightblue" d="M477.638,-64.5C493.225,-64.5 510.75,-64.5 526.717,-64.5"/>
<polygon fill="midnightblue" stroke="midnightblue" points="526.949,-68.0001 536.949,-64.5 526.949,-61.0001 526.949,-68.0001"/>
</g>
</g>
</svg>
        <g id="navigator" transform="translate(0 0)" fill="#404254">
                <rect fill="#f2f5e9" fill-opacity="0.5" stroke="#606060" stroke-width=".5" x="0" y="0" width="60" height="60"/>
                <use id="zoomplus" xlink:href="#zoomPlus" x="17" y="9" onmousedown="handleZoom(evt,'in')"/>
                <use id="zoomminus" xlink:href="#zoomMin" x="42" y="9" onmousedown="handleZoom(evt,'out')"/>
                <use id="reset" xlink:href="#resetDef" x="30" y="36" onmousedown="handleReset()"/>
                <g id="arrowUp" xlink:href="#dirArrow" transform="translate(30 24)" onmousedown="handlePan(0,-1)">
                  <use xlink:href="#rim" fill="#404040">
                        <set attributeName="fill" to="#808080" begin="arrowUp.mouseover" end="arrowUp.mouseout"/>
                  </use>
                  <path fill="none" stroke="white" stroke-width="1.5" d="M0,-3.0v7 M-2.5,-0.5L0,-3.0L2.5,-0.5"/>
                </g>
                <g id="arrowRight" xlink:href="#dirArrow" transform="rotate(90) translate(36 -43)" onmousedown="handlePan(1,0)">
                  <use xlink:href="#rim" fill="#404040">
                        <set attributeName="fill" to="#808080" begin="arrowRight.mouseover" end="arrowRight.mouseout"/>
                  </use>
                  <path fill="none" stroke="white" stroke-width="1.5" d="M0,-3.0v7 M-2.5,-0.5L0,-3.0L2.5,-0.5"/>
                </g>
                <g id="arrowDown" xlink:href="#dirArrow" transform="rotate(180) translate(-30 -48)" onmousedown="handlePan(0,1)">
                  <use xlink:href="#rim" fill="#404040">
                        <set attributeName="fill" to="#808080" begin="arrowDown.mouseover" end="arrowDown.mouseout"/>
                  </use>
                  <path fill="none" stroke="white" stroke-width="1.5" d="M0,-3.0v7 M-2.5,-0.5L0,-3.0L2.5,-0.5"/>
                </g>
                <g id="arrowLeft" xlink:href="#dirArrow" transform="rotate(270) translate(-36 17)" onmousedown="handlePan(-1,0)">
                  <use xlink:href="#rim" fill="#404040">
                        <set attributeName="fill" to="#808080" begin="arrowLeft.mouseover" end="arrowLeft.mouseout"/>
                  </use>
                  <path fill="none" stroke="white" stroke-width="1.5" d="M0,-3.0v7 M-2.5,-0.5L0,-3.0L2.5,-0.5"/>
                </g>
        </g>
        <svg viewBox="0 0 15 15" width="100%" height="30px" preserveAspectRatio="xMaxYMin meet">
         <g id="arrow_out" transform="scale(0.3 0.3)">
          <a xlink:href="namespaceutf8_a75394fbfe91b1122e2602a6d73c5f612_cgraph_org.svg" target="_base">
           <rect id="button" ry="5" rx="5" y="6" x="6" height="38" width="38"
                fill="#f2f5e9" fill-opacity="0.5" stroke="#606060" stroke-width="1.0"/>
           <path id="arrow"
             d="M 11.500037,31.436501 C 11.940474,20.09759 22.043105,11.32322 32.158766,21.979434 L 37.068811,17.246167 C 37.068811,17.246167 37.088388,32 37.088388,32 L 22.160133,31.978069 C 22.160133,31.978069 26.997745,27.140456 26.997745,27.140456 C 18.528582,18.264221 13.291696,25.230495 11.500037,31.436501 z"
             style="fill:#404040;"/>
          </a>
         </g>
        </svg>
</svg>
