<?xml version="1.0" encoding="UTF-8" standalone="no"?>
<!DOCTYPE svg PUBLIC "-//W3C//DTD SVG 1.1//EN"
 "http://www.w3.org/Graphics/SVG/1.1/DTD/svg11.dtd">
<!-- Generated by graphviz version 2.38.0 (20140413.2041)
 -->
<!-- Title: utf8::utf8to16 Pages: 1 -->
<!--zoomable 333 -->
<svg id="main" version="1.1" xmlns="http://www.w3.org/2000/svg" xmlns:xlink="http://www.w3.org/1999/xlink" xml:space="preserve" onload="init(evt)">
<style type="text/css"><![CDATA[
.edge:hover path { stroke: red; }
.edge:hover polygon { stroke: red; fill: red; }
]]></style>
<script type="text/javascript"><![CDATA[
var edges = document.getElementsByTagName('g');
if (edges && edges.length) {
  for (var i=0;i<edges.length;i++) {
    if (edges[i].id.substr(0,4)=='edge') {
      edges[i].setAttribute('class','edge');
    }
  }
}
]]></script>
        <defs>
                <circle id="rim" cx="0" cy="0" r="7"/>
                <circle id="rim2" cx="0" cy="0" r="3.5"/>
                <g id="zoomPlus">
                        <use xlink:href="#rim" fill="#404040">
                                <set attributeName="fill" to="#808080" begin="zoomplus.mouseover" end="zoomplus.mouseout"/>
                        </use>
                        <path d="M-4,0h8M0,-4v8" fill="none" stroke="white" stroke-width="1.5" pointer-events="none"/>
                </g>
                <g id="zoomMin">
                        <use xlink:href="#rim" fill="#404040">
                                <set attributeName="fill" to="#808080" begin="zoomminus.mouseover" end="zoomminus.mouseout"/>
                        </use>
                        <path d="M-4,0h8" fill="none" stroke="white" stroke-width="1.5" pointer-events="none"/>
                </g>
                <g id="dirArrow">
                        <path fill="none" stroke="white" stroke-width="1.5" d="M0,-3.0v7 M-2.5,-0.5L0,-3.0L2.5,-0.5"/>
                </g>
               <g id="resetDef">
                       <use xlink:href="#rim2" fill="#404040">
                               <set attributeName="fill" to="#808080" begin="reset.mouseover" end="reset.mouseout"/>
                       </use>
               </g>
        </defs>

<script type="text/javascript">
var viewWidth = 637;
var viewHeight = 333;
var sectionId = 'dynsection-22';
</script>
<script xlink:href="../../svgpan.js"/>
<svg id="graph" class="graph">
<g id="viewport">
<title>utf8::utf8to16</title>
<polygon fill="white" stroke="none" points="-4,4 -4,-329 633,-329 633,4 -4,4"/>
<!-- Node642 -->
<g id="node1" class="node"><title>Node642</title>
<polygon fill="#bfbfbf" stroke="black" points="0,-153 0,-172 73,-172 73,-153 0,-153"/>
<text text-anchor="middle" x="36.5" y="-160" font-family="Helvetica,sans-Serif" font-size="10.00">utf8::utf8to16</text>
</g>
<!-- Node643 -->
<g id="node2" class="node"><title>Node643</title>
<g id="a_node2"><a xlink:href="../../dd/de8/namespaceutf8.html#afc093dfde66a6f52cb4a5caefe0e580d" target="_top" xlink:title="utf8::next">
<polygon fill="white" stroke="black" points="109,-153 109,-172 166,-172 166,-153 109,-153"/>
<text text-anchor="middle" x="137.5" y="-160" font-family="Helvetica,sans-Serif" font-size="10.00">utf8::next</text>
</a>
</g>
</g>
<!-- Node642&#45;&gt;Node643 -->
<g id="edge1" class="edge"><title>Node642&#45;&gt;Node643</title>
<path fill="none" stroke="midnightblue" d="M73.2413,-162.5C81.4972,-162.5 90.3077,-162.5 98.6502,-162.5"/>
<polygon fill="midnightblue" stroke="midnightblue" points="98.8901,-166 108.89,-162.5 98.8901,-159 98.8901,-166"/>
</g>
<!-- Node644 -->
<g id="node3" class="node"><title>Node644</title>
<g id="a_node3"><a xlink:href="../../d0/d96/namespaceutf8_1_1internal.html#abe95547575fcc81911e381df03f8ebfe" target="_top" xlink:title="utf8::internal::validate_next">
<polygon fill="white" stroke="black" points="202,-153 202,-172 334,-172 334,-153 202,-153"/>
<text text-anchor="middle" x="268" y="-160" font-family="Helvetica,sans-Serif" font-size="10.00">utf8::internal::validate_next</text>
</a>
</g>
</g>
<!-- Node643&#45;&gt;Node644 -->
<g id="edge2" class="edge"><title>Node643&#45;&gt;Node644</title>
<path fill="none" stroke="midnightblue" d="M166.066,-162.5C173.865,-162.5 182.748,-162.5 191.935,-162.5"/>
<polygon fill="midnightblue" stroke="midnightblue" points="191.985,-166 201.985,-162.5 191.985,-159 191.985,-166"/>
</g>
<!-- Node645 -->
<g id="node4" class="node"><title>Node645</title>
<g id="a_node4"><a xlink:href="../../d0/d96/namespaceutf8_1_1internal.html#aadbe437cba7bfcc4df2638f633e9787c" target="_top" xlink:title="utf8::internal::sequence\l_length">
<polygon fill="white" stroke="black" points="370,-294.5 370,-324.5 488,-324.5 488,-294.5 370,-294.5"/>
<text text-anchor="start" x="378" y="-312.5" font-family="Helvetica,sans-Serif" font-size="10.00">utf8::internal::sequence</text>
<text text-anchor="middle" x="429" y="-301.5" font-family="Helvetica,sans-Serif" font-size="10.00">_length</text>
</a>
</g>
</g>
<!-- Node644&#45;&gt;Node645 -->
<g id="edge3" class="edge"><title>Node644&#45;&gt;Node645</title>
<path fill="none" stroke="midnightblue" d="M274.6,-172.173C288.198,-194.897 325.159,-252.266 370,-285.5 371.849,-286.871 373.789,-288.179 375.79,-289.425"/>
<polygon fill="midnightblue" stroke="midnightblue" points="374.442,-292.68 384.88,-294.496 377.852,-286.568 374.442,-292.68"/>
</g>
<!-- Node647 -->
<g id="node6" class="node"><title>Node647</title>
<g id="a_node6"><a xlink:href="../../d0/d96/namespaceutf8_1_1internal.html#a6e5df73716136aec55e8fcf3309038b6" target="_top" xlink:title="get_sequence_x functions decode utf&#45;8 sequences of the length x ">
<polygon fill="white" stroke="black" points="384.5,-245.5 384.5,-275.5 473.5,-275.5 473.5,-245.5 384.5,-245.5"/>
<text text-anchor="start" x="392.5" y="-263.5" font-family="Helvetica,sans-Serif" font-size="10.00">utf8::internal::get</text>
<text text-anchor="middle" x="429" y="-252.5" font-family="Helvetica,sans-Serif" font-size="10.00">_sequence_1</text>
</a>
</g>
</g>
<!-- Node644&#45;&gt;Node647 -->
<g id="edge5" class="edge"><title>Node644&#45;&gt;Node647</title>
<path fill="none" stroke="midnightblue" d="M280.201,-172.115C298.214,-187.243 335.138,-216.893 370,-236.5 372.849,-238.103 375.828,-239.659 378.865,-241.159"/>
<polygon fill="midnightblue" stroke="midnightblue" points="377.546,-244.405 388.087,-245.474 380.513,-238.065 377.546,-244.405"/>
</g>
<!-- Node648 -->
<g id="node7" class="node"><title>Node648</title>
<g id="a_node7"><a xlink:href="../../d0/d96/namespaceutf8_1_1internal.html#a9d641b9546be985f9f0fd4955ac42a24" target="_top" xlink:title="utf8::internal::get\l_sequence_2">
<polygon fill="white" stroke="black" points="384.5,-196.5 384.5,-226.5 473.5,-226.5 473.5,-196.5 384.5,-196.5"/>
<text text-anchor="start" x="392.5" y="-214.5" font-family="Helvetica,sans-Serif" font-size="10.00">utf8::internal::get</text>
<text text-anchor="middle" x="429" y="-203.5" font-family="Helvetica,sans-Serif" font-size="10.00">_sequence_2</text>
</a>
</g>
</g>
<!-- Node644&#45;&gt;Node648 -->
<g id="edge7" class="edge"><title>Node644&#45;&gt;Node648</title>
<path fill="none" stroke="midnightblue" d="M300.034,-172.064C321.257,-178.604 349.931,-187.441 374.756,-195.092"/>
<polygon fill="midnightblue" stroke="midnightblue" points="373.826,-198.467 384.413,-198.068 375.887,-191.778 373.826,-198.467"/>
</g>
<!-- Node649 -->
<g id="node8" class="node"><title>Node649</title>
<g id="a_node8"><a xlink:href="../../d0/d96/namespaceutf8_1_1internal.html#ac1809a1fb3fa6983d64a0d3a39646008" target="_top" xlink:title="utf8::internal::get\l_sequence_3">
<polygon fill="white" stroke="black" points="384.5,-147.5 384.5,-177.5 473.5,-177.5 473.5,-147.5 384.5,-147.5"/>
<text text-anchor="start" x="392.5" y="-165.5" font-family="Helvetica,sans-Serif" font-size="10.00">utf8::internal::get</text>
<text text-anchor="middle" x="429" y="-154.5" font-family="Helvetica,sans-Serif" font-size="10.00">_sequence_3</text>
</a>
</g>
</g>
<!-- Node644&#45;&gt;Node649 -->
<g id="edge9" class="edge"><title>Node644&#45;&gt;Node649</title>
<path fill="none" stroke="midnightblue" d="M334.13,-162.5C347.394,-162.5 361.209,-162.5 374.033,-162.5"/>
<polygon fill="midnightblue" stroke="midnightblue" points="374.076,-166 384.076,-162.5 374.076,-159 374.076,-166"/>
</g>
<!-- Node650 -->
<g id="node9" class="node"><title>Node650</title>
<g id="a_node9"><a xlink:href="../../d0/d96/namespaceutf8_1_1internal.html#ad1958e7c6746ba6b1fbb0d81b88b346c" target="_top" xlink:title="utf8::internal::get\l_sequence_4">
<polygon fill="white" stroke="black" points="384.5,-98.5 384.5,-128.5 473.5,-128.5 473.5,-98.5 384.5,-98.5"/>
<text text-anchor="start" x="392.5" y="-116.5" font-family="Helvetica,sans-Serif" font-size="10.00">utf8::internal::get</text>
<text text-anchor="middle" x="429" y="-105.5" font-family="Helvetica,sans-Serif" font-size="10.00">_sequence_4</text>
</a>
</g>
</g>
<!-- Node644&#45;&gt;Node650 -->
<g id="edge11" class="edge"><title>Node644&#45;&gt;Node650</title>
<path fill="none" stroke="midnightblue" d="M300.034,-152.936C321.257,-146.396 349.931,-137.559 374.756,-129.908"/>
<polygon fill="midnightblue" stroke="midnightblue" points="375.887,-133.222 384.413,-126.932 373.826,-126.533 375.887,-133.222"/>
</g>
<!-- Node651 -->
<g id="node10" class="node"><title>Node651</title>
<g id="a_node10"><a xlink:href="../../d0/d96/namespaceutf8_1_1internal.html#a97b553137aaeda6e8ca6f8d46f78fd79" target="_top" xlink:title="utf8::internal::is\l_code_point_valid">
<polygon fill="white" stroke="black" points="382.5,-49.5 382.5,-79.5 475.5,-79.5 475.5,-49.5 382.5,-49.5"/>
<text text-anchor="start" x="390.5" y="-67.5" font-family="Helvetica,sans-Serif" font-size="10.00">utf8::internal::is</text>
<text text-anchor="middle" x="429" y="-56.5" font-family="Helvetica,sans-Serif" font-size="10.00">_code_point_valid</text>
</a>
</g>
</g>
<!-- Node644&#45;&gt;Node651 -->
<g id="edge13" class="edge"><title>Node644&#45;&gt;Node651</title>
<path fill="none" stroke="midnightblue" d="M280.555,-152.846C298.753,-137.952 335.57,-109.049 370,-89.5 373.389,-87.5755 376.956,-85.7034 380.585,-83.9063"/>
<polygon fill="midnightblue" stroke="midnightblue" points="382.128,-87.0483 389.669,-79.6064 379.133,-80.7213 382.128,-87.0483"/>
</g>
<!-- Node653 -->
<g id="node12" class="node"><title>Node653</title>
<g id="a_node12"><a xlink:href="../../d0/d96/namespaceutf8_1_1internal.html#a3160f6f24dff465f64f83cb0e66995c6" target="_top" xlink:title="utf8::internal::is\l_overlong_sequence">
<polygon fill="white" stroke="black" points="377,-0.5 377,-30.5 481,-30.5 481,-0.5 377,-0.5"/>
<text text-anchor="start" x="385" y="-18.5" font-family="Helvetica,sans-Serif" font-size="10.00">utf8::internal::is</text>
<text text-anchor="middle" x="429" y="-7.5" font-family="Helvetica,sans-Serif" font-size="10.00">_overlong_sequence</text>
</a>
</g>
</g>
<!-- Node644&#45;&gt;Node653 -->
<g id="edge15" class="edge"><title>Node644&#45;&gt;Node653</title>
<path fill="none" stroke="midnightblue" d="M274.653,-152.951C288.364,-130.512 325.553,-73.8099 370,-40.5 372.344,-38.743 374.831,-37.0805 377.405,-35.5118"/>
<polygon fill="midnightblue" stroke="midnightblue" points="379.35,-38.4364 386.412,-30.5391 375.966,-32.3083 379.35,-38.4364"/>
</g>
<!-- Node646 -->
<g id="node5" class="node"><title>Node646</title>
<g id="a_node5"><a xlink:href="../../d0/d96/namespaceutf8_1_1internal.html#adf6e0469e279b9562aa461b4c3c1e7e4" target="_top" xlink:title="utf8::internal::mask8">
<polygon fill="white" stroke="black" points="524,-202 524,-221 629,-221 629,-202 524,-202"/>
<text text-anchor="middle" x="576.5" y="-209" font-family="Helvetica,sans-Serif" font-size="10.00">utf8::internal::mask8</text>
</a>
</g>
</g>
<!-- Node645&#45;&gt;Node646 -->
<g id="edge4" class="edge"><title>Node645&#45;&gt;Node646</title>
<path fill="none" stroke="midnightblue" d="M471.038,-294.398C476.877,-291.714 482.695,-288.732 488,-285.5 514.866,-269.133 541.926,-244.752 558.691,-228.502"/>
<polygon fill="midnightblue" stroke="midnightblue" points="561.384,-230.762 566.048,-221.248 556.47,-225.777 561.384,-230.762"/>
</g>
<!-- Node647&#45;&gt;Node646 -->
<g id="edge6" class="edge"><title>Node647&#45;&gt;Node646</title>
<path fill="none" stroke="midnightblue" d="M473.655,-245.798C493.992,-238.95 517.96,-230.878 537.535,-224.286"/>
<polygon fill="midnightblue" stroke="midnightblue" points="538.681,-227.593 547.041,-221.084 536.447,-220.959 538.681,-227.593"/>
</g>
<!-- Node648&#45;&gt;Node646 -->
<g id="edge8" class="edge"><title>Node648&#45;&gt;Node646</title>
<path fill="none" stroke="midnightblue" d="M473.655,-211.5C486.262,-211.5 500.265,-211.5 513.751,-211.5"/>
<polygon fill="midnightblue" stroke="midnightblue" points="513.932,-215 523.932,-211.5 513.932,-208 513.932,-215"/>
</g>
<!-- Node649&#45;&gt;Node646 -->
<g id="edge10" class="edge"><title>Node649&#45;&gt;Node646</title>
<path fill="none" stroke="midnightblue" d="M473.655,-177.202C493.992,-184.05 517.96,-192.122 537.535,-198.714"/>
<polygon fill="midnightblue" stroke="midnightblue" points="536.447,-202.041 547.041,-201.916 538.681,-195.407 536.447,-202.041"/>
</g>
<!-- Node650&#45;&gt;Node646 -->
<g id="edge12" class="edge"><title>Node650&#45;&gt;Node646</title>
<path fill="none" stroke="midnightblue" d="M469.156,-128.535C475.614,-131.532 482.115,-134.883 488,-138.5 514.651,-154.881 541.762,-178.877 558.596,-194.831"/>
<polygon fill="midnightblue" stroke="midnightblue" points="556.357,-197.534 565.988,-201.948 561.212,-192.491 556.357,-197.534"/>
</g>
<!-- Node652 -->
<g id="node11" class="node"><title>Node652</title>
<g id="a_node11"><a xlink:href="../../d0/d96/namespaceutf8_1_1internal.html#a31a185a6bc8b9bf454191a8a95a93595" target="_top" xlink:title="utf8::internal::is\l_surrogate">
<polygon fill="white" stroke="black" points="535,-49.5 535,-79.5 618,-79.5 618,-49.5 535,-49.5"/>
<text text-anchor="start" x="543" y="-67.5" font-family="Helvetica,sans-Serif" font-size="10.00">utf8::internal::is</text>
<text text-anchor="middle" x="576.5" y="-56.5" font-family="Helvetica,sans-Serif" font-size="10.00">_surrogate</text>
</a>
</g>
</g>
<!-- Node651&#45;&gt;Node652 -->
<g id="edge14" class="edge"><title>Node651&#45;&gt;Node652</title>
<path fill="none" stroke="midnightblue" d="M475.638,-64.5C491.225,-64.5 508.75,-64.5 524.717,-64.5"/>
<polygon fill="midnightblue" stroke="midnightblue" points="524.949,-68.0001 534.949,-64.5 524.949,-61.0001 524.949,-68.0001"/>
</g>
</g>
</svg>
        <g id="navigator" transform="translate(0 0)" fill="#404254">
                <rect fill="#f2f5e9" fill-opacity="0.5" stroke="#606060" stroke-width=".5" x="0" y="0" width="60" height="60"/>
                <use id="zoomplus" xlink:href="#zoomPlus" x="17" y="9" onmousedown="handleZoom(evt,'in')"/>
                <use id="zoomminus" xlink:href="#zoomMin" x="42" y="9" onmousedown="handleZoom(evt,'out')"/>
                <use id="reset" xlink:href="#resetDef" x="30" y="36" onmousedown="handleReset()"/>
                <g id="arrowUp" xlink:href="#dirArrow" transform="translate(30 24)" onmousedown="handlePan(0,-1)">
                  <use xlink:href="#rim" fill="#404040">
                        <set attributeName="fill" to="#808080" begin="arrowUp.mouseover" end="arrowUp.mouseout"/>
                  </use>
                  <path fill="none" stroke="white" stroke-width="1.5" d="M0,-3.0v7 M-2.5,-0.5L0,-3.0L2.5,-0.5"/>
                </g>
                <g id="arrowRight" xlink:href="#dirArrow" transform="rotate(90) translate(36 -43)" onmousedown="handlePan(1,0)">
                  <use xlink:href="#rim" fill="#404040">
                        <set attributeName="fill" to="#808080" begin="arrowRight.mouseover" end="arrowRight.mouseout"/>
                  </use>
                  <path fill="none" stroke="white" stroke-width="1.5" d="M0,-3.0v7 M-2.5,-0.5L0,-3.0L2.5,-0.5"/>
                </g>
                <g id="arrowDown" xlink:href="#dirArrow" transform="rotate(180) translate(-30 -48)" onmousedown="handlePan(0,1)">
                  <use xlink:href="#rim" fill="#404040">
                        <set attributeName="fill" to="#808080" begin="arrowDown.mouseover" end="arrowDown.mouseout"/>
                  </use>
                  <path fill="none" stroke="white" stroke-width="1.5" d="M0,-3.0v7 M-2.5,-0.5L0,-3.0L2.5,-0.5"/>
                </g>
                <g id="arrowLeft" xlink:href="#dirArrow" transform="rotate(270) translate(-36 17)" onmousedown="handlePan(-1,0)">
                  <use xlink:href="#rim" fill="#404040">
                        <set attributeName="fill" to="#808080" begin="arrowLeft.mouseover" end="arrowLeft.mouseout"/>
                  </use>
                  <path fill="none" stroke="white" stroke-width="1.5" d="M0,-3.0v7 M-2.5,-0.5L0,-3.0L2.5,-0.5"/>
                </g>
        </g>
        <svg viewBox="0 0 15 15" width="100%" height="30px" preserveAspectRatio="xMaxYMin meet">
         <g id="arrow_out" transform="scale(0.3 0.3)">
          <a xlink:href="namespaceutf8_a6404050074139c367a42f0a911779903_cgraph_org.svg" target="_base">
           <rect id="button" ry="5" rx="5" y="6" x="6" height="38" width="38"
                fill="#f2f5e9" fill-opacity="0.5" stroke="#606060" stroke-width="1.0"/>
           <path id="arrow"
             d="M 11.500037,31.436501 C 11.940474,20.09759 22.043105,11.32322 32.158766,21.979434 L 37.068811,17.246167 C 37.068811,17.246167 37.088388,32 37.088388,32 L 22.160133,31.978069 C 22.160133,31.978069 26.997745,27.140456 26.997745,27.140456 C 18.528582,18.264221 13.291696,25.230495 11.500037,31.436501 z"
             style="fill:#404040;"/>
          </a>
         </g>
        </svg>
</svg>
