<?xml version="1.0" encoding="UTF-8" standalone="no"?>
<!DOCTYPE svg PUBLIC "-//W3C//DTD SVG 1.1//EN"
 "http://www.w3.org/Graphics/SVG/1.1/DTD/svg11.dtd">
<!-- Generated by graphviz version 2.38.0 (20140413.2041)
 -->
<!-- Title: source/main/gui/panels/GUI_TextureToolWindow.h Pages: 1 -->
<!--zoomable 375 -->
<svg id="main" version="1.1" xmlns="http://www.w3.org/2000/svg" xmlns:xlink="http://www.w3.org/1999/xlink" xml:space="preserve" onload="init(evt)">
<style type="text/css"><![CDATA[
.edge:hover path { stroke: red; }
.edge:hover polygon { stroke: red; fill: red; }
]]></style>
<script type="text/javascript"><![CDATA[
var edges = document.getElementsByTagName('g');
if (edges && edges.length) {
  for (var i=0;i<edges.length;i++) {
    if (edges[i].id.substr(0,4)=='edge') {
      edges[i].setAttribute('class','edge');
    }
  }
}
]]></script>
        <defs>
                <circle id="rim" cx="0" cy="0" r="7"/>
                <circle id="rim2" cx="0" cy="0" r="3.5"/>
                <g id="zoomPlus">
                        <use xlink:href="#rim" fill="#404040">
                                <set attributeName="fill" to="#808080" begin="zoomplus.mouseover" end="zoomplus.mouseout"/>
                        </use>
                        <path d="M-4,0h8M0,-4v8" fill="none" stroke="white" stroke-width="1.5" pointer-events="none"/>
                </g>
                <g id="zoomMin">
                        <use xlink:href="#rim" fill="#404040">
                                <set attributeName="fill" to="#808080" begin="zoomminus.mouseover" end="zoomminus.mouseout"/>
                        </use>
                        <path d="M-4,0h8" fill="none" stroke="white" stroke-width="1.5" pointer-events="none"/>
                </g>
                <g id="dirArrow">
                        <path fill="none" stroke="white" stroke-width="1.5" d="M0,-3.0v7 M-2.5,-0.5L0,-3.0L2.5,-0.5"/>
                </g>
               <g id="resetDef">
                       <use xlink:href="#rim2" fill="#404040">
                               <set attributeName="fill" to="#808080" begin="reset.mouseover" end="reset.mouseout"/>
                       </use>
               </g>
        </defs>

<script type="text/javascript">
var viewWidth = 1744;
var viewHeight = 375;
var sectionId = 'dynsection-0';
</script>
<script xlink:href="../../svgpan.js"/>
<svg id="graph" class="graph">
<g id="viewport">
<title>source/main/gui/panels/GUI_TextureToolWindow.h</title>
<polygon fill="white" stroke="none" points="-4,4 -4,-371 1740,-371 1740,4 -4,4"/>
<!-- Node0 -->
<g id="node1" class="node"><title>Node0</title>
<polygon fill="#bfbfbf" stroke="black" points="795.5,-336.5 795.5,-366.5 929.5,-366.5 929.5,-336.5 795.5,-336.5"/>
<text text-anchor="start" x="803.5" y="-354.5" font-family="Helvetica,sans-Serif" font-size="10.00">source/main/gui/panels</text>
<text text-anchor="middle" x="862.5" y="-343.5" font-family="Helvetica,sans-Serif" font-size="10.00">/GUI_TextureToolWindow.h</text>
</g>
<!-- Node1 -->
<g id="node2" class="node"><title>Node1</title>
<g id="a_node2"><a xlink:href="../../d8/d9c/_ro_r_prerequisites_8h.html" target="_top" xlink:title="RoRPrerequisites.h">
<polygon fill="white" stroke="black" points="872,-112.5 872,-131.5 973,-131.5 973,-112.5 872,-112.5"/>
<text text-anchor="middle" x="922.5" y="-119.5" font-family="Helvetica,sans-Serif" font-size="10.00">RoRPrerequisites.h</text>
</a>
</g>
</g>
<!-- Node0&#45;&gt;Node1 -->
<g id="edge1" class="edge"><title>Node0&#45;&gt;Node1</title>
<path fill="none" stroke="midnightblue" d="M851.08,-336.208C833.61,-312.503 803.931,-263.725 820.5,-224 836.478,-185.694 874.837,-154.482 899.694,-137.346"/>
<polygon fill="midnightblue" stroke="midnightblue" points="901.802,-140.147 908.174,-131.683 897.914,-134.326 901.802,-140.147"/>
</g>
<!-- Node19 -->
<g id="node20" class="node"><title>Node19</title>
<g id="a_node20"><a xlink:href="../../de/dec/_singleton_8h.html" target="_top" xlink:title="Singleton.h">
<polygon fill="white" stroke="black" points="830,-224.5 830,-243.5 895,-243.5 895,-224.5 830,-224.5"/>
<text text-anchor="middle" x="862.5" y="-231.5" font-family="Helvetica,sans-Serif" font-size="10.00">Singleton.h</text>
</a>
</g>
</g>
<!-- Node0&#45;&gt;Node19 -->
<g id="edge20" class="edge"><title>Node0&#45;&gt;Node19</title>
<path fill="none" stroke="midnightblue" d="M862.5,-336.337C862.5,-315.622 862.5,-277.016 862.5,-253.899"/>
<polygon fill="midnightblue" stroke="midnightblue" points="866,-253.669 862.5,-243.669 859,-253.669 866,-253.669"/>
</g>
<!-- Node20 -->
<g id="node21" class="node"><title>Node20</title>
<g id="a_node21"><a xlink:href="../../d8/d63/_base_layout_8h.html" target="_top" xlink:title="mygui/BaseLayout.h">
<polygon fill="white" stroke="black" points="899.5,-280.5 899.5,-299.5 1005.5,-299.5 1005.5,-280.5 899.5,-280.5"/>
<text text-anchor="middle" x="952.5" y="-287.5" font-family="Helvetica,sans-Serif" font-size="10.00">mygui/BaseLayout.h</text>
</a>
</g>
</g>
<!-- Node0&#45;&gt;Node20 -->
<g id="edge22" class="edge"><title>Node0&#45;&gt;Node20</title>
<path fill="none" stroke="midnightblue" d="M883.829,-336.399C897.985,-327.04 916.511,-314.792 930.753,-305.377"/>
<polygon fill="midnightblue" stroke="midnightblue" points="932.993,-308.092 939.404,-299.658 929.132,-302.253 932.993,-308.092"/>
</g>
<!-- Node2 -->
<g id="node3" class="node"><title>Node2</title>
<polygon fill="white" stroke="#bfbfbf" points="0,-56.5 0,-75.5 103,-75.5 103,-56.5 0,-56.5"/>
<text text-anchor="middle" x="51.5" y="-63.5" font-family="Helvetica,sans-Serif" font-size="10.00">OgrePrerequisites.h</text>
</g>
<!-- Node1&#45;&gt;Node2 -->
<g id="edge2" class="edge"><title>Node1&#45;&gt;Node2</title>
<path fill="none" stroke="midnightblue" d="M871.602,-119.828C745.033,-116.558 405.756,-105.623 113.125,-76.078"/>
<polygon fill="midnightblue" stroke="midnightblue" points="113.475,-72.5956 103.172,-75.064 112.766,-79.5596 113.475,-72.5956"/>
</g>
<!-- Node3 -->
<g id="node4" class="node"><title>Node3</title>
<polygon fill="white" stroke="#bfbfbf" points="121,-56.5 121,-75.5 236,-75.5 236,-56.5 121,-56.5"/>
<text text-anchor="middle" x="178.5" y="-63.5" font-family="Helvetica,sans-Serif" font-size="10.00">OgreAxisAlignedBox.h</text>
</g>
<!-- Node1&#45;&gt;Node3 -->
<g id="edge3" class="edge"><title>Node1&#45;&gt;Node3</title>
<path fill="none" stroke="midnightblue" d="M871.872,-118.799C760.695,-113.714 486.662,-99.8071 246.194,-75.9988"/>
<polygon fill="midnightblue" stroke="midnightblue" points="246.513,-72.5132 236.215,-75.003 245.818,-79.4787 246.513,-72.5132"/>
</g>
<!-- Node4 -->
<g id="node5" class="node"><title>Node4</title>
<polygon fill="white" stroke="#bfbfbf" points="254.5,-56.5 254.5,-75.5 352.5,-75.5 352.5,-56.5 254.5,-56.5"/>
<text text-anchor="middle" x="303.5" y="-63.5" font-family="Helvetica,sans-Serif" font-size="10.00">OgreColourValue.h</text>
</g>
<!-- Node1&#45;&gt;Node4 -->
<g id="edge4" class="edge"><title>Node1&#45;&gt;Node4</title>
<path fill="none" stroke="midnightblue" d="M871.707,-118.187C774.804,-112.546 556.654,-98.5305 362.612,-76.0465"/>
<polygon fill="midnightblue" stroke="midnightblue" points="362.852,-72.5508 352.513,-74.866 362.039,-79.5035 362.852,-72.5508"/>
</g>
<!-- Node5 -->
<g id="node6" class="node"><title>Node5</title>
<polygon fill="white" stroke="#bfbfbf" points="371,-56.5 371,-75.5 472,-75.5 472,-56.5 371,-56.5"/>
<text text-anchor="middle" x="421.5" y="-63.5" font-family="Helvetica,sans-Serif" font-size="10.00">OgreHeaderPrefix.h</text>
</g>
<!-- Node1&#45;&gt;Node5 -->
<g id="edge5" class="edge"><title>Node1&#45;&gt;Node5</title>
<path fill="none" stroke="midnightblue" d="M871.695,-116.658C791.242,-109.6 629.348,-94.6578 482.131,-76.155"/>
<polygon fill="midnightblue" stroke="midnightblue" points="482.368,-72.6572 472.007,-74.874 481.489,-79.6018 482.368,-72.6572"/>
</g>
<!-- Node6 -->
<g id="node7" class="node"><title>Node6</title>
<polygon fill="white" stroke="#bfbfbf" points="490,-56.5 490,-75.5 589,-75.5 589,-56.5 490,-56.5"/>
<text text-anchor="middle" x="539.5" y="-63.5" font-family="Helvetica,sans-Serif" font-size="10.00">OgreLogManager.h</text>
</g>
<!-- Node1&#45;&gt;Node6 -->
<g id="edge6" class="edge"><title>Node1&#45;&gt;Node6</title>
<path fill="none" stroke="midnightblue" d="M871.799,-114.241C809.886,-105.929 701.692,-91.2177 599.367,-76.2567"/>
<polygon fill="midnightblue" stroke="midnightblue" points="599.568,-72.7488 589.166,-74.7615 598.553,-79.6748 599.568,-72.7488"/>
</g>
<!-- Node7 -->
<g id="node8" class="node"><title>Node7</title>
<polygon fill="white" stroke="#bfbfbf" points="607,-56.5 607,-75.5 700,-75.5 700,-56.5 607,-56.5"/>
<text text-anchor="middle" x="653.5" y="-63.5" font-family="Helvetica,sans-Serif" font-size="10.00">OgreQuaternion.h</text>
</g>
<!-- Node1&#45;&gt;Node7 -->
<g id="edge7" class="edge"><title>Node1&#45;&gt;Node7</title>
<path fill="none" stroke="midnightblue" d="M879.876,-112.444C832.753,-102.984 756.808,-87.7384 706.041,-77.5472"/>
<polygon fill="midnightblue" stroke="midnightblue" points="706.418,-74.0531 695.924,-75.5164 705.04,-80.9162 706.418,-74.0531"/>
</g>
<!-- Node8 -->
<g id="node9" class="node"><title>Node8</title>
<polygon fill="white" stroke="#bfbfbf" points="718,-56.5 718,-75.5 789,-75.5 789,-56.5 718,-56.5"/>
<text text-anchor="middle" x="753.5" y="-63.5" font-family="Helvetica,sans-Serif" font-size="10.00">OgreString.h</text>
</g>
<!-- Node1&#45;&gt;Node8 -->
<g id="edge8" class="edge"><title>Node1&#45;&gt;Node8</title>
<path fill="none" stroke="midnightblue" d="M895.721,-112.444C867.167,-103.32 821.767,-88.8133 789.963,-78.6509"/>
<polygon fill="midnightblue" stroke="midnightblue" points="790.744,-75.2262 780.153,-75.5164 788.614,-81.8941 790.744,-75.2262"/>
</g>
<!-- Node9 -->
<g id="node10" class="node"><title>Node9</title>
<polygon fill="white" stroke="#bfbfbf" points="807.5,-56.5 807.5,-75.5 919.5,-75.5 919.5,-56.5 807.5,-56.5"/>
<text text-anchor="middle" x="863.5" y="-63.5" font-family="Helvetica,sans-Serif" font-size="10.00">OgreStringConverter.h</text>
</g>
<!-- Node1&#45;&gt;Node9 -->
<g id="edge9" class="edge"><title>Node1&#45;&gt;Node9</title>
<path fill="none" stroke="midnightblue" d="M913.021,-112.324C904.299,-104.341 891.157,-92.3128 880.602,-82.6529"/>
<polygon fill="midnightblue" stroke="midnightblue" points="882.892,-80.0036 873.152,-75.8339 878.166,-85.1674 882.892,-80.0036"/>
</g>
<!-- Node10 -->
<g id="node11" class="node"><title>Node10</title>
<polygon fill="white" stroke="#bfbfbf" points="938,-56.5 938,-75.5 1027,-75.5 1027,-56.5 938,-56.5"/>
<text text-anchor="middle" x="982.5" y="-63.5" font-family="Helvetica,sans-Serif" font-size="10.00">OgreUTFString.h</text>
</g>
<!-- Node1&#45;&gt;Node10 -->
<g id="edge10" class="edge"><title>Node1&#45;&gt;Node10</title>
<path fill="none" stroke="midnightblue" d="M932.14,-112.324C941.01,-104.341 954.375,-92.3128 965.108,-82.6529"/>
<polygon fill="midnightblue" stroke="midnightblue" points="967.593,-85.1251 972.685,-75.8339 962.91,-79.922 967.593,-85.1251"/>
</g>
<!-- Node11 -->
<g id="node12" class="node"><title>Node11</title>
<polygon fill="white" stroke="#bfbfbf" points="1045.5,-56.5 1045.5,-75.5 1125.5,-75.5 1125.5,-56.5 1045.5,-56.5"/>
<text text-anchor="middle" x="1085.5" y="-63.5" font-family="Helvetica,sans-Serif" font-size="10.00">OgreVector2.h</text>
</g>
<!-- Node1&#45;&gt;Node11 -->
<g id="edge11" class="edge"><title>Node1&#45;&gt;Node11</title>
<path fill="none" stroke="midnightblue" d="M948.328,-112.444C975.749,-103.359 1019.28,-88.9388 1049.93,-78.7831"/>
<polygon fill="midnightblue" stroke="midnightblue" points="1051.4,-81.9837 1059.79,-75.5164 1049.2,-75.3389 1051.4,-81.9837"/>
</g>
<!-- Node12 -->
<g id="node13" class="node"><title>Node12</title>
<polygon fill="white" stroke="#bfbfbf" points="1143.5,-56.5 1143.5,-75.5 1223.5,-75.5 1223.5,-56.5 1143.5,-56.5"/>
<text text-anchor="middle" x="1183.5" y="-63.5" font-family="Helvetica,sans-Serif" font-size="10.00">OgreVector3.h</text>
</g>
<!-- Node1&#45;&gt;Node12 -->
<g id="edge12" class="edge"><title>Node1&#45;&gt;Node12</title>
<path fill="none" stroke="midnightblue" d="M963.856,-112.444C1009.85,-102.928 1084.13,-87.5588 1133.39,-77.3679"/>
<polygon fill="midnightblue" stroke="midnightblue" points="1134.11,-80.7925 1143.19,-75.339 1132.69,-73.9377 1134.11,-80.7925"/>
</g>
<!-- Node13 -->
<g id="node14" class="node"><title>Node13</title>
<g id="a_node14"><a xlink:href="../../d3/d73/_forward_declarations_8h.html" target="_top" xlink:title="Global forward declarations. ">
<polygon fill="white" stroke="black" points="1236,-0.5 1236,-19.5 1349,-19.5 1349,-0.5 1236,-0.5"/>
<text text-anchor="middle" x="1292.5" y="-7.5" font-family="Helvetica,sans-Serif" font-size="10.00">ForwardDeclarations.h</text>
</a>
</g>
</g>
<!-- Node1&#45;&gt;Node13 -->
<g id="edge13" class="edge"><title>Node1&#45;&gt;Node13</title>
<path fill="none" stroke="midnightblue" d="M973.006,-117.766C1048.98,-112.22 1188.47,-99.1886 1232.5,-76 1253.43,-64.9766 1270.89,-43.6868 1281.49,-28.4757"/>
<polygon fill="midnightblue" stroke="midnightblue" points="1284.54,-30.2017 1287.16,-19.9362 1278.71,-26.3264 1284.54,-30.2017"/>
</g>
<!-- Node14 -->
<g id="node15" class="node"><title>Node14</title>
<g id="a_node15"><a xlink:href="../../d7/dfa/_global_environment_8h.html" target="_top" xlink:title="GlobalEnvironment.h">
<polygon fill="white" stroke="black" points="1279.5,-56.5 1279.5,-75.5 1385.5,-75.5 1385.5,-56.5 1279.5,-56.5"/>
<text text-anchor="middle" x="1332.5" y="-63.5" font-family="Helvetica,sans-Serif" font-size="10.00">GlobalEnvironment.h</text>
</a>
</g>
</g>
<!-- Node1&#45;&gt;Node14 -->
<g id="edge14" class="edge"><title>Node1&#45;&gt;Node14</title>
<path fill="none" stroke="midnightblue" d="M973.068,-114.415C1039.98,-105.691 1161.61,-89.7928 1265.5,-76 1266.78,-75.8306 1268.07,-75.6592 1269.37,-75.4862"/>
<polygon fill="midnightblue" stroke="midnightblue" points="1270.02,-78.9297 1279.47,-74.1385 1269.1,-71.9912 1270.02,-78.9297"/>
</g>
<!-- Node15 -->
<g id="node16" class="node"><title>Node15</title>
<g id="a_node16"><a xlink:href="../../dc/de5/_zeroed_memory_allocator_8h.html" target="_top" xlink:title="ZeroedMemoryAllocator.h">
<polygon fill="white" stroke="black" points="1403.5,-56.5 1403.5,-75.5 1531.5,-75.5 1531.5,-56.5 1403.5,-56.5"/>
<text text-anchor="middle" x="1467.5" y="-63.5" font-family="Helvetica,sans-Serif" font-size="10.00">ZeroedMemoryAllocator.h</text>
</a>
</g>
</g>
<!-- Node1&#45;&gt;Node15 -->
<g id="edge16" class="edge"><title>Node1&#45;&gt;Node15</title>
<path fill="none" stroke="midnightblue" d="M973.188,-116.63C1057.9,-109.225 1233.87,-93.4121 1393.42,-76.0919"/>
<polygon fill="midnightblue" stroke="midnightblue" points="1393.86,-79.5651 1403.42,-75.0021 1393.1,-72.6063 1393.86,-79.5651"/>
</g>
<!-- Node16 -->
<g id="node17" class="node"><title>Node16</title>
<g id="a_node17"><a xlink:href="../../d7/d85/_bit_flags_8h.html" target="_top" xlink:title="BitFlags.h">
<polygon fill="white" stroke="black" points="1550,-56.5 1550,-75.5 1611,-75.5 1611,-56.5 1550,-56.5"/>
<text text-anchor="middle" x="1580.5" y="-63.5" font-family="Helvetica,sans-Serif" font-size="10.00">BitFlags.h</text>
</a>
</g>
</g>
<!-- Node1&#45;&gt;Node16 -->
<g id="edge17" class="edge"><title>Node1&#45;&gt;Node16</title>
<path fill="none" stroke="midnightblue" d="M973.247,-119.855C1077.58,-116.95 1323.79,-107.262 1539.65,-75.8964"/>
<polygon fill="midnightblue" stroke="midnightblue" points="1540.19,-79.3537 1549.58,-74.4348 1539.17,-72.4283 1540.19,-79.3537"/>
</g>
<!-- Node18 -->
<g id="node19" class="node"><title>Node18</title>
<polygon fill="white" stroke="#bfbfbf" points="1629,-56.5 1629,-75.5 1736,-75.5 1736,-56.5 1629,-56.5"/>
<text text-anchor="middle" x="1682.5" y="-63.5" font-family="Helvetica,sans-Serif" font-size="10.00">MyGUI_Prerequest.h</text>
</g>
<!-- Node1&#45;&gt;Node18 -->
<g id="edge19" class="edge"><title>Node1&#45;&gt;Node18</title>
<path fill="none" stroke="midnightblue" d="M973.336,-119.068C1086.97,-114.458 1370.38,-101.345 1618.62,-76.0032"/>
<polygon fill="midnightblue" stroke="midnightblue" points="1619.33,-79.4483 1628.92,-74.9423 1618.61,-72.4852 1619.33,-79.4483"/>
</g>
<!-- Node14&#45;&gt;Node13 -->
<g id="edge15" class="edge"><title>Node14&#45;&gt;Node13</title>
<path fill="none" stroke="midnightblue" d="M1325.89,-56.083C1320.24,-48.4554 1311.96,-37.2645 1305.05,-27.9408"/>
<polygon fill="midnightblue" stroke="midnightblue" points="1307.75,-25.7034 1298.98,-19.7511 1302.12,-29.87 1307.75,-25.7034"/>
</g>
<!-- Node17 -->
<g id="node18" class="node"><title>Node17</title>
<polygon fill="white" stroke="#bfbfbf" points="1557.5,-0.5 1557.5,-19.5 1603.5,-19.5 1603.5,-0.5 1557.5,-0.5"/>
<text text-anchor="middle" x="1580.5" y="-7.5" font-family="Helvetica,sans-Serif" font-size="10.00">cstdint</text>
</g>
<!-- Node16&#45;&gt;Node17 -->
<g id="edge18" class="edge"><title>Node16&#45;&gt;Node17</title>
<path fill="none" stroke="midnightblue" d="M1580.5,-56.083C1580.5,-49.0059 1580.5,-38.8611 1580.5,-29.9865"/>
<polygon fill="midnightblue" stroke="midnightblue" points="1584,-29.751 1580.5,-19.7511 1577,-29.7511 1584,-29.751"/>
</g>
<!-- Node19&#45;&gt;Node1 -->
<g id="edge21" class="edge"><title>Node19&#45;&gt;Node1</title>
<path fill="none" stroke="midnightblue" d="M867.208,-224.368C877.022,-206.376 899.836,-164.55 912.885,-140.627"/>
<polygon fill="midnightblue" stroke="midnightblue" points="916.098,-142.046 917.814,-131.591 909.953,-138.694 916.098,-142.046"/>
</g>
<!-- Node20&#45;&gt;Node1 -->
<g id="edge23" class="edge"><title>Node20&#45;&gt;Node1</title>
<path fill="none" stroke="midnightblue" d="M950.887,-280.075C946.165,-253.945 932.297,-177.211 925.857,-141.577"/>
<polygon fill="midnightblue" stroke="midnightblue" points="929.271,-140.786 924.048,-131.568 922.383,-142.031 929.271,-140.786"/>
</g>
<!-- Node21 -->
<g id="node22" class="node"><title>Node21</title>
<polygon fill="white" stroke="#bfbfbf" points="951,-168.5 951,-187.5 1006,-187.5 1006,-168.5 951,-168.5"/>
<text text-anchor="middle" x="978.5" y="-175.5" font-family="Helvetica,sans-Serif" font-size="10.00">MyGUI.h</text>
</g>
<!-- Node20&#45;&gt;Node21 -->
<g id="edge24" class="edge"><title>Node20&#45;&gt;Node21</title>
<path fill="none" stroke="midnightblue" d="M954.54,-280.368C958.736,-262.617 968.415,-221.666 974.104,-197.597"/>
<polygon fill="midnightblue" stroke="midnightblue" points="977.575,-198.128 976.469,-187.591 970.763,-196.518 977.575,-198.128"/>
</g>
<!-- Node22 -->
<g id="node23" class="node"><title>Node22</title>
<g id="a_node23"><a xlink:href="../../d9/dfd/_wraps_attribute_8h.html" target="_top" xlink:title="WrapsAttribute.h">
<polygon fill="white" stroke="black" points="989.5,-224.5 989.5,-243.5 1079.5,-243.5 1079.5,-224.5 989.5,-224.5"/>
<text text-anchor="middle" x="1034.5" y="-231.5" font-family="Helvetica,sans-Serif" font-size="10.00">WrapsAttribute.h</text>
</a>
</g>
</g>
<!-- Node20&#45;&gt;Node22 -->
<g id="edge25" class="edge"><title>Node20&#45;&gt;Node22</title>
<path fill="none" stroke="midnightblue" d="M965.675,-280.324C978.347,-271.979 997.733,-259.212 1012.71,-249.352"/>
<polygon fill="midnightblue" stroke="midnightblue" points="1014.93,-252.078 1021.36,-243.655 1011.08,-246.231 1014.93,-252.078"/>
</g>
<!-- Node22&#45;&gt;Node1 -->
<g id="edge26" class="edge"><title>Node22&#45;&gt;Node1</title>
<path fill="none" stroke="midnightblue" d="M1033.99,-224.386C1032.77,-210.869 1028.61,-184.515 1014.5,-168 1001.44,-152.718 981.97,-142.157 964.3,-135.128"/>
<polygon fill="midnightblue" stroke="midnightblue" points="965.314,-131.771 954.721,-131.579 962.882,-138.335 965.314,-131.771"/>
</g>
<!-- Node22&#45;&gt;Node21 -->
<g id="edge27" class="edge"><title>Node22&#45;&gt;Node21</title>
<path fill="none" stroke="midnightblue" d="M1025.5,-224.324C1017.31,-216.42 1004.99,-204.548 995.028,-194.938"/>
<polygon fill="midnightblue" stroke="midnightblue" points="997.289,-192.256 987.661,-187.834 992.43,-197.295 997.289,-192.256"/>
</g>
<!-- Node23 -->
<g id="node24" class="node"><title>Node23</title>
<g id="a_node24"><a xlink:href="../../d8/d8c/_attribute_8h.html" target="_top" xlink:title="Attribute.h">
<polygon fill="white" stroke="black" points="1062.5,-168.5 1062.5,-187.5 1124.5,-187.5 1124.5,-168.5 1062.5,-168.5"/>
<text text-anchor="middle" x="1093.5" y="-175.5" font-family="Helvetica,sans-Serif" font-size="10.00">Attribute.h</text>
</a>
</g>
</g>
<!-- Node22&#45;&gt;Node23 -->
<g id="edge28" class="edge"><title>Node22&#45;&gt;Node23</title>
<path fill="none" stroke="midnightblue" d="M1043.98,-224.324C1052.7,-216.341 1065.84,-204.313 1076.4,-194.653"/>
<polygon fill="midnightblue" stroke="midnightblue" points="1078.83,-197.167 1083.85,-187.834 1074.11,-192.004 1078.83,-197.167"/>
</g>
<!-- Node23&#45;&gt;Node1 -->
<g id="edge29" class="edge"><title>Node23&#45;&gt;Node1</title>
<path fill="none" stroke="midnightblue" d="M1066.4,-168.444C1037.51,-159.32 991.575,-144.813 959.395,-134.651"/>
<polygon fill="midnightblue" stroke="midnightblue" points="960.059,-131.19 949.469,-131.516 957.951,-137.865 960.059,-131.19"/>
</g>
</g>
</svg>
        <g id="navigator" transform="translate(0 0)" fill="#404254">
                <rect fill="#f2f5e9" fill-opacity="0.5" stroke="#606060" stroke-width=".5" x="0" y="0" width="60" height="60"/>
                <use id="zoomplus" xlink:href="#zoomPlus" x="17" y="9" onmousedown="handleZoom(evt,'in')"/>
                <use id="zoomminus" xlink:href="#zoomMin" x="42" y="9" onmousedown="handleZoom(evt,'out')"/>
                <use id="reset" xlink:href="#resetDef" x="30" y="36" onmousedown="handleReset()"/>
                <g id="arrowUp" xlink:href="#dirArrow" transform="translate(30 24)" onmousedown="handlePan(0,-1)">
                  <use xlink:href="#rim" fill="#404040">
                        <set attributeName="fill" to="#808080" begin="arrowUp.mouseover" end="arrowUp.mouseout"/>
                  </use>
                  <path fill="none" stroke="white" stroke-width="1.5" d="M0,-3.0v7 M-2.5,-0.5L0,-3.0L2.5,-0.5"/>
                </g>
                <g id="arrowRight" xlink:href="#dirArrow" transform="rotate(90) translate(36 -43)" onmousedown="handlePan(1,0)">
                  <use xlink:href="#rim" fill="#404040">
                        <set attributeName="fill" to="#808080" begin="arrowRight.mouseover" end="arrowRight.mouseout"/>
                  </use>
                  <path fill="none" stroke="white" stroke-width="1.5" d="M0,-3.0v7 M-2.5,-0.5L0,-3.0L2.5,-0.5"/>
                </g>
                <g id="arrowDown" xlink:href="#dirArrow" transform="rotate(180) translate(-30 -48)" onmousedown="handlePan(0,1)">
                  <use xlink:href="#rim" fill="#404040">
                        <set attributeName="fill" to="#808080" begin="arrowDown.mouseover" end="arrowDown.mouseout"/>
                  </use>
                  <path fill="none" stroke="white" stroke-width="1.5" d="M0,-3.0v7 M-2.5,-0.5L0,-3.0L2.5,-0.5"/>
                </g>
                <g id="arrowLeft" xlink:href="#dirArrow" transform="rotate(270) translate(-36 17)" onmousedown="handlePan(-1,0)">
                  <use xlink:href="#rim" fill="#404040">
                        <set attributeName="fill" to="#808080" begin="arrowLeft.mouseover" end="arrowLeft.mouseout"/>
                  </use>
                  <path fill="none" stroke="white" stroke-width="1.5" d="M0,-3.0v7 M-2.5,-0.5L0,-3.0L2.5,-0.5"/>
                </g>
        </g>
        <svg viewBox="0 0 15 15" width="100%" height="30px" preserveAspectRatio="xMaxYMin meet">
         <g id="arrow_out" transform="scale(0.3 0.3)">
          <a xlink:href="_g_u_i___texture_tool_window_8h__incl_org.svg" target="_base">
           <rect id="button" ry="5" rx="5" y="6" x="6" height="38" width="38"
                fill="#f2f5e9" fill-opacity="0.5" stroke="#606060" stroke-width="1.0"/>
           <path id="arrow"
             d="M 11.500037,31.436501 C 11.940474,20.09759 22.043105,11.32322 32.158766,21.979434 L 37.068811,17.246167 C 37.068811,17.246167 37.088388,32 37.088388,32 L 22.160133,31.978069 C 22.160133,31.978069 26.997745,27.140456 26.997745,27.140456 C 18.528582,18.264221 13.291696,25.230495 11.500037,31.436501 z"
             style="fill:#404040;"/>
          </a>
         </g>
        </svg>
</svg>
