<?xml version="1.0" encoding="UTF-8" standalone="no"?>
<!DOCTYPE svg PUBLIC "-//W3C//DTD SVG 1.1//EN"
 "http://www.w3.org/Graphics/SVG/1.1/DTD/svg11.dtd">
<!-- Generated by graphviz version 2.38.0 (20140413.2041)
 -->
<!-- Title: CSimpleGlobTempl::AppendName Pages: 1 -->
<svg width="333pt" height="66pt"
 viewBox="0.00 0.00 333.00 66.00" xmlns="http://www.w3.org/2000/svg" xmlns:xlink="http://www.w3.org/1999/xlink">
<g id="graph0" class="graph" transform="scale(1 1) rotate(0) translate(4 62)">
<title>CSimpleGlobTempl::AppendName</title>
<polygon fill="white" stroke="none" points="-4,4 -4,-62 329,-62 329,4 -4,4"/>
<!-- Node14 -->
<g id="node1" class="node"><title>Node14</title>
<polygon fill="#bfbfbf" stroke="black" points="0,-19.5 0,-38.5 164,-38.5 164,-19.5 0,-19.5"/>
<text text-anchor="middle" x="82" y="-26.5" font-family="Helvetica,sans-Serif" font-size="10.00">CSimpleGlobTempl::AppendName</text>
</g>
<!-- Node15 -->
<g id="node2" class="node"><title>Node15</title>
<g id="a_node2"><a xlink:href="../../d3/d01/class_simple_glob_util.html#ad4922c8c4e81994a18db068c4424b701" target="_top" xlink:title="SimpleGlobUtil::strlen">
<polygon fill="white" stroke="black" points="207,-38.5 207,-57.5 318,-57.5 318,-38.5 207,-38.5"/>
<text text-anchor="middle" x="262.5" y="-45.5" font-family="Helvetica,sans-Serif" font-size="10.00">SimpleGlobUtil::strlen</text>
</a>
</g>
</g>
<!-- Node14&#45;&gt;Node15 -->
<g id="edge1" class="edge"><title>Node14&#45;&gt;Node15</title>
<path fill="none" stroke="midnightblue" d="M164.154,-37.6383C175.112,-38.8046 186.233,-39.9884 196.851,-41.1185"/>
<polygon fill="midnightblue" stroke="midnightblue" points="196.54,-44.6052 206.854,-42.1833 197.281,-37.6445 196.54,-44.6052"/>
</g>
<!-- Node16 -->
<g id="node3" class="node"><title>Node16</title>
<g id="a_node3"><a xlink:href="../../d3/d01/class_simple_glob_util.html#ace9420b2bf97030881f5ee7f0a1fc2e3" target="_top" xlink:title="SimpleGlobUtil::strcpy_s">
<polygon fill="white" stroke="black" points="200,-0.5 200,-19.5 325,-19.5 325,-0.5 200,-0.5"/>
<text text-anchor="middle" x="262.5" y="-7.5" font-family="Helvetica,sans-Serif" font-size="10.00">SimpleGlobUtil::strcpy_s</text>
</a>
</g>
</g>
<!-- Node14&#45;&gt;Node16 -->
<g id="edge2" class="edge"><title>Node14&#45;&gt;Node16</title>
<path fill="none" stroke="midnightblue" d="M164.154,-20.3617C172.666,-19.4557 181.277,-18.5392 189.673,-17.6454"/>
<polygon fill="midnightblue" stroke="midnightblue" points="190.215,-21.1076 199.788,-16.5688 189.474,-14.147 190.215,-21.1076"/>
</g>
</g>
</svg>
