<?xml version="1.0" encoding="UTF-8" standalone="no"?>
<!DOCTYPE svg PUBLIC "-//W3C//DTD SVG 1.1//EN"
 "http://www.w3.org/Graphics/SVG/1.1/DTD/svg11.dtd">
<!-- Generated by graphviz version 2.38.0 (20140413.2041)
 -->
<!-- Title: source/main/gameplay/AircraftSimulation.h Pages: 1 -->
<svg width="260pt" height="106pt"
 viewBox="0.00 0.00 260.00 106.00" xmlns="http://www.w3.org/2000/svg" xmlns:xlink="http://www.w3.org/1999/xlink">
<g id="graph0" class="graph" transform="scale(1 1) rotate(0) translate(4 102)">
<title>source/main/gameplay/AircraftSimulation.h</title>
<polygon fill="white" stroke="none" points="-4,4 -4,-102 256,-102 256,4 -4,4"/>
<!-- Node2 -->
<g id="node1" class="node"><title>Node2</title>
<polygon fill="#bfbfbf" stroke="black" points="67,-67.5 67,-97.5 182,-97.5 182,-67.5 67,-67.5"/>
<text text-anchor="start" x="75" y="-85.5" font-family="Helvetica,sans-Serif" font-size="10.00">source/main/gameplay</text>
<text text-anchor="middle" x="124.5" y="-74.5" font-family="Helvetica,sans-Serif" font-size="10.00">/AircraftSimulation.h</text>
</g>
<!-- Node3 -->
<g id="node2" class="node"><title>Node3</title>
<g id="a_node2"><a xlink:href="../../d5/d12/_aircraft_simulation_8cpp.html" target="_top" xlink:title="source/main/gameplay\l/AircraftSimulation.cpp">
<polygon fill="white" stroke="black" points="0,-0.5 0,-30.5 115,-30.5 115,-0.5 0,-0.5"/>
<text text-anchor="start" x="8" y="-18.5" font-family="Helvetica,sans-Serif" font-size="10.00">source/main/gameplay</text>
<text text-anchor="middle" x="57.5" y="-7.5" font-family="Helvetica,sans-Serif" font-size="10.00">/AircraftSimulation.cpp</text>
</a>
</g>
</g>
<!-- Node2&#45;&gt;Node3 -->
<g id="edge1" class="edge"><title>Node2&#45;&gt;Node3</title>
<path fill="none" stroke="midnightblue" d="M102.66,-60.3115C92.6092,-50.5612 80.9593,-39.259 72.0096,-30.5765"/>
<polygon fill="midnightblue" stroke="midnightblue" points="100.347,-62.9449 109.962,-67.396 105.222,-57.9207 100.347,-62.9449"/>
</g>
<!-- Node4 -->
<g id="node3" class="node"><title>Node4</title>
<g id="a_node3"><a xlink:href="../../de/dbe/_ro_r_frame_listener_8cpp.html" target="_top" xlink:title="source/main/gameplay\l/RoRFrameListener.cpp">
<polygon fill="white" stroke="black" points="133,-0.5 133,-30.5 252,-30.5 252,-0.5 133,-0.5"/>
<text text-anchor="start" x="141" y="-18.5" font-family="Helvetica,sans-Serif" font-size="10.00">source/main/gameplay</text>
<text text-anchor="middle" x="192.5" y="-7.5" font-family="Helvetica,sans-Serif" font-size="10.00">/RoRFrameListener.cpp</text>
</a>
</g>
</g>
<!-- Node2&#45;&gt;Node4 -->
<g id="edge2" class="edge"><title>Node2&#45;&gt;Node4</title>
<path fill="none" stroke="midnightblue" d="M146.666,-60.3115C156.867,-50.5612 168.691,-39.259 177.774,-30.5765"/>
<polygon fill="midnightblue" stroke="midnightblue" points="144.065,-57.9561 139.255,-67.396 148.902,-63.0162 144.065,-57.9561"/>
</g>
</g>
</svg>
