<?xml version="1.0" encoding="UTF-8" standalone="no"?>
<!DOCTYPE svg PUBLIC "-//W3C//DTD SVG 1.1//EN"
 "http://www.w3.org/Graphics/SVG/1.1/DTD/svg11.dtd">
<!-- Generated by graphviz version 2.38.0 (20140413.2041)
 -->
<!-- Title: ImDrawList::PathArcToFast Pages: 1 -->
<svg width="424pt" height="88pt"
 viewBox="0.00 0.00 424.00 88.00" xmlns="http://www.w3.org/2000/svg" xmlns:xlink="http://www.w3.org/1999/xlink">
<g id="graph0" class="graph" transform="scale(1 1) rotate(0) translate(4 84)">
<title>ImDrawList::PathArcToFast</title>
<polygon fill="white" stroke="none" points="-4,4 -4,-84 420,-84 420,4 -4,4"/>
<!-- Node2596 -->
<g id="node1" class="node"><title>Node2596</title>
<polygon fill="#bfbfbf" stroke="black" points="0,-30 0,-49 136,-49 136,-30 0,-30"/>
<text text-anchor="middle" x="68" y="-37" font-family="Helvetica,sans-Serif" font-size="10.00">ImDrawList::PathArcToFast</text>
</g>
<!-- Node2597 -->
<g id="node2" class="node"><title>Node2597</title>
<g id="a_node2"><a xlink:href="../../df/d13/namespace_im_gui.html#a030e4ac6eed5b4b960a3fef538fcbad0" target="_top" xlink:title="ImGui::Begin">
<polygon fill="white" stroke="black" points="172,-30 172,-49 245,-49 245,-30 172,-30"/>
<text text-anchor="middle" x="208.5" y="-37" font-family="Helvetica,sans-Serif" font-size="10.00">ImGui::Begin</text>
</a>
</g>
</g>
<!-- Node2596&#45;&gt;Node2597 -->
<g id="edge1" class="edge"><title>Node2596&#45;&gt;Node2597</title>
<path fill="none" stroke="midnightblue" d="M146.273,-39.5C155.136,-39.5 163.822,-39.5 171.739,-39.5"/>
<polygon fill="midnightblue" stroke="midnightblue" points="146.221,-36.0001 136.221,-39.5 146.221,-43.0001 146.221,-36.0001"/>
</g>
<!-- Node2598 -->
<g id="node3" class="node"><title>Node2598</title>
<g id="a_node3"><a xlink:href="../../df/d0a/struct_im_gui_list_clipper.html#a0dc870fa31a56d3ace7625450f42937a" target="_top" xlink:title="ImGuiListClipper::ImGuiList\lClipper">
<polygon fill="white" stroke="black" points="281,-49.5 281,-79.5 416,-79.5 416,-49.5 281,-49.5"/>
<text text-anchor="start" x="289" y="-67.5" font-family="Helvetica,sans-Serif" font-size="10.00">ImGuiListClipper::ImGuiList</text>
<text text-anchor="middle" x="348.5" y="-56.5" font-family="Helvetica,sans-Serif" font-size="10.00">Clipper</text>
</a>
</g>
</g>
<!-- Node2597&#45;&gt;Node2598 -->
<g id="edge2" class="edge"><title>Node2597&#45;&gt;Node2598</title>
<path fill="none" stroke="midnightblue" d="M254.933,-47.7307C263.29,-49.2446 272.171,-50.8535 280.998,-52.4525"/>
<polygon fill="midnightblue" stroke="midnightblue" points="255.502,-44.2768 245.038,-45.9381 254.254,-51.1647 255.502,-44.2768"/>
</g>
<!-- Node2599 -->
<g id="node4" class="node"><title>Node2599</title>
<g id="a_node4"><a xlink:href="../../df/d0a/struct_im_gui_list_clipper.html#ada915f0ae4446df73c1a2372bde65293" target="_top" xlink:title="ImGuiListClipper::\l~ImGuiListClipper">
<polygon fill="white" stroke="black" points="301.5,-0.5 301.5,-30.5 395.5,-30.5 395.5,-0.5 301.5,-0.5"/>
<text text-anchor="start" x="309.5" y="-18.5" font-family="Helvetica,sans-Serif" font-size="10.00">ImGuiListClipper::</text>
<text text-anchor="middle" x="348.5" y="-7.5" font-family="Helvetica,sans-Serif" font-size="10.00">~ImGuiListClipper</text>
</a>
</g>
</g>
<!-- Node2597&#45;&gt;Node2599 -->
<g id="edge3" class="edge"><title>Node2597&#45;&gt;Node2599</title>
<path fill="none" stroke="midnightblue" d="M255.041,-31.5798C269.929,-28.9906 286.471,-26.1138 301.4,-23.5175"/>
<polygon fill="midnightblue" stroke="midnightblue" points="254.291,-28.1577 245.038,-33.3194 255.49,-35.0542 254.291,-28.1577"/>
</g>
</g>
</svg>
