<?xml version="1.0" encoding="UTF-8" standalone="no"?>
<!DOCTYPE svg PUBLIC "-//W3C//DTD SVG 1.1//EN"
 "http://www.w3.org/Graphics/SVG/1.1/DTD/svg11.dtd">
<!-- Generated by graphviz version 2.38.0 (20140413.2041)
 -->
<!-- Title: ImDrawList::PushClipRectFullScreen Pages: 1 -->
<!--zoomable 141 -->
<svg id="main" version="1.1" xmlns="http://www.w3.org/2000/svg" xmlns:xlink="http://www.w3.org/1999/xlink" xml:space="preserve" onload="init(evt)">
<style type="text/css"><![CDATA[
.edge:hover path { stroke: red; }
.edge:hover polygon { stroke: red; fill: red; }
]]></style>
<script type="text/javascript"><![CDATA[
var edges = document.getElementsByTagName('g');
if (edges && edges.length) {
  for (var i=0;i<edges.length;i++) {
    if (edges[i].id.substr(0,4)=='edge') {
      edges[i].setAttribute('class','edge');
    }
  }
}
]]></script>
        <defs>
                <circle id="rim" cx="0" cy="0" r="7"/>
                <circle id="rim2" cx="0" cy="0" r="3.5"/>
                <g id="zoomPlus">
                        <use xlink:href="#rim" fill="#404040">
                                <set attributeName="fill" to="#808080" begin="zoomplus.mouseover" end="zoomplus.mouseout"/>
                        </use>
                        <path d="M-4,0h8M0,-4v8" fill="none" stroke="white" stroke-width="1.5" pointer-events="none"/>
                </g>
                <g id="zoomMin">
                        <use xlink:href="#rim" fill="#404040">
                                <set attributeName="fill" to="#808080" begin="zoomminus.mouseover" end="zoomminus.mouseout"/>
                        </use>
                        <path d="M-4,0h8" fill="none" stroke="white" stroke-width="1.5" pointer-events="none"/>
                </g>
                <g id="dirArrow">
                        <path fill="none" stroke="white" stroke-width="1.5" d="M0,-3.0v7 M-2.5,-0.5L0,-3.0L2.5,-0.5"/>
                </g>
               <g id="resetDef">
                       <use xlink:href="#rim2" fill="#404040">
                               <set attributeName="fill" to="#808080" begin="reset.mouseover" end="reset.mouseout"/>
                       </use>
               </g>
        </defs>

<script type="text/javascript">
var viewWidth = 1016;
var viewHeight = 141;
var sectionId = 'dynsection-39';
</script>
<script xlink:href="../../svgpan.js"/>
<svg id="graph" class="graph">
<g id="viewport">
<title>ImDrawList::PushClipRectFullScreen</title>
<polygon fill="white" stroke="none" points="-4,4 -4,-137 1012,-137 1012,4 -4,4"/>
<!-- Node4273 -->
<g id="node1" class="node"><title>Node4273</title>
<polygon fill="#bfbfbf" stroke="black" points="0,-14 0,-44 130,-44 130,-14 0,-14"/>
<text text-anchor="start" x="8" y="-32" font-family="Helvetica,sans-Serif" font-size="10.00">ImDrawList::PushClipRect</text>
<text text-anchor="middle" x="65" y="-21" font-family="Helvetica,sans-Serif" font-size="10.00">FullScreen</text>
</g>
<!-- Node4274 -->
<g id="node2" class="node"><title>Node4274</title>
<g id="a_node2"><a xlink:href="../../df/d13/namespace_im_gui.html#ab3f1fc018f903b7ad79fd10663375774" target="_top" xlink:title="ImGui::NewFrame">
<polygon fill="white" stroke="black" points="188,-57.5 188,-76.5 283,-76.5 283,-57.5 188,-57.5"/>
<text text-anchor="middle" x="235.5" y="-64.5" font-family="Helvetica,sans-Serif" font-size="10.00">ImGui::NewFrame</text>
</a>
</g>
</g>
<!-- Node4273&#45;&gt;Node4274 -->
<g id="edge1" class="edge"><title>Node4273&#45;&gt;Node4274</title>
<path fill="none" stroke="midnightblue" d="M140.011,-45.6908C157.852,-49.7144 176.315,-53.8782 192.136,-57.4461"/>
<polygon fill="midnightblue" stroke="midnightblue" points="140.708,-42.2603 130.183,-43.4746 139.168,-49.0888 140.708,-42.2603"/>
</g>
<!-- Node4282 -->
<g id="node10" class="node"><title>Node4282</title>
<g id="a_node10"><a xlink:href="../../df/d13/namespace_im_gui.html#afe7a28c6eb52fff3cc27d5a698fea4ff" target="_top" xlink:title="ImGui::ShowMetricsWindow">
<polygon fill="white" stroke="black" points="166,-19.5 166,-38.5 305,-38.5 305,-19.5 166,-19.5"/>
<text text-anchor="middle" x="235.5" y="-26.5" font-family="Helvetica,sans-Serif" font-size="10.00">ImGui::ShowMetricsWindow</text>
</a>
</g>
</g>
<!-- Node4273&#45;&gt;Node4282 -->
<g id="edge9" class="edge"><title>Node4273&#45;&gt;Node4282</title>
<path fill="none" stroke="midnightblue" d="M140.377,-29C148.808,-29 157.372,-29 165.726,-29"/>
<polygon fill="midnightblue" stroke="midnightblue" points="140.183,-25.5001 130.183,-29 140.183,-32.5001 140.183,-25.5001"/>
</g>
<!-- Node4283 -->
<g id="node11" class="node"><title>Node4283</title>
<g id="a_node11"><a xlink:href="../../df/d13/namespace_im_gui.html#a52880ae1ecdd704a083558d31c9bfa50" target="_top" xlink:title="ImGui::ShowTestWindow">
<polygon fill="white" stroke="black" points="341,-0.5 341,-19.5 466,-19.5 466,-0.5 341,-0.5"/>
<text text-anchor="middle" x="403.5" y="-7.5" font-family="Helvetica,sans-Serif" font-size="10.00">ImGui::ShowTestWindow</text>
</a>
</g>
</g>
<!-- Node4273&#45;&gt;Node4283 -->
<g id="edge13" class="edge"><title>Node4273&#45;&gt;Node4283</title>
<path fill="none" stroke="midnightblue" d="M140.157,-13.3109C148.836,-11.9503 157.591,-10.7918 166,-10 225.069,-4.43819 292.805,-5.15514 340.604,-6.83476"/>
<polygon fill="midnightblue" stroke="midnightblue" points="139.322,-9.90151 130.029,-14.9911 140.467,-16.8071 139.322,-9.90151"/>
</g>
<!-- Node4275 -->
<g id="node3" class="node"><title>Node4275</title>
<g id="a_node3"><a xlink:href="../../d5/d56/class_ogre_im_gui.html#a6c64d0f1f8c3b156e8a5cbe02ccb93eb" target="_top" xlink:title="OgreImGui::NewFrame">
<polygon fill="white" stroke="black" points="345.5,-57.5 345.5,-76.5 461.5,-76.5 461.5,-57.5 345.5,-57.5"/>
<text text-anchor="middle" x="403.5" y="-64.5" font-family="Helvetica,sans-Serif" font-size="10.00">OgreImGui::NewFrame</text>
</a>
</g>
</g>
<!-- Node4274&#45;&gt;Node4275 -->
<g id="edge2" class="edge"><title>Node4274&#45;&gt;Node4275</title>
<path fill="none" stroke="midnightblue" d="M293.381,-67C310.135,-67 328.469,-67 345.246,-67"/>
<polygon fill="midnightblue" stroke="midnightblue" points="293.182,-63.5001 283.182,-67 293.182,-70.5001 293.182,-63.5001"/>
</g>
<!-- Node4276 -->
<g id="node4" class="node"><title>Node4276</title>
<g id="a_node4"><a xlink:href="../../d8/d11/class_ro_r_1_1_g_u_i_manager.html#a19dfcebef9a9cbb45429c6cc218a8759" target="_top" xlink:title="RoR::GUIManager::NewImGui\lFrame">
<polygon fill="white" stroke="black" points="502,-86 502,-116 648,-116 648,-86 502,-86"/>
<text text-anchor="start" x="510" y="-104" font-family="Helvetica,sans-Serif" font-size="10.00">RoR::GUIManager::NewImGui</text>
<text text-anchor="middle" x="575" y="-93" font-family="Helvetica,sans-Serif" font-size="10.00">Frame</text>
</a>
</g>
</g>
<!-- Node4275&#45;&gt;Node4276 -->
<g id="edge3" class="edge"><title>Node4275&#45;&gt;Node4276</title>
<path fill="none" stroke="midnightblue" d="M462.205,-78.575C475,-81.1416 488.714,-83.8924 502,-86.5574"/>
<polygon fill="midnightblue" stroke="midnightblue" points="462.659,-75.0965 452.166,-76.5614 461.283,-81.9598 462.659,-75.0965"/>
</g>
<!-- Node4281 -->
<g id="node9" class="node"><title>Node4281</title>
<g id="a_node9"><a xlink:href="../../d5/d56/class_ogre_im_gui.html#ad19fd285bb4aaa44039201a20c39a75f" target="_top" xlink:title="OgreImGui::OgreImGui">
<polygon fill="white" stroke="black" points="517,-47.5 517,-66.5 633,-66.5 633,-47.5 517,-47.5"/>
<text text-anchor="middle" x="575" y="-54.5" font-family="Helvetica,sans-Serif" font-size="10.00">OgreImGui::OgreImGui</text>
</a>
</g>
</g>
<!-- Node4275&#45;&gt;Node4281 -->
<g id="edge8" class="edge"><title>Node4275&#45;&gt;Node4281</title>
<path fill="none" stroke="midnightblue" d="M472.045,-63.015C486.926,-62.1371 502.545,-61.2156 516.962,-60.3651"/>
<polygon fill="midnightblue" stroke="midnightblue" points="471.661,-59.5315 461.885,-63.6145 472.074,-66.5193 471.661,-59.5315"/>
</g>
<!-- Node4277 -->
<g id="node5" class="node"><title>Node4277</title>
<g id="a_node5"><a xlink:href="../../dd/dbe/class_ro_r_frame_listener.html#acdda0026f9324c3b7f48568624e07115" target="_top" xlink:title="RoRFrameListener::frameStarted">
<polygon fill="white" stroke="black" points="684,-113.5 684,-132.5 843,-132.5 843,-113.5 684,-113.5"/>
<text text-anchor="middle" x="763.5" y="-120.5" font-family="Helvetica,sans-Serif" font-size="10.00">RoRFrameListener::frameStarted</text>
</a>
</g>
</g>
<!-- Node4276&#45;&gt;Node4277 -->
<g id="edge4" class="edge"><title>Node4276&#45;&gt;Node4277</title>
<path fill="none" stroke="midnightblue" d="M658.059,-110.68C666.602,-111.688 675.272,-112.71 683.777,-113.714"/>
<polygon fill="midnightblue" stroke="midnightblue" points="658.447,-107.201 648.106,-109.506 657.627,-114.153 658.447,-107.201"/>
</g>
<!-- Node4278 -->
<g id="node6" class="node"><title>Node4278</title>
<g id="a_node6"><a xlink:href="../../d4/d14/class_ro_r_1_1_main_menu.html#a582e508f1bb1578d1124260de49e438b" target="_top" xlink:title="RoR::MainMenu::EnterMain\lMenuLoop">
<polygon fill="white" stroke="black" points="695,-64 695,-94 832,-94 832,-64 695,-64"/>
<text text-anchor="start" x="703" y="-82" font-family="Helvetica,sans-Serif" font-size="10.00">RoR::MainMenu::EnterMain</text>
<text text-anchor="middle" x="763.5" y="-71" font-family="Helvetica,sans-Serif" font-size="10.00">MenuLoop</text>
</a>
</g>
</g>
<!-- Node4276&#45;&gt;Node4278 -->
<g id="edge5" class="edge"><title>Node4276&#45;&gt;Node4278</title>
<path fill="none" stroke="midnightblue" d="M658.293,-91.2925C670.515,-89.8508 682.991,-88.3791 694.866,-86.9782"/>
<polygon fill="midnightblue" stroke="midnightblue" points="657.627,-87.8467 648.106,-92.4942 658.447,-94.7985 657.627,-87.8467"/>
</g>
<!-- Node4279 -->
<g id="node7" class="node"><title>Node4279</title>
<g id="a_node7"><a xlink:href="../../df/d0a/main_8cpp.html#a0ddf1224851353fc92bfbff6f499fa97" target="_top" xlink:title="main">
<polygon fill="white" stroke="black" points="879,-69.5 879,-88.5 917,-88.5 917,-69.5 879,-69.5"/>
<text text-anchor="middle" x="898" y="-76.5" font-family="Helvetica,sans-Serif" font-size="10.00">main</text>
</a>
</g>
</g>
<!-- Node4278&#45;&gt;Node4279 -->
<g id="edge6" class="edge"><title>Node4278&#45;&gt;Node4279</title>
<path fill="none" stroke="midnightblue" d="M842.325,-79C855.972,-79 868.944,-79 878.824,-79"/>
<polygon fill="midnightblue" stroke="midnightblue" points="842.303,-75.5001 832.303,-79 842.303,-82.5001 842.303,-75.5001"/>
</g>
<!-- Node4280 -->
<g id="node8" class="node"><title>Node4280</title>
<g id="a_node8"><a xlink:href="../../df/d0a/main_8cpp.html#a2922bc5d5c2d77a3020cfbf9df12aab0" target="_top" xlink:title="WinMain">
<polygon fill="white" stroke="black" points="953,-69.5 953,-88.5 1008,-88.5 1008,-69.5 953,-69.5"/>
<text text-anchor="middle" x="980.5" y="-76.5" font-family="Helvetica,sans-Serif" font-size="10.00">WinMain</text>
</a>
</g>
</g>
<!-- Node4279&#45;&gt;Node4280 -->
<g id="edge7" class="edge"><title>Node4279&#45;&gt;Node4280</title>
<path fill="none" stroke="midnightblue" d="M927.519,-79C935.73,-79 944.653,-79 952.752,-79"/>
<polygon fill="midnightblue" stroke="midnightblue" points="927.267,-75.5001 917.267,-79 927.267,-82.5001 927.267,-75.5001"/>
</g>
<!-- Node4282&#45;&gt;Node4283 -->
<g id="edge10" class="edge"><title>Node4282&#45;&gt;Node4283</title>
<path fill="none" stroke="midnightblue" d="M315.448,-19.9638C324,-18.9849 332.61,-17.9995 340.913,-17.0492"/>
<polygon fill="midnightblue" stroke="midnightblue" points="314.994,-16.4928 305.457,-21.1074 315.79,-23.4474 314.994,-16.4928"/>
</g>
<!-- Node4284 -->
<g id="node12" class="node"><title>Node4284</title>
<g id="a_node12"><a xlink:href="../../d5/d0a/imgui__demo_8cpp.html#a4dadf5e7b393795666d19af9694037cf" target="_top" xlink:title="ShowExampleAppLongText">
<polygon fill="white" stroke="black" points="507,-0.5 507,-19.5 643,-19.5 643,-0.5 507,-0.5"/>
<text text-anchor="middle" x="575" y="-7.5" font-family="Helvetica,sans-Serif" font-size="10.00">ShowExampleAppLongText</text>
</a>
</g>
</g>
<!-- Node4283&#45;&gt;Node4284 -->
<g id="edge11" class="edge"><title>Node4283&#45;&gt;Node4284</title>
<path fill="none" stroke="midnightblue" d="M476.242,-3.32117C486.419,-3.20901 496.853,-3.22942 506.937,-3.38239"/>
<polygon fill="midnightblue" stroke="midnightblue" points="476.117,0.177409 466.173,-3.47752 476.226,-6.82175 476.117,0.177409"/>
</g>
<!-- Node4284&#45;&gt;Node4283 -->
<g id="edge12" class="edge"><title>Node4284&#45;&gt;Node4283</title>
<path fill="none" stroke="midnightblue" d="M496.759,-16.7264C486.509,-16.791 476.112,-16.723 466.173,-16.5225"/>
<polygon fill="midnightblue" stroke="midnightblue" points="496.975,-20.2244 506.937,-16.6176 496.9,-13.2248 496.975,-20.2244"/>
</g>
</g>
</svg>
        <g id="navigator" transform="translate(0 0)" fill="#404254">
                <rect fill="#f2f5e9" fill-opacity="0.5" stroke="#606060" stroke-width=".5" x="0" y="0" width="60" height="60"/>
                <use id="zoomplus" xlink:href="#zoomPlus" x="17" y="9" onmousedown="handleZoom(evt,'in')"/>
                <use id="zoomminus" xlink:href="#zoomMin" x="42" y="9" onmousedown="handleZoom(evt,'out')"/>
                <use id="reset" xlink:href="#resetDef" x="30" y="36" onmousedown="handleReset()"/>
                <g id="arrowUp" xlink:href="#dirArrow" transform="translate(30 24)" onmousedown="handlePan(0,-1)">
                  <use xlink:href="#rim" fill="#404040">
                        <set attributeName="fill" to="#808080" begin="arrowUp.mouseover" end="arrowUp.mouseout"/>
                  </use>
                  <path fill="none" stroke="white" stroke-width="1.5" d="M0,-3.0v7 M-2.5,-0.5L0,-3.0L2.5,-0.5"/>
                </g>
                <g id="arrowRight" xlink:href="#dirArrow" transform="rotate(90) translate(36 -43)" onmousedown="handlePan(1,0)">
                  <use xlink:href="#rim" fill="#404040">
                        <set attributeName="fill" to="#808080" begin="arrowRight.mouseover" end="arrowRight.mouseout"/>
                  </use>
                  <path fill="none" stroke="white" stroke-width="1.5" d="M0,-3.0v7 M-2.5,-0.5L0,-3.0L2.5,-0.5"/>
                </g>
                <g id="arrowDown" xlink:href="#dirArrow" transform="rotate(180) translate(-30 -48)" onmousedown="handlePan(0,1)">
                  <use xlink:href="#rim" fill="#404040">
                        <set attributeName="fill" to="#808080" begin="arrowDown.mouseover" end="arrowDown.mouseout"/>
                  </use>
                  <path fill="none" stroke="white" stroke-width="1.5" d="M0,-3.0v7 M-2.5,-0.5L0,-3.0L2.5,-0.5"/>
                </g>
                <g id="arrowLeft" xlink:href="#dirArrow" transform="rotate(270) translate(-36 17)" onmousedown="handlePan(-1,0)">
                  <use xlink:href="#rim" fill="#404040">
                        <set attributeName="fill" to="#808080" begin="arrowLeft.mouseover" end="arrowLeft.mouseout"/>
                  </use>
                  <path fill="none" stroke="white" stroke-width="1.5" d="M0,-3.0v7 M-2.5,-0.5L0,-3.0L2.5,-0.5"/>
                </g>
        </g>
        <svg viewBox="0 0 15 15" width="100%" height="30px" preserveAspectRatio="xMaxYMin meet">
         <g id="arrow_out" transform="scale(0.3 0.3)">
          <a xlink:href="struct_im_draw_list_a0ab1ab409f0e269755e50a77901bae39_icgraph_org.svg" target="_base">
           <rect id="button" ry="5" rx="5" y="6" x="6" height="38" width="38"
                fill="#f2f5e9" fill-opacity="0.5" stroke="#606060" stroke-width="1.0"/>
           <path id="arrow"
             d="M 11.500037,31.436501 C 11.940474,20.09759 22.043105,11.32322 32.158766,21.979434 L 37.068811,17.246167 C 37.068811,17.246167 37.088388,32 37.088388,32 L 22.160133,31.978069 C 22.160133,31.978069 26.997745,27.140456 26.997745,27.140456 C 18.528582,18.264221 13.291696,25.230495 11.500037,31.436501 z"
             style="fill:#404040;"/>
          </a>
         </g>
        </svg>
</svg>
