<?xml version="1.0" encoding="UTF-8" standalone="no"?>
<!DOCTYPE svg PUBLIC "-//W3C//DTD SVG 1.1//EN"
 "http://www.w3.org/Graphics/SVG/1.1/DTD/svg11.dtd">
<!-- Generated by graphviz version 2.38.0 (20140413.2041)
 -->
<!-- Title: SkyX::AtmosphereManager::_update Pages: 1 -->
<svg width="1019pt" height="131pt"
 viewBox="0.00 0.00 1019.00 131.00" xmlns="http://www.w3.org/2000/svg" xmlns:xlink="http://www.w3.org/1999/xlink">
<g id="graph0" class="graph" transform="scale(1 1) rotate(0) translate(4 127)">
<title>SkyX::AtmosphereManager::_update</title>
<polygon fill="white" stroke="none" points="-4,4 -4,-127 1015,-127 1015,4 -4,4"/>
<!-- Node28 -->
<g id="node1" class="node"><title>Node28</title>
<polygon fill="#bfbfbf" stroke="black" points="0,-43.5 0,-73.5 135,-73.5 135,-43.5 0,-43.5"/>
<text text-anchor="start" x="8" y="-61.5" font-family="Helvetica,sans-Serif" font-size="10.00">SkyX::AtmosphereManager</text>
<text text-anchor="middle" x="67.5" y="-50.5" font-family="Helvetica,sans-Serif" font-size="10.00">::_update</text>
</g>
<!-- Node29 -->
<g id="node2" class="node"><title>Node29</title>
<g id="a_node2"><a xlink:href="../../dd/d55/class_sky_x_1_1_atmosphere_manager.html#ae5e002b202e13b4af6fe205ca97c7bfc" target="_top" xlink:title="SkyX::AtmosphereManager\l::setOptions">
<polygon fill="white" stroke="black" points="557,-92.5 557,-122.5 692,-122.5 692,-92.5 557,-92.5"/>
<text text-anchor="start" x="565" y="-110.5" font-family="Helvetica,sans-Serif" font-size="10.00">SkyX::AtmosphereManager</text>
<text text-anchor="middle" x="624.5" y="-99.5" font-family="Helvetica,sans-Serif" font-size="10.00">::setOptions</text>
</a>
</g>
</g>
<!-- Node28&#45;&gt;Node29 -->
<g id="edge1" class="edge"><title>Node28&#45;&gt;Node29</title>
<path fill="none" stroke="midnightblue" d="M134.765,-75.7964C146.756,-78.4164 159.198,-80.8056 171,-82.5 307.096,-102.04 468.239,-106.552 556.817,-107.448"/>
<polygon fill="midnightblue" stroke="midnightblue" points="135.348,-72.3401 124.823,-73.5515 133.807,-79.1682 135.348,-72.3401"/>
</g>
<!-- Node31 -->
<g id="node4" class="node"><title>Node31</title>
<g id="a_node4"><a xlink:href="../../dd/d55/class_sky_x_1_1_atmosphere_manager.html#abcdfead934afa273afdeb542ab2633b2" target="_top" xlink:title="SkyX::AtmosphereManager\l::getOptions">
<polygon fill="white" stroke="black" points="171,-43.5 171,-73.5 306,-73.5 306,-43.5 171,-43.5"/>
<text text-anchor="start" x="179" y="-61.5" font-family="Helvetica,sans-Serif" font-size="10.00">SkyX::AtmosphereManager</text>
<text text-anchor="middle" x="238.5" y="-50.5" font-family="Helvetica,sans-Serif" font-size="10.00">::getOptions</text>
</a>
</g>
</g>
<!-- Node28&#45;&gt;Node31 -->
<g id="edge3" class="edge"><title>Node28&#45;&gt;Node31</title>
<path fill="none" stroke="midnightblue" d="M145.551,-58.5C154.019,-58.5 162.589,-58.5 170.915,-58.5"/>
<polygon fill="midnightblue" stroke="midnightblue" points="145.293,-55.0001 135.293,-58.5 145.293,-62.0001 145.293,-55.0001"/>
</g>
<!-- Node36 -->
<g id="node9" class="node"><title>Node36</title>
<g id="a_node9"><a xlink:href="../../d8/d41/class_sky_x_1_1_g_p_u_manager.html#af949460a2e4caace1847cb0b251516a1" target="_top" xlink:title="SkyX::GPUManager::addGroundPass">
<polygon fill="white" stroke="black" points="342,-5 342,-24 521,-24 521,-5 342,-5"/>
<text text-anchor="middle" x="431.5" y="-12" font-family="Helvetica,sans-Serif" font-size="10.00">SkyX::GPUManager::addGroundPass</text>
</a>
</g>
</g>
<!-- Node28&#45;&gt;Node36 -->
<g id="edge11" class="edge"><title>Node28&#45;&gt;Node36</title>
<path fill="none" stroke="midnightblue" d="M132.883,-41.0712C145.449,-38.1601 158.579,-35.4556 171,-33.5 227.448,-24.6127 291.473,-19.8693 341.803,-17.3444"/>
<polygon fill="midnightblue" stroke="midnightblue" points="131.866,-37.7155 122.951,-43.4398 133.49,-44.5245 131.866,-37.7155"/>
</g>
<!-- Node30 -->
<g id="node3" class="node"><title>Node30</title>
<g id="a_node3"><a xlink:href="../../d6/de7/class_sky_x_1_1_cfg_file_manager.html#a38d52b744527dc5b536243e8f549eb7d" target="_top" xlink:title="SkyX::CfgFileManager\l::load">
<polygon fill="white" stroke="black" points="898,-68.5 898,-98.5 1011,-98.5 1011,-68.5 898,-68.5"/>
<text text-anchor="start" x="906" y="-86.5" font-family="Helvetica,sans-Serif" font-size="10.00">SkyX::CfgFileManager</text>
<text text-anchor="middle" x="954.5" y="-75.5" font-family="Helvetica,sans-Serif" font-size="10.00">::load</text>
</a>
</g>
</g>
<!-- Node29&#45;&gt;Node30 -->
<g id="edge2" class="edge"><title>Node29&#45;&gt;Node30</title>
<path fill="none" stroke="midnightblue" d="M702.451,-101.869C762.43,-97.4807 844.282,-91.4915 897.987,-87.5619"/>
<polygon fill="midnightblue" stroke="midnightblue" points="701.989,-98.3938 692.271,-102.614 702.5,-105.375 701.989,-98.3938"/>
</g>
<!-- Node32 -->
<g id="node5" class="node"><title>Node32</title>
<g id="a_node5"><a xlink:href="../../d6/d50/class_sky_x_1_1_cloud_layer.html#ac21bd19a89d1a9631ede722756a0ffb2" target="_top" xlink:title="SkyX::CloudLayer::\l_updateInternalPassParameters">
<polygon fill="white" stroke="black" points="354,-43.5 354,-73.5 509,-73.5 509,-43.5 354,-43.5"/>
<text text-anchor="start" x="362" y="-61.5" font-family="Helvetica,sans-Serif" font-size="10.00">SkyX::CloudLayer::</text>
<text text-anchor="middle" x="431.5" y="-50.5" font-family="Helvetica,sans-Serif" font-size="10.00">_updateInternalPassParameters</text>
</a>
</g>
</g>
<!-- Node31&#45;&gt;Node32 -->
<g id="edge4" class="edge"><title>Node31&#45;&gt;Node32</title>
<path fill="none" stroke="midnightblue" d="M316.278,-58.5C328.617,-58.5 341.39,-58.5 353.728,-58.5"/>
<polygon fill="midnightblue" stroke="midnightblue" points="316.034,-55.0001 306.034,-58.5 316.034,-62.0001 316.034,-55.0001"/>
</g>
<!-- Node31&#45;&gt;Node36 -->
<g id="edge10" class="edge"><title>Node31&#45;&gt;Node36</title>
<path fill="none" stroke="midnightblue" d="M309.701,-41.1045C320.506,-38.5062 331.543,-35.8972 342,-33.5 355.939,-30.3045 371.151,-26.9801 384.969,-24.022"/>
<polygon fill="midnightblue" stroke="midnightblue" points="308.764,-37.7299 299.867,-43.4813 310.409,-44.534 308.764,-37.7299"/>
</g>
<!-- Node33 -->
<g id="node6" class="node"><title>Node33</title>
<g id="a_node6"><a xlink:href="../../d6/d50/class_sky_x_1_1_cloud_layer.html#add18a961fbd1e2a0f2c700694d4c1069" target="_top" xlink:title="SkyX::CloudLayer::\l_registerCloudLayer">
<polygon fill="white" stroke="black" points="573,-43.5 573,-73.5 676,-73.5 676,-43.5 573,-43.5"/>
<text text-anchor="start" x="581" y="-61.5" font-family="Helvetica,sans-Serif" font-size="10.00">SkyX::CloudLayer::</text>
<text text-anchor="middle" x="624.5" y="-50.5" font-family="Helvetica,sans-Serif" font-size="10.00">_registerCloudLayer</text>
</a>
</g>
</g>
<!-- Node32&#45;&gt;Node33 -->
<g id="edge5" class="edge"><title>Node32&#45;&gt;Node33</title>
<path fill="none" stroke="midnightblue" d="M519.237,-58.5C537.62,-58.5 556.439,-58.5 572.94,-58.5"/>
<polygon fill="midnightblue" stroke="midnightblue" points="519.087,-55.0001 509.086,-58.5 519.086,-62.0001 519.087,-55.0001"/>
</g>
<!-- Node35 -->
<g id="node8" class="node"><title>Node35</title>
<g id="a_node8"><a xlink:href="../../d6/d50/class_sky_x_1_1_cloud_layer.html#ab0033e0fd011bd90fde4bed4e0966ea2" target="_top" xlink:title="SkyX::CloudLayer::getSun\lGradient">
<polygon fill="white" stroke="black" points="729.5,-0.5 729.5,-30.5 860.5,-30.5 860.5,-0.5 729.5,-0.5"/>
<text text-anchor="start" x="737.5" y="-18.5" font-family="Helvetica,sans-Serif" font-size="10.00">SkyX::CloudLayer::getSun</text>
<text text-anchor="middle" x="795" y="-7.5" font-family="Helvetica,sans-Serif" font-size="10.00">Gradient</text>
</a>
</g>
</g>
<!-- Node32&#45;&gt;Node35 -->
<g id="edge9" class="edge"><title>Node32&#45;&gt;Node35</title>
<path fill="none" stroke="midnightblue" d="M509.59,-41.493C525.223,-38.4757 541.593,-35.6239 557,-33.5 615.046,-25.4983 681.617,-20.8353 729.396,-18.2691"/>
<polygon fill="midnightblue" stroke="midnightblue" points="508.576,-38.1255 499.442,-43.4936 509.93,-44.9933 508.576,-38.1255"/>
</g>
<!-- Node34 -->
<g id="node7" class="node"><title>Node34</title>
<g id="a_node7"><a xlink:href="../../dd/d89/class_sky_x_1_1_clouds_manager.html#a49f0f35194ca5363129f38e4958f26de" target="_top" xlink:title="SkyX::CloudsManager::add">
<polygon fill="white" stroke="black" points="728,-53 728,-72 862,-72 862,-53 728,-53"/>
<text text-anchor="middle" x="795" y="-60" font-family="Helvetica,sans-Serif" font-size="10.00">SkyX::CloudsManager::add</text>
</a>
</g>
</g>
<!-- Node33&#45;&gt;Node34 -->
<g id="edge6" class="edge"><title>Node33&#45;&gt;Node34</title>
<path fill="none" stroke="midnightblue" d="M686.203,-59.941C699.731,-60.2621 714.139,-60.6042 727.873,-60.9302"/>
<polygon fill="midnightblue" stroke="midnightblue" points="686.136,-56.4385 676.056,-59.7001 685.97,-63.4366 686.136,-56.4385"/>
</g>
<!-- Node33&#45;&gt;Node35 -->
<g id="edge8" class="edge"><title>Node33&#45;&gt;Node35</title>
<path fill="none" stroke="midnightblue" d="M685.862,-43.096C701.911,-39.0005 719.22,-34.5832 735.185,-30.5091"/>
<polygon fill="midnightblue" stroke="midnightblue" points="684.88,-39.7345 676.056,-45.5986 686.61,-46.5171 684.88,-39.7345"/>
</g>
<!-- Node34&#45;&gt;Node30 -->
<g id="edge7" class="edge"><title>Node34&#45;&gt;Node30</title>
<path fill="none" stroke="midnightblue" d="M872.334,-72.6779C880.885,-73.818 889.474,-74.9633 897.698,-76.0597"/>
<polygon fill="midnightblue" stroke="midnightblue" points="872.713,-69.1975 862.338,-71.345 871.787,-76.136 872.713,-69.1975"/>
</g>
</g>
</svg>
