<?xml version="1.0" encoding="UTF-8" standalone="no"?>
<!DOCTYPE svg PUBLIC "-//W3C//DTD SVG 1.1//EN"
 "http://www.w3.org/Graphics/SVG/1.1/DTD/svg11.dtd">
<!-- Generated by graphviz version 2.38.0 (20140413.2041)
 -->
<!-- Title: SkyX::AtmosphereManager::getOptions Pages: 1 -->
<!--zoomable 342 -->
<svg id="main" version="1.1" xmlns="http://www.w3.org/2000/svg" xmlns:xlink="http://www.w3.org/1999/xlink" xml:space="preserve" onload="init(evt)">
<style type="text/css"><![CDATA[
.edge:hover path { stroke: red; }
.edge:hover polygon { stroke: red; fill: red; }
]]></style>
<script type="text/javascript"><![CDATA[
var edges = document.getElementsByTagName('g');
if (edges && edges.length) {
  for (var i=0;i<edges.length;i++) {
    if (edges[i].id.substr(0,4)=='edge') {
      edges[i].setAttribute('class','edge');
    }
  }
}
]]></script>
        <defs>
                <circle id="rim" cx="0" cy="0" r="7"/>
                <circle id="rim2" cx="0" cy="0" r="3.5"/>
                <g id="zoomPlus">
                        <use xlink:href="#rim" fill="#404040">
                                <set attributeName="fill" to="#808080" begin="zoomplus.mouseover" end="zoomplus.mouseout"/>
                        </use>
                        <path d="M-4,0h8M0,-4v8" fill="none" stroke="white" stroke-width="1.5" pointer-events="none"/>
                </g>
                <g id="zoomMin">
                        <use xlink:href="#rim" fill="#404040">
                                <set attributeName="fill" to="#808080" begin="zoomminus.mouseover" end="zoomminus.mouseout"/>
                        </use>
                        <path d="M-4,0h8" fill="none" stroke="white" stroke-width="1.5" pointer-events="none"/>
                </g>
                <g id="dirArrow">
                        <path fill="none" stroke="white" stroke-width="1.5" d="M0,-3.0v7 M-2.5,-0.5L0,-3.0L2.5,-0.5"/>
                </g>
               <g id="resetDef">
                       <use xlink:href="#rim2" fill="#404040">
                               <set attributeName="fill" to="#808080" begin="reset.mouseover" end="reset.mouseout"/>
                       </use>
               </g>
        </defs>

<script type="text/javascript">
var viewWidth = 1186;
var viewHeight = 342;
var sectionId = 'dynsection-8';
</script>
<script xlink:href="../../svgpan.js"/>
<svg id="graph" class="graph">
<g id="viewport">
<title>SkyX::AtmosphereManager::getOptions</title>
<polygon fill="white" stroke="none" points="-4,4 -4,-337.5 1182,-337.5 1182,4 -4,4"/>
<!-- Node50 -->
<g id="node1" class="node"><title>Node50</title>
<polygon fill="#bfbfbf" stroke="black" points="0,-176.5 0,-206.5 135,-206.5 135,-176.5 0,-176.5"/>
<text text-anchor="start" x="8" y="-194.5" font-family="Helvetica,sans-Serif" font-size="10.00">SkyX::AtmosphereManager</text>
<text text-anchor="middle" x="67.5" y="-183.5" font-family="Helvetica,sans-Serif" font-size="10.00">::getOptions</text>
</g>
<!-- Node51 -->
<g id="node2" class="node"><title>Node51</title>
<g id="a_node2"><a xlink:href="../../dd/d55/class_sky_x_1_1_atmosphere_manager.html#a88e37230ed8317e61149c7c95ce3a8ac" target="_top" xlink:title="SkyX::AtmosphereManager\l::getColorAt">
<polygon fill="white" stroke="black" points="171,-220.5 171,-250.5 306,-250.5 306,-220.5 171,-220.5"/>
<text text-anchor="start" x="179" y="-238.5" font-family="Helvetica,sans-Serif" font-size="10.00">SkyX::AtmosphereManager</text>
<text text-anchor="middle" x="238.5" y="-227.5" font-family="Helvetica,sans-Serif" font-size="10.00">::getColorAt</text>
</a>
</g>
</g>
<!-- Node50&#45;&gt;Node51 -->
<g id="edge1" class="edge"><title>Node50&#45;&gt;Node51</title>
<path fill="none" stroke="midnightblue" d="M126.188,-206.519C140.25,-210.18 155.417,-214.129 169.895,-217.899"/>
<polygon fill="midnightblue" stroke="midnightblue" points="169.226,-221.341 179.786,-220.474 170.99,-214.567 169.226,-221.341"/>
</g>
<!-- Node54 -->
<g id="node5" class="node"><title>Node54</title>
<g id="a_node5"><a xlink:href="../../dd/d55/class_sky_x_1_1_atmosphere_manager.html#a5d88ab140a0dda2b19c28e662179037b" target="_top" xlink:title="SkyX::AtmosphereManager\l::_scale">
<polygon fill="white" stroke="black" points="352,-176.5 352,-206.5 487,-206.5 487,-176.5 352,-176.5"/>
<text text-anchor="start" x="360" y="-194.5" font-family="Helvetica,sans-Serif" font-size="10.00">SkyX::AtmosphereManager</text>
<text text-anchor="middle" x="419.5" y="-183.5" font-family="Helvetica,sans-Serif" font-size="10.00">::_scale</text>
</a>
</g>
</g>
<!-- Node50&#45;&gt;Node54 -->
<g id="edge18" class="edge"><title>Node50&#45;&gt;Node54</title>
<path fill="none" stroke="midnightblue" d="M135.156,-191.5C194.056,-191.5 279.952,-191.5 341.713,-191.5"/>
<polygon fill="midnightblue" stroke="midnightblue" points="341.795,-195 351.795,-191.5 341.795,-188 341.795,-195"/>
</g>
<!-- Node56 -->
<g id="node7" class="node"><title>Node56</title>
<g id="a_node7"><a xlink:href="../../dd/d55/class_sky_x_1_1_atmosphere_manager.html#a806c5314af7ee02de3d25bfd4300866e" target="_top" xlink:title="SkyX::AtmosphereManager\l::_update">
<polygon fill="white" stroke="black" points="171,-88.5 171,-118.5 306,-118.5 306,-88.5 171,-88.5"/>
<text text-anchor="start" x="179" y="-106.5" font-family="Helvetica,sans-Serif" font-size="10.00">SkyX::AtmosphereManager</text>
<text text-anchor="middle" x="238.5" y="-95.5" font-family="Helvetica,sans-Serif" font-size="10.00">::_update</text>
</a>
</g>
</g>
<!-- Node50&#45;&gt;Node56 -->
<g id="edge6" class="edge"><title>Node50&#45;&gt;Node56</title>
<path fill="none" stroke="midnightblue" d="M97.5521,-176.372C125.69,-161.72 168.515,-139.421 199.38,-123.35"/>
<polygon fill="midnightblue" stroke="midnightblue" points="201.292,-126.3 208.545,-118.577 198.059,-120.092 201.292,-126.3"/>
</g>
<!-- Node52 -->
<g id="node3" class="node"><title>Node52</title>
<g id="a_node3"><a xlink:href="../../de/db3/class_sky_x_1_1_sky_x.html#aa964a6849d5e2b76b0a595c8712f3761" target="_top" xlink:title="SkyX::SkyX::getController">
<polygon fill="white" stroke="black" points="355.5,-314 355.5,-333 483.5,-333 483.5,-314 355.5,-314"/>
<text text-anchor="middle" x="419.5" y="-321" font-family="Helvetica,sans-Serif" font-size="10.00">SkyX::SkyX::getController</text>
</a>
</g>
</g>
<!-- Node51&#45;&gt;Node52 -->
<g id="edge2" class="edge"><title>Node51&#45;&gt;Node52</title>
<path fill="none" stroke="midnightblue" d="M257.601,-250.583C277.227,-266.215 310.044,-290.307 342,-304.5 347.448,-306.92 353.257,-309.066 359.147,-310.962"/>
<polygon fill="midnightblue" stroke="midnightblue" points="358.502,-314.422 369.085,-313.921 360.499,-307.713 358.502,-314.422"/>
</g>
<!-- Node53 -->
<g id="node4" class="node"><title>Node53</title>
<g id="a_node4"><a xlink:href="../../d8/d1d/class_sky_x_1_1_controller.html#abf428f96335598656d118e15bea54489" target="_top" xlink:title="SkyX::Controller::getSun\lDirection">
<polygon fill="white" stroke="black" points="358,-264.5 358,-294.5 481,-294.5 481,-264.5 358,-264.5"/>
<text text-anchor="start" x="366" y="-282.5" font-family="Helvetica,sans-Serif" font-size="10.00">SkyX::Controller::getSun</text>
<text text-anchor="middle" x="419.5" y="-271.5" font-family="Helvetica,sans-Serif" font-size="10.00">Direction</text>
</a>
</g>
</g>
<!-- Node51&#45;&gt;Node53 -->
<g id="edge3" class="edge"><title>Node51&#45;&gt;Node53</title>
<path fill="none" stroke="midnightblue" d="M300.601,-250.519C315.805,-254.256 332.228,-258.294 347.849,-262.133"/>
<polygon fill="midnightblue" stroke="midnightblue" points="347.431,-265.635 357.978,-264.623 349.102,-258.837 347.431,-265.635"/>
</g>
<!-- Node51&#45;&gt;Node54 -->
<g id="edge4" class="edge"><title>Node51&#45;&gt;Node54</title>
<path fill="none" stroke="midnightblue" d="M300.601,-220.481C315.639,-216.784 331.869,-212.795 347.337,-208.993"/>
<polygon fill="midnightblue" stroke="midnightblue" points="348.495,-212.312 357.371,-206.526 346.824,-205.514 348.495,-212.312"/>
</g>
<!-- Node55 -->
<g id="node6" class="node"><title>Node55</title>
<g id="a_node6"><a xlink:href="../../de/db3/class_sky_x_1_1_sky_x.html#a3f20af6ba71e7a5a177d10533944179a" target="_top" xlink:title="SkyX::SkyX::getLightingMode">
<polygon fill="white" stroke="black" points="347,-226 347,-245 492,-245 492,-226 347,-226"/>
<text text-anchor="middle" x="419.5" y="-233" font-family="Helvetica,sans-Serif" font-size="10.00">SkyX::SkyX::getLightingMode</text>
</a>
</g>
</g>
<!-- Node51&#45;&gt;Node55 -->
<g id="edge5" class="edge"><title>Node51&#45;&gt;Node55</title>
<path fill="none" stroke="midnightblue" d="M306.153,-235.5C316.143,-235.5 326.539,-235.5 336.798,-235.5"/>
<polygon fill="midnightblue" stroke="midnightblue" points="336.991,-239 346.991,-235.5 336.991,-232 336.991,-239"/>
</g>
<!-- Node57 -->
<g id="node8" class="node"><title>Node57</title>
<g id="a_node8"><a xlink:href="../../de/db3/class_sky_x_1_1_sky_x.html#a1624a12caa49011e0b96ac15e0c8f524" target="_top" xlink:title="SkyX::SkyX::getGPUManager">
<polygon fill="white" stroke="black" points="346.5,-138 346.5,-157 492.5,-157 492.5,-138 346.5,-138"/>
<text text-anchor="middle" x="419.5" y="-145" font-family="Helvetica,sans-Serif" font-size="10.00">SkyX::SkyX::getGPUManager</text>
</a>
</g>
</g>
<!-- Node56&#45;&gt;Node57 -->
<g id="edge7" class="edge"><title>Node56&#45;&gt;Node57</title>
<path fill="none" stroke="midnightblue" d="M300.601,-118.519C323.246,-124.086 348.597,-130.317 369.972,-135.571"/>
<polygon fill="midnightblue" stroke="midnightblue" points="369.255,-138.999 379.802,-137.988 370.926,-132.202 369.255,-138.999"/>
</g>
<!-- Node58 -->
<g id="node9" class="node"><title>Node58</title>
<g id="a_node9"><a xlink:href="../../d8/d41/class_sky_x_1_1_g_p_u_manager.html#a5cdf4a1ea705ca36dc0df320c7495fd5" target="_top" xlink:title="SkyX::GPUManager::setGpu\lProgramParameter">
<polygon fill="white" stroke="black" points="349,-88.5 349,-118.5 490,-118.5 490,-88.5 349,-88.5"/>
<text text-anchor="start" x="357" y="-106.5" font-family="Helvetica,sans-Serif" font-size="10.00">SkyX::GPUManager::setGpu</text>
<text text-anchor="middle" x="419.5" y="-95.5" font-family="Helvetica,sans-Serif" font-size="10.00">ProgramParameter</text>
</a>
</g>
</g>
<!-- Node56&#45;&gt;Node58 -->
<g id="edge8" class="edge"><title>Node56&#45;&gt;Node58</title>
<path fill="none" stroke="midnightblue" d="M306.153,-103.5C316.699,-103.5 327.698,-103.5 338.51,-103.5"/>
<polygon fill="midnightblue" stroke="midnightblue" points="338.797,-107 348.797,-103.5 338.797,-100 338.797,-107"/>
</g>
<!-- Node66 -->
<g id="node17" class="node"><title>Node66</title>
<g id="a_node17"><a xlink:href="../../de/db3/class_sky_x_1_1_sky_x.html#a598378553635b91ffb0d2f92ca8e3172" target="_top" xlink:title="SkyX::SkyX::getCloudsManager">
<polygon fill="white" stroke="black" points="342,-50 342,-69 497,-69 497,-50 342,-50"/>
<text text-anchor="middle" x="419.5" y="-57" font-family="Helvetica,sans-Serif" font-size="10.00">SkyX::SkyX::getCloudsManager</text>
</a>
</g>
</g>
<!-- Node56&#45;&gt;Node66 -->
<g id="edge16" class="edge"><title>Node56&#45;&gt;Node66</title>
<path fill="none" stroke="midnightblue" d="M300.601,-88.4808C323.246,-82.9144 348.597,-76.6829 369.972,-71.4287"/>
<polygon fill="midnightblue" stroke="midnightblue" points="370.926,-74.7984 379.802,-69.0124 369.255,-68.0007 370.926,-74.7984"/>
</g>
<!-- Node67 -->
<g id="node18" class="node"><title>Node67</title>
<g id="a_node18"><a xlink:href="../../dd/d89/class_sky_x_1_1_clouds_manager.html#a45fe63b8af06ccdab13e53b0caa04ec8" target="_top" xlink:title="SkyX::CloudsManager\l::update">
<polygon fill="white" stroke="black" points="363,-0.5 363,-30.5 476,-30.5 476,-0.5 363,-0.5"/>
<text text-anchor="start" x="371" y="-18.5" font-family="Helvetica,sans-Serif" font-size="10.00">SkyX::CloudsManager</text>
<text text-anchor="middle" x="419.5" y="-7.5" font-family="Helvetica,sans-Serif" font-size="10.00">::update</text>
</a>
</g>
</g>
<!-- Node56&#45;&gt;Node67 -->
<g id="edge17" class="edge"><title>Node56&#45;&gt;Node67</title>
<path fill="none" stroke="midnightblue" d="M260.665,-88.4364C280.836,-74.5871 312.429,-54.1868 342,-40.5 346.914,-38.2258 352.092,-36.0673 357.344,-34.0415"/>
<polygon fill="midnightblue" stroke="midnightblue" points="358.661,-37.2862 366.832,-30.5422 356.239,-30.7185 358.661,-37.2862"/>
</g>
<!-- Node59 -->
<g id="node10" class="node"><title>Node59</title>
<g id="a_node10"><a xlink:href="../../de/db3/class_sky_x_1_1_sky_x.html#a66c1cbd869fdbeaf4bb8950f4d295ea0" target="_top" xlink:title="SkyX::SkyX::getMeshManager">
<polygon fill="white" stroke="black" points="533,-116 533,-135 682,-135 682,-116 533,-116"/>
<text text-anchor="middle" x="607.5" y="-123" font-family="Helvetica,sans-Serif" font-size="10.00">SkyX::SkyX::getMeshManager</text>
</a>
</g>
</g>
<!-- Node58&#45;&gt;Node59 -->
<g id="edge9" class="edge"><title>Node58&#45;&gt;Node59</title>
<path fill="none" stroke="midnightblue" d="M490.024,-111.723C500.689,-112.985 511.795,-114.298 522.729,-115.592"/>
<polygon fill="midnightblue" stroke="midnightblue" points="522.363,-119.073 532.705,-116.772 523.185,-112.121 522.363,-119.073"/>
</g>
<!-- Node60 -->
<g id="node11" class="node"><title>Node60</title>
<g id="a_node11"><a xlink:href="../../df/d6a/class_sky_x_1_1_mesh_manager.html#a1c0fd1d7b6d3ad0810d095ea41b664b9" target="_top" xlink:title="SkyX::MeshManager::\lisCreated">
<polygon fill="white" stroke="black" points="551,-66.5 551,-96.5 664,-96.5 664,-66.5 551,-66.5"/>
<text text-anchor="start" x="559" y="-84.5" font-family="Helvetica,sans-Serif" font-size="10.00">SkyX::MeshManager::</text>
<text text-anchor="middle" x="607.5" y="-73.5" font-family="Helvetica,sans-Serif" font-size="10.00">isCreated</text>
</a>
</g>
</g>
<!-- Node58&#45;&gt;Node60 -->
<g id="edge10" class="edge"><title>Node58&#45;&gt;Node60</title>
<path fill="none" stroke="midnightblue" d="M490.024,-95.2767C506.687,-93.3059 524.425,-91.2078 540.903,-89.2587"/>
<polygon fill="midnightblue" stroke="midnightblue" points="541.46,-92.7174 550.98,-88.0669 540.638,-85.7658 541.46,-92.7174"/>
</g>
<!-- Node61 -->
<g id="node12" class="node"><title>Node61</title>
<g id="a_node12"><a xlink:href="../../df/d6a/class_sky_x_1_1_mesh_manager.html#a9f3b755b92a6fcec4f7d274bf4530769" target="_top" xlink:title="SkyX::MeshManager::\lsetGeometryParameters">
<polygon fill="white" stroke="black" points="718,-66.5 718,-96.5 841,-96.5 841,-66.5 718,-66.5"/>
<text text-anchor="start" x="726" y="-84.5" font-family="Helvetica,sans-Serif" font-size="10.00">SkyX::MeshManager::</text>
<text text-anchor="middle" x="779.5" y="-73.5" font-family="Helvetica,sans-Serif" font-size="10.00">setGeometryParameters</text>
</a>
</g>
</g>
<!-- Node60&#45;&gt;Node61 -->
<g id="edge11" class="edge"><title>Node60&#45;&gt;Node61</title>
<path fill="none" stroke="midnightblue" d="M664.164,-81.5C677.956,-81.5 692.923,-81.5 707.343,-81.5"/>
<polygon fill="midnightblue" stroke="midnightblue" points="707.722,-85.0001 717.722,-81.5 707.722,-78.0001 707.722,-85.0001"/>
</g>
<!-- Node62 -->
<g id="node13" class="node"><title>Node62</title>
<g id="a_node13"><a xlink:href="../../df/d6a/class_sky_x_1_1_mesh_manager.html#a6f83e79605385575af31185a92a2db7d" target="_top" xlink:title="SkyX::MeshManager::\lcreate">
<polygon fill="white" stroke="black" points="877,-66.5 877,-96.5 990,-96.5 990,-66.5 877,-66.5"/>
<text text-anchor="start" x="885" y="-84.5" font-family="Helvetica,sans-Serif" font-size="10.00">SkyX::MeshManager::</text>
<text text-anchor="middle" x="933.5" y="-73.5" font-family="Helvetica,sans-Serif" font-size="10.00">create</text>
</a>
</g>
</g>
<!-- Node61&#45;&gt;Node62 -->
<g id="edge12" class="edge"><title>Node61&#45;&gt;Node62</title>
<path fill="none" stroke="midnightblue" d="M841.011,-81.5C849.369,-81.5 857.988,-81.5 866.44,-81.5"/>
<polygon fill="midnightblue" stroke="midnightblue" points="866.638,-85.0001 876.638,-81.5 866.638,-78.0001 866.638,-85.0001"/>
</g>
<!-- Node63 -->
<g id="node14" class="node"><title>Node63</title>
<g id="a_node14"><a xlink:href="../../df/d6a/class_sky_x_1_1_mesh_manager.html#a4d9a39e8f56eed532f777e6b9c5a7046" target="_top" xlink:title="SkyX::MeshManager::\l_createGeometry">
<polygon fill="white" stroke="black" points="1045.5,-110.5 1045.5,-140.5 1158.5,-140.5 1158.5,-110.5 1045.5,-110.5"/>
<text text-anchor="start" x="1053.5" y="-128.5" font-family="Helvetica,sans-Serif" font-size="10.00">SkyX::MeshManager::</text>
<text text-anchor="middle" x="1102" y="-117.5" font-family="Helvetica,sans-Serif" font-size="10.00">_createGeometry</text>
</a>
</g>
</g>
<!-- Node62&#45;&gt;Node63 -->
<g id="edge13" class="edge"><title>Node62&#45;&gt;Node63</title>
<path fill="none" stroke="midnightblue" d="M990.405,-96.2738C1004.9,-100.103 1020.63,-104.262 1035.57,-108.208"/>
<polygon fill="midnightblue" stroke="midnightblue" points="1034.68,-111.594 1045.24,-110.765 1036.47,-104.826 1034.68,-111.594"/>
</g>
<!-- Node64 -->
<g id="node15" class="node"><title>Node64</title>
<g id="a_node15"><a xlink:href="../../de/db3/class_sky_x_1_1_sky_x.html#ac0cff17e4fac3749f9a36e1b76ebe189" target="_top" xlink:title="SkyX::SkyX::getSceneManager">
<polygon fill="white" stroke="black" points="1026,-72 1026,-91 1178,-91 1178,-72 1026,-72"/>
<text text-anchor="middle" x="1102" y="-79" font-family="Helvetica,sans-Serif" font-size="10.00">SkyX::SkyX::getSceneManager</text>
</a>
</g>
</g>
<!-- Node62&#45;&gt;Node64 -->
<g id="edge14" class="edge"><title>Node62&#45;&gt;Node64</title>
<path fill="none" stroke="midnightblue" d="M990.405,-81.5C998.554,-81.5 1007.09,-81.5 1015.67,-81.5"/>
<polygon fill="midnightblue" stroke="midnightblue" points="1015.72,-85.0001 1025.72,-81.5 1015.72,-78.0001 1015.72,-85.0001"/>
</g>
<!-- Node65 -->
<g id="node16" class="node"><title>Node65</title>
<g id="a_node16"><a xlink:href="../../de/db3/class_sky_x_1_1_sky_x.html#a628b7c569b922b64d0964f43d611f1e3" target="_top" xlink:title="SkyX::SkyX::getRenderQueue\lGroups">
<polygon fill="white" stroke="black" points="1029,-22.5 1029,-52.5 1175,-52.5 1175,-22.5 1029,-22.5"/>
<text text-anchor="start" x="1037" y="-40.5" font-family="Helvetica,sans-Serif" font-size="10.00">SkyX::SkyX::getRenderQueue</text>
<text text-anchor="middle" x="1102" y="-29.5" font-family="Helvetica,sans-Serif" font-size="10.00">Groups</text>
</a>
</g>
</g>
<!-- Node62&#45;&gt;Node65 -->
<g id="edge15" class="edge"><title>Node62&#45;&gt;Node65</title>
<path fill="none" stroke="midnightblue" d="M990.405,-66.7262C1004.45,-63.0141 1019.67,-58.9933 1034.19,-55.156"/>
<polygon fill="midnightblue" stroke="midnightblue" points="1035.33,-58.4737 1044.11,-52.5349 1033.54,-51.706 1035.33,-58.4737"/>
</g>
</g>
</svg>
        <g id="navigator" transform="translate(0 0)" fill="#404254">
                <rect fill="#f2f5e9" fill-opacity="0.5" stroke="#606060" stroke-width=".5" x="0" y="0" width="60" height="60"/>
                <use id="zoomplus" xlink:href="#zoomPlus" x="17" y="9" onmousedown="handleZoom(evt,'in')"/>
                <use id="zoomminus" xlink:href="#zoomMin" x="42" y="9" onmousedown="handleZoom(evt,'out')"/>
                <use id="reset" xlink:href="#resetDef" x="30" y="36" onmousedown="handleReset()"/>
                <g id="arrowUp" xlink:href="#dirArrow" transform="translate(30 24)" onmousedown="handlePan(0,-1)">
                  <use xlink:href="#rim" fill="#404040">
                        <set attributeName="fill" to="#808080" begin="arrowUp.mouseover" end="arrowUp.mouseout"/>
                  </use>
                  <path fill="none" stroke="white" stroke-width="1.5" d="M0,-3.0v7 M-2.5,-0.5L0,-3.0L2.5,-0.5"/>
                </g>
                <g id="arrowRight" xlink:href="#dirArrow" transform="rotate(90) translate(36 -43)" onmousedown="handlePan(1,0)">
                  <use xlink:href="#rim" fill="#404040">
                        <set attributeName="fill" to="#808080" begin="arrowRight.mouseover" end="arrowRight.mouseout"/>
                  </use>
                  <path fill="none" stroke="white" stroke-width="1.5" d="M0,-3.0v7 M-2.5,-0.5L0,-3.0L2.5,-0.5"/>
                </g>
                <g id="arrowDown" xlink:href="#dirArrow" transform="rotate(180) translate(-30 -48)" onmousedown="handlePan(0,1)">
                  <use xlink:href="#rim" fill="#404040">
                        <set attributeName="fill" to="#808080" begin="arrowDown.mouseover" end="arrowDown.mouseout"/>
                  </use>
                  <path fill="none" stroke="white" stroke-width="1.5" d="M0,-3.0v7 M-2.5,-0.5L0,-3.0L2.5,-0.5"/>
                </g>
                <g id="arrowLeft" xlink:href="#dirArrow" transform="rotate(270) translate(-36 17)" onmousedown="handlePan(-1,0)">
                  <use xlink:href="#rim" fill="#404040">
                        <set attributeName="fill" to="#808080" begin="arrowLeft.mouseover" end="arrowLeft.mouseout"/>
                  </use>
                  <path fill="none" stroke="white" stroke-width="1.5" d="M0,-3.0v7 M-2.5,-0.5L0,-3.0L2.5,-0.5"/>
                </g>
        </g>
        <svg viewBox="0 0 15 15" width="100%" height="30px" preserveAspectRatio="xMaxYMin meet">
         <g id="arrow_out" transform="scale(0.3 0.3)">
          <a xlink:href="class_sky_x_1_1_atmosphere_manager_abcdfead934afa273afdeb542ab2633b2_cgraph_org.svg" target="_base">
           <rect id="button" ry="5" rx="5" y="6" x="6" height="38" width="38"
                fill="#f2f5e9" fill-opacity="0.5" stroke="#606060" stroke-width="1.0"/>
           <path id="arrow"
             d="M 11.500037,31.436501 C 11.940474,20.09759 22.043105,11.32322 32.158766,21.979434 L 37.068811,17.246167 C 37.068811,17.246167 37.088388,32 37.088388,32 L 22.160133,31.978069 C 22.160133,31.978069 26.997745,27.140456 26.997745,27.140456 C 18.528582,18.264221 13.291696,25.230495 11.500037,31.436501 z"
             style="fill:#404040;"/>
          </a>
         </g>
        </svg>
</svg>
