<?xml version="1.0" encoding="UTF-8" standalone="no"?>
<!DOCTYPE svg PUBLIC "-//W3C//DTD SVG 1.1//EN"
 "http://www.w3.org/Graphics/SVG/1.1/DTD/svg11.dtd">
<!-- Generated by graphviz version 2.38.0 (20140413.2041)
 -->
<!-- Title: SkyX::AtmosphereManager::getOptions Pages: 1 -->
<!--zoomable 100 -->
<svg id="main" version="1.1" xmlns="http://www.w3.org/2000/svg" xmlns:xlink="http://www.w3.org/1999/xlink" xml:space="preserve" onload="init(evt)">
<style type="text/css"><![CDATA[
.edge:hover path { stroke: red; }
.edge:hover polygon { stroke: red; fill: red; }
]]></style>
<script type="text/javascript"><![CDATA[
var edges = document.getElementsByTagName('g');
if (edges && edges.length) {
  for (var i=0;i<edges.length;i++) {
    if (edges[i].id.substr(0,4)=='edge') {
      edges[i].setAttribute('class','edge');
    }
  }
}
]]></script>
        <defs>
                <circle id="rim" cx="0" cy="0" r="7"/>
                <circle id="rim2" cx="0" cy="0" r="3.5"/>
                <g id="zoomPlus">
                        <use xlink:href="#rim" fill="#404040">
                                <set attributeName="fill" to="#808080" begin="zoomplus.mouseover" end="zoomplus.mouseout"/>
                        </use>
                        <path d="M-4,0h8M0,-4v8" fill="none" stroke="white" stroke-width="1.5" pointer-events="none"/>
                </g>
                <g id="zoomMin">
                        <use xlink:href="#rim" fill="#404040">
                                <set attributeName="fill" to="#808080" begin="zoomminus.mouseover" end="zoomminus.mouseout"/>
                        </use>
                        <path d="M-4,0h8" fill="none" stroke="white" stroke-width="1.5" pointer-events="none"/>
                </g>
                <g id="dirArrow">
                        <path fill="none" stroke="white" stroke-width="1.5" d="M0,-3.0v7 M-2.5,-0.5L0,-3.0L2.5,-0.5"/>
                </g>
               <g id="resetDef">
                       <use xlink:href="#rim2" fill="#404040">
                               <set attributeName="fill" to="#808080" begin="reset.mouseover" end="reset.mouseout"/>
                       </use>
               </g>
        </defs>

<script type="text/javascript">
var viewWidth = 816;
var viewHeight = 100;
var sectionId = 'dynsection-9';
</script>
<script xlink:href="../../svgpan.js"/>
<svg id="graph" class="graph">
<g id="viewport">
<title>SkyX::AtmosphereManager::getOptions</title>
<polygon fill="white" stroke="none" points="-4,4 -4,-95.5 812,-95.5 812,4 -4,4"/>
<!-- Node68 -->
<g id="node1" class="node"><title>Node68</title>
<polygon fill="#bfbfbf" stroke="black" points="0,-17 0,-47 135,-47 135,-17 0,-17"/>
<text text-anchor="start" x="8" y="-35" font-family="Helvetica,sans-Serif" font-size="10.00">SkyX::AtmosphereManager</text>
<text text-anchor="middle" x="67.5" y="-24" font-family="Helvetica,sans-Serif" font-size="10.00">::getOptions</text>
</g>
<!-- Node69 -->
<g id="node2" class="node"><title>Node69</title>
<g id="a_node2"><a xlink:href="../../d6/d50/class_sky_x_1_1_cloud_layer.html#ac21bd19a89d1a9631ede722756a0ffb2" target="_top" xlink:title="SkyX::CloudLayer::\l_updateInternalPassParameters">
<polygon fill="white" stroke="black" points="183,-39 183,-69 338,-69 338,-39 183,-39"/>
<text text-anchor="start" x="191" y="-57" font-family="Helvetica,sans-Serif" font-size="10.00">SkyX::CloudLayer::</text>
<text text-anchor="middle" x="260.5" y="-46" font-family="Helvetica,sans-Serif" font-size="10.00">_updateInternalPassParameters</text>
</a>
</g>
</g>
<!-- Node68&#45;&gt;Node69 -->
<g id="edge1" class="edge"><title>Node68&#45;&gt;Node69</title>
<path fill="none" stroke="midnightblue" d="M145.278,-40.8435C157.617,-42.2648 170.39,-43.736 182.728,-45.1572"/>
<polygon fill="midnightblue" stroke="midnightblue" points="145.369,-37.331 135.034,-39.6636 144.568,-44.285 145.369,-37.331"/>
</g>
<!-- Node74 -->
<g id="node7" class="node"><title>Node74</title>
<g id="a_node7"><a xlink:href="../../d8/d41/class_sky_x_1_1_g_p_u_manager.html#af949460a2e4caace1847cb0b251516a1" target="_top" xlink:title="SkyX::GPUManager::addGroundPass">
<polygon fill="white" stroke="black" points="171,-0.5 171,-19.5 350,-19.5 350,-0.5 171,-0.5"/>
<text text-anchor="middle" x="260.5" y="-7.5" font-family="Helvetica,sans-Serif" font-size="10.00">SkyX::GPUManager::addGroundPass</text>
</a>
</g>
</g>
<!-- Node68&#45;&gt;Node74 -->
<g id="edge7" class="edge"><title>Node68&#45;&gt;Node74</title>
<path fill="none" stroke="midnightblue" d="M145.268,-23.1577C155.622,-21.965 166.281,-20.7372 176.734,-19.5332"/>
<polygon fill="midnightblue" stroke="midnightblue" points="144.568,-19.715 135.034,-24.3364 145.369,-26.669 144.568,-19.715"/>
</g>
<!-- Node70 -->
<g id="node3" class="node"><title>Node70</title>
<g id="a_node3"><a xlink:href="../../d6/d50/class_sky_x_1_1_cloud_layer.html#add18a961fbd1e2a0f2c700694d4c1069" target="_top" xlink:title="SkyX::CloudLayer::\l_registerCloudLayer">
<polygon fill="white" stroke="black" points="386,-61 386,-91 489,-91 489,-61 386,-61"/>
<text text-anchor="start" x="394" y="-79" font-family="Helvetica,sans-Serif" font-size="10.00">SkyX::CloudLayer::</text>
<text text-anchor="middle" x="437.5" y="-68" font-family="Helvetica,sans-Serif" font-size="10.00">_registerCloudLayer</text>
</a>
</g>
</g>
<!-- Node69&#45;&gt;Node70 -->
<g id="edge2" class="edge"><title>Node69&#45;&gt;Node70</title>
<path fill="none" stroke="midnightblue" d="M348.293,-64.9111C361.156,-66.5282 374.04,-68.1478 385.831,-69.6302"/>
<polygon fill="midnightblue" stroke="midnightblue" points="348.361,-61.3923 338.003,-63.6175 347.488,-68.3376 348.361,-61.3923"/>
</g>
<!-- Node73 -->
<g id="node6" class="node"><title>Node73</title>
<g id="a_node6"><a xlink:href="../../d6/d50/class_sky_x_1_1_cloud_layer.html#ab0033e0fd011bd90fde4bed4e0966ea2" target="_top" xlink:title="SkyX::CloudLayer::getSun\lGradient">
<polygon fill="white" stroke="black" points="526.5,-17 526.5,-47 657.5,-47 657.5,-17 526.5,-17"/>
<text text-anchor="start" x="534.5" y="-35" font-family="Helvetica,sans-Serif" font-size="10.00">SkyX::CloudLayer::getSun</text>
<text text-anchor="middle" x="592" y="-24" font-family="Helvetica,sans-Serif" font-size="10.00">Gradient</text>
</a>
</g>
</g>
<!-- Node69&#45;&gt;Node73 -->
<g id="edge6" class="edge"><title>Node69&#45;&gt;Node73</title>
<path fill="none" stroke="midnightblue" d="M348.562,-48.1871C404.324,-44.4639 475.487,-39.7126 526.261,-36.3225"/>
<polygon fill="midnightblue" stroke="midnightblue" points="348.082,-44.7112 338.337,-48.8697 348.548,-51.6957 348.082,-44.7112"/>
</g>
<!-- Node71 -->
<g id="node4" class="node"><title>Node71</title>
<g id="a_node4"><a xlink:href="../../dd/d89/class_sky_x_1_1_clouds_manager.html#a49f0f35194ca5363129f38e4958f26de" target="_top" xlink:title="SkyX::CloudsManager::add">
<polygon fill="white" stroke="black" points="525,-66.5 525,-85.5 659,-85.5 659,-66.5 525,-66.5"/>
<text text-anchor="middle" x="592" y="-73.5" font-family="Helvetica,sans-Serif" font-size="10.00">SkyX::CloudsManager::add</text>
</a>
</g>
</g>
<!-- Node70&#45;&gt;Node71 -->
<g id="edge3" class="edge"><title>Node70&#45;&gt;Node71</title>
<path fill="none" stroke="midnightblue" d="M499.386,-76C507.8,-76 516.475,-76 524.977,-76"/>
<polygon fill="midnightblue" stroke="midnightblue" points="499.28,-72.5001 489.28,-76 499.28,-79.5001 499.28,-72.5001"/>
</g>
<!-- Node70&#45;&gt;Node73 -->
<g id="edge5" class="edge"><title>Node70&#45;&gt;Node73</title>
<path fill="none" stroke="midnightblue" d="M499.176,-58.4936C512.316,-54.7022 526.101,-50.725 538.878,-47.0385"/>
<polygon fill="midnightblue" stroke="midnightblue" points="497.918,-55.2136 489.28,-61.3486 499.859,-61.9392 497.918,-55.2136"/>
</g>
<!-- Node72 -->
<g id="node5" class="node"><title>Node72</title>
<g id="a_node5"><a xlink:href="../../d6/de7/class_sky_x_1_1_cfg_file_manager.html#a38d52b744527dc5b536243e8f549eb7d" target="_top" xlink:title="SkyX::CfgFileManager\l::load">
<polygon fill="white" stroke="black" points="695,-61 695,-91 808,-91 808,-61 695,-61"/>
<text text-anchor="start" x="703" y="-79" font-family="Helvetica,sans-Serif" font-size="10.00">SkyX::CfgFileManager</text>
<text text-anchor="middle" x="751.5" y="-68" font-family="Helvetica,sans-Serif" font-size="10.00">::load</text>
</a>
</g>
</g>
<!-- Node71&#45;&gt;Node72 -->
<g id="edge4" class="edge"><title>Node71&#45;&gt;Node72</title>
<path fill="none" stroke="midnightblue" d="M669.613,-76C678.072,-76 686.564,-76 694.698,-76"/>
<polygon fill="midnightblue" stroke="midnightblue" points="669.338,-72.5001 659.338,-76 669.338,-79.5001 669.338,-72.5001"/>
</g>
</g>
</svg>
        <g id="navigator" transform="translate(0 0)" fill="#404254">
                <rect fill="#f2f5e9" fill-opacity="0.5" stroke="#606060" stroke-width=".5" x="0" y="0" width="60" height="60"/>
                <use id="zoomplus" xlink:href="#zoomPlus" x="17" y="9" onmousedown="handleZoom(evt,'in')"/>
                <use id="zoomminus" xlink:href="#zoomMin" x="42" y="9" onmousedown="handleZoom(evt,'out')"/>
                <use id="reset" xlink:href="#resetDef" x="30" y="36" onmousedown="handleReset()"/>
                <g id="arrowUp" xlink:href="#dirArrow" transform="translate(30 24)" onmousedown="handlePan(0,-1)">
                  <use xlink:href="#rim" fill="#404040">
                        <set attributeName="fill" to="#808080" begin="arrowUp.mouseover" end="arrowUp.mouseout"/>
                  </use>
                  <path fill="none" stroke="white" stroke-width="1.5" d="M0,-3.0v7 M-2.5,-0.5L0,-3.0L2.5,-0.5"/>
                </g>
                <g id="arrowRight" xlink:href="#dirArrow" transform="rotate(90) translate(36 -43)" onmousedown="handlePan(1,0)">
                  <use xlink:href="#rim" fill="#404040">
                        <set attributeName="fill" to="#808080" begin="arrowRight.mouseover" end="arrowRight.mouseout"/>
                  </use>
                  <path fill="none" stroke="white" stroke-width="1.5" d="M0,-3.0v7 M-2.5,-0.5L0,-3.0L2.5,-0.5"/>
                </g>
                <g id="arrowDown" xlink:href="#dirArrow" transform="rotate(180) translate(-30 -48)" onmousedown="handlePan(0,1)">
                  <use xlink:href="#rim" fill="#404040">
                        <set attributeName="fill" to="#808080" begin="arrowDown.mouseover" end="arrowDown.mouseout"/>
                  </use>
                  <path fill="none" stroke="white" stroke-width="1.5" d="M0,-3.0v7 M-2.5,-0.5L0,-3.0L2.5,-0.5"/>
                </g>
                <g id="arrowLeft" xlink:href="#dirArrow" transform="rotate(270) translate(-36 17)" onmousedown="handlePan(-1,0)">
                  <use xlink:href="#rim" fill="#404040">
                        <set attributeName="fill" to="#808080" begin="arrowLeft.mouseover" end="arrowLeft.mouseout"/>
                  </use>
                  <path fill="none" stroke="white" stroke-width="1.5" d="M0,-3.0v7 M-2.5,-0.5L0,-3.0L2.5,-0.5"/>
                </g>
        </g>
        <svg viewBox="0 0 15 15" width="100%" height="30px" preserveAspectRatio="xMaxYMin meet">
         <g id="arrow_out" transform="scale(0.3 0.3)">
          <a xlink:href="class_sky_x_1_1_atmosphere_manager_abcdfead934afa273afdeb542ab2633b2_icgraph_org.svg" target="_base">
           <rect id="button" ry="5" rx="5" y="6" x="6" height="38" width="38"
                fill="#f2f5e9" fill-opacity="0.5" stroke="#606060" stroke-width="1.0"/>
           <path id="arrow"
             d="M 11.500037,31.436501 C 11.940474,20.09759 22.043105,11.32322 32.158766,21.979434 L 37.068811,17.246167 C 37.068811,17.246167 37.088388,32 37.088388,32 L 22.160133,31.978069 C 22.160133,31.978069 26.997745,27.140456 26.997745,27.140456 C 18.528582,18.264221 13.291696,25.230495 11.500037,31.436501 z"
             style="fill:#404040;"/>
          </a>
         </g>
        </svg>
</svg>
