<?xml version="1.0" encoding="UTF-8" standalone="no"?>
<!DOCTYPE svg PUBLIC "-//W3C//DTD SVG 1.1//EN"
 "http://www.w3.org/Graphics/SVG/1.1/DTD/svg11.dtd">
<!-- Generated by graphviz version 2.38.0 (20140413.2041)
 -->
<!-- Title: RoR::GUI::OpenSaveFileDialog::update Pages: 1 -->
<svg width="744pt" height="116pt"
 viewBox="0.00 0.00 744.00 115.50" xmlns="http://www.w3.org/2000/svg" xmlns:xlink="http://www.w3.org/1999/xlink">
<g id="graph0" class="graph" transform="scale(1 1) rotate(0) translate(4 111.5)">
<title>RoR::GUI::OpenSaveFileDialog::update</title>
<polygon fill="white" stroke="none" points="-4,4 -4,-111.5 740,-111.5 740,4 -4,4"/>
<!-- Node141 -->
<g id="node1" class="node"><title>Node141</title>
<polygon fill="#bfbfbf" stroke="black" points="0,-44.5 0,-74.5 151,-74.5 151,-44.5 0,-44.5"/>
<text text-anchor="start" x="8" y="-62.5" font-family="Helvetica,sans-Serif" font-size="10.00">RoR::GUI::OpenSaveFileDialog</text>
<text text-anchor="middle" x="75.5" y="-51.5" font-family="Helvetica,sans-Serif" font-size="10.00">::update</text>
</g>
<!-- Node142 -->
<g id="node2" class="node"><title>Node142</title>
<g id="a_node2"><a xlink:href="../../d3/d64/namespace_ro_r_1_1_file_system.html#ae33ccfefa159afb285835c8fa5498a8b" target="_top" xlink:title="RoR::FileSystem::getSystem\lFileList">
<polygon fill="white" stroke="black" points="187,-44.5 187,-74.5 331,-74.5 331,-44.5 187,-44.5"/>
<text text-anchor="start" x="195" y="-62.5" font-family="Helvetica,sans-Serif" font-size="10.00">RoR::FileSystem::getSystem</text>
<text text-anchor="middle" x="259" y="-51.5" font-family="Helvetica,sans-Serif" font-size="10.00">FileList</text>
</a>
</g>
</g>
<!-- Node141&#45;&gt;Node142 -->
<g id="edge1" class="edge"><title>Node141&#45;&gt;Node142</title>
<path fill="none" stroke="midnightblue" d="M151.109,-59.5C159.612,-59.5 168.311,-59.5 176.893,-59.5"/>
<polygon fill="midnightblue" stroke="midnightblue" points="176.896,-63.0001 186.896,-59.5 176.896,-56.0001 176.896,-63.0001"/>
</g>
<!-- Node143 -->
<g id="node3" class="node"><title>Node143</title>
<g id="a_node3"><a xlink:href="../../d3/d64/namespace_ro_r_1_1_file_system.html#a78a496cdd3796294fcd6c3c452a23f10" target="_top" xlink:title="RoR::FileSystem::concatenatePath">
<polygon fill="white" stroke="black" points="367,-88 367,-107 537,-107 537,-88 367,-88"/>
<text text-anchor="middle" x="452" y="-95" font-family="Helvetica,sans-Serif" font-size="10.00">RoR::FileSystem::concatenatePath</text>
</a>
</g>
</g>
<!-- Node142&#45;&gt;Node143 -->
<g id="edge2" class="edge"><title>Node142&#45;&gt;Node143</title>
<path fill="none" stroke="midnightblue" d="M331.121,-73.6498C351.533,-77.7108 373.538,-82.0887 393.054,-85.9714"/>
<polygon fill="midnightblue" stroke="midnightblue" points="392.52,-89.4337 403.011,-87.9524 393.886,-82.5683 392.52,-89.4337"/>
</g>
<!-- Node145 -->
<g id="node5" class="node"><title>Node145</title>
<g id="a_node5"><a xlink:href="../../d3/d64/namespace_ro_r_1_1_file_system.html#aefc2f14edd3f91d6c92ac4d9cfac865f" target="_top" xlink:title="RoR::FileSystem::isReservedDir">
<polygon fill="white" stroke="black" points="374,-50 374,-69 530,-69 530,-50 374,-50"/>
<text text-anchor="middle" x="452" y="-57" font-family="Helvetica,sans-Serif" font-size="10.00">RoR::FileSystem::isReservedDir</text>
</a>
</g>
</g>
<!-- Node142&#45;&gt;Node145 -->
<g id="edge4" class="edge"><title>Node142&#45;&gt;Node145</title>
<path fill="none" stroke="midnightblue" d="M331.121,-59.5C341.651,-59.5 352.603,-59.5 363.42,-59.5"/>
<polygon fill="midnightblue" stroke="midnightblue" points="363.73,-63.0001 373.73,-59.5 363.73,-56.0001 363.73,-63.0001"/>
</g>
<!-- Node146 -->
<g id="node6" class="node"><title>Node146</title>
<g id="a_node6"><a xlink:href="../../dd/d88/struct_ro_r_1_1_file_system_1_1_file_info.html#afd2999a0b840b11c7285761729067fc0" target="_top" xlink:title="RoR::FileSystem::FileInfo\l::FileInfo">
<polygon fill="white" stroke="black" points="388,-0.5 388,-30.5 516,-30.5 516,-0.5 388,-0.5"/>
<text text-anchor="start" x="396" y="-18.5" font-family="Helvetica,sans-Serif" font-size="10.00">RoR::FileSystem::FileInfo</text>
<text text-anchor="middle" x="452" y="-7.5" font-family="Helvetica,sans-Serif" font-size="10.00">::FileInfo</text>
</a>
</g>
</g>
<!-- Node142&#45;&gt;Node146 -->
<g id="edge5" class="edge"><title>Node142&#45;&gt;Node146</title>
<path fill="none" stroke="midnightblue" d="M325.197,-44.4808C342.091,-40.5891 360.395,-36.3723 377.675,-32.3917"/>
<polygon fill="midnightblue" stroke="midnightblue" points="378.753,-35.7351 387.712,-30.0795 377.181,-28.9138 378.753,-35.7351"/>
</g>
<!-- Node144 -->
<g id="node4" class="node"><title>Node144</title>
<g id="a_node4"><a xlink:href="../../d3/d64/namespace_ro_r_1_1_file_system.html#af8e0cce7d301d79f48f0367827a18ba2" target="_top" xlink:title="RoR::FileSystem::isAbsolutePath">
<polygon fill="white" stroke="black" points="573,-88 573,-107 736,-107 736,-88 573,-88"/>
<text text-anchor="middle" x="654.5" y="-95" font-family="Helvetica,sans-Serif" font-size="10.00">RoR::FileSystem::isAbsolutePath</text>
</a>
</g>
</g>
<!-- Node143&#45;&gt;Node144 -->
<g id="edge3" class="edge"><title>Node143&#45;&gt;Node144</title>
<path fill="none" stroke="midnightblue" d="M537.159,-97.5C545.539,-97.5 554.074,-97.5 562.52,-97.5"/>
<polygon fill="midnightblue" stroke="midnightblue" points="562.763,-101 572.763,-97.5 562.763,-94.0001 562.763,-101"/>
</g>
</g>
</svg>
