<?xml version="1.0" encoding="UTF-8" standalone="no"?>
<!DOCTYPE svg PUBLIC "-//W3C//DTD SVG 1.1//EN"
 "http://www.w3.org/Graphics/SVG/1.1/DTD/svg11.dtd">
<!-- Generated by graphviz version 2.38.0 (20140413.2041)
 -->
<!-- Title: RoR::GUI::MpServerlistData::ServerInfo Pages: 1 -->
<svg width="316pt" height="128pt"
 viewBox="0.00 0.00 316.00 128.00" xmlns="http://www.w3.org/2000/svg" xmlns:xlink="http://www.w3.org/1999/xlink">
<g id="graph0" class="graph" transform="scale(1 1) rotate(0) translate(4 124)">
<title>RoR::GUI::MpServerlistData::ServerInfo</title>
<polygon fill="white" stroke="none" points="-4,4 -4,-124 312,-124 312,4 -4,4"/>
<!-- Node1 -->
<g id="node1" class="node"><title>Node1</title>
<polygon fill="#bfbfbf" stroke="black" points="79.5,-0.5 79.5,-30.5 216.5,-30.5 216.5,-0.5 79.5,-0.5"/>
<text text-anchor="start" x="87.5" y="-18.5" font-family="Helvetica,sans-Serif" font-size="10.00">RoR::GUI::MpServerlistData</text>
<text text-anchor="middle" x="148" y="-7.5" font-family="Helvetica,sans-Serif" font-size="10.00">::ServerInfo</text>
</g>
<!-- Node2 -->
<g id="node2" class="node"><title>Node2</title>
<g id="a_node2"><a xlink:href="../../d0/d28/class_ro_r_1_1_str.html" target="_top" xlink:title="RoR::Str\&lt; 100 \&gt;">
<polygon fill="white" stroke="black" points="0,-100.5 0,-119.5 88,-119.5 88,-100.5 0,-100.5"/>
<text text-anchor="middle" x="44" y="-107.5" font-family="Helvetica,sans-Serif" font-size="10.00">RoR::Str&lt; 100 &gt;</text>
</a>
</g>
</g>
<!-- Node2&#45;&gt;Node1 -->
<g id="edge1" class="edge"><title>Node2&#45;&gt;Node1</title>
<path fill="none" stroke="#9a32cd" stroke-dasharray="5,2" d="M52.4815,-90.9022C59.2774,-77.935 69.8395,-60.7547 83,-49 91.2806,-41.6039 101.549,-35.4523 111.46,-30.5636"/>
<polygon fill="#9a32cd" stroke="#9a32cd" points="49.1705,-89.7008 47.861,-100.214 55.4411,-92.8121 49.1705,-89.7008"/>
<text text-anchor="middle" x="113.5" y="-74" font-family="Helvetica,sans-Serif" font-size="10.00"> net_host</text>
<text text-anchor="middle" x="113.5" y="-63" font-family="Helvetica,sans-Serif" font-size="10.00">display_name</text>
<text text-anchor="middle" x="113.5" y="-52" font-family="Helvetica,sans-Serif" font-size="10.00">display_terrn</text>
</g>
<!-- Node3 -->
<g id="node3" class="node"><title>Node3</title>
<g id="a_node3"><a xlink:href="../../d0/d28/class_ro_r_1_1_str.html" target="_top" xlink:title="RoR::Str\&lt; 20 \&gt;">
<polygon fill="white" stroke="black" points="106.5,-100.5 106.5,-119.5 189.5,-119.5 189.5,-100.5 106.5,-100.5"/>
<text text-anchor="middle" x="148" y="-107.5" font-family="Helvetica,sans-Serif" font-size="10.00">RoR::Str&lt; 20 &gt;</text>
</a>
</g>
</g>
<!-- Node3&#45;&gt;Node1 -->
<g id="edge2" class="edge"><title>Node3&#45;&gt;Node1</title>
<path fill="none" stroke="#9a32cd" stroke-dasharray="5,2" d="M148,-90.2869C148,-72.6698 148,-46.6699 148,-30.6999"/>
<polygon fill="#9a32cd" stroke="#9a32cd" points="144.5,-90.4636 148,-100.464 151.5,-90.4637 144.5,-90.4636"/>
<text text-anchor="middle" x="180" y="-63" font-family="Helvetica,sans-Serif" font-size="10.00"> display_users</text>
</g>
<!-- Node4 -->
<g id="node4" class="node"><title>Node4</title>
<g id="a_node4"><a xlink:href="../../d0/d28/class_ro_r_1_1_str.html" target="_top" xlink:title="RoR::Str\&lt; 50 \&gt;">
<polygon fill="white" stroke="black" points="207.5,-100.5 207.5,-119.5 290.5,-119.5 290.5,-100.5 207.5,-100.5"/>
<text text-anchor="middle" x="249" y="-107.5" font-family="Helvetica,sans-Serif" font-size="10.00">RoR::Str&lt; 50 &gt;</text>
</a>
</g>
</g>
<!-- Node4&#45;&gt;Node1 -->
<g id="edge3" class="edge"><title>Node4&#45;&gt;Node1</title>
<path fill="none" stroke="#9a32cd" stroke-dasharray="5,2" d="M242.501,-90.807C237.087,-77.7923 228.275,-60.5944 216,-49 208.01,-41.4527 197.942,-35.3592 188.02,-30.578"/>
<polygon fill="#9a32cd" stroke="#9a32cd" points="239.246,-92.0942 246.115,-100.161 245.775,-89.5713 239.246,-92.0942"/>
<text text-anchor="middle" x="273" y="-68.5" font-family="Helvetica,sans-Serif" font-size="10.00"> display_host</text>
<text text-anchor="middle" x="273" y="-57.5" font-family="Helvetica,sans-Serif" font-size="10.00">display_passwd</text>
</g>
</g>
</svg>
