<?xml version="1.0" encoding="UTF-8" standalone="no"?>
<!DOCTYPE svg PUBLIC "-//W3C//DTD SVG 1.1//EN"
 "http://www.w3.org/Graphics/SVG/1.1/DTD/svg11.dtd">
<!-- Generated by graphviz version 2.38.0 (20140413.2041)
 -->
<!-- Title: TorqueCurve::setTorqueModel Pages: 1 -->
<svg width="839pt" height="121pt"
 viewBox="0.00 0.00 839.00 121.35" xmlns="http://www.w3.org/2000/svg" xmlns:xlink="http://www.w3.org/1999/xlink">
<g id="graph0" class="graph" transform="scale(1 1) rotate(0) translate(4 117.353)">
<title>TorqueCurve::setTorqueModel</title>
<polygon fill="white" stroke="none" points="-4,4 -4,-117.353 835,-117.353 835,4 -4,4"/>
<!-- Node97 -->
<g id="node1" class="node"><title>Node97</title>
<polygon fill="#bfbfbf" stroke="black" points="0,-51 0,-70 145,-70 145,-51 0,-51"/>
<text text-anchor="middle" x="72.5" y="-58" font-family="Helvetica,sans-Serif" font-size="10.00">TorqueCurve::setTorqueModel</text>
</g>
<!-- Node98 -->
<g id="node2" class="node"><title>Node98</title>
<g id="a_node2"><a xlink:href="../../d8/d12/class_torque_curve.html#a326a84416643c9745752cc99bacd5211" target="_top" xlink:title="Constructor. ">
<polygon fill="white" stroke="black" points="540,-89 540,-108 669,-108 669,-89 540,-89"/>
<text text-anchor="middle" x="604.5" y="-96" font-family="Helvetica,sans-Serif" font-size="10.00">TorqueCurve::TorqueCurve</text>
</a>
</g>
</g>
<!-- Node97&#45;&gt;Node98 -->
<g id="edge1" class="edge"><title>Node97&#45;&gt;Node98</title>
<path fill="none" stroke="midnightblue" d="M103.77,-74.1697C124.924,-82.9773 154.091,-93.6565 181,-98.5 306.612,-121.109 456.654,-112.984 539.888,-105.459"/>
<polygon fill="midnightblue" stroke="midnightblue" points="104.935,-70.8613 94.3634,-70.1565 102.188,-77.2999 104.935,-70.8613"/>
</g>
<!-- Node99 -->
<g id="node3" class="node"><title>Node99</title>
<g id="a_node3"><a xlink:href="../../d8/d12/class_torque_curve.html#a90167faf4bdf85e8cfb461c24bb00be0" target="_top" xlink:title="TorqueCurve::processLine">
<polygon fill="white" stroke="black" points="190.5,-70 190.5,-89 318.5,-89 318.5,-70 190.5,-70"/>
<text text-anchor="middle" x="254.5" y="-77" font-family="Helvetica,sans-Serif" font-size="10.00">TorqueCurve::processLine</text>
</a>
</g>
</g>
<!-- Node97&#45;&gt;Node99 -->
<g id="edge2" class="edge"><title>Node97&#45;&gt;Node99</title>
<path fill="none" stroke="midnightblue" d="M155.374,-69.1423C167.077,-70.3776 178.964,-71.6324 190.236,-72.8222"/>
<polygon fill="midnightblue" stroke="midnightblue" points="155.47,-65.633 145.158,-68.0639 154.735,-72.5944 155.47,-65.633"/>
</g>
<!-- Node101 -->
<g id="node5" class="node"><title>Node101</title>
<g id="a_node5"><a xlink:href="../../d8/d12/class_torque_curve.html#aee98faa6b93b58a0ba7b4a76a32e2700" target="_top" xlink:title="TorqueCurve::CreateNewCurve">
<polygon fill="white" stroke="black" points="181,-32 181,-51 328,-51 328,-32 181,-32"/>
<text text-anchor="middle" x="254.5" y="-39" font-family="Helvetica,sans-Serif" font-size="10.00">TorqueCurve::CreateNewCurve</text>
</a>
</g>
</g>
<!-- Node97&#45;&gt;Node101 -->
<g id="edge5" class="edge"><title>Node97&#45;&gt;Node101</title>
<path fill="none" stroke="midnightblue" d="M155.169,-51.8794C163.753,-50.9733 172.439,-50.0564 180.911,-49.1621"/>
<polygon fill="midnightblue" stroke="midnightblue" points="154.735,-48.4056 145.158,-52.9361 155.47,-55.367 154.735,-48.4056"/>
</g>
<!-- Node102 -->
<g id="node6" class="node"><title>Node102</title>
<g id="a_node6"><a xlink:href="../../db/d35/class_rig_spawner.html#a8b8a48940590458417c9ceb088590f92" target="_top" xlink:title="RigSpawner::ProcessTorque\lCurve">
<polygon fill="white" stroke="black" points="364,-0.5 364,-30.5 504,-30.5 504,-0.5 364,-0.5"/>
<text text-anchor="start" x="372" y="-18.5" font-family="Helvetica,sans-Serif" font-size="10.00">RigSpawner::ProcessTorque</text>
<text text-anchor="middle" x="434" y="-7.5" font-family="Helvetica,sans-Serif" font-size="10.00">Curve</text>
</a>
</g>
</g>
<!-- Node97&#45;&gt;Node102 -->
<g id="edge9" class="edge"><title>Node97&#45;&gt;Node102</title>
<path fill="none" stroke="midnightblue" d="M103.788,-46.9277C124.95,-38.1636 154.119,-27.4965 181,-22.5 242.102,-11.1428 312.954,-10.2312 363.94,-11.6715"/>
<polygon fill="midnightblue" stroke="midnightblue" points="102.217,-43.7921 94.3771,-50.9183 104.95,-50.2366 102.217,-43.7921"/>
</g>
<!-- Node100 -->
<g id="node4" class="node"><title>Node100</title>
<g id="a_node4"><a xlink:href="../../d8/d12/class_torque_curve.html#a68e95142e6044ef86a4b0509fcecc1d3" target="_top" xlink:title="TorqueCurve::loadDefault\lTorqueModels">
<polygon fill="white" stroke="black" points="372,-61.5 372,-91.5 496,-91.5 496,-61.5 372,-61.5"/>
<text text-anchor="start" x="380" y="-79.5" font-family="Helvetica,sans-Serif" font-size="10.00">TorqueCurve::loadDefault</text>
<text text-anchor="middle" x="434" y="-68.5" font-family="Helvetica,sans-Serif" font-size="10.00">TorqueModels</text>
</a>
</g>
</g>
<!-- Node99&#45;&gt;Node100 -->
<g id="edge3" class="edge"><title>Node99&#45;&gt;Node100</title>
<path fill="none" stroke="midnightblue" d="M328.88,-78.2598C343.191,-78.0179 358.051,-77.7668 371.911,-77.5325"/>
<polygon fill="midnightblue" stroke="midnightblue" points="328.519,-74.7653 318.58,-78.4339 328.637,-81.7643 328.519,-74.7653"/>
</g>
<!-- Node100&#45;&gt;Node98 -->
<g id="edge4" class="edge"><title>Node100&#45;&gt;Node98</title>
<path fill="none" stroke="midnightblue" d="M506.432,-85.8264C517.573,-87.2811 529.021,-88.7757 539.971,-90.2054"/>
<polygon fill="midnightblue" stroke="midnightblue" points="506.678,-82.3289 496.309,-84.5047 505.772,-89.27 506.678,-82.3289"/>
</g>
<!-- Node101&#45;&gt;Node102 -->
<g id="edge6" class="edge"><title>Node101&#45;&gt;Node102</title>
<path fill="none" stroke="midnightblue" d="M330.586,-30.5015C341.584,-28.8905 352.868,-27.2376 363.742,-25.6448"/>
<polygon fill="midnightblue" stroke="midnightblue" points="329.974,-27.0537 320.587,-31.9662 330.988,-33.9798 329.974,-27.0537"/>
</g>
<!-- Node103 -->
<g id="node7" class="node"><title>Node103</title>
<g id="a_node7"><a xlink:href="../../db/d35/class_rig_spawner.html#a67da85dd09bd864df9dc924f6f2a7d49" target="_top" xlink:title="RigSpawner::SpawnRig">
<polygon fill="white" stroke="black" points="545.5,-6 545.5,-25 663.5,-25 663.5,-6 545.5,-6"/>
<text text-anchor="middle" x="604.5" y="-13" font-family="Helvetica,sans-Serif" font-size="10.00">RigSpawner::SpawnRig</text>
</a>
</g>
</g>
<!-- Node102&#45;&gt;Node103 -->
<g id="edge7" class="edge"><title>Node102&#45;&gt;Node103</title>
<path fill="none" stroke="midnightblue" d="M514.069,-15.5C524.606,-15.5 535.252,-15.5 545.343,-15.5"/>
<polygon fill="midnightblue" stroke="midnightblue" points="514.022,-12.0001 504.022,-15.5 514.022,-19.0001 514.022,-12.0001"/>
</g>
<!-- Node104 -->
<g id="node8" class="node"><title>Node104</title>
<g id="a_node8"><a xlink:href="../../db/d35/class_rig_spawner.html#ac7a7f5955b466a52eb2507f435083b0b" target="_top" xlink:title="RigSpawner::RigSpawner">
<polygon fill="white" stroke="black" points="705,-6 705,-25 831,-25 831,-6 705,-6"/>
<text text-anchor="middle" x="768" y="-13" font-family="Helvetica,sans-Serif" font-size="10.00">RigSpawner::RigSpawner</text>
</a>
</g>
</g>
<!-- Node103&#45;&gt;Node104 -->
<g id="edge8" class="edge"><title>Node103&#45;&gt;Node104</title>
<path fill="none" stroke="midnightblue" d="M673.976,-15.5C684.263,-15.5 694.822,-15.5 704.964,-15.5"/>
<polygon fill="midnightblue" stroke="midnightblue" points="673.805,-12.0001 663.805,-15.5 673.805,-19.0001 673.805,-12.0001"/>
</g>
</g>
</svg>
