<?xml version="1.0" encoding="UTF-8" standalone="no"?>
<!DOCTYPE svg PUBLIC "-//W3C//DTD SVG 1.1//EN"
 "http://www.w3.org/Graphics/SVG/1.1/DTD/svg11.dtd">
<!-- Generated by graphviz version 2.38.0 (20140413.2041)
 -->
<!-- Title: Hydrax::GPUNormalMapManager::setActive Pages: 1 -->
<!--zoomable 269 -->
<svg id="main" version="1.1" xmlns="http://www.w3.org/2000/svg" xmlns:xlink="http://www.w3.org/1999/xlink" xml:space="preserve" onload="init(evt)">
<style type="text/css"><![CDATA[
.edge:hover path { stroke: red; }
.edge:hover polygon { stroke: red; fill: red; }
]]></style>
<script type="text/javascript"><![CDATA[
var edges = document.getElementsByTagName('g');
if (edges && edges.length) {
  for (var i=0;i<edges.length;i++) {
    if (edges[i].id.substr(0,4)=='edge') {
      edges[i].setAttribute('class','edge');
    }
  }
}
]]></script>
        <defs>
                <circle id="rim" cx="0" cy="0" r="7"/>
                <circle id="rim2" cx="0" cy="0" r="3.5"/>
                <g id="zoomPlus">
                        <use xlink:href="#rim" fill="#404040">
                                <set attributeName="fill" to="#808080" begin="zoomplus.mouseover" end="zoomplus.mouseout"/>
                        </use>
                        <path d="M-4,0h8M0,-4v8" fill="none" stroke="white" stroke-width="1.5" pointer-events="none"/>
                </g>
                <g id="zoomMin">
                        <use xlink:href="#rim" fill="#404040">
                                <set attributeName="fill" to="#808080" begin="zoomminus.mouseover" end="zoomminus.mouseout"/>
                        </use>
                        <path d="M-4,0h8" fill="none" stroke="white" stroke-width="1.5" pointer-events="none"/>
                </g>
                <g id="dirArrow">
                        <path fill="none" stroke="white" stroke-width="1.5" d="M0,-3.0v7 M-2.5,-0.5L0,-3.0L2.5,-0.5"/>
                </g>
               <g id="resetDef">
                       <use xlink:href="#rim2" fill="#404040">
                               <set attributeName="fill" to="#808080" begin="reset.mouseover" end="reset.mouseout"/>
                       </use>
               </g>
        </defs>

<script type="text/javascript">
var viewWidth = 656;
var viewHeight = 269;
var sectionId = 'dynsection-10';
</script>
<script xlink:href="../../svgpan.js"/>
<svg id="graph" class="graph">
<g id="viewport">
<title>Hydrax::GPUNormalMapManager::setActive</title>
<polygon fill="white" stroke="none" points="-4,4 -4,-264.5 652,-264.5 652,4 -4,4"/>
<!-- Node135 -->
<g id="node1" class="node"><title>Node135</title>
<polygon fill="#bfbfbf" stroke="black" points="0,-131 0,-161 161,-161 161,-131 0,-131"/>
<text text-anchor="start" x="8" y="-149" font-family="Helvetica,sans-Serif" font-size="10.00">Hydrax::GPUNormalMapManager</text>
<text text-anchor="middle" x="80.5" y="-138" font-family="Helvetica,sans-Serif" font-size="10.00">::setActive</text>
</g>
<!-- Node136 -->
<g id="node2" class="node"><title>Node136</title>
<g id="a_node2"><a xlink:href="../../d6/d76/class_hydrax_1_1_rtt_manager.html#a774efa00a79ade65e726ed0774d2ac2e" target="_top" xlink:title="Hydrax::RttManager\l::initialize">
<polygon fill="white" stroke="black" points="197,-156 197,-186 301,-186 301,-156 197,-156"/>
<text text-anchor="start" x="205" y="-174" font-family="Helvetica,sans-Serif" font-size="10.00">Hydrax::RttManager</text>
<text text-anchor="middle" x="249" y="-163" font-family="Helvetica,sans-Serif" font-size="10.00">::initialize</text>
</a>
</g>
</g>
<!-- Node135&#45;&gt;Node136 -->
<g id="edge1" class="edge"><title>Node135&#45;&gt;Node136</title>
<path fill="none" stroke="midnightblue" d="M161.336,-157.987C169.88,-159.27 178.473,-160.56 186.752,-161.804"/>
<polygon fill="midnightblue" stroke="midnightblue" points="186.263,-165.269 196.672,-163.293 187.302,-158.347 186.263,-165.269"/>
</g>
<!-- Node146 -->
<g id="node12" class="node"><title>Node146</title>
<g id="a_node12"><a xlink:href="../../d6/d76/class_hydrax_1_1_rtt_manager.html#a360139ed63706da8ca9ec04716d65574" target="_top" xlink:title="Hydrax::RttManager\l::remove">
<polygon fill="white" stroke="black" points="197,-107 197,-137 301,-137 301,-107 197,-107"/>
<text text-anchor="start" x="205" y="-125" font-family="Helvetica,sans-Serif" font-size="10.00">Hydrax::RttManager</text>
<text text-anchor="middle" x="249" y="-114" font-family="Helvetica,sans-Serif" font-size="10.00">::remove</text>
</a>
</g>
</g>
<!-- Node135&#45;&gt;Node146 -->
<g id="edge11" class="edge"><title>Node135&#45;&gt;Node146</title>
<path fill="none" stroke="midnightblue" d="M161.336,-134.492C169.88,-133.26 178.473,-132.022 186.752,-130.829"/>
<polygon fill="midnightblue" stroke="midnightblue" points="187.273,-134.29 196.672,-129.399 186.275,-127.361 187.273,-134.29"/>
</g>
<!-- Node137 -->
<g id="node3" class="node"><title>Node137</title>
<g id="a_node3"><a xlink:href="../../dd/d65/class_hydrax_1_1_hydrax.html#a4f6dfef270938f04d0430eaf8e1fa88f" target="_top" xlink:title="Hydrax::Hydrax::getScene\lManager">
<polygon fill="white" stroke="black" points="338.5,-230 338.5,-260 469.5,-260 469.5,-230 338.5,-230"/>
<text text-anchor="start" x="346.5" y="-248" font-family="Helvetica,sans-Serif" font-size="10.00">Hydrax::Hydrax::getScene</text>
<text text-anchor="middle" x="404" y="-237" font-family="Helvetica,sans-Serif" font-size="10.00">Manager</text>
</a>
</g>
</g>
<!-- Node136&#45;&gt;Node137 -->
<g id="edge2" class="edge"><title>Node136&#45;&gt;Node137</title>
<path fill="none" stroke="midnightblue" d="M273.778,-186.161C290.938,-196.728 314.884,-210.718 337,-221 340.794,-222.764 344.756,-224.486 348.774,-226.146"/>
<polygon fill="midnightblue" stroke="midnightblue" points="347.61,-229.45 358.195,-229.896 350.199,-222.946 347.61,-229.45"/>
</g>
<!-- Node138 -->
<g id="node4" class="node"><title>Node138</title>
<g id="a_node4"><a xlink:href="../../dd/d65/class_hydrax_1_1_hydrax.html#aaee3aba332eb7e78086aff658acae305" target="_top" xlink:title="Hydrax::Hydrax::getWater\lColor">
<polygon fill="white" stroke="black" points="339,-181 339,-211 469,-211 469,-181 339,-181"/>
<text text-anchor="start" x="347" y="-199" font-family="Helvetica,sans-Serif" font-size="10.00">Hydrax::Hydrax::getWater</text>
<text text-anchor="middle" x="404" y="-188" font-family="Helvetica,sans-Serif" font-size="10.00">Color</text>
</a>
</g>
</g>
<!-- Node136&#45;&gt;Node138 -->
<g id="edge3" class="edge"><title>Node136&#45;&gt;Node138</title>
<path fill="none" stroke="midnightblue" d="M301.372,-179.394C310.234,-180.842 319.602,-182.373 328.922,-183.896"/>
<polygon fill="midnightblue" stroke="midnightblue" points="328.556,-187.382 338.989,-185.541 329.685,-180.474 328.556,-187.382"/>
</g>
<!-- Node139 -->
<g id="node5" class="node"><title>Node139</title>
<g id="a_node5"><a xlink:href="../../dd/d65/class_hydrax_1_1_hydrax.html#aa2e090a9b1b0847b6017c8893e86dc3a" target="_top" xlink:title="Hydrax::Hydrax::_isCurrent\lFrameUnderwater">
<polygon fill="white" stroke="black" points="337,-132 337,-162 471,-162 471,-132 337,-132"/>
<text text-anchor="start" x="345" y="-150" font-family="Helvetica,sans-Serif" font-size="10.00">Hydrax::Hydrax::_isCurrent</text>
<text text-anchor="middle" x="404" y="-139" font-family="Helvetica,sans-Serif" font-size="10.00">FrameUnderwater</text>
</a>
</g>
</g>
<!-- Node136&#45;&gt;Node139 -->
<g id="edge4" class="edge"><title>Node136&#45;&gt;Node139</title>
<path fill="none" stroke="midnightblue" d="M301.372,-162.942C309.546,-161.659 318.151,-160.31 326.751,-158.961"/>
<polygon fill="midnightblue" stroke="midnightblue" points="327.482,-162.389 336.819,-157.381 326.398,-155.473 327.482,-162.389"/>
</g>
<!-- Node140 -->
<g id="node6" class="node"><title>Node140</title>
<g id="a_node6"><a xlink:href="../../d6/d76/class_hydrax_1_1_rtt_manager.html#aab5e7c56ec35030e7410e9ca01f737a1" target="_top" xlink:title="Hydrax::RttManager\l::_initializeRtt">
<polygon fill="white" stroke="black" points="352,-83 352,-113 456,-113 456,-83 352,-83"/>
<text text-anchor="start" x="360" y="-101" font-family="Helvetica,sans-Serif" font-size="10.00">Hydrax::RttManager</text>
<text text-anchor="middle" x="404" y="-90" font-family="Helvetica,sans-Serif" font-size="10.00">::_initializeRtt</text>
</a>
</g>
</g>
<!-- Node136&#45;&gt;Node140 -->
<g id="edge5" class="edge"><title>Node136&#45;&gt;Node140</title>
<path fill="none" stroke="midnightblue" d="M283.828,-155.945C289.632,-153.118 295.546,-150.079 301,-147 317.746,-137.547 319.9,-131.795 337,-123 341.032,-120.926 345.276,-118.93 349.589,-117.032"/>
<polygon fill="midnightblue" stroke="midnightblue" points="351.218,-120.143 359.08,-113.041 348.505,-113.691 351.218,-120.143"/>
</g>
<!-- Node141 -->
<g id="node7" class="node"><title>Node141</title>
<g id="a_node7"><a xlink:href="../../dd/d65/class_hydrax_1_1_hydrax.html#a1940a144c486915885ed19026839d381" target="_top" xlink:title="Hydrax::Hydrax::getMesh">
<polygon fill="white" stroke="black" points="513.5,-164.5 513.5,-183.5 641.5,-183.5 641.5,-164.5 513.5,-164.5"/>
<text text-anchor="middle" x="577.5" y="-171.5" font-family="Helvetica,sans-Serif" font-size="10.00">Hydrax::Hydrax::getMesh</text>
</a>
</g>
</g>
<!-- Node140&#45;&gt;Node141 -->
<g id="edge6" class="edge"><title>Node140&#45;&gt;Node141</title>
<path fill="none" stroke="midnightblue" d="M451.461,-113.127C458.208,-116.024 464.921,-119.32 471,-123 489.313,-134.086 488.18,-144.798 507,-155 511.179,-157.265 515.648,-159.277 520.23,-161.06"/>
<polygon fill="midnightblue" stroke="midnightblue" points="519.141,-164.387 529.736,-164.407 521.466,-157.784 519.141,-164.387"/>
</g>
<!-- Node142 -->
<g id="node8" class="node"><title>Node142</title>
<g id="a_node8"><a xlink:href="../../d1/dc4/class_hydrax_1_1_mesh.html#a3f179b94d94337d1158db3a7e535cf30" target="_top" xlink:title="Hydrax::Mesh::getSize">
<polygon fill="white" stroke="black" points="519.5,-126.5 519.5,-145.5 635.5,-145.5 635.5,-126.5 519.5,-126.5"/>
<text text-anchor="middle" x="577.5" y="-133.5" font-family="Helvetica,sans-Serif" font-size="10.00">Hydrax::Mesh::getSize</text>
</a>
</g>
</g>
<!-- Node140&#45;&gt;Node142 -->
<g id="edge7" class="edge"><title>Node140&#45;&gt;Node142</title>
<path fill="none" stroke="midnightblue" d="M456.456,-109.401C477.664,-114.101 502.224,-119.542 523.583,-124.275"/>
<polygon fill="midnightblue" stroke="midnightblue" points="522.943,-127.718 533.464,-126.464 524.458,-120.884 522.943,-127.718"/>
</g>
<!-- Node143 -->
<g id="node9" class="node"><title>Node143</title>
<g id="a_node9"><a xlink:href="../../dd/d65/class_hydrax_1_1_hydrax.html#a969555d8f856a43c4ca6c92bb0958bf1" target="_top" xlink:title="Hydrax::Hydrax::getViewport">
<polygon fill="white" stroke="black" points="507,-88.5 507,-107.5 648,-107.5 648,-88.5 507,-88.5"/>
<text text-anchor="middle" x="577.5" y="-95.5" font-family="Helvetica,sans-Serif" font-size="10.00">Hydrax::Hydrax::getViewport</text>
</a>
</g>
</g>
<!-- Node140&#45;&gt;Node143 -->
<g id="edge8" class="edge"><title>Node140&#45;&gt;Node143</title>
<path fill="none" stroke="midnightblue" d="M456.456,-98C469.114,-98 482.966,-98 496.619,-98"/>
<polygon fill="midnightblue" stroke="midnightblue" points="496.997,-101.5 506.997,-98 496.997,-94.5001 496.997,-101.5"/>
</g>
<!-- Node144 -->
<g id="node10" class="node"><title>Node144</title>
<g id="a_node10"><a xlink:href="../../d6/d76/class_hydrax_1_1_rtt_manager.html#a3605c212789e17ddf27b78ecb99c30a2" target="_top" xlink:title="Hydrax::RttManager\l::getPixelFormat">
<polygon fill="white" stroke="black" points="525.5,-39 525.5,-69 629.5,-69 629.5,-39 525.5,-39"/>
<text text-anchor="start" x="533.5" y="-57" font-family="Helvetica,sans-Serif" font-size="10.00">Hydrax::RttManager</text>
<text text-anchor="middle" x="577.5" y="-46" font-family="Helvetica,sans-Serif" font-size="10.00">::getPixelFormat</text>
</a>
</g>
</g>
<!-- Node140&#45;&gt;Node144 -->
<g id="edge9" class="edge"><title>Node140&#45;&gt;Node144</title>
<path fill="none" stroke="midnightblue" d="M456.456,-84.7985C475.024,-80.0347 496.161,-74.6118 515.469,-69.658"/>
<polygon fill="midnightblue" stroke="midnightblue" points="516.56,-72.9917 525.376,-67.1163 514.82,-66.2112 516.56,-72.9917"/>
</g>
<!-- Node145 -->
<g id="node11" class="node"><title>Node145</title>
<g id="a_node11"><a xlink:href="../../dd/d65/class_hydrax_1_1_hydrax.html#aef185c906434b6dfb7c67a425d678287" target="_top" xlink:title="Hydrax::Hydrax::getCamera">
<polygon fill="white" stroke="black" points="509,-0.5 509,-19.5 646,-19.5 646,-0.5 509,-0.5"/>
<text text-anchor="middle" x="577.5" y="-7.5" font-family="Helvetica,sans-Serif" font-size="10.00">Hydrax::Hydrax::getCamera</text>
</a>
</g>
</g>
<!-- Node140&#45;&gt;Node145 -->
<g id="edge10" class="edge"><title>Node140&#45;&gt;Node145</title>
<path fill="none" stroke="midnightblue" d="M423.871,-82.8111C443.584,-67.5918 475.913,-44.4118 507,-30 512.831,-27.2969 519.109,-24.8751 525.421,-22.7303"/>
<polygon fill="midnightblue" stroke="midnightblue" points="526.841,-25.9517 535.311,-19.5872 524.721,-19.2805 526.841,-25.9517"/>
</g>
</g>
</svg>
        <g id="navigator" transform="translate(0 0)" fill="#404254">
                <rect fill="#f2f5e9" fill-opacity="0.5" stroke="#606060" stroke-width=".5" x="0" y="0" width="60" height="60"/>
                <use id="zoomplus" xlink:href="#zoomPlus" x="17" y="9" onmousedown="handleZoom(evt,'in')"/>
                <use id="zoomminus" xlink:href="#zoomMin" x="42" y="9" onmousedown="handleZoom(evt,'out')"/>
                <use id="reset" xlink:href="#resetDef" x="30" y="36" onmousedown="handleReset()"/>
                <g id="arrowUp" xlink:href="#dirArrow" transform="translate(30 24)" onmousedown="handlePan(0,-1)">
                  <use xlink:href="#rim" fill="#404040">
                        <set attributeName="fill" to="#808080" begin="arrowUp.mouseover" end="arrowUp.mouseout"/>
                  </use>
                  <path fill="none" stroke="white" stroke-width="1.5" d="M0,-3.0v7 M-2.5,-0.5L0,-3.0L2.5,-0.5"/>
                </g>
                <g id="arrowRight" xlink:href="#dirArrow" transform="rotate(90) translate(36 -43)" onmousedown="handlePan(1,0)">
                  <use xlink:href="#rim" fill="#404040">
                        <set attributeName="fill" to="#808080" begin="arrowRight.mouseover" end="arrowRight.mouseout"/>
                  </use>
                  <path fill="none" stroke="white" stroke-width="1.5" d="M0,-3.0v7 M-2.5,-0.5L0,-3.0L2.5,-0.5"/>
                </g>
                <g id="arrowDown" xlink:href="#dirArrow" transform="rotate(180) translate(-30 -48)" onmousedown="handlePan(0,1)">
                  <use xlink:href="#rim" fill="#404040">
                        <set attributeName="fill" to="#808080" begin="arrowDown.mouseover" end="arrowDown.mouseout"/>
                  </use>
                  <path fill="none" stroke="white" stroke-width="1.5" d="M0,-3.0v7 M-2.5,-0.5L0,-3.0L2.5,-0.5"/>
                </g>
                <g id="arrowLeft" xlink:href="#dirArrow" transform="rotate(270) translate(-36 17)" onmousedown="handlePan(-1,0)">
                  <use xlink:href="#rim" fill="#404040">
                        <set attributeName="fill" to="#808080" begin="arrowLeft.mouseover" end="arrowLeft.mouseout"/>
                  </use>
                  <path fill="none" stroke="white" stroke-width="1.5" d="M0,-3.0v7 M-2.5,-0.5L0,-3.0L2.5,-0.5"/>
                </g>
        </g>
        <svg viewBox="0 0 15 15" width="100%" height="30px" preserveAspectRatio="xMaxYMin meet">
         <g id="arrow_out" transform="scale(0.3 0.3)">
          <a xlink:href="class_hydrax_1_1_g_p_u_normal_map_manager_ac58c786ad6359d8f70b5ecd0bc30464b_cgraph_org.svg" target="_base">
           <rect id="button" ry="5" rx="5" y="6" x="6" height="38" width="38"
                fill="#f2f5e9" fill-opacity="0.5" stroke="#606060" stroke-width="1.0"/>
           <path id="arrow"
             d="M 11.500037,31.436501 C 11.940474,20.09759 22.043105,11.32322 32.158766,21.979434 L 37.068811,17.246167 C 37.068811,17.246167 37.088388,32 37.088388,32 L 22.160133,31.978069 C 22.160133,31.978069 26.997745,27.140456 26.997745,27.140456 C 18.528582,18.264221 13.291696,25.230495 11.500037,31.436501 z"
             style="fill:#404040;"/>
          </a>
         </g>
        </svg>
</svg>
