<?xml version="1.0" encoding="UTF-8" standalone="no"?>
<!DOCTYPE svg PUBLIC "-//W3C//DTD SVG 1.1//EN"
 "http://www.w3.org/Graphics/SVG/1.1/DTD/svg11.dtd">
<!-- Generated by graphviz version 2.38.0 (20140413.2041)
 -->
<!-- Title: Hydrax::GPUNormalMapManager::create Pages: 1 -->
<svg width="752pt" height="1297pt"
 viewBox="0.00 0.00 752.00 1297.00" xmlns="http://www.w3.org/2000/svg" xmlns:xlink="http://www.w3.org/1999/xlink">
<g id="graph0" class="graph" transform="scale(1 1) rotate(0) translate(4 1293)">
<title>Hydrax::GPUNormalMapManager::create</title>
<polygon fill="white" stroke="none" points="-4,4 -4,-1293 748,-1293 748,4 -4,4"/>
<!-- Node25 -->
<g id="node1" class="node"><title>Node25</title>
<polygon fill="#bfbfbf" stroke="black" points="0,-539.5 0,-569.5 161,-569.5 161,-539.5 0,-539.5"/>
<text text-anchor="start" x="8" y="-557.5" font-family="Helvetica,sans-Serif" font-size="10.00">Hydrax::GPUNormalMapManager</text>
<text text-anchor="middle" x="80.5" y="-546.5" font-family="Helvetica,sans-Serif" font-size="10.00">::create</text>
</g>
<!-- Node26 -->
<g id="node2" class="node"><title>Node26</title>
<g id="a_node2"><a xlink:href="../../d6/d76/class_hydrax_1_1_rtt_manager.html#a774efa00a79ade65e726ed0774d2ac2e" target="_top" xlink:title="Hydrax::RttManager\l::initialize">
<polygon fill="white" stroke="black" points="218.5,-1097.5 218.5,-1127.5 322.5,-1127.5 322.5,-1097.5 218.5,-1097.5"/>
<text text-anchor="start" x="226.5" y="-1115.5" font-family="Helvetica,sans-Serif" font-size="10.00">Hydrax::RttManager</text>
<text text-anchor="middle" x="270.5" y="-1104.5" font-family="Helvetica,sans-Serif" font-size="10.00">::initialize</text>
</a>
</g>
</g>
<!-- Node25&#45;&gt;Node26 -->
<g id="edge1" class="edge"><title>Node25&#45;&gt;Node26</title>
<path fill="none" stroke="midnightblue" d="M86.626,-569.715C112.492,-646.486 228.714,-991.442 261.099,-1087.57"/>
<polygon fill="midnightblue" stroke="midnightblue" points="257.869,-1088.94 264.379,-1097.3 264.502,-1086.7 257.869,-1088.94"/>
</g>
<!-- Node36 -->
<g id="node12" class="node"><title>Node36</title>
<g id="a_node12"><a xlink:href="../../dd/d65/class_hydrax_1_1_hydrax.html#a572279649449549c7be3ef809221fbae" target="_top" xlink:title="Hydrax::Hydrax::getMaterial\lManager">
<polygon fill="white" stroke="black" points="201.5,-564.5 201.5,-594.5 339.5,-594.5 339.5,-564.5 201.5,-564.5"/>
<text text-anchor="start" x="209.5" y="-582.5" font-family="Helvetica,sans-Serif" font-size="10.00">Hydrax::Hydrax::getMaterial</text>
<text text-anchor="middle" x="270.5" y="-571.5" font-family="Helvetica,sans-Serif" font-size="10.00">Manager</text>
</a>
</g>
</g>
<!-- Node25&#45;&gt;Node36 -->
<g id="edge11" class="edge"><title>Node25&#45;&gt;Node36</title>
<path fill="none" stroke="midnightblue" d="M161.229,-565.102C171.108,-566.416 181.202,-567.758 191.061,-569.069"/>
<polygon fill="midnightblue" stroke="midnightblue" points="190.857,-572.573 201.231,-570.422 191.78,-565.634 190.857,-572.573"/>
</g>
<!-- Node37 -->
<g id="node13" class="node"><title>Node37</title>
<g id="a_node13"><a xlink:href="../../da/d12/class_hydrax_1_1_material_manager.html#a2961836553f7a30a8baffb9e82f7216e" target="_top" xlink:title="Hydrax::MaterialManager\l::reload">
<polygon fill="white" stroke="black" points="208,-515.5 208,-545.5 333,-545.5 333,-515.5 208,-515.5"/>
<text text-anchor="start" x="216" y="-533.5" font-family="Helvetica,sans-Serif" font-size="10.00">Hydrax::MaterialManager</text>
<text text-anchor="middle" x="270.5" y="-522.5" font-family="Helvetica,sans-Serif" font-size="10.00">::reload</text>
</a>
</g>
</g>
<!-- Node25&#45;&gt;Node37 -->
<g id="edge12" class="edge"><title>Node25&#45;&gt;Node37</title>
<path fill="none" stroke="midnightblue" d="M161.229,-544.322C173.426,-542.765 185.951,-541.166 197.957,-539.633"/>
<polygon fill="midnightblue" stroke="midnightblue" points="198.425,-543.102 207.901,-538.364 197.538,-536.158 198.425,-543.102"/>
</g>
<!-- Node61 -->
<g id="node37" class="node"><title>Node61</title>
<g id="a_node37"><a xlink:href="../../dd/d65/class_hydrax_1_1_hydrax.html#a69e3ff9c4de804dec54156453837df95" target="_top" xlink:title="Hydrax::Hydrax::isComponent">
<polygon fill="white" stroke="black" points="197,-477 197,-496 344,-496 344,-477 197,-477"/>
<text text-anchor="middle" x="270.5" y="-484" font-family="Helvetica,sans-Serif" font-size="10.00">Hydrax::Hydrax::isComponent</text>
</a>
</g>
</g>
<!-- Node25&#45;&gt;Node61 -->
<g id="edge39" class="edge"><title>Node25&#45;&gt;Node61</title>
<path fill="none" stroke="midnightblue" d="M114.935,-539.304C137.77,-529.249 168.871,-516.183 197,-506.5 204.812,-503.811 213.191,-501.23 221.38,-498.867"/>
<polygon fill="midnightblue" stroke="midnightblue" points="222.543,-502.175 231.223,-496.1 220.649,-495.436 222.543,-502.175"/>
</g>
<!-- Node27 -->
<g id="node3" class="node"><title>Node27</title>
<g id="a_node3"><a xlink:href="../../dd/d65/class_hydrax_1_1_hydrax.html#a4f6dfef270938f04d0430eaf8e1fa88f" target="_top" xlink:title="Hydrax::Hydrax::getScene\lManager">
<polygon fill="white" stroke="black" points="408,-1146.5 408,-1176.5 539,-1176.5 539,-1146.5 408,-1146.5"/>
<text text-anchor="start" x="416" y="-1164.5" font-family="Helvetica,sans-Serif" font-size="10.00">Hydrax::Hydrax::getScene</text>
<text text-anchor="middle" x="473.5" y="-1153.5" font-family="Helvetica,sans-Serif" font-size="10.00">Manager</text>
</a>
</g>
</g>
<!-- Node26&#45;&gt;Node27 -->
<g id="edge2" class="edge"><title>Node26&#45;&gt;Node27</title>
<path fill="none" stroke="midnightblue" d="M322.741,-1124.99C346.565,-1130.8 375.296,-1137.8 401.194,-1144.12"/>
<polygon fill="midnightblue" stroke="midnightblue" points="400.421,-1147.53 410.965,-1146.5 402.079,-1140.73 400.421,-1147.53"/>
</g>
<!-- Node28 -->
<g id="node4" class="node"><title>Node28</title>
<g id="a_node4"><a xlink:href="../../dd/d65/class_hydrax_1_1_hydrax.html#aaee3aba332eb7e78086aff658acae305" target="_top" xlink:title="Hydrax::Hydrax::getWater\lColor">
<polygon fill="white" stroke="black" points="408.5,-1048.5 408.5,-1078.5 538.5,-1078.5 538.5,-1048.5 408.5,-1048.5"/>
<text text-anchor="start" x="416.5" y="-1066.5" font-family="Helvetica,sans-Serif" font-size="10.00">Hydrax::Hydrax::getWater</text>
<text text-anchor="middle" x="473.5" y="-1055.5" font-family="Helvetica,sans-Serif" font-size="10.00">Color</text>
</a>
</g>
</g>
<!-- Node26&#45;&gt;Node28 -->
<g id="edge3" class="edge"><title>Node26&#45;&gt;Node28</title>
<path fill="none" stroke="midnightblue" d="M322.741,-1100.01C346.565,-1094.2 375.296,-1087.2 401.194,-1080.88"/>
<polygon fill="midnightblue" stroke="midnightblue" points="402.079,-1084.27 410.965,-1078.5 400.421,-1077.47 402.079,-1084.27"/>
</g>
<!-- Node29 -->
<g id="node5" class="node"><title>Node29</title>
<g id="a_node5"><a xlink:href="../../dd/d65/class_hydrax_1_1_hydrax.html#aa2e090a9b1b0847b6017c8893e86dc3a" target="_top" xlink:title="Hydrax::Hydrax::_isCurrent\lFrameUnderwater">
<polygon fill="white" stroke="black" points="406.5,-1097.5 406.5,-1127.5 540.5,-1127.5 540.5,-1097.5 406.5,-1097.5"/>
<text text-anchor="start" x="414.5" y="-1115.5" font-family="Helvetica,sans-Serif" font-size="10.00">Hydrax::Hydrax::_isCurrent</text>
<text text-anchor="middle" x="473.5" y="-1104.5" font-family="Helvetica,sans-Serif" font-size="10.00">FrameUnderwater</text>
</a>
</g>
</g>
<!-- Node26&#45;&gt;Node29 -->
<g id="edge4" class="edge"><title>Node26&#45;&gt;Node29</title>
<path fill="none" stroke="midnightblue" d="M322.741,-1112.5C345.026,-1112.5 371.605,-1112.5 396.143,-1112.5"/>
<polygon fill="midnightblue" stroke="midnightblue" points="396.152,-1116 406.152,-1112.5 396.152,-1109 396.152,-1116"/>
</g>
<!-- Node30 -->
<g id="node6" class="node"><title>Node30</title>
<g id="a_node6"><a xlink:href="../../d6/d76/class_hydrax_1_1_rtt_manager.html#aab5e7c56ec35030e7410e9ca01f737a1" target="_top" xlink:title="Hydrax::RttManager\l::_initializeRtt">
<polygon fill="white" stroke="black" points="421.5,-1195.5 421.5,-1225.5 525.5,-1225.5 525.5,-1195.5 421.5,-1195.5"/>
<text text-anchor="start" x="429.5" y="-1213.5" font-family="Helvetica,sans-Serif" font-size="10.00">Hydrax::RttManager</text>
<text text-anchor="middle" x="473.5" y="-1202.5" font-family="Helvetica,sans-Serif" font-size="10.00">::_initializeRtt</text>
</a>
</g>
</g>
<!-- Node26&#45;&gt;Node30 -->
<g id="edge5" class="edge"><title>Node26&#45;&gt;Node30</title>
<path fill="none" stroke="midnightblue" d="M289.523,-1127.71C310.147,-1144.38 345.537,-1170.85 380,-1186.5 389.947,-1191.02 400.896,-1194.8 411.674,-1197.92"/>
<polygon fill="midnightblue" stroke="midnightblue" points="410.921,-1201.34 421.49,-1200.61 412.77,-1194.59 410.921,-1201.34"/>
</g>
<!-- Node31 -->
<g id="node7" class="node"><title>Node31</title>
<g id="a_node7"><a xlink:href="../../dd/d65/class_hydrax_1_1_hydrax.html#a1940a144c486915885ed19026839d381" target="_top" xlink:title="Hydrax::Hydrax::getMesh">
<polygon fill="white" stroke="black" points="609.5,-989 609.5,-1008 737.5,-1008 737.5,-989 609.5,-989"/>
<text text-anchor="middle" x="673.5" y="-996" font-family="Helvetica,sans-Serif" font-size="10.00">Hydrax::Hydrax::getMesh</text>
</a>
</g>
</g>
<!-- Node30&#45;&gt;Node31 -->
<g id="edge6" class="edge"><title>Node30&#45;&gt;Node31</title>
<path fill="none" stroke="midnightblue" d="M525.822,-1204.81C540.23,-1201.29 555.173,-1195.62 567,-1186.5 582.123,-1174.84 640.173,-1062.31 663.103,-1017.13"/>
<polygon fill="midnightblue" stroke="midnightblue" points="666.277,-1018.61 667.67,-1008.11 660.031,-1015.45 666.277,-1018.61"/>
</g>
<!-- Node32 -->
<g id="node8" class="node"><title>Node32</title>
<g id="a_node8"><a xlink:href="../../d1/dc4/class_hydrax_1_1_mesh.html#a3f179b94d94337d1158db3a7e535cf30" target="_top" xlink:title="Hydrax::Mesh::getSize">
<polygon fill="white" stroke="black" points="615.5,-1182 615.5,-1201 731.5,-1201 731.5,-1182 615.5,-1182"/>
<text text-anchor="middle" x="673.5" y="-1189" font-family="Helvetica,sans-Serif" font-size="10.00">Hydrax::Mesh::getSize</text>
</a>
</g>
</g>
<!-- Node30&#45;&gt;Node32 -->
<g id="edge7" class="edge"><title>Node30&#45;&gt;Node32</title>
<path fill="none" stroke="midnightblue" d="M525.747,-1205.58C549.924,-1203.26 579.096,-1200.46 605.041,-1197.97"/>
<polygon fill="midnightblue" stroke="midnightblue" points="605.563,-1201.44 615.183,-1197 604.894,-1194.47 605.563,-1201.44"/>
</g>
<!-- Node33 -->
<g id="node9" class="node"><title>Node33</title>
<g id="a_node9"><a xlink:href="../../dd/d65/class_hydrax_1_1_hydrax.html#a969555d8f856a43c4ca6c92bb0958bf1" target="_top" xlink:title="Hydrax::Hydrax::getViewport">
<polygon fill="white" stroke="black" points="603,-1144 603,-1163 744,-1163 744,-1144 603,-1144"/>
<text text-anchor="middle" x="673.5" y="-1151" font-family="Helvetica,sans-Serif" font-size="10.00">Hydrax::Hydrax::getViewport</text>
</a>
</g>
</g>
<!-- Node30&#45;&gt;Node33 -->
<g id="edge8" class="edge"><title>Node30&#45;&gt;Node33</title>
<path fill="none" stroke="midnightblue" d="M525.699,-1198.36C539.22,-1194.84 553.738,-1190.78 567,-1186.5 583.337,-1181.22 586.698,-1177.88 603,-1172.5 610.103,-1170.16 617.679,-1167.87 625.121,-1165.74"/>
<polygon fill="midnightblue" stroke="midnightblue" points="626.084,-1169.11 634.774,-1163.05 624.201,-1162.37 626.084,-1169.11"/>
</g>
<!-- Node34 -->
<g id="node10" class="node"><title>Node34</title>
<g id="a_node10"><a xlink:href="../../d6/d76/class_hydrax_1_1_rtt_manager.html#a3605c212789e17ddf27b78ecb99c30a2" target="_top" xlink:title="Hydrax::RttManager\l::getPixelFormat">
<polygon fill="white" stroke="black" points="621.5,-1258.5 621.5,-1288.5 725.5,-1288.5 725.5,-1258.5 621.5,-1258.5"/>
<text text-anchor="start" x="629.5" y="-1276.5" font-family="Helvetica,sans-Serif" font-size="10.00">Hydrax::RttManager</text>
<text text-anchor="middle" x="673.5" y="-1265.5" font-family="Helvetica,sans-Serif" font-size="10.00">::getPixelFormat</text>
</a>
</g>
</g>
<!-- Node30&#45;&gt;Node34 -->
<g id="edge9" class="edge"><title>Node30&#45;&gt;Node34</title>
<path fill="none" stroke="midnightblue" d="M521.674,-1225.51C549.832,-1234.47 585.78,-1245.91 615.518,-1255.37"/>
<polygon fill="midnightblue" stroke="midnightblue" points="614.754,-1258.8 625.344,-1258.5 616.876,-1252.13 614.754,-1258.8"/>
</g>
<!-- Node35 -->
<g id="node11" class="node"><title>Node35</title>
<g id="a_node11"><a xlink:href="../../dd/d65/class_hydrax_1_1_hydrax.html#aef185c906434b6dfb7c67a425d678287" target="_top" xlink:title="Hydrax::Hydrax::getCamera">
<polygon fill="white" stroke="black" points="605,-1220 605,-1239 742,-1239 742,-1220 605,-1220"/>
<text text-anchor="middle" x="673.5" y="-1227" font-family="Helvetica,sans-Serif" font-size="10.00">Hydrax::Hydrax::getCamera</text>
</a>
</g>
</g>
<!-- Node30&#45;&gt;Node35 -->
<g id="edge10" class="edge"><title>Node30&#45;&gt;Node35</title>
<path fill="none" stroke="midnightblue" d="M525.747,-1215.42C546.708,-1217.43 571.424,-1219.8 594.537,-1222.02"/>
<polygon fill="midnightblue" stroke="midnightblue" points="594.386,-1225.52 604.675,-1222.99 595.055,-1218.55 594.386,-1225.52"/>
</g>
<!-- Node37&#45;&gt;Node28 -->
<g id="edge18" class="edge"><title>Node37&#45;&gt;Node28</title>
<path fill="none" stroke="midnightblue" d="M333.293,-545.517C337.341,-548.301 340.993,-551.598 344,-555.5 409.827,-640.934 310.884,-956.704 380,-1039.5 385.158,-1045.68 391.683,-1050.38 398.872,-1053.94"/>
<polygon fill="midnightblue" stroke="midnightblue" points="397.704,-1057.24 408.28,-1057.86 400.397,-1050.78 397.704,-1057.24"/>
</g>
<!-- Node37&#45;&gt;Node31 -->
<g id="edge20" class="edge"><title>Node37&#45;&gt;Node31</title>
<path fill="none" stroke="midnightblue" d="M333.114,-545.658C337.202,-548.411 340.912,-551.662 344,-555.5 430.398,-662.878 286.991,-761.795 380,-863.5 437.295,-926.151 491.381,-863.903 567,-902.5 605.165,-921.98 639.936,-958.984 658.465,-980.924"/>
<polygon fill="midnightblue" stroke="midnightblue" points="655.89,-983.303 664.955,-988.788 661.289,-978.847 655.89,-983.303"/>
</g>
<!-- Node38 -->
<g id="node14" class="node"><title>Node38</title>
<g id="a_node14"><a xlink:href="../../da/d12/class_hydrax_1_1_material_manager.html#a648e7cd626194ea34c31a4bf422cdf4d" target="_top" xlink:title="Hydrax::MaterialManager\l::getMaterial">
<polygon fill="white" stroke="black" points="411,-785.5 411,-815.5 536,-815.5 536,-785.5 411,-785.5"/>
<text text-anchor="start" x="419" y="-803.5" font-family="Helvetica,sans-Serif" font-size="10.00">Hydrax::MaterialManager</text>
<text text-anchor="middle" x="473.5" y="-792.5" font-family="Helvetica,sans-Serif" font-size="10.00">::getMaterial</text>
</a>
</g>
</g>
<!-- Node37&#45;&gt;Node38 -->
<g id="edge13" class="edge"><title>Node37&#45;&gt;Node38</title>
<path fill="none" stroke="midnightblue" d="M332.59,-545.594C336.851,-548.359 340.74,-551.631 344,-555.5 408.119,-631.608 312.955,-702.957 380,-776.5 385.865,-782.933 393.211,-787.737 401.185,-791.31"/>
<polygon fill="midnightblue" stroke="midnightblue" points="400.192,-794.677 410.783,-794.962 402.682,-788.135 400.192,-794.677"/>
</g>
<!-- Node39 -->
<g id="node15" class="node"><title>Node39</title>
<g id="a_node15"><a xlink:href="../../da/d12/class_hydrax_1_1_material_manager.html#a078a5df20ad9d72c0f341c41fb4b9119" target="_top" xlink:title="Hydrax::MaterialManager\l::_isComponent">
<polygon fill="white" stroke="black" points="411,-736.5 411,-766.5 536,-766.5 536,-736.5 411,-736.5"/>
<text text-anchor="start" x="419" y="-754.5" font-family="Helvetica,sans-Serif" font-size="10.00">Hydrax::MaterialManager</text>
<text text-anchor="middle" x="473.5" y="-743.5" font-family="Helvetica,sans-Serif" font-size="10.00">::_isComponent</text>
</a>
</g>
</g>
<!-- Node37&#45;&gt;Node39 -->
<g id="edge14" class="edge"><title>Node37&#45;&gt;Node39</title>
<path fill="none" stroke="midnightblue" d="M332.063,-545.54C336.496,-548.316 340.566,-551.605 344,-555.5 395.647,-614.086 326.102,-670.977 380,-727.5 385.925,-733.714 393.234,-738.396 401.127,-741.912"/>
<polygon fill="midnightblue" stroke="midnightblue" points="400.02,-745.236 410.611,-745.526 402.512,-738.694 400.02,-745.236"/>
</g>
<!-- Node40 -->
<g id="node16" class="node"><title>Node40</title>
<g id="a_node16"><a xlink:href="../../dd/d65/class_hydrax_1_1_hydrax.html#abae34c8351038818133090dbe1241d7d" target="_top" xlink:title="Hydrax::Hydrax::getFullReflection\lDistance">
<polygon fill="white" stroke="black" points="392.5,-687.5 392.5,-717.5 554.5,-717.5 554.5,-687.5 392.5,-687.5"/>
<text text-anchor="start" x="400.5" y="-705.5" font-family="Helvetica,sans-Serif" font-size="10.00">Hydrax::Hydrax::getFullReflection</text>
<text text-anchor="middle" x="473.5" y="-694.5" font-family="Helvetica,sans-Serif" font-size="10.00">Distance</text>
</a>
</g>
</g>
<!-- Node37&#45;&gt;Node40 -->
<g id="edge15" class="edge"><title>Node37&#45;&gt;Node40</title>
<path fill="none" stroke="midnightblue" d="M331.393,-545.629C336.027,-548.386 340.324,-551.646 344,-555.5 383.313,-596.719 339.106,-638.85 380,-678.5 381.269,-679.731 382.593,-680.901 383.965,-682.012"/>
<polygon fill="midnightblue" stroke="midnightblue" points="382.08,-684.964 392.298,-687.767 386.058,-679.205 382.08,-684.964"/>
</g>
<!-- Node41 -->
<g id="node17" class="node"><title>Node41</title>
<g id="a_node17"><a xlink:href="../../dd/d65/class_hydrax_1_1_hydrax.html#a1079041e95b9a8afea0d2f4984267e3e" target="_top" xlink:title="Hydrax::Hydrax::getGlobal\lTransparency">
<polygon fill="white" stroke="black" points="408,-638.5 408,-668.5 539,-668.5 539,-638.5 408,-638.5"/>
<text text-anchor="start" x="416" y="-656.5" font-family="Helvetica,sans-Serif" font-size="10.00">Hydrax::Hydrax::getGlobal</text>
<text text-anchor="middle" x="473.5" y="-645.5" font-family="Helvetica,sans-Serif" font-size="10.00">Transparency</text>
</a>
</g>
</g>
<!-- Node37&#45;&gt;Node41 -->
<g id="edge16" class="edge"><title>Node37&#45;&gt;Node41</title>
<path fill="none" stroke="midnightblue" d="M329.29,-545.545C334.596,-548.327 339.615,-551.615 344,-555.5 371.375,-579.755 351.698,-606.334 380,-629.5 385.434,-633.948 391.6,-637.581 398.108,-640.548"/>
<polygon fill="midnightblue" stroke="midnightblue" points="397.255,-643.976 407.84,-644.434 399.851,-637.475 397.255,-643.976"/>
</g>
<!-- Node42 -->
<g id="node18" class="node"><title>Node42</title>
<g id="a_node18"><a xlink:href="../../dd/d65/class_hydrax_1_1_hydrax.html#a455f403f917c1dadda09213b55df7adb" target="_top" xlink:title="Hydrax::Hydrax::getNormal\lDistortion">
<polygon fill="white" stroke="black" points="406.5,-589.5 406.5,-619.5 540.5,-619.5 540.5,-589.5 406.5,-589.5"/>
<text text-anchor="start" x="414.5" y="-607.5" font-family="Helvetica,sans-Serif" font-size="10.00">Hydrax::Hydrax::getNormal</text>
<text text-anchor="middle" x="473.5" y="-596.5" font-family="Helvetica,sans-Serif" font-size="10.00">Distortion</text>
</a>
</g>
</g>
<!-- Node37&#45;&gt;Node42 -->
<g id="edge17" class="edge"><title>Node37&#45;&gt;Node42</title>
<path fill="none" stroke="midnightblue" d="M321.005,-545.522C328.85,-548.482 336.757,-551.825 344,-555.5 361.372,-564.314 362.297,-572.372 380,-580.5 385.312,-582.939 390.915,-585.161 396.627,-587.181"/>
<polygon fill="midnightblue" stroke="midnightblue" points="395.717,-590.566 406.311,-590.389 397.919,-583.921 395.717,-590.566"/>
</g>
<!-- Node43 -->
<g id="node19" class="node"><title>Node43</title>
<g id="a_node19"><a xlink:href="../../dd/d65/class_hydrax_1_1_hydrax.html#a71c118301683c880ca9a7985d560f7f6" target="_top" xlink:title="Hydrax::Hydrax::getSmooth\lPower">
<polygon fill="white" stroke="black" points="405,-540.5 405,-570.5 542,-570.5 542,-540.5 405,-540.5"/>
<text text-anchor="start" x="413" y="-558.5" font-family="Helvetica,sans-Serif" font-size="10.00">Hydrax::Hydrax::getSmooth</text>
<text text-anchor="middle" x="473.5" y="-547.5" font-family="Helvetica,sans-Serif" font-size="10.00">Power</text>
</a>
</g>
</g>
<!-- Node37&#45;&gt;Node43 -->
<g id="edge19" class="edge"><title>Node37&#45;&gt;Node43</title>
<path fill="none" stroke="midnightblue" d="M333.173,-538.171C352.709,-540.601 374.56,-543.318 395.057,-545.868"/>
<polygon fill="midnightblue" stroke="midnightblue" points="394.639,-549.343 404.995,-547.104 395.503,-542.396 394.639,-549.343"/>
</g>
<!-- Node44 -->
<g id="node20" class="node"><title>Node44</title>
<g id="a_node20"><a xlink:href="../../d1/dc4/class_hydrax_1_1_mesh.html#a246262a36f4a6f871b0a5f347aa10ccf" target="_top" xlink:title="Hydrax::Mesh::getObjectSpace\lPosition">
<polygon fill="white" stroke="black" points="397,-491.5 397,-521.5 550,-521.5 550,-491.5 397,-491.5"/>
<text text-anchor="start" x="405" y="-509.5" font-family="Helvetica,sans-Serif" font-size="10.00">Hydrax::Mesh::getObjectSpace</text>
<text text-anchor="middle" x="473.5" y="-498.5" font-family="Helvetica,sans-Serif" font-size="10.00">Position</text>
</a>
</g>
</g>
<!-- Node37&#45;&gt;Node44 -->
<g id="edge21" class="edge"><title>Node37&#45;&gt;Node44</title>
<path fill="none" stroke="midnightblue" d="M333.173,-523.136C350.115,-521.113 368.797,-518.882 386.827,-516.73"/>
<polygon fill="midnightblue" stroke="midnightblue" points="387.248,-520.204 396.762,-515.543 386.418,-513.254 387.248,-520.204"/>
</g>
<!-- Node45 -->
<g id="node21" class="node"><title>Node45</title>
<g id="a_node21"><a xlink:href="../../dd/d65/class_hydrax_1_1_hydrax.html#ac4f36e2a40b663997b83b2730843757b" target="_top" xlink:title="Hydrax::Hydrax::getPosition">
<polygon fill="white" stroke="black" points="604,-475 604,-494 743,-494 743,-475 604,-475"/>
<text text-anchor="middle" x="673.5" y="-482" font-family="Helvetica,sans-Serif" font-size="10.00">Hydrax::Hydrax::getPosition</text>
</a>
</g>
</g>
<!-- Node37&#45;&gt;Node45 -->
<g id="edge33" class="edge"><title>Node37&#45;&gt;Node45</title>
<path fill="none" stroke="midnightblue" d="M320.498,-515.378C328.484,-512.412 336.568,-509.093 344,-505.5 361.094,-497.236 361.775,-487.825 380,-482.5 455.915,-460.32 547.717,-465.867 607.981,-473.614"/>
<polygon fill="midnightblue" stroke="midnightblue" points="607.737,-477.112 618.114,-474.975 608.669,-470.175 607.737,-477.112"/>
</g>
<!-- Node46 -->
<g id="node22" class="node"><title>Node46</title>
<g id="a_node22"><a xlink:href="../../dd/d65/class_hydrax_1_1_hydrax.html#a987d33873d0d9a1a7ef2dea72c9cf4a3" target="_top" xlink:title="Hydrax::Hydrax::getSunPosition">
<polygon fill="white" stroke="black" points="395.5,-415 395.5,-434 551.5,-434 551.5,-415 395.5,-415"/>
<text text-anchor="middle" x="473.5" y="-422" font-family="Helvetica,sans-Serif" font-size="10.00">Hydrax::Hydrax::getSunPosition</text>
</a>
</g>
</g>
<!-- Node37&#45;&gt;Node46 -->
<g id="edge23" class="edge"><title>Node37&#45;&gt;Node46</title>
<path fill="none" stroke="midnightblue" d="M327.757,-515.486C333.546,-512.686 339.094,-509.385 344,-505.5 367.49,-486.899 355.801,-466.169 380,-448.5 385.988,-444.128 392.704,-440.551 399.711,-437.625"/>
<polygon fill="midnightblue" stroke="midnightblue" points="401.25,-440.787 409.406,-434.024 398.813,-434.225 401.25,-440.787"/>
</g>
<!-- Node47 -->
<g id="node23" class="node"><title>Node47</title>
<g id="a_node23"><a xlink:href="../../dd/d65/class_hydrax_1_1_hydrax.html#ae841c3882909f074f2fa1455705079b2" target="_top" xlink:title="Hydrax::Hydrax::getSunStrength">
<polygon fill="white" stroke="black" points="394.5,-377 394.5,-396 552.5,-396 552.5,-377 394.5,-377"/>
<text text-anchor="middle" x="473.5" y="-384" font-family="Helvetica,sans-Serif" font-size="10.00">Hydrax::Hydrax::getSunStrength</text>
</a>
</g>
</g>
<!-- Node37&#45;&gt;Node47 -->
<g id="edge24" class="edge"><title>Node37&#45;&gt;Node47</title>
<path fill="none" stroke="midnightblue" d="M330.794,-515.331C335.613,-512.581 340.114,-509.334 344,-505.5 377.626,-472.325 344.298,-436.43 380,-405.5 381.762,-403.974 383.613,-402.558 385.539,-401.246"/>
<polygon fill="midnightblue" stroke="midnightblue" points="387.495,-404.158 394.41,-396.131 383.999,-398.094 387.495,-404.158"/>
</g>
<!-- Node48 -->
<g id="node24" class="node"><title>Node48</title>
<g id="a_node24"><a xlink:href="../../dd/d65/class_hydrax_1_1_hydrax.html#ac56c251f193c10de861bc3a401d3ce0c" target="_top" xlink:title="Hydrax::Hydrax::getSunArea">
<polygon fill="white" stroke="black" points="403,-339 403,-358 544,-358 544,-339 403,-339"/>
<text text-anchor="middle" x="473.5" y="-346" font-family="Helvetica,sans-Serif" font-size="10.00">Hydrax::Hydrax::getSunArea</text>
</a>
</g>
</g>
<!-- Node37&#45;&gt;Node48 -->
<g id="edge25" class="edge"><title>Node37&#45;&gt;Node48</title>
<path fill="none" stroke="midnightblue" d="M331.515,-515.486C336.124,-512.705 340.382,-509.408 344,-505.5 387.065,-458.99 334.016,-411.127 380,-367.5 383.914,-363.787 388.35,-360.715 393.109,-358.179"/>
<polygon fill="midnightblue" stroke="midnightblue" points="394.902,-361.212 402.607,-353.939 392.049,-354.82 394.902,-361.212"/>
</g>
<!-- Node49 -->
<g id="node25" class="node"><title>Node49</title>
<g id="a_node25"><a xlink:href="../../dd/d65/class_hydrax_1_1_hydrax.html#acf7a138c6149083431bcaa1500c29f4a" target="_top" xlink:title="Hydrax::Hydrax::getSunColor">
<polygon fill="white" stroke="black" points="402,-301 402,-320 545,-320 545,-301 402,-301"/>
<text text-anchor="middle" x="473.5" y="-308" font-family="Helvetica,sans-Serif" font-size="10.00">Hydrax::Hydrax::getSunColor</text>
</a>
</g>
</g>
<!-- Node37&#45;&gt;Node49 -->
<g id="edge26" class="edge"><title>Node37&#45;&gt;Node49</title>
<path fill="none" stroke="midnightblue" d="M332.082,-515.477C336.511,-512.697 340.575,-509.403 344,-505.5 396.661,-445.488 323.567,-385.98 380,-329.5 383.742,-325.754 388.013,-322.652 392.619,-320.089"/>
<polygon fill="midnightblue" stroke="midnightblue" points="394.248,-323.191 401.838,-315.799 391.295,-316.844 394.248,-323.191"/>
</g>
<!-- Node50 -->
<g id="node26" class="node"><title>Node50</title>
<g id="a_node26"><a xlink:href="../../d1/dc4/class_hydrax_1_1_mesh.html#abad9141d1c65e111ff23d64dc4b1ba8e" target="_top" xlink:title="Hydrax::Mesh::getOptions">
<polygon fill="white" stroke="black" points="408,-263 408,-282 539,-282 539,-263 408,-263"/>
<text text-anchor="middle" x="473.5" y="-270" font-family="Helvetica,sans-Serif" font-size="10.00">Hydrax::Mesh::getOptions</text>
</a>
</g>
</g>
<!-- Node37&#45;&gt;Node50 -->
<g id="edge27" class="edge"><title>Node37&#45;&gt;Node50</title>
<path fill="none" stroke="midnightblue" d="M332.569,-515.388C336.834,-512.626 340.73,-509.361 344,-505.5 406.332,-431.901 313.037,-360.913 380,-291.5 385.165,-286.146 391.405,-282.093 398.176,-279.049"/>
<polygon fill="midnightblue" stroke="midnightblue" points="399.547,-282.273 407.689,-275.494 397.096,-275.716 399.547,-282.273"/>
</g>
<!-- Node51 -->
<g id="node27" class="node"><title>Node51</title>
<g id="a_node27"><a xlink:href="../../dd/d65/class_hydrax_1_1_hydrax.html#a5ae2609d700fb700d0506bb4bc29b0e2" target="_top" xlink:title="Hydrax::Hydrax::getFoamMax\lDistance">
<polygon fill="white" stroke="black" points="400,-213.5 400,-243.5 547,-243.5 547,-213.5 400,-213.5"/>
<text text-anchor="start" x="408" y="-231.5" font-family="Helvetica,sans-Serif" font-size="10.00">Hydrax::Hydrax::getFoamMax</text>
<text text-anchor="middle" x="473.5" y="-220.5" font-family="Helvetica,sans-Serif" font-size="10.00">Distance</text>
</a>
</g>
</g>
<!-- Node37&#45;&gt;Node51 -->
<g id="edge28" class="edge"><title>Node37&#45;&gt;Node51</title>
<path fill="none" stroke="midnightblue" d="M332.673,-515.476C336.916,-512.695 340.778,-509.401 344,-505.5 416.044,-418.266 305.029,-338.231 380,-253.5 383.273,-249.801 387.03,-246.624 391.116,-243.898"/>
<polygon fill="midnightblue" stroke="midnightblue" points="392.941,-246.887 399.914,-238.911 389.489,-240.797 392.941,-246.887"/>
</g>
<!-- Node52 -->
<g id="node28" class="node"><title>Node52</title>
<g id="a_node28"><a xlink:href="../../dd/d65/class_hydrax_1_1_hydrax.html#a05aad081be52a7b7c9919198a0304768" target="_top" xlink:title="Hydrax::Hydrax::getFoamScale">
<polygon fill="white" stroke="black" points="397,-175 397,-194 550,-194 550,-175 397,-175"/>
<text text-anchor="middle" x="473.5" y="-182" font-family="Helvetica,sans-Serif" font-size="10.00">Hydrax::Hydrax::getFoamScale</text>
</a>
</g>
</g>
<!-- Node37&#45;&gt;Node52 -->
<g id="edge29" class="edge"><title>Node37&#45;&gt;Node52</title>
<path fill="none" stroke="midnightblue" d="M333.103,-515.333C337.193,-512.582 340.907,-509.334 344,-505.5 428.601,-400.642 289.307,-304.136 380,-204.5 382.452,-201.806 385.173,-199.429 388.099,-197.333"/>
<polygon fill="midnightblue" stroke="midnightblue" points="390.02,-200.263 396.829,-192.146 386.444,-194.245 390.02,-200.263"/>
</g>
<!-- Node53 -->
<g id="node29" class="node"><title>Node53</title>
<g id="a_node29"><a xlink:href="../../dd/d65/class_hydrax_1_1_hydrax.html#ad6ff93ec70a151f9057b8b5be2b4b39a" target="_top" xlink:title="Hydrax::Hydrax::getFoamStart">
<polygon fill="white" stroke="black" points="399,-137 399,-156 548,-156 548,-137 399,-137"/>
<text text-anchor="middle" x="473.5" y="-144" font-family="Helvetica,sans-Serif" font-size="10.00">Hydrax::Hydrax::getFoamStart</text>
</a>
</g>
</g>
<!-- Node37&#45;&gt;Node53 -->
<g id="edge30" class="edge"><title>Node37&#45;&gt;Node53</title>
<path fill="none" stroke="midnightblue" d="M333.16,-515.379C337.238,-512.618 340.933,-509.355 344,-505.5 438.614,-386.593 277.892,-278.037 380,-165.5 382.912,-162.29 386.21,-159.541 389.782,-157.191"/>
<polygon fill="midnightblue" stroke="midnightblue" points="391.457,-160.263 398.562,-152.403 388.106,-154.117 391.457,-160.263"/>
</g>
<!-- Node54 -->
<g id="node30" class="node"><title>Node54</title>
<g id="a_node30"><a xlink:href="../../dd/d65/class_hydrax_1_1_hydrax.html#a45c42ee4514481b25d14ea21d49219fd" target="_top" xlink:title="Hydrax::Hydrax::getFoamTransparency">
<polygon fill="white" stroke="black" points="380,-99 380,-118 567,-118 567,-99 380,-99"/>
<text text-anchor="middle" x="473.5" y="-106" font-family="Helvetica,sans-Serif" font-size="10.00">Hydrax::Hydrax::getFoamTransparency</text>
</a>
</g>
</g>
<!-- Node37&#45;&gt;Node54 -->
<g id="edge31" class="edge"><title>Node37&#45;&gt;Node54</title>
<path fill="none" stroke="midnightblue" d="M333.205,-515.414C337.272,-512.645 340.953,-509.371 344,-505.5 396.19,-439.196 323.63,-190.289 380,-127.5 380.924,-126.471 381.888,-125.489 382.887,-124.552"/>
<polygon fill="midnightblue" stroke="midnightblue" points="385.362,-127.066 391.195,-118.222 381.12,-121.498 385.362,-127.066"/>
</g>
<!-- Node55 -->
<g id="node31" class="node"><title>Node55</title>
<g id="a_node31"><a xlink:href="../../dd/d65/class_hydrax_1_1_hydrax.html#a1925e17762ef3f877273bce23a42acab" target="_top" xlink:title="Hydrax::Hydrax::getCaustics\lPower">
<polygon fill="white" stroke="black" points="402.5,-49.5 402.5,-79.5 544.5,-79.5 544.5,-49.5 402.5,-49.5"/>
<text text-anchor="start" x="410.5" y="-67.5" font-family="Helvetica,sans-Serif" font-size="10.00">Hydrax::Hydrax::getCaustics</text>
<text text-anchor="middle" x="473.5" y="-56.5" font-family="Helvetica,sans-Serif" font-size="10.00">Power</text>
</a>
</g>
</g>
<!-- Node37&#45;&gt;Node55 -->
<g id="edge32" class="edge"><title>Node37&#45;&gt;Node55</title>
<path fill="none" stroke="midnightblue" d="M333.242,-515.443C337.301,-512.668 340.97,-509.384 344,-505.5 401.076,-432.341 320.466,-160.674 380,-89.5 383.829,-84.9224 388.401,-81.1368 393.434,-78.0111"/>
<polygon fill="midnightblue" stroke="midnightblue" points="395.068,-81.1061 402.286,-73.3506 391.807,-74.9119 395.068,-81.1061"/>
</g>
<!-- Node56 -->
<g id="node32" class="node"><title>Node56</title>
<g id="a_node32"><a xlink:href="../../dd/d65/class_hydrax_1_1_hydrax.html#aa8302ba860afa88d09d202acee10984f" target="_top" xlink:title="Hydrax::Hydrax::getPlanes\lError">
<polygon fill="white" stroke="black" points="406.5,-0.5 406.5,-30.5 540.5,-30.5 540.5,-0.5 406.5,-0.5"/>
<text text-anchor="start" x="414.5" y="-18.5" font-family="Helvetica,sans-Serif" font-size="10.00">Hydrax::Hydrax::getPlanes</text>
<text text-anchor="middle" x="473.5" y="-7.5" font-family="Helvetica,sans-Serif" font-size="10.00">Error</text>
</a>
</g>
</g>
<!-- Node37&#45;&gt;Node56 -->
<g id="edge34" class="edge"><title>Node37&#45;&gt;Node56</title>
<path fill="none" stroke="midnightblue" d="M333.281,-515.474C337.332,-512.691 340.988,-509.398 344,-505.5 407.51,-423.316 313.326,-119.139 380,-39.5 384.759,-33.8152 390.676,-29.3838 397.2,-25.9414"/>
<polygon fill="midnightblue" stroke="midnightblue" points="398.71,-29.1003 406.422,-21.8355 395.863,-22.7054 398.71,-29.1003"/>
</g>
<!-- Node57 -->
<g id="node33" class="node"><title>Node57</title>
<g id="a_node33"><a xlink:href="../../dd/d65/class_hydrax_1_1_hydrax.html#a56b4d0a75c352223e57e488db378cce2" target="_top" xlink:title="Hydrax::Hydrax::getDepth\lLimit">
<polygon fill="white" stroke="black" points="409,-999.5 409,-1029.5 538,-1029.5 538,-999.5 409,-999.5"/>
<text text-anchor="start" x="417" y="-1017.5" font-family="Helvetica,sans-Serif" font-size="10.00">Hydrax::Hydrax::getDepth</text>
<text text-anchor="middle" x="473.5" y="-1006.5" font-family="Helvetica,sans-Serif" font-size="10.00">Limit</text>
</a>
</g>
</g>
<!-- Node37&#45;&gt;Node57 -->
<g id="edge35" class="edge"><title>Node37&#45;&gt;Node57</title>
<path fill="none" stroke="midnightblue" d="M333.257,-545.545C337.313,-548.323 340.977,-551.611 344,-555.5 403.392,-631.908 318.041,-915.158 380,-989.5 385.242,-995.79 391.887,-1000.58 399.203,-1004.23"/>
<polygon fill="midnightblue" stroke="midnightblue" points="398.198,-1007.6 408.773,-1008.25 400.911,-1001.15 398.198,-1007.6"/>
</g>
<!-- Node58 -->
<g id="node34" class="node"><title>Node58</title>
<g id="a_node34"><a xlink:href="../../dd/d65/class_hydrax_1_1_hydrax.html#a29dbcd95fccdbb159fc668f937e621a8" target="_top" xlink:title="Hydrax::Hydrax::getDistLimit">
<polygon fill="white" stroke="black" points="402.5,-961 402.5,-980 544.5,-980 544.5,-961 402.5,-961"/>
<text text-anchor="middle" x="473.5" y="-968" font-family="Helvetica,sans-Serif" font-size="10.00">Hydrax::Hydrax::getDistLimit</text>
</a>
</g>
</g>
<!-- Node37&#45;&gt;Node58 -->
<g id="edge36" class="edge"><title>Node37&#45;&gt;Node58</title>
<path fill="none" stroke="midnightblue" d="M333.223,-545.571C337.287,-548.344 340.961,-551.623 344,-555.5 398.504,-625.051 321.111,-885.621 380,-951.5 383.756,-955.702 388.171,-959.117 393,-961.883"/>
<polygon fill="midnightblue" stroke="midnightblue" points="391.552,-965.07 402.088,-966.187 394.548,-958.743 391.552,-965.07"/>
</g>
<!-- Node59 -->
<g id="node35" class="node"><title>Node59</title>
<g id="a_node35"><a xlink:href="../../dd/d65/class_hydrax_1_1_hydrax.html#a180831cf2c673ff586f7def148170cd3" target="_top" xlink:title="Hydrax::Hydrax::getCaustics\lScale">
<polygon fill="white" stroke="black" points="402.5,-911.5 402.5,-941.5 544.5,-941.5 544.5,-911.5 402.5,-911.5"/>
<text text-anchor="start" x="410.5" y="-929.5" font-family="Helvetica,sans-Serif" font-size="10.00">Hydrax::Hydrax::getCaustics</text>
<text text-anchor="middle" x="473.5" y="-918.5" font-family="Helvetica,sans-Serif" font-size="10.00">Scale</text>
</a>
</g>
</g>
<!-- Node37&#45;&gt;Node59 -->
<g id="edge37" class="edge"><title>Node37&#45;&gt;Node59</title>
<path fill="none" stroke="midnightblue" d="M333.162,-545.62C337.239,-548.382 340.933,-551.645 344,-555.5 438.871,-674.767 284.034,-778.113 380,-896.5 383.814,-901.205 388.375,-905.18 393.4,-908.538"/>
<polygon fill="midnightblue" stroke="midnightblue" points="391.83,-911.673 402.243,-913.626 395.321,-905.606 391.83,-911.673"/>
</g>
<!-- Node60 -->
<g id="node36" class="node"><title>Node60</title>
<g id="a_node36"><a xlink:href="../../dd/d65/class_hydrax_1_1_hydrax.html#a8746142d93ed72a95d454dfeff6e7a27" target="_top" xlink:title="Hydrax::Hydrax::getCausticsEnd">
<polygon fill="white" stroke="black" points="394,-835 394,-854 553,-854 553,-835 394,-835"/>
<text text-anchor="middle" x="473.5" y="-842" font-family="Helvetica,sans-Serif" font-size="10.00">Hydrax::Hydrax::getCausticsEnd</text>
</a>
</g>
</g>
<!-- Node37&#45;&gt;Node60 -->
<g id="edge38" class="edge"><title>Node37&#45;&gt;Node60</title>
<path fill="none" stroke="midnightblue" d="M333.046,-545.713C337.149,-548.454 340.881,-551.687 344,-555.5 420.653,-649.203 297.446,-736.952 380,-825.5 381.635,-827.254 383.385,-828.869 385.232,-830.356"/>
<polygon fill="midnightblue" stroke="midnightblue" points="383.619,-833.486 393.89,-836.086 387.482,-827.648 383.619,-833.486"/>
</g>
<!-- Node44&#45;&gt;Node45 -->
<g id="edge22" class="edge"><title>Node44&#45;&gt;Node45</title>
<path fill="none" stroke="midnightblue" d="M550.203,-498.089C564.434,-496.507 579.347,-494.85 593.671,-493.259"/>
<polygon fill="midnightblue" stroke="midnightblue" points="594.427,-496.696 603.979,-492.113 593.654,-489.739 594.427,-496.696"/>
</g>
</g>
</svg>
