<?xml version="1.0" encoding="UTF-8" standalone="no"?>
<!DOCTYPE svg PUBLIC "-//W3C//DTD SVG 1.1//EN"
 "http://www.w3.org/Graphics/SVG/1.1/DTD/svg11.dtd">
<!-- Generated by graphviz version 2.38.0 (20140413.2041)
 -->
<!-- Title: ImGuiTextFilter::TextRange::front Pages: 1 -->
<!--zoomable 142 -->
<svg id="main" version="1.1" xmlns="http://www.w3.org/2000/svg" xmlns:xlink="http://www.w3.org/1999/xlink" xml:space="preserve" onload="init(evt)">
<style type="text/css"><![CDATA[
.edge:hover path { stroke: red; }
.edge:hover polygon { stroke: red; fill: red; }
]]></style>
<script type="text/javascript"><![CDATA[
var edges = document.getElementsByTagName('g');
if (edges && edges.length) {
  for (var i=0;i<edges.length;i++) {
    if (edges[i].id.substr(0,4)=='edge') {
      edges[i].setAttribute('class','edge');
    }
  }
}
]]></script>
        <defs>
                <circle id="rim" cx="0" cy="0" r="7"/>
                <circle id="rim2" cx="0" cy="0" r="3.5"/>
                <g id="zoomPlus">
                        <use xlink:href="#rim" fill="#404040">
                                <set attributeName="fill" to="#808080" begin="zoomplus.mouseover" end="zoomplus.mouseout"/>
                        </use>
                        <path d="M-4,0h8M0,-4v8" fill="none" stroke="white" stroke-width="1.5" pointer-events="none"/>
                </g>
                <g id="zoomMin">
                        <use xlink:href="#rim" fill="#404040">
                                <set attributeName="fill" to="#808080" begin="zoomminus.mouseover" end="zoomminus.mouseout"/>
                        </use>
                        <path d="M-4,0h8" fill="none" stroke="white" stroke-width="1.5" pointer-events="none"/>
                </g>
                <g id="dirArrow">
                        <path fill="none" stroke="white" stroke-width="1.5" d="M0,-3.0v7 M-2.5,-0.5L0,-3.0L2.5,-0.5"/>
                </g>
               <g id="resetDef">
                       <use xlink:href="#rim2" fill="#404040">
                               <set attributeName="fill" to="#808080" begin="reset.mouseover" end="reset.mouseout"/>
                       </use>
               </g>
        </defs>

<script type="text/javascript">
var viewWidth = 983;
var viewHeight = 142;
var sectionId = 'dynsection-3';
</script>
<script xlink:href="../../svgpan.js"/>
<svg id="graph" class="graph">
<g id="viewport">
<title>ImGuiTextFilter::TextRange::front</title>
<polygon fill="white" stroke="none" points="-4,4 -4,-138 979,-138 979,4 -4,4"/>
<!-- Node35 -->
<g id="node1" class="node"><title>Node35</title>
<polygon fill="#bfbfbf" stroke="black" points="0,-52 0,-82 135,-82 135,-52 0,-52"/>
<text text-anchor="start" x="8" y="-70" font-family="Helvetica,sans-Serif" font-size="10.00">ImGuiTextFilter::TextRange</text>
<text text-anchor="middle" x="67.5" y="-59" font-family="Helvetica,sans-Serif" font-size="10.00">::front</text>
</g>
<!-- Node36 -->
<g id="node2" class="node"><title>Node36</title>
<g id="a_node2"><a xlink:href="../../d5/de6/struct_im_gui_text_filter.html#a88d73ff8b81fbbd0a129b1bf3498d8aa" target="_top" xlink:title="ImGuiTextFilter::PassFilter">
<polygon fill="white" stroke="black" points="171,-57.5 171,-76.5 304,-76.5 304,-57.5 171,-57.5"/>
<text text-anchor="middle" x="237.5" y="-64.5" font-family="Helvetica,sans-Serif" font-size="10.00">ImGuiTextFilter::PassFilter</text>
</a>
</g>
</g>
<!-- Node35&#45;&gt;Node36 -->
<g id="edge1" class="edge"><title>Node35&#45;&gt;Node36</title>
<path fill="none" stroke="midnightblue" d="M145.631,-67C154.091,-67 162.644,-67 170.945,-67"/>
<polygon fill="midnightblue" stroke="midnightblue" points="145.381,-63.5001 135.381,-67 145.381,-70.5001 145.381,-63.5001"/>
</g>
<!-- Node37 -->
<g id="node3" class="node"><title>Node37</title>
<g id="a_node3"><a xlink:href="../../df/d13/namespace_im_gui.html#a52880ae1ecdd704a083558d31c9bfa50" target="_top" xlink:title="ImGui::ShowTestWindow">
<polygon fill="white" stroke="black" points="678,-76.5 678,-95.5 803,-95.5 803,-76.5 678,-76.5"/>
<text text-anchor="middle" x="740.5" y="-83.5" font-family="Helvetica,sans-Serif" font-size="10.00">ImGui::ShowTestWindow</text>
</a>
</g>
</g>
<!-- Node36&#45;&gt;Node37 -->
<g id="edge2" class="edge"><title>Node36&#45;&gt;Node37</title>
<path fill="none" stroke="midnightblue" d="M314.532,-69.8835C413.982,-73.655 586.311,-80.1905 677.99,-83.6673"/>
<polygon fill="midnightblue" stroke="midnightblue" points="314.38,-66.3753 304.254,-69.4937 314.115,-73.3702 314.38,-66.3753"/>
</g>
<!-- Node39 -->
<g id="node5" class="node"><title>Node39</title>
<g id="a_node5"><a xlink:href="../../df/d13/namespace_im_gui.html#ab2eb3dec78d054fe3feab1c091ec5de5" target="_top" xlink:title="ImGui::ShowStyleEditor">
<polygon fill="white" stroke="black" points="516.5,-114.5 516.5,-133.5 636.5,-133.5 636.5,-114.5 516.5,-114.5"/>
<text text-anchor="middle" x="576.5" y="-121.5" font-family="Helvetica,sans-Serif" font-size="10.00">ImGui::ShowStyleEditor</text>
</a>
</g>
</g>
<!-- Node36&#45;&gt;Node39 -->
<g id="edge5" class="edge"><title>Node36&#45;&gt;Node39</title>
<path fill="none" stroke="midnightblue" d="M272.752,-80.1525C292.198,-87.1063 317.15,-95.1786 340,-100 399.312,-112.515 468.456,-118.576 516.412,-121.465"/>
<polygon fill="midnightblue" stroke="midnightblue" points="273.719,-76.7798 263.125,-76.6413 271.321,-83.356 273.719,-76.7798"/>
</g>
<!-- Node40 -->
<g id="node6" class="node"><title>Node40</title>
<g id="a_node6"><a xlink:href="../../de/d1c/struct_example_app_console.html#a0518a09c7e8648dd52c7c06df19ac17a" target="_top" xlink:title="ExampleAppConsole::Draw">
<polygon fill="white" stroke="black" points="340,-0.5 340,-19.5 475,-19.5 475,-0.5 340,-0.5"/>
<text text-anchor="middle" x="407.5" y="-7.5" font-family="Helvetica,sans-Serif" font-size="10.00">ExampleAppConsole::Draw</text>
</a>
</g>
</g>
<!-- Node36&#45;&gt;Node40 -->
<g id="edge8" class="edge"><title>Node36&#45;&gt;Node40</title>
<path fill="none" stroke="midnightblue" d="M271.946,-53.7095C291.623,-46.0841 317.068,-36.5554 340,-29 350.036,-25.6936 361.03,-22.4152 371.137,-19.5363"/>
<polygon fill="midnightblue" stroke="midnightblue" points="270.551,-50.497 262.507,-57.3928 273.095,-57.0182 270.551,-50.497"/>
</g>
<!-- Node42 -->
<g id="node8" class="node"><title>Node42</title>
<g id="a_node8"><a xlink:href="../../d1/db8/struct_example_app_log.html#a5ad3a4bdb89171b84aeaff96948a1f77" target="_top" xlink:title="ExampleAppLog::Draw">
<polygon fill="white" stroke="black" points="349.5,-38.5 349.5,-57.5 465.5,-57.5 465.5,-38.5 349.5,-38.5"/>
<text text-anchor="middle" x="407.5" y="-45.5" font-family="Helvetica,sans-Serif" font-size="10.00">ExampleAppLog::Draw</text>
</a>
</g>
</g>
<!-- Node36&#45;&gt;Node42 -->
<g id="edge11" class="edge"><title>Node36&#45;&gt;Node42</title>
<path fill="none" stroke="midnightblue" d="M314.637,-58.3892C326.355,-57.064 338.279,-55.7155 349.486,-54.4481"/>
<polygon fill="midnightblue" stroke="midnightblue" points="313.959,-54.9435 304.416,-59.5452 314.746,-61.8992 313.959,-54.9435"/>
</g>
<!-- Node38 -->
<g id="node4" class="node"><title>Node38</title>
<g id="a_node4"><a xlink:href="../../d5/d0a/imgui__demo_8cpp.html#a4dadf5e7b393795666d19af9694037cf" target="_top" xlink:title="ShowExampleAppLongText">
<polygon fill="white" stroke="black" points="839,-76.5 839,-95.5 975,-95.5 975,-76.5 839,-76.5"/>
<text text-anchor="middle" x="907" y="-83.5" font-family="Helvetica,sans-Serif" font-size="10.00">ShowExampleAppLongText</text>
</a>
</g>
</g>
<!-- Node37&#45;&gt;Node38 -->
<g id="edge3" class="edge"><title>Node37&#45;&gt;Node38</title>
<path fill="none" stroke="midnightblue" d="M813.464,-79.2971C821.942,-79.2191 830.567,-79.238 838.973,-79.3538"/>
<polygon fill="midnightblue" stroke="midnightblue" points="813.172,-75.8008 803.222,-79.4404 813.27,-82.8001 813.172,-75.8008"/>
</g>
<!-- Node38&#45;&gt;Node37 -->
<g id="edge4" class="edge"><title>Node38&#45;&gt;Node37</title>
<path fill="none" stroke="midnightblue" d="M828.916,-92.7381C820.301,-92.7777 811.609,-92.7182 803.222,-92.5596"/>
<polygon fill="midnightblue" stroke="midnightblue" points="829.005,-96.2376 838.973,-92.6462 828.941,-89.2379 829.005,-96.2376"/>
</g>
<!-- Node39&#45;&gt;Node37 -->
<g id="edge6" class="edge"><title>Node39&#45;&gt;Node37</title>
<path fill="none" stroke="midnightblue" d="M628.215,-112.104C650.986,-106.763 677.487,-100.546 698.915,-95.5201"/>
<polygon fill="midnightblue" stroke="midnightblue" points="627.316,-108.72 618.379,-114.411 628.915,-115.535 627.316,-108.72"/>
</g>
<!-- Node39&#45;&gt;Node38 -->
<g id="edge7" class="edge"><title>Node39&#45;&gt;Node38</title>
<path fill="none" stroke="midnightblue" d="M646.719,-119.936C691.431,-116.876 750.798,-111.997 803,-105 821.653,-102.5 842.06,-98.9157 859.752,-95.5326"/>
<polygon fill="midnightblue" stroke="midnightblue" points="646.29,-116.457 636.547,-120.619 646.759,-123.442 646.29,-116.457"/>
</g>
<!-- Node41 -->
<g id="node7" class="node"><title>Node41</title>
<g id="a_node7"><a xlink:href="../../d5/d0a/imgui__demo_8cpp.html#a8e5624314ae6402dd0ddf2a62aa91473" target="_top" xlink:title="ShowExampleAppConsole">
<polygon fill="white" stroke="black" points="511,-0.5 511,-19.5 642,-19.5 642,-0.5 511,-0.5"/>
<text text-anchor="middle" x="576.5" y="-7.5" font-family="Helvetica,sans-Serif" font-size="10.00">ShowExampleAppConsole</text>
</a>
</g>
</g>
<!-- Node40&#45;&gt;Node41 -->
<g id="edge9" class="edge"><title>Node40&#45;&gt;Node41</title>
<path fill="none" stroke="midnightblue" d="M485.704,-10C494.154,-10 502.691,-10 510.965,-10"/>
<polygon fill="midnightblue" stroke="midnightblue" points="485.463,-6.5001 475.463,-10 485.463,-13.5001 485.463,-6.5001"/>
</g>
<!-- Node41&#45;&gt;Node37 -->
<g id="edge10" class="edge"><title>Node41&#45;&gt;Node37</title>
<path fill="none" stroke="midnightblue" d="M625.182,-22.6162C630.923,-24.5529 636.645,-26.6869 642,-29 673.32,-42.529 707.107,-63.9996 725.538,-76.3661"/>
<polygon fill="midnightblue" stroke="midnightblue" points="626.152,-19.2522 615.562,-19.5464 624.024,-25.9209 626.152,-19.2522"/>
</g>
<!-- Node43 -->
<g id="node9" class="node"><title>Node43</title>
<g id="a_node9"><a xlink:href="../../d5/d0a/imgui__demo_8cpp.html#ad0303cf1f675002eb4e68c17a47b3f88" target="_top" xlink:title="ShowExampleAppLog">
<polygon fill="white" stroke="black" points="520.5,-38.5 520.5,-57.5 632.5,-57.5 632.5,-38.5 520.5,-38.5"/>
<text text-anchor="middle" x="576.5" y="-45.5" font-family="Helvetica,sans-Serif" font-size="10.00">ShowExampleAppLog</text>
</a>
</g>
</g>
<!-- Node42&#45;&gt;Node43 -->
<g id="edge12" class="edge"><title>Node42&#45;&gt;Node43</title>
<path fill="none" stroke="midnightblue" d="M475.661,-48C490.532,-48 506.123,-48 520.446,-48"/>
<polygon fill="midnightblue" stroke="midnightblue" points="475.505,-44.5001 465.505,-48 475.505,-51.5001 475.505,-44.5001"/>
</g>
<!-- Node43&#45;&gt;Node37 -->
<g id="edge13" class="edge"><title>Node43&#45;&gt;Node37</title>
<path fill="none" stroke="midnightblue" d="M628.215,-59.8961C650.986,-65.2374 677.487,-71.4537 698.915,-76.4799"/>
<polygon fill="midnightblue" stroke="midnightblue" points="628.915,-56.4653 618.379,-57.589 627.316,-63.2803 628.915,-56.4653"/>
</g>
</g>
</svg>
        <g id="navigator" transform="translate(0 0)" fill="#404254">
                <rect fill="#f2f5e9" fill-opacity="0.5" stroke="#606060" stroke-width=".5" x="0" y="0" width="60" height="60"/>
                <use id="zoomplus" xlink:href="#zoomPlus" x="17" y="9" onmousedown="handleZoom(evt,'in')"/>
                <use id="zoomminus" xlink:href="#zoomMin" x="42" y="9" onmousedown="handleZoom(evt,'out')"/>
                <use id="reset" xlink:href="#resetDef" x="30" y="36" onmousedown="handleReset()"/>
                <g id="arrowUp" xlink:href="#dirArrow" transform="translate(30 24)" onmousedown="handlePan(0,-1)">
                  <use xlink:href="#rim" fill="#404040">
                        <set attributeName="fill" to="#808080" begin="arrowUp.mouseover" end="arrowUp.mouseout"/>
                  </use>
                  <path fill="none" stroke="white" stroke-width="1.5" d="M0,-3.0v7 M-2.5,-0.5L0,-3.0L2.5,-0.5"/>
                </g>
                <g id="arrowRight" xlink:href="#dirArrow" transform="rotate(90) translate(36 -43)" onmousedown="handlePan(1,0)">
                  <use xlink:href="#rim" fill="#404040">
                        <set attributeName="fill" to="#808080" begin="arrowRight.mouseover" end="arrowRight.mouseout"/>
                  </use>
                  <path fill="none" stroke="white" stroke-width="1.5" d="M0,-3.0v7 M-2.5,-0.5L0,-3.0L2.5,-0.5"/>
                </g>
                <g id="arrowDown" xlink:href="#dirArrow" transform="rotate(180) translate(-30 -48)" onmousedown="handlePan(0,1)">
                  <use xlink:href="#rim" fill="#404040">
                        <set attributeName="fill" to="#808080" begin="arrowDown.mouseover" end="arrowDown.mouseout"/>
                  </use>
                  <path fill="none" stroke="white" stroke-width="1.5" d="M0,-3.0v7 M-2.5,-0.5L0,-3.0L2.5,-0.5"/>
                </g>
                <g id="arrowLeft" xlink:href="#dirArrow" transform="rotate(270) translate(-36 17)" onmousedown="handlePan(-1,0)">
                  <use xlink:href="#rim" fill="#404040">
                        <set attributeName="fill" to="#808080" begin="arrowLeft.mouseover" end="arrowLeft.mouseout"/>
                  </use>
                  <path fill="none" stroke="white" stroke-width="1.5" d="M0,-3.0v7 M-2.5,-0.5L0,-3.0L2.5,-0.5"/>
                </g>
        </g>
        <svg viewBox="0 0 15 15" width="100%" height="30px" preserveAspectRatio="xMaxYMin meet">
         <g id="arrow_out" transform="scale(0.3 0.3)">
          <a xlink:href="struct_im_gui_text_filter_1_1_text_range_a7d0b405b4db5d33351812b4b3b6e9107_icgraph_org.svg" target="_base">
           <rect id="button" ry="5" rx="5" y="6" x="6" height="38" width="38"
                fill="#f2f5e9" fill-opacity="0.5" stroke="#606060" stroke-width="1.0"/>
           <path id="arrow"
             d="M 11.500037,31.436501 C 11.940474,20.09759 22.043105,11.32322 32.158766,21.979434 L 37.068811,17.246167 C 37.068811,17.246167 37.088388,32 37.088388,32 L 22.160133,31.978069 C 22.160133,31.978069 26.997745,27.140456 26.997745,27.140456 C 18.528582,18.264221 13.291696,25.230495 11.500037,31.436501 z"
             style="fill:#404040;"/>
          </a>
         </g>
        </svg>
</svg>
