<?xml version="1.0" encoding="UTF-8" standalone="no"?>
<!DOCTYPE svg PUBLIC "-//W3C//DTD SVG 1.1//EN"
 "http://www.w3.org/Graphics/SVG/1.1/DTD/svg11.dtd">
<!-- Generated by graphviz version 2.38.0 (20140413.2041)
 -->
<!-- Title: ImGuiWindow Pages: 1 -->
<svg width="1777pt" height="693pt"
 viewBox="0.00 0.00 1777.00 693.37" xmlns="http://www.w3.org/2000/svg" xmlns:xlink="http://www.w3.org/1999/xlink">
<g id="graph0" class="graph" transform="scale(1 1) rotate(0) translate(4 689.368)">
<title>ImGuiWindow</title>
<polygon fill="white" stroke="none" points="-4,4 -4,-689.368 1773,-689.368 1773,4 -4,4"/>
<!-- Node1 -->
<g id="node1" class="node"><title>Node1</title>
<polygon fill="#bfbfbf" stroke="black" points="978,-284.868 978,-303.868 1055,-303.868 1055,-284.868 978,-284.868"/>
<text text-anchor="middle" x="1016.5" y="-291.868" font-family="Helvetica,sans-Serif" font-size="10.00">ImGuiWindow</text>
</g>
<!-- Node1&#45;&gt;Node1 -->
<g id="edge22" class="edge"><title>Node1&#45;&gt;Node1</title>
<path fill="none" stroke="#9a32cd" stroke-dasharray="5,2" d="M998.723,-313.768C999.91,-318.683 1005.84,-322.368 1016.5,-322.368 1033.56,-322.368 1038.49,-312.933 1031.3,-304.125"/>
<polygon fill="#9a32cd" stroke="#9a32cd" points="1002.09,-314.713 1001.7,-304.125 995.407,-312.646 1002.09,-314.713"/>
<text text-anchor="middle" x="1016.5" y="-347.368" font-family="Helvetica,sans-Serif" font-size="10.00"> RootNonPopupWindow</text>
<text text-anchor="middle" x="1016.5" y="-336.368" font-family="Helvetica,sans-Serif" font-size="10.00">ParentWindow</text>
<text text-anchor="middle" x="1016.5" y="-325.368" font-family="Helvetica,sans-Serif" font-size="10.00">RootWindow</text>
</g>
<!-- Node14 -->
<g id="node14" class="node"><title>Node14</title>
<g id="a_node14"><a xlink:href="../../d9/de0/class_im_vector.html" target="_top" xlink:title="ImVector\&lt; ImGuiWindow *\&gt;">
<polygon fill="white" stroke="black" points="1168.5,-284.868 1168.5,-303.868 1305.5,-303.868 1305.5,-284.868 1168.5,-284.868"/>
<text text-anchor="middle" x="1237" y="-291.868" font-family="Helvetica,sans-Serif" font-size="10.00">ImVector&lt; ImGuiWindow *&gt;</text>
</a>
</g>
</g>
<!-- Node1&#45;&gt;Node14 -->
<g id="edge17" class="edge"><title>Node1&#45;&gt;Node14</title>
<path fill="none" stroke="#9a32cd" stroke-dasharray="5,2" d="M1065.3,-294.368C1095.41,-294.368 1134.76,-294.368 1168.08,-294.368"/>
<polygon fill="#9a32cd" stroke="#9a32cd" points="1065.06,-290.868 1055.06,-294.368 1065.06,-297.868 1065.06,-290.868"/>
<text text-anchor="middle" x="1112.5" y="-297.368" font-family="Helvetica,sans-Serif" font-size="10.00"> Data</text>
</g>
<!-- Node2 -->
<g id="node2" class="node"><title>Node2</title>
<g id="a_node2"><a xlink:href="../../df/d15/struct_im_gui_storage.html" target="_top" xlink:title="ImGuiStorage">
<polygon fill="white" stroke="black" points="750,-487.868 750,-506.868 826,-506.868 826,-487.868 750,-487.868"/>
<text text-anchor="middle" x="788" y="-494.868" font-family="Helvetica,sans-Serif" font-size="10.00">ImGuiStorage</text>
</a>
</g>
</g>
<!-- Node2&#45;&gt;Node1 -->
<g id="edge1" class="edge"><title>Node2&#45;&gt;Node1</title>
<path fill="none" stroke="#9a32cd" stroke-dasharray="5,2" d="M833.738,-484.981C875.925,-472.444 935.007,-452.391 951,-434.368 972.321,-410.341 955.93,-393.712 969,-364.368 979.329,-341.178 997.099,-317.174 1007.42,-304.175"/>
<polygon fill="#9a32cd" stroke="#9a32cd" points="832.562,-481.678 823.948,-487.846 834.528,-488.396 832.562,-481.678"/>
<text text-anchor="middle" x="906" y="-478.368" font-family="Helvetica,sans-Serif" font-size="10.00"> StateStorage</text>
</g>
<!-- Node5 -->
<g id="node5" class="node"><title>Node5</title>
<g id="a_node5"><a xlink:href="../../d8/d5e/struct_im_gui_draw_context.html" target="_top" xlink:title="ImGuiDrawContext">
<polygon fill="white" stroke="black" points="1470,-445.868 1470,-464.868 1568,-464.868 1568,-445.868 1470,-445.868"/>
<text text-anchor="middle" x="1519" y="-452.868" font-family="Helvetica,sans-Serif" font-size="10.00">ImGuiDrawContext</text>
</a>
</g>
</g>
<!-- Node2&#45;&gt;Node5 -->
<g id="edge11" class="edge"><title>Node2&#45;&gt;Node5</title>
<path fill="none" stroke="#9a32cd" stroke-dasharray="5,2" d="M836.384,-495.329C868.683,-493.938 912.425,-492.048 951,-490.368 1173.67,-480.668 1230.7,-494.869 1452,-468.368 1459.31,-467.493 1467.01,-466.262 1474.48,-464.902"/>
<polygon fill="#9a32cd" stroke="#9a32cd" points="836.16,-491.836 826.32,-495.763 836.461,-498.829 836.16,-491.836"/>
<text text-anchor="middle" x="1112.5" y="-490.368" font-family="Helvetica,sans-Serif" font-size="10.00"> StateStorage</text>
</g>
<!-- Node3 -->
<g id="node3" class="node"><title>Node3</title>
<g id="a_node3"><a xlink:href="../../d9/de0/class_im_vector.html" target="_top" xlink:title="ImVector\&lt; ImGuiStorage\l::Pair \&gt;">
<polygon fill="white" stroke="black" points="426.5,-484.368 426.5,-514.368 550.5,-514.368 550.5,-484.368 426.5,-484.368"/>
<text text-anchor="start" x="434.5" y="-502.368" font-family="Helvetica,sans-Serif" font-size="10.00">ImVector&lt; ImGuiStorage</text>
<text text-anchor="middle" x="488.5" y="-491.368" font-family="Helvetica,sans-Serif" font-size="10.00">::Pair &gt;</text>
</a>
</g>
</g>
<!-- Node3&#45;&gt;Node2 -->
<g id="edge2" class="edge"><title>Node3&#45;&gt;Node2</title>
<path fill="none" stroke="#9a32cd" stroke-dasharray="5,2" d="M560.856,-498.888C620.294,-498.489 702.582,-497.936 749.754,-497.618"/>
<polygon fill="#9a32cd" stroke="#9a32cd" points="560.758,-495.389 550.781,-498.956 560.805,-502.389 560.758,-495.389"/>
<text text-anchor="middle" x="642" y="-502.368" font-family="Helvetica,sans-Serif" font-size="10.00"> Data</text>
</g>
<!-- Node4 -->
<g id="node4" class="node"><title>Node4</title>
<g id="a_node4"><a xlink:href="../../d4/d64/struct_im_gui_storage_1_1_pair.html" target="_top" xlink:title="ImGuiStorage::Pair">
<polygon fill="white" stroke="black" points="184,-490.868 184,-509.868 283,-509.868 283,-490.868 184,-490.868"/>
<text text-anchor="middle" x="233.5" y="-497.868" font-family="Helvetica,sans-Serif" font-size="10.00">ImGuiStorage::Pair</text>
</a>
</g>
</g>
<!-- Node4&#45;&gt;Node3 -->
<g id="edge3" class="edge"><title>Node4&#45;&gt;Node3</title>
<path fill="none" stroke="#9a32cd" stroke-dasharray="5,2" d="M293.4,-500.135C333.317,-499.977 385.95,-499.769 426.336,-499.61"/>
<polygon fill="#9a32cd" stroke="#9a32cd" points="293.267,-496.636 283.281,-500.175 293.295,-503.636 293.267,-496.636"/>
<text text-anchor="middle" x="354.5" y="-503.368" font-family="Helvetica,sans-Serif" font-size="10.00"> Data</text>
</g>
<!-- Node5&#45;&gt;Node1 -->
<g id="edge4" class="edge"><title>Node5&#45;&gt;Node1</title>
<path fill="none" stroke="#9a32cd" stroke-dasharray="5,2" d="M1509.27,-436.655C1498.72,-416.31 1478.99,-384.544 1452,-368.368 1380.58,-325.563 1163.71,-325.363 1082,-309.368 1073.31,-307.667 1064.02,-305.633 1055.26,-303.619"/>
<polygon fill="#9a32cd" stroke="#9a32cd" points="1506.24,-438.443 1513.81,-445.858 1512.52,-435.342 1506.24,-438.443"/>
<text text-anchor="middle" x="1237" y="-336.368" font-family="Helvetica,sans-Serif" font-size="10.00"> DC</text>
</g>
<!-- Node6 -->
<g id="node6" class="node"><title>Node6</title>
<g id="a_node6"><a xlink:href="../../d9/de0/class_im_vector.html" target="_top" xlink:title="ImVector\&lt; bool \&gt;">
<polygon fill="white" stroke="black" points="1191,-407.868 1191,-426.868 1283,-426.868 1283,-407.868 1191,-407.868"/>
<text text-anchor="middle" x="1237" y="-414.868" font-family="Helvetica,sans-Serif" font-size="10.00">ImVector&lt; bool &gt;</text>
</a>
</g>
</g>
<!-- Node6&#45;&gt;Node5 -->
<g id="edge5" class="edge"><title>Node6&#45;&gt;Node5</title>
<path fill="none" stroke="#9a32cd" stroke-dasharray="5,2" d="M1293.25,-410.619C1337.04,-406.993 1399.4,-405.694 1452,-419.368 1471.96,-424.557 1492.42,-437.054 1505.16,-445.861"/>
<polygon fill="#9a32cd" stroke="#9a32cd" points="1292.74,-407.151 1283.09,-411.529 1293.37,-414.123 1292.74,-407.151"/>
<text text-anchor="middle" x="1391.5" y="-433.368" font-family="Helvetica,sans-Serif" font-size="10.00"> AllowKeyboardFocusStack</text>
<text text-anchor="middle" x="1391.5" y="-422.368" font-family="Helvetica,sans-Serif" font-size="10.00">ButtonRepeatStack</text>
</g>
<!-- Node7 -->
<g id="node7" class="node"><title>Node7</title>
<g id="a_node7"><a xlink:href="../../d9/de0/class_im_vector.html" target="_top" xlink:title="ImVector\&lt; ImGuiColumnData \&gt;">
<polygon fill="white" stroke="black" points="1161,-369.868 1161,-388.868 1313,-388.868 1313,-369.868 1161,-369.868"/>
<text text-anchor="middle" x="1237" y="-376.868" font-family="Helvetica,sans-Serif" font-size="10.00">ImVector&lt; ImGuiColumnData &gt;</text>
</a>
</g>
</g>
<!-- Node7&#45;&gt;Node5 -->
<g id="edge6" class="edge"><title>Node7&#45;&gt;Node5</title>
<path fill="none" stroke="#9a32cd" stroke-dasharray="5,2" d="M1323.34,-371.92C1363.85,-371.593 1412.02,-376.003 1452,-393.368 1478.24,-404.767 1500.53,-431.295 1511.22,-445.679"/>
<polygon fill="#9a32cd" stroke="#9a32cd" points="1323.15,-368.423 1313.22,-372.101 1323.28,-375.422 1323.15,-368.423"/>
<text text-anchor="middle" x="1391.5" y="-396.368" font-family="Helvetica,sans-Serif" font-size="10.00"> ColumnsData</text>
</g>
<!-- Node8 -->
<g id="node8" class="node"><title>Node8</title>
<g id="a_node8"><a xlink:href="../../db/d3c/struct_im_gui_column_data.html" target="_top" xlink:title="ImGuiColumnData">
<polygon fill="white" stroke="black" points="969,-373.868 969,-392.868 1064,-392.868 1064,-373.868 969,-373.868"/>
<text text-anchor="middle" x="1016.5" y="-380.868" font-family="Helvetica,sans-Serif" font-size="10.00">ImGuiColumnData</text>
</a>
</g>
</g>
<!-- Node8&#45;&gt;Node7 -->
<g id="edge7" class="edge"><title>Node8&#45;&gt;Node7</title>
<path fill="none" stroke="#9a32cd" stroke-dasharray="5,2" d="M1074.3,-382.328C1100.65,-381.846 1132.35,-381.266 1160.67,-380.747"/>
<polygon fill="#9a32cd" stroke="#9a32cd" points="1074.04,-378.832 1064.11,-382.515 1074.17,-385.831 1074.04,-378.832"/>
<text text-anchor="middle" x="1112.5" y="-385.368" font-family="Helvetica,sans-Serif" font-size="10.00"> Data</text>
</g>
<!-- Node9 -->
<g id="node9" class="node"><title>Node9</title>
<g id="a_node9"><a xlink:href="../../d9/de0/class_im_vector.html" target="_top" xlink:title="ImVector\&lt; ImGuiGroupData \&gt;">
<polygon fill="white" stroke="black" points="569,-598.868 569,-617.868 715,-617.868 715,-598.868 569,-598.868"/>
<text text-anchor="middle" x="642" y="-605.868" font-family="Helvetica,sans-Serif" font-size="10.00">ImVector&lt; ImGuiGroupData &gt;</text>
</a>
</g>
</g>
<!-- Node9&#45;&gt;Node5 -->
<g id="edge8" class="edge"><title>Node9&#45;&gt;Node5</title>
<path fill="none" stroke="#9a32cd" stroke-dasharray="5,2" d="M725.366,-611.696C776.964,-613.502 844.852,-615.368 905,-615.368 905,-615.368 905,-615.368 1238,-615.368 1336.54,-615.368 1372.41,-615.47 1452,-557.368 1485.73,-532.744 1506.77,-485.193 1514.57,-464.911"/>
<polygon fill="#9a32cd" stroke="#9a32cd" points="725.389,-608.195 715.271,-611.337 725.14,-615.191 725.389,-608.195"/>
<text text-anchor="middle" x="1016.5" y="-618.368" font-family="Helvetica,sans-Serif" font-size="10.00"> GroupStack</text>
</g>
<!-- Node10 -->
<g id="node10" class="node"><title>Node10</title>
<g id="a_node10"><a xlink:href="../../da/dc1/struct_im_gui_group_data.html" target="_top" xlink:title="ImGuiGroupData">
<polygon fill="white" stroke="black" points="310,-581.868 310,-600.868 399,-600.868 399,-581.868 310,-581.868"/>
<text text-anchor="middle" x="354.5" y="-588.868" font-family="Helvetica,sans-Serif" font-size="10.00">ImGuiGroupData</text>
</a>
</g>
</g>
<!-- Node10&#45;&gt;Node9 -->
<g id="edge9" class="edge"><title>Node10&#45;&gt;Node9</title>
<path fill="none" stroke="#9a32cd" stroke-dasharray="5,2" d="M409.333,-594.574C454.416,-597.258 519.161,-601.113 568.75,-604.066"/>
<polygon fill="#9a32cd" stroke="#9a32cd" points="409.362,-591.069 399.172,-593.968 408.946,-598.057 409.362,-591.069"/>
<text text-anchor="middle" x="488.5" y="-605.368" font-family="Helvetica,sans-Serif" font-size="10.00"> Data</text>
</g>
<!-- Node11 -->
<g id="node11" class="node"><title>Node11</title>
<g id="a_node11"><a xlink:href="../../d7/d55/struct_im_vec2.html" target="_top" xlink:title="ImVec2">
<polygon fill="white" stroke="black" points="0,-365.868 0,-384.868 50,-384.868 50,-365.868 0,-365.868"/>
<text text-anchor="middle" x="25" y="-372.868" font-family="Helvetica,sans-Serif" font-size="10.00">ImVec2</text>
</a>
</g>
</g>
<!-- Node11&#45;&gt;Node1 -->
<g id="edge18" class="edge"><title>Node11&#45;&gt;Node1</title>
<path fill="none" stroke="#9a32cd" stroke-dasharray="5,2" d="M48.802,-360.085C85.7204,-336.865 161.613,-295.368 232.5,-295.368 232.5,-295.368 232.5,-295.368 789,-295.368 855.456,-295.368 932.88,-294.932 977.828,-294.636"/>
<polygon fill="#9a32cd" stroke="#9a32cd" points="46.804,-357.209 40.2825,-365.558 50.5876,-363.098 46.804,-357.209"/>
<text text-anchor="middle" x="488.5" y="-419.368" font-family="Helvetica,sans-Serif" font-size="10.00"> WindowPadding</text>
<text text-anchor="middle" x="488.5" y="-408.368" font-family="Helvetica,sans-Serif" font-size="10.00">Size</text>
<text text-anchor="middle" x="488.5" y="-397.368" font-family="Helvetica,sans-Serif" font-size="10.00">ScrollTarget</text>
<text text-anchor="start" x="443" y="-386.368" font-family="Helvetica,sans-Serif" font-size="10.00">ScrollTargetCenter</text>
<text text-anchor="middle" x="488.5" y="-375.368" font-family="Helvetica,sans-Serif" font-size="10.00">Ratio</text>
<text text-anchor="middle" x="488.5" y="-364.368" font-family="Helvetica,sans-Serif" font-size="10.00">SizeContentsExplicit</text>
<text text-anchor="middle" x="488.5" y="-353.368" font-family="Helvetica,sans-Serif" font-size="10.00">Scroll</text>
<text text-anchor="middle" x="488.5" y="-342.368" font-family="Helvetica,sans-Serif" font-size="10.00">ScrollbarSizes</text>
<text text-anchor="middle" x="488.5" y="-331.368" font-family="Helvetica,sans-Serif" font-size="10.00">PosFloat</text>
<text text-anchor="middle" x="488.5" y="-320.368" font-family="Helvetica,sans-Serif" font-size="10.00">SizeContents</text>
<text text-anchor="middle" x="488.5" y="-309.368" font-family="Helvetica,sans-Serif" font-size="10.00">SizeFull</text>
<text text-anchor="middle" x="488.5" y="-298.368" font-family="Helvetica,sans-Serif" font-size="10.00">...</text>
</g>
<!-- Node11&#45;&gt;Node5 -->
<g id="edge12" class="edge"><title>Node11&#45;&gt;Node5</title>
<path fill="none" stroke="#9a32cd" stroke-dasharray="5,2" d="M36.5856,-393.602C63.3622,-437.103 138.402,-543.368 232.5,-543.368 232.5,-543.368 232.5,-543.368 1238,-543.368 1341.69,-543.368 1457.46,-487.761 1500.59,-464.953"/>
<polygon fill="#9a32cd" stroke="#9a32cd" points="39.4988,-391.654 31.3511,-384.882 33.4972,-395.257 39.4988,-391.654"/>
<text text-anchor="middle" x="788" y="-579.368" font-family="Helvetica,sans-Serif" font-size="10.00"> CursorPos</text>
<text text-anchor="middle" x="788" y="-568.368" font-family="Helvetica,sans-Serif" font-size="10.00">CursorMaxPos</text>
<text text-anchor="middle" x="788" y="-557.368" font-family="Helvetica,sans-Serif" font-size="10.00">CursorPosPrevLine</text>
<text text-anchor="middle" x="788" y="-546.368" font-family="Helvetica,sans-Serif" font-size="10.00">CursorStartPos</text>
</g>
<!-- Node11&#45;&gt;Node10 -->
<g id="edge10" class="edge"><title>Node11&#45;&gt;Node10</title>
<path fill="none" stroke="#9a32cd" stroke-dasharray="5,2" d="M27.7349,-395.086C31.9021,-437.601 43.9597,-535.799 68,-557.368 134.599,-617.12 247.906,-609.865 309.861,-600.145"/>
<polygon fill="#9a32cd" stroke="#9a32cd" points="31.2187,-394.748 26.8039,-385.117 24.249,-395.399 31.2187,-394.748"/>
<text text-anchor="middle" x="117" y="-614.368" font-family="Helvetica,sans-Serif" font-size="10.00"> BackupCursorPos</text>
<text text-anchor="middle" x="117" y="-603.368" font-family="Helvetica,sans-Serif" font-size="10.00">BackupCursorMaxPos</text>
</g>
<!-- Node12 -->
<g id="node12" class="node"><title>Node12</title>
<g id="a_node12"><a xlink:href="../../df/d8d/struct_im_rect.html" target="_top" xlink:title="ImRect">
<polygon fill="white" stroke="black" points="764.5,-436.868 764.5,-455.868 811.5,-455.868 811.5,-436.868 764.5,-436.868"/>
<text text-anchor="middle" x="788" y="-443.868" font-family="Helvetica,sans-Serif" font-size="10.00">ImRect</text>
</a>
</g>
</g>
<!-- Node11&#45;&gt;Node12 -->
<g id="edge14" class="edge"><title>Node11&#45;&gt;Node12</title>
<path fill="none" stroke="#9a32cd" stroke-dasharray="5,2" d="M60.1245,-381.293C129.032,-393.002 289.827,-419.036 426,-431.368 553.443,-442.909 707.012,-445.582 764.141,-446.191"/>
<polygon fill="#9a32cd" stroke="#9a32cd" points="60.7014,-377.841 50.2548,-379.606 59.5225,-384.741 60.7014,-377.841"/>
<text text-anchor="middle" x="354.5" y="-444.368" font-family="Helvetica,sans-Serif" font-size="10.00"> Min</text>
<text text-anchor="middle" x="354.5" y="-433.368" font-family="Helvetica,sans-Serif" font-size="10.00">Max</text>
</g>
<!-- Node21 -->
<g id="node21" class="node"><title>Node21</title>
<g id="a_node21"><a xlink:href="../../dc/d86/struct_im_draw_vert.html" target="_top" xlink:title="ImDrawVert">
<polygon fill="white" stroke="black" points="200,-238.868 200,-257.868 267,-257.868 267,-238.868 200,-238.868"/>
<text text-anchor="middle" x="233.5" y="-245.868" font-family="Helvetica,sans-Serif" font-size="10.00">ImDrawVert</text>
</a>
</g>
</g>
<!-- Node11&#45;&gt;Node21 -->
<g id="edge28" class="edge"><title>Node11&#45;&gt;Node21</title>
<path fill="none" stroke="#9a32cd" stroke-dasharray="5,2" d="M26.8863,-355.445C29.2503,-328.757 37.7507,-282.13 68,-259.368 105.966,-230.799 163.862,-234.656 199.878,-240.898"/>
<polygon fill="#9a32cd" stroke="#9a32cd" points="23.3868,-355.32 26.2033,-365.534 30.3708,-355.793 23.3868,-355.32"/>
<text text-anchor="middle" x="117" y="-273.368" font-family="Helvetica,sans-Serif" font-size="10.00"> uv</text>
<text text-anchor="middle" x="117" y="-262.368" font-family="Helvetica,sans-Serif" font-size="10.00">pos</text>
</g>
<!-- Node27 -->
<g id="node27" class="node"><title>Node27</title>
<g id="a_node27"><a xlink:href="../../d9/de0/class_im_vector.html" target="_top" xlink:title="ImVector\&lt; ImVec2 \&gt;">
<polygon fill="white" stroke="black" points="301,-142.868 301,-161.868 408,-161.868 408,-142.868 301,-142.868"/>
<text text-anchor="middle" x="354.5" y="-149.868" font-family="Helvetica,sans-Serif" font-size="10.00">ImVector&lt; ImVec2 &gt;</text>
</a>
</g>
</g>
<!-- Node11&#45;&gt;Node27 -->
<g id="edge37" class="edge"><title>Node11&#45;&gt;Node27</title>
<path fill="none" stroke="#9a32cd" stroke-dasharray="5,2" d="M25.4626,-355.821C25.69,-323.339 31.089,-258.279 68,-222.368 130.641,-161.424 237.233,-150.693 300.943,-150.266"/>
<polygon fill="#9a32cd" stroke="#9a32cd" points="21.963,-355.882 25.5547,-365.85 28.9627,-355.818 21.963,-355.882"/>
<text text-anchor="middle" x="117" y="-225.368" font-family="Helvetica,sans-Serif" font-size="10.00"> Data</text>
</g>
<!-- Node12&#45;&gt;Node1 -->
<g id="edge19" class="edge"><title>Node12&#45;&gt;Node1</title>
<path fill="none" stroke="#9a32cd" stroke-dasharray="5,2" d="M811.651,-431.168C858.15,-399.963 963.209,-329.46 1001.34,-303.873"/>
<polygon fill="#9a32cd" stroke="#9a32cd" points="809.522,-428.381 803.169,-436.86 813.422,-434.194 809.522,-428.381"/>
<text text-anchor="middle" x="906" y="-422.368" font-family="Helvetica,sans-Serif" font-size="10.00"> ClipRect</text>
<text text-anchor="middle" x="906" y="-411.368" font-family="Helvetica,sans-Serif" font-size="10.00">ContentsRegionRect</text>
<text text-anchor="middle" x="906" y="-400.368" font-family="Helvetica,sans-Serif" font-size="10.00">WindowRectClipped</text>
</g>
<!-- Node12&#45;&gt;Node5 -->
<g id="edge13" class="edge"><title>Node12&#45;&gt;Node5</title>
<path fill="none" stroke="#9a32cd" stroke-dasharray="5,2" d="M821.678,-446.771C937.944,-448.207 1331.94,-453.071 1469.85,-454.774"/>
<polygon fill="#9a32cd" stroke="#9a32cd" points="821.659,-443.271 811.617,-446.647 821.573,-450.271 821.659,-443.271"/>
<text text-anchor="middle" x="1112.5" y="-454.368" font-family="Helvetica,sans-Serif" font-size="10.00"> LastItemRect</text>
</g>
<!-- Node13 -->
<g id="node13" class="node"><title>Node13</title>
<g id="a_node13"><a xlink:href="../../d9/de0/class_im_vector.html" target="_top" xlink:title="ImVector\&lt; float \&gt;">
<polygon fill="white" stroke="black" points="1191,-643.868 1191,-662.868 1283,-662.868 1283,-643.868 1191,-643.868"/>
<text text-anchor="middle" x="1237" y="-650.868" font-family="Helvetica,sans-Serif" font-size="10.00">ImVector&lt; float &gt;</text>
</a>
</g>
</g>
<!-- Node13&#45;&gt;Node5 -->
<g id="edge15" class="edge"><title>Node13&#45;&gt;Node5</title>
<path fill="none" stroke="#9a32cd" stroke-dasharray="5,2" d="M1293.16,-661.965C1340.21,-666.133 1407.15,-664.175 1452,-629.368 1506.37,-587.177 1515.95,-494.738 1517.64,-464.875"/>
<polygon fill="#9a32cd" stroke="#9a32cd" points="1293.45,-658.476 1283.15,-660.959 1292.75,-665.441 1293.45,-658.476"/>
<text text-anchor="middle" x="1391.5" y="-677.368" font-family="Helvetica,sans-Serif" font-size="10.00"> ItemWidthStack</text>
<text text-anchor="middle" x="1391.5" y="-666.368" font-family="Helvetica,sans-Serif" font-size="10.00">TextWrapPosStack</text>
</g>
<!-- Node14&#45;&gt;Node5 -->
<g id="edge16" class="edge"><title>Node14&#45;&gt;Node5</title>
<path fill="none" stroke="#9a32cd" stroke-dasharray="5,2" d="M1313.79,-284.296C1357.87,-282.436 1412.37,-287.431 1452,-315.368 1497.68,-347.572 1512.7,-419.866 1516.73,-445.845"/>
<polygon fill="#9a32cd" stroke="#9a32cd" points="1313.48,-280.807 1303.69,-284.847 1313.86,-287.797 1313.48,-280.807"/>
<text text-anchor="middle" x="1391.5" y="-318.368" font-family="Helvetica,sans-Serif" font-size="10.00"> ChildWindows</text>
</g>
<!-- Node15 -->
<g id="node15" class="node"><title>Node15</title>
<g id="a_node15"><a xlink:href="../../d9/de0/class_im_vector.html" target="_top" xlink:title="ImVector\&lt; ImGuiID \&gt;">
<polygon fill="white" stroke="black" points="734,-247.868 734,-266.868 842,-266.868 842,-247.868 734,-247.868"/>
<text text-anchor="middle" x="788" y="-254.868" font-family="Helvetica,sans-Serif" font-size="10.00">ImVector&lt; ImGuiID &gt;</text>
</a>
</g>
</g>
<!-- Node15&#45;&gt;Node1 -->
<g id="edge20" class="edge"><title>Node15&#45;&gt;Node1</title>
<path fill="none" stroke="#9a32cd" stroke-dasharray="5,2" d="M852.068,-258.393C882.29,-259.906 918.826,-263.236 951,-270.368 965.931,-273.678 982.056,-279.678 994.448,-284.85"/>
<polygon fill="#9a32cd" stroke="#9a32cd" points="852.223,-254.896 842.076,-257.947 851.91,-261.889 852.223,-254.896"/>
<text text-anchor="middle" x="906" y="-273.368" font-family="Helvetica,sans-Serif" font-size="10.00"> IDStack</text>
</g>
<!-- Node16 -->
<g id="node16" class="node"><title>Node16</title>
<g id="a_node16"><a xlink:href="../../d0/ddf/struct_im_gui_simple_columns.html" target="_top" xlink:title="ImGuiSimpleColumns">
<polygon fill="white" stroke="black" points="733,-209.868 733,-228.868 843,-228.868 843,-209.868 733,-209.868"/>
<text text-anchor="middle" x="788" y="-216.868" font-family="Helvetica,sans-Serif" font-size="10.00">ImGuiSimpleColumns</text>
</a>
</g>
</g>
<!-- Node16&#45;&gt;Node1 -->
<g id="edge21" class="edge"><title>Node16&#45;&gt;Node1</title>
<path fill="none" stroke="#9a32cd" stroke-dasharray="5,2" d="M853.172,-221.819C883.794,-224.831 920.35,-231.182 951,-244.368 973.386,-253.999 994.807,-273.259 1006.45,-284.862"/>
<polygon fill="#9a32cd" stroke="#9a32cd" points="853.301,-218.317 843.031,-220.92 852.683,-225.289 853.301,-218.317"/>
<text text-anchor="middle" x="906" y="-247.368" font-family="Helvetica,sans-Serif" font-size="10.00"> MenuColumns</text>
</g>
<!-- Node17 -->
<g id="node17" class="node"><title>Node17</title>
<g id="a_node17"><a xlink:href="../../dd/d30/struct_im_draw_list.html" target="_top" xlink:title="ImDrawList">
<polygon fill="white" stroke="black" points="755.5,-130.868 755.5,-149.868 820.5,-149.868 820.5,-130.868 755.5,-130.868"/>
<text text-anchor="middle" x="788" y="-137.868" font-family="Helvetica,sans-Serif" font-size="10.00">ImDrawList</text>
</a>
</g>
</g>
<!-- Node17&#45;&gt;Node1 -->
<g id="edge23" class="edge"><title>Node17&#45;&gt;Node1</title>
<path fill="none" stroke="#9a32cd" stroke-dasharray="5,2" d="M823.34,-153.67C867.67,-171.011 940.406,-200.106 951,-208.368 979.109,-230.29 1001.18,-267.373 1010.57,-284.79"/>
<polygon fill="#9a32cd" stroke="#9a32cd" points="824.397,-150.325 813.808,-149.951 821.852,-156.846 824.397,-150.325"/>
<text text-anchor="middle" x="906" y="-211.368" font-family="Helvetica,sans-Serif" font-size="10.00"> DrawList</text>
</g>
<!-- Node25 -->
<g id="node25" class="node"><title>Node25</title>
<g id="a_node25"><a xlink:href="../../d6/d65/struct_im_draw_cmd.html" target="_top" xlink:title="ImDrawCmd">
<polygon fill="white" stroke="black" points="982,-61.8681 982,-80.8681 1051,-80.8681 1051,-61.8681 982,-61.8681"/>
<text text-anchor="middle" x="1016.5" y="-68.8681" font-family="Helvetica,sans-Serif" font-size="10.00">ImDrawCmd</text>
</a>
</g>
</g>
<!-- Node17&#45;&gt;Node25 -->
<g id="edge34" class="edge"><title>Node17&#45;&gt;Node25</title>
<path fill="none" stroke="#9a32cd" stroke-dasharray="5,2" d="M804.757,-123.643C818.294,-110.469 839.053,-92.9436 861,-84.3681 900.363,-68.9877 949.554,-67.5828 981.714,-68.7964"/>
<polygon fill="#9a32cd" stroke="#9a32cd" points="802.221,-121.231 797.667,-130.797 807.193,-126.158 802.221,-121.231"/>
<text text-anchor="middle" x="906" y="-87.3681" font-family="Helvetica,sans-Serif" font-size="10.00"> UserCallback</text>
</g>
<!-- Node18 -->
<g id="node18" class="node"><title>Node18</title>
<g id="a_node18"><a xlink:href="../../d9/de0/class_im_vector.html" target="_top" xlink:title="ImVector\&lt; ImVec4 \&gt;">
<polygon fill="white" stroke="black" points="435,-67.8681 435,-86.8681 542,-86.8681 542,-67.8681 435,-67.8681"/>
<text text-anchor="middle" x="488.5" y="-74.8681" font-family="Helvetica,sans-Serif" font-size="10.00">ImVector&lt; ImVec4 &gt;</text>
</a>
</g>
</g>
<!-- Node18&#45;&gt;Node17 -->
<g id="edge24" class="edge"><title>Node18&#45;&gt;Node17</title>
<path fill="none" stroke="#9a32cd" stroke-dasharray="5,2" d="M552.327,-77.0323C598.337,-78.3926 661.772,-83.6473 715,-100.368 736.964,-107.268 759.779,-121.31 773.687,-130.782"/>
<polygon fill="#9a32cd" stroke="#9a32cd" points="552.28,-73.5302 542.198,-76.7872 552.111,-80.5282 552.28,-73.5302"/>
<text text-anchor="middle" x="642" y="-103.368" font-family="Helvetica,sans-Serif" font-size="10.00"> _ClipRectStack</text>
</g>
<!-- Node19 -->
<g id="node19" class="node"><title>Node19</title>
<g id="a_node19"><a xlink:href="../../de/d2a/struct_im_vec4.html" target="_top" xlink:title="ImVec4">
<polygon fill="white" stroke="black" points="208.5,-13.8681 208.5,-32.8681 258.5,-32.8681 258.5,-13.8681 208.5,-13.8681"/>
<text text-anchor="middle" x="233.5" y="-20.8681" font-family="Helvetica,sans-Serif" font-size="10.00">ImVec4</text>
</a>
</g>
</g>
<!-- Node19&#45;&gt;Node18 -->
<g id="edge25" class="edge"><title>Node19&#45;&gt;Node18</title>
<path fill="none" stroke="#9a32cd" stroke-dasharray="5,2" d="M268.612,-30.649C313.576,-40.2459 392.787,-57.1526 442.583,-67.781"/>
<polygon fill="#9a32cd" stroke="#9a32cd" points="269.269,-27.2103 258.759,-28.5458 267.808,-34.0562 269.269,-27.2103"/>
<text text-anchor="middle" x="354.5" y="-63.3681" font-family="Helvetica,sans-Serif" font-size="10.00"> Data</text>
</g>
<!-- Node19&#45;&gt;Node25 -->
<g id="edge33" class="edge"><title>Node19&#45;&gt;Node25</title>
<path fill="none" stroke="#9a32cd" stroke-dasharray="5,2" d="M268.914,-18.9761C347.962,-9.5963 548.515,10.1642 715,-7.36805 813.402,-17.7306 926.978,-46.6793 982.071,-61.8378"/>
<polygon fill="#9a32cd" stroke="#9a32cd" points="268.09,-15.5502 258.582,-20.2258 268.93,-22.4996 268.09,-15.5502"/>
<text text-anchor="middle" x="642" y="-10.3681" font-family="Helvetica,sans-Serif" font-size="10.00"> ClipRect</text>
</g>
<!-- Node20 -->
<g id="node20" class="node"><title>Node20</title>
<g id="a_node20"><a xlink:href="../../d9/de0/class_im_vector.html" target="_top" xlink:title="ImVector\&lt; ImDrawVert \&gt;">
<polygon fill="white" stroke="black" points="426.5,-192.868 426.5,-211.868 550.5,-211.868 550.5,-192.868 426.5,-192.868"/>
<text text-anchor="middle" x="488.5" y="-199.868" font-family="Helvetica,sans-Serif" font-size="10.00">ImVector&lt; ImDrawVert &gt;</text>
</a>
</g>
</g>
<!-- Node20&#45;&gt;Node17 -->
<g id="edge26" class="edge"><title>Node20&#45;&gt;Node17</title>
<path fill="none" stroke="#9a32cd" stroke-dasharray="5,2" d="M561.033,-198.696C605.932,-195.044 664.657,-187.781 715,-173.368 734.697,-167.729 755.856,-157.475 770.103,-149.889"/>
<polygon fill="#9a32cd" stroke="#9a32cd" points="560.504,-195.227 550.803,-199.486 561.042,-202.206 560.504,-195.227"/>
<text text-anchor="middle" x="642" y="-201.368" font-family="Helvetica,sans-Serif" font-size="10.00"> VtxBuffer</text>
</g>
<!-- Node21&#45;&gt;Node17 -->
<g id="edge38" class="edge"><title>Node21&#45;&gt;Node17</title>
<path fill="none" stroke="#9a32cd" stroke-dasharray="5,2" d="M277.071,-249.056C379.652,-250.115 637.728,-249.041 715,-213.368 730.596,-206.168 763.599,-168.333 778.898,-150.147"/>
<polygon fill="#9a32cd" stroke="#9a32cd" points="277.106,-245.557 267.066,-248.941 277.025,-252.556 277.106,-245.557"/>
<text text-anchor="middle" x="488.5" y="-251.368" font-family="Helvetica,sans-Serif" font-size="10.00"> _VtxWritePtr</text>
</g>
<!-- Node21&#45;&gt;Node20 -->
<g id="edge27" class="edge"><title>Node21&#45;&gt;Node20</title>
<path fill="none" stroke="#9a32cd" stroke-dasharray="5,2" d="M265.538,-234.882C276.552,-230.586 289.155,-226.215 301,-223.368 342.185,-213.47 389.635,-208.209 426.367,-205.428"/>
<polygon fill="#9a32cd" stroke="#9a32cd" points="263.899,-231.769 255.938,-238.76 266.521,-238.259 263.899,-231.769"/>
<text text-anchor="middle" x="354.5" y="-226.368" font-family="Helvetica,sans-Serif" font-size="10.00"> Data</text>
</g>
<!-- Node22 -->
<g id="node22" class="node"><title>Node22</title>
<g id="a_node22"><a xlink:href="../../d9/de0/class_im_vector.html" target="_top" xlink:title="ImVector\&lt; ImDrawChannel \&gt;">
<polygon fill="white" stroke="black" points="1628,-83.8681 1628,-102.868 1769,-102.868 1769,-83.8681 1628,-83.8681"/>
<text text-anchor="middle" x="1698.5" y="-90.8681" font-family="Helvetica,sans-Serif" font-size="10.00">ImVector&lt; ImDrawChannel &gt;</text>
</a>
</g>
</g>
<!-- Node22&#45;&gt;Node17 -->
<g id="edge29" class="edge"><title>Node22&#45;&gt;Node17</title>
<path fill="none" stroke="#9a32cd" stroke-dasharray="5,2" d="M1617.51,-103.653C1587.04,-106.762 1551.97,-109.368 1520,-109.368 1015.5,-109.368 1015.5,-109.368 1015.5,-109.368 945.448,-109.368 864.325,-124.104 820.696,-133.256"/>
<polygon fill="#9a32cd" stroke="#9a32cd" points="1618.08,-107.113 1627.66,-102.583 1617.35,-100.151 1618.08,-107.113"/>
<text text-anchor="middle" x="1237" y="-112.368" font-family="Helvetica,sans-Serif" font-size="10.00"> _Channels</text>
</g>
<!-- Node23 -->
<g id="node23" class="node"><title>Node23</title>
<g id="a_node23"><a xlink:href="../../df/d94/struct_im_draw_channel.html" target="_top" xlink:title="ImDrawChannel">
<polygon fill="white" stroke="black" points="1477,-61.8681 1477,-80.8681 1561,-80.8681 1561,-61.8681 1477,-61.8681"/>
<text text-anchor="middle" x="1519" y="-68.8681" font-family="Helvetica,sans-Serif" font-size="10.00">ImDrawChannel</text>
</a>
</g>
</g>
<!-- Node23&#45;&gt;Node22 -->
<g id="edge30" class="edge"><title>Node23&#45;&gt;Node22</title>
<path fill="none" stroke="#9a32cd" stroke-dasharray="5,2" d="M1571.23,-77.7177C1588.84,-79.9004 1608.87,-82.3824 1627.7,-84.7165"/>
<polygon fill="#9a32cd" stroke="#9a32cd" points="1571.52,-74.2273 1561.17,-76.4706 1570.66,-81.1741 1571.52,-74.2273"/>
<text text-anchor="middle" x="1598" y="-85.3681" font-family="Helvetica,sans-Serif" font-size="10.00"> Data</text>
</g>
<!-- Node24 -->
<g id="node24" class="node"><title>Node24</title>
<g id="a_node24"><a xlink:href="../../d9/de0/class_im_vector.html" target="_top" xlink:title="ImVector\&lt; ImDrawCmd \&gt;">
<polygon fill="white" stroke="black" points="1174,-138.868 1174,-157.868 1300,-157.868 1300,-138.868 1174,-138.868"/>
<text text-anchor="middle" x="1237" y="-145.868" font-family="Helvetica,sans-Serif" font-size="10.00">ImVector&lt; ImDrawCmd &gt;</text>
</a>
</g>
</g>
<!-- Node24&#45;&gt;Node17 -->
<g id="edge39" class="edge"><title>Node24&#45;&gt;Node17</title>
<path fill="none" stroke="#9a32cd" stroke-dasharray="5,2" d="M1163.55,-147.071C1064.7,-145.302 891.776,-142.207 820.789,-140.937"/>
<polygon fill="#9a32cd" stroke="#9a32cd" points="1163.69,-150.574 1173.76,-147.254 1163.82,-143.576 1163.69,-150.574"/>
<text text-anchor="middle" x="1016.5" y="-148.368" font-family="Helvetica,sans-Serif" font-size="10.00"> CmdBuffer</text>
</g>
<!-- Node24&#45;&gt;Node23 -->
<g id="edge31" class="edge"><title>Node24&#45;&gt;Node23</title>
<path fill="none" stroke="#9a32cd" stroke-dasharray="5,2" d="M1282.54,-136.12C1338.19,-120.815 1432.27,-94.9446 1483.03,-80.9862"/>
<polygon fill="#9a32cd" stroke="#9a32cd" points="1281.33,-132.823 1272.61,-138.849 1283.18,-139.572 1281.33,-132.823"/>
<text text-anchor="middle" x="1391.5" y="-124.368" font-family="Helvetica,sans-Serif" font-size="10.00"> CmdBuffer</text>
</g>
<!-- Node25&#45;&gt;Node24 -->
<g id="edge32" class="edge"><title>Node25&#45;&gt;Node24</title>
<path fill="none" stroke="#9a32cd" stroke-dasharray="5,2" d="M1051.92,-84.5649C1080.89,-95.5576 1123.49,-111.446 1161,-124.368 1175.48,-129.355 1191.64,-134.572 1205.25,-138.864"/>
<polygon fill="#9a32cd" stroke="#9a32cd" points="1052.86,-81.1783 1042.27,-80.8937 1050.37,-87.7208 1052.86,-81.1783"/>
<text text-anchor="middle" x="1112.5" y="-121.368" font-family="Helvetica,sans-Serif" font-size="10.00"> Data</text>
</g>
<!-- Node26 -->
<g id="node26" class="node"><title>Node26</title>
<g id="a_node26"><a xlink:href="../../d9/de0/class_im_vector.html" target="_top" xlink:title="ImVector\&lt; ImDrawIdx \&gt;">
<polygon fill="white" stroke="black" points="429,-25.8681 429,-44.8681 548,-44.8681 548,-25.8681 429,-25.8681"/>
<text text-anchor="middle" x="488.5" y="-32.8681" font-family="Helvetica,sans-Serif" font-size="10.00">ImVector&lt; ImDrawIdx &gt;</text>
</a>
</g>
</g>
<!-- Node26&#45;&gt;Node17 -->
<g id="edge40" class="edge"><title>Node26&#45;&gt;Node17</title>
<path fill="none" stroke="#9a32cd" stroke-dasharray="5,2" d="M558.232,-43.0754C621.953,-50.396 707.975,-60.7983 715,-64.3681 745.624,-79.9302 770.274,-113.938 781.079,-130.674"/>
<polygon fill="#9a32cd" stroke="#9a32cd" points="558.546,-39.5886 548.212,-41.9285 557.749,-46.5431 558.546,-39.5886"/>
<text text-anchor="middle" x="642" y="-67.3681" font-family="Helvetica,sans-Serif" font-size="10.00"> IdxBuffer</text>
</g>
<!-- Node26&#45;&gt;Node23 -->
<g id="edge35" class="edge"><title>Node26&#45;&gt;Node23</title>
<path fill="none" stroke="#9a32cd" stroke-dasharray="5,2" d="M558.363,-34.2803C618.658,-33.4218 708.632,-32.3681 787,-32.3681 787,-32.3681 787,-32.3681 1238,-32.3681 1323.65,-32.3681 1422.63,-50.4888 1476.97,-62.0266"/>
<polygon fill="#9a32cd" stroke="#9a32cd" points="558.152,-30.7829 548.204,-34.4271 558.254,-37.7821 558.152,-30.7829"/>
<text text-anchor="middle" x="1016.5" y="-35.3681" font-family="Helvetica,sans-Serif" font-size="10.00"> IdxBuffer</text>
</g>
<!-- Node27&#45;&gt;Node17 -->
<g id="edge36" class="edge"><title>Node27&#45;&gt;Node17</title>
<path fill="none" stroke="#9a32cd" stroke-dasharray="5,2" d="M395.924,-140.206C405.681,-137.784 416.14,-135.607 426,-134.368 546.966,-119.169 692.505,-130.529 755.451,-136.864"/>
<polygon fill="#9a32cd" stroke="#9a32cd" points="394.851,-136.869 386.065,-142.79 396.625,-143.641 394.851,-136.869"/>
<text text-anchor="middle" x="488.5" y="-137.368" font-family="Helvetica,sans-Serif" font-size="10.00"> _Path</text>
</g>
<!-- Node28 -->
<g id="node28" class="node"><title>Node28</title>
<g id="a_node28"><a xlink:href="../../d9/de0/class_im_vector.html" target="_top" xlink:title="ImVector\&lt; ImTextureID \&gt;">
<polygon fill="white" stroke="black" points="426,-154.868 426,-173.868 551,-173.868 551,-154.868 426,-154.868"/>
<text text-anchor="middle" x="488.5" y="-161.868" font-family="Helvetica,sans-Serif" font-size="10.00">ImVector&lt; ImTextureID &gt;</text>
</a>
</g>
</g>
<!-- Node28&#45;&gt;Node17 -->
<g id="edge41" class="edge"><title>Node28&#45;&gt;Node17</title>
<path fill="none" stroke="#9a32cd" stroke-dasharray="5,2" d="M561.22,-158.582C622.991,-153.599 709.238,-146.641 755.2,-142.933"/>
<polygon fill="#9a32cd" stroke="#9a32cd" points="560.828,-155.102 551.142,-159.395 561.391,-162.08 560.828,-155.102"/>
<text text-anchor="middle" x="642" y="-161.368" font-family="Helvetica,sans-Serif" font-size="10.00"> _TextureIdStack</text>
</g>
</g>
</svg>
