<?xml version="1.0" encoding="UTF-8" standalone="no"?>
<!DOCTYPE svg PUBLIC "-//W3C//DTD SVG 1.1//EN"
 "http://www.w3.org/Graphics/SVG/1.1/DTD/svg11.dtd">
<!-- Generated by graphviz version 2.38.0 (20140413.2041)
 -->
<!-- Title: SkyX::VClouds::Lightning::_updateData Pages: 1 -->
<svg width="298pt" height="88pt"
 viewBox="0.00 0.00 298.00 88.00" xmlns="http://www.w3.org/2000/svg" xmlns:xlink="http://www.w3.org/1999/xlink">
<g id="graph0" class="graph" transform="scale(1 1) rotate(0) translate(4 84)">
<title>SkyX::VClouds::Lightning::_updateData</title>
<polygon fill="white" stroke="none" points="-4,4 -4,-84 294,-84 294,4 -4,4"/>
<!-- Node11 -->
<g id="node1" class="node"><title>Node11</title>
<polygon fill="#bfbfbf" stroke="black" points="0,-24.5 0,-54.5 127,-54.5 127,-24.5 0,-24.5"/>
<text text-anchor="start" x="8" y="-42.5" font-family="Helvetica,sans-Serif" font-size="10.00">SkyX::VClouds::Lightning</text>
<text text-anchor="middle" x="63.5" y="-31.5" font-family="Helvetica,sans-Serif" font-size="10.00">::_updateData</text>
</g>
<!-- Node12 -->
<g id="node2" class="node"><title>Node12</title>
<g id="a_node2"><a xlink:href="../../dc/d8e/class_sky_x_1_1_v_clouds_1_1_lightning.html#abc4637c373ac8182a8e590941ce8917f" target="_top" xlink:title="SkyX::VClouds::Lightning\l::update">
<polygon fill="white" stroke="black" points="163,-49.5 163,-79.5 290,-79.5 290,-49.5 163,-49.5"/>
<text text-anchor="start" x="171" y="-67.5" font-family="Helvetica,sans-Serif" font-size="10.00">SkyX::VClouds::Lightning</text>
<text text-anchor="middle" x="226.5" y="-56.5" font-family="Helvetica,sans-Serif" font-size="10.00">::update</text>
</a>
</g>
</g>
<!-- Node11&#45;&gt;Node12 -->
<g id="edge1" class="edge"><title>Node11&#45;&gt;Node12</title>
<path fill="none" stroke="midnightblue" d="M137.218,-50.7917C145.813,-52.1262 154.527,-53.4793 162.963,-54.7893"/>
<polygon fill="midnightblue" stroke="midnightblue" points="137.626,-47.3132 127.208,-49.2372 136.552,-54.2303 137.626,-47.3132"/>
</g>
<!-- Node13 -->
<g id="node3" class="node"><title>Node13</title>
<g id="a_node3"><a xlink:href="../../dc/d8e/class_sky_x_1_1_v_clouds_1_1_lightning.html#a81fe9d0098c109ea498eb4d2ff45ee53" target="_top" xlink:title="SkyX::VClouds::Lightning\l::isFinished">
<polygon fill="white" stroke="black" points="163,-0.5 163,-30.5 290,-30.5 290,-0.5 163,-0.5"/>
<text text-anchor="start" x="171" y="-18.5" font-family="Helvetica,sans-Serif" font-size="10.00">SkyX::VClouds::Lightning</text>
<text text-anchor="middle" x="226.5" y="-7.5" font-family="Helvetica,sans-Serif" font-size="10.00">::isFinished</text>
</a>
</g>
</g>
<!-- Node11&#45;&gt;Node13 -->
<g id="edge2" class="edge"><title>Node11&#45;&gt;Node13</title>
<path fill="none" stroke="midnightblue" d="M137.218,-28.66C145.813,-27.3788 154.527,-26.0799 162.963,-24.8222"/>
<polygon fill="midnightblue" stroke="midnightblue" points="136.582,-25.216 127.208,-30.1523 137.615,-32.1395 136.582,-25.216"/>
</g>
</g>
</svg>
