<?xml version="1.0" encoding="UTF-8" standalone="no"?>
<!DOCTYPE svg PUBLIC "-//W3C//DTD SVG 1.1//EN"
 "http://www.w3.org/Graphics/SVG/1.1/DTD/svg11.dtd">
<!-- Generated by graphviz version 2.38.0 (20140413.2041)
 -->
<!-- Title: LocalStorage::getDegree Pages: 1 -->
<svg width="365pt" height="28pt"
 viewBox="0.00 0.00 365.00 28.00" xmlns="http://www.w3.org/2000/svg" xmlns:xlink="http://www.w3.org/1999/xlink">
<g id="graph0" class="graph" transform="scale(1 1) rotate(0) translate(4 24)">
<title>LocalStorage::getDegree</title>
<polygon fill="white" stroke="none" points="-4,4 -4,-24 361,-24 361,4 -4,4"/>
<!-- Node98 -->
<g id="node1" class="node"><title>Node98</title>
<polygon fill="#bfbfbf" stroke="black" points="0,-0.5 0,-19.5 124,-19.5 124,-0.5 0,-0.5"/>
<text text-anchor="middle" x="62" y="-7.5" font-family="Helvetica,sans-Serif" font-size="10.00">LocalStorage::getDegree</text>
</g>
<!-- Node99 -->
<g id="node2" class="node"><title>Node99</title>
<g id="a_node2"><a xlink:href="../../d6/dac/_local_storage_8h.html#a3e8ac70ce4bec02667b154f1709b023f" target="_top" xlink:title="registerLocalStorage">
<polygon fill="white" stroke="black" points="160,-0.5 160,-19.5 266,-19.5 266,-0.5 160,-0.5"/>
<text text-anchor="middle" x="213" y="-7.5" font-family="Helvetica,sans-Serif" font-size="10.00">registerLocalStorage</text>
</a>
</g>
</g>
<!-- Node98&#45;&gt;Node99 -->
<g id="edge1" class="edge"><title>Node98&#45;&gt;Node99</title>
<path fill="none" stroke="midnightblue" d="M134.154,-10C142.823,-10 151.552,-10 159.871,-10"/>
<polygon fill="midnightblue" stroke="midnightblue" points="134.034,-6.5001 124.034,-10 134.034,-13.5001 134.034,-6.5001"/>
</g>
<!-- Node100 -->
<g id="node3" class="node"><title>Node100</title>
<g id="a_node3"><a xlink:href="../../d4/d5f/_script_engine_8cpp.html#a72e7735b6ca109323b2aa797f7b7b45d" target="_top" xlink:title="logString">
<polygon fill="white" stroke="black" points="302,-0.5 302,-19.5 357,-19.5 357,-0.5 302,-0.5"/>
<text text-anchor="middle" x="329.5" y="-7.5" font-family="Helvetica,sans-Serif" font-size="10.00">logString</text>
</a>
</g>
</g>
<!-- Node99&#45;&gt;Node100 -->
<g id="edge2" class="edge"><title>Node99&#45;&gt;Node100</title>
<path fill="none" stroke="midnightblue" d="M276.407,-10C285.405,-10 294.231,-10 301.988,-10"/>
<polygon fill="midnightblue" stroke="midnightblue" points="276.224,-6.5001 266.224,-10 276.224,-13.5001 276.224,-6.5001"/>
</g>
</g>
</svg>
