<?xml version="1.0" encoding="UTF-8" standalone="no"?>
<!DOCTYPE svg PUBLIC "-//W3C//DTD SVG 1.1//EN"
 "http://www.w3.org/Graphics/SVG/1.1/DTD/svg11.dtd">
<!-- Generated by graphviz version 2.38.0 (20140413.2041)
 -->
<!-- Title: LocalStorage::GetGCFlag Pages: 1 -->
<svg width="369pt" height="28pt"
 viewBox="0.00 0.00 369.00 28.00" xmlns="http://www.w3.org/2000/svg" xmlns:xlink="http://www.w3.org/1999/xlink">
<g id="graph0" class="graph" transform="scale(1 1) rotate(0) translate(4 24)">
<title>LocalStorage::GetGCFlag</title>
<polygon fill="white" stroke="none" points="-4,4 -4,-24 365,-24 365,4 -4,4"/>
<!-- Node126 -->
<g id="node1" class="node"><title>Node126</title>
<polygon fill="#bfbfbf" stroke="black" points="0,-0.5 0,-19.5 128,-19.5 128,-0.5 0,-0.5"/>
<text text-anchor="middle" x="64" y="-7.5" font-family="Helvetica,sans-Serif" font-size="10.00">LocalStorage::GetGCFlag</text>
</g>
<!-- Node127 -->
<g id="node2" class="node"><title>Node127</title>
<g id="a_node2"><a xlink:href="../../d6/dac/_local_storage_8h.html#a3e8ac70ce4bec02667b154f1709b023f" target="_top" xlink:title="registerLocalStorage">
<polygon fill="white" stroke="black" points="164,-0.5 164,-19.5 270,-19.5 270,-0.5 164,-0.5"/>
<text text-anchor="middle" x="217" y="-7.5" font-family="Helvetica,sans-Serif" font-size="10.00">registerLocalStorage</text>
</a>
</g>
</g>
<!-- Node126&#45;&gt;Node127 -->
<g id="edge1" class="edge"><title>Node126&#45;&gt;Node127</title>
<path fill="none" stroke="midnightblue" d="M138.19,-10C146.769,-10 155.389,-10 163.605,-10"/>
<polygon fill="midnightblue" stroke="midnightblue" points="138.163,-6.5001 128.163,-10 138.163,-13.5001 138.163,-6.5001"/>
</g>
<!-- Node128 -->
<g id="node3" class="node"><title>Node128</title>
<g id="a_node3"><a xlink:href="../../d4/d5f/_script_engine_8cpp.html#a72e7735b6ca109323b2aa797f7b7b45d" target="_top" xlink:title="logString">
<polygon fill="white" stroke="black" points="306,-0.5 306,-19.5 361,-19.5 361,-0.5 306,-0.5"/>
<text text-anchor="middle" x="333.5" y="-7.5" font-family="Helvetica,sans-Serif" font-size="10.00">logString</text>
</a>
</g>
</g>
<!-- Node127&#45;&gt;Node128 -->
<g id="edge2" class="edge"><title>Node127&#45;&gt;Node128</title>
<path fill="none" stroke="midnightblue" d="M280.407,-10C289.405,-10 298.231,-10 305.988,-10"/>
<polygon fill="midnightblue" stroke="midnightblue" points="280.224,-6.5001 270.224,-10 280.224,-13.5001 280.224,-6.5001"/>
</g>
</g>
</svg>
