<?xml version="1.0" encoding="UTF-8" standalone="no"?>
<!DOCTYPE svg PUBLIC "-//W3C//DTD SVG 1.1//EN"
 "http://www.w3.org/Graphics/SVG/1.1/DTD/svg11.dtd">
<!-- Generated by graphviz version 2.38.0 (20140413.2041)
 -->
<!-- Title: LocalStorage::operator= Pages: 1 -->
<svg width="298pt" height="154pt"
 viewBox="0.00 0.00 298.00 153.50" xmlns="http://www.w3.org/2000/svg" xmlns:xlink="http://www.w3.org/1999/xlink">
<g id="graph0" class="graph" transform="scale(1 1) rotate(0) translate(4 149.5)">
<title>LocalStorage::operator=</title>
<polygon fill="white" stroke="none" points="-4,4 -4,-149.5 294,-149.5 294,4 -4,4"/>
<!-- Node234 -->
<g id="node1" class="node"><title>Node234</title>
<polygon fill="#bfbfbf" stroke="black" points="0,-69 0,-88 121,-88 121,-69 0,-69"/>
<text text-anchor="middle" x="60.5" y="-76" font-family="Helvetica,sans-Serif" font-size="10.00">LocalStorage::operator=</text>
</g>
<!-- Node235 -->
<g id="node2" class="node"><title>Node235</title>
<g id="a_node2"><a xlink:href="../../df/d94/class_local_storage.html#a073924f7787d7901cb0d52763fc4c4ac" target="_top" xlink:title="LocalStorage::getFilename">
<polygon fill="white" stroke="black" points="157,-126 157,-145 290,-145 290,-126 157,-126"/>
<text text-anchor="middle" x="223.5" y="-133" font-family="Helvetica,sans-Serif" font-size="10.00">LocalStorage::getFilename</text>
</a>
</g>
</g>
<!-- Node234&#45;&gt;Node235 -->
<g id="edge1" class="edge"><title>Node234&#45;&gt;Node235</title>
<path fill="none" stroke="midnightblue" d="M83.6558,-88.0209C102.867,-96.1061 131.514,-107.756 157,-116.5 163.546,-118.746 170.518,-120.957 177.38,-123.032"/>
<polygon fill="midnightblue" stroke="midnightblue" points="176.71,-126.483 187.292,-125.962 178.694,-119.771 176.71,-126.483"/>
</g>
<!-- Node236 -->
<g id="node3" class="node"><title>Node236</title>
<g id="a_node3"><a xlink:href="../../df/d94/class_local_storage.html#ad4263ac5d96d826bd6e9b61985d107eb" target="_top" xlink:title="LocalStorage::getSection">
<polygon fill="white" stroke="black" points="160.5,-88 160.5,-107 286.5,-107 286.5,-88 160.5,-88"/>
<text text-anchor="middle" x="223.5" y="-95" font-family="Helvetica,sans-Serif" font-size="10.00">LocalStorage::getSection</text>
</a>
</g>
</g>
<!-- Node234&#45;&gt;Node236 -->
<g id="edge2" class="edge"><title>Node234&#45;&gt;Node236</title>
<path fill="none" stroke="midnightblue" d="M121.45,-85.5749C130.873,-86.6868 140.698,-87.8463 150.36,-88.9866"/>
<polygon fill="midnightblue" stroke="midnightblue" points="150.005,-92.4689 160.347,-90.1651 150.826,-85.5172 150.005,-92.4689"/>
</g>
<!-- Node237 -->
<g id="node4" class="node"><title>Node237</title>
<g id="a_node4"><a xlink:href="../../df/d94/class_local_storage.html#aa22bd423a0e884641f3bbef21bf3e91a" target="_top" xlink:title="LocalStorage::getSettings">
<polygon fill="white" stroke="black" points="159,-50 159,-69 288,-69 288,-50 159,-50"/>
<text text-anchor="middle" x="223.5" y="-57" font-family="Helvetica,sans-Serif" font-size="10.00">LocalStorage::getSettings</text>
</a>
</g>
</g>
<!-- Node234&#45;&gt;Node237 -->
<g id="edge3" class="edge"><title>Node234&#45;&gt;Node237</title>
<path fill="none" stroke="midnightblue" d="M121.45,-71.4251C130.445,-70.3636 139.807,-69.2588 149.044,-68.1687"/>
<polygon fill="midnightblue" stroke="midnightblue" points="149.474,-71.6423 158.995,-66.9944 148.654,-64.6906 149.474,-71.6423"/>
</g>
<!-- Node238 -->
<g id="node5" class="node"><title>Node238</title>
<g id="a_node5"><a xlink:href="../../d5/d96/class_improved_config_file.html#a1474dbcc57dfabc10c1dea1e550356cf" target="_top" xlink:title="ImprovedConfigFile\l::setSetting">
<polygon fill="white" stroke="black" points="174.5,-0.5 174.5,-30.5 272.5,-30.5 272.5,-0.5 174.5,-0.5"/>
<text text-anchor="start" x="182.5" y="-18.5" font-family="Helvetica,sans-Serif" font-size="10.00">ImprovedConfigFile</text>
<text text-anchor="middle" x="223.5" y="-7.5" font-family="Helvetica,sans-Serif" font-size="10.00">::setSetting</text>
</a>
</g>
</g>
<!-- Node234&#45;&gt;Node238 -->
<g id="edge4" class="edge"><title>Node234&#45;&gt;Node238</title>
<path fill="none" stroke="midnightblue" d="M85.404,-68.8803C104.699,-61.1416 132.56,-50.026 157,-40.5 162.174,-38.4833 167.585,-36.3913 172.983,-34.315"/>
<polygon fill="midnightblue" stroke="midnightblue" points="174.548,-37.4631 182.632,-30.6141 172.042,-30.9273 174.548,-37.4631"/>
</g>
</g>
</svg>
