<?xml version="1.0" encoding="UTF-8" standalone="no"?>
<!DOCTYPE svg PUBLIC "-//W3C//DTD SVG 1.1//EN"
 "http://www.w3.org/Graphics/SVG/1.1/DTD/svg11.dtd">
<!-- Generated by graphviz version 2.38.0 (20140413.2041)
 -->
<!-- Title: ShowExampleAppConstrainedResize Pages: 1 -->
<svg width="489pt" height="39pt"
 viewBox="0.00 0.00 489.00 39.00" xmlns="http://www.w3.org/2000/svg" xmlns:xlink="http://www.w3.org/1999/xlink">
<g id="graph0" class="graph" transform="scale(1 1) rotate(0) translate(4 35)">
<title>ShowExampleAppConstrainedResize</title>
<polygon fill="white" stroke="none" points="-4,4 -4,-35 485,-35 485,4 -4,4"/>
<!-- Node693 -->
<g id="node1" class="node"><title>Node693</title>
<polygon fill="#bfbfbf" stroke="black" points="0,-0.5 0,-30.5 148,-30.5 148,-0.5 0,-0.5"/>
<text text-anchor="start" x="8" y="-18.5" font-family="Helvetica,sans-Serif" font-size="10.00">ShowExampleAppConstrained</text>
<text text-anchor="middle" x="74" y="-7.5" font-family="Helvetica,sans-Serif" font-size="10.00">Resize</text>
</g>
<!-- Node694 -->
<g id="node2" class="node"><title>Node694</title>
<g id="a_node2"><a xlink:href="../../df/d13/namespace_im_gui.html#a52880ae1ecdd704a083558d31c9bfa50" target="_top" xlink:title="ImGui::ShowTestWindow">
<polygon fill="white" stroke="black" points="184,-6 184,-25 309,-25 309,-6 184,-6"/>
<text text-anchor="middle" x="246.5" y="-13" font-family="Helvetica,sans-Serif" font-size="10.00">ImGui::ShowTestWindow</text>
</a>
</g>
</g>
<!-- Node693&#45;&gt;Node694 -->
<g id="edge1" class="edge"><title>Node693&#45;&gt;Node694</title>
<path fill="none" stroke="midnightblue" d="M158.326,-15.5C166.898,-15.5 175.496,-15.5 183.772,-15.5"/>
<polygon fill="midnightblue" stroke="midnightblue" points="158.297,-12.0001 148.297,-15.5 158.297,-19.0001 158.297,-12.0001"/>
</g>
<!-- Node695 -->
<g id="node3" class="node"><title>Node695</title>
<g id="a_node3"><a xlink:href="../../d5/d0a/imgui__demo_8cpp.html#a4dadf5e7b393795666d19af9694037cf" target="_top" xlink:title="ShowExampleAppLongText">
<polygon fill="white" stroke="black" points="345,-6 345,-25 481,-25 481,-6 345,-6"/>
<text text-anchor="middle" x="413" y="-13" font-family="Helvetica,sans-Serif" font-size="10.00">ShowExampleAppLongText</text>
</a>
</g>
</g>
<!-- Node694&#45;&gt;Node695 -->
<g id="edge2" class="edge"><title>Node694&#45;&gt;Node695</title>
<path fill="none" stroke="midnightblue" d="M319.464,-8.79714C327.942,-8.71907 336.567,-8.73797 344.973,-8.85383"/>
<polygon fill="midnightblue" stroke="midnightblue" points="319.172,-5.30079 309.222,-8.94044 319.27,-12.3001 319.172,-5.30079"/>
</g>
<!-- Node695&#45;&gt;Node694 -->
<g id="edge3" class="edge"><title>Node695&#45;&gt;Node694</title>
<path fill="none" stroke="midnightblue" d="M334.916,-22.2381C326.301,-22.2777 317.609,-22.2182 309.222,-22.0596"/>
<polygon fill="midnightblue" stroke="midnightblue" points="335.005,-25.7376 344.973,-22.1462 334.941,-18.7379 335.005,-25.7376"/>
</g>
</g>
</svg>
