<?xml version="1.0" encoding="UTF-8" standalone="no"?>
<!DOCTYPE svg PUBLIC "-//W3C//DTD SVG 1.1//EN"
 "http://www.w3.org/Graphics/SVG/1.1/DTD/svg11.dtd">
<!-- Generated by graphviz version 2.38.0 (20140413.2041)
 -->
<!-- Title: RoR::GVarStr_A::SetActive Pages: 1 -->
<svg width="988pt" height="112pt"
 viewBox="0.00 0.00 988.00 112.00" xmlns="http://www.w3.org/2000/svg" xmlns:xlink="http://www.w3.org/1999/xlink">
<g id="graph0" class="graph" transform="scale(1 1) rotate(0) translate(4 108)">
<title>RoR::GVarStr_A::SetActive</title>
<polygon fill="white" stroke="none" points="-4,4 -4,-108 984,-108 984,4 -4,4"/>
<!-- Node22 -->
<g id="node1" class="node"><title>Node22</title>
<polygon fill="#bfbfbf" stroke="black" points="0,-30 0,-49 136,-49 136,-30 0,-30"/>
<text text-anchor="middle" x="68" y="-37" font-family="Helvetica,sans-Serif" font-size="10.00">RoR::GVarStr_A::SetActive</text>
</g>
<!-- Node23 -->
<g id="node2" class="node"><title>Node23</title>
<g id="a_node2"><a xlink:href="../../dd/dd2/namespace_ro_r.html#afa3bed83fccd42a159911d7c99271139" target="_top" xlink:title="RoR::DrawGTextEdit">
<polygon fill="white" stroke="black" points="172,-30 172,-49 279,-49 279,-30 172,-30"/>
<text text-anchor="middle" x="225.5" y="-37" font-family="Helvetica,sans-Serif" font-size="10.00">RoR::DrawGTextEdit</text>
</a>
</g>
</g>
<!-- Node22&#45;&gt;Node23 -->
<g id="edge1" class="edge"><title>Node22&#45;&gt;Node23</title>
<path fill="none" stroke="midnightblue" d="M146.326,-39.5C154.89,-39.5 163.462,-39.5 171.624,-39.5"/>
<polygon fill="midnightblue" stroke="midnightblue" points="146.3,-36.0001 136.3,-39.5 146.3,-43.0001 146.3,-36.0001"/>
</g>
<!-- Node24 -->
<g id="node3" class="node"><title>Node24</title>
<g id="a_node3"><a xlink:href="../../d8/d2c/class_ro_r_1_1_g_u_i_1_1_game_settings.html#a97a07e0573bf956e386722ef6b776ff3" target="_top" xlink:title="RoR::GUI::GameSettings\l::Draw">
<polygon fill="white" stroke="black" points="325.5,-49.5 325.5,-79.5 451.5,-79.5 451.5,-49.5 325.5,-49.5"/>
<text text-anchor="start" x="333.5" y="-67.5" font-family="Helvetica,sans-Serif" font-size="10.00">RoR::GUI::GameSettings</text>
<text text-anchor="middle" x="388.5" y="-56.5" font-family="Helvetica,sans-Serif" font-size="10.00">::Draw</text>
</a>
</g>
</g>
<!-- Node23&#45;&gt;Node24 -->
<g id="edge2" class="edge"><title>Node23&#45;&gt;Node24</title>
<path fill="none" stroke="midnightblue" d="M289.444,-49.274C301.269,-51.1101 313.625,-53.0287 325.422,-54.8606"/>
<polygon fill="midnightblue" stroke="midnightblue" points="289.636,-45.7619 279.217,-47.6859 288.562,-52.679 289.636,-45.7619"/>
</g>
<!-- Node30 -->
<g id="node9" class="node"><title>Node30</title>
<g id="a_node9"><a xlink:href="../../d4/d8f/class_ro_r_1_1_g_u_i_1_1_multiplayer_selector.html#a8c98e9ba03c8afb1d1a26ec06192862e" target="_top" xlink:title="RoR::GUI::MultiplayerSelector\l::~MultiplayerSelector">
<polygon fill="white" stroke="black" points="315,-0.5 315,-30.5 462,-30.5 462,-0.5 315,-0.5"/>
<text text-anchor="start" x="323" y="-18.5" font-family="Helvetica,sans-Serif" font-size="10.00">RoR::GUI::MultiplayerSelector</text>
<text text-anchor="middle" x="388.5" y="-7.5" font-family="Helvetica,sans-Serif" font-size="10.00">::~MultiplayerSelector</text>
</a>
</g>
</g>
<!-- Node23&#45;&gt;Node30 -->
<g id="edge8" class="edge"><title>Node23&#45;&gt;Node30</title>
<path fill="none" stroke="midnightblue" d="M289.264,-30.1438C297.631,-28.8965 306.268,-27.6092 314.787,-26.3393"/>
<polygon fill="midnightblue" stroke="midnightblue" points="288.592,-26.7053 279.217,-31.6415 289.624,-33.6288 288.592,-26.7053"/>
</g>
<!-- Node25 -->
<g id="node4" class="node"><title>Node25</title>
<g id="a_node4"><a xlink:href="../../d8/d11/class_ro_r_1_1_g_u_i_manager.html#af75908cee15c6ce99cce1752387fca4f" target="_top" xlink:title="RoR::GUIManager::DrawMain\lMenuGui">
<polygon fill="white" stroke="black" points="498,-73.5 498,-103.5 642,-103.5 642,-73.5 498,-73.5"/>
<text text-anchor="start" x="506" y="-91.5" font-family="Helvetica,sans-Serif" font-size="10.00">RoR::GUIManager::DrawMain</text>
<text text-anchor="middle" x="570" y="-80.5" font-family="Helvetica,sans-Serif" font-size="10.00">MenuGui</text>
</a>
</g>
</g>
<!-- Node24&#45;&gt;Node25 -->
<g id="edge3" class="edge"><title>Node24&#45;&gt;Node25</title>
<path fill="none" stroke="midnightblue" d="M461.443,-74.1192C473.397,-75.7174 485.79,-77.3744 497.727,-78.9705"/>
<polygon fill="midnightblue" stroke="midnightblue" points="461.901,-70.6493 451.525,-72.793 460.973,-77.5875 461.901,-70.6493"/>
</g>
<!-- Node29 -->
<g id="node8" class="node"><title>Node29</title>
<g id="a_node8"><a xlink:href="../../d8/d2c/class_ro_r_1_1_g_u_i_1_1_game_settings.html#aeb21469250c1f403cfc4e281271b339f" target="_top" xlink:title="RoR::GUI::GameSettings\l::GameSettings">
<polygon fill="white" stroke="black" points="507,-24.5 507,-54.5 633,-54.5 633,-24.5 507,-24.5"/>
<text text-anchor="start" x="515" y="-42.5" font-family="Helvetica,sans-Serif" font-size="10.00">RoR::GUI::GameSettings</text>
<text text-anchor="middle" x="570" y="-31.5" font-family="Helvetica,sans-Serif" font-size="10.00">::GameSettings</text>
</a>
</g>
</g>
<!-- Node24&#45;&gt;Node29 -->
<g id="edge7" class="edge"><title>Node24&#45;&gt;Node29</title>
<path fill="none" stroke="midnightblue" d="M461.765,-54.4352C476.744,-52.349 492.399,-50.1687 506.972,-48.1389"/>
<polygon fill="midnightblue" stroke="midnightblue" points="460.947,-51.0153 451.525,-55.8614 461.912,-57.9484 460.947,-51.0153"/>
</g>
<!-- Node26 -->
<g id="node5" class="node"><title>Node26</title>
<g id="a_node5"><a xlink:href="../../d4/d14/class_ro_r_1_1_main_menu.html#a582e508f1bb1578d1124260de49e438b" target="_top" xlink:title="RoR::MainMenu::EnterMain\lMenuLoop">
<polygon fill="white" stroke="black" points="678,-73.5 678,-103.5 815,-103.5 815,-73.5 678,-73.5"/>
<text text-anchor="start" x="686" y="-91.5" font-family="Helvetica,sans-Serif" font-size="10.00">RoR::MainMenu::EnterMain</text>
<text text-anchor="middle" x="746.5" y="-80.5" font-family="Helvetica,sans-Serif" font-size="10.00">MenuLoop</text>
</a>
</g>
</g>
<!-- Node25&#45;&gt;Node26 -->
<g id="edge4" class="edge"><title>Node25&#45;&gt;Node26</title>
<path fill="none" stroke="midnightblue" d="M652.243,-88.5C660.822,-88.5 669.478,-88.5 677.879,-88.5"/>
<polygon fill="midnightblue" stroke="midnightblue" points="652.228,-85.0001 642.228,-88.5 652.227,-92.0001 652.228,-85.0001"/>
</g>
<!-- Node27 -->
<g id="node6" class="node"><title>Node27</title>
<g id="a_node6"><a xlink:href="../../df/d0a/main_8cpp.html#a0ddf1224851353fc92bfbff6f499fa97" target="_top" xlink:title="main">
<polygon fill="white" stroke="black" points="851,-79 851,-98 889,-98 889,-79 851,-79"/>
<text text-anchor="middle" x="870" y="-86" font-family="Helvetica,sans-Serif" font-size="10.00">main</text>
</a>
</g>
</g>
<!-- Node26&#45;&gt;Node27 -->
<g id="edge5" class="edge"><title>Node26&#45;&gt;Node27</title>
<path fill="none" stroke="midnightblue" d="M825.013,-88.5C834.457,-88.5 843.315,-88.5 850.572,-88.5"/>
<polygon fill="midnightblue" stroke="midnightblue" points="825.001,-85.0001 815.001,-88.5 825.001,-92.0001 825.001,-85.0001"/>
</g>
<!-- Node28 -->
<g id="node7" class="node"><title>Node28</title>
<g id="a_node7"><a xlink:href="../../df/d0a/main_8cpp.html#a2922bc5d5c2d77a3020cfbf9df12aab0" target="_top" xlink:title="WinMain">
<polygon fill="white" stroke="black" points="925,-79 925,-98 980,-98 980,-79 925,-79"/>
<text text-anchor="middle" x="952.5" y="-86" font-family="Helvetica,sans-Serif" font-size="10.00">WinMain</text>
</a>
</g>
</g>
<!-- Node27&#45;&gt;Node28 -->
<g id="edge6" class="edge"><title>Node27&#45;&gt;Node28</title>
<path fill="none" stroke="midnightblue" d="M899.519,-88.5C907.73,-88.5 916.653,-88.5 924.752,-88.5"/>
<polygon fill="midnightblue" stroke="midnightblue" points="899.267,-85.0001 889.267,-88.5 899.267,-92.0001 899.267,-85.0001"/>
</g>
</g>
</svg>
