<?xml version="1.0" encoding="UTF-8" standalone="no"?>
<!DOCTYPE svg PUBLIC "-//W3C//DTD SVG 1.1//EN"
 "http://www.w3.org/Graphics/SVG/1.1/DTD/svg11.dtd">
<!-- Generated by graphviz version 2.38.0 (20140413.2041)
 -->
<!-- Title: ANSI_TO_WCHAR Pages: 1 -->
<svg width="1943pt" height="676pt"
 viewBox="0.00 0.00 1943.00 676.00" xmlns="http://www.w3.org/2000/svg" xmlns:xlink="http://www.w3.org/1999/xlink">
<g id="graph0" class="graph" transform="scale(1 1) rotate(0) translate(4 672)">
<title>ANSI_TO_WCHAR</title>
<polygon fill="white" stroke="none" points="-4,4 -4,-672 1939,-672 1939,4 -4,4"/>
<!-- Node3 -->
<g id="node1" class="node"><title>Node3</title>
<polygon fill="#bfbfbf" stroke="black" points="0,-317.5 0,-336.5 99,-336.5 99,-317.5 0,-317.5"/>
<text text-anchor="middle" x="49.5" y="-324.5" font-family="Helvetica,sans-Serif" font-size="10.00">ANSI_TO_WCHAR</text>
</g>
<!-- Node4 -->
<g id="node2" class="node"><title>Node4</title>
<g id="a_node2"><a xlink:href="../../d9/dc1/_utils_8h.html#a23744b3f0e07a907bc9993afbcf37c2d" target="_top" xlink:title="convertToMyGUIString">
<polygon fill="white" stroke="black" points="135,-317.5 135,-336.5 248,-336.5 248,-317.5 135,-317.5"/>
<text text-anchor="middle" x="191.5" y="-324.5" font-family="Helvetica,sans-Serif" font-size="10.00">convertToMyGUIString</text>
</a>
</g>
</g>
<!-- Node3&#45;&gt;Node4 -->
<g id="edge1" class="edge"><title>Node3&#45;&gt;Node4</title>
<path fill="none" stroke="midnightblue" d="M109.252,-327C117.717,-327 126.408,-327 134.812,-327"/>
<polygon fill="midnightblue" stroke="midnightblue" points="109.072,-323.5 99.0723,-327 109.072,-330.5 109.072,-323.5"/>
</g>
<!-- Node5 -->
<g id="node3" class="node"><title>Node5</title>
<g id="a_node3"><a xlink:href="../../dd/def/class_replay.html#abdd355de2fdec7c897870b358e32c946" target="_top" xlink:title="Replay::updateGUI">
<polygon fill="white" stroke="black" points="309.5,-648.5 309.5,-667.5 407.5,-667.5 407.5,-648.5 309.5,-648.5"/>
<text text-anchor="middle" x="358.5" y="-655.5" font-family="Helvetica,sans-Serif" font-size="10.00">Replay::updateGUI</text>
</a>
</g>
</g>
<!-- Node4&#45;&gt;Node5 -->
<g id="edge2" class="edge"><title>Node4&#45;&gt;Node5</title>
<path fill="none" stroke="midnightblue" d="M192.433,-346.783C193.345,-400.616 203.365,-551.244 284,-634 290.932,-641.114 299.998,-646.121 309.385,-649.644"/>
<polygon fill="midnightblue" stroke="midnightblue" points="195.931,-346.534 192.355,-336.561 188.931,-346.587 195.931,-346.534"/>
</g>
<!-- Node6 -->
<g id="node4" class="node"><title>Node6</title>
<g id="a_node4"><a xlink:href="../../df/d32/class_ro_r_1_1_g_u_i_1_1_friction_settings.html#ad1fa0de31aedf7811ebf298ff92e07de" target="_top" xlink:title="RoR::GUI::FrictionSettings\l::setActiveCol">
<polygon fill="white" stroke="black" points="292.5,-472 292.5,-502 424.5,-502 424.5,-472 292.5,-472"/>
<text text-anchor="start" x="300.5" y="-490" font-family="Helvetica,sans-Serif" font-size="10.00">RoR::GUI::FrictionSettings</text>
<text text-anchor="middle" x="358.5" y="-479" font-family="Helvetica,sans-Serif" font-size="10.00">::setActiveCol</text>
</a>
</g>
</g>
<!-- Node4&#45;&gt;Node6 -->
<g id="edge3" class="edge"><title>Node4&#45;&gt;Node6</title>
<path fill="none" stroke="midnightblue" d="M209.684,-343.663C241.923,-374.926 311.011,-441.92 341.954,-471.925"/>
<polygon fill="midnightblue" stroke="midnightblue" points="211.943,-340.978 202.327,-336.53 207.07,-346.004 211.943,-340.978"/>
</g>
<!-- Node14 -->
<g id="node12" class="node"><title>Node14</title>
<g id="a_node12"><a xlink:href="../../df/d32/class_ro_r_1_1_g_u_i_1_1_friction_settings.html#a68f89f8c947082c37538b73bb2f1fa60" target="_top" xlink:title="RoR::GUI::FrictionSettings\l::showHelp">
<polygon fill="white" stroke="black" points="292.5,-239 292.5,-269 424.5,-269 424.5,-239 292.5,-239"/>
<text text-anchor="start" x="300.5" y="-257" font-family="Helvetica,sans-Serif" font-size="10.00">RoR::GUI::FrictionSettings</text>
<text text-anchor="middle" x="358.5" y="-246" font-family="Helvetica,sans-Serif" font-size="10.00">::showHelp</text>
</a>
</g>
</g>
<!-- Node4&#45;&gt;Node14 -->
<g id="edge12" class="edge"><title>Node4&#45;&gt;Node14</title>
<path fill="none" stroke="midnightblue" d="M217.02,-312.341C235.12,-301.901 260.574,-288.005 284,-278 291.407,-274.837 299.379,-271.838 307.245,-269.1"/>
<polygon fill="midnightblue" stroke="midnightblue" points="215.147,-309.382 208.275,-317.446 218.676,-315.427 215.147,-309.382"/>
</g>
<!-- Node17 -->
<g id="node15" class="node"><title>Node17</title>
<g id="a_node15"><a xlink:href="../../d1/d7c/class_ro_r_1_1_g_u_i_1_1_loading_window.html#acc087e971e8347f14011eaa787c8fc5e" target="_top" xlink:title="RoR::GUI::LoadingWindow\l::setProgress">
<polygon fill="white" stroke="black" points="292.5,-337 292.5,-367 424.5,-367 424.5,-337 292.5,-337"/>
<text text-anchor="start" x="300.5" y="-355" font-family="Helvetica,sans-Serif" font-size="10.00">RoR::GUI::LoadingWindow</text>
<text text-anchor="middle" x="358.5" y="-344" font-family="Helvetica,sans-Serif" font-size="10.00">::setProgress</text>
</a>
</g>
</g>
<!-- Node4&#45;&gt;Node17 -->
<g id="edge15" class="edge"><title>Node4&#45;&gt;Node17</title>
<path fill="none" stroke="midnightblue" d="M258.455,-336.993C269.601,-338.682 281.168,-340.435 292.295,-342.12"/>
<polygon fill="midnightblue" stroke="midnightblue" points="258.773,-333.501 248.361,-335.464 257.724,-340.423 258.773,-333.501"/>
</g>
<!-- Node33 -->
<g id="node31" class="node"><title>Node33</title>
<g id="a_node31"><a xlink:href="../../d1/d7c/class_ro_r_1_1_g_u_i_1_1_loading_window.html#afbe80d0309f58dcbcabd4c99de3cb6ff" target="_top" xlink:title="RoR::GUI::LoadingWindow\l::setAutotrack">
<polygon fill="white" stroke="black" points="890.5,-590 890.5,-620 1022.5,-620 1022.5,-590 890.5,-590"/>
<text text-anchor="start" x="898.5" y="-608" font-family="Helvetica,sans-Serif" font-size="10.00">RoR::GUI::LoadingWindow</text>
<text text-anchor="middle" x="956.5" y="-597" font-family="Helvetica,sans-Serif" font-size="10.00">::setAutotrack</text>
</a>
</g>
</g>
<!-- Node4&#45;&gt;Node33 -->
<g id="edge42" class="edge"><title>Node4&#45;&gt;Node33</title>
<path fill="none" stroke="midnightblue" d="M197.566,-346.803C207.934,-383.751 234.844,-463.804 284,-512 348.879,-575.611 380.449,-578.644 469,-599 616.56,-632.922 795.997,-622.281 890.325,-612.852"/>
<polygon fill="midnightblue" stroke="midnightblue" points="200.853,-345.549 194.873,-336.804 194.094,-347.37 200.853,-345.549"/>
</g>
<!-- Node35 -->
<g id="node33" class="node"><title>Node35</title>
<g id="a_node33"><a xlink:href="../../d1/d94/structsort__search__results.html#a4258cc2f4bb9c65ee3d745f458fbf4ae" target="_top" xlink:title="sort_search_results\l::operator()">
<polygon fill="white" stroke="black" points="307.5,-190 307.5,-220 409.5,-220 409.5,-190 307.5,-190"/>
<text text-anchor="start" x="315.5" y="-208" font-family="Helvetica,sans-Serif" font-size="10.00">sort_search_results</text>
<text text-anchor="middle" x="358.5" y="-197" font-family="Helvetica,sans-Serif" font-size="10.00">::operator()</text>
</a>
</g>
</g>
<!-- Node4&#45;&gt;Node35 -->
<g id="edge45" class="edge"><title>Node4&#45;&gt;Node35</title>
<path fill="none" stroke="midnightblue" d="M204.824,-309.032C220.715,-287.151 250.341,-250.463 284,-229 291.13,-224.453 299.203,-220.691 307.321,-217.602"/>
<polygon fill="midnightblue" stroke="midnightblue" points="201.81,-307.233 198.883,-317.416 207.521,-311.28 201.81,-307.233"/>
</g>
<!-- Node36 -->
<g id="node34" class="node"><title>Node36</title>
<g id="a_node34"><a xlink:href="../../d2/d27/class_ro_r_1_1_g_u_i_1_1_texture_tool_window.html#ae99f96751422895d21953af7e652040f" target="_top" xlink:title="RoR::GUI::TextureToolWindow\l::updateControls">
<polygon fill="white" stroke="black" points="284,-141 284,-171 433,-171 433,-141 284,-141"/>
<text text-anchor="start" x="292" y="-159" font-family="Helvetica,sans-Serif" font-size="10.00">RoR::GUI::TextureToolWindow</text>
<text text-anchor="middle" x="358.5" y="-148" font-family="Helvetica,sans-Serif" font-size="10.00">::updateControls</text>
</a>
</g>
</g>
<!-- Node4&#45;&gt;Node36 -->
<g id="edge46" class="edge"><title>Node4&#45;&gt;Node36</title>
<path fill="none" stroke="midnightblue" d="M199.417,-307.763C211.64,-276.449 240,-214.49 284,-180 288.331,-176.605 293.161,-173.681 298.217,-171.166"/>
<polygon fill="midnightblue" stroke="midnightblue" points="196.14,-306.532 195.891,-317.124 202.691,-309 196.14,-306.532"/>
</g>
<!-- Node37 -->
<g id="node35" class="node"><title>Node37</title>
<g id="a_node35"><a xlink:href="../../d6/d19/class_ro_r_1_1_g_u_i_1_1_top_menubar.html#addbf2f7c7b987d76109c9ed95f966437" target="_top" xlink:title="RoR::GUI::TopMenubar\l::addUserToMenu">
<polygon fill="white" stroke="black" points="300,-288 300,-318 417,-318 417,-288 300,-288"/>
<text text-anchor="start" x="308" y="-306" font-family="Helvetica,sans-Serif" font-size="10.00">RoR::GUI::TopMenubar</text>
<text text-anchor="middle" x="358.5" y="-295" font-family="Helvetica,sans-Serif" font-size="10.00">::addUserToMenu</text>
</a>
</g>
</g>
<!-- Node4&#45;&gt;Node37 -->
<g id="edge47" class="edge"><title>Node4&#45;&gt;Node37</title>
<path fill="none" stroke="midnightblue" d="M258.618,-317.383C272.222,-315.404 286.445,-313.335 299.726,-311.404"/>
<polygon fill="midnightblue" stroke="midnightblue" points="257.754,-313.972 248.361,-318.875 258.761,-320.899 257.754,-313.972"/>
</g>
<!-- Node7 -->
<g id="node5" class="node"><title>Node7</title>
<g id="a_node5"><a xlink:href="../../df/d32/class_ro_r_1_1_g_u_i_1_1_friction_settings.html#a1fece1fbdff4db9fda4c531c895dbbcf" target="_top" xlink:title="RoR::GUI::FrictionSettings\l::setCollisions">
<polygon fill="white" stroke="black" points="483,-559 483,-589 615,-589 615,-559 483,-559"/>
<text text-anchor="start" x="491" y="-577" font-family="Helvetica,sans-Serif" font-size="10.00">RoR::GUI::FrictionSettings</text>
<text text-anchor="middle" x="549" y="-566" font-family="Helvetica,sans-Serif" font-size="10.00">::setCollisions</text>
</a>
</g>
</g>
<!-- Node6&#45;&gt;Node7 -->
<g id="edge4" class="edge"><title>Node6&#45;&gt;Node7</title>
<path fill="none" stroke="midnightblue" d="M399.665,-506.384C420.323,-516.275 445.944,-528.42 469,-539 483.452,-545.632 499.481,-552.772 513.302,-558.863"/>
<polygon fill="midnightblue" stroke="midnightblue" points="401.079,-503.181 390.549,-502.012 398.052,-509.492 401.079,-503.181"/>
</g>
<!-- Node8 -->
<g id="node6" class="node"><title>Node8</title>
<g id="a_node6"><a xlink:href="../../d8/d11/class_ro_r_1_1_g_u_i_manager.html#af3a183d98bd761538aa6301c485805fb" target="_top" xlink:title="RoR::GUIManager::Friction\lSettingsUpdateCollisions">
<polygon fill="white" stroke="black" points="685,-561 685,-591 819,-591 819,-561 685,-561"/>
<text text-anchor="start" x="693" y="-579" font-family="Helvetica,sans-Serif" font-size="10.00">RoR::GUIManager::Friction</text>
<text text-anchor="middle" x="752" y="-568" font-family="Helvetica,sans-Serif" font-size="10.00">SettingsUpdateCollisions</text>
</a>
</g>
</g>
<!-- Node7&#45;&gt;Node8 -->
<g id="edge5" class="edge"><title>Node7&#45;&gt;Node8</title>
<path fill="none" stroke="midnightblue" d="M625.319,-574.749C644.825,-574.944 665.684,-575.151 684.691,-575.34"/>
<polygon fill="midnightblue" stroke="midnightblue" points="625.293,-571.249 615.259,-574.649 625.224,-578.249 625.293,-571.249"/>
</g>
<!-- Node9 -->
<g id="node7" class="node"><title>Node9</title>
<g id="a_node7"><a xlink:href="../../dd/dbe/class_ro_r_frame_listener.html#a9757c059e840019a3e2659d5ef63ea02" target="_top" xlink:title="Reads GVar &#39;sim_terrain_pending&#39;. ">
<polygon fill="white" stroke="black" points="1084.5,-465.5 1084.5,-484.5 1238.5,-484.5 1238.5,-465.5 1084.5,-465.5"/>
<text text-anchor="middle" x="1161.5" y="-472.5" font-family="Helvetica,sans-Serif" font-size="10.00">RoRFrameListener::LoadTerrain</text>
</a>
</g>
</g>
<!-- Node8&#45;&gt;Node9 -->
<g id="edge6" class="edge"><title>Node8&#45;&gt;Node9</title>
<path fill="none" stroke="midnightblue" d="M823.303,-558.575C909.785,-537.14 1053.53,-501.514 1121.98,-484.548"/>
<polygon fill="midnightblue" stroke="midnightblue" points="822.431,-555.185 813.567,-560.988 824.115,-561.98 822.431,-555.185"/>
</g>
<!-- Node10 -->
<g id="node8" class="node"><title>Node10</title>
<g id="a_node8"><a xlink:href="../../dd/dbe/class_ro_r_frame_listener.html#aca3931d7a75f2ad4b9d36c4fcd03a3c9" target="_top" xlink:title="RoRFrameListener::SetupGameplayLoop">
<polygon fill="white" stroke="black" points="1285,-465.5 1285,-484.5 1479,-484.5 1479,-465.5 1285,-465.5"/>
<text text-anchor="middle" x="1382" y="-472.5" font-family="Helvetica,sans-Serif" font-size="10.00">RoRFrameListener::SetupGameplayLoop</text>
</a>
</g>
</g>
<!-- Node9&#45;&gt;Node10 -->
<g id="edge7" class="edge"><title>Node9&#45;&gt;Node10</title>
<path fill="none" stroke="midnightblue" d="M1248.87,-475C1260.66,-475 1272.83,-475 1284.79,-475"/>
<polygon fill="midnightblue" stroke="midnightblue" points="1248.61,-471.5 1238.61,-475 1248.61,-478.5 1248.61,-471.5"/>
</g>
<!-- Node11 -->
<g id="node9" class="node"><title>Node11</title>
<g id="a_node9"><a xlink:href="../../dd/dbe/class_ro_r_frame_listener.html#ad598075b5f183208c0de43b9248bb44b" target="_top" xlink:title="RoRFrameListener::getTime">
<polygon fill="white" stroke="black" points="1519,-427.5 1519,-446.5 1657,-446.5 1657,-427.5 1519,-427.5"/>
<text text-anchor="middle" x="1588" y="-434.5" font-family="Helvetica,sans-Serif" font-size="10.00">RoRFrameListener::getTime</text>
</a>
</g>
</g>
<!-- Node9&#45;&gt;Node11 -->
<g id="edge11" class="edge"><title>Node9&#45;&gt;Node11</title>
<path fill="none" stroke="midnightblue" d="M1226.83,-463.895C1245.54,-460.971 1266.05,-458.062 1285,-456 1365.04,-447.294 1457.47,-442.202 1518.78,-439.518"/>
<polygon fill="midnightblue" stroke="midnightblue" points="1226.26,-460.442 1216.94,-465.469 1227.36,-467.355 1226.26,-460.442"/>
</g>
<!-- Node10&#45;&gt;Node11 -->
<g id="edge8" class="edge"><title>Node10&#45;&gt;Node11</title>
<path fill="none" stroke="midnightblue" d="M1444.3,-463.582C1473.49,-458.145 1507.99,-451.717 1535.76,-446.544"/>
<polygon fill="midnightblue" stroke="midnightblue" points="1443.4,-460.188 1434.21,-465.46 1444.69,-467.07 1443.4,-460.188"/>
</g>
<!-- Node12 -->
<g id="node10" class="node"><title>Node12</title>
<g id="a_node10"><a xlink:href="../../df/d0a/main_8cpp.html#a0ddf1224851353fc92bfbff6f499fa97" target="_top" xlink:title="main">
<polygon fill="white" stroke="black" points="1751.5,-367.5 1751.5,-386.5 1789.5,-386.5 1789.5,-367.5 1751.5,-367.5"/>
<text text-anchor="middle" x="1770.5" y="-374.5" font-family="Helvetica,sans-Serif" font-size="10.00">main</text>
</a>
</g>
</g>
<!-- Node10&#45;&gt;Node12 -->
<g id="edge9" class="edge"><title>Node10&#45;&gt;Node12</title>
<path fill="none" stroke="midnightblue" d="M1489.43,-481.407C1542.44,-481.213 1606.65,-475.765 1661,-456 1702.83,-440.79 1742.64,-404.3 1760.16,-386.751"/>
<polygon fill="midnightblue" stroke="midnightblue" points="1489.33,-477.906 1479.32,-481.381 1489.31,-484.906 1489.33,-477.906"/>
</g>
<!-- Node13 -->
<g id="node11" class="node"><title>Node13</title>
<g id="a_node11"><a xlink:href="../../df/d0a/main_8cpp.html#a2922bc5d5c2d77a3020cfbf9df12aab0" target="_top" xlink:title="WinMain">
<polygon fill="white" stroke="black" points="1880,-367.5 1880,-386.5 1935,-386.5 1935,-367.5 1880,-367.5"/>
<text text-anchor="middle" x="1907.5" y="-374.5" font-family="Helvetica,sans-Serif" font-size="10.00">WinMain</text>
</a>
</g>
</g>
<!-- Node12&#45;&gt;Node13 -->
<g id="edge10" class="edge"><title>Node12&#45;&gt;Node13</title>
<path fill="none" stroke="midnightblue" d="M1799.77,-377C1823.33,-377 1856.64,-377 1879.76,-377"/>
<polygon fill="midnightblue" stroke="midnightblue" points="1799.71,-373.5 1789.71,-377 1799.71,-380.5 1799.71,-373.5"/>
</g>
<!-- Node15 -->
<g id="node13" class="node"><title>Node15</title>
<g id="a_node13"><a xlink:href="../../df/d32/class_ro_r_1_1_g_u_i_1_1_friction_settings.html#ad1fbdeef906f93ca1147193f857311a1" target="_top" xlink:title="RoR::GUI::FrictionSettings\l::event_btn_MouseButtonClick">
<polygon fill="white" stroke="black" points="474.5,-14 474.5,-44 623.5,-44 623.5,-14 474.5,-14"/>
<text text-anchor="start" x="482.5" y="-32" font-family="Helvetica,sans-Serif" font-size="10.00">RoR::GUI::FrictionSettings</text>
<text text-anchor="middle" x="549" y="-21" font-family="Helvetica,sans-Serif" font-size="10.00">::event_btn_MouseButtonClick</text>
</a>
</g>
</g>
<!-- Node14&#45;&gt;Node15 -->
<g id="edge13" class="edge"><title>Node14&#45;&gt;Node15</title>
<path fill="none" stroke="midnightblue" d="M429.301,-232.757C430.599,-231.572 431.836,-230.321 433,-229 485.787,-169.098 415.234,-112.025 469,-53 472.089,-49.609 475.64,-46.6908 479.489,-44.1801"/>
<polygon fill="midnightblue" stroke="midnightblue" points="427.115,-230.022 421.256,-238.849 431.341,-235.602 427.115,-230.022"/>
</g>
<!-- Node16 -->
<g id="node14" class="node"><title>Node16</title>
<g id="a_node14"><a xlink:href="../../df/d32/class_ro_r_1_1_g_u_i_1_1_friction_settings.html#a30be992e44b908881ce9e5ccbe691bf9" target="_top" xlink:title="RoR::GUI::FrictionSettings\l::FrictionSettings">
<polygon fill="white" stroke="black" points="686,-14 686,-44 818,-44 818,-14 686,-14"/>
<text text-anchor="start" x="694" y="-32" font-family="Helvetica,sans-Serif" font-size="10.00">RoR::GUI::FrictionSettings</text>
<text text-anchor="middle" x="752" y="-21" font-family="Helvetica,sans-Serif" font-size="10.00">::FrictionSettings</text>
</a>
</g>
</g>
<!-- Node15&#45;&gt;Node16 -->
<g id="edge14" class="edge"><title>Node15&#45;&gt;Node16</title>
<path fill="none" stroke="midnightblue" d="M633.852,-29C651.25,-29 669.333,-29 685.936,-29"/>
<polygon fill="midnightblue" stroke="midnightblue" points="633.704,-25.5001 623.704,-29 633.704,-32.5001 633.704,-25.5001"/>
</g>
<!-- Node17&#45;&gt;Node9 -->
<g id="edge16" class="edge"><title>Node17&#45;&gt;Node9</title>
<path fill="none" stroke="midnightblue" d="M389.985,-372.44C411.196,-385.558 440.652,-401.648 469,-410 712.478,-481.732 785.651,-431.668 1038,-459 1055.49,-460.894 1074.34,-463.216 1091.89,-465.498"/>
<polygon fill="midnightblue" stroke="midnightblue" points="391.75,-369.415 381.426,-367.031 388.01,-375.332 391.75,-369.415"/>
</g>
<!-- Node18 -->
<g id="node16" class="node"><title>Node18</title>
<g id="a_node16"><a xlink:href="../../dd/dbe/class_ro_r_frame_listener.html#a9e239911ad148aa76c58202920090f76" target="_top" xlink:title="RoRFrameListener::EnterGameplayLoop">
<polygon fill="white" stroke="black" points="1286,-386.5 1286,-405.5 1478,-405.5 1478,-386.5 1286,-386.5"/>
<text text-anchor="middle" x="1382" y="-393.5" font-family="Helvetica,sans-Serif" font-size="10.00">RoRFrameListener::EnterGameplayLoop</text>
</a>
</g>
</g>
<!-- Node17&#45;&gt;Node18 -->
<g id="edge17" class="edge"><title>Node17&#45;&gt;Node18</title>
<path fill="none" stroke="midnightblue" d="M427.289,-369.22C441.021,-372.215 455.416,-375.004 469,-377 593.283,-395.259 625.383,-396 751,-396 751,-396 751,-396 957.5,-396 1070.36,-396 1200.14,-396 1285.97,-396"/>
<polygon fill="midnightblue" stroke="midnightblue" points="427.951,-365.782 417.428,-367.011 426.421,-372.613 427.951,-365.782"/>
</g>
<!-- Node19 -->
<g id="node17" class="node"><title>Node19</title>
<g id="a_node17"><a xlink:href="../../d7/d35/class_cache_system.html#a4439130b97404a54bca3ca9768586c48" target="_top" xlink:title="CacheSystem::incremental\lCacheUpdate">
<polygon fill="white" stroke="black" points="889.5,-285 889.5,-315 1023.5,-315 1023.5,-285 889.5,-285"/>
<text text-anchor="start" x="897.5" y="-303" font-family="Helvetica,sans-Serif" font-size="10.00">CacheSystem::incremental</text>
<text text-anchor="middle" x="956.5" y="-292" font-family="Helvetica,sans-Serif" font-size="10.00">CacheUpdate</text>
</a>
</g>
</g>
<!-- Node17&#45;&gt;Node19 -->
<g id="edge20" class="edge"><title>Node17&#45;&gt;Node19</title>
<path fill="none" stroke="midnightblue" d="M427.089,-331.924C429.13,-330.69 431.107,-329.384 433,-328 455.107,-311.841 444.628,-290.484 469,-278 617.243,-202.065 825.426,-256.027 913.511,-284.933"/>
<polygon fill="midnightblue" stroke="midnightblue" points="424.975,-329.085 417.798,-336.878 428.269,-335.262 424.975,-329.085"/>
</g>
<!-- Node23 -->
<g id="node21" class="node"><title>Node23</title>
<g id="a_node21"><a xlink:href="../../d7/d35/class_cache_system.html#ac6465dadeeecad40df66f76583fae492" target="_top" xlink:title="CacheSystem::loadAllZips\lInResourceGroup">
<polygon fill="white" stroke="black" points="483.5,-151 483.5,-181 614.5,-181 614.5,-151 483.5,-151"/>
<text text-anchor="start" x="491.5" y="-169" font-family="Helvetica,sans-Serif" font-size="10.00">CacheSystem::loadAllZips</text>
<text text-anchor="middle" x="549" y="-158" font-family="Helvetica,sans-Serif" font-size="10.00">InResourceGroup</text>
</a>
</g>
</g>
<!-- Node17&#45;&gt;Node23 -->
<g id="edge26" class="edge"><title>Node17&#45;&gt;Node23</title>
<path fill="none" stroke="midnightblue" d="M430.17,-330.772C431.15,-329.886 432.094,-328.962 433,-328 476.446,-281.846 425.079,-235.703 469,-190 473.172,-185.659 478.101,-182.097 483.427,-179.174"/>
<polygon fill="midnightblue" stroke="midnightblue" points="427.946,-328.066 422.054,-336.872 432.151,-333.662 427.946,-328.066"/>
</g>
<!-- Node25 -->
<g id="node23" class="node"><title>Node25</title>
<g id="a_node23"><a xlink:href="../../d7/d35/class_cache_system.html#afa2911e77ee5652f6b1739a8b1f334c4" target="_top" xlink:title="CacheSystem::loadAllDirectories\lInResourceGroup">
<polygon fill="white" stroke="black" points="469,-200 469,-230 629,-230 629,-200 469,-200"/>
<text text-anchor="start" x="477" y="-218" font-family="Helvetica,sans-Serif" font-size="10.00">CacheSystem::loadAllDirectories</text>
<text text-anchor="middle" x="549" y="-207" font-family="Helvetica,sans-Serif" font-size="10.00">InResourceGroup</text>
</a>
</g>
</g>
<!-- Node17&#45;&gt;Node25 -->
<g id="edge29" class="edge"><title>Node17&#45;&gt;Node25</title>
<path fill="none" stroke="midnightblue" d="M428.943,-331.37C430.348,-330.303 431.703,-329.18 433,-328 462.732,-300.929 439.917,-272.766 469,-245 475.367,-238.921 483.089,-234.044 491.181,-230.139"/>
<polygon fill="midnightblue" stroke="midnightblue" points="426.902,-328.522 420.417,-336.9 430.711,-334.395 426.902,-328.522"/>
</g>
<!-- Node26 -->
<g id="node24" class="node"><title>Node26</title>
<g id="a_node24"><a xlink:href="../../d7/d35/class_cache_system.html#a89beaf10bee2aa07b474fcc4b9c7782a" target="_top" xlink:title="CacheSystem::checkForNew\lZipsInResourceGroup">
<polygon fill="white" stroke="black" points="477.5,-288 477.5,-318 620.5,-318 620.5,-288 477.5,-288"/>
<text text-anchor="start" x="485.5" y="-306" font-family="Helvetica,sans-Serif" font-size="10.00">CacheSystem::checkForNew</text>
<text text-anchor="middle" x="549" y="-295" font-family="Helvetica,sans-Serif" font-size="10.00">ZipsInResourceGroup</text>
</a>
</g>
</g>
<!-- Node17&#45;&gt;Node26 -->
<g id="edge31" class="edge"><title>Node17&#45;&gt;Node26</title>
<path fill="none" stroke="midnightblue" d="M427.294,-334.377C447.917,-329.016 470.379,-323.177 490.272,-318.006"/>
<polygon fill="midnightblue" stroke="midnightblue" points="426.135,-331.062 417.337,-336.965 427.896,-337.837 426.135,-331.062"/>
</g>
<!-- Node28 -->
<g id="node26" class="node"><title>Node28</title>
<g id="a_node26"><a xlink:href="../../d7/d35/class_cache_system.html#ab2251b8c119efb98588c8c85f882aa3f" target="_top" xlink:title="CacheSystem::checkForNew\lDirectoriesInResourceGroup">
<polygon fill="white" stroke="black" points="477.5,-337 477.5,-367 620.5,-367 620.5,-337 477.5,-337"/>
<text text-anchor="start" x="485.5" y="-355" font-family="Helvetica,sans-Serif" font-size="10.00">CacheSystem::checkForNew</text>
<text text-anchor="middle" x="549" y="-344" font-family="Helvetica,sans-Serif" font-size="10.00">DirectoriesInResourceGroup</text>
</a>
</g>
</g>
<!-- Node17&#45;&gt;Node28 -->
<g id="edge34" class="edge"><title>Node17&#45;&gt;Node28</title>
<path fill="none" stroke="midnightblue" d="M434.753,-352C448.818,-352 463.472,-352 477.391,-352"/>
<polygon fill="midnightblue" stroke="midnightblue" points="434.635,-348.5 424.635,-352 434.635,-355.5 434.635,-348.5"/>
</g>
<!-- Node29 -->
<g id="node27" class="node"><title>Node29</title>
<g id="a_node27"><a xlink:href="../../d2/d9a/class_terrain_geometry_manager.html#a1be850a57cfa62aca477b22c8aee0607" target="_top" xlink:title="TerrainGeometryManager\l::InitTerrain">
<polygon fill="white" stroke="black" points="689,-512 689,-542 815,-542 815,-512 689,-512"/>
<text text-anchor="start" x="697" y="-530" font-family="Helvetica,sans-Serif" font-size="10.00">TerrainGeometryManager</text>
<text text-anchor="middle" x="752" y="-519" font-family="Helvetica,sans-Serif" font-size="10.00">::InitTerrain</text>
</a>
</g>
</g>
<!-- Node17&#45;&gt;Node29 -->
<g id="edge36" class="edge"><title>Node17&#45;&gt;Node29</title>
<path fill="none" stroke="midnightblue" d="M375.057,-375.646C401.972,-416.21 455.631,-495.449 469,-503 536.811,-541.3 628.753,-541.374 688.951,-535.875"/>
<polygon fill="midnightblue" stroke="midnightblue" points="377.875,-373.563 369.438,-367.154 372.038,-377.425 377.875,-373.563"/>
</g>
<!-- Node31 -->
<g id="node29" class="node"><title>Node31</title>
<g id="a_node29"><a xlink:href="../../d6/d14/class_terrain_object_manager.html#a45ccbf51f9c0ecac68927fed5e52eaa4" target="_top" xlink:title="TerrainObjectManager\l::loadObjectConfigFile">
<polygon fill="white" stroke="black" points="493,-463 493,-493 605,-493 605,-463 493,-463"/>
<text text-anchor="start" x="501" y="-481" font-family="Helvetica,sans-Serif" font-size="10.00">TerrainObjectManager</text>
<text text-anchor="middle" x="549" y="-470" font-family="Helvetica,sans-Serif" font-size="10.00">::loadObjectConfigFile</text>
</a>
</g>
</g>
<!-- Node17&#45;&gt;Node31 -->
<g id="edge39" class="edge"><title>Node17&#45;&gt;Node31</title>
<path fill="none" stroke="midnightblue" d="M380.446,-374.53C401.232,-395.816 434.844,-427.463 469,-448 478.556,-453.746 489.4,-458.724 499.926,-462.884"/>
<polygon fill="midnightblue" stroke="midnightblue" points="382.846,-371.976 373.391,-367.196 377.801,-376.829 382.846,-371.976"/>
</g>
<!-- Node18&#45;&gt;Node11 -->
<g id="edge18" class="edge"><title>Node18&#45;&gt;Node11</title>
<path fill="none" stroke="midnightblue" d="M1440.22,-407.501C1471.56,-413.799 1509.94,-421.512 1539.59,-427.471"/>
<polygon fill="midnightblue" stroke="midnightblue" points="1440.81,-404.048 1430.31,-405.509 1439.43,-410.911 1440.81,-404.048"/>
</g>
<!-- Node18&#45;&gt;Node12 -->
<g id="edge19" class="edge"><title>Node18&#45;&gt;Node12</title>
<path fill="none" stroke="midnightblue" d="M1488.2,-390.828C1579.86,-386.323 1705.12,-380.165 1751.38,-377.891"/>
<polygon fill="midnightblue" stroke="midnightblue" points="1487.86,-387.341 1478.04,-391.328 1488.2,-394.332 1487.86,-387.341"/>
</g>
<!-- Node20 -->
<g id="node18" class="node"><title>Node20</title>
<g id="a_node18"><a xlink:href="../../d7/d35/class_cache_system.html#a37e784da57c57f56a428f61a53b4d618" target="_top" xlink:title="CacheSystem::generateCache">
<polygon fill="white" stroke="black" points="1087,-290.5 1087,-309.5 1236,-309.5 1236,-290.5 1087,-290.5"/>
<text text-anchor="middle" x="1161.5" y="-297.5" font-family="Helvetica,sans-Serif" font-size="10.00">CacheSystem::generateCache</text>
</a>
</g>
</g>
<!-- Node19&#45;&gt;Node20 -->
<g id="edge21" class="edge"><title>Node19&#45;&gt;Node20</title>
<path fill="none" stroke="midnightblue" d="M1033.75,-300C1051.08,-300 1069.45,-300 1086.67,-300"/>
<polygon fill="midnightblue" stroke="midnightblue" points="1033.69,-296.5 1023.69,-300 1033.69,-303.5 1033.69,-296.5"/>
</g>
<!-- Node21 -->
<g id="node19" class="node"><title>Node21</title>
<g id="a_node19"><a xlink:href="../../d7/d35/class_cache_system.html#ae010322c2422bf8f8dbfce904257da31" target="_top" xlink:title="CacheSystem::Startup">
<polygon fill="white" stroke="black" points="1324,-304.5 1324,-323.5 1440,-323.5 1440,-304.5 1324,-304.5"/>
<text text-anchor="middle" x="1382" y="-311.5" font-family="Helvetica,sans-Serif" font-size="10.00">CacheSystem::Startup</text>
</a>
</g>
</g>
<!-- Node20&#45;&gt;Node21 -->
<g id="edge22" class="edge"><title>Node20&#45;&gt;Node21</title>
<path fill="none" stroke="midnightblue" d="M1246.37,-305.374C1272.28,-307.034 1300.21,-308.823 1323.87,-310.34"/>
<polygon fill="midnightblue" stroke="midnightblue" points="1246.37,-301.867 1236.17,-304.72 1245.93,-308.853 1246.37,-301.867"/>
</g>
<!-- Node21&#45;&gt;Node12 -->
<g id="edge23" class="edge"><title>Node21&#45;&gt;Node12</title>
<path fill="none" stroke="midnightblue" d="M1440.85,-325.461C1463.88,-329.893 1490.66,-334.88 1515,-339 1603.31,-353.951 1709.4,-368.792 1751.25,-374.524"/>
<polygon fill="midnightblue" stroke="midnightblue" points="1441.37,-321.997 1430.88,-323.534 1440.04,-328.87 1441.37,-321.997"/>
</g>
<!-- Node22 -->
<g id="node20" class="node"><title>Node22</title>
<g id="a_node20"><a xlink:href="../../da/d05/class_ro_r_1_1_content_manager.html#a861b35694f428e463a800052ac0e9f90" target="_top" xlink:title="RoR::ContentManager\l::RegenCache">
<polygon fill="white" stroke="black" points="1531.5,-299 1531.5,-329 1644.5,-329 1644.5,-299 1531.5,-299"/>
<text text-anchor="start" x="1539.5" y="-317" font-family="Helvetica,sans-Serif" font-size="10.00">RoR::ContentManager</text>
<text text-anchor="middle" x="1588" y="-306" font-family="Helvetica,sans-Serif" font-size="10.00">::RegenCache</text>
</a>
</g>
</g>
<!-- Node21&#45;&gt;Node22 -->
<g id="edge24" class="edge"><title>Node21&#45;&gt;Node22</title>
<path fill="none" stroke="midnightblue" d="M1450.35,-314C1476.6,-314 1506.32,-314 1531.33,-314"/>
<polygon fill="midnightblue" stroke="midnightblue" points="1450.1,-310.5 1440.1,-314 1450.1,-317.5 1450.1,-310.5"/>
</g>
<!-- Node22&#45;&gt;Node12 -->
<g id="edge25" class="edge"><title>Node22&#45;&gt;Node12</title>
<path fill="none" stroke="midnightblue" d="M1641.87,-332.452C1678.78,-345.336 1725.83,-361.758 1751.24,-370.626"/>
<polygon fill="midnightblue" stroke="midnightblue" points="1642.83,-329.081 1632.23,-329.09 1640.52,-335.69 1642.83,-329.081"/>
</g>
<!-- Node24 -->
<g id="node22" class="node"><title>Node24</title>
<g id="a_node22"><a xlink:href="../../d7/d35/class_cache_system.html#a2f2307345ec188913271a4cc5220c1bb" target="_top" xlink:title="CacheSystem::loadAllZips">
<polygon fill="white" stroke="black" points="686.5,-205.5 686.5,-224.5 817.5,-224.5 817.5,-205.5 686.5,-205.5"/>
<text text-anchor="middle" x="752" y="-212.5" font-family="Helvetica,sans-Serif" font-size="10.00">CacheSystem::loadAllZips</text>
</a>
</g>
</g>
<!-- Node23&#45;&gt;Node24 -->
<g id="edge27" class="edge"><title>Node23&#45;&gt;Node24</title>
<path fill="none" stroke="midnightblue" d="M621.409,-183.408C651.87,-190.834 686.233,-199.211 711.916,-205.472"/>
<polygon fill="midnightblue" stroke="midnightblue" points="622.217,-180.003 611.673,-181.035 620.559,-186.804 622.217,-180.003"/>
</g>
<!-- Node24&#45;&gt;Node20 -->
<g id="edge28" class="edge"><title>Node24&#45;&gt;Node20</title>
<path fill="none" stroke="midnightblue" d="M808.605,-226.599C889.912,-243.558 1039.72,-274.808 1114.92,-290.493"/>
<polygon fill="midnightblue" stroke="midnightblue" points="809.063,-223.119 798.559,-224.503 807.634,-229.971 809.063,-223.119"/>
</g>
<!-- Node25&#45;&gt;Node24 -->
<g id="edge30" class="edge"><title>Node25&#45;&gt;Node24</title>
<path fill="none" stroke="midnightblue" d="M639.484,-215C655.312,-215 671.51,-215 686.48,-215"/>
<polygon fill="midnightblue" stroke="midnightblue" points="639.152,-211.5 629.152,-215 639.152,-218.5 639.152,-211.5"/>
</g>
<!-- Node27 -->
<g id="node25" class="node"><title>Node27</title>
<g id="a_node25"><a xlink:href="../../d7/d35/class_cache_system.html#ac30fff8eecfc197fc4ccca8c6cf06109" target="_top" xlink:title="CacheSystem::checkForNew\lContent">
<polygon fill="white" stroke="black" points="680.5,-288 680.5,-318 823.5,-318 823.5,-288 680.5,-288"/>
<text text-anchor="start" x="688.5" y="-306" font-family="Helvetica,sans-Serif" font-size="10.00">CacheSystem::checkForNew</text>
<text text-anchor="middle" x="752" y="-295" font-family="Helvetica,sans-Serif" font-size="10.00">Content</text>
</a>
</g>
</g>
<!-- Node26&#45;&gt;Node27 -->
<g id="edge32" class="edge"><title>Node26&#45;&gt;Node27</title>
<path fill="none" stroke="midnightblue" d="M630.684,-303C647.086,-303 664.222,-303 680.248,-303"/>
<polygon fill="midnightblue" stroke="midnightblue" points="630.582,-299.5 620.582,-303 630.582,-306.5 630.582,-299.5"/>
</g>
<!-- Node27&#45;&gt;Node19 -->
<g id="edge33" class="edge"><title>Node27&#45;&gt;Node19</title>
<path fill="none" stroke="midnightblue" d="M833.677,-301.805C852.128,-301.531 871.53,-301.244 889.292,-300.981"/>
<polygon fill="midnightblue" stroke="midnightblue" points="833.487,-298.307 823.54,-301.955 833.591,-305.306 833.487,-298.307"/>
</g>
<!-- Node28&#45;&gt;Node27 -->
<g id="edge35" class="edge"><title>Node28&#45;&gt;Node27</title>
<path fill="none" stroke="midnightblue" d="M621.391,-334.596C643.626,-329.176 667.942,-323.248 689.444,-318.006"/>
<polygon fill="midnightblue" stroke="midnightblue" points="620.559,-331.196 611.673,-336.965 622.217,-337.997 620.559,-331.196"/>
</g>
<!-- Node30 -->
<g id="node28" class="node"><title>Node30</title>
<g id="a_node28"><a xlink:href="../../d3/d16/class_terrain_manager.html#a9a04c837bf2ea6528c465b27ca62f730" target="_top" xlink:title="TerrainManager::loadTerrain">
<polygon fill="white" stroke="black" points="888,-468.5 888,-487.5 1025,-487.5 1025,-468.5 888,-468.5"/>
<text text-anchor="middle" x="956.5" y="-475.5" font-family="Helvetica,sans-Serif" font-size="10.00">TerrainManager::loadTerrain</text>
</a>
</g>
</g>
<!-- Node29&#45;&gt;Node30 -->
<g id="edge37" class="edge"><title>Node29&#45;&gt;Node30</title>
<path fill="none" stroke="midnightblue" d="M824.942,-509.592C855.63,-502.166 890.249,-493.789 916.124,-487.528"/>
<polygon fill="midnightblue" stroke="midnightblue" points="824.029,-506.212 815.133,-511.965 825.676,-513.015 824.029,-506.212"/>
</g>
<!-- Node30&#45;&gt;Node9 -->
<g id="edge38" class="edge"><title>Node30&#45;&gt;Node9</title>
<path fill="none" stroke="midnightblue" d="M1035.51,-476.847C1051.57,-476.61 1068.46,-476.36 1084.44,-476.124"/>
<polygon fill="midnightblue" stroke="midnightblue" points="1035.04,-473.354 1025.1,-477.001 1035.15,-480.353 1035.04,-473.354"/>
</g>
<!-- Node32 -->
<g id="node30" class="node"><title>Node32</title>
<g id="a_node30"><a xlink:href="../../d3/d16/class_terrain_manager.html#a4ad87b973cb6af52daaf530a5feff167" target="_top" xlink:title="TerrainManager::loadTerrain\lObjects">
<polygon fill="white" stroke="black" points="683.5,-463 683.5,-493 820.5,-493 820.5,-463 683.5,-463"/>
<text text-anchor="start" x="691.5" y="-481" font-family="Helvetica,sans-Serif" font-size="10.00">TerrainManager::loadTerrain</text>
<text text-anchor="middle" x="752" y="-470" font-family="Helvetica,sans-Serif" font-size="10.00">Objects</text>
</a>
</g>
</g>
<!-- Node31&#45;&gt;Node32 -->
<g id="edge40" class="edge"><title>Node31&#45;&gt;Node32</title>
<path fill="none" stroke="midnightblue" d="M615.334,-478C637.124,-478 661.438,-478 683.397,-478"/>
<polygon fill="midnightblue" stroke="midnightblue" points="615.19,-474.5 605.19,-478 615.19,-481.5 615.19,-474.5"/>
</g>
<!-- Node32&#45;&gt;Node30 -->
<g id="edge41" class="edge"><title>Node32&#45;&gt;Node30</title>
<path fill="none" stroke="midnightblue" d="M830.734,-478C849.56,-478 869.534,-478 887.853,-478"/>
<polygon fill="midnightblue" stroke="midnightblue" points="830.711,-474.5 820.711,-478 830.711,-481.5 830.711,-474.5"/>
</g>
<!-- Node34 -->
<g id="node32" class="node"><title>Node34</title>
<g id="a_node32"><a xlink:href="../../d4/d14/class_ro_r_1_1_main_menu.html#ab571dc971207c47c7bf6a0782c5d5eea" target="_top" xlink:title="RoR::MainMenu::LeaveMultiplayer\lServer">
<polygon fill="white" stroke="black" points="1079.5,-548 1079.5,-578 1243.5,-578 1243.5,-548 1079.5,-548"/>
<text text-anchor="start" x="1087.5" y="-566" font-family="Helvetica,sans-Serif" font-size="10.00">RoR::MainMenu::LeaveMultiplayer</text>
<text text-anchor="middle" x="1161.5" y="-555" font-family="Helvetica,sans-Serif" font-size="10.00">Server</text>
</a>
</g>
</g>
<!-- Node33&#45;&gt;Node34 -->
<g id="edge43" class="edge"><title>Node33&#45;&gt;Node34</title>
<path fill="none" stroke="midnightblue" d="M1032.45,-589.492C1050.5,-585.758 1069.75,-581.775 1087.7,-578.062"/>
<polygon fill="midnightblue" stroke="midnightblue" points="1031.65,-586.084 1022.57,-591.538 1033.07,-592.939 1031.65,-586.084"/>
</g>
<!-- Node34&#45;&gt;Node10 -->
<g id="edge44" class="edge"><title>Node34&#45;&gt;Node10</title>
<path fill="none" stroke="midnightblue" d="M1209.42,-544.102C1254.93,-525.776 1322.1,-498.72 1357.38,-484.511"/>
<polygon fill="midnightblue" stroke="midnightblue" points="1208.03,-540.89 1200.06,-547.872 1210.65,-547.383 1208.03,-540.89"/>
</g>
<!-- Node38 -->
<g id="node36" class="node"><title>Node38</title>
<g id="a_node36"><a xlink:href="../../d6/d19/class_ro_r_1_1_g_u_i_1_1_top_menubar.html#a70583f192ad3c430862d4e17afac2a2f" target="_top" xlink:title="RoR::GUI::TopMenubar\l::vehiclesListUpdate">
<polygon fill="white" stroke="black" points="490.5,-63 490.5,-93 607.5,-93 607.5,-63 490.5,-63"/>
<text text-anchor="start" x="498.5" y="-81" font-family="Helvetica,sans-Serif" font-size="10.00">RoR::GUI::TopMenubar</text>
<text text-anchor="middle" x="549" y="-70" font-family="Helvetica,sans-Serif" font-size="10.00">::vehiclesListUpdate</text>
</a>
</g>
</g>
<!-- Node37&#45;&gt;Node38 -->
<g id="edge48" class="edge"><title>Node37&#45;&gt;Node38</title>
<path fill="none" stroke="midnightblue" d="M426.223,-284.324C428.667,-282.417 430.945,-280.316 433,-278 484.261,-220.234 418.759,-166.656 469,-108 474.822,-101.203 482.354,-95.9421 490.452,-91.8709"/>
<polygon fill="midnightblue" stroke="midnightblue" points="423.833,-281.703 417.354,-290.086 427.647,-287.573 423.833,-281.703"/>
</g>
<!-- Node48 -->
<g id="node46" class="node"><title>Node48</title>
<g id="a_node46"><a xlink:href="../../d6/d19/class_ro_r_1_1_g_u_i_1_1_top_menubar.html#a1a4c2b4a27eb2a018b6b8ea49528f22a" target="_top" xlink:title="RoR::GUI::TopMenubar\l::SetSimController">
<polygon fill="white" stroke="black" points="693.5,-112 693.5,-142 810.5,-142 810.5,-112 693.5,-112"/>
<text text-anchor="start" x="701.5" y="-130" font-family="Helvetica,sans-Serif" font-size="10.00">RoR::GUI::TopMenubar</text>
<text text-anchor="middle" x="752" y="-119" font-family="Helvetica,sans-Serif" font-size="10.00">::SetSimController</text>
</a>
</g>
</g>
<!-- Node37&#45;&gt;Node48 -->
<g id="edge62" class="edge"><title>Node37&#45;&gt;Node48</title>
<path fill="none" stroke="midnightblue" d="M426.086,-284.199C428.567,-282.325 430.89,-280.265 433,-278 475.911,-231.934 420.115,-180.67 469,-141 502.162,-114.089 620.831,-117.326 693.24,-122.138"/>
<polygon fill="midnightblue" stroke="midnightblue" points="423.698,-281.568 417.123,-289.876 427.444,-287.482 423.698,-281.568"/>
</g>
<!-- Node39 -->
<g id="node37" class="node"><title>Node39</title>
<g id="a_node37"><a xlink:href="../../d6/d19/class_ro_r_1_1_g_u_i_1_1_top_menubar.html#a85cdceff2c0f1196726097bc04953567" target="_top" xlink:title="RoR::GUI::TopMenubar\l::updatePositionUponMousePosition">
<polygon fill="white" stroke="black" points="665,-63 665,-93 839,-93 839,-63 665,-63"/>
<text text-anchor="start" x="673" y="-81" font-family="Helvetica,sans-Serif" font-size="10.00">RoR::GUI::TopMenubar</text>
<text text-anchor="middle" x="752" y="-70" font-family="Helvetica,sans-Serif" font-size="10.00">::updatePositionUponMousePosition</text>
</a>
</g>
</g>
<!-- Node38&#45;&gt;Node39 -->
<g id="edge49" class="edge"><title>Node38&#45;&gt;Node39</title>
<path fill="none" stroke="midnightblue" d="M617.863,-78C632.972,-78 649.185,-78 664.917,-78"/>
<polygon fill="midnightblue" stroke="midnightblue" points="617.599,-74.5001 607.599,-78 617.598,-81.5001 617.599,-74.5001"/>
</g>
<!-- Node38&#45;&gt;Node48 -->
<g id="edge59" class="edge"><title>Node38&#45;&gt;Node48</title>
<path fill="none" stroke="midnightblue" d="M617.58,-94.4747C642.18,-100.472 669.738,-107.19 693.393,-112.957"/>
<polygon fill="midnightblue" stroke="midnightblue" points="618.143,-91.0095 607.599,-92.0414 616.485,-97.8104 618.143,-91.0095"/>
</g>
<!-- Node40 -->
<g id="node38" class="node"><title>Node40</title>
<g id="a_node38"><a xlink:href="../../db/df1/class_g_u_i_input_manager.html#a2f52a8c0b01fca8c55a954bdb7d2ab79" target="_top" xlink:title="GUIInputManager::mouseMoved">
<polygon fill="white" stroke="black" points="879,-0.5 879,-19.5 1034,-19.5 1034,-0.5 879,-0.5"/>
<text text-anchor="middle" x="956.5" y="-7.5" font-family="Helvetica,sans-Serif" font-size="10.00">GUIInputManager::mouseMoved</text>
</a>
</g>
</g>
<!-- Node39&#45;&gt;Node40 -->
<g id="edge50" class="edge"><title>Node39&#45;&gt;Node40</title>
<path fill="none" stroke="midnightblue" d="M823.302,-59.5121C828.688,-57.5069 833.978,-55.3365 839,-53 856.435,-44.8886 857.363,-36.6632 875,-29 883.824,-25.1659 893.543,-22.0373 903.085,-19.5075"/>
<polygon fill="midnightblue" stroke="midnightblue" points="821.814,-56.325 813.541,-62.9433 824.136,-62.9289 821.814,-56.325"/>
</g>
<!-- Node45 -->
<g id="node43" class="node"><title>Node45</title>
<g id="a_node43"><a xlink:href="../../db/df1/class_g_u_i_input_manager.html#a2e10c3db1bd7068fc87476ce1cceb7c6" target="_top" xlink:title="GUIInputManager::mousePressed">
<polygon fill="white" stroke="black" points="875,-137.5 875,-156.5 1038,-156.5 1038,-137.5 875,-137.5"/>
<text text-anchor="middle" x="956.5" y="-144.5" font-family="Helvetica,sans-Serif" font-size="10.00">GUIInputManager::mousePressed</text>
</a>
</g>
</g>
<!-- Node39&#45;&gt;Node45 -->
<g id="edge55" class="edge"><title>Node39&#45;&gt;Node45</title>
<path fill="none" stroke="midnightblue" d="M826.126,-96.5501C830.54,-98.2398 834.864,-100.055 839,-102 856.628,-110.29 857.255,-118.964 875,-127 884.445,-131.277 894.945,-134.731 905.159,-137.485"/>
<polygon fill="midnightblue" stroke="midnightblue" points="826.952,-93.1283 816.358,-93.0501 824.591,-99.7181 826.952,-93.1283"/>
</g>
<!-- Node46 -->
<g id="node44" class="node"><title>Node46</title>
<g id="a_node44"><a xlink:href="../../d6/d19/class_ro_r_1_1_g_u_i_1_1_top_menubar.html#aba4f8b1030da3a9d3b4394562d60a05a" target="_top" xlink:title="RoR::GUI::TopMenubar\l::TopMenubar">
<polygon fill="white" stroke="black" points="898,-88 898,-118 1015,-118 1015,-88 898,-88"/>
<text text-anchor="start" x="906" y="-106" font-family="Helvetica,sans-Serif" font-size="10.00">RoR::GUI::TopMenubar</text>
<text text-anchor="middle" x="956.5" y="-95" font-family="Helvetica,sans-Serif" font-size="10.00">::TopMenubar</text>
</a>
</g>
</g>
<!-- Node39&#45;&gt;Node46 -->
<g id="edge57" class="edge"><title>Node39&#45;&gt;Node46</title>
<path fill="none" stroke="midnightblue" d="M849.439,-89.906C865.989,-91.9493 882.712,-94.0138 897.831,-95.8804"/>
<polygon fill="midnightblue" stroke="midnightblue" points="849.525,-86.3902 839.172,-88.6385 848.668,-93.3375 849.525,-86.3902"/>
</g>
<!-- Node47 -->
<g id="node45" class="node"><title>Node47</title>
<g id="a_node45"><a xlink:href="../../d6/d19/class_ro_r_1_1_g_u_i_1_1_top_menubar.html#a180dd47d14be5a44450e0569c5dd8522" target="_top" xlink:title="RoR::GUI::TopMenubar\l::getMenuHeight">
<polygon fill="white" stroke="black" points="898,-39 898,-69 1015,-69 1015,-39 898,-39"/>
<text text-anchor="start" x="906" y="-57" font-family="Helvetica,sans-Serif" font-size="10.00">RoR::GUI::TopMenubar</text>
<text text-anchor="middle" x="956.5" y="-46" font-family="Helvetica,sans-Serif" font-size="10.00">::getMenuHeight</text>
</a>
</g>
</g>
<!-- Node39&#45;&gt;Node47 -->
<g id="edge58" class="edge"><title>Node39&#45;&gt;Node47</title>
<path fill="none" stroke="midnightblue" d="M849.439,-66.5702C865.989,-64.6087 882.712,-62.6268 897.831,-60.8348"/>
<polygon fill="midnightblue" stroke="midnightblue" points="848.69,-63.1343 839.172,-67.787 849.514,-70.0857 848.69,-63.1343"/>
</g>
<!-- Node41 -->
<g id="node39" class="node"><title>Node41</title>
<g id="a_node39"><a xlink:href="../../db/df1/class_g_u_i_input_manager.html#ab59361b8e1a9e31e53b5e5523f2b4801" target="_top" xlink:title="GUIInputManager::getLast\lMouseMoveTime">
<polygon fill="white" stroke="black" points="1096.5,-64 1096.5,-94 1226.5,-94 1226.5,-64 1096.5,-64"/>
<text text-anchor="start" x="1104.5" y="-82" font-family="Helvetica,sans-Serif" font-size="10.00">GUIInputManager::getLast</text>
<text text-anchor="middle" x="1161.5" y="-71" font-family="Helvetica,sans-Serif" font-size="10.00">MouseMoveTime</text>
</a>
</g>
</g>
<!-- Node40&#45;&gt;Node41 -->
<g id="edge51" class="edge"><title>Node40&#45;&gt;Node41</title>
<path fill="none" stroke="midnightblue" d="M1013.15,-21.9372C1021.53,-24.081 1030.04,-26.4525 1038,-29 1069.07,-38.9398 1103.36,-53.2365 1127.74,-63.9985"/>
<polygon fill="midnightblue" stroke="midnightblue" points="1013.94,-18.5282 1003.39,-19.5284 1012.26,-25.324 1013.94,-18.5282"/>
</g>
<!-- Node42 -->
<g id="node40" class="node"><title>Node42</title>
<g id="a_node40"><a xlink:href="../../d8/d11/class_ro_r_1_1_g_u_i_manager.html#aae1570a62049085aa74ce274ac9a70ad" target="_top" xlink:title="RoR::GUIManager::frameStarted">
<polygon fill="white" stroke="black" points="1303.5,-69.5 1303.5,-88.5 1460.5,-88.5 1460.5,-69.5 1303.5,-69.5"/>
<text text-anchor="middle" x="1382" y="-76.5" font-family="Helvetica,sans-Serif" font-size="10.00">RoR::GUIManager::frameStarted</text>
</a>
</g>
</g>
<!-- Node41&#45;&gt;Node42 -->
<g id="edge52" class="edge"><title>Node41&#45;&gt;Node42</title>
<path fill="none" stroke="midnightblue" d="M1236.63,-79C1258.13,-79 1281.67,-79 1303.38,-79"/>
<polygon fill="midnightblue" stroke="midnightblue" points="1236.58,-75.5001 1226.58,-79 1236.58,-82.5001 1236.58,-75.5001"/>
</g>
<!-- Node43 -->
<g id="node41" class="node"><title>Node43</title>
<g id="a_node41"><a xlink:href="../../d8/d11/class_ro_r_1_1_g_u_i_manager.html#a4ab273bd0538649818c84b38e8a06100" target="_top" xlink:title="RoR::GUIManager::GetTheme">
<polygon fill="white" stroke="black" points="1515,-69.5 1515,-88.5 1661,-88.5 1661,-69.5 1515,-69.5"/>
<text text-anchor="middle" x="1588" y="-76.5" font-family="Helvetica,sans-Serif" font-size="10.00">RoR::GUIManager::GetTheme</text>
</a>
</g>
</g>
<!-- Node42&#45;&gt;Node43 -->
<g id="edge53" class="edge"><title>Node42&#45;&gt;Node43</title>
<path fill="none" stroke="midnightblue" d="M1470.81,-79C1485.51,-79 1500.62,-79 1514.88,-79"/>
<polygon fill="midnightblue" stroke="midnightblue" points="1470.71,-75.5001 1460.71,-79 1470.71,-82.5001 1470.71,-75.5001"/>
</g>
<!-- Node44 -->
<g id="node42" class="node"><title>Node44</title>
<g id="a_node42"><a xlink:href="../../d4/d8f/class_ro_r_1_1_g_u_i_1_1_multiplayer_selector.html#a8c98e9ba03c8afb1d1a26ec06192862e" target="_top" xlink:title="RoR::GUI::MultiplayerSelector\l::~MultiplayerSelector">
<polygon fill="white" stroke="black" points="1697,-64 1697,-94 1844,-94 1844,-64 1697,-64"/>
<text text-anchor="start" x="1705" y="-82" font-family="Helvetica,sans-Serif" font-size="10.00">RoR::GUI::MultiplayerSelector</text>
<text text-anchor="middle" x="1770.5" y="-71" font-family="Helvetica,sans-Serif" font-size="10.00">::~MultiplayerSelector</text>
</a>
</g>
</g>
<!-- Node43&#45;&gt;Node44 -->
<g id="edge54" class="edge"><title>Node43&#45;&gt;Node44</title>
<path fill="none" stroke="midnightblue" d="M1671.14,-79C1679.74,-79 1688.43,-79 1696.91,-79"/>
<polygon fill="midnightblue" stroke="midnightblue" points="1671.12,-75.5001 1661.12,-79 1671.12,-82.5001 1671.12,-75.5001"/>
</g>
<!-- Node45&#45;&gt;Node41 -->
<g id="edge56" class="edge"><title>Node45&#45;&gt;Node41</title>
<path fill="none" stroke="midnightblue" d="M1010.33,-134.917C1019.61,-132.499 1029.13,-129.826 1038,-127 1068.03,-117.43 1101.28,-104.229 1125.56,-94.0932"/>
<polygon fill="midnightblue" stroke="midnightblue" points="1009.24,-131.585 1000.4,-137.436 1010.96,-138.37 1009.24,-131.585"/>
</g>
<!-- Node49 -->
<g id="node47" class="node"><title>Node49</title>
<g id="a_node47"><a xlink:href="../../d8/d11/class_ro_r_1_1_g_u_i_manager.html#a875185e93587aeb2ab73220c1d2d4fc8" target="_top" xlink:title="RoR::GUIManager::SetSimController">
<polygon fill="white" stroke="black" points="1074,-227.5 1074,-246.5 1249,-246.5 1249,-227.5 1074,-227.5"/>
<text text-anchor="middle" x="1161.5" y="-234.5" font-family="Helvetica,sans-Serif" font-size="10.00">RoR::GUIManager::SetSimController</text>
</a>
</g>
</g>
<!-- Node48&#45;&gt;Node49 -->
<g id="edge60" class="edge"><title>Node48&#45;&gt;Node49</title>
<path fill="none" stroke="midnightblue" d="M807.411,-145.236C828.435,-152.061 852.748,-159.684 875,-166 960.74,-190.337 1062.25,-214.485 1118.19,-227.394"/>
<polygon fill="midnightblue" stroke="midnightblue" points="808.283,-141.84 797.691,-142.063 806.11,-148.494 808.283,-141.84"/>
</g>
<!-- Node49&#45;&gt;Node18 -->
<g id="edge61" class="edge"><title>Node49&#45;&gt;Node18</title>
<path fill="none" stroke="midnightblue" d="M1198.52,-250.513C1215.07,-257.87 1234.25,-268.122 1249,-281 1270.17,-299.49 1264.88,-313.372 1285,-333 1308.55,-355.969 1341.62,-375.501 1362.16,-386.485"/>
<polygon fill="midnightblue" stroke="midnightblue" points="1199.71,-247.213 1189.14,-246.517 1196.97,-253.654 1199.71,-247.213"/>
</g>
</g>
</svg>
