<?xml version="1.0" encoding="UTF-8" standalone="no"?>
<!DOCTYPE svg PUBLIC "-//W3C//DTD SVG 1.1//EN"
 "http://www.w3.org/Graphics/SVG/1.1/DTD/svg11.dtd">
<!-- Generated by graphviz version 2.38.0 (20140413.2041)
 -->
<!-- Title: RoR::GUI::TeleportWindow::TeleportWindow Pages: 1 -->
<!--zoomable 301 -->
<svg id="main" version="1.1" xmlns="http://www.w3.org/2000/svg" xmlns:xlink="http://www.w3.org/1999/xlink" xml:space="preserve" onload="init(evt)">
<style type="text/css"><![CDATA[
.edge:hover path { stroke: red; }
.edge:hover polygon { stroke: red; fill: red; }
]]></style>
<script type="text/javascript"><![CDATA[
var edges = document.getElementsByTagName('g');
if (edges && edges.length) {
  for (var i=0;i<edges.length;i++) {
    if (edges[i].id.substr(0,4)=='edge') {
      edges[i].setAttribute('class','edge');
    }
  }
}
]]></script>
        <defs>
                <circle id="rim" cx="0" cy="0" r="7"/>
                <circle id="rim2" cx="0" cy="0" r="3.5"/>
                <g id="zoomPlus">
                        <use xlink:href="#rim" fill="#404040">
                                <set attributeName="fill" to="#808080" begin="zoomplus.mouseover" end="zoomplus.mouseout"/>
                        </use>
                        <path d="M-4,0h8M0,-4v8" fill="none" stroke="white" stroke-width="1.5" pointer-events="none"/>
                </g>
                <g id="zoomMin">
                        <use xlink:href="#rim" fill="#404040">
                                <set attributeName="fill" to="#808080" begin="zoomminus.mouseover" end="zoomminus.mouseout"/>
                        </use>
                        <path d="M-4,0h8" fill="none" stroke="white" stroke-width="1.5" pointer-events="none"/>
                </g>
                <g id="dirArrow">
                        <path fill="none" stroke="white" stroke-width="1.5" d="M0,-3.0v7 M-2.5,-0.5L0,-3.0L2.5,-0.5"/>
                </g>
               <g id="resetDef">
                       <use xlink:href="#rim2" fill="#404040">
                               <set attributeName="fill" to="#808080" begin="reset.mouseover" end="reset.mouseout"/>
                       </use>
               </g>
        </defs>

<script type="text/javascript">
var viewWidth = 869;
var viewHeight = 301;
var sectionId = 'dynsection-2';
</script>
<script xlink:href="../../svgpan.js"/>
<svg id="graph" class="graph">
<g id="viewport">
<title>RoR::GUI::TeleportWindow::TeleportWindow</title>
<polygon fill="white" stroke="none" points="-4,4 -4,-297 865,-297 865,4 -4,4"/>
<!-- Node0 -->
<g id="node1" class="node"><title>Node0</title>
<polygon fill="#bfbfbf" stroke="black" points="0,-117.5 0,-147.5 133,-147.5 133,-117.5 0,-117.5"/>
<text text-anchor="start" x="8" y="-135.5" font-family="Helvetica,sans-Serif" font-size="10.00">RoR::GUI::TeleportWindow</text>
<text text-anchor="middle" x="66.5" y="-124.5" font-family="Helvetica,sans-Serif" font-size="10.00">::TeleportWindow</text>
</g>
<!-- Node1 -->
<g id="node2" class="node"><title>Node1</title>
<g id="a_node2"><a xlink:href="../../d2/deb/class_ro_r_1_1_g_u_i_1_1_teleport_window.html#a135f8c66e05e6d66a7faedb12af85c51" target="_top" xlink:title="RoR::GUI::TeleportWindow\l::WindowButtonClicked">
<polygon fill="white" stroke="black" points="169,-240.5 169,-270.5 302,-270.5 302,-240.5 169,-240.5"/>
<text text-anchor="start" x="177" y="-258.5" font-family="Helvetica,sans-Serif" font-size="10.00">RoR::GUI::TeleportWindow</text>
<text text-anchor="middle" x="235.5" y="-247.5" font-family="Helvetica,sans-Serif" font-size="10.00">::WindowButtonClicked</text>
</a>
</g>
</g>
<!-- Node0&#45;&gt;Node1 -->
<g id="edge1" class="edge"><title>Node0&#45;&gt;Node1</title>
<path fill="none" stroke="midnightblue" d="M79.4051,-147.608C96.9479,-168.972 131.717,-208.017 169,-231.5 171.581,-233.126 174.288,-234.664 177.072,-236.116"/>
<polygon fill="midnightblue" stroke="midnightblue" points="175.63,-239.306 186.161,-240.462 178.649,-232.991 175.63,-239.306"/>
</g>
<!-- Node3 -->
<g id="node4" class="node"><title>Node3</title>
<g id="a_node4"><a xlink:href="../../d2/deb/class_ro_r_1_1_g_u_i_1_1_teleport_window.html#a87bfa23dc497fc3067caee4b7d633b53" target="_top" xlink:title="RoR::GUI::TeleportWindow\l::MinimapPanelResized">
<polygon fill="white" stroke="black" points="169,-142.5 169,-172.5 302,-172.5 302,-142.5 169,-142.5"/>
<text text-anchor="start" x="177" y="-160.5" font-family="Helvetica,sans-Serif" font-size="10.00">RoR::GUI::TeleportWindow</text>
<text text-anchor="middle" x="235.5" y="-149.5" font-family="Helvetica,sans-Serif" font-size="10.00">::MinimapPanelResized</text>
</a>
</g>
</g>
<!-- Node0&#45;&gt;Node3 -->
<g id="edge3" class="edge"><title>Node0&#45;&gt;Node3</title>
<path fill="none" stroke="midnightblue" d="M133.024,-142.309C141.496,-143.577 150.228,-144.884 158.847,-146.175"/>
<polygon fill="midnightblue" stroke="midnightblue" points="158.483,-149.659 168.891,-147.678 159.52,-142.736 158.483,-149.659"/>
</g>
<!-- Node5 -->
<g id="node6" class="node"><title>Node5</title>
<g id="a_node6"><a xlink:href="../../d2/deb/class_ro_r_1_1_g_u_i_1_1_teleport_window.html#ac12c3b21c2d449c71b26173369aa3a38" target="_top" xlink:title="RoR::GUI::TeleportWindow\l::MinimapGotFocus">
<polygon fill="white" stroke="black" points="169,-93.5 169,-123.5 302,-123.5 302,-93.5 169,-93.5"/>
<text text-anchor="start" x="177" y="-111.5" font-family="Helvetica,sans-Serif" font-size="10.00">RoR::GUI::TeleportWindow</text>
<text text-anchor="middle" x="235.5" y="-100.5" font-family="Helvetica,sans-Serif" font-size="10.00">::MinimapGotFocus</text>
</a>
</g>
</g>
<!-- Node0&#45;&gt;Node5 -->
<g id="edge5" class="edge"><title>Node0&#45;&gt;Node5</title>
<path fill="none" stroke="midnightblue" d="M133.024,-123.083C141.496,-121.866 150.228,-120.611 158.847,-119.372"/>
<polygon fill="midnightblue" stroke="midnightblue" points="159.491,-122.816 168.891,-117.929 158.495,-115.887 159.491,-122.816"/>
</g>
<!-- Node12 -->
<g id="node13" class="node"><title>Node12</title>
<g id="a_node13"><a xlink:href="../../d2/deb/class_ro_r_1_1_g_u_i_1_1_teleport_window.html#af5ee78f38d36e527dcf15acba2c1645d" target="_top" xlink:title="RoR::GUI::TeleportWindow\l::MinimapLostFocus">
<polygon fill="white" stroke="black" points="169,-44.5 169,-74.5 302,-74.5 302,-44.5 169,-44.5"/>
<text text-anchor="start" x="177" y="-62.5" font-family="Helvetica,sans-Serif" font-size="10.00">RoR::GUI::TeleportWindow</text>
<text text-anchor="middle" x="235.5" y="-51.5" font-family="Helvetica,sans-Serif" font-size="10.00">::MinimapLostFocus</text>
</a>
</g>
</g>
<!-- Node0&#45;&gt;Node12 -->
<g id="edge12" class="edge"><title>Node0&#45;&gt;Node12</title>
<path fill="none" stroke="midnightblue" d="M96.9037,-117.355C116.981,-107.25 144.314,-93.9514 169,-83.5 173.191,-81.7257 177.563,-79.9551 181.972,-78.2255"/>
<polygon fill="midnightblue" stroke="midnightblue" points="183.548,-81.3698 191.63,-74.5187 181.039,-74.8346 183.548,-81.3698"/>
</g>
<!-- Node13 -->
<g id="node14" class="node"><title>Node13</title>
<g id="a_node14"><a xlink:href="../../d2/deb/class_ro_r_1_1_g_u_i_1_1_teleport_window.html#a442e1ebe368a4b44d7c4d701f62401d0" target="_top" xlink:title="RoR::GUI::TeleportWindow\l::MinimapMouseMoved">
<polygon fill="white" stroke="black" points="349,-0.5 349,-30.5 482,-30.5 482,-0.5 349,-0.5"/>
<text text-anchor="start" x="357" y="-18.5" font-family="Helvetica,sans-Serif" font-size="10.00">RoR::GUI::TeleportWindow</text>
<text text-anchor="middle" x="415.5" y="-7.5" font-family="Helvetica,sans-Serif" font-size="10.00">::MinimapMouseMoved</text>
</a>
</g>
</g>
<!-- Node0&#45;&gt;Node13 -->
<g id="edge14" class="edge"><title>Node0&#45;&gt;Node13</title>
<path fill="none" stroke="midnightblue" d="M77.8479,-117.251C94.1924,-94.6015 128.341,-52.7818 169,-34.5 222.164,-10.5958 288.343,-6.76588 338.59,-8.40725"/>
<polygon fill="midnightblue" stroke="midnightblue" points="338.605,-11.9106 348.738,-8.81962 338.889,-4.91642 338.605,-11.9106"/>
</g>
<!-- Node14 -->
<g id="node15" class="node"><title>Node14</title>
<g id="a_node15"><a xlink:href="../../d2/deb/class_ro_r_1_1_g_u_i_1_1_teleport_window.html#ac008aab0ca2d7d5cc6ab54db3ce62ca4" target="_top" xlink:title="RoR::GUI::TeleportWindow\l::MinimapMouseClick">
<polygon fill="white" stroke="black" points="169,-191.5 169,-221.5 302,-221.5 302,-191.5 169,-191.5"/>
<text text-anchor="start" x="177" y="-209.5" font-family="Helvetica,sans-Serif" font-size="10.00">RoR::GUI::TeleportWindow</text>
<text text-anchor="middle" x="235.5" y="-198.5" font-family="Helvetica,sans-Serif" font-size="10.00">::MinimapMouseClick</text>
</a>
</g>
</g>
<!-- Node0&#45;&gt;Node14 -->
<g id="edge16" class="edge"><title>Node0&#45;&gt;Node14</title>
<path fill="none" stroke="midnightblue" d="M96.9495,-147.538C117.046,-157.597 144.384,-170.884 169,-181.5 173.767,-183.556 178.765,-185.621 183.783,-187.635"/>
<polygon fill="midnightblue" stroke="midnightblue" points="182.817,-191.016 193.404,-191.429 185.385,-184.504 182.817,-191.016"/>
</g>
<!-- Node2 -->
<g id="node3" class="node"><title>Node2</title>
<g id="a_node3"><a xlink:href="../../d2/deb/class_ro_r_1_1_g_u_i_1_1_teleport_window.html#a1c248474eb6ec88894e7f85ad0b4eab8" target="_top" xlink:title="RoR::GUI::TeleportWindow\l::SetVisible">
<polygon fill="white" stroke="black" points="349,-240.5 349,-270.5 482,-270.5 482,-240.5 349,-240.5"/>
<text text-anchor="start" x="357" y="-258.5" font-family="Helvetica,sans-Serif" font-size="10.00">RoR::GUI::TeleportWindow</text>
<text text-anchor="middle" x="415.5" y="-247.5" font-family="Helvetica,sans-Serif" font-size="10.00">::SetVisible</text>
</a>
</g>
</g>
<!-- Node1&#45;&gt;Node2 -->
<g id="edge2" class="edge"><title>Node1&#45;&gt;Node2</title>
<path fill="none" stroke="midnightblue" d="M302.022,-255.5C313.949,-255.5 326.481,-255.5 338.675,-255.5"/>
<polygon fill="midnightblue" stroke="midnightblue" points="338.819,-259 348.819,-255.5 338.819,-252 338.819,-259"/>
</g>
<!-- Node4 -->
<g id="node5" class="node"><title>Node4</title>
<g id="a_node5"><a xlink:href="../../d6/d0d/namespace_ro_r_1_1_g_u_i.html#a7ca4dff31ec293bd641f4ed18d0ccde1" target="_top" xlink:title="RoR::GUI::GetTeleIconUserdata">
<polygon fill="white" stroke="black" points="338,-148 338,-167 493,-167 493,-148 338,-148"/>
<text text-anchor="middle" x="415.5" y="-155" font-family="Helvetica,sans-Serif" font-size="10.00">RoR::GUI::GetTeleIconUserdata</text>
</a>
</g>
</g>
<!-- Node3&#45;&gt;Node4 -->
<g id="edge4" class="edge"><title>Node3&#45;&gt;Node4</title>
<path fill="none" stroke="midnightblue" d="M302.022,-157.5C310.43,-157.5 319.138,-157.5 327.817,-157.5"/>
<polygon fill="midnightblue" stroke="midnightblue" points="327.972,-161 337.972,-157.5 327.972,-154 327.972,-161"/>
</g>
<!-- Node6 -->
<g id="node7" class="node"><title>Node6</title>
<g id="a_node7"><a xlink:href="../../d2/deb/class_ro_r_1_1_g_u_i_1_1_teleport_window.html#abbaeda3e7eb3f9f57145cbff0827f8a2" target="_top" xlink:title="RoR::GUI::TeleportWindow\l::ShowAltmodeCursor">
<polygon fill="white" stroke="black" points="349,-49.5 349,-79.5 482,-79.5 482,-49.5 349,-49.5"/>
<text text-anchor="start" x="357" y="-67.5" font-family="Helvetica,sans-Serif" font-size="10.00">RoR::GUI::TeleportWindow</text>
<text text-anchor="middle" x="415.5" y="-56.5" font-family="Helvetica,sans-Serif" font-size="10.00">::ShowAltmodeCursor</text>
</a>
</g>
</g>
<!-- Node5&#45;&gt;Node6 -->
<g id="edge6" class="edge"><title>Node5&#45;&gt;Node6</title>
<path fill="none" stroke="midnightblue" d="M297.26,-93.4808C312.213,-89.7844 328.353,-85.7947 343.734,-81.9926"/>
<polygon fill="midnightblue" stroke="midnightblue" points="344.844,-85.3237 353.712,-79.5262 343.164,-78.5282 344.844,-85.3237"/>
</g>
<!-- Node7 -->
<g id="node8" class="node"><title>Node7</title>
<g id="a_node8"><a xlink:href="../../d2/deb/class_ro_r_1_1_g_u_i_1_1_teleport_window.html#a2f2e457c6c3a10d6c4ac9f2f8121d39f" target="_top" xlink:title="RoR::GUI::TeleportWindow\l::SetAltmodeCursorPos">
<polygon fill="white" stroke="black" points="538,-0.5 538,-30.5 671,-30.5 671,-0.5 538,-0.5"/>
<text text-anchor="start" x="546" y="-18.5" font-family="Helvetica,sans-Serif" font-size="10.00">RoR::GUI::TeleportWindow</text>
<text text-anchor="middle" x="604.5" y="-7.5" font-family="Helvetica,sans-Serif" font-size="10.00">::SetAltmodeCursorPos</text>
</a>
</g>
</g>
<!-- Node6&#45;&gt;Node7 -->
<g id="edge7" class="edge"><title>Node6&#45;&gt;Node7</title>
<path fill="none" stroke="midnightblue" d="M473.877,-49.4654C493.622,-44.2917 515.906,-38.4525 536.358,-33.0934"/>
<polygon fill="midnightblue" stroke="midnightblue" points="537.445,-36.4267 546.231,-30.5062 535.671,-29.6553 537.445,-36.4267"/>
</g>
<!-- Node8 -->
<g id="node9" class="node"><title>Node8</title>
<g id="a_node9"><a xlink:href="../../df/d86/namespace_ro_r_1_1_app.html#a68d6403d2b36006a6fa2d28f5ba8f12f" target="_top" xlink:title="RoR::App::GetGuiManager">
<polygon fill="white" stroke="black" points="538,-99 538,-118 671,-118 671,-99 538,-99"/>
<text text-anchor="middle" x="604.5" y="-106" font-family="Helvetica,sans-Serif" font-size="10.00">RoR::App::GetGuiManager</text>
</a>
</g>
</g>
<!-- Node6&#45;&gt;Node8 -->
<g id="edge8" class="edge"><title>Node6&#45;&gt;Node8</title>
<path fill="none" stroke="midnightblue" d="M480.332,-79.5192C504.096,-85.1108 530.713,-91.3735 553.106,-96.6426"/>
<polygon fill="midnightblue" stroke="midnightblue" points="552.536,-100.104 563.072,-98.9876 554.14,-93.2902 552.536,-100.104"/>
</g>
<!-- Node9 -->
<g id="node10" class="node"><title>Node9</title>
<g id="a_node10"><a xlink:href="../../d8/d11/class_ro_r_1_1_g_u_i_manager.html#a02cfc7275f30a09ee27ccda53b48cf13" target="_top" xlink:title="RoR::GUIManager::SetMouse\lCursorVisibility">
<polygon fill="white" stroke="black" points="531.5,-49.5 531.5,-79.5 677.5,-79.5 677.5,-49.5 531.5,-49.5"/>
<text text-anchor="start" x="539.5" y="-67.5" font-family="Helvetica,sans-Serif" font-size="10.00">RoR::GUIManager::SetMouse</text>
<text text-anchor="middle" x="604.5" y="-56.5" font-family="Helvetica,sans-Serif" font-size="10.00">CursorVisibility</text>
</a>
</g>
</g>
<!-- Node6&#45;&gt;Node9 -->
<g id="edge9" class="edge"><title>Node6&#45;&gt;Node9</title>
<path fill="none" stroke="midnightblue" d="M482.166,-64.5C494.705,-64.5 507.979,-64.5 520.967,-64.5"/>
<polygon fill="midnightblue" stroke="midnightblue" points="521.302,-68.0001 531.302,-64.5 521.302,-61.0001 521.302,-68.0001"/>
</g>
<!-- Node10 -->
<g id="node11" class="node"><title>Node10</title>
<g id="a_node11"><a xlink:href="../../df/d13/namespace_im_gui.html#a3179e560812f878f3961ce803a5d9302" target="_top" xlink:title="ImGui::GetIO">
<polygon fill="white" stroke="black" points="751.5,-66 751.5,-85 825.5,-85 825.5,-66 751.5,-66"/>
<text text-anchor="middle" x="788.5" y="-73" font-family="Helvetica,sans-Serif" font-size="10.00">ImGui::GetIO</text>
</a>
</g>
</g>
<!-- Node9&#45;&gt;Node10 -->
<g id="edge10" class="edge"><title>Node9&#45;&gt;Node10</title>
<path fill="none" stroke="midnightblue" d="M677.693,-68.8633C699.06,-70.1548 721.875,-71.5337 741.141,-72.6981"/>
<polygon fill="midnightblue" stroke="midnightblue" points="740.963,-76.1936 751.156,-73.3034 741.385,-69.2063 740.963,-76.1936"/>
</g>
<!-- Node11 -->
<g id="node12" class="node"><title>Node11</title>
<g id="a_node12"><a xlink:href="../../db/df1/class_g_u_i_input_manager.html#a9ca9e7863ca969e2b40c1e4a05e6e501" target="_top" xlink:title="GUIInputManager::Supress\lCursor">
<polygon fill="white" stroke="black" points="721.5,-16.5 721.5,-46.5 855.5,-46.5 855.5,-16.5 721.5,-16.5"/>
<text text-anchor="start" x="729.5" y="-34.5" font-family="Helvetica,sans-Serif" font-size="10.00">GUIInputManager::Supress</text>
<text text-anchor="middle" x="788.5" y="-23.5" font-family="Helvetica,sans-Serif" font-size="10.00">Cursor</text>
</a>
</g>
</g>
<!-- Node9&#45;&gt;Node11 -->
<g id="edge11" class="edge"><title>Node9&#45;&gt;Node11</title>
<path fill="none" stroke="midnightblue" d="M677.693,-51.4101C688.71,-49.4124 700.113,-47.345 711.215,-45.3319"/>
<polygon fill="midnightblue" stroke="midnightblue" points="712.092,-48.7301 721.307,-43.5021 710.843,-41.8424 712.092,-48.7301"/>
</g>
<!-- Node12&#45;&gt;Node6 -->
<g id="edge13" class="edge"><title>Node12&#45;&gt;Node6</title>
<path fill="none" stroke="midnightblue" d="M302.022,-61.3405C313.949,-61.6755 326.481,-62.0276 338.675,-62.3701"/>
<polygon fill="midnightblue" stroke="midnightblue" points="338.724,-65.8728 348.819,-62.655 338.921,-58.8755 338.724,-65.8728"/>
</g>
<!-- Node13&#45;&gt;Node7 -->
<g id="edge15" class="edge"><title>Node13&#45;&gt;Node7</title>
<path fill="none" stroke="midnightblue" d="M482.166,-15.5C496.873,-15.5 512.591,-15.5 527.673,-15.5"/>
<polygon fill="midnightblue" stroke="midnightblue" points="527.992,-19.0001 537.992,-15.5 527.992,-12.0001 527.992,-19.0001"/>
</g>
<!-- Node14&#45;&gt;Node2 -->
<g id="edge17" class="edge"><title>Node14&#45;&gt;Node2</title>
<path fill="none" stroke="midnightblue" d="M291.358,-221.601C309.886,-226.702 330.742,-232.443 349.95,-237.73"/>
<polygon fill="midnightblue" stroke="midnightblue" points="349.253,-241.169 359.823,-240.448 351.11,-234.42 349.253,-241.169"/>
</g>
<!-- Node15 -->
<g id="node16" class="node"><title>Node15</title>
<g id="a_node16"><a xlink:href="../../dd/dbe/class_ro_r_frame_listener.html#a8a381cef6c05c6035a7c8a1d950eda2e" target="_top" xlink:title="RoRFrameListener::Teleport\lPlayerXZ">
<polygon fill="white" stroke="black" points="346.5,-191.5 346.5,-221.5 484.5,-221.5 484.5,-191.5 346.5,-191.5"/>
<text text-anchor="start" x="354.5" y="-209.5" font-family="Helvetica,sans-Serif" font-size="10.00">RoRFrameListener::Teleport</text>
<text text-anchor="middle" x="415.5" y="-198.5" font-family="Helvetica,sans-Serif" font-size="10.00">PlayerXZ</text>
</a>
</g>
</g>
<!-- Node14&#45;&gt;Node15 -->
<g id="edge18" class="edge"><title>Node14&#45;&gt;Node15</title>
<path fill="none" stroke="midnightblue" d="M302.022,-206.5C313.216,-206.5 324.943,-206.5 336.425,-206.5"/>
<polygon fill="midnightblue" stroke="midnightblue" points="336.431,-210 346.431,-206.5 336.431,-203 336.431,-210"/>
</g>
<!-- Node16 -->
<g id="node17" class="node"><title>Node16</title>
<g id="a_node17"><a xlink:href="../../d5/d53/class_ro_r_1_1_beam_factory.html#aeb17b3a10c961e56770f7dc87a16625c" target="_top" xlink:title="RoR::BeamFactory::getCurrent\lTruck">
<polygon fill="white" stroke="black" points="529,-262.5 529,-292.5 680,-292.5 680,-262.5 529,-262.5"/>
<text text-anchor="start" x="537" y="-280.5" font-family="Helvetica,sans-Serif" font-size="10.00">RoR::BeamFactory::getCurrent</text>
<text text-anchor="middle" x="604.5" y="-269.5" font-family="Helvetica,sans-Serif" font-size="10.00">Truck</text>
</a>
</g>
</g>
<!-- Node15&#45;&gt;Node16 -->
<g id="edge19" class="edge"><title>Node15&#45;&gt;Node16</title>
<path fill="none" stroke="midnightblue" d="M468.16,-221.56C476.591,-224.534 485.134,-227.871 493,-231.5 510.027,-239.354 511.957,-245.682 529,-253.5 533.07,-255.367 537.327,-257.151 541.655,-258.843"/>
<polygon fill="midnightblue" stroke="midnightblue" points="540.605,-262.187 551.198,-262.394 543.046,-255.626 540.605,-262.187"/>
</g>
<!-- Node18 -->
<g id="node19" class="node"><title>Node18</title>
<g id="a_node19"><a xlink:href="../../d3/d16/class_terrain_manager.html#ae63cfc0dda4ab62dc7f6d72eb7845628" target="_top" xlink:title="TerrainManager::getHeight\lFinder">
<polygon fill="white" stroke="black" points="539,-213.5 539,-243.5 670,-243.5 670,-213.5 539,-213.5"/>
<text text-anchor="start" x="547" y="-231.5" font-family="Helvetica,sans-Serif" font-size="10.00">TerrainManager::getHeight</text>
<text text-anchor="middle" x="604.5" y="-220.5" font-family="Helvetica,sans-Serif" font-size="10.00">Finder</text>
</a>
</g>
</g>
<!-- Node15&#45;&gt;Node18 -->
<g id="edge21" class="edge"><title>Node15&#45;&gt;Node18</title>
<path fill="none" stroke="midnightblue" d="M484.54,-214.505C498.965,-216.202 514.264,-218.002 528.917,-219.725"/>
<polygon fill="midnightblue" stroke="midnightblue" points="528.598,-223.212 538.939,-220.905 529.416,-216.26 528.598,-223.212"/>
</g>
<!-- Node19 -->
<g id="node20" class="node"><title>Node19</title>
<g id="a_node20"><a xlink:href="../../d9/d44/class_i_height_finder.html#a5757ec3d639bcffc834540067ec8db2e" target="_top" xlink:title="IHeightFinder::getHeightAt">
<polygon fill="white" stroke="black" points="539,-175 539,-194 670,-194 670,-175 539,-175"/>
<text text-anchor="middle" x="604.5" y="-182" font-family="Helvetica,sans-Serif" font-size="10.00">IHeightFinder::getHeightAt</text>
</a>
</g>
</g>
<!-- Node15&#45;&gt;Node19 -->
<g id="edge22" class="edge"><title>Node15&#45;&gt;Node19</title>
<path fill="none" stroke="midnightblue" d="M484.54,-198.495C498.965,-196.798 514.264,-194.998 528.917,-193.275"/>
<polygon fill="midnightblue" stroke="midnightblue" points="529.416,-196.74 538.939,-192.095 528.598,-189.788 529.416,-196.74"/>
</g>
<!-- Node20 -->
<g id="node21" class="node"><title>Node20</title>
<g id="a_node21"><a xlink:href="../../d7/da7/class_character.html#a1884d7f3e305d9b23164fdbf208f1cc6" target="_top" xlink:title="Character::setPosition">
<polygon fill="white" stroke="black" points="548,-137 548,-156 661,-156 661,-137 548,-137"/>
<text text-anchor="middle" x="604.5" y="-144" font-family="Helvetica,sans-Serif" font-size="10.00">Character::setPosition</text>
</a>
</g>
</g>
<!-- Node15&#45;&gt;Node20 -->
<g id="edge23" class="edge"><title>Node15&#45;&gt;Node20</title>
<path fill="none" stroke="midnightblue" d="M454.708,-191.5C476.33,-183.283 503.974,-173.23 529,-165.5 536.798,-163.091 545.12,-160.749 553.272,-158.58"/>
<polygon fill="midnightblue" stroke="midnightblue" points="554.288,-161.932 563.084,-156.026 552.525,-155.158 554.288,-161.932"/>
</g>
<!-- Node17 -->
<g id="node18" class="node"><title>Node17</title>
<g id="a_node18"><a xlink:href="../../d5/d53/class_ro_r_1_1_beam_factory.html#aadb09a68dc35fad593189242429df218" target="_top" xlink:title="RoR::BeamFactory::getTruck">
<polygon fill="white" stroke="black" points="717,-268 717,-287 860,-287 860,-268 717,-268"/>
<text text-anchor="middle" x="788.5" y="-275" font-family="Helvetica,sans-Serif" font-size="10.00">RoR::BeamFactory::getTruck</text>
</a>
</g>
</g>
<!-- Node16&#45;&gt;Node17 -->
<g id="edge20" class="edge"><title>Node16&#45;&gt;Node17</title>
<path fill="none" stroke="midnightblue" d="M680.051,-277.5C688.801,-277.5 697.76,-277.5 706.59,-277.5"/>
<polygon fill="midnightblue" stroke="midnightblue" points="706.878,-281 716.878,-277.5 706.878,-274 706.878,-281"/>
</g>
<!-- Node21 -->
<g id="node22" class="node"><title>Node21</title>
<g id="a_node22"><a xlink:href="../../db/dd2/class_survey_map_manager.html#a17809f36c8b9291270ced418f222faab" target="_top" xlink:title="SurveyMapManager::getMap\lEntityByName">
<polygon fill="white" stroke="black" points="718.5,-164.5 718.5,-194.5 858.5,-194.5 858.5,-164.5 718.5,-164.5"/>
<text text-anchor="start" x="726.5" y="-182.5" font-family="Helvetica,sans-Serif" font-size="10.00">SurveyMapManager::getMap</text>
<text text-anchor="middle" x="788.5" y="-171.5" font-family="Helvetica,sans-Serif" font-size="10.00">EntityByName</text>
</a>
</g>
</g>
<!-- Node20&#45;&gt;Node21 -->
<g id="edge24" class="edge"><title>Node20&#45;&gt;Node21</title>
<path fill="none" stroke="midnightblue" d="M658.142,-156.045C673.851,-158.893 691.427,-162.08 708.436,-165.164"/>
<polygon fill="midnightblue" stroke="midnightblue" points="707.903,-168.625 718.367,-166.965 709.152,-161.737 707.903,-168.625"/>
</g>
<!-- Node22 -->
<g id="node23" class="node"><title>Node22</title>
<g id="a_node23"><a xlink:href="../../df/d13/class_survey_map_entity.html#a781ecb998f41521324088cd3ce66d9ce" target="_top" xlink:title="SurveyMapEntity::setPosition">
<polygon fill="white" stroke="black" points="716,-126 716,-145 861,-145 861,-126 716,-126"/>
<text text-anchor="middle" x="788.5" y="-133" font-family="Helvetica,sans-Serif" font-size="10.00">SurveyMapEntity::setPosition</text>
</a>
</g>
</g>
<!-- Node20&#45;&gt;Node22 -->
<g id="edge25" class="edge"><title>Node20&#45;&gt;Node22</title>
<path fill="none" stroke="midnightblue" d="M661.095,-143.14C675.109,-142.293 690.451,-141.366 705.464,-140.458"/>
<polygon fill="midnightblue" stroke="midnightblue" points="706.015,-143.931 715.785,-139.834 705.592,-136.944 706.015,-143.931"/>
</g>
</g>
</svg>
        <g id="navigator" transform="translate(0 0)" fill="#404254">
                <rect fill="#f2f5e9" fill-opacity="0.5" stroke="#606060" stroke-width=".5" x="0" y="0" width="60" height="60"/>
                <use id="zoomplus" xlink:href="#zoomPlus" x="17" y="9" onmousedown="handleZoom(evt,'in')"/>
                <use id="zoomminus" xlink:href="#zoomMin" x="42" y="9" onmousedown="handleZoom(evt,'out')"/>
                <use id="reset" xlink:href="#resetDef" x="30" y="36" onmousedown="handleReset()"/>
                <g id="arrowUp" xlink:href="#dirArrow" transform="translate(30 24)" onmousedown="handlePan(0,-1)">
                  <use xlink:href="#rim" fill="#404040">
                        <set attributeName="fill" to="#808080" begin="arrowUp.mouseover" end="arrowUp.mouseout"/>
                  </use>
                  <path fill="none" stroke="white" stroke-width="1.5" d="M0,-3.0v7 M-2.5,-0.5L0,-3.0L2.5,-0.5"/>
                </g>
                <g id="arrowRight" xlink:href="#dirArrow" transform="rotate(90) translate(36 -43)" onmousedown="handlePan(1,0)">
                  <use xlink:href="#rim" fill="#404040">
                        <set attributeName="fill" to="#808080" begin="arrowRight.mouseover" end="arrowRight.mouseout"/>
                  </use>
                  <path fill="none" stroke="white" stroke-width="1.5" d="M0,-3.0v7 M-2.5,-0.5L0,-3.0L2.5,-0.5"/>
                </g>
                <g id="arrowDown" xlink:href="#dirArrow" transform="rotate(180) translate(-30 -48)" onmousedown="handlePan(0,1)">
                  <use xlink:href="#rim" fill="#404040">
                        <set attributeName="fill" to="#808080" begin="arrowDown.mouseover" end="arrowDown.mouseout"/>
                  </use>
                  <path fill="none" stroke="white" stroke-width="1.5" d="M0,-3.0v7 M-2.5,-0.5L0,-3.0L2.5,-0.5"/>
                </g>
                <g id="arrowLeft" xlink:href="#dirArrow" transform="rotate(270) translate(-36 17)" onmousedown="handlePan(-1,0)">
                  <use xlink:href="#rim" fill="#404040">
                        <set attributeName="fill" to="#808080" begin="arrowLeft.mouseover" end="arrowLeft.mouseout"/>
                  </use>
                  <path fill="none" stroke="white" stroke-width="1.5" d="M0,-3.0v7 M-2.5,-0.5L0,-3.0L2.5,-0.5"/>
                </g>
        </g>
        <svg viewBox="0 0 15 15" width="100%" height="30px" preserveAspectRatio="xMaxYMin meet">
         <g id="arrow_out" transform="scale(0.3 0.3)">
          <a xlink:href="class_ro_r_1_1_g_u_i_1_1_teleport_window_a09839bd0d122825f6ae2fbd75cd8bfcb_cgraph_org.svg" target="_base">
           <rect id="button" ry="5" rx="5" y="6" x="6" height="38" width="38"
                fill="#f2f5e9" fill-opacity="0.5" stroke="#606060" stroke-width="1.0"/>
           <path id="arrow"
             d="M 11.500037,31.436501 C 11.940474,20.09759 22.043105,11.32322 32.158766,21.979434 L 37.068811,17.246167 C 37.068811,17.246167 37.088388,32 37.088388,32 L 22.160133,31.978069 C 22.160133,31.978069 26.997745,27.140456 26.997745,27.140456 C 18.528582,18.264221 13.291696,25.230495 11.500037,31.436501 z"
             style="fill:#404040;"/>
          </a>
         </g>
        </svg>
</svg>
