<?xml version="1.0" encoding="UTF-8" standalone="no"?>
<!DOCTYPE svg PUBLIC "-//W3C//DTD SVG 1.1//EN"
 "http://www.w3.org/Graphics/SVG/1.1/DTD/svg11.dtd">
<!-- Generated by graphviz version 2.38.0 (20140413.2041)
 -->
<!-- Title: RoR::GUI::TeleportWindow::Reset Pages: 1 -->
<svg width="809pt" height="66pt"
 viewBox="0.00 0.00 809.00 66.00" xmlns="http://www.w3.org/2000/svg" xmlns:xlink="http://www.w3.org/1999/xlink">
<g id="graph0" class="graph" transform="scale(1 1) rotate(0) translate(4 62)">
<title>RoR::GUI::TeleportWindow::Reset</title>
<polygon fill="white" stroke="none" points="-4,4 -4,-62 805,-62 805,4 -4,4"/>
<!-- Node81 -->
<g id="node1" class="node"><title>Node81</title>
<polygon fill="#bfbfbf" stroke="black" points="0,-14 0,-44 133,-44 133,-14 0,-14"/>
<text text-anchor="start" x="8" y="-32" font-family="Helvetica,sans-Serif" font-size="10.00">RoR::GUI::TeleportWindow</text>
<text text-anchor="middle" x="66.5" y="-21" font-family="Helvetica,sans-Serif" font-size="10.00">::Reset</text>
</g>
<!-- Node82 -->
<g id="node2" class="node"><title>Node82</title>
<g id="a_node2"><a xlink:href="../../dd/dbe/class_ro_r_frame_listener.html#a1610b21686ae680582623cde69b85f2b" target="_top" xlink:title="RoRFrameListener::Cleanup\lAfterSimulation">
<polygon fill="white" stroke="black" points="169,-14 169,-44 308,-44 308,-14 169,-14"/>
<text text-anchor="start" x="177" y="-32" font-family="Helvetica,sans-Serif" font-size="10.00">RoRFrameListener::Cleanup</text>
<text text-anchor="middle" x="238.5" y="-21" font-family="Helvetica,sans-Serif" font-size="10.00">AfterSimulation</text>
</a>
</g>
</g>
<!-- Node81&#45;&gt;Node82 -->
<g id="edge1" class="edge"><title>Node81&#45;&gt;Node82</title>
<path fill="none" stroke="midnightblue" d="M143.46,-29C151.918,-29 160.496,-29 168.855,-29"/>
<polygon fill="midnightblue" stroke="midnightblue" points="143.226,-25.5001 133.226,-29 143.226,-32.5001 143.226,-25.5001"/>
</g>
<!-- Node83 -->
<g id="node3" class="node"><title>Node83</title>
<g id="a_node3"><a xlink:href="../../dd/dbe/class_ro_r_frame_listener.html#a9e239911ad148aa76c58202920090f76" target="_top" xlink:title="RoRFrameListener::EnterGameplayLoop">
<polygon fill="white" stroke="black" points="344,-19.5 344,-38.5 536,-38.5 536,-19.5 344,-19.5"/>
<text text-anchor="middle" x="440" y="-26.5" font-family="Helvetica,sans-Serif" font-size="10.00">RoRFrameListener::EnterGameplayLoop</text>
</a>
</g>
</g>
<!-- Node82&#45;&gt;Node83 -->
<g id="edge2" class="edge"><title>Node82&#45;&gt;Node83</title>
<path fill="none" stroke="midnightblue" d="M318.263,-29C326.646,-29 335.237,-29 343.783,-29"/>
<polygon fill="midnightblue" stroke="midnightblue" points="318.157,-25.5001 308.157,-29 318.157,-32.5001 318.157,-25.5001"/>
</g>
<!-- Node84 -->
<g id="node4" class="node"><title>Node84</title>
<g id="a_node4"><a xlink:href="../../dd/dbe/class_ro_r_frame_listener.html#ad598075b5f183208c0de43b9248bb44b" target="_top" xlink:title="RoRFrameListener::getTime">
<polygon fill="white" stroke="black" points="572,-38.5 572,-57.5 710,-57.5 710,-38.5 572,-38.5"/>
<text text-anchor="middle" x="641" y="-45.5" font-family="Helvetica,sans-Serif" font-size="10.00">RoRFrameListener::getTime</text>
</a>
</g>
</g>
<!-- Node83&#45;&gt;Node84 -->
<g id="edge3" class="edge"><title>Node83&#45;&gt;Node84</title>
<path fill="none" stroke="midnightblue" d="M546.335,-39.0571C555.02,-39.8863 563.646,-40.7099 571.946,-41.5023"/>
<polygon fill="midnightblue" stroke="midnightblue" points="546.416,-35.549 536.129,-38.0826 545.751,-42.5173 546.416,-35.549"/>
</g>
<!-- Node85 -->
<g id="node5" class="node"><title>Node85</title>
<g id="a_node5"><a xlink:href="../../df/d0a/main_8cpp.html#a0ddf1224851353fc92bfbff6f499fa97" target="_top" xlink:title="main">
<polygon fill="white" stroke="black" points="622,-0.5 622,-19.5 660,-19.5 660,-0.5 622,-0.5"/>
<text text-anchor="middle" x="641" y="-7.5" font-family="Helvetica,sans-Serif" font-size="10.00">main</text>
</a>
</g>
</g>
<!-- Node83&#45;&gt;Node85 -->
<g id="edge4" class="edge"><title>Node83&#45;&gt;Node85</title>
<path fill="none" stroke="midnightblue" d="M546.441,-18.9328C575.56,-16.1525 603.999,-13.4373 621.733,-11.7441"/>
<polygon fill="midnightblue" stroke="midnightblue" points="545.751,-15.4827 536.129,-19.9174 546.416,-22.451 545.751,-15.4827"/>
</g>
<!-- Node86 -->
<g id="node6" class="node"><title>Node86</title>
<g id="a_node6"><a xlink:href="../../df/d0a/main_8cpp.html#a2922bc5d5c2d77a3020cfbf9df12aab0" target="_top" xlink:title="WinMain">
<polygon fill="white" stroke="black" points="746,-0.5 746,-19.5 801,-19.5 801,-0.5 746,-0.5"/>
<text text-anchor="middle" x="773.5" y="-7.5" font-family="Helvetica,sans-Serif" font-size="10.00">WinMain</text>
</a>
</g>
</g>
<!-- Node85&#45;&gt;Node86 -->
<g id="edge5" class="edge"><title>Node85&#45;&gt;Node86</title>
<path fill="none" stroke="midnightblue" d="M670.393,-10C692.844,-10 723.959,-10 745.924,-10"/>
<polygon fill="midnightblue" stroke="midnightblue" points="670.146,-6.5001 660.145,-10 670.145,-13.5001 670.146,-6.5001"/>
</g>
</g>
</svg>
