<?xml version="1.0" encoding="UTF-8" standalone="no"?>
<!DOCTYPE svg PUBLIC "-//W3C//DTD SVG 1.1//EN"
 "http://www.w3.org/Graphics/SVG/1.1/DTD/svg11.dtd">
<!-- Generated by graphviz version 2.38.0 (20140413.2041)
 -->
<!-- Title: source/main/gfx/hydrax/Noise.h Pages: 1 -->
<svg width="245pt" height="319pt"
 viewBox="0.00 0.00 245.00 319.00" xmlns="http://www.w3.org/2000/svg" xmlns:xlink="http://www.w3.org/1999/xlink">
<g id="graph0" class="graph" transform="scale(1 1) rotate(0) translate(4 315)">
<title>source/main/gfx/hydrax/Noise.h</title>
<polygon fill="white" stroke="none" points="-4,4 -4,-315 241,-315 241,4 -4,4"/>
<!-- Node0 -->
<g id="node1" class="node"><title>Node0</title>
<polygon fill="#bfbfbf" stroke="black" points="0,-280.5 0,-310.5 118,-310.5 118,-280.5 0,-280.5"/>
<text text-anchor="start" x="8" y="-298.5" font-family="Helvetica,sans-Serif" font-size="10.00">source/main/gfx/hydrax</text>
<text text-anchor="middle" x="59" y="-287.5" font-family="Helvetica,sans-Serif" font-size="10.00">/Noise.h</text>
</g>
<!-- Node1 -->
<g id="node2" class="node"><title>Node1</title>
<g id="a_node2"><a xlink:href="../../dc/d89/hydrax_2_prerequisites_8h.html" target="_top" xlink:title="Prerequisites.h">
<polygon fill="white" stroke="black" points="68,-56.5 68,-75.5 150,-75.5 150,-56.5 68,-56.5"/>
<text text-anchor="middle" x="109" y="-63.5" font-family="Helvetica,sans-Serif" font-size="10.00">Prerequisites.h</text>
</a>
</g>
</g>
<!-- Node0&#45;&gt;Node1 -->
<g id="edge1" class="edge"><title>Node0&#45;&gt;Node1</title>
<path fill="none" stroke="midnightblue" d="M48.5615,-280.315C42.1033,-270.627 34.4144,-257.199 31,-244 28.7739,-235.394 29.6948,-232.793 31,-224 38.6383,-172.543 38.5024,-156.767 65,-112 71.6474,-100.77 81.6696,-90.2231 90.4706,-82.1669"/>
<polygon fill="midnightblue" stroke="midnightblue" points="92.8502,-84.7356 98.078,-75.5203 88.2446,-79.4641 92.8502,-84.7356"/>
</g>
<!-- Node3 -->
<g id="node4" class="node"><title>Node3</title>
<g id="a_node4"><a xlink:href="../../de/daf/_g_p_u_normal_map_manager_8h.html" target="_top" xlink:title="GPUNormalMapManager.h">
<polygon fill="white" stroke="black" points="40.5,-224.5 40.5,-243.5 173.5,-243.5 173.5,-224.5 40.5,-224.5"/>
<text text-anchor="middle" x="107" y="-231.5" font-family="Helvetica,sans-Serif" font-size="10.00">GPUNormalMapManager.h</text>
</a>
</g>
</g>
<!-- Node0&#45;&gt;Node3 -->
<g id="edge3" class="edge"><title>Node0&#45;&gt;Node3</title>
<path fill="none" stroke="midnightblue" d="M70.3753,-280.399C77.3503,-271.753 86.314,-260.642 93.6278,-251.576"/>
<polygon fill="midnightblue" stroke="midnightblue" points="96.4608,-253.638 100.016,-243.658 91.0126,-249.243 96.4608,-253.638"/>
</g>
<!-- Node2 -->
<g id="node3" class="node"><title>Node2</title>
<polygon fill="white" stroke="#bfbfbf" points="86,-0.5 86,-19.5 132,-19.5 132,-0.5 86,-0.5"/>
<text text-anchor="middle" x="109" y="-7.5" font-family="Helvetica,sans-Serif" font-size="10.00">Ogre.h</text>
</g>
<!-- Node1&#45;&gt;Node2 -->
<g id="edge2" class="edge"><title>Node1&#45;&gt;Node2</title>
<path fill="none" stroke="midnightblue" d="M109,-56.083C109,-49.0059 109,-38.8611 109,-29.9865"/>
<polygon fill="midnightblue" stroke="midnightblue" points="112.5,-29.751 109,-19.7511 105.5,-29.7511 112.5,-29.751"/>
</g>
<!-- Node3&#45;&gt;Node1 -->
<g id="edge4" class="edge"><title>Node3&#45;&gt;Node1</title>
<path fill="none" stroke="midnightblue" d="M100.794,-224.374C87.2055,-204.373 57.173,-153.379 72,-112 75.9406,-101.003 83.857,-90.7688 91.3595,-82.8479"/>
<polygon fill="midnightblue" stroke="midnightblue" points="93.8923,-85.2659 98.5615,-75.7555 88.9806,-80.2784 93.8923,-85.2659"/>
</g>
<!-- Node4 -->
<g id="node5" class="node"><title>Node4</title>
<g id="a_node5"><a xlink:href="../../d7/d86/_enums_8h.html" target="_top" xlink:title="Enums.h">
<polygon fill="white" stroke="black" points="81,-112.5 81,-131.5 137,-131.5 137,-112.5 81,-112.5"/>
<text text-anchor="middle" x="109" y="-119.5" font-family="Helvetica,sans-Serif" font-size="10.00">Enums.h</text>
</a>
</g>
</g>
<!-- Node3&#45;&gt;Node4 -->
<g id="edge5" class="edge"><title>Node3&#45;&gt;Node4</title>
<path fill="none" stroke="midnightblue" d="M107.157,-224.368C107.48,-206.617 108.224,-165.666 108.662,-141.597"/>
<polygon fill="midnightblue" stroke="midnightblue" points="112.161,-141.653 108.844,-131.591 105.162,-141.526 112.161,-141.653"/>
</g>
<!-- Node5 -->
<g id="node6" class="node"><title>Node5</title>
<g id="a_node6"><a xlink:href="../../d8/db0/_rtt_manager_8h.html" target="_top" xlink:title="RttManager.h">
<polygon fill="white" stroke="black" points="132.5,-168.5 132.5,-187.5 207.5,-187.5 207.5,-168.5 132.5,-168.5"/>
<text text-anchor="middle" x="170" y="-175.5" font-family="Helvetica,sans-Serif" font-size="10.00">RttManager.h</text>
</a>
</g>
</g>
<!-- Node3&#45;&gt;Node5 -->
<g id="edge7" class="edge"><title>Node3&#45;&gt;Node5</title>
<path fill="none" stroke="midnightblue" d="M117.122,-224.324C126.526,-216.263 140.744,-204.077 152.069,-194.369"/>
<polygon fill="midnightblue" stroke="midnightblue" points="154.379,-196.999 159.694,-187.834 149.823,-191.684 154.379,-196.999"/>
</g>
<!-- Node4&#45;&gt;Node1 -->
<g id="edge6" class="edge"><title>Node4&#45;&gt;Node1</title>
<path fill="none" stroke="midnightblue" d="M109,-112.083C109,-105.006 109,-94.8611 109,-85.9865"/>
<polygon fill="midnightblue" stroke="midnightblue" points="112.5,-85.751 109,-75.7511 105.5,-85.7511 112.5,-85.751"/>
</g>
<!-- Node5&#45;&gt;Node1 -->
<g id="edge8" class="edge"><title>Node5&#45;&gt;Node1</title>
<path fill="none" stroke="midnightblue" d="M167.76,-168.181C164.264,-155.286 156.776,-130.781 146,-112 140.035,-101.604 131.664,-91.1908 124.393,-83.0033"/>
<polygon fill="midnightblue" stroke="midnightblue" points="126.966,-80.6296 117.619,-75.641 121.814,-85.3696 126.966,-80.6296"/>
</g>
<!-- Node5&#45;&gt;Node4 -->
<g id="edge9" class="edge"><title>Node5&#45;&gt;Node4</title>
<path fill="none" stroke="midnightblue" d="M160.199,-168.324C151.182,-160.341 137.594,-148.313 126.682,-138.653"/>
<polygon fill="midnightblue" stroke="midnightblue" points="128.787,-135.842 118.979,-131.834 124.147,-141.083 128.787,-135.842"/>
</g>
<!-- Node6 -->
<g id="node7" class="node"><title>Node6</title>
<g id="a_node7"><a xlink:href="../../d7/d8e/_help_8h.html" target="_top" xlink:title="Help.h">
<polygon fill="white" stroke="black" points="193,-112.5 193,-131.5 237,-131.5 237,-112.5 193,-112.5"/>
<text text-anchor="middle" x="215" y="-119.5" font-family="Helvetica,sans-Serif" font-size="10.00">Help.h</text>
</a>
</g>
</g>
<!-- Node5&#45;&gt;Node6 -->
<g id="edge10" class="edge"><title>Node5&#45;&gt;Node6</title>
<path fill="none" stroke="midnightblue" d="M177.431,-168.083C183.853,-160.377 193.306,-149.033 201.122,-139.653"/>
<polygon fill="midnightblue" stroke="midnightblue" points="203.994,-141.674 207.707,-131.751 198.617,-137.193 203.994,-141.674"/>
</g>
<!-- Node6&#45;&gt;Node1 -->
<g id="edge11" class="edge"><title>Node6&#45;&gt;Node1</title>
<path fill="none" stroke="midnightblue" d="M197.969,-112.324C180.97,-103.664 154.624,-90.2424 135.007,-80.249"/>
<polygon fill="midnightblue" stroke="midnightblue" points="136.488,-77.0752 125.988,-75.6545 133.31,-83.3125 136.488,-77.0752"/>
</g>
</g>
</svg>
