<?xml version="1.0" encoding="UTF-8" standalone="no"?>
<!DOCTYPE svg PUBLIC "-//W3C//DTD SVG 1.1//EN"
 "http://www.w3.org/Graphics/SVG/1.1/DTD/svg11.dtd">
<!-- Generated by graphviz version 2.38.0 (20140413.2041)
 -->
<!-- Title: RigDef::MeshWheel Pages: 1 -->
<svg width="151pt" height="174pt"
 viewBox="0.00 0.00 150.50 174.00" xmlns="http://www.w3.org/2000/svg" xmlns:xlink="http://www.w3.org/1999/xlink">
<g id="graph0" class="graph" transform="scale(1 1) rotate(0) translate(4 170)">
<title>RigDef::MeshWheel</title>
<polygon fill="white" stroke="none" points="-4,4 -4,-170 146.5,-170 146.5,4 -4,4"/>
<!-- Node2 -->
<g id="node1" class="node"><title>Node2</title>
<polygon fill="#bfbfbf" stroke="black" points="0,-0.5 0,-19.5 103,-19.5 103,-0.5 0,-0.5"/>
<text text-anchor="middle" x="51.5" y="-7.5" font-family="Helvetica,sans-Serif" font-size="10.00">RigDef::MeshWheel</text>
</g>
<!-- Node3 -->
<g id="node2" class="node"><title>Node3</title>
<g id="a_node2"><a xlink:href="../../db/d99/struct_rig_def_1_1_base_wheel.html" target="_top" xlink:title="RigDef::BaseWheel">
<polygon fill="white" stroke="black" points="1,-57.5 1,-76.5 102,-76.5 102,-57.5 1,-57.5"/>
<text text-anchor="middle" x="51.5" y="-64.5" font-family="Helvetica,sans-Serif" font-size="10.00">RigDef::BaseWheel</text>
</a>
</g>
</g>
<!-- Node3&#45;&gt;Node2 -->
<g id="edge1" class="edge"><title>Node3&#45;&gt;Node2</title>
<path fill="none" stroke="midnightblue" d="M51.5,-47.1166C51.5,-37.8173 51.5,-27.0557 51.5,-19.7149"/>
<polygon fill="midnightblue" stroke="midnightblue" points="48.0001,-47.4062 51.5,-57.4063 55.0001,-47.4063 48.0001,-47.4062"/>
</g>
<!-- Node4 -->
<g id="node3" class="node"><title>Node4</title>
<g id="a_node3"><a xlink:href="../../d2/dad/class_rig_def_1_1_node_1_1_ref.html" target="_top" xlink:title="RigDef::Node::Ref">
<polygon fill="white" stroke="black" points="4.5,-146.5 4.5,-165.5 98.5,-165.5 98.5,-146.5 4.5,-146.5"/>
<text text-anchor="middle" x="51.5" y="-153.5" font-family="Helvetica,sans-Serif" font-size="10.00">RigDef::Node::Ref</text>
</a>
</g>
</g>
<!-- Node4&#45;&gt;Node3 -->
<g id="edge2" class="edge"><title>Node4&#45;&gt;Node3</title>
<path fill="none" stroke="#9a32cd" stroke-dasharray="5,2" d="M51.5,-136.195C51.5,-117.738 51.5,-90.412 51.5,-76.6249"/>
<polygon fill="#9a32cd" stroke="#9a32cd" points="48.0001,-136.34 51.5,-146.34 55.0001,-136.34 48.0001,-136.34"/>
<text text-anchor="middle" x="97" y="-120" font-family="Helvetica,sans-Serif" font-size="10.00"> reference_arm_node</text>
<text text-anchor="middle" x="97" y="-109" font-family="Helvetica,sans-Serif" font-size="10.00">rigidity_node</text>
<text text-anchor="middle" x="97" y="-98" font-family="Helvetica,sans-Serif" font-size="10.00">nodes</text>
</g>
</g>
</svg>
