<?xml version="1.0" encoding="UTF-8" standalone="no"?>
<!DOCTYPE svg PUBLIC "-//W3C//DTD SVG 1.1//EN"
 "http://www.w3.org/Graphics/SVG/1.1/DTD/svg11.dtd">
<!-- Generated by graphviz version 2.38.0 (20140413.2041)
 -->
<!-- Title: source/main/gui/panels/GUI_DebugOptionsLayout.h Pages: 1 -->
<svg width="396pt" height="173pt"
 viewBox="0.00 0.00 396.00 173.00" xmlns="http://www.w3.org/2000/svg" xmlns:xlink="http://www.w3.org/1999/xlink">
<g id="graph0" class="graph" transform="scale(1 1) rotate(0) translate(4 169)">
<title>source/main/gui/panels/GUI_DebugOptionsLayout.h</title>
<polygon fill="white" stroke="none" points="-4,4 -4,-169 392,-169 392,4 -4,4"/>
<!-- Node23 -->
<g id="node1" class="node"><title>Node23</title>
<polygon fill="#bfbfbf" stroke="black" points="166.5,-134.5 166.5,-164.5 306.5,-164.5 306.5,-134.5 166.5,-134.5"/>
<text text-anchor="start" x="174.5" y="-152.5" font-family="Helvetica,sans-Serif" font-size="10.00">source/main/gui/panels</text>
<text text-anchor="middle" x="236.5" y="-141.5" font-family="Helvetica,sans-Serif" font-size="10.00">/GUI_DebugOptionsLayout.h</text>
</g>
<!-- Node24 -->
<g id="node2" class="node"><title>Node24</title>
<g id="a_node2"><a xlink:href="../../da/d7c/_g_u_i___debug_options_8h.html" target="_top" xlink:title="source/main/gui/panels\l/GUI_DebugOptions.h">
<polygon fill="white" stroke="black" points="102,-67.5 102,-97.5 219,-97.5 219,-67.5 102,-67.5"/>
<text text-anchor="start" x="110" y="-85.5" font-family="Helvetica,sans-Serif" font-size="10.00">source/main/gui/panels</text>
<text text-anchor="middle" x="160.5" y="-74.5" font-family="Helvetica,sans-Serif" font-size="10.00">/GUI_DebugOptions.h</text>
</a>
</g>
</g>
<!-- Node23&#45;&gt;Node24 -->
<g id="edge1" class="edge"><title>Node23&#45;&gt;Node24</title>
<path fill="none" stroke="midnightblue" d="M212.394,-127.883C200.845,-118.005 187.31,-106.429 176.959,-97.5765"/>
<polygon fill="midnightblue" stroke="midnightblue" points="210.135,-130.556 220.009,-134.396 214.684,-125.236 210.135,-130.556"/>
</g>
<!-- Node27 -->
<g id="node5" class="node"><title>Node27</title>
<g id="a_node5"><a xlink:href="../../de/df2/_g_u_i___debug_options_layout_8cpp.html" target="_top" xlink:title="source/main/gui/panels\l/GUI_DebugOptionsLayout.cpp">
<polygon fill="white" stroke="black" points="237,-67.5 237,-97.5 388,-97.5 388,-67.5 237,-67.5"/>
<text text-anchor="start" x="245" y="-85.5" font-family="Helvetica,sans-Serif" font-size="10.00">source/main/gui/panels</text>
<text text-anchor="middle" x="312.5" y="-74.5" font-family="Helvetica,sans-Serif" font-size="10.00">/GUI_DebugOptionsLayout.cpp</text>
</a>
</g>
</g>
<!-- Node23&#45;&gt;Node27 -->
<g id="edge4" class="edge"><title>Node23&#45;&gt;Node27</title>
<path fill="none" stroke="midnightblue" d="M260.606,-127.883C272.155,-118.005 285.69,-106.429 296.041,-97.5765"/>
<polygon fill="midnightblue" stroke="midnightblue" points="258.316,-125.236 252.991,-134.396 262.865,-130.556 258.316,-125.236"/>
</g>
<!-- Node25 -->
<g id="node3" class="node"><title>Node25</title>
<g id="a_node3"><a xlink:href="../../d4/d90/_g_u_i_manager_8cpp.html" target="_top" xlink:title="source/main/gui/GUIManager.cpp">
<polygon fill="white" stroke="black" points="0,-6 0,-25 161,-25 161,-6 0,-6"/>
<text text-anchor="middle" x="80.5" y="-13" font-family="Helvetica,sans-Serif" font-size="10.00">source/main/gui/GUIManager.cpp</text>
</a>
</g>
</g>
<!-- Node24&#45;&gt;Node25 -->
<g id="edge2" class="edge"><title>Node24&#45;&gt;Node25</title>
<path fill="none" stroke="midnightblue" d="M135.279,-61.008C120.428,-48.9412 102.413,-34.3046 91.201,-25.1945"/>
<polygon fill="midnightblue" stroke="midnightblue" points="133.173,-63.8064 143.141,-67.396 137.587,-58.3736 133.173,-63.8064"/>
</g>
<!-- Node26 -->
<g id="node4" class="node"><title>Node26</title>
<g id="a_node4"><a xlink:href="../../d2/d59/_g_u_i___debug_options_8cpp.html" target="_top" xlink:title="source/main/gui/panels\l/GUI_DebugOptions.cpp">
<polygon fill="white" stroke="black" points="179.5,-0.5 179.5,-30.5 301.5,-30.5 301.5,-0.5 179.5,-0.5"/>
<text text-anchor="start" x="187.5" y="-18.5" font-family="Helvetica,sans-Serif" font-size="10.00">source/main/gui/panels</text>
<text text-anchor="middle" x="240.5" y="-7.5" font-family="Helvetica,sans-Serif" font-size="10.00">/GUI_DebugOptions.cpp</text>
</a>
</g>
</g>
<!-- Node24&#45;&gt;Node26 -->
<g id="edge3" class="edge"><title>Node24&#45;&gt;Node26</title>
<path fill="none" stroke="midnightblue" d="M185.875,-60.8832C198.032,-51.0054 212.279,-39.4293 223.175,-30.5765"/>
<polygon fill="midnightblue" stroke="midnightblue" points="183.413,-58.3736 177.859,-67.396 187.827,-63.8064 183.413,-58.3736"/>
</g>
</g>
</svg>
