<?xml version="1.0" encoding="UTF-8" standalone="no"?>
<!DOCTYPE svg PUBLIC "-//W3C//DTD SVG 1.1//EN"
 "http://www.w3.org/Graphics/SVG/1.1/DTD/svg11.dtd">
<!-- Generated by graphviz version 2.38.0 (20140413.2041)
 -->
<!-- Title: Road Pages: 1 -->
<svg width="214pt" height="95pt"
 viewBox="0.00 0.00 213.50 95.00" xmlns="http://www.w3.org/2000/svg" xmlns:xlink="http://www.w3.org/1999/xlink">
<g id="graph0" class="graph" transform="scale(1 1) rotate(0) translate(4 91)">
<title>Road</title>
<polygon fill="white" stroke="none" points="-4,4 -4,-91 209.5,-91 209.5,4 -4,4"/>
<!-- Node2 -->
<g id="node1" class="node"><title>Node2</title>
<polygon fill="#bfbfbf" stroke="black" points="96,-0.5 96,-19.5 135,-19.5 135,-0.5 96,-0.5"/>
<text text-anchor="middle" x="115.5" y="-7.5" font-family="Helvetica,sans-Serif" font-size="10.00">Road</text>
</g>
<!-- Node3 -->
<g id="node2" class="node"><title>Node3</title>
<g id="a_node2"><a xlink:href="../../d7/d0c/class_zeroed_memory_allocator.html" target="_top" xlink:title="ZeroedMemoryAllocator">
<polygon fill="white" stroke="black" points="0,-67.5 0,-86.5 119,-86.5 119,-67.5 0,-67.5"/>
<text text-anchor="middle" x="59.5" y="-74.5" font-family="Helvetica,sans-Serif" font-size="10.00">ZeroedMemoryAllocator</text>
</a>
</g>
</g>
<!-- Node3&#45;&gt;Node2 -->
<g id="edge1" class="edge"><title>Node3&#45;&gt;Node2</title>
<path fill="none" stroke="midnightblue" d="M73.5992,-59.6348C84.5512,-46.9228 99.305,-29.7978 108.067,-19.6273"/>
<polygon fill="midnightblue" stroke="midnightblue" points="70.9279,-57.3732 67.0524,-67.2338 76.2312,-61.9422 70.9279,-57.3732"/>
</g>
<!-- Node4 -->
<g id="node3" class="node"><title>Node4</title>
<g id="a_node3"><a xlink:href="../../d6/df4/struct_road_type__t.html" target="_top" xlink:title="RoadType_t">
<polygon fill="white" stroke="black" points="137.5,-67.5 137.5,-86.5 205.5,-86.5 205.5,-67.5 137.5,-67.5"/>
<text text-anchor="middle" x="171.5" y="-74.5" font-family="Helvetica,sans-Serif" font-size="10.00">RoadType_t</text>
</a>
</g>
</g>
<!-- Node4&#45;&gt;Node2 -->
<g id="edge2" class="edge"><title>Node4&#45;&gt;Node2</title>
<path fill="none" stroke="#9a32cd" stroke-dasharray="5,2" d="M157.401,-59.6348C146.449,-46.9228 131.695,-29.7978 122.933,-19.6273"/>
<polygon fill="#9a32cd" stroke="#9a32cd" points="154.769,-61.9422 163.948,-67.2338 160.072,-57.3732 154.769,-61.9422"/>
<text text-anchor="middle" x="163" y="-41" font-family="Helvetica,sans-Serif" font-size="10.00"> rtypes</text>
</g>
</g>
</svg>
