<?xml version="1.0" encoding="UTF-8" standalone="no"?>
<!DOCTYPE svg PUBLIC "-//W3C//DTD SVG 1.1//EN"
 "http://www.w3.org/Graphics/SVG/1.1/DTD/svg11.dtd">
<!-- Generated by graphviz version 2.38.0 (20140413.2041)
 -->
<!-- Title: Hydrax::CfgFileManager::_getComponentsCfgString Pages: 1 -->
<svg width="871pt" height="973pt"
 viewBox="0.00 0.00 871.00 972.50" xmlns="http://www.w3.org/2000/svg" xmlns:xlink="http://www.w3.org/1999/xlink">
<g id="graph0" class="graph" transform="scale(1 1) rotate(0) translate(4 968.5)">
<title>Hydrax::CfgFileManager::_getComponentsCfgString</title>
<polygon fill="white" stroke="none" points="-4,4 -4,-968.5 867,-968.5 867,4 -4,4"/>
<!-- Node259 -->
<g id="node1" class="node"><title>Node259</title>
<polygon fill="#bfbfbf" stroke="black" points="0,-504.5 0,-534.5 136,-534.5 136,-504.5 0,-504.5"/>
<text text-anchor="start" x="8" y="-522.5" font-family="Helvetica,sans-Serif" font-size="10.00">Hydrax::CfgFileManager</text>
<text text-anchor="middle" x="68" y="-511.5" font-family="Helvetica,sans-Serif" font-size="10.00">::_getComponentsCfgString</text>
</g>
<!-- Node260 -->
<g id="node2" class="node"><title>Node260</title>
<g id="a_node2"><a xlink:href="../../dd/d65/class_hydrax_1_1_hydrax.html#a69e3ff9c4de804dec54156453837df95" target="_top" xlink:title="Hydrax::Hydrax::isComponent">
<polygon fill="white" stroke="black" points="192,-945 192,-964 339,-964 339,-945 192,-945"/>
<text text-anchor="middle" x="265.5" y="-952" font-family="Helvetica,sans-Serif" font-size="10.00">Hydrax::Hydrax::isComponent</text>
</a>
</g>
</g>
<!-- Node259&#45;&gt;Node260 -->
<g id="edge1" class="edge"><title>Node259&#45;&gt;Node260</title>
<path fill="none" stroke="midnightblue" d="M70.6089,-534.669C78.117,-602.567 111.905,-877.77 172,-935.5 175.192,-938.567 178.74,-941.198 182.533,-943.451"/>
<polygon fill="midnightblue" stroke="midnightblue" points="181.263,-946.729 191.775,-948.05 184.382,-940.462 181.263,-946.729"/>
</g>
<!-- Node261 -->
<g id="node3" class="node"><title>Node261</title>
<g id="a_node3"><a xlink:href="../../d6/de1/class_hydrax_1_1_cfg_file_manager.html#a020c0d58713f7ecbd396101247bcab1b" target="_top" xlink:title="Hydrax::CfgFileManager\l::_getCfgString">
<polygon fill="white" stroke="black" points="205,-895.5 205,-925.5 326,-925.5 326,-895.5 205,-895.5"/>
<text text-anchor="start" x="213" y="-913.5" font-family="Helvetica,sans-Serif" font-size="10.00">Hydrax::CfgFileManager</text>
<text text-anchor="middle" x="265.5" y="-902.5" font-family="Helvetica,sans-Serif" font-size="10.00">::_getCfgString</text>
</a>
</g>
</g>
<!-- Node259&#45;&gt;Node261 -->
<g id="edge2" class="edge"><title>Node259&#45;&gt;Node261</title>
<path fill="none" stroke="midnightblue" d="M68.3739,-534.608C66.9444,-590.041 69.7204,-784.275 172,-885.5 178.599,-892.031 186.717,-896.903 195.379,-900.528"/>
<polygon fill="midnightblue" stroke="midnightblue" points="194.35,-903.878 204.944,-903.992 196.734,-897.296 194.35,-903.878"/>
</g>
<!-- Node262 -->
<g id="node4" class="node"><title>Node262</title>
<g id="a_node4"><a xlink:href="../../dd/d65/class_hydrax_1_1_hydrax.html#a987d33873d0d9a1a7ef2dea72c9cf4a3" target="_top" xlink:title="Hydrax::Hydrax::getSunPosition">
<polygon fill="white" stroke="black" points="187.5,-857 187.5,-876 343.5,-876 343.5,-857 187.5,-857"/>
<text text-anchor="middle" x="265.5" y="-864" font-family="Helvetica,sans-Serif" font-size="10.00">Hydrax::Hydrax::getSunPosition</text>
</a>
</g>
</g>
<!-- Node259&#45;&gt;Node262 -->
<g id="edge3" class="edge"><title>Node259&#45;&gt;Node262</title>
<path fill="none" stroke="midnightblue" d="M68.7505,-534.692C68.7739,-586.989 76.3232,-761.089 172,-847.5 173.969,-849.279 176.06,-850.909 178.248,-852.401"/>
<polygon fill="midnightblue" stroke="midnightblue" points="176.708,-855.553 187.122,-857.502 180.196,-849.484 176.708,-855.553"/>
</g>
<!-- Node263 -->
<g id="node5" class="node"><title>Node263</title>
<g id="a_node5"><a xlink:href="../../dd/d65/class_hydrax_1_1_hydrax.html#ae841c3882909f074f2fa1455705079b2" target="_top" xlink:title="Hydrax::Hydrax::getSunStrength">
<polygon fill="white" stroke="black" points="186.5,-819 186.5,-838 344.5,-838 344.5,-819 186.5,-819"/>
<text text-anchor="middle" x="265.5" y="-826" font-family="Helvetica,sans-Serif" font-size="10.00">Hydrax::Hydrax::getSunStrength</text>
</a>
</g>
</g>
<!-- Node259&#45;&gt;Node263 -->
<g id="edge4" class="edge"><title>Node259&#45;&gt;Node263</title>
<path fill="none" stroke="midnightblue" d="M69.4585,-534.633C71.7876,-582.935 85.9455,-734.623 172,-809.5 173.759,-811.03 175.607,-812.449 177.53,-813.764"/>
<polygon fill="midnightblue" stroke="midnightblue" points="175.984,-816.913 186.392,-818.889 179.488,-810.853 175.984,-816.913"/>
</g>
<!-- Node264 -->
<g id="node6" class="node"><title>Node264</title>
<g id="a_node6"><a xlink:href="../../dd/d65/class_hydrax_1_1_hydrax.html#ac56c251f193c10de861bc3a401d3ce0c" target="_top" xlink:title="Hydrax::Hydrax::getSunArea">
<polygon fill="white" stroke="black" points="195,-781 195,-800 336,-800 336,-781 195,-781"/>
<text text-anchor="middle" x="265.5" y="-788" font-family="Helvetica,sans-Serif" font-size="10.00">Hydrax::Hydrax::getSunArea</text>
</a>
</g>
</g>
<!-- Node259&#45;&gt;Node264 -->
<g id="edge5" class="edge"><title>Node259&#45;&gt;Node264</title>
<path fill="none" stroke="midnightblue" d="M70.3491,-534.531C75.1447,-578.533 95.4396,-707.965 172,-771.5 176.075,-774.881 180.593,-777.712 185.379,-780.077"/>
<polygon fill="midnightblue" stroke="midnightblue" points="184.291,-783.416 194.866,-784.073 187.009,-776.965 184.291,-783.416"/>
</g>
<!-- Node265 -->
<g id="node7" class="node"><title>Node265</title>
<g id="a_node7"><a xlink:href="../../dd/d65/class_hydrax_1_1_hydrax.html#acf7a138c6149083431bcaa1500c29f4a" target="_top" xlink:title="Hydrax::Hydrax::getSunColor">
<polygon fill="white" stroke="black" points="194,-743 194,-762 337,-762 337,-743 194,-743"/>
<text text-anchor="middle" x="265.5" y="-750" font-family="Helvetica,sans-Serif" font-size="10.00">Hydrax::Hydrax::getSunColor</text>
</a>
</g>
</g>
<!-- Node259&#45;&gt;Node265 -->
<g id="edge6" class="edge"><title>Node259&#45;&gt;Node265</title>
<path fill="none" stroke="midnightblue" d="M71.5332,-534.535C79.0176,-574.006 104.862,-681.135 172,-733.5 175.838,-736.493 180.029,-739.048 184.441,-741.225"/>
<polygon fill="midnightblue" stroke="midnightblue" points="183.191,-744.497 193.763,-745.184 185.927,-738.054 183.191,-744.497"/>
</g>
<!-- Node266 -->
<g id="node8" class="node"><title>Node266</title>
<g id="a_node8"><a xlink:href="../../dd/d65/class_hydrax_1_1_hydrax.html#a5ae2609d700fb700d0506bb4bc29b0e2" target="_top" xlink:title="Hydrax::Hydrax::getFoamMax\lDistance">
<polygon fill="white" stroke="black" points="192,-693.5 192,-723.5 339,-723.5 339,-693.5 192,-693.5"/>
<text text-anchor="start" x="200" y="-711.5" font-family="Helvetica,sans-Serif" font-size="10.00">Hydrax::Hydrax::getFoamMax</text>
<text text-anchor="middle" x="265.5" y="-700.5" font-family="Helvetica,sans-Serif" font-size="10.00">Distance</text>
</a>
</g>
</g>
<!-- Node259&#45;&gt;Node266 -->
<g id="edge7" class="edge"><title>Node259&#45;&gt;Node266</title>
<path fill="none" stroke="midnightblue" d="M74.2244,-534.843C86.1353,-567.453 118.484,-643.905 172,-683.5 175.385,-686.004 179.005,-688.258 182.78,-690.286"/>
<polygon fill="midnightblue" stroke="midnightblue" points="181.303,-693.459 191.834,-694.62 184.325,-687.145 181.303,-693.459"/>
</g>
<!-- Node267 -->
<g id="node9" class="node"><title>Node267</title>
<g id="a_node9"><a xlink:href="../../dd/d65/class_hydrax_1_1_hydrax.html#a05aad081be52a7b7c9919198a0304768" target="_top" xlink:title="Hydrax::Hydrax::getFoamScale">
<polygon fill="white" stroke="black" points="189,-655 189,-674 342,-674 342,-655 189,-655"/>
<text text-anchor="middle" x="265.5" y="-662" font-family="Helvetica,sans-Serif" font-size="10.00">Hydrax::Hydrax::getFoamScale</text>
</a>
</g>
</g>
<!-- Node259&#45;&gt;Node267 -->
<g id="edge8" class="edge"><title>Node259&#45;&gt;Node267</title>
<path fill="none" stroke="midnightblue" d="M76.8495,-534.766C91.5797,-561.767 126.068,-617.714 172,-645.5 175.63,-647.696 179.47,-649.642 183.443,-651.366"/>
<polygon fill="midnightblue" stroke="midnightblue" points="182.322,-654.685 192.913,-655 184.83,-648.149 182.322,-654.685"/>
</g>
<!-- Node268 -->
<g id="node10" class="node"><title>Node268</title>
<g id="a_node10"><a xlink:href="../../dd/d65/class_hydrax_1_1_hydrax.html#ad6ff93ec70a151f9057b8b5be2b4b39a" target="_top" xlink:title="Hydrax::Hydrax::getFoamStart">
<polygon fill="white" stroke="black" points="191,-617 191,-636 340,-636 340,-617 191,-617"/>
<text text-anchor="middle" x="265.5" y="-624" font-family="Helvetica,sans-Serif" font-size="10.00">Hydrax::Hydrax::getFoamStart</text>
</a>
</g>
</g>
<!-- Node259&#45;&gt;Node268 -->
<g id="edge9" class="edge"><title>Node259&#45;&gt;Node268</title>
<path fill="none" stroke="midnightblue" d="M81.9946,-534.583C100.075,-554.541 134.813,-589.316 172,-607.5 176.971,-609.931 182.238,-612.051 187.638,-613.9"/>
<polygon fill="midnightblue" stroke="midnightblue" points="186.878,-617.328 197.466,-616.944 188.949,-610.641 186.878,-617.328"/>
</g>
<!-- Node269 -->
<g id="node11" class="node"><title>Node269</title>
<g id="a_node11"><a xlink:href="../../dd/d65/class_hydrax_1_1_hydrax.html#a45c42ee4514481b25d14ea21d49219fd" target="_top" xlink:title="Hydrax::Hydrax::getFoamTransparency">
<polygon fill="white" stroke="black" points="172,-579 172,-598 359,-598 359,-579 172,-579"/>
<text text-anchor="middle" x="265.5" y="-586" font-family="Helvetica,sans-Serif" font-size="10.00">Hydrax::Hydrax::getFoamTransparency</text>
</a>
</g>
</g>
<!-- Node259&#45;&gt;Node269 -->
<g id="edge10" class="edge"><title>Node259&#45;&gt;Node269</title>
<path fill="none" stroke="midnightblue" d="M95.3301,-534.554C115.694,-545.629 144.896,-560.299 172,-569.5 179.922,-572.189 188.362,-574.561 196.797,-576.636"/>
<polygon fill="midnightblue" stroke="midnightblue" points="196.134,-580.075 206.667,-578.936 197.722,-573.258 196.134,-580.075"/>
</g>
<!-- Node270 -->
<g id="node12" class="node"><title>Node270</title>
<g id="a_node12"><a xlink:href="../../dd/d65/class_hydrax_1_1_hydrax.html#a56b4d0a75c352223e57e488db378cce2" target="_top" xlink:title="Hydrax::Hydrax::getDepth\lLimit">
<polygon fill="white" stroke="black" points="201,-529.5 201,-559.5 330,-559.5 330,-529.5 201,-529.5"/>
<text text-anchor="start" x="209" y="-547.5" font-family="Helvetica,sans-Serif" font-size="10.00">Hydrax::Hydrax::getDepth</text>
<text text-anchor="middle" x="265.5" y="-536.5" font-family="Helvetica,sans-Serif" font-size="10.00">Limit</text>
</a>
</g>
</g>
<!-- Node259&#45;&gt;Node270 -->
<g id="edge11" class="edge"><title>Node259&#45;&gt;Node270</title>
<path fill="none" stroke="midnightblue" d="M136.006,-528.069C153.644,-530.324 172.769,-532.77 190.741,-535.068"/>
<polygon fill="midnightblue" stroke="midnightblue" points="190.515,-538.567 200.878,-536.364 191.403,-531.624 190.515,-538.567"/>
</g>
<!-- Node271 -->
<g id="node13" class="node"><title>Node271</title>
<g id="a_node13"><a xlink:href="../../dd/d65/class_hydrax_1_1_hydrax.html#a71c118301683c880ca9a7985d560f7f6" target="_top" xlink:title="Hydrax::Hydrax::getSmooth\lPower">
<polygon fill="white" stroke="black" points="197,-480.5 197,-510.5 334,-510.5 334,-480.5 197,-480.5"/>
<text text-anchor="start" x="205" y="-498.5" font-family="Helvetica,sans-Serif" font-size="10.00">Hydrax::Hydrax::getSmooth</text>
<text text-anchor="middle" x="265.5" y="-487.5" font-family="Helvetica,sans-Serif" font-size="10.00">Power</text>
</a>
</g>
</g>
<!-- Node259&#45;&gt;Node271 -->
<g id="edge12" class="edge"><title>Node259&#45;&gt;Node271</title>
<path fill="none" stroke="midnightblue" d="M136.006,-511.274C152.3,-509.274 169.862,-507.118 186.612,-505.062"/>
<polygon fill="midnightblue" stroke="midnightblue" points="187.418,-508.489 196.917,-503.797 186.565,-501.541 187.418,-508.489"/>
</g>
<!-- Node272 -->
<g id="node14" class="node"><title>Node272</title>
<g id="a_node14"><a xlink:href="../../dd/d65/class_hydrax_1_1_hydrax.html#a180831cf2c673ff586f7def148170cd3" target="_top" xlink:title="Hydrax::Hydrax::getCaustics\lScale">
<polygon fill="white" stroke="black" points="194.5,-431.5 194.5,-461.5 336.5,-461.5 336.5,-431.5 194.5,-431.5"/>
<text text-anchor="start" x="202.5" y="-449.5" font-family="Helvetica,sans-Serif" font-size="10.00">Hydrax::Hydrax::getCaustics</text>
<text text-anchor="middle" x="265.5" y="-438.5" font-family="Helvetica,sans-Serif" font-size="10.00">Scale</text>
</a>
</g>
</g>
<!-- Node259&#45;&gt;Node272 -->
<g id="edge13" class="edge"><title>Node259&#45;&gt;Node272</title>
<path fill="none" stroke="midnightblue" d="M97.7359,-504.479C118.088,-494.247 146.24,-480.904 172,-471.5 178.768,-469.029 185.894,-466.679 193.063,-464.479"/>
<polygon fill="midnightblue" stroke="midnightblue" points="194.246,-467.778 202.835,-461.575 192.252,-461.068 194.246,-467.778"/>
</g>
<!-- Node273 -->
<g id="node15" class="node"><title>Node273</title>
<g id="a_node15"><a xlink:href="../../dd/d65/class_hydrax_1_1_hydrax.html#a1925e17762ef3f877273bce23a42acab" target="_top" xlink:title="Hydrax::Hydrax::getCaustics\lPower">
<polygon fill="white" stroke="black" points="194.5,-382.5 194.5,-412.5 336.5,-412.5 336.5,-382.5 194.5,-382.5"/>
<text text-anchor="start" x="202.5" y="-400.5" font-family="Helvetica,sans-Serif" font-size="10.00">Hydrax::Hydrax::getCaustics</text>
<text text-anchor="middle" x="265.5" y="-389.5" font-family="Helvetica,sans-Serif" font-size="10.00">Power</text>
</a>
</g>
</g>
<!-- Node259&#45;&gt;Node273 -->
<g id="edge14" class="edge"><title>Node259&#45;&gt;Node273</title>
<path fill="none" stroke="midnightblue" d="M80.9328,-504.275C98.5547,-482.829 133.62,-443.952 172,-422.5 176.138,-420.187 180.502,-418.079 184.989,-416.159"/>
<polygon fill="midnightblue" stroke="midnightblue" points="186.318,-419.397 194.34,-412.477 183.753,-412.884 186.318,-419.397"/>
</g>
<!-- Node274 -->
<g id="node16" class="node"><title>Node274</title>
<g id="a_node16"><a xlink:href="../../dd/d65/class_hydrax_1_1_hydrax.html#a8746142d93ed72a95d454dfeff6e7a27" target="_top" xlink:title="Hydrax::Hydrax::getCausticsEnd">
<polygon fill="white" stroke="black" points="186,-344 186,-363 345,-363 345,-344 186,-344"/>
<text text-anchor="middle" x="265.5" y="-351" font-family="Helvetica,sans-Serif" font-size="10.00">Hydrax::Hydrax::getCausticsEnd</text>
</a>
</g>
</g>
<!-- Node259&#45;&gt;Node274 -->
<g id="edge15" class="edge"><title>Node259&#45;&gt;Node274</title>
<path fill="none" stroke="midnightblue" d="M75.1655,-504.268C88.1993,-474.122 121.558,-406.885 172,-373.5 175.802,-370.984 179.867,-368.778 184.092,-366.845"/>
<polygon fill="midnightblue" stroke="midnightblue" points="185.591,-370.014 193.561,-363.034 182.977,-363.521 185.591,-370.014"/>
</g>
<!-- Node275 -->
<g id="node17" class="node"><title>Node275</title>
<g id="a_node17"><a xlink:href="../../dd/d65/class_hydrax_1_1_hydrax.html#a69272a08df84f181790b34acdf6bca54" target="_top" xlink:title="Hydrax::Hydrax::getGodRays\lExposure">
<polygon fill="white" stroke="black" points="193.5,-294.5 193.5,-324.5 337.5,-324.5 337.5,-294.5 193.5,-294.5"/>
<text text-anchor="start" x="201.5" y="-312.5" font-family="Helvetica,sans-Serif" font-size="10.00">Hydrax::Hydrax::getGodRays</text>
<text text-anchor="middle" x="265.5" y="-301.5" font-family="Helvetica,sans-Serif" font-size="10.00">Exposure</text>
</a>
</g>
</g>
<!-- Node259&#45;&gt;Node275 -->
<g id="edge16" class="edge"><title>Node259&#45;&gt;Node275</title>
<path fill="none" stroke="midnightblue" d="M73.0055,-504.382C83.1871,-468.975 113.492,-380.225 172,-334.5 175.813,-331.52 179.955,-328.894 184.3,-326.581"/>
<polygon fill="midnightblue" stroke="midnightblue" points="185.915,-329.689 193.467,-322.258 182.929,-323.358 185.915,-329.689"/>
</g>
<!-- Node276 -->
<g id="node18" class="node"><title>Node276</title>
<g id="a_node18"><a xlink:href="../../dd/d65/class_hydrax_1_1_hydrax.html#af7004333bbefabcdf683515813cd9d94" target="_top" xlink:title="Hydrax::Hydrax::getGodRays\lIntensity">
<polygon fill="white" stroke="black" points="193.5,-245.5 193.5,-275.5 337.5,-275.5 337.5,-245.5 193.5,-245.5"/>
<text text-anchor="start" x="201.5" y="-263.5" font-family="Helvetica,sans-Serif" font-size="10.00">Hydrax::Hydrax::getGodRays</text>
<text text-anchor="middle" x="265.5" y="-252.5" font-family="Helvetica,sans-Serif" font-size="10.00">Intensity</text>
</a>
</g>
</g>
<!-- Node259&#45;&gt;Node276 -->
<g id="edge17" class="edge"><title>Node259&#45;&gt;Node276</title>
<path fill="none" stroke="midnightblue" d="M71.1213,-504.253C77.7496,-462.545 101.988,-345.684 172,-285.5 175.745,-282.281 179.865,-279.472 184.224,-277.021"/>
<polygon fill="midnightblue" stroke="midnightblue" points="186.031,-280.033 193.46,-272.479 182.942,-273.752 186.031,-280.033"/>
</g>
<!-- Node277 -->
<g id="node19" class="node"><title>Node277</title>
<g id="a_node19"><a xlink:href="../../dd/d65/class_hydrax_1_1_hydrax.html#a50fd9a0cdeb608f8048713dffffe9c55" target="_top" xlink:title="Hydrax::Hydrax::getGodRays\lManager">
<polygon fill="white" stroke="black" points="193.5,-196.5 193.5,-226.5 337.5,-226.5 337.5,-196.5 193.5,-196.5"/>
<text text-anchor="start" x="201.5" y="-214.5" font-family="Helvetica,sans-Serif" font-size="10.00">Hydrax::Hydrax::getGodRays</text>
<text text-anchor="middle" x="265.5" y="-203.5" font-family="Helvetica,sans-Serif" font-size="10.00">Manager</text>
</a>
</g>
</g>
<!-- Node259&#45;&gt;Node277 -->
<g id="edge18" class="edge"><title>Node259&#45;&gt;Node277</title>
<path fill="none" stroke="midnightblue" d="M69.8227,-504.273C73.2192,-457.035 90.1662,-311.651 172,-236.5 175.637,-233.16 179.675,-230.258 183.972,-227.738"/>
<polygon fill="midnightblue" stroke="midnightblue" points="185.787,-230.741 193.108,-223.083 182.609,-224.504 185.787,-230.741"/>
</g>
<!-- Node278 -->
<g id="node20" class="node"><title>Node278</title>
<g id="a_node20"><a xlink:href="../../d2/dd3/class_hydrax_1_1_god_rays_manager.html#ab8fe1d4cdd470694be25c2ae26e4f552" target="_top" xlink:title="Hydrax::GodRaysManager\l::getSimulationSpeed">
<polygon fill="white" stroke="black" points="200,-147.5 200,-177.5 331,-177.5 331,-147.5 200,-147.5"/>
<text text-anchor="start" x="208" y="-165.5" font-family="Helvetica,sans-Serif" font-size="10.00">Hydrax::GodRaysManager</text>
<text text-anchor="middle" x="265.5" y="-154.5" font-family="Helvetica,sans-Serif" font-size="10.00">::getSimulationSpeed</text>
</a>
</g>
</g>
<!-- Node259&#45;&gt;Node278 -->
<g id="edge19" class="edge"><title>Node259&#45;&gt;Node278</title>
<path fill="none" stroke="midnightblue" d="M68.8838,-504.342C69.3425,-452.124 78.1428,-277.96 172,-187.5 177.353,-182.341 183.655,-178.222 190.413,-174.936"/>
<polygon fill="midnightblue" stroke="midnightblue" points="192.008,-178.062 199.863,-170.952 189.289,-171.611 192.008,-178.062"/>
</g>
<!-- Node283 -->
<g id="node25" class="node"><title>Node283</title>
<g id="a_node25"><a xlink:href="../../d2/dd3/class_hydrax_1_1_god_rays_manager.html#a328e44632de9e1693f51e81f0bb165b7" target="_top" xlink:title="Hydrax::GodRaysManager\l::getNumberOfRays">
<polygon fill="white" stroke="black" points="200,-98.5 200,-128.5 331,-128.5 331,-98.5 200,-98.5"/>
<text text-anchor="start" x="208" y="-116.5" font-family="Helvetica,sans-Serif" font-size="10.00">Hydrax::GodRaysManager</text>
<text text-anchor="middle" x="265.5" y="-105.5" font-family="Helvetica,sans-Serif" font-size="10.00">::getNumberOfRays</text>
</a>
</g>
</g>
<!-- Node259&#45;&gt;Node283 -->
<g id="edge25" class="edge"><title>Node259&#45;&gt;Node283</title>
<path fill="none" stroke="midnightblue" d="M71.0606,-504.404C80.0856,-440.416 118.096,-192.4 172,-138.5 177.257,-133.244 183.497,-129.061 190.217,-125.736"/>
<polygon fill="midnightblue" stroke="midnightblue" points="191.809,-128.862 199.63,-121.715 189.059,-122.425 191.809,-128.862"/>
</g>
<!-- Node284 -->
<g id="node26" class="node"><title>Node284</title>
<g id="a_node26"><a xlink:href="../../d2/dd3/class_hydrax_1_1_god_rays_manager.html#a0d863555e67f4aa93ed5b257d20547a4" target="_top" xlink:title="Hydrax::GodRaysManager\l::getRaysSize">
<polygon fill="white" stroke="black" points="200,-49.5 200,-79.5 331,-79.5 331,-49.5 200,-49.5"/>
<text text-anchor="start" x="208" y="-67.5" font-family="Helvetica,sans-Serif" font-size="10.00">Hydrax::GodRaysManager</text>
<text text-anchor="middle" x="265.5" y="-56.5" font-family="Helvetica,sans-Serif" font-size="10.00">::getRaysSize</text>
</a>
</g>
</g>
<!-- Node259&#45;&gt;Node284 -->
<g id="edge26" class="edge"><title>Node259&#45;&gt;Node284</title>
<path fill="none" stroke="midnightblue" d="M70.5673,-504.378C78.0116,-435.399 111.955,-151.303 172,-89.5 177.26,-84.0861 183.561,-79.806 190.369,-76.4279"/>
<polygon fill="midnightblue" stroke="midnightblue" points="192.09,-79.4991 199.917,-72.3586 189.346,-73.0596 192.09,-79.4991"/>
</g>
<!-- Node285 -->
<g id="node27" class="node"><title>Node285</title>
<g id="a_node27"><a xlink:href="../../d2/dd3/class_hydrax_1_1_god_rays_manager.html#af8b2634a44cca2b88596265e19f7218d" target="_top" xlink:title="Hydrax::GodRaysManager\l::areObjectsIntersectionsEnabled">
<polygon fill="white" stroke="black" points="185,-0.5 185,-30.5 346,-30.5 346,-0.5 185,-0.5"/>
<text text-anchor="start" x="193" y="-18.5" font-family="Helvetica,sans-Serif" font-size="10.00">Hydrax::GodRaysManager</text>
<text text-anchor="middle" x="265.5" y="-7.5" font-family="Helvetica,sans-Serif" font-size="10.00">::areObjectsIntersectionsEnabled</text>
</a>
</g>
</g>
<!-- Node259&#45;&gt;Node285 -->
<g id="edge27" class="edge"><title>Node259&#45;&gt;Node285</title>
<path fill="none" stroke="midnightblue" d="M70.1858,-504.18C76.2174,-430.152 105.829,-110.215 172,-40.5 173.417,-39.0069 174.914,-37.5997 176.478,-36.2736"/>
<polygon fill="midnightblue" stroke="midnightblue" points="178.728,-38.9669 184.818,-30.297 174.651,-33.2771 178.728,-38.9669"/>
</g>
<!-- Node279 -->
<g id="node21" class="node"><title>Node279</title>
<g id="a_node21"><a xlink:href="../../d2/dd3/class_hydrax_1_1_god_rays_manager.html#aed0d897dae3ae6c585a616d071f02c71" target="_top" xlink:title="Hydrax::GodRaysManager\l::setNumberOfRays">
<polygon fill="white" stroke="black" points="395,-147.5 395,-177.5 526,-177.5 526,-147.5 395,-147.5"/>
<text text-anchor="start" x="403" y="-165.5" font-family="Helvetica,sans-Serif" font-size="10.00">Hydrax::GodRaysManager</text>
<text text-anchor="middle" x="460.5" y="-154.5" font-family="Helvetica,sans-Serif" font-size="10.00">::setNumberOfRays</text>
</a>
</g>
</g>
<!-- Node278&#45;&gt;Node279 -->
<g id="edge20" class="edge"><title>Node278&#45;&gt;Node279</title>
<path fill="none" stroke="midnightblue" d="M331.035,-162.5C348.165,-162.5 366.81,-162.5 384.448,-162.5"/>
<polygon fill="midnightblue" stroke="midnightblue" points="384.697,-166 394.697,-162.5 384.697,-159 384.697,-166"/>
</g>
<!-- Node280 -->
<g id="node22" class="node"><title>Node280</title>
<g id="a_node22"><a xlink:href="../../dd/d65/class_hydrax_1_1_hydrax.html#a4f6dfef270938f04d0430eaf8e1fa88f" target="_top" xlink:title="Hydrax::Hydrax::getScene\lManager">
<polygon fill="white" stroke="black" points="730.5,-169.5 730.5,-199.5 861.5,-199.5 861.5,-169.5 730.5,-169.5"/>
<text text-anchor="start" x="738.5" y="-187.5" font-family="Helvetica,sans-Serif" font-size="10.00">Hydrax::Hydrax::getScene</text>
<text text-anchor="middle" x="796" y="-176.5" font-family="Helvetica,sans-Serif" font-size="10.00">Manager</text>
</a>
</g>
</g>
<!-- Node279&#45;&gt;Node280 -->
<g id="edge21" class="edge"><title>Node279&#45;&gt;Node280</title>
<path fill="none" stroke="midnightblue" d="M526.198,-166.768C581.771,-170.434 661.916,-175.721 720.226,-179.567"/>
<polygon fill="midnightblue" stroke="midnightblue" points="720.274,-183.078 730.482,-180.244 720.735,-176.093 720.274,-183.078"/>
</g>
<!-- Node281 -->
<g id="node23" class="node"><title>Node281</title>
<g id="a_node23"><a xlink:href="../../d2/dd3/class_hydrax_1_1_god_rays_manager.html#ab60cb054a3c4948b82c0b1c3736d17b3" target="_top" xlink:title="Hydrax::GodRaysManager\l::_createGodRays">
<polygon fill="white" stroke="black" points="562,-125.5 562,-155.5 693,-155.5 693,-125.5 562,-125.5"/>
<text text-anchor="start" x="570" y="-143.5" font-family="Helvetica,sans-Serif" font-size="10.00">Hydrax::GodRaysManager</text>
<text text-anchor="middle" x="627.5" y="-132.5" font-family="Helvetica,sans-Serif" font-size="10.00">::_createGodRays</text>
</a>
</g>
</g>
<!-- Node279&#45;&gt;Node281 -->
<g id="edge22" class="edge"><title>Node279&#45;&gt;Node281</title>
<path fill="none" stroke="midnightblue" d="M526.239,-153.868C534.675,-152.743 543.371,-151.584 551.951,-150.44"/>
<polygon fill="midnightblue" stroke="midnightblue" points="552.498,-153.898 561.948,-149.107 551.573,-146.959 552.498,-153.898"/>
</g>
<!-- Node281&#45;&gt;Node280 -->
<g id="edge23" class="edge"><title>Node281&#45;&gt;Node280</title>
<path fill="none" stroke="midnightblue" d="M685.334,-155.519C699.188,-159.18 714.132,-163.129 728.395,-166.899"/>
<polygon fill="midnightblue" stroke="midnightblue" points="727.577,-170.303 738.139,-169.474 729.366,-163.535 727.577,-170.303"/>
</g>
<!-- Node282 -->
<g id="node24" class="node"><title>Node282</title>
<g id="a_node24"><a xlink:href="../../dd/d65/class_hydrax_1_1_hydrax.html#aa2e090a9b1b0847b6017c8893e86dc3a" target="_top" xlink:title="Hydrax::Hydrax::_isCurrent\lFrameUnderwater">
<polygon fill="white" stroke="black" points="729,-120.5 729,-150.5 863,-150.5 863,-120.5 729,-120.5"/>
<text text-anchor="start" x="737" y="-138.5" font-family="Helvetica,sans-Serif" font-size="10.00">Hydrax::Hydrax::_isCurrent</text>
<text text-anchor="middle" x="796" y="-127.5" font-family="Helvetica,sans-Serif" font-size="10.00">FrameUnderwater</text>
</a>
</g>
</g>
<!-- Node281&#45;&gt;Node282 -->
<g id="edge24" class="edge"><title>Node281&#45;&gt;Node282</title>
<path fill="none" stroke="midnightblue" d="M693.35,-138.553C701.659,-138.303 710.226,-138.046 718.696,-137.791"/>
<polygon fill="midnightblue" stroke="midnightblue" points="719.065,-141.282 728.956,-137.483 718.855,-134.285 719.065,-141.282"/>
</g>
</g>
</svg>
