<?xml version="1.0" encoding="UTF-8" standalone="no"?>
<!DOCTYPE svg PUBLIC "-//W3C//DTD SVG 1.1//EN"
 "http://www.w3.org/Graphics/SVG/1.1/DTD/svg11.dtd">
<!-- Generated by graphviz version 2.38.0 (20140413.2041)
 -->
<!-- Title: source/main/physics/Differentials.cpp Pages: 1 -->
<!--zoomable 319 -->
<svg id="main" version="1.1" xmlns="http://www.w3.org/2000/svg" xmlns:xlink="http://www.w3.org/1999/xlink" xml:space="preserve" onload="init(evt)">
<style type="text/css"><![CDATA[
.edge:hover path { stroke: red; }
.edge:hover polygon { stroke: red; fill: red; }
]]></style>
<script type="text/javascript"><![CDATA[
var edges = document.getElementsByTagName('g');
if (edges && edges.length) {
  for (var i=0;i<edges.length;i++) {
    if (edges[i].id.substr(0,4)=='edge') {
      edges[i].setAttribute('class','edge');
    }
  }
}
]]></script>
        <defs>
                <circle id="rim" cx="0" cy="0" r="7"/>
                <circle id="rim2" cx="0" cy="0" r="3.5"/>
                <g id="zoomPlus">
                        <use xlink:href="#rim" fill="#404040">
                                <set attributeName="fill" to="#808080" begin="zoomplus.mouseover" end="zoomplus.mouseout"/>
                        </use>
                        <path d="M-4,0h8M0,-4v8" fill="none" stroke="white" stroke-width="1.5" pointer-events="none"/>
                </g>
                <g id="zoomMin">
                        <use xlink:href="#rim" fill="#404040">
                                <set attributeName="fill" to="#808080" begin="zoomminus.mouseover" end="zoomminus.mouseout"/>
                        </use>
                        <path d="M-4,0h8" fill="none" stroke="white" stroke-width="1.5" pointer-events="none"/>
                </g>
                <g id="dirArrow">
                        <path fill="none" stroke="white" stroke-width="1.5" d="M0,-3.0v7 M-2.5,-0.5L0,-3.0L2.5,-0.5"/>
                </g>
               <g id="resetDef">
                       <use xlink:href="#rim2" fill="#404040">
                               <set attributeName="fill" to="#808080" begin="reset.mouseover" end="reset.mouseout"/>
                       </use>
               </g>
        </defs>

<script type="text/javascript">
var viewWidth = 1744;
var viewHeight = 319;
var sectionId = 'dynsection-0';
</script>
<script xlink:href="../../svgpan.js"/>
<svg id="graph" class="graph">
<g id="viewport">
<title>source/main/physics/Differentials.cpp</title>
<polygon fill="white" stroke="none" points="-4,4 -4,-315 1740,-315 1740,4 -4,4"/>
<!-- Node0 -->
<g id="node1" class="node"><title>Node0</title>
<polygon fill="#bfbfbf" stroke="black" points="804,-280.5 804,-310.5 911,-310.5 911,-280.5 804,-280.5"/>
<text text-anchor="start" x="812" y="-298.5" font-family="Helvetica,sans-Serif" font-size="10.00">source/main/physics</text>
<text text-anchor="middle" x="857.5" y="-287.5" font-family="Helvetica,sans-Serif" font-size="10.00">/Differentials.cpp</text>
</g>
<!-- Node1 -->
<g id="node2" class="node"><title>Node1</title>
<g id="a_node2"><a xlink:href="../../dc/d4d/_differentials_8h.html" target="_top" xlink:title="Differentials.h">
<polygon fill="white" stroke="black" points="648,-168.5 648,-187.5 723,-187.5 723,-168.5 648,-168.5"/>
<text text-anchor="middle" x="685.5" y="-175.5" font-family="Helvetica,sans-Serif" font-size="10.00">Differentials.h</text>
</a>
</g>
</g>
<!-- Node0&#45;&gt;Node1 -->
<g id="edge1" class="edge"><title>Node0&#45;&gt;Node1</title>
<path fill="none" stroke="midnightblue" d="M836.409,-280.337C803.447,-258.203 740.069,-215.644 706.911,-193.378"/>
<polygon fill="midnightblue" stroke="midnightblue" points="708.663,-190.339 698.41,-187.669 704.761,-196.15 708.663,-190.339"/>
</g>
<!-- Node7 -->
<g id="node8" class="node"><title>Node7</title>
<polygon fill="white" stroke="#bfbfbf" points="1637,-56.5 1637,-75.5 1736,-75.5 1736,-56.5 1637,-56.5"/>
<text text-anchor="middle" x="1686.5" y="-63.5" font-family="Helvetica,sans-Serif" font-size="10.00">OgreLogManager.h</text>
</g>
<!-- Node0&#45;&gt;Node7 -->
<g id="edge22" class="edge"><title>Node0&#45;&gt;Node7</title>
<path fill="none" stroke="midnightblue" d="M908.732,-280.441C1060.78,-238.714 1507.44,-116.14 1645.42,-78.2743"/>
<polygon fill="midnightblue" stroke="midnightblue" points="1646.47,-81.615 1655.19,-75.5933 1644.62,-74.8645 1646.47,-81.615"/>
</g>
<!-- Node20 -->
<g id="node21" class="node"><title>Node20</title>
<g id="a_node21"><a xlink:href="../../dc/d4b/_language_8h.html" target="_top" xlink:title="Language.h">
<polygon fill="white" stroke="black" points="824,-224.5 824,-243.5 891,-243.5 891,-224.5 824,-224.5"/>
<text text-anchor="middle" x="857.5" y="-231.5" font-family="Helvetica,sans-Serif" font-size="10.00">Language.h</text>
</a>
</g>
</g>
<!-- Node0&#45;&gt;Node20 -->
<g id="edge23" class="edge"><title>Node0&#45;&gt;Node20</title>
<path fill="none" stroke="midnightblue" d="M857.5,-280.399C857.5,-272.466 857.5,-262.458 857.5,-253.858"/>
<polygon fill="midnightblue" stroke="midnightblue" points="861,-253.658 857.5,-243.658 854,-253.658 861,-253.658"/>
</g>
<!-- Node2 -->
<g id="node3" class="node"><title>Node2</title>
<polygon fill="white" stroke="#bfbfbf" points="0,-56.5 0,-75.5 103,-75.5 103,-56.5 0,-56.5"/>
<text text-anchor="middle" x="51.5" y="-63.5" font-family="Helvetica,sans-Serif" font-size="10.00">OgrePrerequisites.h</text>
</g>
<!-- Node1&#45;&gt;Node2 -->
<g id="edge2" class="edge"><title>Node1&#45;&gt;Node2</title>
<path fill="none" stroke="midnightblue" d="M647.739,-170.448C541.453,-152.008 239.142,-99.5561 110.553,-77.2458"/>
<polygon fill="midnightblue" stroke="midnightblue" points="110.947,-73.7619 100.495,-75.5008 109.75,-80.6588 110.947,-73.7619"/>
</g>
<!-- Node3 -->
<g id="node4" class="node"><title>Node3</title>
<g id="a_node4"><a xlink:href="../../d8/d9c/_ro_r_prerequisites_8h.html" target="_top" xlink:title="RoRPrerequisites.h">
<polygon fill="white" stroke="black" points="834,-112.5 834,-131.5 935,-131.5 935,-112.5 834,-112.5"/>
<text text-anchor="middle" x="884.5" y="-119.5" font-family="Helvetica,sans-Serif" font-size="10.00">RoRPrerequisites.h</text>
</a>
</g>
</g>
<!-- Node1&#45;&gt;Node3 -->
<g id="edge3" class="edge"><title>Node1&#45;&gt;Node3</title>
<path fill="none" stroke="midnightblue" d="M717.032,-168.444C751.092,-159.201 805.506,-144.436 843.015,-134.257"/>
<polygon fill="midnightblue" stroke="midnightblue" points="844.381,-137.513 853.115,-131.516 842.548,-130.758 844.381,-137.513"/>
</g>
<!-- Node3&#45;&gt;Node2 -->
<g id="edge4" class="edge"><title>Node3&#45;&gt;Node2</title>
<path fill="none" stroke="midnightblue" d="M833.794,-119.593C711.699,-115.872 391.555,-104.138 113.339,-75.9828"/>
<polygon fill="midnightblue" stroke="midnightblue" points="113.348,-72.4656 103.045,-74.9315 112.637,-79.4294 113.348,-72.4656"/>
</g>
<!-- Node4 -->
<g id="node5" class="node"><title>Node4</title>
<polygon fill="white" stroke="#bfbfbf" points="1504,-56.5 1504,-75.5 1619,-75.5 1619,-56.5 1504,-56.5"/>
<text text-anchor="middle" x="1561.5" y="-63.5" font-family="Helvetica,sans-Serif" font-size="10.00">OgreAxisAlignedBox.h</text>
</g>
<!-- Node3&#45;&gt;Node4 -->
<g id="edge5" class="edge"><title>Node3&#45;&gt;Node4</title>
<path fill="none" stroke="midnightblue" d="M935.289,-118.327C1038.52,-112.664 1280.45,-98.2114 1493.8,-76.1217"/>
<polygon fill="midnightblue" stroke="midnightblue" points="1494.35,-79.583 1503.93,-75.0641 1493.62,-72.6208 1494.35,-79.583"/>
</g>
<!-- Node5 -->
<g id="node6" class="node"><title>Node5</title>
<polygon fill="white" stroke="#bfbfbf" points="121.5,-56.5 121.5,-75.5 219.5,-75.5 219.5,-56.5 121.5,-56.5"/>
<text text-anchor="middle" x="170.5" y="-63.5" font-family="Helvetica,sans-Serif" font-size="10.00">OgreColourValue.h</text>
</g>
<!-- Node3&#45;&gt;Node5 -->
<g id="edge6" class="edge"><title>Node3&#45;&gt;Node5</title>
<path fill="none" stroke="midnightblue" d="M833.749,-118.998C724.953,-114.386 461.031,-101.491 229.466,-76.0117"/>
<polygon fill="midnightblue" stroke="midnightblue" points="229.834,-72.5311 219.508,-74.906 229.061,-79.4884 229.834,-72.5311"/>
</g>
<!-- Node6 -->
<g id="node7" class="node"><title>Node6</title>
<polygon fill="white" stroke="#bfbfbf" points="238,-56.5 238,-75.5 339,-75.5 339,-56.5 238,-56.5"/>
<text text-anchor="middle" x="288.5" y="-63.5" font-family="Helvetica,sans-Serif" font-size="10.00">OgreHeaderPrefix.h</text>
</g>
<!-- Node3&#45;&gt;Node6 -->
<g id="edge7" class="edge"><title>Node3&#45;&gt;Node6</title>
<path fill="none" stroke="midnightblue" d="M833.669,-117.893C739.927,-111.912 533.298,-97.5594 349.141,-76.1239"/>
<polygon fill="midnightblue" stroke="midnightblue" points="349.34,-72.6233 339,-74.9336 348.524,-79.5755 349.34,-72.6233"/>
</g>
<!-- Node3&#45;&gt;Node7 -->
<g id="edge8" class="edge"><title>Node3&#45;&gt;Node7</title>
<path fill="none" stroke="midnightblue" d="M935.155,-119.57C1054.1,-115.862 1360.69,-104.262 1626.63,-76.1085"/>
<polygon fill="midnightblue" stroke="midnightblue" points="1627.29,-79.5573 1636.87,-75.0143 1626.55,-72.5969 1627.29,-79.5573"/>
</g>
<!-- Node8 -->
<g id="node9" class="node"><title>Node8</title>
<polygon fill="white" stroke="#bfbfbf" points="357,-56.5 357,-75.5 450,-75.5 450,-56.5 357,-56.5"/>
<text text-anchor="middle" x="403.5" y="-63.5" font-family="Helvetica,sans-Serif" font-size="10.00">OgreQuaternion.h</text>
</g>
<!-- Node3&#45;&gt;Node8 -->
<g id="edge9" class="edge"><title>Node3&#45;&gt;Node8</title>
<path fill="none" stroke="midnightblue" d="M833.894,-116.595C755.857,-109.594 601.217,-94.904 460.395,-76.195"/>
<polygon fill="midnightblue" stroke="midnightblue" points="460.657,-72.6989 450.281,-74.841 459.728,-79.637 460.657,-72.6989"/>
</g>
<!-- Node9 -->
<g id="node10" class="node"><title>Node9</title>
<polygon fill="white" stroke="#bfbfbf" points="468,-56.5 468,-75.5 539,-75.5 539,-56.5 468,-56.5"/>
<text text-anchor="middle" x="503.5" y="-63.5" font-family="Helvetica,sans-Serif" font-size="10.00">OgreString.h</text>
</g>
<!-- Node3&#45;&gt;Node9 -->
<g id="edge10" class="edge"><title>Node3&#45;&gt;Node9</title>
<path fill="none" stroke="midnightblue" d="M833.971,-115.259C770.086,-107.773 656.506,-93.7077 549.339,-76.045"/>
<polygon fill="midnightblue" stroke="midnightblue" points="549.762,-72.5673 539.323,-74.3804 548.614,-79.4726 549.762,-72.5673"/>
</g>
<!-- Node10 -->
<g id="node11" class="node"><title>Node10</title>
<polygon fill="white" stroke="#bfbfbf" points="557.5,-56.5 557.5,-75.5 669.5,-75.5 669.5,-56.5 557.5,-56.5"/>
<text text-anchor="middle" x="613.5" y="-63.5" font-family="Helvetica,sans-Serif" font-size="10.00">OgreStringConverter.h</text>
</g>
<!-- Node3&#45;&gt;Node10 -->
<g id="edge11" class="edge"><title>Node3&#45;&gt;Node10</title>
<path fill="none" stroke="midnightblue" d="M841.559,-112.444C793.987,-102.964 717.256,-87.6747 666.111,-77.4835"/>
<polygon fill="midnightblue" stroke="midnightblue" points="666.731,-74.0382 656.24,-75.5164 665.363,-80.9032 666.731,-74.0382"/>
</g>
<!-- Node11 -->
<g id="node12" class="node"><title>Node11</title>
<polygon fill="white" stroke="#bfbfbf" points="688,-56.5 688,-75.5 777,-75.5 777,-56.5 688,-56.5"/>
<text text-anchor="middle" x="732.5" y="-63.5" font-family="Helvetica,sans-Serif" font-size="10.00">OgreUTFString.h</text>
</g>
<!-- Node3&#45;&gt;Node11 -->
<g id="edge12" class="edge"><title>Node3&#45;&gt;Node11</title>
<path fill="none" stroke="midnightblue" d="M860.415,-112.444C834.955,-103.399 794.606,-89.064 766.041,-78.9158"/>
<polygon fill="midnightblue" stroke="midnightblue" points="767.067,-75.5661 756.472,-75.5164 764.723,-82.1622 767.067,-75.5661"/>
</g>
<!-- Node12 -->
<g id="node13" class="node"><title>Node12</title>
<polygon fill="white" stroke="#bfbfbf" points="795.5,-56.5 795.5,-75.5 875.5,-75.5 875.5,-56.5 795.5,-56.5"/>
<text text-anchor="middle" x="835.5" y="-63.5" font-family="Helvetica,sans-Serif" font-size="10.00">OgreVector2.h</text>
</g>
<!-- Node3&#45;&gt;Node12 -->
<g id="edge13" class="edge"><title>Node3&#45;&gt;Node12</title>
<path fill="none" stroke="midnightblue" d="M876.409,-112.083C869.345,-104.298 858.912,-92.8015 850.351,-83.3665"/>
<polygon fill="midnightblue" stroke="midnightblue" points="852.753,-80.8047 843.441,-75.7511 847.569,-85.5087 852.753,-80.8047"/>
</g>
<!-- Node13 -->
<g id="node14" class="node"><title>Node13</title>
<polygon fill="white" stroke="#bfbfbf" points="893.5,-56.5 893.5,-75.5 973.5,-75.5 973.5,-56.5 893.5,-56.5"/>
<text text-anchor="middle" x="933.5" y="-63.5" font-family="Helvetica,sans-Serif" font-size="10.00">OgreVector3.h</text>
</g>
<!-- Node3&#45;&gt;Node13 -->
<g id="edge14" class="edge"><title>Node3&#45;&gt;Node13</title>
<path fill="none" stroke="midnightblue" d="M892.591,-112.083C899.655,-104.298 910.088,-92.8015 918.649,-83.3665"/>
<polygon fill="midnightblue" stroke="midnightblue" points="921.431,-85.5087 925.559,-75.7511 916.247,-80.8047 921.431,-85.5087"/>
</g>
<!-- Node14 -->
<g id="node15" class="node"><title>Node14</title>
<g id="a_node15"><a xlink:href="../../d3/d73/_forward_declarations_8h.html" target="_top" xlink:title="Global forward declarations. ">
<polygon fill="white" stroke="black" points="986,-0.5 986,-19.5 1099,-19.5 1099,-0.5 986,-0.5"/>
<text text-anchor="middle" x="1042.5" y="-7.5" font-family="Helvetica,sans-Serif" font-size="10.00">ForwardDeclarations.h</text>
</a>
</g>
</g>
<!-- Node3&#45;&gt;Node14 -->
<g id="edge15" class="edge"><title>Node3&#45;&gt;Node14</title>
<path fill="none" stroke="midnightblue" d="M910.137,-112.422C930.826,-104.775 960.077,-92.2776 982.5,-76 1001.44,-62.2528 1019.09,-41.8424 1030.27,-27.5713"/>
<polygon fill="midnightblue" stroke="midnightblue" points="1033.08,-29.6675 1036.36,-19.5933 1027.51,-25.4229 1033.08,-29.6675"/>
</g>
<!-- Node15 -->
<g id="node16" class="node"><title>Node15</title>
<g id="a_node16"><a xlink:href="../../d7/dfa/_global_environment_8h.html" target="_top" xlink:title="GlobalEnvironment.h">
<polygon fill="white" stroke="black" points="1029.5,-56.5 1029.5,-75.5 1135.5,-75.5 1135.5,-56.5 1029.5,-56.5"/>
<text text-anchor="middle" x="1082.5" y="-63.5" font-family="Helvetica,sans-Serif" font-size="10.00">GlobalEnvironment.h</text>
</a>
</g>
</g>
<!-- Node3&#45;&gt;Node15 -->
<g id="edge16" class="edge"><title>Node3&#45;&gt;Node15</title>
<path fill="none" stroke="midnightblue" d="M915.874,-112.444C949.763,-103.201 1003.9,-88.4356 1041.22,-78.2572"/>
<polygon fill="midnightblue" stroke="midnightblue" points="1042.55,-81.5243 1051.27,-75.5164 1040.7,-74.771 1042.55,-81.5243"/>
</g>
<!-- Node16 -->
<g id="node17" class="node"><title>Node16</title>
<g id="a_node17"><a xlink:href="../../dc/de5/_zeroed_memory_allocator_8h.html" target="_top" xlink:title="ZeroedMemoryAllocator.h">
<polygon fill="white" stroke="black" points="1153.5,-56.5 1153.5,-75.5 1281.5,-75.5 1281.5,-56.5 1153.5,-56.5"/>
<text text-anchor="middle" x="1217.5" y="-63.5" font-family="Helvetica,sans-Serif" font-size="10.00">ZeroedMemoryAllocator.h</text>
</a>
</g>
</g>
<!-- Node3&#45;&gt;Node16 -->
<g id="edge18" class="edge"><title>Node3&#45;&gt;Node16</title>
<path fill="none" stroke="midnightblue" d="M935.076,-112.799C994.054,-103.234 1091.56,-87.4228 1155.17,-77.1082"/>
<polygon fill="midnightblue" stroke="midnightblue" points="1155.76,-80.5574 1165.07,-75.5018 1154.64,-73.6477 1155.76,-80.5574"/>
</g>
<!-- Node17 -->
<g id="node18" class="node"><title>Node17</title>
<g id="a_node18"><a xlink:href="../../d7/d85/_bit_flags_8h.html" target="_top" xlink:title="BitFlags.h">
<polygon fill="white" stroke="black" points="1300,-56.5 1300,-75.5 1361,-75.5 1361,-56.5 1300,-56.5"/>
<text text-anchor="middle" x="1330.5" y="-63.5" font-family="Helvetica,sans-Serif" font-size="10.00">BitFlags.h</text>
</a>
</g>
</g>
<!-- Node3&#45;&gt;Node17 -->
<g id="edge19" class="edge"><title>Node3&#45;&gt;Node17</title>
<path fill="none" stroke="midnightblue" d="M935.067,-117.21C1010.23,-111.177 1156.03,-97.9458 1289.96,-75.9016"/>
<polygon fill="midnightblue" stroke="midnightblue" points="1290.71,-79.3262 1299.99,-74.23 1289.55,-72.4214 1290.71,-79.3262"/>
</g>
<!-- Node19 -->
<g id="node20" class="node"><title>Node19</title>
<polygon fill="white" stroke="#bfbfbf" points="1379,-56.5 1379,-75.5 1486,-75.5 1486,-56.5 1379,-56.5"/>
<text text-anchor="middle" x="1432.5" y="-63.5" font-family="Helvetica,sans-Serif" font-size="10.00">MyGUI_Prerequest.h</text>
</g>
<!-- Node3&#45;&gt;Node19 -->
<g id="edge21" class="edge"><title>Node3&#45;&gt;Node19</title>
<path fill="none" stroke="midnightblue" d="M935.317,-117.167C1022.04,-110.434 1204.42,-95.4486 1368.47,-76.1909"/>
<polygon fill="midnightblue" stroke="midnightblue" points="1369.23,-79.6256 1378.75,-74.9757 1368.41,-72.674 1369.23,-79.6256"/>
</g>
<!-- Node15&#45;&gt;Node14 -->
<g id="edge17" class="edge"><title>Node15&#45;&gt;Node14</title>
<path fill="none" stroke="midnightblue" d="M1075.89,-56.083C1070.24,-48.4554 1061.96,-37.2645 1055.05,-27.9408"/>
<polygon fill="midnightblue" stroke="midnightblue" points="1057.75,-25.7034 1048.98,-19.7511 1052.12,-29.87 1057.75,-25.7034"/>
</g>
<!-- Node18 -->
<g id="node19" class="node"><title>Node18</title>
<polygon fill="white" stroke="#bfbfbf" points="1307.5,-0.5 1307.5,-19.5 1353.5,-19.5 1353.5,-0.5 1307.5,-0.5"/>
<text text-anchor="middle" x="1330.5" y="-7.5" font-family="Helvetica,sans-Serif" font-size="10.00">cstdint</text>
</g>
<!-- Node17&#45;&gt;Node18 -->
<g id="edge20" class="edge"><title>Node17&#45;&gt;Node18</title>
<path fill="none" stroke="midnightblue" d="M1330.5,-56.083C1330.5,-49.0059 1330.5,-38.8611 1330.5,-29.9865"/>
<polygon fill="midnightblue" stroke="midnightblue" points="1334,-29.751 1330.5,-19.7511 1327,-29.7511 1334,-29.751"/>
</g>
<!-- Node20&#45;&gt;Node3 -->
<g id="edge24" class="edge"><title>Node20&#45;&gt;Node3</title>
<path fill="none" stroke="midnightblue" d="M859.619,-224.368C863.976,-206.617 874.027,-165.666 879.935,-141.597"/>
<polygon fill="midnightblue" stroke="midnightblue" points="883.406,-142.137 882.391,-131.591 876.608,-140.469 883.406,-142.137"/>
</g>
<!-- Node21 -->
<g id="node22" class="node"><title>Node21</title>
<g id="a_node22"><a xlink:href="../../de/dec/_singleton_8h.html" target="_top" xlink:title="Singleton.h">
<polygon fill="white" stroke="black" points="913,-168.5 913,-187.5 978,-187.5 978,-168.5 913,-168.5"/>
<text text-anchor="middle" x="945.5" y="-175.5" font-family="Helvetica,sans-Serif" font-size="10.00">Singleton.h</text>
</a>
</g>
</g>
<!-- Node20&#45;&gt;Node21 -->
<g id="edge25" class="edge"><title>Node20&#45;&gt;Node21</title>
<path fill="none" stroke="midnightblue" d="M871.639,-224.324C885.366,-215.9 906.436,-202.971 922.564,-193.074"/>
<polygon fill="midnightblue" stroke="midnightblue" points="924.704,-195.868 931.396,-187.655 921.043,-189.902 924.704,-195.868"/>
</g>
<!-- Node22 -->
<g id="node23" class="node"><title>Node22</title>
<polygon fill="white" stroke="#bfbfbf" points="741,-168.5 741,-187.5 788,-187.5 788,-168.5 741,-168.5"/>
<text text-anchor="middle" x="764.5" y="-175.5" font-family="Helvetica,sans-Serif" font-size="10.00">libintl.h</text>
</g>
<!-- Node20&#45;&gt;Node22 -->
<g id="edge27" class="edge"><title>Node20&#45;&gt;Node22</title>
<path fill="none" stroke="midnightblue" d="M842.558,-224.324C827.915,-215.822 805.366,-202.729 788.262,-192.797"/>
<polygon fill="midnightblue" stroke="midnightblue" points="789.81,-189.649 779.405,-187.655 786.295,-195.703 789.81,-189.649"/>
</g>
<!-- Node23 -->
<g id="node24" class="node"><title>Node23</title>
<polygon fill="white" stroke="#bfbfbf" points="806.5,-168.5 806.5,-187.5 856.5,-187.5 856.5,-168.5 806.5,-168.5"/>
<text text-anchor="middle" x="831.5" y="-175.5" font-family="Helvetica,sans-Serif" font-size="10.00">locale.h</text>
</g>
<!-- Node20&#45;&gt;Node23 -->
<g id="edge28" class="edge"><title>Node20&#45;&gt;Node23</title>
<path fill="none" stroke="midnightblue" d="M853.207,-224.083C849.648,-216.691 844.478,-205.953 840.076,-196.811"/>
<polygon fill="midnightblue" stroke="midnightblue" points="843.205,-195.243 835.713,-187.751 836.898,-198.279 843.205,-195.243"/>
</g>
<!-- Node21&#45;&gt;Node3 -->
<g id="edge26" class="edge"><title>Node21&#45;&gt;Node3</title>
<path fill="none" stroke="midnightblue" d="M935.699,-168.324C926.682,-160.341 913.094,-148.313 902.182,-138.653"/>
<polygon fill="midnightblue" stroke="midnightblue" points="904.287,-135.842 894.479,-131.834 899.647,-141.083 904.287,-135.842"/>
</g>
</g>
</svg>
        <g id="navigator" transform="translate(0 0)" fill="#404254">
                <rect fill="#f2f5e9" fill-opacity="0.5" stroke="#606060" stroke-width=".5" x="0" y="0" width="60" height="60"/>
                <use id="zoomplus" xlink:href="#zoomPlus" x="17" y="9" onmousedown="handleZoom(evt,'in')"/>
                <use id="zoomminus" xlink:href="#zoomMin" x="42" y="9" onmousedown="handleZoom(evt,'out')"/>
                <use id="reset" xlink:href="#resetDef" x="30" y="36" onmousedown="handleReset()"/>
                <g id="arrowUp" xlink:href="#dirArrow" transform="translate(30 24)" onmousedown="handlePan(0,-1)">
                  <use xlink:href="#rim" fill="#404040">
                        <set attributeName="fill" to="#808080" begin="arrowUp.mouseover" end="arrowUp.mouseout"/>
                  </use>
                  <path fill="none" stroke="white" stroke-width="1.5" d="M0,-3.0v7 M-2.5,-0.5L0,-3.0L2.5,-0.5"/>
                </g>
                <g id="arrowRight" xlink:href="#dirArrow" transform="rotate(90) translate(36 -43)" onmousedown="handlePan(1,0)">
                  <use xlink:href="#rim" fill="#404040">
                        <set attributeName="fill" to="#808080" begin="arrowRight.mouseover" end="arrowRight.mouseout"/>
                  </use>
                  <path fill="none" stroke="white" stroke-width="1.5" d="M0,-3.0v7 M-2.5,-0.5L0,-3.0L2.5,-0.5"/>
                </g>
                <g id="arrowDown" xlink:href="#dirArrow" transform="rotate(180) translate(-30 -48)" onmousedown="handlePan(0,1)">
                  <use xlink:href="#rim" fill="#404040">
                        <set attributeName="fill" to="#808080" begin="arrowDown.mouseover" end="arrowDown.mouseout"/>
                  </use>
                  <path fill="none" stroke="white" stroke-width="1.5" d="M0,-3.0v7 M-2.5,-0.5L0,-3.0L2.5,-0.5"/>
                </g>
                <g id="arrowLeft" xlink:href="#dirArrow" transform="rotate(270) translate(-36 17)" onmousedown="handlePan(-1,0)">
                  <use xlink:href="#rim" fill="#404040">
                        <set attributeName="fill" to="#808080" begin="arrowLeft.mouseover" end="arrowLeft.mouseout"/>
                  </use>
                  <path fill="none" stroke="white" stroke-width="1.5" d="M0,-3.0v7 M-2.5,-0.5L0,-3.0L2.5,-0.5"/>
                </g>
        </g>
        <svg viewBox="0 0 15 15" width="100%" height="30px" preserveAspectRatio="xMaxYMin meet">
         <g id="arrow_out" transform="scale(0.3 0.3)">
          <a xlink:href="_differentials_8cpp__incl_org.svg" target="_base">
           <rect id="button" ry="5" rx="5" y="6" x="6" height="38" width="38"
                fill="#f2f5e9" fill-opacity="0.5" stroke="#606060" stroke-width="1.0"/>
           <path id="arrow"
             d="M 11.500037,31.436501 C 11.940474,20.09759 22.043105,11.32322 32.158766,21.979434 L 37.068811,17.246167 C 37.068811,17.246167 37.088388,32 37.088388,32 L 22.160133,31.978069 C 22.160133,31.978069 26.997745,27.140456 26.997745,27.140456 C 18.528582,18.264221 13.291696,25.230495 11.500037,31.436501 z"
             style="fill:#404040;"/>
          </a>
         </g>
        </svg>
</svg>
