<?xml version="1.0" encoding="UTF-8" standalone="no"?>
<!DOCTYPE svg PUBLIC "-//W3C//DTD SVG 1.1//EN"
 "http://www.w3.org/Graphics/SVG/1.1/DTD/svg11.dtd">
<!-- Generated by graphviz version 2.38.0 (20140413.2041)
 -->
<!-- Title: source/main/gui/panels/GUI_GameSettings.cpp Pages: 1 -->
<!--zoomable 375 -->
<svg id="main" version="1.1" xmlns="http://www.w3.org/2000/svg" xmlns:xlink="http://www.w3.org/1999/xlink" xml:space="preserve" onload="init(evt)">
<style type="text/css"><![CDATA[
.edge:hover path { stroke: red; }
.edge:hover polygon { stroke: red; fill: red; }
]]></style>
<script type="text/javascript"><![CDATA[
var edges = document.getElementsByTagName('g');
if (edges && edges.length) {
  for (var i=0;i<edges.length;i++) {
    if (edges[i].id.substr(0,4)=='edge') {
      edges[i].setAttribute('class','edge');
    }
  }
}
]]></script>
        <defs>
                <circle id="rim" cx="0" cy="0" r="7"/>
                <circle id="rim2" cx="0" cy="0" r="3.5"/>
                <g id="zoomPlus">
                        <use xlink:href="#rim" fill="#404040">
                                <set attributeName="fill" to="#808080" begin="zoomplus.mouseover" end="zoomplus.mouseout"/>
                        </use>
                        <path d="M-4,0h8M0,-4v8" fill="none" stroke="white" stroke-width="1.5" pointer-events="none"/>
                </g>
                <g id="zoomMin">
                        <use xlink:href="#rim" fill="#404040">
                                <set attributeName="fill" to="#808080" begin="zoomminus.mouseover" end="zoomminus.mouseout"/>
                        </use>
                        <path d="M-4,0h8" fill="none" stroke="white" stroke-width="1.5" pointer-events="none"/>
                </g>
                <g id="dirArrow">
                        <path fill="none" stroke="white" stroke-width="1.5" d="M0,-3.0v7 M-2.5,-0.5L0,-3.0L2.5,-0.5"/>
                </g>
               <g id="resetDef">
                       <use xlink:href="#rim2" fill="#404040">
                               <set attributeName="fill" to="#808080" begin="reset.mouseover" end="reset.mouseout"/>
                       </use>
               </g>
        </defs>

<script type="text/javascript">
var viewWidth = 2195;
var viewHeight = 375;
var sectionId = 'dynsection-0';
</script>
<script xlink:href="../../svgpan.js"/>
<svg id="graph" class="graph">
<g id="viewport">
<title>source/main/gui/panels/GUI_GameSettings.cpp</title>
<polygon fill="white" stroke="none" points="-4,4 -4,-371 2191.15,-371 2191.15,4 -4,4"/>
<!-- Node0 -->
<g id="node1" class="node"><title>Node0</title>
<polygon fill="#bfbfbf" stroke="black" points="805.149,-336.5 805.149,-366.5 927.149,-366.5 927.149,-336.5 805.149,-336.5"/>
<text text-anchor="start" x="813.149" y="-354.5" font-family="Helvetica,sans-Serif" font-size="10.00">source/main/gui/panels</text>
<text text-anchor="middle" x="866.149" y="-343.5" font-family="Helvetica,sans-Serif" font-size="10.00">/GUI_GameSettings.cpp</text>
</g>
<!-- Node1 -->
<g id="node2" class="node"><title>Node1</title>
<g id="a_node2"><a xlink:href="../../d9/ddf/_g_u_i___game_settings_8h.html" target="_top" xlink:title="GUI_GameSettings.h">
<polygon fill="white" stroke="black" points="560.649,-280.5 560.649,-299.5 669.649,-299.5 669.649,-280.5 560.649,-280.5"/>
<text text-anchor="middle" x="615.149" y="-287.5" font-family="Helvetica,sans-Serif" font-size="10.00">GUI_GameSettings.h</text>
</a>
</g>
</g>
<!-- Node0&#45;&gt;Node1 -->
<g id="edge1" class="edge"><title>Node0&#45;&gt;Node1</title>
<path fill="none" stroke="midnightblue" d="M806.983,-336.475C762.357,-325.896 702.027,-311.595 661.021,-301.874"/>
<polygon fill="midnightblue" stroke="midnightblue" points="661.571,-298.407 651.033,-299.506 659.956,-305.219 661.571,-298.407"/>
</g>
<!-- Node23 -->
<g id="node24" class="node"><title>Node23</title>
<g id="a_node24"><a xlink:href="../../d2/de5/_g_u_i_manager_8h.html" target="_top" xlink:title="GUIManager.h">
<polygon fill="white" stroke="black" points="1034.65,-224.5 1034.65,-243.5 1113.65,-243.5 1113.65,-224.5 1034.65,-224.5"/>
<text text-anchor="middle" x="1074.15" y="-231.5" font-family="Helvetica,sans-Serif" font-size="10.00">GUIManager.h</text>
</a>
</g>
</g>
<!-- Node0&#45;&gt;Node23 -->
<g id="edge23" class="edge"><title>Node0&#45;&gt;Node23</title>
<path fill="none" stroke="midnightblue" d="M891.654,-336.337C931.956,-313.958 1009.86,-270.7 1049.57,-248.647"/>
<polygon fill="midnightblue" stroke="midnightblue" points="1051.76,-251.437 1058.8,-243.522 1048.36,-245.317 1051.76,-251.437"/>
</g>
<!-- Node46 -->
<g id="node47" class="node"><title>Node46</title>
<g id="a_node47"><a xlink:href="../../d2/d43/_g_u_i_utils_8h.html" target="_top" xlink:title="GUIUtils.h">
<polygon fill="white" stroke="black" points="835.649,-280.5 835.649,-299.5 896.649,-299.5 896.649,-280.5 835.649,-280.5"/>
<text text-anchor="middle" x="866.149" y="-287.5" font-family="Helvetica,sans-Serif" font-size="10.00">GUIUtils.h</text>
</a>
</g>
</g>
<!-- Node0&#45;&gt;Node46 -->
<g id="edge51" class="edge"><title>Node0&#45;&gt;Node46</title>
<path fill="none" stroke="midnightblue" d="M866.149,-336.399C866.149,-328.466 866.149,-318.458 866.149,-309.858"/>
<polygon fill="midnightblue" stroke="midnightblue" points="869.649,-309.658 866.149,-299.658 862.649,-309.658 869.649,-309.658"/>
</g>
<!-- Node2 -->
<g id="node3" class="node"><title>Node2</title>
<g id="a_node3"><a xlink:href="../../d9/da3/_application_8h.html" target="_top" xlink:title="Central state/object manager and communications hub. ">
<polygon fill="white" stroke="black" points="473.649,-224.5 473.649,-243.5 546.649,-243.5 546.649,-224.5 473.649,-224.5"/>
<text text-anchor="middle" x="510.149" y="-231.5" font-family="Helvetica,sans-Serif" font-size="10.00">Application.h</text>
</a>
</g>
</g>
<!-- Node1&#45;&gt;Node2 -->
<g id="edge2" class="edge"><title>Node1&#45;&gt;Node2</title>
<path fill="none" stroke="midnightblue" d="M598.279,-280.324C581.44,-271.664 555.342,-258.242 535.911,-248.249"/>
<polygon fill="midnightblue" stroke="midnightblue" points="537.471,-245.116 526.977,-243.655 534.269,-251.341 537.471,-245.116"/>
</g>
<!-- Node7 -->
<g id="node8" class="node"><title>Node7</title>
<g id="a_node8"><a xlink:href="../../d3/d6b/_ogre_im_gui_8h.html" target="_top" xlink:title="OgreImGui.h">
<polygon fill="white" stroke="black" points="579.649,-168.5 579.649,-187.5 650.649,-187.5 650.649,-168.5 579.649,-168.5"/>
<text text-anchor="middle" x="615.149" y="-175.5" font-family="Helvetica,sans-Serif" font-size="10.00">OgreImGui.h</text>
</a>
</g>
</g>
<!-- Node1&#45;&gt;Node7 -->
<g id="edge7" class="edge"><title>Node1&#45;&gt;Node7</title>
<path fill="none" stroke="midnightblue" d="M615.149,-280.368C615.149,-262.617 615.149,-221.666 615.149,-197.597"/>
<polygon fill="midnightblue" stroke="midnightblue" points="618.649,-197.591 615.149,-187.591 611.649,-197.591 618.649,-197.591"/>
</g>
<!-- Node3 -->
<g id="node4" class="node"><title>Node3</title>
<g id="a_node4"><a xlink:href="../../d3/d73/_forward_declarations_8h.html" target="_top" xlink:title="Global forward declarations. ">
<polygon fill="white" stroke="black" points="829.649,-0.5 829.649,-19.5 942.649,-19.5 942.649,-0.5 829.649,-0.5"/>
<text text-anchor="middle" x="886.149" y="-7.5" font-family="Helvetica,sans-Serif" font-size="10.00">ForwardDeclarations.h</text>
</a>
</g>
</g>
<!-- Node2&#45;&gt;Node3 -->
<g id="edge3" class="edge"><title>Node2&#45;&gt;Node3</title>
<path fill="none" stroke="midnightblue" d="M473.298,-231.863C338.967,-226.56 -109.675,-198.054 25.149,-56 52.3708,-27.3183 621.461,-15.3238 819.176,-12.0119"/>
<polygon fill="midnightblue" stroke="midnightblue" points="819.486,-15.5074 829.427,-11.8425 819.371,-8.50833 819.486,-15.5074"/>
</g>
<!-- Node4 -->
<g id="node5" class="node"><title>Node4</title>
<polygon fill="white" stroke="#bfbfbf" points="394.649,-168.5 394.649,-187.5 437.649,-187.5 437.649,-168.5 394.649,-168.5"/>
<text text-anchor="middle" x="416.149" y="-175.5" font-family="Helvetica,sans-Serif" font-size="10.00">cstdio</text>
</g>
<!-- Node2&#45;&gt;Node4 -->
<g id="edge4" class="edge"><title>Node2&#45;&gt;Node4</title>
<path fill="none" stroke="midnightblue" d="M495.046,-224.324C480.246,-215.822 457.455,-202.729 440.167,-192.797"/>
<polygon fill="midnightblue" stroke="midnightblue" points="441.629,-189.601 431.214,-187.655 438.142,-195.671 441.629,-189.601"/>
</g>
<!-- Node5 -->
<g id="node6" class="node"><title>Node5</title>
<polygon fill="white" stroke="#bfbfbf" points="456.149,-168.5 456.149,-187.5 502.149,-187.5 502.149,-168.5 456.149,-168.5"/>
<text text-anchor="middle" x="479.149" y="-175.5" font-family="Helvetica,sans-Serif" font-size="10.00">cstring</text>
</g>
<!-- Node2&#45;&gt;Node5 -->
<g id="edge5" class="edge"><title>Node2&#45;&gt;Node5</title>
<path fill="none" stroke="midnightblue" d="M505.03,-224.083C500.741,-216.613 494.491,-205.724 489.207,-196.52"/>
<polygon fill="midnightblue" stroke="midnightblue" points="492.187,-194.681 484.173,-187.751 486.116,-198.166 492.187,-194.681"/>
</g>
<!-- Node6 -->
<g id="node7" class="node"><title>Node6</title>
<polygon fill="white" stroke="#bfbfbf" points="520.649,-168.5 520.649,-187.5 561.649,-187.5 561.649,-168.5 520.649,-168.5"/>
<text text-anchor="middle" x="541.149" y="-175.5" font-family="Helvetica,sans-Serif" font-size="10.00">string</text>
</g>
<!-- Node2&#45;&gt;Node6 -->
<g id="edge6" class="edge"><title>Node2&#45;&gt;Node6</title>
<path fill="none" stroke="midnightblue" d="M515.268,-224.083C519.557,-216.613 525.807,-205.724 531.091,-196.52"/>
<polygon fill="midnightblue" stroke="midnightblue" points="534.182,-198.166 536.125,-187.751 528.111,-194.681 534.182,-198.166"/>
</g>
<!-- Node8 -->
<g id="node9" class="node"><title>Node8</title>
<g id="a_node9"><a xlink:href="../../db/d19/imgui_8h.html" target="_top" xlink:title="imgui.h">
<polygon fill="white" stroke="black" points="288.149,-112.5 288.149,-131.5 336.149,-131.5 336.149,-112.5 288.149,-112.5"/>
<text text-anchor="middle" x="312.149" y="-119.5" font-family="Helvetica,sans-Serif" font-size="10.00">imgui.h</text>
</a>
</g>
</g>
<!-- Node7&#45;&gt;Node8 -->
<g id="edge8" class="edge"><title>Node7&#45;&gt;Node8</title>
<path fill="none" stroke="midnightblue" d="M579.311,-169.702C576.215,-169.111 573.129,-168.536 570.149,-168 473.592,-150.627 445.861,-153.169 346.109,-132.011"/>
<polygon fill="midnightblue" stroke="midnightblue" points="346.738,-128.566 336.226,-129.888 345.268,-135.41 346.738,-128.566"/>
</g>
<!-- Node15 -->
<g id="node16" class="node"><title>Node15</title>
<polygon fill="white" stroke="#bfbfbf" points="643.649,-112.5 643.649,-131.5 728.649,-131.5 728.649,-112.5 643.649,-112.5"/>
<text text-anchor="middle" x="686.149" y="-119.5" font-family="Helvetica,sans-Serif" font-size="10.00">OgreCommon.h</text>
</g>
<!-- Node7&#45;&gt;Node15 -->
<g id="edge15" class="edge"><title>Node7&#45;&gt;Node15</title>
<path fill="none" stroke="midnightblue" d="M626.556,-168.324C637.258,-160.185 653.49,-147.839 666.312,-138.087"/>
<polygon fill="midnightblue" stroke="midnightblue" points="668.693,-140.673 674.534,-131.834 664.456,-135.102 668.693,-140.673"/>
</g>
<!-- Node16 -->
<g id="node17" class="node"><title>Node16</title>
<polygon fill="white" stroke="#bfbfbf" points="746.649,-112.5 746.649,-131.5 817.649,-131.5 817.649,-112.5 746.649,-112.5"/>
<text text-anchor="middle" x="782.149" y="-119.5" font-family="Helvetica,sans-Serif" font-size="10.00">OISMouse.h</text>
</g>
<!-- Node7&#45;&gt;Node16 -->
<g id="edge16" class="edge"><title>Node7&#45;&gt;Node16</title>
<path fill="none" stroke="midnightblue" d="M641.611,-168.444C669.827,-159.32 714.689,-144.813 746.117,-134.651"/>
<polygon fill="midnightblue" stroke="midnightblue" points="747.373,-137.923 755.811,-131.516 745.219,-131.263 747.373,-137.923"/>
</g>
<!-- Node17 -->
<g id="node18" class="node"><title>Node17</title>
<polygon fill="white" stroke="#bfbfbf" points="835.649,-112.5 835.649,-131.5 918.649,-131.5 918.649,-112.5 835.649,-112.5"/>
<text text-anchor="middle" x="877.149" y="-119.5" font-family="Helvetica,sans-Serif" font-size="10.00">OISKeyboard.h</text>
</g>
<!-- Node7&#45;&gt;Node17 -->
<g id="edge17" class="edge"><title>Node7&#45;&gt;Node17</title>
<path fill="none" stroke="midnightblue" d="M650.756,-169.661C695.878,-160.361 773.979,-144.264 825.611,-133.622"/>
<polygon fill="midnightblue" stroke="midnightblue" points="826.479,-137.017 835.566,-131.57 825.066,-130.161 826.479,-137.017"/>
</g>
<!-- Node18 -->
<g id="node19" class="node"><title>Node18</title>
<polygon fill="white" stroke="#bfbfbf" points="34.149,-112.5 34.149,-131.5 174.149,-131.5 174.149,-112.5 34.149,-112.5"/>
<text text-anchor="middle" x="104.149" y="-119.5" font-family="Helvetica,sans-Serif" font-size="10.00">OgreRenderQueueListener.h</text>
</g>
<!-- Node7&#45;&gt;Node18 -->
<g id="edge18" class="edge"><title>Node7&#45;&gt;Node18</title>
<path fill="none" stroke="midnightblue" d="M579.346,-169.488C576.243,-168.944 573.145,-168.438 570.149,-168 402.476,-143.503 356.705,-149.532 184.524,-132.115"/>
<polygon fill="midnightblue" stroke="midnightblue" points="184.657,-128.611 174.352,-131.074 183.944,-135.574 184.657,-128.611"/>
</g>
<!-- Node19 -->
<g id="node20" class="node"><title>Node19</title>
<polygon fill="white" stroke="#bfbfbf" points="192.149,-112.5 192.149,-131.5 270.149,-131.5 270.149,-112.5 192.149,-112.5"/>
<text text-anchor="middle" x="231.149" y="-119.5" font-family="Helvetica,sans-Serif" font-size="10.00">OgreTexture.h</text>
</g>
<!-- Node7&#45;&gt;Node19 -->
<g id="edge19" class="edge"><title>Node7&#45;&gt;Node19</title>
<path fill="none" stroke="midnightblue" d="M579.331,-169.587C576.231,-169.021 573.138,-168.483 570.149,-168 444.64,-147.714 409.618,-151.798 280.296,-132.092"/>
<polygon fill="midnightblue" stroke="midnightblue" points="280.824,-128.632 270.408,-130.567 279.757,-135.55 280.824,-128.632"/>
</g>
<!-- Node20 -->
<g id="node21" class="node"><title>Node20</title>
<polygon fill="white" stroke="#bfbfbf" points="451.649,-56.5 451.649,-75.5 554.649,-75.5 554.649,-56.5 451.649,-56.5"/>
<text text-anchor="middle" x="503.149" y="-63.5" font-family="Helvetica,sans-Serif" font-size="10.00">OgrePrerequisites.h</text>
</g>
<!-- Node7&#45;&gt;Node20 -->
<g id="edge20" class="edge"><title>Node7&#45;&gt;Node20</title>
<path fill="none" stroke="midnightblue" d="M614.642,-168.386C613.42,-154.869 609.263,-128.515 595.149,-112 582.088,-96.7178 562.619,-86.1569 544.949,-79.1279"/>
<polygon fill="midnightblue" stroke="midnightblue" points="545.963,-75.7711 535.37,-75.5786 543.531,-82.335 545.963,-75.7711"/>
</g>
<!-- Node21 -->
<g id="node22" class="node"><title>Node21</title>
<polygon fill="white" stroke="#bfbfbf" points="354.649,-112.5 354.649,-131.5 449.649,-131.5 449.649,-112.5 354.649,-112.5"/>
<text text-anchor="middle" x="402.149" y="-119.5" font-family="Helvetica,sans-Serif" font-size="10.00">OgreRenderable.h</text>
</g>
<!-- Node7&#45;&gt;Node21 -->
<g id="edge21" class="edge"><title>Node7&#45;&gt;Node21</title>
<path fill="none" stroke="midnightblue" d="M581.399,-168.444C544.631,-159.122 485.703,-144.183 445.527,-133.997"/>
<polygon fill="midnightblue" stroke="midnightblue" points="446.295,-130.581 435.742,-131.516 444.575,-137.367 446.295,-130.581"/>
</g>
<!-- Node22 -->
<g id="node23" class="node"><title>Node22</title>
<polygon fill="white" stroke="#bfbfbf" points="467.649,-112.5 467.649,-131.5 586.649,-131.5 586.649,-112.5 467.649,-112.5"/>
<text text-anchor="middle" x="527.149" y="-119.5" font-family="Helvetica,sans-Serif" font-size="10.00">OgreRenderOperation.h</text>
</g>
<!-- Node7&#45;&gt;Node22 -->
<g id="edge22" class="edge"><title>Node7&#45;&gt;Node22</title>
<path fill="none" stroke="midnightblue" d="M601.01,-168.324C587.283,-159.9 566.213,-146.971 550.085,-137.074"/>
<polygon fill="midnightblue" stroke="midnightblue" points="551.606,-133.902 541.253,-131.655 547.945,-139.868 551.606,-133.902"/>
</g>
<!-- Node9 -->
<g id="node10" class="node"><title>Node9</title>
<g id="a_node10"><a xlink:href="../../dc/dad/imconfig_8h.html" target="_top" xlink:title="imconfig.h">
<polygon fill="white" stroke="black" points="104.649,-56.5 104.649,-75.5 165.649,-75.5 165.649,-56.5 104.649,-56.5"/>
<text text-anchor="middle" x="135.149" y="-63.5" font-family="Helvetica,sans-Serif" font-size="10.00">imconfig.h</text>
</a>
</g>
</g>
<!-- Node8&#45;&gt;Node9 -->
<g id="edge9" class="edge"><title>Node8&#45;&gt;Node9</title>
<path fill="none" stroke="midnightblue" d="M287.909,-113.605C258.266,-104.561 207.753,-89.1503 172.979,-78.5414"/>
<polygon fill="midnightblue" stroke="midnightblue" points="173.763,-75.1213 163.177,-75.5509 171.72,-81.8167 173.763,-75.1213"/>
</g>
<!-- Node10 -->
<g id="node11" class="node"><title>Node10</title>
<polygon fill="white" stroke="#bfbfbf" points="183.649,-56.5 183.649,-75.5 226.649,-75.5 226.649,-56.5 183.649,-56.5"/>
<text text-anchor="middle" x="205.149" y="-63.5" font-family="Helvetica,sans-Serif" font-size="10.00">float.h</text>
</g>
<!-- Node8&#45;&gt;Node10 -->
<g id="edge10" class="edge"><title>Node8&#45;&gt;Node10</title>
<path fill="none" stroke="midnightblue" d="M294.958,-112.324C277.798,-103.664 251.203,-90.2424 231.402,-80.249"/>
<polygon fill="midnightblue" stroke="midnightblue" points="232.802,-77.0354 222.298,-75.6545 229.648,-83.2847 232.802,-77.0354"/>
</g>
<!-- Node11 -->
<g id="node12" class="node"><title>Node11</title>
<polygon fill="white" stroke="#bfbfbf" points="245.149,-56.5 245.149,-75.5 297.149,-75.5 297.149,-56.5 245.149,-56.5"/>
<text text-anchor="middle" x="271.149" y="-63.5" font-family="Helvetica,sans-Serif" font-size="10.00">stdarg.h</text>
</g>
<!-- Node8&#45;&gt;Node11 -->
<g id="edge11" class="edge"><title>Node8&#45;&gt;Node11</title>
<path fill="none" stroke="midnightblue" d="M305.379,-112.083C299.587,-104.455 291.091,-93.2645 284.011,-83.9408"/>
<polygon fill="midnightblue" stroke="midnightblue" points="286.628,-81.5991 277.793,-75.7511 281.053,-85.8321 286.628,-81.5991"/>
</g>
<!-- Node12 -->
<g id="node13" class="node"><title>Node12</title>
<polygon fill="white" stroke="#bfbfbf" points="315.649,-56.5 315.649,-75.5 366.649,-75.5 366.649,-56.5 315.649,-56.5"/>
<text text-anchor="middle" x="341.149" y="-63.5" font-family="Helvetica,sans-Serif" font-size="10.00">stddef.h</text>
</g>
<!-- Node8&#45;&gt;Node12 -->
<g id="edge12" class="edge"><title>Node8&#45;&gt;Node12</title>
<path fill="none" stroke="midnightblue" d="M316.938,-112.083C320.907,-104.691 326.674,-93.9533 331.584,-84.8111"/>
<polygon fill="midnightblue" stroke="midnightblue" points="334.802,-86.217 336.449,-75.7511 328.635,-82.9051 334.802,-86.217"/>
</g>
<!-- Node13 -->
<g id="node14" class="node"><title>Node13</title>
<polygon fill="white" stroke="#bfbfbf" points="384.649,-56.5 384.649,-75.5 433.649,-75.5 433.649,-56.5 384.649,-56.5"/>
<text text-anchor="middle" x="409.149" y="-63.5" font-family="Helvetica,sans-Serif" font-size="10.00">string.h</text>
</g>
<!-- Node8&#45;&gt;Node13 -->
<g id="edge13" class="edge"><title>Node8&#45;&gt;Node13</title>
<path fill="none" stroke="midnightblue" d="M327.734,-112.324C343.148,-103.743 366.961,-90.486 384.859,-80.5224"/>
<polygon fill="midnightblue" stroke="midnightblue" points="386.568,-83.5767 393.603,-75.6545 383.163,-77.4606 386.568,-83.5767"/>
</g>
<!-- Node14 -->
<g id="node15" class="node"><title>Node14</title>
<polygon fill="white" stroke="#bfbfbf" points="34.149,-56.5 34.149,-75.5 86.149,-75.5 86.149,-56.5 34.149,-56.5"/>
<text text-anchor="middle" x="60.149" y="-63.5" font-family="Helvetica,sans-Serif" font-size="10.00">assert.h</text>
</g>
<!-- Node8&#45;&gt;Node14 -->
<g id="edge14" class="edge"><title>Node8&#45;&gt;Node14</title>
<path fill="none" stroke="midnightblue" d="M288.05,-114.209C285.061,-113.431 282.04,-112.676 279.149,-112 201.179,-93.766 178.201,-94.3088 96.717,-76.2449"/>
<polygon fill="midnightblue" stroke="midnightblue" points="97.0061,-72.7228 86.4823,-73.9473 95.4727,-79.5528 97.0061,-72.7228"/>
</g>
<!-- Node23&#45;&gt;Node7 -->
<g id="edge46" class="edge"><title>Node23&#45;&gt;Node7</title>
<path fill="none" stroke="midnightblue" d="M1034.62,-228.349C949.903,-218.383 751.253,-195.012 661.098,-184.406"/>
<polygon fill="midnightblue" stroke="midnightblue" points="661.253,-180.9 650.913,-183.208 660.435,-187.852 661.253,-180.9"/>
</g>
<!-- Node24 -->
<g id="node25" class="node"><title>Node24</title>
<g id="a_node25"><a xlink:href="../../d2/df0/_g_u_i_input_manager_8h.html" target="_top" xlink:title="GUIInputManager.h">
<polygon fill="white" stroke="black" points="1063.15,-168.5 1063.15,-187.5 1163.15,-187.5 1163.15,-168.5 1063.15,-168.5"/>
<text text-anchor="middle" x="1113.15" y="-175.5" font-family="Helvetica,sans-Serif" font-size="10.00">GUIInputManager.h</text>
</a>
</g>
</g>
<!-- Node23&#45;&gt;Node24 -->
<g id="edge24" class="edge"><title>Node23&#45;&gt;Node24</title>
<path fill="none" stroke="midnightblue" d="M1080.59,-224.083C1086.1,-216.455 1094.18,-205.264 1100.91,-195.941"/>
<polygon fill="midnightblue" stroke="midnightblue" points="1103.81,-197.907 1106.83,-187.751 1098.14,-193.809 1103.81,-197.907"/>
</g>
<!-- Node25 -->
<g id="node26" class="node"><title>Node25</title>
<g id="a_node26"><a xlink:href="../../d8/d9c/_ro_r_prerequisites_8h.html" target="_top" xlink:title="RoRPrerequisites.h">
<polygon fill="white" stroke="black" points="1062.65,-112.5 1062.65,-131.5 1163.65,-131.5 1163.65,-112.5 1062.65,-112.5"/>
<text text-anchor="middle" x="1113.15" y="-119.5" font-family="Helvetica,sans-Serif" font-size="10.00">RoRPrerequisites.h</text>
</a>
</g>
</g>
<!-- Node23&#45;&gt;Node25 -->
<g id="edge47" class="edge"><title>Node23&#45;&gt;Node25</title>
<path fill="none" stroke="midnightblue" d="M1067.41,-224.251C1058.44,-211.444 1044.72,-187.047 1054.15,-168 1060.75,-154.659 1073.41,-144.194 1085.32,-136.726"/>
<polygon fill="midnightblue" stroke="midnightblue" points="1087.27,-139.643 1094.16,-131.602 1083.76,-133.587 1087.27,-139.643"/>
</g>
<!-- Node43 -->
<g id="node44" class="node"><title>Node43</title>
<polygon fill="white" stroke="#bfbfbf" points="1181.65,-168.5 1181.65,-187.5 1318.65,-187.5 1318.65,-168.5 1181.65,-168.5"/>
<text text-anchor="middle" x="1250.15" y="-175.5" font-family="Helvetica,sans-Serif" font-size="10.00">OgreWindowEventUtilities.h</text>
</g>
<!-- Node23&#45;&gt;Node43 -->
<g id="edge48" class="edge"><title>Node23&#45;&gt;Node43</title>
<path fill="none" stroke="midnightblue" d="M1102.04,-224.444C1131.9,-215.28 1179.46,-200.688 1212.6,-190.519"/>
<polygon fill="midnightblue" stroke="midnightblue" points="1213.86,-193.796 1222.39,-187.516 1211.8,-187.104 1213.86,-193.796"/>
</g>
<!-- Node44 -->
<g id="node45" class="node"><title>Node44</title>
<polygon fill="white" stroke="#bfbfbf" points="1337.15,-168.5 1337.15,-187.5 1445.15,-187.5 1445.15,-168.5 1337.15,-168.5"/>
<text text-anchor="middle" x="1391.15" y="-175.5" font-family="Helvetica,sans-Serif" font-size="10.00">OgreFrameListener.h</text>
</g>
<!-- Node23&#45;&gt;Node44 -->
<g id="edge49" class="edge"><title>Node23&#45;&gt;Node44</title>
<path fill="none" stroke="midnightblue" d="M1113.66,-226.27C1168.32,-216.958 1267.5,-200.064 1331.29,-189.197"/>
<polygon fill="midnightblue" stroke="midnightblue" points="1331.94,-192.637 1341.21,-187.507 1330.76,-185.736 1331.94,-192.637"/>
</g>
<!-- Node45 -->
<g id="node46" class="node"><title>Node45</title>
<polygon fill="white" stroke="#bfbfbf" points="1463.15,-168.5 1463.15,-187.5 1555.15,-187.5 1555.15,-168.5 1463.15,-168.5"/>
<text text-anchor="middle" x="1509.15" y="-175.5" font-family="Helvetica,sans-Serif" font-size="10.00">MyGUI_UString.h</text>
</g>
<!-- Node23&#45;&gt;Node45 -->
<g id="edge50" class="edge"><title>Node23&#45;&gt;Node45</title>
<path fill="none" stroke="midnightblue" d="M1113.89,-228.881C1181.36,-221.758 1322.89,-206.268 1452.83,-188.134"/>
<polygon fill="midnightblue" stroke="midnightblue" points="1453.54,-191.568 1462.96,-186.711 1452.57,-184.636 1453.54,-191.568"/>
</g>
<!-- Node24&#45;&gt;Node25 -->
<g id="edge25" class="edge"><title>Node24&#45;&gt;Node25</title>
<path fill="none" stroke="midnightblue" d="M1113.15,-168.083C1113.15,-161.006 1113.15,-150.861 1113.15,-141.986"/>
<polygon fill="midnightblue" stroke="midnightblue" points="1116.65,-141.751 1113.15,-131.751 1109.65,-141.751 1116.65,-141.751"/>
</g>
<!-- Node41 -->
<g id="node42" class="node"><title>Node41</title>
<polygon fill="white" stroke="#bfbfbf" points="1270.65,-112.5 1270.65,-131.5 1311.65,-131.5 1311.65,-112.5 1270.65,-112.5"/>
<text text-anchor="middle" x="1291.15" y="-119.5" font-family="Helvetica,sans-Serif" font-size="10.00">OIS.h</text>
</g>
<!-- Node24&#45;&gt;Node41 -->
<g id="edge44" class="edge"><title>Node24&#45;&gt;Node41</title>
<path fill="none" stroke="midnightblue" d="M1141.35,-168.444C1173.96,-158.552 1227.41,-142.336 1260.87,-132.185"/>
<polygon fill="midnightblue" stroke="midnightblue" points="1262.01,-135.496 1270.57,-129.244 1259.98,-128.798 1262.01,-135.496"/>
</g>
<!-- Node42 -->
<g id="node43" class="node"><title>Node42</title>
<polygon fill="white" stroke="#bfbfbf" points="1182.15,-112.5 1182.15,-131.5 1252.15,-131.5 1252.15,-112.5 1182.15,-112.5"/>
<text text-anchor="middle" x="1217.15" y="-119.5" font-family="Helvetica,sans-Serif" font-size="10.00">OgreTimer.h</text>
</g>
<!-- Node24&#45;&gt;Node42 -->
<g id="edge45" class="edge"><title>Node24&#45;&gt;Node42</title>
<path fill="none" stroke="midnightblue" d="M1129.86,-168.324C1146.46,-159.703 1172.15,-146.364 1191.37,-136.386"/>
<polygon fill="midnightblue" stroke="midnightblue" points="1193.22,-139.369 1200.48,-131.655 1189.99,-133.156 1193.22,-139.369"/>
</g>
<!-- Node25&#45;&gt;Node3 -->
<g id="edge37" class="edge"><title>Node25&#45;&gt;Node3</title>
<path fill="none" stroke="midnightblue" d="M1062.42,-115.974C1008.39,-109.614 927.592,-96.897 905.149,-76 892.521,-64.2415 888.127,-44.6014 886.677,-29.9815"/>
<polygon fill="midnightblue" stroke="midnightblue" points="890.145,-29.3484 886.044,-19.5795 883.158,-29.7736 890.145,-29.3484"/>
</g>
<!-- Node25&#45;&gt;Node20 -->
<g id="edge26" class="edge"><title>Node25&#45;&gt;Node20</title>
<path fill="none" stroke="midnightblue" d="M1062.61,-118.006C967.296,-112.111 754.25,-97.7544 564.967,-76.1446"/>
<polygon fill="midnightblue" stroke="midnightblue" points="565.165,-72.6443 554.83,-74.9776 564.364,-79.5984 565.165,-72.6443"/>
</g>
<!-- Node26 -->
<g id="node27" class="node"><title>Node26</title>
<polygon fill="white" stroke="#bfbfbf" points="1388.65,-56.5 1388.65,-75.5 1503.65,-75.5 1503.65,-56.5 1388.65,-56.5"/>
<text text-anchor="middle" x="1446.15" y="-63.5" font-family="Helvetica,sans-Serif" font-size="10.00">OgreAxisAlignedBox.h</text>
</g>
<!-- Node25&#45;&gt;Node26 -->
<g id="edge27" class="edge"><title>Node25&#45;&gt;Node26</title>
<path fill="none" stroke="midnightblue" d="M1163.72,-112.799C1222.7,-103.234 1320.21,-87.4228 1383.82,-77.1082"/>
<polygon fill="midnightblue" stroke="midnightblue" points="1384.41,-80.5574 1393.72,-75.5018 1383.29,-73.6477 1384.41,-80.5574"/>
</g>
<!-- Node27 -->
<g id="node28" class="node"><title>Node27</title>
<polygon fill="white" stroke="#bfbfbf" points="1522.15,-56.5 1522.15,-75.5 1620.15,-75.5 1620.15,-56.5 1522.15,-56.5"/>
<text text-anchor="middle" x="1571.15" y="-63.5" font-family="Helvetica,sans-Serif" font-size="10.00">OgreColourValue.h</text>
</g>
<!-- Node25&#45;&gt;Node27 -->
<g id="edge28" class="edge"><title>Node25&#45;&gt;Node27</title>
<path fill="none" stroke="midnightblue" d="M1163.87,-113.235C1167.01,-112.803 1170.12,-112.388 1173.15,-112 1320.21,-93.1711 1360.18,-95.3244 1511.77,-75.9868"/>
<polygon fill="midnightblue" stroke="midnightblue" points="1512.45,-79.4287 1521.92,-74.6815 1511.55,-72.4858 1512.45,-79.4287"/>
</g>
<!-- Node28 -->
<g id="node29" class="node"><title>Node28</title>
<polygon fill="white" stroke="#bfbfbf" points="1638.65,-56.5 1638.65,-75.5 1739.65,-75.5 1739.65,-56.5 1638.65,-56.5"/>
<text text-anchor="middle" x="1689.15" y="-63.5" font-family="Helvetica,sans-Serif" font-size="10.00">OgreHeaderPrefix.h</text>
</g>
<!-- Node25&#45;&gt;Node28 -->
<g id="edge29" class="edge"><title>Node25&#45;&gt;Node28</title>
<path fill="none" stroke="midnightblue" d="M1163.85,-113.139C1167,-112.731 1170.11,-112.347 1173.15,-112 1371.88,-89.2793 1425.45,-98.7732 1628.35,-76.0061"/>
<polygon fill="midnightblue" stroke="midnightblue" points="1628.9,-79.4664 1638.44,-74.8612 1628.11,-72.511 1628.9,-79.4664"/>
</g>
<!-- Node29 -->
<g id="node30" class="node"><title>Node29</title>
<polygon fill="white" stroke="#bfbfbf" points="1757.65,-56.5 1757.65,-75.5 1856.65,-75.5 1856.65,-56.5 1757.65,-56.5"/>
<text text-anchor="middle" x="1807.15" y="-63.5" font-family="Helvetica,sans-Serif" font-size="10.00">OgreLogManager.h</text>
</g>
<!-- Node25&#45;&gt;Node29 -->
<g id="edge30" class="edge"><title>Node25&#45;&gt;Node29</title>
<path fill="none" stroke="midnightblue" d="M1163.85,-113.081C1166.99,-112.687 1170.11,-112.322 1173.15,-112 1424.54,-85.3261 1491.86,-102.875 1747.65,-75.9435"/>
<polygon fill="midnightblue" stroke="midnightblue" points="1748.04,-79.422 1757.62,-74.8824 1747.3,-72.4613 1748.04,-79.422"/>
</g>
<!-- Node30 -->
<g id="node31" class="node"><title>Node30</title>
<polygon fill="white" stroke="#bfbfbf" points="1874.65,-56.5 1874.65,-75.5 1967.65,-75.5 1967.65,-56.5 1874.65,-56.5"/>
<text text-anchor="middle" x="1921.15" y="-63.5" font-family="Helvetica,sans-Serif" font-size="10.00">OgreQuaternion.h</text>
</g>
<!-- Node25&#45;&gt;Node30 -->
<g id="edge31" class="edge"><title>Node25&#45;&gt;Node30</title>
<path fill="none" stroke="midnightblue" d="M1163.84,-113.043C1166.99,-112.659 1170.11,-112.306 1173.15,-112 1476.28,-81.4531 1557.16,-107.9 1864.36,-75.9515"/>
<polygon fill="midnightblue" stroke="midnightblue" points="1864.87,-79.4174 1874.45,-74.89 1864.14,-72.4558 1864.87,-79.4174"/>
</g>
<!-- Node31 -->
<g id="node32" class="node"><title>Node31</title>
<polygon fill="white" stroke="#bfbfbf" points="1985.65,-56.5 1985.65,-75.5 2056.65,-75.5 2056.65,-56.5 1985.65,-56.5"/>
<text text-anchor="middle" x="2021.15" y="-63.5" font-family="Helvetica,sans-Serif" font-size="10.00">OgreString.h</text>
</g>
<!-- Node25&#45;&gt;Node31 -->
<g id="edge32" class="edge"><title>Node25&#45;&gt;Node31</title>
<path fill="none" stroke="midnightblue" d="M1163.84,-113.017C1166.99,-112.639 1170.11,-112.295 1173.15,-112 1525.42,-77.7766 1619.77,-118.389 1975.31,-75.8844"/>
<polygon fill="midnightblue" stroke="midnightblue" points="1975.86,-79.3435 1985.37,-74.6683 1975.02,-72.3941 1975.86,-79.3435"/>
</g>
<!-- Node32 -->
<g id="node33" class="node"><title>Node32</title>
<polygon fill="white" stroke="#bfbfbf" points="2075.15,-56.5 2075.15,-75.5 2187.15,-75.5 2187.15,-56.5 2075.15,-56.5"/>
<text text-anchor="middle" x="2131.15" y="-63.5" font-family="Helvetica,sans-Serif" font-size="10.00">OgreStringConverter.h</text>
</g>
<!-- Node25&#45;&gt;Node32 -->
<g id="edge33" class="edge"><title>Node25&#45;&gt;Node32</title>
<path fill="none" stroke="midnightblue" d="M1163.84,-113.001C1166.99,-112.627 1170.11,-112.289 1173.15,-112 1564.86,-74.8276 1668.2,-110.246 2064.99,-75.901"/>
<polygon fill="midnightblue" stroke="midnightblue" points="2065.36,-79.3822 2075.02,-75.0239 2064.75,-72.4089 2065.36,-79.3822"/>
</g>
<!-- Node33 -->
<g id="node34" class="node"><title>Node33</title>
<polygon fill="white" stroke="#bfbfbf" points="572.649,-56.5 572.649,-75.5 661.649,-75.5 661.649,-56.5 572.649,-56.5"/>
<text text-anchor="middle" x="617.149" y="-63.5" font-family="Helvetica,sans-Serif" font-size="10.00">OgreUTFString.h</text>
</g>
<!-- Node25&#45;&gt;Node33 -->
<g id="edge34" class="edge"><title>Node25&#45;&gt;Node33</title>
<path fill="none" stroke="midnightblue" d="M1062.65,-116.912C982.272,-110.175 820.075,-95.6379 672.083,-76.0435"/>
<polygon fill="midnightblue" stroke="midnightblue" points="672.28,-72.5389 661.905,-74.6848 671.354,-79.4773 672.28,-72.5389"/>
</g>
<!-- Node34 -->
<g id="node35" class="node"><title>Node34</title>
<polygon fill="white" stroke="#bfbfbf" points="680.149,-56.5 680.149,-75.5 760.149,-75.5 760.149,-56.5 680.149,-56.5"/>
<text text-anchor="middle" x="720.149" y="-63.5" font-family="Helvetica,sans-Serif" font-size="10.00">OgreVector2.h</text>
</g>
<!-- Node25&#45;&gt;Node34 -->
<g id="edge35" class="edge"><title>Node25&#45;&gt;Node34</title>
<path fill="none" stroke="midnightblue" d="M1062.61,-115.216C997.411,-107.57 880.247,-93.2116 770.177,-76.0934"/>
<polygon fill="midnightblue" stroke="midnightblue" points="770.653,-72.6254 760.232,-74.536 769.57,-79.5411 770.653,-72.6254"/>
</g>
<!-- Node35 -->
<g id="node36" class="node"><title>Node35</title>
<polygon fill="white" stroke="#bfbfbf" points="778.149,-56.5 778.149,-75.5 858.149,-75.5 858.149,-56.5 778.149,-56.5"/>
<text text-anchor="middle" x="818.149" y="-63.5" font-family="Helvetica,sans-Serif" font-size="10.00">OgreVector3.h</text>
</g>
<!-- Node25&#45;&gt;Node35 -->
<g id="edge36" class="edge"><title>Node25&#45;&gt;Node35</title>
<path fill="none" stroke="midnightblue" d="M1066.41,-112.444C1012.42,-102.561 923.927,-86.3627 868.467,-76.2108"/>
<polygon fill="midnightblue" stroke="midnightblue" points="868.978,-72.7463 858.512,-74.3884 867.718,-79.6319 868.978,-72.7463"/>
</g>
<!-- Node36 -->
<g id="node37" class="node"><title>Node36</title>
<g id="a_node37"><a xlink:href="../../d7/dfa/_global_environment_8h.html" target="_top" xlink:title="GlobalEnvironment.h">
<polygon fill="white" stroke="black" points="1060.15,-56.5 1060.15,-75.5 1166.15,-75.5 1166.15,-56.5 1060.15,-56.5"/>
<text text-anchor="middle" x="1113.15" y="-63.5" font-family="Helvetica,sans-Serif" font-size="10.00">GlobalEnvironment.h</text>
</a>
</g>
</g>
<!-- Node25&#45;&gt;Node36 -->
<g id="edge38" class="edge"><title>Node25&#45;&gt;Node36</title>
<path fill="none" stroke="midnightblue" d="M1113.15,-112.083C1113.15,-105.006 1113.15,-94.8611 1113.15,-85.9865"/>
<polygon fill="midnightblue" stroke="midnightblue" points="1116.65,-85.751 1113.15,-75.7511 1109.65,-85.7511 1116.65,-85.751"/>
</g>
<!-- Node37 -->
<g id="node38" class="node"><title>Node37</title>
<g id="a_node38"><a xlink:href="../../dc/de5/_zeroed_memory_allocator_8h.html" target="_top" xlink:title="ZeroedMemoryAllocator.h">
<polygon fill="white" stroke="black" points="914.149,-56.5 914.149,-75.5 1042.15,-75.5 1042.15,-56.5 914.149,-56.5"/>
<text text-anchor="middle" x="978.149" y="-63.5" font-family="Helvetica,sans-Serif" font-size="10.00">ZeroedMemoryAllocator.h</text>
</a>
</g>
</g>
<!-- Node25&#45;&gt;Node37 -->
<g id="edge40" class="edge"><title>Node25&#45;&gt;Node37</title>
<path fill="none" stroke="midnightblue" d="M1091.76,-112.444C1069.44,-103.517 1034.25,-89.4387 1008.94,-79.3168"/>
<polygon fill="midnightblue" stroke="midnightblue" points="1010.02,-75.9807 999.44,-75.5164 1007.42,-82.4801 1010.02,-75.9807"/>
</g>
<!-- Node38 -->
<g id="node39" class="node"><title>Node38</title>
<g id="a_node39"><a xlink:href="../../d7/d85/_bit_flags_8h.html" target="_top" xlink:title="BitFlags.h">
<polygon fill="white" stroke="black" points="1309.65,-56.5 1309.65,-75.5 1370.65,-75.5 1370.65,-56.5 1309.65,-56.5"/>
<text text-anchor="middle" x="1340.15" y="-63.5" font-family="Helvetica,sans-Serif" font-size="10.00">BitFlags.h</text>
</a>
</g>
</g>
<!-- Node25&#45;&gt;Node38 -->
<g id="edge41" class="edge"><title>Node25&#45;&gt;Node38</title>
<path fill="none" stroke="midnightblue" d="M1149.12,-112.444C1190.09,-102.697 1256.88,-86.809 1299.65,-76.6348"/>
<polygon fill="midnightblue" stroke="midnightblue" points="1300.53,-80.0235 1309.44,-74.3042 1298.91,-73.2135 1300.53,-80.0235"/>
</g>
<!-- Node40 -->
<g id="node41" class="node"><title>Node40</title>
<polygon fill="white" stroke="#bfbfbf" points="1184.65,-56.5 1184.65,-75.5 1291.65,-75.5 1291.65,-56.5 1184.65,-56.5"/>
<text text-anchor="middle" x="1238.15" y="-63.5" font-family="Helvetica,sans-Serif" font-size="10.00">MyGUI_Prerequest.h</text>
</g>
<!-- Node25&#45;&gt;Node40 -->
<g id="edge43" class="edge"><title>Node25&#45;&gt;Node40</title>
<path fill="none" stroke="midnightblue" d="M1132.96,-112.444C1153.44,-103.596 1185.63,-89.6875 1209.01,-79.5865"/>
<polygon fill="midnightblue" stroke="midnightblue" points="1210.64,-82.6953 1218.44,-75.5164 1207.87,-76.2692 1210.64,-82.6953"/>
</g>
<!-- Node36&#45;&gt;Node3 -->
<g id="edge39" class="edge"><title>Node36&#45;&gt;Node3</title>
<path fill="none" stroke="midnightblue" d="M1077.18,-56.4435C1037.83,-47.0826 974.662,-32.0561 931.835,-21.868"/>
<polygon fill="midnightblue" stroke="midnightblue" points="932.488,-18.4258 921.95,-19.5164 930.868,-25.2358 932.488,-18.4258"/>
</g>
<!-- Node39 -->
<g id="node40" class="node"><title>Node39</title>
<polygon fill="white" stroke="#bfbfbf" points="1317.15,-0.5 1317.15,-19.5 1363.15,-19.5 1363.15,-0.5 1317.15,-0.5"/>
<text text-anchor="middle" x="1340.15" y="-7.5" font-family="Helvetica,sans-Serif" font-size="10.00">cstdint</text>
</g>
<!-- Node38&#45;&gt;Node39 -->
<g id="edge42" class="edge"><title>Node38&#45;&gt;Node39</title>
<path fill="none" stroke="midnightblue" d="M1340.15,-56.083C1340.15,-49.0059 1340.15,-38.8611 1340.15,-29.9865"/>
<polygon fill="midnightblue" stroke="midnightblue" points="1343.65,-29.751 1340.15,-19.7511 1336.65,-29.7511 1343.65,-29.751"/>
</g>
<!-- Node46&#45;&gt;Node2 -->
<g id="edge52" class="edge"><title>Node46&#45;&gt;Node2</title>
<path fill="none" stroke="midnightblue" d="M835.489,-284.349C773.07,-274.881 630.9,-253.316 556.887,-242.089"/>
<polygon fill="midnightblue" stroke="midnightblue" points="557.323,-238.616 546.911,-240.576 556.273,-245.536 557.323,-238.616"/>
</g>
<!-- Node46&#45;&gt;Node23 -->
<g id="edge53" class="edge"><title>Node46&#45;&gt;Node23</title>
<path fill="none" stroke="midnightblue" d="M896.84,-281.032C932.469,-271.782 991.452,-256.469 1031.52,-246.068"/>
<polygon fill="midnightblue" stroke="midnightblue" points="1032.47,-249.437 1041.27,-243.536 1030.71,-242.661 1032.47,-249.437"/>
</g>
</g>
</svg>
        <g id="navigator" transform="translate(0 0)" fill="#404254">
                <rect fill="#f2f5e9" fill-opacity="0.5" stroke="#606060" stroke-width=".5" x="0" y="0" width="60" height="60"/>
                <use id="zoomplus" xlink:href="#zoomPlus" x="17" y="9" onmousedown="handleZoom(evt,'in')"/>
                <use id="zoomminus" xlink:href="#zoomMin" x="42" y="9" onmousedown="handleZoom(evt,'out')"/>
                <use id="reset" xlink:href="#resetDef" x="30" y="36" onmousedown="handleReset()"/>
                <g id="arrowUp" xlink:href="#dirArrow" transform="translate(30 24)" onmousedown="handlePan(0,-1)">
                  <use xlink:href="#rim" fill="#404040">
                        <set attributeName="fill" to="#808080" begin="arrowUp.mouseover" end="arrowUp.mouseout"/>
                  </use>
                  <path fill="none" stroke="white" stroke-width="1.5" d="M0,-3.0v7 M-2.5,-0.5L0,-3.0L2.5,-0.5"/>
                </g>
                <g id="arrowRight" xlink:href="#dirArrow" transform="rotate(90) translate(36 -43)" onmousedown="handlePan(1,0)">
                  <use xlink:href="#rim" fill="#404040">
                        <set attributeName="fill" to="#808080" begin="arrowRight.mouseover" end="arrowRight.mouseout"/>
                  </use>
                  <path fill="none" stroke="white" stroke-width="1.5" d="M0,-3.0v7 M-2.5,-0.5L0,-3.0L2.5,-0.5"/>
                </g>
                <g id="arrowDown" xlink:href="#dirArrow" transform="rotate(180) translate(-30 -48)" onmousedown="handlePan(0,1)">
                  <use xlink:href="#rim" fill="#404040">
                        <set attributeName="fill" to="#808080" begin="arrowDown.mouseover" end="arrowDown.mouseout"/>
                  </use>
                  <path fill="none" stroke="white" stroke-width="1.5" d="M0,-3.0v7 M-2.5,-0.5L0,-3.0L2.5,-0.5"/>
                </g>
                <g id="arrowLeft" xlink:href="#dirArrow" transform="rotate(270) translate(-36 17)" onmousedown="handlePan(-1,0)">
                  <use xlink:href="#rim" fill="#404040">
                        <set attributeName="fill" to="#808080" begin="arrowLeft.mouseover" end="arrowLeft.mouseout"/>
                  </use>
                  <path fill="none" stroke="white" stroke-width="1.5" d="M0,-3.0v7 M-2.5,-0.5L0,-3.0L2.5,-0.5"/>
                </g>
        </g>
        <svg viewBox="0 0 15 15" width="100%" height="30px" preserveAspectRatio="xMaxYMin meet">
         <g id="arrow_out" transform="scale(0.3 0.3)">
          <a xlink:href="_g_u_i___game_settings_8cpp__incl_org.svg" target="_base">
           <rect id="button" ry="5" rx="5" y="6" x="6" height="38" width="38"
                fill="#f2f5e9" fill-opacity="0.5" stroke="#606060" stroke-width="1.0"/>
           <path id="arrow"
             d="M 11.500037,31.436501 C 11.940474,20.09759 22.043105,11.32322 32.158766,21.979434 L 37.068811,17.246167 C 37.068811,17.246167 37.088388,32 37.088388,32 L 22.160133,31.978069 C 22.160133,31.978069 26.997745,27.140456 26.997745,27.140456 C 18.528582,18.264221 13.291696,25.230495 11.500037,31.436501 z"
             style="fill:#404040;"/>
          </a>
         </g>
        </svg>
</svg>
