<?xml version="1.0" encoding="UTF-8" standalone="no"?>
<!DOCTYPE svg PUBLIC "-//W3C//DTD SVG 1.1//EN"
 "http://www.w3.org/Graphics/SVG/1.1/DTD/svg11.dtd">
<!-- Generated by graphviz version 2.38.0 (20140413.2041)
 -->
<!-- Title: TerrainManager::getFarClip Pages: 1 -->
<!--zoomable 122 -->
<svg id="main" version="1.1" xmlns="http://www.w3.org/2000/svg" xmlns:xlink="http://www.w3.org/1999/xlink" xml:space="preserve" onload="init(evt)">
<style type="text/css"><![CDATA[
.edge:hover path { stroke: red; }
.edge:hover polygon { stroke: red; fill: red; }
]]></style>
<script type="text/javascript"><![CDATA[
var edges = document.getElementsByTagName('g');
if (edges && edges.length) {
  for (var i=0;i<edges.length;i++) {
    if (edges[i].id.substr(0,4)=='edge') {
      edges[i].setAttribute('class','edge');
    }
  }
}
]]></script>
        <defs>
                <circle id="rim" cx="0" cy="0" r="7"/>
                <circle id="rim2" cx="0" cy="0" r="3.5"/>
                <g id="zoomPlus">
                        <use xlink:href="#rim" fill="#404040">
                                <set attributeName="fill" to="#808080" begin="zoomplus.mouseover" end="zoomplus.mouseout"/>
                        </use>
                        <path d="M-4,0h8M0,-4v8" fill="none" stroke="white" stroke-width="1.5" pointer-events="none"/>
                </g>
                <g id="zoomMin">
                        <use xlink:href="#rim" fill="#404040">
                                <set attributeName="fill" to="#808080" begin="zoomminus.mouseover" end="zoomminus.mouseout"/>
                        </use>
                        <path d="M-4,0h8" fill="none" stroke="white" stroke-width="1.5" pointer-events="none"/>
                </g>
                <g id="dirArrow">
                        <path fill="none" stroke="white" stroke-width="1.5" d="M0,-3.0v7 M-2.5,-0.5L0,-3.0L2.5,-0.5"/>
                </g>
               <g id="resetDef">
                       <use xlink:href="#rim2" fill="#404040">
                               <set attributeName="fill" to="#808080" begin="reset.mouseover" end="reset.mouseout"/>
                       </use>
               </g>
        </defs>

<script type="text/javascript">
var viewWidth = 1720;
var viewHeight = 122;
var sectionId = 'dynsection-6';
</script>
<script xlink:href="../../svgpan.js"/>
<svg id="graph" class="graph">
<g id="viewport">
<title>TerrainManager::getFarClip</title>
<polygon fill="white" stroke="none" points="-4,4 -4,-118 1716,-118 1716,4 -4,4"/>
<!-- Node39 -->
<g id="node1" class="node"><title>Node39</title>
<polygon fill="#bfbfbf" stroke="black" points="0,-64 0,-83 134,-83 134,-64 0,-64"/>
<text text-anchor="middle" x="67" y="-71" font-family="Helvetica,sans-Serif" font-size="10.00">TerrainManager::getFarClip</text>
</g>
<!-- Node40 -->
<g id="node2" class="node"><title>Node40</title>
<g id="a_node2"><a xlink:href="../../d6/d14/class_terrain_object_manager.html#aef0d7273c32a7eafd7fb3fbaf4c8c26e" target="_top" xlink:title="TerrainObjectManager\l::postLoad">
<polygon fill="white" stroke="black" points="170,-58.5 170,-88.5 282,-88.5 282,-58.5 170,-58.5"/>
<text text-anchor="start" x="178" y="-76.5" font-family="Helvetica,sans-Serif" font-size="10.00">TerrainObjectManager</text>
<text text-anchor="middle" x="226" y="-65.5" font-family="Helvetica,sans-Serif" font-size="10.00">::postLoad</text>
</a>
</g>
</g>
<!-- Node39&#45;&gt;Node40 -->
<g id="edge1" class="edge"><title>Node39&#45;&gt;Node40</title>
<path fill="none" stroke="midnightblue" d="M144.235,-73.5C152.881,-73.5 161.564,-73.5 169.863,-73.5"/>
<polygon fill="midnightblue" stroke="midnightblue" points="144.127,-70.0001 134.127,-73.5 144.127,-77.0001 144.127,-70.0001"/>
</g>
<!-- Node41 -->
<g id="node3" class="node"><title>Node41</title>
<g id="a_node3"><a xlink:href="../../d3/d16/class_terrain_manager.html#a4ad87b973cb6af52daaf530a5feff167" target="_top" xlink:title="TerrainManager::loadTerrain\lObjects">
<polygon fill="white" stroke="black" points="318,-83.5 318,-113.5 455,-113.5 455,-83.5 318,-83.5"/>
<text text-anchor="start" x="326" y="-101.5" font-family="Helvetica,sans-Serif" font-size="10.00">TerrainManager::loadTerrain</text>
<text text-anchor="middle" x="386.5" y="-90.5" font-family="Helvetica,sans-Serif" font-size="10.00">Objects</text>
</a>
</g>
</g>
<!-- Node40&#45;&gt;Node41 -->
<g id="edge2" class="edge"><title>Node40&#45;&gt;Node41</title>
<path fill="none" stroke="midnightblue" d="M292.501,-83.8314C300.86,-85.1499 309.43,-86.5015 317.822,-87.8252"/>
<polygon fill="midnightblue" stroke="midnightblue" points="292.859,-80.3446 282.436,-82.2438 291.768,-87.2592 292.859,-80.3446"/>
</g>
<!-- Node48 -->
<g id="node10" class="node"><title>Node48</title>
<g id="a_node10"><a xlink:href="../../d6/d14/class_terrain_object_manager.html#af064b5836b5ce5ba96a37671a964be34" target="_top" xlink:title="TerrainObjectManager\l::hasPreloadedTrucks">
<polygon fill="white" stroke="black" points="330.5,-34.5 330.5,-64.5 442.5,-64.5 442.5,-34.5 330.5,-34.5"/>
<text text-anchor="start" x="338.5" y="-52.5" font-family="Helvetica,sans-Serif" font-size="10.00">TerrainObjectManager</text>
<text text-anchor="middle" x="386.5" y="-41.5" font-family="Helvetica,sans-Serif" font-size="10.00">::hasPreloadedTrucks</text>
</a>
</g>
</g>
<!-- Node40&#45;&gt;Node48 -->
<g id="edge10" class="edge"><title>Node40&#45;&gt;Node48</title>
<path fill="none" stroke="midnightblue" d="M292.419,-63.5942C305.029,-61.6849 318.12,-59.7026 330.363,-57.8488"/>
<polygon fill="midnightblue" stroke="midnightblue" points="291.799,-60.1482 282.436,-65.106 292.847,-67.0693 291.799,-60.1482"/>
</g>
<!-- Node42 -->
<g id="node4" class="node"><title>Node42</title>
<g id="a_node4"><a xlink:href="../../d3/d16/class_terrain_manager.html#a9a04c837bf2ea6528c465b27ca62f730" target="_top" xlink:title="TerrainManager::loadTerrain">
<polygon fill="white" stroke="black" points="497,-89 497,-108 634,-108 634,-89 497,-89"/>
<text text-anchor="middle" x="565.5" y="-96" font-family="Helvetica,sans-Serif" font-size="10.00">TerrainManager::loadTerrain</text>
</a>
</g>
</g>
<!-- Node41&#45;&gt;Node42 -->
<g id="edge3" class="edge"><title>Node41&#45;&gt;Node42</title>
<path fill="none" stroke="midnightblue" d="M465.204,-98.5C475.754,-98.5 486.511,-98.5 496.864,-98.5"/>
<polygon fill="midnightblue" stroke="midnightblue" points="465.174,-95.0001 455.174,-98.5 465.174,-102 465.174,-95.0001"/>
</g>
<!-- Node43 -->
<g id="node5" class="node"><title>Node43</title>
<g id="a_node5"><a xlink:href="../../dd/dbe/class_ro_r_frame_listener.html#a9757c059e840019a3e2659d5ef63ea02" target="_top" xlink:title="Reads GVar &#39;sim_terrain_pending&#39;. ">
<polygon fill="white" stroke="black" points="876,-73 876,-92 1030,-92 1030,-73 876,-73"/>
<text text-anchor="middle" x="953" y="-80" font-family="Helvetica,sans-Serif" font-size="10.00">RoRFrameListener::LoadTerrain</text>
</a>
</g>
</g>
<!-- Node42&#45;&gt;Node43 -->
<g id="edge4" class="edge"><title>Node42&#45;&gt;Node43</title>
<path fill="none" stroke="midnightblue" d="M644.241,-95.2734C711.732,-92.4722 808.879,-88.4402 875.887,-85.659"/>
<polygon fill="midnightblue" stroke="midnightblue" points="643.936,-91.7829 634.09,-95.6947 644.227,-98.7769 643.936,-91.7829"/>
</g>
<!-- Node44 -->
<g id="node6" class="node"><title>Node44</title>
<g id="a_node6"><a xlink:href="../../dd/dbe/class_ro_r_frame_listener.html#aca3931d7a75f2ad4b9d36c4fcd03a3c9" target="_top" xlink:title="RoRFrameListener::SetupGameplayLoop">
<polygon fill="white" stroke="black" points="1253,-50 1253,-69 1447,-69 1447,-50 1253,-50"/>
<text text-anchor="middle" x="1350" y="-57" font-family="Helvetica,sans-Serif" font-size="10.00">RoRFrameListener::SetupGameplayLoop</text>
</a>
</g>
</g>
<!-- Node43&#45;&gt;Node44 -->
<g id="edge5" class="edge"><title>Node43&#45;&gt;Node44</title>
<path fill="none" stroke="midnightblue" d="M1040.42,-77.4681C1103.11,-73.8176 1187.93,-68.8786 1252.78,-65.1025"/>
<polygon fill="midnightblue" stroke="midnightblue" points="1039.94,-73.9899 1030.16,-78.0654 1040.35,-80.9781 1039.94,-73.9899"/>
</g>
<!-- Node45 -->
<g id="node7" class="node"><title>Node45</title>
<g id="a_node7"><a xlink:href="../../dd/dbe/class_ro_r_frame_listener.html#ad598075b5f183208c0de43b9248bb44b" target="_top" xlink:title="RoRFrameListener::getTime">
<polygon fill="white" stroke="black" points="1483,-88 1483,-107 1621,-107 1621,-88 1483,-88"/>
<text text-anchor="middle" x="1552" y="-95" font-family="Helvetica,sans-Serif" font-size="10.00">RoRFrameListener::getTime</text>
</a>
</g>
</g>
<!-- Node43&#45;&gt;Node45 -->
<g id="edge9" class="edge"><title>Node43&#45;&gt;Node45</title>
<path fill="none" stroke="midnightblue" d="M1040.43,-84.6715C1160,-87.6758 1373.46,-93.0392 1482.62,-95.7818"/>
<polygon fill="midnightblue" stroke="midnightblue" points="1040.3,-81.1674 1030.22,-84.415 1040.13,-88.1652 1040.3,-81.1674"/>
</g>
<!-- Node44&#45;&gt;Node45 -->
<g id="edge6" class="edge"><title>Node44&#45;&gt;Node45</title>
<path fill="none" stroke="midnightblue" d="M1411.1,-70.9181C1439.71,-76.3552 1473.54,-82.7832 1500.77,-87.9561"/>
<polygon fill="midnightblue" stroke="midnightblue" points="1411.69,-67.4682 1401.21,-69.04 1410.38,-74.3451 1411.69,-67.4682"/>
</g>
<!-- Node46 -->
<g id="node8" class="node"><title>Node46</title>
<g id="a_node8"><a xlink:href="../../df/d0a/main_8cpp.html#a0ddf1224851353fc92bfbff6f499fa97" target="_top" xlink:title="main">
<polygon fill="white" stroke="black" points="1533,-50 1533,-69 1571,-69 1571,-50 1533,-50"/>
<text text-anchor="middle" x="1552" y="-57" font-family="Helvetica,sans-Serif" font-size="10.00">main</text>
</a>
</g>
</g>
<!-- Node44&#45;&gt;Node46 -->
<g id="edge7" class="edge"><title>Node44&#45;&gt;Node46</title>
<path fill="none" stroke="midnightblue" d="M1457.52,-59.5C1486.66,-59.5 1515.07,-59.5 1532.77,-59.5"/>
<polygon fill="midnightblue" stroke="midnightblue" points="1457.19,-56.0001 1447.19,-59.5 1457.19,-63.0001 1457.19,-56.0001"/>
</g>
<!-- Node47 -->
<g id="node9" class="node"><title>Node47</title>
<g id="a_node9"><a xlink:href="../../df/d0a/main_8cpp.html#a2922bc5d5c2d77a3020cfbf9df12aab0" target="_top" xlink:title="WinMain">
<polygon fill="white" stroke="black" points="1657,-50 1657,-69 1712,-69 1712,-50 1657,-50"/>
<text text-anchor="middle" x="1684.5" y="-57" font-family="Helvetica,sans-Serif" font-size="10.00">WinMain</text>
</a>
</g>
</g>
<!-- Node46&#45;&gt;Node47 -->
<g id="edge8" class="edge"><title>Node46&#45;&gt;Node47</title>
<path fill="none" stroke="midnightblue" d="M1581.39,-59.5C1603.84,-59.5 1634.96,-59.5 1656.92,-59.5"/>
<polygon fill="midnightblue" stroke="midnightblue" points="1581.15,-56.0001 1571.15,-59.5 1581.15,-63.0001 1581.15,-56.0001"/>
</g>
<!-- Node49 -->
<g id="node11" class="node"><title>Node49</title>
<g id="a_node11"><a xlink:href="../../d3/d16/class_terrain_manager.html#ac0ce6b0675c36d8d1f8484749a5ee82d" target="_top" xlink:title="TerrainManager::hasPreloaded\lTrucks">
<polygon fill="white" stroke="black" points="491,-34.5 491,-64.5 640,-64.5 640,-34.5 491,-34.5"/>
<text text-anchor="start" x="499" y="-52.5" font-family="Helvetica,sans-Serif" font-size="10.00">TerrainManager::hasPreloaded</text>
<text text-anchor="middle" x="565.5" y="-41.5" font-family="Helvetica,sans-Serif" font-size="10.00">Trucks</text>
</a>
</g>
</g>
<!-- Node48&#45;&gt;Node49 -->
<g id="edge11" class="edge"><title>Node48&#45;&gt;Node49</title>
<path fill="none" stroke="midnightblue" d="M452.792,-49.5C465.215,-49.5 478.296,-49.5 490.956,-49.5"/>
<polygon fill="midnightblue" stroke="midnightblue" points="452.534,-46.0001 442.534,-49.5 452.534,-53.0001 452.534,-46.0001"/>
</g>
<!-- Node49&#45;&gt;Node43 -->
<g id="edge12" class="edge"><title>Node49&#45;&gt;Node43</title>
<path fill="none" stroke="midnightblue" d="M650.489,-56.6897C717.572,-62.4322 810.781,-70.4112 875.741,-75.972"/>
<polygon fill="midnightblue" stroke="midnightblue" points="650.634,-53.1894 640.372,-55.8237 650.037,-60.1639 650.634,-53.1894"/>
</g>
<!-- Node50 -->
<g id="node12" class="node"><title>Node50</title>
<g id="a_node12"><a xlink:href="../../d3/d16/class_terrain_manager.html#a7c0eff44d224bbca740dc2ab171fd7bf" target="_top" xlink:title="TerrainManager::GetSimController">
<polygon fill="white" stroke="black" points="676,-13 676,-32 840,-32 840,-13 676,-13"/>
<text text-anchor="middle" x="758" y="-20" font-family="Helvetica,sans-Serif" font-size="10.00">TerrainManager::GetSimController</text>
</a>
</g>
</g>
<!-- Node49&#45;&gt;Node50 -->
<g id="edge13" class="edge"><title>Node49&#45;&gt;Node50</title>
<path fill="none" stroke="midnightblue" d="M650.199,-37.6372C663.436,-35.761 676.976,-33.842 689.774,-32.0281"/>
<polygon fill="midnightblue" stroke="midnightblue" points="649.562,-34.1923 640.152,-39.0611 650.545,-41.1231 649.562,-34.1923"/>
</g>
<!-- Node51 -->
<g id="node13" class="node"><title>Node51</title>
<g id="a_node13"><a xlink:href="../../d6/d14/class_terrain_object_manager.html#a202d577cb222f42c46e5b6600c9626a4" target="_top" xlink:title="TerrainObjectManager\l::loadPreloadedTrucks">
<polygon fill="white" stroke="black" points="896.5,-15.5 896.5,-45.5 1009.5,-45.5 1009.5,-15.5 896.5,-15.5"/>
<text text-anchor="start" x="904.5" y="-33.5" font-family="Helvetica,sans-Serif" font-size="10.00">TerrainObjectManager</text>
<text text-anchor="middle" x="953" y="-22.5" font-family="Helvetica,sans-Serif" font-size="10.00">::loadPreloadedTrucks</text>
</a>
</g>
</g>
<!-- Node50&#45;&gt;Node51 -->
<g id="edge14" class="edge"><title>Node50&#45;&gt;Node51</title>
<path fill="none" stroke="midnightblue" d="M850.304,-26.2846C866.036,-26.9367 881.952,-27.5965 896.375,-28.1943"/>
<polygon fill="midnightblue" stroke="midnightblue" points="850.147,-22.7752 840.01,-25.8579 849.857,-29.7692 850.147,-22.7752"/>
</g>
<!-- Node52 -->
<g id="node14" class="node"><title>Node52</title>
<g id="a_node14"><a xlink:href="../../d3/d16/class_terrain_manager.html#ac666fc0221c16001186b83cd6df66691" target="_top" xlink:title="TerrainManager::loadPreloaded\lTrucks">
<polygon fill="white" stroke="black" points="1066,-0.5 1066,-30.5 1217,-30.5 1217,-0.5 1066,-0.5"/>
<text text-anchor="start" x="1074" y="-18.5" font-family="Helvetica,sans-Serif" font-size="10.00">TerrainManager::loadPreloaded</text>
<text text-anchor="middle" x="1141.5" y="-7.5" font-family="Helvetica,sans-Serif" font-size="10.00">Trucks</text>
</a>
</g>
</g>
<!-- Node51&#45;&gt;Node52 -->
<g id="edge15" class="edge"><title>Node51&#45;&gt;Node52</title>
<path fill="none" stroke="midnightblue" d="M1019.81,-25.207C1034.67,-24.0114 1050.56,-22.7338 1065.76,-21.5111"/>
<polygon fill="midnightblue" stroke="midnightblue" points="1019.39,-21.7293 1009.7,-26.0198 1019.95,-28.7068 1019.39,-21.7293"/>
</g>
<!-- Node52&#45;&gt;Node44 -->
<g id="edge16" class="edge"><title>Node52&#45;&gt;Node44</title>
<path fill="none" stroke="midnightblue" d="M1223.05,-32.6637C1250.69,-38.553 1280.61,-44.9288 1304.36,-49.9876"/>
<polygon fill="midnightblue" stroke="midnightblue" points="1223.5,-29.1801 1212.99,-30.5192 1222.04,-36.0264 1223.5,-29.1801"/>
</g>
<!-- Node52&#45;&gt;Node50 -->
<g id="edge17" class="edge"><title>Node52&#45;&gt;Node50</title>
<path fill="none" stroke="midnightblue" d="M1055.78,-7.04873C1047.08,-6.41587 1038.37,-5.87785 1030,-5.5 961.625,-2.41243 944.266,-0.566379 876,-5.5 855.323,-6.99434 832.75,-9.95568 812.995,-12.9939"/>
<polygon fill="midnightblue" stroke="midnightblue" points="1055.73,-10.5549 1065.97,-7.83132 1056.26,-3.57543 1055.73,-10.5549"/>
</g>
</g>
</svg>
        <g id="navigator" transform="translate(0 0)" fill="#404254">
                <rect fill="#f2f5e9" fill-opacity="0.5" stroke="#606060" stroke-width=".5" x="0" y="0" width="60" height="60"/>
                <use id="zoomplus" xlink:href="#zoomPlus" x="17" y="9" onmousedown="handleZoom(evt,'in')"/>
                <use id="zoomminus" xlink:href="#zoomMin" x="42" y="9" onmousedown="handleZoom(evt,'out')"/>
                <use id="reset" xlink:href="#resetDef" x="30" y="36" onmousedown="handleReset()"/>
                <g id="arrowUp" xlink:href="#dirArrow" transform="translate(30 24)" onmousedown="handlePan(0,-1)">
                  <use xlink:href="#rim" fill="#404040">
                        <set attributeName="fill" to="#808080" begin="arrowUp.mouseover" end="arrowUp.mouseout"/>
                  </use>
                  <path fill="none" stroke="white" stroke-width="1.5" d="M0,-3.0v7 M-2.5,-0.5L0,-3.0L2.5,-0.5"/>
                </g>
                <g id="arrowRight" xlink:href="#dirArrow" transform="rotate(90) translate(36 -43)" onmousedown="handlePan(1,0)">
                  <use xlink:href="#rim" fill="#404040">
                        <set attributeName="fill" to="#808080" begin="arrowRight.mouseover" end="arrowRight.mouseout"/>
                  </use>
                  <path fill="none" stroke="white" stroke-width="1.5" d="M0,-3.0v7 M-2.5,-0.5L0,-3.0L2.5,-0.5"/>
                </g>
                <g id="arrowDown" xlink:href="#dirArrow" transform="rotate(180) translate(-30 -48)" onmousedown="handlePan(0,1)">
                  <use xlink:href="#rim" fill="#404040">
                        <set attributeName="fill" to="#808080" begin="arrowDown.mouseover" end="arrowDown.mouseout"/>
                  </use>
                  <path fill="none" stroke="white" stroke-width="1.5" d="M0,-3.0v7 M-2.5,-0.5L0,-3.0L2.5,-0.5"/>
                </g>
                <g id="arrowLeft" xlink:href="#dirArrow" transform="rotate(270) translate(-36 17)" onmousedown="handlePan(-1,0)">
                  <use xlink:href="#rim" fill="#404040">
                        <set attributeName="fill" to="#808080" begin="arrowLeft.mouseover" end="arrowLeft.mouseout"/>
                  </use>
                  <path fill="none" stroke="white" stroke-width="1.5" d="M0,-3.0v7 M-2.5,-0.5L0,-3.0L2.5,-0.5"/>
                </g>
        </g>
        <svg viewBox="0 0 15 15" width="100%" height="30px" preserveAspectRatio="xMaxYMin meet">
         <g id="arrow_out" transform="scale(0.3 0.3)">
          <a xlink:href="class_terrain_manager_afeda2f4a7bc3c99bd77fc6e5c88c5e0e_icgraph_org.svg" target="_base">
           <rect id="button" ry="5" rx="5" y="6" x="6" height="38" width="38"
                fill="#f2f5e9" fill-opacity="0.5" stroke="#606060" stroke-width="1.0"/>
           <path id="arrow"
             d="M 11.500037,31.436501 C 11.940474,20.09759 22.043105,11.32322 32.158766,21.979434 L 37.068811,17.246167 C 37.068811,17.246167 37.088388,32 37.088388,32 L 22.160133,31.978069 C 22.160133,31.978069 26.997745,27.140456 26.997745,27.140456 C 18.528582,18.264221 13.291696,25.230495 11.500037,31.436501 z"
             style="fill:#404040;"/>
          </a>
         </g>
        </svg>
</svg>
