<?xml version="1.0" encoding="UTF-8" standalone="no"?>
<!DOCTYPE svg PUBLIC "-//W3C//DTD SVG 1.1//EN"
 "http://www.w3.org/Graphics/SVG/1.1/DTD/svg11.dtd">
<!-- Generated by graphviz version 2.38.0 (20140413.2041)
 -->
<!-- Title: TerrainManager::GetSimController Pages: 1 -->
<svg width="1003pt" height="75pt"
 viewBox="0.00 0.00 1003.00 74.50" xmlns="http://www.w3.org/2000/svg" xmlns:xlink="http://www.w3.org/1999/xlink">
<g id="graph0" class="graph" transform="scale(1 1) rotate(0) translate(4 70.5)">
<title>TerrainManager::GetSimController</title>
<polygon fill="white" stroke="none" points="-4,4 -4,-70.5 999,-70.5 999,4 -4,4"/>
<!-- Node531 -->
<g id="node1" class="node"><title>Node531</title>
<polygon fill="#bfbfbf" stroke="black" points="0,-19.5 0,-38.5 164,-38.5 164,-19.5 0,-19.5"/>
<text text-anchor="middle" x="82" y="-26.5" font-family="Helvetica,sans-Serif" font-size="10.00">TerrainManager::GetSimController</text>
</g>
<!-- Node532 -->
<g id="node2" class="node"><title>Node532</title>
<g id="a_node2"><a xlink:href="../../d6/d14/class_terrain_object_manager.html#a202d577cb222f42c46e5b6600c9626a4" target="_top" xlink:title="TerrainObjectManager\l::loadPreloadedTrucks">
<polygon fill="white" stroke="black" points="200,-36 200,-66 313,-66 313,-36 200,-36"/>
<text text-anchor="start" x="208" y="-54" font-family="Helvetica,sans-Serif" font-size="10.00">TerrainObjectManager</text>
<text text-anchor="middle" x="256.5" y="-43" font-family="Helvetica,sans-Serif" font-size="10.00">::loadPreloadedTrucks</text>
</a>
</g>
</g>
<!-- Node531&#45;&gt;Node532 -->
<g id="edge1" class="edge"><title>Node531&#45;&gt;Node532</title>
<path fill="none" stroke="midnightblue" d="M167.695,-39.8017C178.658,-41.1998 189.653,-42.6022 199.974,-43.9184"/>
<polygon fill="midnightblue" stroke="midnightblue" points="168.02,-36.3149 157.658,-38.5216 167.135,-43.2586 168.02,-36.3149"/>
</g>
<!-- Node533 -->
<g id="node3" class="node"><title>Node533</title>
<g id="a_node3"><a xlink:href="../../d3/d16/class_terrain_manager.html#ac666fc0221c16001186b83cd6df66691" target="_top" xlink:title="TerrainManager::loadPreloaded\lTrucks">
<polygon fill="white" stroke="black" points="349,-14 349,-44 500,-44 500,-14 349,-14"/>
<text text-anchor="start" x="357" y="-32" font-family="Helvetica,sans-Serif" font-size="10.00">TerrainManager::loadPreloaded</text>
<text text-anchor="middle" x="424.5" y="-21" font-family="Helvetica,sans-Serif" font-size="10.00">Trucks</text>
</a>
</g>
</g>
<!-- Node532&#45;&gt;Node533 -->
<g id="edge2" class="edge"><title>Node532&#45;&gt;Node533</title>
<path fill="none" stroke="midnightblue" d="M323.29,-42.2809C331.65,-41.1729 340.254,-40.0327 348.741,-38.9078"/>
<polygon fill="midnightblue" stroke="midnightblue" points="322.691,-38.8296 313.237,-43.6131 323.611,-45.7689 322.691,-38.8296"/>
</g>
<!-- Node533&#45;&gt;Node531 -->
<g id="edge7" class="edge"><title>Node533&#45;&gt;Node531</title>
<path fill="none" stroke="midnightblue" d="M338.73,-27.3096C330.04,-27.1831 321.343,-27.0755 313,-27 262.78,-26.5456 250.22,-26.5708 200,-27 188.421,-27.099 176.197,-27.253 164.191,-27.4327"/>
<polygon fill="midnightblue" stroke="midnightblue" points="338.854,-30.8118 348.906,-27.4661 338.961,-23.8126 338.854,-30.8118"/>
</g>
<!-- Node534 -->
<g id="node4" class="node"><title>Node534</title>
<g id="a_node4"><a xlink:href="../../dd/dbe/class_ro_r_frame_listener.html#aca3931d7a75f2ad4b9d36c4fcd03a3c9" target="_top" xlink:title="RoRFrameListener::SetupGameplayLoop">
<polygon fill="white" stroke="black" points="536,-19.5 536,-38.5 730,-38.5 730,-19.5 536,-19.5"/>
<text text-anchor="middle" x="633" y="-26.5" font-family="Helvetica,sans-Serif" font-size="10.00">RoRFrameListener::SetupGameplayLoop</text>
</a>
</g>
</g>
<!-- Node533&#45;&gt;Node534 -->
<g id="edge3" class="edge"><title>Node533&#45;&gt;Node534</title>
<path fill="none" stroke="midnightblue" d="M510.287,-29C518.761,-29 527.407,-29 535.986,-29"/>
<polygon fill="midnightblue" stroke="midnightblue" points="510.051,-25.5001 500.051,-29 510.051,-32.5001 510.051,-25.5001"/>
</g>
<!-- Node535 -->
<g id="node5" class="node"><title>Node535</title>
<g id="a_node5"><a xlink:href="../../dd/dbe/class_ro_r_frame_listener.html#ad598075b5f183208c0de43b9248bb44b" target="_top" xlink:title="RoRFrameListener::getTime">
<polygon fill="white" stroke="black" points="766,-38.5 766,-57.5 904,-57.5 904,-38.5 766,-38.5"/>
<text text-anchor="middle" x="835" y="-45.5" font-family="Helvetica,sans-Serif" font-size="10.00">RoRFrameListener::getTime</text>
</a>
</g>
</g>
<!-- Node534&#45;&gt;Node535 -->
<g id="edge4" class="edge"><title>Node534&#45;&gt;Node535</title>
<path fill="none" stroke="midnightblue" d="M740.326,-39.101C748.948,-39.92 757.506,-40.7331 765.744,-41.5157"/>
<polygon fill="midnightblue" stroke="midnightblue" points="740.478,-35.5998 730.192,-38.1383 739.816,-42.5684 740.478,-35.5998"/>
</g>
<!-- Node536 -->
<g id="node6" class="node"><title>Node536</title>
<g id="a_node6"><a xlink:href="../../df/d0a/main_8cpp.html#a0ddf1224851353fc92bfbff6f499fa97" target="_top" xlink:title="main">
<polygon fill="white" stroke="black" points="816,-0.5 816,-19.5 854,-19.5 854,-0.5 816,-0.5"/>
<text text-anchor="middle" x="835" y="-7.5" font-family="Helvetica,sans-Serif" font-size="10.00">main</text>
</a>
</g>
</g>
<!-- Node534&#45;&gt;Node536 -->
<g id="edge5" class="edge"><title>Node534&#45;&gt;Node536</title>
<path fill="none" stroke="midnightblue" d="M740.516,-18.881C769.662,-16.1121 798.067,-13.4136 815.77,-11.7318"/>
<polygon fill="midnightblue" stroke="midnightblue" points="739.816,-15.4316 730.192,-19.8617 740.478,-22.4002 739.816,-15.4316"/>
</g>
<!-- Node537 -->
<g id="node7" class="node"><title>Node537</title>
<g id="a_node7"><a xlink:href="../../df/d0a/main_8cpp.html#a2922bc5d5c2d77a3020cfbf9df12aab0" target="_top" xlink:title="WinMain">
<polygon fill="white" stroke="black" points="940,-0.5 940,-19.5 995,-19.5 995,-0.5 940,-0.5"/>
<text text-anchor="middle" x="967.5" y="-7.5" font-family="Helvetica,sans-Serif" font-size="10.00">WinMain</text>
</a>
</g>
</g>
<!-- Node536&#45;&gt;Node537 -->
<g id="edge6" class="edge"><title>Node536&#45;&gt;Node537</title>
<path fill="none" stroke="midnightblue" d="M864.393,-10C886.844,-10 917.959,-10 939.924,-10"/>
<polygon fill="midnightblue" stroke="midnightblue" points="864.146,-6.5001 854.145,-10 864.145,-13.5001 864.146,-6.5001"/>
</g>
</g>
</svg>
