<?xml version="1.0" encoding="UTF-8" standalone="no"?>
<!DOCTYPE svg PUBLIC "-//W3C//DTD SVG 1.1//EN"
 "http://www.w3.org/Graphics/SVG/1.1/DTD/svg11.dtd">
<!-- Generated by graphviz version 2.38.0 (20140413.2041)
 -->
<!-- Title: TerrainManager::initGlow Pages: 1 -->
<!--zoomable 66 -->
<svg id="main" version="1.1" xmlns="http://www.w3.org/2000/svg" xmlns:xlink="http://www.w3.org/1999/xlink" xml:space="preserve" onload="init(evt)">
<style type="text/css"><![CDATA[
.edge:hover path { stroke: red; }
.edge:hover polygon { stroke: red; fill: red; }
]]></style>
<script type="text/javascript"><![CDATA[
var edges = document.getElementsByTagName('g');
if (edges && edges.length) {
  for (var i=0;i<edges.length;i++) {
    if (edges[i].id.substr(0,4)=='edge') {
      edges[i].setAttribute('class','edge');
    }
  }
}
]]></script>
        <defs>
                <circle id="rim" cx="0" cy="0" r="7"/>
                <circle id="rim2" cx="0" cy="0" r="3.5"/>
                <g id="zoomPlus">
                        <use xlink:href="#rim" fill="#404040">
                                <set attributeName="fill" to="#808080" begin="zoomplus.mouseover" end="zoomplus.mouseout"/>
                        </use>
                        <path d="M-4,0h8M0,-4v8" fill="none" stroke="white" stroke-width="1.5" pointer-events="none"/>
                </g>
                <g id="zoomMin">
                        <use xlink:href="#rim" fill="#404040">
                                <set attributeName="fill" to="#808080" begin="zoomminus.mouseover" end="zoomminus.mouseout"/>
                        </use>
                        <path d="M-4,0h8" fill="none" stroke="white" stroke-width="1.5" pointer-events="none"/>
                </g>
                <g id="dirArrow">
                        <path fill="none" stroke="white" stroke-width="1.5" d="M0,-3.0v7 M-2.5,-0.5L0,-3.0L2.5,-0.5"/>
                </g>
               <g id="resetDef">
                       <use xlink:href="#rim2" fill="#404040">
                               <set attributeName="fill" to="#808080" begin="reset.mouseover" end="reset.mouseout"/>
                       </use>
               </g>
        </defs>

<script type="text/javascript">
var viewWidth = 1184;
var viewHeight = 66;
var sectionId = 'dynsection-36';
</script>
<script xlink:href="../../svgpan.js"/>
<svg id="graph" class="graph">
<g id="viewport">
<title>TerrainManager::initGlow</title>
<polygon fill="white" stroke="none" points="-4,4 -4,-62 1180,-62 1180,4 -4,4"/>
<!-- Node777 -->
<g id="node1" class="node"><title>Node777</title>
<polygon fill="#bfbfbf" stroke="black" points="0,-19.5 0,-38.5 124,-38.5 124,-19.5 0,-19.5"/>
<text text-anchor="middle" x="62" y="-26.5" font-family="Helvetica,sans-Serif" font-size="10.00">TerrainManager::initGlow</text>
</g>
<!-- Node778 -->
<g id="node2" class="node"><title>Node778</title>
<g id="a_node2"><a xlink:href="../../d3/d16/class_terrain_manager.html#a13e84f666b59e55f3c67ee345bda5873" target="_top" xlink:title="TerrainManager::initSubSystems">
<polygon fill="white" stroke="black" points="160,-19.5 160,-38.5 318,-38.5 318,-19.5 160,-19.5"/>
<text text-anchor="middle" x="239" y="-26.5" font-family="Helvetica,sans-Serif" font-size="10.00">TerrainManager::initSubSystems</text>
</a>
</g>
</g>
<!-- Node777&#45;&gt;Node778 -->
<g id="edge1" class="edge"><title>Node777&#45;&gt;Node778</title>
<path fill="none" stroke="midnightblue" d="M134.353,-29C142.774,-29 151.401,-29 159.909,-29"/>
<polygon fill="midnightblue" stroke="midnightblue" points="134.207,-25.5001 124.207,-29 134.206,-32.5001 134.207,-25.5001"/>
</g>
<!-- Node779 -->
<g id="node3" class="node"><title>Node779</title>
<g id="a_node3"><a xlink:href="../../d3/d16/class_terrain_manager.html#a9a04c837bf2ea6528c465b27ca62f730" target="_top" xlink:title="TerrainManager::loadTerrain">
<polygon fill="white" stroke="black" points="354,-19.5 354,-38.5 491,-38.5 491,-19.5 354,-19.5"/>
<text text-anchor="middle" x="422.5" y="-26.5" font-family="Helvetica,sans-Serif" font-size="10.00">TerrainManager::loadTerrain</text>
</a>
</g>
</g>
<!-- Node778&#45;&gt;Node779 -->
<g id="edge2" class="edge"><title>Node778&#45;&gt;Node779</title>
<path fill="none" stroke="midnightblue" d="M328.13,-29C336.766,-29 345.433,-29 353.819,-29"/>
<polygon fill="midnightblue" stroke="midnightblue" points="328.026,-25.5001 318.026,-29 328.026,-32.5001 328.026,-25.5001"/>
</g>
<!-- Node780 -->
<g id="node4" class="node"><title>Node780</title>
<g id="a_node4"><a xlink:href="../../dd/dbe/class_ro_r_frame_listener.html#a9757c059e840019a3e2659d5ef63ea02" target="_top" xlink:title="Reads GVar &#39;sim_terrain_pending&#39;. ">
<polygon fill="white" stroke="black" points="527,-19.5 527,-38.5 681,-38.5 681,-19.5 527,-19.5"/>
<text text-anchor="middle" x="604" y="-26.5" font-family="Helvetica,sans-Serif" font-size="10.00">RoRFrameListener::LoadTerrain</text>
</a>
</g>
</g>
<!-- Node779&#45;&gt;Node780 -->
<g id="edge3" class="edge"><title>Node779&#45;&gt;Node780</title>
<path fill="none" stroke="midnightblue" d="M501.301,-29C509.734,-29 518.311,-29 526.726,-29"/>
<polygon fill="midnightblue" stroke="midnightblue" points="501.106,-25.5001 491.105,-29 501.105,-32.5001 501.106,-25.5001"/>
</g>
<!-- Node781 -->
<g id="node5" class="node"><title>Node781</title>
<g id="a_node5"><a xlink:href="../../dd/dbe/class_ro_r_frame_listener.html#aca3931d7a75f2ad4b9d36c4fcd03a3c9" target="_top" xlink:title="RoRFrameListener::SetupGameplayLoop">
<polygon fill="white" stroke="black" points="717,-0.5 717,-19.5 911,-19.5 911,-0.5 717,-0.5"/>
<text text-anchor="middle" x="814" y="-7.5" font-family="Helvetica,sans-Serif" font-size="10.00">RoRFrameListener::SetupGameplayLoop</text>
</a>
</g>
</g>
<!-- Node780&#45;&gt;Node781 -->
<g id="edge4" class="edge"><title>Node780&#45;&gt;Node781</title>
<path fill="none" stroke="midnightblue" d="M691.434,-21.1046C699.843,-20.3365 708.41,-19.5539 716.906,-18.7779"/>
<polygon fill="midnightblue" stroke="midnightblue" points="690.911,-17.6377 681.27,-22.033 691.547,-24.6087 690.911,-17.6377"/>
</g>
<!-- Node782 -->
<g id="node6" class="node"><title>Node782</title>
<g id="a_node6"><a xlink:href="../../dd/dbe/class_ro_r_frame_listener.html#ad598075b5f183208c0de43b9248bb44b" target="_top" xlink:title="RoRFrameListener::getTime">
<polygon fill="white" stroke="black" points="947,-38.5 947,-57.5 1085,-57.5 1085,-38.5 947,-38.5"/>
<text text-anchor="middle" x="1016" y="-45.5" font-family="Helvetica,sans-Serif" font-size="10.00">RoRFrameListener::getTime</text>
</a>
</g>
</g>
<!-- Node780&#45;&gt;Node782 -->
<g id="edge8" class="edge"><title>Node780&#45;&gt;Node782</title>
<path fill="none" stroke="midnightblue" d="M691.193,-32.9943C767.247,-36.5188 876.615,-41.5871 946.741,-44.8368"/>
<polygon fill="midnightblue" stroke="midnightblue" points="691.308,-29.496 681.157,-32.5292 690.984,-36.4885 691.308,-29.496"/>
</g>
<!-- Node781&#45;&gt;Node782 -->
<g id="edge5" class="edge"><title>Node781&#45;&gt;Node782</title>
<path fill="none" stroke="midnightblue" d="M875.095,-21.4181C903.712,-26.8552 937.543,-33.2832 964.769,-38.4561"/>
<polygon fill="midnightblue" stroke="midnightblue" points="875.688,-17.9682 865.21,-19.54 874.381,-24.8451 875.688,-17.9682"/>
</g>
<!-- Node783 -->
<g id="node7" class="node"><title>Node783</title>
<g id="a_node7"><a xlink:href="../../df/d0a/main_8cpp.html#a0ddf1224851353fc92bfbff6f499fa97" target="_top" xlink:title="main">
<polygon fill="white" stroke="black" points="997,-0.5 997,-19.5 1035,-19.5 1035,-0.5 997,-0.5"/>
<text text-anchor="middle" x="1016" y="-7.5" font-family="Helvetica,sans-Serif" font-size="10.00">main</text>
</a>
</g>
</g>
<!-- Node781&#45;&gt;Node783 -->
<g id="edge6" class="edge"><title>Node781&#45;&gt;Node783</title>
<path fill="none" stroke="midnightblue" d="M921.516,-10C950.662,-10 979.067,-10 996.77,-10"/>
<polygon fill="midnightblue" stroke="midnightblue" points="921.192,-6.5001 911.192,-10 921.192,-13.5001 921.192,-6.5001"/>
</g>
<!-- Node784 -->
<g id="node8" class="node"><title>Node784</title>
<g id="a_node8"><a xlink:href="../../df/d0a/main_8cpp.html#a2922bc5d5c2d77a3020cfbf9df12aab0" target="_top" xlink:title="WinMain">
<polygon fill="white" stroke="black" points="1121,-0.5 1121,-19.5 1176,-19.5 1176,-0.5 1121,-0.5"/>
<text text-anchor="middle" x="1148.5" y="-7.5" font-family="Helvetica,sans-Serif" font-size="10.00">WinMain</text>
</a>
</g>
</g>
<!-- Node783&#45;&gt;Node784 -->
<g id="edge7" class="edge"><title>Node783&#45;&gt;Node784</title>
<path fill="none" stroke="midnightblue" d="M1045.39,-10C1067.84,-10 1098.96,-10 1120.92,-10"/>
<polygon fill="midnightblue" stroke="midnightblue" points="1045.15,-6.5001 1035.15,-10 1045.15,-13.5001 1045.15,-6.5001"/>
</g>
</g>
</svg>
        <g id="navigator" transform="translate(0 0)" fill="#404254">
                <rect fill="#f2f5e9" fill-opacity="0.5" stroke="#606060" stroke-width=".5" x="0" y="0" width="60" height="60"/>
                <use id="zoomplus" xlink:href="#zoomPlus" x="17" y="9" onmousedown="handleZoom(evt,'in')"/>
                <use id="zoomminus" xlink:href="#zoomMin" x="42" y="9" onmousedown="handleZoom(evt,'out')"/>
                <use id="reset" xlink:href="#resetDef" x="30" y="36" onmousedown="handleReset()"/>
                <g id="arrowUp" xlink:href="#dirArrow" transform="translate(30 24)" onmousedown="handlePan(0,-1)">
                  <use xlink:href="#rim" fill="#404040">
                        <set attributeName="fill" to="#808080" begin="arrowUp.mouseover" end="arrowUp.mouseout"/>
                  </use>
                  <path fill="none" stroke="white" stroke-width="1.5" d="M0,-3.0v7 M-2.5,-0.5L0,-3.0L2.5,-0.5"/>
                </g>
                <g id="arrowRight" xlink:href="#dirArrow" transform="rotate(90) translate(36 -43)" onmousedown="handlePan(1,0)">
                  <use xlink:href="#rim" fill="#404040">
                        <set attributeName="fill" to="#808080" begin="arrowRight.mouseover" end="arrowRight.mouseout"/>
                  </use>
                  <path fill="none" stroke="white" stroke-width="1.5" d="M0,-3.0v7 M-2.5,-0.5L0,-3.0L2.5,-0.5"/>
                </g>
                <g id="arrowDown" xlink:href="#dirArrow" transform="rotate(180) translate(-30 -48)" onmousedown="handlePan(0,1)">
                  <use xlink:href="#rim" fill="#404040">
                        <set attributeName="fill" to="#808080" begin="arrowDown.mouseover" end="arrowDown.mouseout"/>
                  </use>
                  <path fill="none" stroke="white" stroke-width="1.5" d="M0,-3.0v7 M-2.5,-0.5L0,-3.0L2.5,-0.5"/>
                </g>
                <g id="arrowLeft" xlink:href="#dirArrow" transform="rotate(270) translate(-36 17)" onmousedown="handlePan(-1,0)">
                  <use xlink:href="#rim" fill="#404040">
                        <set attributeName="fill" to="#808080" begin="arrowLeft.mouseover" end="arrowLeft.mouseout"/>
                  </use>
                  <path fill="none" stroke="white" stroke-width="1.5" d="M0,-3.0v7 M-2.5,-0.5L0,-3.0L2.5,-0.5"/>
                </g>
        </g>
        <svg viewBox="0 0 15 15" width="100%" height="30px" preserveAspectRatio="xMaxYMin meet">
         <g id="arrow_out" transform="scale(0.3 0.3)">
          <a xlink:href="class_terrain_manager_ade9befdc58ae6c7b4344b58f15ae43e0_icgraph_org.svg" target="_base">
           <rect id="button" ry="5" rx="5" y="6" x="6" height="38" width="38"
                fill="#f2f5e9" fill-opacity="0.5" stroke="#606060" stroke-width="1.0"/>
           <path id="arrow"
             d="M 11.500037,31.436501 C 11.940474,20.09759 22.043105,11.32322 32.158766,21.979434 L 37.068811,17.246167 C 37.068811,17.246167 37.088388,32 37.088388,32 L 22.160133,31.978069 C 22.160133,31.978069 26.997745,27.140456 26.997745,27.140456 C 18.528582,18.264221 13.291696,25.230495 11.500037,31.436501 z"
             style="fill:#404040;"/>
          </a>
         </g>
        </svg>
</svg>
