<?xml version="1.0" encoding="UTF-8" standalone="no"?>
<!DOCTYPE svg PUBLIC "-//W3C//DTD SVG 1.1//EN"
 "http://www.w3.org/Graphics/SVG/1.1/DTD/svg11.dtd">
<!-- Generated by graphviz version 2.38.0 (20140413.2041)
 -->
<!-- Title: source/main/utils/RoRWindowEventUtilities.h Pages: 1 -->
<svg width="3328pt" height="173pt"
 viewBox="0.00 0.00 3327.50 173.00" xmlns="http://www.w3.org/2000/svg" xmlns:xlink="http://www.w3.org/1999/xlink">
<g id="graph0" class="graph" transform="scale(1 1) rotate(0) translate(4 169)">
<title>source/main/utils/RoRWindowEventUtilities.h</title>
<polygon fill="white" stroke="none" points="-4,4 -4,-169 3323.5,-169 3323.5,4 -4,4"/>
<!-- Node20 -->
<g id="node1" class="node"><title>Node20</title>
<polygon fill="#bfbfbf" stroke="black" points="1514,-134.5 1514,-164.5 1661,-164.5 1661,-134.5 1514,-134.5"/>
<text text-anchor="start" x="1522" y="-152.5" font-family="Helvetica,sans-Serif" font-size="10.00">source/main/utils/RoRWindow</text>
<text text-anchor="middle" x="1587.5" y="-141.5" font-family="Helvetica,sans-Serif" font-size="10.00">EventUtilities.h</text>
</g>
<!-- Node21 -->
<g id="node2" class="node"><title>Node21</title>
<g id="a_node2"><a xlink:href="../../da/d60/_ogre_subsystem_8cpp.html" target="_top" xlink:title="source/main/gfx/OgreSubsystem.cpp">
<polygon fill="white" stroke="black" points="1210.5,-73 1210.5,-92 1388.5,-92 1388.5,-73 1210.5,-73"/>
<text text-anchor="middle" x="1299.5" y="-80" font-family="Helvetica,sans-Serif" font-size="10.00">source/main/gfx/OgreSubsystem.cpp</text>
</a>
</g>
</g>
<!-- Node20&#45;&gt;Node21 -->
<g id="edge1" class="edge"><title>Node20&#45;&gt;Node21</title>
<path fill="none" stroke="midnightblue" d="M1515.4,-132.228C1458.86,-119.466 1382.41,-102.212 1337.29,-92.0287"/>
<polygon fill="midnightblue" stroke="midnightblue" points="1514.84,-135.688 1525.36,-134.476 1516.38,-128.86 1514.84,-135.688"/>
</g>
<!-- Node22 -->
<g id="node3" class="node"><title>Node22</title>
<g id="a_node3"><a xlink:href="../../d4/d90/_g_u_i_manager_8cpp.html" target="_top" xlink:title="source/main/gui/GUIManager.cpp">
<polygon fill="white" stroke="black" points="0,-6 0,-25 161,-25 161,-6 0,-6"/>
<text text-anchor="middle" x="80.5" y="-13" font-family="Helvetica,sans-Serif" font-size="10.00">source/main/gui/GUIManager.cpp</text>
</a>
</g>
</g>
<!-- Node20&#45;&gt;Node22 -->
<g id="edge2" class="edge"><title>Node20&#45;&gt;Node22</title>
<path fill="none" stroke="midnightblue" d="M1519.37,-131.627C1492.34,-123.478 1461.54,-112.314 1435.5,-98 1416.4,-87.5021 1417.92,-74.6131 1397.5,-67 1269.7,-19.3597 306.283,-43.8746 170.5,-31 156.005,-29.6256 140.304,-27.3664 126.137,-25.0358"/>
<polygon fill="midnightblue" stroke="midnightblue" points="1518.56,-135.038 1529.14,-134.494 1520.53,-128.321 1518.56,-135.038"/>
</g>
<!-- Node23 -->
<g id="node4" class="node"><title>Node23</title>
<g id="a_node4"><a xlink:href="../../d5/d6f/_g_u_i___loading_window_8cpp.html" target="_top" xlink:title="source/main/gui/panels\l/GUI_LoadingWindow.cpp">
<polygon fill="white" stroke="black" points="1444.5,-67.5 1444.5,-97.5 1572.5,-97.5 1572.5,-67.5 1444.5,-67.5"/>
<text text-anchor="start" x="1452.5" y="-85.5" font-family="Helvetica,sans-Serif" font-size="10.00">source/main/gui/panels</text>
<text text-anchor="middle" x="1508.5" y="-74.5" font-family="Helvetica,sans-Serif" font-size="10.00">/GUI_LoadingWindow.cpp</text>
</a>
</g>
</g>
<!-- Node20&#45;&gt;Node23 -->
<g id="edge3" class="edge"><title>Node20&#45;&gt;Node23</title>
<path fill="none" stroke="midnightblue" d="M1562.44,-127.883C1550.44,-118.005 1536.37,-106.429 1525.61,-97.5765"/>
<polygon fill="midnightblue" stroke="midnightblue" points="1560.41,-130.745 1570.36,-134.396 1564.86,-125.34 1560.41,-130.745"/>
</g>
<!-- Node24 -->
<g id="node5" class="node"><title>Node24</title>
<g id="a_node5"><a xlink:href="../../d1/d83/_input_engine_8h.html" target="_top" xlink:title="Input logic. ">
<polygon fill="white" stroke="black" points="1591,-73 1591,-92 1744,-92 1744,-73 1591,-73"/>
<text text-anchor="middle" x="1667.5" y="-80" font-family="Helvetica,sans-Serif" font-size="10.00">source/main/utils/InputEngine.h</text>
</a>
</g>
</g>
<!-- Node20&#45;&gt;Node24 -->
<g id="edge4" class="edge"><title>Node20&#45;&gt;Node24</title>
<path fill="none" stroke="midnightblue" d="M1612.72,-128.008C1627.57,-115.941 1645.59,-101.305 1656.8,-92.1945"/>
<polygon fill="midnightblue" stroke="midnightblue" points="1610.41,-125.374 1604.86,-134.396 1614.83,-130.806 1610.41,-125.374"/>
</g>
<!-- Node45 -->
<g id="node26" class="node"><title>Node45</title>
<g id="a_node26"><a xlink:href="../../d5/df0/_input_engine_8cpp.html" target="_top" xlink:title="source/main/utils/InputEngine.cpp">
<polygon fill="white" stroke="black" points="3155.5,-6 3155.5,-25 3319.5,-25 3319.5,-6 3155.5,-6"/>
<text text-anchor="middle" x="3237.5" y="-13" font-family="Helvetica,sans-Serif" font-size="10.00">source/main/utils/InputEngine.cpp</text>
</a>
</g>
</g>
<!-- Node20&#45;&gt;Node45 -->
<g id="edge27" class="edge"><title>Node20&#45;&gt;Node45</title>
<path fill="none" stroke="midnightblue" d="M1662.01,-131.858C1691.16,-123.785 1724.3,-112.614 1752.5,-98 1772.47,-87.6505 1771.32,-74.5631 1792.5,-67 1934.23,-16.3932 2996.64,-44.8708 3146.5,-31 3161.16,-29.6435 3177.03,-27.3893 3191.35,-25.0578"/>
<polygon fill="midnightblue" stroke="midnightblue" points="1661.03,-128.496 1652.29,-134.477 1662.85,-135.255 1661.03,-128.496"/>
</g>
<!-- Node46 -->
<g id="node27" class="node"><title>Node46</title>
<g id="a_node27"><a xlink:href="../../d1/d5e/_ro_r_window_event_utilities_8cpp.html" target="_top" xlink:title="source/main/utils/RoRWindow\lEventUtilities.cpp">
<polygon fill="white" stroke="black" points="1801,-67.5 1801,-97.5 1948,-97.5 1948,-67.5 1801,-67.5"/>
<text text-anchor="start" x="1809" y="-85.5" font-family="Helvetica,sans-Serif" font-size="10.00">source/main/utils/RoRWindow</text>
<text text-anchor="middle" x="1874.5" y="-74.5" font-family="Helvetica,sans-Serif" font-size="10.00">EventUtilities.cpp</text>
</a>
</g>
</g>
<!-- Node20&#45;&gt;Node46 -->
<g id="edge28" class="edge"><title>Node20&#45;&gt;Node46</title>
<path fill="none" stroke="midnightblue" d="M1659.24,-132.252C1706.28,-121.598 1767.18,-107.805 1812.19,-97.6109"/>
<polygon fill="midnightblue" stroke="midnightblue" points="1658.4,-128.854 1649.42,-134.476 1659.95,-135.681 1658.4,-128.854"/>
</g>
<!-- Node24&#45;&gt;Node22 -->
<g id="edge16" class="edge"><title>Node24&#45;&gt;Node22</title>
<path fill="none" stroke="midnightblue" d="M1614.2,-71.3079C1603.41,-69.5856 1592.12,-68.0257 1581.5,-67 957.09,-6.70099 795.126,-89.021 170.5,-31 156.002,-29.6533 140.301,-27.4019 126.134,-25.0699"/>
<polygon fill="midnightblue" stroke="midnightblue" points="1613.91,-74.8078 1624.35,-72.9967 1615.06,-67.9027 1613.91,-74.8078"/>
</g>
<!-- Node25 -->
<g id="node6" class="node"><title>Node25</title>
<g id="a_node6"><a xlink:href="../../d0/d42/_application_8cpp.html" target="_top" xlink:title="source/main/Application.cpp">
<polygon fill="white" stroke="black" points="179.5,-6 179.5,-25 319.5,-25 319.5,-6 179.5,-6"/>
<text text-anchor="middle" x="249.5" y="-13" font-family="Helvetica,sans-Serif" font-size="10.00">source/main/Application.cpp</text>
</a>
</g>
</g>
<!-- Node24&#45;&gt;Node25 -->
<g id="edge5" class="edge"><title>Node24&#45;&gt;Node25</title>
<path fill="none" stroke="midnightblue" d="M1613.85,-71.2792C1603.17,-69.5767 1592.01,-68.0316 1581.5,-67 1027.05,-12.5571 882.543,-89.4585 328.5,-31 315.742,-29.6539 301.951,-27.4026 289.517,-25.0706"/>
<polygon fill="midnightblue" stroke="midnightblue" points="1613.47,-74.7637 1623.91,-72.948 1614.61,-67.8582 1613.47,-74.7637"/>
</g>
<!-- Node26 -->
<g id="node7" class="node"><title>Node26</title>
<g id="a_node7"><a xlink:href="../../d5/d12/_aircraft_simulation_8cpp.html" target="_top" xlink:title="source/main/gameplay\l/AircraftSimulation.cpp">
<polygon fill="white" stroke="black" points="338,-0.5 338,-30.5 453,-30.5 453,-0.5 338,-0.5"/>
<text text-anchor="start" x="346" y="-18.5" font-family="Helvetica,sans-Serif" font-size="10.00">source/main/gameplay</text>
<text text-anchor="middle" x="395.5" y="-7.5" font-family="Helvetica,sans-Serif" font-size="10.00">/AircraftSimulation.cpp</text>
</a>
</g>
</g>
<!-- Node24&#45;&gt;Node26 -->
<g id="edge6" class="edge"><title>Node24&#45;&gt;Node26</title>
<path fill="none" stroke="midnightblue" d="M1613.85,-71.3076C1603.17,-69.6028 1592,-68.0495 1581.5,-67 1085.93,-17.4863 955.699,-92.6953 461.5,-31 458.823,-30.6657 456.093,-30.2745 453.344,-29.8392"/>
<polygon fill="midnightblue" stroke="midnightblue" points="1613.47,-74.7921 1623.9,-72.9771 1614.61,-67.8866 1613.47,-74.7921"/>
</g>
<!-- Node27 -->
<g id="node8" class="node"><title>Node27</title>
<g id="a_node8"><a xlink:href="../../d0/dbf/_character_8cpp.html" target="_top" xlink:title="source/main/gameplay\l/Character.cpp">
<polygon fill="white" stroke="black" points="471,-0.5 471,-30.5 586,-30.5 586,-0.5 471,-0.5"/>
<text text-anchor="start" x="479" y="-18.5" font-family="Helvetica,sans-Serif" font-size="10.00">source/main/gameplay</text>
<text text-anchor="middle" x="528.5" y="-7.5" font-family="Helvetica,sans-Serif" font-size="10.00">/Character.cpp</text>
</a>
</g>
</g>
<!-- Node24&#45;&gt;Node27 -->
<g id="edge7" class="edge"><title>Node24&#45;&gt;Node27</title>
<path fill="none" stroke="midnightblue" d="M1613.49,-71.2881C1602.92,-69.6019 1591.89,-68.0606 1581.5,-67 1144.81,-22.4148 1029.96,-86.3191 594.5,-31 591.823,-30.66 589.095,-30.264 586.345,-29.8248"/>
<polygon fill="midnightblue" stroke="midnightblue" points="1613.02,-74.7571 1623.46,-72.9381 1614.16,-67.8512 1613.02,-74.7571"/>
</g>
<!-- Node28 -->
<g id="node9" class="node"><title>Node28</title>
<g id="a_node9"><a xlink:href="../../db/dd5/_land_vehicle_simulation_8cpp.html" target="_top" xlink:title="source/main/gameplay\l/LandVehicleSimulation.cpp">
<polygon fill="white" stroke="black" points="604,-0.5 604,-30.5 741,-30.5 741,-0.5 604,-0.5"/>
<text text-anchor="start" x="612" y="-18.5" font-family="Helvetica,sans-Serif" font-size="10.00">source/main/gameplay</text>
<text text-anchor="middle" x="672.5" y="-7.5" font-family="Helvetica,sans-Serif" font-size="10.00">/LandVehicleSimulation.cpp</text>
</a>
</g>
</g>
<!-- Node24&#45;&gt;Node28 -->
<g id="edge8" class="edge"><title>Node24&#45;&gt;Node28</title>
<path fill="none" stroke="midnightblue" d="M1613.49,-71.3445C1602.91,-69.6534 1591.88,-68.0958 1581.5,-67 1213.42,-28.1576 1117.19,-73.3554 749.5,-31 746.797,-30.6887 744.047,-30.3375 741.273,-29.9546"/>
<polygon fill="midnightblue" stroke="midnightblue" points="1613.01,-74.8135 1623.45,-72.9961 1614.16,-67.9077 1613.01,-74.8135"/>
</g>
<!-- Node29 -->
<g id="node10" class="node"><title>Node29</title>
<g id="a_node10"><a xlink:href="../../de/dbe/_ro_r_frame_listener_8cpp.html" target="_top" xlink:title="source/main/gameplay\l/RoRFrameListener.cpp">
<polygon fill="white" stroke="black" points="759,-0.5 759,-30.5 878,-30.5 878,-0.5 759,-0.5"/>
<text text-anchor="start" x="767" y="-18.5" font-family="Helvetica,sans-Serif" font-size="10.00">source/main/gameplay</text>
<text text-anchor="middle" x="818.5" y="-7.5" font-family="Helvetica,sans-Serif" font-size="10.00">/RoRFrameListener.cpp</text>
</a>
</g>
</g>
<!-- Node24&#45;&gt;Node29 -->
<g id="edge9" class="edge"><title>Node24&#45;&gt;Node29</title>
<path fill="none" stroke="midnightblue" d="M1613.13,-71.36C1602.66,-69.6839 1591.77,-68.1278 1581.5,-67 1274.49,-33.2689 1193.77,-70.8791 887.5,-31 884.465,-30.6049 881.365,-30.1486 878.242,-29.647"/>
<polygon fill="midnightblue" stroke="midnightblue" points="1612.56,-74.8134 1623,-72.9936 1613.71,-67.9073 1612.56,-74.8134"/>
</g>
<!-- Node30 -->
<g id="node11" class="node"><title>Node30</title>
<g id="a_node11"><a xlink:href="../../d7/d42/_camera_behavior_free_8cpp.html" target="_top" xlink:title="source/main/gfx/camera\l/CameraBehaviorFree.cpp">
<polygon fill="white" stroke="black" points="896.5,-0.5 896.5,-30.5 1024.5,-30.5 1024.5,-0.5 896.5,-0.5"/>
<text text-anchor="start" x="904.5" y="-18.5" font-family="Helvetica,sans-Serif" font-size="10.00">source/main/gfx/camera</text>
<text text-anchor="middle" x="960.5" y="-7.5" font-family="Helvetica,sans-Serif" font-size="10.00">/CameraBehaviorFree.cpp</text>
</a>
</g>
</g>
<!-- Node24&#45;&gt;Node30 -->
<g id="edge10" class="edge"><title>Node24&#45;&gt;Node30</title>
<path fill="none" stroke="midnightblue" d="M1612.1,-71.3109C1601.95,-69.6853 1591.43,-68.1598 1581.5,-67 1339.07,-38.6734 1275.49,-62.8441 1033.5,-31 1030.55,-30.6123 1027.55,-30.1772 1024.52,-29.7063"/>
<polygon fill="midnightblue" stroke="midnightblue" points="1611.66,-74.7853 1622.1,-72.9601 1612.8,-67.8787 1611.66,-74.7853"/>
</g>
<!-- Node31 -->
<g id="node12" class="node"><title>Node31</title>
<g id="a_node12"><a xlink:href="../../d9/dd6/_camera_behavior_orbit_8cpp.html" target="_top" xlink:title="source/main/gfx/camera\l/CameraBehaviorOrbit.cpp">
<polygon fill="white" stroke="black" points="1042.5,-0.5 1042.5,-30.5 1172.5,-30.5 1172.5,-0.5 1042.5,-0.5"/>
<text text-anchor="start" x="1050.5" y="-18.5" font-family="Helvetica,sans-Serif" font-size="10.00">source/main/gfx/camera</text>
<text text-anchor="middle" x="1107.5" y="-7.5" font-family="Helvetica,sans-Serif" font-size="10.00">/CameraBehaviorOrbit.cpp</text>
</a>
</g>
</g>
<!-- Node24&#45;&gt;Node31 -->
<g id="edge11" class="edge"><title>Node24&#45;&gt;Node31</title>
<path fill="none" stroke="midnightblue" d="M1610.73,-71.2913C1601,-69.7239 1590.97,-68.2231 1581.5,-67 1404.47,-44.1447 1358.21,-56.1953 1181.5,-31 1178.65,-30.5935 1175.74,-30.1497 1172.81,-29.6781"/>
<polygon fill="midnightblue" stroke="midnightblue" points="1610.3,-74.7665 1620.73,-72.9399 1611.44,-67.8598 1610.3,-74.7665"/>
</g>
<!-- Node32 -->
<g id="node13" class="node"><title>Node32</title>
<g id="a_node13"><a xlink:href="../../d4/d8a/_camera_behavior_static_8cpp.html" target="_top" xlink:title="source/main/gfx/camera\l/CameraBehaviorStatic.cpp">
<polygon fill="white" stroke="black" points="1190.5,-0.5 1190.5,-30.5 1324.5,-30.5 1324.5,-0.5 1190.5,-0.5"/>
<text text-anchor="start" x="1198.5" y="-18.5" font-family="Helvetica,sans-Serif" font-size="10.00">source/main/gfx/camera</text>
<text text-anchor="middle" x="1257.5" y="-7.5" font-family="Helvetica,sans-Serif" font-size="10.00">/CameraBehaviorStatic.cpp</text>
</a>
</g>
</g>
<!-- Node24&#45;&gt;Node32 -->
<g id="edge12" class="edge"><title>Node24&#45;&gt;Node32</title>
<path fill="none" stroke="midnightblue" d="M1608.03,-71.2916C1599.14,-69.8186 1590.09,-68.3468 1581.5,-67 1471.47,-49.7402 1443.34,-49.4411 1333.5,-31 1330.59,-30.5107 1327.61,-29.9984 1324.61,-29.4707"/>
<polygon fill="midnightblue" stroke="midnightblue" points="1607.52,-74.7546 1617.96,-72.9487 1608.67,-67.8501 1607.52,-74.7546"/>
</g>
<!-- Node33 -->
<g id="node14" class="node"><title>Node33</title>
<g id="a_node14"><a xlink:href="../../d2/d60/_camera_behavior_vehicle_8cpp.html" target="_top" xlink:title="source/main/gfx/camera\l/CameraBehaviorVehicle.cpp">
<polygon fill="white" stroke="black" points="1343,-0.5 1343,-30.5 1484,-30.5 1484,-0.5 1343,-0.5"/>
<text text-anchor="start" x="1351" y="-18.5" font-family="Helvetica,sans-Serif" font-size="10.00">source/main/gfx/camera</text>
<text text-anchor="middle" x="1413.5" y="-7.5" font-family="Helvetica,sans-Serif" font-size="10.00">/CameraBehaviorVehicle.cpp</text>
</a>
</g>
</g>
<!-- Node24&#45;&gt;Node33 -->
<g id="edge13" class="edge"><title>Node24&#45;&gt;Node33</title>
<path fill="none" stroke="midnightblue" d="M1624.16,-70.4081C1581.15,-59.4032 1515.1,-42.4995 1468.44,-30.5592"/>
<polygon fill="midnightblue" stroke="midnightblue" points="1623.48,-73.847 1634.03,-72.9355 1625.21,-67.0656 1623.48,-73.847"/>
</g>
<!-- Node34 -->
<g id="node15" class="node"><title>Node34</title>
<g id="a_node15"><a xlink:href="../../de/dcf/_camera_behavior_vehicle_spline_8cpp.html" target="_top" xlink:title="source/main/gfx/camera\l/CameraBehaviorVehicleSpline.cpp">
<polygon fill="white" stroke="black" points="1502.5,-0.5 1502.5,-30.5 1670.5,-30.5 1670.5,-0.5 1502.5,-0.5"/>
<text text-anchor="start" x="1510.5" y="-18.5" font-family="Helvetica,sans-Serif" font-size="10.00">source/main/gfx/camera</text>
<text text-anchor="middle" x="1586.5" y="-7.5" font-family="Helvetica,sans-Serif" font-size="10.00">/CameraBehaviorVehicleSpline.cpp</text>
</a>
</g>
</g>
<!-- Node24&#45;&gt;Node34 -->
<g id="edge14" class="edge"><title>Node24&#45;&gt;Node34</title>
<path fill="none" stroke="midnightblue" d="M1648.48,-66.2371C1635.04,-55.4518 1617.16,-41.1025 1604.06,-30.589"/>
<polygon fill="midnightblue" stroke="midnightblue" points="1646.59,-69.2048 1656.58,-72.7338 1650.97,-63.7453 1646.59,-69.2048"/>
</g>
<!-- Node35 -->
<g id="node16" class="node"><title>Node35</title>
<g id="a_node16"><a xlink:href="../../d2/d8f/_camera_manager_8cpp.html" target="_top" xlink:title="source/main/gfx/camera\l/CameraManager.cpp">
<polygon fill="white" stroke="black" points="1689,-0.5 1689,-30.5 1810,-30.5 1810,-0.5 1689,-0.5"/>
<text text-anchor="start" x="1697" y="-18.5" font-family="Helvetica,sans-Serif" font-size="10.00">source/main/gfx/camera</text>
<text text-anchor="middle" x="1749.5" y="-7.5" font-family="Helvetica,sans-Serif" font-size="10.00">/CameraManager.cpp</text>
</a>
</g>
</g>
<!-- Node24&#45;&gt;Node35 -->
<g id="edge15" class="edge"><title>Node24&#45;&gt;Node35</title>
<path fill="none" stroke="midnightblue" d="M1686.75,-66.2371C1700.36,-55.4518 1718.46,-41.1025 1731.73,-30.589"/>
<polygon fill="midnightblue" stroke="midnightblue" points="1684.22,-63.779 1678.56,-72.7338 1688.57,-69.2647 1684.22,-63.779"/>
</g>
<!-- Node36 -->
<g id="node17" class="node"><title>Node36</title>
<g id="a_node17"><a xlink:href="../../dd/d68/_g_u_i___main_selector_8cpp.html" target="_top" xlink:title="source/main/gui/panels\l/GUI_MainSelector.cpp">
<polygon fill="white" stroke="black" points="1828,-0.5 1828,-30.5 1945,-30.5 1945,-0.5 1828,-0.5"/>
<text text-anchor="start" x="1836" y="-18.5" font-family="Helvetica,sans-Serif" font-size="10.00">source/main/gui/panels</text>
<text text-anchor="middle" x="1886.5" y="-7.5" font-family="Helvetica,sans-Serif" font-size="10.00">/GUI_MainSelector.cpp</text>
</a>
</g>
</g>
<!-- Node24&#45;&gt;Node36 -->
<g id="edge17" class="edge"><title>Node24&#45;&gt;Node36</title>
<path fill="none" stroke="midnightblue" d="M1706.53,-69.9165C1743.66,-58.8951 1799.59,-42.2938 1839.24,-30.5281"/>
<polygon fill="midnightblue" stroke="midnightblue" points="1705.17,-66.6677 1696.58,-72.8685 1707.16,-73.3784 1705.17,-66.6677"/>
</g>
<!-- Node37 -->
<g id="node18" class="node"><title>Node37</title>
<g id="a_node18"><a xlink:href="../../d9/df9/_g_u_i___vehicle_description_8cpp.html" target="_top" xlink:title="source/main/gui/panels\l/GUI_VehicleDescription.cpp">
<polygon fill="white" stroke="black" points="1963,-0.5 1963,-30.5 2104,-30.5 2104,-0.5 1963,-0.5"/>
<text text-anchor="start" x="1971" y="-18.5" font-family="Helvetica,sans-Serif" font-size="10.00">source/main/gui/panels</text>
<text text-anchor="middle" x="2033.5" y="-7.5" font-family="Helvetica,sans-Serif" font-size="10.00">/GUI_VehicleDescription.cpp</text>
</a>
</g>
</g>
<!-- Node24&#45;&gt;Node37 -->
<g id="edge18" class="edge"><title>Node24&#45;&gt;Node37</title>
<path fill="none" stroke="midnightblue" d="M1726.61,-71.2293C1784.65,-61.1137 1875.7,-45.1638 1954.5,-31 1957.24,-30.5066 1960.04,-30.0018 1962.87,-29.4904"/>
<polygon fill="midnightblue" stroke="midnightblue" points="1725.78,-67.8223 1716.52,-72.9866 1726.98,-74.7185 1725.78,-67.8223"/>
</g>
<!-- Node38 -->
<g id="node19" class="node"><title>Node38</title>
<g id="a_node19"><a xlink:href="../../df/d0a/main_8cpp.html" target="_top" xlink:title="source/main/main.cpp">
<polygon fill="white" stroke="black" points="2122,-6 2122,-25 2235,-25 2235,-6 2122,-6"/>
<text text-anchor="middle" x="2178.5" y="-13" font-family="Helvetica,sans-Serif" font-size="10.00">source/main/main.cpp</text>
</a>
</g>
</g>
<!-- Node24&#45;&gt;Node38 -->
<g id="edge19" class="edge"><title>Node24&#45;&gt;Node38</title>
<path fill="none" stroke="midnightblue" d="M1728,-71.3657C1738.17,-69.8046 1748.62,-68.2864 1758.5,-67 1915.76,-46.5144 1956.95,-56.3086 2113.5,-31 2123.43,-29.3947 2134.12,-27.2058 2143.9,-25.0155"/>
<polygon fill="midnightblue" stroke="midnightblue" points="1727.31,-67.9324 1717.97,-72.9342 1728.39,-74.8485 1727.31,-67.9324"/>
</g>
<!-- Node39 -->
<g id="node20" class="node"><title>Node39</title>
<g id="a_node20"><a xlink:href="../../dc/df0/_main_menu_8cpp.html" target="_top" xlink:title="source/main/MainMenu.cpp">
<polygon fill="white" stroke="black" points="2253,-6 2253,-25 2390,-25 2390,-6 2253,-6"/>
<text text-anchor="middle" x="2321.5" y="-13" font-family="Helvetica,sans-Serif" font-size="10.00">source/main/MainMenu.cpp</text>
</a>
</g>
</g>
<!-- Node24&#45;&gt;Node39 -->
<g id="edge20" class="edge"><title>Node24&#45;&gt;Node39</title>
<path fill="none" stroke="midnightblue" d="M1726.18,-71.4082C1736.91,-69.7741 1748.02,-68.2205 1758.5,-67 1973.64,-41.9369 2029.74,-59.0853 2244.5,-31 2256.37,-29.4478 2269.18,-27.2493 2280.88,-25.0323"/>
<polygon fill="midnightblue" stroke="midnightblue" points="1725.38,-67.9902 1716.04,-72.9914 1726.46,-74.9064 1725.38,-67.9902"/>
</g>
<!-- Node40 -->
<g id="node21" class="node"><title>Node40</title>
<g id="a_node21"><a xlink:href="../../d2/d74/_beam_8cpp.html" target="_top" xlink:title="source/main/physics\l/Beam.cpp">
<polygon fill="white" stroke="black" points="2408,-0.5 2408,-30.5 2515,-30.5 2515,-0.5 2408,-0.5"/>
<text text-anchor="start" x="2416" y="-18.5" font-family="Helvetica,sans-Serif" font-size="10.00">source/main/physics</text>
<text text-anchor="middle" x="2461.5" y="-7.5" font-family="Helvetica,sans-Serif" font-size="10.00">/Beam.cpp</text>
</a>
</g>
</g>
<!-- Node24&#45;&gt;Node40 -->
<g id="edge21" class="edge"><title>Node24&#45;&gt;Node40</title>
<path fill="none" stroke="midnightblue" d="M1725.08,-71.4168C1736.15,-69.7369 1747.66,-68.1648 1758.5,-67 2042.2,-36.5107 2117.07,-71.6425 2399.5,-31 2402.24,-30.6064 2405.03,-30.1513 2407.84,-29.6506"/>
<polygon fill="midnightblue" stroke="midnightblue" points="1724.42,-67.9779 1715.08,-72.9814 1725.5,-74.8938 1724.42,-67.9779"/>
</g>
<!-- Node41 -->
<g id="node22" class="node"><title>Node41</title>
<g id="a_node22"><a xlink:href="../../d0/d6f/_beam_forces_euler_8cpp.html" target="_top" xlink:title="source/main/physics\l/BeamForcesEuler.cpp">
<polygon fill="white" stroke="black" points="2533.5,-0.5 2533.5,-30.5 2649.5,-30.5 2649.5,-0.5 2533.5,-0.5"/>
<text text-anchor="start" x="2541.5" y="-18.5" font-family="Helvetica,sans-Serif" font-size="10.00">source/main/physics</text>
<text text-anchor="middle" x="2591.5" y="-7.5" font-family="Helvetica,sans-Serif" font-size="10.00">/BeamForcesEuler.cpp</text>
</a>
</g>
</g>
<!-- Node24&#45;&gt;Node41 -->
<g id="edge22" class="edge"><title>Node24&#45;&gt;Node41</title>
<path fill="none" stroke="midnightblue" d="M1724.7,-71.3932C1735.88,-69.699 1747.53,-68.1278 1758.5,-67 2097.53,-32.1313 2186.56,-75.1978 2524.5,-31 2527.45,-30.6142 2530.46,-30.1654 2533.5,-29.6697"/>
<polygon fill="midnightblue" stroke="midnightblue" points="1723.94,-67.9697 1714.6,-72.9745 1725.02,-74.8854 1723.94,-67.9697"/>
</g>
<!-- Node42 -->
<g id="node23" class="node"><title>Node42</title>
<g id="a_node23"><a xlink:href="../../df/df5/_rig_spawner_8cpp.html" target="_top" xlink:title="Vehicle spawning logic. ">
<polygon fill="white" stroke="black" points="2668,-0.5 2668,-30.5 2775,-30.5 2775,-0.5 2668,-0.5"/>
<text text-anchor="start" x="2676" y="-18.5" font-family="Helvetica,sans-Serif" font-size="10.00">source/main/physics</text>
<text text-anchor="middle" x="2721.5" y="-7.5" font-family="Helvetica,sans-Serif" font-size="10.00">/RigSpawner.cpp</text>
</a>
</g>
</g>
<!-- Node24&#45;&gt;Node42 -->
<g id="edge23" class="edge"><title>Node24&#45;&gt;Node42</title>
<path fill="none" stroke="midnightblue" d="M1724.32,-71.3882C1735.61,-69.6776 1747.41,-68.1016 1758.5,-67 2156.86,-27.4348 2261.72,-84.125 2658.5,-31 2661.5,-30.5979 2664.57,-30.1192 2667.66,-29.5848"/>
<polygon fill="midnightblue" stroke="midnightblue" points="1723.46,-67.98 1714.12,-72.9872 1724.55,-74.8955 1723.46,-67.98"/>
</g>
<!-- Node43 -->
<g id="node24" class="node"><title>Node43</title>
<g id="a_node24"><a xlink:href="../../d7/d5a/_survey_map_manager_8cpp.html" target="_top" xlink:title="source/main/terrain\l/map/SurveyMapManager.cpp">
<polygon fill="white" stroke="black" points="2793.5,-0.5 2793.5,-30.5 2939.5,-30.5 2939.5,-0.5 2793.5,-0.5"/>
<text text-anchor="start" x="2801.5" y="-18.5" font-family="Helvetica,sans-Serif" font-size="10.00">source/main/terrain</text>
<text text-anchor="middle" x="2866.5" y="-7.5" font-family="Helvetica,sans-Serif" font-size="10.00">/map/SurveyMapManager.cpp</text>
</a>
</g>
</g>
<!-- Node24&#45;&gt;Node43 -->
<g id="edge24" class="edge"><title>Node24&#45;&gt;Node43</title>
<path fill="none" stroke="midnightblue" d="M1724.32,-71.3449C1735.61,-69.638 1747.41,-68.0744 1758.5,-67 2212.66,-23.0178 2330.73,-78.8427 2784.5,-31 2787.38,-30.6968 2790.3,-30.3525 2793.25,-29.9754"/>
<polygon fill="midnightblue" stroke="midnightblue" points="1723.46,-67.9367 1714.12,-72.9429 1724.54,-74.8523 1723.46,-67.9367"/>
</g>
<!-- Node44 -->
<g id="node25" class="node"><title>Node44</title>
<g id="a_node25"><a xlink:href="../../d8/d6c/_force_feedback_8cpp.html" target="_top" xlink:title="source/main/utils/ForceFeedback.cpp">
<polygon fill="white" stroke="black" points="2957.5,-6 2957.5,-25 3137.5,-25 3137.5,-6 2957.5,-6"/>
<text text-anchor="middle" x="3047.5" y="-13" font-family="Helvetica,sans-Serif" font-size="10.00">source/main/utils/ForceFeedback.cpp</text>
</a>
</g>
</g>
<!-- Node24&#45;&gt;Node44 -->
<g id="edge25" class="edge"><title>Node24&#45;&gt;Node44</title>
<path fill="none" stroke="midnightblue" d="M1723.59,-71.4114C1735.1,-69.6653 1747.17,-68.0699 1758.5,-67 2285.29,-17.2677 2421.41,-77.4174 2948.5,-31 2964.42,-29.5981 2981.68,-27.3311 2997.27,-25.0019"/>
<polygon fill="midnightblue" stroke="midnightblue" points="1722.98,-67.9639 1713.65,-72.9752 1724.07,-74.8789 1722.98,-67.9639"/>
</g>
<!-- Node24&#45;&gt;Node45 -->
<g id="edge26" class="edge"><title>Node24&#45;&gt;Node45</title>
<path fill="none" stroke="midnightblue" d="M1723.59,-71.3732C1735.1,-69.63 1747.16,-68.0455 1758.5,-67 2372.99,-10.3247 2532.01,-87.6753 3146.5,-31 3161.16,-29.6483 3177.03,-27.3954 3191.36,-25.0637"/>
<polygon fill="midnightblue" stroke="midnightblue" points="1722.98,-67.9256 1713.64,-72.9363 1724.07,-74.8407 1722.98,-67.9256"/>
</g>
</g>
</svg>
