<?xml version="1.0" encoding="UTF-8" standalone="no"?>
<!DOCTYPE svg PUBLIC "-//W3C//DTD SVG 1.1//EN"
 "http://www.w3.org/Graphics/SVG/1.1/DTD/svg11.dtd">
<!-- Generated by graphviz version 2.38.0 (20140413.2041)
 -->
<!-- Title: OgreScriptBuilder::LoadScriptSection Pages: 1 -->
<svg width="601pt" height="142pt"
 viewBox="0.00 0.00 601.00 142.00" xmlns="http://www.w3.org/2000/svg" xmlns:xlink="http://www.w3.org/1999/xlink">
<g id="graph0" class="graph" transform="scale(1 1) rotate(0) translate(4 138)">
<title>OgreScriptBuilder::LoadScriptSection</title>
<polygon fill="white" stroke="none" points="-4,4 -4,-138 597,-138 597,4 -4,4"/>
<!-- Node3 -->
<g id="node1" class="node"><title>Node3</title>
<polygon fill="#bfbfbf" stroke="black" points="0,-52 0,-82 99,-82 99,-52 0,-52"/>
<text text-anchor="start" x="8" y="-70" font-family="Helvetica,sans-Serif" font-size="10.00">OgreScriptBuilder::</text>
<text text-anchor="middle" x="49.5" y="-59" font-family="Helvetica,sans-Serif" font-size="10.00">LoadScriptSection</text>
</g>
<!-- Node4 -->
<g id="node2" class="node"><title>Node4</title>
<g id="a_node2"><a xlink:href="../../d9/da3/_application_8h.html#ac91efe9de379ef0fde6e0c6f369dfb35" target="_top" xlink:title="Legacy alias &#45; formerly a macro. ">
<polygon fill="white" stroke="black" points="182,-114.5 182,-133.5 219,-133.5 219,-114.5 182,-114.5"/>
<text text-anchor="middle" x="200.5" y="-121.5" font-family="Helvetica,sans-Serif" font-size="10.00">LOG</text>
</a>
</g>
</g>
<!-- Node3&#45;&gt;Node4 -->
<g id="edge1" class="edge"><title>Node3&#45;&gt;Node4</title>
<path fill="none" stroke="midnightblue" d="M88.7283,-82.0796C103.203,-87.75 119.843,-94.2208 135,-100 147.261,-104.675 160.873,-109.756 172.421,-114.034"/>
<polygon fill="midnightblue" stroke="midnightblue" points="171.358,-117.373 181.951,-117.557 173.785,-110.807 171.358,-117.373"/>
</g>
<!-- Node6 -->
<g id="node4" class="node"><title>Node6</title>
<g id="a_node4"><a xlink:href="../../d8/d27/class_ro_r_1_1_c_s_h_a1.html#a405de4baf54dcb38af5903e01221454e" target="_top" xlink:title="RoR::CSHA1::UpdateHash">
<polygon fill="white" stroke="black" points="302,-76.5 302,-95.5 435,-95.5 435,-76.5 302,-76.5"/>
<text text-anchor="middle" x="368.5" y="-83.5" font-family="Helvetica,sans-Serif" font-size="10.00">RoR::CSHA1::UpdateHash</text>
</a>
</g>
</g>
<!-- Node3&#45;&gt;Node6 -->
<g id="edge3" class="edge"><title>Node3&#45;&gt;Node6</title>
<path fill="none" stroke="midnightblue" d="M99.3365,-69.9271C150.642,-73.0022 232.014,-77.8794 291.679,-81.4555"/>
<polygon fill="midnightblue" stroke="midnightblue" points="291.615,-84.9579 301.806,-82.0625 292.033,-77.9704 291.615,-84.9579"/>
</g>
<!-- Node8 -->
<g id="node6" class="node"><title>Node8</title>
<g id="a_node6"><a xlink:href="../../d8/d27/class_ro_r_1_1_c_s_h_a1.html#afbdaab3f2a2946d26a6144af3fec5fd8" target="_top" xlink:title="RoR::CSHA1::Final">
<polygon fill="white" stroke="black" points="150,-38.5 150,-57.5 251,-57.5 251,-38.5 150,-38.5"/>
<text text-anchor="middle" x="200.5" y="-45.5" font-family="Helvetica,sans-Serif" font-size="10.00">RoR::CSHA1::Final</text>
</a>
</g>
</g>
<!-- Node3&#45;&gt;Node8 -->
<g id="edge5" class="edge"><title>Node3&#45;&gt;Node8</title>
<path fill="none" stroke="midnightblue" d="M99.2882,-60.7787C112.206,-59.1314 126.299,-57.3343 139.728,-55.6219"/>
<polygon fill="midnightblue" stroke="midnightblue" points="140.36,-59.0698 149.837,-54.3329 139.474,-52.126 140.36,-59.0698"/>
</g>
<!-- Node9 -->
<g id="node7" class="node"><title>Node9</title>
<g id="a_node7"><a xlink:href="../../d8/d27/class_ro_r_1_1_c_s_h_a1.html#a22ddf4fbd88ea7a76638104a56bb7c30" target="_top" xlink:title="RoR::CSHA1::ReportHash">
<polygon fill="white" stroke="black" points="135,-0.5 135,-19.5 266,-19.5 266,-0.5 135,-0.5"/>
<text text-anchor="middle" x="200.5" y="-7.5" font-family="Helvetica,sans-Serif" font-size="10.00">RoR::CSHA1::ReportHash</text>
</a>
</g>
</g>
<!-- Node3&#45;&gt;Node9 -->
<g id="edge8" class="edge"><title>Node3&#45;&gt;Node9</title>
<path fill="none" stroke="midnightblue" d="M81.3793,-51.8946C97.1999,-44.4694 116.898,-35.701 135,-29 141.035,-26.766 147.461,-24.6131 153.831,-22.61"/>
<polygon fill="midnightblue" stroke="midnightblue" points="155.183,-25.857 163.73,-19.5954 153.144,-19.1607 155.183,-25.857"/>
</g>
<!-- Node5 -->
<g id="node3" class="node"><title>Node5</title>
<g id="a_node3"><a xlink:href="../../dd/dd2/namespace_ro_r.html#a15fdb48aba128c41a9c75357c2282694" target="_top" xlink:title="The ultimate, application&#45;wide logging function. Adds a line (any length) in &#39;RoR.log&#39; file. ">
<polygon fill="white" stroke="black" points="340,-114.5 340,-133.5 397,-133.5 397,-114.5 340,-114.5"/>
<text text-anchor="middle" x="368.5" y="-121.5" font-family="Helvetica,sans-Serif" font-size="10.00">RoR::Log</text>
</a>
</g>
</g>
<!-- Node4&#45;&gt;Node5 -->
<g id="edge2" class="edge"><title>Node4&#45;&gt;Node5</title>
<path fill="none" stroke="midnightblue" d="M219.265,-124C245.491,-124 295.192,-124 329.778,-124"/>
<polygon fill="midnightblue" stroke="midnightblue" points="329.984,-127.5 339.984,-124 329.984,-120.5 329.984,-127.5"/>
</g>
<!-- Node7 -->
<g id="node5" class="node"><title>Node7</title>
<g id="a_node5"><a xlink:href="../../d8/d27/class_ro_r_1_1_c_s_h_a1.html#a6f39460fa47c489724d2325cf071520b" target="_top" xlink:title="RoR::CSHA1::Transform">
<polygon fill="white" stroke="black" points="471,-57.5 471,-76.5 593,-76.5 593,-57.5 471,-57.5"/>
<text text-anchor="middle" x="532" y="-64.5" font-family="Helvetica,sans-Serif" font-size="10.00">RoR::CSHA1::Transform</text>
</a>
</g>
</g>
<!-- Node6&#45;&gt;Node7 -->
<g id="edge4" class="edge"><title>Node6&#45;&gt;Node7</title>
<path fill="none" stroke="midnightblue" d="M435.188,-78.272C443.57,-77.2859 452.176,-76.2735 460.627,-75.2791"/>
<polygon fill="midnightblue" stroke="midnightblue" points="461.312,-78.7228 470.835,-74.0783 460.494,-71.7707 461.312,-78.7228"/>
</g>
<!-- Node8&#45;&gt;Node6 -->
<g id="edge6" class="edge"><title>Node8&#45;&gt;Node6</title>
<path fill="none" stroke="midnightblue" d="M243.389,-57.589C265.393,-62.6261 292.555,-68.8438 315.852,-74.1771"/>
<polygon fill="midnightblue" stroke="midnightblue" points="315.384,-77.6602 325.912,-76.4799 316.946,-70.8367 315.384,-77.6602"/>
</g>
<!-- Node8&#45;&gt;Node7 -->
<g id="edge7" class="edge"><title>Node8&#45;&gt;Node7</title>
<path fill="none" stroke="midnightblue" d="M251.186,-50.8651C306.875,-54.0763 397.597,-59.3076 460.58,-62.9394"/>
<polygon fill="midnightblue" stroke="midnightblue" points="460.645,-66.4489 470.83,-63.5304 461.048,-59.4605 460.645,-66.4489"/>
</g>
</g>
</svg>
