<?xml version="1.0" encoding="UTF-8" standalone="no"?>
<!DOCTYPE svg PUBLIC "-//W3C//DTD SVG 1.1//EN"
 "http://www.w3.org/Graphics/SVG/1.1/DTD/svg11.dtd">
<!-- Generated by graphviz version 2.38.0 (20140413.2041)
 -->
<!-- Title: MyDialog::SetDefaults Pages: 1 -->
<!--zoomable 100 -->
<svg id="main" version="1.1" xmlns="http://www.w3.org/2000/svg" xmlns:xlink="http://www.w3.org/1999/xlink" xml:space="preserve" onload="init(evt)">
<style type="text/css"><![CDATA[
.edge:hover path { stroke: red; }
.edge:hover polygon { stroke: red; fill: red; }
]]></style>
<script type="text/javascript"><![CDATA[
var edges = document.getElementsByTagName('g');
if (edges && edges.length) {
  for (var i=0;i<edges.length;i++) {
    if (edges[i].id.substr(0,4)=='edge') {
      edges[i].setAttribute('class','edge');
    }
  }
}
]]></script>
        <defs>
                <circle id="rim" cx="0" cy="0" r="7"/>
                <circle id="rim2" cx="0" cy="0" r="3.5"/>
                <g id="zoomPlus">
                        <use xlink:href="#rim" fill="#404040">
                                <set attributeName="fill" to="#808080" begin="zoomplus.mouseover" end="zoomplus.mouseout"/>
                        </use>
                        <path d="M-4,0h8M0,-4v8" fill="none" stroke="white" stroke-width="1.5" pointer-events="none"/>
                </g>
                <g id="zoomMin">
                        <use xlink:href="#rim" fill="#404040">
                                <set attributeName="fill" to="#808080" begin="zoomminus.mouseover" end="zoomminus.mouseout"/>
                        </use>
                        <path d="M-4,0h8" fill="none" stroke="white" stroke-width="1.5" pointer-events="none"/>
                </g>
                <g id="dirArrow">
                        <path fill="none" stroke="white" stroke-width="1.5" d="M0,-3.0v7 M-2.5,-0.5L0,-3.0L2.5,-0.5"/>
                </g>
               <g id="resetDef">
                       <use xlink:href="#rim2" fill="#404040">
                               <set attributeName="fill" to="#808080" begin="reset.mouseover" end="reset.mouseout"/>
                       </use>
               </g>
        </defs>

<script type="text/javascript">
var viewWidth = 679;
var viewHeight = 100;
var sectionId = 'dynsection-32';
</script>
<script xlink:href="../../svgpan.js"/>
<svg id="graph" class="graph">
<g id="viewport">
<title>MyDialog::SetDefaults</title>
<polygon fill="white" stroke="none" points="-4,4 -4,-95.5 675,-95.5 675,4 -4,4"/>
<!-- Node178 -->
<g id="node1" class="node"><title>Node178</title>
<polygon fill="#bfbfbf" stroke="black" points="0,-47 0,-66 113,-66 113,-47 0,-47"/>
<text text-anchor="middle" x="56.5" y="-54" font-family="Helvetica,sans-Serif" font-size="10.00">MyDialog::SetDefaults</text>
</g>
<!-- Node179 -->
<g id="node2" class="node"><title>Node179</title>
<g id="a_node2"><a xlink:href="../../db/dcf/class_my_dialog.html#a06f8e4181518a6c11e84c55e6f59eed8" target="_top" xlink:title="MyDialog::OnScrollForceFeedback">
<polygon fill="white" stroke="black" points="149,-66 149,-85 317,-85 317,-66 149,-66"/>
<text text-anchor="middle" x="233" y="-73" font-family="Helvetica,sans-Serif" font-size="10.00">MyDialog::OnScrollForceFeedback</text>
</a>
</g>
</g>
<!-- Node178&#45;&gt;Node179 -->
<g id="edge1" class="edge"><title>Node178&#45;&gt;Node179</title>
<path fill="none" stroke="midnightblue" d="M113.193,-62.564C121.365,-63.4538 129.965,-64.3902 138.646,-65.3353"/>
<polygon fill="midnightblue" stroke="midnightblue" points="138.532,-68.8436 148.852,-66.4467 139.29,-61.8847 138.532,-68.8436"/>
</g>
<!-- Node180 -->
<g id="node3" class="node"><title>Node180</title>
<g id="a_node3"><a xlink:href="../../db/dcf/class_my_dialog.html#a9dda5ceed397209fea3b86bf17b183d1" target="_top" xlink:title="MyDialog::getSettingsControls">
<polygon fill="white" stroke="black" points="158.5,-28 158.5,-47 307.5,-47 307.5,-28 158.5,-28"/>
<text text-anchor="middle" x="233" y="-35" font-family="Helvetica,sans-Serif" font-size="10.00">MyDialog::getSettingsControls</text>
</a>
</g>
</g>
<!-- Node178&#45;&gt;Node180 -->
<g id="edge2" class="edge"><title>Node178&#45;&gt;Node180</title>
<path fill="none" stroke="midnightblue" d="M113.193,-50.436C124.414,-49.2143 136.44,-47.9048 148.375,-46.6053"/>
<polygon fill="midnightblue" stroke="midnightblue" points="148.797,-50.0801 158.36,-45.5181 148.04,-43.1212 148.797,-50.0801"/>
</g>
<!-- Node181 -->
<g id="node4" class="node"><title>Node181</title>
<g id="a_node4"><a xlink:href="../../df/dd4/wxutils_8h.html#acea10d469893caac689206a073cc165e" target="_top" xlink:title="conv">
<polygon fill="white" stroke="black" points="405.5,-72 405.5,-91 441.5,-91 441.5,-72 405.5,-72"/>
<text text-anchor="middle" x="423.5" y="-79" font-family="Helvetica,sans-Serif" font-size="10.00">conv</text>
</a>
</g>
</g>
<!-- Node180&#45;&gt;Node181 -->
<g id="edge3" class="edge"><title>Node180&#45;&gt;Node181</title>
<path fill="none" stroke="midnightblue" d="M275.813,-47.0061C288.996,-50.0208 303.611,-53.3811 317,-56.5 343.661,-62.7103 374.077,-69.9327 395.379,-75.013"/>
<polygon fill="midnightblue" stroke="midnightblue" points="394.793,-78.4715 405.332,-77.3893 396.419,-71.6628 394.793,-78.4715"/>
</g>
<!-- Node182 -->
<g id="node5" class="node"><title>Node182</title>
<g id="a_node5"><a xlink:href="../../d9/df4/classwx_value_choice.html#a929749fefe92945893e8fc62107c770f" target="_top" xlink:title="wxValueChoice::getSelected\lValueAsSTDString">
<polygon fill="white" stroke="black" points="353,-22.5 353,-52.5 494,-52.5 494,-22.5 353,-22.5"/>
<text text-anchor="start" x="361" y="-40.5" font-family="Helvetica,sans-Serif" font-size="10.00">wxValueChoice::getSelected</text>
<text text-anchor="middle" x="423.5" y="-29.5" font-family="Helvetica,sans-Serif" font-size="10.00">ValueAsSTDString</text>
</a>
</g>
</g>
<!-- Node180&#45;&gt;Node182 -->
<g id="edge4" class="edge"><title>Node180&#45;&gt;Node182</title>
<path fill="none" stroke="midnightblue" d="M307.689,-37.5C319.189,-37.5 331.119,-37.5 342.747,-37.5"/>
<polygon fill="midnightblue" stroke="midnightblue" points="342.87,-41.0001 352.87,-37.5 342.87,-34.0001 342.87,-41.0001"/>
</g>
<!-- Node183 -->
<g id="node6" class="node"><title>Node183</title>
<g id="a_node6"><a xlink:href="../../d9/df4/classwx_value_choice.html#a9193f92274299f15adefdb340ad58abe" target="_top" xlink:title="wxValueChoice::getSelected\lValue">
<polygon fill="white" stroke="black" points="530,-0.5 530,-30.5 671,-30.5 671,-0.5 530,-0.5"/>
<text text-anchor="start" x="538" y="-18.5" font-family="Helvetica,sans-Serif" font-size="10.00">wxValueChoice::getSelected</text>
<text text-anchor="middle" x="600.5" y="-7.5" font-family="Helvetica,sans-Serif" font-size="10.00">Value</text>
</a>
</g>
</g>
<!-- Node180&#45;&gt;Node183 -->
<g id="edge6" class="edge"><title>Node180&#45;&gt;Node183</title>
<path fill="none" stroke="midnightblue" d="M271.493,-27.9456C294.777,-22.5105 325.423,-16.2532 353,-13.5 415.357,-7.27461 431.336,-12.9061 494,-13.5 502.361,-13.5792 511.093,-13.6938 519.8,-13.8286"/>
<polygon fill="midnightblue" stroke="midnightblue" points="519.929,-17.331 529.985,-13.9951 520.043,-10.332 519.929,-17.331"/>
</g>
<!-- Node182&#45;&gt;Node183 -->
<g id="edge5" class="edge"><title>Node182&#45;&gt;Node183</title>
<path fill="none" stroke="midnightblue" d="M494.167,-28.7418C502.594,-27.6825 511.251,-26.5942 519.808,-25.5185"/>
<polygon fill="midnightblue" stroke="midnightblue" points="520.301,-28.9841 529.786,-24.264 519.428,-22.0387 520.301,-28.9841"/>
</g>
</g>
</svg>
        <g id="navigator" transform="translate(0 0)" fill="#404254">
                <rect fill="#f2f5e9" fill-opacity="0.5" stroke="#606060" stroke-width=".5" x="0" y="0" width="60" height="60"/>
                <use id="zoomplus" xlink:href="#zoomPlus" x="17" y="9" onmousedown="handleZoom(evt,'in')"/>
                <use id="zoomminus" xlink:href="#zoomMin" x="42" y="9" onmousedown="handleZoom(evt,'out')"/>
                <use id="reset" xlink:href="#resetDef" x="30" y="36" onmousedown="handleReset()"/>
                <g id="arrowUp" xlink:href="#dirArrow" transform="translate(30 24)" onmousedown="handlePan(0,-1)">
                  <use xlink:href="#rim" fill="#404040">
                        <set attributeName="fill" to="#808080" begin="arrowUp.mouseover" end="arrowUp.mouseout"/>
                  </use>
                  <path fill="none" stroke="white" stroke-width="1.5" d="M0,-3.0v7 M-2.5,-0.5L0,-3.0L2.5,-0.5"/>
                </g>
                <g id="arrowRight" xlink:href="#dirArrow" transform="rotate(90) translate(36 -43)" onmousedown="handlePan(1,0)">
                  <use xlink:href="#rim" fill="#404040">
                        <set attributeName="fill" to="#808080" begin="arrowRight.mouseover" end="arrowRight.mouseout"/>
                  </use>
                  <path fill="none" stroke="white" stroke-width="1.5" d="M0,-3.0v7 M-2.5,-0.5L0,-3.0L2.5,-0.5"/>
                </g>
                <g id="arrowDown" xlink:href="#dirArrow" transform="rotate(180) translate(-30 -48)" onmousedown="handlePan(0,1)">
                  <use xlink:href="#rim" fill="#404040">
                        <set attributeName="fill" to="#808080" begin="arrowDown.mouseover" end="arrowDown.mouseout"/>
                  </use>
                  <path fill="none" stroke="white" stroke-width="1.5" d="M0,-3.0v7 M-2.5,-0.5L0,-3.0L2.5,-0.5"/>
                </g>
                <g id="arrowLeft" xlink:href="#dirArrow" transform="rotate(270) translate(-36 17)" onmousedown="handlePan(-1,0)">
                  <use xlink:href="#rim" fill="#404040">
                        <set attributeName="fill" to="#808080" begin="arrowLeft.mouseover" end="arrowLeft.mouseout"/>
                  </use>
                  <path fill="none" stroke="white" stroke-width="1.5" d="M0,-3.0v7 M-2.5,-0.5L0,-3.0L2.5,-0.5"/>
                </g>
        </g>
        <svg viewBox="0 0 15 15" width="100%" height="30px" preserveAspectRatio="xMaxYMin meet">
         <g id="arrow_out" transform="scale(0.3 0.3)">
          <a xlink:href="class_my_dialog_a30829bbf050a53f6d5c0e1d6abcd29e8_cgraph_org.svg" target="_base">
           <rect id="button" ry="5" rx="5" y="6" x="6" height="38" width="38"
                fill="#f2f5e9" fill-opacity="0.5" stroke="#606060" stroke-width="1.0"/>
           <path id="arrow"
             d="M 11.500037,31.436501 C 11.940474,20.09759 22.043105,11.32322 32.158766,21.979434 L 37.068811,17.246167 C 37.068811,17.246167 37.088388,32 37.088388,32 L 22.160133,31.978069 C 22.160133,31.978069 26.997745,27.140456 26.997745,27.140456 C 18.528582,18.264221 13.291696,25.230495 11.500037,31.436501 z"
             style="fill:#404040;"/>
          </a>
         </g>
        </svg>
</svg>
