<?xml version="1.0" encoding="UTF-8" standalone="no"?>
<!DOCTYPE svg PUBLIC "-//W3C//DTD SVG 1.1//EN"
 "http://www.w3.org/Graphics/SVG/1.1/DTD/svg11.dtd">
<!-- Generated by graphviz version 2.38.0 (20140413.2041)
 -->
<!-- Title: MyDialog::OnChoiceRenderer Pages: 1 -->
<svg width="552pt" height="116pt"
 viewBox="0.00 0.00 552.00 115.50" xmlns="http://www.w3.org/2000/svg" xmlns:xlink="http://www.w3.org/1999/xlink">
<g id="graph0" class="graph" transform="scale(1 1) rotate(0) translate(4 111.5)">
<title>MyDialog::OnChoiceRenderer</title>
<polygon fill="white" stroke="none" points="-4,4 -4,-111.5 548,-111.5 548,4 -4,4"/>
<!-- Node120 -->
<g id="node1" class="node"><title>Node120</title>
<polygon fill="#bfbfbf" stroke="black" points="0,-60.5 0,-79.5 145,-79.5 145,-60.5 0,-60.5"/>
<text text-anchor="middle" x="72.5" y="-67.5" font-family="Helvetica,sans-Serif" font-size="10.00">MyDialog::OnChoiceRenderer</text>
</g>
<!-- Node121 -->
<g id="node2" class="node"><title>Node121</title>
<g id="a_node2"><a xlink:href="../../d9/df4/classwx_value_choice.html#a929749fefe92945893e8fc62107c770f" target="_top" xlink:title="wxValueChoice::getSelected\lValueAsSTDString">
<polygon fill="white" stroke="black" points="191,-77 191,-107 332,-107 332,-77 191,-77"/>
<text text-anchor="start" x="199" y="-95" font-family="Helvetica,sans-Serif" font-size="10.00">wxValueChoice::getSelected</text>
<text text-anchor="middle" x="261.5" y="-84" font-family="Helvetica,sans-Serif" font-size="10.00">ValueAsSTDString</text>
</a>
</g>
</g>
<!-- Node120&#45;&gt;Node121 -->
<g id="edge1" class="edge"><title>Node120&#45;&gt;Node121</title>
<path fill="none" stroke="midnightblue" d="M145.264,-78.4429C156.815,-79.8018 168.835,-81.2159 180.564,-82.5957"/>
<polygon fill="midnightblue" stroke="midnightblue" points="180.436,-86.1048 190.777,-83.7973 181.254,-79.1527 180.436,-86.1048"/>
</g>
<!-- Node123 -->
<g id="node4" class="node"><title>Node123</title>
<g id="a_node4"><a xlink:href="../../db/dcf/class_my_dialog.html#a2db16bbab43a0aaf98ac4cf0787814be" target="_top" xlink:title="MyDialog::updateRendersystems">
<polygon fill="white" stroke="black" points="181,-38.5 181,-57.5 342,-57.5 342,-38.5 181,-38.5"/>
<text text-anchor="middle" x="261.5" y="-45.5" font-family="Helvetica,sans-Serif" font-size="10.00">MyDialog::updateRendersystems</text>
</a>
</g>
</g>
<!-- Node120&#45;&gt;Node123 -->
<g id="edge3" class="edge"><title>Node120&#45;&gt;Node123</title>
<path fill="none" stroke="midnightblue" d="M145.264,-61.5571C153.63,-60.573 162.241,-59.5599 170.809,-58.5519"/>
<polygon fill="midnightblue" stroke="midnightblue" points="171.308,-62.0174 180.831,-57.3728 170.49,-55.0653 171.308,-62.0174"/>
</g>
<!-- Node122 -->
<g id="node3" class="node"><title>Node122</title>
<g id="a_node3"><a xlink:href="../../d9/df4/classwx_value_choice.html#a9193f92274299f15adefdb340ad58abe" target="_top" xlink:title="wxValueChoice::getSelected\lValue">
<polygon fill="white" stroke="black" points="390.5,-77 390.5,-107 531.5,-107 531.5,-77 390.5,-77"/>
<text text-anchor="start" x="398.5" y="-95" font-family="Helvetica,sans-Serif" font-size="10.00">wxValueChoice::getSelected</text>
<text text-anchor="middle" x="461" y="-84" font-family="Helvetica,sans-Serif" font-size="10.00">Value</text>
</a>
</g>
</g>
<!-- Node121&#45;&gt;Node122 -->
<g id="edge2" class="edge"><title>Node121&#45;&gt;Node122</title>
<path fill="none" stroke="midnightblue" d="M332.131,-92C347.618,-92 364.155,-92 380.021,-92"/>
<polygon fill="midnightblue" stroke="midnightblue" points="380.332,-95.5001 390.332,-92 380.332,-88.5001 380.332,-95.5001"/>
</g>
<!-- Node124 -->
<g id="node5" class="node"><title>Node124</title>
<g id="a_node5"><a xlink:href="../../d9/df4/classwx_value_choice.html#a11c538b33449b38e2b78d0356a178dab" target="_top" xlink:title="wxValueChoice::AppendValueItem">
<polygon fill="white" stroke="black" points="378,-38.5 378,-57.5 544,-57.5 544,-38.5 378,-38.5"/>
<text text-anchor="middle" x="461" y="-45.5" font-family="Helvetica,sans-Serif" font-size="10.00">wxValueChoice::AppendValueItem</text>
</a>
</g>
</g>
<!-- Node123&#45;&gt;Node124 -->
<g id="edge4" class="edge"><title>Node123&#45;&gt;Node124</title>
<path fill="none" stroke="midnightblue" d="M342.262,-48C350.558,-48 359.04,-48 367.461,-48"/>
<polygon fill="midnightblue" stroke="midnightblue" points="367.687,-51.5001 377.687,-48 367.687,-44.5001 367.687,-51.5001"/>
</g>
<!-- Node125 -->
<g id="node6" class="node"><title>Node125</title>
<g id="a_node6"><a xlink:href="../../df/dd4/wxutils_8h.html#acea10d469893caac689206a073cc165e" target="_top" xlink:title="conv">
<polygon fill="white" stroke="black" points="443,-0.5 443,-19.5 479,-19.5 479,-0.5 443,-0.5"/>
<text text-anchor="middle" x="461" y="-7.5" font-family="Helvetica,sans-Serif" font-size="10.00">conv</text>
</a>
</g>
</g>
<!-- Node123&#45;&gt;Node125 -->
<g id="edge5" class="edge"><title>Node123&#45;&gt;Node125</title>
<path fill="none" stroke="midnightblue" d="M312.083,-38.46C350.31,-31.1049 401.736,-21.2103 432.79,-15.2354"/>
<polygon fill="midnightblue" stroke="midnightblue" points="433.71,-18.6225 442.869,-13.2961 432.388,-11.7486 433.71,-18.6225"/>
</g>
</g>
</svg>
