<?xml version="1.0" encoding="UTF-8" standalone="no"?>
<!DOCTYPE svg PUBLIC "-//W3C//DTD SVG 1.1//EN"
 "http://www.w3.org/Graphics/SVG/1.1/DTD/svg11.dtd">
<!-- Generated by graphviz version 2.38.0 (20140413.2041)
 -->
<!-- Title: MyDialog::OnScrollSightRange Pages: 1 -->
<svg width="757pt" height="39pt"
 viewBox="0.00 0.00 757.00 39.00" xmlns="http://www.w3.org/2000/svg" xmlns:xlink="http://www.w3.org/1999/xlink">
<g id="graph0" class="graph" transform="scale(1 1) rotate(0) translate(4 35)">
<title>MyDialog::OnScrollSightRange</title>
<polygon fill="white" stroke="none" points="-4,4 -4,-35 753,-35 753,4 -4,4"/>
<!-- Node148 -->
<g id="node1" class="node"><title>Node148</title>
<polygon fill="#bfbfbf" stroke="black" points="0,-6 0,-25 151,-25 151,-6 0,-6"/>
<text text-anchor="middle" x="75.5" y="-13" font-family="Helvetica,sans-Serif" font-size="10.00">MyDialog::OnScrollSightRange</text>
</g>
<!-- Node149 -->
<g id="node2" class="node"><title>Node149</title>
<g id="a_node2"><a xlink:href="../../db/dcf/class_my_dialog.html#a008219b2fc5f082cc4fbbb46f87ac74f" target="_top" xlink:title="MyDialog::updateSettings\lControls">
<polygon fill="white" stroke="black" points="187,-0.5 187,-30.5 315,-30.5 315,-0.5 187,-0.5"/>
<text text-anchor="start" x="195" y="-18.5" font-family="Helvetica,sans-Serif" font-size="10.00">MyDialog::updateSettings</text>
<text text-anchor="middle" x="251" y="-7.5" font-family="Helvetica,sans-Serif" font-size="10.00">Controls</text>
</a>
</g>
</g>
<!-- Node148&#45;&gt;Node149 -->
<g id="edge1" class="edge"><title>Node148&#45;&gt;Node149</title>
<path fill="none" stroke="midnightblue" d="M161.214,-15.5C169.87,-15.5 178.553,-15.5 186.918,-15.5"/>
<polygon fill="midnightblue" stroke="midnightblue" points="161.087,-12.0001 151.087,-15.5 161.086,-19.0001 161.087,-12.0001"/>
</g>
<!-- Node150 -->
<g id="node3" class="node"><title>Node150</title>
<g id="a_node3"><a xlink:href="../../db/dcf/class_my_dialog.html#a3a49421662fe7600e722c3ca32b48a4d" target="_top" xlink:title="MyDialog::LoadConfig">
<polygon fill="white" stroke="black" points="351,-6 351,-25 462,-25 462,-6 351,-6"/>
<text text-anchor="middle" x="406.5" y="-13" font-family="Helvetica,sans-Serif" font-size="10.00">MyDialog::LoadConfig</text>
</a>
</g>
</g>
<!-- Node149&#45;&gt;Node150 -->
<g id="edge2" class="edge"><title>Node149&#45;&gt;Node150</title>
<path fill="none" stroke="midnightblue" d="M325.571,-15.5C334.018,-15.5 342.516,-15.5 350.655,-15.5"/>
<polygon fill="midnightblue" stroke="midnightblue" points="325.321,-12.0001 315.321,-15.5 325.321,-19.0001 325.321,-12.0001"/>
</g>
<!-- Node151 -->
<g id="node4" class="node"><title>Node151</title>
<g id="a_node4"><a xlink:href="../../db/dcf/class_my_dialog.html#ac878405673c6177b80014e3ea1db6af7" target="_top" xlink:title="MyDialog::MyDialog">
<polygon fill="white" stroke="black" points="498,-6 498,-25 602,-25 602,-6 498,-6"/>
<text text-anchor="middle" x="550" y="-13" font-family="Helvetica,sans-Serif" font-size="10.00">MyDialog::MyDialog</text>
</a>
</g>
</g>
<!-- Node150&#45;&gt;Node151 -->
<g id="edge3" class="edge"><title>Node150&#45;&gt;Node151</title>
<path fill="none" stroke="midnightblue" d="M472.445,-15.5C480.91,-15.5 489.486,-15.5 497.685,-15.5"/>
<polygon fill="midnightblue" stroke="midnightblue" points="472.208,-12.0001 462.208,-15.5 472.208,-19.0001 472.208,-12.0001"/>
</g>
<!-- Node152 -->
<g id="node5" class="node"><title>Node152</title>
<g id="a_node5"><a xlink:href="../../d3/d92/class_ro_r_config_app.html#a2a0306257bf33d25102a9ace3b2ff59a" target="_top" xlink:title="RoRConfigApp::OnInit">
<polygon fill="white" stroke="black" points="638,-6 638,-25 749,-25 749,-6 638,-6"/>
<text text-anchor="middle" x="693.5" y="-13" font-family="Helvetica,sans-Serif" font-size="10.00">RoRConfigApp::OnInit</text>
</a>
</g>
</g>
<!-- Node151&#45;&gt;Node152 -->
<g id="edge4" class="edge"><title>Node151&#45;&gt;Node152</title>
<path fill="none" stroke="midnightblue" d="M612.265,-15.5C620.713,-15.5 629.344,-15.5 637.666,-15.5"/>
<polygon fill="midnightblue" stroke="midnightblue" points="612.085,-12.0001 602.085,-15.5 612.085,-19.0001 612.085,-12.0001"/>
</g>
</g>
</svg>
