<?xml version="1.0" encoding="UTF-8" standalone="no"?>
<!DOCTYPE svg PUBLIC "-//W3C//DTD SVG 1.1//EN"
 "http://www.w3.org/Graphics/SVG/1.1/DTD/svg11.dtd">
<!-- Generated by graphviz version 2.38.0 (20140413.2041)
 -->
<!-- Title: source/main/gui/GUIManager.h Pages: 1 -->
<svg width="2685pt" height="252pt"
 viewBox="0.00 0.00 2685.00 252.00" xmlns="http://www.w3.org/2000/svg" xmlns:xlink="http://www.w3.org/1999/xlink">
<g id="graph0" class="graph" transform="scale(1 1) rotate(0) translate(4 248)">
<title>source/main/gui/GUIManager.h</title>
<polygon fill="white" stroke="none" points="-4,4 -4,-248 2681,-248 2681,4 -4,4"/>
<!-- Node0 -->
<g id="node1" class="node"><title>Node0</title>
<polygon fill="#bfbfbf" stroke="black" points="2021,-224.5 2021,-243.5 2172,-243.5 2172,-224.5 2021,-224.5"/>
<text text-anchor="middle" x="2096.5" y="-231.5" font-family="Helvetica,sans-Serif" font-size="10.00">source/main/gui/GUIManager.h</text>
</g>
<!-- Node1 -->
<g id="node2" class="node"><title>Node1</title>
<g id="a_node2"><a xlink:href="../../d2/df0/_g_u_i_input_manager_8h.html" target="_top" xlink:title="GUIInputManager.h">
<polygon fill="white" stroke="black" points="1437.5,-168.5 1437.5,-187.5 1537.5,-187.5 1537.5,-168.5 1437.5,-168.5"/>
<text text-anchor="middle" x="1487.5" y="-175.5" font-family="Helvetica,sans-Serif" font-size="10.00">GUIInputManager.h</text>
</a>
</g>
</g>
<!-- Node0&#45;&gt;Node1 -->
<g id="edge1" class="edge"><title>Node0&#45;&gt;Node1</title>
<path fill="none" stroke="midnightblue" d="M2020.91,-226.297C1898.58,-215.451 1659.69,-194.268 1547.9,-184.356"/>
<polygon fill="midnightblue" stroke="midnightblue" points="1548.08,-180.858 1537.81,-183.461 1547.46,-187.83 1548.08,-180.858"/>
</g>
<!-- Node2 -->
<g id="node3" class="node"><title>Node2</title>
<g id="a_node3"><a xlink:href="../../d8/d9c/_ro_r_prerequisites_8h.html" target="_top" xlink:title="RoRPrerequisites.h">
<polygon fill="white" stroke="black" points="962,-112.5 962,-131.5 1063,-131.5 1063,-112.5 962,-112.5"/>
<text text-anchor="middle" x="1012.5" y="-119.5" font-family="Helvetica,sans-Serif" font-size="10.00">RoRPrerequisites.h</text>
</a>
</g>
</g>
<!-- Node0&#45;&gt;Node2 -->
<g id="edge39" class="edge"><title>Node0&#45;&gt;Node2</title>
<path fill="none" stroke="midnightblue" d="M2020.92,-230.071C1896.92,-224.781 1642.64,-211.896 1428.5,-188 1299.18,-173.569 1148.57,-147.78 1068.8,-133.405"/>
<polygon fill="midnightblue" stroke="midnightblue" points="1068.96,-129.876 1058.49,-131.54 1067.71,-136.765 1068.96,-129.876"/>
</g>
<!-- Node22 -->
<g id="node23" class="node"><title>Node22</title>
<g id="a_node23"><a xlink:href="../../d3/d6b/_ogre_im_gui_8h.html" target="_top" xlink:title="OgreImGui.h">
<polygon fill="white" stroke="black" points="2000,-168.5 2000,-187.5 2071,-187.5 2071,-168.5 2000,-168.5"/>
<text text-anchor="middle" x="2035.5" y="-175.5" font-family="Helvetica,sans-Serif" font-size="10.00">OgreImGui.h</text>
</a>
</g>
</g>
<!-- Node0&#45;&gt;Node22 -->
<g id="edge23" class="edge"><title>Node0&#45;&gt;Node22</title>
<path fill="none" stroke="midnightblue" d="M2086.7,-224.324C2077.68,-216.341 2064.09,-204.313 2053.18,-194.653"/>
<polygon fill="midnightblue" stroke="midnightblue" points="2055.29,-191.842 2045.48,-187.834 2050.65,-197.083 2055.29,-191.842"/>
</g>
<!-- Node37 -->
<g id="node38" class="node"><title>Node37</title>
<polygon fill="white" stroke="#bfbfbf" points="2089,-168.5 2089,-187.5 2226,-187.5 2226,-168.5 2089,-168.5"/>
<text text-anchor="middle" x="2157.5" y="-175.5" font-family="Helvetica,sans-Serif" font-size="10.00">OgreWindowEventUtilities.h</text>
</g>
<!-- Node0&#45;&gt;Node37 -->
<g id="edge40" class="edge"><title>Node0&#45;&gt;Node37</title>
<path fill="none" stroke="midnightblue" d="M2106.3,-224.324C2115.32,-216.341 2128.91,-204.313 2139.82,-194.653"/>
<polygon fill="midnightblue" stroke="midnightblue" points="2142.35,-197.083 2147.52,-187.834 2137.71,-191.842 2142.35,-197.083"/>
</g>
<!-- Node38 -->
<g id="node39" class="node"><title>Node38</title>
<polygon fill="white" stroke="#bfbfbf" points="2244.5,-168.5 2244.5,-187.5 2352.5,-187.5 2352.5,-168.5 2244.5,-168.5"/>
<text text-anchor="middle" x="2298.5" y="-175.5" font-family="Helvetica,sans-Serif" font-size="10.00">OgreFrameListener.h</text>
</g>
<!-- Node0&#45;&gt;Node38 -->
<g id="edge41" class="edge"><title>Node0&#45;&gt;Node38</title>
<path fill="none" stroke="midnightblue" d="M2128.51,-224.444C2163.23,-215.162 2218.79,-200.309 2256.88,-190.127"/>
<polygon fill="midnightblue" stroke="midnightblue" points="2257.89,-193.48 2266.64,-187.516 2256.08,-186.718 2257.89,-193.48"/>
</g>
<!-- Node39 -->
<g id="node40" class="node"><title>Node39</title>
<polygon fill="white" stroke="#bfbfbf" points="2370.5,-168.5 2370.5,-187.5 2462.5,-187.5 2462.5,-168.5 2370.5,-168.5"/>
<text text-anchor="middle" x="2416.5" y="-175.5" font-family="Helvetica,sans-Serif" font-size="10.00">MyGUI_UString.h</text>
</g>
<!-- Node0&#45;&gt;Node39 -->
<g id="edge42" class="edge"><title>Node0&#45;&gt;Node39</title>
<path fill="none" stroke="midnightblue" d="M2147.2,-224.444C2205.26,-214.646 2300.1,-198.643 2360.35,-188.476"/>
<polygon fill="midnightblue" stroke="midnightblue" points="2361.17,-191.887 2370.44,-186.772 2360,-184.985 2361.17,-191.887"/>
</g>
<!-- Node1&#45;&gt;Node2 -->
<g id="edge2" class="edge"><title>Node1&#45;&gt;Node2</title>
<path fill="none" stroke="midnightblue" d="M1437.12,-171.272C1349.12,-161.268 1167.77,-140.652 1073.08,-129.887"/>
<polygon fill="midnightblue" stroke="midnightblue" points="1073.41,-126.402 1063.08,-128.75 1072.62,-133.358 1073.41,-126.402"/>
</g>
<!-- Node20 -->
<g id="node21" class="node"><title>Node20</title>
<polygon fill="white" stroke="#bfbfbf" points="1430,-112.5 1430,-131.5 1471,-131.5 1471,-112.5 1430,-112.5"/>
<text text-anchor="middle" x="1450.5" y="-119.5" font-family="Helvetica,sans-Serif" font-size="10.00">OIS.h</text>
</g>
<!-- Node1&#45;&gt;Node20 -->
<g id="edge21" class="edge"><title>Node1&#45;&gt;Node20</title>
<path fill="none" stroke="midnightblue" d="M1481.39,-168.083C1476.22,-160.534 1468.65,-149.495 1462.31,-140.23"/>
<polygon fill="midnightblue" stroke="midnightblue" points="1465.04,-138.022 1456.5,-131.751 1459.26,-141.979 1465.04,-138.022"/>
</g>
<!-- Node21 -->
<g id="node22" class="node"><title>Node21</title>
<polygon fill="white" stroke="#bfbfbf" points="1489.5,-112.5 1489.5,-131.5 1559.5,-131.5 1559.5,-112.5 1489.5,-112.5"/>
<text text-anchor="middle" x="1524.5" y="-119.5" font-family="Helvetica,sans-Serif" font-size="10.00">OgreTimer.h</text>
</g>
<!-- Node1&#45;&gt;Node21 -->
<g id="edge22" class="edge"><title>Node1&#45;&gt;Node21</title>
<path fill="none" stroke="midnightblue" d="M1493.61,-168.083C1498.78,-160.534 1506.35,-149.495 1512.69,-140.23"/>
<polygon fill="midnightblue" stroke="midnightblue" points="1515.74,-141.979 1518.5,-131.751 1509.96,-138.022 1515.74,-141.979"/>
</g>
<!-- Node3 -->
<g id="node4" class="node"><title>Node3</title>
<polygon fill="white" stroke="#bfbfbf" points="1633,-56.5 1633,-75.5 1736,-75.5 1736,-56.5 1633,-56.5"/>
<text text-anchor="middle" x="1684.5" y="-63.5" font-family="Helvetica,sans-Serif" font-size="10.00">OgrePrerequisites.h</text>
</g>
<!-- Node2&#45;&gt;Node3 -->
<g id="edge3" class="edge"><title>Node2&#45;&gt;Node3</title>
<path fill="none" stroke="midnightblue" d="M1063.31,-118.514C1166.57,-113.19 1408.57,-99.3281 1622.77,-75.9941"/>
<polygon fill="midnightblue" stroke="midnightblue" points="1623.39,-79.4471 1632.95,-74.8758 1622.63,-72.489 1623.39,-79.4471"/>
</g>
<!-- Node4 -->
<g id="node5" class="node"><title>Node4</title>
<polygon fill="white" stroke="#bfbfbf" points="0,-56.5 0,-75.5 115,-75.5 115,-56.5 0,-56.5"/>
<text text-anchor="middle" x="57.5" y="-63.5" font-family="Helvetica,sans-Serif" font-size="10.00">OgreAxisAlignedBox.h</text>
</g>
<!-- Node2&#45;&gt;Node4 -->
<g id="edge4" class="edge"><title>Node2&#45;&gt;Node4</title>
<path fill="none" stroke="midnightblue" d="M961.834,-119.903C827.364,-116.676 450.139,-105.577 125.288,-75.9865"/>
<polygon fill="midnightblue" stroke="midnightblue" points="125.487,-72.4902 115.209,-75.0609 124.847,-79.4608 125.487,-72.4902"/>
</g>
<!-- Node5 -->
<g id="node6" class="node"><title>Node5</title>
<polygon fill="white" stroke="#bfbfbf" points="133.5,-56.5 133.5,-75.5 231.5,-75.5 231.5,-56.5 133.5,-56.5"/>
<text text-anchor="middle" x="182.5" y="-63.5" font-family="Helvetica,sans-Serif" font-size="10.00">OgreColourValue.h</text>
</g>
<!-- Node2&#45;&gt;Node5 -->
<g id="edge5" class="edge"><title>Node2&#45;&gt;Node5</title>
<path fill="none" stroke="midnightblue" d="M961.78,-119.723C839.656,-116.287 519.45,-105.135 241.779,-76.0289"/>
<polygon fill="midnightblue" stroke="midnightblue" points="241.817,-72.5135 231.504,-74.9416 241.081,-79.4747 241.817,-72.5135"/>
</g>
<!-- Node6 -->
<g id="node7" class="node"><title>Node6</title>
<polygon fill="white" stroke="#bfbfbf" points="250,-56.5 250,-75.5 351,-75.5 351,-56.5 250,-56.5"/>
<text text-anchor="middle" x="300.5" y="-63.5" font-family="Helvetica,sans-Serif" font-size="10.00">OgreHeaderPrefix.h</text>
</g>
<!-- Node2&#45;&gt;Node6 -->
<g id="edge6" class="edge"><title>Node2&#45;&gt;Node6</title>
<path fill="none" stroke="midnightblue" d="M961.987,-118.942C853.751,-114.225 591.26,-101.142 361.537,-76.1463"/>
<polygon fill="midnightblue" stroke="midnightblue" points="361.636,-72.6363 351.314,-75.0236 360.872,-79.5944 361.636,-72.6363"/>
</g>
<!-- Node7 -->
<g id="node8" class="node"><title>Node7</title>
<polygon fill="white" stroke="#bfbfbf" points="369,-56.5 369,-75.5 468,-75.5 468,-56.5 369,-56.5"/>
<text text-anchor="middle" x="418.5" y="-63.5" font-family="Helvetica,sans-Serif" font-size="10.00">OgreLogManager.h</text>
</g>
<!-- Node2&#45;&gt;Node7 -->
<g id="edge7" class="edge"><title>Node2&#45;&gt;Node7</title>
<path fill="none" stroke="midnightblue" d="M961.759,-117.931C868.184,-112.013 661.926,-97.7591 478.257,-76.1385"/>
<polygon fill="midnightblue" stroke="midnightblue" points="478.485,-72.6412 468.143,-74.9377 477.66,-79.5923 478.485,-72.6412"/>
</g>
<!-- Node8 -->
<g id="node9" class="node"><title>Node8</title>
<polygon fill="white" stroke="#bfbfbf" points="486,-56.5 486,-75.5 579,-75.5 579,-56.5 486,-56.5"/>
<text text-anchor="middle" x="532.5" y="-63.5" font-family="Helvetica,sans-Serif" font-size="10.00">OgreQuaternion.h</text>
</g>
<!-- Node2&#45;&gt;Node8 -->
<g id="edge8" class="edge"><title>Node2&#45;&gt;Node8</title>
<path fill="none" stroke="midnightblue" d="M961.687,-116.559C883.727,-109.539 729.688,-94.8533 589.36,-76.1908"/>
<polygon fill="midnightblue" stroke="midnightblue" points="589.657,-72.6995 579.281,-74.8403 588.727,-79.6374 589.657,-72.6995"/>
</g>
<!-- Node9 -->
<g id="node10" class="node"><title>Node9</title>
<polygon fill="white" stroke="#bfbfbf" points="597,-56.5 597,-75.5 668,-75.5 668,-56.5 597,-56.5"/>
<text text-anchor="middle" x="632.5" y="-63.5" font-family="Helvetica,sans-Serif" font-size="10.00">OgreString.h</text>
</g>
<!-- Node2&#45;&gt;Node9 -->
<g id="edge9" class="edge"><title>Node2&#45;&gt;Node9</title>
<path fill="none" stroke="midnightblue" d="M961.838,-115.217C898.089,-107.712 785.03,-93.6537 678.299,-76.0391"/>
<polygon fill="midnightblue" stroke="midnightblue" points="678.762,-72.5682 668.323,-74.3791 677.613,-79.4732 678.762,-72.5682"/>
</g>
<!-- Node10 -->
<g id="node11" class="node"><title>Node10</title>
<polygon fill="white" stroke="#bfbfbf" points="686.5,-56.5 686.5,-75.5 798.5,-75.5 798.5,-56.5 686.5,-56.5"/>
<text text-anchor="middle" x="742.5" y="-63.5" font-family="Helvetica,sans-Serif" font-size="10.00">OgreStringConverter.h</text>
</g>
<!-- Node2&#45;&gt;Node10 -->
<g id="edge10" class="edge"><title>Node2&#45;&gt;Node10</title>
<path fill="none" stroke="midnightblue" d="M969.718,-112.444C922.321,-102.964 845.874,-87.6747 794.917,-77.4835"/>
<polygon fill="midnightblue" stroke="midnightblue" points="795.574,-74.0456 785.082,-75.5164 794.202,-80.9097 795.574,-74.0456"/>
</g>
<!-- Node11 -->
<g id="node12" class="node"><title>Node11</title>
<polygon fill="white" stroke="#bfbfbf" points="817,-56.5 817,-75.5 906,-75.5 906,-56.5 817,-56.5"/>
<text text-anchor="middle" x="861.5" y="-63.5" font-family="Helvetica,sans-Serif" font-size="10.00">OgreUTFString.h</text>
</g>
<!-- Node2&#45;&gt;Node11 -->
<g id="edge11" class="edge"><title>Node2&#45;&gt;Node11</title>
<path fill="none" stroke="midnightblue" d="M988.574,-112.444C963.281,-103.399 923.198,-89.064 894.82,-78.9158"/>
<polygon fill="midnightblue" stroke="midnightblue" points="895.909,-75.5882 885.314,-75.5164 893.552,-82.1794 895.909,-75.5882"/>
</g>
<!-- Node12 -->
<g id="node13" class="node"><title>Node12</title>
<polygon fill="white" stroke="#bfbfbf" points="924.5,-56.5 924.5,-75.5 1004.5,-75.5 1004.5,-56.5 924.5,-56.5"/>
<text text-anchor="middle" x="964.5" y="-63.5" font-family="Helvetica,sans-Serif" font-size="10.00">OgreVector2.h</text>
</g>
<!-- Node2&#45;&gt;Node12 -->
<g id="edge12" class="edge"><title>Node2&#45;&gt;Node12</title>
<path fill="none" stroke="midnightblue" d="M1004.57,-112.083C997.654,-104.298 987.435,-92.8015 979.048,-83.3665"/>
<polygon fill="midnightblue" stroke="midnightblue" points="981.538,-80.8999 972.279,-75.7511 976.306,-85.5505 981.538,-80.8999"/>
</g>
<!-- Node13 -->
<g id="node14" class="node"><title>Node13</title>
<polygon fill="white" stroke="#bfbfbf" points="1022.5,-56.5 1022.5,-75.5 1102.5,-75.5 1102.5,-56.5 1022.5,-56.5"/>
<text text-anchor="middle" x="1062.5" y="-63.5" font-family="Helvetica,sans-Serif" font-size="10.00">OgreVector3.h</text>
</g>
<!-- Node2&#45;&gt;Node13 -->
<g id="edge13" class="edge"><title>Node2&#45;&gt;Node13</title>
<path fill="none" stroke="midnightblue" d="M1020.76,-112.083C1027.96,-104.298 1038.61,-92.8015 1047.35,-83.3665"/>
<polygon fill="midnightblue" stroke="midnightblue" points="1050.17,-85.4666 1054.4,-75.7511 1045.03,-80.7108 1050.17,-85.4666"/>
</g>
<!-- Node14 -->
<g id="node15" class="node"><title>Node14</title>
<g id="a_node15"><a xlink:href="../../d3/d73/_forward_declarations_8h.html" target="_top" xlink:title="Global forward declarations. ">
<polygon fill="white" stroke="black" points="1115,-0.5 1115,-19.5 1228,-19.5 1228,-0.5 1115,-0.5"/>
<text text-anchor="middle" x="1171.5" y="-7.5" font-family="Helvetica,sans-Serif" font-size="10.00">ForwardDeclarations.h</text>
</a>
</g>
</g>
<!-- Node2&#45;&gt;Node14 -->
<g id="edge14" class="edge"><title>Node2&#45;&gt;Node14</title>
<path fill="none" stroke="midnightblue" d="M1038.4,-112.472C1059.31,-104.854 1088.86,-92.3715 1111.5,-76 1130.46,-62.2892 1148.11,-41.8719 1159.29,-27.5892"/>
<polygon fill="midnightblue" stroke="midnightblue" points="1162.09,-29.6808 1165.37,-19.6037 1156.52,-25.4411 1162.09,-29.6808"/>
</g>
<!-- Node15 -->
<g id="node16" class="node"><title>Node15</title>
<g id="a_node16"><a xlink:href="../../d7/dfa/_global_environment_8h.html" target="_top" xlink:title="GlobalEnvironment.h">
<polygon fill="white" stroke="black" points="1158.5,-56.5 1158.5,-75.5 1264.5,-75.5 1264.5,-56.5 1158.5,-56.5"/>
<text text-anchor="middle" x="1211.5" y="-63.5" font-family="Helvetica,sans-Serif" font-size="10.00">GlobalEnvironment.h</text>
</a>
</g>
</g>
<!-- Node2&#45;&gt;Node15 -->
<g id="edge15" class="edge"><title>Node2&#45;&gt;Node15</title>
<path fill="none" stroke="midnightblue" d="M1044.03,-112.444C1078.09,-103.201 1132.51,-88.4356 1170.02,-78.2572"/>
<polygon fill="midnightblue" stroke="midnightblue" points="1171.38,-81.5132 1180.12,-75.5164 1169.55,-74.7575 1171.38,-81.5132"/>
</g>
<!-- Node16 -->
<g id="node17" class="node"><title>Node16</title>
<g id="a_node17"><a xlink:href="../../dc/de5/_zeroed_memory_allocator_8h.html" target="_top" xlink:title="ZeroedMemoryAllocator.h">
<polygon fill="white" stroke="black" points="1282.5,-56.5 1282.5,-75.5 1410.5,-75.5 1410.5,-56.5 1282.5,-56.5"/>
<text text-anchor="middle" x="1346.5" y="-63.5" font-family="Helvetica,sans-Serif" font-size="10.00">ZeroedMemoryAllocator.h</text>
</a>
</g>
</g>
<!-- Node2&#45;&gt;Node16 -->
<g id="edge17" class="edge"><title>Node2&#45;&gt;Node16</title>
<path fill="none" stroke="midnightblue" d="M1063.23,-112.799C1122.38,-103.234 1220.18,-87.4228 1283.98,-77.1082"/>
<polygon fill="midnightblue" stroke="midnightblue" points="1284.6,-80.553 1293.91,-75.5018 1283.48,-73.6428 1284.6,-80.553"/>
</g>
<!-- Node17 -->
<g id="node18" class="node"><title>Node17</title>
<g id="a_node18"><a xlink:href="../../d7/d85/_bit_flags_8h.html" target="_top" xlink:title="BitFlags.h">
<polygon fill="white" stroke="black" points="1429,-56.5 1429,-75.5 1490,-75.5 1490,-56.5 1429,-56.5"/>
<text text-anchor="middle" x="1459.5" y="-63.5" font-family="Helvetica,sans-Serif" font-size="10.00">BitFlags.h</text>
</a>
</g>
</g>
<!-- Node2&#45;&gt;Node17 -->
<g id="edge18" class="edge"><title>Node2&#45;&gt;Node17</title>
<path fill="none" stroke="midnightblue" d="M1063.19,-117.218C1138.55,-111.196 1284.7,-97.9798 1418.94,-75.9048"/>
<polygon fill="midnightblue" stroke="midnightblue" points="1419.7,-79.3258 1428.99,-74.2309 1418.55,-72.4208 1419.7,-79.3258"/>
</g>
<!-- Node19 -->
<g id="node20" class="node"><title>Node19</title>
<polygon fill="white" stroke="#bfbfbf" points="1508,-56.5 1508,-75.5 1615,-75.5 1615,-56.5 1508,-56.5"/>
<text text-anchor="middle" x="1561.5" y="-63.5" font-family="Helvetica,sans-Serif" font-size="10.00">MyGUI_Prerequest.h</text>
</g>
<!-- Node2&#45;&gt;Node19 -->
<g id="edge20" class="edge"><title>Node2&#45;&gt;Node19</title>
<path fill="none" stroke="midnightblue" d="M1063.31,-117.129C1150.03,-110.341 1332.4,-95.2733 1497.56,-76.0531"/>
<polygon fill="midnightblue" stroke="midnightblue" points="1498.38,-79.4804 1507.91,-74.8404 1497.57,-72.5279 1498.38,-79.4804"/>
</g>
<!-- Node15&#45;&gt;Node14 -->
<g id="edge16" class="edge"><title>Node15&#45;&gt;Node14</title>
<path fill="none" stroke="midnightblue" d="M1204.89,-56.083C1199.24,-48.4554 1190.96,-37.2645 1184.05,-27.9408"/>
<polygon fill="midnightblue" stroke="midnightblue" points="1186.75,-25.7034 1177.98,-19.7511 1181.12,-29.87 1186.75,-25.7034"/>
</g>
<!-- Node18 -->
<g id="node19" class="node"><title>Node18</title>
<polygon fill="white" stroke="#bfbfbf" points="1436.5,-0.5 1436.5,-19.5 1482.5,-19.5 1482.5,-0.5 1436.5,-0.5"/>
<text text-anchor="middle" x="1459.5" y="-7.5" font-family="Helvetica,sans-Serif" font-size="10.00">cstdint</text>
</g>
<!-- Node17&#45;&gt;Node18 -->
<g id="edge19" class="edge"><title>Node17&#45;&gt;Node18</title>
<path fill="none" stroke="midnightblue" d="M1459.5,-56.083C1459.5,-49.0059 1459.5,-38.8611 1459.5,-29.9865"/>
<polygon fill="midnightblue" stroke="midnightblue" points="1463,-29.751 1459.5,-19.7511 1456,-29.7511 1463,-29.751"/>
</g>
<!-- Node22&#45;&gt;Node3 -->
<g id="edge36" class="edge"><title>Node22&#45;&gt;Node3</title>
<path fill="none" stroke="midnightblue" d="M1999.98,-172.157C1956.96,-165.696 1882.66,-152.617 1821.5,-132 1780.4,-118.144 1735.45,-95.1984 1708.64,-80.6031"/>
<polygon fill="midnightblue" stroke="midnightblue" points="1710.07,-77.3948 1699.62,-75.636 1706.69,-83.5263 1710.07,-77.3948"/>
</g>
<!-- Node23 -->
<g id="node24" class="node"><title>Node23</title>
<g id="a_node24"><a xlink:href="../../db/d19/imgui_8h.html" target="_top" xlink:title="imgui.h">
<polygon fill="white" stroke="black" points="1830.5,-112.5 1830.5,-131.5 1878.5,-131.5 1878.5,-112.5 1830.5,-112.5"/>
<text text-anchor="middle" x="1854.5" y="-119.5" font-family="Helvetica,sans-Serif" font-size="10.00">imgui.h</text>
</a>
</g>
</g>
<!-- Node22&#45;&gt;Node23 -->
<g id="edge24" class="edge"><title>Node22&#45;&gt;Node23</title>
<path fill="none" stroke="midnightblue" d="M2006.82,-168.444C1974.75,-158.876 1922.84,-143.389 1888.69,-133.2"/>
<polygon fill="midnightblue" stroke="midnightblue" points="1889.28,-129.725 1878.7,-130.22 1887.28,-136.433 1889.28,-129.725"/>
</g>
<!-- Node30 -->
<g id="node31" class="node"><title>Node30</title>
<polygon fill="white" stroke="#bfbfbf" points="1897,-112.5 1897,-131.5 1982,-131.5 1982,-112.5 1897,-112.5"/>
<text text-anchor="middle" x="1939.5" y="-119.5" font-family="Helvetica,sans-Serif" font-size="10.00">OgreCommon.h</text>
</g>
<!-- Node22&#45;&gt;Node30 -->
<g id="edge31" class="edge"><title>Node22&#45;&gt;Node30</title>
<path fill="none" stroke="midnightblue" d="M2020.08,-168.324C2004.96,-159.822 1981.68,-146.729 1964.03,-136.797"/>
<polygon fill="midnightblue" stroke="midnightblue" points="1965.32,-133.507 1954.89,-131.655 1961.89,-139.608 1965.32,-133.507"/>
</g>
<!-- Node31 -->
<g id="node32" class="node"><title>Node31</title>
<polygon fill="white" stroke="#bfbfbf" points="2000,-112.5 2000,-131.5 2071,-131.5 2071,-112.5 2000,-112.5"/>
<text text-anchor="middle" x="2035.5" y="-119.5" font-family="Helvetica,sans-Serif" font-size="10.00">OISMouse.h</text>
</g>
<!-- Node22&#45;&gt;Node31 -->
<g id="edge32" class="edge"><title>Node22&#45;&gt;Node31</title>
<path fill="none" stroke="midnightblue" d="M2035.5,-168.083C2035.5,-161.006 2035.5,-150.861 2035.5,-141.986"/>
<polygon fill="midnightblue" stroke="midnightblue" points="2039,-141.751 2035.5,-131.751 2032,-141.751 2039,-141.751"/>
</g>
<!-- Node32 -->
<g id="node33" class="node"><title>Node32</title>
<polygon fill="white" stroke="#bfbfbf" points="2089,-112.5 2089,-131.5 2172,-131.5 2172,-112.5 2089,-112.5"/>
<text text-anchor="middle" x="2130.5" y="-119.5" font-family="Helvetica,sans-Serif" font-size="10.00">OISKeyboard.h</text>
</g>
<!-- Node22&#45;&gt;Node32 -->
<g id="edge33" class="edge"><title>Node22&#45;&gt;Node32</title>
<path fill="none" stroke="midnightblue" d="M2050.76,-168.324C2065.72,-159.822 2088.75,-146.729 2106.23,-136.797"/>
<polygon fill="midnightblue" stroke="midnightblue" points="2108.31,-139.639 2115.27,-131.655 2104.85,-133.553 2108.31,-139.639"/>
</g>
<!-- Node33 -->
<g id="node34" class="node"><title>Node33</title>
<polygon fill="white" stroke="#bfbfbf" points="2190.5,-112.5 2190.5,-131.5 2330.5,-131.5 2330.5,-112.5 2190.5,-112.5"/>
<text text-anchor="middle" x="2260.5" y="-119.5" font-family="Helvetica,sans-Serif" font-size="10.00">OgreRenderQueueListener.h</text>
</g>
<!-- Node22&#45;&gt;Node33 -->
<g id="edge34" class="edge"><title>Node22&#45;&gt;Node33</title>
<path fill="none" stroke="midnightblue" d="M2071.15,-168.444C2110.16,-159.083 2172.77,-144.056 2215.22,-133.868"/>
<polygon fill="midnightblue" stroke="midnightblue" points="2216.11,-137.254 2225.01,-131.516 2214.47,-130.447 2216.11,-137.254"/>
</g>
<!-- Node34 -->
<g id="node35" class="node"><title>Node34</title>
<polygon fill="white" stroke="#bfbfbf" points="2348.5,-112.5 2348.5,-131.5 2426.5,-131.5 2426.5,-112.5 2348.5,-112.5"/>
<text text-anchor="middle" x="2387.5" y="-119.5" font-family="Helvetica,sans-Serif" font-size="10.00">OgreTexture.h</text>
</g>
<!-- Node22&#45;&gt;Node34 -->
<g id="edge35" class="edge"><title>Node22&#45;&gt;Node34</title>
<path fill="none" stroke="midnightblue" d="M2071,-169.534C2073.87,-168.993 2076.73,-168.474 2079.5,-168 2191.34,-148.84 2222.66,-150.637 2338.52,-132.088"/>
<polygon fill="midnightblue" stroke="midnightblue" points="2339.18,-135.527 2348.49,-130.475 2338.06,-128.616 2339.18,-135.527"/>
</g>
<!-- Node35 -->
<g id="node36" class="node"><title>Node35</title>
<polygon fill="white" stroke="#bfbfbf" points="2445,-112.5 2445,-131.5 2540,-131.5 2540,-112.5 2445,-112.5"/>
<text text-anchor="middle" x="2492.5" y="-119.5" font-family="Helvetica,sans-Serif" font-size="10.00">OgreRenderable.h</text>
</g>
<!-- Node22&#45;&gt;Node35 -->
<g id="edge37" class="edge"><title>Node22&#45;&gt;Node35</title>
<path fill="none" stroke="midnightblue" d="M2071.47,-169.335C2074.18,-168.852 2076.88,-168.399 2079.5,-168 2233.49,-144.527 2276.05,-152.079 2434.82,-132.01"/>
<polygon fill="midnightblue" stroke="midnightblue" points="2435.47,-135.455 2444.94,-130.712 2434.58,-128.512 2435.47,-135.455"/>
</g>
<!-- Node36 -->
<g id="node37" class="node"><title>Node36</title>
<polygon fill="white" stroke="#bfbfbf" points="2558,-112.5 2558,-131.5 2677,-131.5 2677,-112.5 2558,-112.5"/>
<text text-anchor="middle" x="2617.5" y="-119.5" font-family="Helvetica,sans-Serif" font-size="10.00">OgreRenderOperation.h</text>
</g>
<!-- Node22&#45;&gt;Node36 -->
<g id="edge38" class="edge"><title>Node22&#45;&gt;Node36</title>
<path fill="none" stroke="midnightblue" d="M2071.45,-169.263C2074.17,-168.796 2076.87,-168.368 2079.5,-168 2283.74,-139.405 2339.4,-153.301 2547.78,-132.124"/>
<polygon fill="midnightblue" stroke="midnightblue" points="2548.23,-135.596 2557.82,-131.088 2547.51,-128.633 2548.23,-135.596"/>
</g>
<!-- Node24 -->
<g id="node25" class="node"><title>Node24</title>
<g id="a_node25"><a xlink:href="../../dc/dad/imconfig_8h.html" target="_top" xlink:title="imconfig.h">
<polygon fill="white" stroke="black" points="1754,-56.5 1754,-75.5 1815,-75.5 1815,-56.5 1754,-56.5"/>
<text text-anchor="middle" x="1784.5" y="-63.5" font-family="Helvetica,sans-Serif" font-size="10.00">imconfig.h</text>
</a>
</g>
</g>
<!-- Node23&#45;&gt;Node24 -->
<g id="edge25" class="edge"><title>Node23&#45;&gt;Node24</title>
<path fill="none" stroke="midnightblue" d="M1843.25,-112.324C1832.7,-104.185 1816.7,-91.8395 1804.06,-82.0874"/>
<polygon fill="midnightblue" stroke="midnightblue" points="1806.01,-79.1707 1795.95,-75.8339 1801.73,-84.7132 1806.01,-79.1707"/>
</g>
<!-- Node25 -->
<g id="node26" class="node"><title>Node25</title>
<polygon fill="white" stroke="#bfbfbf" points="1833,-56.5 1833,-75.5 1876,-75.5 1876,-56.5 1833,-56.5"/>
<text text-anchor="middle" x="1854.5" y="-63.5" font-family="Helvetica,sans-Serif" font-size="10.00">float.h</text>
</g>
<!-- Node23&#45;&gt;Node25 -->
<g id="edge26" class="edge"><title>Node23&#45;&gt;Node25</title>
<path fill="none" stroke="midnightblue" d="M1854.5,-112.083C1854.5,-105.006 1854.5,-94.8611 1854.5,-85.9865"/>
<polygon fill="midnightblue" stroke="midnightblue" points="1858,-85.751 1854.5,-75.7511 1851,-85.7511 1858,-85.751"/>
</g>
<!-- Node26 -->
<g id="node27" class="node"><title>Node26</title>
<polygon fill="white" stroke="#bfbfbf" points="1894.5,-56.5 1894.5,-75.5 1946.5,-75.5 1946.5,-56.5 1894.5,-56.5"/>
<text text-anchor="middle" x="1920.5" y="-63.5" font-family="Helvetica,sans-Serif" font-size="10.00">stdarg.h</text>
</g>
<!-- Node23&#45;&gt;Node26 -->
<g id="edge27" class="edge"><title>Node23&#45;&gt;Node26</title>
<path fill="none" stroke="midnightblue" d="M1865.1,-112.324C1874.96,-104.263 1889.85,-92.0765 1901.72,-82.3695"/>
<polygon fill="midnightblue" stroke="midnightblue" points="1904.18,-84.8752 1909.7,-75.8339 1899.75,-79.4575 1904.18,-84.8752"/>
</g>
<!-- Node27 -->
<g id="node28" class="node"><title>Node27</title>
<polygon fill="white" stroke="#bfbfbf" points="1965,-56.5 1965,-75.5 2016,-75.5 2016,-56.5 1965,-56.5"/>
<text text-anchor="middle" x="1990.5" y="-63.5" font-family="Helvetica,sans-Serif" font-size="10.00">stddef.h</text>
</g>
<!-- Node23&#45;&gt;Node27 -->
<g id="edge28" class="edge"><title>Node23&#45;&gt;Node27</title>
<path fill="none" stroke="midnightblue" d="M1876.05,-112.444C1898.53,-103.517 1933.99,-89.4387 1959.48,-79.3168"/>
<polygon fill="midnightblue" stroke="midnightblue" points="1961.05,-82.4598 1969.05,-75.5164 1958.47,-75.9539 1961.05,-82.4598"/>
</g>
<!-- Node28 -->
<g id="node29" class="node"><title>Node28</title>
<polygon fill="white" stroke="#bfbfbf" points="2034,-56.5 2034,-75.5 2083,-75.5 2083,-56.5 2034,-56.5"/>
<text text-anchor="middle" x="2058.5" y="-63.5" font-family="Helvetica,sans-Serif" font-size="10.00">string.h</text>
</g>
<!-- Node23&#45;&gt;Node28 -->
<g id="edge29" class="edge"><title>Node23&#45;&gt;Node28</title>
<path fill="none" stroke="midnightblue" d="M1878.64,-114.388C1881.63,-113.579 1884.63,-112.768 1887.5,-112 1945.34,-96.5125 1962.02,-92.4427 2024.06,-76.1098"/>
<polygon fill="midnightblue" stroke="midnightblue" points="2025.21,-79.4271 2033.99,-73.4943 2023.43,-72.6582 2025.21,-79.4271"/>
</g>
<!-- Node29 -->
<g id="node30" class="node"><title>Node29</title>
<polygon fill="white" stroke="#bfbfbf" points="2101.5,-56.5 2101.5,-75.5 2153.5,-75.5 2153.5,-56.5 2101.5,-56.5"/>
<text text-anchor="middle" x="2127.5" y="-63.5" font-family="Helvetica,sans-Serif" font-size="10.00">assert.h</text>
</g>
<!-- Node23&#45;&gt;Node29 -->
<g id="edge30" class="edge"><title>Node23&#45;&gt;Node29</title>
<path fill="none" stroke="midnightblue" d="M1878.59,-114.157C1881.58,-113.388 1884.6,-112.649 1887.5,-112 1974.27,-92.5548 1999.73,-94.9778 2091.23,-75.9081"/>
<polygon fill="midnightblue" stroke="midnightblue" points="2092.14,-79.2933 2101.2,-73.8008 2090.7,-72.4447 2092.14,-79.2933"/>
</g>
</g>
</svg>
