<?xml version="1.0" encoding="UTF-8" standalone="no"?>
<!DOCTYPE svg PUBLIC "-//W3C//DTD SVG 1.1//EN"
 "http://www.w3.org/Graphics/SVG/1.1/DTD/svg11.dtd">
<!-- Generated by graphviz version 2.38.0 (20140413.2041)
 -->
<!-- Title: CheckFloat Pages: 1 -->
<svg width="652pt" height="28pt"
 viewBox="0.00 0.00 652.00 28.00" xmlns="http://www.w3.org/2000/svg" xmlns:xlink="http://www.w3.org/1999/xlink">
<g id="graph0" class="graph" transform="scale(1 1) rotate(0) translate(4 24)">
<title>CheckFloat</title>
<polygon fill="white" stroke="none" points="-4,4 -4,-24 648,-24 648,4 -4,4"/>
<!-- Node31 -->
<g id="node1" class="node"><title>Node31</title>
<polygon fill="#bfbfbf" stroke="black" points="0,-0.5 0,-19.5 66,-19.5 66,-0.5 0,-0.5"/>
<text text-anchor="middle" x="33" y="-7.5" font-family="Helvetica,sans-Serif" font-size="10.00">CheckFloat</text>
</g>
<!-- Node32 -->
<g id="node2" class="node"><title>Node32</title>
<g id="a_node2"><a xlink:href="../../d3/d93/class_ro_r_1_1_g_var_pod___a.html#a0ee26767138d80c4b9f19a9b9a000935" target="_top" xlink:title="RoR::GVarPod_A::SetActive">
<polygon fill="white" stroke="black" points="102,-0.5 102,-19.5 242,-19.5 242,-0.5 102,-0.5"/>
<text text-anchor="middle" x="172" y="-7.5" font-family="Helvetica,sans-Serif" font-size="10.00">RoR::GVarPod_A::SetActive</text>
</a>
</g>
</g>
<!-- Node31&#45;&gt;Node32 -->
<g id="edge1" class="edge"><title>Node31&#45;&gt;Node32</title>
<path fill="none" stroke="midnightblue" d="M66.1204,-10C73.9353,-10 82.6401,-10 91.6003,-10"/>
<polygon fill="midnightblue" stroke="midnightblue" points="91.7914,-13.5001 101.791,-10 91.7913,-6.5001 91.7914,-13.5001"/>
</g>
<!-- Node33 -->
<g id="node3" class="node"><title>Node33</title>
<g id="a_node3"><a xlink:href="../../de/dc3/struct_ro_r_1_1_g_var_base.html#ad62f8ee63f31124d7c51534341128496" target="_top" xlink:title="RoR::GVarBase::LogSetActive">
<polygon fill="white" stroke="black" points="278,-0.5 278,-19.5 427,-19.5 427,-0.5 278,-0.5"/>
<text text-anchor="middle" x="352.5" y="-7.5" font-family="Helvetica,sans-Serif" font-size="10.00">RoR::GVarBase::LogSetActive</text>
</a>
</g>
</g>
<!-- Node32&#45;&gt;Node33 -->
<g id="edge2" class="edge"><title>Node32&#45;&gt;Node33</title>
<path fill="none" stroke="midnightblue" d="M242.013,-10C250.474,-10 259.192,-10 267.84,-10"/>
<polygon fill="midnightblue" stroke="midnightblue" points="267.939,-13.5001 277.939,-10 267.939,-6.5001 267.939,-13.5001"/>
</g>
<!-- Node34 -->
<g id="node4" class="node"><title>Node34</title>
<g id="a_node4"><a xlink:href="../../dd/dd2/namespace_ro_r.html#a6523130e147fb219ca2b3a07479e0392" target="_top" xlink:title="Improved logging utility. Uses fixed 2Kb buffer. ">
<polygon fill="white" stroke="black" points="463,-0.5 463,-19.5 551,-19.5 551,-0.5 463,-0.5"/>
<text text-anchor="middle" x="507" y="-7.5" font-family="Helvetica,sans-Serif" font-size="10.00">RoR::LogFormat</text>
</a>
</g>
</g>
<!-- Node33&#45;&gt;Node34 -->
<g id="edge3" class="edge"><title>Node33&#45;&gt;Node34</title>
<path fill="none" stroke="midnightblue" d="M427.07,-10C435.639,-10 444.252,-10 452.478,-10"/>
<polygon fill="midnightblue" stroke="midnightblue" points="452.657,-13.5001 462.657,-10 452.657,-6.5001 452.657,-13.5001"/>
</g>
<!-- Node35 -->
<g id="node5" class="node"><title>Node35</title>
<g id="a_node5"><a xlink:href="../../dd/dd2/namespace_ro_r.html#a15fdb48aba128c41a9c75357c2282694" target="_top" xlink:title="The ultimate, application&#45;wide logging function. Adds a line (any length) in &#39;RoR.log&#39; file. ">
<polygon fill="white" stroke="black" points="587,-0.5 587,-19.5 644,-19.5 644,-0.5 587,-0.5"/>
<text text-anchor="middle" x="615.5" y="-7.5" font-family="Helvetica,sans-Serif" font-size="10.00">RoR::Log</text>
</a>
</g>
</g>
<!-- Node34&#45;&gt;Node35 -->
<g id="edge4" class="edge"><title>Node34&#45;&gt;Node35</title>
<path fill="none" stroke="midnightblue" d="M551.011,-10C559.535,-10 568.423,-10 576.756,-10"/>
<polygon fill="midnightblue" stroke="midnightblue" points="576.945,-13.5001 586.945,-10 576.945,-6.5001 576.945,-13.5001"/>
</g>
</g>
</svg>
