<?xml version="1.0" encoding="UTF-8" standalone="no"?>
<!DOCTYPE svg PUBLIC "-//W3C//DTD SVG 1.1//EN"
 "http://www.w3.org/Graphics/SVG/1.1/DTD/svg11.dtd">
<!-- Generated by graphviz version 2.38.0 (20140413.2041)
 -->
<!-- Title: RoR::GUI::FrictionSettings::event_btn_MouseButtonClick Pages: 1 -->
<!--zoomable 137 -->
<svg id="main" version="1.1" xmlns="http://www.w3.org/2000/svg" xmlns:xlink="http://www.w3.org/1999/xlink" xml:space="preserve" onload="init(evt)">
<style type="text/css"><![CDATA[
.edge:hover path { stroke: red; }
.edge:hover polygon { stroke: red; fill: red; }
]]></style>
<script type="text/javascript"><![CDATA[
var edges = document.getElementsByTagName('g');
if (edges && edges.length) {
  for (var i=0;i<edges.length;i++) {
    if (edges[i].id.substr(0,4)=='edge') {
      edges[i].setAttribute('class','edge');
    }
  }
}
]]></script>
        <defs>
                <circle id="rim" cx="0" cy="0" r="7"/>
                <circle id="rim2" cx="0" cy="0" r="3.5"/>
                <g id="zoomPlus">
                        <use xlink:href="#rim" fill="#404040">
                                <set attributeName="fill" to="#808080" begin="zoomplus.mouseover" end="zoomplus.mouseout"/>
                        </use>
                        <path d="M-4,0h8M0,-4v8" fill="none" stroke="white" stroke-width="1.5" pointer-events="none"/>
                </g>
                <g id="zoomMin">
                        <use xlink:href="#rim" fill="#404040">
                                <set attributeName="fill" to="#808080" begin="zoomminus.mouseover" end="zoomminus.mouseout"/>
                        </use>
                        <path d="M-4,0h8" fill="none" stroke="white" stroke-width="1.5" pointer-events="none"/>
                </g>
                <g id="dirArrow">
                        <path fill="none" stroke="white" stroke-width="1.5" d="M0,-3.0v7 M-2.5,-0.5L0,-3.0L2.5,-0.5"/>
                </g>
               <g id="resetDef">
                       <use xlink:href="#rim2" fill="#404040">
                               <set attributeName="fill" to="#808080" begin="reset.mouseover" end="reset.mouseout"/>
                       </use>
               </g>
        </defs>

<script type="text/javascript">
var viewWidth = 609;
var viewHeight = 137;
var sectionId = 'dynsection-4';
</script>
<script xlink:href="../../svgpan.js"/>
<svg id="graph" class="graph">
<g id="viewport">
<title>RoR::GUI::FrictionSettings::event_btn_MouseButtonClick</title>
<polygon fill="white" stroke="none" points="-4,4 -4,-133 605,-133 605,4 -4,4"/>
<!-- Node238 -->
<g id="node1" class="node"><title>Node238</title>
<polygon fill="#bfbfbf" stroke="black" points="0,-49.5 0,-79.5 149,-79.5 149,-49.5 0,-49.5"/>
<text text-anchor="start" x="8" y="-67.5" font-family="Helvetica,sans-Serif" font-size="10.00">RoR::GUI::FrictionSettings</text>
<text text-anchor="middle" x="74.5" y="-56.5" font-family="Helvetica,sans-Serif" font-size="10.00">::event_btn_MouseButtonClick</text>
</g>
<!-- Node239 -->
<g id="node2" class="node"><title>Node239</title>
<g id="a_node2"><a xlink:href="../../df/d32/class_ro_r_1_1_g_u_i_1_1_friction_settings.html#a68f89f8c947082c37538b73bb2f1fa60" target="_top" xlink:title="RoR::GUI::FrictionSettings\l::showHelp">
<polygon fill="white" stroke="black" points="185,-98.5 185,-128.5 317,-128.5 317,-98.5 185,-98.5"/>
<text text-anchor="start" x="193" y="-116.5" font-family="Helvetica,sans-Serif" font-size="10.00">RoR::GUI::FrictionSettings</text>
<text text-anchor="middle" x="251" y="-105.5" font-family="Helvetica,sans-Serif" font-size="10.00">::showHelp</text>
</a>
</g>
</g>
<!-- Node238&#45;&gt;Node239 -->
<g id="edge1" class="edge"><title>Node238&#45;&gt;Node239</title>
<path fill="none" stroke="midnightblue" d="M129.28,-79.6014C147.443,-84.7019 167.888,-90.4429 186.719,-95.7305"/>
<polygon fill="midnightblue" stroke="midnightblue" points="185.824,-99.1146 196.398,-98.4484 187.717,-92.3752 185.824,-99.1146"/>
</g>
<!-- Node242 -->
<g id="node5" class="node"><title>Node242</title>
<g id="a_node5"><a xlink:href="../../df/d32/class_ro_r_1_1_g_u_i_1_1_friction_settings.html#a52b83cc66a654dfc82333dc546f22a58" target="_top" xlink:title="RoR::GUI::FrictionSettings\l::updateControls">
<polygon fill="white" stroke="black" points="185,-49.5 185,-79.5 317,-79.5 317,-49.5 185,-49.5"/>
<text text-anchor="start" x="193" y="-67.5" font-family="Helvetica,sans-Serif" font-size="10.00">RoR::GUI::FrictionSettings</text>
<text text-anchor="middle" x="251" y="-56.5" font-family="Helvetica,sans-Serif" font-size="10.00">::updateControls</text>
</a>
</g>
</g>
<!-- Node238&#45;&gt;Node242 -->
<g id="edge4" class="edge"><title>Node238&#45;&gt;Node242</title>
<path fill="none" stroke="midnightblue" d="M149.251,-64.5C157.649,-64.5 166.219,-64.5 174.638,-64.5"/>
<polygon fill="midnightblue" stroke="midnightblue" points="174.811,-68.0001 184.811,-64.5 174.811,-61.0001 174.811,-68.0001"/>
</g>
<!-- Node243 -->
<g id="node6" class="node"><title>Node243</title>
<g id="a_node6"><a xlink:href="../../df/d32/class_ro_r_1_1_g_u_i_1_1_friction_settings.html#a78e80b3ab77b49947ca7253dbe9ee448" target="_top" xlink:title="RoR::GUI::FrictionSettings\l::applyChanges">
<polygon fill="white" stroke="black" points="185,-0.5 185,-30.5 317,-30.5 317,-0.5 185,-0.5"/>
<text text-anchor="start" x="193" y="-18.5" font-family="Helvetica,sans-Serif" font-size="10.00">RoR::GUI::FrictionSettings</text>
<text text-anchor="middle" x="251" y="-7.5" font-family="Helvetica,sans-Serif" font-size="10.00">::applyChanges</text>
</a>
</g>
</g>
<!-- Node238&#45;&gt;Node243 -->
<g id="edge5" class="edge"><title>Node238&#45;&gt;Node243</title>
<path fill="none" stroke="midnightblue" d="M129.28,-49.3986C147.443,-44.2981 167.888,-38.5571 186.719,-33.2695"/>
<polygon fill="midnightblue" stroke="midnightblue" points="187.717,-36.6248 196.398,-30.5516 185.824,-29.8854 187.717,-36.6248"/>
</g>
<!-- Node240 -->
<g id="node3" class="node"><title>Node240</title>
<g id="a_node3"><a xlink:href="../../d9/dc1/_utils_8h.html#a23744b3f0e07a907bc9993afbcf37c2d" target="_top" xlink:title="convertToMyGUIString">
<polygon fill="white" stroke="black" points="353,-104 353,-123 466,-123 466,-104 353,-104"/>
<text text-anchor="middle" x="409.5" y="-111" font-family="Helvetica,sans-Serif" font-size="10.00">convertToMyGUIString</text>
</a>
</g>
</g>
<!-- Node239&#45;&gt;Node240 -->
<g id="edge2" class="edge"><title>Node239&#45;&gt;Node240</title>
<path fill="none" stroke="midnightblue" d="M317.01,-113.5C325.489,-113.5 334.18,-113.5 342.672,-113.5"/>
<polygon fill="midnightblue" stroke="midnightblue" points="342.902,-117 352.902,-113.5 342.902,-110 342.902,-117"/>
</g>
<!-- Node241 -->
<g id="node4" class="node"><title>Node241</title>
<g id="a_node4"><a xlink:href="../../d9/dc1/_utils_8h.html#abe6f6cf9ad4e672e6f4db9fe552b6bcf" target="_top" xlink:title="ANSI_TO_WCHAR">
<polygon fill="white" stroke="black" points="502,-104 502,-123 601,-123 601,-104 502,-104"/>
<text text-anchor="middle" x="551.5" y="-111" font-family="Helvetica,sans-Serif" font-size="10.00">ANSI_TO_WCHAR</text>
</a>
</g>
</g>
<!-- Node240&#45;&gt;Node241 -->
<g id="edge3" class="edge"><title>Node240&#45;&gt;Node241</title>
<path fill="none" stroke="midnightblue" d="M466.234,-113.5C474.582,-113.5 483.214,-113.5 491.625,-113.5"/>
<polygon fill="midnightblue" stroke="midnightblue" points="491.742,-117 501.742,-113.5 491.742,-110 491.742,-117"/>
</g>
</g>
</svg>
        <g id="navigator" transform="translate(0 0)" fill="#404254">
                <rect fill="#f2f5e9" fill-opacity="0.5" stroke="#606060" stroke-width=".5" x="0" y="0" width="60" height="60"/>
                <use id="zoomplus" xlink:href="#zoomPlus" x="17" y="9" onmousedown="handleZoom(evt,'in')"/>
                <use id="zoomminus" xlink:href="#zoomMin" x="42" y="9" onmousedown="handleZoom(evt,'out')"/>
                <use id="reset" xlink:href="#resetDef" x="30" y="36" onmousedown="handleReset()"/>
                <g id="arrowUp" xlink:href="#dirArrow" transform="translate(30 24)" onmousedown="handlePan(0,-1)">
                  <use xlink:href="#rim" fill="#404040">
                        <set attributeName="fill" to="#808080" begin="arrowUp.mouseover" end="arrowUp.mouseout"/>
                  </use>
                  <path fill="none" stroke="white" stroke-width="1.5" d="M0,-3.0v7 M-2.5,-0.5L0,-3.0L2.5,-0.5"/>
                </g>
                <g id="arrowRight" xlink:href="#dirArrow" transform="rotate(90) translate(36 -43)" onmousedown="handlePan(1,0)">
                  <use xlink:href="#rim" fill="#404040">
                        <set attributeName="fill" to="#808080" begin="arrowRight.mouseover" end="arrowRight.mouseout"/>
                  </use>
                  <path fill="none" stroke="white" stroke-width="1.5" d="M0,-3.0v7 M-2.5,-0.5L0,-3.0L2.5,-0.5"/>
                </g>
                <g id="arrowDown" xlink:href="#dirArrow" transform="rotate(180) translate(-30 -48)" onmousedown="handlePan(0,1)">
                  <use xlink:href="#rim" fill="#404040">
                        <set attributeName="fill" to="#808080" begin="arrowDown.mouseover" end="arrowDown.mouseout"/>
                  </use>
                  <path fill="none" stroke="white" stroke-width="1.5" d="M0,-3.0v7 M-2.5,-0.5L0,-3.0L2.5,-0.5"/>
                </g>
                <g id="arrowLeft" xlink:href="#dirArrow" transform="rotate(270) translate(-36 17)" onmousedown="handlePan(-1,0)">
                  <use xlink:href="#rim" fill="#404040">
                        <set attributeName="fill" to="#808080" begin="arrowLeft.mouseover" end="arrowLeft.mouseout"/>
                  </use>
                  <path fill="none" stroke="white" stroke-width="1.5" d="M0,-3.0v7 M-2.5,-0.5L0,-3.0L2.5,-0.5"/>
                </g>
        </g>
        <svg viewBox="0 0 15 15" width="100%" height="30px" preserveAspectRatio="xMaxYMin meet">
         <g id="arrow_out" transform="scale(0.3 0.3)">
          <a xlink:href="class_ro_r_1_1_g_u_i_1_1_friction_settings_ad1fbdeef906f93ca1147193f857311a1_cgraph_org.svg" target="_base">
           <rect id="button" ry="5" rx="5" y="6" x="6" height="38" width="38"
                fill="#f2f5e9" fill-opacity="0.5" stroke="#606060" stroke-width="1.0"/>
           <path id="arrow"
             d="M 11.500037,31.436501 C 11.940474,20.09759 22.043105,11.32322 32.158766,21.979434 L 37.068811,17.246167 C 37.068811,17.246167 37.088388,32 37.088388,32 L 22.160133,31.978069 C 22.160133,31.978069 26.997745,27.140456 26.997745,27.140456 C 18.528582,18.264221 13.291696,25.230495 11.500037,31.436501 z"
             style="fill:#404040;"/>
          </a>
         </g>
        </svg>
</svg>
