<?xml version="1.0" encoding="UTF-8" standalone="no"?>
<!DOCTYPE svg PUBLIC "-//W3C//DTD SVG 1.1//EN"
 "http://www.w3.org/Graphics/SVG/1.1/DTD/svg11.dtd">
<!-- Generated by graphviz version 2.38.0 (20140413.2041)
 -->
<!-- Title: RoR::GUI::FrictionSettings::setActiveCol Pages: 1 -->
<svg width="1163pt" height="66pt"
 viewBox="0.00 0.00 1163.00 66.00" xmlns="http://www.w3.org/2000/svg" xmlns:xlink="http://www.w3.org/1999/xlink">
<g id="graph0" class="graph" transform="scale(1 1) rotate(0) translate(4 62)">
<title>RoR::GUI::FrictionSettings::setActiveCol</title>
<polygon fill="white" stroke="none" points="-4,4 -4,-62 1159,-62 1159,4 -4,4"/>
<!-- Node291 -->
<g id="node1" class="node"><title>Node291</title>
<polygon fill="#bfbfbf" stroke="black" points="0,-14 0,-44 132,-44 132,-14 0,-14"/>
<text text-anchor="start" x="8" y="-32" font-family="Helvetica,sans-Serif" font-size="10.00">RoR::GUI::FrictionSettings</text>
<text text-anchor="middle" x="66" y="-21" font-family="Helvetica,sans-Serif" font-size="10.00">::setActiveCol</text>
</g>
<!-- Node292 -->
<g id="node2" class="node"><title>Node292</title>
<g id="a_node2"><a xlink:href="../../df/d32/class_ro_r_1_1_g_u_i_1_1_friction_settings.html#a1fece1fbdff4db9fda4c531c895dbbcf" target="_top" xlink:title="RoR::GUI::FrictionSettings\l::setCollisions">
<polygon fill="white" stroke="black" points="168,-14 168,-44 300,-44 300,-14 168,-14"/>
<text text-anchor="start" x="176" y="-32" font-family="Helvetica,sans-Serif" font-size="10.00">RoR::GUI::FrictionSettings</text>
<text text-anchor="middle" x="234" y="-21" font-family="Helvetica,sans-Serif" font-size="10.00">::setCollisions</text>
</a>
</g>
</g>
<!-- Node291&#45;&gt;Node292 -->
<g id="edge1" class="edge"><title>Node291&#45;&gt;Node292</title>
<path fill="none" stroke="midnightblue" d="M142.393,-29C150.869,-29 159.452,-29 167.784,-29"/>
<polygon fill="midnightblue" stroke="midnightblue" points="142.131,-25.5001 132.131,-29 142.131,-32.5001 142.131,-25.5001"/>
</g>
<!-- Node293 -->
<g id="node3" class="node"><title>Node293</title>
<g id="a_node3"><a xlink:href="../../d8/d11/class_ro_r_1_1_g_u_i_manager.html#af3a183d98bd761538aa6301c485805fb" target="_top" xlink:title="RoR::GUIManager::Friction\lSettingsUpdateCollisions">
<polygon fill="white" stroke="black" points="336,-14 336,-44 470,-44 470,-14 336,-14"/>
<text text-anchor="start" x="344" y="-32" font-family="Helvetica,sans-Serif" font-size="10.00">RoR::GUIManager::Friction</text>
<text text-anchor="middle" x="403" y="-21" font-family="Helvetica,sans-Serif" font-size="10.00">SettingsUpdateCollisions</text>
</a>
</g>
</g>
<!-- Node292&#45;&gt;Node293 -->
<g id="edge2" class="edge"><title>Node292&#45;&gt;Node293</title>
<path fill="none" stroke="midnightblue" d="M310.315,-29C318.8,-29 327.399,-29 335.757,-29"/>
<polygon fill="midnightblue" stroke="midnightblue" points="310.045,-25.5001 300.045,-29 310.045,-32.5001 310.045,-25.5001"/>
</g>
<!-- Node294 -->
<g id="node4" class="node"><title>Node294</title>
<g id="a_node4"><a xlink:href="../../dd/dbe/class_ro_r_frame_listener.html#a9757c059e840019a3e2659d5ef63ea02" target="_top" xlink:title="Reads GVar &#39;sim_terrain_pending&#39;. ">
<polygon fill="white" stroke="black" points="506,-19.5 506,-38.5 660,-38.5 660,-19.5 506,-19.5"/>
<text text-anchor="middle" x="583" y="-26.5" font-family="Helvetica,sans-Serif" font-size="10.00">RoRFrameListener::LoadTerrain</text>
</a>
</g>
</g>
<!-- Node293&#45;&gt;Node294 -->
<g id="edge3" class="edge"><title>Node293&#45;&gt;Node294</title>
<path fill="none" stroke="midnightblue" d="M480.273,-29C488.753,-29 497.391,-29 505.87,-29"/>
<polygon fill="midnightblue" stroke="midnightblue" points="480.028,-25.5001 470.028,-29 480.028,-32.5001 480.028,-25.5001"/>
</g>
<!-- Node295 -->
<g id="node5" class="node"><title>Node295</title>
<g id="a_node5"><a xlink:href="../../dd/dbe/class_ro_r_frame_listener.html#aca3931d7a75f2ad4b9d36c4fcd03a3c9" target="_top" xlink:title="RoRFrameListener::SetupGameplayLoop">
<polygon fill="white" stroke="black" points="696,-0.5 696,-19.5 890,-19.5 890,-0.5 696,-0.5"/>
<text text-anchor="middle" x="793" y="-7.5" font-family="Helvetica,sans-Serif" font-size="10.00">RoRFrameListener::SetupGameplayLoop</text>
</a>
</g>
</g>
<!-- Node294&#45;&gt;Node295 -->
<g id="edge4" class="edge"><title>Node294&#45;&gt;Node295</title>
<path fill="none" stroke="midnightblue" d="M670.434,-21.1046C678.843,-20.3365 687.41,-19.5539 695.906,-18.7779"/>
<polygon fill="midnightblue" stroke="midnightblue" points="669.911,-17.6377 660.27,-22.033 670.547,-24.6087 669.911,-17.6377"/>
</g>
<!-- Node296 -->
<g id="node6" class="node"><title>Node296</title>
<g id="a_node6"><a xlink:href="../../dd/dbe/class_ro_r_frame_listener.html#ad598075b5f183208c0de43b9248bb44b" target="_top" xlink:title="RoRFrameListener::getTime">
<polygon fill="white" stroke="black" points="926,-38.5 926,-57.5 1064,-57.5 1064,-38.5 926,-38.5"/>
<text text-anchor="middle" x="995" y="-45.5" font-family="Helvetica,sans-Serif" font-size="10.00">RoRFrameListener::getTime</text>
</a>
</g>
</g>
<!-- Node294&#45;&gt;Node296 -->
<g id="edge8" class="edge"><title>Node294&#45;&gt;Node296</title>
<path fill="none" stroke="midnightblue" d="M670.193,-32.9943C746.247,-36.5188 855.615,-41.5871 925.741,-44.8368"/>
<polygon fill="midnightblue" stroke="midnightblue" points="670.308,-29.496 660.157,-32.5292 669.984,-36.4885 670.308,-29.496"/>
</g>
<!-- Node295&#45;&gt;Node296 -->
<g id="edge5" class="edge"><title>Node295&#45;&gt;Node296</title>
<path fill="none" stroke="midnightblue" d="M854.095,-21.4181C882.712,-26.8552 916.543,-33.2832 943.769,-38.4561"/>
<polygon fill="midnightblue" stroke="midnightblue" points="854.688,-17.9682 844.21,-19.54 853.381,-24.8451 854.688,-17.9682"/>
</g>
<!-- Node297 -->
<g id="node7" class="node"><title>Node297</title>
<g id="a_node7"><a xlink:href="../../df/d0a/main_8cpp.html#a0ddf1224851353fc92bfbff6f499fa97" target="_top" xlink:title="main">
<polygon fill="white" stroke="black" points="976,-0.5 976,-19.5 1014,-19.5 1014,-0.5 976,-0.5"/>
<text text-anchor="middle" x="995" y="-7.5" font-family="Helvetica,sans-Serif" font-size="10.00">main</text>
</a>
</g>
</g>
<!-- Node295&#45;&gt;Node297 -->
<g id="edge6" class="edge"><title>Node295&#45;&gt;Node297</title>
<path fill="none" stroke="midnightblue" d="M900.516,-10C929.662,-10 958.067,-10 975.77,-10"/>
<polygon fill="midnightblue" stroke="midnightblue" points="900.192,-6.5001 890.192,-10 900.192,-13.5001 900.192,-6.5001"/>
</g>
<!-- Node298 -->
<g id="node8" class="node"><title>Node298</title>
<g id="a_node8"><a xlink:href="../../df/d0a/main_8cpp.html#a2922bc5d5c2d77a3020cfbf9df12aab0" target="_top" xlink:title="WinMain">
<polygon fill="white" stroke="black" points="1100,-0.5 1100,-19.5 1155,-19.5 1155,-0.5 1100,-0.5"/>
<text text-anchor="middle" x="1127.5" y="-7.5" font-family="Helvetica,sans-Serif" font-size="10.00">WinMain</text>
</a>
</g>
</g>
<!-- Node297&#45;&gt;Node298 -->
<g id="edge7" class="edge"><title>Node297&#45;&gt;Node298</title>
<path fill="none" stroke="midnightblue" d="M1024.39,-10C1046.84,-10 1077.96,-10 1099.92,-10"/>
<polygon fill="midnightblue" stroke="midnightblue" points="1024.15,-6.5001 1014.15,-10 1024.15,-13.5001 1024.15,-6.5001"/>
</g>
</g>
</svg>
