<?xml version="1.0" encoding="UTF-8" standalone="no"?>
<!DOCTYPE svg PUBLIC "-//W3C//DTD SVG 1.1//EN"
 "http://www.w3.org/Graphics/SVG/1.1/DTD/svg11.dtd">
<!-- Generated by graphviz version 2.38.0 (20140413.2041)
 -->
<!-- Title: RoR::GUI::FrictionSettings::setCollisions Pages: 1 -->
<svg width="995pt" height="66pt"
 viewBox="0.00 0.00 995.00 66.00" xmlns="http://www.w3.org/2000/svg" xmlns:xlink="http://www.w3.org/1999/xlink">
<g id="graph0" class="graph" transform="scale(1 1) rotate(0) translate(4 62)">
<title>RoR::GUI::FrictionSettings::setCollisions</title>
<polygon fill="white" stroke="none" points="-4,4 -4,-62 991,-62 991,4 -4,4"/>
<!-- Node319 -->
<g id="node1" class="node"><title>Node319</title>
<polygon fill="#bfbfbf" stroke="black" points="0,-14 0,-44 132,-44 132,-14 0,-14"/>
<text text-anchor="start" x="8" y="-32" font-family="Helvetica,sans-Serif" font-size="10.00">RoR::GUI::FrictionSettings</text>
<text text-anchor="middle" x="66" y="-21" font-family="Helvetica,sans-Serif" font-size="10.00">::setCollisions</text>
</g>
<!-- Node320 -->
<g id="node2" class="node"><title>Node320</title>
<g id="a_node2"><a xlink:href="../../d8/d11/class_ro_r_1_1_g_u_i_manager.html#af3a183d98bd761538aa6301c485805fb" target="_top" xlink:title="RoR::GUIManager::Friction\lSettingsUpdateCollisions">
<polygon fill="white" stroke="black" points="168,-14 168,-44 302,-44 302,-14 168,-14"/>
<text text-anchor="start" x="176" y="-32" font-family="Helvetica,sans-Serif" font-size="10.00">RoR::GUIManager::Friction</text>
<text text-anchor="middle" x="235" y="-21" font-family="Helvetica,sans-Serif" font-size="10.00">SettingsUpdateCollisions</text>
</a>
</g>
</g>
<!-- Node319&#45;&gt;Node320 -->
<g id="edge1" class="edge"><title>Node319&#45;&gt;Node320</title>
<path fill="none" stroke="midnightblue" d="M142.315,-29C150.8,-29 159.399,-29 167.757,-29"/>
<polygon fill="midnightblue" stroke="midnightblue" points="142.045,-25.5001 132.045,-29 142.045,-32.5001 142.045,-25.5001"/>
</g>
<!-- Node321 -->
<g id="node3" class="node"><title>Node321</title>
<g id="a_node3"><a xlink:href="../../dd/dbe/class_ro_r_frame_listener.html#a9757c059e840019a3e2659d5ef63ea02" target="_top" xlink:title="Reads GVar &#39;sim_terrain_pending&#39;. ">
<polygon fill="white" stroke="black" points="338,-19.5 338,-38.5 492,-38.5 492,-19.5 338,-19.5"/>
<text text-anchor="middle" x="415" y="-26.5" font-family="Helvetica,sans-Serif" font-size="10.00">RoRFrameListener::LoadTerrain</text>
</a>
</g>
</g>
<!-- Node320&#45;&gt;Node321 -->
<g id="edge2" class="edge"><title>Node320&#45;&gt;Node321</title>
<path fill="none" stroke="midnightblue" d="M312.273,-29C320.753,-29 329.391,-29 337.87,-29"/>
<polygon fill="midnightblue" stroke="midnightblue" points="312.028,-25.5001 302.028,-29 312.028,-32.5001 312.028,-25.5001"/>
</g>
<!-- Node322 -->
<g id="node4" class="node"><title>Node322</title>
<g id="a_node4"><a xlink:href="../../dd/dbe/class_ro_r_frame_listener.html#aca3931d7a75f2ad4b9d36c4fcd03a3c9" target="_top" xlink:title="RoRFrameListener::SetupGameplayLoop">
<polygon fill="white" stroke="black" points="528,-0.5 528,-19.5 722,-19.5 722,-0.5 528,-0.5"/>
<text text-anchor="middle" x="625" y="-7.5" font-family="Helvetica,sans-Serif" font-size="10.00">RoRFrameListener::SetupGameplayLoop</text>
</a>
</g>
</g>
<!-- Node321&#45;&gt;Node322 -->
<g id="edge3" class="edge"><title>Node321&#45;&gt;Node322</title>
<path fill="none" stroke="midnightblue" d="M502.434,-21.1046C510.843,-20.3365 519.41,-19.5539 527.906,-18.7779"/>
<polygon fill="midnightblue" stroke="midnightblue" points="501.911,-17.6377 492.27,-22.033 502.547,-24.6087 501.911,-17.6377"/>
</g>
<!-- Node323 -->
<g id="node5" class="node"><title>Node323</title>
<g id="a_node5"><a xlink:href="../../dd/dbe/class_ro_r_frame_listener.html#ad598075b5f183208c0de43b9248bb44b" target="_top" xlink:title="RoRFrameListener::getTime">
<polygon fill="white" stroke="black" points="758,-38.5 758,-57.5 896,-57.5 896,-38.5 758,-38.5"/>
<text text-anchor="middle" x="827" y="-45.5" font-family="Helvetica,sans-Serif" font-size="10.00">RoRFrameListener::getTime</text>
</a>
</g>
</g>
<!-- Node321&#45;&gt;Node323 -->
<g id="edge7" class="edge"><title>Node321&#45;&gt;Node323</title>
<path fill="none" stroke="midnightblue" d="M502.193,-32.9943C578.247,-36.5188 687.615,-41.5871 757.741,-44.8368"/>
<polygon fill="midnightblue" stroke="midnightblue" points="502.308,-29.496 492.157,-32.5292 501.984,-36.4885 502.308,-29.496"/>
</g>
<!-- Node322&#45;&gt;Node323 -->
<g id="edge4" class="edge"><title>Node322&#45;&gt;Node323</title>
<path fill="none" stroke="midnightblue" d="M686.095,-21.4181C714.712,-26.8552 748.543,-33.2832 775.769,-38.4561"/>
<polygon fill="midnightblue" stroke="midnightblue" points="686.688,-17.9682 676.21,-19.54 685.381,-24.8451 686.688,-17.9682"/>
</g>
<!-- Node324 -->
<g id="node6" class="node"><title>Node324</title>
<g id="a_node6"><a xlink:href="../../df/d0a/main_8cpp.html#a0ddf1224851353fc92bfbff6f499fa97" target="_top" xlink:title="main">
<polygon fill="white" stroke="black" points="808,-0.5 808,-19.5 846,-19.5 846,-0.5 808,-0.5"/>
<text text-anchor="middle" x="827" y="-7.5" font-family="Helvetica,sans-Serif" font-size="10.00">main</text>
</a>
</g>
</g>
<!-- Node322&#45;&gt;Node324 -->
<g id="edge5" class="edge"><title>Node322&#45;&gt;Node324</title>
<path fill="none" stroke="midnightblue" d="M732.516,-10C761.662,-10 790.067,-10 807.77,-10"/>
<polygon fill="midnightblue" stroke="midnightblue" points="732.192,-6.5001 722.192,-10 732.192,-13.5001 732.192,-6.5001"/>
</g>
<!-- Node325 -->
<g id="node7" class="node"><title>Node325</title>
<g id="a_node7"><a xlink:href="../../df/d0a/main_8cpp.html#a2922bc5d5c2d77a3020cfbf9df12aab0" target="_top" xlink:title="WinMain">
<polygon fill="white" stroke="black" points="932,-0.5 932,-19.5 987,-19.5 987,-0.5 932,-0.5"/>
<text text-anchor="middle" x="959.5" y="-7.5" font-family="Helvetica,sans-Serif" font-size="10.00">WinMain</text>
</a>
</g>
</g>
<!-- Node324&#45;&gt;Node325 -->
<g id="edge6" class="edge"><title>Node324&#45;&gt;Node325</title>
<path fill="none" stroke="midnightblue" d="M856.393,-10C878.844,-10 909.959,-10 931.924,-10"/>
<polygon fill="midnightblue" stroke="midnightblue" points="856.146,-6.5001 846.145,-10 856.145,-13.5001 856.146,-6.5001"/>
</g>
</g>
</svg>
