<?xml version="1.0" encoding="UTF-8" standalone="no"?>
<!DOCTYPE svg PUBLIC "-//W3C//DTD SVG 1.1//EN"
 "http://www.w3.org/Graphics/SVG/1.1/DTD/svg11.dtd">
<!-- Generated by graphviz version 2.38.0 (20140413.2041)
 -->
<!-- Title: RoR::GUI::MultiplayerSelector::IsVisible Pages: 1 -->
<svg width="355pt" height="186pt"
 viewBox="0.00 0.00 355.00 186.00" xmlns="http://www.w3.org/2000/svg" xmlns:xlink="http://www.w3.org/1999/xlink">
<g id="graph0" class="graph" transform="scale(1 1) rotate(0) translate(4 182)">
<title>RoR::GUI::MultiplayerSelector::IsVisible</title>
<polygon fill="white" stroke="none" points="-4,4 -4,-182 351,-182 351,4 -4,4"/>
<!-- Node500 -->
<g id="node1" class="node"><title>Node500</title>
<polygon fill="#bfbfbf" stroke="black" points="0,-73.5 0,-103.5 147,-103.5 147,-73.5 0,-73.5"/>
<text text-anchor="start" x="8" y="-91.5" font-family="Helvetica,sans-Serif" font-size="10.00">RoR::GUI::MultiplayerSelector</text>
<text text-anchor="middle" x="73.5" y="-80.5" font-family="Helvetica,sans-Serif" font-size="10.00">::IsVisible</text>
</g>
<!-- Node501 -->
<g id="node2" class="node"><title>Node501</title>
<g id="a_node2"><a xlink:href="../../d4/d8f/class_ro_r_1_1_g_u_i_1_1_multiplayer_selector.html#a2c826b868f4dd1ce69948e5420edb1f6" target="_top" xlink:title="RoR::GUI::MultiplayerSelector\l::RefreshServerlist">
<polygon fill="white" stroke="black" points="191.5,-147.5 191.5,-177.5 338.5,-177.5 338.5,-147.5 191.5,-147.5"/>
<text text-anchor="start" x="199.5" y="-165.5" font-family="Helvetica,sans-Serif" font-size="10.00">RoR::GUI::MultiplayerSelector</text>
<text text-anchor="middle" x="265" y="-154.5" font-family="Helvetica,sans-Serif" font-size="10.00">::RefreshServerlist</text>
</a>
</g>
</g>
<!-- Node500&#45;&gt;Node501 -->
<g id="edge1" class="edge"><title>Node500&#45;&gt;Node501</title>
<path fill="none" stroke="midnightblue" d="M104.404,-103.695C125.922,-114.278 155.824,-128.273 183,-138.5 188.364,-140.519 193.978,-142.48 199.641,-144.355"/>
<polygon fill="midnightblue" stroke="midnightblue" points="198.589,-147.694 209.18,-147.424 200.732,-141.03 198.589,-147.694"/>
</g>
<!-- Node502 -->
<g id="node3" class="node"><title>Node502</title>
<g id="a_node3"><a xlink:href="../../d4/d8f/class_ro_r_1_1_g_u_i_1_1_multiplayer_selector.html#a2d2bb899610862298e95175ade615d34" target="_top" xlink:title="Launch refresh from main thread. ">
<polygon fill="white" stroke="black" points="191.5,-98.5 191.5,-128.5 338.5,-128.5 338.5,-98.5 191.5,-98.5"/>
<text text-anchor="start" x="199.5" y="-116.5" font-family="Helvetica,sans-Serif" font-size="10.00">RoR::GUI::MultiplayerSelector</text>
<text text-anchor="middle" x="265" y="-105.5" font-family="Helvetica,sans-Serif" font-size="10.00">::IsRefreshThreadRunning</text>
</a>
</g>
</g>
<!-- Node500&#45;&gt;Node502 -->
<g id="edge2" class="edge"><title>Node500&#45;&gt;Node502</title>
<path fill="none" stroke="midnightblue" d="M147.224,-98.0942C158.445,-99.5745 170.102,-101.112 181.518,-102.618"/>
<polygon fill="midnightblue" stroke="midnightblue" points="181.099,-106.093 191.471,-103.932 182.015,-99.1536 181.099,-106.093"/>
</g>
<!-- Node503 -->
<g id="node4" class="node"><title>Node503</title>
<g id="a_node4"><a xlink:href="../../d4/d8f/class_ro_r_1_1_g_u_i_1_1_multiplayer_selector.html#a7b54edd645e7c4b349fc0e4b742992ea" target="_top" xlink:title="Check status from main thread. ">
<polygon fill="white" stroke="black" points="183,-49.5 183,-79.5 347,-79.5 347,-49.5 183,-49.5"/>
<text text-anchor="start" x="191" y="-67.5" font-family="Helvetica,sans-Serif" font-size="10.00">RoR::GUI::MultiplayerSelector</text>
<text text-anchor="middle" x="265" y="-56.5" font-family="Helvetica,sans-Serif" font-size="10.00">::CheckAndProcessRefreshResult</text>
</a>
</g>
</g>
<!-- Node500&#45;&gt;Node503 -->
<g id="edge3" class="edge"><title>Node500&#45;&gt;Node503</title>
<path fill="none" stroke="midnightblue" d="M147.224,-79.2896C155.626,-78.2255 164.273,-77.1304 172.88,-76.0403"/>
<polygon fill="midnightblue" stroke="midnightblue" points="173.467,-79.494 182.948,-74.7652 172.587,-72.5495 173.467,-79.494"/>
</g>
<!-- Node504 -->
<g id="node5" class="node"><title>Node504</title>
<g id="a_node5"><a xlink:href="../../d4/d8f/class_ro_r_1_1_g_u_i_1_1_multiplayer_selector.html#a57734195c3ec0bd24ecdeaa5be234a64" target="_top" xlink:title="To be invoked periodically from main thread if refresh is in progress. ">
<polygon fill="white" stroke="black" points="191.5,-0.5 191.5,-30.5 338.5,-30.5 338.5,-0.5 191.5,-0.5"/>
<text text-anchor="start" x="199.5" y="-18.5" font-family="Helvetica,sans-Serif" font-size="10.00">RoR::GUI::MultiplayerSelector</text>
<text text-anchor="middle" x="265" y="-7.5" font-family="Helvetica,sans-Serif" font-size="10.00">::Draw</text>
</a>
</g>
</g>
<!-- Node500&#45;&gt;Node504 -->
<g id="edge4" class="edge"><title>Node500&#45;&gt;Node504</title>
<path fill="none" stroke="midnightblue" d="M105.904,-73.4358C127.354,-63.4381 156.57,-50.3864 183,-40.5 189.205,-38.179 195.733,-35.9012 202.277,-33.7232"/>
<polygon fill="midnightblue" stroke="midnightblue" points="203.416,-37.0332 211.842,-30.6103 201.25,-30.3769 203.416,-37.0332"/>
</g>
</g>
</svg>
