<?xml version="1.0" encoding="UTF-8" standalone="no"?>
<!DOCTYPE svg PUBLIC "-//W3C//DTD SVG 1.1//EN"
 "http://www.w3.org/Graphics/SVG/1.1/DTD/svg11.dtd">
<!-- Generated by graphviz version 2.38.0 (20140413.2041)
 -->
<!-- Title: RoR::GUI::MultiplayerSelector::Draw Pages: 1 -->
<svg width="856pt" height="88pt"
 viewBox="0.00 0.00 856.00 88.00" xmlns="http://www.w3.org/2000/svg" xmlns:xlink="http://www.w3.org/1999/xlink">
<g id="graph0" class="graph" transform="scale(1 1) rotate(0) translate(4 84)">
<title>RoR::GUI::MultiplayerSelector::Draw</title>
<polygon fill="white" stroke="none" points="-4,4 -4,-84 852,-84 852,4 -4,4"/>
<!-- Node485 -->
<g id="node1" class="node"><title>Node485</title>
<polygon fill="#bfbfbf" stroke="black" points="0,-27.5 0,-57.5 147,-57.5 147,-27.5 0,-27.5"/>
<text text-anchor="start" x="8" y="-45.5" font-family="Helvetica,sans-Serif" font-size="10.00">RoR::GUI::MultiplayerSelector</text>
<text text-anchor="middle" x="73.5" y="-34.5" font-family="Helvetica,sans-Serif" font-size="10.00">::Draw</text>
</g>
<!-- Node486 -->
<g id="node2" class="node"><title>Node486</title>
<g id="a_node2"><a xlink:href="../../d8/d11/class_ro_r_1_1_g_u_i_manager.html#af75908cee15c6ce99cce1752387fca4f" target="_top" xlink:title="RoR::GUIManager::DrawMain\lMenuGui">
<polygon fill="white" stroke="black" points="366,-49.5 366,-79.5 510,-79.5 510,-49.5 366,-49.5"/>
<text text-anchor="start" x="374" y="-67.5" font-family="Helvetica,sans-Serif" font-size="10.00">RoR::GUIManager::DrawMain</text>
<text text-anchor="middle" x="438" y="-56.5" font-family="Helvetica,sans-Serif" font-size="10.00">MenuGui</text>
</a>
</g>
</g>
<!-- Node485&#45;&gt;Node486 -->
<g id="edge1" class="edge"><title>Node485&#45;&gt;Node486</title>
<path fill="none" stroke="midnightblue" d="M157.705,-47.5497C220.585,-51.3658 305.986,-56.5488 365.739,-60.1752"/>
<polygon fill="midnightblue" stroke="midnightblue" points="157.615,-44.0379 147.421,-46.9256 157.191,-51.025 157.615,-44.0379"/>
</g>
<!-- Node490 -->
<g id="node6" class="node"><title>Node490</title>
<g id="a_node6"><a xlink:href="../../d4/d8f/class_ro_r_1_1_g_u_i_1_1_multiplayer_selector.html#a79090daf60dbea79466a4d3243f5ea2b" target="_top" xlink:title="RoR::GUI::MultiplayerSelector\l::IsVisible">
<polygon fill="white" stroke="black" points="183,-5.5 183,-35.5 330,-35.5 330,-5.5 183,-5.5"/>
<text text-anchor="start" x="191" y="-23.5" font-family="Helvetica,sans-Serif" font-size="10.00">RoR::GUI::MultiplayerSelector</text>
<text text-anchor="middle" x="256.5" y="-12.5" font-family="Helvetica,sans-Serif" font-size="10.00">::IsVisible</text>
</a>
</g>
</g>
<!-- Node485&#45;&gt;Node490 -->
<g id="edge5" class="edge"><title>Node485&#45;&gt;Node490</title>
<path fill="none" stroke="midnightblue" d="M157.116,-32.4582C165.722,-31.4122 174.424,-30.3545 182.907,-29.3235"/>
<polygon fill="midnightblue" stroke="midnightblue" points="156.581,-28.9974 147.077,-33.6785 157.426,-35.9463 156.581,-28.9974"/>
</g>
<!-- Node487 -->
<g id="node3" class="node"><title>Node487</title>
<g id="a_node3"><a xlink:href="../../d4/d14/class_ro_r_1_1_main_menu.html#a582e508f1bb1578d1124260de49e438b" target="_top" xlink:title="RoR::MainMenu::EnterMain\lMenuLoop">
<polygon fill="white" stroke="black" points="546,-49.5 546,-79.5 683,-79.5 683,-49.5 546,-49.5"/>
<text text-anchor="start" x="554" y="-67.5" font-family="Helvetica,sans-Serif" font-size="10.00">RoR::MainMenu::EnterMain</text>
<text text-anchor="middle" x="614.5" y="-56.5" font-family="Helvetica,sans-Serif" font-size="10.00">MenuLoop</text>
</a>
</g>
</g>
<!-- Node486&#45;&gt;Node487 -->
<g id="edge2" class="edge"><title>Node486&#45;&gt;Node487</title>
<path fill="none" stroke="midnightblue" d="M520.243,-64.5C528.822,-64.5 537.478,-64.5 545.879,-64.5"/>
<polygon fill="midnightblue" stroke="midnightblue" points="520.228,-61.0001 510.228,-64.5 520.227,-68.0001 520.228,-61.0001"/>
</g>
<!-- Node488 -->
<g id="node4" class="node"><title>Node488</title>
<g id="a_node4"><a xlink:href="../../df/d0a/main_8cpp.html#a0ddf1224851353fc92bfbff6f499fa97" target="_top" xlink:title="main">
<polygon fill="white" stroke="black" points="719,-55 719,-74 757,-74 757,-55 719,-55"/>
<text text-anchor="middle" x="738" y="-62" font-family="Helvetica,sans-Serif" font-size="10.00">main</text>
</a>
</g>
</g>
<!-- Node487&#45;&gt;Node488 -->
<g id="edge3" class="edge"><title>Node487&#45;&gt;Node488</title>
<path fill="none" stroke="midnightblue" d="M693.013,-64.5C702.457,-64.5 711.315,-64.5 718.572,-64.5"/>
<polygon fill="midnightblue" stroke="midnightblue" points="693.001,-61.0001 683.001,-64.5 693.001,-68.0001 693.001,-61.0001"/>
</g>
<!-- Node489 -->
<g id="node5" class="node"><title>Node489</title>
<g id="a_node5"><a xlink:href="../../df/d0a/main_8cpp.html#a2922bc5d5c2d77a3020cfbf9df12aab0" target="_top" xlink:title="WinMain">
<polygon fill="white" stroke="black" points="793,-55 793,-74 848,-74 848,-55 793,-55"/>
<text text-anchor="middle" x="820.5" y="-62" font-family="Helvetica,sans-Serif" font-size="10.00">WinMain</text>
</a>
</g>
</g>
<!-- Node488&#45;&gt;Node489 -->
<g id="edge4" class="edge"><title>Node488&#45;&gt;Node489</title>
<path fill="none" stroke="midnightblue" d="M767.519,-64.5C775.73,-64.5 784.653,-64.5 792.752,-64.5"/>
<polygon fill="midnightblue" stroke="midnightblue" points="767.267,-61.0001 757.267,-64.5 767.267,-68.0001 767.267,-61.0001"/>
</g>
<!-- Node490&#45;&gt;Node486 -->
<g id="edge7" class="edge"><title>Node490&#45;&gt;Node486</title>
<path fill="none" stroke="midnightblue" d="M328.833,-37.9855C344.342,-41.7873 360.619,-45.777 375.7,-49.4738"/>
<polygon fill="midnightblue" stroke="midnightblue" points="329.317,-34.5007 318.772,-35.5192 327.651,-41.2994 329.317,-34.5007"/>
</g>
<!-- Node491 -->
<g id="node7" class="node"><title>Node491</title>
<g id="a_node7"><a xlink:href="../../d8/d11/class_ro_r_1_1_g_u_i_manager.html#a74dca32230f1a1cf6560f0fabc7b04bc" target="_top" xlink:title="RoR::GUIManager::IsVisible\l_MultiplayerSelector">
<polygon fill="white" stroke="black" points="369,-0.5 369,-30.5 507,-30.5 507,-0.5 369,-0.5"/>
<text text-anchor="start" x="377" y="-18.5" font-family="Helvetica,sans-Serif" font-size="10.00">RoR::GUIManager::IsVisible</text>
<text text-anchor="middle" x="438" y="-7.5" font-family="Helvetica,sans-Serif" font-size="10.00">_MultiplayerSelector</text>
</a>
</g>
</g>
<!-- Node490&#45;&gt;Node491 -->
<g id="edge6" class="edge"><title>Node490&#45;&gt;Node491</title>
<path fill="none" stroke="midnightblue" d="M340.476,-18.1887C349.954,-17.9247 359.533,-17.6578 368.788,-17.4"/>
<polygon fill="midnightblue" stroke="midnightblue" points="340.149,-14.6963 330.251,-18.4735 340.344,-21.6936 340.149,-14.6963"/>
</g>
</g>
</svg>
