<?xml version="1.0" encoding="UTF-8" standalone="no"?>
<!DOCTYPE svg PUBLIC "-//W3C//DTD SVG 1.1//EN"
 "http://www.w3.org/Graphics/SVG/1.1/DTD/svg11.dtd">
<!-- Generated by graphviz version 2.38.0 (20140413.2041)
 -->
<!-- Title: SkyX::VCloudsManager::remove Pages: 1 -->
<!--zoomable 161 -->
<svg id="main" version="1.1" xmlns="http://www.w3.org/2000/svg" xmlns:xlink="http://www.w3.org/1999/xlink" xml:space="preserve" onload="init(evt)">
<style type="text/css"><![CDATA[
.edge:hover path { stroke: red; }
.edge:hover polygon { stroke: red; fill: red; }
]]></style>
<script type="text/javascript"><![CDATA[
var edges = document.getElementsByTagName('g');
if (edges && edges.length) {
  for (var i=0;i<edges.length;i++) {
    if (edges[i].id.substr(0,4)=='edge') {
      edges[i].setAttribute('class','edge');
    }
  }
}
]]></script>
        <defs>
                <circle id="rim" cx="0" cy="0" r="7"/>
                <circle id="rim2" cx="0" cy="0" r="3.5"/>
                <g id="zoomPlus">
                        <use xlink:href="#rim" fill="#404040">
                                <set attributeName="fill" to="#808080" begin="zoomplus.mouseover" end="zoomplus.mouseout"/>
                        </use>
                        <path d="M-4,0h8M0,-4v8" fill="none" stroke="white" stroke-width="1.5" pointer-events="none"/>
                </g>
                <g id="zoomMin">
                        <use xlink:href="#rim" fill="#404040">
                                <set attributeName="fill" to="#808080" begin="zoomminus.mouseover" end="zoomminus.mouseout"/>
                        </use>
                        <path d="M-4,0h8" fill="none" stroke="white" stroke-width="1.5" pointer-events="none"/>
                </g>
                <g id="dirArrow">
                        <path fill="none" stroke="white" stroke-width="1.5" d="M0,-3.0v7 M-2.5,-0.5L0,-3.0L2.5,-0.5"/>
                </g>
               <g id="resetDef">
                       <use xlink:href="#rim2" fill="#404040">
                               <set attributeName="fill" to="#808080" begin="reset.mouseover" end="reset.mouseout"/>
                       </use>
               </g>
        </defs>

<script type="text/javascript">
var viewWidth = 674;
var viewHeight = 161;
var sectionId = 'dynsection-12';
</script>
<script xlink:href="../../svgpan.js"/>
<svg id="graph" class="graph">
<g id="viewport">
<title>SkyX::VCloudsManager::remove</title>
<polygon fill="white" stroke="none" points="-4,4 -4,-157 670,-157 670,4 -4,4"/>
<!-- Node121 -->
<g id="node1" class="node"><title>Node121</title>
<polygon fill="#bfbfbf" stroke="black" points="0,-73.5 0,-103.5 119,-103.5 119,-73.5 0,-73.5"/>
<text text-anchor="start" x="8" y="-91.5" font-family="Helvetica,sans-Serif" font-size="10.00">SkyX::VCloudsManager</text>
<text text-anchor="middle" x="59.5" y="-80.5" font-family="Helvetica,sans-Serif" font-size="10.00">::remove</text>
</g>
<!-- Node122 -->
<g id="node2" class="node"><title>Node122</title>
<g id="a_node2"><a xlink:href="../../d5/db6/class_sky_x_1_1_v_clouds_1_1_v_clouds.html#a8f86c13cd02a3611ee4313c5aff7f7af" target="_top" xlink:title="SkyX::VClouds::VClouds\l::remove">
<polygon fill="white" stroke="black" points="155,-73.5 155,-103.5 280,-103.5 280,-73.5 155,-73.5"/>
<text text-anchor="start" x="163" y="-91.5" font-family="Helvetica,sans-Serif" font-size="10.00">SkyX::VClouds::VClouds</text>
<text text-anchor="middle" x="217.5" y="-80.5" font-family="Helvetica,sans-Serif" font-size="10.00">::remove</text>
</a>
</g>
</g>
<!-- Node121&#45;&gt;Node122 -->
<g id="edge1" class="edge"><title>Node121&#45;&gt;Node122</title>
<path fill="none" stroke="midnightblue" d="M119.032,-88.5C127.421,-88.5 136.131,-88.5 144.739,-88.5"/>
<polygon fill="midnightblue" stroke="midnightblue" points="144.772,-92.0001 154.772,-88.5 144.772,-85.0001 144.772,-92.0001"/>
</g>
<!-- Node123 -->
<g id="node3" class="node"><title>Node123</title>
<g id="a_node3"><a xlink:href="../../dd/d4b/class_sky_x_1_1_v_clouds_1_1_data_manager.html#a069a873fead42946b0bdb47e09faf3eb" target="_top" xlink:title="SkyX::VClouds::DataManager\l::remove">
<polygon fill="white" stroke="black" points="327,-122.5 327,-152.5 473,-152.5 473,-122.5 327,-122.5"/>
<text text-anchor="start" x="335" y="-140.5" font-family="Helvetica,sans-Serif" font-size="10.00">SkyX::VClouds::DataManager</text>
<text text-anchor="middle" x="400" y="-129.5" font-family="Helvetica,sans-Serif" font-size="10.00">::remove</text>
</a>
</g>
</g>
<!-- Node122&#45;&gt;Node123 -->
<g id="edge2" class="edge"><title>Node122&#45;&gt;Node123</title>
<path fill="none" stroke="midnightblue" d="M274.129,-103.601C293.003,-108.725 314.259,-114.496 333.811,-119.803"/>
<polygon fill="midnightblue" stroke="midnightblue" points="332.987,-123.206 343.555,-122.448 334.821,-116.451 332.987,-123.206"/>
</g>
<!-- Node125 -->
<g id="node5" class="node"><title>Node125</title>
<g id="a_node5"><a xlink:href="../../d4/da3/class_sky_x_1_1_v_clouds_1_1_geometry_manager.html#af14282258d6344459623306d9891665a" target="_top" xlink:title="SkyX::VClouds::GeometryManager\l::remove">
<polygon fill="white" stroke="black" points="316,-73.5 316,-103.5 484,-103.5 484,-73.5 316,-73.5"/>
<text text-anchor="start" x="324" y="-91.5" font-family="Helvetica,sans-Serif" font-size="10.00">SkyX::VClouds::GeometryManager</text>
<text text-anchor="middle" x="400" y="-80.5" font-family="Helvetica,sans-Serif" font-size="10.00">::remove</text>
</a>
</g>
</g>
<!-- Node122&#45;&gt;Node125 -->
<g id="edge4" class="edge"><title>Node122&#45;&gt;Node125</title>
<path fill="none" stroke="midnightblue" d="M280.113,-88.5C288.408,-88.5 297.062,-88.5 305.754,-88.5"/>
<polygon fill="midnightblue" stroke="midnightblue" points="305.955,-92.0001 315.955,-88.5 305.955,-85.0001 305.955,-92.0001"/>
</g>
<!-- Node126 -->
<g id="node6" class="node"><title>Node126</title>
<g id="a_node6"><a xlink:href="../../d2/df0/class_sky_x_1_1_v_clouds_1_1_lightning_manager.html#ad07185c17b74bc56735d78a478a27e33" target="_top" xlink:title="SkyX::VClouds::Lightning\lManager::remove">
<polygon fill="white" stroke="black" points="336.5,-24.5 336.5,-54.5 463.5,-54.5 463.5,-24.5 336.5,-24.5"/>
<text text-anchor="start" x="344.5" y="-42.5" font-family="Helvetica,sans-Serif" font-size="10.00">SkyX::VClouds::Lightning</text>
<text text-anchor="middle" x="400" y="-31.5" font-family="Helvetica,sans-Serif" font-size="10.00">Manager::remove</text>
</a>
</g>
</g>
<!-- Node122&#45;&gt;Node126 -->
<g id="edge5" class="edge"><title>Node122&#45;&gt;Node126</title>
<path fill="none" stroke="midnightblue" d="M274.129,-73.3986C293.003,-68.2747 314.259,-62.5044 333.811,-57.1968"/>
<polygon fill="midnightblue" stroke="midnightblue" points="334.821,-60.5493 343.555,-54.5516 332.987,-53.7938 334.821,-60.5493"/>
</g>
<!-- Node124 -->
<g id="node4" class="node"><title>Node124</title>
<g id="a_node4"><a xlink:href="../../dd/d4b/class_sky_x_1_1_v_clouds_1_1_data_manager.html#ae73a95d3b5c4f6ea8e6b9f9e9981f100" target="_top" xlink:title="SkyX::VClouds::DataManager\l::_delete3DCellArray">
<polygon fill="white" stroke="black" points="520,-122.5 520,-152.5 666,-152.5 666,-122.5 520,-122.5"/>
<text text-anchor="start" x="528" y="-140.5" font-family="Helvetica,sans-Serif" font-size="10.00">SkyX::VClouds::DataManager</text>
<text text-anchor="middle" x="593" y="-129.5" font-family="Helvetica,sans-Serif" font-size="10.00">::_delete3DCellArray</text>
</a>
</g>
</g>
<!-- Node123&#45;&gt;Node124 -->
<g id="edge3" class="edge"><title>Node123&#45;&gt;Node124</title>
<path fill="none" stroke="midnightblue" d="M473.209,-137.5C485.093,-137.5 497.49,-137.5 509.601,-137.5"/>
<polygon fill="midnightblue" stroke="midnightblue" points="509.689,-141 519.689,-137.5 509.689,-134 509.689,-141"/>
</g>
<!-- Node127 -->
<g id="node7" class="node"><title>Node127</title>
<g id="a_node7"><a xlink:href="../../d5/db6/class_sky_x_1_1_v_clouds_1_1_v_clouds.html#aee8b0ecfb2bdd63cb589833f1894cc7d" target="_top" xlink:title="SkyX::VClouds::VClouds\l::getSceneManager">
<polygon fill="white" stroke="black" points="530.5,-49.5 530.5,-79.5 655.5,-79.5 655.5,-49.5 530.5,-49.5"/>
<text text-anchor="start" x="538.5" y="-67.5" font-family="Helvetica,sans-Serif" font-size="10.00">SkyX::VClouds::VClouds</text>
<text text-anchor="middle" x="593" y="-56.5" font-family="Helvetica,sans-Serif" font-size="10.00">::getSceneManager</text>
</a>
</g>
</g>
<!-- Node126&#45;&gt;Node127 -->
<g id="edge6" class="edge"><title>Node126&#45;&gt;Node127</title>
<path fill="none" stroke="midnightblue" d="M463.541,-47.6859C481.708,-50.0639 501.69,-52.6793 520.37,-55.1243"/>
<polygon fill="midnightblue" stroke="midnightblue" points="519.927,-58.5962 530.297,-56.4237 520.836,-51.6554 519.927,-58.5962"/>
</g>
<!-- Node128 -->
<g id="node8" class="node"><title>Node128</title>
<g id="a_node8"><a xlink:href="../../d2/df0/class_sky_x_1_1_v_clouds_1_1_lightning_manager.html#abb2285a1427ba12c630a46ef1e05f38f" target="_top" xlink:title="SkyX::VClouds::Lightning\lManager::removeListeners">
<polygon fill="white" stroke="black" points="527.5,-0.5 527.5,-30.5 658.5,-30.5 658.5,-0.5 527.5,-0.5"/>
<text text-anchor="start" x="535.5" y="-18.5" font-family="Helvetica,sans-Serif" font-size="10.00">SkyX::VClouds::Lightning</text>
<text text-anchor="middle" x="593" y="-7.5" font-family="Helvetica,sans-Serif" font-size="10.00">Manager::removeListeners</text>
</a>
</g>
</g>
<!-- Node126&#45;&gt;Node128 -->
<g id="edge7" class="edge"><title>Node126&#45;&gt;Node128</title>
<path fill="none" stroke="midnightblue" d="M463.541,-31.6415C480.639,-29.4931 499.343,-27.1427 517.057,-24.9169"/>
<polygon fill="midnightblue" stroke="midnightblue" points="517.867,-28.3427 527.353,-23.6232 516.994,-21.3973 517.867,-28.3427"/>
</g>
</g>
</svg>
        <g id="navigator" transform="translate(0 0)" fill="#404254">
                <rect fill="#f2f5e9" fill-opacity="0.5" stroke="#606060" stroke-width=".5" x="0" y="0" width="60" height="60"/>
                <use id="zoomplus" xlink:href="#zoomPlus" x="17" y="9" onmousedown="handleZoom(evt,'in')"/>
                <use id="zoomminus" xlink:href="#zoomMin" x="42" y="9" onmousedown="handleZoom(evt,'out')"/>
                <use id="reset" xlink:href="#resetDef" x="30" y="36" onmousedown="handleReset()"/>
                <g id="arrowUp" xlink:href="#dirArrow" transform="translate(30 24)" onmousedown="handlePan(0,-1)">
                  <use xlink:href="#rim" fill="#404040">
                        <set attributeName="fill" to="#808080" begin="arrowUp.mouseover" end="arrowUp.mouseout"/>
                  </use>
                  <path fill="none" stroke="white" stroke-width="1.5" d="M0,-3.0v7 M-2.5,-0.5L0,-3.0L2.5,-0.5"/>
                </g>
                <g id="arrowRight" xlink:href="#dirArrow" transform="rotate(90) translate(36 -43)" onmousedown="handlePan(1,0)">
                  <use xlink:href="#rim" fill="#404040">
                        <set attributeName="fill" to="#808080" begin="arrowRight.mouseover" end="arrowRight.mouseout"/>
                  </use>
                  <path fill="none" stroke="white" stroke-width="1.5" d="M0,-3.0v7 M-2.5,-0.5L0,-3.0L2.5,-0.5"/>
                </g>
                <g id="arrowDown" xlink:href="#dirArrow" transform="rotate(180) translate(-30 -48)" onmousedown="handlePan(0,1)">
                  <use xlink:href="#rim" fill="#404040">
                        <set attributeName="fill" to="#808080" begin="arrowDown.mouseover" end="arrowDown.mouseout"/>
                  </use>
                  <path fill="none" stroke="white" stroke-width="1.5" d="M0,-3.0v7 M-2.5,-0.5L0,-3.0L2.5,-0.5"/>
                </g>
                <g id="arrowLeft" xlink:href="#dirArrow" transform="rotate(270) translate(-36 17)" onmousedown="handlePan(-1,0)">
                  <use xlink:href="#rim" fill="#404040">
                        <set attributeName="fill" to="#808080" begin="arrowLeft.mouseover" end="arrowLeft.mouseout"/>
                  </use>
                  <path fill="none" stroke="white" stroke-width="1.5" d="M0,-3.0v7 M-2.5,-0.5L0,-3.0L2.5,-0.5"/>
                </g>
        </g>
        <svg viewBox="0 0 15 15" width="100%" height="30px" preserveAspectRatio="xMaxYMin meet">
         <g id="arrow_out" transform="scale(0.3 0.3)">
          <a xlink:href="class_sky_x_1_1_v_clouds_manager_a4c90b53d3b9446bb6b1060a7c9524b60_cgraph_org.svg" target="_base">
           <rect id="button" ry="5" rx="5" y="6" x="6" height="38" width="38"
                fill="#f2f5e9" fill-opacity="0.5" stroke="#606060" stroke-width="1.0"/>
           <path id="arrow"
             d="M 11.500037,31.436501 C 11.940474,20.09759 22.043105,11.32322 32.158766,21.979434 L 37.068811,17.246167 C 37.068811,17.246167 37.088388,32 37.088388,32 L 22.160133,31.978069 C 22.160133,31.978069 26.997745,27.140456 26.997745,27.140456 C 18.528582,18.264221 13.291696,25.230495 11.500037,31.436501 z"
             style="fill:#404040;"/>
          </a>
         </g>
        </svg>
</svg>
