<?xml version="1.0" encoding="UTF-8" standalone="no"?>
<!DOCTYPE svg PUBLIC "-//W3C//DTD SVG 1.1//EN"
 "http://www.w3.org/Graphics/SVG/1.1/DTD/svg11.dtd">
<!-- Generated by graphviz version 2.38.0 (20140413.2041)
 -->
<!-- Title: Hydrax::Module::ProjectedGrid::_calculeWorldPosition Pages: 1 -->
<svg width="649pt" height="88pt"
 viewBox="0.00 0.00 649.00 88.00" xmlns="http://www.w3.org/2000/svg" xmlns:xlink="http://www.w3.org/1999/xlink">
<g id="graph0" class="graph" transform="scale(1 1) rotate(0) translate(4 84)">
<title>Hydrax::Module::ProjectedGrid::_calculeWorldPosition</title>
<polygon fill="white" stroke="none" points="-4,4 -4,-84 645,-84 645,4 -4,4"/>
<!-- Node44 -->
<g id="node1" class="node"><title>Node44</title>
<polygon fill="#bfbfbf" stroke="black" points="0,-22.5 0,-52.5 137,-52.5 137,-22.5 0,-22.5"/>
<text text-anchor="start" x="8" y="-40.5" font-family="Helvetica,sans-Serif" font-size="10.00">Hydrax::Module::Projected</text>
<text text-anchor="middle" x="68.5" y="-29.5" font-family="Helvetica,sans-Serif" font-size="10.00">Grid::_calculeWorldPosition</text>
</g>
<!-- Node45 -->
<g id="node2" class="node"><title>Node45</title>
<g id="a_node2"><a xlink:href="../../de/dda/class_hydrax_1_1_module_1_1_projected_grid.html#af39d939aed099aa3b91010a4ed824dbf" target="_top" xlink:title="Hydrax::Module::Projected\lGrid::_renderGeometry">
<polygon fill="white" stroke="black" points="173,-44.5 173,-74.5 305,-74.5 305,-44.5 173,-44.5"/>
<text text-anchor="start" x="181" y="-62.5" font-family="Helvetica,sans-Serif" font-size="10.00">Hydrax::Module::Projected</text>
<text text-anchor="middle" x="239" y="-51.5" font-family="Helvetica,sans-Serif" font-size="10.00">Grid::_renderGeometry</text>
</a>
</g>
</g>
<!-- Node44&#45;&gt;Node45 -->
<g id="edge1" class="edge"><title>Node44&#45;&gt;Node45</title>
<path fill="none" stroke="midnightblue" d="M147.116,-47.6339C155.734,-48.7591 164.445,-49.8964 172.886,-50.9984"/>
<polygon fill="midnightblue" stroke="midnightblue" points="147.434,-44.1457 137.065,-46.3215 146.527,-51.0868 147.434,-44.1457"/>
</g>
<!-- Node48 -->
<g id="node5" class="node"><title>Node48</title>
<g id="a_node5"><a xlink:href="../../de/dda/class_hydrax_1_1_module_1_1_projected_grid.html#aad6048f032e364d568660d046ca7dad9" target="_top" xlink:title="Hydrax::Module::Projected\lGrid::getOptions">
<polygon fill="white" stroke="black" points="341,-0.5 341,-30.5 473,-30.5 473,-0.5 341,-0.5"/>
<text text-anchor="start" x="349" y="-18.5" font-family="Helvetica,sans-Serif" font-size="10.00">Hydrax::Module::Projected</text>
<text text-anchor="middle" x="407" y="-7.5" font-family="Helvetica,sans-Serif" font-size="10.00">Grid::getOptions</text>
</a>
</g>
</g>
<!-- Node44&#45;&gt;Node48 -->
<g id="edge5" class="edge"><title>Node44&#45;&gt;Node48</title>
<path fill="none" stroke="midnightblue" d="M147.529,-32.3986C206.224,-28.5611 285.721,-23.3637 340.99,-19.7503"/>
<polygon fill="midnightblue" stroke="midnightblue" points="146.941,-28.9294 137.191,-33.0744 147.398,-35.9145 146.941,-28.9294"/>
</g>
<!-- Node46 -->
<g id="node3" class="node"><title>Node46</title>
<g id="a_node3"><a xlink:href="../../de/dda/class_hydrax_1_1_module_1_1_projected_grid.html#a8d7a8efcd6b7fd0e4313c9114bd2c061" target="_top" xlink:title="Hydrax::Module::Projected\lGrid::update">
<polygon fill="white" stroke="black" points="341,-49.5 341,-79.5 473,-79.5 473,-49.5 341,-49.5"/>
<text text-anchor="start" x="349" y="-67.5" font-family="Helvetica,sans-Serif" font-size="10.00">Hydrax::Module::Projected</text>
<text text-anchor="middle" x="407" y="-56.5" font-family="Helvetica,sans-Serif" font-size="10.00">Grid::update</text>
</a>
</g>
</g>
<!-- Node45&#45;&gt;Node46 -->
<g id="edge2" class="edge"><title>Node45&#45;&gt;Node46</title>
<path fill="none" stroke="midnightblue" d="M315.393,-61.7709C323.869,-62.0262 332.452,-62.2847 340.784,-62.5357"/>
<polygon fill="midnightblue" stroke="midnightblue" points="315.232,-58.2645 305.131,-61.4618 315.021,-65.2614 315.232,-58.2645"/>
</g>
<!-- Node45&#45;&gt;Node48 -->
<g id="edge4" class="edge"><title>Node45&#45;&gt;Node48</title>
<path fill="none" stroke="midnightblue" d="M306.378,-41.9059C320.598,-38.1368 335.496,-34.1878 349.31,-30.5262"/>
<polygon fill="midnightblue" stroke="midnightblue" points="305.433,-38.5354 296.663,-44.4808 307.226,-45.3017 305.433,-38.5354"/>
</g>
<!-- Node47 -->
<g id="node4" class="node"><title>Node47</title>
<g id="a_node4"><a xlink:href="../../d8/d61/struct_hydrax_1_1_module_1_1_projected_grid_1_1_options.html#a74bb8c6be631094b762eeace24422509" target="_top" xlink:title="Hydrax::Module::Projected\lGrid::Options::Options">
<polygon fill="white" stroke="black" points="509,-49.5 509,-79.5 641,-79.5 641,-49.5 509,-49.5"/>
<text text-anchor="start" x="517" y="-67.5" font-family="Helvetica,sans-Serif" font-size="10.00">Hydrax::Module::Projected</text>
<text text-anchor="middle" x="575" y="-56.5" font-family="Helvetica,sans-Serif" font-size="10.00">Grid::Options::Options</text>
</a>
</g>
</g>
<!-- Node46&#45;&gt;Node47 -->
<g id="edge3" class="edge"><title>Node46&#45;&gt;Node47</title>
<path fill="none" stroke="midnightblue" d="M483.393,-64.5C491.869,-64.5 500.452,-64.5 508.784,-64.5"/>
<polygon fill="midnightblue" stroke="midnightblue" points="483.131,-61.0001 473.131,-64.5 483.131,-68.0001 483.131,-61.0001"/>
</g>
</g>
</svg>
