<?xml version="1.0" encoding="UTF-8" standalone="no"?>
<!DOCTYPE svg PUBLIC "-//W3C//DTD SVG 1.1//EN"
 "http://www.w3.org/Graphics/SVG/1.1/DTD/svg11.dtd">
<!-- Generated by graphviz version 2.38.0 (20140413.2041)
 -->
<!-- Title: Hydrax::Module::ProjectedGrid::_performChoppyWaves Pages: 1 -->
<svg width="318pt" height="88pt"
 viewBox="0.00 0.00 318.00 88.00" xmlns="http://www.w3.org/2000/svg" xmlns:xlink="http://www.w3.org/1999/xlink">
<g id="graph0" class="graph" transform="scale(1 1) rotate(0) translate(4 84)">
<title>Hydrax::Module::ProjectedGrid::_performChoppyWaves</title>
<polygon fill="white" stroke="none" points="-4,4 -4,-84 314,-84 314,4 -4,4"/>
<!-- Node56 -->
<g id="node1" class="node"><title>Node56</title>
<polygon fill="#bfbfbf" stroke="black" points="0,-24.5 0,-54.5 140,-54.5 140,-24.5 0,-24.5"/>
<text text-anchor="start" x="8" y="-42.5" font-family="Helvetica,sans-Serif" font-size="10.00">Hydrax::Module::Projected</text>
<text text-anchor="middle" x="70" y="-31.5" font-family="Helvetica,sans-Serif" font-size="10.00">Grid::_performChoppyWaves</text>
</g>
<!-- Node57 -->
<g id="node2" class="node"><title>Node57</title>
<g id="a_node2"><a xlink:href="../../d9/d88/class_hydrax_1_1_module_1_1_module.html#a522cdc115b168a9d73d9ae27d0ff997a" target="_top" xlink:title="Hydrax::Module::Module\l::getNormalMode">
<polygon fill="white" stroke="black" points="182,-49.5 182,-79.5 304,-79.5 304,-49.5 182,-49.5"/>
<text text-anchor="start" x="190" y="-67.5" font-family="Helvetica,sans-Serif" font-size="10.00">Hydrax::Module::Module</text>
<text text-anchor="middle" x="243" y="-56.5" font-family="Helvetica,sans-Serif" font-size="10.00">::getNormalMode</text>
</a>
</g>
</g>
<!-- Node56&#45;&gt;Node57 -->
<g id="edge1" class="edge"><title>Node56&#45;&gt;Node57</title>
<path fill="none" stroke="midnightblue" d="M140.059,-49.5964C150.526,-51.1266 161.334,-52.7067 171.823,-54.2403"/>
<polygon fill="midnightblue" stroke="midnightblue" points="171.36,-57.7097 181.762,-55.6932 172.373,-50.7833 171.36,-57.7097"/>
</g>
<!-- Node58 -->
<g id="node3" class="node"><title>Node58</title>
<g id="a_node3"><a xlink:href="../../dd/d65/class_hydrax_1_1_hydrax.html#aa2e090a9b1b0847b6017c8893e86dc3a" target="_top" xlink:title="Hydrax::Hydrax::_isCurrent\lFrameUnderwater">
<polygon fill="white" stroke="black" points="176,-0.5 176,-30.5 310,-30.5 310,-0.5 176,-0.5"/>
<text text-anchor="start" x="184" y="-18.5" font-family="Helvetica,sans-Serif" font-size="10.00">Hydrax::Hydrax::_isCurrent</text>
<text text-anchor="middle" x="243" y="-7.5" font-family="Helvetica,sans-Serif" font-size="10.00">FrameUnderwater</text>
</a>
</g>
</g>
<!-- Node56&#45;&gt;Node58 -->
<g id="edge2" class="edge"><title>Node56&#45;&gt;Node58</title>
<path fill="none" stroke="midnightblue" d="M140.059,-29.8075C148.52,-28.6199 157.205,-27.4011 165.764,-26.1998"/>
<polygon fill="midnightblue" stroke="midnightblue" points="166.317,-29.6566 175.733,-24.8006 165.344,-22.7246 166.317,-29.6566"/>
</g>
</g>
</svg>
