<?xml version="1.0" encoding="UTF-8" standalone="no"?>
<!DOCTYPE svg PUBLIC "-//W3C//DTD SVG 1.1//EN"
 "http://www.w3.org/Graphics/SVG/1.1/DTD/svg11.dtd">
<!-- Generated by graphviz version 2.38.0 (20140413.2041)
 -->
<!-- Title: SkyX::CloudLayer::_updateInternalPassParameters Pages: 1 -->
<svg width="621pt" height="83pt"
 viewBox="0.00 0.00 621.00 83.00" xmlns="http://www.w3.org/2000/svg" xmlns:xlink="http://www.w3.org/1999/xlink">
<g id="graph0" class="graph" transform="scale(1 1) rotate(0) translate(4 79)">
<title>SkyX::CloudLayer::_updateInternalPassParameters</title>
<polygon fill="white" stroke="none" points="-4,4 -4,-79 617,-79 617,4 -4,4"/>
<!-- Node72 -->
<g id="node1" class="node"><title>Node72</title>
<polygon fill="#bfbfbf" stroke="black" points="0,-22.5 0,-52.5 155,-52.5 155,-22.5 0,-22.5"/>
<text text-anchor="start" x="8" y="-40.5" font-family="Helvetica,sans-Serif" font-size="10.00">SkyX::CloudLayer::</text>
<text text-anchor="middle" x="77.5" y="-29.5" font-family="Helvetica,sans-Serif" font-size="10.00">_updateInternalPassParameters</text>
</g>
<!-- Node73 -->
<g id="node2" class="node"><title>Node73</title>
<g id="a_node2"><a xlink:href="../../d6/d50/class_sky_x_1_1_cloud_layer.html#add18a961fbd1e2a0f2c700694d4c1069" target="_top" xlink:title="SkyX::CloudLayer::\l_registerCloudLayer">
<polygon fill="white" stroke="black" points="191,-44.5 191,-74.5 294,-74.5 294,-44.5 191,-44.5"/>
<text text-anchor="start" x="199" y="-62.5" font-family="Helvetica,sans-Serif" font-size="10.00">SkyX::CloudLayer::</text>
<text text-anchor="middle" x="242.5" y="-51.5" font-family="Helvetica,sans-Serif" font-size="10.00">_registerCloudLayer</text>
</a>
</g>
</g>
<!-- Node72&#45;&gt;Node73 -->
<g id="edge1" class="edge"><title>Node72&#45;&gt;Node73</title>
<path fill="none" stroke="midnightblue" d="M165.409,-49.23C174.07,-50.399 182.649,-51.5569 190.753,-52.6507"/>
<polygon fill="midnightblue" stroke="midnightblue" points="165.605,-45.7249 155.227,-47.8558 164.669,-52.662 165.605,-45.7249"/>
</g>
<!-- Node76 -->
<g id="node5" class="node"><title>Node76</title>
<g id="a_node5"><a xlink:href="../../d6/d50/class_sky_x_1_1_cloud_layer.html#ab0033e0fd011bd90fde4bed4e0966ea2" target="_top" xlink:title="SkyX::CloudLayer::getSun\lGradient">
<polygon fill="white" stroke="black" points="331.5,-0.5 331.5,-30.5 462.5,-30.5 462.5,-0.5 331.5,-0.5"/>
<text text-anchor="start" x="339.5" y="-18.5" font-family="Helvetica,sans-Serif" font-size="10.00">SkyX::CloudLayer::getSun</text>
<text text-anchor="middle" x="397" y="-7.5" font-family="Helvetica,sans-Serif" font-size="10.00">Gradient</text>
</a>
</g>
</g>
<!-- Node72&#45;&gt;Node76 -->
<g id="edge5" class="edge"><title>Node72&#45;&gt;Node76</title>
<path fill="none" stroke="midnightblue" d="M165.651,-31.4612C218.042,-27.831 283.593,-23.2888 331.357,-19.9792"/>
<polygon fill="midnightblue" stroke="midnightblue" points="165.092,-27.9914 155.358,-32.1744 165.576,-34.9747 165.092,-27.9914"/>
</g>
<!-- Node74 -->
<g id="node3" class="node"><title>Node74</title>
<g id="a_node3"><a xlink:href="../../dd/d89/class_sky_x_1_1_clouds_manager.html#a49f0f35194ca5363129f38e4958f26de" target="_top" xlink:title="SkyX::CloudsManager::add">
<polygon fill="white" stroke="black" points="330,-50 330,-69 464,-69 464,-50 330,-50"/>
<text text-anchor="middle" x="397" y="-57" font-family="Helvetica,sans-Serif" font-size="10.00">SkyX::CloudsManager::add</text>
</a>
</g>
</g>
<!-- Node73&#45;&gt;Node74 -->
<g id="edge2" class="edge"><title>Node73&#45;&gt;Node74</title>
<path fill="none" stroke="midnightblue" d="M304.386,-59.5C312.8,-59.5 321.475,-59.5 329.977,-59.5"/>
<polygon fill="midnightblue" stroke="midnightblue" points="304.28,-56.0001 294.28,-59.5 304.28,-63.0001 304.28,-56.0001"/>
</g>
<!-- Node73&#45;&gt;Node76 -->
<g id="edge4" class="edge"><title>Node73&#45;&gt;Node76</title>
<path fill="none" stroke="midnightblue" d="M304.176,-41.9936C317.316,-38.2022 331.101,-34.225 343.878,-30.5385"/>
<polygon fill="midnightblue" stroke="midnightblue" points="302.918,-38.7136 294.28,-44.8486 304.859,-45.4392 302.918,-38.7136"/>
</g>
<!-- Node75 -->
<g id="node4" class="node"><title>Node75</title>
<g id="a_node4"><a xlink:href="../../d6/de7/class_sky_x_1_1_cfg_file_manager.html#a38d52b744527dc5b536243e8f549eb7d" target="_top" xlink:title="SkyX::CfgFileManager\l::load">
<polygon fill="white" stroke="black" points="500,-44.5 500,-74.5 613,-74.5 613,-44.5 500,-44.5"/>
<text text-anchor="start" x="508" y="-62.5" font-family="Helvetica,sans-Serif" font-size="10.00">SkyX::CfgFileManager</text>
<text text-anchor="middle" x="556.5" y="-51.5" font-family="Helvetica,sans-Serif" font-size="10.00">::load</text>
</a>
</g>
</g>
<!-- Node74&#45;&gt;Node75 -->
<g id="edge3" class="edge"><title>Node74&#45;&gt;Node75</title>
<path fill="none" stroke="midnightblue" d="M474.613,-59.5C483.072,-59.5 491.564,-59.5 499.698,-59.5"/>
<polygon fill="midnightblue" stroke="midnightblue" points="474.338,-56.0001 464.338,-59.5 474.338,-63.0001 474.338,-56.0001"/>
</g>
</g>
</svg>
