<?xml version="1.0" encoding="UTF-8" standalone="no"?>
<!DOCTYPE svg PUBLIC "-//W3C//DTD SVG 1.1//EN"
 "http://www.w3.org/Graphics/SVG/1.1/DTD/svg11.dtd">
<!-- Generated by graphviz version 2.38.0 (20140413.2041)
 -->
<!-- Title: GameScript::useOnlineAPI Pages: 1 -->
<!--zoomable 451 -->
<svg id="main" version="1.1" xmlns="http://www.w3.org/2000/svg" xmlns:xlink="http://www.w3.org/1999/xlink" xml:space="preserve" onload="init(evt)">
<style type="text/css"><![CDATA[
.edge:hover path { stroke: red; }
.edge:hover polygon { stroke: red; fill: red; }
]]></style>
<script type="text/javascript"><![CDATA[
var edges = document.getElementsByTagName('g');
if (edges && edges.length) {
  for (var i=0;i<edges.length;i++) {
    if (edges[i].id.substr(0,4)=='edge') {
      edges[i].setAttribute('class','edge');
    }
  }
}
]]></script>
        <defs>
                <circle id="rim" cx="0" cy="0" r="7"/>
                <circle id="rim2" cx="0" cy="0" r="3.5"/>
                <g id="zoomPlus">
                        <use xlink:href="#rim" fill="#404040">
                                <set attributeName="fill" to="#808080" begin="zoomplus.mouseover" end="zoomplus.mouseout"/>
                        </use>
                        <path d="M-4,0h8M0,-4v8" fill="none" stroke="white" stroke-width="1.5" pointer-events="none"/>
                </g>
                <g id="zoomMin">
                        <use xlink:href="#rim" fill="#404040">
                                <set attributeName="fill" to="#808080" begin="zoomminus.mouseover" end="zoomminus.mouseout"/>
                        </use>
                        <path d="M-4,0h8" fill="none" stroke="white" stroke-width="1.5" pointer-events="none"/>
                </g>
                <g id="dirArrow">
                        <path fill="none" stroke="white" stroke-width="1.5" d="M0,-3.0v7 M-2.5,-0.5L0,-3.0L2.5,-0.5"/>
                </g>
               <g id="resetDef">
                       <use xlink:href="#rim2" fill="#404040">
                               <set attributeName="fill" to="#808080" begin="reset.mouseover" end="reset.mouseout"/>
                       </use>
               </g>
        </defs>

<script type="text/javascript">
var viewWidth = 1341;
var viewHeight = 451;
var sectionId = 'dynsection-38';
</script>
<script xlink:href="../../svgpan.js"/>
<svg id="graph" class="graph">
<g id="viewport">
<title>GameScript::useOnlineAPI</title>
<polygon fill="white" stroke="none" points="-4,4 -4,-446.5 1337,-446.5 1337,4 -4,4"/>
<!-- Node296 -->
<g id="node1" class="node"><title>Node296</title>
<polygon fill="#bfbfbf" stroke="black" points="0,-296 0,-315 134,-315 134,-296 0,-296"/>
<text text-anchor="middle" x="67" y="-303" font-family="Helvetica,sans-Serif" font-size="10.00">GameScript::useOnlineAPI</text>
</g>
<!-- Node297 -->
<g id="node2" class="node"><title>Node297</title>
<g id="a_node2"><a xlink:href="../../df/d86/namespace_ro_r_1_1_app.html#aa04ed1e7b697aa1f33f1bb1297cb3e48" target="_top" xlink:title="RoR::App::GetConsole">
<polygon fill="white" stroke="black" points="401,-420 401,-439 517,-439 517,-420 401,-420"/>
<text text-anchor="middle" x="459" y="-427" font-family="Helvetica,sans-Serif" font-size="10.00">RoR::App::GetConsole</text>
</a>
</g>
</g>
<!-- Node296&#45;&gt;Node297 -->
<g id="edge1" class="edge"><title>Node296&#45;&gt;Node297</title>
<path fill="none" stroke="midnightblue" d="M79.7284,-315.229C97.8903,-329.776 134.444,-357.029 170,-371.5 242.345,-400.944 331.197,-415.916 390.917,-423.194"/>
<polygon fill="midnightblue" stroke="midnightblue" points="390.64,-426.686 400.981,-424.381 391.46,-419.734 390.64,-426.686"/>
</g>
<!-- Node299 -->
<g id="node4" class="node"><title>Node299</title>
<g id="a_node4"><a xlink:href="../../d0/d9f/class_ro_r_1_1_console.html#a6883dfc6a1d760581a917e101b6357c5" target="_top" xlink:title="RoR::Console::putMessage">
<polygon fill="white" stroke="black" points="391,-382 391,-401 527,-401 527,-382 391,-382"/>
<text text-anchor="middle" x="459" y="-389" font-family="Helvetica,sans-Serif" font-size="10.00">RoR::Console::putMessage</text>
</a>
</g>
</g>
<!-- Node296&#45;&gt;Node299 -->
<g id="edge3" class="edge"><title>Node296&#45;&gt;Node299</title>
<path fill="none" stroke="midnightblue" d="M91.5559,-315.083C112.007,-323.094 142.565,-334.331 170,-341.5 240.404,-359.897 322.294,-373.372 380.715,-381.667"/>
<polygon fill="midnightblue" stroke="midnightblue" points="380.587,-385.183 390.976,-383.105 381.559,-378.251 380.587,-385.183"/>
</g>
<!-- Node301 -->
<g id="node6" class="node"><title>Node301</title>
<g id="a_node6"><a xlink:href="../../df/d86/namespace_ro_r_1_1_app.html#a68d6403d2b36006a6fa2d28f5ba8f12f" target="_top" xlink:title="RoR::App::GetGuiManager">
<polygon fill="white" stroke="black" points="392.5,-344 392.5,-363 525.5,-363 525.5,-344 392.5,-344"/>
<text text-anchor="middle" x="459" y="-351" font-family="Helvetica,sans-Serif" font-size="10.00">RoR::App::GetGuiManager</text>
</a>
</g>
</g>
<!-- Node296&#45;&gt;Node301 -->
<g id="edge5" class="edge"><title>Node296&#45;&gt;Node301</title>
<path fill="none" stroke="midnightblue" d="M134.158,-313.643C202.823,-322.094 310.068,-335.293 382.127,-344.162"/>
<polygon fill="midnightblue" stroke="midnightblue" points="382.142,-347.69 392.494,-345.438 382.997,-340.742 382.142,-347.69"/>
</g>
<!-- Node302 -->
<g id="node7" class="node"><title>Node302</title>
<g id="a_node7"><a xlink:href="../../d8/d11/class_ro_r_1_1_g_u_i_manager.html#a534a8e82d1b92384767ab1c555126bba" target="_top" xlink:title="RoR::GUIManager::PushNotification">
<polygon fill="white" stroke="black" points="373,-104 373,-123 545,-123 545,-104 373,-104"/>
<text text-anchor="middle" x="459" y="-111" font-family="Helvetica,sans-Serif" font-size="10.00">RoR::GUIManager::PushNotification</text>
</a>
</g>
</g>
<!-- Node296&#45;&gt;Node302 -->
<g id="edge6" class="edge"><title>Node296&#45;&gt;Node302</title>
<path fill="none" stroke="midnightblue" d="M81.5537,-295.833C123.053,-266.683 252.864,-178.812 373,-132.5 379.693,-129.92 386.824,-127.644 394.001,-125.647"/>
<polygon fill="midnightblue" stroke="midnightblue" points="394.988,-129.007 403.78,-123.096 393.22,-122.234 394.988,-129.007"/>
</g>
<!-- Node304 -->
<g id="node9" class="node"><title>Node304</title>
<g id="a_node9"><a xlink:href="../../d9/da3/_application_8h.html#ac91efe9de379ef0fde6e0c6f369dfb35" target="_top" xlink:title="Legacy alias &#45; formerly a macro. ">
<polygon fill="white" stroke="black" points="440.5,-66 440.5,-85 477.5,-85 477.5,-66 440.5,-66"/>
<text text-anchor="middle" x="459" y="-73" font-family="Helvetica,sans-Serif" font-size="10.00">LOG</text>
</a>
</g>
</g>
<!-- Node296&#45;&gt;Node304 -->
<g id="edge8" class="edge"><title>Node296&#45;&gt;Node304</title>
<path fill="none" stroke="midnightblue" d="M71.2888,-295.85C81.2995,-267.986 114.171,-186.829 170,-146.5 251.206,-87.8384 375.297,-77.3318 430.206,-75.6683"/>
<polygon fill="midnightblue" stroke="midnightblue" points="430.314,-79.1669 440.233,-75.4419 430.156,-72.1686 430.314,-79.1669"/>
</g>
<!-- Node306 -->
<g id="node11" class="node"><title>Node306</title>
<g id="a_node11"><a xlink:href="../../d5/de5/class_game_script.html#a8c02937795d82f6bc0de53d8e939993d" target="_top" xlink:title="GameScript::useOnlineAPIDirectly">
<polygon fill="white" stroke="black" points="170,-268 170,-287 337,-287 337,-268 170,-268"/>
<text text-anchor="middle" x="253.5" y="-275" font-family="Helvetica,sans-Serif" font-size="10.00">GameScript::useOnlineAPIDirectly</text>
</a>
</g>
</g>
<!-- Node296&#45;&gt;Node306 -->
<g id="edge10" class="edge"><title>Node296&#45;&gt;Node306</title>
<path fill="none" stroke="midnightblue" d="M130.721,-295.981C146.466,-293.592 163.494,-291.008 179.685,-288.55"/>
<polygon fill="midnightblue" stroke="midnightblue" points="180.278,-292.001 189.639,-287.04 179.227,-285.08 180.278,-292.001"/>
</g>
<!-- Node298 -->
<g id="node3" class="node"><title>Node298</title>
<g id="a_node3"><a xlink:href="../../d8/d11/class_ro_r_1_1_g_u_i_manager.html#a982bc848eb4330aa9e57a54bfc60d975" target="_top" xlink:title="RoR::GUIManager::GetConsole">
<polygon fill="white" stroke="black" points="581,-423 581,-442 733,-442 733,-423 581,-423"/>
<text text-anchor="middle" x="657" y="-430" font-family="Helvetica,sans-Serif" font-size="10.00">RoR::GUIManager::GetConsole</text>
</a>
</g>
</g>
<!-- Node297&#45;&gt;Node298 -->
<g id="edge2" class="edge"><title>Node297&#45;&gt;Node298</title>
<path fill="none" stroke="midnightblue" d="M517.218,-430.376C533.92,-430.631 552.545,-430.917 570.591,-431.193"/>
<polygon fill="midnightblue" stroke="midnightblue" points="570.782,-434.696 580.834,-431.35 570.889,-427.697 570.782,-434.696"/>
</g>
<!-- Node300 -->
<g id="node5" class="node"><title>Node300</title>
<g id="a_node5"><a xlink:href="../../dd/df6/class_inter_thread_store_vector.html#a88d3f7e3e3ce109e13af1c46a12a50b0" target="_top" xlink:title="InterThreadStoreVector\l\&lt; ConsoleMessage \&gt;::push">
<polygon fill="white" stroke="black" points="588.5,-373.5 588.5,-403.5 725.5,-403.5 725.5,-373.5 588.5,-373.5"/>
<text text-anchor="start" x="596.5" y="-391.5" font-family="Helvetica,sans-Serif" font-size="10.00">InterThreadStoreVector</text>
<text text-anchor="middle" x="657" y="-380.5" font-family="Helvetica,sans-Serif" font-size="10.00">&lt; ConsoleMessage &gt;::push</text>
</a>
</g>
</g>
<!-- Node299&#45;&gt;Node300 -->
<g id="edge4" class="edge"><title>Node299&#45;&gt;Node300</title>
<path fill="none" stroke="midnightblue" d="M527.178,-390.472C543.513,-390.222 561.12,-389.952 577.913,-389.695"/>
<polygon fill="midnightblue" stroke="midnightblue" points="578.299,-393.19 588.245,-389.537 578.192,-386.191 578.299,-393.19"/>
</g>
<!-- Node303 -->
<g id="node8" class="node"><title>Node303</title>
<g id="a_node8"><a xlink:href="../../db/d12/class_ro_r_1_1_g_u_i_1_1_sim_utils.html#ac18f8c423994b93276f5f33b22e53d41" target="_top" xlink:title="RoR::GUI::SimUtils\l::PushNotification">
<polygon fill="white" stroke="black" points="606.5,-98.5 606.5,-128.5 707.5,-128.5 707.5,-98.5 606.5,-98.5"/>
<text text-anchor="start" x="614.5" y="-116.5" font-family="Helvetica,sans-Serif" font-size="10.00">RoR::GUI::SimUtils</text>
<text text-anchor="middle" x="657" y="-105.5" font-family="Helvetica,sans-Serif" font-size="10.00">::PushNotification</text>
</a>
</g>
</g>
<!-- Node302&#45;&gt;Node303 -->
<g id="edge7" class="edge"><title>Node302&#45;&gt;Node303</title>
<path fill="none" stroke="midnightblue" d="M545.113,-113.5C562.232,-113.5 579.885,-113.5 595.933,-113.5"/>
<polygon fill="midnightblue" stroke="midnightblue" points="596.225,-117 606.225,-113.5 596.225,-110 596.225,-117"/>
</g>
<!-- Node305 -->
<g id="node10" class="node"><title>Node305</title>
<g id="a_node10"><a xlink:href="../../dd/dd2/namespace_ro_r.html#a15fdb48aba128c41a9c75357c2282694" target="_top" xlink:title="The ultimate, application&#45;wide logging function. Adds a line (any length) in &#39;RoR.log&#39; file. ">
<polygon fill="white" stroke="black" points="628.5,-60 628.5,-79 685.5,-79 685.5,-60 628.5,-60"/>
<text text-anchor="middle" x="657" y="-67" font-family="Helvetica,sans-Serif" font-size="10.00">RoR::Log</text>
</a>
</g>
</g>
<!-- Node304&#45;&gt;Node305 -->
<g id="edge9" class="edge"><title>Node304&#45;&gt;Node305</title>
<path fill="none" stroke="midnightblue" d="M477.739,-74.957C509.273,-73.9916 575.737,-71.957 618,-70.6633"/>
<polygon fill="midnightblue" stroke="midnightblue" points="618.299,-74.1559 628.187,-70.3514 618.085,-67.1591 618.299,-74.1559"/>
</g>
<!-- Node306&#45;&gt;Node297 -->
<g id="edge16" class="edge"><title>Node306&#45;&gt;Node297</title>
<path fill="none" stroke="midnightblue" d="M260.01,-287.044C274.815,-311.768 318.08,-378.214 373,-410.5 378.56,-413.769 384.628,-416.476 390.879,-418.717"/>
<polygon fill="midnightblue" stroke="midnightblue" points="390.216,-422.179 400.806,-421.871 392.335,-415.508 390.216,-422.179"/>
</g>
<!-- Node306&#45;&gt;Node299 -->
<g id="edge17" class="edge"><title>Node306&#45;&gt;Node299</title>
<path fill="none" stroke="midnightblue" d="M263.3,-287.021C281.701,-306.323 326.416,-350.121 373,-372.5 378.026,-374.914 383.368,-377.028 388.83,-378.876"/>
<polygon fill="midnightblue" stroke="midnightblue" points="388.163,-382.333 398.75,-381.926 390.22,-375.642 388.163,-382.333"/>
</g>
<!-- Node306&#45;&gt;Node301 -->
<g id="edge39" class="edge"><title>Node306&#45;&gt;Node301</title>
<path fill="none" stroke="midnightblue" d="M271.248,-287.073C293.742,-299.573 335.258,-321.398 373,-334.5 380.433,-337.08 388.355,-339.396 396.262,-341.449"/>
<polygon fill="midnightblue" stroke="midnightblue" points="395.682,-344.911 406.229,-343.909 397.359,-338.115 395.682,-344.911"/>
</g>
<!-- Node306&#45;&gt;Node302 -->
<g id="edge40" class="edge"><title>Node306&#45;&gt;Node302</title>
<path fill="none" stroke="midnightblue" d="M264.855,-267.921C281.22,-252.501 313.603,-220.823 337,-190.5 355.534,-166.479 348.265,-150.069 373,-132.5 375.712,-130.574 378.586,-128.838 381.573,-127.275"/>
<polygon fill="midnightblue" stroke="midnightblue" points="383.164,-130.396 390.829,-123.082 380.276,-124.02 383.164,-130.396"/>
</g>
<!-- Node306&#45;&gt;Node304 -->
<g id="edge15" class="edge"><title>Node306&#45;&gt;Node304</title>
<path fill="none" stroke="midnightblue" d="M257.806,-267.643C268.736,-236.658 306.829,-140.555 373,-94.5 389.65,-82.9116 412.193,-78.251 429.879,-76.4398"/>
<polygon fill="midnightblue" stroke="midnightblue" points="430.468,-79.9048 440.168,-75.6438 429.928,-72.9257 430.468,-79.9048"/>
</g>
<!-- Node307 -->
<g id="node12" class="node"><title>Node307</title>
<g id="a_node12"><a xlink:href="../../df/df9/class_beam.html#a0550cfe159057ed02364c9425f279265" target="_top" xlink:title="Beam::getTruckName">
<polygon fill="white" stroke="black" points="403.5,-306 403.5,-325 514.5,-325 514.5,-306 403.5,-306"/>
<text text-anchor="middle" x="459" y="-313" font-family="Helvetica,sans-Serif" font-size="10.00">Beam::getTruckName</text>
</a>
</g>
</g>
<!-- Node306&#45;&gt;Node307 -->
<g id="edge11" class="edge"><title>Node306&#45;&gt;Node307</title>
<path fill="none" stroke="midnightblue" d="M305.589,-287.04C333.288,-292.212 367.711,-298.64 396.831,-304.078"/>
<polygon fill="midnightblue" stroke="midnightblue" points="396.417,-307.561 406.89,-305.956 397.702,-300.68 396.417,-307.561"/>
</g>
<!-- Node308 -->
<g id="node13" class="node"><title>Node308</title>
<g id="a_node13"><a xlink:href="../../df/df9/class_beam.html#a7c810f9fc80089c7d43bc799bccf182d" target="_top" xlink:title="Beam::getTruckFileName">
<polygon fill="white" stroke="black" points="395.5,-268 395.5,-287 522.5,-287 522.5,-268 395.5,-268"/>
<text text-anchor="middle" x="459" y="-275" font-family="Helvetica,sans-Serif" font-size="10.00">Beam::getTruckFileName</text>
</a>
</g>
</g>
<!-- Node306&#45;&gt;Node308 -->
<g id="edge12" class="edge"><title>Node306&#45;&gt;Node308</title>
<path fill="none" stroke="midnightblue" d="M337.271,-277.5C353.158,-277.5 369.685,-277.5 385.228,-277.5"/>
<polygon fill="midnightblue" stroke="midnightblue" points="385.283,-281 395.283,-277.5 385.283,-274 385.283,-281"/>
</g>
<!-- Node309 -->
<g id="node14" class="node"><title>Node309</title>
<g id="a_node14"><a xlink:href="../../df/d86/namespace_ro_r_1_1_app.html#ab0161218de3dc36879f3e69b84238eba" target="_top" xlink:title="RoR::App::GetOgreSubsystem">
<polygon fill="white" stroke="black" points="383.5,-230 383.5,-249 534.5,-249 534.5,-230 383.5,-230"/>
<text text-anchor="middle" x="459" y="-237" font-family="Helvetica,sans-Serif" font-size="10.00">RoR::App::GetOgreSubsystem</text>
</a>
</g>
</g>
<!-- Node306&#45;&gt;Node309 -->
<g id="edge13" class="edge"><title>Node306&#45;&gt;Node309</title>
<path fill="none" stroke="midnightblue" d="M305.589,-267.96C333.288,-262.788 367.711,-256.36 396.831,-250.922"/>
<polygon fill="midnightblue" stroke="midnightblue" points="397.702,-254.32 406.89,-249.044 396.417,-247.439 397.702,-254.32"/>
</g>
<!-- Node310 -->
<g id="node15" class="node"><title>Node310</title>
<g id="a_node15"><a xlink:href="../../df/db5/class_ro_r_1_1_ogre_subsystem.html#aec5be99797f9add72578fb1fbfec582f" target="_top" xlink:title="RoR::OgreSubsystem\l::GetRenderWindow">
<polygon fill="white" stroke="black" points="403,-180.5 403,-210.5 515,-210.5 515,-180.5 403,-180.5"/>
<text text-anchor="start" x="411" y="-198.5" font-family="Helvetica,sans-Serif" font-size="10.00">RoR::OgreSubsystem</text>
<text text-anchor="middle" x="459" y="-187.5" font-family="Helvetica,sans-Serif" font-size="10.00">::GetRenderWindow</text>
</a>
</g>
</g>
<!-- Node306&#45;&gt;Node310 -->
<g id="edge14" class="edge"><title>Node306&#45;&gt;Node310</title>
<path fill="none" stroke="midnightblue" d="M272.168,-267.881C294.981,-255.725 336.138,-234.679 373,-220.5 379.366,-218.051 386.077,-215.701 392.823,-213.488"/>
<polygon fill="midnightblue" stroke="midnightblue" points="394.225,-216.715 402.694,-210.349 392.104,-210.044 394.225,-216.715"/>
</g>
<!-- Node311 -->
<g id="node16" class="node"><title>Node311</title>
<g id="a_node16"><a xlink:href="../../d6/dad/_utils_8cpp.html#aebe76599ecdd7fc4db8b64cba0beb94e" target="_top" xlink:title="ANSI_TO_UTF">
<polygon fill="white" stroke="black" points="419,-142 419,-161 499,-161 499,-142 419,-142"/>
<text text-anchor="middle" x="459" y="-149" font-family="Helvetica,sans-Serif" font-size="10.00">ANSI_TO_UTF</text>
</a>
</g>
</g>
<!-- Node306&#45;&gt;Node311 -->
<g id="edge18" class="edge"><title>Node306&#45;&gt;Node311</title>
<path fill="none" stroke="midnightblue" d="M262.263,-267.851C279.703,-246.857 324.289,-196.886 373,-171.5 384.028,-165.753 396.716,-161.635 408.868,-158.693"/>
<polygon fill="midnightblue" stroke="midnightblue" points="409.886,-162.053 418.902,-156.488 408.383,-155.216 409.886,-162.053"/>
</g>
<!-- Node312 -->
<g id="node17" class="node"><title>Node312</title>
<g id="a_node17"><a xlink:href="../../da/d4c/namespace_ro_r_1_1_utils.html#ac62ee4a4a513a67cba1bdc7d9eb9c7a4" target="_top" xlink:title="RoR::Utils::SanitizeUtf8\lString">
<polygon fill="white" stroke="black" points="597.5,-147.5 597.5,-177.5 716.5,-177.5 716.5,-147.5 597.5,-147.5"/>
<text text-anchor="start" x="605.5" y="-165.5" font-family="Helvetica,sans-Serif" font-size="10.00">RoR::Utils::SanitizeUtf8</text>
<text text-anchor="middle" x="657" y="-154.5" font-family="Helvetica,sans-Serif" font-size="10.00">String</text>
</a>
</g>
</g>
<!-- Node311&#45;&gt;Node312 -->
<g id="edge19" class="edge"><title>Node311&#45;&gt;Node312</title>
<path fill="none" stroke="midnightblue" d="M499.192,-153.7C524.275,-155.107 557.515,-156.973 586.933,-158.624"/>
<polygon fill="midnightblue" stroke="midnightblue" points="586.979,-162.132 597.159,-159.198 587.371,-155.143 586.979,-162.132"/>
</g>
<!-- Node313 -->
<g id="node18" class="node"><title>Node313</title>
<g id="a_node18"><a xlink:href="../../dd/de8/namespaceutf8.html#a07dcd36a2185e5c9f0b19dd88859cd6c" target="_top" xlink:title="utf8::replace_invalid">
<polygon fill="white" stroke="black" points="769,-153 769,-172 870,-172 870,-153 769,-153"/>
<text text-anchor="middle" x="819.5" y="-160" font-family="Helvetica,sans-Serif" font-size="10.00">utf8::replace_invalid</text>
</a>
</g>
</g>
<!-- Node312&#45;&gt;Node313 -->
<g id="edge20" class="edge"><title>Node312&#45;&gt;Node313</title>
<path fill="none" stroke="midnightblue" d="M716.853,-162.5C730.47,-162.5 744.974,-162.5 758.634,-162.5"/>
<polygon fill="midnightblue" stroke="midnightblue" points="758.886,-166 768.886,-162.5 758.886,-159 758.886,-166"/>
</g>
<!-- Node314 -->
<g id="node19" class="node"><title>Node314</title>
<g id="a_node19"><a xlink:href="../../d0/d96/namespaceutf8_1_1internal.html#abe95547575fcc81911e381df03f8ebfe" target="_top" xlink:title="utf8::internal::validate_next">
<polygon fill="white" stroke="black" points="906,-153 906,-172 1038,-172 1038,-153 906,-153"/>
<text text-anchor="middle" x="972" y="-160" font-family="Helvetica,sans-Serif" font-size="10.00">utf8::internal::validate_next</text>
</a>
</g>
</g>
<!-- Node313&#45;&gt;Node314 -->
<g id="edge21" class="edge"><title>Node313&#45;&gt;Node314</title>
<path fill="none" stroke="midnightblue" d="M870.196,-162.5C878.381,-162.5 887.024,-162.5 895.667,-162.5"/>
<polygon fill="midnightblue" stroke="midnightblue" points="895.788,-166 905.788,-162.5 895.788,-159 895.788,-166"/>
</g>
<!-- Node324 -->
<g id="node29" class="node"><title>Node324</title>
<g id="a_node29"><a xlink:href="../../dd/de8/namespaceutf8.html#a3827e78596fc38cfdebd721e9c45c901" target="_top" xlink:title="The library API &#45; functions intended to be called by the users. ">
<polygon fill="white" stroke="black" points="937,-61 937,-80 1007,-80 1007,-61 937,-61"/>
<text text-anchor="middle" x="972" y="-68" font-family="Helvetica,sans-Serif" font-size="10.00">utf8::append</text>
</a>
</g>
</g>
<!-- Node313&#45;&gt;Node324 -->
<g id="edge35" class="edge"><title>Node313&#45;&gt;Node324</title>
<path fill="none" stroke="midnightblue" d="M836.322,-152.828C862.585,-136.774 915.365,-104.51 946.482,-85.4877"/>
<polygon fill="midnightblue" stroke="midnightblue" points="948.684,-88.2441 955.39,-80.0421 945.033,-82.2716 948.684,-88.2441"/>
</g>
<!-- Node325 -->
<g id="node30" class="node"><title>Node325</title>
<g id="a_node30"><a xlink:href="../../d0/d96/namespaceutf8_1_1internal.html#ab4820484159ba613b4901476ceb24516" target="_top" xlink:title="utf8::internal::is\l_trail">
<polygon fill="white" stroke="black" points="930.5,-264.5 930.5,-294.5 1013.5,-294.5 1013.5,-264.5 930.5,-264.5"/>
<text text-anchor="start" x="938.5" y="-282.5" font-family="Helvetica,sans-Serif" font-size="10.00">utf8::internal::is</text>
<text text-anchor="middle" x="972" y="-271.5" font-family="Helvetica,sans-Serif" font-size="10.00">_trail</text>
</a>
</g>
</g>
<!-- Node313&#45;&gt;Node325 -->
<g id="edge37" class="edge"><title>Node313&#45;&gt;Node325</title>
<path fill="none" stroke="midnightblue" d="M832.816,-172.075C856.789,-190.712 910.253,-232.275 943.206,-257.893"/>
<polygon fill="midnightblue" stroke="midnightblue" points="941.47,-260.976 951.513,-264.35 945.766,-255.45 941.47,-260.976"/>
</g>
<!-- Node315 -->
<g id="node20" class="node"><title>Node315</title>
<g id="a_node20"><a xlink:href="../../d0/d96/namespaceutf8_1_1internal.html#aadbe437cba7bfcc4df2638f633e9787c" target="_top" xlink:title="utf8::internal::sequence\l_length">
<polygon fill="white" stroke="black" points="1074,-294.5 1074,-324.5 1192,-324.5 1192,-294.5 1074,-294.5"/>
<text text-anchor="start" x="1082" y="-312.5" font-family="Helvetica,sans-Serif" font-size="10.00">utf8::internal::sequence</text>
<text text-anchor="middle" x="1133" y="-301.5" font-family="Helvetica,sans-Serif" font-size="10.00">_length</text>
</a>
</g>
</g>
<!-- Node314&#45;&gt;Node315 -->
<g id="edge22" class="edge"><title>Node314&#45;&gt;Node315</title>
<path fill="none" stroke="midnightblue" d="M978.6,-172.173C992.198,-194.897 1029.16,-252.266 1074,-285.5 1075.85,-286.871 1077.79,-288.179 1079.79,-289.425"/>
<polygon fill="midnightblue" stroke="midnightblue" points="1078.44,-292.68 1088.88,-294.496 1081.85,-286.568 1078.44,-292.68"/>
</g>
<!-- Node317 -->
<g id="node22" class="node"><title>Node317</title>
<g id="a_node22"><a xlink:href="../../d0/d96/namespaceutf8_1_1internal.html#a6e5df73716136aec55e8fcf3309038b6" target="_top" xlink:title="get_sequence_x functions decode utf&#45;8 sequences of the length x ">
<polygon fill="white" stroke="black" points="1088.5,-245.5 1088.5,-275.5 1177.5,-275.5 1177.5,-245.5 1088.5,-245.5"/>
<text text-anchor="start" x="1096.5" y="-263.5" font-family="Helvetica,sans-Serif" font-size="10.00">utf8::internal::get</text>
<text text-anchor="middle" x="1133" y="-252.5" font-family="Helvetica,sans-Serif" font-size="10.00">_sequence_1</text>
</a>
</g>
</g>
<!-- Node314&#45;&gt;Node317 -->
<g id="edge24" class="edge"><title>Node314&#45;&gt;Node317</title>
<path fill="none" stroke="midnightblue" d="M984.201,-172.115C1002.21,-187.243 1039.14,-216.893 1074,-236.5 1076.85,-238.103 1079.83,-239.659 1082.87,-241.159"/>
<polygon fill="midnightblue" stroke="midnightblue" points="1081.55,-244.405 1092.09,-245.474 1084.51,-238.065 1081.55,-244.405"/>
</g>
<!-- Node318 -->
<g id="node23" class="node"><title>Node318</title>
<g id="a_node23"><a xlink:href="../../d0/d96/namespaceutf8_1_1internal.html#a9d641b9546be985f9f0fd4955ac42a24" target="_top" xlink:title="utf8::internal::get\l_sequence_2">
<polygon fill="white" stroke="black" points="1088.5,-196.5 1088.5,-226.5 1177.5,-226.5 1177.5,-196.5 1088.5,-196.5"/>
<text text-anchor="start" x="1096.5" y="-214.5" font-family="Helvetica,sans-Serif" font-size="10.00">utf8::internal::get</text>
<text text-anchor="middle" x="1133" y="-203.5" font-family="Helvetica,sans-Serif" font-size="10.00">_sequence_2</text>
</a>
</g>
</g>
<!-- Node314&#45;&gt;Node318 -->
<g id="edge26" class="edge"><title>Node314&#45;&gt;Node318</title>
<path fill="none" stroke="midnightblue" d="M1004.03,-172.064C1025.26,-178.604 1053.93,-187.441 1078.76,-195.092"/>
<polygon fill="midnightblue" stroke="midnightblue" points="1077.83,-198.467 1088.41,-198.068 1079.89,-191.778 1077.83,-198.467"/>
</g>
<!-- Node319 -->
<g id="node24" class="node"><title>Node319</title>
<g id="a_node24"><a xlink:href="../../d0/d96/namespaceutf8_1_1internal.html#ac1809a1fb3fa6983d64a0d3a39646008" target="_top" xlink:title="utf8::internal::get\l_sequence_3">
<polygon fill="white" stroke="black" points="1088.5,-147.5 1088.5,-177.5 1177.5,-177.5 1177.5,-147.5 1088.5,-147.5"/>
<text text-anchor="start" x="1096.5" y="-165.5" font-family="Helvetica,sans-Serif" font-size="10.00">utf8::internal::get</text>
<text text-anchor="middle" x="1133" y="-154.5" font-family="Helvetica,sans-Serif" font-size="10.00">_sequence_3</text>
</a>
</g>
</g>
<!-- Node314&#45;&gt;Node319 -->
<g id="edge28" class="edge"><title>Node314&#45;&gt;Node319</title>
<path fill="none" stroke="midnightblue" d="M1038.13,-162.5C1051.39,-162.5 1065.21,-162.5 1078.03,-162.5"/>
<polygon fill="midnightblue" stroke="midnightblue" points="1078.08,-166 1088.08,-162.5 1078.08,-159 1078.08,-166"/>
</g>
<!-- Node320 -->
<g id="node25" class="node"><title>Node320</title>
<g id="a_node25"><a xlink:href="../../d0/d96/namespaceutf8_1_1internal.html#ad1958e7c6746ba6b1fbb0d81b88b346c" target="_top" xlink:title="utf8::internal::get\l_sequence_4">
<polygon fill="white" stroke="black" points="1088.5,-98.5 1088.5,-128.5 1177.5,-128.5 1177.5,-98.5 1088.5,-98.5"/>
<text text-anchor="start" x="1096.5" y="-116.5" font-family="Helvetica,sans-Serif" font-size="10.00">utf8::internal::get</text>
<text text-anchor="middle" x="1133" y="-105.5" font-family="Helvetica,sans-Serif" font-size="10.00">_sequence_4</text>
</a>
</g>
</g>
<!-- Node314&#45;&gt;Node320 -->
<g id="edge30" class="edge"><title>Node314&#45;&gt;Node320</title>
<path fill="none" stroke="midnightblue" d="M1004.03,-152.936C1025.26,-146.396 1053.93,-137.559 1078.76,-129.908"/>
<polygon fill="midnightblue" stroke="midnightblue" points="1079.89,-133.222 1088.41,-126.932 1077.83,-126.533 1079.89,-133.222"/>
</g>
<!-- Node321 -->
<g id="node26" class="node"><title>Node321</title>
<g id="a_node26"><a xlink:href="../../d0/d96/namespaceutf8_1_1internal.html#a97b553137aaeda6e8ca6f8d46f78fd79" target="_top" xlink:title="utf8::internal::is\l_code_point_valid">
<polygon fill="white" stroke="black" points="1086.5,-0.5 1086.5,-30.5 1179.5,-30.5 1179.5,-0.5 1086.5,-0.5"/>
<text text-anchor="start" x="1094.5" y="-18.5" font-family="Helvetica,sans-Serif" font-size="10.00">utf8::internal::is</text>
<text text-anchor="middle" x="1133" y="-7.5" font-family="Helvetica,sans-Serif" font-size="10.00">_code_point_valid</text>
</a>
</g>
</g>
<!-- Node314&#45;&gt;Node321 -->
<g id="edge32" class="edge"><title>Node314&#45;&gt;Node321</title>
<path fill="none" stroke="midnightblue" d="M982.164,-152.863C995.062,-139.154 1019.11,-113.068 1038,-89.5 1055.13,-68.1349 1052.53,-56.4949 1074,-39.5 1075.6,-38.2319 1077.28,-37.0207 1079.02,-35.8651"/>
<polygon fill="midnightblue" stroke="midnightblue" points="1081.23,-38.6265 1088.07,-30.5419 1077.68,-32.5917 1081.23,-38.6265"/>
</g>
<!-- Node323 -->
<g id="node28" class="node"><title>Node323</title>
<g id="a_node28"><a xlink:href="../../d0/d96/namespaceutf8_1_1internal.html#a3160f6f24dff465f64f83cb0e66995c6" target="_top" xlink:title="utf8::internal::is\l_overlong_sequence">
<polygon fill="white" stroke="black" points="1081,-49.5 1081,-79.5 1185,-79.5 1185,-49.5 1081,-49.5"/>
<text text-anchor="start" x="1089" y="-67.5" font-family="Helvetica,sans-Serif" font-size="10.00">utf8::internal::is</text>
<text text-anchor="middle" x="1133" y="-56.5" font-family="Helvetica,sans-Serif" font-size="10.00">_overlong_sequence</text>
</a>
</g>
</g>
<!-- Node314&#45;&gt;Node323 -->
<g id="edge34" class="edge"><title>Node314&#45;&gt;Node323</title>
<path fill="none" stroke="midnightblue" d="M984.201,-152.885C1002.21,-137.757 1039.14,-108.107 1074,-88.5 1076.85,-86.8974 1079.83,-85.3408 1082.87,-83.8415"/>
<polygon fill="midnightblue" stroke="midnightblue" points="1084.51,-86.9349 1092.09,-79.5264 1081.55,-80.5947 1084.51,-86.9349"/>
</g>
<!-- Node316 -->
<g id="node21" class="node"><title>Node316</title>
<g id="a_node21"><a xlink:href="../../d0/d96/namespaceutf8_1_1internal.html#adf6e0469e279b9562aa461b4c3c1e7e4" target="_top" xlink:title="utf8::internal::mask8">
<polygon fill="white" stroke="black" points="1228,-226 1228,-245 1333,-245 1333,-226 1228,-226"/>
<text text-anchor="middle" x="1280.5" y="-233" font-family="Helvetica,sans-Serif" font-size="10.00">utf8::internal::mask8</text>
</a>
</g>
</g>
<!-- Node315&#45;&gt;Node316 -->
<g id="edge23" class="edge"><title>Node315&#45;&gt;Node316</title>
<path fill="none" stroke="midnightblue" d="M1172.37,-294.43C1178.98,-291.604 1185.74,-288.57 1192,-285.5 1213.87,-274.779 1237.83,-260.932 1255.14,-250.529"/>
<polygon fill="midnightblue" stroke="midnightblue" points="1257.28,-253.324 1264.02,-245.146 1253.65,-247.339 1257.28,-253.324"/>
</g>
<!-- Node317&#45;&gt;Node316 -->
<g id="edge25" class="edge"><title>Node317&#45;&gt;Node316</title>
<path fill="none" stroke="midnightblue" d="M1177.65,-252.999C1190.26,-250.833 1204.26,-248.427 1217.75,-246.11"/>
<polygon fill="midnightblue" stroke="midnightblue" points="1218.67,-249.503 1227.93,-244.361 1217.48,-242.605 1218.67,-249.503"/>
</g>
<!-- Node318&#45;&gt;Node316 -->
<g id="edge27" class="edge"><title>Node318&#45;&gt;Node316</title>
<path fill="none" stroke="midnightblue" d="M1177.65,-218.701C1190.26,-220.78 1204.26,-223.09 1217.75,-225.315"/>
<polygon fill="midnightblue" stroke="midnightblue" points="1217.5,-228.82 1227.93,-226.994 1218.63,-221.913 1217.5,-228.82"/>
</g>
<!-- Node319&#45;&gt;Node316 -->
<g id="edge29" class="edge"><title>Node319&#45;&gt;Node316</title>
<path fill="none" stroke="midnightblue" d="M1170.44,-177.58C1177.64,-180.736 1185.1,-184.131 1192,-187.5 1213.28,-197.894 1236.78,-210.873 1254.06,-220.713"/>
<polygon fill="midnightblue" stroke="midnightblue" points="1252.56,-223.883 1262.97,-225.82 1256.04,-217.81 1252.56,-223.883"/>
</g>
<!-- Node320&#45;&gt;Node316 -->
<g id="edge31" class="edge"><title>Node320&#45;&gt;Node316</title>
<path fill="none" stroke="midnightblue" d="M1175.14,-128.582C1181.03,-131.485 1186.83,-134.795 1192,-138.5 1223.31,-160.944 1251.59,-196.309 1267.08,-217.568"/>
<polygon fill="midnightblue" stroke="midnightblue" points="1264.43,-219.879 1273.09,-225.991 1270.13,-215.816 1264.43,-219.879"/>
</g>
<!-- Node322 -->
<g id="node27" class="node"><title>Node322</title>
<g id="a_node27"><a xlink:href="../../d0/d96/namespaceutf8_1_1internal.html#a31a185a6bc8b9bf454191a8a95a93595" target="_top" xlink:title="utf8::internal::is\l_surrogate">
<polygon fill="white" stroke="black" points="1239,-0.5 1239,-30.5 1322,-30.5 1322,-0.5 1239,-0.5"/>
<text text-anchor="start" x="1247" y="-18.5" font-family="Helvetica,sans-Serif" font-size="10.00">utf8::internal::is</text>
<text text-anchor="middle" x="1280.5" y="-7.5" font-family="Helvetica,sans-Serif" font-size="10.00">_surrogate</text>
</a>
</g>
</g>
<!-- Node321&#45;&gt;Node322 -->
<g id="edge33" class="edge"><title>Node321&#45;&gt;Node322</title>
<path fill="none" stroke="midnightblue" d="M1179.64,-15.5C1195.23,-15.5 1212.75,-15.5 1228.72,-15.5"/>
<polygon fill="midnightblue" stroke="midnightblue" points="1228.95,-19.0001 1238.95,-15.5 1228.95,-12.0001 1228.95,-19.0001"/>
</g>
<!-- Node324&#45;&gt;Node321 -->
<g id="edge36" class="edge"><title>Node324&#45;&gt;Node321</title>
<path fill="none" stroke="midnightblue" d="M1000.7,-60.9197C1022.16,-53.4967 1052.53,-42.9883 1078.67,-33.9485"/>
<polygon fill="midnightblue" stroke="midnightblue" points="1080.14,-37.1422 1088.45,-30.5654 1077.85,-30.5268 1080.14,-37.1422"/>
</g>
<!-- Node325&#45;&gt;Node316 -->
<g id="edge38" class="edge"><title>Node325&#45;&gt;Node316</title>
<path fill="none" stroke="midnightblue" d="M993.377,-294.602C1012.91,-308.072 1043.82,-326.814 1074,-334.5 1124.82,-347.441 1144.19,-356.052 1192,-334.5 1228.58,-318.013 1256.02,-277.843 1269.73,-254.047"/>
<polygon fill="midnightblue" stroke="midnightblue" points="1272.82,-255.692 1274.61,-245.248 1266.7,-252.299 1272.82,-255.692"/>
</g>
</g>
</svg>
        <g id="navigator" transform="translate(0 0)" fill="#404254">
                <rect fill="#f2f5e9" fill-opacity="0.5" stroke="#606060" stroke-width=".5" x="0" y="0" width="60" height="60"/>
                <use id="zoomplus" xlink:href="#zoomPlus" x="17" y="9" onmousedown="handleZoom(evt,'in')"/>
                <use id="zoomminus" xlink:href="#zoomMin" x="42" y="9" onmousedown="handleZoom(evt,'out')"/>
                <use id="reset" xlink:href="#resetDef" x="30" y="36" onmousedown="handleReset()"/>
                <g id="arrowUp" xlink:href="#dirArrow" transform="translate(30 24)" onmousedown="handlePan(0,-1)">
                  <use xlink:href="#rim" fill="#404040">
                        <set attributeName="fill" to="#808080" begin="arrowUp.mouseover" end="arrowUp.mouseout"/>
                  </use>
                  <path fill="none" stroke="white" stroke-width="1.5" d="M0,-3.0v7 M-2.5,-0.5L0,-3.0L2.5,-0.5"/>
                </g>
                <g id="arrowRight" xlink:href="#dirArrow" transform="rotate(90) translate(36 -43)" onmousedown="handlePan(1,0)">
                  <use xlink:href="#rim" fill="#404040">
                        <set attributeName="fill" to="#808080" begin="arrowRight.mouseover" end="arrowRight.mouseout"/>
                  </use>
                  <path fill="none" stroke="white" stroke-width="1.5" d="M0,-3.0v7 M-2.5,-0.5L0,-3.0L2.5,-0.5"/>
                </g>
                <g id="arrowDown" xlink:href="#dirArrow" transform="rotate(180) translate(-30 -48)" onmousedown="handlePan(0,1)">
                  <use xlink:href="#rim" fill="#404040">
                        <set attributeName="fill" to="#808080" begin="arrowDown.mouseover" end="arrowDown.mouseout"/>
                  </use>
                  <path fill="none" stroke="white" stroke-width="1.5" d="M0,-3.0v7 M-2.5,-0.5L0,-3.0L2.5,-0.5"/>
                </g>
                <g id="arrowLeft" xlink:href="#dirArrow" transform="rotate(270) translate(-36 17)" onmousedown="handlePan(-1,0)">
                  <use xlink:href="#rim" fill="#404040">
                        <set attributeName="fill" to="#808080" begin="arrowLeft.mouseover" end="arrowLeft.mouseout"/>
                  </use>
                  <path fill="none" stroke="white" stroke-width="1.5" d="M0,-3.0v7 M-2.5,-0.5L0,-3.0L2.5,-0.5"/>
                </g>
        </g>
        <svg viewBox="0 0 15 15" width="100%" height="30px" preserveAspectRatio="xMaxYMin meet">
         <g id="arrow_out" transform="scale(0.3 0.3)">
          <a xlink:href="class_game_script_a57fef318c599e4d2f86aa9b4b7f2ec12_cgraph_org.svg" target="_base">
           <rect id="button" ry="5" rx="5" y="6" x="6" height="38" width="38"
                fill="#f2f5e9" fill-opacity="0.5" stroke="#606060" stroke-width="1.0"/>
           <path id="arrow"
             d="M 11.500037,31.436501 C 11.940474,20.09759 22.043105,11.32322 32.158766,21.979434 L 37.068811,17.246167 C 37.068811,17.246167 37.088388,32 37.088388,32 L 22.160133,31.978069 C 22.160133,31.978069 26.997745,27.140456 26.997745,27.140456 C 18.528582,18.264221 13.291696,25.230495 11.500037,31.436501 z"
             style="fill:#404040;"/>
          </a>
         </g>
        </svg>
</svg>
