<?xml version="1.0" encoding="UTF-8" standalone="no"?>
<!DOCTYPE svg PUBLIC "-//W3C//DTD SVG 1.1//EN"
 "http://www.w3.org/Graphics/SVG/1.1/DTD/svg11.dtd">
<!-- Generated by graphviz version 2.38.0 (20140413.2041)
 -->
<!-- Title: GameScript::getSafeTextureUnitState Pages: 1 -->
<svg width="364pt" height="176pt"
 viewBox="0.00 0.00 364.00 175.50" xmlns="http://www.w3.org/2000/svg" xmlns:xlink="http://www.w3.org/1999/xlink">
<g id="graph0" class="graph" transform="scale(1 1) rotate(0) translate(4 171.5)">
<title>GameScript::getSafeTextureUnitState</title>
<polygon fill="white" stroke="none" points="-4,4 -4,-171.5 360,-171.5 360,4 -4,4"/>
<!-- Node96 -->
<g id="node1" class="node"><title>Node96</title>
<polygon fill="#bfbfbf" stroke="black" points="0,-73.5 0,-103.5 140,-103.5 140,-73.5 0,-73.5"/>
<text text-anchor="start" x="8" y="-91.5" font-family="Helvetica,sans-Serif" font-size="10.00">GameScript::getSafeTexture</text>
<text text-anchor="middle" x="70" y="-80.5" font-family="Helvetica,sans-Serif" font-size="10.00">UnitState</text>
</g>
<!-- Node97 -->
<g id="node2" class="node"><title>Node97</title>
<g id="a_node2"><a xlink:href="../../d5/de5/class_game_script.html#acf2cfbdb575b5100135aee8c85a6a256" target="_top" xlink:title="GameScript::setMaterialTextureName">
<polygon fill="white" stroke="black" points="176,-148 176,-167 356,-167 356,-148 176,-148"/>
<text text-anchor="middle" x="266" y="-155" font-family="Helvetica,sans-Serif" font-size="10.00">GameScript::setMaterialTextureName</text>
</a>
</g>
</g>
<!-- Node96&#45;&gt;Node97 -->
<g id="edge1" class="edge"><title>Node96&#45;&gt;Node97</title>
<path fill="none" stroke="midnightblue" d="M107.317,-108.387C127.143,-118.573 152.399,-130.485 176,-138.5 186.921,-142.209 198.851,-145.347 210.326,-147.939"/>
<polygon fill="midnightblue" stroke="midnightblue" points="108.818,-105.222 98.3336,-103.699 105.58,-111.428 108.818,-105.222"/>
</g>
<!-- Node98 -->
<g id="node3" class="node"><title>Node98</title>
<g id="a_node3"><a xlink:href="../../d5/de5/class_game_script.html#a15dbd8b035ab7d6102c7e8ef8b1bd8fa" target="_top" xlink:title="GameScript::setMaterialTexture\lRotate">
<polygon fill="white" stroke="black" points="188.5,-98.5 188.5,-128.5 343.5,-128.5 343.5,-98.5 188.5,-98.5"/>
<text text-anchor="start" x="196.5" y="-116.5" font-family="Helvetica,sans-Serif" font-size="10.00">GameScript::setMaterialTexture</text>
<text text-anchor="middle" x="266" y="-105.5" font-family="Helvetica,sans-Serif" font-size="10.00">Rotate</text>
</a>
</g>
</g>
<!-- Node96&#45;&gt;Node98 -->
<g id="edge2" class="edge"><title>Node96&#45;&gt;Node98</title>
<path fill="none" stroke="midnightblue" d="M150.186,-98.7044C162.748,-100.323 175.723,-101.995 188.229,-103.607"/>
<polygon fill="midnightblue" stroke="midnightblue" points="150.582,-95.2266 140.217,-97.4197 149.687,-102.169 150.582,-95.2266"/>
</g>
<!-- Node99 -->
<g id="node4" class="node"><title>Node99</title>
<g id="a_node4"><a xlink:href="../../d5/de5/class_game_script.html#a13eec139445554da8cd39aa6e674d503" target="_top" xlink:title="GameScript::setMaterialTexture\lScroll">
<polygon fill="white" stroke="black" points="188.5,-49.5 188.5,-79.5 343.5,-79.5 343.5,-49.5 188.5,-49.5"/>
<text text-anchor="start" x="196.5" y="-67.5" font-family="Helvetica,sans-Serif" font-size="10.00">GameScript::setMaterialTexture</text>
<text text-anchor="middle" x="266" y="-56.5" font-family="Helvetica,sans-Serif" font-size="10.00">Scroll</text>
</a>
</g>
</g>
<!-- Node96&#45;&gt;Node99 -->
<g id="edge3" class="edge"><title>Node96&#45;&gt;Node99</title>
<path fill="none" stroke="midnightblue" d="M150.186,-78.7038C162.748,-77.1497 175.723,-75.5446 188.229,-73.9975"/>
<polygon fill="midnightblue" stroke="midnightblue" points="149.711,-75.2357 140.217,-79.9371 150.571,-82.1828 149.711,-75.2357"/>
</g>
<!-- Node100 -->
<g id="node5" class="node"><title>Node100</title>
<g id="a_node5"><a xlink:href="../../d5/de5/class_game_script.html#af70b2dfb0ddd3afa5e975bb2d4328171" target="_top" xlink:title="GameScript::setMaterialTexture\lScale">
<polygon fill="white" stroke="black" points="188.5,-0.5 188.5,-30.5 343.5,-30.5 343.5,-0.5 188.5,-0.5"/>
<text text-anchor="start" x="196.5" y="-18.5" font-family="Helvetica,sans-Serif" font-size="10.00">GameScript::setMaterialTexture</text>
<text text-anchor="middle" x="266" y="-7.5" font-family="Helvetica,sans-Serif" font-size="10.00">Scale</text>
</a>
</g>
</g>
<!-- Node96&#45;&gt;Node100 -->
<g id="edge4" class="edge"><title>Node96&#45;&gt;Node100</title>
<path fill="none" stroke="midnightblue" d="M109.987,-68.9291C129.508,-59.5823 153.681,-48.6801 176,-40.5 185.644,-36.9652 196.029,-33.6354 206.181,-30.6289"/>
<polygon fill="midnightblue" stroke="midnightblue" points="108.282,-65.8659 100.807,-73.3739 111.332,-72.1664 108.282,-65.8659"/>
</g>
</g>
</svg>
