<?xml version="1.0" encoding="UTF-8" standalone="no"?>
<!DOCTYPE svg PUBLIC "-//W3C//DTD SVG 1.1//EN"
 "http://www.w3.org/Graphics/SVG/1.1/DTD/svg11.dtd">
<!-- Generated by graphviz version 2.38.0 (20140413.2041)
 -->
<!-- Title: SkyX::MeshManager::getCircles Pages: 1 -->
<svg width="616pt" height="127pt"
 viewBox="0.00 0.00 616.00 127.00" xmlns="http://www.w3.org/2000/svg" xmlns:xlink="http://www.w3.org/1999/xlink">
<g id="graph0" class="graph" transform="scale(1 1) rotate(0) translate(4 123)">
<title>SkyX::MeshManager::getCircles</title>
<polygon fill="white" stroke="none" points="-4,4 -4,-123 612,-123 612,4 -4,4"/>
<!-- Node41 -->
<g id="node1" class="node"><title>Node41</title>
<polygon fill="#bfbfbf" stroke="black" points="0,-44.5 0,-74.5 113,-74.5 113,-44.5 0,-44.5"/>
<text text-anchor="start" x="8" y="-62.5" font-family="Helvetica,sans-Serif" font-size="10.00">SkyX::MeshManager::</text>
<text text-anchor="middle" x="56.5" y="-51.5" font-family="Helvetica,sans-Serif" font-size="10.00">getCircles</text>
</g>
<!-- Node42 -->
<g id="node2" class="node"><title>Node42</title>
<g id="a_node2"><a xlink:href="../../df/d6a/class_sky_x_1_1_mesh_manager.html#ab84f3b42a0a44d2ded3eccb3cf9dcbc1" target="_top" xlink:title="SkyX::MeshManager::\lsetUnderHorizonParams">
<polygon fill="white" stroke="black" points="149,-44.5 149,-74.5 271,-74.5 271,-44.5 149,-44.5"/>
<text text-anchor="start" x="157" y="-62.5" font-family="Helvetica,sans-Serif" font-size="10.00">SkyX::MeshManager::</text>
<text text-anchor="middle" x="210" y="-51.5" font-family="Helvetica,sans-Serif" font-size="10.00">setUnderHorizonParams</text>
</a>
</g>
</g>
<!-- Node41&#45;&gt;Node42 -->
<g id="edge1" class="edge"><title>Node41&#45;&gt;Node42</title>
<path fill="none" stroke="midnightblue" d="M113.053,-59.5C121.429,-59.5 130.161,-59.5 138.796,-59.5"/>
<polygon fill="midnightblue" stroke="midnightblue" points="138.861,-63.0001 148.861,-59.5 138.861,-56.0001 138.861,-63.0001"/>
</g>
<!-- Node43 -->
<g id="node3" class="node"><title>Node43</title>
<g id="a_node3"><a xlink:href="../../df/d6a/class_sky_x_1_1_mesh_manager.html#a6f83e79605385575af31185a92a2db7d" target="_top" xlink:title="SkyX::MeshManager::\lcreate">
<polygon fill="white" stroke="black" points="307,-44.5 307,-74.5 420,-74.5 420,-44.5 307,-44.5"/>
<text text-anchor="start" x="315" y="-62.5" font-family="Helvetica,sans-Serif" font-size="10.00">SkyX::MeshManager::</text>
<text text-anchor="middle" x="363.5" y="-51.5" font-family="Helvetica,sans-Serif" font-size="10.00">create</text>
</a>
</g>
</g>
<!-- Node42&#45;&gt;Node43 -->
<g id="edge2" class="edge"><title>Node42&#45;&gt;Node43</title>
<path fill="none" stroke="midnightblue" d="M271.312,-59.5C279.642,-59.5 288.233,-59.5 296.657,-59.5"/>
<polygon fill="midnightblue" stroke="midnightblue" points="296.821,-63.0001 306.821,-59.5 296.821,-56.0001 296.821,-63.0001"/>
</g>
<!-- Node44 -->
<g id="node4" class="node"><title>Node44</title>
<g id="a_node4"><a xlink:href="../../df/d6a/class_sky_x_1_1_mesh_manager.html#a4d9a39e8f56eed532f777e6b9c5a7046" target="_top" xlink:title="SkyX::MeshManager::\l_createGeometry">
<polygon fill="white" stroke="black" points="475.5,-88.5 475.5,-118.5 588.5,-118.5 588.5,-88.5 475.5,-88.5"/>
<text text-anchor="start" x="483.5" y="-106.5" font-family="Helvetica,sans-Serif" font-size="10.00">SkyX::MeshManager::</text>
<text text-anchor="middle" x="532" y="-95.5" font-family="Helvetica,sans-Serif" font-size="10.00">_createGeometry</text>
</a>
</g>
</g>
<!-- Node43&#45;&gt;Node44 -->
<g id="edge3" class="edge"><title>Node43&#45;&gt;Node44</title>
<path fill="none" stroke="midnightblue" d="M420.405,-74.2738C434.897,-78.1035 450.633,-82.2618 465.566,-86.2081"/>
<polygon fill="midnightblue" stroke="midnightblue" points="464.68,-89.5941 475.242,-88.7652 466.468,-82.8264 464.68,-89.5941"/>
</g>
<!-- Node45 -->
<g id="node5" class="node"><title>Node45</title>
<g id="a_node5"><a xlink:href="../../de/db3/class_sky_x_1_1_sky_x.html#ac0cff17e4fac3749f9a36e1b76ebe189" target="_top" xlink:title="SkyX::SkyX::getSceneManager">
<polygon fill="white" stroke="black" points="456,-50 456,-69 608,-69 608,-50 456,-50"/>
<text text-anchor="middle" x="532" y="-57" font-family="Helvetica,sans-Serif" font-size="10.00">SkyX::SkyX::getSceneManager</text>
</a>
</g>
</g>
<!-- Node43&#45;&gt;Node45 -->
<g id="edge4" class="edge"><title>Node43&#45;&gt;Node45</title>
<path fill="none" stroke="midnightblue" d="M420.405,-59.5C428.554,-59.5 437.095,-59.5 445.666,-59.5"/>
<polygon fill="midnightblue" stroke="midnightblue" points="445.719,-63.0001 455.719,-59.5 445.719,-56.0001 445.719,-63.0001"/>
</g>
<!-- Node46 -->
<g id="node6" class="node"><title>Node46</title>
<g id="a_node6"><a xlink:href="../../de/db3/class_sky_x_1_1_sky_x.html#a628b7c569b922b64d0964f43d611f1e3" target="_top" xlink:title="SkyX::SkyX::getRenderQueue\lGroups">
<polygon fill="white" stroke="black" points="459,-0.5 459,-30.5 605,-30.5 605,-0.5 459,-0.5"/>
<text text-anchor="start" x="467" y="-18.5" font-family="Helvetica,sans-Serif" font-size="10.00">SkyX::SkyX::getRenderQueue</text>
<text text-anchor="middle" x="532" y="-7.5" font-family="Helvetica,sans-Serif" font-size="10.00">Groups</text>
</a>
</g>
</g>
<!-- Node43&#45;&gt;Node46 -->
<g id="edge5" class="edge"><title>Node43&#45;&gt;Node46</title>
<path fill="none" stroke="midnightblue" d="M420.405,-44.7262C434.452,-41.0141 449.668,-36.9933 464.188,-33.156"/>
<polygon fill="midnightblue" stroke="midnightblue" points="465.333,-36.4737 474.107,-30.5349 463.544,-29.706 465.333,-36.4737"/>
</g>
</g>
</svg>
