<?xml version="1.0" encoding="UTF-8" standalone="no"?>
<!DOCTYPE svg PUBLIC "-//W3C//DTD SVG 1.1//EN"
 "http://www.w3.org/Graphics/SVG/1.1/DTD/svg11.dtd">
<!-- Generated by graphviz version 2.38.0 (20140413.2041)
 -->
<!-- Title: ANSI_TO_WCHAR Pages: 1 -->
<svg width="978pt" height="356pt"
 viewBox="0.00 0.00 978.00 355.96" xmlns="http://www.w3.org/2000/svg" xmlns:xlink="http://www.w3.org/1999/xlink">
<g id="graph0" class="graph" transform="scale(1 1) rotate(0) translate(4 351.96)">
<title>ANSI_TO_WCHAR</title>
<polygon fill="white" stroke="none" points="-4,4 -4,-351.96 974,-351.96 974,4 -4,4"/>
<!-- Node49 -->
<g id="node1" class="node"><title>Node49</title>
<polygon fill="#bfbfbf" stroke="black" points="0,-153 0,-172 99,-172 99,-153 0,-153"/>
<text text-anchor="middle" x="49.5" y="-160" font-family="Helvetica,sans-Serif" font-size="10.00">ANSI_TO_WCHAR</text>
</g>
<!-- Node50 -->
<g id="node2" class="node"><title>Node50</title>
<g id="a_node2"><a xlink:href="../../d6/dad/_utils_8cpp.html#aebe76599ecdd7fc4db8b64cba0beb94e" target="_top" xlink:title="ANSI_TO_UTF">
<polygon fill="white" stroke="black" points="135,-153 135,-172 215,-172 215,-153 135,-153"/>
<text text-anchor="middle" x="175" y="-160" font-family="Helvetica,sans-Serif" font-size="10.00">ANSI_TO_UTF</text>
</a>
</g>
</g>
<!-- Node49&#45;&gt;Node50 -->
<g id="edge1" class="edge"><title>Node49&#45;&gt;Node50</title>
<path fill="none" stroke="midnightblue" d="M99.3105,-162.5C107.559,-162.5 116.13,-162.5 124.399,-162.5"/>
<polygon fill="midnightblue" stroke="midnightblue" points="124.664,-166 134.664,-162.5 124.664,-159 124.664,-166"/>
</g>
<!-- Node51 -->
<g id="node3" class="node"><title>Node51</title>
<g id="a_node3"><a xlink:href="../../da/d4c/namespace_ro_r_1_1_utils.html#ac62ee4a4a513a67cba1bdc7d9eb9c7a4" target="_top" xlink:title="RoR::Utils::SanitizeUtf8\lString">
<polygon fill="white" stroke="black" points="251,-147.5 251,-177.5 370,-177.5 370,-147.5 251,-147.5"/>
<text text-anchor="start" x="259" y="-165.5" font-family="Helvetica,sans-Serif" font-size="10.00">RoR::Utils::SanitizeUtf8</text>
<text text-anchor="middle" x="310.5" y="-154.5" font-family="Helvetica,sans-Serif" font-size="10.00">String</text>
</a>
</g>
</g>
<!-- Node50&#45;&gt;Node51 -->
<g id="edge2" class="edge"><title>Node50&#45;&gt;Node51</title>
<path fill="none" stroke="midnightblue" d="M215.332,-162.5C223.293,-162.5 231.883,-162.5 240.523,-162.5"/>
<polygon fill="midnightblue" stroke="midnightblue" points="240.654,-166 250.654,-162.5 240.653,-159 240.654,-166"/>
</g>
<!-- Node52 -->
<g id="node4" class="node"><title>Node52</title>
<g id="a_node4"><a xlink:href="../../dd/de8/namespaceutf8.html#a07dcd36a2185e5c9f0b19dd88859cd6c" target="_top" xlink:title="utf8::replace_invalid">
<polygon fill="white" stroke="black" points="406,-153 406,-172 507,-172 507,-153 406,-153"/>
<text text-anchor="middle" x="456.5" y="-160" font-family="Helvetica,sans-Serif" font-size="10.00">utf8::replace_invalid</text>
</a>
</g>
</g>
<!-- Node51&#45;&gt;Node52 -->
<g id="edge3" class="edge"><title>Node51&#45;&gt;Node52</title>
<path fill="none" stroke="midnightblue" d="M370.07,-162.5C378.485,-162.5 387.153,-162.5 395.593,-162.5"/>
<polygon fill="midnightblue" stroke="midnightblue" points="395.742,-166 405.742,-162.5 395.742,-159 395.742,-166"/>
</g>
<!-- Node53 -->
<g id="node5" class="node"><title>Node53</title>
<g id="a_node5"><a xlink:href="../../d0/d96/namespaceutf8_1_1internal.html#abe95547575fcc81911e381df03f8ebfe" target="_top" xlink:title="utf8::internal::validate_next">
<polygon fill="white" stroke="black" points="543,-153 543,-172 675,-172 675,-153 543,-153"/>
<text text-anchor="middle" x="609" y="-160" font-family="Helvetica,sans-Serif" font-size="10.00">utf8::internal::validate_next</text>
</a>
</g>
</g>
<!-- Node52&#45;&gt;Node53 -->
<g id="edge4" class="edge"><title>Node52&#45;&gt;Node53</title>
<path fill="none" stroke="midnightblue" d="M507.196,-162.5C515.381,-162.5 524.024,-162.5 532.667,-162.5"/>
<polygon fill="midnightblue" stroke="midnightblue" points="532.788,-166 542.788,-162.5 532.788,-159 532.788,-166"/>
</g>
<!-- Node63 -->
<g id="node15" class="node"><title>Node63</title>
<g id="a_node15"><a xlink:href="../../dd/de8/namespaceutf8.html#a3827e78596fc38cfdebd721e9c45c901" target="_top" xlink:title="The library API &#45; functions intended to be called by the users. ">
<polygon fill="white" stroke="black" points="574,-61 574,-80 644,-80 644,-61 574,-61"/>
<text text-anchor="middle" x="609" y="-68" font-family="Helvetica,sans-Serif" font-size="10.00">utf8::append</text>
</a>
</g>
</g>
<!-- Node52&#45;&gt;Node63 -->
<g id="edge18" class="edge"><title>Node52&#45;&gt;Node63</title>
<path fill="none" stroke="midnightblue" d="M473.322,-152.828C499.585,-136.774 552.365,-104.51 583.482,-85.4877"/>
<polygon fill="midnightblue" stroke="midnightblue" points="585.684,-88.2441 592.39,-80.0421 582.033,-82.2716 585.684,-88.2441"/>
</g>
<!-- Node64 -->
<g id="node16" class="node"><title>Node64</title>
<g id="a_node16"><a xlink:href="../../d0/d96/namespaceutf8_1_1internal.html#ab4820484159ba613b4901476ceb24516" target="_top" xlink:title="utf8::internal::is\l_trail">
<polygon fill="white" stroke="black" points="567.5,-264.5 567.5,-294.5 650.5,-294.5 650.5,-264.5 567.5,-264.5"/>
<text text-anchor="start" x="575.5" y="-282.5" font-family="Helvetica,sans-Serif" font-size="10.00">utf8::internal::is</text>
<text text-anchor="middle" x="609" y="-271.5" font-family="Helvetica,sans-Serif" font-size="10.00">_trail</text>
</a>
</g>
</g>
<!-- Node52&#45;&gt;Node64 -->
<g id="edge20" class="edge"><title>Node52&#45;&gt;Node64</title>
<path fill="none" stroke="midnightblue" d="M469.816,-172.075C493.789,-190.712 547.253,-232.275 580.206,-257.893"/>
<polygon fill="midnightblue" stroke="midnightblue" points="578.47,-260.976 588.513,-264.35 582.766,-255.45 578.47,-260.976"/>
</g>
<!-- Node54 -->
<g id="node6" class="node"><title>Node54</title>
<g id="a_node6"><a xlink:href="../../d0/d96/namespaceutf8_1_1internal.html#aadbe437cba7bfcc4df2638f633e9787c" target="_top" xlink:title="utf8::internal::sequence\l_length">
<polygon fill="white" stroke="black" points="711,-147.5 711,-177.5 829,-177.5 829,-147.5 711,-147.5"/>
<text text-anchor="start" x="719" y="-165.5" font-family="Helvetica,sans-Serif" font-size="10.00">utf8::internal::sequence</text>
<text text-anchor="middle" x="770" y="-154.5" font-family="Helvetica,sans-Serif" font-size="10.00">_length</text>
</a>
</g>
</g>
<!-- Node53&#45;&gt;Node54 -->
<g id="edge5" class="edge"><title>Node53&#45;&gt;Node54</title>
<path fill="none" stroke="midnightblue" d="M675.13,-162.5C683.544,-162.5 692.18,-162.5 700.645,-162.5"/>
<polygon fill="midnightblue" stroke="midnightblue" points="700.857,-166 710.857,-162.5 700.857,-159 700.857,-166"/>
</g>
<!-- Node56 -->
<g id="node8" class="node"><title>Node56</title>
<g id="a_node8"><a xlink:href="../../d0/d96/namespaceutf8_1_1internal.html#a6e5df73716136aec55e8fcf3309038b6" target="_top" xlink:title="get_sequence_x functions decode utf&#45;8 sequences of the length x ">
<polygon fill="white" stroke="black" points="725.5,-98.5 725.5,-128.5 814.5,-128.5 814.5,-98.5 725.5,-98.5"/>
<text text-anchor="start" x="733.5" y="-116.5" font-family="Helvetica,sans-Serif" font-size="10.00">utf8::internal::get</text>
<text text-anchor="middle" x="770" y="-105.5" font-family="Helvetica,sans-Serif" font-size="10.00">_sequence_1</text>
</a>
</g>
</g>
<!-- Node53&#45;&gt;Node56 -->
<g id="edge7" class="edge"><title>Node53&#45;&gt;Node56</title>
<path fill="none" stroke="midnightblue" d="M641.034,-152.936C662.257,-146.396 690.931,-137.559 715.756,-129.908"/>
<polygon fill="midnightblue" stroke="midnightblue" points="716.887,-133.222 725.413,-126.932 714.826,-126.533 716.887,-133.222"/>
</g>
<!-- Node57 -->
<g id="node9" class="node"><title>Node57</title>
<g id="a_node9"><a xlink:href="../../d0/d96/namespaceutf8_1_1internal.html#a9d641b9546be985f9f0fd4955ac42a24" target="_top" xlink:title="utf8::internal::get\l_sequence_2">
<polygon fill="white" stroke="black" points="725.5,-49.5 725.5,-79.5 814.5,-79.5 814.5,-49.5 725.5,-49.5"/>
<text text-anchor="start" x="733.5" y="-67.5" font-family="Helvetica,sans-Serif" font-size="10.00">utf8::internal::get</text>
<text text-anchor="middle" x="770" y="-56.5" font-family="Helvetica,sans-Serif" font-size="10.00">_sequence_2</text>
</a>
</g>
</g>
<!-- Node53&#45;&gt;Node57 -->
<g id="edge9" class="edge"><title>Node53&#45;&gt;Node57</title>
<path fill="none" stroke="midnightblue" d="M621.201,-152.885C639.214,-137.757 676.138,-108.107 711,-88.5 713.849,-86.8974 716.828,-85.3408 719.865,-83.8415"/>
<polygon fill="midnightblue" stroke="midnightblue" points="721.513,-86.9349 729.087,-79.5264 718.546,-80.5947 721.513,-86.9349"/>
</g>
<!-- Node58 -->
<g id="node10" class="node"><title>Node58</title>
<g id="a_node10"><a xlink:href="../../d0/d96/namespaceutf8_1_1internal.html#ac1809a1fb3fa6983d64a0d3a39646008" target="_top" xlink:title="utf8::internal::get\l_sequence_3">
<polygon fill="white" stroke="black" points="725.5,-294.5 725.5,-324.5 814.5,-324.5 814.5,-294.5 725.5,-294.5"/>
<text text-anchor="start" x="733.5" y="-312.5" font-family="Helvetica,sans-Serif" font-size="10.00">utf8::internal::get</text>
<text text-anchor="middle" x="770" y="-301.5" font-family="Helvetica,sans-Serif" font-size="10.00">_sequence_3</text>
</a>
</g>
</g>
<!-- Node53&#45;&gt;Node58 -->
<g id="edge11" class="edge"><title>Node53&#45;&gt;Node58</title>
<path fill="none" stroke="midnightblue" d="M615.6,-172.173C629.198,-194.897 666.159,-252.266 711,-285.5 712.849,-286.871 714.789,-288.179 716.79,-289.425"/>
<polygon fill="midnightblue" stroke="midnightblue" points="715.442,-292.68 725.88,-294.496 718.852,-286.568 715.442,-292.68"/>
</g>
<!-- Node59 -->
<g id="node11" class="node"><title>Node59</title>
<g id="a_node11"><a xlink:href="../../d0/d96/namespaceutf8_1_1internal.html#ad1958e7c6746ba6b1fbb0d81b88b346c" target="_top" xlink:title="utf8::internal::get\l_sequence_4">
<polygon fill="white" stroke="black" points="725.5,-196.5 725.5,-226.5 814.5,-226.5 814.5,-196.5 725.5,-196.5"/>
<text text-anchor="start" x="733.5" y="-214.5" font-family="Helvetica,sans-Serif" font-size="10.00">utf8::internal::get</text>
<text text-anchor="middle" x="770" y="-203.5" font-family="Helvetica,sans-Serif" font-size="10.00">_sequence_4</text>
</a>
</g>
</g>
<!-- Node53&#45;&gt;Node59 -->
<g id="edge13" class="edge"><title>Node53&#45;&gt;Node59</title>
<path fill="none" stroke="midnightblue" d="M641.034,-172.064C662.257,-178.604 690.931,-187.441 715.756,-195.092"/>
<polygon fill="midnightblue" stroke="midnightblue" points="714.826,-198.467 725.413,-198.068 716.887,-191.778 714.826,-198.467"/>
</g>
<!-- Node60 -->
<g id="node12" class="node"><title>Node60</title>
<g id="a_node12"><a xlink:href="../../d0/d96/namespaceutf8_1_1internal.html#a97b553137aaeda6e8ca6f8d46f78fd79" target="_top" xlink:title="utf8::internal::is\l_code_point_valid">
<polygon fill="white" stroke="black" points="723.5,-0.5 723.5,-30.5 816.5,-30.5 816.5,-0.5 723.5,-0.5"/>
<text text-anchor="start" x="731.5" y="-18.5" font-family="Helvetica,sans-Serif" font-size="10.00">utf8::internal::is</text>
<text text-anchor="middle" x="770" y="-7.5" font-family="Helvetica,sans-Serif" font-size="10.00">_code_point_valid</text>
</a>
</g>
</g>
<!-- Node53&#45;&gt;Node60 -->
<g id="edge15" class="edge"><title>Node53&#45;&gt;Node60</title>
<path fill="none" stroke="midnightblue" d="M619.164,-152.863C632.062,-139.154 656.107,-113.068 675,-89.5 692.128,-68.1349 689.529,-56.4949 711,-39.5 712.602,-38.2319 714.281,-37.0207 716.016,-35.8651"/>
<polygon fill="midnightblue" stroke="midnightblue" points="718.225,-38.6265 725.073,-30.5419 714.678,-32.5917 718.225,-38.6265"/>
</g>
<!-- Node62 -->
<g id="node14" class="node"><title>Node62</title>
<g id="a_node14"><a xlink:href="../../d0/d96/namespaceutf8_1_1internal.html#a3160f6f24dff465f64f83cb0e66995c6" target="_top" xlink:title="utf8::internal::is\l_overlong_sequence">
<polygon fill="white" stroke="black" points="718,-245.5 718,-275.5 822,-275.5 822,-245.5 718,-245.5"/>
<text text-anchor="start" x="726" y="-263.5" font-family="Helvetica,sans-Serif" font-size="10.00">utf8::internal::is</text>
<text text-anchor="middle" x="770" y="-252.5" font-family="Helvetica,sans-Serif" font-size="10.00">_overlong_sequence</text>
</a>
</g>
</g>
<!-- Node53&#45;&gt;Node62 -->
<g id="edge17" class="edge"><title>Node53&#45;&gt;Node62</title>
<path fill="none" stroke="midnightblue" d="M621.201,-172.115C639.214,-187.243 676.138,-216.893 711,-236.5 713.849,-238.103 716.828,-239.659 719.865,-241.159"/>
<polygon fill="midnightblue" stroke="midnightblue" points="718.546,-244.405 729.087,-245.474 721.513,-238.065 718.546,-244.405"/>
</g>
<!-- Node55 -->
<g id="node7" class="node"><title>Node55</title>
<g id="a_node7"><a xlink:href="../../d0/d96/namespaceutf8_1_1internal.html#adf6e0469e279b9562aa461b4c3c1e7e4" target="_top" xlink:title="utf8::internal::mask8">
<polygon fill="white" stroke="black" points="865,-177 865,-196 970,-196 970,-177 865,-177"/>
<text text-anchor="middle" x="917.5" y="-184" font-family="Helvetica,sans-Serif" font-size="10.00">utf8::internal::mask8</text>
</a>
</g>
</g>
<!-- Node54&#45;&gt;Node55 -->
<g id="edge6" class="edge"><title>Node54&#45;&gt;Node55</title>
<path fill="none" stroke="midnightblue" d="M829.342,-172.123C837.661,-173.496 846.241,-174.911 854.625,-176.294"/>
<polygon fill="midnightblue" stroke="midnightblue" points="854.286,-179.785 864.722,-177.959 855.425,-172.878 854.286,-179.785"/>
</g>
<!-- Node56&#45;&gt;Node55 -->
<g id="edge8" class="edge"><title>Node56&#45;&gt;Node55</title>
<path fill="none" stroke="midnightblue" d="M807.44,-128.58C814.642,-131.736 822.103,-135.131 829,-138.5 850.28,-148.894 873.781,-161.873 891.065,-171.713"/>
<polygon fill="midnightblue" stroke="midnightblue" points="889.557,-174.883 899.973,-176.82 893.039,-168.81 889.557,-174.883"/>
</g>
<!-- Node57&#45;&gt;Node55 -->
<g id="edge10" class="edge"><title>Node57&#45;&gt;Node55</title>
<path fill="none" stroke="midnightblue" d="M813.686,-79.5348C819.044,-82.1705 824.29,-85.1576 829,-88.5 860.739,-111.022 889.039,-147.056 904.386,-168.586"/>
<polygon fill="midnightblue" stroke="midnightblue" points="901.552,-170.641 910.142,-176.843 907.294,-166.638 901.552,-170.641"/>
</g>
<!-- Node58&#45;&gt;Node55 -->
<g id="edge12" class="edge"><title>Node58&#45;&gt;Node55</title>
<path fill="none" stroke="midnightblue" d="M813.702,-294.488C819.057,-291.848 824.298,-288.854 829,-285.5 860.862,-262.77 889.122,-226.361 904.427,-204.604"/>
<polygon fill="midnightblue" stroke="midnightblue" points="907.383,-206.482 910.166,-196.259 901.615,-202.516 907.383,-206.482"/>
</g>
<!-- Node59&#45;&gt;Node55 -->
<g id="edge14" class="edge"><title>Node59&#45;&gt;Node55</title>
<path fill="none" stroke="midnightblue" d="M814.655,-203.999C827.262,-201.833 841.265,-199.427 854.751,-197.11"/>
<polygon fill="midnightblue" stroke="midnightblue" points="855.669,-200.503 864.932,-195.361 854.483,-193.605 855.669,-200.503"/>
</g>
<!-- Node61 -->
<g id="node13" class="node"><title>Node61</title>
<g id="a_node13"><a xlink:href="../../d0/d96/namespaceutf8_1_1internal.html#a31a185a6bc8b9bf454191a8a95a93595" target="_top" xlink:title="utf8::internal::is\l_surrogate">
<polygon fill="white" stroke="black" points="876,-0.5 876,-30.5 959,-30.5 959,-0.5 876,-0.5"/>
<text text-anchor="start" x="884" y="-18.5" font-family="Helvetica,sans-Serif" font-size="10.00">utf8::internal::is</text>
<text text-anchor="middle" x="917.5" y="-7.5" font-family="Helvetica,sans-Serif" font-size="10.00">_surrogate</text>
</a>
</g>
</g>
<!-- Node60&#45;&gt;Node61 -->
<g id="edge16" class="edge"><title>Node60&#45;&gt;Node61</title>
<path fill="none" stroke="midnightblue" d="M816.638,-15.5C832.225,-15.5 849.75,-15.5 865.717,-15.5"/>
<polygon fill="midnightblue" stroke="midnightblue" points="865.949,-19.0001 875.949,-15.5 865.949,-12.0001 865.949,-19.0001"/>
</g>
<!-- Node63&#45;&gt;Node60 -->
<g id="edge19" class="edge"><title>Node63&#45;&gt;Node60</title>
<path fill="none" stroke="midnightblue" d="M637.696,-60.9197C659.155,-53.4967 689.534,-42.9883 715.667,-33.9485"/>
<polygon fill="midnightblue" stroke="midnightblue" points="717.141,-37.1422 725.447,-30.5654 714.853,-30.5268 717.141,-37.1422"/>
</g>
<!-- Node64&#45;&gt;Node55 -->
<g id="edge21" class="edge"><title>Node64&#45;&gt;Node55</title>
<path fill="none" stroke="midnightblue" d="M631.321,-294.665C672.181,-321.692 763.283,-371.99 829,-334.5 877.917,-306.594 902.257,-239.433 911.677,-206.036"/>
<polygon fill="midnightblue" stroke="midnightblue" points="915.129,-206.673 914.314,-196.11 908.364,-204.876 915.129,-206.673"/>
</g>
</g>
</svg>
