<?xml version="1.0" encoding="UTF-8" standalone="no"?>
<!DOCTYPE svg PUBLIC "-//W3C//DTD SVG 1.1//EN"
 "http://www.w3.org/Graphics/SVG/1.1/DTD/svg11.dtd">
<!-- Generated by graphviz version 2.38.0 (20140413.2041)
 -->
<!-- Title: ExampleAppConsole Pages: 1 -->
<svg width="246pt" height="106pt"
 viewBox="0.00 0.00 245.50 106.00" xmlns="http://www.w3.org/2000/svg" xmlns:xlink="http://www.w3.org/1999/xlink">
<g id="graph0" class="graph" transform="scale(1 1) rotate(0) translate(4 102)">
<title>ExampleAppConsole</title>
<polygon fill="white" stroke="none" points="-4,4 -4,-102 241.5,-102 241.5,4 -4,4"/>
<!-- Node1 -->
<g id="node1" class="node"><title>Node1</title>
<polygon fill="#bfbfbf" stroke="black" points="72,-0.5 72,-19.5 179,-19.5 179,-0.5 72,-0.5"/>
<text text-anchor="middle" x="125.5" y="-7.5" font-family="Helvetica,sans-Serif" font-size="10.00">ExampleAppConsole</text>
</g>
<!-- Node2 -->
<g id="node2" class="node"><title>Node2</title>
<g id="a_node2"><a xlink:href="../../d9/de0/class_im_vector.html" target="_top" xlink:title="ImVector\&lt; const char *\&gt;">
<polygon fill="white" stroke="black" points="0,-78.5 0,-97.5 123,-97.5 123,-78.5 0,-78.5"/>
<text text-anchor="middle" x="61.5" y="-85.5" font-family="Helvetica,sans-Serif" font-size="10.00">ImVector&lt; const char *&gt;</text>
</a>
</g>
</g>
<!-- Node2&#45;&gt;Node1 -->
<g id="edge1" class="edge"><title>Node2&#45;&gt;Node1</title>
<path fill="none" stroke="#9a32cd" stroke-dasharray="5,2" d="M75.4435,-70.4421C88.6227,-54.7918 107.876,-31.9282 118.244,-19.6165"/>
<polygon fill="#9a32cd" stroke="#9a32cd" points="72.6058,-68.3782 68.8416,-78.2818 77.9602,-72.8872 72.6058,-68.3782"/>
<text text-anchor="middle" x="128" y="-46.5" font-family="Helvetica,sans-Serif" font-size="10.00"> Commands</text>
</g>
<!-- Node3 -->
<g id="node3" class="node"><title>Node3</title>
<g id="a_node3"><a xlink:href="../../d9/de0/class_im_vector.html" target="_top" xlink:title="ImVector\&lt; char *\&gt;">
<polygon fill="white" stroke="black" points="141.5,-78.5 141.5,-97.5 237.5,-97.5 237.5,-78.5 141.5,-78.5"/>
<text text-anchor="middle" x="189.5" y="-85.5" font-family="Helvetica,sans-Serif" font-size="10.00">ImVector&lt; char *&gt;</text>
</a>
</g>
</g>
<!-- Node3&#45;&gt;Node1 -->
<g id="edge2" class="edge"><title>Node3&#45;&gt;Node1</title>
<path fill="none" stroke="#9a32cd" stroke-dasharray="5,2" d="M180.339,-69.6207C174.73,-59.8024 167.007,-47.6104 158.5,-38 152.416,-31.1269 144.483,-24.5774 137.921,-19.6506"/>
<polygon fill="#9a32cd" stroke="#9a32cd" points="177.314,-71.3832 185.195,-78.4641 183.45,-68.014 177.314,-71.3832"/>
<text text-anchor="middle" x="190" y="-52" font-family="Helvetica,sans-Serif" font-size="10.00"> Items</text>
<text text-anchor="middle" x="190" y="-41" font-family="Helvetica,sans-Serif" font-size="10.00">History</text>
</g>
</g>
</svg>
