<?xml version="1.0" encoding="UTF-8" standalone="no"?>
<!DOCTYPE svg PUBLIC "-//W3C//DTD SVG 1.1//EN"
 "http://www.w3.org/Graphics/SVG/1.1/DTD/svg11.dtd">
<!-- Generated by graphviz version 2.38.0 (20140413.2041)
 -->
<!-- Title: Landusemap::getGroundModelAt Pages: 1 -->
<!--zoomable 116 -->
<svg id="main" version="1.1" xmlns="http://www.w3.org/2000/svg" xmlns:xlink="http://www.w3.org/1999/xlink" xml:space="preserve" onload="init(evt)">
<style type="text/css"><![CDATA[
.edge:hover path { stroke: red; }
.edge:hover polygon { stroke: red; fill: red; }
]]></style>
<script type="text/javascript"><![CDATA[
var edges = document.getElementsByTagName('g');
if (edges && edges.length) {
  for (var i=0;i<edges.length;i++) {
    if (edges[i].id.substr(0,4)=='edge') {
      edges[i].setAttribute('class','edge');
    }
  }
}
]]></script>
        <defs>
                <circle id="rim" cx="0" cy="0" r="7"/>
                <circle id="rim2" cx="0" cy="0" r="3.5"/>
                <g id="zoomPlus">
                        <use xlink:href="#rim" fill="#404040">
                                <set attributeName="fill" to="#808080" begin="zoomplus.mouseover" end="zoomplus.mouseout"/>
                        </use>
                        <path d="M-4,0h8M0,-4v8" fill="none" stroke="white" stroke-width="1.5" pointer-events="none"/>
                </g>
                <g id="zoomMin">
                        <use xlink:href="#rim" fill="#404040">
                                <set attributeName="fill" to="#808080" begin="zoomminus.mouseover" end="zoomminus.mouseout"/>
                        </use>
                        <path d="M-4,0h8" fill="none" stroke="white" stroke-width="1.5" pointer-events="none"/>
                </g>
                <g id="dirArrow">
                        <path fill="none" stroke="white" stroke-width="1.5" d="M0,-3.0v7 M-2.5,-0.5L0,-3.0L2.5,-0.5"/>
                </g>
               <g id="resetDef">
                       <use xlink:href="#rim2" fill="#404040">
                               <set attributeName="fill" to="#808080" begin="reset.mouseover" end="reset.mouseout"/>
                       </use>
               </g>
        </defs>

<script type="text/javascript">
var viewWidth = 1343;
var viewHeight = 116;
var sectionId = 'dynsection-4';
</script>
<script xlink:href="../../svgpan.js"/>
<svg id="graph" class="graph">
<g id="viewport">
<title>Landusemap::getGroundModelAt</title>
<polygon fill="white" stroke="none" points="-4,4 -4,-111.5 1339,-111.5 1339,4 -4,4"/>
<!-- Node20 -->
<g id="node1" class="node"><title>Node20</title>
<polygon fill="#bfbfbf" stroke="black" points="0,-66 0,-85 159,-85 159,-66 0,-66"/>
<text text-anchor="middle" x="79.5" y="-73" font-family="Helvetica,sans-Serif" font-size="10.00">Landusemap::getGroundModelAt</text>
</g>
<!-- Node21 -->
<g id="node2" class="node"><title>Node21</title>
<g id="a_node2"><a xlink:href="../../d9/d39/class_collisions.html#af1028e2b9de09140265d02b66654f78f" target="_top" xlink:title="Collisions::groundCollision">
<polygon fill="white" stroke="black" points="195,-66 195,-85 326,-85 326,-66 195,-66"/>
<text text-anchor="middle" x="260.5" y="-73" font-family="Helvetica,sans-Serif" font-size="10.00">Collisions::groundCollision</text>
</a>
</g>
</g>
<!-- Node20&#45;&gt;Node21 -->
<g id="edge1" class="edge"><title>Node20&#45;&gt;Node21</title>
<path fill="none" stroke="midnightblue" d="M169.121,-75.5C177.754,-75.5 186.397,-75.5 194.73,-75.5"/>
<polygon fill="midnightblue" stroke="midnightblue" points="169.012,-72.0001 159.012,-75.5 169.012,-79.0001 169.012,-72.0001"/>
</g>
<!-- Node22 -->
<g id="node3" class="node"><title>Node22</title>
<g id="a_node3"><a xlink:href="../../df/df9/class_beam.html#af88caf907f8ac18ea02b135d9ea5cce5" target="_top" xlink:title="Beam::calcNodes">
<polygon fill="white" stroke="black" points="362,-66 362,-85 456,-85 456,-66 362,-66"/>
<text text-anchor="middle" x="409" y="-73" font-family="Helvetica,sans-Serif" font-size="10.00">Beam::calcNodes</text>
</a>
</g>
</g>
<!-- Node21&#45;&gt;Node22 -->
<g id="edge2" class="edge"><title>Node21&#45;&gt;Node22</title>
<path fill="none" stroke="midnightblue" d="M336.317,-75.5C344.963,-75.5 353.579,-75.5 361.684,-75.5"/>
<polygon fill="midnightblue" stroke="midnightblue" points="336.184,-72.0001 326.183,-75.5 336.183,-79.0001 336.184,-72.0001"/>
</g>
<!-- Node23 -->
<g id="node4" class="node"><title>Node23</title>
<g id="a_node4"><a xlink:href="../../df/df9/class_beam.html#a859ef85440d3f1a3d9d2b16a0b48d8c1" target="_top" xlink:title="Beam::InterPointCD">
<polygon fill="white" stroke="black" points="492,-66 492,-85 595,-85 595,-66 492,-66"/>
<text text-anchor="middle" x="543.5" y="-73" font-family="Helvetica,sans-Serif" font-size="10.00">Beam::InterPointCD</text>
</a>
</g>
</g>
<!-- Node22&#45;&gt;Node23 -->
<g id="edge3" class="edge"><title>Node22&#45;&gt;Node23</title>
<path fill="none" stroke="midnightblue" d="M466.491,-75.5C474.931,-75.5 483.586,-75.5 491.893,-75.5"/>
<polygon fill="midnightblue" stroke="midnightblue" points="466.342,-72.0001 456.342,-75.5 466.342,-79.0001 466.342,-72.0001"/>
</g>
<!-- Node24 -->
<g id="node5" class="node"><title>Node24</title>
<g id="a_node5"><a xlink:href="../../d5/d53/class_ro_r_1_1_beam_factory.html#ac25b17e65074996433c472da5028fed1" target="_top" xlink:title="RoR::BeamFactory::Update\lPhysicsSimulation">
<polygon fill="white" stroke="black" points="631,-60.5 631,-90.5 768,-90.5 768,-60.5 631,-60.5"/>
<text text-anchor="start" x="639" y="-78.5" font-family="Helvetica,sans-Serif" font-size="10.00">RoR::BeamFactory::Update</text>
<text text-anchor="middle" x="699.5" y="-67.5" font-family="Helvetica,sans-Serif" font-size="10.00">PhysicsSimulation</text>
</a>
</g>
</g>
<!-- Node23&#45;&gt;Node24 -->
<g id="edge4" class="edge"><title>Node23&#45;&gt;Node24</title>
<path fill="none" stroke="midnightblue" d="M605.418,-75.5C613.801,-75.5 622.451,-75.5 630.945,-75.5"/>
<polygon fill="midnightblue" stroke="midnightblue" points="605.352,-72.0001 595.352,-75.5 605.352,-79.0001 605.352,-72.0001"/>
</g>
<!-- Node25 -->
<g id="node6" class="node"><title>Node25</title>
<g id="a_node6"><a xlink:href="../../d5/d53/class_ro_r_1_1_beam_factory.html#a87e6c050f0af4ef2e39976749ac9762c" target="_top" xlink:title="RoR::BeamFactory::update">
<polygon fill="white" stroke="black" points="1005,-88 1005,-107 1140,-107 1140,-88 1005,-88"/>
<text text-anchor="middle" x="1072.5" y="-95" font-family="Helvetica,sans-Serif" font-size="10.00">RoR::BeamFactory::update</text>
</a>
</g>
</g>
<!-- Node24&#45;&gt;Node25 -->
<g id="edge5" class="edge"><title>Node24&#45;&gt;Node25</title>
<path fill="none" stroke="midnightblue" d="M778.218,-80.1086C845.353,-84.0897 941.327,-89.7808 1004.97,-93.555"/>
<polygon fill="midnightblue" stroke="midnightblue" points="778.305,-76.6077 768.116,-79.5096 777.891,-83.5955 778.305,-76.6077"/>
</g>
<!-- Node27 -->
<g id="node8" class="node"><title>Node27</title>
<g id="a_node8"><a xlink:href="../../d5/d53/class_ro_r_1_1_beam_factory.html#a5703b053d2b40e3dae66a063ded34578" target="_top" xlink:title="RoR::BeamFactory::getSimulation\lSpeed">
<polygon fill="white" stroke="black" points="804,-38.5 804,-68.5 969,-68.5 969,-38.5 804,-38.5"/>
<text text-anchor="start" x="812" y="-56.5" font-family="Helvetica,sans-Serif" font-size="10.00">RoR::BeamFactory::getSimulation</text>
<text text-anchor="middle" x="886.5" y="-45.5" font-family="Helvetica,sans-Serif" font-size="10.00">Speed</text>
</a>
</g>
</g>
<!-- Node24&#45;&gt;Node27 -->
<g id="edge7" class="edge"><title>Node24&#45;&gt;Node27</title>
<path fill="none" stroke="midnightblue" d="M778.033,-66.2798C786.601,-65.261 795.344,-64.2212 803.959,-63.1967"/>
<polygon fill="midnightblue" stroke="midnightblue" points="777.591,-62.8076 768.075,-67.4641 778.418,-69.7587 777.591,-62.8076"/>
</g>
<!-- Node26 -->
<g id="node7" class="node"><title>Node26</title>
<g id="a_node7"><a xlink:href="../../dd/dbe/class_ro_r_frame_listener.html#acdda0026f9324c3b7f48568624e07115" target="_top" xlink:title="RoRFrameListener::frameStarted">
<polygon fill="white" stroke="black" points="1176,-50 1176,-69 1335,-69 1335,-50 1176,-50"/>
<text text-anchor="middle" x="1255.5" y="-57" font-family="Helvetica,sans-Serif" font-size="10.00">RoRFrameListener::frameStarted</text>
</a>
</g>
</g>
<!-- Node25&#45;&gt;Node26 -->
<g id="edge6" class="edge"><title>Node25&#45;&gt;Node26</title>
<path fill="none" stroke="midnightblue" d="M1129.14,-85.819C1154.81,-80.4301 1184.89,-74.1139 1209.15,-69.0201"/>
<polygon fill="midnightblue" stroke="midnightblue" points="1128.24,-82.4309 1119.17,-87.911 1129.68,-89.2816 1128.24,-82.4309"/>
</g>
<!-- Node27&#45;&gt;Node26 -->
<g id="edge10" class="edge"><title>Node27&#45;&gt;Node26</title>
<path fill="none" stroke="midnightblue" d="M979.719,-55.0077C1040.22,-55.9967 1118.47,-57.2761 1175.99,-58.2165"/>
<polygon fill="midnightblue" stroke="midnightblue" points="979.461,-51.5031 969.405,-54.839 979.347,-58.5021 979.461,-51.5031"/>
</g>
<!-- Node28 -->
<g id="node9" class="node"><title>Node28</title>
<g id="a_node9"><a xlink:href="../../dd/dbe/class_ro_r_frame_listener.html#afec2a0f00ed552c21d22aae76329bf38" target="_top" xlink:title="RoRFrameListener::Update\lInputEvents">
<polygon fill="white" stroke="black" points="1005.5,-0.5 1005.5,-30.5 1139.5,-30.5 1139.5,-0.5 1005.5,-0.5"/>
<text text-anchor="start" x="1013.5" y="-18.5" font-family="Helvetica,sans-Serif" font-size="10.00">RoRFrameListener::Update</text>
<text text-anchor="middle" x="1072.5" y="-7.5" font-family="Helvetica,sans-Serif" font-size="10.00">InputEvents</text>
</a>
</g>
</g>
<!-- Node27&#45;&gt;Node28 -->
<g id="edge8" class="edge"><title>Node27&#45;&gt;Node28</title>
<path fill="none" stroke="midnightblue" d="M970.062,-36.4492C981.855,-34.0136 993.858,-31.5348 1005.28,-29.1752"/>
<polygon fill="midnightblue" stroke="midnightblue" points="969.307,-33.0311 960.222,-38.4814 970.723,-39.8864 969.307,-33.0311"/>
</g>
<!-- Node28&#45;&gt;Node26 -->
<g id="edge9" class="edge"><title>Node28&#45;&gt;Node26</title>
<path fill="none" stroke="midnightblue" d="M1145.06,-32.8964C1169.02,-38.7206 1194.83,-44.9954 1215.37,-49.9876"/>
<polygon fill="midnightblue" stroke="midnightblue" points="1145.83,-29.4805 1135.28,-30.5192 1144.17,-36.2824 1145.83,-29.4805"/>
</g>
</g>
</svg>
        <g id="navigator" transform="translate(0 0)" fill="#404254">
                <rect fill="#f2f5e9" fill-opacity="0.5" stroke="#606060" stroke-width=".5" x="0" y="0" width="60" height="60"/>
                <use id="zoomplus" xlink:href="#zoomPlus" x="17" y="9" onmousedown="handleZoom(evt,'in')"/>
                <use id="zoomminus" xlink:href="#zoomMin" x="42" y="9" onmousedown="handleZoom(evt,'out')"/>
                <use id="reset" xlink:href="#resetDef" x="30" y="36" onmousedown="handleReset()"/>
                <g id="arrowUp" xlink:href="#dirArrow" transform="translate(30 24)" onmousedown="handlePan(0,-1)">
                  <use xlink:href="#rim" fill="#404040">
                        <set attributeName="fill" to="#808080" begin="arrowUp.mouseover" end="arrowUp.mouseout"/>
                  </use>
                  <path fill="none" stroke="white" stroke-width="1.5" d="M0,-3.0v7 M-2.5,-0.5L0,-3.0L2.5,-0.5"/>
                </g>
                <g id="arrowRight" xlink:href="#dirArrow" transform="rotate(90) translate(36 -43)" onmousedown="handlePan(1,0)">
                  <use xlink:href="#rim" fill="#404040">
                        <set attributeName="fill" to="#808080" begin="arrowRight.mouseover" end="arrowRight.mouseout"/>
                  </use>
                  <path fill="none" stroke="white" stroke-width="1.5" d="M0,-3.0v7 M-2.5,-0.5L0,-3.0L2.5,-0.5"/>
                </g>
                <g id="arrowDown" xlink:href="#dirArrow" transform="rotate(180) translate(-30 -48)" onmousedown="handlePan(0,1)">
                  <use xlink:href="#rim" fill="#404040">
                        <set attributeName="fill" to="#808080" begin="arrowDown.mouseover" end="arrowDown.mouseout"/>
                  </use>
                  <path fill="none" stroke="white" stroke-width="1.5" d="M0,-3.0v7 M-2.5,-0.5L0,-3.0L2.5,-0.5"/>
                </g>
                <g id="arrowLeft" xlink:href="#dirArrow" transform="rotate(270) translate(-36 17)" onmousedown="handlePan(-1,0)">
                  <use xlink:href="#rim" fill="#404040">
                        <set attributeName="fill" to="#808080" begin="arrowLeft.mouseover" end="arrowLeft.mouseout"/>
                  </use>
                  <path fill="none" stroke="white" stroke-width="1.5" d="M0,-3.0v7 M-2.5,-0.5L0,-3.0L2.5,-0.5"/>
                </g>
        </g>
        <svg viewBox="0 0 15 15" width="100%" height="30px" preserveAspectRatio="xMaxYMin meet">
         <g id="arrow_out" transform="scale(0.3 0.3)">
          <a xlink:href="class_landusemap_ae1674c54ecba0ba42db48a919eda4ba1_icgraph_org.svg" target="_base">
           <rect id="button" ry="5" rx="5" y="6" x="6" height="38" width="38"
                fill="#f2f5e9" fill-opacity="0.5" stroke="#606060" stroke-width="1.0"/>
           <path id="arrow"
             d="M 11.500037,31.436501 C 11.940474,20.09759 22.043105,11.32322 32.158766,21.979434 L 37.068811,17.246167 C 37.068811,17.246167 37.088388,32 37.088388,32 L 22.160133,31.978069 C 22.160133,31.978069 26.997745,27.140456 26.997745,27.140456 C 18.528582,18.264221 13.291696,25.230495 11.500037,31.436501 z"
             style="fill:#404040;"/>
          </a>
         </g>
        </svg>
</svg>
