<?xml version="1.0" encoding="UTF-8" standalone="no"?>
<!DOCTYPE svg PUBLIC "-//W3C//DTD SVG 1.1//EN"
 "http://www.w3.org/Graphics/SVG/1.1/DTD/svg11.dtd">
<!-- Generated by graphviz version 2.38.0 (20140413.2041)
 -->
<!-- Title: DepthOfFieldEffect Pages: 1 -->
<svg width="261pt" height="154pt"
 viewBox="0.00 0.00 261.00 154.00" xmlns="http://www.w3.org/2000/svg" xmlns:xlink="http://www.w3.org/1999/xlink">
<g id="graph0" class="graph" transform="scale(1 1) rotate(0) translate(4 150)">
<title>DepthOfFieldEffect</title>
<polygon fill="white" stroke="none" points="-4,4 -4,-150 257,-150 257,4 -4,4"/>
<!-- Node5 -->
<g id="node1" class="node"><title>Node5</title>
<polygon fill="#bfbfbf" stroke="black" points="155,-66.5 155,-85.5 253,-85.5 253,-66.5 155,-66.5"/>
<text text-anchor="middle" x="204" y="-73.5" font-family="Helvetica,sans-Serif" font-size="10.00">DepthOfFieldEffect</text>
</g>
<!-- Node6 -->
<g id="node2" class="node"><title>Node6</title>
<polygon fill="white" stroke="#bfbfbf" points="34,-126.5 34,-145.5 85,-145.5 85,-126.5 34,-126.5"/>
<text text-anchor="middle" x="59.5" y="-133.5" font-family="Helvetica,sans-Serif" font-size="10.00">Listener</text>
</g>
<!-- Node6&#45;&gt;Node5 -->
<g id="edge1" class="edge"><title>Node6&#45;&gt;Node5</title>
<path fill="none" stroke="midnightblue" d="M95.0188,-125.676C102.972,-123.054 111.343,-120.095 119,-117 142.471,-107.515 168.529,-94.3648 185.306,-85.5387"/>
<polygon fill="midnightblue" stroke="midnightblue" points="93.7087,-122.421 85.2525,-128.804 95.8435,-129.087 93.7087,-122.421"/>
</g>
<!-- Node7 -->
<g id="node3" class="node"><title>Node7</title>
<polygon fill="white" stroke="#bfbfbf" points="5,-88.5 5,-107.5 114,-107.5 114,-88.5 5,-88.5"/>
<text text-anchor="middle" x="59.5" y="-95.5" font-family="Helvetica,sans-Serif" font-size="10.00">RenderTargetListener</text>
</g>
<!-- Node7&#45;&gt;Node5 -->
<g id="edge2" class="edge"><title>Node7&#45;&gt;Node5</title>
<path fill="none" stroke="midnightblue" d="M124.433,-88.1297C134.59,-86.5615 144.948,-84.9624 154.669,-83.4616"/>
<polygon fill="midnightblue" stroke="midnightblue" points="123.722,-84.6979 114.373,-89.6827 124.79,-91.6159 123.722,-84.6979"/>
</g>
<!-- Node8 -->
<g id="node4" class="node"><title>Node8</title>
<polygon fill="white" stroke="#bfbfbf" points="5,-39 5,-69 114,-69 114,-39 5,-39"/>
<text text-anchor="start" x="13" y="-57" font-family="Helvetica,sans-Serif" font-size="10.00">Ogre::RenderQueue::</text>
<text text-anchor="middle" x="59.5" y="-46" font-family="Helvetica,sans-Serif" font-size="10.00">RenderableListener</text>
</g>
<!-- Node8&#45;&gt;Node5 -->
<g id="edge3" class="edge"><title>Node8&#45;&gt;Node5</title>
<path fill="none" stroke="midnightblue" d="M124.433,-63.8703C134.59,-65.4385 144.948,-67.0376 154.669,-68.5384"/>
<polygon fill="midnightblue" stroke="midnightblue" points="124.79,-60.3841 114.373,-62.3173 123.722,-67.3021 124.79,-60.3841"/>
</g>
<!-- Node9 -->
<g id="node5" class="node"><title>Node9</title>
<g id="a_node5"><a xlink:href="../../d7/d0c/class_zeroed_memory_allocator.html" target="_top" xlink:title="ZeroedMemoryAllocator">
<polygon fill="white" stroke="black" points="0,-0.5 0,-19.5 119,-19.5 119,-0.5 0,-0.5"/>
<text text-anchor="middle" x="59.5" y="-7.5" font-family="Helvetica,sans-Serif" font-size="10.00">ZeroedMemoryAllocator</text>
</a>
</g>
</g>
<!-- Node9&#45;&gt;Node5 -->
<g id="edge4" class="edge"><title>Node9&#45;&gt;Node5</title>
<path fill="none" stroke="midnightblue" d="M101.002,-22.8322C107.1,-25.0552 113.264,-27.4712 119,-30 143.647,-40.8655 170.738,-56.4001 187.31,-66.3434"/>
<polygon fill="midnightblue" stroke="midnightblue" points="102.14,-19.5223 91.5452,-19.5093 99.8195,-26.1265 102.14,-19.5223"/>
</g>
</g>
</svg>
