<?xml version="1.0" encoding="UTF-8" standalone="no"?>
<!DOCTYPE svg PUBLIC "-//W3C//DTD SVG 1.1//EN"
 "http://www.w3.org/Graphics/SVG/1.1/DTD/svg11.dtd">
<!-- Generated by graphviz version 2.38.0 (20140413.2041)
 -->
<!-- Title: FindKeywordMatch Pages: 1 -->
<svg width="287pt" height="165pt"
 viewBox="0.00 0.00 287.00 164.50" xmlns="http://www.w3.org/2000/svg" xmlns:xlink="http://www.w3.org/1999/xlink">
<g id="graph0" class="graph" transform="scale(1 1) rotate(0) translate(4 160.5)">
<title>FindKeywordMatch</title>
<polygon fill="white" stroke="none" points="-4,4 -4,-160.5 283,-160.5 283,4 -4,4"/>
<!-- Node43 -->
<g id="node1" class="node"><title>Node43</title>
<polygon fill="#bfbfbf" stroke="black" points="0,-77 0,-96 100,-96 100,-77 0,-77"/>
<text text-anchor="middle" x="50" y="-84" font-family="Helvetica,sans-Serif" font-size="10.00">FindKeywordMatch</text>
</g>
<!-- Node44 -->
<g id="node2" class="node"><title>Node44</title>
<g id="a_node2"><a xlink:href="../../d5/dda/_bench___truck_parser___identify_keyword_8cpp.html#aecc37de7b6c6a3083bcbeba05b9c1043" target="_top" xlink:title="Bench_sol1__Regex">
<polygon fill="white" stroke="black" points="154.5,-137 154.5,-156 260.5,-156 260.5,-137 154.5,-137"/>
<text text-anchor="middle" x="207.5" y="-144" font-family="Helvetica,sans-Serif" font-size="10.00">Bench_sol1__Regex</text>
</a>
</g>
</g>
<!-- Node43&#45;&gt;Node44 -->
<g id="edge1" class="edge"><title>Node43&#45;&gt;Node44</title>
<path fill="none" stroke="midnightblue" d="M77.5276,-100.877C94.0184,-109.413 115.848,-119.999 136,-127.5 145.504,-131.038 155.953,-134.22 165.828,-136.923"/>
<polygon fill="midnightblue" stroke="midnightblue" points="78.9684,-97.6801 68.4881,-96.1265 75.7121,-103.877 78.9684,-97.6801"/>
</g>
<!-- Node45 -->
<g id="node3" class="node"><title>Node45</title>
<g id="a_node3"><a xlink:href="../../d5/dda/_bench___truck_parser___identify_keyword_8cpp.html#a0999246046b99e08e083b7f0968c1abe" target="_top" xlink:title="Bench_sol1b_RegexPreCond">
<polygon fill="white" stroke="black" points="136,-99 136,-118 279,-118 279,-99 136,-99"/>
<text text-anchor="middle" x="207.5" y="-106" font-family="Helvetica,sans-Serif" font-size="10.00">Bench_sol1b_RegexPreCond</text>
</a>
</g>
</g>
<!-- Node43&#45;&gt;Node45 -->
<g id="edge2" class="edge"><title>Node43&#45;&gt;Node45</title>
<path fill="none" stroke="midnightblue" d="M110.265,-94.8848C119.706,-96.2205 129.532,-97.6107 139.143,-98.9704"/>
<polygon fill="midnightblue" stroke="midnightblue" points="110.593,-91.3964 100.201,-93.4609 109.612,-98.3274 110.593,-91.3964"/>
</g>
<!-- Node46 -->
<g id="node4" class="node"><title>Node46</title>
<g id="a_node4"><a xlink:href="../../d5/dda/_bench___truck_parser___identify_keyword_8cpp.html#a3f422a28cbc4eadd91159601d82258d6" target="_top" xlink:title="Bench_sol1c_RegexPreCond\lIsdigit">
<polygon fill="white" stroke="black" points="136,-49.5 136,-79.5 279,-79.5 279,-49.5 136,-49.5"/>
<text text-anchor="start" x="144" y="-67.5" font-family="Helvetica,sans-Serif" font-size="10.00">Bench_sol1c_RegexPreCond</text>
<text text-anchor="middle" x="207.5" y="-56.5" font-family="Helvetica,sans-Serif" font-size="10.00">Isdigit</text>
</a>
</g>
</g>
<!-- Node43&#45;&gt;Node46 -->
<g id="edge3" class="edge"><title>Node43&#45;&gt;Node46</title>
<path fill="none" stroke="midnightblue" d="M110.207,-78.1235C118.556,-76.9423 127.208,-75.7182 135.746,-74.5102"/>
<polygon fill="midnightblue" stroke="midnightblue" points="109.612,-74.6726 100.201,-79.5391 110.593,-81.6036 109.612,-74.6726"/>
</g>
<!-- Node47 -->
<g id="node5" class="node"><title>Node47</title>
<g id="a_node5"><a xlink:href="../../d5/dda/_bench___truck_parser___identify_keyword_8cpp.html#af615c7667a4cbaa247897f7ea99f81e9" target="_top" xlink:title="Bench_sol1d_RegexPreCond\lIsAlpha">
<polygon fill="white" stroke="black" points="136,-0.5 136,-30.5 279,-30.5 279,-0.5 136,-0.5"/>
<text text-anchor="start" x="144" y="-18.5" font-family="Helvetica,sans-Serif" font-size="10.00">Bench_sol1d_RegexPreCond</text>
<text text-anchor="middle" x="207.5" y="-7.5" font-family="Helvetica,sans-Serif" font-size="10.00">IsAlpha</text>
</a>
</g>
</g>
<!-- Node43&#45;&gt;Node47 -->
<g id="edge4" class="edge"><title>Node43&#45;&gt;Node47</title>
<path fill="none" stroke="midnightblue" d="M75.9892,-71.6428C92.6555,-62.0694 115.237,-49.7325 136,-40.5 143.832,-37.0175 152.311,-33.669 160.584,-30.6169"/>
<polygon fill="midnightblue" stroke="midnightblue" points="73.8047,-68.8642 66.9183,-76.9158 77.3227,-74.916 73.8047,-68.8642"/>
</g>
</g>
</svg>
