<?xml version="1.0" encoding="UTF-8" standalone="no"?>
<!DOCTYPE svg PUBLIC "-//W3C//DTD SVG 1.1//EN"
 "http://www.w3.org/Graphics/SVG/1.1/DTD/svg11.dtd">
<!-- Generated by graphviz version 2.38.0 (20140413.2041)
 -->
<!-- Title: Bench_sol1c_RegexPreCondIsdigit Pages: 1 -->
<svg width="287pt" height="66pt"
 viewBox="0.00 0.00 287.00 66.00" xmlns="http://www.w3.org/2000/svg" xmlns:xlink="http://www.w3.org/1999/xlink">
<g id="graph0" class="graph" transform="scale(1 1) rotate(0) translate(4 62)">
<title>Bench_sol1c_RegexPreCondIsdigit</title>
<polygon fill="white" stroke="none" points="-4,4 -4,-62 283,-62 283,4 -4,4"/>
<!-- Node8 -->
<g id="node1" class="node"><title>Node8</title>
<polygon fill="#bfbfbf" stroke="black" points="0,-14 0,-44 143,-44 143,-14 0,-14"/>
<text text-anchor="start" x="8" y="-32" font-family="Helvetica,sans-Serif" font-size="10.00">Bench_sol1c_RegexPreCond</text>
<text text-anchor="middle" x="71.5" y="-21" font-family="Helvetica,sans-Serif" font-size="10.00">Isdigit</text>
</g>
<!-- Node9 -->
<g id="node2" class="node"><title>Node9</title>
<g id="a_node2"><a xlink:href="../../d5/dda/_bench___truck_parser___identify_keyword_8cpp.html#ae79d2bfbde37c0957adb85745101f019" target="_top" xlink:title="FindKeywordMatch">
<polygon fill="white" stroke="black" points="179,-38.5 179,-57.5 279,-57.5 279,-38.5 179,-38.5"/>
<text text-anchor="middle" x="229" y="-45.5" font-family="Helvetica,sans-Serif" font-size="10.00">FindKeywordMatch</text>
</a>
</g>
</g>
<!-- Node8&#45;&gt;Node9 -->
<g id="edge1" class="edge"><title>Node8&#45;&gt;Node9</title>
<path fill="none" stroke="midnightblue" d="M143.424,-37.666C151.966,-38.7097 160.619,-39.767 168.966,-40.7868"/>
<polygon fill="midnightblue" stroke="midnightblue" points="168.617,-44.2701 178.967,-42.0089 169.466,-37.3218 168.617,-44.2701"/>
</g>
<!-- Node10 -->
<g id="node3" class="node"><title>Node10</title>
<g id="a_node3"><a xlink:href="../../d5/dda/_bench___truck_parser___identify_keyword_8cpp.html#adc6d7aaeb8ca8b6497ee975d51a729f1" target="_top" xlink:title="BENCHMARK">
<polygon fill="white" stroke="black" points="189.5,-0.5 189.5,-19.5 268.5,-19.5 268.5,-0.5 189.5,-0.5"/>
<text text-anchor="middle" x="229" y="-7.5" font-family="Helvetica,sans-Serif" font-size="10.00">BENCHMARK</text>
</a>
</g>
</g>
<!-- Node8&#45;&gt;Node10 -->
<g id="edge2" class="edge"><title>Node8&#45;&gt;Node10</title>
<path fill="none" stroke="midnightblue" d="M143.424,-20.334C155.567,-18.8503 167.934,-17.3393 179.327,-15.9472"/>
<polygon fill="midnightblue" stroke="midnightblue" points="179.981,-19.3934 189.482,-14.7064 179.132,-12.4451 179.981,-19.3934"/>
</g>
</g>
</svg>
