<?xml version="1.0" encoding="UTF-8" standalone="no"?>
<!DOCTYPE svg PUBLIC "-//W3C//DTD SVG 1.1//EN"
 "http://www.w3.org/Graphics/SVG/1.1/DTD/svg11.dtd">
<!-- Generated by graphviz version 2.38.0 (20140413.2041)
 -->
<!-- Title: Hydrax::Noise::FFT::_getPhillipsSpectrum Pages: 1 -->
<svg width="808pt" height="148pt"
 viewBox="0.00 0.00 808.00 148.00" xmlns="http://www.w3.org/2000/svg" xmlns:xlink="http://www.w3.org/1999/xlink">
<g id="graph0" class="graph" transform="scale(1 1) rotate(0) translate(4 144)">
<title>Hydrax::Noise::FFT::_getPhillipsSpectrum</title>
<polygon fill="white" stroke="none" points="-4,4 -4,-144 804,-144 804,4 -4,4"/>
<!-- Node41 -->
<g id="node1" class="node"><title>Node41</title>
<polygon fill="#bfbfbf" stroke="black" points="0,-22.5 0,-52.5 115,-52.5 115,-22.5 0,-22.5"/>
<text text-anchor="start" x="8" y="-40.5" font-family="Helvetica,sans-Serif" font-size="10.00">Hydrax::Noise::FFT</text>
<text text-anchor="middle" x="57.5" y="-29.5" font-family="Helvetica,sans-Serif" font-size="10.00">::_getPhillipsSpectrum</text>
</g>
<!-- Node42 -->
<g id="node2" class="node"><title>Node42</title>
<g id="a_node2"><a xlink:href="../../de/d4c/class_hydrax_1_1_noise_1_1_f_f_t.html#a1853cb0b53ecccb1ecc06c5cd8fe65aa" target="_top" xlink:title="Hydrax::Noise::FFT\l::_initNoise">
<polygon fill="white" stroke="black" points="151,-44.5 151,-74.5 252,-74.5 252,-44.5 151,-44.5"/>
<text text-anchor="start" x="159" y="-62.5" font-family="Helvetica,sans-Serif" font-size="10.00">Hydrax::Noise::FFT</text>
<text text-anchor="middle" x="201.5" y="-51.5" font-family="Helvetica,sans-Serif" font-size="10.00">::_initNoise</text>
</a>
</g>
</g>
<!-- Node41&#45;&gt;Node42 -->
<g id="edge1" class="edge"><title>Node41&#45;&gt;Node42</title>
<path fill="none" stroke="midnightblue" d="M125.05,-47.8106C133.646,-49.1423 142.329,-50.4875 150.592,-51.7678"/>
<polygon fill="midnightblue" stroke="midnightblue" points="125.448,-44.3306 115.03,-46.2582 124.376,-51.248 125.448,-44.3306"/>
</g>
<!-- Node47 -->
<g id="node7" class="node"><title>Node47</title>
<g id="a_node7"><a xlink:href="../../de/d4c/class_hydrax_1_1_noise_1_1_f_f_t.html#aaee7b53caeea7ed3c6b370a39a741da1" target="_top" xlink:title="Hydrax::Noise::FFT\l::getOptions">
<polygon fill="white" stroke="black" points="288,-0.5 288,-30.5 389,-30.5 389,-0.5 288,-0.5"/>
<text text-anchor="start" x="296" y="-18.5" font-family="Helvetica,sans-Serif" font-size="10.00">Hydrax::Noise::FFT</text>
<text text-anchor="middle" x="338.5" y="-7.5" font-family="Helvetica,sans-Serif" font-size="10.00">::getOptions</text>
</a>
</g>
</g>
<!-- Node41&#45;&gt;Node47 -->
<g id="edge9" class="edge"><title>Node41&#45;&gt;Node47</title>
<path fill="none" stroke="midnightblue" d="M125.364,-32.2276C175.326,-28.2879 242.527,-22.9889 287.793,-19.4196"/>
<polygon fill="midnightblue" stroke="midnightblue" points="124.99,-28.7461 115.296,-33.0215 125.54,-35.7244 124.99,-28.7461"/>
</g>
<!-- Node43 -->
<g id="node3" class="node"><title>Node43</title>
<g id="a_node3"><a xlink:href="../../de/d4c/class_hydrax_1_1_noise_1_1_f_f_t.html#ac382e8624b864a32267687592b769bd3" target="_top" xlink:title="Hydrax::Noise::FFT\l::create">
<polygon fill="white" stroke="black" points="288,-49.5 288,-79.5 389,-79.5 389,-49.5 288,-49.5"/>
<text text-anchor="start" x="296" y="-67.5" font-family="Helvetica,sans-Serif" font-size="10.00">Hydrax::Noise::FFT</text>
<text text-anchor="middle" x="338.5" y="-56.5" font-family="Helvetica,sans-Serif" font-size="10.00">::create</text>
</a>
</g>
</g>
<!-- Node42&#45;&gt;Node43 -->
<g id="edge2" class="edge"><title>Node42&#45;&gt;Node43</title>
<path fill="none" stroke="midnightblue" d="M262.207,-61.7114C270.67,-62.0248 279.299,-62.3444 287.552,-62.6501"/>
<polygon fill="midnightblue" stroke="midnightblue" points="262.125,-58.206 252.002,-61.3334 261.866,-65.2012 262.125,-58.206"/>
</g>
<!-- Node42&#45;&gt;Node47 -->
<g id="edge8" class="edge"><title>Node42&#45;&gt;Node47</title>
<path fill="none" stroke="midnightblue" d="M258.1,-41.3785C269.093,-37.7956 280.521,-34.0709 291.168,-30.6009"/>
<polygon fill="midnightblue" stroke="midnightblue" points="257.005,-38.0542 248.582,-44.4808 259.174,-44.7096 257.005,-38.0542"/>
</g>
<!-- Node44 -->
<g id="node4" class="node"><title>Node44</title>
<g id="a_node4"><a xlink:href="../../de/d4c/class_hydrax_1_1_noise_1_1_f_f_t.html#a1d7ec06eb11cda608cc8f73256c35be5" target="_top" xlink:title="Hydrax::Noise::FFT\l::setOptions">
<polygon fill="white" stroke="black" points="425,-71.5 425,-101.5 526,-101.5 526,-71.5 425,-71.5"/>
<text text-anchor="start" x="433" y="-89.5" font-family="Helvetica,sans-Serif" font-size="10.00">Hydrax::Noise::FFT</text>
<text text-anchor="middle" x="475.5" y="-78.5" font-family="Helvetica,sans-Serif" font-size="10.00">::setOptions</text>
</a>
</g>
</g>
<!-- Node43&#45;&gt;Node44 -->
<g id="edge3" class="edge"><title>Node43&#45;&gt;Node44</title>
<path fill="none" stroke="midnightblue" d="M398.928,-74.1846C407.481,-75.5783 416.208,-77.0006 424.552,-78.3603"/>
<polygon fill="midnightblue" stroke="midnightblue" points="399.435,-70.7211 389.002,-72.5671 398.309,-77.63 399.435,-70.7211"/>
</g>
<!-- Node46 -->
<g id="node6" class="node"><title>Node46</title>
<g id="a_node6"><a xlink:href="../../d3/db5/struct_hydrax_1_1_noise_1_1_f_f_t_1_1_options.html#adfe9c5cc180b233f7ef6ba50fec06563" target="_top" xlink:title="Hydrax::Noise::FFT\l::Options::Options">
<polygon fill="white" stroke="black" points="699,-65.5 699,-95.5 800,-95.5 800,-65.5 699,-65.5"/>
<text text-anchor="start" x="707" y="-83.5" font-family="Helvetica,sans-Serif" font-size="10.00">Hydrax::Noise::FFT</text>
<text text-anchor="middle" x="749.5" y="-72.5" font-family="Helvetica,sans-Serif" font-size="10.00">::Options::Options</text>
</a>
</g>
</g>
<!-- Node43&#45;&gt;Node46 -->
<g id="edge7" class="edge"><title>Node43&#45;&gt;Node46</title>
<path fill="none" stroke="midnightblue" d="M399.259,-62.1358C407.895,-61.872 416.674,-61.646 425,-61.5 469.882,-60.7128 481.152,-59.5886 526,-61.5 585.457,-64.034 653.607,-70.3603 698.65,-75.02"/>
<polygon fill="midnightblue" stroke="midnightblue" points="399.106,-58.6388 389.224,-62.4605 399.332,-65.6352 399.106,-58.6388"/>
</g>
<!-- Node45 -->
<g id="node5" class="node"><title>Node45</title>
<g id="a_node5"><a xlink:href="../../de/d4c/class_hydrax_1_1_noise_1_1_f_f_t.html#a64245b9e56eeb8627ac3f5260dc203dd" target="_top" xlink:title="Hydrax::Noise::FFT\l::loadCfg">
<polygon fill="white" stroke="black" points="562,-109.5 562,-139.5 663,-139.5 663,-109.5 562,-109.5"/>
<text text-anchor="start" x="570" y="-127.5" font-family="Helvetica,sans-Serif" font-size="10.00">Hydrax::Noise::FFT</text>
<text text-anchor="middle" x="612.5" y="-116.5" font-family="Helvetica,sans-Serif" font-size="10.00">::loadCfg</text>
</a>
</g>
</g>
<!-- Node44&#45;&gt;Node45 -->
<g id="edge4" class="edge"><title>Node44&#45;&gt;Node45</title>
<path fill="none" stroke="midnightblue" d="M535.649,-103.149C544.291,-105.582 553.118,-108.066 561.552,-110.44"/>
<polygon fill="midnightblue" stroke="midnightblue" points="536.577,-99.7745 526.002,-100.434 534.68,-106.513 536.577,-99.7745"/>
</g>
<!-- Node44&#45;&gt;Node46 -->
<g id="edge6" class="edge"><title>Node44&#45;&gt;Node46</title>
<path fill="none" stroke="midnightblue" d="M536.165,-85.1839C584.905,-84.1087 652.993,-82.6068 698.809,-81.5961"/>
<polygon fill="midnightblue" stroke="midnightblue" points="535.993,-81.6867 526.073,-85.4065 536.148,-88.685 535.993,-81.6867"/>
</g>
<!-- Node45&#45;&gt;Node46 -->
<g id="edge5" class="edge"><title>Node45&#45;&gt;Node46</title>
<path fill="none" stroke="midnightblue" d="M669.1,-106.379C680.093,-102.796 691.521,-99.0709 702.168,-95.6009"/>
<polygon fill="midnightblue" stroke="midnightblue" points="668.005,-103.054 659.582,-109.481 670.174,-109.71 668.005,-103.054"/>
</g>
</g>
</svg>
