<?xml version="1.0" encoding="UTF-8" standalone="no"?>
<!DOCTYPE svg PUBLIC "-//W3C//DTD SVG 1.1//EN"
 "http://www.w3.org/Graphics/SVG/1.1/DTD/svg11.dtd">
<!-- Generated by graphviz version 2.38.0 (20140413.2041)
 -->
<!-- Title: source/main/utils/ForceFeedback.cpp Pages: 1 -->
<svg width="1968pt" height="308pt"
 viewBox="0.00 0.00 1967.50 308.00" xmlns="http://www.w3.org/2000/svg" xmlns:xlink="http://www.w3.org/1999/xlink">
<g id="graph0" class="graph" transform="scale(1 1) rotate(0) translate(4 304)">
<title>source/main/utils/ForceFeedback.cpp</title>
<polygon fill="white" stroke="none" points="-4,4 -4,-304 1963.5,-304 1963.5,4 -4,4"/>
<!-- Node0 -->
<g id="node1" class="node"><title>Node0</title>
<polygon fill="#bfbfbf" stroke="black" points="1005.5,-280.5 1005.5,-299.5 1185.5,-299.5 1185.5,-280.5 1005.5,-280.5"/>
<text text-anchor="middle" x="1095.5" y="-287.5" font-family="Helvetica,sans-Serif" font-size="10.00">source/main/utils/ForceFeedback.cpp</text>
</g>
<!-- Node1 -->
<g id="node2" class="node"><title>Node1</title>
<g id="a_node2"><a xlink:href="../../de/d05/_force_feedback_8h.html" target="_top" xlink:title="ForceFeedback.h">
<polygon fill="white" stroke="black" points="714.5,-224.5 714.5,-243.5 806.5,-243.5 806.5,-224.5 714.5,-224.5"/>
<text text-anchor="middle" x="760.5" y="-231.5" font-family="Helvetica,sans-Serif" font-size="10.00">ForceFeedback.h</text>
</a>
</g>
</g>
<!-- Node0&#45;&gt;Node1 -->
<g id="edge1" class="edge"><title>Node0&#45;&gt;Node1</title>
<path fill="none" stroke="midnightblue" d="M1042.42,-280.444C980.814,-270.513 879.655,-254.207 816.737,-244.065"/>
<polygon fill="midnightblue" stroke="midnightblue" points="817.027,-240.567 806.598,-242.431 815.913,-247.478 817.027,-240.567"/>
</g>
<!-- Node2 -->
<g id="node3" class="node"><title>Node2</title>
<g id="a_node3"><a xlink:href="../../d9/da3/_application_8h.html" target="_top" xlink:title="Central state/object manager and communications hub. ">
<polygon fill="white" stroke="black" points="1777,-224.5 1777,-243.5 1850,-243.5 1850,-224.5 1777,-224.5"/>
<text text-anchor="middle" x="1813.5" y="-231.5" font-family="Helvetica,sans-Serif" font-size="10.00">Application.h</text>
</a>
</g>
</g>
<!-- Node0&#45;&gt;Node2 -->
<g id="edge2" class="edge"><title>Node0&#45;&gt;Node2</title>
<path fill="none" stroke="midnightblue" d="M1185.71,-282.216C1339.99,-270.612 1649.26,-247.352 1766.75,-238.516"/>
<polygon fill="midnightblue" stroke="midnightblue" points="1767.15,-241.996 1776.86,-237.756 1766.62,-235.016 1767.15,-241.996"/>
</g>
<!-- Node7 -->
<g id="node8" class="node"><title>Node7</title>
<g id="a_node8"><a xlink:href="../../d1/d83/_input_engine_8h.html" target="_top" xlink:title="Input logic. ">
<polygon fill="white" stroke="black" points="1220.5,-224.5 1220.5,-243.5 1296.5,-243.5 1296.5,-224.5 1220.5,-224.5"/>
<text text-anchor="middle" x="1258.5" y="-231.5" font-family="Helvetica,sans-Serif" font-size="10.00">InputEngine.h</text>
</a>
</g>
</g>
<!-- Node0&#45;&gt;Node7 -->
<g id="edge7" class="edge"><title>Node0&#45;&gt;Node7</title>
<path fill="none" stroke="midnightblue" d="M1121.33,-280.444C1148.75,-271.359 1192.28,-256.939 1222.93,-246.783"/>
<polygon fill="midnightblue" stroke="midnightblue" points="1224.4,-249.984 1232.79,-243.516 1222.2,-243.339 1224.4,-249.984"/>
</g>
<!-- Node8 -->
<g id="node9" class="node"><title>Node8</title>
<g id="a_node9"><a xlink:href="../../d8/d9c/_ro_r_prerequisites_8h.html" target="_top" xlink:title="RoRPrerequisites.h">
<polygon fill="white" stroke="black" points="863,-112.5 863,-131.5 964,-131.5 964,-112.5 863,-112.5"/>
<text text-anchor="middle" x="913.5" y="-119.5" font-family="Helvetica,sans-Serif" font-size="10.00">RoRPrerequisites.h</text>
</a>
</g>
</g>
<!-- Node0&#45;&gt;Node8 -->
<g id="edge37" class="edge"><title>Node0&#45;&gt;Node8</title>
<path fill="none" stroke="midnightblue" d="M1059.33,-280.46C1016.22,-268.142 946.063,-240.822 914.5,-188 906.269,-174.225 906.873,-155.699 909.036,-141.95"/>
<polygon fill="midnightblue" stroke="midnightblue" points="912.55,-142.223 911.061,-131.734 905.684,-140.862 912.55,-142.223"/>
</g>
<!-- Node15 -->
<g id="node16" class="node"><title>Node15</title>
<polygon fill="white" stroke="#bfbfbf" points="0,-56.5 0,-75.5 71,-75.5 71,-56.5 0,-56.5"/>
<text text-anchor="middle" x="35.5" y="-63.5" font-family="Helvetica,sans-Serif" font-size="10.00">OgreString.h</text>
</g>
<!-- Node0&#45;&gt;Node15 -->
<g id="edge39" class="edge"><title>Node0&#45;&gt;Node15</title>
<path fill="none" stroke="midnightblue" d="M1060.22,-280.455C1007.2,-267.695 903.779,-243.118 815.5,-224 492.744,-154.102 408.227,-142.554 81.2797,-76.3552"/>
<polygon fill="midnightblue" stroke="midnightblue" points="81.5354,-72.8359 71.0395,-74.28 80.1451,-79.6965 81.5354,-72.8359"/>
</g>
<!-- Node28 -->
<g id="node29" class="node"><title>Node28</title>
<polygon fill="white" stroke="#bfbfbf" points="1627,-168.5 1627,-187.5 1736,-187.5 1736,-168.5 1627,-168.5"/>
<text text-anchor="middle" x="1681.5" y="-175.5" font-family="Helvetica,sans-Serif" font-size="10.00">OISForceFeedback.h</text>
</g>
<!-- Node0&#45;&gt;Node28 -->
<g id="edge38" class="edge"><title>Node0&#45;&gt;Node28</title>
<path fill="none" stroke="midnightblue" d="M1140.99,-280.46C1247.11,-260.542 1510.7,-211.062 1626.01,-189.417"/>
<polygon fill="midnightblue" stroke="midnightblue" points="1626.85,-192.819 1636.03,-187.535 1625.56,-185.94 1626.85,-192.819"/>
</g>
<!-- Node3 -->
<g id="node4" class="node"><title>Node3</title>
<g id="a_node4"><a xlink:href="../../d3/d73/_forward_declarations_8h.html" target="_top" xlink:title="Global forward declarations. ">
<polygon fill="white" stroke="black" points="1519,-0.5 1519,-19.5 1632,-19.5 1632,-0.5 1519,-0.5"/>
<text text-anchor="middle" x="1575.5" y="-7.5" font-family="Helvetica,sans-Serif" font-size="10.00">ForwardDeclarations.h</text>
</a>
</g>
</g>
<!-- Node2&#45;&gt;Node3 -->
<g id="edge3" class="edge"><title>Node2&#45;&gt;Node3</title>
<path fill="none" stroke="midnightblue" d="M1806.94,-224.465C1800.48,-215.717 1790.7,-201.518 1784.5,-188 1759.01,-132.392 1789.37,-98.6353 1745.5,-56 1718.2,-29.4678 1677.16,-18.106 1642.25,-13.431"/>
<polygon fill="midnightblue" stroke="midnightblue" points="1642.45,-9.93035 1632.11,-12.2339 1641.63,-16.8821 1642.45,-9.93035"/>
</g>
<!-- Node4 -->
<g id="node5" class="node"><title>Node4</title>
<polygon fill="white" stroke="#bfbfbf" points="1852,-168.5 1852,-187.5 1895,-187.5 1895,-168.5 1852,-168.5"/>
<text text-anchor="middle" x="1873.5" y="-175.5" font-family="Helvetica,sans-Serif" font-size="10.00">cstdio</text>
</g>
<!-- Node2&#45;&gt;Node4 -->
<g id="edge4" class="edge"><title>Node2&#45;&gt;Node4</title>
<path fill="none" stroke="midnightblue" d="M1823.14,-224.324C1832.01,-216.341 1845.37,-204.313 1856.11,-194.653"/>
<polygon fill="midnightblue" stroke="midnightblue" points="1858.59,-197.125 1863.68,-187.834 1853.91,-191.922 1858.59,-197.125"/>
</g>
<!-- Node5 -->
<g id="node6" class="node"><title>Node5</title>
<polygon fill="white" stroke="#bfbfbf" points="1913.5,-168.5 1913.5,-187.5 1959.5,-187.5 1959.5,-168.5 1913.5,-168.5"/>
<text text-anchor="middle" x="1936.5" y="-175.5" font-family="Helvetica,sans-Serif" font-size="10.00">cstring</text>
</g>
<!-- Node2&#45;&gt;Node5 -->
<g id="edge5" class="edge"><title>Node2&#45;&gt;Node5</title>
<path fill="none" stroke="midnightblue" d="M1832.99,-224.444C1853.14,-215.596 1884.82,-201.687 1907.83,-191.586"/>
<polygon fill="midnightblue" stroke="midnightblue" points="1909.35,-194.741 1917.1,-187.516 1906.54,-188.332 1909.35,-194.741"/>
</g>
<!-- Node6 -->
<g id="node7" class="node"><title>Node6</title>
<polygon fill="white" stroke="#bfbfbf" points="1793,-168.5 1793,-187.5 1834,-187.5 1834,-168.5 1793,-168.5"/>
<text text-anchor="middle" x="1813.5" y="-175.5" font-family="Helvetica,sans-Serif" font-size="10.00">string</text>
</g>
<!-- Node2&#45;&gt;Node6 -->
<g id="edge6" class="edge"><title>Node2&#45;&gt;Node6</title>
<path fill="none" stroke="midnightblue" d="M1813.5,-224.083C1813.5,-217.006 1813.5,-206.861 1813.5,-197.986"/>
<polygon fill="midnightblue" stroke="midnightblue" points="1817,-197.751 1813.5,-187.751 1810,-197.751 1817,-197.751"/>
</g>
<!-- Node7&#45;&gt;Node8 -->
<g id="edge8" class="edge"><title>Node7&#45;&gt;Node8</title>
<path fill="none" stroke="midnightblue" d="M1220.43,-232.911C1143.39,-231.934 972.744,-225.477 930.5,-188 917.567,-176.527 913.911,-156.55 913.125,-141.762"/>
<polygon fill="midnightblue" stroke="midnightblue" points="916.624,-141.64 912.978,-131.692 909.625,-141.743 916.624,-141.64"/>
</g>
<!-- Node17 -->
<g id="node18" class="node"><title>Node17</title>
<polygon fill="white" stroke="#bfbfbf" points="1647,-56.5 1647,-75.5 1736,-75.5 1736,-56.5 1647,-56.5"/>
<text text-anchor="middle" x="1691.5" y="-63.5" font-family="Helvetica,sans-Serif" font-size="10.00">OgreUTFString.h</text>
</g>
<!-- Node7&#45;&gt;Node17 -->
<g id="edge30" class="edge"><title>Node7&#45;&gt;Node17</title>
<path fill="none" stroke="midnightblue" d="M1296.57,-228.335C1378.68,-218.178 1566.09,-194.456 1578.5,-188 1625.51,-163.547 1663.42,-111.561 1680.95,-84.3793"/>
<polygon fill="midnightblue" stroke="midnightblue" points="1684.12,-85.9155 1686.47,-75.5843 1678.19,-82.1956 1684.12,-85.9155"/>
</g>
<!-- Node25 -->
<g id="node26" class="node"><title>Node25</title>
<g id="a_node26"><a xlink:href="../../d4/dd4/_ro_r_window_event_utilities_8h.html" target="_top" xlink:title="RoRWindowEventUtilities.h">
<polygon fill="white" stroke="black" points="1130.5,-168.5 1130.5,-187.5 1264.5,-187.5 1264.5,-168.5 1130.5,-168.5"/>
<text text-anchor="middle" x="1197.5" y="-175.5" font-family="Helvetica,sans-Serif" font-size="10.00">RoRWindowEventUtilities.h</text>
</a>
</g>
</g>
<!-- Node7&#45;&gt;Node25 -->
<g id="edge27" class="edge"><title>Node7&#45;&gt;Node25</title>
<path fill="none" stroke="midnightblue" d="M1248.7,-224.324C1239.68,-216.341 1226.09,-204.313 1215.18,-194.653"/>
<polygon fill="midnightblue" stroke="midnightblue" points="1217.29,-191.842 1207.48,-187.834 1212.65,-197.083 1217.29,-191.842"/>
</g>
<!-- Node27 -->
<g id="node28" class="node"><title>Node27</title>
<polygon fill="white" stroke="#bfbfbf" points="1283,-168.5 1283,-187.5 1354,-187.5 1354,-168.5 1283,-168.5"/>
<text text-anchor="middle" x="1318.5" y="-175.5" font-family="Helvetica,sans-Serif" font-size="10.00">OISEvents.h</text>
</g>
<!-- Node7&#45;&gt;Node27 -->
<g id="edge31" class="edge"><title>Node7&#45;&gt;Node27</title>
<path fill="none" stroke="midnightblue" d="M1268.14,-224.324C1277.01,-216.341 1290.37,-204.313 1301.11,-194.653"/>
<polygon fill="midnightblue" stroke="midnightblue" points="1303.59,-197.125 1308.68,-187.834 1298.91,-191.922 1303.59,-197.125"/>
</g>
<!-- Node7&#45;&gt;Node28 -->
<g id="edge32" class="edge"><title>Node7&#45;&gt;Node28</title>
<path fill="none" stroke="midnightblue" d="M1296.75,-228.18C1361.67,-219.988 1497.6,-202.797 1612.5,-188 1613.96,-187.812 1615.44,-187.621 1616.93,-187.429"/>
<polygon fill="midnightblue" stroke="midnightblue" points="1617.42,-190.895 1626.89,-186.14 1616.52,-183.952 1617.42,-190.895"/>
</g>
<!-- Node29 -->
<g id="node30" class="node"><title>Node29</title>
<polygon fill="white" stroke="#bfbfbf" points="1372.5,-168.5 1372.5,-187.5 1472.5,-187.5 1472.5,-168.5 1372.5,-168.5"/>
<text text-anchor="middle" x="1422.5" y="-175.5" font-family="Helvetica,sans-Serif" font-size="10.00">OISInputManager.h</text>
</g>
<!-- Node7&#45;&gt;Node29 -->
<g id="edge33" class="edge"><title>Node7&#45;&gt;Node29</title>
<path fill="none" stroke="midnightblue" d="M1284.49,-224.444C1312.2,-215.32 1356.25,-200.813 1387.12,-190.651"/>
<polygon fill="midnightblue" stroke="midnightblue" points="1388.23,-193.968 1396.64,-187.516 1386.04,-187.32 1388.23,-193.968"/>
</g>
<!-- Node30 -->
<g id="node31" class="node"><title>Node30</title>
<polygon fill="white" stroke="#bfbfbf" points="1491,-168.5 1491,-187.5 1570,-187.5 1570,-168.5 1491,-168.5"/>
<text text-anchor="middle" x="1530.5" y="-175.5" font-family="Helvetica,sans-Serif" font-size="10.00">OISJoyStick.h</text>
</g>
<!-- Node7&#45;&gt;Node30 -->
<g id="edge34" class="edge"><title>Node7&#45;&gt;Node30</title>
<path fill="none" stroke="midnightblue" d="M1296.61,-225.435C1344.82,-215.863 1427.95,-199.36 1481.02,-188.824"/>
<polygon fill="midnightblue" stroke="midnightblue" points="1481.76,-192.245 1490.89,-186.865 1480.4,-185.379 1481.76,-192.245"/>
</g>
<!-- Node31 -->
<g id="node32" class="node"><title>Node31</title>
<polygon fill="white" stroke="#bfbfbf" points="940,-168.5 940,-187.5 1023,-187.5 1023,-168.5 940,-168.5"/>
<text text-anchor="middle" x="981.5" y="-175.5" font-family="Helvetica,sans-Serif" font-size="10.00">OISKeyboard.h</text>
</g>
<!-- Node7&#45;&gt;Node31 -->
<g id="edge35" class="edge"><title>Node7&#45;&gt;Node31</title>
<path fill="none" stroke="midnightblue" d="M1220.28,-225.548C1171.75,-216.089 1087.84,-199.731 1033.52,-189.141"/>
<polygon fill="midnightblue" stroke="midnightblue" points="1033.89,-185.647 1023.4,-187.169 1032.55,-192.518 1033.89,-185.647"/>
</g>
<!-- Node32 -->
<g id="node33" class="node"><title>Node32</title>
<polygon fill="white" stroke="#bfbfbf" points="1041,-168.5 1041,-187.5 1112,-187.5 1112,-168.5 1041,-168.5"/>
<text text-anchor="middle" x="1076.5" y="-175.5" font-family="Helvetica,sans-Serif" font-size="10.00">OISMouse.h</text>
</g>
<!-- Node7&#45;&gt;Node32 -->
<g id="edge36" class="edge"><title>Node7&#45;&gt;Node32</title>
<path fill="none" stroke="midnightblue" d="M1229.66,-224.444C1198.64,-215.241 1149.17,-200.562 1114.88,-190.388"/>
<polygon fill="midnightblue" stroke="midnightblue" points="1115.79,-187.006 1105.2,-187.516 1113.79,-193.716 1115.79,-187.006"/>
</g>
<!-- Node8&#45;&gt;Node3 -->
<g id="edge20" class="edge"><title>Node8&#45;&gt;Node3</title>
<path fill="none" stroke="midnightblue" d="M964.356,-118.339C1093.43,-111.386 1426.89,-92.0929 1474.5,-76 1491.48,-70.2616 1531.19,-42.9245 1555.45,-25.5807"/>
<polygon fill="midnightblue" stroke="midnightblue" points="1557.55,-28.3836 1563.62,-19.7015 1553.46,-22.702 1557.55,-28.3836"/>
</g>
<!-- Node9 -->
<g id="node10" class="node"><title>Node9</title>
<polygon fill="white" stroke="#bfbfbf" points="89,-56.5 89,-75.5 192,-75.5 192,-56.5 89,-56.5"/>
<text text-anchor="middle" x="140.5" y="-63.5" font-family="Helvetica,sans-Serif" font-size="10.00">OgrePrerequisites.h</text>
</g>
<!-- Node8&#45;&gt;Node9 -->
<g id="edge9" class="edge"><title>Node8&#45;&gt;Node9</title>
<path fill="none" stroke="midnightblue" d="M862.805,-113.571C857.976,-112.987 853.149,-112.45 848.5,-112 564.764,-84.5219 489.202,-104.935 202.462,-76.1101"/>
<polygon fill="midnightblue" stroke="midnightblue" points="202.475,-72.5935 192.172,-75.0638 201.766,-79.5576 202.475,-72.5935"/>
</g>
<!-- Node10 -->
<g id="node11" class="node"><title>Node10</title>
<polygon fill="white" stroke="#bfbfbf" points="210,-56.5 210,-75.5 325,-75.5 325,-56.5 210,-56.5"/>
<text text-anchor="middle" x="267.5" y="-63.5" font-family="Helvetica,sans-Serif" font-size="10.00">OgreAxisAlignedBox.h</text>
</g>
<!-- Node8&#45;&gt;Node10 -->
<g id="edge10" class="edge"><title>Node8&#45;&gt;Node10</title>
<path fill="none" stroke="midnightblue" d="M862.798,-113.642C857.971,-113.043 853.146,-112.484 848.5,-112 623.953,-88.618 564.008,-98.9519 335.182,-75.9998"/>
<polygon fill="midnightblue" stroke="midnightblue" points="335.518,-72.516 325.216,-74.99 334.812,-79.4803 335.518,-72.516"/>
</g>
<!-- Node11 -->
<g id="node12" class="node"><title>Node11</title>
<polygon fill="white" stroke="#bfbfbf" points="343.5,-56.5 343.5,-75.5 441.5,-75.5 441.5,-56.5 343.5,-56.5"/>
<text text-anchor="middle" x="392.5" y="-63.5" font-family="Helvetica,sans-Serif" font-size="10.00">OgreColourValue.h</text>
</g>
<!-- Node8&#45;&gt;Node11 -->
<g id="edge11" class="edge"><title>Node8&#45;&gt;Node11</title>
<path fill="none" stroke="midnightblue" d="M862.787,-113.742C857.962,-113.123 853.141,-112.531 848.5,-112 675.314,-92.1889 628.514,-97.4214 451.687,-76.0707"/>
<polygon fill="midnightblue" stroke="midnightblue" points="451.867,-72.5668 441.517,-74.8309 451.02,-79.5153 451.867,-72.5668"/>
</g>
<!-- Node12 -->
<g id="node13" class="node"><title>Node12</title>
<polygon fill="white" stroke="#bfbfbf" points="460,-56.5 460,-75.5 561,-75.5 561,-56.5 460,-56.5"/>
<text text-anchor="middle" x="510.5" y="-63.5" font-family="Helvetica,sans-Serif" font-size="10.00">OgreHeaderPrefix.h</text>
</g>
<!-- Node8&#45;&gt;Node12 -->
<g id="edge12" class="edge"><title>Node8&#45;&gt;Node12</title>
<path fill="none" stroke="midnightblue" d="M862.764,-113.929C857.944,-113.271 853.13,-112.619 848.5,-112 727.843,-95.8629 695.021,-93.5436 571.276,-76.2252"/>
<polygon fill="midnightblue" stroke="midnightblue" points="571.409,-72.7096 561.019,-74.7846 570.435,-79.6415 571.409,-72.7096"/>
</g>
<!-- Node13 -->
<g id="node14" class="node"><title>Node13</title>
<polygon fill="white" stroke="#bfbfbf" points="579,-56.5 579,-75.5 678,-75.5 678,-56.5 579,-56.5"/>
<text text-anchor="middle" x="628.5" y="-63.5" font-family="Helvetica,sans-Serif" font-size="10.00">OgreLogManager.h</text>
</g>
<!-- Node8&#45;&gt;Node13 -->
<g id="edge13" class="edge"><title>Node8&#45;&gt;Node13</title>
<path fill="none" stroke="midnightblue" d="M868.341,-112.444C818.206,-102.944 737.28,-87.611 683.494,-77.4198"/>
<polygon fill="midnightblue" stroke="midnightblue" points="683.925,-73.9393 673.448,-75.5164 682.621,-80.8169 683.925,-73.9393"/>
</g>
<!-- Node14 -->
<g id="node15" class="node"><title>Node14</title>
<polygon fill="white" stroke="#bfbfbf" points="696,-56.5 696,-75.5 789,-75.5 789,-56.5 696,-56.5"/>
<text text-anchor="middle" x="742.5" y="-63.5" font-family="Helvetica,sans-Serif" font-size="10.00">OgreQuaternion.h</text>
</g>
<!-- Node8&#45;&gt;Node14 -->
<g id="edge14" class="edge"><title>Node8&#45;&gt;Node14</title>
<path fill="none" stroke="midnightblue" d="M886.405,-112.444C857.512,-103.32 811.575,-88.8133 779.395,-78.6509"/>
<polygon fill="midnightblue" stroke="midnightblue" points="780.059,-75.1903 769.469,-75.5164 777.951,-81.8654 780.059,-75.1903"/>
</g>
<!-- Node8&#45;&gt;Node15 -->
<g id="edge15" class="edge"><title>Node8&#45;&gt;Node15</title>
<path fill="none" stroke="midnightblue" d="M862.809,-113.528C857.98,-112.953 853.151,-112.43 848.5,-112 511.128,-80.8115 420.772,-117.677 81.5523,-76.0783"/>
<polygon fill="midnightblue" stroke="midnightblue" points="81.7979,-72.5821 71.4431,-74.8246 80.9363,-79.5288 81.7979,-72.5821"/>
</g>
<!-- Node16 -->
<g id="node17" class="node"><title>Node16</title>
<polygon fill="white" stroke="#bfbfbf" points="807.5,-56.5 807.5,-75.5 919.5,-75.5 919.5,-56.5 807.5,-56.5"/>
<text text-anchor="middle" x="863.5" y="-63.5" font-family="Helvetica,sans-Serif" font-size="10.00">OgreStringConverter.h</text>
</g>
<!-- Node8&#45;&gt;Node16 -->
<g id="edge16" class="edge"><title>Node8&#45;&gt;Node16</title>
<path fill="none" stroke="midnightblue" d="M905.244,-112.083C898.035,-104.298 887.39,-92.8015 878.654,-83.3665"/>
<polygon fill="midnightblue" stroke="midnightblue" points="880.965,-80.7108 871.603,-75.7511 875.829,-85.4666 880.965,-80.7108"/>
</g>
<!-- Node8&#45;&gt;Node17 -->
<g id="edge17" class="edge"><title>Node8&#45;&gt;Node17</title>
<path fill="none" stroke="midnightblue" d="M964.018,-118.54C1102.64,-111.685 1487.95,-91.8949 1636.48,-75.9616"/>
<polygon fill="midnightblue" stroke="midnightblue" points="1637.21,-79.4027 1646.76,-74.8213 1636.44,-72.4454 1637.21,-79.4027"/>
</g>
<!-- Node18 -->
<g id="node19" class="node"><title>Node18</title>
<polygon fill="white" stroke="#bfbfbf" points="937.5,-56.5 937.5,-75.5 1017.5,-75.5 1017.5,-56.5 937.5,-56.5"/>
<text text-anchor="middle" x="977.5" y="-63.5" font-family="Helvetica,sans-Serif" font-size="10.00">OgreVector2.h</text>
</g>
<!-- Node8&#45;&gt;Node18 -->
<g id="edge18" class="edge"><title>Node8&#45;&gt;Node18</title>
<path fill="none" stroke="midnightblue" d="M923.783,-112.324C933.336,-104.263 947.78,-92.0765 959.284,-82.3695"/>
<polygon fill="midnightblue" stroke="midnightblue" points="961.644,-84.9577 967.03,-75.8339 957.13,-79.6076 961.644,-84.9577"/>
</g>
<!-- Node19 -->
<g id="node20" class="node"><title>Node19</title>
<polygon fill="white" stroke="#bfbfbf" points="1035.5,-56.5 1035.5,-75.5 1115.5,-75.5 1115.5,-56.5 1035.5,-56.5"/>
<text text-anchor="middle" x="1075.5" y="-63.5" font-family="Helvetica,sans-Serif" font-size="10.00">OgreVector3.h</text>
</g>
<!-- Node8&#45;&gt;Node19 -->
<g id="edge19" class="edge"><title>Node8&#45;&gt;Node19</title>
<path fill="none" stroke="midnightblue" d="M939.169,-112.444C966.423,-103.359 1009.68,-88.9388 1040.15,-78.7831"/>
<polygon fill="midnightblue" stroke="midnightblue" points="1041.57,-81.9992 1049.95,-75.5164 1039.36,-75.3584 1041.57,-81.9992"/>
</g>
<!-- Node20 -->
<g id="node21" class="node"><title>Node20</title>
<g id="a_node21"><a xlink:href="../../d7/dfa/_global_environment_8h.html" target="_top" xlink:title="GlobalEnvironment.h">
<polygon fill="white" stroke="black" points="1522.5,-56.5 1522.5,-75.5 1628.5,-75.5 1628.5,-56.5 1522.5,-56.5"/>
<text text-anchor="middle" x="1575.5" y="-63.5" font-family="Helvetica,sans-Serif" font-size="10.00">GlobalEnvironment.h</text>
</a>
</g>
</g>
<!-- Node8&#45;&gt;Node20 -->
<g id="edge21" class="edge"><title>Node8&#45;&gt;Node20</title>
<path fill="none" stroke="midnightblue" d="M964.133,-118.165C1066.91,-112.191 1307.34,-97.1 1508.5,-76 1509.61,-75.8837 1510.73,-75.7636 1511.85,-75.6402"/>
<polygon fill="midnightblue" stroke="midnightblue" points="1512.61,-79.0765 1522.14,-74.4518 1511.8,-72.1228 1512.61,-79.0765"/>
</g>
<!-- Node21 -->
<g id="node22" class="node"><title>Node21</title>
<g id="a_node22"><a xlink:href="../../dc/de5/_zeroed_memory_allocator_8h.html" target="_top" xlink:title="ZeroedMemoryAllocator.h">
<polygon fill="white" stroke="black" points="1133.5,-56.5 1133.5,-75.5 1261.5,-75.5 1261.5,-56.5 1133.5,-56.5"/>
<text text-anchor="middle" x="1197.5" y="-63.5" font-family="Helvetica,sans-Serif" font-size="10.00">ZeroedMemoryAllocator.h</text>
</a>
</g>
</g>
<!-- Node8&#45;&gt;Node21 -->
<g id="edge23" class="edge"><title>Node8&#45;&gt;Node21</title>
<path fill="none" stroke="midnightblue" d="M958.501,-112.444C1008.46,-102.944 1089.1,-87.611 1142.7,-77.4198"/>
<polygon fill="midnightblue" stroke="midnightblue" points="1143.54,-80.8228 1152.71,-75.5164 1142.23,-73.9461 1143.54,-80.8228"/>
</g>
<!-- Node22 -->
<g id="node23" class="node"><title>Node22</title>
<g id="a_node23"><a xlink:href="../../d7/d85/_bit_flags_8h.html" target="_top" xlink:title="BitFlags.h">
<polygon fill="white" stroke="black" points="1280,-56.5 1280,-75.5 1341,-75.5 1341,-56.5 1280,-56.5"/>
<text text-anchor="middle" x="1310.5" y="-63.5" font-family="Helvetica,sans-Serif" font-size="10.00">BitFlags.h</text>
</a>
</g>
</g>
<!-- Node8&#45;&gt;Node22 -->
<g id="edge24" class="edge"><title>Node8&#45;&gt;Node22</title>
<path fill="none" stroke="midnightblue" d="M964.276,-116.149C1031.74,-109.36 1154.83,-95.788 1269.94,-75.9343"/>
<polygon fill="midnightblue" stroke="midnightblue" points="1270.74,-79.3488 1279.99,-74.1824 1269.53,-72.4529 1270.74,-79.3488"/>
</g>
<!-- Node24 -->
<g id="node25" class="node"><title>Node24</title>
<polygon fill="white" stroke="#bfbfbf" points="1359,-56.5 1359,-75.5 1466,-75.5 1466,-56.5 1359,-56.5"/>
<text text-anchor="middle" x="1412.5" y="-63.5" font-family="Helvetica,sans-Serif" font-size="10.00">MyGUI_Prerequest.h</text>
</g>
<!-- Node8&#45;&gt;Node24 -->
<g id="edge26" class="edge"><title>Node8&#45;&gt;Node24</title>
<path fill="none" stroke="midnightblue" d="M964.255,-116.41C1043.82,-109.072 1202.98,-93.8198 1348.87,-76.032"/>
<polygon fill="midnightblue" stroke="midnightblue" points="1349.4,-79.4928 1358.9,-74.8019 1348.55,-72.5449 1349.4,-79.4928"/>
</g>
<!-- Node20&#45;&gt;Node3 -->
<g id="edge22" class="edge"><title>Node20&#45;&gt;Node3</title>
<path fill="none" stroke="midnightblue" d="M1575.5,-56.083C1575.5,-49.0059 1575.5,-38.8611 1575.5,-29.9865"/>
<polygon fill="midnightblue" stroke="midnightblue" points="1579,-29.751 1575.5,-19.7511 1572,-29.7511 1579,-29.751"/>
</g>
<!-- Node23 -->
<g id="node24" class="node"><title>Node23</title>
<polygon fill="white" stroke="#bfbfbf" points="1287.5,-0.5 1287.5,-19.5 1333.5,-19.5 1333.5,-0.5 1287.5,-0.5"/>
<text text-anchor="middle" x="1310.5" y="-7.5" font-family="Helvetica,sans-Serif" font-size="10.00">cstdint</text>
</g>
<!-- Node22&#45;&gt;Node23 -->
<g id="edge25" class="edge"><title>Node22&#45;&gt;Node23</title>
<path fill="none" stroke="midnightblue" d="M1310.5,-56.083C1310.5,-49.0059 1310.5,-38.8611 1310.5,-29.9865"/>
<polygon fill="midnightblue" stroke="midnightblue" points="1314,-29.751 1310.5,-19.7511 1307,-29.7511 1314,-29.751"/>
</g>
<!-- Node25&#45;&gt;Node8 -->
<g id="edge28" class="edge"><title>Node25&#45;&gt;Node8</title>
<path fill="none" stroke="midnightblue" d="M1152.5,-168.444C1102.54,-158.944 1021.9,-143.611 968.301,-133.42"/>
<polygon fill="midnightblue" stroke="midnightblue" points="968.768,-129.946 958.29,-131.516 967.46,-136.823 968.768,-129.946"/>
</g>
<!-- Node26 -->
<g id="node27" class="node"><title>Node26</title>
<polygon fill="white" stroke="#bfbfbf" points="1129,-112.5 1129,-131.5 1266,-131.5 1266,-112.5 1129,-112.5"/>
<text text-anchor="middle" x="1197.5" y="-119.5" font-family="Helvetica,sans-Serif" font-size="10.00">OgreWindowEventUtilities.h</text>
</g>
<!-- Node25&#45;&gt;Node26 -->
<g id="edge29" class="edge"><title>Node25&#45;&gt;Node26</title>
<path fill="none" stroke="midnightblue" d="M1197.5,-168.083C1197.5,-161.006 1197.5,-150.861 1197.5,-141.986"/>
<polygon fill="midnightblue" stroke="midnightblue" points="1201,-141.751 1197.5,-131.751 1194,-141.751 1201,-141.751"/>
</g>
</g>
</svg>
