<?xml version="1.0" encoding="UTF-8" standalone="no"?>
<!DOCTYPE svg PUBLIC "-//W3C//DTD SVG 1.1//EN"
 "http://www.w3.org/Graphics/SVG/1.1/DTD/svg11.dtd">
<!-- Generated by graphviz version 2.38.0 (20140413.2041)
 -->
<!-- Title: MyGUI::RTTLayer::setTextureSize Pages: 1 -->
<svg width="578pt" height="47pt"
 viewBox="0.00 0.00 578.00 47.00" xmlns="http://www.w3.org/2000/svg" xmlns:xlink="http://www.w3.org/1999/xlink">
<g id="graph0" class="graph" transform="scale(1 1) rotate(0) translate(4 43)">
<title>MyGUI::RTTLayer::setTextureSize</title>
<polygon fill="white" stroke="none" points="-4,4 -4,-43 574,-43 574,4 -4,4"/>
<!-- Node15 -->
<g id="node1" class="node"><title>Node15</title>
<polygon fill="#bfbfbf" stroke="black" points="0,-19.5 0,-38.5 165,-38.5 165,-19.5 0,-19.5"/>
<text text-anchor="middle" x="82.5" y="-26.5" font-family="Helvetica,sans-Serif" font-size="10.00">MyGUI::RTTLayer::setTextureSize</text>
</g>
<!-- Node16 -->
<g id="node2" class="node"><title>Node16</title>
<g id="a_node2"><a xlink:href="../../d2/dc9/class_my_g_u_i_1_1_r_t_t_layer.html#a286b69197f078dd9898597d3c289ed39" target="_top" xlink:title="MyGUI::RTTLayer::deserialization">
<polygon fill="white" stroke="black" points="408,-19.5 408,-38.5 570,-38.5 570,-19.5 408,-19.5"/>
<text text-anchor="middle" x="489" y="-26.5" font-family="Helvetica,sans-Serif" font-size="10.00">MyGUI::RTTLayer::deserialization</text>
</a>
</g>
</g>
<!-- Node15&#45;&gt;Node16 -->
<g id="edge1" class="edge"><title>Node15&#45;&gt;Node16</title>
<path fill="none" stroke="midnightblue" d="M175.504,-29C245.575,-29 341.069,-29 407.989,-29"/>
<polygon fill="midnightblue" stroke="midnightblue" points="175.357,-25.5001 165.357,-29 175.357,-32.5001 175.357,-25.5001"/>
</g>
<!-- Node17 -->
<g id="node3" class="node"><title>Node17</title>
<g id="a_node3"><a xlink:href="../../d2/dc9/class_my_g_u_i_1_1_r_t_t_layer.html#adbb5ba653ec0383a7960c4e465d816c1" target="_top" xlink:title="MyGUI::RTTLayer::setTextureName">
<polygon fill="white" stroke="black" points="201,-0.5 201,-19.5 372,-19.5 372,-0.5 201,-0.5"/>
<text text-anchor="middle" x="286.5" y="-7.5" font-family="Helvetica,sans-Serif" font-size="10.00">MyGUI::RTTLayer::setTextureName</text>
</a>
</g>
</g>
<!-- Node15&#45;&gt;Node17 -->
<g id="edge2" class="edge"><title>Node15&#45;&gt;Node17</title>
<path fill="none" stroke="midnightblue" d="M175.129,-20.3814C183.739,-19.5715 192.441,-18.7531 200.981,-17.9498"/>
<polygon fill="midnightblue" stroke="midnightblue" points="174.707,-16.9056 165.079,-21.3267 175.363,-23.8748 174.707,-16.9056"/>
</g>
<!-- Node17&#45;&gt;Node16 -->
<g id="edge3" class="edge"><title>Node17&#45;&gt;Node16</title>
<path fill="none" stroke="midnightblue" d="M382.213,-18.9753C390.743,-19.7836 399.327,-20.597 407.716,-21.392"/>
<polygon fill="midnightblue" stroke="midnightblue" points="382.525,-15.4893 372.239,-18.0302 381.865,-22.4581 382.525,-15.4893"/>
</g>
</g>
</svg>
