<?xml version="1.0" encoding="UTF-8" standalone="no"?>
<!DOCTYPE svg PUBLIC "-//W3C//DTD SVG 1.1//EN"
 "http://www.w3.org/Graphics/SVG/1.1/DTD/svg11.dtd">
<!-- Generated by graphviz version 2.38.0 (20140413.2041)
 -->
<!-- Title: ImGuiStorage::GetVoidPtrRef Pages: 1 -->
<svg width="395pt" height="104pt"
 viewBox="0.00 0.00 395.00 104.00" xmlns="http://www.w3.org/2000/svg" xmlns:xlink="http://www.w3.org/1999/xlink">
<g id="graph0" class="graph" transform="scale(1 1) rotate(0) translate(4 100)">
<title>ImGuiStorage::GetVoidPtrRef</title>
<polygon fill="white" stroke="none" points="-4,4 -4,-100 391,-100 391,4 -4,4"/>
<!-- Node597 -->
<g id="node1" class="node"><title>Node597</title>
<polygon fill="#bfbfbf" stroke="black" points="0,-38.5 0,-57.5 144,-57.5 144,-38.5 0,-38.5"/>
<text text-anchor="middle" x="72" y="-45.5" font-family="Helvetica,sans-Serif" font-size="10.00">ImGuiStorage::GetVoidPtrRef</text>
</g>
<!-- Node598 -->
<g id="node2" class="node"><title>Node598</title>
<g id="a_node2"><a xlink:href="../../da/d72/imgui_8cpp.html#aec0a4d5efcb537aa992092ebfaac8b68" target="_top" xlink:title="LowerBound">
<polygon fill="white" stroke="black" points="188,-76.5 188,-95.5 258,-95.5 258,-76.5 188,-76.5"/>
<text text-anchor="middle" x="223" y="-83.5" font-family="Helvetica,sans-Serif" font-size="10.00">LowerBound</text>
</a>
</g>
</g>
<!-- Node597&#45;&gt;Node598 -->
<g id="edge1" class="edge"><title>Node597&#45;&gt;Node598</title>
<path fill="none" stroke="midnightblue" d="M110.599,-57.589C131.14,-62.8277 156.688,-69.3433 178.135,-74.813"/>
<polygon fill="midnightblue" stroke="midnightblue" points="177.425,-78.2439 187.98,-77.3237 179.155,-71.461 177.425,-78.2439"/>
</g>
<!-- Node600 -->
<g id="node4" class="node"><title>Node600</title>
<g id="a_node4"><a xlink:href="../../d9/de0/class_im_vector.html#a947fbc3b1d8c1997e51ae6caab440379" target="_top" xlink:title="ImVector::end">
<polygon fill="white" stroke="black" points="306,-38.5 306,-57.5 383,-57.5 383,-38.5 306,-38.5"/>
<text text-anchor="middle" x="344.5" y="-45.5" font-family="Helvetica,sans-Serif" font-size="10.00">ImVector::end</text>
</a>
</g>
</g>
<!-- Node597&#45;&gt;Node600 -->
<g id="edge4" class="edge"><title>Node597&#45;&gt;Node600</title>
<path fill="none" stroke="midnightblue" d="M144.071,-48C191.835,-48 253.502,-48 295.534,-48"/>
<polygon fill="midnightblue" stroke="midnightblue" points="295.777,-51.5001 305.777,-48 295.777,-44.5001 295.777,-51.5001"/>
</g>
<!-- Node601 -->
<g id="node5" class="node"><title>Node601</title>
<g id="a_node5"><a xlink:href="../../d9/de0/class_im_vector.html#a52fdb731c13c82a1fd971186c6a701b5" target="_top" xlink:title="ImVector::insert">
<polygon fill="white" stroke="black" points="180,-0.5 180,-19.5 266,-19.5 266,-0.5 180,-0.5"/>
<text text-anchor="middle" x="223" y="-7.5" font-family="Helvetica,sans-Serif" font-size="10.00">ImVector::insert</text>
</a>
</g>
</g>
<!-- Node597&#45;&gt;Node601 -->
<g id="edge5" class="edge"><title>Node597&#45;&gt;Node601</title>
<path fill="none" stroke="midnightblue" d="M110.599,-38.411C130.084,-33.4417 154.075,-27.3233 174.796,-22.0387"/>
<polygon fill="midnightblue" stroke="midnightblue" points="175.846,-25.3828 184.671,-19.5201 174.117,-18.5999 175.846,-25.3828"/>
</g>
<!-- Node599 -->
<g id="node3" class="node"><title>Node599</title>
<g id="a_node3"><a xlink:href="../../d9/de0/class_im_vector.html#a300a8b559cd87a78063046ef81151bce" target="_top" xlink:title="ImVector::begin">
<polygon fill="white" stroke="black" points="302,-76.5 302,-95.5 387,-95.5 387,-76.5 302,-76.5"/>
<text text-anchor="middle" x="344.5" y="-83.5" font-family="Helvetica,sans-Serif" font-size="10.00">ImVector::begin</text>
</a>
</g>
</g>
<!-- Node598&#45;&gt;Node599 -->
<g id="edge2" class="edge"><title>Node598&#45;&gt;Node599</title>
<path fill="none" stroke="midnightblue" d="M258.244,-86C268.594,-86 280.2,-86 291.438,-86"/>
<polygon fill="midnightblue" stroke="midnightblue" points="291.608,-89.5001 301.608,-86 291.608,-82.5001 291.608,-89.5001"/>
</g>
<!-- Node598&#45;&gt;Node600 -->
<g id="edge3" class="edge"><title>Node598&#45;&gt;Node600</title>
<path fill="none" stroke="midnightblue" d="M254.155,-76.411C269.157,-71.6406 287.488,-65.8112 303.634,-60.6771"/>
<polygon fill="midnightblue" stroke="midnightblue" points="304.886,-63.9518 313.355,-57.5859 302.764,-57.281 304.886,-63.9518"/>
</g>
</g>
</svg>
