<?xml version="1.0" encoding="UTF-8" standalone="no"?>
<!DOCTYPE svg PUBLIC "-//W3C//DTD SVG 1.1//EN"
 "http://www.w3.org/Graphics/SVG/1.1/DTD/svg11.dtd">
<!-- Generated by graphviz version 2.38.0 (20140413.2041)
 -->
<!-- Title: Hydrax::RttManager::getTextureSize Pages: 1 -->
<svg width="426pt" height="39pt"
 viewBox="0.00 0.00 426.00 39.00" xmlns="http://www.w3.org/2000/svg" xmlns:xlink="http://www.w3.org/1999/xlink">
<g id="graph0" class="graph" transform="scale(1 1) rotate(0) translate(4 35)">
<title>Hydrax::RttManager::getTextureSize</title>
<polygon fill="white" stroke="none" points="-4,4 -4,-35 422,-35 422,4 -4,4"/>
<!-- Node137 -->
<g id="node1" class="node"><title>Node137</title>
<polygon fill="#bfbfbf" stroke="black" points="0,-0.5 0,-30.5 104,-30.5 104,-0.5 0,-0.5"/>
<text text-anchor="start" x="8" y="-18.5" font-family="Helvetica,sans-Serif" font-size="10.00">Hydrax::RttManager</text>
<text text-anchor="middle" x="52" y="-7.5" font-family="Helvetica,sans-Serif" font-size="10.00">::getTextureSize</text>
</g>
<!-- Node138 -->
<g id="node2" class="node"><title>Node138</title>
<g id="a_node2"><a xlink:href="../../d6/de1/class_hydrax_1_1_cfg_file_manager.html#a7836862e6b5d435d19f9ff62cf5ffca6" target="_top" xlink:title="Hydrax::CfgFileManager\l::_getRttCfgString">
<polygon fill="white" stroke="black" points="140,-0.5 140,-30.5 261,-30.5 261,-0.5 140,-0.5"/>
<text text-anchor="start" x="148" y="-18.5" font-family="Helvetica,sans-Serif" font-size="10.00">Hydrax::CfgFileManager</text>
<text text-anchor="middle" x="200.5" y="-7.5" font-family="Helvetica,sans-Serif" font-size="10.00">::_getRttCfgString</text>
</a>
</g>
</g>
<!-- Node137&#45;&gt;Node138 -->
<g id="edge1" class="edge"><title>Node137&#45;&gt;Node138</title>
<path fill="none" stroke="midnightblue" d="M114.353,-15.5C122.757,-15.5 131.376,-15.5 139.751,-15.5"/>
<polygon fill="midnightblue" stroke="midnightblue" points="114.239,-12.0001 104.239,-15.5 114.239,-19.0001 114.239,-12.0001"/>
</g>
<!-- Node139 -->
<g id="node3" class="node"><title>Node139</title>
<g id="a_node3"><a xlink:href="../../d6/de1/class_hydrax_1_1_cfg_file_manager.html#a7bb4d0c2124c8c68e49f8fcc26e1add7" target="_top" xlink:title="Hydrax::CfgFileManager\l::save">
<polygon fill="white" stroke="black" points="297,-0.5 297,-30.5 418,-30.5 418,-0.5 297,-0.5"/>
<text text-anchor="start" x="305" y="-18.5" font-family="Helvetica,sans-Serif" font-size="10.00">Hydrax::CfgFileManager</text>
<text text-anchor="middle" x="357.5" y="-7.5" font-family="Helvetica,sans-Serif" font-size="10.00">::save</text>
</a>
</g>
</g>
<!-- Node138&#45;&gt;Node139 -->
<g id="edge2" class="edge"><title>Node138&#45;&gt;Node139</title>
<path fill="none" stroke="midnightblue" d="M271.661,-15.5C280.122,-15.5 288.7,-15.5 296.988,-15.5"/>
<polygon fill="midnightblue" stroke="midnightblue" points="271.427,-12.0001 261.427,-15.5 271.427,-19.0001 271.427,-12.0001"/>
</g>
</g>
</svg>
