<?xml version="1.0" encoding="UTF-8" standalone="no"?>
<!DOCTYPE svg PUBLIC "-//W3C//DTD SVG 1.1//EN"
 "http://www.w3.org/Graphics/SVG/1.1/DTD/svg11.dtd">
<!-- Generated by graphviz version 2.38.0 (20140413.2041)
 -->
<!-- Title: Hydrax::RttManager::_initializeRtt Pages: 1 -->
<svg width="289pt" height="192pt"
 viewBox="0.00 0.00 289.00 192.00" xmlns="http://www.w3.org/2000/svg" xmlns:xlink="http://www.w3.org/1999/xlink">
<g id="graph0" class="graph" transform="scale(1 1) rotate(0) translate(4 188)">
<title>Hydrax::RttManager::_initializeRtt</title>
<polygon fill="white" stroke="none" points="-4,4 -4,-188 285,-188 285,4 -4,4"/>
<!-- Node7 -->
<g id="node1" class="node"><title>Node7</title>
<polygon fill="#bfbfbf" stroke="black" points="0,-83 0,-113 104,-113 104,-83 0,-83"/>
<text text-anchor="start" x="8" y="-101" font-family="Helvetica,sans-Serif" font-size="10.00">Hydrax::RttManager</text>
<text text-anchor="middle" x="52" y="-90" font-family="Helvetica,sans-Serif" font-size="10.00">::_initializeRtt</text>
</g>
<!-- Node8 -->
<g id="node2" class="node"><title>Node8</title>
<g id="a_node2"><a xlink:href="../../dd/d65/class_hydrax_1_1_hydrax.html#a1940a144c486915885ed19026839d381" target="_top" xlink:title="Hydrax::Hydrax::getMesh">
<polygon fill="white" stroke="black" points="146.5,-164.5 146.5,-183.5 274.5,-183.5 274.5,-164.5 146.5,-164.5"/>
<text text-anchor="middle" x="210.5" y="-171.5" font-family="Helvetica,sans-Serif" font-size="10.00">Hydrax::Hydrax::getMesh</text>
</a>
</g>
</g>
<!-- Node7&#45;&gt;Node8 -->
<g id="edge1" class="edge"><title>Node7&#45;&gt;Node8</title>
<path fill="none" stroke="midnightblue" d="M72.356,-113.247C89.3397,-125.978 115.142,-143.796 140,-155 145.26,-157.371 150.881,-159.504 156.562,-161.408"/>
<polygon fill="midnightblue" stroke="midnightblue" points="155.537,-164.755 166.126,-164.399 157.626,-158.074 155.537,-164.755"/>
</g>
<!-- Node9 -->
<g id="node3" class="node"><title>Node9</title>
<g id="a_node3"><a xlink:href="../../d1/dc4/class_hydrax_1_1_mesh.html#a3f179b94d94337d1158db3a7e535cf30" target="_top" xlink:title="Hydrax::Mesh::getSize">
<polygon fill="white" stroke="black" points="152.5,-126.5 152.5,-145.5 268.5,-145.5 268.5,-126.5 152.5,-126.5"/>
<text text-anchor="middle" x="210.5" y="-133.5" font-family="Helvetica,sans-Serif" font-size="10.00">Hydrax::Mesh::getSize</text>
</a>
</g>
</g>
<!-- Node7&#45;&gt;Node9 -->
<g id="edge2" class="edge"><title>Node7&#45;&gt;Node9</title>
<path fill="none" stroke="midnightblue" d="M104.244,-110.443C122.129,-114.785 142.159,-119.649 159.906,-123.958"/>
<polygon fill="midnightblue" stroke="midnightblue" points="159.515,-127.465 170.059,-126.423 161.167,-120.662 159.515,-127.465"/>
</g>
<!-- Node10 -->
<g id="node4" class="node"><title>Node10</title>
<g id="a_node4"><a xlink:href="../../dd/d65/class_hydrax_1_1_hydrax.html#a969555d8f856a43c4ca6c92bb0958bf1" target="_top" xlink:title="Hydrax::Hydrax::getViewport">
<polygon fill="white" stroke="black" points="140,-88.5 140,-107.5 281,-107.5 281,-88.5 140,-88.5"/>
<text text-anchor="middle" x="210.5" y="-95.5" font-family="Helvetica,sans-Serif" font-size="10.00">Hydrax::Hydrax::getViewport</text>
</a>
</g>
</g>
<!-- Node7&#45;&gt;Node10 -->
<g id="edge3" class="edge"><title>Node7&#45;&gt;Node10</title>
<path fill="none" stroke="midnightblue" d="M104.244,-98C112.445,-98 121.098,-98 129.774,-98"/>
<polygon fill="midnightblue" stroke="midnightblue" points="129.945,-101.5 139.945,-98 129.945,-94.5001 129.945,-101.5"/>
</g>
<!-- Node11 -->
<g id="node5" class="node"><title>Node11</title>
<g id="a_node5"><a xlink:href="../../d6/d76/class_hydrax_1_1_rtt_manager.html#a3605c212789e17ddf27b78ecb99c30a2" target="_top" xlink:title="Hydrax::RttManager\l::getPixelFormat">
<polygon fill="white" stroke="black" points="158.5,-39 158.5,-69 262.5,-69 262.5,-39 158.5,-39"/>
<text text-anchor="start" x="166.5" y="-57" font-family="Helvetica,sans-Serif" font-size="10.00">Hydrax::RttManager</text>
<text text-anchor="middle" x="210.5" y="-46" font-family="Helvetica,sans-Serif" font-size="10.00">::getPixelFormat</text>
</a>
</g>
</g>
<!-- Node7&#45;&gt;Node11 -->
<g id="edge4" class="edge"><title>Node7&#45;&gt;Node11</title>
<path fill="none" stroke="midnightblue" d="M104.244,-83.5928C118.368,-79.6218 133.83,-75.2748 148.449,-71.1646"/>
<polygon fill="midnightblue" stroke="midnightblue" points="149.729,-74.4404 158.408,-68.3644 147.834,-67.7017 149.729,-74.4404"/>
</g>
<!-- Node12 -->
<g id="node6" class="node"><title>Node12</title>
<g id="a_node6"><a xlink:href="../../dd/d65/class_hydrax_1_1_hydrax.html#aef185c906434b6dfb7c67a425d678287" target="_top" xlink:title="Hydrax::Hydrax::getCamera">
<polygon fill="white" stroke="black" points="142,-0.5 142,-19.5 279,-19.5 279,-0.5 142,-0.5"/>
<text text-anchor="middle" x="210.5" y="-7.5" font-family="Helvetica,sans-Serif" font-size="10.00">Hydrax::Hydrax::getCamera</text>
</a>
</g>
</g>
<!-- Node7&#45;&gt;Node12 -->
<g id="edge5" class="edge"><title>Node7&#45;&gt;Node12</title>
<path fill="none" stroke="midnightblue" d="M68.3864,-82.9375C84.8456,-67.5965 112.337,-44.1151 140,-30 145.302,-27.2947 151.023,-24.9056 156.827,-22.8082"/>
<polygon fill="midnightblue" stroke="midnightblue" points="158.231,-26.0297 166.613,-19.5496 156.02,-19.3882 158.231,-26.0297"/>
</g>
</g>
</svg>
