<?xml version="1.0" encoding="UTF-8" standalone="no"?>
<!DOCTYPE svg PUBLIC "-//W3C//DTD SVG 1.1//EN"
 "http://www.w3.org/Graphics/SVG/1.1/DTD/svg11.dtd">
<!-- Generated by graphviz version 2.38.0 (20140413.2041)
 -->
<!-- Title: RoR::GUIManager::HideNotification Pages: 1 -->
<svg width="542pt" height="39pt"
 viewBox="0.00 0.00 542.00 39.00" xmlns="http://www.w3.org/2000/svg" xmlns:xlink="http://www.w3.org/1999/xlink">
<g id="graph0" class="graph" transform="scale(1 1) rotate(0) translate(4 35)">
<title>RoR::GUIManager::HideNotification</title>
<polygon fill="white" stroke="none" points="-4,4 -4,-35 538,-35 538,4 -4,4"/>
<!-- Node1191 -->
<g id="node1" class="node"><title>Node1191</title>
<polygon fill="#bfbfbf" stroke="black" points="0,-6 0,-25 169,-25 169,-6 0,-6"/>
<text text-anchor="middle" x="84.5" y="-13" font-family="Helvetica,sans-Serif" font-size="10.00">RoR::GUIManager::HideNotification</text>
</g>
<!-- Node1192 -->
<g id="node2" class="node"><title>Node1192</title>
<g id="a_node2"><a xlink:href="../../dd/dbe/class_ro_r_frame_listener.html#afec2a0f00ed552c21d22aae76329bf38" target="_top" xlink:title="RoRFrameListener::Update\lInputEvents">
<polygon fill="white" stroke="black" points="205,-0.5 205,-30.5 339,-30.5 339,-0.5 205,-0.5"/>
<text text-anchor="start" x="213" y="-18.5" font-family="Helvetica,sans-Serif" font-size="10.00">RoRFrameListener::Update</text>
<text text-anchor="middle" x="272" y="-7.5" font-family="Helvetica,sans-Serif" font-size="10.00">InputEvents</text>
</a>
</g>
</g>
<!-- Node1191&#45;&gt;Node1192 -->
<g id="edge1" class="edge"><title>Node1191&#45;&gt;Node1192</title>
<path fill="none" stroke="midnightblue" d="M179.199,-15.5C187.876,-15.5 196.543,-15.5 204.895,-15.5"/>
<polygon fill="midnightblue" stroke="midnightblue" points="179.025,-12.0001 169.025,-15.5 179.025,-19.0001 179.025,-12.0001"/>
</g>
<!-- Node1193 -->
<g id="node3" class="node"><title>Node1193</title>
<g id="a_node3"><a xlink:href="../../dd/dbe/class_ro_r_frame_listener.html#acdda0026f9324c3b7f48568624e07115" target="_top" xlink:title="RoRFrameListener::frameStarted">
<polygon fill="white" stroke="black" points="375,-6 375,-25 534,-25 534,-6 375,-6"/>
<text text-anchor="middle" x="454.5" y="-13" font-family="Helvetica,sans-Serif" font-size="10.00">RoRFrameListener::frameStarted</text>
</a>
</g>
</g>
<!-- Node1192&#45;&gt;Node1193 -->
<g id="edge2" class="edge"><title>Node1192&#45;&gt;Node1193</title>
<path fill="none" stroke="midnightblue" d="M349.343,-15.5C357.753,-15.5 366.328,-15.5 374.767,-15.5"/>
<polygon fill="midnightblue" stroke="midnightblue" points="349.187,-12.0001 339.187,-15.5 349.187,-19.0001 349.187,-12.0001"/>
</g>
</g>
</svg>
