<?xml version="1.0" encoding="UTF-8" standalone="no"?>
<!DOCTYPE svg PUBLIC "-//W3C//DTD SVG 1.1//EN"
 "http://www.w3.org/Graphics/SVG/1.1/DTD/svg11.dtd">
<!-- Generated by graphviz version 2.38.0 (20140413.2041)
 -->
<!-- Title: RoR::GUIManager::FrictionSettingsUpdateCollisions Pages: 1 -->
<svg width="1418pt" height="356pt"
 viewBox="0.00 0.00 1418.00 355.96" xmlns="http://www.w3.org/2000/svg" xmlns:xlink="http://www.w3.org/1999/xlink">
<g id="graph0" class="graph" transform="scale(1 1) rotate(0) translate(4 351.96)">
<title>RoR::GUIManager::FrictionSettingsUpdateCollisions</title>
<polygon fill="white" stroke="none" points="-4,4 -4,-351.96 1414,-351.96 1414,4 -4,4"/>
<!-- Node782 -->
<g id="node1" class="node"><title>Node782</title>
<polygon fill="#bfbfbf" stroke="black" points="0,-155.5 0,-185.5 134,-185.5 134,-155.5 0,-155.5"/>
<text text-anchor="start" x="8" y="-173.5" font-family="Helvetica,sans-Serif" font-size="10.00">RoR::GUIManager::Friction</text>
<text text-anchor="middle" x="67" y="-162.5" font-family="Helvetica,sans-Serif" font-size="10.00">SettingsUpdateCollisions</text>
</g>
<!-- Node783 -->
<g id="node2" class="node"><title>Node783</title>
<g id="a_node2"><a xlink:href="../../df/d86/namespace_ro_r_1_1_app.html#a68d6403d2b36006a6fa2d28f5ba8f12f" target="_top" xlink:title="RoR::App::GetGuiManager">
<polygon fill="white" stroke="black" points="178,-205 178,-224 311,-224 311,-205 178,-205"/>
<text text-anchor="middle" x="244.5" y="-212" font-family="Helvetica,sans-Serif" font-size="10.00">RoR::App::GetGuiManager</text>
</a>
</g>
</g>
<!-- Node782&#45;&gt;Node783 -->
<g id="edge1" class="edge"><title>Node782&#45;&gt;Node783</title>
<path fill="none" stroke="midnightblue" d="M127.906,-185.519C150.008,-191.06 174.739,-197.261 195.636,-202.5"/>
<polygon fill="midnightblue" stroke="midnightblue" points="195.007,-205.951 205.558,-204.988 196.71,-199.161 195.007,-205.951"/>
</g>
<!-- Node784 -->
<g id="node3" class="node"><title>Node784</title>
<g id="a_node3"><a xlink:href="../../d8/d11/class_ro_r_1_1_g_u_i_manager.html#a77612f0d37f4c7687a400e17daefe89e" target="_top" xlink:title="RoR::GUIManager::GetFriction\lSettings">
<polygon fill="white" stroke="black" points="170,-155.5 170,-185.5 319,-185.5 319,-155.5 170,-155.5"/>
<text text-anchor="start" x="178" y="-173.5" font-family="Helvetica,sans-Serif" font-size="10.00">RoR::GUIManager::GetFriction</text>
<text text-anchor="middle" x="244.5" y="-162.5" font-family="Helvetica,sans-Serif" font-size="10.00">Settings</text>
</a>
</g>
</g>
<!-- Node782&#45;&gt;Node784 -->
<g id="edge2" class="edge"><title>Node782&#45;&gt;Node784</title>
<path fill="none" stroke="midnightblue" d="M134.349,-170.5C142.561,-170.5 151.039,-170.5 159.472,-170.5"/>
<polygon fill="midnightblue" stroke="midnightblue" points="159.714,-174 169.714,-170.5 159.714,-167 159.714,-174"/>
</g>
<!-- Node785 -->
<g id="node4" class="node"><title>Node785</title>
<g id="a_node4"><a xlink:href="../../df/d32/class_ro_r_1_1_g_u_i_1_1_friction_settings.html#a1fece1fbdff4db9fda4c531c895dbbcf" target="_top" xlink:title="RoR::GUI::FrictionSettings\l::setCollisions">
<polygon fill="white" stroke="black" points="178.5,-106.5 178.5,-136.5 310.5,-136.5 310.5,-106.5 178.5,-106.5"/>
<text text-anchor="start" x="186.5" y="-124.5" font-family="Helvetica,sans-Serif" font-size="10.00">RoR::GUI::FrictionSettings</text>
<text text-anchor="middle" x="244.5" y="-113.5" font-family="Helvetica,sans-Serif" font-size="10.00">::setCollisions</text>
</a>
</g>
</g>
<!-- Node782&#45;&gt;Node785 -->
<g id="edge3" class="edge"><title>Node782&#45;&gt;Node785</title>
<path fill="none" stroke="midnightblue" d="M122.088,-155.399C140.356,-150.298 160.918,-144.557 179.856,-139.27"/>
<polygon fill="midnightblue" stroke="midnightblue" points="180.9,-142.612 189.591,-136.552 179.018,-135.87 180.9,-142.612"/>
</g>
<!-- Node786 -->
<g id="node5" class="node"><title>Node786</title>
<g id="a_node5"><a xlink:href="../../df/d32/class_ro_r_1_1_g_u_i_1_1_friction_settings.html#ad1fa0de31aedf7811ebf298ff92e07de" target="_top" xlink:title="RoR::GUI::FrictionSettings\l::setActiveCol">
<polygon fill="white" stroke="black" points="355,-106.5 355,-136.5 487,-136.5 487,-106.5 355,-106.5"/>
<text text-anchor="start" x="363" y="-124.5" font-family="Helvetica,sans-Serif" font-size="10.00">RoR::GUI::FrictionSettings</text>
<text text-anchor="middle" x="421" y="-113.5" font-family="Helvetica,sans-Serif" font-size="10.00">::setActiveCol</text>
</a>
</g>
</g>
<!-- Node785&#45;&gt;Node786 -->
<g id="edge4" class="edge"><title>Node785&#45;&gt;Node786</title>
<path fill="none" stroke="midnightblue" d="M310.974,-121.5C321.932,-121.5 333.38,-121.5 344.564,-121.5"/>
<polygon fill="midnightblue" stroke="midnightblue" points="344.74,-125 354.74,-121.5 344.74,-118 344.74,-125"/>
</g>
<!-- Node787 -->
<g id="node6" class="node"><title>Node787</title>
<g id="a_node6"><a xlink:href="../../d6/dad/_utils_8cpp.html#aebe76599ecdd7fc4db8b64cba0beb94e" target="_top" xlink:title="ANSI_TO_UTF">
<polygon fill="white" stroke="black" points="549,-151 549,-170 629,-170 629,-151 549,-151"/>
<text text-anchor="middle" x="589" y="-158" font-family="Helvetica,sans-Serif" font-size="10.00">ANSI_TO_UTF</text>
</a>
</g>
</g>
<!-- Node786&#45;&gt;Node787 -->
<g id="edge5" class="edge"><title>Node786&#45;&gt;Node787</title>
<path fill="none" stroke="midnightblue" d="M486.18,-136.578C503.708,-140.697 522.419,-145.092 538.957,-148.978"/>
<polygon fill="midnightblue" stroke="midnightblue" points="538.407,-152.444 548.943,-151.324 540.008,-145.629 538.407,-152.444"/>
</g>
<!-- Node802 -->
<g id="node21" class="node"><title>Node802</title>
<g id="a_node21"><a xlink:href="../../d9/dc1/_utils_8h.html#a23744b3f0e07a907bc9993afbcf37c2d" target="_top" xlink:title="convertToMyGUIString">
<polygon fill="white" stroke="black" points="532.5,-112 532.5,-131 645.5,-131 645.5,-112 532.5,-112"/>
<text text-anchor="middle" x="589" y="-119" font-family="Helvetica,sans-Serif" font-size="10.00">convertToMyGUIString</text>
</a>
</g>
</g>
<!-- Node786&#45;&gt;Node802 -->
<g id="edge26" class="edge"><title>Node786&#45;&gt;Node802</title>
<path fill="none" stroke="midnightblue" d="M487.131,-121.5C498.723,-121.5 510.803,-121.5 522.407,-121.5"/>
<polygon fill="midnightblue" stroke="midnightblue" points="522.458,-125 532.458,-121.5 522.458,-118 522.458,-125"/>
</g>
<!-- Node804 -->
<g id="node23" class="node"><title>Node804</title>
<g id="a_node23"><a xlink:href="../../df/d32/class_ro_r_1_1_g_u_i_1_1_friction_settings.html#a52b83cc66a654dfc82333dc546f22a58" target="_top" xlink:title="RoR::GUI::FrictionSettings\l::updateControls">
<polygon fill="white" stroke="black" points="523,-62.5 523,-92.5 655,-92.5 655,-62.5 523,-62.5"/>
<text text-anchor="start" x="531" y="-80.5" font-family="Helvetica,sans-Serif" font-size="10.00">RoR::GUI::FrictionSettings</text>
<text text-anchor="middle" x="589" y="-69.5" font-family="Helvetica,sans-Serif" font-size="10.00">::updateControls</text>
</a>
</g>
</g>
<!-- Node786&#45;&gt;Node804 -->
<g id="edge28" class="edge"><title>Node786&#45;&gt;Node804</title>
<path fill="none" stroke="midnightblue" d="M478.663,-106.481C492.476,-102.82 507.374,-98.8706 521.595,-95.1013"/>
<polygon fill="midnightblue" stroke="midnightblue" points="522.541,-98.4716 531.31,-92.5262 520.747,-91.7052 522.541,-98.4716"/>
</g>
<!-- Node788 -->
<g id="node7" class="node"><title>Node788</title>
<g id="a_node7"><a xlink:href="../../da/d4c/namespace_ro_r_1_1_utils.html#ac62ee4a4a513a67cba1bdc7d9eb9c7a4" target="_top" xlink:title="RoR::Utils::SanitizeUtf8\lString">
<polygon fill="white" stroke="black" points="691,-147.5 691,-177.5 810,-177.5 810,-147.5 691,-147.5"/>
<text text-anchor="start" x="699" y="-165.5" font-family="Helvetica,sans-Serif" font-size="10.00">RoR::Utils::SanitizeUtf8</text>
<text text-anchor="middle" x="750.5" y="-154.5" font-family="Helvetica,sans-Serif" font-size="10.00">String</text>
</a>
</g>
</g>
<!-- Node787&#45;&gt;Node788 -->
<g id="edge6" class="edge"><title>Node787&#45;&gt;Node788</title>
<path fill="none" stroke="midnightblue" d="M629.018,-160.989C644.591,-161.185 662.997,-161.415 680.673,-161.637"/>
<polygon fill="midnightblue" stroke="midnightblue" points="680.926,-165.14 690.97,-161.766 681.014,-158.141 680.926,-165.14"/>
</g>
<!-- Node789 -->
<g id="node8" class="node"><title>Node789</title>
<g id="a_node8"><a xlink:href="../../dd/de8/namespaceutf8.html#a07dcd36a2185e5c9f0b19dd88859cd6c" target="_top" xlink:title="utf8::replace_invalid">
<polygon fill="white" stroke="black" points="846,-153 846,-172 947,-172 947,-153 846,-153"/>
<text text-anchor="middle" x="896.5" y="-160" font-family="Helvetica,sans-Serif" font-size="10.00">utf8::replace_invalid</text>
</a>
</g>
</g>
<!-- Node788&#45;&gt;Node789 -->
<g id="edge7" class="edge"><title>Node788&#45;&gt;Node789</title>
<path fill="none" stroke="midnightblue" d="M810.07,-162.5C818.485,-162.5 827.153,-162.5 835.593,-162.5"/>
<polygon fill="midnightblue" stroke="midnightblue" points="835.742,-166 845.742,-162.5 835.742,-159 835.742,-166"/>
</g>
<!-- Node790 -->
<g id="node9" class="node"><title>Node790</title>
<g id="a_node9"><a xlink:href="../../d0/d96/namespaceutf8_1_1internal.html#abe95547575fcc81911e381df03f8ebfe" target="_top" xlink:title="utf8::internal::validate_next">
<polygon fill="white" stroke="black" points="983,-153 983,-172 1115,-172 1115,-153 983,-153"/>
<text text-anchor="middle" x="1049" y="-160" font-family="Helvetica,sans-Serif" font-size="10.00">utf8::internal::validate_next</text>
</a>
</g>
</g>
<!-- Node789&#45;&gt;Node790 -->
<g id="edge8" class="edge"><title>Node789&#45;&gt;Node790</title>
<path fill="none" stroke="midnightblue" d="M947.196,-162.5C955.381,-162.5 964.024,-162.5 972.667,-162.5"/>
<polygon fill="midnightblue" stroke="midnightblue" points="972.788,-166 982.788,-162.5 972.788,-159 972.788,-166"/>
</g>
<!-- Node800 -->
<g id="node19" class="node"><title>Node800</title>
<g id="a_node19"><a xlink:href="../../dd/de8/namespaceutf8.html#a3827e78596fc38cfdebd721e9c45c901" target="_top" xlink:title="The library API &#45; functions intended to be called by the users. ">
<polygon fill="white" stroke="black" points="1014,-61 1014,-80 1084,-80 1084,-61 1014,-61"/>
<text text-anchor="middle" x="1049" y="-68" font-family="Helvetica,sans-Serif" font-size="10.00">utf8::append</text>
</a>
</g>
</g>
<!-- Node789&#45;&gt;Node800 -->
<g id="edge22" class="edge"><title>Node789&#45;&gt;Node800</title>
<path fill="none" stroke="midnightblue" d="M913.322,-152.828C939.585,-136.774 992.365,-104.51 1023.48,-85.4877"/>
<polygon fill="midnightblue" stroke="midnightblue" points="1025.68,-88.2441 1032.39,-80.0421 1022.03,-82.2716 1025.68,-88.2441"/>
</g>
<!-- Node801 -->
<g id="node20" class="node"><title>Node801</title>
<g id="a_node20"><a xlink:href="../../d0/d96/namespaceutf8_1_1internal.html#ab4820484159ba613b4901476ceb24516" target="_top" xlink:title="utf8::internal::is\l_trail">
<polygon fill="white" stroke="black" points="1007.5,-264.5 1007.5,-294.5 1090.5,-294.5 1090.5,-264.5 1007.5,-264.5"/>
<text text-anchor="start" x="1015.5" y="-282.5" font-family="Helvetica,sans-Serif" font-size="10.00">utf8::internal::is</text>
<text text-anchor="middle" x="1049" y="-271.5" font-family="Helvetica,sans-Serif" font-size="10.00">_trail</text>
</a>
</g>
</g>
<!-- Node789&#45;&gt;Node801 -->
<g id="edge24" class="edge"><title>Node789&#45;&gt;Node801</title>
<path fill="none" stroke="midnightblue" d="M909.816,-172.075C933.789,-190.712 987.253,-232.275 1020.21,-257.893"/>
<polygon fill="midnightblue" stroke="midnightblue" points="1018.47,-260.976 1028.51,-264.35 1022.77,-255.45 1018.47,-260.976"/>
</g>
<!-- Node791 -->
<g id="node10" class="node"><title>Node791</title>
<g id="a_node10"><a xlink:href="../../d0/d96/namespaceutf8_1_1internal.html#aadbe437cba7bfcc4df2638f633e9787c" target="_top" xlink:title="utf8::internal::sequence\l_length">
<polygon fill="white" stroke="black" points="1151,-147.5 1151,-177.5 1269,-177.5 1269,-147.5 1151,-147.5"/>
<text text-anchor="start" x="1159" y="-165.5" font-family="Helvetica,sans-Serif" font-size="10.00">utf8::internal::sequence</text>
<text text-anchor="middle" x="1210" y="-154.5" font-family="Helvetica,sans-Serif" font-size="10.00">_length</text>
</a>
</g>
</g>
<!-- Node790&#45;&gt;Node791 -->
<g id="edge9" class="edge"><title>Node790&#45;&gt;Node791</title>
<path fill="none" stroke="midnightblue" d="M1115.13,-162.5C1123.54,-162.5 1132.18,-162.5 1140.64,-162.5"/>
<polygon fill="midnightblue" stroke="midnightblue" points="1140.86,-166 1150.86,-162.5 1140.86,-159 1140.86,-166"/>
</g>
<!-- Node793 -->
<g id="node12" class="node"><title>Node793</title>
<g id="a_node12"><a xlink:href="../../d0/d96/namespaceutf8_1_1internal.html#a6e5df73716136aec55e8fcf3309038b6" target="_top" xlink:title="get_sequence_x functions decode utf&#45;8 sequences of the length x ">
<polygon fill="white" stroke="black" points="1165.5,-98.5 1165.5,-128.5 1254.5,-128.5 1254.5,-98.5 1165.5,-98.5"/>
<text text-anchor="start" x="1173.5" y="-116.5" font-family="Helvetica,sans-Serif" font-size="10.00">utf8::internal::get</text>
<text text-anchor="middle" x="1210" y="-105.5" font-family="Helvetica,sans-Serif" font-size="10.00">_sequence_1</text>
</a>
</g>
</g>
<!-- Node790&#45;&gt;Node793 -->
<g id="edge11" class="edge"><title>Node790&#45;&gt;Node793</title>
<path fill="none" stroke="midnightblue" d="M1081.03,-152.936C1102.26,-146.396 1130.93,-137.559 1155.76,-129.908"/>
<polygon fill="midnightblue" stroke="midnightblue" points="1156.89,-133.222 1165.41,-126.932 1154.83,-126.533 1156.89,-133.222"/>
</g>
<!-- Node794 -->
<g id="node13" class="node"><title>Node794</title>
<g id="a_node13"><a xlink:href="../../d0/d96/namespaceutf8_1_1internal.html#a9d641b9546be985f9f0fd4955ac42a24" target="_top" xlink:title="utf8::internal::get\l_sequence_2">
<polygon fill="white" stroke="black" points="1165.5,-49.5 1165.5,-79.5 1254.5,-79.5 1254.5,-49.5 1165.5,-49.5"/>
<text text-anchor="start" x="1173.5" y="-67.5" font-family="Helvetica,sans-Serif" font-size="10.00">utf8::internal::get</text>
<text text-anchor="middle" x="1210" y="-56.5" font-family="Helvetica,sans-Serif" font-size="10.00">_sequence_2</text>
</a>
</g>
</g>
<!-- Node790&#45;&gt;Node794 -->
<g id="edge13" class="edge"><title>Node790&#45;&gt;Node794</title>
<path fill="none" stroke="midnightblue" d="M1061.2,-152.885C1079.21,-137.757 1116.14,-108.107 1151,-88.5 1153.85,-86.8974 1156.83,-85.3408 1159.87,-83.8415"/>
<polygon fill="midnightblue" stroke="midnightblue" points="1161.51,-86.9349 1169.09,-79.5264 1158.55,-80.5947 1161.51,-86.9349"/>
</g>
<!-- Node795 -->
<g id="node14" class="node"><title>Node795</title>
<g id="a_node14"><a xlink:href="../../d0/d96/namespaceutf8_1_1internal.html#ac1809a1fb3fa6983d64a0d3a39646008" target="_top" xlink:title="utf8::internal::get\l_sequence_3">
<polygon fill="white" stroke="black" points="1165.5,-294.5 1165.5,-324.5 1254.5,-324.5 1254.5,-294.5 1165.5,-294.5"/>
<text text-anchor="start" x="1173.5" y="-312.5" font-family="Helvetica,sans-Serif" font-size="10.00">utf8::internal::get</text>
<text text-anchor="middle" x="1210" y="-301.5" font-family="Helvetica,sans-Serif" font-size="10.00">_sequence_3</text>
</a>
</g>
</g>
<!-- Node790&#45;&gt;Node795 -->
<g id="edge15" class="edge"><title>Node790&#45;&gt;Node795</title>
<path fill="none" stroke="midnightblue" d="M1055.6,-172.173C1069.2,-194.897 1106.16,-252.266 1151,-285.5 1152.85,-286.871 1154.79,-288.179 1156.79,-289.425"/>
<polygon fill="midnightblue" stroke="midnightblue" points="1155.44,-292.68 1165.88,-294.496 1158.85,-286.568 1155.44,-292.68"/>
</g>
<!-- Node796 -->
<g id="node15" class="node"><title>Node796</title>
<g id="a_node15"><a xlink:href="../../d0/d96/namespaceutf8_1_1internal.html#ad1958e7c6746ba6b1fbb0d81b88b346c" target="_top" xlink:title="utf8::internal::get\l_sequence_4">
<polygon fill="white" stroke="black" points="1165.5,-196.5 1165.5,-226.5 1254.5,-226.5 1254.5,-196.5 1165.5,-196.5"/>
<text text-anchor="start" x="1173.5" y="-214.5" font-family="Helvetica,sans-Serif" font-size="10.00">utf8::internal::get</text>
<text text-anchor="middle" x="1210" y="-203.5" font-family="Helvetica,sans-Serif" font-size="10.00">_sequence_4</text>
</a>
</g>
</g>
<!-- Node790&#45;&gt;Node796 -->
<g id="edge17" class="edge"><title>Node790&#45;&gt;Node796</title>
<path fill="none" stroke="midnightblue" d="M1081.03,-172.064C1102.26,-178.604 1130.93,-187.441 1155.76,-195.092"/>
<polygon fill="midnightblue" stroke="midnightblue" points="1154.83,-198.467 1165.41,-198.068 1156.89,-191.778 1154.83,-198.467"/>
</g>
<!-- Node797 -->
<g id="node16" class="node"><title>Node797</title>
<g id="a_node16"><a xlink:href="../../d0/d96/namespaceutf8_1_1internal.html#a97b553137aaeda6e8ca6f8d46f78fd79" target="_top" xlink:title="utf8::internal::is\l_code_point_valid">
<polygon fill="white" stroke="black" points="1163.5,-0.5 1163.5,-30.5 1256.5,-30.5 1256.5,-0.5 1163.5,-0.5"/>
<text text-anchor="start" x="1171.5" y="-18.5" font-family="Helvetica,sans-Serif" font-size="10.00">utf8::internal::is</text>
<text text-anchor="middle" x="1210" y="-7.5" font-family="Helvetica,sans-Serif" font-size="10.00">_code_point_valid</text>
</a>
</g>
</g>
<!-- Node790&#45;&gt;Node797 -->
<g id="edge19" class="edge"><title>Node790&#45;&gt;Node797</title>
<path fill="none" stroke="midnightblue" d="M1059.16,-152.863C1072.06,-139.154 1096.11,-113.068 1115,-89.5 1132.13,-68.1349 1129.53,-56.4949 1151,-39.5 1152.6,-38.2319 1154.28,-37.0207 1156.02,-35.8651"/>
<polygon fill="midnightblue" stroke="midnightblue" points="1158.23,-38.6265 1165.07,-30.5419 1154.68,-32.5917 1158.23,-38.6265"/>
</g>
<!-- Node799 -->
<g id="node18" class="node"><title>Node799</title>
<g id="a_node18"><a xlink:href="../../d0/d96/namespaceutf8_1_1internal.html#a3160f6f24dff465f64f83cb0e66995c6" target="_top" xlink:title="utf8::internal::is\l_overlong_sequence">
<polygon fill="white" stroke="black" points="1158,-245.5 1158,-275.5 1262,-275.5 1262,-245.5 1158,-245.5"/>
<text text-anchor="start" x="1166" y="-263.5" font-family="Helvetica,sans-Serif" font-size="10.00">utf8::internal::is</text>
<text text-anchor="middle" x="1210" y="-252.5" font-family="Helvetica,sans-Serif" font-size="10.00">_overlong_sequence</text>
</a>
</g>
</g>
<!-- Node790&#45;&gt;Node799 -->
<g id="edge21" class="edge"><title>Node790&#45;&gt;Node799</title>
<path fill="none" stroke="midnightblue" d="M1061.56,-172.154C1079.75,-187.048 1116.57,-215.951 1151,-235.5 1154.39,-237.425 1157.96,-239.297 1161.58,-241.094"/>
<polygon fill="midnightblue" stroke="midnightblue" points="1160.13,-244.279 1170.67,-245.394 1163.13,-237.952 1160.13,-244.279"/>
</g>
<!-- Node792 -->
<g id="node11" class="node"><title>Node792</title>
<g id="a_node11"><a xlink:href="../../d0/d96/namespaceutf8_1_1internal.html#adf6e0469e279b9562aa461b4c3c1e7e4" target="_top" xlink:title="utf8::internal::mask8">
<polygon fill="white" stroke="black" points="1305,-177 1305,-196 1410,-196 1410,-177 1305,-177"/>
<text text-anchor="middle" x="1357.5" y="-184" font-family="Helvetica,sans-Serif" font-size="10.00">utf8::internal::mask8</text>
</a>
</g>
</g>
<!-- Node791&#45;&gt;Node792 -->
<g id="edge10" class="edge"><title>Node791&#45;&gt;Node792</title>
<path fill="none" stroke="midnightblue" d="M1269.34,-172.123C1277.66,-173.496 1286.24,-174.911 1294.62,-176.294"/>
<polygon fill="midnightblue" stroke="midnightblue" points="1294.29,-179.785 1304.72,-177.959 1295.42,-172.878 1294.29,-179.785"/>
</g>
<!-- Node793&#45;&gt;Node792 -->
<g id="edge12" class="edge"><title>Node793&#45;&gt;Node792</title>
<path fill="none" stroke="midnightblue" d="M1249.35,-128.616C1255.96,-131.436 1262.72,-134.458 1269,-137.5 1290.68,-148.01 1314.49,-161.474 1331.79,-171.629"/>
<polygon fill="midnightblue" stroke="midnightblue" points="1330.29,-174.808 1340.68,-176.89 1333.85,-168.784 1330.29,-174.808"/>
</g>
<!-- Node794&#45;&gt;Node792 -->
<g id="edge14" class="edge"><title>Node794&#45;&gt;Node792</title>
<path fill="none" stroke="midnightblue" d="M1253.69,-79.5348C1259.04,-82.1705 1264.29,-85.1576 1269,-88.5 1300.74,-111.022 1329.04,-147.056 1344.39,-168.586"/>
<polygon fill="midnightblue" stroke="midnightblue" points="1341.55,-170.641 1350.14,-176.843 1347.29,-166.638 1341.55,-170.641"/>
</g>
<!-- Node795&#45;&gt;Node792 -->
<g id="edge16" class="edge"><title>Node795&#45;&gt;Node792</title>
<path fill="none" stroke="midnightblue" d="M1253.7,-294.488C1259.06,-291.848 1264.3,-288.854 1269,-285.5 1300.86,-262.77 1329.12,-226.361 1344.43,-204.604"/>
<polygon fill="midnightblue" stroke="midnightblue" points="1347.38,-206.482 1350.17,-196.259 1341.62,-202.516 1347.38,-206.482"/>
</g>
<!-- Node796&#45;&gt;Node792 -->
<g id="edge18" class="edge"><title>Node796&#45;&gt;Node792</title>
<path fill="none" stroke="midnightblue" d="M1254.65,-203.999C1267.26,-201.833 1281.26,-199.427 1294.75,-197.11"/>
<polygon fill="midnightblue" stroke="midnightblue" points="1295.67,-200.503 1304.93,-195.361 1294.48,-193.605 1295.67,-200.503"/>
</g>
<!-- Node798 -->
<g id="node17" class="node"><title>Node798</title>
<g id="a_node17"><a xlink:href="../../d0/d96/namespaceutf8_1_1internal.html#a31a185a6bc8b9bf454191a8a95a93595" target="_top" xlink:title="utf8::internal::is\l_surrogate">
<polygon fill="white" stroke="black" points="1316,-0.5 1316,-30.5 1399,-30.5 1399,-0.5 1316,-0.5"/>
<text text-anchor="start" x="1324" y="-18.5" font-family="Helvetica,sans-Serif" font-size="10.00">utf8::internal::is</text>
<text text-anchor="middle" x="1357.5" y="-7.5" font-family="Helvetica,sans-Serif" font-size="10.00">_surrogate</text>
</a>
</g>
</g>
<!-- Node797&#45;&gt;Node798 -->
<g id="edge20" class="edge"><title>Node797&#45;&gt;Node798</title>
<path fill="none" stroke="midnightblue" d="M1256.64,-15.5C1272.23,-15.5 1289.75,-15.5 1305.72,-15.5"/>
<polygon fill="midnightblue" stroke="midnightblue" points="1305.95,-19.0001 1315.95,-15.5 1305.95,-12.0001 1305.95,-19.0001"/>
</g>
<!-- Node800&#45;&gt;Node797 -->
<g id="edge23" class="edge"><title>Node800&#45;&gt;Node797</title>
<path fill="none" stroke="midnightblue" d="M1077.7,-60.9197C1099.16,-53.4967 1129.53,-42.9883 1155.67,-33.9485"/>
<polygon fill="midnightblue" stroke="midnightblue" points="1157.14,-37.1422 1165.45,-30.5654 1154.85,-30.5268 1157.14,-37.1422"/>
</g>
<!-- Node801&#45;&gt;Node792 -->
<g id="edge25" class="edge"><title>Node801&#45;&gt;Node792</title>
<path fill="none" stroke="midnightblue" d="M1071.32,-294.665C1112.18,-321.692 1203.28,-371.99 1269,-334.5 1317.92,-306.594 1342.26,-239.433 1351.68,-206.036"/>
<polygon fill="midnightblue" stroke="midnightblue" points="1355.13,-206.673 1354.31,-196.11 1348.36,-204.876 1355.13,-206.673"/>
</g>
<!-- Node803 -->
<g id="node22" class="node"><title>Node803</title>
<g id="a_node22"><a xlink:href="../../d9/dc1/_utils_8h.html#abe6f6cf9ad4e672e6f4db9fe552b6bcf" target="_top" xlink:title="ANSI_TO_WCHAR">
<polygon fill="white" stroke="black" points="701,-109 701,-128 800,-128 800,-109 701,-109"/>
<text text-anchor="middle" x="750.5" y="-116" font-family="Helvetica,sans-Serif" font-size="10.00">ANSI_TO_WCHAR</text>
</a>
</g>
</g>
<!-- Node802&#45;&gt;Node803 -->
<g id="edge27" class="edge"><title>Node802&#45;&gt;Node803</title>
<path fill="none" stroke="midnightblue" d="M645.785,-120.451C660.383,-120.176 676.163,-119.879 690.902,-119.602"/>
<polygon fill="midnightblue" stroke="midnightblue" points="690.981,-123.101 700.914,-119.414 690.85,-116.103 690.981,-123.101"/>
</g>
</g>
</svg>
