<?xml version="1.0" encoding="UTF-8" standalone="no"?>
<!DOCTYPE svg PUBLIC "-//W3C//DTD SVG 1.1//EN"
 "http://www.w3.org/Graphics/SVG/1.1/DTD/svg11.dtd">
<!-- Generated by graphviz version 2.38.0 (20140413.2041)
 -->
<!-- Title: RoR::GUIManager::SetVisible_LoadingWindow Pages: 1 -->
<svg width="322pt" height="39pt"
 viewBox="0.00 0.00 322.00 39.00" xmlns="http://www.w3.org/2000/svg" xmlns:xlink="http://www.w3.org/1999/xlink">
<g id="graph0" class="graph" transform="scale(1 1) rotate(0) translate(4 35)">
<title>RoR::GUIManager::SetVisible_LoadingWindow</title>
<polygon fill="white" stroke="none" points="-4,4 -4,-35 318,-35 318,4 -4,4"/>
<!-- Node1881 -->
<g id="node1" class="node"><title>Node1881</title>
<polygon fill="#bfbfbf" stroke="black" points="0,-0.5 0,-30.5 146,-30.5 146,-0.5 0,-0.5"/>
<text text-anchor="start" x="8" y="-18.5" font-family="Helvetica,sans-Serif" font-size="10.00">RoR::GUIManager::SetVisible</text>
<text text-anchor="middle" x="73" y="-7.5" font-family="Helvetica,sans-Serif" font-size="10.00">_LoadingWindow</text>
</g>
<!-- Node1882 -->
<g id="node2" class="node"><title>Node1882</title>
<g id="a_node2"><a xlink:href="../../d1/d7c/class_ro_r_1_1_g_u_i_1_1_loading_window.html#af9aae9d856104ee68ef331d772c7f4bb" target="_top" xlink:title="RoR::GUI::LoadingWindow\l::SetVisible">
<polygon fill="white" stroke="black" points="182,-0.5 182,-30.5 314,-30.5 314,-0.5 182,-0.5"/>
<text text-anchor="start" x="190" y="-18.5" font-family="Helvetica,sans-Serif" font-size="10.00">RoR::GUI::LoadingWindow</text>
<text text-anchor="middle" x="248" y="-7.5" font-family="Helvetica,sans-Serif" font-size="10.00">::SetVisible</text>
</a>
</g>
</g>
<!-- Node1881&#45;&gt;Node1882 -->
<g id="edge1" class="edge"><title>Node1881&#45;&gt;Node1882</title>
<path fill="none" stroke="midnightblue" d="M146.115,-15.5C154.552,-15.5 163.177,-15.5 171.656,-15.5"/>
<polygon fill="midnightblue" stroke="midnightblue" points="171.904,-19.0001 181.904,-15.5 171.904,-12.0001 171.904,-19.0001"/>
</g>
</g>
</svg>
