<?xml version="1.0" encoding="UTF-8" standalone="no"?>
<!DOCTYPE svg PUBLIC "-//W3C//DTD SVG 1.1//EN"
 "http://www.w3.org/Graphics/SVG/1.1/DTD/svg11.dtd">
<!-- Generated by graphviz version 2.38.0 (20140413.2041)
 -->
<!-- Title: RoR::GUIManager::DrawMpConnectingStatusBox Pages: 1 -->
<svg width="711pt" height="39pt"
 viewBox="0.00 0.00 711.00 39.00" xmlns="http://www.w3.org/2000/svg" xmlns:xlink="http://www.w3.org/1999/xlink">
<g id="graph0" class="graph" transform="scale(1 1) rotate(0) translate(4 35)">
<title>RoR::GUIManager::DrawMpConnectingStatusBox</title>
<polygon fill="white" stroke="none" points="-4,4 -4,-35 707,-35 707,4 -4,4"/>
<!-- Node558 -->
<g id="node1" class="node"><title>Node558</title>
<polygon fill="#bfbfbf" stroke="black" points="0,-0.5 0,-30.5 185,-30.5 185,-0.5 0,-0.5"/>
<text text-anchor="start" x="8" y="-18.5" font-family="Helvetica,sans-Serif" font-size="10.00">RoR::GUIManager::DrawMpConnecting</text>
<text text-anchor="middle" x="92.5" y="-7.5" font-family="Helvetica,sans-Serif" font-size="10.00">StatusBox</text>
</g>
<!-- Node559 -->
<g id="node2" class="node"><title>Node559</title>
<g id="a_node2"><a xlink:href="../../d8/d11/class_ro_r_1_1_g_u_i_manager.html#af75908cee15c6ce99cce1752387fca4f" target="_top" xlink:title="RoR::GUIManager::DrawMain\lMenuGui">
<polygon fill="white" stroke="black" points="221,-0.5 221,-30.5 365,-30.5 365,-0.5 221,-0.5"/>
<text text-anchor="start" x="229" y="-18.5" font-family="Helvetica,sans-Serif" font-size="10.00">RoR::GUIManager::DrawMain</text>
<text text-anchor="middle" x="293" y="-7.5" font-family="Helvetica,sans-Serif" font-size="10.00">MenuGui</text>
</a>
</g>
</g>
<!-- Node558&#45;&gt;Node559 -->
<g id="edge1" class="edge"><title>Node558&#45;&gt;Node559</title>
<path fill="none" stroke="midnightblue" d="M195.33,-15.5C203.965,-15.5 212.574,-15.5 220.895,-15.5"/>
<polygon fill="midnightblue" stroke="midnightblue" points="195.196,-12.0001 185.196,-15.5 195.196,-19.0001 195.196,-12.0001"/>
</g>
<!-- Node560 -->
<g id="node3" class="node"><title>Node560</title>
<g id="a_node3"><a xlink:href="../../d4/d14/class_ro_r_1_1_main_menu.html#a582e508f1bb1578d1124260de49e438b" target="_top" xlink:title="RoR::MainMenu::EnterMain\lMenuLoop">
<polygon fill="white" stroke="black" points="401,-0.5 401,-30.5 538,-30.5 538,-0.5 401,-0.5"/>
<text text-anchor="start" x="409" y="-18.5" font-family="Helvetica,sans-Serif" font-size="10.00">RoR::MainMenu::EnterMain</text>
<text text-anchor="middle" x="469.5" y="-7.5" font-family="Helvetica,sans-Serif" font-size="10.00">MenuLoop</text>
</a>
</g>
</g>
<!-- Node559&#45;&gt;Node560 -->
<g id="edge2" class="edge"><title>Node559&#45;&gt;Node560</title>
<path fill="none" stroke="midnightblue" d="M375.243,-15.5C383.822,-15.5 392.478,-15.5 400.879,-15.5"/>
<polygon fill="midnightblue" stroke="midnightblue" points="375.228,-12.0001 365.228,-15.5 375.227,-19.0001 375.228,-12.0001"/>
</g>
<!-- Node561 -->
<g id="node4" class="node"><title>Node561</title>
<g id="a_node4"><a xlink:href="../../df/d0a/main_8cpp.html#a0ddf1224851353fc92bfbff6f499fa97" target="_top" xlink:title="main">
<polygon fill="white" stroke="black" points="574,-6 574,-25 612,-25 612,-6 574,-6"/>
<text text-anchor="middle" x="593" y="-13" font-family="Helvetica,sans-Serif" font-size="10.00">main</text>
</a>
</g>
</g>
<!-- Node560&#45;&gt;Node561 -->
<g id="edge3" class="edge"><title>Node560&#45;&gt;Node561</title>
<path fill="none" stroke="midnightblue" d="M548.013,-15.5C557.457,-15.5 566.315,-15.5 573.572,-15.5"/>
<polygon fill="midnightblue" stroke="midnightblue" points="548.001,-12.0001 538.001,-15.5 548.001,-19.0001 548.001,-12.0001"/>
</g>
<!-- Node562 -->
<g id="node5" class="node"><title>Node562</title>
<g id="a_node5"><a xlink:href="../../df/d0a/main_8cpp.html#a2922bc5d5c2d77a3020cfbf9df12aab0" target="_top" xlink:title="WinMain">
<polygon fill="white" stroke="black" points="648,-6 648,-25 703,-25 703,-6 648,-6"/>
<text text-anchor="middle" x="675.5" y="-13" font-family="Helvetica,sans-Serif" font-size="10.00">WinMain</text>
</a>
</g>
</g>
<!-- Node561&#45;&gt;Node562 -->
<g id="edge4" class="edge"><title>Node561&#45;&gt;Node562</title>
<path fill="none" stroke="midnightblue" d="M622.519,-15.5C630.73,-15.5 639.653,-15.5 647.752,-15.5"/>
<polygon fill="midnightblue" stroke="midnightblue" points="622.267,-12.0001 612.267,-15.5 622.267,-19.0001 622.267,-12.0001"/>
</g>
</g>
</svg>
