<?xml version="1.0" encoding="UTF-8" standalone="no"?>
<!DOCTYPE svg PUBLIC "-//W3C//DTD SVG 1.1//EN"
 "http://www.w3.org/Graphics/SVG/1.1/DTD/svg11.dtd">
<!-- Generated by graphviz version 2.38.0 (20140413.2041)
 -->
<!-- Title: RoR::GUIManager::GUIManager Pages: 1 -->
<svg width="1059pt" height="400pt"
 viewBox="0.00 0.00 1059.00 399.50" xmlns="http://www.w3.org/2000/svg" xmlns:xlink="http://www.w3.org/1999/xlink">
<g id="graph0" class="graph" transform="scale(1 1) rotate(0) translate(4 395.5)">
<title>RoR::GUIManager::GUIManager</title>
<polygon fill="white" stroke="none" points="-4,4 -4,-395.5 1055,-395.5 1055,4 -4,4"/>
<!-- Node0 -->
<g id="node1" class="node"><title>Node0</title>
<polygon fill="#bfbfbf" stroke="black" points="0,-234.5 0,-253.5 155,-253.5 155,-234.5 0,-234.5"/>
<text text-anchor="middle" x="77.5" y="-241.5" font-family="Helvetica,sans-Serif" font-size="10.00">RoR::GUIManager::GUIManager</text>
</g>
<!-- Node1 -->
<g id="node2" class="node"><title>Node1</title>
<g id="a_node2"><a xlink:href="../../df/d86/namespace_ro_r_1_1_app.html#ab0161218de3dc36879f3e69b84238eba" target="_top" xlink:title="RoR::App::GetOgreSubsystem">
<polygon fill="white" stroke="black" points="593,-159.5 593,-178.5 744,-178.5 744,-159.5 593,-159.5"/>
<text text-anchor="middle" x="668.5" y="-166.5" font-family="Helvetica,sans-Serif" font-size="10.00">RoR::App::GetOgreSubsystem</text>
</a>
</g>
</g>
<!-- Node0&#45;&gt;Node1 -->
<g id="edge1" class="edge"><title>Node0&#45;&gt;Node1</title>
<path fill="none" stroke="midnightblue" d="M90.7653,-234.44C110.54,-219.677 151.28,-191.9 191,-181 324.145,-144.461 486.139,-150.453 582.822,-159.058"/>
<polygon fill="midnightblue" stroke="midnightblue" points="582.559,-162.548 592.837,-159.979 583.2,-155.578 582.559,-162.548"/>
</g>
<!-- Node2 -->
<g id="node3" class="node"><title>Node2</title>
<g id="a_node3"><a xlink:href="../../df/db5/class_ro_r_1_1_ogre_subsystem.html#a2f68e736be01d118cae03e831b38a9df" target="_top" xlink:title="RoR::OgreSubsystem\l::GetOgreRoot">
<polygon fill="white" stroke="black" points="223,-317 223,-347 335,-347 335,-317 223,-317"/>
<text text-anchor="start" x="231" y="-335" font-family="Helvetica,sans-Serif" font-size="10.00">RoR::OgreSubsystem</text>
<text text-anchor="middle" x="279" y="-324" font-family="Helvetica,sans-Serif" font-size="10.00">::GetOgreRoot</text>
</a>
</g>
</g>
<!-- Node0&#45;&gt;Node2 -->
<g id="edge2" class="edge"><title>Node0&#45;&gt;Node2</title>
<path fill="none" stroke="midnightblue" d="M93.2254,-253.71C114.201,-267.195 154.225,-291.661 191,-307 197.959,-309.902 205.365,-312.595 212.806,-315.054"/>
<polygon fill="midnightblue" stroke="midnightblue" points="211.984,-318.465 222.574,-318.151 214.1,-311.793 211.984,-318.465"/>
</g>
<!-- Node3 -->
<g id="node4" class="node"><title>Node3</title>
<g id="a_node4"><a xlink:href="../../d0/d28/class_ro_r_1_1_str.html#a11656f4feb8913e45b15ae8b1d474f29" target="_top" xlink:title="RoR::Str::GetBuffer">
<polygon fill="white" stroke="black" points="228.5,-278.5 228.5,-297.5 329.5,-297.5 329.5,-278.5 228.5,-278.5"/>
<text text-anchor="middle" x="279" y="-285.5" font-family="Helvetica,sans-Serif" font-size="10.00">RoR::Str::GetBuffer</text>
</a>
</g>
</g>
<!-- Node0&#45;&gt;Node3 -->
<g id="edge3" class="edge"><title>Node0&#45;&gt;Node3</title>
<path fill="none" stroke="midnightblue" d="M121.229,-253.534C142.24,-258.212 167.944,-263.921 191,-269 201.75,-271.368 213.251,-273.889 224.253,-276.294"/>
<polygon fill="midnightblue" stroke="midnightblue" points="223.664,-279.748 234.18,-278.463 225.158,-272.909 223.664,-279.748"/>
</g>
<!-- Node4 -->
<g id="node5" class="node"><title>Node4</title>
<g id="a_node5"><a xlink:href="../../d1/dc2/class_ro_r_singleton.html#a18a797fc35bd8cfa8a2affdd197cbfee" target="_top" xlink:title="RoRSingleton\&lt; LanguageEngine\l \&gt;::getSingleton">
<polygon fill="white" stroke="black" points="200.5,-229 200.5,-259 357.5,-259 357.5,-229 200.5,-229"/>
<text text-anchor="start" x="208.5" y="-247" font-family="Helvetica,sans-Serif" font-size="10.00">RoRSingleton&lt; LanguageEngine</text>
<text text-anchor="middle" x="279" y="-236" font-family="Helvetica,sans-Serif" font-size="10.00"> &gt;::getSingleton</text>
</a>
</g>
</g>
<!-- Node0&#45;&gt;Node4 -->
<g id="edge4" class="edge"><title>Node0&#45;&gt;Node4</title>
<path fill="none" stroke="midnightblue" d="M155.061,-244C166.535,-244 178.441,-244 190.127,-244"/>
<polygon fill="midnightblue" stroke="midnightblue" points="190.324,-247.5 200.324,-244 190.324,-240.5 190.324,-247.5"/>
</g>
<!-- Node5 -->
<g id="node6" class="node"><title>Node5</title>
<g id="a_node6"><a xlink:href="../../d8/d11/class_ro_r_1_1_g_u_i_manager.html#a4c05d58cb797a5c276fccb66fd1f15f0" target="_top" xlink:title="RoR::GUIManager::eventRequestTag">
<polygon fill="white" stroke="black" points="191,-190.5 191,-209.5 367,-209.5 367,-190.5 191,-190.5"/>
<text text-anchor="middle" x="279" y="-197.5" font-family="Helvetica,sans-Serif" font-size="10.00">RoR::GUIManager::eventRequestTag</text>
</a>
</g>
</g>
<!-- Node0&#45;&gt;Node5 -->
<g id="edge5" class="edge"><title>Node0&#45;&gt;Node5</title>
<path fill="none" stroke="midnightblue" d="M121.789,-234.453C151.984,-227.793 192.47,-218.864 224.66,-211.764"/>
<polygon fill="midnightblue" stroke="midnightblue" points="225.784,-215.1 234.796,-209.529 224.277,-208.265 225.784,-215.1"/>
</g>
<!-- Node6 -->
<g id="node7" class="node"><title>Node6</title>
<g id="a_node7"><a xlink:href="../../d8/d11/class_ro_r_1_1_g_u_i_manager.html#a383e4098572ae987a16b794ae3f504bd" target="_top" xlink:title="RoR::GUIManager::windowResized">
<polygon fill="white" stroke="black" points="195,-366.5 195,-385.5 363,-385.5 363,-366.5 195,-366.5"/>
<text text-anchor="middle" x="279" y="-373.5" font-family="Helvetica,sans-Serif" font-size="10.00">RoR::GUIManager::windowResized</text>
</a>
</g>
</g>
<!-- Node0&#45;&gt;Node6 -->
<g id="edge6" class="edge"><title>Node0&#45;&gt;Node6</title>
<path fill="none" stroke="midnightblue" d="M85.0901,-253.703C100.68,-275.849 142.204,-330.259 191,-357 195.186,-359.294 199.628,-361.311 204.203,-363.084"/>
<polygon fill="midnightblue" stroke="midnightblue" points="203.146,-366.423 213.741,-366.393 205.441,-359.809 203.146,-366.423"/>
</g>
<!-- Node13 -->
<g id="node14" class="node"><title>Node13</title>
<g id="a_node14"><a xlink:href="../../d8/d11/class_ro_r_1_1_g_u_i_manager.html#ada62f2a3ed1916148c573d45c00b45bc" target="_top" xlink:title="RoR::GUIManager::SetupImGui">
<polygon fill="white" stroke="black" points="203,-95.5 203,-114.5 355,-114.5 355,-95.5 203,-95.5"/>
<text text-anchor="middle" x="279" y="-102.5" font-family="Helvetica,sans-Serif" font-size="10.00">RoR::GUIManager::SetupImGui</text>
</a>
</g>
</g>
<!-- Node0&#45;&gt;Node13 -->
<g id="edge14" class="edge"><title>Node0&#45;&gt;Node13</title>
<path fill="none" stroke="midnightblue" d="M88.0689,-234.374C106.693,-215.986 149.624,-175.27 191,-148 208.052,-136.762 228.46,-126.526 245.224,-118.862"/>
<polygon fill="midnightblue" stroke="midnightblue" points="246.921,-121.938 254.62,-114.659 244.062,-115.548 246.921,-121.938"/>
</g>
<!-- Node7 -->
<g id="node8" class="node"><title>Node7</title>
<g id="a_node8"><a xlink:href="../../db/df1/class_g_u_i_input_manager.html#a5fde1d31061185a8cea4911ff2d56b61" target="_top" xlink:title="GUIInputManager::setInput\lViewSize">
<polygon fill="white" stroke="black" points="412,-361 412,-391 544,-391 544,-361 412,-361"/>
<text text-anchor="start" x="420" y="-379" font-family="Helvetica,sans-Serif" font-size="10.00">GUIInputManager::setInput</text>
<text text-anchor="middle" x="478" y="-368" font-family="Helvetica,sans-Serif" font-size="10.00">ViewSize</text>
</a>
</g>
</g>
<!-- Node6&#45;&gt;Node7 -->
<g id="edge7" class="edge"><title>Node6&#45;&gt;Node7</title>
<path fill="none" stroke="midnightblue" d="M363.26,-376C376.104,-376 389.301,-376 401.951,-376"/>
<polygon fill="midnightblue" stroke="midnightblue" points="401.961,-379.5 411.961,-376 401.961,-372.5 401.961,-379.5"/>
</g>
<!-- Node9 -->
<g id="node10" class="node"><title>Node9</title>
<g id="a_node10"><a xlink:href="../../d8/d11/class_ro_r_1_1_g_u_i_manager.html#aa6522e664233ae16430b5ded2f4c25b0" target="_top" xlink:title="RoR::GUIManager::AdjustMain\lMenuPosition">
<polygon fill="white" stroke="black" points="403,-254 403,-284 553,-284 553,-254 403,-254"/>
<text text-anchor="start" x="411" y="-272" font-family="Helvetica,sans-Serif" font-size="10.00">RoR::GUIManager::AdjustMain</text>
<text text-anchor="middle" x="478" y="-261" font-family="Helvetica,sans-Serif" font-size="10.00">MenuPosition</text>
</a>
</g>
</g>
<!-- Node6&#45;&gt;Node9 -->
<g id="edge9" class="edge"><title>Node6&#45;&gt;Node9</title>
<path fill="none" stroke="midnightblue" d="M341.1,-366.409C350.014,-363.944 358.906,-360.859 367,-357 401.256,-340.668 434.4,-311.802 455.193,-291.598"/>
<polygon fill="midnightblue" stroke="midnightblue" points="457.895,-293.848 462.534,-284.323 452.968,-288.876 457.895,-293.848"/>
</g>
<!-- Node8 -->
<g id="node9" class="node"><title>Node8</title>
<g id="a_node9"><a xlink:href="../../db/df1/class_g_u_i_input_manager.html#af367cbabbd2130a3cb260f93da0bb914" target="_top" xlink:title="GUIInputManager::checkPosition">
<polygon fill="white" stroke="black" points="589,-366.5 589,-385.5 748,-385.5 748,-366.5 589,-366.5"/>
<text text-anchor="middle" x="668.5" y="-373.5" font-family="Helvetica,sans-Serif" font-size="10.00">GUIInputManager::checkPosition</text>
</a>
</g>
</g>
<!-- Node7&#45;&gt;Node8 -->
<g id="edge8" class="edge"><title>Node7&#45;&gt;Node8</title>
<path fill="none" stroke="midnightblue" d="M544.135,-376C555.246,-376 566.956,-376 578.559,-376"/>
<polygon fill="midnightblue" stroke="midnightblue" points="578.709,-379.5 588.709,-376 578.709,-372.5 578.709,-379.5"/>
</g>
<!-- Node9&#45;&gt;Node1 -->
<g id="edge10" class="edge"><title>Node9&#45;&gt;Node1</title>
<path fill="none" stroke="midnightblue" d="M497.891,-253.936C519.063,-237.631 554.904,-211.724 589,-195 599.468,-189.866 611.194,-185.372 622.327,-181.63"/>
<polygon fill="midnightblue" stroke="midnightblue" points="623.469,-184.939 631.911,-178.537 621.319,-178.278 623.469,-184.939"/>
</g>
<!-- Node10 -->
<g id="node11" class="node"><title>Node10</title>
<g id="a_node11"><a xlink:href="../../df/db5/class_ro_r_1_1_ogre_subsystem.html#aec5be99797f9add72578fb1fbfec582f" target="_top" xlink:title="RoR::OgreSubsystem\l::GetRenderWindow">
<polygon fill="white" stroke="black" points="612.5,-303 612.5,-333 724.5,-333 724.5,-303 612.5,-303"/>
<text text-anchor="start" x="620.5" y="-321" font-family="Helvetica,sans-Serif" font-size="10.00">RoR::OgreSubsystem</text>
<text text-anchor="middle" x="668.5" y="-310" font-family="Helvetica,sans-Serif" font-size="10.00">::GetRenderWindow</text>
</a>
</g>
</g>
<!-- Node9&#45;&gt;Node10 -->
<g id="edge11" class="edge"><title>Node9&#45;&gt;Node10</title>
<path fill="none" stroke="midnightblue" d="M536.837,-284.035C557.578,-289.426 581.099,-295.54 602.413,-301.081"/>
<polygon fill="midnightblue" stroke="midnightblue" points="601.794,-304.536 612.353,-303.665 603.556,-297.761 601.794,-304.536"/>
</g>
<!-- Node11 -->
<g id="node12" class="node"><title>Node11</title>
<g id="a_node12"><a xlink:href="../../d3/d05/class_ro_r_1_1_g_u_i_1_1_game_main_menu.html#a166e66f4c854383407a2633e019a9681" target="_top" xlink:title="RoR::GUI::GameMainMenu\l::GetHeight">
<polygon fill="white" stroke="black" points="601,-254 601,-284 736,-284 736,-254 601,-254"/>
<text text-anchor="start" x="609" y="-272" font-family="Helvetica,sans-Serif" font-size="10.00">RoR::GUI::GameMainMenu</text>
<text text-anchor="middle" x="668.5" y="-261" font-family="Helvetica,sans-Serif" font-size="10.00">::GetHeight</text>
</a>
</g>
</g>
<!-- Node9&#45;&gt;Node11 -->
<g id="edge12" class="edge"><title>Node9&#45;&gt;Node11</title>
<path fill="none" stroke="midnightblue" d="M553.23,-269C565.544,-269 578.337,-269 590.714,-269"/>
<polygon fill="midnightblue" stroke="midnightblue" points="590.993,-272.5 600.993,-269 590.993,-265.5 590.993,-272.5"/>
</g>
<!-- Node12 -->
<g id="node13" class="node"><title>Node12</title>
<g id="a_node13"><a xlink:href="../../d3/d05/class_ro_r_1_1_g_u_i_1_1_game_main_menu.html#a1653b19df9892e3ee1c23d08c3b1041b" target="_top" xlink:title="RoR::GUI::GameMainMenu\l::SetPosition">
<polygon fill="white" stroke="black" points="601,-205 601,-235 736,-235 736,-205 601,-205"/>
<text text-anchor="start" x="609" y="-223" font-family="Helvetica,sans-Serif" font-size="10.00">RoR::GUI::GameMainMenu</text>
<text text-anchor="middle" x="668.5" y="-212" font-family="Helvetica,sans-Serif" font-size="10.00">::SetPosition</text>
</a>
</g>
</g>
<!-- Node9&#45;&gt;Node12 -->
<g id="edge13" class="edge"><title>Node9&#45;&gt;Node12</title>
<path fill="none" stroke="midnightblue" d="M536.837,-253.965C556.74,-248.792 579.203,-242.952 599.819,-237.593"/>
<polygon fill="midnightblue" stroke="midnightblue" points="600.974,-240.91 609.772,-235.006 599.213,-234.135 600.974,-240.91"/>
</g>
<!-- Node14 -->
<g id="node15" class="node"><title>Node14</title>
<g id="a_node15"><a xlink:href="../../df/d13/namespace_im_gui.html#a3179e560812f878f3961ce803a5d9302" target="_top" xlink:title="ImGui::GetIO">
<polygon fill="white" stroke="black" points="816.5,-79.5 816.5,-98.5 890.5,-98.5 890.5,-79.5 816.5,-79.5"/>
<text text-anchor="middle" x="853.5" y="-86.5" font-family="Helvetica,sans-Serif" font-size="10.00">ImGui::GetIO</text>
</a>
</g>
</g>
<!-- Node13&#45;&gt;Node14 -->
<g id="edge15" class="edge"><title>Node13&#45;&gt;Node14</title>
<path fill="none" stroke="midnightblue" d="M355.086,-107.432C447.619,-109.758 609.598,-111.645 748,-102 767.146,-100.666 788.163,-98.2396 806.296,-95.8416"/>
<polygon fill="midnightblue" stroke="midnightblue" points="806.884,-99.2939 816.322,-94.4804 805.942,-92.3575 806.884,-99.2939"/>
</g>
<!-- Node15 -->
<g id="node16" class="node"><title>Node15</title>
<g id="a_node16"><a xlink:href="../../d5/d56/class_ogre_im_gui.html#abd3a0ed753e5987d88b249f3ff8ff7a3" target="_top" xlink:title="OgreImGui::Init">
<polygon fill="white" stroke="black" points="437,-76.5 437,-95.5 519,-95.5 519,-76.5 437,-76.5"/>
<text text-anchor="middle" x="478" y="-83.5" font-family="Helvetica,sans-Serif" font-size="10.00">OgreImGui::Init</text>
</a>
</g>
</g>
<!-- Node13&#45;&gt;Node15 -->
<g id="edge16" class="edge"><title>Node13&#45;&gt;Node15</title>
<path fill="none" stroke="midnightblue" d="M355.039,-97.7627C379.07,-95.4451 405.078,-92.9366 426.88,-90.834"/>
<polygon fill="midnightblue" stroke="midnightblue" points="427.279,-94.3118 436.897,-89.8678 426.607,-87.3441 427.279,-94.3118"/>
</g>
<!-- Node20 -->
<g id="node21" class="node"><title>Node20</title>
<g id="a_node21"><a xlink:href="../../df/d13/namespace_im_gui.html#abafef4bb3e3654efd96a47b2e22870a7" target="_top" xlink:title="ImGui::GetStyle">
<polygon fill="white" stroke="black" points="435,-38.5 435,-57.5 521,-57.5 521,-38.5 435,-38.5"/>
<text text-anchor="middle" x="478" y="-45.5" font-family="Helvetica,sans-Serif" font-size="10.00">ImGui::GetStyle</text>
</a>
</g>
</g>
<!-- Node13&#45;&gt;Node20 -->
<g id="edge23" class="edge"><title>Node13&#45;&gt;Node20</title>
<path fill="none" stroke="midnightblue" d="M309.706,-95.3813C334.544,-87.4452 370.954,-76.0585 403,-67 411.257,-64.6661 420.065,-62.2985 428.62,-60.0633"/>
<polygon fill="midnightblue" stroke="midnightblue" points="429.692,-63.4014 438.498,-57.5102 427.94,-56.6242 429.692,-63.4014"/>
</g>
<!-- Node15&#45;&gt;Node14 -->
<g id="edge17" class="edge"><title>Node15&#45;&gt;Node14</title>
<path fill="none" stroke="midnightblue" d="M519.326,-86.3239C589.174,-86.8849 732.257,-88.0342 806.111,-88.6274"/>
<polygon fill="midnightblue" stroke="midnightblue" points="806.46,-92.1302 816.488,-88.7107 806.517,-85.1304 806.46,-92.1302"/>
</g>
<!-- Node16 -->
<g id="node17" class="node"><title>Node16</title>
<g id="a_node17"><a xlink:href="../../d5/d56/class_ogre_im_gui.html#a9b4b9c3befcbb6525fada527427426fb" target="_top" xlink:title="OgreImGui::createFontTexture">
<polygon fill="white" stroke="black" points="594.5,-38.5 594.5,-57.5 742.5,-57.5 742.5,-38.5 594.5,-38.5"/>
<text text-anchor="middle" x="668.5" y="-45.5" font-family="Helvetica,sans-Serif" font-size="10.00">OgreImGui::createFontTexture</text>
</a>
</g>
</g>
<!-- Node15&#45;&gt;Node16 -->
<g id="edge18" class="edge"><title>Node15&#45;&gt;Node16</title>
<path fill="none" stroke="midnightblue" d="M519.438,-77.848C545.856,-72.5224 580.757,-65.4867 610.038,-59.5838"/>
<polygon fill="midnightblue" stroke="midnightblue" points="611.027,-62.955 620.138,-57.5478 609.643,-56.0931 611.027,-62.955"/>
</g>
<!-- Node19 -->
<g id="node20" class="node"><title>Node19</title>
<g id="a_node20"><a xlink:href="../../d5/d56/class_ogre_im_gui.html#a134e7a4974763bf927768729d902f5b2" target="_top" xlink:title="OgreImGui::createMaterial">
<polygon fill="white" stroke="black" points="603,-0.5 603,-19.5 734,-19.5 734,-0.5 603,-0.5"/>
<text text-anchor="middle" x="668.5" y="-7.5" font-family="Helvetica,sans-Serif" font-size="10.00">OgreImGui::createMaterial</text>
</a>
</g>
</g>
<!-- Node15&#45;&gt;Node19 -->
<g id="edge22" class="edge"><title>Node15&#45;&gt;Node19</title>
<path fill="none" stroke="midnightblue" d="M519.014,-80.0305C530.511,-77.1997 542.712,-73.0541 553,-67 573.051,-55.2015 568.868,-40.6593 589,-29 592.858,-26.7655 596.969,-24.793 601.21,-23.0518"/>
<polygon fill="midnightblue" stroke="midnightblue" points="602.466,-26.3194 610.656,-19.5978 600.062,-19.7452 602.466,-26.3194"/>
</g>
<!-- Node16&#45;&gt;Node14 -->
<g id="edge19" class="edge"><title>Node16&#45;&gt;Node14</title>
<path fill="none" stroke="midnightblue" d="M711.944,-57.5093C740.279,-63.8576 777.525,-72.2023 806.556,-78.7066"/>
<polygon fill="midnightblue" stroke="midnightblue" points="805.931,-82.1532 816.454,-80.9242 807.461,-75.3225 805.931,-82.1532"/>
</g>
<!-- Node17 -->
<g id="node18" class="node"><title>Node17</title>
<g id="a_node18"><a xlink:href="../../d5/d9e/struct_im_font_atlas.html#a8abb0c4e67ebb38249d4df71218c4eec" target="_top" xlink:title="ImFontAtlas::GetTexDataAs\lRGBA32">
<polygon fill="white" stroke="black" points="784,-30 784,-60 923,-60 923,-30 784,-30"/>
<text text-anchor="start" x="792" y="-48" font-family="Helvetica,sans-Serif" font-size="10.00">ImFontAtlas::GetTexDataAs</text>
<text text-anchor="middle" x="853.5" y="-37" font-family="Helvetica,sans-Serif" font-size="10.00">RGBA32</text>
</a>
</g>
</g>
<!-- Node16&#45;&gt;Node17 -->
<g id="edge20" class="edge"><title>Node16&#45;&gt;Node17</title>
<path fill="none" stroke="midnightblue" d="M742.615,-46.8014C752.845,-46.6337 763.394,-46.4608 773.722,-46.2914"/>
<polygon fill="midnightblue" stroke="midnightblue" points="774.016,-49.7872 783.957,-46.1236 773.901,-42.7881 774.016,-49.7872"/>
</g>
<!-- Node18 -->
<g id="node19" class="node"><title>Node18</title>
<g id="a_node19"><a xlink:href="../../df/d13/namespace_im_gui.html#a15efb2cac4a54b35489c5984ba1b661a" target="_top" xlink:title="ImGui::MemAlloc">
<polygon fill="white" stroke="black" points="959,-35.5 959,-54.5 1051,-54.5 1051,-35.5 959,-35.5"/>
<text text-anchor="middle" x="1005" y="-42.5" font-family="Helvetica,sans-Serif" font-size="10.00">ImGui::MemAlloc</text>
</a>
</g>
</g>
<!-- Node17&#45;&gt;Node18 -->
<g id="edge21" class="edge"><title>Node17&#45;&gt;Node18</title>
<path fill="none" stroke="midnightblue" d="M923.124,-45C931.747,-45 940.478,-45 948.856,-45"/>
<polygon fill="midnightblue" stroke="midnightblue" points="948.869,-48.5001 958.869,-45 948.869,-41.5001 948.869,-48.5001"/>
</g>
</g>
</svg>
