<?xml version="1.0" encoding="UTF-8" standalone="no"?>
<!DOCTYPE svg PUBLIC "-//W3C//DTD SVG 1.1//EN"
 "http://www.w3.org/Graphics/SVG/1.1/DTD/svg11.dtd">
<!-- Generated by graphviz version 2.38.0 (20140413.2041)
 -->
<!-- Title: RoR::GUIManager::SetVisible_GameMainMenu Pages: 1 -->
<svg width="866pt" height="274pt"
 viewBox="0.00 0.00 866.00 274.00" xmlns="http://www.w3.org/2000/svg" xmlns:xlink="http://www.w3.org/1999/xlink">
<g id="graph0" class="graph" transform="scale(1 1) rotate(0) translate(4 270)">
<title>RoR::GUIManager::SetVisible_GameMainMenu</title>
<polygon fill="white" stroke="none" points="-4,4 -4,-270 862,-270 862,4 -4,4"/>
<!-- Node1863 -->
<g id="node1" class="node"><title>Node1863</title>
<polygon fill="#bfbfbf" stroke="black" points="0,-98.5 0,-128.5 146,-128.5 146,-98.5 0,-98.5"/>
<text text-anchor="start" x="8" y="-116.5" font-family="Helvetica,sans-Serif" font-size="10.00">RoR::GUIManager::SetVisible</text>
<text text-anchor="middle" x="73" y="-105.5" font-family="Helvetica,sans-Serif" font-size="10.00">_GameMainMenu</text>
</g>
<!-- Node1864 -->
<g id="node2" class="node"><title>Node1864</title>
<g id="a_node2"><a xlink:href="../../d8/d2c/class_ro_r_1_1_g_u_i_1_1_game_settings.html#a97a07e0573bf956e386722ef6b776ff3" target="_top" xlink:title="RoR::GUI::GameSettings\l::Draw">
<polygon fill="white" stroke="black" points="198,-186.5 198,-216.5 324,-216.5 324,-186.5 198,-186.5"/>
<text text-anchor="start" x="206" y="-204.5" font-family="Helvetica,sans-Serif" font-size="10.00">RoR::GUI::GameSettings</text>
<text text-anchor="middle" x="261" y="-193.5" font-family="Helvetica,sans-Serif" font-size="10.00">::Draw</text>
</a>
</g>
</g>
<!-- Node1863&#45;&gt;Node1864 -->
<g id="edge1" class="edge"><title>Node1863&#45;&gt;Node1864</title>
<path fill="none" stroke="midnightblue" d="M108.98,-133.731C129.849,-145.434 157.06,-160.062 182,-171.5 193.473,-176.762 206.157,-181.912 217.903,-186.419"/>
<polygon fill="midnightblue" stroke="midnightblue" points="110.588,-130.62 100.16,-128.747 107.144,-136.714 110.588,-130.62"/>
</g>
<!-- Node1867 -->
<g id="node5" class="node"><title>Node1867</title>
<g id="a_node5"><a xlink:href="../../df/d0a/main_8cpp.html#a0ddf1224851353fc92bfbff6f499fa97" target="_top" xlink:title="main">
<polygon fill="white" stroke="black" points="729,-182 729,-201 767,-201 767,-182 729,-182"/>
<text text-anchor="middle" x="748" y="-189" font-family="Helvetica,sans-Serif" font-size="10.00">main</text>
</a>
</g>
</g>
<!-- Node1863&#45;&gt;Node1867 -->
<g id="edge8" class="edge"><title>Node1863&#45;&gt;Node1867</title>
<path fill="none" stroke="midnightblue" d="M142.44,-130.795C155.512,-133.686 169.132,-136.417 182,-138.5 395.474,-173.061 658.246,-187.319 728.837,-190.683"/>
<polygon fill="midnightblue" stroke="midnightblue" points="143.097,-127.356 132.572,-128.562 141.552,-134.183 143.097,-127.356"/>
</g>
<!-- Node1870 -->
<g id="node8" class="node"><title>Node1870</title>
<g id="a_node8"><a xlink:href="../../d4/d8f/class_ro_r_1_1_g_u_i_1_1_multiplayer_selector.html#a8c98e9ba03c8afb1d1a26ec06192862e" target="_top" xlink:title="RoR::GUI::MultiplayerSelector\l::~MultiplayerSelector">
<polygon fill="white" stroke="black" points="187.5,-98.5 187.5,-128.5 334.5,-128.5 334.5,-98.5 187.5,-98.5"/>
<text text-anchor="start" x="195.5" y="-116.5" font-family="Helvetica,sans-Serif" font-size="10.00">RoR::GUI::MultiplayerSelector</text>
<text text-anchor="middle" x="261" y="-105.5" font-family="Helvetica,sans-Serif" font-size="10.00">::~MultiplayerSelector</text>
</a>
</g>
</g>
<!-- Node1863&#45;&gt;Node1870 -->
<g id="edge7" class="edge"><title>Node1863&#45;&gt;Node1870</title>
<path fill="none" stroke="midnightblue" d="M156.385,-113.5C166.668,-113.5 177.126,-113.5 187.249,-113.5"/>
<polygon fill="midnightblue" stroke="midnightblue" points="156.179,-110 146.179,-113.5 156.179,-117 156.179,-110"/>
</g>
<!-- Node1871 -->
<g id="node9" class="node"><title>Node1871</title>
<g id="a_node9"><a xlink:href="../../d4/d14/class_ro_r_1_1_main_menu.html#a4c0e4e0344e537643147ae798304ee8e" target="_top" xlink:title="RoR::MainMenu::MainMenuLoop\lUpdate">
<polygon fill="white" stroke="black" points="182,-49.5 182,-79.5 340,-79.5 340,-49.5 182,-49.5"/>
<text text-anchor="start" x="190" y="-67.5" font-family="Helvetica,sans-Serif" font-size="10.00">RoR::MainMenu::MainMenuLoop</text>
<text text-anchor="middle" x="261" y="-56.5" font-family="Helvetica,sans-Serif" font-size="10.00">Update</text>
</a>
</g>
</g>
<!-- Node1863&#45;&gt;Node1871 -->
<g id="edge9" class="edge"><title>Node1863&#45;&gt;Node1871</title>
<path fill="none" stroke="midnightblue" d="M140.895,-95.8771C161.244,-90.5163 183.408,-84.6775 203.038,-79.5062"/>
<polygon fill="midnightblue" stroke="midnightblue" points="139.849,-92.5333 131.07,-98.4654 141.632,-99.3023 139.849,-92.5333"/>
</g>
<!-- Node1872 -->
<g id="node10" class="node"><title>Node1872</title>
<g id="a_node10"><a xlink:href="../../d4/d14/class_ro_r_1_1_main_menu.html#aaf317cb35e15dc7dccc56bdc1c096f41" target="_top" xlink:title="RoR::MainMenu::MainMenuLoop\lUpdateEvents">
<polygon fill="white" stroke="black" points="182,-0.5 182,-30.5 340,-30.5 340,-0.5 182,-0.5"/>
<text text-anchor="start" x="190" y="-18.5" font-family="Helvetica,sans-Serif" font-size="10.00">RoR::MainMenu::MainMenuLoop</text>
<text text-anchor="middle" x="261" y="-7.5" font-family="Helvetica,sans-Serif" font-size="10.00">UpdateEvents</text>
</a>
</g>
</g>
<!-- Node1863&#45;&gt;Node1872 -->
<g id="edge10" class="edge"><title>Node1863&#45;&gt;Node1872</title>
<path fill="none" stroke="midnightblue" d="M100.556,-91.913C121.604,-75.6675 152.314,-53.8255 182,-39.5 188.89,-36.1749 196.345,-33.1847 203.818,-30.536"/>
<polygon fill="midnightblue" stroke="midnightblue" points="98.1485,-89.3528 92.4345,-98.2748 102.465,-94.8635 98.1485,-89.3528"/>
</g>
<!-- Node1865 -->
<g id="node3" class="node"><title>Node1865</title>
<g id="a_node3"><a xlink:href="../../d8/d11/class_ro_r_1_1_g_u_i_manager.html#af75908cee15c6ce99cce1752387fca4f" target="_top" xlink:title="RoR::GUIManager::DrawMain\lMenuGui">
<polygon fill="white" stroke="black" points="376,-235.5 376,-265.5 520,-265.5 520,-235.5 376,-235.5"/>
<text text-anchor="start" x="384" y="-253.5" font-family="Helvetica,sans-Serif" font-size="10.00">RoR::GUIManager::DrawMain</text>
<text text-anchor="middle" x="448" y="-242.5" font-family="Helvetica,sans-Serif" font-size="10.00">MenuGui</text>
</a>
</g>
</g>
<!-- Node1864&#45;&gt;Node1865 -->
<g id="edge2" class="edge"><title>Node1864&#45;&gt;Node1865</title>
<path fill="none" stroke="midnightblue" d="M328.535,-219.123C348.775,-224.484 370.82,-230.323 390.344,-235.494"/>
<polygon fill="midnightblue" stroke="midnightblue" points="329.326,-215.712 318.763,-216.535 327.534,-222.478 329.326,-215.712"/>
</g>
<!-- Node1869 -->
<g id="node7" class="node"><title>Node1869</title>
<g id="a_node7"><a xlink:href="../../d8/d2c/class_ro_r_1_1_g_u_i_1_1_game_settings.html#aeb21469250c1f403cfc4e281271b339f" target="_top" xlink:title="RoR::GUI::GameSettings\l::GameSettings">
<polygon fill="white" stroke="black" points="385,-186.5 385,-216.5 511,-216.5 511,-186.5 385,-186.5"/>
<text text-anchor="start" x="393" y="-204.5" font-family="Helvetica,sans-Serif" font-size="10.00">RoR::GUI::GameSettings</text>
<text text-anchor="middle" x="448" y="-193.5" font-family="Helvetica,sans-Serif" font-size="10.00">::GameSettings</text>
</a>
</g>
</g>
<!-- Node1864&#45;&gt;Node1869 -->
<g id="edge6" class="edge"><title>Node1864&#45;&gt;Node1869</title>
<path fill="none" stroke="midnightblue" d="M334.344,-201.5C350.991,-201.5 368.555,-201.5 384.732,-201.5"/>
<polygon fill="midnightblue" stroke="midnightblue" points="334.117,-198 324.117,-201.5 334.117,-205 334.117,-198"/>
</g>
<!-- Node1866 -->
<g id="node4" class="node"><title>Node1866</title>
<g id="a_node4"><a xlink:href="../../d4/d14/class_ro_r_1_1_main_menu.html#a582e508f1bb1578d1124260de49e438b" target="_top" xlink:title="RoR::MainMenu::EnterMain\lMenuLoop">
<polygon fill="white" stroke="black" points="556,-210.5 556,-240.5 693,-240.5 693,-210.5 556,-210.5"/>
<text text-anchor="start" x="564" y="-228.5" font-family="Helvetica,sans-Serif" font-size="10.00">RoR::MainMenu::EnterMain</text>
<text text-anchor="middle" x="624.5" y="-217.5" font-family="Helvetica,sans-Serif" font-size="10.00">MenuLoop</text>
</a>
</g>
</g>
<!-- Node1865&#45;&gt;Node1866 -->
<g id="edge3" class="edge"><title>Node1865&#45;&gt;Node1866</title>
<path fill="none" stroke="midnightblue" d="M530.243,-238.861C538.822,-237.632 547.478,-236.391 555.879,-235.188"/>
<polygon fill="midnightblue" stroke="midnightblue" points="529.63,-235.413 520.228,-240.295 530.623,-242.342 529.63,-235.413"/>
</g>
<!-- Node1866&#45;&gt;Node1867 -->
<g id="edge4" class="edge"><title>Node1866&#45;&gt;Node1867</title>
<path fill="none" stroke="midnightblue" d="M688.784,-207.791C703.464,-203.683 717.946,-199.63 728.794,-196.595"/>
<polygon fill="midnightblue" stroke="midnightblue" points="687.832,-204.423 679.145,-210.488 689.719,-211.164 687.832,-204.423"/>
</g>
<!-- Node1868 -->
<g id="node6" class="node"><title>Node1868</title>
<g id="a_node6"><a xlink:href="../../df/d0a/main_8cpp.html#a2922bc5d5c2d77a3020cfbf9df12aab0" target="_top" xlink:title="WinMain">
<polygon fill="white" stroke="black" points="803,-182 803,-201 858,-201 858,-182 803,-182"/>
<text text-anchor="middle" x="830.5" y="-189" font-family="Helvetica,sans-Serif" font-size="10.00">WinMain</text>
</a>
</g>
</g>
<!-- Node1867&#45;&gt;Node1868 -->
<g id="edge5" class="edge"><title>Node1867&#45;&gt;Node1868</title>
<path fill="none" stroke="midnightblue" d="M777.519,-191.5C785.73,-191.5 794.653,-191.5 802.752,-191.5"/>
<polygon fill="midnightblue" stroke="midnightblue" points="777.267,-188 767.267,-191.5 777.267,-195 777.267,-188"/>
</g>
</g>
</svg>
