<?xml version="1.0" encoding="UTF-8" standalone="no"?>
<!DOCTYPE svg PUBLIC "-//W3C//DTD SVG 1.1//EN"
 "http://www.w3.org/Graphics/SVG/1.1/DTD/svg11.dtd">
<!-- Generated by graphviz version 2.38.0 (20140413.2041)
 -->
<!-- Title: RoR::GUIManager::GetImGui Pages: 1 -->
<svg width="1082pt" height="318pt"
 viewBox="0.00 0.00 1082.00 317.50" xmlns="http://www.w3.org/2000/svg" xmlns:xlink="http://www.w3.org/1999/xlink">
<g id="graph0" class="graph" transform="scale(1 1) rotate(0) translate(4 313.5)">
<title>RoR::GUIManager::GetImGui</title>
<polygon fill="white" stroke="none" points="-4,4 -4,-313.5 1078,-313.5 1078,4 -4,4"/>
<!-- Node858 -->
<g id="node1" class="node"><title>Node858</title>
<polygon fill="#bfbfbf" stroke="black" points="0,-145 0,-164 143,-164 143,-145 0,-145"/>
<text text-anchor="middle" x="71.5" y="-152" font-family="Helvetica,sans-Serif" font-size="10.00">RoR::GUIManager::GetImGui</text>
</g>
<!-- Node859 -->
<g id="node2" class="node"><title>Node859</title>
<g id="a_node2"><a xlink:href="../../dd/dbe/class_ro_r_frame_listener.html#acdda0026f9324c3b7f48568624e07115" target="_top" xlink:title="RoRFrameListener::frameStarted">
<polygon fill="white" stroke="black" points="185,-290 185,-309 344,-309 344,-290 185,-290"/>
<text text-anchor="middle" x="264.5" y="-297" font-family="Helvetica,sans-Serif" font-size="10.00">RoRFrameListener::frameStarted</text>
</a>
</g>
</g>
<!-- Node858&#45;&gt;Node859 -->
<g id="edge1" class="edge"><title>Node858&#45;&gt;Node859</title>
<path fill="none" stroke="midnightblue" d="M82.747,-173C99.216,-200.91 134.308,-253.398 179,-280.5 185.429,-284.398 192.569,-287.499 199.899,-289.964"/>
<polygon fill="midnightblue" stroke="midnightblue" points="85.7283,-171.163 77.7132,-164.234 79.6581,-174.649 85.7283,-171.163"/>
</g>
<!-- Node860 -->
<g id="node3" class="node"><title>Node860</title>
<g id="a_node3"><a xlink:href="../../dd/dbe/class_ro_r_frame_listener.html#afe0178bbe92be1bb672f05c1481b1db1" target="_top" xlink:title="RoRFrameListener::frameRendering\lQueued">
<polygon fill="white" stroke="black" points="179,-240.5 179,-270.5 350,-270.5 350,-240.5 179,-240.5"/>
<text text-anchor="start" x="187" y="-258.5" font-family="Helvetica,sans-Serif" font-size="10.00">RoRFrameListener::frameRendering</text>
<text text-anchor="middle" x="264.5" y="-247.5" font-family="Helvetica,sans-Serif" font-size="10.00">Queued</text>
</a>
</g>
</g>
<!-- Node858&#45;&gt;Node860 -->
<g id="edge2" class="edge"><title>Node858&#45;&gt;Node860</title>
<path fill="none" stroke="midnightblue" d="M91.0441,-170.682C111.383,-187.695 145.594,-214.209 179,-230.5 186.7,-234.255 195.075,-237.564 203.461,-240.441"/>
<polygon fill="midnightblue" stroke="midnightblue" points="93.1052,-167.84 83.2194,-164.03 88.5712,-173.173 93.1052,-167.84"/>
</g>
<!-- Node861 -->
<g id="node4" class="node"><title>Node861</title>
<g id="a_node4"><a xlink:href="../../db/df1/class_g_u_i_input_manager.html#a2f52a8c0b01fca8c55a954bdb7d2ab79" target="_top" xlink:title="GUIInputManager::mouseMoved">
<polygon fill="white" stroke="black" points="187,-202 187,-221 342,-221 342,-202 187,-202"/>
<text text-anchor="middle" x="264.5" y="-209" font-family="Helvetica,sans-Serif" font-size="10.00">GUIInputManager::mouseMoved</text>
</a>
</g>
</g>
<!-- Node858&#45;&gt;Node861 -->
<g id="edge3" class="edge"><title>Node858&#45;&gt;Node861</title>
<path fill="none" stroke="midnightblue" d="M106.106,-167.675C126.898,-175.529 154.257,-185.333 179,-192.5 190.987,-195.972 204.084,-199.19 216.311,-201.954"/>
<polygon fill="midnightblue" stroke="midnightblue" points="107.349,-164.403 96.7582,-164.108 104.854,-170.943 107.349,-164.403"/>
</g>
<!-- Node866 -->
<g id="node9" class="node"><title>Node866</title>
<g id="a_node9"><a xlink:href="../../db/df1/class_g_u_i_input_manager.html#a2e10c3db1bd7068fc87476ce1cceb7c6" target="_top" xlink:title="GUIInputManager::mousePressed">
<polygon fill="white" stroke="black" points="183,-164 183,-183 346,-183 346,-164 183,-164"/>
<text text-anchor="middle" x="264.5" y="-171" font-family="Helvetica,sans-Serif" font-size="10.00">GUIInputManager::mousePressed</text>
</a>
</g>
</g>
<!-- Node858&#45;&gt;Node866 -->
<g id="edge8" class="edge"><title>Node858&#45;&gt;Node866</title>
<path fill="none" stroke="midnightblue" d="M153.219,-162.53C163.042,-163.507 173.078,-164.505 182.899,-165.482"/>
<polygon fill="midnightblue" stroke="midnightblue" points="153.376,-159.028 143.079,-161.521 152.683,-165.994 153.376,-159.028"/>
</g>
<!-- Node867 -->
<g id="node10" class="node"><title>Node867</title>
<g id="a_node10"><a xlink:href="../../db/df1/class_g_u_i_input_manager.html#a5f096906671c8b2fc404353cb0cc3cf4" target="_top" xlink:title="GUIInputManager::mouseReleased">
<polygon fill="white" stroke="black" points="181,-126 181,-145 348,-145 348,-126 181,-126"/>
<text text-anchor="middle" x="264.5" y="-133" font-family="Helvetica,sans-Serif" font-size="10.00">GUIInputManager::mouseReleased</text>
</a>
</g>
</g>
<!-- Node858&#45;&gt;Node867 -->
<g id="edge10" class="edge"><title>Node858&#45;&gt;Node867</title>
<path fill="none" stroke="midnightblue" d="M153.306,-146.462C162.45,-145.552 171.778,-144.624 180.944,-143.712"/>
<polygon fill="midnightblue" stroke="midnightblue" points="152.683,-143.006 143.079,-147.479 153.376,-149.972 152.683,-143.006"/>
</g>
<!-- Node868 -->
<g id="node11" class="node"><title>Node868</title>
<g id="a_node11"><a xlink:href="../../db/df1/class_g_u_i_input_manager.html#a4c3aeb879697d033b9c34fb3500fa1d5" target="_top" xlink:title="GUIInputManager::keyPressed">
<polygon fill="white" stroke="black" points="190,-88 190,-107 339,-107 339,-88 190,-88"/>
<text text-anchor="middle" x="264.5" y="-95" font-family="Helvetica,sans-Serif" font-size="10.00">GUIInputManager::keyPressed</text>
</a>
</g>
</g>
<!-- Node858&#45;&gt;Node868 -->
<g id="edge12" class="edge"><title>Node858&#45;&gt;Node868</title>
<path fill="none" stroke="midnightblue" d="M106.106,-141.325C126.898,-133.471 154.257,-123.667 179,-116.5 190.987,-113.028 204.084,-109.81 216.311,-107.046"/>
<polygon fill="midnightblue" stroke="midnightblue" points="104.854,-138.057 96.7582,-144.892 107.349,-144.597 104.854,-138.057"/>
</g>
<!-- Node869 -->
<g id="node12" class="node"><title>Node869</title>
<g id="a_node12"><a xlink:href="../../db/df1/class_g_u_i_input_manager.html#af91b81999edcbd65c317f0b5912e19b0" target="_top" xlink:title="GUIInputManager::keyReleased">
<polygon fill="white" stroke="black" points="187.5,-50 187.5,-69 341.5,-69 341.5,-50 187.5,-50"/>
<text text-anchor="middle" x="264.5" y="-57" font-family="Helvetica,sans-Serif" font-size="10.00">GUIInputManager::keyReleased</text>
</a>
</g>
</g>
<!-- Node858&#45;&gt;Node869 -->
<g id="edge14" class="edge"><title>Node858&#45;&gt;Node869</title>
<path fill="none" stroke="midnightblue" d="M90.5175,-138.159C110.642,-120.784 144.889,-93.753 179,-78.5 187.648,-74.6331 197.157,-71.5187 206.579,-69.0207"/>
<polygon fill="midnightblue" stroke="midnightblue" points="87.9939,-135.718 82.7992,-144.952 92.6184,-140.972 87.9939,-135.718"/>
</g>
<!-- Node870 -->
<g id="node13" class="node"><title>Node870</title>
<g id="a_node13"><a xlink:href="../../d4/d14/class_ro_r_1_1_main_menu.html#a9d08aa66f66200f63ea0dd239ece665b" target="_top" xlink:title="RoR::MainMenu::frameRendering\lQueued">
<polygon fill="white" stroke="black" points="184.5,-0.5 184.5,-30.5 344.5,-30.5 344.5,-0.5 184.5,-0.5"/>
<text text-anchor="start" x="192.5" y="-18.5" font-family="Helvetica,sans-Serif" font-size="10.00">RoR::MainMenu::frameRendering</text>
<text text-anchor="middle" x="264.5" y="-7.5" font-family="Helvetica,sans-Serif" font-size="10.00">Queued</text>
</a>
</g>
</g>
<!-- Node858&#45;&gt;Node870 -->
<g id="edge16" class="edge"><title>Node858&#45;&gt;Node870</title>
<path fill="none" stroke="midnightblue" d="M84.4109,-136.687C102.116,-111.575 137.754,-65.9884 179,-40.5 185.247,-36.6397 192.122,-33.348 199.17,-30.5476"/>
<polygon fill="midnightblue" stroke="midnightblue" points="81.5172,-134.718 78.7223,-144.938 87.2802,-138.692 81.5172,-134.718"/>
</g>
<!-- Node862 -->
<g id="node5" class="node"><title>Node862</title>
<g id="a_node5"><a xlink:href="../../db/df1/class_g_u_i_input_manager.html#ab59361b8e1a9e31e53b5e5523f2b4801" target="_top" xlink:title="GUIInputManager::getLast\lMouseMoveTime">
<polygon fill="white" stroke="black" points="386,-120.5 386,-150.5 516,-150.5 516,-120.5 386,-120.5"/>
<text text-anchor="start" x="394" y="-138.5" font-family="Helvetica,sans-Serif" font-size="10.00">GUIInputManager::getLast</text>
<text text-anchor="middle" x="451" y="-127.5" font-family="Helvetica,sans-Serif" font-size="10.00">MouseMoveTime</text>
</a>
</g>
</g>
<!-- Node861&#45;&gt;Node862 -->
<g id="edge4" class="edge"><title>Node861&#45;&gt;Node862</title>
<path fill="none" stroke="midnightblue" d="M329.127,-199.346C336.261,-197.351 343.349,-195.077 350,-192.5 378.323,-181.527 408.267,-163.49 427.921,-150.645"/>
<polygon fill="midnightblue" stroke="midnightblue" points="328.191,-195.973 319.407,-201.897 329.968,-202.744 328.191,-195.973"/>
</g>
<!-- Node863 -->
<g id="node6" class="node"><title>Node863</title>
<g id="a_node6"><a xlink:href="../../d8/d11/class_ro_r_1_1_g_u_i_manager.html#aae1570a62049085aa74ce274ac9a70ad" target="_top" xlink:title="RoR::GUIManager::frameStarted">
<polygon fill="white" stroke="black" points="552,-126 552,-145 709,-145 709,-126 552,-126"/>
<text text-anchor="middle" x="630.5" y="-133" font-family="Helvetica,sans-Serif" font-size="10.00">RoR::GUIManager::frameStarted</text>
</a>
</g>
</g>
<!-- Node862&#45;&gt;Node863 -->
<g id="edge5" class="edge"><title>Node862&#45;&gt;Node863</title>
<path fill="none" stroke="midnightblue" d="M526.289,-135.5C534.748,-135.5 543.387,-135.5 551.888,-135.5"/>
<polygon fill="midnightblue" stroke="midnightblue" points="526.082,-132 516.082,-135.5 526.082,-139 526.082,-132"/>
</g>
<!-- Node864 -->
<g id="node7" class="node"><title>Node864</title>
<g id="a_node7"><a xlink:href="../../d8/d11/class_ro_r_1_1_g_u_i_manager.html#a4ab273bd0538649818c84b38e8a06100" target="_top" xlink:title="RoR::GUIManager::GetTheme">
<polygon fill="white" stroke="black" points="745,-126 745,-145 891,-145 891,-126 745,-126"/>
<text text-anchor="middle" x="818" y="-133" font-family="Helvetica,sans-Serif" font-size="10.00">RoR::GUIManager::GetTheme</text>
</a>
</g>
</g>
<!-- Node863&#45;&gt;Node864 -->
<g id="edge6" class="edge"><title>Node863&#45;&gt;Node864</title>
<path fill="none" stroke="midnightblue" d="M719.125,-135.5C727.707,-135.5 736.349,-135.5 744.754,-135.5"/>
<polygon fill="midnightblue" stroke="midnightblue" points="719.094,-132 709.094,-135.5 719.094,-139 719.094,-132"/>
</g>
<!-- Node865 -->
<g id="node8" class="node"><title>Node865</title>
<g id="a_node8"><a xlink:href="../../d4/d8f/class_ro_r_1_1_g_u_i_1_1_multiplayer_selector.html#a8c98e9ba03c8afb1d1a26ec06192862e" target="_top" xlink:title="RoR::GUI::MultiplayerSelector\l::~MultiplayerSelector">
<polygon fill="white" stroke="black" points="927,-120.5 927,-150.5 1074,-150.5 1074,-120.5 927,-120.5"/>
<text text-anchor="start" x="935" y="-138.5" font-family="Helvetica,sans-Serif" font-size="10.00">RoR::GUI::MultiplayerSelector</text>
<text text-anchor="middle" x="1000.5" y="-127.5" font-family="Helvetica,sans-Serif" font-size="10.00">::~MultiplayerSelector</text>
</a>
</g>
</g>
<!-- Node864&#45;&gt;Node865 -->
<g id="edge7" class="edge"><title>Node864&#45;&gt;Node865</title>
<path fill="none" stroke="midnightblue" d="M901.142,-135.5C909.737,-135.5 918.431,-135.5 926.909,-135.5"/>
<polygon fill="midnightblue" stroke="midnightblue" points="901.117,-132 891.117,-135.5 901.117,-139 901.117,-132"/>
</g>
<!-- Node866&#45;&gt;Node862 -->
<g id="edge9" class="edge"><title>Node866&#45;&gt;Node862</title>
<path fill="none" stroke="midnightblue" d="M322.007,-161.862C342.137,-157.716 364.953,-153.016 385.689,-148.746"/>
<polygon fill="midnightblue" stroke="midnightblue" points="321.145,-158.466 312.057,-163.911 322.558,-165.322 321.145,-158.466"/>
</g>
<!-- Node867&#45;&gt;Node862 -->
<g id="edge11" class="edge"><title>Node867&#45;&gt;Node862</title>
<path fill="none" stroke="midnightblue" d="M358.163,-135.5C367.51,-135.5 376.851,-135.5 385.803,-135.5"/>
<polygon fill="midnightblue" stroke="midnightblue" points="358.037,-132 348.037,-135.5 358.037,-139 358.037,-132"/>
</g>
<!-- Node868&#45;&gt;Node862 -->
<g id="edge13" class="edge"><title>Node868&#45;&gt;Node862</title>
<path fill="none" stroke="midnightblue" d="M322.007,-109.138C342.137,-113.284 364.953,-117.984 385.689,-122.254"/>
<polygon fill="midnightblue" stroke="midnightblue" points="322.558,-105.678 312.057,-107.089 321.145,-112.534 322.558,-105.678"/>
</g>
<!-- Node869&#45;&gt;Node862 -->
<g id="edge15" class="edge"><title>Node869&#45;&gt;Node862</title>
<path fill="none" stroke="midnightblue" d="M329.127,-71.6536C336.261,-73.6489 343.349,-75.9232 350,-78.5 378.323,-89.4732 408.267,-107.51 427.921,-120.355"/>
<polygon fill="midnightblue" stroke="midnightblue" points="329.968,-68.2557 319.407,-69.1033 328.191,-75.0265 329.968,-68.2557"/>
</g>
</g>
</svg>
