<?xml version="1.0" encoding="UTF-8" standalone="no"?>
<!DOCTYPE svg PUBLIC "-//W3C//DTD SVG 1.1//EN"
 "http://www.w3.org/Graphics/SVG/1.1/DTD/svg11.dtd">
<!-- Generated by graphviz version 2.38.0 (20140413.2041)
 -->
<!-- Title: RoR::GUIManager::IsVisible_GamePauseMenu Pages: 1 -->
<svg width="324pt" height="39pt"
 viewBox="0.00 0.00 324.00 39.00" xmlns="http://www.w3.org/2000/svg" xmlns:xlink="http://www.w3.org/1999/xlink">
<g id="graph0" class="graph" transform="scale(1 1) rotate(0) translate(4 35)">
<title>RoR::GUIManager::IsVisible_GamePauseMenu</title>
<polygon fill="white" stroke="none" points="-4,4 -4,-35 320,-35 320,4 -4,4"/>
<!-- Node1214 -->
<g id="node1" class="node"><title>Node1214</title>
<polygon fill="#bfbfbf" stroke="black" points="0,-0.5 0,-30.5 138,-30.5 138,-0.5 0,-0.5"/>
<text text-anchor="start" x="8" y="-18.5" font-family="Helvetica,sans-Serif" font-size="10.00">RoR::GUIManager::IsVisible</text>
<text text-anchor="middle" x="69" y="-7.5" font-family="Helvetica,sans-Serif" font-size="10.00">_GamePauseMenu</text>
</g>
<!-- Node1215 -->
<g id="node2" class="node"><title>Node1215</title>
<g id="a_node2"><a xlink:href="../../d9/dda/class_ro_r_1_1_g_u_i_1_1_game_pause_menu.html#aa1db693209cb559ba58157c4e272f1af" target="_top" xlink:title="RoR::GUI::GamePauseMenu\l::IsVisible">
<polygon fill="white" stroke="black" points="174,-0.5 174,-30.5 316,-30.5 316,-0.5 174,-0.5"/>
<text text-anchor="start" x="182" y="-18.5" font-family="Helvetica,sans-Serif" font-size="10.00">RoR::GUI::GamePauseMenu</text>
<text text-anchor="middle" x="245" y="-7.5" font-family="Helvetica,sans-Serif" font-size="10.00">::IsVisible</text>
</a>
</g>
</g>
<!-- Node1214&#45;&gt;Node1215 -->
<g id="edge1" class="edge"><title>Node1214&#45;&gt;Node1215</title>
<path fill="none" stroke="midnightblue" d="M138.27,-15.5C146.687,-15.5 155.35,-15.5 163.922,-15.5"/>
<polygon fill="midnightblue" stroke="midnightblue" points="163.924,-19.0001 173.924,-15.5 163.924,-12.0001 163.924,-19.0001"/>
</g>
</g>
</svg>
