<?xml version="1.0" encoding="UTF-8" standalone="no"?>
<!DOCTYPE svg PUBLIC "-//W3C//DTD SVG 1.1//EN"
 "http://www.w3.org/Graphics/SVG/1.1/DTD/svg11.dtd">
<!-- Generated by graphviz version 2.38.0 (20140413.2041)
 -->
<!-- Title: RoR::GUIManager::eventRequestTag Pages: 1 -->
<svg width="558pt" height="72pt"
 viewBox="0.00 0.00 558.00 71.50" xmlns="http://www.w3.org/2000/svg" xmlns:xlink="http://www.w3.org/1999/xlink">
<g id="graph0" class="graph" transform="scale(1 1) rotate(0) translate(4 67.5)">
<title>RoR::GUIManager::eventRequestTag</title>
<polygon fill="white" stroke="none" points="-4,4 -4,-67.5 554,-67.5 554,4 -4,4"/>
<!-- Node564 -->
<g id="node1" class="node"><title>Node564</title>
<polygon fill="#bfbfbf" stroke="black" points="0,-25 0,-44 176,-44 176,-25 0,-25"/>
<text text-anchor="middle" x="88" y="-32" font-family="Helvetica,sans-Serif" font-size="10.00">RoR::GUIManager::eventRequestTag</text>
</g>
<!-- Node565 -->
<g id="node2" class="node"><title>Node565</title>
<g id="a_node2"><a xlink:href="../../d8/d11/class_ro_r_1_1_g_u_i_manager.html#a35dc350dea57ef0356030eb1b47485b5" target="_top" xlink:title="RoR::GUIManager::GUIManager">
<polygon fill="white" stroke="black" points="212,-44 212,-63 367,-63 367,-44 212,-44"/>
<text text-anchor="middle" x="289.5" y="-51" font-family="Helvetica,sans-Serif" font-size="10.00">RoR::GUIManager::GUIManager</text>
</a>
</g>
</g>
<!-- Node564&#45;&gt;Node565 -->
<g id="edge1" class="edge"><title>Node564&#45;&gt;Node565</title>
<path fill="none" stroke="midnightblue" d="M186.252,-43.7621C194.825,-44.5786 203.424,-45.3975 211.793,-46.1946"/>
<polygon fill="midnightblue" stroke="midnightblue" points="186.5,-40.27 176.213,-42.806 185.836,-47.2385 186.5,-40.27"/>
</g>
<!-- Node566 -->
<g id="node3" class="node"><title>Node566</title>
<g id="a_node3"><a xlink:href="../../d8/d11/class_ro_r_1_1_g_u_i_manager.html#a4ab273bd0538649818c84b38e8a06100" target="_top" xlink:title="RoR::GUIManager::GetTheme">
<polygon fill="white" stroke="black" points="216.5,-6 216.5,-25 362.5,-25 362.5,-6 216.5,-6"/>
<text text-anchor="middle" x="289.5" y="-13" font-family="Helvetica,sans-Serif" font-size="10.00">RoR::GUIManager::GetTheme</text>
</a>
</g>
</g>
<!-- Node564&#45;&gt;Node566 -->
<g id="edge2" class="edge"><title>Node564&#45;&gt;Node566</title>
<path fill="none" stroke="midnightblue" d="M186.321,-25.2313C196.455,-24.2662 206.623,-23.2978 216.405,-22.3662"/>
<polygon fill="midnightblue" stroke="midnightblue" points="185.836,-21.7615 176.213,-26.194 186.5,-28.73 185.836,-21.7615"/>
</g>
<!-- Node567 -->
<g id="node4" class="node"><title>Node567</title>
<g id="a_node4"><a xlink:href="../../d4/d8f/class_ro_r_1_1_g_u_i_1_1_multiplayer_selector.html#a8c98e9ba03c8afb1d1a26ec06192862e" target="_top" xlink:title="RoR::GUI::MultiplayerSelector\l::~MultiplayerSelector">
<polygon fill="white" stroke="black" points="403,-0.5 403,-30.5 550,-30.5 550,-0.5 403,-0.5"/>
<text text-anchor="start" x="411" y="-18.5" font-family="Helvetica,sans-Serif" font-size="10.00">RoR::GUI::MultiplayerSelector</text>
<text text-anchor="middle" x="476.5" y="-7.5" font-family="Helvetica,sans-Serif" font-size="10.00">::~MultiplayerSelector</text>
</a>
</g>
</g>
<!-- Node566&#45;&gt;Node567 -->
<g id="edge3" class="edge"><title>Node566&#45;&gt;Node567</title>
<path fill="none" stroke="midnightblue" d="M372.853,-15.5C382.809,-15.5 392.923,-15.5 402.727,-15.5"/>
<polygon fill="midnightblue" stroke="midnightblue" points="372.556,-12.0001 362.556,-15.5 372.556,-19.0001 372.556,-12.0001"/>
</g>
</g>
</svg>
