<?xml version="1.0" encoding="UTF-8" standalone="no"?>
<!DOCTYPE svg PUBLIC "-//W3C//DTD SVG 1.1//EN"
 "http://www.w3.org/Graphics/SVG/1.1/DTD/svg11.dtd">
<!-- Generated by graphviz version 2.38.0 (20140413.2041)
 -->
<!-- Title: RoR::GUIManager::NewImGuiFrame Pages: 1 -->
<svg width="514pt" height="78pt"
 viewBox="0.00 0.00 514.00 77.50" xmlns="http://www.w3.org/2000/svg" xmlns:xlink="http://www.w3.org/1999/xlink">
<g id="graph0" class="graph" transform="scale(1 1) rotate(0) translate(4 73.5)">
<title>RoR::GUIManager::NewImGuiFrame</title>
<polygon fill="white" stroke="none" points="-4,4 -4,-73.5 510,-73.5 510,4 -4,4"/>
<!-- Node1486 -->
<g id="node1" class="node"><title>Node1486</title>
<polygon fill="#bfbfbf" stroke="black" points="0,-22.5 0,-52.5 146,-52.5 146,-22.5 0,-22.5"/>
<text text-anchor="start" x="8" y="-40.5" font-family="Helvetica,sans-Serif" font-size="10.00">RoR::GUIManager::NewImGui</text>
<text text-anchor="middle" x="73" y="-29.5" font-family="Helvetica,sans-Serif" font-size="10.00">Frame</text>
</g>
<!-- Node1487 -->
<g id="node2" class="node"><title>Node1487</title>
<g id="a_node2"><a xlink:href="../../dd/dbe/class_ro_r_frame_listener.html#acdda0026f9324c3b7f48568624e07115" target="_top" xlink:title="RoRFrameListener::frameStarted">
<polygon fill="white" stroke="black" points="182,-50 182,-69 341,-69 341,-50 182,-50"/>
<text text-anchor="middle" x="261.5" y="-57" font-family="Helvetica,sans-Serif" font-size="10.00">RoRFrameListener::frameStarted</text>
</a>
</g>
</g>
<!-- Node1486&#45;&gt;Node1487 -->
<g id="edge1" class="edge"><title>Node1486&#45;&gt;Node1487</title>
<path fill="none" stroke="midnightblue" d="M156.059,-47.1798C164.602,-48.1876 173.272,-49.2104 181.777,-50.2136"/>
<polygon fill="midnightblue" stroke="midnightblue" points="156.447,-43.7015 146.106,-46.0058 155.627,-50.6533 156.447,-43.7015"/>
</g>
<!-- Node1488 -->
<g id="node3" class="node"><title>Node1488</title>
<g id="a_node3"><a xlink:href="../../d4/d14/class_ro_r_1_1_main_menu.html#a582e508f1bb1578d1124260de49e438b" target="_top" xlink:title="RoR::MainMenu::EnterMain\lMenuLoop">
<polygon fill="white" stroke="black" points="193,-0.5 193,-30.5 330,-30.5 330,-0.5 193,-0.5"/>
<text text-anchor="start" x="201" y="-18.5" font-family="Helvetica,sans-Serif" font-size="10.00">RoR::MainMenu::EnterMain</text>
<text text-anchor="middle" x="261.5" y="-7.5" font-family="Helvetica,sans-Serif" font-size="10.00">MenuLoop</text>
</a>
</g>
</g>
<!-- Node1486&#45;&gt;Node1488 -->
<g id="edge2" class="edge"><title>Node1486&#45;&gt;Node1488</title>
<path fill="none" stroke="midnightblue" d="M156.293,-27.7925C168.515,-26.3508 180.991,-24.8791 192.866,-23.4782"/>
<polygon fill="midnightblue" stroke="midnightblue" points="155.627,-24.3467 146.106,-28.9942 156.447,-31.2985 155.627,-24.3467"/>
</g>
<!-- Node1489 -->
<g id="node4" class="node"><title>Node1489</title>
<g id="a_node4"><a xlink:href="../../df/d0a/main_8cpp.html#a0ddf1224851353fc92bfbff6f499fa97" target="_top" xlink:title="main">
<polygon fill="white" stroke="black" points="377,-6 377,-25 415,-25 415,-6 377,-6"/>
<text text-anchor="middle" x="396" y="-13" font-family="Helvetica,sans-Serif" font-size="10.00">main</text>
</a>
</g>
</g>
<!-- Node1488&#45;&gt;Node1489 -->
<g id="edge3" class="edge"><title>Node1488&#45;&gt;Node1489</title>
<path fill="none" stroke="midnightblue" d="M340.325,-15.5C353.972,-15.5 366.944,-15.5 376.824,-15.5"/>
<polygon fill="midnightblue" stroke="midnightblue" points="340.303,-12.0001 330.303,-15.5 340.303,-19.0001 340.303,-12.0001"/>
</g>
<!-- Node1490 -->
<g id="node5" class="node"><title>Node1490</title>
<g id="a_node5"><a xlink:href="../../df/d0a/main_8cpp.html#a2922bc5d5c2d77a3020cfbf9df12aab0" target="_top" xlink:title="WinMain">
<polygon fill="white" stroke="black" points="451,-6 451,-25 506,-25 506,-6 451,-6"/>
<text text-anchor="middle" x="478.5" y="-13" font-family="Helvetica,sans-Serif" font-size="10.00">WinMain</text>
</a>
</g>
</g>
<!-- Node1489&#45;&gt;Node1490 -->
<g id="edge4" class="edge"><title>Node1489&#45;&gt;Node1490</title>
<path fill="none" stroke="midnightblue" d="M425.519,-15.5C433.73,-15.5 442.653,-15.5 450.752,-15.5"/>
<polygon fill="midnightblue" stroke="midnightblue" points="425.267,-12.0001 415.267,-15.5 425.267,-19.0001 425.267,-12.0001"/>
</g>
</g>
</svg>
