<?xml version="1.0" encoding="UTF-8" standalone="no"?>
<!DOCTYPE svg PUBLIC "-//W3C//DTD SVG 1.1//EN"
 "http://www.w3.org/Graphics/SVG/1.1/DTD/svg11.dtd">
<!-- Generated by graphviz version 2.38.0 (20140413.2041)
 -->
<!-- Title: RoRConfigApp::CheckAndPrepareUserDirectory Pages: 1 -->
<svg width="290pt" height="104pt"
 viewBox="0.00 0.00 290.00 104.00" xmlns="http://www.w3.org/2000/svg" xmlns:xlink="http://www.w3.org/1999/xlink">
<g id="graph0" class="graph" transform="scale(1 1) rotate(0) translate(4 100)">
<title>RoRConfigApp::CheckAndPrepareUserDirectory</title>
<polygon fill="white" stroke="none" points="-4,4 -4,-100 286,-100 286,4 -4,4"/>
<!-- Node0 -->
<g id="node1" class="node"><title>Node0</title>
<polygon fill="#bfbfbf" stroke="black" points="0,-33 0,-63 164,-63 164,-33 0,-33"/>
<text text-anchor="start" x="8" y="-51" font-family="Helvetica,sans-Serif" font-size="10.00">RoRConfigApp::CheckAndPrepare</text>
<text text-anchor="middle" x="82" y="-40" font-family="Helvetica,sans-Serif" font-size="10.00">UserDirectory</text>
</g>
<!-- Node1 -->
<g id="node2" class="node"><title>Node1</title>
<g id="a_node2"><a xlink:href="../../d0/d31/conf__file_8cpp.html#a90c833708cf01165349a2dc66bed99f1" target="_top" xlink:title="FileExists">
<polygon fill="white" stroke="black" points="211,-76.5 211,-95.5 271,-95.5 271,-76.5 211,-76.5"/>
<text text-anchor="middle" x="241" y="-83.5" font-family="Helvetica,sans-Serif" font-size="10.00">FileExists</text>
</a>
</g>
</g>
<!-- Node0&#45;&gt;Node1 -->
<g id="edge1" class="edge"><title>Node0&#45;&gt;Node1</title>
<path fill="none" stroke="midnightblue" d="M145.051,-63.0186C163.789,-67.5541 183.837,-72.4064 200.66,-76.4781"/>
<polygon fill="midnightblue" stroke="midnightblue" points="200.134,-79.9519 210.677,-78.9026 201.781,-73.1483 200.134,-79.9519"/>
</g>
<!-- Node2 -->
<g id="node3" class="node"><title>Node2</title>
<g id="a_node3"><a xlink:href="../../d8/d18/namespace_profiler.html#af79bb59414ef3ba134213bb6f2f2d292" target="_top" xlink:title="Profiler::exit">
<polygon fill="white" stroke="black" points="207,-38.5 207,-57.5 275,-57.5 275,-38.5 207,-38.5"/>
<text text-anchor="middle" x="241" y="-45.5" font-family="Helvetica,sans-Serif" font-size="10.00">Profiler::exit</text>
</a>
</g>
</g>
<!-- Node0&#45;&gt;Node2 -->
<g id="edge2" class="edge"><title>Node0&#45;&gt;Node2</title>
<path fill="none" stroke="midnightblue" d="M164.259,-48C175.477,-48 186.619,-48 196.768,-48"/>
<polygon fill="midnightblue" stroke="midnightblue" points="196.947,-51.5001 206.947,-48 196.947,-44.5001 196.947,-51.5001"/>
</g>
<!-- Node3 -->
<g id="node4" class="node"><title>Node3</title>
<g id="a_node4"><a xlink:href="../../d2/dde/_ro_r_config_8h.html#a0abe637bc5df2da6033c770764a9c02f" target="_top" xlink:title="ExtractZipFiles">
<polygon fill="white" stroke="black" points="200,-0.5 200,-19.5 282,-19.5 282,-0.5 200,-0.5"/>
<text text-anchor="middle" x="241" y="-7.5" font-family="Helvetica,sans-Serif" font-size="10.00">ExtractZipFiles</text>
</a>
</g>
</g>
<!-- Node0&#45;&gt;Node3 -->
<g id="edge3" class="edge"><title>Node0&#45;&gt;Node3</title>
<path fill="none" stroke="midnightblue" d="M145.051,-32.9814C160.232,-29.3069 176.273,-25.4243 190.762,-21.9174"/>
<polygon fill="midnightblue" stroke="midnightblue" points="191.619,-25.3111 200.515,-19.5568 189.973,-18.5076 191.619,-25.3111"/>
</g>
</g>
</svg>
