<?xml version="1.0" encoding="UTF-8" standalone="no"?>
<!DOCTYPE svg PUBLIC "-//W3C//DTD SVG 1.1//EN"
 "http://www.w3.org/Graphics/SVG/1.1/DTD/svg11.dtd">
<!-- Generated by graphviz version 2.38.0 (20140413.2041)
 -->
<!-- Title: Autopilot::toggleGPWS Pages: 1 -->
<svg width="1435pt" height="104pt"
 viewBox="0.00 0.00 1435.00 104.00" xmlns="http://www.w3.org/2000/svg" xmlns:xlink="http://www.w3.org/1999/xlink">
<g id="graph0" class="graph" transform="scale(1 1) rotate(0) translate(4 100)">
<title>Autopilot::toggleGPWS</title>
<polygon fill="white" stroke="none" points="-4,4 -4,-100 1431,-100 1431,4 -4,4"/>
<!-- Node99 -->
<g id="node1" class="node"><title>Node99</title>
<polygon fill="#bfbfbf" stroke="black" points="0,-38.5 0,-57.5 118,-57.5 118,-38.5 0,-38.5"/>
<text text-anchor="middle" x="59" y="-45.5" font-family="Helvetica,sans-Serif" font-size="10.00">Autopilot::toggleGPWS</text>
</g>
<!-- Node100 -->
<g id="node2" class="node"><title>Node100</title>
<g id="a_node2"><a xlink:href="../../df/d47/class_overlay_wrapper.html#a7059a60d3d3e067be79c66247298b56b" target="_top" xlink:title="OverlayWrapper::mouseMoved">
<polygon fill="white" stroke="black" points="154,-38.5 154,-57.5 303,-57.5 303,-38.5 154,-38.5"/>
<text text-anchor="middle" x="228.5" y="-45.5" font-family="Helvetica,sans-Serif" font-size="10.00">OverlayWrapper::mouseMoved</text>
</a>
</g>
</g>
<!-- Node99&#45;&gt;Node100 -->
<g id="edge1" class="edge"><title>Node99&#45;&gt;Node100</title>
<path fill="none" stroke="midnightblue" d="M128.266,-48C136.697,-48 145.344,-48 153.851,-48"/>
<polygon fill="midnightblue" stroke="midnightblue" points="128.113,-44.5001 118.113,-48 128.113,-51.5001 128.113,-44.5001"/>
</g>
<!-- Node101 -->
<g id="node3" class="node"><title>Node101</title>
<g id="a_node3"><a xlink:href="../../db/df1/class_g_u_i_input_manager.html#a2f52a8c0b01fca8c55a954bdb7d2ab79" target="_top" xlink:title="GUIInputManager::mouseMoved">
<polygon fill="white" stroke="black" points="542,-76.5 542,-95.5 697,-95.5 697,-76.5 542,-76.5"/>
<text text-anchor="middle" x="619.5" y="-83.5" font-family="Helvetica,sans-Serif" font-size="10.00">GUIInputManager::mouseMoved</text>
</a>
</g>
</g>
<!-- Node100&#45;&gt;Node101 -->
<g id="edge2" class="edge"><title>Node100&#45;&gt;Node101</title>
<path fill="none" stroke="midnightblue" d="M287.893,-59.2892C304.369,-62.159 322.343,-64.9942 339,-67 407.327,-75.2277 485.512,-80.1647 541.783,-82.9351"/>
<polygon fill="midnightblue" stroke="midnightblue" points="288.312,-55.8089 277.854,-57.505 287.087,-62.7009 288.312,-55.8089"/>
</g>
<!-- Node106 -->
<g id="node8" class="node"><title>Node106</title>
<g id="a_node8"><a xlink:href="../../df/d47/class_overlay_wrapper.html#aa0172aafc9f55e431f19a57a0f39da7b" target="_top" xlink:title="OverlayWrapper::mousePressed">
<polygon fill="white" stroke="black" points="341,-38.5 341,-57.5 498,-57.5 498,-38.5 341,-38.5"/>
<text text-anchor="middle" x="419.5" y="-45.5" font-family="Helvetica,sans-Serif" font-size="10.00">OverlayWrapper::mousePressed</text>
</a>
</g>
</g>
<!-- Node100&#45;&gt;Node106 -->
<g id="edge7" class="edge"><title>Node100&#45;&gt;Node106</title>
<path fill="none" stroke="midnightblue" d="M313.325,-48C322.436,-48 331.682,-48 340.717,-48"/>
<polygon fill="midnightblue" stroke="midnightblue" points="313.114,-44.5001 303.114,-48 313.113,-51.5001 313.114,-44.5001"/>
</g>
<!-- Node108 -->
<g id="node10" class="node"><title>Node108</title>
<g id="a_node10"><a xlink:href="../../df/d47/class_overlay_wrapper.html#a813c49ce923d19067d0a656c0d79c610" target="_top" xlink:title="OverlayWrapper::mouseReleased">
<polygon fill="white" stroke="black" points="339,-0.5 339,-19.5 500,-19.5 500,-0.5 339,-0.5"/>
<text text-anchor="middle" x="419.5" y="-7.5" font-family="Helvetica,sans-Serif" font-size="10.00">OverlayWrapper::mouseReleased</text>
</a>
</g>
</g>
<!-- Node100&#45;&gt;Node108 -->
<g id="edge10" class="edge"><title>Node100&#45;&gt;Node108</title>
<path fill="none" stroke="midnightblue" d="M287.242,-36.3905C314.122,-30.986 345.703,-24.6365 371.15,-19.5201"/>
<polygon fill="midnightblue" stroke="midnightblue" points="286.307,-33.0084 277.193,-38.411 287.686,-39.8711 286.307,-33.0084"/>
</g>
<!-- Node102 -->
<g id="node4" class="node"><title>Node102</title>
<g id="a_node4"><a xlink:href="../../db/df1/class_g_u_i_input_manager.html#ab59361b8e1a9e31e53b5e5523f2b4801" target="_top" xlink:title="GUIInputManager::getLast\lMouseMoveTime">
<polygon fill="white" stroke="black" points="739,-33 739,-63 869,-63 869,-33 739,-33"/>
<text text-anchor="start" x="747" y="-51" font-family="Helvetica,sans-Serif" font-size="10.00">GUIInputManager::getLast</text>
<text text-anchor="middle" x="804" y="-40" font-family="Helvetica,sans-Serif" font-size="10.00">MouseMoveTime</text>
</a>
</g>
</g>
<!-- Node101&#45;&gt;Node102 -->
<g id="edge3" class="edge"><title>Node101&#45;&gt;Node102</title>
<path fill="none" stroke="midnightblue" d="M676.568,-74.3255C696.215,-70.2348 718.43,-65.6091 738.697,-61.389"/>
<polygon fill="midnightblue" stroke="midnightblue" points="675.629,-70.9459 666.552,-76.411 677.056,-77.799 675.629,-70.9459"/>
</g>
<!-- Node103 -->
<g id="node5" class="node"><title>Node103</title>
<g id="a_node5"><a xlink:href="../../d8/d11/class_ro_r_1_1_g_u_i_manager.html#aae1570a62049085aa74ce274ac9a70ad" target="_top" xlink:title="RoR::GUIManager::frameStarted">
<polygon fill="white" stroke="black" points="905,-38.5 905,-57.5 1062,-57.5 1062,-38.5 905,-38.5"/>
<text text-anchor="middle" x="983.5" y="-45.5" font-family="Helvetica,sans-Serif" font-size="10.00">RoR::GUIManager::frameStarted</text>
</a>
</g>
</g>
<!-- Node102&#45;&gt;Node103 -->
<g id="edge4" class="edge"><title>Node102&#45;&gt;Node103</title>
<path fill="none" stroke="midnightblue" d="M879.289,-48C887.748,-48 896.387,-48 904.888,-48"/>
<polygon fill="midnightblue" stroke="midnightblue" points="879.082,-44.5001 869.082,-48 879.082,-51.5001 879.082,-44.5001"/>
</g>
<!-- Node104 -->
<g id="node6" class="node"><title>Node104</title>
<g id="a_node6"><a xlink:href="../../d8/d11/class_ro_r_1_1_g_u_i_manager.html#a4ab273bd0538649818c84b38e8a06100" target="_top" xlink:title="RoR::GUIManager::GetTheme">
<polygon fill="white" stroke="black" points="1098,-38.5 1098,-57.5 1244,-57.5 1244,-38.5 1098,-38.5"/>
<text text-anchor="middle" x="1171" y="-45.5" font-family="Helvetica,sans-Serif" font-size="10.00">RoR::GUIManager::GetTheme</text>
</a>
</g>
</g>
<!-- Node103&#45;&gt;Node104 -->
<g id="edge5" class="edge"><title>Node103&#45;&gt;Node104</title>
<path fill="none" stroke="midnightblue" d="M1072.12,-48C1080.71,-48 1089.35,-48 1097.75,-48"/>
<polygon fill="midnightblue" stroke="midnightblue" points="1072.09,-44.5001 1062.09,-48 1072.09,-51.5001 1072.09,-44.5001"/>
</g>
<!-- Node105 -->
<g id="node7" class="node"><title>Node105</title>
<g id="a_node7"><a xlink:href="../../d4/d8f/class_ro_r_1_1_g_u_i_1_1_multiplayer_selector.html#a8c98e9ba03c8afb1d1a26ec06192862e" target="_top" xlink:title="RoR::GUI::MultiplayerSelector\l::~MultiplayerSelector">
<polygon fill="white" stroke="black" points="1280,-33 1280,-63 1427,-63 1427,-33 1280,-33"/>
<text text-anchor="start" x="1288" y="-51" font-family="Helvetica,sans-Serif" font-size="10.00">RoR::GUI::MultiplayerSelector</text>
<text text-anchor="middle" x="1353.5" y="-40" font-family="Helvetica,sans-Serif" font-size="10.00">::~MultiplayerSelector</text>
</a>
</g>
</g>
<!-- Node104&#45;&gt;Node105 -->
<g id="edge6" class="edge"><title>Node104&#45;&gt;Node105</title>
<path fill="none" stroke="midnightblue" d="M1254.14,-48C1262.74,-48 1271.43,-48 1279.91,-48"/>
<polygon fill="midnightblue" stroke="midnightblue" points="1254.12,-44.5001 1244.12,-48 1254.12,-51.5001 1254.12,-44.5001"/>
</g>
<!-- Node107 -->
<g id="node9" class="node"><title>Node107</title>
<g id="a_node9"><a xlink:href="../../db/df1/class_g_u_i_input_manager.html#a2e10c3db1bd7068fc87476ce1cceb7c6" target="_top" xlink:title="GUIInputManager::mousePressed">
<polygon fill="white" stroke="black" points="538,-38.5 538,-57.5 701,-57.5 701,-38.5 538,-38.5"/>
<text text-anchor="middle" x="619.5" y="-45.5" font-family="Helvetica,sans-Serif" font-size="10.00">GUIInputManager::mousePressed</text>
</a>
</g>
</g>
<!-- Node106&#45;&gt;Node107 -->
<g id="edge8" class="edge"><title>Node106&#45;&gt;Node107</title>
<path fill="none" stroke="midnightblue" d="M508.328,-48C518.127,-48 528.074,-48 537.778,-48"/>
<polygon fill="midnightblue" stroke="midnightblue" points="508.187,-44.5001 498.187,-48 508.187,-51.5001 508.187,-44.5001"/>
</g>
<!-- Node107&#45;&gt;Node102 -->
<g id="edge9" class="edge"><title>Node107&#45;&gt;Node102</title>
<path fill="none" stroke="midnightblue" d="M711.162,-48C720.475,-48 729.796,-48 738.738,-48"/>
<polygon fill="midnightblue" stroke="midnightblue" points="711.078,-44.5001 701.078,-48 711.078,-51.5001 711.078,-44.5001"/>
</g>
<!-- Node109 -->
<g id="node11" class="node"><title>Node109</title>
<g id="a_node11"><a xlink:href="../../db/df1/class_g_u_i_input_manager.html#a5f096906671c8b2fc404353cb0cc3cf4" target="_top" xlink:title="GUIInputManager::mouseReleased">
<polygon fill="white" stroke="black" points="536,-0.5 536,-19.5 703,-19.5 703,-0.5 536,-0.5"/>
<text text-anchor="middle" x="619.5" y="-7.5" font-family="Helvetica,sans-Serif" font-size="10.00">GUIInputManager::mouseReleased</text>
</a>
</g>
</g>
<!-- Node108&#45;&gt;Node109 -->
<g id="edge11" class="edge"><title>Node108&#45;&gt;Node109</title>
<path fill="none" stroke="midnightblue" d="M510.413,-10C518.854,-10 527.383,-10 535.753,-10"/>
<polygon fill="midnightblue" stroke="midnightblue" points="510.178,-6.5001 500.178,-10 510.178,-13.5001 510.178,-6.5001"/>
</g>
<!-- Node109&#45;&gt;Node102 -->
<g id="edge12" class="edge"><title>Node109&#45;&gt;Node102</title>
<path fill="none" stroke="midnightblue" d="M676.568,-21.6745C696.215,-25.7652 718.43,-30.3909 738.697,-34.611"/>
<polygon fill="midnightblue" stroke="midnightblue" points="677.056,-18.201 666.552,-19.589 675.629,-25.0541 677.056,-18.201"/>
</g>
</g>
</svg>
