<?xml version="1.0" encoding="UTF-8" standalone="no"?>
<!DOCTYPE svg PUBLIC "-//W3C//DTD SVG 1.1//EN"
 "http://www.w3.org/Graphics/SVG/1.1/DTD/svg11.dtd">
<!-- Generated by graphviz version 2.38.0 (20140413.2041)
 -->
<!-- Title: Autopilot::toggleHeading Pages: 1 -->
<!--zoomable 104 -->
<svg id="main" version="1.1" xmlns="http://www.w3.org/2000/svg" xmlns:xlink="http://www.w3.org/1999/xlink" xml:space="preserve" onload="init(evt)">
<style type="text/css"><![CDATA[
.edge:hover path { stroke: red; }
.edge:hover polygon { stroke: red; fill: red; }
]]></style>
<script type="text/javascript"><![CDATA[
var edges = document.getElementsByTagName('g');
if (edges && edges.length) {
  for (var i=0;i<edges.length;i++) {
    if (edges[i].id.substr(0,4)=='edge') {
      edges[i].setAttribute('class','edge');
    }
  }
}
]]></script>
        <defs>
                <circle id="rim" cx="0" cy="0" r="7"/>
                <circle id="rim2" cx="0" cy="0" r="3.5"/>
                <g id="zoomPlus">
                        <use xlink:href="#rim" fill="#404040">
                                <set attributeName="fill" to="#808080" begin="zoomplus.mouseover" end="zoomplus.mouseout"/>
                        </use>
                        <path d="M-4,0h8M0,-4v8" fill="none" stroke="white" stroke-width="1.5" pointer-events="none"/>
                </g>
                <g id="zoomMin">
                        <use xlink:href="#rim" fill="#404040">
                                <set attributeName="fill" to="#808080" begin="zoomminus.mouseover" end="zoomminus.mouseout"/>
                        </use>
                        <path d="M-4,0h8" fill="none" stroke="white" stroke-width="1.5" pointer-events="none"/>
                </g>
                <g id="dirArrow">
                        <path fill="none" stroke="white" stroke-width="1.5" d="M0,-3.0v7 M-2.5,-0.5L0,-3.0L2.5,-0.5"/>
                </g>
               <g id="resetDef">
                       <use xlink:href="#rim2" fill="#404040">
                               <set attributeName="fill" to="#808080" begin="reset.mouseover" end="reset.mouseout"/>
                       </use>
               </g>
        </defs>

<script type="text/javascript">
var viewWidth = 1439;
var viewHeight = 104;
var sectionId = 'dynsection-15';
</script>
<script xlink:href="../../svgpan.js"/>
<svg id="graph" class="graph">
<g id="viewport">
<title>Autopilot::toggleHeading</title>
<polygon fill="white" stroke="none" points="-4,4 -4,-100 1435,-100 1435,4 -4,4"/>
<!-- Node111 -->
<g id="node1" class="node"><title>Node111</title>
<polygon fill="#bfbfbf" stroke="black" points="0,-38.5 0,-57.5 122,-57.5 122,-38.5 0,-38.5"/>
<text text-anchor="middle" x="61" y="-45.5" font-family="Helvetica,sans-Serif" font-size="10.00">Autopilot::toggleHeading</text>
</g>
<!-- Node112 -->
<g id="node2" class="node"><title>Node112</title>
<g id="a_node2"><a xlink:href="../../df/d47/class_overlay_wrapper.html#a7059a60d3d3e067be79c66247298b56b" target="_top" xlink:title="OverlayWrapper::mouseMoved">
<polygon fill="white" stroke="black" points="158,-38.5 158,-57.5 307,-57.5 307,-38.5 158,-38.5"/>
<text text-anchor="middle" x="232.5" y="-45.5" font-family="Helvetica,sans-Serif" font-size="10.00">OverlayWrapper::mouseMoved</text>
</a>
</g>
</g>
<!-- Node111&#45;&gt;Node112 -->
<g id="edge1" class="edge"><title>Node111&#45;&gt;Node112</title>
<path fill="none" stroke="midnightblue" d="M132.364,-48C140.764,-48 149.358,-48 157.804,-48"/>
<polygon fill="midnightblue" stroke="midnightblue" points="132.237,-44.5001 122.237,-48 132.237,-51.5001 132.237,-44.5001"/>
</g>
<!-- Node113 -->
<g id="node3" class="node"><title>Node113</title>
<g id="a_node3"><a xlink:href="../../db/df1/class_g_u_i_input_manager.html#a2f52a8c0b01fca8c55a954bdb7d2ab79" target="_top" xlink:title="GUIInputManager::mouseMoved">
<polygon fill="white" stroke="black" points="546,-76.5 546,-95.5 701,-95.5 701,-76.5 546,-76.5"/>
<text text-anchor="middle" x="623.5" y="-83.5" font-family="Helvetica,sans-Serif" font-size="10.00">GUIInputManager::mouseMoved</text>
</a>
</g>
</g>
<!-- Node112&#45;&gt;Node113 -->
<g id="edge2" class="edge"><title>Node112&#45;&gt;Node113</title>
<path fill="none" stroke="midnightblue" d="M291.893,-59.2892C308.369,-62.159 326.343,-64.9942 343,-67 411.327,-75.2277 489.512,-80.1647 545.783,-82.9351"/>
<polygon fill="midnightblue" stroke="midnightblue" points="292.312,-55.8089 281.854,-57.505 291.087,-62.7009 292.312,-55.8089"/>
</g>
<!-- Node118 -->
<g id="node8" class="node"><title>Node118</title>
<g id="a_node8"><a xlink:href="../../df/d47/class_overlay_wrapper.html#aa0172aafc9f55e431f19a57a0f39da7b" target="_top" xlink:title="OverlayWrapper::mousePressed">
<polygon fill="white" stroke="black" points="345,-38.5 345,-57.5 502,-57.5 502,-38.5 345,-38.5"/>
<text text-anchor="middle" x="423.5" y="-45.5" font-family="Helvetica,sans-Serif" font-size="10.00">OverlayWrapper::mousePressed</text>
</a>
</g>
</g>
<!-- Node112&#45;&gt;Node118 -->
<g id="edge7" class="edge"><title>Node112&#45;&gt;Node118</title>
<path fill="none" stroke="midnightblue" d="M317.325,-48C326.436,-48 335.682,-48 344.717,-48"/>
<polygon fill="midnightblue" stroke="midnightblue" points="317.114,-44.5001 307.114,-48 317.113,-51.5001 317.114,-44.5001"/>
</g>
<!-- Node120 -->
<g id="node10" class="node"><title>Node120</title>
<g id="a_node10"><a xlink:href="../../df/d47/class_overlay_wrapper.html#a813c49ce923d19067d0a656c0d79c610" target="_top" xlink:title="OverlayWrapper::mouseReleased">
<polygon fill="white" stroke="black" points="343,-0.5 343,-19.5 504,-19.5 504,-0.5 343,-0.5"/>
<text text-anchor="middle" x="423.5" y="-7.5" font-family="Helvetica,sans-Serif" font-size="10.00">OverlayWrapper::mouseReleased</text>
</a>
</g>
</g>
<!-- Node112&#45;&gt;Node120 -->
<g id="edge10" class="edge"><title>Node112&#45;&gt;Node120</title>
<path fill="none" stroke="midnightblue" d="M291.242,-36.3905C318.122,-30.986 349.703,-24.6365 375.15,-19.5201"/>
<polygon fill="midnightblue" stroke="midnightblue" points="290.307,-33.0084 281.193,-38.411 291.686,-39.8711 290.307,-33.0084"/>
</g>
<!-- Node114 -->
<g id="node4" class="node"><title>Node114</title>
<g id="a_node4"><a xlink:href="../../db/df1/class_g_u_i_input_manager.html#ab59361b8e1a9e31e53b5e5523f2b4801" target="_top" xlink:title="GUIInputManager::getLast\lMouseMoveTime">
<polygon fill="white" stroke="black" points="743,-33 743,-63 873,-63 873,-33 743,-33"/>
<text text-anchor="start" x="751" y="-51" font-family="Helvetica,sans-Serif" font-size="10.00">GUIInputManager::getLast</text>
<text text-anchor="middle" x="808" y="-40" font-family="Helvetica,sans-Serif" font-size="10.00">MouseMoveTime</text>
</a>
</g>
</g>
<!-- Node113&#45;&gt;Node114 -->
<g id="edge3" class="edge"><title>Node113&#45;&gt;Node114</title>
<path fill="none" stroke="midnightblue" d="M680.568,-74.3255C700.215,-70.2348 722.43,-65.6091 742.697,-61.389"/>
<polygon fill="midnightblue" stroke="midnightblue" points="679.629,-70.9459 670.552,-76.411 681.056,-77.799 679.629,-70.9459"/>
</g>
<!-- Node115 -->
<g id="node5" class="node"><title>Node115</title>
<g id="a_node5"><a xlink:href="../../d8/d11/class_ro_r_1_1_g_u_i_manager.html#aae1570a62049085aa74ce274ac9a70ad" target="_top" xlink:title="RoR::GUIManager::frameStarted">
<polygon fill="white" stroke="black" points="909,-38.5 909,-57.5 1066,-57.5 1066,-38.5 909,-38.5"/>
<text text-anchor="middle" x="987.5" y="-45.5" font-family="Helvetica,sans-Serif" font-size="10.00">RoR::GUIManager::frameStarted</text>
</a>
</g>
</g>
<!-- Node114&#45;&gt;Node115 -->
<g id="edge4" class="edge"><title>Node114&#45;&gt;Node115</title>
<path fill="none" stroke="midnightblue" d="M883.289,-48C891.748,-48 900.387,-48 908.888,-48"/>
<polygon fill="midnightblue" stroke="midnightblue" points="883.082,-44.5001 873.082,-48 883.082,-51.5001 883.082,-44.5001"/>
</g>
<!-- Node116 -->
<g id="node6" class="node"><title>Node116</title>
<g id="a_node6"><a xlink:href="../../d8/d11/class_ro_r_1_1_g_u_i_manager.html#a4ab273bd0538649818c84b38e8a06100" target="_top" xlink:title="RoR::GUIManager::GetTheme">
<polygon fill="white" stroke="black" points="1102,-38.5 1102,-57.5 1248,-57.5 1248,-38.5 1102,-38.5"/>
<text text-anchor="middle" x="1175" y="-45.5" font-family="Helvetica,sans-Serif" font-size="10.00">RoR::GUIManager::GetTheme</text>
</a>
</g>
</g>
<!-- Node115&#45;&gt;Node116 -->
<g id="edge5" class="edge"><title>Node115&#45;&gt;Node116</title>
<path fill="none" stroke="midnightblue" d="M1076.12,-48C1084.71,-48 1093.35,-48 1101.75,-48"/>
<polygon fill="midnightblue" stroke="midnightblue" points="1076.09,-44.5001 1066.09,-48 1076.09,-51.5001 1076.09,-44.5001"/>
</g>
<!-- Node117 -->
<g id="node7" class="node"><title>Node117</title>
<g id="a_node7"><a xlink:href="../../d4/d8f/class_ro_r_1_1_g_u_i_1_1_multiplayer_selector.html#a8c98e9ba03c8afb1d1a26ec06192862e" target="_top" xlink:title="RoR::GUI::MultiplayerSelector\l::~MultiplayerSelector">
<polygon fill="white" stroke="black" points="1284,-33 1284,-63 1431,-63 1431,-33 1284,-33"/>
<text text-anchor="start" x="1292" y="-51" font-family="Helvetica,sans-Serif" font-size="10.00">RoR::GUI::MultiplayerSelector</text>
<text text-anchor="middle" x="1357.5" y="-40" font-family="Helvetica,sans-Serif" font-size="10.00">::~MultiplayerSelector</text>
</a>
</g>
</g>
<!-- Node116&#45;&gt;Node117 -->
<g id="edge6" class="edge"><title>Node116&#45;&gt;Node117</title>
<path fill="none" stroke="midnightblue" d="M1258.14,-48C1266.74,-48 1275.43,-48 1283.91,-48"/>
<polygon fill="midnightblue" stroke="midnightblue" points="1258.12,-44.5001 1248.12,-48 1258.12,-51.5001 1258.12,-44.5001"/>
</g>
<!-- Node119 -->
<g id="node9" class="node"><title>Node119</title>
<g id="a_node9"><a xlink:href="../../db/df1/class_g_u_i_input_manager.html#a2e10c3db1bd7068fc87476ce1cceb7c6" target="_top" xlink:title="GUIInputManager::mousePressed">
<polygon fill="white" stroke="black" points="542,-38.5 542,-57.5 705,-57.5 705,-38.5 542,-38.5"/>
<text text-anchor="middle" x="623.5" y="-45.5" font-family="Helvetica,sans-Serif" font-size="10.00">GUIInputManager::mousePressed</text>
</a>
</g>
</g>
<!-- Node118&#45;&gt;Node119 -->
<g id="edge8" class="edge"><title>Node118&#45;&gt;Node119</title>
<path fill="none" stroke="midnightblue" d="M512.328,-48C522.127,-48 532.074,-48 541.778,-48"/>
<polygon fill="midnightblue" stroke="midnightblue" points="512.187,-44.5001 502.187,-48 512.187,-51.5001 512.187,-44.5001"/>
</g>
<!-- Node119&#45;&gt;Node114 -->
<g id="edge9" class="edge"><title>Node119&#45;&gt;Node114</title>
<path fill="none" stroke="midnightblue" d="M715.162,-48C724.475,-48 733.796,-48 742.738,-48"/>
<polygon fill="midnightblue" stroke="midnightblue" points="715.078,-44.5001 705.078,-48 715.078,-51.5001 715.078,-44.5001"/>
</g>
<!-- Node121 -->
<g id="node11" class="node"><title>Node121</title>
<g id="a_node11"><a xlink:href="../../db/df1/class_g_u_i_input_manager.html#a5f096906671c8b2fc404353cb0cc3cf4" target="_top" xlink:title="GUIInputManager::mouseReleased">
<polygon fill="white" stroke="black" points="540,-0.5 540,-19.5 707,-19.5 707,-0.5 540,-0.5"/>
<text text-anchor="middle" x="623.5" y="-7.5" font-family="Helvetica,sans-Serif" font-size="10.00">GUIInputManager::mouseReleased</text>
</a>
</g>
</g>
<!-- Node120&#45;&gt;Node121 -->
<g id="edge11" class="edge"><title>Node120&#45;&gt;Node121</title>
<path fill="none" stroke="midnightblue" d="M514.413,-10C522.854,-10 531.383,-10 539.753,-10"/>
<polygon fill="midnightblue" stroke="midnightblue" points="514.178,-6.5001 504.178,-10 514.178,-13.5001 514.178,-6.5001"/>
</g>
<!-- Node121&#45;&gt;Node114 -->
<g id="edge12" class="edge"><title>Node121&#45;&gt;Node114</title>
<path fill="none" stroke="midnightblue" d="M680.568,-21.6745C700.215,-25.7652 722.43,-30.3909 742.697,-34.611"/>
<polygon fill="midnightblue" stroke="midnightblue" points="681.056,-18.201 670.552,-19.589 679.629,-25.0541 681.056,-18.201"/>
</g>
</g>
</svg>
        <g id="navigator" transform="translate(0 0)" fill="#404254">
                <rect fill="#f2f5e9" fill-opacity="0.5" stroke="#606060" stroke-width=".5" x="0" y="0" width="60" height="60"/>
                <use id="zoomplus" xlink:href="#zoomPlus" x="17" y="9" onmousedown="handleZoom(evt,'in')"/>
                <use id="zoomminus" xlink:href="#zoomMin" x="42" y="9" onmousedown="handleZoom(evt,'out')"/>
                <use id="reset" xlink:href="#resetDef" x="30" y="36" onmousedown="handleReset()"/>
                <g id="arrowUp" xlink:href="#dirArrow" transform="translate(30 24)" onmousedown="handlePan(0,-1)">
                  <use xlink:href="#rim" fill="#404040">
                        <set attributeName="fill" to="#808080" begin="arrowUp.mouseover" end="arrowUp.mouseout"/>
                  </use>
                  <path fill="none" stroke="white" stroke-width="1.5" d="M0,-3.0v7 M-2.5,-0.5L0,-3.0L2.5,-0.5"/>
                </g>
                <g id="arrowRight" xlink:href="#dirArrow" transform="rotate(90) translate(36 -43)" onmousedown="handlePan(1,0)">
                  <use xlink:href="#rim" fill="#404040">
                        <set attributeName="fill" to="#808080" begin="arrowRight.mouseover" end="arrowRight.mouseout"/>
                  </use>
                  <path fill="none" stroke="white" stroke-width="1.5" d="M0,-3.0v7 M-2.5,-0.5L0,-3.0L2.5,-0.5"/>
                </g>
                <g id="arrowDown" xlink:href="#dirArrow" transform="rotate(180) translate(-30 -48)" onmousedown="handlePan(0,1)">
                  <use xlink:href="#rim" fill="#404040">
                        <set attributeName="fill" to="#808080" begin="arrowDown.mouseover" end="arrowDown.mouseout"/>
                  </use>
                  <path fill="none" stroke="white" stroke-width="1.5" d="M0,-3.0v7 M-2.5,-0.5L0,-3.0L2.5,-0.5"/>
                </g>
                <g id="arrowLeft" xlink:href="#dirArrow" transform="rotate(270) translate(-36 17)" onmousedown="handlePan(-1,0)">
                  <use xlink:href="#rim" fill="#404040">
                        <set attributeName="fill" to="#808080" begin="arrowLeft.mouseover" end="arrowLeft.mouseout"/>
                  </use>
                  <path fill="none" stroke="white" stroke-width="1.5" d="M0,-3.0v7 M-2.5,-0.5L0,-3.0L2.5,-0.5"/>
                </g>
        </g>
        <svg viewBox="0 0 15 15" width="100%" height="30px" preserveAspectRatio="xMaxYMin meet">
         <g id="arrow_out" transform="scale(0.3 0.3)">
          <a xlink:href="class_autopilot_a00b1d2ca9518bc352c4062342da50a9b_icgraph_org.svg" target="_base">
           <rect id="button" ry="5" rx="5" y="6" x="6" height="38" width="38"
                fill="#f2f5e9" fill-opacity="0.5" stroke="#606060" stroke-width="1.0"/>
           <path id="arrow"
             d="M 11.500037,31.436501 C 11.940474,20.09759 22.043105,11.32322 32.158766,21.979434 L 37.068811,17.246167 C 37.068811,17.246167 37.088388,32 37.088388,32 L 22.160133,31.978069 C 22.160133,31.978069 26.997745,27.140456 26.997745,27.140456 C 18.528582,18.264221 13.291696,25.230495 11.500037,31.436501 z"
             style="fill:#404040;"/>
          </a>
         </g>
        </svg>
</svg>
