<?xml version="1.0" encoding="UTF-8" standalone="no"?>
<!DOCTYPE svg PUBLIC "-//W3C//DTD SVG 1.1//EN"
 "http://www.w3.org/Graphics/SVG/1.1/DTD/svg11.dtd">
<!-- Generated by graphviz version 2.38.0 (20140413.2041)
 -->
<!-- Title: Autopilot::GetVerticalApproachDeviation Pages: 1 -->
<svg width="557pt" height="39pt"
 viewBox="0.00 0.00 557.00 39.00" xmlns="http://www.w3.org/2000/svg" xmlns:xlink="http://www.w3.org/1999/xlink">
<g id="graph0" class="graph" transform="scale(1 1) rotate(0) translate(4 35)">
<title>Autopilot::GetVerticalApproachDeviation</title>
<polygon fill="white" stroke="none" points="-4,4 -4,-35 553,-35 553,4 -4,4"/>
<!-- Node67 -->
<g id="node1" class="node"><title>Node67</title>
<polygon fill="#bfbfbf" stroke="black" points="0,-0.5 0,-30.5 151,-30.5 151,-0.5 0,-0.5"/>
<text text-anchor="start" x="8" y="-18.5" font-family="Helvetica,sans-Serif" font-size="10.00">Autopilot::GetVerticalApproach</text>
<text text-anchor="middle" x="75.5" y="-7.5" font-family="Helvetica,sans-Serif" font-size="10.00">Deviation</text>
</g>
<!-- Node68 -->
<g id="node2" class="node"><title>Node68</title>
<g id="a_node2"><a xlink:href="../../df/d47/class_overlay_wrapper.html#a0932f42417c63edc77c8ed486efa66c1" target="_top" xlink:title="OverlayWrapper::UpdateAerialHUD">
<polygon fill="white" stroke="black" points="187,-6 187,-25 354,-25 354,-6 187,-6"/>
<text text-anchor="middle" x="270.5" y="-13" font-family="Helvetica,sans-Serif" font-size="10.00">OverlayWrapper::UpdateAerialHUD</text>
</a>
</g>
</g>
<!-- Node67&#45;&gt;Node68 -->
<g id="edge1" class="edge"><title>Node67&#45;&gt;Node68</title>
<path fill="none" stroke="midnightblue" d="M161.333,-15.5C169.77,-15.5 178.327,-15.5 186.743,-15.5"/>
<polygon fill="midnightblue" stroke="midnightblue" points="161.119,-12.0001 151.119,-15.5 161.119,-19.0001 161.119,-12.0001"/>
</g>
<!-- Node69 -->
<g id="node3" class="node"><title>Node69</title>
<g id="a_node3"><a xlink:href="../../dd/dbe/class_ro_r_frame_listener.html#acdda0026f9324c3b7f48568624e07115" target="_top" xlink:title="RoRFrameListener::frameStarted">
<polygon fill="white" stroke="black" points="390,-6 390,-25 549,-25 549,-6 390,-6"/>
<text text-anchor="middle" x="469.5" y="-13" font-family="Helvetica,sans-Serif" font-size="10.00">RoRFrameListener::frameStarted</text>
</a>
</g>
</g>
<!-- Node68&#45;&gt;Node69 -->
<g id="edge2" class="edge"><title>Node68&#45;&gt;Node69</title>
<path fill="none" stroke="midnightblue" d="M364.198,-15.5C372.76,-15.5 381.381,-15.5 389.8,-15.5"/>
<polygon fill="midnightblue" stroke="midnightblue" points="364.19,-12.0001 354.189,-15.5 364.189,-19.0001 364.19,-12.0001"/>
</g>
</g>
</svg>
