<?xml version="1.0" encoding="UTF-8" standalone="no"?>
<!DOCTYPE svg PUBLIC "-//W3C//DTD SVG 1.1//EN"
 "http://www.w3.org/Graphics/SVG/1.1/DTD/svg11.dtd">
<!-- Generated by graphviz version 2.38.0 (20140413.2041)
 -->
<!-- Title: calculate_collision_depth Pages: 1 -->
<!--zoomable 246 -->
<svg id="main" version="1.1" xmlns="http://www.w3.org/2000/svg" xmlns:xlink="http://www.w3.org/1999/xlink" xml:space="preserve" onload="init(evt)">
<style type="text/css"><![CDATA[
.edge:hover path { stroke: red; }
.edge:hover polygon { stroke: red; fill: red; }
]]></style>
<script type="text/javascript"><![CDATA[
var edges = document.getElementsByTagName('g');
if (edges && edges.length) {
  for (var i=0;i<edges.length;i++) {
    if (edges[i].id.substr(0,4)=='edge') {
      edges[i].setAttribute('class','edge');
    }
  }
}
]]></script>
        <defs>
                <circle id="rim" cx="0" cy="0" r="7"/>
                <circle id="rim2" cx="0" cy="0" r="3.5"/>
                <g id="zoomPlus">
                        <use xlink:href="#rim" fill="#404040">
                                <set attributeName="fill" to="#808080" begin="zoomplus.mouseover" end="zoomplus.mouseout"/>
                        </use>
                        <path d="M-4,0h8M0,-4v8" fill="none" stroke="white" stroke-width="1.5" pointer-events="none"/>
                </g>
                <g id="zoomMin">
                        <use xlink:href="#rim" fill="#404040">
                                <set attributeName="fill" to="#808080" begin="zoomminus.mouseover" end="zoomminus.mouseout"/>
                        </use>
                        <path d="M-4,0h8" fill="none" stroke="white" stroke-width="1.5" pointer-events="none"/>
                </g>
                <g id="dirArrow">
                        <path fill="none" stroke="white" stroke-width="1.5" d="M0,-3.0v7 M-2.5,-0.5L0,-3.0L2.5,-0.5"/>
                </g>
               <g id="resetDef">
                       <use xlink:href="#rim2" fill="#404040">
                               <set attributeName="fill" to="#808080" begin="reset.mouseover" end="reset.mouseout"/>
                       </use>
               </g>
        </defs>

<script type="text/javascript">
var viewWidth = 843;
var viewHeight = 246;
var sectionId = 'dynsection-1';
</script>
<script xlink:href="../../svgpan.js"/>
<svg id="graph" class="graph">
<g id="viewport">
<title>calculate_collision_depth</title>
<polygon fill="white" stroke="none" points="-4,4 -4,-241.5 839,-241.5 839,4 -4,4"/>
<!-- Node0 -->
<g id="node1" class="node"><title>Node0</title>
<polygon fill="#bfbfbf" stroke="black" points="0,-99 0,-129 96,-129 96,-99 0,-99"/>
<text text-anchor="start" x="8" y="-117" font-family="Helvetica,sans-Serif" font-size="10.00">calculate_collision</text>
<text text-anchor="middle" x="48" y="-106" font-family="Helvetica,sans-Serif" font-size="10.00">_depth</text>
</g>
<!-- Node1 -->
<g id="node2" class="node"><title>Node1</title>
<g id="a_node2"><a xlink:href="../../d9/d39/class_collisions.html#a265e80a2a5e77dd57ce94ae62c2a11ab" target="_top" xlink:title="Collisions::collisionCorrect">
<polygon fill="white" stroke="black" points="132,-104.5 132,-123.5 263,-123.5 263,-104.5 132,-104.5"/>
<text text-anchor="middle" x="197.5" y="-111.5" font-family="Helvetica,sans-Serif" font-size="10.00">Collisions::collisionCorrect</text>
</a>
</g>
</g>
<!-- Node0&#45;&gt;Node1 -->
<g id="edge1" class="edge"><title>Node0&#45;&gt;Node1</title>
<path fill="none" stroke="midnightblue" d="M96.0755,-114C104.256,-114 112.943,-114 121.65,-114"/>
<polygon fill="midnightblue" stroke="midnightblue" points="121.852,-117.5 131.852,-114 121.852,-110.5 121.852,-117.5"/>
</g>
<!-- Node2 -->
<g id="node3" class="node"><title>Node2</title>
<g id="a_node3"><a xlink:href="../../d3/d16/class_terrain_manager.html#a41fdd66a57990a5fb33d253213fd04e3" target="_top" xlink:title="TerrainManager::getMaxTerrainSize">
<polygon fill="white" stroke="black" points="299,-208.5 299,-227.5 469,-227.5 469,-208.5 299,-208.5"/>
<text text-anchor="middle" x="384" y="-215.5" font-family="Helvetica,sans-Serif" font-size="10.00">TerrainManager::getMaxTerrainSize</text>
</a>
</g>
</g>
<!-- Node1&#45;&gt;Node2 -->
<g id="edge2" class="edge"><title>Node1&#45;&gt;Node2</title>
<path fill="none" stroke="midnightblue" d="M207.49,-123.675C223.974,-140.834 260.859,-176.613 299,-196 306.438,-199.78 314.585,-202.955 322.788,-205.608"/>
<polygon fill="midnightblue" stroke="midnightblue" points="321.82,-208.971 332.404,-208.488 323.829,-202.266 321.82,-208.971"/>
</g>
<!-- Node4 -->
<g id="node5" class="node"><title>Node4</title>
<g id="a_node5"><a xlink:href="../../d9/d39/class_collisions.html#a2fdc842e0f848af88b965e66b0296b79" target="_top" xlink:title="Collisions::hash_find">
<polygon fill="white" stroke="black" points="331,-167.5 331,-186.5 437,-186.5 437,-167.5 331,-167.5"/>
<text text-anchor="middle" x="384" y="-174.5" font-family="Helvetica,sans-Serif" font-size="10.00">Collisions::hash_find</text>
</a>
</g>
</g>
<!-- Node1&#45;&gt;Node4 -->
<g id="edge4" class="edge"><title>Node1&#45;&gt;Node4</title>
<path fill="none" stroke="midnightblue" d="M219.759,-123.625C239.893,-132.513 271.112,-145.704 299,-155 309.621,-158.54 321.149,-161.878 332.164,-164.833"/>
<polygon fill="midnightblue" stroke="midnightblue" points="331.534,-168.286 342.095,-167.433 333.308,-161.514 331.534,-168.286"/>
</g>
<!-- Node6 -->
<g id="node7" class="node"><title>Node6</title>
<g id="a_node7"><a xlink:href="../../d9/d39/class_collisions.html#a169c711864e32721fb5daab7d7d01df4" target="_top" xlink:title="Collisions::permitEvent">
<polygon fill="white" stroke="black" points="326,-126.5 326,-145.5 442,-145.5 442,-126.5 326,-126.5"/>
<text text-anchor="middle" x="384" y="-133.5" font-family="Helvetica,sans-Serif" font-size="10.00">Collisions::permitEvent</text>
</a>
</g>
</g>
<!-- Node1&#45;&gt;Node6 -->
<g id="edge6" class="edge"><title>Node1&#45;&gt;Node6</title>
<path fill="none" stroke="midnightblue" d="M263.029,-121.695C280.142,-123.735 298.658,-125.943 315.903,-127.999"/>
<polygon fill="midnightblue" stroke="midnightblue" points="315.546,-131.481 325.891,-129.19 316.375,-124.531 315.546,-131.481"/>
</g>
<!-- Node10 -->
<g id="node11" class="node"><title>Node10</title>
<g id="a_node11"><a xlink:href="../../d9/d39/class_collisions.html#afab554d00436aa9157c93a4eaecf8d74" target="_top" xlink:title="Collisions::envokeScript\lCallback">
<polygon fill="white" stroke="black" points="324,-77 324,-107 444,-107 444,-77 324,-77"/>
<text text-anchor="start" x="332" y="-95" font-family="Helvetica,sans-Serif" font-size="10.00">Collisions::envokeScript</text>
<text text-anchor="middle" x="384" y="-84" font-family="Helvetica,sans-Serif" font-size="10.00">Callback</text>
</a>
</g>
</g>
<!-- Node1&#45;&gt;Node10 -->
<g id="edge10" class="edge"><title>Node1&#45;&gt;Node10</title>
<path fill="none" stroke="midnightblue" d="M263.029,-106.305C279.38,-104.356 297.011,-102.253 313.591,-100.276"/>
<polygon fill="midnightblue" stroke="midnightblue" points="314.243,-103.724 323.758,-99.064 313.414,-96.7728 314.243,-103.724"/>
</g>
<!-- Node11 -->
<g id="node12" class="node"><title>Node11</title>
<g id="a_node12"><a xlink:href="../../d9/d39/class_collisions.html#accb10540c3aa849f57b7fd3b9da2e1c6" target="_top" xlink:title="Collisions::calcCollidedSide">
<polygon fill="white" stroke="black" points="315.5,-38.5 315.5,-57.5 452.5,-57.5 452.5,-38.5 315.5,-38.5"/>
<text text-anchor="middle" x="384" y="-45.5" font-family="Helvetica,sans-Serif" font-size="10.00">Collisions::calcCollidedSide</text>
</a>
</g>
</g>
<!-- Node1&#45;&gt;Node11 -->
<g id="edge11" class="edge"><title>Node1&#45;&gt;Node11</title>
<path fill="none" stroke="midnightblue" d="M216.581,-104.416C236.367,-94.2399 269.244,-78.242 299,-68 307.64,-65.0261 316.928,-62.3346 326.065,-59.9595"/>
<polygon fill="midnightblue" stroke="midnightblue" points="327.028,-63.3265 335.883,-57.5082 325.333,-56.535 327.028,-63.3265"/>
</g>
<!-- Node12 -->
<g id="node13" class="node"><title>Node12</title>
<g id="a_node13"><a xlink:href="../../d9/d39/class_collisions.html#ad12c4976773ee3a8034b02fe1cd0212d" target="_top" xlink:title="Collisions::clearEventCache">
<polygon fill="white" stroke="black" points="315.5,-0.5 315.5,-19.5 452.5,-19.5 452.5,-0.5 315.5,-0.5"/>
<text text-anchor="middle" x="384" y="-7.5" font-family="Helvetica,sans-Serif" font-size="10.00">Collisions::clearEventCache</text>
</a>
</g>
</g>
<!-- Node1&#45;&gt;Node12 -->
<g id="edge12" class="edge"><title>Node1&#45;&gt;Node12</title>
<path fill="none" stroke="midnightblue" d="M206.84,-104.387C222.833,-86.5957 259.729,-48.5663 299,-29 303.851,-26.5829 309.013,-24.4694 314.3,-22.6219"/>
<polygon fill="midnightblue" stroke="midnightblue" points="315.436,-25.9335 323.911,-19.5757 313.321,-19.2606 315.436,-25.9335"/>
</g>
<!-- Node3 -->
<g id="node4" class="node"><title>Node3</title>
<g id="a_node4"><a xlink:href="../../d2/d9a/class_terrain_geometry_manager.html#afead68b5ff7a0b77395065ab8ea855e3" target="_top" xlink:title="TerrainGeometryManager\l::getMaxTerrainSize">
<polygon fill="white" stroke="black" points="517.5,-207 517.5,-237 643.5,-237 643.5,-207 517.5,-207"/>
<text text-anchor="start" x="525.5" y="-225" font-family="Helvetica,sans-Serif" font-size="10.00">TerrainGeometryManager</text>
<text text-anchor="middle" x="580.5" y="-214" font-family="Helvetica,sans-Serif" font-size="10.00">::getMaxTerrainSize</text>
</a>
</g>
</g>
<!-- Node2&#45;&gt;Node3 -->
<g id="edge3" class="edge"><title>Node2&#45;&gt;Node3</title>
<path fill="none" stroke="midnightblue" d="M469.179,-219.731C481.852,-219.992 494.827,-220.259 507.221,-220.514"/>
<polygon fill="midnightblue" stroke="midnightblue" points="507.407,-224.018 517.476,-220.724 507.551,-217.019 507.407,-224.018"/>
</g>
<!-- Node5 -->
<g id="node6" class="node"><title>Node5</title>
<g id="a_node6"><a xlink:href="../../d9/d39/class_collisions.html#a7e21c069d16d661d211d0cb896577edf" target="_top" xlink:title="Returns index to &#39;hashtable&#39;. ">
<polygon fill="white" stroke="black" points="528.5,-168.5 528.5,-187.5 632.5,-187.5 632.5,-168.5 528.5,-168.5"/>
<text text-anchor="middle" x="580.5" y="-175.5" font-family="Helvetica,sans-Serif" font-size="10.00">Collisions::hashfunc</text>
</a>
</g>
</g>
<!-- Node4&#45;&gt;Node5 -->
<g id="edge5" class="edge"><title>Node4&#45;&gt;Node5</title>
<path fill="none" stroke="midnightblue" d="M437.122,-177.268C462.057,-177.396 492.076,-177.551 518.109,-177.684"/>
<polygon fill="midnightblue" stroke="midnightblue" points="518.227,-181.185 528.244,-177.736 518.263,-174.185 518.227,-181.185"/>
</g>
<!-- Node7 -->
<g id="node8" class="node"><title>Node7</title>
<g id="a_node8"><a xlink:href="../../dd/dbe/class_ro_r_frame_listener.html#a0398db79a92d8178b77e3733abc9a238" target="_top" xlink:title="RoRFrameListener::GetBeam\lFactory">
<polygon fill="white" stroke="black" points="508,-119 508,-149 653,-149 653,-119 508,-119"/>
<text text-anchor="start" x="516" y="-137" font-family="Helvetica,sans-Serif" font-size="10.00">RoRFrameListener::GetBeam</text>
<text text-anchor="middle" x="580.5" y="-126" font-family="Helvetica,sans-Serif" font-size="10.00">Factory</text>
</a>
</g>
</g>
<!-- Node6&#45;&gt;Node7 -->
<g id="edge7" class="edge"><title>Node6&#45;&gt;Node7</title>
<path fill="none" stroke="midnightblue" d="M442.042,-135.413C459.525,-135.234 479.112,-135.032 497.899,-134.839"/>
<polygon fill="midnightblue" stroke="midnightblue" points="497.971,-138.339 507.934,-134.736 497.899,-131.339 497.971,-138.339"/>
</g>
<!-- Node8 -->
<g id="node9" class="node"><title>Node8</title>
<g id="a_node9"><a xlink:href="../../d5/d53/class_ro_r_1_1_beam_factory.html#aeb17b3a10c961e56770f7dc87a16625c" target="_top" xlink:title="RoR::BeamFactory::getCurrent\lTruck">
<polygon fill="white" stroke="black" points="505,-70 505,-100 656,-100 656,-70 505,-70"/>
<text text-anchor="start" x="513" y="-88" font-family="Helvetica,sans-Serif" font-size="10.00">RoR::BeamFactory::getCurrent</text>
<text text-anchor="middle" x="580.5" y="-77" font-family="Helvetica,sans-Serif" font-size="10.00">Truck</text>
</a>
</g>
</g>
<!-- Node6&#45;&gt;Node8 -->
<g id="edge8" class="edge"><title>Node6&#45;&gt;Node8</title>
<path fill="none" stroke="midnightblue" d="M429.585,-126.433C442.351,-123.554 456.259,-120.283 469,-117 485.577,-112.729 503.44,-107.731 519.871,-102.971"/>
<polygon fill="midnightblue" stroke="midnightblue" points="521.272,-106.208 529.891,-100.047 519.311,-99.4885 521.272,-106.208"/>
</g>
<!-- Node9 -->
<g id="node10" class="node"><title>Node9</title>
<g id="a_node10"><a xlink:href="../../d5/d53/class_ro_r_1_1_beam_factory.html#aadb09a68dc35fad593189242429df218" target="_top" xlink:title="RoR::BeamFactory::getTruck">
<polygon fill="white" stroke="black" points="692,-75.5 692,-94.5 835,-94.5 835,-75.5 692,-75.5"/>
<text text-anchor="middle" x="763.5" y="-82.5" font-family="Helvetica,sans-Serif" font-size="10.00">RoR::BeamFactory::getTruck</text>
</a>
</g>
</g>
<!-- Node8&#45;&gt;Node9 -->
<g id="edge9" class="edge"><title>Node8&#45;&gt;Node9</title>
<path fill="none" stroke="midnightblue" d="M656.165,-85C664.542,-85 673.105,-85 681.557,-85"/>
<polygon fill="midnightblue" stroke="midnightblue" points="681.79,-88.5001 691.79,-85 681.79,-81.5001 681.79,-88.5001"/>
</g>
</g>
</svg>
        <g id="navigator" transform="translate(0 0)" fill="#404254">
                <rect fill="#f2f5e9" fill-opacity="0.5" stroke="#606060" stroke-width=".5" x="0" y="0" width="60" height="60"/>
                <use id="zoomplus" xlink:href="#zoomPlus" x="17" y="9" onmousedown="handleZoom(evt,'in')"/>
                <use id="zoomminus" xlink:href="#zoomMin" x="42" y="9" onmousedown="handleZoom(evt,'out')"/>
                <use id="reset" xlink:href="#resetDef" x="30" y="36" onmousedown="handleReset()"/>
                <g id="arrowUp" xlink:href="#dirArrow" transform="translate(30 24)" onmousedown="handlePan(0,-1)">
                  <use xlink:href="#rim" fill="#404040">
                        <set attributeName="fill" to="#808080" begin="arrowUp.mouseover" end="arrowUp.mouseout"/>
                  </use>
                  <path fill="none" stroke="white" stroke-width="1.5" d="M0,-3.0v7 M-2.5,-0.5L0,-3.0L2.5,-0.5"/>
                </g>
                <g id="arrowRight" xlink:href="#dirArrow" transform="rotate(90) translate(36 -43)" onmousedown="handlePan(1,0)">
                  <use xlink:href="#rim" fill="#404040">
                        <set attributeName="fill" to="#808080" begin="arrowRight.mouseover" end="arrowRight.mouseout"/>
                  </use>
                  <path fill="none" stroke="white" stroke-width="1.5" d="M0,-3.0v7 M-2.5,-0.5L0,-3.0L2.5,-0.5"/>
                </g>
                <g id="arrowDown" xlink:href="#dirArrow" transform="rotate(180) translate(-30 -48)" onmousedown="handlePan(0,1)">
                  <use xlink:href="#rim" fill="#404040">
                        <set attributeName="fill" to="#808080" begin="arrowDown.mouseover" end="arrowDown.mouseout"/>
                  </use>
                  <path fill="none" stroke="white" stroke-width="1.5" d="M0,-3.0v7 M-2.5,-0.5L0,-3.0L2.5,-0.5"/>
                </g>
                <g id="arrowLeft" xlink:href="#dirArrow" transform="rotate(270) translate(-36 17)" onmousedown="handlePan(-1,0)">
                  <use xlink:href="#rim" fill="#404040">
                        <set attributeName="fill" to="#808080" begin="arrowLeft.mouseover" end="arrowLeft.mouseout"/>
                  </use>
                  <path fill="none" stroke="white" stroke-width="1.5" d="M0,-3.0v7 M-2.5,-0.5L0,-3.0L2.5,-0.5"/>
                </g>
        </g>
        <svg viewBox="0 0 15 15" width="100%" height="30px" preserveAspectRatio="xMaxYMin meet">
         <g id="arrow_out" transform="scale(0.3 0.3)">
          <a xlink:href="_character_8cpp_a65346bcca4408024b040c2ebfbab8d31_cgraph_org.svg" target="_base">
           <rect id="button" ry="5" rx="5" y="6" x="6" height="38" width="38"
                fill="#f2f5e9" fill-opacity="0.5" stroke="#606060" stroke-width="1.0"/>
           <path id="arrow"
             d="M 11.500037,31.436501 C 11.940474,20.09759 22.043105,11.32322 32.158766,21.979434 L 37.068811,17.246167 C 37.068811,17.246167 37.088388,32 37.088388,32 L 22.160133,31.978069 C 22.160133,31.978069 26.997745,27.140456 26.997745,27.140456 C 18.528582,18.264221 13.291696,25.230495 11.500037,31.436501 z"
             style="fill:#404040;"/>
          </a>
         </g>
        </svg>
</svg>
