<?xml version="1.0" encoding="UTF-8" standalone="no"?>
<!DOCTYPE svg PUBLIC "-//W3C//DTD SVG 1.1//EN"
 "http://www.w3.org/Graphics/SVG/1.1/DTD/svg11.dtd">
<!-- Generated by graphviz version 2.38.0 (20140413.2041)
 -->
<!-- Title: registerOgreQuaternion Pages: 1 -->
<svg width="356pt" height="28pt"
 viewBox="0.00 0.00 356.00 28.00" xmlns="http://www.w3.org/2000/svg" xmlns:xlink="http://www.w3.org/1999/xlink">
<g id="graph0" class="graph" transform="scale(1 1) rotate(0) translate(4 24)">
<title>registerOgreQuaternion</title>
<polygon fill="white" stroke="none" points="-4,4 -4,-24 352,-24 352,4 -4,4"/>
<!-- Node54 -->
<g id="node1" class="node"><title>Node54</title>
<polygon fill="#bfbfbf" stroke="black" points="0,-0.5 0,-19.5 117,-19.5 117,-0.5 0,-0.5"/>
<text text-anchor="middle" x="58.5" y="-7.5" font-family="Helvetica,sans-Serif" font-size="10.00">registerOgreQuaternion</text>
</g>
<!-- Node55 -->
<g id="node2" class="node"><title>Node55</title>
<g id="a_node2"><a xlink:href="../../da/dc6/_ogre_angelscript_8h.html#ad3e04f5b1c46ddcd6e319022a61e3f1d" target="_top" xlink:title="registerOgreObjects">
<polygon fill="white" stroke="black" points="153,-0.5 153,-19.5 257,-19.5 257,-0.5 153,-0.5"/>
<text text-anchor="middle" x="205" y="-7.5" font-family="Helvetica,sans-Serif" font-size="10.00">registerOgreObjects</text>
</a>
</g>
</g>
<!-- Node54&#45;&gt;Node55 -->
<g id="edge1" class="edge"><title>Node54&#45;&gt;Node55</title>
<path fill="none" stroke="midnightblue" d="M127.087,-10C135.718,-10 144.438,-10 152.751,-10"/>
<polygon fill="midnightblue" stroke="midnightblue" points="127.025,-6.5001 117.025,-10 127.025,-13.5001 127.025,-6.5001"/>
</g>
<!-- Node56 -->
<g id="node3" class="node"><title>Node56</title>
<g id="a_node3"><a xlink:href="../../d4/d5f/_script_engine_8cpp.html#a72e7735b6ca109323b2aa797f7b7b45d" target="_top" xlink:title="logString">
<polygon fill="white" stroke="black" points="293,-0.5 293,-19.5 348,-19.5 348,-0.5 293,-0.5"/>
<text text-anchor="middle" x="320.5" y="-7.5" font-family="Helvetica,sans-Serif" font-size="10.00">logString</text>
</a>
</g>
</g>
<!-- Node55&#45;&gt;Node56 -->
<g id="edge2" class="edge"><title>Node55&#45;&gt;Node56</title>
<path fill="none" stroke="midnightblue" d="M267.274,-10C276.266,-10 285.105,-10 292.881,-10"/>
<polygon fill="midnightblue" stroke="midnightblue" points="267.106,-6.5001 257.105,-10 267.105,-13.5001 267.106,-6.5001"/>
</g>
</g>
</svg>
