<?xml version="1.0" encoding="UTF-8" standalone="no"?>
<!DOCTYPE svg PUBLIC "-//W3C//DTD SVG 1.1//EN"
 "http://www.w3.org/Graphics/SVG/1.1/DTD/svg11.dtd">
<!-- Generated by graphviz version 2.38.0 (20140413.2041)
 -->
<!-- Title: CScriptDictionary::SetGCFlag Pages: 1 -->
<svg width="683pt" height="39pt"
 viewBox="0.00 0.00 683.00 39.00" xmlns="http://www.w3.org/2000/svg" xmlns:xlink="http://www.w3.org/1999/xlink">
<g id="graph0" class="graph" transform="scale(1 1) rotate(0) translate(4 35)">
<title>CScriptDictionary::SetGCFlag</title>
<polygon fill="white" stroke="none" points="-4,4 -4,-35 679,-35 679,4 -4,4"/>
<!-- Node131 -->
<g id="node1" class="node"><title>Node131</title>
<polygon fill="#bfbfbf" stroke="black" points="0,-0.5 0,-30.5 98,-30.5 98,-0.5 0,-0.5"/>
<text text-anchor="start" x="8" y="-18.5" font-family="Helvetica,sans-Serif" font-size="10.00">CScriptDictionary::</text>
<text text-anchor="middle" x="49" y="-7.5" font-family="Helvetica,sans-Serif" font-size="10.00">SetGCFlag</text>
</g>
<!-- Node132 -->
<g id="node2" class="node"><title>Node132</title>
<g id="a_node2"><a xlink:href="../../d0/dc5/scriptdictionary_8cpp.html#a4abd19f74d4be500c1fe9859bb6407ca" target="_top" xlink:title="ScriptDictionarySetGCFlag\l_Generic">
<polygon fill="white" stroke="black" points="134,-0.5 134,-30.5 268,-30.5 268,-0.5 134,-0.5"/>
<text text-anchor="start" x="142" y="-18.5" font-family="Helvetica,sans-Serif" font-size="10.00">ScriptDictionarySetGCFlag</text>
<text text-anchor="middle" x="201" y="-7.5" font-family="Helvetica,sans-Serif" font-size="10.00">_Generic</text>
</a>
</g>
</g>
<!-- Node131&#45;&gt;Node132 -->
<g id="edge1" class="edge"><title>Node131&#45;&gt;Node132</title>
<path fill="none" stroke="midnightblue" d="M108.294,-15.5C116.641,-15.5 125.278,-15.5 133.764,-15.5"/>
<polygon fill="midnightblue" stroke="midnightblue" points="108.287,-12.0001 98.2866,-15.5 108.287,-19.0001 108.287,-12.0001"/>
</g>
<!-- Node133 -->
<g id="node3" class="node"><title>Node133</title>
<g id="a_node3"><a xlink:href="../../df/d67/scriptdictionary_8h.html#af8fc6fbf1a623e6c2ff14605df4e0570" target="_top" xlink:title="RegisterScriptDictionary\l_Generic">
<polygon fill="white" stroke="black" points="304,-0.5 304,-30.5 426,-30.5 426,-0.5 304,-0.5"/>
<text text-anchor="start" x="312" y="-18.5" font-family="Helvetica,sans-Serif" font-size="10.00">RegisterScriptDictionary</text>
<text text-anchor="middle" x="365" y="-7.5" font-family="Helvetica,sans-Serif" font-size="10.00">_Generic</text>
</a>
</g>
</g>
<!-- Node132&#45;&gt;Node133 -->
<g id="edge2" class="edge"><title>Node132&#45;&gt;Node133</title>
<path fill="none" stroke="midnightblue" d="M278.391,-15.5C286.983,-15.5 295.645,-15.5 303.987,-15.5"/>
<polygon fill="midnightblue" stroke="midnightblue" points="278.359,-12.0001 268.359,-15.5 278.359,-19.0001 278.359,-12.0001"/>
</g>
<!-- Node134 -->
<g id="node4" class="node"><title>Node134</title>
<g id="a_node4"><a xlink:href="../../df/d67/scriptdictionary_8h.html#abf884a3f2b4b07a009c5fc055b48f901" target="_top" xlink:title="RegisterScriptDictionary">
<polygon fill="white" stroke="black" points="462,-6 462,-25 584,-25 584,-6 462,-6"/>
<text text-anchor="middle" x="523" y="-13" font-family="Helvetica,sans-Serif" font-size="10.00">RegisterScriptDictionary</text>
</a>
</g>
</g>
<!-- Node133&#45;&gt;Node134 -->
<g id="edge3" class="edge"><title>Node133&#45;&gt;Node134</title>
<path fill="none" stroke="midnightblue" d="M436.538,-15.5C444.99,-15.5 453.56,-15.5 461.847,-15.5"/>
<polygon fill="midnightblue" stroke="midnightblue" points="436.314,-12.0001 426.314,-15.5 436.314,-19.0001 436.314,-12.0001"/>
</g>
<!-- Node135 -->
<g id="node5" class="node"><title>Node135</title>
<g id="a_node5"><a xlink:href="../../d4/d5f/_script_engine_8cpp.html#a72e7735b6ca109323b2aa797f7b7b45d" target="_top" xlink:title="logString">
<polygon fill="white" stroke="black" points="620,-6 620,-25 675,-25 675,-6 620,-6"/>
<text text-anchor="middle" x="647.5" y="-13" font-family="Helvetica,sans-Serif" font-size="10.00">logString</text>
</a>
</g>
</g>
<!-- Node134&#45;&gt;Node135 -->
<g id="edge4" class="edge"><title>Node134&#45;&gt;Node135</title>
<path fill="none" stroke="midnightblue" d="M594.175,-15.5C603.331,-15.5 612.215,-15.5 619.985,-15.5"/>
<polygon fill="midnightblue" stroke="midnightblue" points="594.173,-12.0001 584.173,-15.5 594.173,-19.0001 594.173,-12.0001"/>
</g>
</g>
</svg>
