<?xml version="1.0" encoding="UTF-8" standalone="no"?>
<!DOCTYPE svg PUBLIC "-//W3C//DTD SVG 1.1//EN"
 "http://www.w3.org/Graphics/SVG/1.1/DTD/svg11.dtd">
<!-- Generated by graphviz version 2.38.0 (20140413.2041)
 -->
<!-- Title: CScriptDictionary::Get Pages: 1 -->
<!--zoomable 137 -->
<svg id="main" version="1.1" xmlns="http://www.w3.org/2000/svg" xmlns:xlink="http://www.w3.org/1999/xlink" xml:space="preserve" onload="init(evt)">
<style type="text/css"><![CDATA[
.edge:hover path { stroke: red; }
.edge:hover polygon { stroke: red; fill: red; }
]]></style>
<script type="text/javascript"><![CDATA[
var edges = document.getElementsByTagName('g');
if (edges && edges.length) {
  for (var i=0;i<edges.length;i++) {
    if (edges[i].id.substr(0,4)=='edge') {
      edges[i].setAttribute('class','edge');
    }
  }
}
]]></script>
        <defs>
                <circle id="rim" cx="0" cy="0" r="7"/>
                <circle id="rim2" cx="0" cy="0" r="3.5"/>
                <g id="zoomPlus">
                        <use xlink:href="#rim" fill="#404040">
                                <set attributeName="fill" to="#808080" begin="zoomplus.mouseover" end="zoomplus.mouseout"/>
                        </use>
                        <path d="M-4,0h8M0,-4v8" fill="none" stroke="white" stroke-width="1.5" pointer-events="none"/>
                </g>
                <g id="zoomMin">
                        <use xlink:href="#rim" fill="#404040">
                                <set attributeName="fill" to="#808080" begin="zoomminus.mouseover" end="zoomminus.mouseout"/>
                        </use>
                        <path d="M-4,0h8" fill="none" stroke="white" stroke-width="1.5" pointer-events="none"/>
                </g>
                <g id="dirArrow">
                        <path fill="none" stroke="white" stroke-width="1.5" d="M0,-3.0v7 M-2.5,-0.5L0,-3.0L2.5,-0.5"/>
                </g>
               <g id="resetDef">
                       <use xlink:href="#rim2" fill="#404040">
                               <set attributeName="fill" to="#808080" begin="reset.mouseover" end="reset.mouseout"/>
                       </use>
               </g>
        </defs>

<script type="text/javascript">
var viewWidth = 678;
var viewHeight = 137;
var sectionId = 'dynsection-6';
</script>
<script xlink:href="../../svgpan.js"/>
<svg id="graph" class="graph">
<g id="viewport">
<title>CScriptDictionary::Get</title>
<polygon fill="white" stroke="none" points="-4,4 -4,-133 674,-133 674,4 -4,4"/>
<!-- Node53 -->
<g id="node1" class="node"><title>Node53</title>
<polygon fill="#bfbfbf" stroke="black" points="0,-55 0,-74 114,-74 114,-55 0,-55"/>
<text text-anchor="middle" x="57" y="-62" font-family="Helvetica,sans-Serif" font-size="10.00">CScriptDictionary::Get</text>
</g>
<!-- Node54 -->
<g id="node2" class="node"><title>Node54</title>
<g id="a_node2"><a xlink:href="../../d0/dc5/scriptdictionary_8cpp.html#aeedb4bd3f71a876e960eded70d26462d" target="_top" xlink:title="ScriptDictionaryGet\l_Generic">
<polygon fill="white" stroke="black" points="156,-98.5 156,-128.5 257,-128.5 257,-98.5 156,-98.5"/>
<text text-anchor="start" x="164" y="-116.5" font-family="Helvetica,sans-Serif" font-size="10.00">ScriptDictionaryGet</text>
<text text-anchor="middle" x="206.5" y="-105.5" font-family="Helvetica,sans-Serif" font-size="10.00">_Generic</text>
</a>
</g>
</g>
<!-- Node53&#45;&gt;Node54 -->
<g id="edge1" class="edge"><title>Node53&#45;&gt;Node54</title>
<path fill="none" stroke="midnightblue" d="M96.2905,-77.2202C115.848,-83.7172 139.771,-91.6645 160.236,-98.463"/>
<polygon fill="midnightblue" stroke="midnightblue" points="97.3831,-73.8952 86.7896,-74.064 95.1762,-80.5382 97.3831,-73.8952"/>
</g>
<!-- Node58 -->
<g id="node6" class="node"><title>Node58</title>
<g id="a_node6"><a xlink:href="../../d0/dc5/scriptdictionary_8cpp.html#a8f882ca432f47eede39c8bd47f2fecec" target="_top" xlink:title="ScriptDictionaryGetInt\l_Generic">
<polygon fill="white" stroke="black" points="150.5,-49.5 150.5,-79.5 262.5,-79.5 262.5,-49.5 150.5,-49.5"/>
<text text-anchor="start" x="158.5" y="-67.5" font-family="Helvetica,sans-Serif" font-size="10.00">ScriptDictionaryGetInt</text>
<text text-anchor="middle" x="206.5" y="-56.5" font-family="Helvetica,sans-Serif" font-size="10.00">_Generic</text>
</a>
</g>
</g>
<!-- Node53&#45;&gt;Node58 -->
<g id="edge5" class="edge"><title>Node53&#45;&gt;Node58</title>
<path fill="none" stroke="midnightblue" d="M124.337,-64.5C133.066,-64.5 141.934,-64.5 150.447,-64.5"/>
<polygon fill="midnightblue" stroke="midnightblue" points="124.184,-61.0001 114.184,-64.5 124.184,-68.0001 124.184,-61.0001"/>
</g>
<!-- Node59 -->
<g id="node7" class="node"><title>Node59</title>
<g id="a_node7"><a xlink:href="../../d0/dc5/scriptdictionary_8cpp.html#ad794b33213ce2522b1a41d4a964f3b15" target="_top" xlink:title="ScriptDictionaryGetFlt\l_Generic">
<polygon fill="white" stroke="black" points="150,-0.5 150,-30.5 263,-30.5 263,-0.5 150,-0.5"/>
<text text-anchor="start" x="158" y="-18.5" font-family="Helvetica,sans-Serif" font-size="10.00">ScriptDictionaryGetFlt</text>
<text text-anchor="middle" x="206.5" y="-7.5" font-family="Helvetica,sans-Serif" font-size="10.00">_Generic</text>
</a>
</g>
</g>
<!-- Node53&#45;&gt;Node59 -->
<g id="edge7" class="edge"><title>Node53&#45;&gt;Node59</title>
<path fill="none" stroke="midnightblue" d="M96.2905,-51.7798C115.848,-45.2828 139.771,-37.3355 160.236,-30.537"/>
<polygon fill="midnightblue" stroke="midnightblue" points="95.1762,-48.4618 86.7896,-54.936 97.3831,-55.1048 95.1762,-48.4618"/>
</g>
<!-- Node55 -->
<g id="node3" class="node"><title>Node55</title>
<g id="a_node3"><a xlink:href="../../df/d67/scriptdictionary_8h.html#af8fc6fbf1a623e6c2ff14605df4e0570" target="_top" xlink:title="RegisterScriptDictionary\l_Generic">
<polygon fill="white" stroke="black" points="299,-49.5 299,-79.5 421,-79.5 421,-49.5 299,-49.5"/>
<text text-anchor="start" x="307" y="-67.5" font-family="Helvetica,sans-Serif" font-size="10.00">RegisterScriptDictionary</text>
<text text-anchor="middle" x="360" y="-56.5" font-family="Helvetica,sans-Serif" font-size="10.00">_Generic</text>
</a>
</g>
</g>
<!-- Node54&#45;&gt;Node55 -->
<g id="edge2" class="edge"><title>Node54&#45;&gt;Node55</title>
<path fill="none" stroke="midnightblue" d="M263.954,-95.2409C279.933,-90.0727 297.14,-84.5076 312.463,-79.5516"/>
<polygon fill="midnightblue" stroke="midnightblue" points="262.629,-91.991 254.191,-98.3986 264.783,-98.6513 262.629,-91.991"/>
</g>
<!-- Node56 -->
<g id="node4" class="node"><title>Node56</title>
<g id="a_node4"><a xlink:href="../../df/d67/scriptdictionary_8h.html#abf884a3f2b4b07a009c5fc055b48f901" target="_top" xlink:title="RegisterScriptDictionary">
<polygon fill="white" stroke="black" points="457,-55 457,-74 579,-74 579,-55 457,-55"/>
<text text-anchor="middle" x="518" y="-62" font-family="Helvetica,sans-Serif" font-size="10.00">RegisterScriptDictionary</text>
</a>
</g>
</g>
<!-- Node55&#45;&gt;Node56 -->
<g id="edge3" class="edge"><title>Node55&#45;&gt;Node56</title>
<path fill="none" stroke="midnightblue" d="M431.538,-64.5C439.99,-64.5 448.56,-64.5 456.847,-64.5"/>
<polygon fill="midnightblue" stroke="midnightblue" points="431.314,-61.0001 421.314,-64.5 431.314,-68.0001 431.314,-61.0001"/>
</g>
<!-- Node57 -->
<g id="node5" class="node"><title>Node57</title>
<g id="a_node5"><a xlink:href="../../d4/d5f/_script_engine_8cpp.html#a72e7735b6ca109323b2aa797f7b7b45d" target="_top" xlink:title="logString">
<polygon fill="white" stroke="black" points="615,-55 615,-74 670,-74 670,-55 615,-55"/>
<text text-anchor="middle" x="642.5" y="-62" font-family="Helvetica,sans-Serif" font-size="10.00">logString</text>
</a>
</g>
</g>
<!-- Node56&#45;&gt;Node57 -->
<g id="edge4" class="edge"><title>Node56&#45;&gt;Node57</title>
<path fill="none" stroke="midnightblue" d="M589.175,-64.5C598.331,-64.5 607.215,-64.5 614.985,-64.5"/>
<polygon fill="midnightblue" stroke="midnightblue" points="589.173,-61.0001 579.173,-64.5 589.173,-68.0001 589.173,-61.0001"/>
</g>
<!-- Node58&#45;&gt;Node55 -->
<g id="edge6" class="edge"><title>Node58&#45;&gt;Node55</title>
<path fill="none" stroke="midnightblue" d="M272.689,-64.5C281.36,-64.5 290.22,-64.5 298.801,-64.5"/>
<polygon fill="midnightblue" stroke="midnightblue" points="272.624,-61.0001 262.624,-64.5 272.624,-68.0001 272.624,-61.0001"/>
</g>
<!-- Node59&#45;&gt;Node55 -->
<g id="edge8" class="edge"><title>Node59&#45;&gt;Node55</title>
<path fill="none" stroke="midnightblue" d="M263.954,-33.7591C279.933,-38.9273 297.14,-44.4924 312.463,-49.4484"/>
<polygon fill="midnightblue" stroke="midnightblue" points="264.783,-30.3487 254.191,-30.6014 262.629,-37.009 264.783,-30.3487"/>
</g>
</g>
</svg>
        <g id="navigator" transform="translate(0 0)" fill="#404254">
                <rect fill="#f2f5e9" fill-opacity="0.5" stroke="#606060" stroke-width=".5" x="0" y="0" width="60" height="60"/>
                <use id="zoomplus" xlink:href="#zoomPlus" x="17" y="9" onmousedown="handleZoom(evt,'in')"/>
                <use id="zoomminus" xlink:href="#zoomMin" x="42" y="9" onmousedown="handleZoom(evt,'out')"/>
                <use id="reset" xlink:href="#resetDef" x="30" y="36" onmousedown="handleReset()"/>
                <g id="arrowUp" xlink:href="#dirArrow" transform="translate(30 24)" onmousedown="handlePan(0,-1)">
                  <use xlink:href="#rim" fill="#404040">
                        <set attributeName="fill" to="#808080" begin="arrowUp.mouseover" end="arrowUp.mouseout"/>
                  </use>
                  <path fill="none" stroke="white" stroke-width="1.5" d="M0,-3.0v7 M-2.5,-0.5L0,-3.0L2.5,-0.5"/>
                </g>
                <g id="arrowRight" xlink:href="#dirArrow" transform="rotate(90) translate(36 -43)" onmousedown="handlePan(1,0)">
                  <use xlink:href="#rim" fill="#404040">
                        <set attributeName="fill" to="#808080" begin="arrowRight.mouseover" end="arrowRight.mouseout"/>
                  </use>
                  <path fill="none" stroke="white" stroke-width="1.5" d="M0,-3.0v7 M-2.5,-0.5L0,-3.0L2.5,-0.5"/>
                </g>
                <g id="arrowDown" xlink:href="#dirArrow" transform="rotate(180) translate(-30 -48)" onmousedown="handlePan(0,1)">
                  <use xlink:href="#rim" fill="#404040">
                        <set attributeName="fill" to="#808080" begin="arrowDown.mouseover" end="arrowDown.mouseout"/>
                  </use>
                  <path fill="none" stroke="white" stroke-width="1.5" d="M0,-3.0v7 M-2.5,-0.5L0,-3.0L2.5,-0.5"/>
                </g>
                <g id="arrowLeft" xlink:href="#dirArrow" transform="rotate(270) translate(-36 17)" onmousedown="handlePan(-1,0)">
                  <use xlink:href="#rim" fill="#404040">
                        <set attributeName="fill" to="#808080" begin="arrowLeft.mouseover" end="arrowLeft.mouseout"/>
                  </use>
                  <path fill="none" stroke="white" stroke-width="1.5" d="M0,-3.0v7 M-2.5,-0.5L0,-3.0L2.5,-0.5"/>
                </g>
        </g>
        <svg viewBox="0 0 15 15" width="100%" height="30px" preserveAspectRatio="xMaxYMin meet">
         <g id="arrow_out" transform="scale(0.3 0.3)">
          <a xlink:href="class_c_script_dictionary_a1e6e31579b02eb2231b40e6cde7638f4_icgraph_org.svg" target="_base">
           <rect id="button" ry="5" rx="5" y="6" x="6" height="38" width="38"
                fill="#f2f5e9" fill-opacity="0.5" stroke="#606060" stroke-width="1.0"/>
           <path id="arrow"
             d="M 11.500037,31.436501 C 11.940474,20.09759 22.043105,11.32322 32.158766,21.979434 L 37.068811,17.246167 C 37.068811,17.246167 37.088388,32 37.088388,32 L 22.160133,31.978069 C 22.160133,31.978069 26.997745,27.140456 26.997745,27.140456 C 18.528582,18.264221 13.291696,25.230495 11.500037,31.436501 z"
             style="fill:#404040;"/>
          </a>
         </g>
        </svg>
</svg>
