<?xml version="1.0" encoding="UTF-8" standalone="no"?>
<!DOCTYPE svg PUBLIC "-//W3C//DTD SVG 1.1//EN"
 "http://www.w3.org/Graphics/SVG/1.1/DTD/svg11.dtd">
<!-- Generated by graphviz version 2.38.0 (20140413.2041)
 -->
<!-- Title: source/main/gui/panels/GUI_GameChatBox.h Pages: 1 -->
<!--zoomable 431 -->
<svg id="main" version="1.1" xmlns="http://www.w3.org/2000/svg" xmlns:xlink="http://www.w3.org/1999/xlink" xml:space="preserve" onload="init(evt)">
<style type="text/css"><![CDATA[
.edge:hover path { stroke: red; }
.edge:hover polygon { stroke: red; fill: red; }
]]></style>
<script type="text/javascript"><![CDATA[
var edges = document.getElementsByTagName('g');
if (edges && edges.length) {
  for (var i=0;i<edges.length;i++) {
    if (edges[i].id.substr(0,4)=='edge') {
      edges[i].setAttribute('class','edge');
    }
  }
}
]]></script>
        <defs>
                <circle id="rim" cx="0" cy="0" r="7"/>
                <circle id="rim2" cx="0" cy="0" r="3.5"/>
                <g id="zoomPlus">
                        <use xlink:href="#rim" fill="#404040">
                                <set attributeName="fill" to="#808080" begin="zoomplus.mouseover" end="zoomplus.mouseout"/>
                        </use>
                        <path d="M-4,0h8M0,-4v8" fill="none" stroke="white" stroke-width="1.5" pointer-events="none"/>
                </g>
                <g id="zoomMin">
                        <use xlink:href="#rim" fill="#404040">
                                <set attributeName="fill" to="#808080" begin="zoomminus.mouseover" end="zoomminus.mouseout"/>
                        </use>
                        <path d="M-4,0h8" fill="none" stroke="white" stroke-width="1.5" pointer-events="none"/>
                </g>
                <g id="dirArrow">
                        <path fill="none" stroke="white" stroke-width="1.5" d="M0,-3.0v7 M-2.5,-0.5L0,-3.0L2.5,-0.5"/>
                </g>
               <g id="resetDef">
                       <use xlink:href="#rim2" fill="#404040">
                               <set attributeName="fill" to="#808080" begin="reset.mouseover" end="reset.mouseout"/>
                       </use>
               </g>
        </defs>

<script type="text/javascript">
var viewWidth = 1820;
var viewHeight = 431;
var sectionId = 'dynsection-0';
</script>
<script xlink:href="../../svgpan.js"/>
<svg id="graph" class="graph">
<g id="viewport">
<title>source/main/gui/panels/GUI_GameChatBox.h</title>
<polygon fill="white" stroke="none" points="-4,4 -4,-427 1816,-427 1816,4 -4,4"/>
<!-- Node0 -->
<g id="node1" class="node"><title>Node0</title>
<polygon fill="#bfbfbf" stroke="black" points="0,-392.5 0,-422.5 117,-422.5 117,-392.5 0,-392.5"/>
<text text-anchor="start" x="8" y="-410.5" font-family="Helvetica,sans-Serif" font-size="10.00">source/main/gui/panels</text>
<text text-anchor="middle" x="58.5" y="-399.5" font-family="Helvetica,sans-Serif" font-size="10.00">/GUI_GameChatBox.h</text>
</g>
<!-- Node1 -->
<g id="node2" class="node"><title>Node1</title>
<g id="a_node2"><a xlink:href="../../d3/d73/_forward_declarations_8h.html" target="_top" xlink:title="Global forward declarations. ">
<polygon fill="white" stroke="black" points="10,-0.5 10,-19.5 123,-19.5 123,-0.5 10,-0.5"/>
<text text-anchor="middle" x="66.5" y="-7.5" font-family="Helvetica,sans-Serif" font-size="10.00">ForwardDeclarations.h</text>
</a>
</g>
</g>
<!-- Node0&#45;&gt;Node1 -->
<g id="edge1" class="edge"><title>Node0&#45;&gt;Node1</title>
<path fill="none" stroke="midnightblue" d="M48.1084,-392.372C33.7249,-371.381 9.5,-330.208 9.5,-291 9.5,-291 9.5,-291 9.5,-121 9.5,-84.3005 34.821,-47.6567 51.7099,-27.2973"/>
<polygon fill="midnightblue" stroke="midnightblue" points="54.4535,-29.475 58.3333,-19.6161 49.1522,-24.9037 54.4535,-29.475"/>
</g>
<!-- Node2 -->
<g id="node3" class="node"><title>Node2</title>
<g id="a_node3"><a xlink:href="../../d3/d6a/_g_u_i___game_chat_box_layout_8h.html" target="_top" xlink:title="GUI_GameChatBoxLayout.h">
<polygon fill="white" stroke="black" points="37.5,-336.5 37.5,-355.5 177.5,-355.5 177.5,-336.5 37.5,-336.5"/>
<text text-anchor="middle" x="107.5" y="-343.5" font-family="Helvetica,sans-Serif" font-size="10.00">GUI_GameChatBoxLayout.h</text>
</a>
</g>
</g>
<!-- Node0&#45;&gt;Node2 -->
<g id="edge2" class="edge"><title>Node0&#45;&gt;Node2</title>
<path fill="none" stroke="midnightblue" d="M70.1123,-392.399C77.2326,-383.753 86.3831,-372.642 93.8492,-363.576"/>
<polygon fill="midnightblue" stroke="midnightblue" points="96.7147,-365.602 100.37,-355.658 91.3112,-361.152 96.7147,-365.602"/>
</g>
<!-- Node2&#45;&gt;Node1 -->
<g id="edge3" class="edge"><title>Node2&#45;&gt;Node1</title>
<path fill="none" stroke="midnightblue" d="M98.9035,-336.465C82.3129,-319.039 47.5,-277.419 47.5,-235 47.5,-235 47.5,-235 47.5,-121 47.5,-88.4885 55.659,-51.3503 61.2838,-29.6103"/>
<polygon fill="midnightblue" stroke="midnightblue" points="64.718,-30.3175 63.9376,-19.7514 57.9586,-28.498 64.718,-30.3175"/>
</g>
<!-- Node3 -->
<g id="node4" class="node"><title>Node3</title>
<g id="a_node4"><a xlink:href="../../d8/d63/_base_layout_8h.html" target="_top" xlink:title="BaseLayout.h">
<polygon fill="white" stroke="black" points="707,-280.5 707,-299.5 784,-299.5 784,-280.5 707,-280.5"/>
<text text-anchor="middle" x="745.5" y="-287.5" font-family="Helvetica,sans-Serif" font-size="10.00">BaseLayout.h</text>
</a>
</g>
</g>
<!-- Node2&#45;&gt;Node3 -->
<g id="edge4" class="edge"><title>Node2&#45;&gt;Node3</title>
<path fill="none" stroke="midnightblue" d="M177.602,-339.067C308.028,-328.027 584.874,-304.595 696.915,-295.112"/>
<polygon fill="midnightblue" stroke="midnightblue" points="697.248,-298.597 706.917,-294.266 696.657,-291.622 697.248,-298.597"/>
</g>
<!-- Node4 -->
<g id="node5" class="node"><title>Node4</title>
<g id="a_node5"><a xlink:href="../../d8/d9c/_ro_r_prerequisites_8h.html" target="_top" xlink:title="RoRPrerequisites.h">
<polygon fill="white" stroke="black" points="817,-112.5 817,-131.5 918,-131.5 918,-112.5 817,-112.5"/>
<text text-anchor="middle" x="867.5" y="-119.5" font-family="Helvetica,sans-Serif" font-size="10.00">RoRPrerequisites.h</text>
</a>
</g>
</g>
<!-- Node3&#45;&gt;Node4 -->
<g id="edge5" class="edge"><title>Node3&#45;&gt;Node4</title>
<path fill="none" stroke="midnightblue" d="M742.467,-280.403C735.545,-259.119 720.995,-203.157 745.5,-168 759.563,-147.824 783.749,-136.671 806.896,-130.515"/>
<polygon fill="midnightblue" stroke="midnightblue" points="807.806,-133.896 816.721,-128.17 806.181,-127.087 807.806,-133.896"/>
</g>
<!-- Node21 -->
<g id="node22" class="node"><title>Node21</title>
<polygon fill="white" stroke="#bfbfbf" points="755,-168.5 755,-187.5 810,-187.5 810,-168.5 755,-168.5"/>
<text text-anchor="middle" x="782.5" y="-175.5" font-family="Helvetica,sans-Serif" font-size="10.00">MyGUI.h</text>
</g>
<!-- Node3&#45;&gt;Node21 -->
<g id="edge24" class="edge"><title>Node3&#45;&gt;Node21</title>
<path fill="none" stroke="midnightblue" d="M748.403,-280.368C754.401,-262.537 768.273,-221.295 776.354,-197.272"/>
<polygon fill="midnightblue" stroke="midnightblue" points="779.739,-198.185 779.61,-187.591 773.105,-195.954 779.739,-198.185"/>
</g>
<!-- Node22 -->
<g id="node23" class="node"><title>Node22</title>
<g id="a_node23"><a xlink:href="../../d9/dfd/_wraps_attribute_8h.html" target="_top" xlink:title="WrapsAttribute.h">
<polygon fill="white" stroke="black" points="792.5,-224.5 792.5,-243.5 882.5,-243.5 882.5,-224.5 792.5,-224.5"/>
<text text-anchor="middle" x="837.5" y="-231.5" font-family="Helvetica,sans-Serif" font-size="10.00">WrapsAttribute.h</text>
</a>
</g>
</g>
<!-- Node3&#45;&gt;Node22 -->
<g id="edge25" class="edge"><title>Node3&#45;&gt;Node22</title>
<path fill="none" stroke="midnightblue" d="M760.281,-280.324C774.767,-271.822 797.073,-258.729 813.993,-248.797"/>
<polygon fill="midnightblue" stroke="midnightblue" points="815.903,-251.735 822.755,-243.655 812.359,-245.698 815.903,-251.735"/>
</g>
<!-- Node4&#45;&gt;Node1 -->
<g id="edge17" class="edge"><title>Node4&#45;&gt;Node1</title>
<path fill="none" stroke="midnightblue" d="M816.951,-120.758C656.383,-119.613 164.939,-113.084 104.5,-76 87.6448,-65.6582 77.4404,-44.8404 71.9124,-29.5395"/>
<polygon fill="midnightblue" stroke="midnightblue" points="75.1029,-28.0319 68.6854,-19.6018 68.4451,-30.1939 75.1029,-28.0319"/>
</g>
<!-- Node5 -->
<g id="node6" class="node"><title>Node5</title>
<polygon fill="white" stroke="#bfbfbf" points="114,-56.5 114,-75.5 217,-75.5 217,-56.5 114,-56.5"/>
<text text-anchor="middle" x="165.5" y="-63.5" font-family="Helvetica,sans-Serif" font-size="10.00">OgrePrerequisites.h</text>
</g>
<!-- Node4&#45;&gt;Node5 -->
<g id="edge6" class="edge"><title>Node4&#45;&gt;Node5</title>
<path fill="none" stroke="midnightblue" d="M816.61,-118.8C709.454,-113.872 452.523,-100.5 227.204,-76.1111"/>
<polygon fill="midnightblue" stroke="midnightblue" points="227.498,-72.6224 217.177,-75.0161 226.738,-79.5811 227.498,-72.6224"/>
</g>
<!-- Node6 -->
<g id="node7" class="node"><title>Node6</title>
<polygon fill="white" stroke="#bfbfbf" points="235,-56.5 235,-75.5 350,-75.5 350,-56.5 235,-56.5"/>
<text text-anchor="middle" x="292.5" y="-63.5" font-family="Helvetica,sans-Serif" font-size="10.00">OgreAxisAlignedBox.h</text>
</g>
<!-- Node4&#45;&gt;Node6 -->
<g id="edge7" class="edge"><title>Node4&#45;&gt;Node6</title>
<path fill="none" stroke="midnightblue" d="M816.952,-117.283C727.277,-110.523 534.226,-95.222 360.328,-76.0435"/>
<polygon fill="midnightblue" stroke="midnightblue" points="360.548,-72.5466 350.223,-74.9223 359.776,-79.5039 360.548,-72.5466"/>
</g>
<!-- Node7 -->
<g id="node8" class="node"><title>Node7</title>
<polygon fill="white" stroke="#bfbfbf" points="368.5,-56.5 368.5,-75.5 466.5,-75.5 466.5,-56.5 368.5,-56.5"/>
<text text-anchor="middle" x="417.5" y="-63.5" font-family="Helvetica,sans-Serif" font-size="10.00">OgreColourValue.h</text>
</g>
<!-- Node4&#45;&gt;Node7 -->
<g id="edge8" class="edge"><title>Node4&#45;&gt;Node7</title>
<path fill="none" stroke="midnightblue" d="M816.988,-115.849C744.151,-108.278 605.154,-93.2966 476.556,-76.0963"/>
<polygon fill="midnightblue" stroke="midnightblue" points="476.905,-72.6119 466.528,-74.7476 475.972,-79.5494 476.905,-72.6119"/>
</g>
<!-- Node8 -->
<g id="node9" class="node"><title>Node8</title>
<polygon fill="white" stroke="#bfbfbf" points="485,-56.5 485,-75.5 586,-75.5 586,-56.5 485,-56.5"/>
<text text-anchor="middle" x="535.5" y="-63.5" font-family="Helvetica,sans-Serif" font-size="10.00">OgreHeaderPrefix.h</text>
</g>
<!-- Node4&#45;&gt;Node8 -->
<g id="edge9" class="edge"><title>Node4&#45;&gt;Node8</title>
<path fill="none" stroke="midnightblue" d="M816.715,-112.74C757.438,-103.098 659.483,-87.1659 596.235,-76.8786"/>
<polygon fill="midnightblue" stroke="midnightblue" points="596.439,-73.3659 586.007,-75.215 595.316,-80.2751 596.439,-73.3659"/>
</g>
<!-- Node9 -->
<g id="node10" class="node"><title>Node9</title>
<polygon fill="white" stroke="#bfbfbf" points="604,-56.5 604,-75.5 703,-75.5 703,-56.5 604,-56.5"/>
<text text-anchor="middle" x="653.5" y="-63.5" font-family="Helvetica,sans-Serif" font-size="10.00">OgreLogManager.h</text>
</g>
<!-- Node4&#45;&gt;Node9 -->
<g id="edge10" class="edge"><title>Node4&#45;&gt;Node9</title>
<path fill="none" stroke="midnightblue" d="M833.591,-112.444C796.651,-103.122 737.446,-88.1828 697.082,-77.9972"/>
<polygon fill="midnightblue" stroke="midnightblue" points="697.803,-74.5695 687.25,-75.5164 696.09,-81.3568 697.803,-74.5695"/>
</g>
<!-- Node10 -->
<g id="node11" class="node"><title>Node10</title>
<polygon fill="white" stroke="#bfbfbf" points="721,-56.5 721,-75.5 814,-75.5 814,-56.5 721,-56.5"/>
<text text-anchor="middle" x="767.5" y="-63.5" font-family="Helvetica,sans-Serif" font-size="10.00">OgreQuaternion.h</text>
</g>
<!-- Node4&#45;&gt;Node10 -->
<g id="edge11" class="edge"><title>Node4&#45;&gt;Node10</title>
<path fill="none" stroke="midnightblue" d="M851.433,-112.324C835.542,-103.743 810.993,-90.486 792.542,-80.5224"/>
<polygon fill="midnightblue" stroke="midnightblue" points="793.989,-77.3264 783.527,-75.6545 790.663,-83.4857 793.989,-77.3264"/>
</g>
<!-- Node11 -->
<g id="node12" class="node"><title>Node11</title>
<polygon fill="white" stroke="#bfbfbf" points="832,-56.5 832,-75.5 903,-75.5 903,-56.5 832,-56.5"/>
<text text-anchor="middle" x="867.5" y="-63.5" font-family="Helvetica,sans-Serif" font-size="10.00">OgreString.h</text>
</g>
<!-- Node4&#45;&gt;Node11 -->
<g id="edge12" class="edge"><title>Node4&#45;&gt;Node11</title>
<path fill="none" stroke="midnightblue" d="M867.5,-112.083C867.5,-105.006 867.5,-94.8611 867.5,-85.9865"/>
<polygon fill="midnightblue" stroke="midnightblue" points="871,-85.751 867.5,-75.7511 864,-85.7511 871,-85.751"/>
</g>
<!-- Node12 -->
<g id="node13" class="node"><title>Node12</title>
<polygon fill="white" stroke="#bfbfbf" points="921.5,-56.5 921.5,-75.5 1033.5,-75.5 1033.5,-56.5 921.5,-56.5"/>
<text text-anchor="middle" x="977.5" y="-63.5" font-family="Helvetica,sans-Serif" font-size="10.00">OgreStringConverter.h</text>
</g>
<!-- Node4&#45;&gt;Node12 -->
<g id="edge13" class="edge"><title>Node4&#45;&gt;Node12</title>
<path fill="none" stroke="midnightblue" d="M885.173,-112.324C902.894,-103.625 930.403,-90.1202 950.788,-80.113"/>
<polygon fill="midnightblue" stroke="midnightblue" points="952.436,-83.2031 959.87,-75.6545 949.351,-76.9195 952.436,-83.2031"/>
</g>
<!-- Node13 -->
<g id="node14" class="node"><title>Node13</title>
<polygon fill="white" stroke="#bfbfbf" points="1052,-56.5 1052,-75.5 1141,-75.5 1141,-56.5 1052,-56.5"/>
<text text-anchor="middle" x="1096.5" y="-63.5" font-family="Helvetica,sans-Serif" font-size="10.00">OgreUTFString.h</text>
</g>
<!-- Node4&#45;&gt;Node13 -->
<g id="edge14" class="edge"><title>Node4&#45;&gt;Node13</title>
<path fill="none" stroke="midnightblue" d="M903.786,-112.444C943.483,-103.083 1007.21,-88.0561 1050.41,-77.868"/>
<polygon fill="midnightblue" stroke="midnightblue" points="1051.45,-81.2182 1060.38,-75.5164 1049.85,-74.4051 1051.45,-81.2182"/>
</g>
<!-- Node14 -->
<g id="node15" class="node"><title>Node14</title>
<polygon fill="white" stroke="#bfbfbf" points="1159.5,-56.5 1159.5,-75.5 1239.5,-75.5 1239.5,-56.5 1159.5,-56.5"/>
<text text-anchor="middle" x="1199.5" y="-63.5" font-family="Helvetica,sans-Serif" font-size="10.00">OgreVector2.h</text>
</g>
<!-- Node4&#45;&gt;Node14 -->
<g id="edge15" class="edge"><title>Node4&#45;&gt;Node14</title>
<path fill="none" stroke="midnightblue" d="M918.171,-113.317C972.742,-104.959 1062.39,-90.988 1149.36,-76.1632"/>
<polygon fill="midnightblue" stroke="midnightblue" points="1150.14,-79.5815 1159.4,-74.4456 1148.96,-72.6817 1150.14,-79.5815"/>
</g>
<!-- Node15 -->
<g id="node16" class="node"><title>Node15</title>
<polygon fill="white" stroke="#bfbfbf" points="1257.5,-56.5 1257.5,-75.5 1337.5,-75.5 1337.5,-56.5 1257.5,-56.5"/>
<text text-anchor="middle" x="1297.5" y="-63.5" font-family="Helvetica,sans-Serif" font-size="10.00">OgreVector3.h</text>
</g>
<!-- Node4&#45;&gt;Node15 -->
<g id="edge16" class="edge"><title>Node4&#45;&gt;Node15</title>
<path fill="none" stroke="midnightblue" d="M918.174,-116.059C989.379,-108.885 1123.31,-94.5519 1247.37,-76.0863"/>
<polygon fill="midnightblue" stroke="midnightblue" points="1248.05,-79.5226 1257.42,-74.577 1247.01,-72.6001 1248.05,-79.5226"/>
</g>
<!-- Node16 -->
<g id="node17" class="node"><title>Node16</title>
<g id="a_node17"><a xlink:href="../../d7/dfa/_global_environment_8h.html" target="_top" xlink:title="GlobalEnvironment.h">
<polygon fill="white" stroke="black" points="1355.5,-56.5 1355.5,-75.5 1461.5,-75.5 1461.5,-56.5 1355.5,-56.5"/>
<text text-anchor="middle" x="1408.5" y="-63.5" font-family="Helvetica,sans-Serif" font-size="10.00">GlobalEnvironment.h</text>
</a>
</g>
</g>
<!-- Node4&#45;&gt;Node16 -->
<g id="edge18" class="edge"><title>Node4&#45;&gt;Node16</title>
<path fill="none" stroke="midnightblue" d="M918.281,-117.077C1004.04,-110.267 1183.24,-95.2369 1345.27,-76.0923"/>
<polygon fill="midnightblue" stroke="midnightblue" points="1345.91,-79.5413 1355.42,-74.8844 1345.08,-72.5903 1345.91,-79.5413"/>
</g>
<!-- Node17 -->
<g id="node18" class="node"><title>Node17</title>
<g id="a_node18"><a xlink:href="../../dc/de5/_zeroed_memory_allocator_8h.html" target="_top" xlink:title="ZeroedMemoryAllocator.h">
<polygon fill="white" stroke="black" points="1479.5,-56.5 1479.5,-75.5 1607.5,-75.5 1607.5,-56.5 1479.5,-56.5"/>
<text text-anchor="middle" x="1543.5" y="-63.5" font-family="Helvetica,sans-Serif" font-size="10.00">ZeroedMemoryAllocator.h</text>
</a>
</g>
</g>
<!-- Node4&#45;&gt;Node17 -->
<g id="edge20" class="edge"><title>Node4&#45;&gt;Node17</title>
<path fill="none" stroke="midnightblue" d="M918.396,-118.032C1020.68,-111.888 1258.67,-96.6838 1469.41,-76.0628"/>
<polygon fill="midnightblue" stroke="midnightblue" points="1469.82,-79.5399 1479.43,-75.0768 1469.13,-72.5736 1469.82,-79.5399"/>
</g>
<!-- Node18 -->
<g id="node19" class="node"><title>Node18</title>
<g id="a_node19"><a xlink:href="../../d7/d85/_bit_flags_8h.html" target="_top" xlink:title="BitFlags.h">
<polygon fill="white" stroke="black" points="1626,-56.5 1626,-75.5 1687,-75.5 1687,-56.5 1626,-56.5"/>
<text text-anchor="middle" x="1656.5" y="-63.5" font-family="Helvetica,sans-Serif" font-size="10.00">BitFlags.h</text>
</a>
</g>
</g>
<!-- Node4&#45;&gt;Node18 -->
<g id="edge21" class="edge"><title>Node4&#45;&gt;Node18</title>
<path fill="none" stroke="midnightblue" d="M918.191,-120.767C1037.98,-119.613 1347.94,-113.1 1615.68,-75.8685"/>
<polygon fill="midnightblue" stroke="midnightblue" points="1616.17,-79.3339 1625.58,-74.4741 1615.19,-72.4022 1616.17,-79.3339"/>
</g>
<!-- Node20 -->
<g id="node21" class="node"><title>Node20</title>
<polygon fill="white" stroke="#bfbfbf" points="1705,-56.5 1705,-75.5 1812,-75.5 1812,-56.5 1705,-56.5"/>
<text text-anchor="middle" x="1758.5" y="-63.5" font-family="Helvetica,sans-Serif" font-size="10.00">MyGUI_Prerequest.h</text>
</g>
<!-- Node4&#45;&gt;Node20 -->
<g id="edge23" class="edge"><title>Node4&#45;&gt;Node20</title>
<path fill="none" stroke="midnightblue" d="M918.087,-119.838C1046.3,-116.552 1394.54,-105.513 1694.56,-76.1105"/>
<polygon fill="midnightblue" stroke="midnightblue" points="1695.16,-79.5686 1704.77,-75.1015 1694.47,-72.6026 1695.16,-79.5686"/>
</g>
<!-- Node16&#45;&gt;Node1 -->
<g id="edge19" class="edge"><title>Node16&#45;&gt;Node1</title>
<path fill="none" stroke="midnightblue" d="M1355.44,-56.9104C1352.42,-56.5705 1349.42,-56.2629 1346.5,-56 883.57,-14.3877 323.241,-10.7282 133.207,-10.7862"/>
<polygon fill="midnightblue" stroke="midnightblue" points="133.095,-7.2862 123.097,-10.793 133.099,-14.2862 133.095,-7.2862"/>
</g>
<!-- Node19 -->
<g id="node20" class="node"><title>Node19</title>
<polygon fill="white" stroke="#bfbfbf" points="1633.5,-0.5 1633.5,-19.5 1679.5,-19.5 1679.5,-0.5 1633.5,-0.5"/>
<text text-anchor="middle" x="1656.5" y="-7.5" font-family="Helvetica,sans-Serif" font-size="10.00">cstdint</text>
</g>
<!-- Node18&#45;&gt;Node19 -->
<g id="edge22" class="edge"><title>Node18&#45;&gt;Node19</title>
<path fill="none" stroke="midnightblue" d="M1656.5,-56.083C1656.5,-49.0059 1656.5,-38.8611 1656.5,-29.9865"/>
<polygon fill="midnightblue" stroke="midnightblue" points="1660,-29.751 1656.5,-19.7511 1653,-29.7511 1660,-29.751"/>
</g>
<!-- Node22&#45;&gt;Node4 -->
<g id="edge26" class="edge"><title>Node22&#45;&gt;Node4</title>
<path fill="none" stroke="midnightblue" d="M839.854,-224.368C844.717,-206.537 855.965,-165.295 862.517,-141.272"/>
<polygon fill="midnightblue" stroke="midnightblue" points="865.902,-142.16 865.157,-131.591 859.149,-140.318 865.902,-142.16"/>
</g>
<!-- Node22&#45;&gt;Node21 -->
<g id="edge27" class="edge"><title>Node22&#45;&gt;Node21</title>
<path fill="none" stroke="midnightblue" d="M828.418,-224.083C820.329,-216.141 808.305,-204.335 798.59,-194.797"/>
<polygon fill="midnightblue" stroke="midnightblue" points="801.001,-192.26 791.413,-187.751 796.097,-197.254 801.001,-192.26"/>
</g>
<!-- Node23 -->
<g id="node24" class="node"><title>Node23</title>
<g id="a_node24"><a xlink:href="../../d8/d8c/_attribute_8h.html" target="_top" xlink:title="Attribute.h">
<polygon fill="white" stroke="black" points="866.5,-168.5 866.5,-187.5 928.5,-187.5 928.5,-168.5 866.5,-168.5"/>
<text text-anchor="middle" x="897.5" y="-175.5" font-family="Helvetica,sans-Serif" font-size="10.00">Attribute.h</text>
</a>
</g>
</g>
<!-- Node22&#45;&gt;Node23 -->
<g id="edge28" class="edge"><title>Node22&#45;&gt;Node23</title>
<path fill="none" stroke="midnightblue" d="M847.14,-224.324C856.01,-216.341 869.375,-204.313 880.108,-194.653"/>
<polygon fill="midnightblue" stroke="midnightblue" points="882.593,-197.125 887.685,-187.834 877.91,-191.922 882.593,-197.125"/>
</g>
<!-- Node23&#45;&gt;Node4 -->
<g id="edge29" class="edge"><title>Node23&#45;&gt;Node4</title>
<path fill="none" stroke="midnightblue" d="M892.546,-168.083C888.396,-160.613 882.347,-149.724 877.233,-140.52"/>
<polygon fill="midnightblue" stroke="midnightblue" points="880.278,-138.793 872.362,-131.751 874.159,-142.192 880.278,-138.793"/>
</g>
</g>
</svg>
        <g id="navigator" transform="translate(0 0)" fill="#404254">
                <rect fill="#f2f5e9" fill-opacity="0.5" stroke="#606060" stroke-width=".5" x="0" y="0" width="60" height="60"/>
                <use id="zoomplus" xlink:href="#zoomPlus" x="17" y="9" onmousedown="handleZoom(evt,'in')"/>
                <use id="zoomminus" xlink:href="#zoomMin" x="42" y="9" onmousedown="handleZoom(evt,'out')"/>
                <use id="reset" xlink:href="#resetDef" x="30" y="36" onmousedown="handleReset()"/>
                <g id="arrowUp" xlink:href="#dirArrow" transform="translate(30 24)" onmousedown="handlePan(0,-1)">
                  <use xlink:href="#rim" fill="#404040">
                        <set attributeName="fill" to="#808080" begin="arrowUp.mouseover" end="arrowUp.mouseout"/>
                  </use>
                  <path fill="none" stroke="white" stroke-width="1.5" d="M0,-3.0v7 M-2.5,-0.5L0,-3.0L2.5,-0.5"/>
                </g>
                <g id="arrowRight" xlink:href="#dirArrow" transform="rotate(90) translate(36 -43)" onmousedown="handlePan(1,0)">
                  <use xlink:href="#rim" fill="#404040">
                        <set attributeName="fill" to="#808080" begin="arrowRight.mouseover" end="arrowRight.mouseout"/>
                  </use>
                  <path fill="none" stroke="white" stroke-width="1.5" d="M0,-3.0v7 M-2.5,-0.5L0,-3.0L2.5,-0.5"/>
                </g>
                <g id="arrowDown" xlink:href="#dirArrow" transform="rotate(180) translate(-30 -48)" onmousedown="handlePan(0,1)">
                  <use xlink:href="#rim" fill="#404040">
                        <set attributeName="fill" to="#808080" begin="arrowDown.mouseover" end="arrowDown.mouseout"/>
                  </use>
                  <path fill="none" stroke="white" stroke-width="1.5" d="M0,-3.0v7 M-2.5,-0.5L0,-3.0L2.5,-0.5"/>
                </g>
                <g id="arrowLeft" xlink:href="#dirArrow" transform="rotate(270) translate(-36 17)" onmousedown="handlePan(-1,0)">
                  <use xlink:href="#rim" fill="#404040">
                        <set attributeName="fill" to="#808080" begin="arrowLeft.mouseover" end="arrowLeft.mouseout"/>
                  </use>
                  <path fill="none" stroke="white" stroke-width="1.5" d="M0,-3.0v7 M-2.5,-0.5L0,-3.0L2.5,-0.5"/>
                </g>
        </g>
        <svg viewBox="0 0 15 15" width="100%" height="30px" preserveAspectRatio="xMaxYMin meet">
         <g id="arrow_out" transform="scale(0.3 0.3)">
          <a xlink:href="_g_u_i___game_chat_box_8h__incl_org.svg" target="_base">
           <rect id="button" ry="5" rx="5" y="6" x="6" height="38" width="38"
                fill="#f2f5e9" fill-opacity="0.5" stroke="#606060" stroke-width="1.0"/>
           <path id="arrow"
             d="M 11.500037,31.436501 C 11.940474,20.09759 22.043105,11.32322 32.158766,21.979434 L 37.068811,17.246167 C 37.068811,17.246167 37.088388,32 37.088388,32 L 22.160133,31.978069 C 22.160133,31.978069 26.997745,27.140456 26.997745,27.140456 C 18.528582,18.264221 13.291696,25.230495 11.500037,31.436501 z"
             style="fill:#404040;"/>
          </a>
         </g>
        </svg>
</svg>
