<?xml version="1.0" encoding="UTF-8" standalone="no"?>
<!DOCTYPE svg PUBLIC "-//W3C//DTD SVG 1.1//EN"
 "http://www.w3.org/Graphics/SVG/1.1/DTD/svg11.dtd">
<!-- Generated by graphviz version 2.38.0 (20140413.2041)
 -->
<!-- Title: source/main/gfx Pages: 1 -->
<!--zoomable 411 -->
<svg id="main" version="1.1" xmlns="http://www.w3.org/2000/svg" xmlns:xlink="http://www.w3.org/1999/xlink" xml:space="preserve" onload="init(evt)">
<style type="text/css"><![CDATA[
.edge:hover path { stroke: red; }
.edge:hover polygon { stroke: red; fill: red; }
]]></style>
<script type="text/javascript"><![CDATA[
var edges = document.getElementsByTagName('g');
if (edges && edges.length) {
  for (var i=0;i<edges.length;i++) {
    if (edges[i].id.substr(0,4)=='edge') {
      edges[i].setAttribute('class','edge');
    }
  }
}
]]></script>
        <defs>
                <circle id="rim" cx="0" cy="0" r="7"/>
                <circle id="rim2" cx="0" cy="0" r="3.5"/>
                <g id="zoomPlus">
                        <use xlink:href="#rim" fill="#404040">
                                <set attributeName="fill" to="#808080" begin="zoomplus.mouseover" end="zoomplus.mouseout"/>
                        </use>
                        <path d="M-4,0h8M0,-4v8" fill="none" stroke="white" stroke-width="1.5" pointer-events="none"/>
                </g>
                <g id="zoomMin">
                        <use xlink:href="#rim" fill="#404040">
                                <set attributeName="fill" to="#808080" begin="zoomminus.mouseover" end="zoomminus.mouseout"/>
                        </use>
                        <path d="M-4,0h8" fill="none" stroke="white" stroke-width="1.5" pointer-events="none"/>
                </g>
                <g id="dirArrow">
                        <path fill="none" stroke="white" stroke-width="1.5" d="M0,-3.0v7 M-2.5,-0.5L0,-3.0L2.5,-0.5"/>
                </g>
               <g id="resetDef">
                       <use xlink:href="#rim2" fill="#404040">
                               <set attributeName="fill" to="#808080" begin="reset.mouseover" end="reset.mouseout"/>
                       </use>
               </g>
        </defs>

<script type="text/javascript">
var viewWidth = 627;
var viewHeight = 411;
var sectionId = 'dynsection-0';
</script>
<script xlink:href="svgpan.js"/>
<svg id="graph" class="graph">
<g id="viewport">
<title>source/main/gfx</title>
<polygon fill="white" stroke="none" points="-4,4 -4,-407 623.315,-407 623.315,4 -4,4"/>
<g id="clust1" class="cluster"><title>clusterdir_3c915b6e49908d72cc0f58ba3fde1e4d</title>
<g id="a_clust1"><a xlink:href="dir_3c915b6e49908d72cc0f58ba3fde1e4d.html" target="_top" xlink:title="main">
<polygon fill="#ddddee" stroke="black" points="47.3154,-56 47.3154,-287 277.315,-287 277.315,-56 47.3154,-56"/>
<text text-anchor="middle" x="162.315" y="-275" font-family="Helvetica,sans-Serif" font-size="10.00">main</text>
</a>
</g>
</g>
<g id="clust2" class="cluster"><title>clusterdir_0bd5307e14ef78d30f1665dd8a71b0d5</title>
<g id="a_clust2"><a xlink:href="dir_0bd5307e14ef78d30f1665dd8a71b0d5.html" target="_top">
<polygon fill="#eeeeff" stroke="black" points="55.3154,-64 55.3154,-260 269.315,-260 269.315,-64 55.3154,-64"/>
</a>
</g>
</g>
<!-- dir_0bd5307e14ef78d30f1665dd8a71b0d5 -->
<g id="node1" class="node"><title>dir_0bd5307e14ef78d30f1665dd8a71b0d5</title>
<text text-anchor="middle" x="234.315" y="-231.5" font-family="Helvetica,sans-Serif" font-size="10.00">gfx</text>
</g>
<!-- dir_df71146e6f73c810df8ec5a6e2934f82 -->
<g id="node4" class="node"><title>dir_df71146e6f73c810df8ec5a6e2934f82</title>
<g id="a_node4"><a xlink:href="dir_df71146e6f73c810df8ec5a6e2934f82.html" target="_top" xlink:title="hydrax">
<polygon fill="white" stroke="black" points="212.315,-108 158.315,-108 158.315,-72 212.315,-72 212.315,-108"/>
<text text-anchor="middle" x="185.315" y="-87.5" font-family="Helvetica,sans-Serif" font-size="10.00">hydrax</text>
</a>
</g>
</g>
<!-- dir_0bd5307e14ef78d30f1665dd8a71b0d5&#45;&gt;dir_df71146e6f73c810df8ec5a6e2934f82 -->
<g id="edge37" class="edge"><title>dir_0bd5307e14ef78d30f1665dd8a71b0d5&#45;&gt;dir_df71146e6f73c810df8ec5a6e2934f82</title>
<path fill="none" stroke="black" d="M228.405,-215.871C220.017,-191.564 204.577,-146.819 194.637,-118.013"/>
<polygon fill="black" stroke="black" points="197.817,-116.501 191.247,-108.189 191.2,-118.784 197.817,-116.501"/>
<g id="a_edge37&#45;headlabel"><a xlink:href="dir_000016_000019.html" target="_top" xlink:title="3">
<text text-anchor="middle" x="201.674" y="-116.472" font-family="Helvetica,sans-Serif" font-size="10.00">3</text>
</a>
</g>
</g>
<!-- dir_e58c4b40275153b559b8d61961295df1 -->
<g id="node6" class="node"><title>dir_e58c4b40275153b559b8d61961295df1</title>
<g id="a_node6"><a xlink:href="dir_e58c4b40275153b559b8d61961295df1.html" target="_top" xlink:title="skyx">
<polygon fill="white" stroke="red" points="189.315,-180 135.315,-180 135.315,-144 189.315,-144 189.315,-180"/>
<text text-anchor="middle" x="162.315" y="-159.5" font-family="Helvetica,sans-Serif" font-size="10.00">skyx</text>
</a>
</g>
</g>
<!-- dir_0bd5307e14ef78d30f1665dd8a71b0d5&#45;&gt;dir_e58c4b40275153b559b8d61961295df1 -->
<g id="edge36" class="edge"><title>dir_0bd5307e14ef78d30f1665dd8a71b0d5&#45;&gt;dir_e58c4b40275153b559b8d61961295df1</title>
<path fill="none" stroke="black" d="M216.518,-215.697C207.711,-207.135 196.933,-196.656 187.314,-187.304"/>
<polygon fill="black" stroke="black" points="189.518,-184.566 179.908,-180.104 184.639,-189.585 189.518,-184.566"/>
<g id="a_edge36&#45;headlabel"><a xlink:href="dir_000016_000020.html" target="_top" xlink:title="9">
<text text-anchor="middle" x="194.075" y="-182.536" font-family="Helvetica,sans-Serif" font-size="10.00">9</text>
</a>
</g>
</g>
<!-- dir_c6aa2090e422c0c942630854fd00c25d -->
<g id="node8" class="node"><title>dir_c6aa2090e422c0c942630854fd00c25d</title>
<g id="a_node8"><a xlink:href="dir_c6aa2090e422c0c942630854fd00c25d.html" target="_top" xlink:title="version_info">
<polygon fill="none" stroke="black" points="411.815,-36 344.815,-36 344.815,-0 411.815,-0 411.815,-36"/>
<text text-anchor="middle" x="378.315" y="-15.5" font-family="Helvetica,sans-Serif" font-size="10.00">version_info</text>
</a>
</g>
</g>
<!-- dir_0bd5307e14ef78d30f1665dd8a71b0d5&#45;&gt;dir_c6aa2090e422c0c942630854fd00c25d -->
<g id="edge35" class="edge"><title>dir_0bd5307e14ef78d30f1665dd8a71b0d5&#45;&gt;dir_c6aa2090e422c0c942630854fd00c25d</title>
<path fill="none" stroke="black" d="M242.102,-215.797C257.489,-182.824 294.071,-109.277 337.315,-56 340.865,-51.6265 344.945,-47.3116 349.125,-43.2589"/>
<polygon fill="black" stroke="black" points="351.695,-45.6491 356.663,-36.2911 346.944,-40.5087 351.695,-45.6491"/>
<g id="a_edge35&#45;headlabel"><a xlink:href="dir_000016_000047.html" target="_top" xlink:title="1">
<text text-anchor="middle" x="350.983" y="-47.674" font-family="Helvetica,sans-Serif" font-size="10.00">1</text>
</a>
</g>
</g>
<!-- dir_4e151a6658bb0c8556662844f20872cb -->
<g id="node2" class="node"><title>dir_4e151a6658bb0c8556662844f20872cb</title>
<g id="a_node2"><a xlink:href="dir_4e151a6658bb0c8556662844f20872cb.html" target="_top" xlink:title="camera">
<polygon fill="white" stroke="black" points="189.315,-252 135.315,-252 135.315,-216 189.315,-216 189.315,-252"/>
<text text-anchor="middle" x="162.315" y="-231.5" font-family="Helvetica,sans-Serif" font-size="10.00">camera</text>
</a>
</g>
</g>
<!-- dir_86b88d85cf9eb5752688d8fd7734efaf -->
<g id="node3" class="node"><title>dir_86b88d85cf9eb5752688d8fd7734efaf</title>
<g id="a_node3"><a xlink:href="dir_86b88d85cf9eb5752688d8fd7734efaf.html" target="_top" xlink:title="dof">
<polygon fill="white" stroke="black" points="117.315,-180 63.3154,-180 63.3154,-144 117.315,-144 117.315,-180"/>
<text text-anchor="middle" x="90.3154" y="-159.5" font-family="Helvetica,sans-Serif" font-size="10.00">dof</text>
</a>
</g>
</g>
<!-- dir_4e151a6658bb0c8556662844f20872cb&#45;&gt;dir_86b88d85cf9eb5752688d8fd7734efaf -->
<g id="edge10" class="edge"><title>dir_4e151a6658bb0c8556662844f20872cb&#45;&gt;dir_86b88d85cf9eb5752688d8fd7734efaf</title>
<path fill="none" stroke="black" d="M144.518,-215.697C135.711,-207.135 124.933,-196.656 115.314,-187.304"/>
<polygon fill="black" stroke="black" points="117.518,-184.566 107.908,-180.104 112.639,-189.585 117.518,-184.566"/>
<g id="a_edge10&#45;headlabel"><a xlink:href="dir_000017_000018.html" target="_top" xlink:title="1">
<text text-anchor="middle" x="122.075" y="-182.536" font-family="Helvetica,sans-Serif" font-size="10.00">1</text>
</a>
</g>
</g>
<!-- dir_da9f7f7e328f24adc613d78f1c29e314 -->
<g id="node7" class="node"><title>dir_da9f7f7e328f24adc613d78f1c29e314</title>
<g id="a_node7"><a xlink:href="dir_da9f7f7e328f24adc613d78f1c29e314.html" target="_top" xlink:title="gameplay">
<polygon fill="none" stroke="black" points="403.815,-403 344.815,-403 344.815,-367 403.815,-367 403.815,-403"/>
<text text-anchor="middle" x="374.315" y="-382.5" font-family="Helvetica,sans-Serif" font-size="10.00">gameplay</text>
</a>
</g>
</g>
<!-- dir_4e151a6658bb0c8556662844f20872cb&#45;&gt;dir_da9f7f7e328f24adc613d78f1c29e314 -->
<g id="edge9" class="edge"><title>dir_4e151a6658bb0c8556662844f20872cb&#45;&gt;dir_da9f7f7e328f24adc613d78f1c29e314</title>
<path fill="none" stroke="black" d="M170.417,-252.255C176.582,-263.639 186.088,-278.05 198.315,-287 208.071,-294.141 213.261,-290.103 224.315,-295 235.987,-300.17 297.365,-337.145 337.902,-361.782"/>
<polygon fill="black" stroke="black" points="336.099,-364.781 346.461,-366.988 339.737,-358.801 336.099,-364.781"/>
<g id="a_edge9&#45;headlabel"><a xlink:href="dir_000017_000015.html" target="_top" xlink:title="2">
<text text-anchor="middle" x="331.552" y="-362.839" font-family="Helvetica,sans-Serif" font-size="10.00">2</text>
</a>
</g>
</g>
<!-- dir_cb20f6a18609867d8953e052a37ad3a1 -->
<g id="node9" class="node"><title>dir_cb20f6a18609867d8953e052a37ad3a1</title>
<g id="a_node9"><a xlink:href="dir_cb20f6a18609867d8953e052a37ad3a1.html" target="_top" xlink:title="gui">
<polygon fill="white" stroke="red" points="401.315,-331 347.315,-331 347.315,-295 401.315,-295 401.315,-331"/>
<text text-anchor="middle" x="374.315" y="-310.5" font-family="Helvetica,sans-Serif" font-size="10.00">gui</text>
</a>
</g>
</g>
<!-- dir_4e151a6658bb0c8556662844f20872cb&#45;&gt;dir_cb20f6a18609867d8953e052a37ad3a1 -->
<g id="edge11" class="edge"><title>dir_4e151a6658bb0c8556662844f20872cb&#45;&gt;dir_cb20f6a18609867d8953e052a37ad3a1</title>
<path fill="none" stroke="black" d="M162.112,-252.128C166.559,-263.917 176.142,-278.866 189.315,-287 189.698,-287.236 282.995,-300.405 337.062,-307.532"/>
<polygon fill="black" stroke="black" points="336.944,-311.046 347.313,-308.871 337.851,-304.105 336.944,-311.046"/>
<g id="a_edge11&#45;headlabel"><a xlink:href="dir_000017_000023.html" target="_top" xlink:title="14">
<text text-anchor="middle" x="333.012" y="-310.896" font-family="Helvetica,sans-Serif" font-size="10.00">14</text>
</a>
</g>
</g>
<!-- dir_9080132d8b60aab10dfc81aa674559e3 -->
<g id="node10" class="node"><title>dir_9080132d8b60aab10dfc81aa674559e3</title>
<g id="a_node10"><a xlink:href="dir_9080132d8b60aab10dfc81aa674559e3.html" target="_top" xlink:title="physics">
<polygon fill="white" stroke="red" points="489.315,-180 435.315,-180 435.315,-144 489.315,-144 489.315,-180"/>
<text text-anchor="middle" x="462.315" y="-159.5" font-family="Helvetica,sans-Serif" font-size="10.00">physics</text>
</a>
</g>
</g>
<!-- dir_4e151a6658bb0c8556662844f20872cb&#45;&gt;dir_9080132d8b60aab10dfc81aa674559e3 -->
<g id="edge12" class="edge"><title>dir_4e151a6658bb0c8556662844f20872cb&#45;&gt;dir_9080132d8b60aab10dfc81aa674559e3</title>
<path fill="none" stroke="black" d="M189.648,-215.89C271.168,-188.955 371.508,-173.437 424.977,-166.824"/>
<polygon fill="black" stroke="black" points="425.514,-170.285 435.026,-165.619 424.68,-163.335 425.514,-170.285"/>
<g id="a_edge12&#45;headlabel"><a xlink:href="dir_000017_000028.html" target="_top" xlink:title="8">
<text text-anchor="middle" x="422.283" y="-171.032" font-family="Helvetica,sans-Serif" font-size="10.00">8</text>
</a>
</g>
</g>
<!-- dir_f0f7d06cdd3afa32db540a94ff15e354 -->
<g id="node11" class="node"><title>dir_f0f7d06cdd3afa32db540a94ff15e354</title>
<g id="a_node11"><a xlink:href="dir_f0f7d06cdd3afa32db540a94ff15e354.html" target="_top" xlink:title="utils">
<polygon fill="white" stroke="red" points="433.315,-108 379.315,-108 379.315,-72 433.315,-72 433.315,-108"/>
<text text-anchor="middle" x="406.315" y="-87.5" font-family="Helvetica,sans-Serif" font-size="10.00">utils</text>
</a>
</g>
</g>
<!-- dir_4e151a6658bb0c8556662844f20872cb&#45;&gt;dir_f0f7d06cdd3afa32db540a94ff15e354 -->
<g id="edge13" class="edge"><title>dir_4e151a6658bb0c8556662844f20872cb&#45;&gt;dir_f0f7d06cdd3afa32db540a94ff15e354</title>
<path fill="none" stroke="black" d="M185.894,-215.901C212.18,-197.183 256.272,-166.802 296.315,-144 320.225,-130.385 348.166,-116.952 369.904,-107.016"/>
<polygon fill="black" stroke="black" points="371.448,-110.159 379.114,-102.846 368.561,-103.782 371.448,-110.159"/>
<g id="a_edge13&#45;headlabel"><a xlink:href="dir_000017_000043.html" target="_top" xlink:title="20">
<text text-anchor="middle" x="369.345" y="-111.728" font-family="Helvetica,sans-Serif" font-size="10.00">20</text>
</a>
</g>
</g>
<!-- dir_fe8549edcaa31ab7d8cdf25ea64c5f0b -->
<g id="node12" class="node"><title>dir_fe8549edcaa31ab7d8cdf25ea64c5f0b</title>
<g id="a_node12"><a xlink:href="dir_fe8549edcaa31ab7d8cdf25ea64c5f0b.html" target="_top" xlink:title="terrain">
<polygon fill="white" stroke="red" points="553.315,-252 499.315,-252 499.315,-216 553.315,-216 553.315,-252"/>
<text text-anchor="middle" x="526.315" y="-231.5" font-family="Helvetica,sans-Serif" font-size="10.00">terrain</text>
</a>
</g>
</g>
<!-- dir_4e151a6658bb0c8556662844f20872cb&#45;&gt;dir_fe8549edcaa31ab7d8cdf25ea64c5f0b -->
<g id="edge14" class="edge"><title>dir_4e151a6658bb0c8556662844f20872cb&#45;&gt;dir_fe8549edcaa31ab7d8cdf25ea64c5f0b</title>
<path fill="none" stroke="black" d="M169.008,-252.016C175.896,-267.161 188.322,-286.969 207.315,-291 221.934,-294.102 461.696,-294.102 476.315,-291 492.323,-287.603 504.574,-274.064 512.943,-261.035"/>
<polygon fill="black" stroke="black" points="516.069,-262.622 518.114,-252.226 510.033,-259.078 516.069,-262.622"/>
<g id="a_edge14&#45;headlabel"><a xlink:href="dir_000017_000040.html" target="_top" xlink:title="4">
<text text-anchor="middle" x="516.698" y="-264.659" font-family="Helvetica,sans-Serif" font-size="10.00">4</text>
</a>
</g>
</g>
<!-- dir_86b88d85cf9eb5752688d8fd7734efaf&#45;&gt;dir_da9f7f7e328f24adc613d78f1c29e314 -->
<g id="edge15" class="edge"><title>dir_86b88d85cf9eb5752688d8fd7734efaf&#45;&gt;dir_da9f7f7e328f24adc613d78f1c29e314</title>
<path fill="none" stroke="black" d="M74.7055,-180.226C66.9424,-189.97 58.3694,-202.816 54.3154,-216 45.0404,-246.162 35.7514,-261.483 54.3154,-287 87.694,-332.881 256.671,-365.25 334.708,-377.991"/>
<polygon fill="black" stroke="black" points="334.22,-381.458 344.648,-379.588 335.33,-374.546 334.22,-381.458"/>
<g id="a_edge15&#45;headlabel"><a xlink:href="dir_000018_000015.html" target="_top" xlink:title="2">
<text text-anchor="middle" x="330.22" y="-381.191" font-family="Helvetica,sans-Serif" font-size="10.00">2</text>
</a>
</g>
</g>
<!-- dir_86b88d85cf9eb5752688d8fd7734efaf&#45;&gt;dir_9080132d8b60aab10dfc81aa674559e3 -->
<g id="edge16" class="edge"><title>dir_86b88d85cf9eb5752688d8fd7734efaf&#45;&gt;dir_9080132d8b60aab10dfc81aa674559e3</title>
<path fill="none" stroke="black" d="M107.397,-180.217C115.162,-187.198 124.93,-194.357 135.315,-198 193.401,-218.375 353.732,-216.896 412.315,-198 420.189,-195.46 427.869,-191.169 434.754,-186.417"/>
<polygon fill="black" stroke="black" points="437.091,-189.039 443.003,-180.247 432.899,-183.433 437.091,-189.039"/>
<g id="a_edge16&#45;headlabel"><a xlink:href="dir_000018_000028.html" target="_top" xlink:title="1">
<text text-anchor="middle" x="435.913" y="-190.966" font-family="Helvetica,sans-Serif" font-size="10.00">1</text>
</a>
</g>
</g>
<!-- dir_86b88d85cf9eb5752688d8fd7734efaf&#45;&gt;dir_f0f7d06cdd3afa32db540a94ff15e354 -->
<g id="edge17" class="edge"><title>dir_86b88d85cf9eb5752688d8fd7734efaf&#45;&gt;dir_f0f7d06cdd3afa32db540a94ff15e354</title>
<path fill="none" stroke="black" d="M117.54,-147.267C120.461,-146.059 123.423,-144.94 126.315,-144 210.791,-116.555 314.49,-101.538 368.903,-95.0154"/>
<polygon fill="black" stroke="black" points="369.582,-98.46 379.109,-93.823 368.77,-91.5073 369.582,-98.46"/>
<g id="a_edge17&#45;headlabel"><a xlink:href="dir_000018_000043.html" target="_top" xlink:title="1">
<text text-anchor="middle" x="366.342" y="-99.1972" font-family="Helvetica,sans-Serif" font-size="10.00">1</text>
</a>
</g>
</g>
<!-- dir_ec38baae96e8577ae2873751608eb5d7 -->
<g id="node5" class="node"><title>dir_ec38baae96e8577ae2873751608eb5d7</title>
<g id="a_node5"><a xlink:href="dir_ec38baae96e8577ae2873751608eb5d7.html" target="_top" xlink:title="particle">
<polygon fill="white" stroke="black" points="117.315,-252 63.3154,-252 63.3154,-216 117.315,-216 117.315,-252"/>
<text text-anchor="middle" x="90.3154" y="-231.5" font-family="Helvetica,sans-Serif" font-size="10.00">particle</text>
</a>
</g>
</g>
<!-- dir_e58c4b40275153b559b8d61961295df1&#45;&gt;dir_df71146e6f73c810df8ec5a6e2934f82 -->
<g id="edge34" class="edge"><title>dir_e58c4b40275153b559b8d61961295df1&#45;&gt;dir_df71146e6f73c810df8ec5a6e2934f82</title>
<path fill="none" stroke="black" d="M168.001,-143.697C170.563,-135.898 173.648,-126.509 176.5,-117.829"/>
<polygon fill="black" stroke="black" points="179.899,-118.697 179.695,-108.104 173.249,-116.512 179.899,-118.697"/>
<g id="a_edge34&#45;headlabel"><a xlink:href="dir_000020_000019.html" target="_top" xlink:title="1">
<text text-anchor="middle" x="181.474" y="-120.498" font-family="Helvetica,sans-Serif" font-size="10.00">1</text>
</a>
</g>
</g>
<!-- dir_da9f7f7e328f24adc613d78f1c29e314&#45;&gt;dir_0bd5307e14ef78d30f1665dd8a71b0d5 -->
<g id="edge7" class="edge"><title>dir_da9f7f7e328f24adc613d78f1c29e314&#45;&gt;dir_0bd5307e14ef78d30f1665dd8a71b0d5</title>
<path fill="none" stroke="black" d="M358.256,-366.908C333.597,-340.664 286.28,-290.306 257.779,-259.972"/>
<polygon fill="black" stroke="black" points="260.017,-257.243 250.619,-252.352 254.916,-262.036 260.017,-257.243"/>
<g id="a_edge7&#45;headlabel"><a xlink:href="dir_000015_000016.html" target="_top" xlink:title="17">
<text text-anchor="middle" x="264.548" y="-255.418" font-family="Helvetica,sans-Serif" font-size="10.00">17</text>
</a>
</g>
</g>
<!-- dir_da9f7f7e328f24adc613d78f1c29e314&#45;&gt;dir_4e151a6658bb0c8556662844f20872cb -->
<g id="edge2" class="edge"><title>dir_da9f7f7e328f24adc613d78f1c29e314&#45;&gt;dir_4e151a6658bb0c8556662844f20872cb</title>
<path fill="none" stroke="black" d="M344.723,-379.279C312.539,-372.914 260.939,-358.986 225.315,-331 201.797,-312.524 184.208,-282.734 173.675,-261.235"/>
<polygon fill="black" stroke="black" points="176.76,-259.571 169.336,-252.012 170.426,-262.55 176.76,-259.571"/>
<g id="a_edge2&#45;headlabel"><a xlink:href="dir_000015_000017.html" target="_top" xlink:title="3">
<text text-anchor="middle" x="180.859" y="-259.115" font-family="Helvetica,sans-Serif" font-size="10.00">3</text>
</a>
</g>
</g>
<!-- dir_da9f7f7e328f24adc613d78f1c29e314&#45;&gt;dir_86b88d85cf9eb5752688d8fd7734efaf -->
<g id="edge3" class="edge"><title>dir_da9f7f7e328f24adc613d78f1c29e314&#45;&gt;dir_86b88d85cf9eb5752688d8fd7734efaf</title>
<path fill="none" stroke="black" d="M344.789,-384.26C267.642,-384.248 63.1168,-379.546 21.3154,-331 -12.0348,-292.269 -1.27912,-261.846 21.3154,-216 28.4227,-201.579 41.5477,-189.987 54.4579,-181.366"/>
<polygon fill="black" stroke="black" points="56.6435,-184.128 63.2847,-175.873 52.9452,-178.185 56.6435,-184.128"/>
<g id="a_edge3&#45;headlabel"><a xlink:href="dir_000015_000018.html" target="_top" xlink:title="1">
<text text-anchor="middle" x="55.0916" y="-185.938" font-family="Helvetica,sans-Serif" font-size="10.00">1</text>
</a>
</g>
</g>
<!-- dir_da9f7f7e328f24adc613d78f1c29e314&#45;&gt;dir_c6aa2090e422c0c942630854fd00c25d -->
<g id="edge1" class="edge"><title>dir_da9f7f7e328f24adc613d78f1c29e314&#45;&gt;dir_c6aa2090e422c0c942630854fd00c25d</title>
<path fill="none" stroke="black" d="M403.933,-381.911C442.861,-377.829 511.743,-365.863 558.315,-331 598.784,-300.706 619.315,-285.552 619.315,-235 619.315,-235 619.315,-235 619.315,-161 619.315,-70.4641 491.505,-36.4845 422.037,-24.7024"/>
<polygon fill="black" stroke="black" points="422.255,-21.1924 411.825,-23.0587 421.142,-28.1034 422.255,-21.1924"/>
<g id="a_edge1&#45;headlabel"><a xlink:href="dir_000015_000047.html" target="_top" xlink:title="2">
<text text-anchor="middle" x="426.255" y="-16.4603" font-family="Helvetica,sans-Serif" font-size="10.00">2</text>
</a>
</g>
</g>
<!-- dir_da9f7f7e328f24adc613d78f1c29e314&#45;&gt;dir_cb20f6a18609867d8953e052a37ad3a1 -->
<g id="edge4" class="edge"><title>dir_da9f7f7e328f24adc613d78f1c29e314&#45;&gt;dir_cb20f6a18609867d8953e052a37ad3a1</title>
<path fill="none" stroke="black" d="M368.4,-366.697C367.604,-358.983 367.377,-349.712 367.72,-341.112"/>
<polygon fill="black" stroke="black" points="371.214,-341.324 368.42,-331.104 364.231,-340.836 371.214,-341.324"/>
<g id="a_edge4&#45;headlabel"><a xlink:href="dir_000015_000023.html" target="_top" xlink:title="16">
<text text-anchor="middle" x="373.795" y="-342.608" font-family="Helvetica,sans-Serif" font-size="10.00">16</text>
</a>
</g>
</g>
<!-- dir_da9f7f7e328f24adc613d78f1c29e314&#45;&gt;dir_9080132d8b60aab10dfc81aa674559e3 -->
<g id="edge5" class="edge"><title>dir_da9f7f7e328f24adc613d78f1c29e314&#45;&gt;dir_9080132d8b60aab10dfc81aa674559e3</title>
<path fill="none" stroke="black" d="M378.958,-366.664C385.005,-356.468 394.005,-343.218 401.315,-331 412.644,-312.064 416.631,-307.685 424.315,-287 436.361,-254.577 444.514,-215.473 451.088,-189.963"/>
<polygon fill="black" stroke="black" points="454.484,-190.813 453.722,-180.246 447.728,-188.982 454.484,-190.813"/>
<g id="a_edge5&#45;headlabel"><a xlink:href="dir_000015_000028.html" target="_top" xlink:title="18">
<text text-anchor="middle" x="456.284" y="-192.525" font-family="Helvetica,sans-Serif" font-size="10.00">18</text>
</a>
</g>
</g>
<!-- dir_da9f7f7e328f24adc613d78f1c29e314&#45;&gt;dir_f0f7d06cdd3afa32db540a94ff15e354 -->
<g id="edge6" class="edge"><title>dir_da9f7f7e328f24adc613d78f1c29e314&#45;&gt;dir_f0f7d06cdd3afa32db540a94ff15e354</title>
<path fill="none" stroke="black" d="M403.845,-380.309C450.119,-372.641 537.045,-350.071 562.315,-287 586.502,-226.633 577.427,-189.857 531.315,-144 507.306,-120.124 470.884,-106.355 443.538,-98.8682"/>
<polygon fill="black" stroke="black" points="444.104,-95.3998 433.547,-96.2985 442.36,-102.179 444.104,-95.3998"/>
<g id="a_edge6&#45;headlabel"><a xlink:href="dir_000015_000043.html" target="_top" xlink:title="24">
<text text-anchor="middle" x="448.292" y="-91.0454" font-family="Helvetica,sans-Serif" font-size="10.00">24</text>
</a>
</g>
</g>
<!-- dir_da9f7f7e328f24adc613d78f1c29e314&#45;&gt;dir_fe8549edcaa31ab7d8cdf25ea64c5f0b -->
<g id="edge8" class="edge"><title>dir_da9f7f7e328f24adc613d78f1c29e314&#45;&gt;dir_fe8549edcaa31ab7d8cdf25ea64c5f0b</title>
<path fill="none" stroke="black" d="M404.213,-373.617C426.584,-365.408 456.361,-351.807 476.315,-331 494.749,-311.778 505.53,-282.991 513.072,-261.954"/>
<polygon fill="black" stroke="black" points="516.444,-262.919 516.534,-252.325 509.857,-260.551 516.444,-262.919"/>
<g id="a_edge8&#45;headlabel"><a xlink:href="dir_000015_000040.html" target="_top" xlink:title="15">
<text text-anchor="middle" x="517.9" y="-264.762" font-family="Helvetica,sans-Serif" font-size="10.00">15</text>
</a>
</g>
</g>
<!-- dir_cb20f6a18609867d8953e052a37ad3a1&#45;&gt;dir_0bd5307e14ef78d30f1665dd8a71b0d5 -->
<g id="edge23" class="edge"><title>dir_cb20f6a18609867d8953e052a37ad3a1&#45;&gt;dir_0bd5307e14ef78d30f1665dd8a71b0d5</title>
<path fill="none" stroke="black" d="M346.977,-307.377C329.636,-303.64 307.185,-297.272 289.315,-287 276.91,-279.869 265.107,-269.396 255.638,-259.715"/>
<polygon fill="black" stroke="black" points="257.976,-257.091 248.578,-252.199 252.874,-261.884 257.976,-257.091"/>
<g id="a_edge23&#45;headlabel"><a xlink:href="dir_000023_000016.html" target="_top" xlink:title="7">
<text text-anchor="middle" x="262.507" y="-255.267" font-family="Helvetica,sans-Serif" font-size="10.00">7</text>
</a>
</g>
</g>
<!-- dir_cb20f6a18609867d8953e052a37ad3a1&#45;&gt;dir_4e151a6658bb0c8556662844f20872cb -->
<g id="edge20" class="edge"><title>dir_cb20f6a18609867d8953e052a37ad3a1&#45;&gt;dir_4e151a6658bb0c8556662844f20872cb</title>
<path fill="none" stroke="black" d="M347.286,-307.41C299.935,-300.256 207.696,-287.235 207.315,-287 197.23,-280.772 189.249,-270.55 182.715,-260.81"/>
<polygon fill="black" stroke="black" points="185.472,-258.627 177.104,-252.128 179.593,-262.427 185.472,-258.627"/>
<g id="a_edge20&#45;headlabel"><a xlink:href="dir_000023_000017.html" target="_top" xlink:title="1">
<text text-anchor="middle" x="189.808" y="-257.604" font-family="Helvetica,sans-Serif" font-size="10.00">1</text>
</a>
</g>
</g>
<!-- dir_cb20f6a18609867d8953e052a37ad3a1&#45;&gt;dir_da9f7f7e328f24adc613d78f1c29e314 -->
<g id="edge18" class="edge"><title>dir_cb20f6a18609867d8953e052a37ad3a1&#45;&gt;dir_da9f7f7e328f24adc613d78f1c29e314</title>
<path fill="none" stroke="black" d="M380.21,-331.104C381.016,-338.791 381.252,-348.054 380.919,-356.665"/>
<polygon fill="black" stroke="black" points="377.424,-356.48 380.231,-366.697 384.408,-356.96 377.424,-356.48"/>
<g id="a_edge18&#45;headlabel"><a xlink:href="dir_000023_000015.html" target="_top" xlink:title="21">
<text text-anchor="middle" x="374.837" y="-350.2" font-family="Helvetica,sans-Serif" font-size="10.00">21</text>
</a>
</g>
</g>
<!-- dir_cb20f6a18609867d8953e052a37ad3a1&#45;&gt;dir_c6aa2090e422c0c942630854fd00c25d -->
<g id="edge19" class="edge"><title>dir_cb20f6a18609867d8953e052a37ad3a1&#45;&gt;dir_c6aa2090e422c0c942630854fd00c25d</title>
<path fill="none" stroke="black" d="M372.611,-294.858C368.82,-253.589 360.75,-145.501 370.315,-56 370.654,-52.8347 371.15,-49.5426 371.733,-46.285"/>
<polygon fill="black" stroke="black" points="375.222,-46.6927 373.802,-36.1936 368.365,-45.2871 375.222,-46.6927"/>
<g id="a_edge19&#45;headlabel"><a xlink:href="dir_000023_000047.html" target="_top" xlink:title="7">
<text text-anchor="middle" x="377.282" y="-48.2842" font-family="Helvetica,sans-Serif" font-size="10.00">7</text>
</a>
</g>
</g>
<!-- dir_cb20f6a18609867d8953e052a37ad3a1&#45;&gt;dir_9080132d8b60aab10dfc81aa674559e3 -->
<g id="edge21" class="edge"><title>dir_cb20f6a18609867d8953e052a37ad3a1&#45;&gt;dir_9080132d8b60aab10dfc81aa674559e3</title>
<path fill="none" stroke="black" d="M379.916,-294.908C392.554,-268.888 421.67,-219.161 441.855,-188.751"/>
<polygon fill="black" stroke="black" points="444.834,-190.594 447.546,-180.352 439.039,-186.667 444.834,-190.594"/>
<g id="a_edge21&#45;headlabel"><a xlink:href="dir_000023_000028.html" target="_top" xlink:title="18">
<text text-anchor="middle" x="445.168" y="-192.662" font-family="Helvetica,sans-Serif" font-size="10.00">18</text>
</a>
</g>
</g>
<!-- dir_cb20f6a18609867d8953e052a37ad3a1&#45;&gt;dir_f0f7d06cdd3afa32db540a94ff15e354 -->
<g id="edge22" class="edge"><title>dir_cb20f6a18609867d8953e052a37ad3a1&#45;&gt;dir_f0f7d06cdd3afa32db540a94ff15e354</title>
<path fill="none" stroke="black" d="M369.987,-294.994C370.057,-275.796 374.344,-243.635 378.315,-216 383.151,-182.35 389.09,-143.665 395.02,-118.353"/>
<polygon fill="black" stroke="black" points="398.484,-118.932 397.557,-108.377 391.7,-117.206 398.484,-118.932"/>
<g id="a_edge22&#45;headlabel"><a xlink:href="dir_000023_000043.html" target="_top" xlink:title="56">
<text text-anchor="middle" x="400.349" y="-120.615" font-family="Helvetica,sans-Serif" font-size="10.00">56</text>
</a>
</g>
</g>
<!-- dir_cb20f6a18609867d8953e052a37ad3a1&#45;&gt;dir_fe8549edcaa31ab7d8cdf25ea64c5f0b -->
<g id="edge24" class="edge"><title>dir_cb20f6a18609867d8953e052a37ad3a1&#45;&gt;dir_fe8549edcaa31ab7d8cdf25ea64c5f0b</title>
<path fill="none" stroke="black" d="M401.421,-296.065C407.651,-293.122 414.204,-290.023 420.315,-287 443.633,-275.466 469.584,-261.492 490.127,-250.936"/>
<polygon fill="black" stroke="black" points="491.826,-253.999 499.156,-246.348 488.655,-247.758 491.826,-253.999"/>
<g id="a_edge24&#45;headlabel"><a xlink:href="dir_000023_000040.html" target="_top" xlink:title="6">
<text text-anchor="middle" x="489.908" y="-255.658" font-family="Helvetica,sans-Serif" font-size="10.00">6</text>
</a>
</g>
</g>
<!-- dir_9080132d8b60aab10dfc81aa674559e3&#45;&gt;dir_4e151a6658bb0c8556662844f20872cb -->
<g id="edge26" class="edge"><title>dir_9080132d8b60aab10dfc81aa674559e3&#45;&gt;dir_4e151a6658bb0c8556662844f20872cb</title>
<path fill="none" stroke="black" d="M435.294,-166.968C387.991,-173.67 288.309,-189.191 207.315,-216 204.609,-216.896 201.84,-217.945 199.061,-219.073"/>
<polygon fill="black" stroke="black" points="197.459,-215.952 189.652,-223.115 200.222,-222.384 197.459,-215.952"/>
<g id="a_edge26&#45;headlabel"><a xlink:href="dir_000028_000017.html" target="_top" xlink:title="2">
<text text-anchor="middle" x="199.641" y="-209.425" font-family="Helvetica,sans-Serif" font-size="10.00">2</text>
</a>
</g>
</g>
<!-- dir_9080132d8b60aab10dfc81aa674559e3&#45;&gt;dir_da9f7f7e328f24adc613d78f1c29e314 -->
<g id="edge25" class="edge"><title>dir_9080132d8b60aab10dfc81aa674559e3&#45;&gt;dir_da9f7f7e328f24adc613d78f1c29e314</title>
<path fill="none" stroke="black" d="M465.671,-180.246C464.687,-204.571 456.02,-250.11 442.315,-287 434.631,-307.685 430.644,-312.064 419.315,-331 413.833,-340.164 407.4,-349.908 401.025,-358.508"/>
<polygon fill="black" stroke="black" points="398.065,-356.615 394.708,-366.664 403.599,-360.901 398.065,-356.615"/>
<g id="a_edge25&#45;headlabel"><a xlink:href="dir_000028_000015.html" target="_top" xlink:title="26">
<text text-anchor="middle" x="398.022" y="-349.534" font-family="Helvetica,sans-Serif" font-size="10.00">26</text>
</a>
</g>
</g>
<!-- dir_9080132d8b60aab10dfc81aa674559e3&#45;&gt;dir_cb20f6a18609867d8953e052a37ad3a1 -->
<g id="edge27" class="edge"><title>dir_9080132d8b60aab10dfc81aa674559e3&#45;&gt;dir_cb20f6a18609867d8953e052a37ad3a1</title>
<path fill="none" stroke="black" d="M456.588,-180.352C443.841,-206.529 414.701,-256.269 394.576,-286.551"/>
<polygon fill="black" stroke="black" points="391.624,-284.668 388.904,-294.908 397.416,-288.599 391.624,-284.668"/>
<g id="a_edge27&#45;headlabel"><a xlink:href="dir_000028_000023.html" target="_top" xlink:title="9">
<text text-anchor="middle" x="391.293" y="-277.599" font-family="Helvetica,sans-Serif" font-size="10.00">9</text>
</a>
</g>
</g>
<!-- dir_9080132d8b60aab10dfc81aa674559e3&#45;&gt;dir_f0f7d06cdd3afa32db540a94ff15e354 -->
<g id="edge28" class="edge"><title>dir_9080132d8b60aab10dfc81aa674559e3&#45;&gt;dir_f0f7d06cdd3afa32db540a94ff15e354</title>
<path fill="none" stroke="black" d="M448.473,-143.697C441.827,-135.389 433.737,-125.277 426.428,-116.141"/>
<polygon fill="black" stroke="black" points="428.979,-113.727 419.999,-108.104 423.513,-118.099 428.979,-113.727"/>
<g id="a_edge28&#45;headlabel"><a xlink:href="dir_000028_000043.html" target="_top" xlink:title="26">
<text text-anchor="middle" x="433.441" y="-112.26" font-family="Helvetica,sans-Serif" font-size="10.00">26</text>
</a>
</g>
</g>
<!-- dir_9080132d8b60aab10dfc81aa674559e3&#45;&gt;dir_fe8549edcaa31ab7d8cdf25ea64c5f0b -->
<g id="edge29" class="edge"><title>dir_9080132d8b60aab10dfc81aa674559e3&#45;&gt;dir_fe8549edcaa31ab7d8cdf25ea64c5f0b</title>
<path fill="none" stroke="black" d="M483.849,-180.104C492.371,-188.467 501.924,-198.694 509.888,-207.92"/>
<polygon fill="black" stroke="black" points="507.303,-210.284 516.411,-215.697 512.666,-205.786 507.303,-210.284"/>
<g id="a_edge29&#45;headlabel"><a xlink:href="dir_000028_000040.html" target="_top" xlink:title="8">
<text text-anchor="middle" x="502.817" y="-206.855" font-family="Helvetica,sans-Serif" font-size="10.00">8</text>
</a>
</g>
</g>
<!-- dir_f0f7d06cdd3afa32db540a94ff15e354&#45;&gt;dir_0bd5307e14ef78d30f1665dd8a71b0d5 -->
<g id="edge32" class="edge"><title>dir_f0f7d06cdd3afa32db540a94ff15e354&#45;&gt;dir_0bd5307e14ef78d30f1665dd8a71b0d5</title>
<path fill="none" stroke="black" d="M385.495,-108.189C354.846,-133.492 297.49,-180.844 262.914,-209.39"/>
<polygon fill="black" stroke="black" points="260.546,-206.806 255.063,-215.871 265.002,-212.204 260.546,-206.806"/>
<g id="a_edge32&#45;headlabel"><a xlink:href="dir_000043_000016.html" target="_top" xlink:title="2">
<text text-anchor="middle" x="261.51" y="-199.828" font-family="Helvetica,sans-Serif" font-size="10.00">2</text>
</a>
</g>
</g>
<!-- dir_f0f7d06cdd3afa32db540a94ff15e354&#45;&gt;dir_c6aa2090e422c0c942630854fd00c25d -->
<g id="edge30" class="edge"><title>dir_f0f7d06cdd3afa32db540a94ff15e354&#45;&gt;dir_c6aa2090e422c0c942630854fd00c25d</title>
<path fill="none" stroke="black" d="M399.394,-71.6966C396.241,-63.8132 392.437,-54.3042 388.934,-45.5464"/>
<polygon fill="black" stroke="black" points="392.121,-44.0892 385.157,-36.1043 385.621,-46.689 392.121,-44.0892"/>
<g id="a_edge30&#45;headlabel"><a xlink:href="dir_000043_000047.html" target="_top" xlink:title="2">
<text text-anchor="middle" x="396.092" y="-43.8723" font-family="Helvetica,sans-Serif" font-size="10.00">2</text>
</a>
</g>
</g>
<!-- dir_f0f7d06cdd3afa32db540a94ff15e354&#45;&gt;dir_cb20f6a18609867d8953e052a37ad3a1 -->
<g id="edge31" class="edge"><title>dir_f0f7d06cdd3afa32db540a94ff15e354&#45;&gt;dir_cb20f6a18609867d8953e052a37ad3a1</title>
<path fill="none" stroke="black" d="M409.608,-108.377C408.809,-132.509 401.842,-177.542 396.315,-216 392.965,-239.317 389.389,-265.856 385.364,-285.112"/>
<polygon fill="black" stroke="black" points="381.922,-284.463 383.08,-294.994 388.742,-286.039 381.922,-284.463"/>
<g id="a_edge31&#45;headlabel"><a xlink:href="dir_000043_000023.html" target="_top" xlink:title="1">
<text text-anchor="middle" x="379.965" y="-277.821" font-family="Helvetica,sans-Serif" font-size="10.00">1</text>
</a>
</g>
</g>
<!-- dir_f0f7d06cdd3afa32db540a94ff15e354&#45;&gt;dir_fe8549edcaa31ab7d8cdf25ea64c5f0b -->
<g id="edge33" class="edge"><title>dir_f0f7d06cdd3afa32db540a94ff15e354&#45;&gt;dir_fe8549edcaa31ab7d8cdf25ea64c5f0b</title>
<path fill="none" stroke="black" d="M433.576,-97.7712C456.745,-105.676 488.621,-120.714 507.315,-144 521.538,-161.715 528.581,-186.734 530.562,-205.735"/>
<polygon fill="black" stroke="black" points="527.076,-206.08 531.158,-215.857 534.064,-205.669 527.076,-206.08"/>
<g id="a_edge33&#45;headlabel"><a xlink:href="dir_000043_000040.html" target="_top" xlink:title="1">
<text text-anchor="middle" x="524.031" y="-200.158" font-family="Helvetica,sans-Serif" font-size="10.00">1</text>
</a>
</g>
</g>
<!-- dir_fe8549edcaa31ab7d8cdf25ea64c5f0b&#45;&gt;dir_4e151a6658bb0c8556662844f20872cb -->
<g id="edge39" class="edge"><title>dir_fe8549edcaa31ab7d8cdf25ea64c5f0b&#45;&gt;dir_4e151a6658bb0c8556662844f20872cb</title>
<path fill="none" stroke="black" d="M518.114,-252.226C510.029,-267.276 496.017,-286.819 476.315,-291 461.696,-294.102 221.934,-294.102 207.315,-291 192.032,-287.757 181,-274.297 173.685,-261.272"/>
<polygon fill="black" stroke="black" points="176.642,-259.363 169.008,-252.016 170.395,-262.52 176.642,-259.363"/>
<g id="a_edge39&#45;headlabel"><a xlink:href="dir_000040_000017.html" target="_top" xlink:title="1">
<text text-anchor="middle" x="180.798" y="-258.791" font-family="Helvetica,sans-Serif" font-size="10.00">1</text>
</a>
</g>
</g>
<!-- dir_fe8549edcaa31ab7d8cdf25ea64c5f0b&#45;&gt;dir_da9f7f7e328f24adc613d78f1c29e314 -->
<g id="edge38" class="edge"><title>dir_fe8549edcaa31ab7d8cdf25ea64c5f0b&#45;&gt;dir_da9f7f7e328f24adc613d78f1c29e314</title>
<path fill="none" stroke="black" d="M529.169,-252.325C526.853,-273.313 515.766,-308.633 494.315,-331 472.82,-353.413 439.928,-367.465 413.873,-375.422"/>
<polygon fill="black" stroke="black" points="412.908,-372.058 404.26,-378.178 414.838,-378.787 412.908,-372.058"/>
<g id="a_edge38&#45;headlabel"><a xlink:href="dir_000040_000015.html" target="_top" xlink:title="7">
<text text-anchor="middle" x="415.581" y="-365.838" font-family="Helvetica,sans-Serif" font-size="10.00">7</text>
</a>
</g>
</g>
<!-- dir_fe8549edcaa31ab7d8cdf25ea64c5f0b&#45;&gt;dir_cb20f6a18609867d8953e052a37ad3a1 -->
<g id="edge40" class="edge"><title>dir_fe8549edcaa31ab7d8cdf25ea64c5f0b&#45;&gt;dir_cb20f6a18609867d8953e052a37ad3a1</title>
<path fill="none" stroke="black" d="M503.362,-252.148C485.626,-262.546 460.751,-275.902 438.315,-287 429.593,-291.314 419.97,-295.785 410.815,-299.732"/>
<polygon fill="black" stroke="black" points="409.377,-296.54 401.502,-303.627 412.079,-302.997 409.377,-296.54"/>
<g id="a_edge40&#45;headlabel"><a xlink:href="dir_000040_000023.html" target="_top" xlink:title="9">
<text text-anchor="middle" x="411.598" y="-290.033" font-family="Helvetica,sans-Serif" font-size="10.00">9</text>
</a>
</g>
</g>
<!-- dir_fe8549edcaa31ab7d8cdf25ea64c5f0b&#45;&gt;dir_9080132d8b60aab10dfc81aa674559e3 -->
<g id="edge41" class="edge"><title>dir_fe8549edcaa31ab7d8cdf25ea64c5f0b&#45;&gt;dir_9080132d8b60aab10dfc81aa674559e3</title>
<path fill="none" stroke="black" d="M504.579,-215.697C496.041,-207.305 486.492,-197.07 478.554,-187.861"/>
<polygon fill="black" stroke="black" points="481.162,-185.524 472.059,-180.104 475.795,-190.018 481.162,-185.524"/>
<g id="a_edge41&#45;headlabel"><a xlink:href="dir_000040_000028.html" target="_top" xlink:title="8">
<text text-anchor="middle" x="485.647" y="-183.957" font-family="Helvetica,sans-Serif" font-size="10.00">8</text>
</a>
</g>
</g>
<!-- dir_fe8549edcaa31ab7d8cdf25ea64c5f0b&#45;&gt;dir_f0f7d06cdd3afa32db540a94ff15e354 -->
<g id="edge42" class="edge"><title>dir_fe8549edcaa31ab7d8cdf25ea64c5f0b&#45;&gt;dir_f0f7d06cdd3afa32db540a94ff15e354</title>
<path fill="none" stroke="black" d="M518.155,-215.857C513.006,-196.541 506.25,-165.094 489.315,-144 476.968,-128.62 458.87,-116.838 442.642,-108.333"/>
<polygon fill="black" stroke="black" points="443.873,-105.035 433.362,-103.701 440.747,-111.298 443.873,-105.035"/>
<g id="a_edge42&#45;headlabel"><a xlink:href="dir_000040_000043.html" target="_top" xlink:title="15">
<text text-anchor="middle" x="448.357" y="-101.599" font-family="Helvetica,sans-Serif" font-size="10.00">15</text>
</a>
</g>
</g>
</g>
</svg>
        <g id="navigator" transform="translate(0 0)" fill="#404254">
                <rect fill="#f2f5e9" fill-opacity="0.5" stroke="#606060" stroke-width=".5" x="0" y="0" width="60" height="60"/>
                <use id="zoomplus" xlink:href="#zoomPlus" x="17" y="9" onmousedown="handleZoom(evt,'in')"/>
                <use id="zoomminus" xlink:href="#zoomMin" x="42" y="9" onmousedown="handleZoom(evt,'out')"/>
                <use id="reset" xlink:href="#resetDef" x="30" y="36" onmousedown="handleReset()"/>
                <g id="arrowUp" xlink:href="#dirArrow" transform="translate(30 24)" onmousedown="handlePan(0,-1)">
                  <use xlink:href="#rim" fill="#404040">
                        <set attributeName="fill" to="#808080" begin="arrowUp.mouseover" end="arrowUp.mouseout"/>
                  </use>
                  <path fill="none" stroke="white" stroke-width="1.5" d="M0,-3.0v7 M-2.5,-0.5L0,-3.0L2.5,-0.5"/>
                </g>
                <g id="arrowRight" xlink:href="#dirArrow" transform="rotate(90) translate(36 -43)" onmousedown="handlePan(1,0)">
                  <use xlink:href="#rim" fill="#404040">
                        <set attributeName="fill" to="#808080" begin="arrowRight.mouseover" end="arrowRight.mouseout"/>
                  </use>
                  <path fill="none" stroke="white" stroke-width="1.5" d="M0,-3.0v7 M-2.5,-0.5L0,-3.0L2.5,-0.5"/>
                </g>
                <g id="arrowDown" xlink:href="#dirArrow" transform="rotate(180) translate(-30 -48)" onmousedown="handlePan(0,1)">
                  <use xlink:href="#rim" fill="#404040">
                        <set attributeName="fill" to="#808080" begin="arrowDown.mouseover" end="arrowDown.mouseout"/>
                  </use>
                  <path fill="none" stroke="white" stroke-width="1.5" d="M0,-3.0v7 M-2.5,-0.5L0,-3.0L2.5,-0.5"/>
                </g>
                <g id="arrowLeft" xlink:href="#dirArrow" transform="rotate(270) translate(-36 17)" onmousedown="handlePan(-1,0)">
                  <use xlink:href="#rim" fill="#404040">
                        <set attributeName="fill" to="#808080" begin="arrowLeft.mouseover" end="arrowLeft.mouseout"/>
                  </use>
                  <path fill="none" stroke="white" stroke-width="1.5" d="M0,-3.0v7 M-2.5,-0.5L0,-3.0L2.5,-0.5"/>
                </g>
        </g>
        <svg viewBox="0 0 15 15" width="100%" height="30px" preserveAspectRatio="xMaxYMin meet">
         <g id="arrow_out" transform="scale(0.3 0.3)">
          <a xlink:href="dir_0bd5307e14ef78d30f1665dd8a71b0d5_dep_org.svg" target="_base">
           <rect id="button" ry="5" rx="5" y="6" x="6" height="38" width="38"
                fill="#f2f5e9" fill-opacity="0.5" stroke="#606060" stroke-width="1.0"/>
           <path id="arrow"
             d="M 11.500037,31.436501 C 11.940474,20.09759 22.043105,11.32322 32.158766,21.979434 L 37.068811,17.246167 C 37.068811,17.246167 37.088388,32 37.088388,32 L 22.160133,31.978069 C 22.160133,31.978069 26.997745,27.140456 26.997745,27.140456 C 18.528582,18.264221 13.291696,25.230495 11.500037,31.436501 z"
             style="fill:#404040;"/>
          </a>
         </g>
        </svg>
</svg>
