<?xml version="1.0" encoding="UTF-8" standalone="no"?>
<!DOCTYPE svg PUBLIC "-//W3C//DTD SVG 1.1//EN"
 "http://www.w3.org/Graphics/SVG/1.1/DTD/svg11.dtd">
<!-- Generated by graphviz version 2.38.0 (20140413.2041)
 -->
<!-- Title: ImStrnicmp Pages: 1 -->
<svg width="350pt" height="28pt"
 viewBox="0.00 0.00 350.00 28.00" xmlns="http://www.w3.org/2000/svg" xmlns:xlink="http://www.w3.org/1999/xlink">
<g id="graph0" class="graph" transform="scale(1 1) rotate(0) translate(4 24)">
<title>ImStrnicmp</title>
<polygon fill="white" stroke="none" points="-4,4 -4,-24 346,-24 346,4 -4,4"/>
<!-- Node3588 -->
<g id="node1" class="node"><title>Node3588</title>
<polygon fill="#bfbfbf" stroke="black" points="0,-0.5 0,-19.5 66,-19.5 66,-0.5 0,-0.5"/>
<text text-anchor="middle" x="33" y="-7.5" font-family="Helvetica,sans-Serif" font-size="10.00">ImStrnicmp</text>
</g>
<!-- Node3589 -->
<g id="node2" class="node"><title>Node3589</title>
<g id="a_node2"><a xlink:href="../../d1/da2/imgui__internal_8h.html#adae096c61c812293ec61ac541c146674" target="_top" xlink:title="ImUpperPowerOfTwo">
<polygon fill="white" stroke="black" points="102,-0.5 102,-19.5 209,-19.5 209,-0.5 102,-0.5"/>
<text text-anchor="middle" x="155.5" y="-7.5" font-family="Helvetica,sans-Serif" font-size="10.00">ImUpperPowerOfTwo</text>
</a>
</g>
</g>
<!-- Node3588&#45;&gt;Node3589 -->
<g id="edge1" class="edge"><title>Node3588&#45;&gt;Node3589</title>
<path fill="none" stroke="midnightblue" d="M76.3392,-10C84.5164,-10 93.1777,-10 101.641,-10"/>
<polygon fill="midnightblue" stroke="midnightblue" points="76.2918,-6.5001 66.2918,-10 76.2918,-13.5001 76.2918,-6.5001"/>
</g>
<!-- Node3590 -->
<g id="node3" class="node"><title>Node3590</title>
<g id="a_node3"><a xlink:href="../../d5/d9e/struct_im_font_atlas.html#a81e39e30dffa4dd7e458a53297451e27" target="_top" xlink:title="ImFontAtlas::Build">
<polygon fill="white" stroke="black" points="245,-0.5 245,-19.5 342,-19.5 342,-0.5 245,-0.5"/>
<text text-anchor="middle" x="293.5" y="-7.5" font-family="Helvetica,sans-Serif" font-size="10.00">ImFontAtlas::Build</text>
</a>
</g>
</g>
<!-- Node3589&#45;&gt;Node3590 -->
<g id="edge2" class="edge"><title>Node3589&#45;&gt;Node3590</title>
<path fill="none" stroke="midnightblue" d="M219.167,-10C227.834,-10 236.616,-10 244.947,-10"/>
<polygon fill="midnightblue" stroke="midnightblue" points="219.081,-6.5001 209.081,-10 219.081,-13.5001 219.081,-6.5001"/>
</g>
</g>
</svg>
