<?xml version="1.0" encoding="UTF-8" standalone="no"?>
<!DOCTYPE svg PUBLIC "-//W3C//DTD SVG 1.1//EN"
 "http://www.w3.org/Graphics/SVG/1.1/DTD/svg11.dtd">
<!-- Generated by graphviz version 2.38.0 (20140413.2041)
 -->
<!-- Title: Ogre::MovableText::getSquaredViewDepth Pages: 1 -->
<svg width="261pt" height="88pt"
 viewBox="0.00 0.00 261.00 88.00" xmlns="http://www.w3.org/2000/svg" xmlns:xlink="http://www.w3.org/1999/xlink">
<g id="graph0" class="graph" transform="scale(1 1) rotate(0) translate(4 84)">
<title>Ogre::MovableText::getSquaredViewDepth</title>
<polygon fill="white" stroke="none" points="-4,4 -4,-84 257,-84 257,4 -4,4"/>
<!-- Node72 -->
<g id="node1" class="node"><title>Node72</title>
<polygon fill="#bfbfbf" stroke="black" points="0,-24.5 0,-54.5 113,-54.5 113,-24.5 0,-24.5"/>
<text text-anchor="start" x="8" y="-42.5" font-family="Helvetica,sans-Serif" font-size="10.00">Ogre::MovableText::</text>
<text text-anchor="middle" x="56.5" y="-31.5" font-family="Helvetica,sans-Serif" font-size="10.00">getSquaredViewDepth</text>
</g>
<!-- Node73 -->
<g id="node2" class="node"><title>Node73</title>
<g id="a_node2"><a xlink:href="../../dc/dc3/class_ogre_1_1_movable_text.html#a71db4f63bd0d0afbfa5ae17c11f2ca5f" target="_top" xlink:title="Ogre::MovableText::\lgetWorldOrientation">
<polygon fill="white" stroke="black" points="149,-49.5 149,-79.5 253,-79.5 253,-49.5 149,-49.5"/>
<text text-anchor="start" x="157" y="-67.5" font-family="Helvetica,sans-Serif" font-size="10.00">Ogre::MovableText::</text>
<text text-anchor="middle" x="201" y="-56.5" font-family="Helvetica,sans-Serif" font-size="10.00">getWorldOrientation</text>
</a>
</g>
</g>
<!-- Node72&#45;&gt;Node73 -->
<g id="edge1" class="edge"><title>Node72&#45;&gt;Node73</title>
<path fill="none" stroke="midnightblue" d="M113.002,-49.2372C121.428,-50.7154 130.162,-52.2477 138.702,-53.746"/>
<polygon fill="midnightblue" stroke="midnightblue" points="138.153,-57.2031 148.608,-55.4838 139.363,-50.3084 138.153,-57.2031"/>
</g>
<!-- Node74 -->
<g id="node3" class="node"><title>Node74</title>
<g id="a_node3"><a xlink:href="../../dc/dc3/class_ogre_1_1_movable_text.html#afc3d1c929ca54df1fbdb8c9f49866fce" target="_top" xlink:title="Ogre::MovableText::\lgetWorldPosition">
<polygon fill="white" stroke="black" points="149,-0.5 149,-30.5 253,-30.5 253,-0.5 149,-0.5"/>
<text text-anchor="start" x="157" y="-18.5" font-family="Helvetica,sans-Serif" font-size="10.00">Ogre::MovableText::</text>
<text text-anchor="middle" x="201" y="-7.5" font-family="Helvetica,sans-Serif" font-size="10.00">getWorldPosition</text>
</a>
</g>
</g>
<!-- Node72&#45;&gt;Node74 -->
<g id="edge2" class="edge"><title>Node72&#45;&gt;Node74</title>
<path fill="none" stroke="midnightblue" d="M113.002,-30.1523C121.428,-28.7333 130.162,-27.2622 138.702,-25.8239"/>
<polygon fill="midnightblue" stroke="midnightblue" points="139.328,-29.2678 148.608,-24.1555 138.165,-22.3651 139.328,-29.2678"/>
</g>
</g>
</svg>
