<?xml version="1.0" encoding="UTF-8" standalone="no"?>
<!DOCTYPE svg PUBLIC "-//W3C//DTD SVG 1.1//EN"
 "http://www.w3.org/Graphics/SVG/1.1/DTD/svg11.dtd">
<!-- Generated by graphviz version 2.38.0 (20140413.2041)
 -->
<!-- Title: Ogre::MovableText::getMovableType Pages: 1 -->
<!--zoomable 137 -->
<svg id="main" version="1.1" xmlns="http://www.w3.org/2000/svg" xmlns:xlink="http://www.w3.org/1999/xlink" xml:space="preserve" onload="init(evt)">
<style type="text/css"><![CDATA[
.edge:hover path { stroke: red; }
.edge:hover polygon { stroke: red; fill: red; }
]]></style>
<script type="text/javascript"><![CDATA[
var edges = document.getElementsByTagName('g');
if (edges && edges.length) {
  for (var i=0;i<edges.length;i++) {
    if (edges[i].id.substr(0,4)=='edge') {
      edges[i].setAttribute('class','edge');
    }
  }
}
]]></script>
        <defs>
                <circle id="rim" cx="0" cy="0" r="7"/>
                <circle id="rim2" cx="0" cy="0" r="3.5"/>
                <g id="zoomPlus">
                        <use xlink:href="#rim" fill="#404040">
                                <set attributeName="fill" to="#808080" begin="zoomplus.mouseover" end="zoomplus.mouseout"/>
                        </use>
                        <path d="M-4,0h8M0,-4v8" fill="none" stroke="white" stroke-width="1.5" pointer-events="none"/>
                </g>
                <g id="zoomMin">
                        <use xlink:href="#rim" fill="#404040">
                                <set attributeName="fill" to="#808080" begin="zoomminus.mouseover" end="zoomminus.mouseout"/>
                        </use>
                        <path d="M-4,0h8" fill="none" stroke="white" stroke-width="1.5" pointer-events="none"/>
                </g>
                <g id="dirArrow">
                        <path fill="none" stroke="white" stroke-width="1.5" d="M0,-3.0v7 M-2.5,-0.5L0,-3.0L2.5,-0.5"/>
                </g>
               <g id="resetDef">
                       <use xlink:href="#rim2" fill="#404040">
                               <set attributeName="fill" to="#808080" begin="reset.mouseover" end="reset.mouseout"/>
                       </use>
               </g>
        </defs>

<script type="text/javascript">
var viewWidth = 538;
var viewHeight = 137;
var sectionId = 'dynsection-10';
</script>
<script xlink:href="../../svgpan.js"/>
<svg id="graph" class="graph">
<g id="viewport">
<title>Ogre::MovableText::getMovableType</title>
<polygon fill="white" stroke="none" points="-4,4 -4,-133 534,-133 534,4 -4,4"/>
<!-- Node54 -->
<g id="node1" class="node"><title>Node54</title>
<polygon fill="#bfbfbf" stroke="black" points="0,-49.5 0,-79.5 104,-79.5 104,-49.5 0,-49.5"/>
<text text-anchor="start" x="8" y="-67.5" font-family="Helvetica,sans-Serif" font-size="10.00">Ogre::MovableText::</text>
<text text-anchor="middle" x="52" y="-56.5" font-family="Helvetica,sans-Serif" font-size="10.00">getMovableType</text>
</g>
<!-- Node55 -->
<g id="node2" class="node"><title>Node55</title>
<g id="a_node2"><a xlink:href="../../dc/dc3/class_ogre_1_1_movable_text.html#afad4bd643ebae1b36c31d52a95a08a84" target="_top" xlink:title="Ogre::MovableText::\l_notifyCurrentCamera">
<polygon fill="white" stroke="black" points="140,-98.5 140,-128.5 250,-128.5 250,-98.5 140,-98.5"/>
<text text-anchor="start" x="148" y="-116.5" font-family="Helvetica,sans-Serif" font-size="10.00">Ogre::MovableText::</text>
<text text-anchor="middle" x="195" y="-105.5" font-family="Helvetica,sans-Serif" font-size="10.00">_notifyCurrentCamera</text>
</a>
</g>
</g>
<!-- Node54&#45;&gt;Node55 -->
<g id="edge1" class="edge"><title>Node54&#45;&gt;Node55</title>
<path fill="none" stroke="midnightblue" d="M96.4552,-79.6014C110.527,-84.4917 126.293,-89.9707 140.979,-95.0744"/>
<polygon fill="midnightblue" stroke="midnightblue" points="139.851,-98.3875 150.446,-98.3641 142.149,-91.7753 139.851,-98.3875"/>
</g>
<!-- Node56 -->
<g id="node3" class="node"><title>Node56</title>
<g id="a_node3"><a xlink:href="../../dc/dc3/class_ogre_1_1_movable_text.html#ab1b1e781e7fc9d01ba159ff785a272b5" target="_top" xlink:title="Ogre::MovableText::\l_updateRenderQueue">
<polygon fill="white" stroke="black" points="140,-49.5 140,-79.5 250,-79.5 250,-49.5 140,-49.5"/>
<text text-anchor="start" x="148" y="-67.5" font-family="Helvetica,sans-Serif" font-size="10.00">Ogre::MovableText::</text>
<text text-anchor="middle" x="195" y="-56.5" font-family="Helvetica,sans-Serif" font-size="10.00">_updateRenderQueue</text>
</a>
</g>
</g>
<!-- Node54&#45;&gt;Node56 -->
<g id="edge2" class="edge"><title>Node54&#45;&gt;Node56</title>
<path fill="none" stroke="midnightblue" d="M104.303,-64.5C112.476,-64.5 121.022,-64.5 129.453,-64.5"/>
<polygon fill="midnightblue" stroke="midnightblue" points="129.648,-68.0001 139.648,-64.5 129.648,-61.0001 129.648,-68.0001"/>
</g>
<!-- Node59 -->
<g id="node6" class="node"><title>Node59</title>
<g id="a_node6"><a xlink:href="../../dc/dc3/class_ogre_1_1_movable_text.html#a36ad18a28b8a65cfd72d9510f395a1bb" target="_top" xlink:title="Ogre::MovableText::\lgetRenderOperation">
<polygon fill="white" stroke="black" points="143,-0.5 143,-30.5 247,-30.5 247,-0.5 143,-0.5"/>
<text text-anchor="start" x="151" y="-18.5" font-family="Helvetica,sans-Serif" font-size="10.00">Ogre::MovableText::</text>
<text text-anchor="middle" x="195" y="-7.5" font-family="Helvetica,sans-Serif" font-size="10.00">getRenderOperation</text>
</a>
</g>
</g>
<!-- Node54&#45;&gt;Node59 -->
<g id="edge6" class="edge"><title>Node54&#45;&gt;Node59</title>
<path fill="none" stroke="midnightblue" d="M96.4552,-49.3986C110.527,-44.5083 126.293,-39.0293 140.979,-33.9256"/>
<polygon fill="midnightblue" stroke="midnightblue" points="142.149,-37.2247 150.446,-30.6359 139.851,-30.6125 142.149,-37.2247"/>
</g>
<!-- Node57 -->
<g id="node4" class="node"><title>Node57</title>
<g id="a_node4"><a xlink:href="../../dc/dc3/class_ogre_1_1_movable_text.html#a1414bbe8133feca96a3a425c94e6f063" target="_top" xlink:title="Ogre::MovableText::\l_setupGeometry">
<polygon fill="white" stroke="black" points="286,-25.5 286,-55.5 390,-55.5 390,-25.5 286,-25.5"/>
<text text-anchor="start" x="294" y="-43.5" font-family="Helvetica,sans-Serif" font-size="10.00">Ogre::MovableText::</text>
<text text-anchor="middle" x="338" y="-32.5" font-family="Helvetica,sans-Serif" font-size="10.00">_setupGeometry</text>
</a>
</g>
</g>
<!-- Node56&#45;&gt;Node57 -->
<g id="edge3" class="edge"><title>Node56&#45;&gt;Node57</title>
<path fill="none" stroke="midnightblue" d="M250.111,-55.2896C258.484,-53.8644 267.183,-52.3837 275.7,-50.934"/>
<polygon fill="midnightblue" stroke="midnightblue" points="276.314,-54.38 285.585,-49.2516 275.139,-47.4793 276.314,-54.38"/>
</g>
<!-- Node58 -->
<g id="node5" class="node"><title>Node58</title>
<g id="a_node5"><a xlink:href="../../dc/dc3/class_ogre_1_1_movable_text.html#af39ecbbae96d642b5e4a1a2889d3cb87" target="_top" xlink:title="Ogre::MovableText::\l_updateColors">
<polygon fill="white" stroke="black" points="426,-25.5 426,-55.5 530,-55.5 530,-25.5 426,-25.5"/>
<text text-anchor="start" x="434" y="-43.5" font-family="Helvetica,sans-Serif" font-size="10.00">Ogre::MovableText::</text>
<text text-anchor="middle" x="478" y="-32.5" font-family="Helvetica,sans-Serif" font-size="10.00">_updateColors</text>
</a>
</g>
</g>
<!-- Node56&#45;&gt;Node58 -->
<g id="edge5" class="edge"><title>Node56&#45;&gt;Node58</title>
<path fill="none" stroke="midnightblue" d="M250.221,-68.9569C289.282,-71.1535 343.141,-72.0991 390,-65.5 401.081,-63.9395 412.728,-61.3131 423.769,-58.3344"/>
<polygon fill="midnightblue" stroke="midnightblue" points="425.037,-61.613 433.705,-55.5203 423.129,-54.8779 425.037,-61.613"/>
</g>
<!-- Node57&#45;&gt;Node58 -->
<g id="edge4" class="edge"><title>Node57&#45;&gt;Node58</title>
<path fill="none" stroke="midnightblue" d="M390.386,-40.5C398.558,-40.5 407.083,-40.5 415.46,-40.5"/>
<polygon fill="midnightblue" stroke="midnightblue" points="415.571,-44.0001 425.571,-40.5 415.571,-37.0001 415.571,-44.0001"/>
</g>
<!-- Node59&#45;&gt;Node57 -->
<g id="edge7" class="edge"><title>Node59&#45;&gt;Node57</title>
<path fill="none" stroke="midnightblue" d="M247.303,-24.5963C256.654,-26.2542 266.492,-27.9985 276.088,-29.7001"/>
<polygon fill="midnightblue" stroke="midnightblue" points="275.514,-33.1527 285.971,-31.4523 276.736,-26.2602 275.514,-33.1527"/>
</g>
<!-- Node59&#45;&gt;Node58 -->
<g id="edge8" class="edge"><title>Node59&#45;&gt;Node58</title>
<path fill="none" stroke="midnightblue" d="M247.33,-11.6163C286.594,-9.58198 341.974,-8.73655 390,-15.5 401.081,-17.0605 412.728,-19.6869 423.769,-22.6656"/>
<polygon fill="midnightblue" stroke="midnightblue" points="423.129,-26.1221 433.705,-25.4797 425.037,-19.387 423.129,-26.1221"/>
</g>
</g>
</svg>
        <g id="navigator" transform="translate(0 0)" fill="#404254">
                <rect fill="#f2f5e9" fill-opacity="0.5" stroke="#606060" stroke-width=".5" x="0" y="0" width="60" height="60"/>
                <use id="zoomplus" xlink:href="#zoomPlus" x="17" y="9" onmousedown="handleZoom(evt,'in')"/>
                <use id="zoomminus" xlink:href="#zoomMin" x="42" y="9" onmousedown="handleZoom(evt,'out')"/>
                <use id="reset" xlink:href="#resetDef" x="30" y="36" onmousedown="handleReset()"/>
                <g id="arrowUp" xlink:href="#dirArrow" transform="translate(30 24)" onmousedown="handlePan(0,-1)">
                  <use xlink:href="#rim" fill="#404040">
                        <set attributeName="fill" to="#808080" begin="arrowUp.mouseover" end="arrowUp.mouseout"/>
                  </use>
                  <path fill="none" stroke="white" stroke-width="1.5" d="M0,-3.0v7 M-2.5,-0.5L0,-3.0L2.5,-0.5"/>
                </g>
                <g id="arrowRight" xlink:href="#dirArrow" transform="rotate(90) translate(36 -43)" onmousedown="handlePan(1,0)">
                  <use xlink:href="#rim" fill="#404040">
                        <set attributeName="fill" to="#808080" begin="arrowRight.mouseover" end="arrowRight.mouseout"/>
                  </use>
                  <path fill="none" stroke="white" stroke-width="1.5" d="M0,-3.0v7 M-2.5,-0.5L0,-3.0L2.5,-0.5"/>
                </g>
                <g id="arrowDown" xlink:href="#dirArrow" transform="rotate(180) translate(-30 -48)" onmousedown="handlePan(0,1)">
                  <use xlink:href="#rim" fill="#404040">
                        <set attributeName="fill" to="#808080" begin="arrowDown.mouseover" end="arrowDown.mouseout"/>
                  </use>
                  <path fill="none" stroke="white" stroke-width="1.5" d="M0,-3.0v7 M-2.5,-0.5L0,-3.0L2.5,-0.5"/>
                </g>
                <g id="arrowLeft" xlink:href="#dirArrow" transform="rotate(270) translate(-36 17)" onmousedown="handlePan(-1,0)">
                  <use xlink:href="#rim" fill="#404040">
                        <set attributeName="fill" to="#808080" begin="arrowLeft.mouseover" end="arrowLeft.mouseout"/>
                  </use>
                  <path fill="none" stroke="white" stroke-width="1.5" d="M0,-3.0v7 M-2.5,-0.5L0,-3.0L2.5,-0.5"/>
                </g>
        </g>
        <svg viewBox="0 0 15 15" width="100%" height="30px" preserveAspectRatio="xMaxYMin meet">
         <g id="arrow_out" transform="scale(0.3 0.3)">
          <a xlink:href="class_ogre_1_1_movable_text_afe37aad91c740326e48b367cfb16747b_cgraph_org.svg" target="_base">
           <rect id="button" ry="5" rx="5" y="6" x="6" height="38" width="38"
                fill="#f2f5e9" fill-opacity="0.5" stroke="#606060" stroke-width="1.0"/>
           <path id="arrow"
             d="M 11.500037,31.436501 C 11.940474,20.09759 22.043105,11.32322 32.158766,21.979434 L 37.068811,17.246167 C 37.068811,17.246167 37.088388,32 37.088388,32 L 22.160133,31.978069 C 22.160133,31.978069 26.997745,27.140456 26.997745,27.140456 C 18.528582,18.264221 13.291696,25.230495 11.500037,31.436501 z"
             style="fill:#404040;"/>
          </a>
         </g>
        </svg>
</svg>
