<?xml version="1.0" encoding="UTF-8" standalone="no"?>
<!DOCTYPE svg PUBLIC "-//W3C//DTD SVG 1.1//EN"
 "http://www.w3.org/Graphics/SVG/1.1/DTD/svg11.dtd">
<!-- Generated by graphviz version 2.38.0 (20140413.2041)
 -->
<!-- Title: SkyX::GPUManager::_notifySkydomeMaterialChanged Pages: 1 -->
<svg width="555pt" height="102pt"
 viewBox="0.00 0.00 555.00 101.50" xmlns="http://www.w3.org/2000/svg" xmlns:xlink="http://www.w3.org/1999/xlink">
<g id="graph0" class="graph" transform="scale(1 1) rotate(0) translate(4 97.5)">
<title>SkyX::GPUManager::_notifySkydomeMaterialChanged</title>
<polygon fill="white" stroke="none" points="-4,4 -4,-97.5 551,-97.5 551,4 -4,4"/>
<!-- Node9 -->
<g id="node1" class="node"><title>Node9</title>
<polygon fill="#bfbfbf" stroke="black" points="0,-24.5 0,-54.5 159,-54.5 159,-24.5 0,-24.5"/>
<text text-anchor="start" x="8" y="-42.5" font-family="Helvetica,sans-Serif" font-size="10.00">SkyX::GPUManager::</text>
<text text-anchor="middle" x="79.5" y="-31.5" font-family="Helvetica,sans-Serif" font-size="10.00">_notifySkydomeMaterialChanged</text>
</g>
<!-- Node10 -->
<g id="node2" class="node"><title>Node10</title>
<g id="a_node2"><a xlink:href="../../d8/d41/class_sky_x_1_1_g_p_u_manager.html#ac6327911c4478d527fdf264f0a28ea34" target="_top" xlink:title="SkyX::GPUManager::getSkydome\lMaterialName">
<polygon fill="white" stroke="black" points="195,-49.5 195,-79.5 359,-79.5 359,-49.5 195,-49.5"/>
<text text-anchor="start" x="203" y="-67.5" font-family="Helvetica,sans-Serif" font-size="10.00">SkyX::GPUManager::getSkydome</text>
<text text-anchor="middle" x="277" y="-56.5" font-family="Helvetica,sans-Serif" font-size="10.00">MaterialName</text>
</a>
</g>
</g>
<!-- Node9&#45;&gt;Node10 -->
<g id="edge1" class="edge"><title>Node9&#45;&gt;Node10</title>
<path fill="none" stroke="midnightblue" d="M159.172,-49.5604C167.637,-50.6429 176.301,-51.7507 184.896,-52.8498"/>
<polygon fill="midnightblue" stroke="midnightblue" points="184.574,-56.3371 194.937,-54.1339 185.462,-49.3937 184.574,-56.3371"/>
</g>
<!-- Node13 -->
<g id="node5" class="node"><title>Node13</title>
<g id="a_node5"><a xlink:href="../../d8/d41/class_sky_x_1_1_g_p_u_manager.html#a9b93fed5c4b58a30cfba0fde4032c6be" target="_top" xlink:title="SkyX::GPUManager::\l_setTextureHWGammaCorrection">
<polygon fill="white" stroke="black" points="195.5,-0.5 195.5,-30.5 358.5,-30.5 358.5,-0.5 195.5,-0.5"/>
<text text-anchor="start" x="203.5" y="-18.5" font-family="Helvetica,sans-Serif" font-size="10.00">SkyX::GPUManager::</text>
<text text-anchor="middle" x="277" y="-7.5" font-family="Helvetica,sans-Serif" font-size="10.00">_setTextureHWGammaCorrection</text>
</a>
</g>
</g>
<!-- Node9&#45;&gt;Node13 -->
<g id="edge4" class="edge"><title>Node9&#45;&gt;Node13</title>
<path fill="none" stroke="midnightblue" d="M159.172,-29.842C167.713,-28.7935 176.457,-27.7201 185.128,-26.6557"/>
<polygon fill="midnightblue" stroke="midnightblue" points="185.758,-30.1047 195.257,-25.4122 184.905,-23.1568 185.758,-30.1047"/>
</g>
<!-- Node11 -->
<g id="node3" class="node"><title>Node11</title>
<g id="a_node3"><a xlink:href="../../de/db3/class_sky_x_1_1_sky_x.html#a6d16561c0c0c4d6ebbf9ae3ca4abd963" target="_top" xlink:title="SkyX::SkyX::isStarfieldEnabled">
<polygon fill="white" stroke="black" points="395,-74 395,-93 547,-93 547,-74 395,-74"/>
<text text-anchor="middle" x="471" y="-81" font-family="Helvetica,sans-Serif" font-size="10.00">SkyX::SkyX::isStarfieldEnabled</text>
</a>
</g>
</g>
<!-- Node10&#45;&gt;Node11 -->
<g id="edge2" class="edge"><title>Node10&#45;&gt;Node11</title>
<path fill="none" stroke="midnightblue" d="M359.147,-72.5302C367.68,-73.3746 376.374,-74.2349 384.949,-75.0835"/>
<polygon fill="midnightblue" stroke="midnightblue" points="384.649,-78.5708 394.945,-76.0727 385.338,-71.6048 384.649,-78.5708"/>
</g>
<!-- Node12 -->
<g id="node4" class="node"><title>Node12</title>
<g id="a_node4"><a xlink:href="../../de/db3/class_sky_x_1_1_sky_x.html#a3f20af6ba71e7a5a177d10533944179a" target="_top" xlink:title="SkyX::SkyX::getLightingMode">
<polygon fill="white" stroke="black" points="398.5,-36 398.5,-55 543.5,-55 543.5,-36 398.5,-36"/>
<text text-anchor="middle" x="471" y="-43" font-family="Helvetica,sans-Serif" font-size="10.00">SkyX::SkyX::getLightingMode</text>
</a>
</g>
</g>
<!-- Node10&#45;&gt;Node12 -->
<g id="edge3" class="edge"><title>Node10&#45;&gt;Node12</title>
<path fill="none" stroke="midnightblue" d="M359.147,-56.4698C368.794,-55.5152 378.646,-54.5403 388.3,-53.5848"/>
<polygon fill="midnightblue" stroke="midnightblue" points="388.667,-57.0658 398.273,-52.598 387.977,-50.0998 388.667,-57.0658"/>
</g>
</g>
</svg>
