<?xml version="1.0" encoding="UTF-8" standalone="no"?>
<!DOCTYPE svg PUBLIC "-//W3C//DTD SVG 1.1//EN"
 "http://www.w3.org/Graphics/SVG/1.1/DTD/svg11.dtd">
<!-- Generated by graphviz version 2.38.0 (20140413.2041)
 -->
<!-- Title: SkyX::GPUManager::setGpuProgramParameter Pages: 1 -->
<!--zoomable 131 -->
<svg id="main" version="1.1" xmlns="http://www.w3.org/2000/svg" xmlns:xlink="http://www.w3.org/1999/xlink" xml:space="preserve" onload="init(evt)">
<style type="text/css"><![CDATA[
.edge:hover path { stroke: red; }
.edge:hover polygon { stroke: red; fill: red; }
]]></style>
<script type="text/javascript"><![CDATA[
var edges = document.getElementsByTagName('g');
if (edges && edges.length) {
  for (var i=0;i<edges.length;i++) {
    if (edges[i].id.substr(0,4)=='edge') {
      edges[i].setAttribute('class','edge');
    }
  }
}
]]></script>
        <defs>
                <circle id="rim" cx="0" cy="0" r="7"/>
                <circle id="rim2" cx="0" cy="0" r="3.5"/>
                <g id="zoomPlus">
                        <use xlink:href="#rim" fill="#404040">
                                <set attributeName="fill" to="#808080" begin="zoomplus.mouseover" end="zoomplus.mouseout"/>
                        </use>
                        <path d="M-4,0h8M0,-4v8" fill="none" stroke="white" stroke-width="1.5" pointer-events="none"/>
                </g>
                <g id="zoomMin">
                        <use xlink:href="#rim" fill="#404040">
                                <set attributeName="fill" to="#808080" begin="zoomminus.mouseover" end="zoomminus.mouseout"/>
                        </use>
                        <path d="M-4,0h8" fill="none" stroke="white" stroke-width="1.5" pointer-events="none"/>
                </g>
                <g id="dirArrow">
                        <path fill="none" stroke="white" stroke-width="1.5" d="M0,-3.0v7 M-2.5,-0.5L0,-3.0L2.5,-0.5"/>
                </g>
               <g id="resetDef">
                       <use xlink:href="#rim2" fill="#404040">
                               <set attributeName="fill" to="#808080" begin="reset.mouseover" end="reset.mouseout"/>
                       </use>
               </g>
        </defs>

<script type="text/javascript">
var viewWidth = 1196;
var viewHeight = 131;
var sectionId = 'dynsection-13';
</script>
<script xlink:href="../../svgpan.js"/>
<svg id="graph" class="graph">
<g id="viewport">
<title>SkyX::GPUManager::setGpuProgramParameter</title>
<polygon fill="white" stroke="none" points="-4,4 -4,-127 1192,-127 1192,4 -4,4"/>
<!-- Node82 -->
<g id="node1" class="node"><title>Node82</title>
<polygon fill="#bfbfbf" stroke="black" points="0,-43.5 0,-73.5 141,-73.5 141,-43.5 0,-43.5"/>
<text text-anchor="start" x="8" y="-61.5" font-family="Helvetica,sans-Serif" font-size="10.00">SkyX::GPUManager::setGpu</text>
<text text-anchor="middle" x="70.5" y="-50.5" font-family="Helvetica,sans-Serif" font-size="10.00">ProgramParameter</text>
</g>
<!-- Node83 -->
<g id="node2" class="node"><title>Node83</title>
<g id="a_node2"><a xlink:href="../../dd/d55/class_sky_x_1_1_atmosphere_manager.html#a806c5314af7ee02de3d25bfd4300866e" target="_top" xlink:title="SkyX::AtmosphereManager\l::_update">
<polygon fill="white" stroke="black" points="177,-43.5 177,-73.5 312,-73.5 312,-43.5 177,-43.5"/>
<text text-anchor="start" x="185" y="-61.5" font-family="Helvetica,sans-Serif" font-size="10.00">SkyX::AtmosphereManager</text>
<text text-anchor="middle" x="244.5" y="-50.5" font-family="Helvetica,sans-Serif" font-size="10.00">::_update</text>
</a>
</g>
</g>
<!-- Node82&#45;&gt;Node83 -->
<g id="edge1" class="edge"><title>Node82&#45;&gt;Node83</title>
<path fill="none" stroke="midnightblue" d="M151.703,-58.5C160.149,-58.5 168.67,-58.5 176.939,-58.5"/>
<polygon fill="midnightblue" stroke="midnightblue" points="151.459,-55.0001 141.459,-58.5 151.459,-62.0001 151.459,-55.0001"/>
</g>
<!-- Node84 -->
<g id="node3" class="node"><title>Node84</title>
<g id="a_node3"><a xlink:href="../../dd/d55/class_sky_x_1_1_atmosphere_manager.html#ae5e002b202e13b4af6fe205ca97c7bfc" target="_top" xlink:title="SkyX::AtmosphereManager\l::setOptions">
<polygon fill="white" stroke="black" points="734,-92.5 734,-122.5 869,-122.5 869,-92.5 734,-92.5"/>
<text text-anchor="start" x="742" y="-110.5" font-family="Helvetica,sans-Serif" font-size="10.00">SkyX::AtmosphereManager</text>
<text text-anchor="middle" x="801.5" y="-99.5" font-family="Helvetica,sans-Serif" font-size="10.00">::setOptions</text>
</a>
</g>
</g>
<!-- Node83&#45;&gt;Node84 -->
<g id="edge2" class="edge"><title>Node83&#45;&gt;Node84</title>
<path fill="none" stroke="midnightblue" d="M311.765,-75.7964C323.756,-78.4164 336.198,-80.8056 348,-82.5 484.096,-102.04 645.239,-106.552 733.817,-107.448"/>
<polygon fill="midnightblue" stroke="midnightblue" points="312.348,-72.3401 301.823,-73.5515 310.807,-79.1682 312.348,-72.3401"/>
</g>
<!-- Node86 -->
<g id="node5" class="node"><title>Node86</title>
<g id="a_node5"><a xlink:href="../../dd/d55/class_sky_x_1_1_atmosphere_manager.html#abcdfead934afa273afdeb542ab2633b2" target="_top" xlink:title="SkyX::AtmosphereManager\l::getOptions">
<polygon fill="white" stroke="black" points="348,-43.5 348,-73.5 483,-73.5 483,-43.5 348,-43.5"/>
<text text-anchor="start" x="356" y="-61.5" font-family="Helvetica,sans-Serif" font-size="10.00">SkyX::AtmosphereManager</text>
<text text-anchor="middle" x="415.5" y="-50.5" font-family="Helvetica,sans-Serif" font-size="10.00">::getOptions</text>
</a>
</g>
</g>
<!-- Node83&#45;&gt;Node86 -->
<g id="edge4" class="edge"><title>Node83&#45;&gt;Node86</title>
<path fill="none" stroke="midnightblue" d="M322.551,-58.5C331.019,-58.5 339.589,-58.5 347.915,-58.5"/>
<polygon fill="midnightblue" stroke="midnightblue" points="322.293,-55.0001 312.293,-58.5 322.293,-62.0001 322.293,-55.0001"/>
</g>
<!-- Node91 -->
<g id="node10" class="node"><title>Node91</title>
<g id="a_node10"><a xlink:href="../../d8/d41/class_sky_x_1_1_g_p_u_manager.html#af949460a2e4caace1847cb0b251516a1" target="_top" xlink:title="SkyX::GPUManager::addGroundPass">
<polygon fill="white" stroke="black" points="519,-5 519,-24 698,-24 698,-5 519,-5"/>
<text text-anchor="middle" x="608.5" y="-12" font-family="Helvetica,sans-Serif" font-size="10.00">SkyX::GPUManager::addGroundPass</text>
</a>
</g>
</g>
<!-- Node83&#45;&gt;Node91 -->
<g id="edge12" class="edge"><title>Node83&#45;&gt;Node91</title>
<path fill="none" stroke="midnightblue" d="M309.883,-41.0712C322.449,-38.1601 335.579,-35.4556 348,-33.5 404.448,-24.6127 468.473,-19.8693 518.803,-17.3444"/>
<polygon fill="midnightblue" stroke="midnightblue" points="308.866,-37.7155 299.951,-43.4398 310.49,-44.5245 308.866,-37.7155"/>
</g>
<!-- Node85 -->
<g id="node4" class="node"><title>Node85</title>
<g id="a_node4"><a xlink:href="../../d6/de7/class_sky_x_1_1_cfg_file_manager.html#a38d52b744527dc5b536243e8f549eb7d" target="_top" xlink:title="SkyX::CfgFileManager\l::load">
<polygon fill="white" stroke="black" points="1075,-68.5 1075,-98.5 1188,-98.5 1188,-68.5 1075,-68.5"/>
<text text-anchor="start" x="1083" y="-86.5" font-family="Helvetica,sans-Serif" font-size="10.00">SkyX::CfgFileManager</text>
<text text-anchor="middle" x="1131.5" y="-75.5" font-family="Helvetica,sans-Serif" font-size="10.00">::load</text>
</a>
</g>
</g>
<!-- Node84&#45;&gt;Node85 -->
<g id="edge3" class="edge"><title>Node84&#45;&gt;Node85</title>
<path fill="none" stroke="midnightblue" d="M879.451,-101.869C939.43,-97.4807 1021.28,-91.4915 1074.99,-87.5619"/>
<polygon fill="midnightblue" stroke="midnightblue" points="878.989,-98.3938 869.271,-102.614 879.5,-105.375 878.989,-98.3938"/>
</g>
<!-- Node87 -->
<g id="node6" class="node"><title>Node87</title>
<g id="a_node6"><a xlink:href="../../d6/d50/class_sky_x_1_1_cloud_layer.html#ac21bd19a89d1a9631ede722756a0ffb2" target="_top" xlink:title="SkyX::CloudLayer::\l_updateInternalPassParameters">
<polygon fill="white" stroke="black" points="531,-43.5 531,-73.5 686,-73.5 686,-43.5 531,-43.5"/>
<text text-anchor="start" x="539" y="-61.5" font-family="Helvetica,sans-Serif" font-size="10.00">SkyX::CloudLayer::</text>
<text text-anchor="middle" x="608.5" y="-50.5" font-family="Helvetica,sans-Serif" font-size="10.00">_updateInternalPassParameters</text>
</a>
</g>
</g>
<!-- Node86&#45;&gt;Node87 -->
<g id="edge5" class="edge"><title>Node86&#45;&gt;Node87</title>
<path fill="none" stroke="midnightblue" d="M493.278,-58.5C505.617,-58.5 518.39,-58.5 530.728,-58.5"/>
<polygon fill="midnightblue" stroke="midnightblue" points="493.034,-55.0001 483.034,-58.5 493.034,-62.0001 493.034,-55.0001"/>
</g>
<!-- Node86&#45;&gt;Node91 -->
<g id="edge11" class="edge"><title>Node86&#45;&gt;Node91</title>
<path fill="none" stroke="midnightblue" d="M486.701,-41.1045C497.506,-38.5062 508.543,-35.8972 519,-33.5 532.939,-30.3045 548.151,-26.9801 561.969,-24.022"/>
<polygon fill="midnightblue" stroke="midnightblue" points="485.764,-37.7299 476.867,-43.4813 487.409,-44.534 485.764,-37.7299"/>
</g>
<!-- Node88 -->
<g id="node7" class="node"><title>Node88</title>
<g id="a_node7"><a xlink:href="../../d6/d50/class_sky_x_1_1_cloud_layer.html#add18a961fbd1e2a0f2c700694d4c1069" target="_top" xlink:title="SkyX::CloudLayer::\l_registerCloudLayer">
<polygon fill="white" stroke="black" points="750,-43.5 750,-73.5 853,-73.5 853,-43.5 750,-43.5"/>
<text text-anchor="start" x="758" y="-61.5" font-family="Helvetica,sans-Serif" font-size="10.00">SkyX::CloudLayer::</text>
<text text-anchor="middle" x="801.5" y="-50.5" font-family="Helvetica,sans-Serif" font-size="10.00">_registerCloudLayer</text>
</a>
</g>
</g>
<!-- Node87&#45;&gt;Node88 -->
<g id="edge6" class="edge"><title>Node87&#45;&gt;Node88</title>
<path fill="none" stroke="midnightblue" d="M696.237,-58.5C714.62,-58.5 733.439,-58.5 749.94,-58.5"/>
<polygon fill="midnightblue" stroke="midnightblue" points="696.087,-55.0001 686.086,-58.5 696.086,-62.0001 696.087,-55.0001"/>
</g>
<!-- Node90 -->
<g id="node9" class="node"><title>Node90</title>
<g id="a_node9"><a xlink:href="../../d6/d50/class_sky_x_1_1_cloud_layer.html#ab0033e0fd011bd90fde4bed4e0966ea2" target="_top" xlink:title="SkyX::CloudLayer::getSun\lGradient">
<polygon fill="white" stroke="black" points="906.5,-0.5 906.5,-30.5 1037.5,-30.5 1037.5,-0.5 906.5,-0.5"/>
<text text-anchor="start" x="914.5" y="-18.5" font-family="Helvetica,sans-Serif" font-size="10.00">SkyX::CloudLayer::getSun</text>
<text text-anchor="middle" x="972" y="-7.5" font-family="Helvetica,sans-Serif" font-size="10.00">Gradient</text>
</a>
</g>
</g>
<!-- Node87&#45;&gt;Node90 -->
<g id="edge10" class="edge"><title>Node87&#45;&gt;Node90</title>
<path fill="none" stroke="midnightblue" d="M686.59,-41.493C702.223,-38.4757 718.593,-35.6239 734,-33.5 792.046,-25.4983 858.617,-20.8353 906.396,-18.2691"/>
<polygon fill="midnightblue" stroke="midnightblue" points="685.576,-38.1255 676.442,-43.4936 686.93,-44.9933 685.576,-38.1255"/>
</g>
<!-- Node89 -->
<g id="node8" class="node"><title>Node89</title>
<g id="a_node8"><a xlink:href="../../dd/d89/class_sky_x_1_1_clouds_manager.html#a49f0f35194ca5363129f38e4958f26de" target="_top" xlink:title="SkyX::CloudsManager::add">
<polygon fill="white" stroke="black" points="905,-53 905,-72 1039,-72 1039,-53 905,-53"/>
<text text-anchor="middle" x="972" y="-60" font-family="Helvetica,sans-Serif" font-size="10.00">SkyX::CloudsManager::add</text>
</a>
</g>
</g>
<!-- Node88&#45;&gt;Node89 -->
<g id="edge7" class="edge"><title>Node88&#45;&gt;Node89</title>
<path fill="none" stroke="midnightblue" d="M863.203,-59.941C876.731,-60.2621 891.139,-60.6042 904.873,-60.9302"/>
<polygon fill="midnightblue" stroke="midnightblue" points="863.136,-56.4385 853.056,-59.7001 862.97,-63.4366 863.136,-56.4385"/>
</g>
<!-- Node88&#45;&gt;Node90 -->
<g id="edge9" class="edge"><title>Node88&#45;&gt;Node90</title>
<path fill="none" stroke="midnightblue" d="M862.862,-43.096C878.911,-39.0005 896.22,-34.5832 912.185,-30.5091"/>
<polygon fill="midnightblue" stroke="midnightblue" points="861.88,-39.7345 853.056,-45.5986 863.61,-46.5171 861.88,-39.7345"/>
</g>
<!-- Node89&#45;&gt;Node85 -->
<g id="edge8" class="edge"><title>Node89&#45;&gt;Node85</title>
<path fill="none" stroke="midnightblue" d="M1049.33,-72.6779C1057.89,-73.818 1066.47,-74.9633 1074.7,-76.0597"/>
<polygon fill="midnightblue" stroke="midnightblue" points="1049.71,-69.1975 1039.34,-71.345 1048.79,-76.136 1049.71,-69.1975"/>
</g>
</g>
</svg>
        <g id="navigator" transform="translate(0 0)" fill="#404254">
                <rect fill="#f2f5e9" fill-opacity="0.5" stroke="#606060" stroke-width=".5" x="0" y="0" width="60" height="60"/>
                <use id="zoomplus" xlink:href="#zoomPlus" x="17" y="9" onmousedown="handleZoom(evt,'in')"/>
                <use id="zoomminus" xlink:href="#zoomMin" x="42" y="9" onmousedown="handleZoom(evt,'out')"/>
                <use id="reset" xlink:href="#resetDef" x="30" y="36" onmousedown="handleReset()"/>
                <g id="arrowUp" xlink:href="#dirArrow" transform="translate(30 24)" onmousedown="handlePan(0,-1)">
                  <use xlink:href="#rim" fill="#404040">
                        <set attributeName="fill" to="#808080" begin="arrowUp.mouseover" end="arrowUp.mouseout"/>
                  </use>
                  <path fill="none" stroke="white" stroke-width="1.5" d="M0,-3.0v7 M-2.5,-0.5L0,-3.0L2.5,-0.5"/>
                </g>
                <g id="arrowRight" xlink:href="#dirArrow" transform="rotate(90) translate(36 -43)" onmousedown="handlePan(1,0)">
                  <use xlink:href="#rim" fill="#404040">
                        <set attributeName="fill" to="#808080" begin="arrowRight.mouseover" end="arrowRight.mouseout"/>
                  </use>
                  <path fill="none" stroke="white" stroke-width="1.5" d="M0,-3.0v7 M-2.5,-0.5L0,-3.0L2.5,-0.5"/>
                </g>
                <g id="arrowDown" xlink:href="#dirArrow" transform="rotate(180) translate(-30 -48)" onmousedown="handlePan(0,1)">
                  <use xlink:href="#rim" fill="#404040">
                        <set attributeName="fill" to="#808080" begin="arrowDown.mouseover" end="arrowDown.mouseout"/>
                  </use>
                  <path fill="none" stroke="white" stroke-width="1.5" d="M0,-3.0v7 M-2.5,-0.5L0,-3.0L2.5,-0.5"/>
                </g>
                <g id="arrowLeft" xlink:href="#dirArrow" transform="rotate(270) translate(-36 17)" onmousedown="handlePan(-1,0)">
                  <use xlink:href="#rim" fill="#404040">
                        <set attributeName="fill" to="#808080" begin="arrowLeft.mouseover" end="arrowLeft.mouseout"/>
                  </use>
                  <path fill="none" stroke="white" stroke-width="1.5" d="M0,-3.0v7 M-2.5,-0.5L0,-3.0L2.5,-0.5"/>
                </g>
        </g>
        <svg viewBox="0 0 15 15" width="100%" height="30px" preserveAspectRatio="xMaxYMin meet">
         <g id="arrow_out" transform="scale(0.3 0.3)">
          <a xlink:href="class_sky_x_1_1_g_p_u_manager_a5cdf4a1ea705ca36dc0df320c7495fd5_icgraph_org.svg" target="_base">
           <rect id="button" ry="5" rx="5" y="6" x="6" height="38" width="38"
                fill="#f2f5e9" fill-opacity="0.5" stroke="#606060" stroke-width="1.0"/>
           <path id="arrow"
             d="M 11.500037,31.436501 C 11.940474,20.09759 22.043105,11.32322 32.158766,21.979434 L 37.068811,17.246167 C 37.068811,17.246167 37.088388,32 37.088388,32 L 22.160133,31.978069 C 22.160133,31.978069 26.997745,27.140456 26.997745,27.140456 C 18.528582,18.264221 13.291696,25.230495 11.500037,31.436501 z"
             style="fill:#404040;"/>
          </a>
         </g>
        </svg>
</svg>
