<?xml version="1.0" encoding="UTF-8" standalone="no"?>
<!DOCTYPE svg PUBLIC "-//W3C//DTD SVG 1.1//EN"
 "http://www.w3.org/Graphics/SVG/1.1/DTD/svg11.dtd">
<!-- Generated by graphviz version 2.38.0 (20140413.2041)
 -->
<!-- Title: RoRFrameListener::StartRaceTimer Pages: 1 -->
<svg width="340pt" height="78pt"
 viewBox="0.00 0.00 340.00 77.50" xmlns="http://www.w3.org/2000/svg" xmlns:xlink="http://www.w3.org/1999/xlink">
<g id="graph0" class="graph" transform="scale(1 1) rotate(0) translate(4 73.5)">
<title>RoRFrameListener::StartRaceTimer</title>
<polygon fill="white" stroke="none" points="-4,4 -4,-73.5 336,-73.5 336,4 -4,4"/>
<!-- Node4653 -->
<g id="node1" class="node"><title>Node4653</title>
<polygon fill="#bfbfbf" stroke="black" points="0,-22.5 0,-52.5 147,-52.5 147,-22.5 0,-22.5"/>
<text text-anchor="start" x="8" y="-40.5" font-family="Helvetica,sans-Serif" font-size="10.00">RoRFrameListener::StartRace</text>
<text text-anchor="middle" x="73.5" y="-29.5" font-family="Helvetica,sans-Serif" font-size="10.00">Timer</text>
</g>
<!-- Node4654 -->
<g id="node2" class="node"><title>Node4654</title>
<g id="a_node2"><a xlink:href="../../df/d86/namespace_ro_r_1_1_app.html#a21686de9300823b37db5f3f8fe992fb1" target="_top" xlink:title="RoR::App::GetOverlayWrapper">
<polygon fill="white" stroke="black" points="183,-50 183,-69 332,-69 332,-50 183,-50"/>
<text text-anchor="middle" x="257.5" y="-57" font-family="Helvetica,sans-Serif" font-size="10.00">RoR::App::GetOverlayWrapper</text>
</a>
</g>
</g>
<!-- Node4653&#45;&gt;Node4654 -->
<g id="edge1" class="edge"><title>Node4653&#45;&gt;Node4654</title>
<path fill="none" stroke="midnightblue" d="M147.216,-46.2898C155.613,-47.3049 164.227,-48.3462 172.756,-49.3771"/>
<polygon fill="midnightblue" stroke="midnightblue" points="172.363,-52.8549 182.71,-50.5804 173.203,-45.9055 172.363,-52.8549"/>
</g>
<!-- Node4655 -->
<g id="node3" class="node"><title>Node4655</title>
<g id="a_node3"><a xlink:href="../../df/d47/class_overlay_wrapper.html#a4e3061b7a4ea65d242d96baa040a631c" target="_top" xlink:title="OverlayWrapper::ShowRacing\lOverlay">
<polygon fill="white" stroke="black" points="184.5,-0.5 184.5,-30.5 330.5,-30.5 330.5,-0.5 184.5,-0.5"/>
<text text-anchor="start" x="192.5" y="-18.5" font-family="Helvetica,sans-Serif" font-size="10.00">OverlayWrapper::ShowRacing</text>
<text text-anchor="middle" x="257.5" y="-7.5" font-family="Helvetica,sans-Serif" font-size="10.00">Overlay</text>
</a>
</g>
</g>
<!-- Node4653&#45;&gt;Node4655 -->
<g id="edge2" class="edge"><title>Node4653&#45;&gt;Node4655</title>
<path fill="none" stroke="midnightblue" d="M147.216,-28.7102C156.136,-27.6319 165.301,-26.524 174.348,-25.4304"/>
<polygon fill="midnightblue" stroke="midnightblue" points="174.986,-28.879 184.493,-24.2041 174.145,-21.9295 174.986,-28.879"/>
</g>
</g>
</svg>
