<?xml version="1.0" encoding="UTF-8" standalone="no"?>
<!DOCTYPE svg PUBLIC "-//W3C//DTD SVG 1.1//EN"
 "http://www.w3.org/Graphics/SVG/1.1/DTD/svg11.dtd">
<!-- Generated by graphviz version 2.38.0 (20140413.2041)
 -->
<!-- Title: RoRFrameListener::FinalizeTruckSpawning Pages: 1 -->
<svg width="510pt" height="39pt"
 viewBox="0.00 0.00 510.00 39.00" xmlns="http://www.w3.org/2000/svg" xmlns:xlink="http://www.w3.org/1999/xlink">
<g id="graph0" class="graph" transform="scale(1 1) rotate(0) translate(4 35)">
<title>RoRFrameListener::FinalizeTruckSpawning</title>
<polygon fill="white" stroke="none" points="-4,4 -4,-35 506,-35 506,4 -4,4"/>
<!-- Node606 -->
<g id="node1" class="node"><title>Node606</title>
<polygon fill="#bfbfbf" stroke="black" points="0,-0.5 0,-30.5 137,-30.5 137,-0.5 0,-0.5"/>
<text text-anchor="start" x="8" y="-18.5" font-family="Helvetica,sans-Serif" font-size="10.00">RoRFrameListener::Finalize</text>
<text text-anchor="middle" x="68.5" y="-7.5" font-family="Helvetica,sans-Serif" font-size="10.00">TruckSpawning</text>
</g>
<!-- Node607 -->
<g id="node2" class="node"><title>Node607</title>
<g id="a_node2"><a xlink:href="../../dd/dbe/class_ro_r_frame_listener.html#afec2a0f00ed552c21d22aae76329bf38" target="_top" xlink:title="RoRFrameListener::Update\lInputEvents">
<polygon fill="white" stroke="black" points="173,-0.5 173,-30.5 307,-30.5 307,-0.5 173,-0.5"/>
<text text-anchor="start" x="181" y="-18.5" font-family="Helvetica,sans-Serif" font-size="10.00">RoRFrameListener::Update</text>
<text text-anchor="middle" x="240" y="-7.5" font-family="Helvetica,sans-Serif" font-size="10.00">InputEvents</text>
</a>
</g>
</g>
<!-- Node606&#45;&gt;Node607 -->
<g id="edge1" class="edge"><title>Node606&#45;&gt;Node607</title>
<path fill="none" stroke="midnightblue" d="M147.698,-15.5C156.14,-15.5 164.67,-15.5 172.949,-15.5"/>
<polygon fill="midnightblue" stroke="midnightblue" points="147.466,-12.0001 137.465,-15.5 147.465,-19.0001 147.466,-12.0001"/>
</g>
<!-- Node608 -->
<g id="node3" class="node"><title>Node608</title>
<g id="a_node3"><a xlink:href="../../dd/dbe/class_ro_r_frame_listener.html#acdda0026f9324c3b7f48568624e07115" target="_top" xlink:title="RoRFrameListener::frameStarted">
<polygon fill="white" stroke="black" points="343,-6 343,-25 502,-25 502,-6 343,-6"/>
<text text-anchor="middle" x="422.5" y="-13" font-family="Helvetica,sans-Serif" font-size="10.00">RoRFrameListener::frameStarted</text>
</a>
</g>
</g>
<!-- Node607&#45;&gt;Node608 -->
<g id="edge2" class="edge"><title>Node607&#45;&gt;Node608</title>
<path fill="none" stroke="midnightblue" d="M317.343,-15.5C325.753,-15.5 334.328,-15.5 342.767,-15.5"/>
<polygon fill="midnightblue" stroke="midnightblue" points="317.187,-12.0001 307.187,-15.5 317.187,-19.0001 317.187,-12.0001"/>
</g>
</g>
</svg>
