<?xml version="1.0" encoding="UTF-8" standalone="no"?>
<!DOCTYPE svg PUBLIC "-//W3C//DTD SVG 1.1//EN"
 "http://www.w3.org/Graphics/SVG/1.1/DTD/svg11.dtd">
<!-- Generated by graphviz version 2.38.0 (20140413.2041)
 -->
<!-- Title: RoRFrameListener::windowMoved Pages: 1 -->
<svg width="309pt" height="39pt"
 viewBox="0.00 0.00 309.00 39.00" xmlns="http://www.w3.org/2000/svg" xmlns:xlink="http://www.w3.org/1999/xlink">
<g id="graph0" class="graph" transform="scale(1 1) rotate(0) translate(4 35)">
<title>RoRFrameListener::windowMoved</title>
<polygon fill="white" stroke="none" points="-4,4 -4,-35 305,-35 305,4 -4,4"/>
<!-- Node5486 -->
<g id="node1" class="node"><title>Node5486</title>
<polygon fill="#bfbfbf" stroke="black" points="0,-0.5 0,-30.5 135,-30.5 135,-0.5 0,-0.5"/>
<text text-anchor="start" x="8" y="-18.5" font-family="Helvetica,sans-Serif" font-size="10.00">RoRFrameListener::window</text>
<text text-anchor="middle" x="67.5" y="-7.5" font-family="Helvetica,sans-Serif" font-size="10.00">Moved</text>
</g>
<!-- Node5487 -->
<g id="node2" class="node"><title>Node5487</title>
<g id="a_node2"><a xlink:href="../../d9/da3/_application_8h.html#ac91efe9de379ef0fde6e0c6f369dfb35" target="_top" xlink:title="Legacy alias &#45; formerly a macro. ">
<polygon fill="white" stroke="black" points="171,-6 171,-25 208,-25 208,-6 171,-6"/>
<text text-anchor="middle" x="189.5" y="-13" font-family="Helvetica,sans-Serif" font-size="10.00">LOG</text>
</a>
</g>
</g>
<!-- Node5486&#45;&gt;Node5487 -->
<g id="edge1" class="edge"><title>Node5486&#45;&gt;Node5487</title>
<path fill="none" stroke="midnightblue" d="M135.167,-15.5C144.114,-15.5 152.86,-15.5 160.598,-15.5"/>
<polygon fill="midnightblue" stroke="midnightblue" points="160.78,-19.0001 170.779,-15.5 160.779,-12.0001 160.78,-19.0001"/>
</g>
<!-- Node5488 -->
<g id="node3" class="node"><title>Node5488</title>
<g id="a_node3"><a xlink:href="../../dd/dd2/namespace_ro_r.html#a15fdb48aba128c41a9c75357c2282694" target="_top" xlink:title="The ultimate, application&#45;wide logging function. Adds a line (any length) in &#39;RoR.log&#39; file. ">
<polygon fill="white" stroke="black" points="244,-6 244,-25 301,-25 301,-6 244,-6"/>
<text text-anchor="middle" x="272.5" y="-13" font-family="Helvetica,sans-Serif" font-size="10.00">RoR::Log</text>
</a>
</g>
</g>
<!-- Node5487&#45;&gt;Node5488 -->
<g id="edge2" class="edge"><title>Node5487&#45;&gt;Node5488</title>
<path fill="none" stroke="midnightblue" d="M208.076,-15.5C215.567,-15.5 224.618,-15.5 233.508,-15.5"/>
<polygon fill="midnightblue" stroke="midnightblue" points="233.766,-19.0001 243.766,-15.5 233.766,-12.0001 233.766,-19.0001"/>
</g>
</g>
</svg>
