<?xml version="1.0" encoding="UTF-8" standalone="no"?>
<!DOCTYPE svg PUBLIC "-//W3C//DTD SVG 1.1//EN"
 "http://www.w3.org/Graphics/SVG/1.1/DTD/svg11.dtd">
<!-- Generated by graphviz version 2.38.0 (20140413.2041)
 -->
<!-- Title: PointColDetector::update Pages: 1 -->
<svg width="873pt" height="116pt"
 viewBox="0.00 0.00 873.00 115.50" xmlns="http://www.w3.org/2000/svg" xmlns:xlink="http://www.w3.org/1999/xlink">
<g id="graph0" class="graph" transform="scale(1 1) rotate(0) translate(4 111.5)">
<title>PointColDetector::update</title>
<polygon fill="white" stroke="none" points="-4,4 -4,-111.5 869,-111.5 869,4 -4,4"/>
<!-- Node54 -->
<g id="node1" class="node"><title>Node54</title>
<polygon fill="#bfbfbf" stroke="black" points="0,-66 0,-85 125,-85 125,-66 0,-66"/>
<text text-anchor="middle" x="62.5" y="-73" font-family="Helvetica,sans-Serif" font-size="10.00">PointColDetector::update</text>
</g>
<!-- Node55 -->
<g id="node2" class="node"><title>Node55</title>
<g id="a_node2"><a xlink:href="../../d5/d53/class_ro_r_1_1_beam_factory.html#ac25b17e65074996433c472da5028fed1" target="_top" xlink:title="RoR::BeamFactory::Update\lPhysicsSimulation">
<polygon fill="white" stroke="black" points="161,-60.5 161,-90.5 298,-90.5 298,-60.5 161,-60.5"/>
<text text-anchor="start" x="169" y="-78.5" font-family="Helvetica,sans-Serif" font-size="10.00">RoR::BeamFactory::Update</text>
<text text-anchor="middle" x="229.5" y="-67.5" font-family="Helvetica,sans-Serif" font-size="10.00">PhysicsSimulation</text>
</a>
</g>
</g>
<!-- Node54&#45;&gt;Node55 -->
<g id="edge1" class="edge"><title>Node54&#45;&gt;Node55</title>
<path fill="none" stroke="midnightblue" d="M135.602,-75.5C144.038,-75.5 152.621,-75.5 160.991,-75.5"/>
<polygon fill="midnightblue" stroke="midnightblue" points="135.409,-72.0001 125.409,-75.5 135.409,-79.0001 135.409,-72.0001"/>
</g>
<!-- Node56 -->
<g id="node3" class="node"><title>Node56</title>
<g id="a_node3"><a xlink:href="../../d5/d53/class_ro_r_1_1_beam_factory.html#a87e6c050f0af4ef2e39976749ac9762c" target="_top" xlink:title="RoR::BeamFactory::update">
<polygon fill="white" stroke="black" points="535,-88 535,-107 670,-107 670,-88 535,-88"/>
<text text-anchor="middle" x="602.5" y="-95" font-family="Helvetica,sans-Serif" font-size="10.00">RoR::BeamFactory::update</text>
</a>
</g>
</g>
<!-- Node55&#45;&gt;Node56 -->
<g id="edge2" class="edge"><title>Node55&#45;&gt;Node56</title>
<path fill="none" stroke="midnightblue" d="M308.218,-80.1086C375.353,-84.0897 471.327,-89.7808 534.974,-93.555"/>
<polygon fill="midnightblue" stroke="midnightblue" points="308.305,-76.6077 298.116,-79.5096 307.891,-83.5955 308.305,-76.6077"/>
</g>
<!-- Node58 -->
<g id="node5" class="node"><title>Node58</title>
<g id="a_node5"><a xlink:href="../../d5/d53/class_ro_r_1_1_beam_factory.html#a5703b053d2b40e3dae66a063ded34578" target="_top" xlink:title="RoR::BeamFactory::getSimulation\lSpeed">
<polygon fill="white" stroke="black" points="334,-38.5 334,-68.5 499,-68.5 499,-38.5 334,-38.5"/>
<text text-anchor="start" x="342" y="-56.5" font-family="Helvetica,sans-Serif" font-size="10.00">RoR::BeamFactory::getSimulation</text>
<text text-anchor="middle" x="416.5" y="-45.5" font-family="Helvetica,sans-Serif" font-size="10.00">Speed</text>
</a>
</g>
</g>
<!-- Node55&#45;&gt;Node58 -->
<g id="edge4" class="edge"><title>Node55&#45;&gt;Node58</title>
<path fill="none" stroke="midnightblue" d="M308.033,-66.2798C316.601,-65.261 325.344,-64.2212 333.959,-63.1967"/>
<polygon fill="midnightblue" stroke="midnightblue" points="307.591,-62.8076 298.075,-67.4641 308.418,-69.7587 307.591,-62.8076"/>
</g>
<!-- Node57 -->
<g id="node4" class="node"><title>Node57</title>
<g id="a_node4"><a xlink:href="../../dd/dbe/class_ro_r_frame_listener.html#acdda0026f9324c3b7f48568624e07115" target="_top" xlink:title="RoRFrameListener::frameStarted">
<polygon fill="white" stroke="black" points="706,-50 706,-69 865,-69 865,-50 706,-50"/>
<text text-anchor="middle" x="785.5" y="-57" font-family="Helvetica,sans-Serif" font-size="10.00">RoRFrameListener::frameStarted</text>
</a>
</g>
</g>
<!-- Node56&#45;&gt;Node57 -->
<g id="edge3" class="edge"><title>Node56&#45;&gt;Node57</title>
<path fill="none" stroke="midnightblue" d="M659.138,-85.819C684.807,-80.4301 714.891,-74.1139 739.154,-69.0201"/>
<polygon fill="midnightblue" stroke="midnightblue" points="658.241,-82.4309 649.174,-87.911 659.68,-89.2816 658.241,-82.4309"/>
</g>
<!-- Node58&#45;&gt;Node57 -->
<g id="edge7" class="edge"><title>Node58&#45;&gt;Node57</title>
<path fill="none" stroke="midnightblue" d="M509.719,-55.0077C570.216,-55.9967 648.474,-57.2761 705.991,-58.2165"/>
<polygon fill="midnightblue" stroke="midnightblue" points="509.461,-51.5031 499.405,-54.839 509.347,-58.5021 509.461,-51.5031"/>
</g>
<!-- Node59 -->
<g id="node6" class="node"><title>Node59</title>
<g id="a_node6"><a xlink:href="../../dd/dbe/class_ro_r_frame_listener.html#afec2a0f00ed552c21d22aae76329bf38" target="_top" xlink:title="RoRFrameListener::Update\lInputEvents">
<polygon fill="white" stroke="black" points="535.5,-0.5 535.5,-30.5 669.5,-30.5 669.5,-0.5 535.5,-0.5"/>
<text text-anchor="start" x="543.5" y="-18.5" font-family="Helvetica,sans-Serif" font-size="10.00">RoRFrameListener::Update</text>
<text text-anchor="middle" x="602.5" y="-7.5" font-family="Helvetica,sans-Serif" font-size="10.00">InputEvents</text>
</a>
</g>
</g>
<!-- Node58&#45;&gt;Node59 -->
<g id="edge5" class="edge"><title>Node58&#45;&gt;Node59</title>
<path fill="none" stroke="midnightblue" d="M500.062,-36.4492C511.855,-34.0136 523.858,-31.5348 535.283,-29.1752"/>
<polygon fill="midnightblue" stroke="midnightblue" points="499.307,-33.0311 490.222,-38.4814 500.723,-39.8864 499.307,-33.0311"/>
</g>
<!-- Node59&#45;&gt;Node57 -->
<g id="edge6" class="edge"><title>Node59&#45;&gt;Node57</title>
<path fill="none" stroke="midnightblue" d="M675.062,-32.8964C699.021,-38.7206 724.833,-44.9954 745.369,-49.9876"/>
<polygon fill="midnightblue" stroke="midnightblue" points="675.827,-29.4805 665.284,-30.5192 674.174,-36.2824 675.827,-29.4805"/>
</g>
</g>
</svg>
