<?xml version="1.0" encoding="UTF-8" standalone="no"?>
<!DOCTYPE svg PUBLIC "-//W3C//DTD SVG 1.1//EN"
 "http://www.w3.org/Graphics/SVG/1.1/DTD/svg11.dtd">
<!-- Generated by graphviz version 2.38.0 (20140413.2041)
 -->
<!-- Title: RailGroup::getID Pages: 1 -->
<svg width="2048pt" height="381pt"
 viewBox="0.00 0.00 2048.00 380.50" xmlns="http://www.w3.org/2000/svg" xmlns:xlink="http://www.w3.org/1999/xlink">
<g id="graph0" class="graph" transform="scale(1 1) rotate(0) translate(4 376.5)">
<title>RailGroup::getID</title>
<polygon fill="white" stroke="none" points="-4,4 -4,-376.5 2044,-376.5 2044,4 -4,4"/>
<!-- Node7 -->
<g id="node1" class="node"><title>Node7</title>
<polygon fill="#bfbfbf" stroke="black" points="0,-230 0,-249 88,-249 88,-230 0,-230"/>
<text text-anchor="middle" x="44" y="-237" font-family="Helvetica,sans-Serif" font-size="10.00">RailGroup::getID</text>
</g>
<!-- Node8 -->
<g id="node2" class="node"><title>Node8</title>
<g id="a_node2"><a xlink:href="../../d5/def/class_slide_node.html#a4c38c47ed65d6ec52d3f07050329ea7b" target="_top" xlink:title="SlideNode::getRailID">
<polygon fill="white" stroke="black" points="124,-230 124,-249 230,-249 230,-230 124,-230"/>
<text text-anchor="middle" x="177" y="-237" font-family="Helvetica,sans-Serif" font-size="10.00">SlideNode::getRailID</text>
</a>
</g>
</g>
<!-- Node7&#45;&gt;Node8 -->
<g id="edge1" class="edge"><title>Node7&#45;&gt;Node8</title>
<path fill="none" stroke="midnightblue" d="M98.2948,-239.5C106.667,-239.5 115.316,-239.5 123.666,-239.5"/>
<polygon fill="midnightblue" stroke="midnightblue" points="98.2574,-236 88.2574,-239.5 98.2573,-243 98.2574,-236"/>
</g>
<!-- Node9 -->
<g id="node3" class="node"><title>Node9</title>
<g id="a_node3"><a xlink:href="../../df/df9/class_beam.html#a99d7bd308fca5408d36a597e4463a6ef" target="_top" xlink:title="Beam::getClosestRailOnTruck">
<polygon fill="white" stroke="black" points="266,-230 266,-249 414,-249 414,-230 266,-230"/>
<text text-anchor="middle" x="340" y="-237" font-family="Helvetica,sans-Serif" font-size="10.00">Beam::getClosestRailOnTruck</text>
</a>
</g>
</g>
<!-- Node8&#45;&gt;Node9 -->
<g id="edge2" class="edge"><title>Node8&#45;&gt;Node9</title>
<path fill="none" stroke="midnightblue" d="M240.335,-239.5C248.72,-239.5 257.382,-239.5 265.931,-239.5"/>
<polygon fill="midnightblue" stroke="midnightblue" points="240.272,-236 230.272,-239.5 240.272,-243 240.272,-236"/>
</g>
<!-- Node10 -->
<g id="node4" class="node"><title>Node10</title>
<g id="a_node4"><a xlink:href="../../df/df9/class_beam.html#a7f17e89ec7dfd80a13382d1df2155bdb" target="_top" xlink:title="Beam::toggleSlideNodeLock">
<polygon fill="white" stroke="black" points="450,-230 450,-249 590,-249 590,-230 450,-230"/>
<text text-anchor="middle" x="520" y="-237" font-family="Helvetica,sans-Serif" font-size="10.00">Beam::toggleSlideNodeLock</text>
</a>
</g>
</g>
<!-- Node9&#45;&gt;Node10 -->
<g id="edge3" class="edge"><title>Node9&#45;&gt;Node10</title>
<path fill="none" stroke="midnightblue" d="M424.193,-239.5C432.776,-239.5 441.431,-239.5 449.838,-239.5"/>
<polygon fill="midnightblue" stroke="midnightblue" points="424.17,-236 414.17,-239.5 424.17,-243 424.17,-236"/>
</g>
<!-- Node11 -->
<g id="node5" class="node"><title>Node11</title>
<g id="a_node5"><a xlink:href="../../dd/dbe/class_ro_r_frame_listener.html#afec2a0f00ed552c21d22aae76329bf38" target="_top" xlink:title="RoRFrameListener::Update\lInputEvents">
<polygon fill="white" stroke="black" points="974.5,-224.5 974.5,-254.5 1108.5,-254.5 1108.5,-224.5 974.5,-224.5"/>
<text text-anchor="start" x="982.5" y="-242.5" font-family="Helvetica,sans-Serif" font-size="10.00">RoRFrameListener::Update</text>
<text text-anchor="middle" x="1041.5" y="-231.5" font-family="Helvetica,sans-Serif" font-size="10.00">InputEvents</text>
</a>
</g>
</g>
<!-- Node10&#45;&gt;Node11 -->
<g id="edge4" class="edge"><title>Node10&#45;&gt;Node11</title>
<path fill="none" stroke="midnightblue" d="M600.529,-239.5C702.844,-239.5 878.725,-239.5 974.185,-239.5"/>
<polygon fill="midnightblue" stroke="midnightblue" points="600.254,-236 590.254,-239.5 600.254,-243 600.254,-236"/>
</g>
<!-- Node13 -->
<g id="node7" class="node"><title>Node13</title>
<g id="a_node7"><a xlink:href="../../df/df9/class_beam.html#aabe018af621de69910d145fe2967ad11" target="_top" xlink:title="Beam::IsNodeIdValid">
<polygon fill="white" stroke="black" points="639.5,-274 639.5,-293 746.5,-293 746.5,-274 639.5,-274"/>
<text text-anchor="middle" x="693" y="-281" font-family="Helvetica,sans-Serif" font-size="10.00">Beam::IsNodeIdValid</text>
</a>
</g>
</g>
<!-- Node10&#45;&gt;Node13 -->
<g id="edge6" class="edge"><title>Node10&#45;&gt;Node13</title>
<path fill="none" stroke="midnightblue" d="M567.876,-251.562C595.301,-258.618 629.439,-267.402 654.968,-273.971"/>
<polygon fill="midnightblue" stroke="midnightblue" points="568.661,-248.15 558.104,-249.047 566.917,-254.929 568.661,-248.15"/>
</g>
<!-- Node18 -->
<g id="node12" class="node"><title>Node18</title>
<g id="a_node12"><a xlink:href="../../d5/d53/class_ro_r_1_1_beam_factory.html#aa770c50decf07b87d7ac747b64b8e3e5" target="_top" xlink:title="RoR::BeamFactory::Create\lLocalRigInstance">
<polygon fill="white" stroke="black" points="626,-142.5 626,-172.5 760,-172.5 760,-142.5 626,-142.5"/>
<text text-anchor="start" x="634" y="-160.5" font-family="Helvetica,sans-Serif" font-size="10.00">RoR::BeamFactory::Create</text>
<text text-anchor="middle" x="693" y="-149.5" font-family="Helvetica,sans-Serif" font-size="10.00">LocalRigInstance</text>
</a>
</g>
</g>
<!-- Node10&#45;&gt;Node18 -->
<g id="edge12" class="edge"><title>Node10&#45;&gt;Node18</title>
<path fill="none" stroke="midnightblue" d="M550.269,-225.465C580.985,-210.735 629.099,-187.663 660.594,-172.56"/>
<polygon fill="midnightblue" stroke="midnightblue" points="548.454,-222.453 540.951,-229.933 551.481,-228.765 548.454,-222.453"/>
</g>
<!-- Node12 -->
<g id="node6" class="node"><title>Node12</title>
<g id="a_node6"><a xlink:href="../../dd/dbe/class_ro_r_frame_listener.html#acdda0026f9324c3b7f48568624e07115" target="_top" xlink:title="RoRFrameListener::frameStarted">
<polygon fill="white" stroke="black" points="1155.5,-252 1155.5,-271 1314.5,-271 1314.5,-252 1155.5,-252"/>
<text text-anchor="middle" x="1235" y="-259" font-family="Helvetica,sans-Serif" font-size="10.00">RoRFrameListener::frameStarted</text>
</a>
</g>
</g>
<!-- Node11&#45;&gt;Node12 -->
<g id="edge5" class="edge"><title>Node11&#45;&gt;Node12</title>
<path fill="none" stroke="midnightblue" d="M1118.67,-248.251C1130.72,-249.634 1143.19,-251.068 1155.29,-252.458"/>
<polygon fill="midnightblue" stroke="midnightblue" points="1119.01,-244.766 1108.67,-247.102 1118.21,-251.72 1119.01,-244.766"/>
</g>
<!-- Node14 -->
<g id="node8" class="node"><title>Node14</title>
<g id="a_node8"><a xlink:href="../../dd/dbe/class_ro_r_frame_listener.html#a46c793a3229156a678a3829a6fe59be6" target="_top" xlink:title="RoRFrameListener::Update\lForceFeedback">
<polygon fill="white" stroke="black" points="796,-268.5 796,-298.5 930,-298.5 930,-268.5 796,-268.5"/>
<text text-anchor="start" x="804" y="-286.5" font-family="Helvetica,sans-Serif" font-size="10.00">RoRFrameListener::Update</text>
<text text-anchor="middle" x="863" y="-275.5" font-family="Helvetica,sans-Serif" font-size="10.00">ForceFeedback</text>
</a>
</g>
</g>
<!-- Node13&#45;&gt;Node14 -->
<g id="edge7" class="edge"><title>Node13&#45;&gt;Node14</title>
<path fill="none" stroke="midnightblue" d="M756.76,-283.5C769.527,-283.5 782.995,-283.5 795.875,-283.5"/>
<polygon fill="midnightblue" stroke="midnightblue" points="756.695,-280 746.695,-283.5 756.695,-287 756.695,-280"/>
</g>
<!-- Node15 -->
<g id="node9" class="node"><title>Node15</title>
<g id="a_node9"><a xlink:href="../../df/df9/class_beam.html#ab0cbc6c4e3822fc5786af2c8036f7efb" target="_top" xlink:title="Beam::LoadTruck">
<polygon fill="white" stroke="black" points="816.5,-318 816.5,-337 909.5,-337 909.5,-318 816.5,-318"/>
<text text-anchor="middle" x="863" y="-325" font-family="Helvetica,sans-Serif" font-size="10.00">Beam::LoadTruck</text>
</a>
</g>
</g>
<!-- Node13&#45;&gt;Node15 -->
<g id="edge9" class="edge"><title>Node13&#45;&gt;Node15</title>
<path fill="none" stroke="midnightblue" d="M740.409,-295.655C767.292,-302.695 800.647,-311.431 825.618,-317.971"/>
<polygon fill="midnightblue" stroke="midnightblue" points="741.014,-292.195 730.453,-293.047 739.24,-298.967 741.014,-292.195"/>
</g>
<!-- Node14&#45;&gt;Node12 -->
<g id="edge8" class="edge"><title>Node14&#45;&gt;Node12</title>
<path fill="none" stroke="midnightblue" d="M940.387,-278.958C1003.18,-275.224 1091.83,-269.953 1155.26,-266.182"/>
<polygon fill="midnightblue" stroke="midnightblue" points="939.923,-275.479 930.149,-279.567 940.339,-282.467 939.923,-275.479"/>
</g>
<!-- Node16 -->
<g id="node10" class="node"><title>Node16</title>
<g id="a_node10"><a xlink:href="../../df/df9/class_beam.html#a0d55b25fa0d1623305f3ac51694cbd42" target="_top" xlink:title="Beam::Beam">
<polygon fill="white" stroke="black" points="1004.5,-315 1004.5,-334 1078.5,-334 1078.5,-315 1004.5,-315"/>
<text text-anchor="middle" x="1041.5" y="-322" font-family="Helvetica,sans-Serif" font-size="10.00">Beam::Beam</text>
</a>
</g>
</g>
<!-- Node15&#45;&gt;Node16 -->
<g id="edge10" class="edge"><title>Node15&#45;&gt;Node16</title>
<path fill="none" stroke="midnightblue" d="M920.199,-326.545C947.725,-326.077 980.064,-325.527 1004.28,-325.116"/>
<polygon fill="midnightblue" stroke="midnightblue" points="919.852,-323.05 909.913,-326.72 919.971,-330.049 919.852,-323.05"/>
</g>
<!-- Node17 -->
<g id="node11" class="node"><title>Node17</title>
<g id="a_node11"><a xlink:href="../../df/df9/class_beam.html#a3176be8102041493ae018fd5d66607dd" target="_top" xlink:title="Beam::getVelocity">
<polygon fill="white" stroke="black" points="993,-353 993,-372 1090,-372 1090,-353 993,-353"/>
<text text-anchor="middle" x="1041.5" y="-360" font-family="Helvetica,sans-Serif" font-size="10.00">Beam::getVelocity</text>
</a>
</g>
</g>
<!-- Node15&#45;&gt;Node17 -->
<g id="edge11" class="edge"><title>Node15&#45;&gt;Node17</title>
<path fill="none" stroke="midnightblue" d="M919.755,-338.556C943.288,-343.223 970.404,-348.6 992.971,-353.075"/>
<polygon fill="midnightblue" stroke="midnightblue" points="920.402,-335.117 909.913,-336.604 919.041,-341.983 920.402,-335.117"/>
</g>
<!-- Node18&#45;&gt;Node11 -->
<g id="edge13" class="edge"><title>Node18&#45;&gt;Node11</title>
<path fill="none" stroke="midnightblue" d="M767.304,-174.848C829.51,-189.569 917.841,-210.472 977.057,-224.486"/>
<polygon fill="midnightblue" stroke="midnightblue" points="768.091,-171.437 757.553,-172.54 766.479,-178.249 768.091,-171.437"/>
</g>
<!-- Node19 -->
<g id="node13" class="node"><title>Node19</title>
<g id="a_node13"><a xlink:href="../../dd/dbe/class_ro_r_frame_listener.html#a65f2dfb4f70e20076cc0dbc041f96bb0" target="_top" xlink:title="RoRFrameListener::Reload\lPlayerActor">
<polygon fill="white" stroke="black" points="796,-142.5 796,-172.5 930,-172.5 930,-142.5 796,-142.5"/>
<text text-anchor="start" x="804" y="-160.5" font-family="Helvetica,sans-Serif" font-size="10.00">RoRFrameListener::Reload</text>
<text text-anchor="middle" x="863" y="-149.5" font-family="Helvetica,sans-Serif" font-size="10.00">PlayerActor</text>
</a>
</g>
</g>
<!-- Node18&#45;&gt;Node19 -->
<g id="edge14" class="edge"><title>Node18&#45;&gt;Node19</title>
<path fill="none" stroke="midnightblue" d="M770.595,-157.5C779.013,-157.5 787.532,-157.5 795.809,-157.5"/>
<polygon fill="midnightblue" stroke="midnightblue" points="770.398,-154 760.398,-157.5 770.398,-161 770.398,-154"/>
</g>
<!-- Node29 -->
<g id="node23" class="node"><title>Node29</title>
<g id="a_node23"><a xlink:href="../../dd/dbe/class_ro_r_frame_listener.html#aca3931d7a75f2ad4b9d36c4fcd03a3c9" target="_top" xlink:title="RoRFrameListener::SetupGameplayLoop">
<polygon fill="white" stroke="black" points="1353,-73 1353,-92 1547,-92 1547,-73 1353,-73"/>
<text text-anchor="middle" x="1450" y="-80" font-family="Helvetica,sans-Serif" font-size="10.00">RoRFrameListener::SetupGameplayLoop</text>
</a>
</g>
</g>
<!-- Node18&#45;&gt;Node29 -->
<g id="edge25" class="edge"><title>Node18&#45;&gt;Node29</title>
<path fill="none" stroke="midnightblue" d="M758.746,-140.123C771.051,-137.25 783.871,-134.546 796,-132.5 992.063,-99.4294 1224.97,-88.2085 1352.9,-84.4179"/>
<polygon fill="midnightblue" stroke="midnightblue" points="757.922,-136.721 749.011,-142.453 759.552,-143.529 757.922,-136.721"/>
</g>
<!-- Node30 -->
<g id="node24" class="node"><title>Node30</title>
<g id="a_node24"><a xlink:href="../../d6/d14/class_terrain_object_manager.html#a202d577cb222f42c46e5b6600c9626a4" target="_top" xlink:title="TerrainObjectManager\l::loadPreloadedTrucks">
<polygon fill="white" stroke="black" points="806.5,-38.5 806.5,-68.5 919.5,-68.5 919.5,-38.5 806.5,-38.5"/>
<text text-anchor="start" x="814.5" y="-56.5" font-family="Helvetica,sans-Serif" font-size="10.00">TerrainObjectManager</text>
<text text-anchor="middle" x="863" y="-45.5" font-family="Helvetica,sans-Serif" font-size="10.00">::loadPreloadedTrucks</text>
</a>
</g>
</g>
<!-- Node18&#45;&gt;Node30 -->
<g id="edge28" class="edge"><title>Node18&#45;&gt;Node30</title>
<path fill="none" stroke="midnightblue" d="M720.43,-136.05C740.454,-120.372 769.033,-99.1969 796,-83.5 805.246,-78.1181 815.629,-73.0027 825.373,-68.5703"/>
<polygon fill="midnightblue" stroke="midnightblue" points="718.073,-133.451 712.401,-142.4 722.416,-138.941 718.073,-133.451"/>
</g>
<!-- Node19&#45;&gt;Node11 -->
<g id="edge15" class="edge"><title>Node19&#45;&gt;Node11</title>
<path fill="none" stroke="midnightblue" d="M910.19,-176.941C916.957,-180.233 923.747,-183.794 930,-187.5 947.205,-197.698 948.294,-205.2 966,-214.5 973.005,-218.179 980.661,-221.475 988.311,-224.372"/>
<polygon fill="midnightblue" stroke="midnightblue" points="911.567,-173.721 901.029,-172.629 908.586,-180.054 911.567,-173.721"/>
</g>
<!-- Node20 -->
<g id="node14" class="node"><title>Node20</title>
<g id="a_node14"><a xlink:href="../../dd/dbe/class_ro_r_frame_listener.html#a627bc038df63cfa463e0ad24ab9c0b38" target="_top" xlink:title="RoRFrameListener::GetPlayer\lActor">
<polygon fill="white" stroke="black" points="968,-126.5 968,-156.5 1115,-156.5 1115,-126.5 968,-126.5"/>
<text text-anchor="start" x="976" y="-144.5" font-family="Helvetica,sans-Serif" font-size="10.00">RoRFrameListener::GetPlayer</text>
<text text-anchor="middle" x="1041.5" y="-133.5" font-family="Helvetica,sans-Serif" font-size="10.00">Actor</text>
</a>
</g>
</g>
<!-- Node19&#45;&gt;Node20 -->
<g id="edge16" class="edge"><title>Node19&#45;&gt;Node20</title>
<path fill="none" stroke="midnightblue" d="M940.451,-150.57C949.592,-149.741 958.905,-148.897 967.988,-148.073"/>
<polygon fill="midnightblue" stroke="midnightblue" points="939.867,-147.108 930.224,-151.497 940.499,-154.079 939.867,-147.108"/>
</g>
<!-- Node21 -->
<g id="node15" class="node"><title>Node21</title>
<g id="a_node15"><a xlink:href="../../d6/d19/class_ro_r_1_1_g_u_i_1_1_top_menubar.html#ad1c44bd3c1247dcd8b876ff7728fac32" target="_top" xlink:title="RoR::GUI::TopMenubar\l::onMenuBtn">
<polygon fill="white" stroke="black" points="983,-175.5 983,-205.5 1100,-205.5 1100,-175.5 983,-175.5"/>
<text text-anchor="start" x="991" y="-193.5" font-family="Helvetica,sans-Serif" font-size="10.00">RoR::GUI::TopMenubar</text>
<text text-anchor="middle" x="1041.5" y="-182.5" font-family="Helvetica,sans-Serif" font-size="10.00">::onMenuBtn</text>
</a>
</g>
</g>
<!-- Node19&#45;&gt;Node21 -->
<g id="edge17" class="edge"><title>Node19&#45;&gt;Node21</title>
<path fill="none" stroke="midnightblue" d="M940.071,-171.723C954.424,-174.406 969.215,-177.172 982.886,-179.728"/>
<polygon fill="midnightblue" stroke="midnightblue" points="940.697,-168.279 930.224,-169.882 939.411,-175.16 940.697,-168.279"/>
</g>
<!-- Node22 -->
<g id="node16" class="node"><title>Node22</title>
<g id="a_node16"><a xlink:href="../../d6/d19/class_ro_r_1_1_g_u_i_1_1_top_menubar.html#aba4f8b1030da3a9d3b4394562d60a05a" target="_top" xlink:title="RoR::GUI::TopMenubar\l::TopMenubar">
<polygon fill="white" stroke="black" points="1176.5,-177.5 1176.5,-207.5 1293.5,-207.5 1293.5,-177.5 1176.5,-177.5"/>
<text text-anchor="start" x="1184.5" y="-195.5" font-family="Helvetica,sans-Serif" font-size="10.00">RoR::GUI::TopMenubar</text>
<text text-anchor="middle" x="1235" y="-184.5" font-family="Helvetica,sans-Serif" font-size="10.00">::TopMenubar</text>
</a>
</g>
</g>
<!-- Node21&#45;&gt;Node22 -->
<g id="edge18" class="edge"><title>Node21&#45;&gt;Node22</title>
<path fill="none" stroke="midnightblue" d="M1110.3,-191.208C1131.91,-191.434 1155.59,-191.681 1176.4,-191.898"/>
<polygon fill="midnightblue" stroke="midnightblue" points="1110.25,-187.708 1100.22,-191.103 1110.18,-194.707 1110.25,-187.708"/>
</g>
<!-- Node23 -->
<g id="node17" class="node"><title>Node23</title>
<g id="a_node17"><a xlink:href="../../d6/d19/class_ro_r_1_1_g_u_i_1_1_top_menubar.html#a1a4c2b4a27eb2a018b6b8ea49528f22a" target="_top" xlink:title="RoR::GUI::TopMenubar\l::SetSimController">
<polygon fill="white" stroke="black" points="1176.5,-128.5 1176.5,-158.5 1293.5,-158.5 1293.5,-128.5 1176.5,-128.5"/>
<text text-anchor="start" x="1184.5" y="-146.5" font-family="Helvetica,sans-Serif" font-size="10.00">RoR::GUI::TopMenubar</text>
<text text-anchor="middle" x="1235" y="-135.5" font-family="Helvetica,sans-Serif" font-size="10.00">::SetSimController</text>
</a>
</g>
</g>
<!-- Node21&#45;&gt;Node23 -->
<g id="edge19" class="edge"><title>Node21&#45;&gt;Node23</title>
<path fill="none" stroke="midnightblue" d="M1110.01,-173.931C1131.69,-168.609 1155.5,-162.767 1176.4,-157.636"/>
<polygon fill="midnightblue" stroke="midnightblue" points="1109.09,-170.552 1100.22,-176.335 1110.76,-177.35 1109.09,-170.552"/>
</g>
<!-- Node24 -->
<g id="node18" class="node"><title>Node24</title>
<g id="a_node18"><a xlink:href="../../d8/d11/class_ro_r_1_1_g_u_i_manager.html#a875185e93587aeb2ab73220c1d2d4fc8" target="_top" xlink:title="RoR::GUIManager::SetSimController">
<polygon fill="white" stroke="black" points="1362.5,-134 1362.5,-153 1537.5,-153 1537.5,-134 1362.5,-134"/>
<text text-anchor="middle" x="1450" y="-141" font-family="Helvetica,sans-Serif" font-size="10.00">RoR::GUIManager::SetSimController</text>
</a>
</g>
</g>
<!-- Node23&#45;&gt;Node24 -->
<g id="edge20" class="edge"><title>Node23&#45;&gt;Node24</title>
<path fill="none" stroke="midnightblue" d="M1303.8,-143.5C1322.45,-143.5 1342.94,-143.5 1362.49,-143.5"/>
<polygon fill="midnightblue" stroke="midnightblue" points="1303.64,-140 1293.64,-143.5 1303.64,-147 1303.64,-140"/>
</g>
<!-- Node25 -->
<g id="node19" class="node"><title>Node25</title>
<g id="a_node19"><a xlink:href="../../dd/dbe/class_ro_r_frame_listener.html#a9e239911ad148aa76c58202920090f76" target="_top" xlink:title="RoRFrameListener::EnterGameplayLoop">
<polygon fill="white" stroke="black" points="1583,-134 1583,-153 1775,-153 1775,-134 1583,-134"/>
<text text-anchor="middle" x="1679" y="-141" font-family="Helvetica,sans-Serif" font-size="10.00">RoRFrameListener::EnterGameplayLoop</text>
</a>
</g>
</g>
<!-- Node24&#45;&gt;Node25 -->
<g id="edge21" class="edge"><title>Node24&#45;&gt;Node25</title>
<path fill="none" stroke="midnightblue" d="M1547.91,-143.5C1559.52,-143.5 1571.36,-143.5 1582.94,-143.5"/>
<polygon fill="midnightblue" stroke="midnightblue" points="1547.79,-140 1537.79,-143.5 1547.79,-147 1547.79,-140"/>
</g>
<!-- Node26 -->
<g id="node20" class="node"><title>Node26</title>
<g id="a_node20"><a xlink:href="../../dd/dbe/class_ro_r_frame_listener.html#ad598075b5f183208c0de43b9248bb44b" target="_top" xlink:title="RoRFrameListener::getTime">
<polygon fill="white" stroke="black" points="1811,-67 1811,-86 1949,-86 1949,-67 1811,-67"/>
<text text-anchor="middle" x="1880" y="-74" font-family="Helvetica,sans-Serif" font-size="10.00">RoRFrameListener::getTime</text>
</a>
</g>
</g>
<!-- Node25&#45;&gt;Node26 -->
<g id="edge22" class="edge"><title>Node25&#45;&gt;Node26</title>
<path fill="none" stroke="midnightblue" d="M1718.37,-130.583C1757.04,-117.561 1815.84,-97.7653 1850.54,-86.0817"/>
<polygon fill="midnightblue" stroke="midnightblue" points="1716.87,-127.393 1708.51,-133.901 1719.11,-134.027 1716.87,-127.393"/>
</g>
<!-- Node27 -->
<g id="node21" class="node"><title>Node27</title>
<g id="a_node21"><a xlink:href="../../df/d0a/main_8cpp.html#a0ddf1224851353fc92bfbff6f499fa97" target="_top" xlink:title="main">
<polygon fill="white" stroke="black" points="1861,-124 1861,-143 1899,-143 1899,-124 1861,-124"/>
<text text-anchor="middle" x="1880" y="-131" font-family="Helvetica,sans-Serif" font-size="10.00">main</text>
</a>
</g>
</g>
<!-- Node25&#45;&gt;Node27 -->
<g id="edge23" class="edge"><title>Node25&#45;&gt;Node27</title>
<path fill="none" stroke="midnightblue" d="M1785.44,-138.201C1814.56,-136.738 1843,-135.309 1860.73,-134.418"/>
<polygon fill="midnightblue" stroke="midnightblue" points="1784.94,-134.722 1775.13,-138.72 1785.29,-141.713 1784.94,-134.722"/>
</g>
<!-- Node28 -->
<g id="node22" class="node"><title>Node28</title>
<g id="a_node22"><a xlink:href="../../df/d0a/main_8cpp.html#a2922bc5d5c2d77a3020cfbf9df12aab0" target="_top" xlink:title="WinMain">
<polygon fill="white" stroke="black" points="1985,-124 1985,-143 2040,-143 2040,-124 1985,-124"/>
<text text-anchor="middle" x="2012.5" y="-131" font-family="Helvetica,sans-Serif" font-size="10.00">WinMain</text>
</a>
</g>
</g>
<!-- Node27&#45;&gt;Node28 -->
<g id="edge24" class="edge"><title>Node27&#45;&gt;Node28</title>
<path fill="none" stroke="midnightblue" d="M1909.39,-133.5C1931.84,-133.5 1962.96,-133.5 1984.92,-133.5"/>
<polygon fill="midnightblue" stroke="midnightblue" points="1909.15,-130 1899.15,-133.5 1909.15,-137 1909.15,-130"/>
</g>
<!-- Node29&#45;&gt;Node26 -->
<g id="edge26" class="edge"><title>Node29&#45;&gt;Node26</title>
<path fill="none" stroke="midnightblue" d="M1557.08,-81.0129C1636.42,-79.9006 1742.58,-78.4124 1810.89,-77.4548"/>
<polygon fill="midnightblue" stroke="midnightblue" points="1557,-77.5136 1547.05,-81.1535 1557.1,-84.5129 1557,-77.5136"/>
</g>
<!-- Node29&#45;&gt;Node27 -->
<g id="edge27" class="edge"><title>Node29&#45;&gt;Node27</title>
<path fill="none" stroke="midnightblue" d="M1540.87,-93.2092C1644.23,-105.525 1806.63,-124.876 1860.76,-131.327"/>
<polygon fill="midnightblue" stroke="midnightblue" points="1541.09,-89.7109 1530.75,-92.003 1540.27,-96.6617 1541.09,-89.7109"/>
</g>
<!-- Node31 -->
<g id="node25" class="node"><title>Node31</title>
<g id="a_node25"><a xlink:href="../../d3/d16/class_terrain_manager.html#ac666fc0221c16001186b83cd6df66691" target="_top" xlink:title="TerrainManager::loadPreloaded\lTrucks">
<polygon fill="white" stroke="black" points="966,-0.5 966,-30.5 1117,-30.5 1117,-0.5 966,-0.5"/>
<text text-anchor="start" x="974" y="-18.5" font-family="Helvetica,sans-Serif" font-size="10.00">TerrainManager::loadPreloaded</text>
<text text-anchor="middle" x="1041.5" y="-7.5" font-family="Helvetica,sans-Serif" font-size="10.00">Trucks</text>
</a>
</g>
</g>
<!-- Node30&#45;&gt;Node31 -->
<g id="edge29" class="edge"><title>Node30&#45;&gt;Node31</title>
<path fill="none" stroke="midnightblue" d="M929.879,-39.3164C943.214,-36.4454 957.279,-33.4173 970.743,-30.5186"/>
<polygon fill="midnightblue" stroke="midnightblue" points="928.885,-35.9501 919.846,-41.4766 930.358,-42.7933 928.885,-35.9501"/>
</g>
<!-- Node31&#45;&gt;Node29 -->
<g id="edge30" class="edge"><title>Node31&#45;&gt;Node29</title>
<path fill="none" stroke="midnightblue" d="M1127.13,-17.925C1181.76,-20.7089 1254.12,-26.6835 1317,-39.5 1355.73,-47.394 1399.01,-62.8211 1425.12,-72.8897"/>
<polygon fill="midnightblue" stroke="midnightblue" points="1127.3,-14.4291 1117.14,-17.4413 1126.96,-21.4209 1127.3,-14.4291"/>
</g>
<!-- Node32 -->
<g id="node26" class="node"><title>Node32</title>
<g id="a_node26"><a xlink:href="../../d3/d16/class_terrain_manager.html#a7c0eff44d224bbca740dc2ab171fd7bf" target="_top" xlink:title="TerrainManager::GetSimController">
<polygon fill="white" stroke="black" points="1153,-49 1153,-68 1317,-68 1317,-49 1153,-49"/>
<text text-anchor="middle" x="1235" y="-56" font-family="Helvetica,sans-Serif" font-size="10.00">TerrainManager::GetSimController</text>
</a>
</g>
</g>
<!-- Node31&#45;&gt;Node32 -->
<g id="edge31" class="edge"><title>Node31&#45;&gt;Node32</title>
<path fill="none" stroke="midnightblue" d="M1119.52,-32.7952C1144.11,-38.3157 1170.41,-44.2211 1191.59,-48.9777"/>
<polygon fill="midnightblue" stroke="midnightblue" points="1120,-29.3153 1109.48,-30.5393 1118.47,-36.1452 1120,-29.3153"/>
</g>
<!-- Node32&#45;&gt;Node30 -->
<g id="edge32" class="edge"><title>Node32&#45;&gt;Node30</title>
<path fill="none" stroke="midnightblue" d="M1142.56,-57.2644C1072.74,-56.3208 978.769,-55.0509 919.793,-54.254"/>
<polygon fill="midnightblue" stroke="midnightblue" points="1142.64,-60.7656 1152.68,-57.4011 1142.73,-53.7662 1142.64,-60.7656"/>
</g>
</g>
</svg>
