<?xml version="1.0" encoding="UTF-8" standalone="no"?>
<!DOCTYPE svg PUBLIC "-//W3C//DTD SVG 1.1//EN"
 "http://www.w3.org/Graphics/SVG/1.1/DTD/svg11.dtd">
<!-- Generated by graphviz version 2.38.0 (20140413.2041)
 -->
<!-- Title: RoR::DrawGCheckbox Pages: 1 -->
<svg width="802pt" height="88pt"
 viewBox="0.00 0.00 802.00 88.00" xmlns="http://www.w3.org/2000/svg" xmlns:xlink="http://www.w3.org/1999/xlink">
<g id="graph0" class="graph" transform="scale(1 1) rotate(0) translate(4 84)">
<title>RoR::DrawGCheckbox</title>
<polygon fill="white" stroke="none" points="-4,4 -4,-84 798,-84 798,4 -4,4"/>
<!-- Node228 -->
<g id="node1" class="node"><title>Node228</title>
<polygon fill="#bfbfbf" stroke="black" points="0,-30 0,-49 114,-49 114,-30 0,-30"/>
<text text-anchor="middle" x="57" y="-37" font-family="Helvetica,sans-Serif" font-size="10.00">RoR::DrawGCheckbox</text>
</g>
<!-- Node229 -->
<g id="node2" class="node"><title>Node229</title>
<g id="a_node2"><a xlink:href="../../d8/d2c/class_ro_r_1_1_g_u_i_1_1_game_settings.html#a97a07e0573bf956e386722ef6b776ff3" target="_top" xlink:title="RoR::GUI::GameSettings\l::Draw">
<polygon fill="white" stroke="black" points="150,-24.5 150,-54.5 276,-54.5 276,-24.5 150,-24.5"/>
<text text-anchor="start" x="158" y="-42.5" font-family="Helvetica,sans-Serif" font-size="10.00">RoR::GUI::GameSettings</text>
<text text-anchor="middle" x="213" y="-31.5" font-family="Helvetica,sans-Serif" font-size="10.00">::Draw</text>
</a>
</g>
</g>
<!-- Node228&#45;&gt;Node229 -->
<g id="edge1" class="edge"><title>Node228&#45;&gt;Node229</title>
<path fill="none" stroke="midnightblue" d="M124.246,-39.5C132.713,-39.5 141.358,-39.5 149.759,-39.5"/>
<polygon fill="midnightblue" stroke="midnightblue" points="124.033,-36.0001 114.033,-39.5 124.033,-43.0001 124.033,-36.0001"/>
</g>
<!-- Node230 -->
<g id="node3" class="node"><title>Node230</title>
<g id="a_node3"><a xlink:href="../../d8/d11/class_ro_r_1_1_g_u_i_manager.html#af75908cee15c6ce99cce1752387fca4f" target="_top" xlink:title="RoR::GUIManager::DrawMain\lMenuGui">
<polygon fill="white" stroke="black" points="312,-49.5 312,-79.5 456,-79.5 456,-49.5 312,-49.5"/>
<text text-anchor="start" x="320" y="-67.5" font-family="Helvetica,sans-Serif" font-size="10.00">RoR::GUIManager::DrawMain</text>
<text text-anchor="middle" x="384" y="-56.5" font-family="Helvetica,sans-Serif" font-size="10.00">MenuGui</text>
</a>
</g>
</g>
<!-- Node229&#45;&gt;Node230 -->
<g id="edge2" class="edge"><title>Node229&#45;&gt;Node230</title>
<path fill="none" stroke="midnightblue" d="M286.604,-50.2402C295.013,-51.4842 303.583,-52.7519 311.971,-53.9927"/>
<polygon fill="midnightblue" stroke="midnightblue" points="286.854,-46.7392 276.449,-48.738 285.829,-53.6638 286.854,-46.7392"/>
</g>
<!-- Node234 -->
<g id="node7" class="node"><title>Node234</title>
<g id="a_node7"><a xlink:href="../../d8/d2c/class_ro_r_1_1_g_u_i_1_1_game_settings.html#aeb21469250c1f403cfc4e281271b339f" target="_top" xlink:title="RoR::GUI::GameSettings\l::GameSettings">
<polygon fill="white" stroke="black" points="321,-0.5 321,-30.5 447,-30.5 447,-0.5 321,-0.5"/>
<text text-anchor="start" x="329" y="-18.5" font-family="Helvetica,sans-Serif" font-size="10.00">RoR::GUI::GameSettings</text>
<text text-anchor="middle" x="384" y="-7.5" font-family="Helvetica,sans-Serif" font-size="10.00">::GameSettings</text>
</a>
</g>
</g>
<!-- Node229&#45;&gt;Node234 -->
<g id="edge6" class="edge"><title>Node229&#45;&gt;Node234</title>
<path fill="none" stroke="midnightblue" d="M286.412,-29.2166C297.863,-27.5904 309.617,-25.9213 320.807,-24.3321"/>
<polygon fill="midnightblue" stroke="midnightblue" points="285.858,-25.7601 276.449,-30.6315 286.842,-32.6906 285.858,-25.7601"/>
</g>
<!-- Node231 -->
<g id="node4" class="node"><title>Node231</title>
<g id="a_node4"><a xlink:href="../../d4/d14/class_ro_r_1_1_main_menu.html#a582e508f1bb1578d1124260de49e438b" target="_top" xlink:title="RoR::MainMenu::EnterMain\lMenuLoop">
<polygon fill="white" stroke="black" points="492,-49.5 492,-79.5 629,-79.5 629,-49.5 492,-49.5"/>
<text text-anchor="start" x="500" y="-67.5" font-family="Helvetica,sans-Serif" font-size="10.00">RoR::MainMenu::EnterMain</text>
<text text-anchor="middle" x="560.5" y="-56.5" font-family="Helvetica,sans-Serif" font-size="10.00">MenuLoop</text>
</a>
</g>
</g>
<!-- Node230&#45;&gt;Node231 -->
<g id="edge3" class="edge"><title>Node230&#45;&gt;Node231</title>
<path fill="none" stroke="midnightblue" d="M466.243,-64.5C474.822,-64.5 483.478,-64.5 491.879,-64.5"/>
<polygon fill="midnightblue" stroke="midnightblue" points="466.228,-61.0001 456.228,-64.5 466.227,-68.0001 466.228,-61.0001"/>
</g>
<!-- Node232 -->
<g id="node5" class="node"><title>Node232</title>
<g id="a_node5"><a xlink:href="../../df/d0a/main_8cpp.html#a0ddf1224851353fc92bfbff6f499fa97" target="_top" xlink:title="main">
<polygon fill="white" stroke="black" points="665,-55 665,-74 703,-74 703,-55 665,-55"/>
<text text-anchor="middle" x="684" y="-62" font-family="Helvetica,sans-Serif" font-size="10.00">main</text>
</a>
</g>
</g>
<!-- Node231&#45;&gt;Node232 -->
<g id="edge4" class="edge"><title>Node231&#45;&gt;Node232</title>
<path fill="none" stroke="midnightblue" d="M639.013,-64.5C648.457,-64.5 657.315,-64.5 664.572,-64.5"/>
<polygon fill="midnightblue" stroke="midnightblue" points="639.001,-61.0001 629.001,-64.5 639.001,-68.0001 639.001,-61.0001"/>
</g>
<!-- Node233 -->
<g id="node6" class="node"><title>Node233</title>
<g id="a_node6"><a xlink:href="../../df/d0a/main_8cpp.html#a2922bc5d5c2d77a3020cfbf9df12aab0" target="_top" xlink:title="WinMain">
<polygon fill="white" stroke="black" points="739,-55 739,-74 794,-74 794,-55 739,-55"/>
<text text-anchor="middle" x="766.5" y="-62" font-family="Helvetica,sans-Serif" font-size="10.00">WinMain</text>
</a>
</g>
</g>
<!-- Node232&#45;&gt;Node233 -->
<g id="edge5" class="edge"><title>Node232&#45;&gt;Node233</title>
<path fill="none" stroke="midnightblue" d="M713.519,-64.5C721.73,-64.5 730.653,-64.5 738.752,-64.5"/>
<polygon fill="midnightblue" stroke="midnightblue" points="713.267,-61.0001 703.267,-64.5 713.267,-68.0001 713.267,-61.0001"/>
</g>
</g>
</svg>
