<?xml version="1.0" encoding="UTF-8" standalone="no"?>
<!DOCTYPE svg PUBLIC "-//W3C//DTD SVG 1.1//EN"
 "http://www.w3.org/Graphics/SVG/1.1/DTD/svg11.dtd">
<!-- Generated by graphviz version 2.38.0 (20140413.2041)
 -->
<!-- Title: source/main/physics/air/Airfoil.cpp Pages: 1 -->
<svg width="1909pt" height="263pt"
 viewBox="0.00 0.00 1908.50 263.00" xmlns="http://www.w3.org/2000/svg" xmlns:xlink="http://www.w3.org/1999/xlink">
<g id="graph0" class="graph" transform="scale(1 1) rotate(0) translate(4 259)">
<title>source/main/physics/air/Airfoil.cpp</title>
<polygon fill="white" stroke="none" points="-4,4 -4,-259 1904.5,-259 1904.5,4 -4,4"/>
<!-- Node0 -->
<g id="node1" class="node"><title>Node0</title>
<polygon fill="#bfbfbf" stroke="black" points="1711,-224.5 1711,-254.5 1818,-254.5 1818,-224.5 1711,-224.5"/>
<text text-anchor="start" x="1719" y="-242.5" font-family="Helvetica,sans-Serif" font-size="10.00">source/main/physics</text>
<text text-anchor="middle" x="1764.5" y="-231.5" font-family="Helvetica,sans-Serif" font-size="10.00">/air/Airfoil.cpp</text>
</g>
<!-- Node1 -->
<g id="node2" class="node"><title>Node1</title>
<g id="a_node2"><a xlink:href="../../d0/d1e/_airfoil_8h.html" target="_top" xlink:title="Airfoil.h">
<polygon fill="white" stroke="black" points="1259,-168.5 1259,-187.5 1308,-187.5 1308,-168.5 1259,-168.5"/>
<text text-anchor="middle" x="1283.5" y="-175.5" font-family="Helvetica,sans-Serif" font-size="10.00">Airfoil.h</text>
</a>
</g>
</g>
<!-- Node0&#45;&gt;Node1 -->
<g id="edge1" class="edge"><title>Node0&#45;&gt;Node1</title>
<path fill="none" stroke="midnightblue" d="M1710.72,-231.848C1611.26,-219.545 1401.17,-193.556 1318.23,-183.296"/>
<polygon fill="midnightblue" stroke="midnightblue" points="1318.43,-179.794 1308.07,-182.04 1317.57,-186.741 1318.43,-179.794"/>
</g>
<!-- Node20 -->
<g id="node21" class="node"><title>Node20</title>
<g id="a_node21"><a xlink:href="../../d9/da3/_application_8h.html" target="_top" xlink:title="Central state/object manager and communications hub. ">
<polygon fill="white" stroke="black" points="1728,-168.5 1728,-187.5 1801,-187.5 1801,-168.5 1728,-168.5"/>
<text text-anchor="middle" x="1764.5" y="-175.5" font-family="Helvetica,sans-Serif" font-size="10.00">Application.h</text>
</a>
</g>
</g>
<!-- Node0&#45;&gt;Node20 -->
<g id="edge21" class="edge"><title>Node0&#45;&gt;Node20</title>
<path fill="none" stroke="midnightblue" d="M1764.5,-224.399C1764.5,-216.466 1764.5,-206.458 1764.5,-197.858"/>
<polygon fill="midnightblue" stroke="midnightblue" points="1768,-197.658 1764.5,-187.658 1761,-197.658 1768,-197.658"/>
</g>
<!-- Node24 -->
<g id="node25" class="node"><title>Node24</title>
<polygon fill="white" stroke="#bfbfbf" points="1819.5,-168.5 1819.5,-187.5 1865.5,-187.5 1865.5,-168.5 1819.5,-168.5"/>
<text text-anchor="middle" x="1842.5" y="-175.5" font-family="Helvetica,sans-Serif" font-size="10.00">Ogre.h</text>
</g>
<!-- Node0&#45;&gt;Node24 -->
<g id="edge26" class="edge"><title>Node0&#45;&gt;Node24</title>
<path fill="none" stroke="midnightblue" d="M1782.98,-224.399C1795.02,-215.218 1810.7,-203.258 1822.94,-193.918"/>
<polygon fill="midnightblue" stroke="midnightblue" points="1825.32,-196.506 1831.15,-187.658 1821.08,-190.94 1825.32,-196.506"/>
</g>
<!-- Node2 -->
<g id="node3" class="node"><title>Node2</title>
<g id="a_node3"><a xlink:href="../../d8/d9c/_ro_r_prerequisites_8h.html" target="_top" xlink:title="RoRPrerequisites.h">
<polygon fill="white" stroke="black" points="830,-112.5 830,-131.5 931,-131.5 931,-112.5 830,-112.5"/>
<text text-anchor="middle" x="880.5" y="-119.5" font-family="Helvetica,sans-Serif" font-size="10.00">RoRPrerequisites.h</text>
</a>
</g>
</g>
<!-- Node1&#45;&gt;Node2 -->
<g id="edge2" class="edge"><title>Node1&#45;&gt;Node2</title>
<path fill="none" stroke="midnightblue" d="M1258.9,-173.703C1196.61,-165.358 1031.27,-143.202 941.144,-131.126"/>
<polygon fill="midnightblue" stroke="midnightblue" points="941.446,-127.635 931.069,-129.776 940.516,-134.573 941.446,-127.635"/>
</g>
<!-- Node3 -->
<g id="node4" class="node"><title>Node3</title>
<polygon fill="white" stroke="#bfbfbf" points="1055,-56.5 1055,-75.5 1158,-75.5 1158,-56.5 1055,-56.5"/>
<text text-anchor="middle" x="1106.5" y="-63.5" font-family="Helvetica,sans-Serif" font-size="10.00">OgrePrerequisites.h</text>
</g>
<!-- Node2&#45;&gt;Node3 -->
<g id="edge3" class="edge"><title>Node2&#45;&gt;Node3</title>
<path fill="none" stroke="midnightblue" d="M916.31,-112.444C955.488,-103.083 1018.38,-88.0561 1061.02,-77.868"/>
<polygon fill="midnightblue" stroke="midnightblue" points="1061.94,-81.2446 1070.86,-75.5164 1060.32,-74.4363 1061.94,-81.2446"/>
</g>
<!-- Node4 -->
<g id="node5" class="node"><title>Node4</title>
<polygon fill="white" stroke="#bfbfbf" points="1301,-56.5 1301,-75.5 1416,-75.5 1416,-56.5 1301,-56.5"/>
<text text-anchor="middle" x="1358.5" y="-63.5" font-family="Helvetica,sans-Serif" font-size="10.00">OgreAxisAlignedBox.h</text>
</g>
<!-- Node2&#45;&gt;Node4 -->
<g id="edge4" class="edge"><title>Node2&#45;&gt;Node4</title>
<path fill="none" stroke="midnightblue" d="M931.292,-115.894C1007.22,-108.163 1155.08,-92.7347 1290.76,-76.1884"/>
<polygon fill="midnightblue" stroke="midnightblue" points="1291.42,-79.6337 1300.92,-74.9442 1290.57,-72.6855 1291.42,-79.6337"/>
</g>
<!-- Node5 -->
<g id="node6" class="node"><title>Node5</title>
<polygon fill="white" stroke="#bfbfbf" points="1558.5,-56.5 1558.5,-75.5 1656.5,-75.5 1656.5,-56.5 1558.5,-56.5"/>
<text text-anchor="middle" x="1607.5" y="-63.5" font-family="Helvetica,sans-Serif" font-size="10.00">OgreColourValue.h</text>
</g>
<!-- Node2&#45;&gt;Node5 -->
<g id="edge5" class="edge"><title>Node2&#45;&gt;Node5</title>
<path fill="none" stroke="midnightblue" d="M931.408,-119.085C1041.83,-114.605 1311.76,-101.893 1548.32,-76.0331"/>
<polygon fill="midnightblue" stroke="midnightblue" points="1548.94,-79.4864 1558.49,-74.9106 1548.17,-72.5287 1548.94,-79.4864"/>
</g>
<!-- Node6 -->
<g id="node7" class="node"><title>Node6</title>
<polygon fill="white" stroke="#bfbfbf" points="0,-56.5 0,-75.5 101,-75.5 101,-56.5 0,-56.5"/>
<text text-anchor="middle" x="50.5" y="-63.5" font-family="Helvetica,sans-Serif" font-size="10.00">OgreHeaderPrefix.h</text>
</g>
<!-- Node2&#45;&gt;Node6 -->
<g id="edge6" class="edge"><title>Node2&#45;&gt;Node6</title>
<path fill="none" stroke="midnightblue" d="M829.851,-119.675C707.895,-116.134 388.126,-104.765 111.544,-76.1273"/>
<polygon fill="midnightblue" stroke="midnightblue" points="111.62,-72.6163 101.31,-75.0577 110.892,-79.5784 111.62,-72.6163"/>
</g>
<!-- Node7 -->
<g id="node8" class="node"><title>Node7</title>
<polygon fill="white" stroke="#bfbfbf" points="119,-56.5 119,-75.5 218,-75.5 218,-56.5 119,-56.5"/>
<text text-anchor="middle" x="168.5" y="-63.5" font-family="Helvetica,sans-Serif" font-size="10.00">OgreLogManager.h</text>
</g>
<!-- Node2&#45;&gt;Node7 -->
<g id="edge7" class="edge"><title>Node2&#45;&gt;Node7</title>
<path fill="none" stroke="midnightblue" d="M829.904,-118.99C721.494,-114.365 458.583,-101.451 228.381,-76.1248"/>
<polygon fill="midnightblue" stroke="midnightblue" points="228.462,-72.6124 218.137,-74.9871 227.689,-79.5696 228.462,-72.6124"/>
</g>
<!-- Node8 -->
<g id="node9" class="node"><title>Node8</title>
<polygon fill="white" stroke="#bfbfbf" points="236,-56.5 236,-75.5 329,-75.5 329,-56.5 236,-56.5"/>
<text text-anchor="middle" x="282.5" y="-63.5" font-family="Helvetica,sans-Serif" font-size="10.00">OgreQuaternion.h</text>
</g>
<!-- Node2&#45;&gt;Node8 -->
<g id="edge8" class="edge"><title>Node2&#45;&gt;Node8</title>
<path fill="none" stroke="midnightblue" d="M829.831,-118.15C735.32,-112.541 525.539,-98.7089 339.248,-76.1334"/>
<polygon fill="midnightblue" stroke="midnightblue" points="339.622,-72.6532 329.271,-74.9132 338.773,-79.6014 339.622,-72.6532"/>
</g>
<!-- Node9 -->
<g id="node10" class="node"><title>Node9</title>
<polygon fill="white" stroke="#bfbfbf" points="347,-56.5 347,-75.5 418,-75.5 418,-56.5 347,-56.5"/>
<text text-anchor="middle" x="382.5" y="-63.5" font-family="Helvetica,sans-Serif" font-size="10.00">OgreString.h</text>
</g>
<!-- Node2&#45;&gt;Node9 -->
<g id="edge9" class="edge"><title>Node2&#45;&gt;Node9</title>
<path fill="none" stroke="midnightblue" d="M829.686,-117.591C747.485,-111.717 580.086,-98.2715 428.281,-75.973"/>
<polygon fill="midnightblue" stroke="midnightblue" points="428.711,-72.4986 418.306,-74.4914 427.683,-79.4226 428.711,-72.4986"/>
</g>
<!-- Node10 -->
<g id="node11" class="node"><title>Node10</title>
<polygon fill="white" stroke="#bfbfbf" points="436.5,-56.5 436.5,-75.5 548.5,-75.5 548.5,-56.5 436.5,-56.5"/>
<text text-anchor="middle" x="492.5" y="-63.5" font-family="Helvetica,sans-Serif" font-size="10.00">OgreStringConverter.h</text>
</g>
<!-- Node2&#45;&gt;Node10 -->
<g id="edge10" class="edge"><title>Node2&#45;&gt;Node10</title>
<path fill="none" stroke="midnightblue" d="M829.776,-113.94C760.282,-104.269 635.369,-86.8838 558.616,-76.2017"/>
<polygon fill="midnightblue" stroke="midnightblue" points="558.966,-72.7167 548.579,-74.8047 558.001,-79.6499 558.966,-72.7167"/>
</g>
<!-- Node11 -->
<g id="node12" class="node"><title>Node11</title>
<polygon fill="white" stroke="#bfbfbf" points="567,-56.5 567,-75.5 656,-75.5 656,-56.5 567,-56.5"/>
<text text-anchor="middle" x="611.5" y="-63.5" font-family="Helvetica,sans-Serif" font-size="10.00">OgreUTFString.h</text>
</g>
<!-- Node2&#45;&gt;Node11 -->
<g id="edge11" class="edge"><title>Node2&#45;&gt;Node11</title>
<path fill="none" stroke="midnightblue" d="M837.876,-112.444C790.753,-102.984 714.808,-87.7384 664.041,-77.5472"/>
<polygon fill="midnightblue" stroke="midnightblue" points="664.418,-74.0531 653.924,-75.5164 663.04,-80.9162 664.418,-74.0531"/>
</g>
<!-- Node12 -->
<g id="node13" class="node"><title>Node12</title>
<polygon fill="white" stroke="#bfbfbf" points="674.5,-56.5 674.5,-75.5 754.5,-75.5 754.5,-56.5 674.5,-56.5"/>
<text text-anchor="middle" x="714.5" y="-63.5" font-family="Helvetica,sans-Serif" font-size="10.00">OgreVector2.h</text>
</g>
<!-- Node2&#45;&gt;Node12 -->
<g id="edge12" class="edge"><title>Node2&#45;&gt;Node12</title>
<path fill="none" stroke="midnightblue" d="M854.197,-112.444C826.149,-103.32 781.556,-88.8133 750.316,-78.6509"/>
<polygon fill="midnightblue" stroke="midnightblue" points="751.272,-75.2816 740.68,-75.5164 749.107,-81.9383 751.272,-75.2816"/>
</g>
<!-- Node13 -->
<g id="node14" class="node"><title>Node13</title>
<polygon fill="white" stroke="#bfbfbf" points="772.5,-56.5 772.5,-75.5 852.5,-75.5 852.5,-56.5 772.5,-56.5"/>
<text text-anchor="middle" x="812.5" y="-63.5" font-family="Helvetica,sans-Serif" font-size="10.00">OgreVector3.h</text>
</g>
<!-- Node2&#45;&gt;Node13 -->
<g id="edge13" class="edge"><title>Node2&#45;&gt;Node13</title>
<path fill="none" stroke="midnightblue" d="M869.575,-112.324C859.325,-104.185 843.779,-91.8395 831.499,-82.0874"/>
<polygon fill="midnightblue" stroke="midnightblue" points="833.632,-79.3119 823.624,-75.8339 829.279,-84.7937 833.632,-79.3119"/>
</g>
<!-- Node14 -->
<g id="node15" class="node"><title>Node14</title>
<g id="a_node15"><a xlink:href="../../d3/d73/_forward_declarations_8h.html" target="_top" xlink:title="Global forward declarations. ">
<polygon fill="white" stroke="black" points="1431,-0.5 1431,-19.5 1544,-19.5 1544,-0.5 1431,-0.5"/>
<text text-anchor="middle" x="1487.5" y="-7.5" font-family="Helvetica,sans-Serif" font-size="10.00">ForwardDeclarations.h</text>
</a>
</g>
</g>
<!-- Node2&#45;&gt;Node14 -->
<g id="edge14" class="edge"><title>Node2&#45;&gt;Node14</title>
<path fill="none" stroke="midnightblue" d="M880.175,-112.168C880.182,-97.8458 882.515,-69.7741 899.5,-56 939.226,-23.7835 1275.21,-14.4434 1420.73,-11.8956"/>
<polygon fill="midnightblue" stroke="midnightblue" points="1420.94,-15.3928 1430.88,-11.7237 1420.82,-8.39379 1420.94,-15.3928"/>
</g>
<!-- Node15 -->
<g id="node16" class="node"><title>Node15</title>
<g id="a_node16"><a xlink:href="../../d7/dfa/_global_environment_8h.html" target="_top" xlink:title="GlobalEnvironment.h">
<polygon fill="white" stroke="black" points="1434.5,-56.5 1434.5,-75.5 1540.5,-75.5 1540.5,-56.5 1434.5,-56.5"/>
<text text-anchor="middle" x="1487.5" y="-63.5" font-family="Helvetica,sans-Serif" font-size="10.00">GlobalEnvironment.h</text>
</a>
</g>
</g>
<!-- Node2&#45;&gt;Node15 -->
<g id="edge15" class="edge"><title>Node2&#45;&gt;Node15</title>
<path fill="none" stroke="midnightblue" d="M931.32,-117.856C1026.12,-111.762 1236.58,-97.1552 1424.37,-76.0624"/>
<polygon fill="midnightblue" stroke="midnightblue" points="1424.89,-79.5266 1434.43,-74.924 1424.1,-72.571 1424.89,-79.5266"/>
</g>
<!-- Node16 -->
<g id="node17" class="node"><title>Node16</title>
<g id="a_node17"><a xlink:href="../../dc/de5/_zeroed_memory_allocator_8h.html" target="_top" xlink:title="ZeroedMemoryAllocator.h">
<polygon fill="white" stroke="black" points="908.5,-56.5 908.5,-75.5 1036.5,-75.5 1036.5,-56.5 908.5,-56.5"/>
<text text-anchor="middle" x="972.5" y="-63.5" font-family="Helvetica,sans-Serif" font-size="10.00">ZeroedMemoryAllocator.h</text>
</a>
</g>
</g>
<!-- Node2&#45;&gt;Node16 -->
<g id="edge17" class="edge"><title>Node2&#45;&gt;Node16</title>
<path fill="none" stroke="midnightblue" d="M895.281,-112.324C909.767,-103.822 932.073,-90.7288 948.993,-80.7975"/>
<polygon fill="midnightblue" stroke="midnightblue" points="950.903,-83.735 957.755,-75.6545 947.359,-77.6981 950.903,-83.735"/>
</g>
<!-- Node17 -->
<g id="node18" class="node"><title>Node17</title>
<g id="a_node18"><a xlink:href="../../d7/d85/_bit_flags_8h.html" target="_top" xlink:title="BitFlags.h">
<polygon fill="white" stroke="black" points="1675,-56.5 1675,-75.5 1736,-75.5 1736,-56.5 1675,-56.5"/>
<text text-anchor="middle" x="1705.5" y="-63.5" font-family="Helvetica,sans-Serif" font-size="10.00">BitFlags.h</text>
</a>
</g>
</g>
<!-- Node2&#45;&gt;Node17 -->
<g id="edge18" class="edge"><title>Node2&#45;&gt;Node17</title>
<path fill="none" stroke="midnightblue" d="M931.293,-120.965C1055.15,-120.263 1382.6,-114.701 1664.57,-75.8777"/>
<polygon fill="midnightblue" stroke="midnightblue" points="1665.16,-79.3295 1674.58,-74.4826 1664.2,-72.3965 1665.16,-79.3295"/>
</g>
<!-- Node19 -->
<g id="node20" class="node"><title>Node19</title>
<polygon fill="white" stroke="#bfbfbf" points="1176,-56.5 1176,-75.5 1283,-75.5 1283,-56.5 1176,-56.5"/>
<text text-anchor="middle" x="1229.5" y="-63.5" font-family="Helvetica,sans-Serif" font-size="10.00">MyGUI_Prerequest.h</text>
</g>
<!-- Node2&#45;&gt;Node19 -->
<g id="edge20" class="edge"><title>Node2&#45;&gt;Node19</title>
<path fill="none" stroke="midnightblue" d="M931.248,-113.148C993.286,-103.549 1098.32,-87.2975 1165.75,-76.8642"/>
<polygon fill="midnightblue" stroke="midnightblue" points="1166.48,-80.2931 1175.82,-75.3051 1165.41,-73.3754 1166.48,-80.2931"/>
</g>
<!-- Node15&#45;&gt;Node14 -->
<g id="edge16" class="edge"><title>Node15&#45;&gt;Node14</title>
<path fill="none" stroke="midnightblue" d="M1487.5,-56.083C1487.5,-49.0059 1487.5,-38.8611 1487.5,-29.9865"/>
<polygon fill="midnightblue" stroke="midnightblue" points="1491,-29.751 1487.5,-19.7511 1484,-29.7511 1491,-29.751"/>
</g>
<!-- Node18 -->
<g id="node19" class="node"><title>Node18</title>
<polygon fill="white" stroke="#bfbfbf" points="1682.5,-0.5 1682.5,-19.5 1728.5,-19.5 1728.5,-0.5 1682.5,-0.5"/>
<text text-anchor="middle" x="1705.5" y="-7.5" font-family="Helvetica,sans-Serif" font-size="10.00">cstdint</text>
</g>
<!-- Node17&#45;&gt;Node18 -->
<g id="edge19" class="edge"><title>Node17&#45;&gt;Node18</title>
<path fill="none" stroke="midnightblue" d="M1705.5,-56.083C1705.5,-49.0059 1705.5,-38.8611 1705.5,-29.9865"/>
<polygon fill="midnightblue" stroke="midnightblue" points="1709,-29.751 1705.5,-19.7511 1702,-29.7511 1709,-29.751"/>
</g>
<!-- Node20&#45;&gt;Node14 -->
<g id="edge22" class="edge"><title>Node20&#45;&gt;Node14</title>
<path fill="none" stroke="midnightblue" d="M1766.18,-168.208C1769.86,-145.976 1776.06,-87.0839 1745.5,-56 1719.46,-29.5174 1621.59,-18.509 1554.17,-14.0097"/>
<polygon fill="midnightblue" stroke="midnightblue" points="1554.24,-10.5074 1544.04,-13.367 1553.8,-17.4933 1554.24,-10.5074"/>
</g>
<!-- Node21 -->
<g id="node22" class="node"><title>Node21</title>
<polygon fill="white" stroke="#bfbfbf" points="1793,-112.5 1793,-131.5 1836,-131.5 1836,-112.5 1793,-112.5"/>
<text text-anchor="middle" x="1814.5" y="-119.5" font-family="Helvetica,sans-Serif" font-size="10.00">cstdio</text>
</g>
<!-- Node20&#45;&gt;Node21 -->
<g id="edge23" class="edge"><title>Node20&#45;&gt;Node21</title>
<path fill="none" stroke="midnightblue" d="M1772.76,-168.083C1779.96,-160.298 1790.61,-148.801 1799.35,-139.367"/>
<polygon fill="midnightblue" stroke="midnightblue" points="1802.17,-141.467 1806.4,-131.751 1797.03,-136.711 1802.17,-141.467"/>
</g>
<!-- Node22 -->
<g id="node23" class="node"><title>Node22</title>
<polygon fill="white" stroke="#bfbfbf" points="1854.5,-112.5 1854.5,-131.5 1900.5,-131.5 1900.5,-112.5 1854.5,-112.5"/>
<text text-anchor="middle" x="1877.5" y="-119.5" font-family="Helvetica,sans-Serif" font-size="10.00">cstring</text>
</g>
<!-- Node20&#45;&gt;Node22 -->
<g id="edge24" class="edge"><title>Node20&#45;&gt;Node22</title>
<path fill="none" stroke="midnightblue" d="M1782.41,-168.444C1800.75,-159.675 1829.51,-145.935 1850.59,-135.858"/>
<polygon fill="midnightblue" stroke="midnightblue" points="1852.17,-138.986 1859.68,-131.516 1849.15,-132.67 1852.17,-138.986"/>
</g>
<!-- Node23 -->
<g id="node24" class="node"><title>Node23</title>
<polygon fill="white" stroke="#bfbfbf" points="1695,-112.5 1695,-131.5 1736,-131.5 1736,-112.5 1695,-112.5"/>
<text text-anchor="middle" x="1715.5" y="-119.5" font-family="Helvetica,sans-Serif" font-size="10.00">string</text>
</g>
<!-- Node20&#45;&gt;Node23 -->
<g id="edge25" class="edge"><title>Node20&#45;&gt;Node23</title>
<path fill="none" stroke="midnightblue" d="M1756.41,-168.083C1749.34,-160.298 1738.91,-148.801 1730.35,-139.367"/>
<polygon fill="midnightblue" stroke="midnightblue" points="1732.75,-136.805 1723.44,-131.751 1727.57,-141.509 1732.75,-136.805"/>
</g>
</g>
</svg>
