<?xml version="1.0" encoding="UTF-8" standalone="no"?>
<!DOCTYPE svg PUBLIC "-//W3C//DTD SVG 1.1//EN"
 "http://www.w3.org/Graphics/SVG/1.1/DTD/svg11.dtd">
<!-- Generated by graphviz version 2.38.0 (20140413.2041)
 -->
<!-- Title: ImRect::GetTR Pages: 1 -->
<svg width="918pt" height="241pt"
 viewBox="0.00 0.00 918.00 240.50" xmlns="http://www.w3.org/2000/svg" xmlns:xlink="http://www.w3.org/1999/xlink">
<g id="graph0" class="graph" transform="scale(1 1) rotate(0) translate(4 236.5)">
<title>ImRect::GetTR</title>
<polygon fill="white" stroke="none" points="-4,4 -4,-236.5 914,-236.5 914,4 -4,4"/>
<!-- Node1780 -->
<g id="node1" class="node"><title>Node1780</title>
<polygon fill="#bfbfbf" stroke="black" points="0,-117.5 0,-136.5 81,-136.5 81,-117.5 0,-117.5"/>
<text text-anchor="middle" x="40.5" y="-124.5" font-family="Helvetica,sans-Serif" font-size="10.00">ImRect::GetTR</text>
</g>
<!-- Node1781 -->
<g id="node2" class="node"><title>Node1781</title>
<g id="a_node2"><a xlink:href="../../df/d13/namespace_im_gui.html#a030e4ac6eed5b4b960a3fef538fcbad0" target="_top" xlink:title="ImGui::Begin">
<polygon fill="white" stroke="black" points="129,-158.5 129,-177.5 202,-177.5 202,-158.5 129,-158.5"/>
<text text-anchor="middle" x="165.5" y="-165.5" font-family="Helvetica,sans-Serif" font-size="10.00">ImGui::Begin</text>
</a>
</g>
</g>
<!-- Node1780&#45;&gt;Node1781 -->
<g id="edge1" class="edge"><title>Node1780&#45;&gt;Node1781</title>
<path fill="none" stroke="midnightblue" d="M79.6977,-139.733C97.7752,-145.758 119.005,-152.835 135.701,-158.4"/>
<polygon fill="midnightblue" stroke="midnightblue" points="80.6215,-136.351 70.0278,-136.509 78.4078,-142.992 80.6215,-136.351"/>
</g>
<!-- Node1784 -->
<g id="node5" class="node"><title>Node1784</title>
<g id="a_node5"><a xlink:href="../../df/d13/namespace_im_gui.html#a1e55711a21f97d5dff919d697d3a7201" target="_top" xlink:title="ImGui::BeginMenu">
<polygon fill="white" stroke="black" points="117,-76.5 117,-95.5 214,-95.5 214,-76.5 117,-76.5"/>
<text text-anchor="middle" x="165.5" y="-83.5" font-family="Helvetica,sans-Serif" font-size="10.00">ImGui::BeginMenu</text>
</a>
</g>
</g>
<!-- Node1780&#45;&gt;Node1784 -->
<g id="edge4" class="edge"><title>Node1780&#45;&gt;Node1784</title>
<path fill="none" stroke="midnightblue" d="M79.6977,-114.267C97.7752,-108.242 119.005,-101.165 135.701,-95.5997"/>
<polygon fill="midnightblue" stroke="midnightblue" points="78.4078,-111.008 70.0278,-117.491 80.6215,-117.649 78.4078,-111.008"/>
</g>
<!-- Node1782 -->
<g id="node3" class="node"><title>Node1782</title>
<g id="a_node3"><a xlink:href="../../df/d0a/struct_im_gui_list_clipper.html#a0dc870fa31a56d3ace7625450f42937a" target="_top" xlink:title="ImGuiListClipper::ImGuiList\lClipper">
<polygon fill="white" stroke="black" points="250,-202 250,-232 385,-232 385,-202 250,-202"/>
<text text-anchor="start" x="258" y="-220" font-family="Helvetica,sans-Serif" font-size="10.00">ImGuiListClipper::ImGuiList</text>
<text text-anchor="middle" x="317.5" y="-209" font-family="Helvetica,sans-Serif" font-size="10.00">Clipper</text>
</a>
</g>
</g>
<!-- Node1781&#45;&gt;Node1782 -->
<g id="edge2" class="edge"><title>Node1781&#45;&gt;Node1782</title>
<path fill="none" stroke="midnightblue" d="M205.44,-180.72C225.328,-187.217 249.656,-195.164 270.468,-201.963"/>
<polygon fill="midnightblue" stroke="midnightblue" points="206.37,-177.342 195.778,-177.564 204.196,-183.996 206.37,-177.342"/>
</g>
<!-- Node1783 -->
<g id="node4" class="node"><title>Node1783</title>
<g id="a_node4"><a xlink:href="../../df/d0a/struct_im_gui_list_clipper.html#ada915f0ae4446df73c1a2372bde65293" target="_top" xlink:title="ImGuiListClipper::\l~ImGuiListClipper">
<polygon fill="white" stroke="black" points="270.5,-153 270.5,-183 364.5,-183 364.5,-153 270.5,-153"/>
<text text-anchor="start" x="278.5" y="-171" font-family="Helvetica,sans-Serif" font-size="10.00">ImGuiListClipper::</text>
<text text-anchor="middle" x="317.5" y="-160" font-family="Helvetica,sans-Serif" font-size="10.00">~ImGuiListClipper</text>
</a>
</g>
</g>
<!-- Node1781&#45;&gt;Node1783 -->
<g id="edge3" class="edge"><title>Node1781&#45;&gt;Node1783</title>
<path fill="none" stroke="midnightblue" d="M212.254,-168C230.694,-168 251.931,-168 270.405,-168"/>
<polygon fill="midnightblue" stroke="midnightblue" points="212.048,-164.5 202.048,-168 212.048,-171.5 212.048,-164.5"/>
</g>
<!-- Node1785 -->
<g id="node6" class="node"><title>Node1785</title>
<g id="a_node6"><a xlink:href="../../df/d13/namespace_im_gui.html#a52880ae1ecdd704a083558d31c9bfa50" target="_top" xlink:title="ImGui::ShowTestWindow">
<polygon fill="white" stroke="black" points="613,-57.5 613,-76.5 738,-76.5 738,-57.5 613,-57.5"/>
<text text-anchor="middle" x="675.5" y="-64.5" font-family="Helvetica,sans-Serif" font-size="10.00">ImGui::ShowTestWindow</text>
</a>
</g>
</g>
<!-- Node1784&#45;&gt;Node1785 -->
<g id="edge5" class="edge"><title>Node1784&#45;&gt;Node1785</title>
<path fill="none" stroke="midnightblue" d="M223.96,-96.9375C303.878,-110.281 452.775,-128.353 577,-105 605.746,-99.5962 636.898,-85.9595 656.061,-76.5827"/>
<polygon fill="midnightblue" stroke="midnightblue" points="224.538,-93.4856 214.092,-95.255 223.361,-100.386 224.538,-93.4856"/>
</g>
<!-- Node1787 -->
<g id="node8" class="node"><title>Node1787</title>
<g id="a_node8"><a xlink:href="../../d5/d0a/imgui__demo_8cpp.html#a41fc5e36f317b1e9f66bdd2d7bca7764" target="_top" xlink:title="ShowExampleAppMainMenuBar">
<polygon fill="white" stroke="black" points="421,-76.5 421,-95.5 577,-95.5 577,-76.5 421,-76.5"/>
<text text-anchor="middle" x="499" y="-83.5" font-family="Helvetica,sans-Serif" font-size="10.00">ShowExampleAppMainMenuBar</text>
</a>
</g>
</g>
<!-- Node1784&#45;&gt;Node1787 -->
<g id="edge8" class="edge"><title>Node1784&#45;&gt;Node1787</title>
<path fill="none" stroke="midnightblue" d="M224.519,-86C278.951,-86 360.73,-86 420.682,-86"/>
<polygon fill="midnightblue" stroke="midnightblue" points="224.349,-82.5001 214.349,-86 224.349,-89.5001 224.349,-82.5001"/>
</g>
<!-- Node1788 -->
<g id="node9" class="node"><title>Node1788</title>
<g id="a_node9"><a xlink:href="../../d5/d0a/imgui__demo_8cpp.html#af6ff107f662e23ad39345a8192d782eb" target="_top" xlink:title="ShowExampleMenuFile">
<polygon fill="white" stroke="black" points="258,-38.5 258,-57.5 377,-57.5 377,-38.5 258,-38.5"/>
<text text-anchor="middle" x="317.5" y="-45.5" font-family="Helvetica,sans-Serif" font-size="10.00">ShowExampleMenuFile</text>
</a>
</g>
</g>
<!-- Node1784&#45;&gt;Node1788 -->
<g id="edge10" class="edge"><title>Node1784&#45;&gt;Node1788</title>
<path fill="none" stroke="midnightblue" d="M214.311,-73.8879C235.202,-68.5956 259.347,-62.4787 278.921,-57.5201"/>
<polygon fill="midnightblue" stroke="midnightblue" points="213.186,-70.5623 204.351,-76.411 214.905,-77.348 213.186,-70.5623"/>
</g>
<!-- Node1789 -->
<g id="node10" class="node"><title>Node1789</title>
<g id="a_node10"><a xlink:href="../../d5/d0a/imgui__demo_8cpp.html#adfe8516f13b623adbf78b024efd5bb6e" target="_top" xlink:title="ShowExampleAppLayout">
<polygon fill="white" stroke="black" points="436.5,-0.5 436.5,-19.5 561.5,-19.5 561.5,-0.5 436.5,-0.5"/>
<text text-anchor="middle" x="499" y="-7.5" font-family="Helvetica,sans-Serif" font-size="10.00">ShowExampleAppLayout</text>
</a>
</g>
</g>
<!-- Node1784&#45;&gt;Node1789 -->
<g id="edge13" class="edge"><title>Node1784&#45;&gt;Node1789</title>
<path fill="none" stroke="midnightblue" d="M184.756,-69.3127C200.7,-55.8387 225.128,-37.7344 250,-29 310.808,-7.64578 385.008,-4.73285 436.316,-6.01664"/>
<polygon fill="midnightblue" stroke="midnightblue" points="182.057,-67.0221 176.822,-76.2329 186.658,-72.2974 182.057,-67.0221"/>
</g>
<!-- Node1786 -->
<g id="node7" class="node"><title>Node1786</title>
<g id="a_node7"><a xlink:href="../../d5/d0a/imgui__demo_8cpp.html#a4dadf5e7b393795666d19af9694037cf" target="_top" xlink:title="ShowExampleAppLongText">
<polygon fill="white" stroke="black" points="774,-57.5 774,-76.5 910,-76.5 910,-57.5 774,-57.5"/>
<text text-anchor="middle" x="842" y="-64.5" font-family="Helvetica,sans-Serif" font-size="10.00">ShowExampleAppLongText</text>
</a>
</g>
</g>
<!-- Node1785&#45;&gt;Node1786 -->
<g id="edge6" class="edge"><title>Node1785&#45;&gt;Node1786</title>
<path fill="none" stroke="midnightblue" d="M748.464,-60.2971C756.942,-60.2191 765.567,-60.238 773.973,-60.3538"/>
<polygon fill="midnightblue" stroke="midnightblue" points="748.172,-56.8008 738.222,-60.4404 748.27,-63.8001 748.172,-56.8008"/>
</g>
<!-- Node1786&#45;&gt;Node1785 -->
<g id="edge7" class="edge"><title>Node1786&#45;&gt;Node1785</title>
<path fill="none" stroke="midnightblue" d="M763.916,-73.7381C755.301,-73.7777 746.609,-73.7182 738.222,-73.5596"/>
<polygon fill="midnightblue" stroke="midnightblue" points="764.005,-77.2376 773.973,-73.6462 763.941,-70.2379 764.005,-77.2376"/>
</g>
<!-- Node1787&#45;&gt;Node1785 -->
<g id="edge9" class="edge"><title>Node1787&#45;&gt;Node1785</title>
<path fill="none" stroke="midnightblue" d="M587.179,-76.5077C595.828,-75.566 604.479,-74.6241 612.79,-73.7192"/>
<polygon fill="midnightblue" stroke="midnightblue" points="586.609,-73.0491 577.046,-77.611 587.366,-80.0079 586.609,-73.0491"/>
</g>
<!-- Node1788&#45;&gt;Node1785 -->
<g id="edge11" class="edge"><title>Node1788&#45;&gt;Node1785</title>
<path fill="none" stroke="midnightblue" d="M387.494,-51.6822C452.864,-55.1711 550.131,-60.3623 612.937,-63.7143"/>
<polygon fill="midnightblue" stroke="midnightblue" points="387.459,-48.1755 377.286,-51.1375 387.085,-55.1655 387.459,-48.1755"/>
</g>
<!-- Node1788&#45;&gt;Node1787 -->
<g id="edge12" class="edge"><title>Node1788&#45;&gt;Node1787</title>
<path fill="none" stroke="midnightblue" d="M373.677,-59.681C399.133,-65.0699 428.968,-71.3861 453.03,-76.4799"/>
<polygon fill="midnightblue" stroke="midnightblue" points="374.304,-56.2361 363.795,-57.589 372.854,-63.0843 374.304,-56.2361"/>
</g>
<!-- Node1789&#45;&gt;Node1785 -->
<g id="edge14" class="edge"><title>Node1789&#45;&gt;Node1785</title>
<path fill="none" stroke="midnightblue" d="M540.707,-22.486C552.439,-26.1393 565.244,-30.179 577,-34 600.623,-41.6781 627.338,-50.7472 646.822,-57.4331"/>
<polygon fill="midnightblue" stroke="midnightblue" points="541.739,-19.1416 531.151,-19.5215 539.665,-25.8273 541.739,-19.1416"/>
</g>
</g>
</svg>
