<?xml version="1.0" encoding="UTF-8" standalone="no"?>
<!DOCTYPE svg PUBLIC "-//W3C//DTD SVG 1.1//EN"
 "http://www.w3.org/Graphics/SVG/1.1/DTD/svg11.dtd">
<!-- Generated by graphviz version 2.38.0 (20140413.2041)
 -->
<!-- Title: BeamEngine::getAcc Pages: 1 -->
<svg width="488pt" height="127pt"
 viewBox="0.00 0.00 488.00 126.50" xmlns="http://www.w3.org/2000/svg" xmlns:xlink="http://www.w3.org/1999/xlink">
<g id="graph0" class="graph" transform="scale(1 1) rotate(0) translate(4 122.5)">
<title>BeamEngine::getAcc</title>
<polygon fill="white" stroke="none" points="-4,4 -4,-122.5 484,-122.5 484,4 -4,4"/>
<!-- Node26 -->
<g id="node1" class="node"><title>Node26</title>
<polygon fill="#bfbfbf" stroke="black" points="0,-44.5 0,-63.5 109,-63.5 109,-44.5 0,-44.5"/>
<text text-anchor="middle" x="54.5" y="-51.5" font-family="Helvetica,sans-Serif" font-size="10.00">BeamEngine::getAcc</text>
</g>
<!-- Node27 -->
<g id="node2" class="node"><title>Node27</title>
<g id="a_node2"><a xlink:href="../../da/dba/struct_ro_r_1_1_land_vehicle_simulation.html#a20e0e3bfb3deaa213ffb06d283ae81c8" target="_top" xlink:title="RoR::LandVehicleSimulation\l::UpdateCruiseControl">
<polygon fill="white" stroke="black" points="145,-88 145,-118 285,-118 285,-88 145,-88"/>
<text text-anchor="start" x="153" y="-106" font-family="Helvetica,sans-Serif" font-size="10.00">RoR::LandVehicleSimulation</text>
<text text-anchor="middle" x="215" y="-95" font-family="Helvetica,sans-Serif" font-size="10.00">::UpdateCruiseControl</text>
</a>
</g>
</g>
<!-- Node26&#45;&gt;Node27 -->
<g id="edge1" class="edge"><title>Node26&#45;&gt;Node27</title>
<path fill="none" stroke="midnightblue" d="M96.0715,-66.5426C117.192,-73.0719 143.168,-81.1024 165.36,-87.963"/>
<polygon fill="midnightblue" stroke="midnightblue" points="97.0243,-63.1738 86.4367,-63.564 94.9568,-69.8615 97.0243,-63.1738"/>
</g>
<!-- Node29 -->
<g id="node4" class="node"><title>Node29</title>
<g id="a_node4"><a xlink:href="../../da/dba/struct_ro_r_1_1_land_vehicle_simulation.html#aeb311b9e9cb93cb4a55f58af0cf8c8a8" target="_top" xlink:title="RoR::LandVehicleSimulation\l::CheckSpeedLimit">
<polygon fill="white" stroke="black" points="145,-39 145,-69 285,-69 285,-39 145,-39"/>
<text text-anchor="start" x="153" y="-57" font-family="Helvetica,sans-Serif" font-size="10.00">RoR::LandVehicleSimulation</text>
<text text-anchor="middle" x="215" y="-46" font-family="Helvetica,sans-Serif" font-size="10.00">::CheckSpeedLimit</text>
</a>
</g>
</g>
<!-- Node26&#45;&gt;Node29 -->
<g id="edge3" class="edge"><title>Node26&#45;&gt;Node29</title>
<path fill="none" stroke="midnightblue" d="M119.304,-54C127.741,-54 136.421,-54 144.941,-54"/>
<polygon fill="midnightblue" stroke="midnightblue" points="119.161,-50.5001 109.161,-54 119.161,-57.5001 119.161,-50.5001"/>
</g>
<!-- Node30 -->
<g id="node5" class="node"><title>Node30</title>
<g id="a_node5"><a xlink:href="../../d3/df4/class_out_protocol.html#ae17e602d236aaeb1cafb79d984f6fadd" target="_top" xlink:title="OutProtocol::Update">
<polygon fill="white" stroke="black" points="162.5,-0.5 162.5,-19.5 267.5,-19.5 267.5,-0.5 162.5,-0.5"/>
<text text-anchor="middle" x="215" y="-7.5" font-family="Helvetica,sans-Serif" font-size="10.00">OutProtocol::Update</text>
</a>
</g>
</g>
<!-- Node26&#45;&gt;Node30 -->
<g id="edge5" class="edge"><title>Node26&#45;&gt;Node30</title>
<path fill="none" stroke="midnightblue" d="M99.2491,-41.7449C113.801,-37.6778 130.095,-33.1338 145,-29 156.135,-25.9118 168.286,-22.5598 179.245,-19.5434"/>
<polygon fill="midnightblue" stroke="midnightblue" points="98.1794,-38.4096 89.4914,-44.4735 100.065,-45.151 98.1794,-38.4096"/>
</g>
<!-- Node28 -->
<g id="node3" class="node"><title>Node28</title>
<g id="a_node3"><a xlink:href="../../da/dba/struct_ro_r_1_1_land_vehicle_simulation.html#a830e19b0460db3df601abe83096f78d7" target="_top" xlink:title="RoR::LandVehicleSimulation\l::UpdateVehicle">
<polygon fill="white" stroke="black" points="330.5,-63 330.5,-93 470.5,-93 470.5,-63 330.5,-63"/>
<text text-anchor="start" x="338.5" y="-81" font-family="Helvetica,sans-Serif" font-size="10.00">RoR::LandVehicleSimulation</text>
<text text-anchor="middle" x="400.5" y="-70" font-family="Helvetica,sans-Serif" font-size="10.00">::UpdateVehicle</text>
</a>
</g>
</g>
<!-- Node27&#45;&gt;Node28 -->
<g id="edge2" class="edge"><title>Node27&#45;&gt;Node28</title>
<path fill="none" stroke="midnightblue" d="M295.304,-92.1957C307.004,-90.6016 318.98,-88.9701 330.45,-87.4073"/>
<polygon fill="midnightblue" stroke="midnightblue" points="294.548,-88.7662 285.112,-93.5842 295.493,-95.7021 294.548,-88.7662"/>
</g>
<!-- Node29&#45;&gt;Node28 -->
<g id="edge4" class="edge"><title>Node29&#45;&gt;Node28</title>
<path fill="none" stroke="midnightblue" d="M295.304,-64.3722C307.004,-65.9025 318.98,-67.4687 330.45,-68.969"/>
<polygon fill="midnightblue" stroke="midnightblue" points="295.481,-60.8657 285.112,-63.0392 294.574,-67.8066 295.481,-60.8657"/>
</g>
<!-- Node31 -->
<g id="node6" class="node"><title>Node31</title>
<g id="a_node6"><a xlink:href="../../dd/dbe/class_ro_r_frame_listener.html#acdda0026f9324c3b7f48568624e07115" target="_top" xlink:title="RoRFrameListener::frameStarted">
<polygon fill="white" stroke="black" points="321,-0.5 321,-19.5 480,-19.5 480,-0.5 321,-0.5"/>
<text text-anchor="middle" x="400.5" y="-7.5" font-family="Helvetica,sans-Serif" font-size="10.00">RoRFrameListener::frameStarted</text>
</a>
</g>
</g>
<!-- Node30&#45;&gt;Node31 -->
<g id="edge6" class="edge"><title>Node30&#45;&gt;Node31</title>
<path fill="none" stroke="midnightblue" d="M277.925,-10C291.71,-10 306.504,-10 320.86,-10"/>
<polygon fill="midnightblue" stroke="midnightblue" points="277.603,-6.5001 267.603,-10 277.603,-13.5001 277.603,-6.5001"/>
</g>
</g>
</svg>
