<?xml version="1.0" encoding="UTF-8" standalone="no"?>
<!DOCTYPE svg PUBLIC "-//W3C//DTD SVG 1.1//EN"
 "http://www.w3.org/Graphics/SVG/1.1/DTD/svg11.dtd">
<!-- Generated by graphviz version 2.38.0 (20140413.2041)
 -->
<!-- Title: BeamEngine::getEnginePower Pages: 1 -->
<svg width="509pt" height="66pt"
 viewBox="0.00 0.00 509.00 66.00" xmlns="http://www.w3.org/2000/svg" xmlns:xlink="http://www.w3.org/1999/xlink">
<g id="graph0" class="graph" transform="scale(1 1) rotate(0) translate(4 62)">
<title>BeamEngine::getEnginePower</title>
<polygon fill="white" stroke="none" points="-4,4 -4,-62 505,-62 505,4 -4,4"/>
<!-- Node83 -->
<g id="node1" class="node"><title>Node83</title>
<polygon fill="#bfbfbf" stroke="black" points="0,-19.5 0,-38.5 149,-38.5 149,-19.5 0,-19.5"/>
<text text-anchor="middle" x="74.5" y="-26.5" font-family="Helvetica,sans-Serif" font-size="10.00">BeamEngine::getEnginePower</text>
</g>
<!-- Node84 -->
<g id="node2" class="node"><title>Node84</title>
<g id="a_node2"><a xlink:href="../../d8/d12/class_torque_curve.html#ac086875124a09f29072f016ae3c99642" target="_top" xlink:title="TorqueCurve::getEngineTorque">
<polygon fill="white" stroke="black" points="185,-38.5 185,-57.5 334,-57.5 334,-38.5 185,-38.5"/>
<text text-anchor="middle" x="259.5" y="-45.5" font-family="Helvetica,sans-Serif" font-size="10.00">TorqueCurve::getEngineTorque</text>
</a>
</g>
</g>
<!-- Node83&#45;&gt;Node84 -->
<g id="edge1" class="edge"><title>Node83&#45;&gt;Node84</title>
<path fill="none" stroke="midnightblue" d="M149.142,-36.6459C157.565,-37.5205 166.199,-38.4168 174.742,-39.3038"/>
<polygon fill="midnightblue" stroke="midnightblue" points="174.403,-42.7873 184.711,-40.3388 175.126,-35.8247 174.403,-42.7873"/>
</g>
<!-- Node85 -->
<g id="node3" class="node"><title>Node85</title>
<g id="a_node3"><a xlink:href="../../d6/de4/class_beam_engine.html#afa110a2bacf71a91bb89775c3f3a1605" target="_top" xlink:title="BeamEngine::getTurboPower">
<polygon fill="white" stroke="black" points="188,-0.5 188,-19.5 331,-19.5 331,-0.5 188,-0.5"/>
<text text-anchor="middle" x="259.5" y="-7.5" font-family="Helvetica,sans-Serif" font-size="10.00">BeamEngine::getTurboPower</text>
</a>
</g>
</g>
<!-- Node83&#45;&gt;Node85 -->
<g id="edge2" class="edge"><title>Node83&#45;&gt;Node85</title>
<path fill="none" stroke="midnightblue" d="M149.142,-21.3541C158.551,-20.3772 168.222,-19.3731 177.736,-18.3854"/>
<polygon fill="midnightblue" stroke="midnightblue" points="178.393,-21.836 187.978,-17.322 177.67,-14.8735 178.393,-21.836"/>
</g>
<!-- Node86 -->
<g id="node4" class="node"><title>Node86</title>
<g id="a_node4"><a xlink:href="../../d6/de4/class_beam_engine.html#a97f9e8ae65b27a623c9aefaba01b5a3b" target="_top" xlink:title="BeamEngine::getTurboPSI">
<polygon fill="white" stroke="black" points="370,-0.5 370,-19.5 501,-19.5 501,-0.5 370,-0.5"/>
<text text-anchor="middle" x="435.5" y="-7.5" font-family="Helvetica,sans-Serif" font-size="10.00">BeamEngine::getTurboPSI</text>
</a>
</g>
</g>
<!-- Node85&#45;&gt;Node86 -->
<g id="edge3" class="edge"><title>Node85&#45;&gt;Node86</title>
<path fill="none" stroke="midnightblue" d="M331.022,-10C340.43,-10 350.106,-10 359.586,-10"/>
<polygon fill="midnightblue" stroke="midnightblue" points="359.775,-13.5001 369.775,-10 359.774,-6.5001 359.775,-13.5001"/>
</g>
</g>
</svg>
