<?xml version="1.0" encoding="UTF-8" standalone="no"?>
<!DOCTYPE svg PUBLIC "-//W3C//DTD SVG 1.1//EN"
 "http://www.w3.org/Graphics/SVG/1.1/DTD/svg11.dtd">
<!-- Generated by graphviz version 2.38.0 (20140413.2041)
 -->
<!-- Title: BeamEngine::setClutch Pages: 1 -->
<!--zoomable 113 -->
<svg id="main" version="1.1" xmlns="http://www.w3.org/2000/svg" xmlns:xlink="http://www.w3.org/1999/xlink" xml:space="preserve" onload="init(evt)">
<style type="text/css"><![CDATA[
.edge:hover path { stroke: red; }
.edge:hover polygon { stroke: red; fill: red; }
]]></style>
<script type="text/javascript"><![CDATA[
var edges = document.getElementsByTagName('g');
if (edges && edges.length) {
  for (var i=0;i<edges.length;i++) {
    if (edges[i].id.substr(0,4)=='edge') {
      edges[i].setAttribute('class','edge');
    }
  }
}
]]></script>
        <defs>
                <circle id="rim" cx="0" cy="0" r="7"/>
                <circle id="rim2" cx="0" cy="0" r="3.5"/>
                <g id="zoomPlus">
                        <use xlink:href="#rim" fill="#404040">
                                <set attributeName="fill" to="#808080" begin="zoomplus.mouseover" end="zoomplus.mouseout"/>
                        </use>
                        <path d="M-4,0h8M0,-4v8" fill="none" stroke="white" stroke-width="1.5" pointer-events="none"/>
                </g>
                <g id="zoomMin">
                        <use xlink:href="#rim" fill="#404040">
                                <set attributeName="fill" to="#808080" begin="zoomminus.mouseover" end="zoomminus.mouseout"/>
                        </use>
                        <path d="M-4,0h8" fill="none" stroke="white" stroke-width="1.5" pointer-events="none"/>
                </g>
                <g id="dirArrow">
                        <path fill="none" stroke="white" stroke-width="1.5" d="M0,-3.0v7 M-2.5,-0.5L0,-3.0L2.5,-0.5"/>
                </g>
               <g id="resetDef">
                       <use xlink:href="#rim2" fill="#404040">
                               <set attributeName="fill" to="#808080" begin="reset.mouseover" end="reset.mouseout"/>
                       </use>
               </g>
        </defs>

<script type="text/javascript">
var viewWidth = 805;
var viewHeight = 113;
var sectionId = 'dynsection-46';
</script>
<script xlink:href="../../svgpan.js"/>
<svg id="graph" class="graph">
<g id="viewport">
<title>BeamEngine::setClutch</title>
<polygon fill="white" stroke="none" points="-4,4 -4,-108.5 801,-108.5 801,4 -4,4"/>
<!-- Node301 -->
<g id="node1" class="node"><title>Node301</title>
<polygon fill="#bfbfbf" stroke="black" points="0,-57.5 0,-76.5 119,-76.5 119,-57.5 0,-57.5"/>
<text text-anchor="middle" x="59.5" y="-64.5" font-family="Helvetica,sans-Serif" font-size="10.00">BeamEngine::setClutch</text>
</g>
<!-- Node302 -->
<g id="node2" class="node"><title>Node302</title>
<g id="a_node2"><a xlink:href="../../df/df9/class_beam.html#ac8926380f87cb393b321eb342fb5b2a7" target="_top" xlink:title="Beam::engineTriggerHelper">
<polygon fill="white" stroke="black" points="155,-57.5 155,-76.5 289,-76.5 289,-57.5 155,-57.5"/>
<text text-anchor="middle" x="222" y="-64.5" font-family="Helvetica,sans-Serif" font-size="10.00">Beam::engineTriggerHelper</text>
</a>
</g>
</g>
<!-- Node301&#45;&gt;Node302 -->
<g id="edge1" class="edge"><title>Node301&#45;&gt;Node302</title>
<path fill="none" stroke="midnightblue" d="M129.495,-67C137.9,-67 146.472,-67 154.834,-67"/>
<polygon fill="midnightblue" stroke="midnightblue" points="129.353,-63.5001 119.353,-67 129.353,-70.5001 129.353,-63.5001"/>
</g>
<!-- Node303 -->
<g id="node3" class="node"><title>Node303</title>
<g id="a_node3"><a xlink:href="../../df/df9/class_beam.html#aabe018af621de69910d145fe2967ad11" target="_top" xlink:title="Beam::IsNodeIdValid">
<polygon fill="white" stroke="black" points="325,-57.5 325,-76.5 432,-76.5 432,-57.5 325,-57.5"/>
<text text-anchor="middle" x="378.5" y="-64.5" font-family="Helvetica,sans-Serif" font-size="10.00">Beam::IsNodeIdValid</text>
</a>
</g>
</g>
<!-- Node302&#45;&gt;Node303 -->
<g id="edge2" class="edge"><title>Node302&#45;&gt;Node303</title>
<path fill="none" stroke="midnightblue" d="M299.69,-67C308.137,-67 316.593,-67 324.654,-67"/>
<polygon fill="midnightblue" stroke="midnightblue" points="299.419,-63.5001 289.419,-67 299.419,-70.5001 299.419,-63.5001"/>
</g>
<!-- Node304 -->
<g id="node4" class="node"><title>Node304</title>
<g id="a_node4"><a xlink:href="../../dd/dbe/class_ro_r_frame_listener.html#a46c793a3229156a678a3829a6fe59be6" target="_top" xlink:title="RoRFrameListener::Update\lForceFeedback">
<polygon fill="white" stroke="black" points="468,-74 468,-104 602,-104 602,-74 468,-74"/>
<text text-anchor="start" x="476" y="-92" font-family="Helvetica,sans-Serif" font-size="10.00">RoRFrameListener::Update</text>
<text text-anchor="middle" x="535" y="-81" font-family="Helvetica,sans-Serif" font-size="10.00">ForceFeedback</text>
</a>
</g>
</g>
<!-- Node303&#45;&gt;Node304 -->
<g id="edge3" class="edge"><title>Node303&#45;&gt;Node304</title>
<path fill="none" stroke="midnightblue" d="M442.342,-75.9483C450.744,-77.1447 459.381,-78.3747 467.838,-79.5789"/>
<polygon fill="midnightblue" stroke="midnightblue" points="442.632,-72.4544 432.238,-74.5096 441.645,-79.3845 442.632,-72.4544"/>
</g>
<!-- Node306 -->
<g id="node6" class="node"><title>Node306</title>
<g id="a_node6"><a xlink:href="../../df/df9/class_beam.html#ab0cbc6c4e3822fc5786af2c8036f7efb" target="_top" xlink:title="Beam::LoadTruck">
<polygon fill="white" stroke="black" points="488.5,-35.5 488.5,-54.5 581.5,-54.5 581.5,-35.5 488.5,-35.5"/>
<text text-anchor="middle" x="535" y="-42.5" font-family="Helvetica,sans-Serif" font-size="10.00">Beam::LoadTruck</text>
</a>
</g>
</g>
<!-- Node303&#45;&gt;Node306 -->
<g id="edge5" class="edge"><title>Node303&#45;&gt;Node306</title>
<path fill="none" stroke="midnightblue" d="M442.257,-58.0637C457.721,-55.8617 473.989,-53.5453 488.46,-51.4846"/>
<polygon fill="midnightblue" stroke="midnightblue" points="441.645,-54.6155 432.238,-59.4904 442.632,-61.5456 441.645,-54.6155"/>
</g>
<!-- Node305 -->
<g id="node5" class="node"><title>Node305</title>
<g id="a_node5"><a xlink:href="../../dd/dbe/class_ro_r_frame_listener.html#acdda0026f9324c3b7f48568624e07115" target="_top" xlink:title="RoRFrameListener::frameStarted">
<polygon fill="white" stroke="black" points="638,-79.5 638,-98.5 797,-98.5 797,-79.5 638,-79.5"/>
<text text-anchor="middle" x="717.5" y="-86.5" font-family="Helvetica,sans-Serif" font-size="10.00">RoRFrameListener::frameStarted</text>
</a>
</g>
</g>
<!-- Node304&#45;&gt;Node305 -->
<g id="edge4" class="edge"><title>Node304&#45;&gt;Node305</title>
<path fill="none" stroke="midnightblue" d="M612.343,-89C620.753,-89 629.328,-89 637.767,-89"/>
<polygon fill="midnightblue" stroke="midnightblue" points="612.187,-85.5001 602.187,-89 612.187,-92.5001 612.187,-85.5001"/>
</g>
<!-- Node307 -->
<g id="node7" class="node"><title>Node307</title>
<g id="a_node7"><a xlink:href="../../df/df9/class_beam.html#a0d55b25fa0d1623305f3ac51694cbd42" target="_top" xlink:title="Beam::Beam">
<polygon fill="white" stroke="black" points="680.5,-38.5 680.5,-57.5 754.5,-57.5 754.5,-38.5 680.5,-38.5"/>
<text text-anchor="middle" x="717.5" y="-45.5" font-family="Helvetica,sans-Serif" font-size="10.00">Beam::Beam</text>
</a>
</g>
</g>
<!-- Node306&#45;&gt;Node307 -->
<g id="edge6" class="edge"><title>Node306&#45;&gt;Node307</title>
<path fill="none" stroke="midnightblue" d="M591.891,-45.9289C620.712,-46.408 655.029,-46.9783 680.346,-47.3991"/>
<polygon fill="midnightblue" stroke="midnightblue" points="591.605,-42.4238 581.548,-45.757 591.488,-49.4228 591.605,-42.4238"/>
</g>
<!-- Node308 -->
<g id="node8" class="node"><title>Node308</title>
<g id="a_node8"><a xlink:href="../../df/df9/class_beam.html#a3176be8102041493ae018fd5d66607dd" target="_top" xlink:title="Beam::getVelocity">
<polygon fill="white" stroke="black" points="669,-0.5 669,-19.5 766,-19.5 766,-0.5 669,-0.5"/>
<text text-anchor="middle" x="717.5" y="-7.5" font-family="Helvetica,sans-Serif" font-size="10.00">Beam::getVelocity</text>
</a>
</g>
</g>
<!-- Node306&#45;&gt;Node308 -->
<g id="edge7" class="edge"><title>Node306&#45;&gt;Node308</title>
<path fill="none" stroke="midnightblue" d="M591.504,-34.2374C616.215,-29.4458 645.028,-23.8589 668.758,-19.2574"/>
<polygon fill="midnightblue" stroke="midnightblue" points="590.699,-30.8283 581.548,-36.168 592.031,-37.7003 590.699,-30.8283"/>
</g>
</g>
</svg>
        <g id="navigator" transform="translate(0 0)" fill="#404254">
                <rect fill="#f2f5e9" fill-opacity="0.5" stroke="#606060" stroke-width=".5" x="0" y="0" width="60" height="60"/>
                <use id="zoomplus" xlink:href="#zoomPlus" x="17" y="9" onmousedown="handleZoom(evt,'in')"/>
                <use id="zoomminus" xlink:href="#zoomMin" x="42" y="9" onmousedown="handleZoom(evt,'out')"/>
                <use id="reset" xlink:href="#resetDef" x="30" y="36" onmousedown="handleReset()"/>
                <g id="arrowUp" xlink:href="#dirArrow" transform="translate(30 24)" onmousedown="handlePan(0,-1)">
                  <use xlink:href="#rim" fill="#404040">
                        <set attributeName="fill" to="#808080" begin="arrowUp.mouseover" end="arrowUp.mouseout"/>
                  </use>
                  <path fill="none" stroke="white" stroke-width="1.5" d="M0,-3.0v7 M-2.5,-0.5L0,-3.0L2.5,-0.5"/>
                </g>
                <g id="arrowRight" xlink:href="#dirArrow" transform="rotate(90) translate(36 -43)" onmousedown="handlePan(1,0)">
                  <use xlink:href="#rim" fill="#404040">
                        <set attributeName="fill" to="#808080" begin="arrowRight.mouseover" end="arrowRight.mouseout"/>
                  </use>
                  <path fill="none" stroke="white" stroke-width="1.5" d="M0,-3.0v7 M-2.5,-0.5L0,-3.0L2.5,-0.5"/>
                </g>
                <g id="arrowDown" xlink:href="#dirArrow" transform="rotate(180) translate(-30 -48)" onmousedown="handlePan(0,1)">
                  <use xlink:href="#rim" fill="#404040">
                        <set attributeName="fill" to="#808080" begin="arrowDown.mouseover" end="arrowDown.mouseout"/>
                  </use>
                  <path fill="none" stroke="white" stroke-width="1.5" d="M0,-3.0v7 M-2.5,-0.5L0,-3.0L2.5,-0.5"/>
                </g>
                <g id="arrowLeft" xlink:href="#dirArrow" transform="rotate(270) translate(-36 17)" onmousedown="handlePan(-1,0)">
                  <use xlink:href="#rim" fill="#404040">
                        <set attributeName="fill" to="#808080" begin="arrowLeft.mouseover" end="arrowLeft.mouseout"/>
                  </use>
                  <path fill="none" stroke="white" stroke-width="1.5" d="M0,-3.0v7 M-2.5,-0.5L0,-3.0L2.5,-0.5"/>
                </g>
        </g>
        <svg viewBox="0 0 15 15" width="100%" height="30px" preserveAspectRatio="xMaxYMin meet">
         <g id="arrow_out" transform="scale(0.3 0.3)">
          <a xlink:href="class_beam_engine_a3b4446041b1fa3a222ae52a1f2f41f02_icgraph_org.svg" target="_base">
           <rect id="button" ry="5" rx="5" y="6" x="6" height="38" width="38"
                fill="#f2f5e9" fill-opacity="0.5" stroke="#606060" stroke-width="1.0"/>
           <path id="arrow"
             d="M 11.500037,31.436501 C 11.940474,20.09759 22.043105,11.32322 32.158766,21.979434 L 37.068811,17.246167 C 37.068811,17.246167 37.088388,32 37.088388,32 L 22.160133,31.978069 C 22.160133,31.978069 26.997745,27.140456 26.997745,27.140456 C 18.528582,18.264221 13.291696,25.230495 11.500037,31.436501 z"
             style="fill:#404040;"/>
          </a>
         </g>
        </svg>
</svg>
