<?xml version="1.0" encoding="UTF-8" standalone="no"?>
<!DOCTYPE svg PUBLIC "-//W3C//DTD SVG 1.1//EN"
 "http://www.w3.org/Graphics/SVG/1.1/DTD/svg11.dtd">
<!-- Generated by graphviz version 2.38.0 (20140413.2041)
 -->
<!-- Title: BeamEngine::getIdleMixture Pages: 1 -->
<svg width="713pt" height="116pt"
 viewBox="0.00 0.00 713.00 115.50" xmlns="http://www.w3.org/2000/svg" xmlns:xlink="http://www.w3.org/1999/xlink">
<g id="graph0" class="graph" transform="scale(1 1) rotate(0) translate(4 111.5)">
<title>BeamEngine::getIdleMixture</title>
<polygon fill="white" stroke="none" points="-4,4 -4,-111.5 709,-111.5 709,4 -4,4"/>
<!-- Node119 -->
<g id="node1" class="node"><title>Node119</title>
<polygon fill="#bfbfbf" stroke="black" points="0,-29 0,-48 139,-48 139,-29 0,-29"/>
<text text-anchor="middle" x="69.5" y="-36" font-family="Helvetica,sans-Serif" font-size="10.00">BeamEngine::getIdleMixture</text>
</g>
<!-- Node120 -->
<g id="node2" class="node"><title>Node120</title>
<g id="a_node2"><a xlink:href="../../d6/de4/class_beam_engine.html#af63778678531a54f46691842a1015e72" target="_top" xlink:title="BeamEngine::update">
<polygon fill="white" stroke="black" points="198.5,-50 198.5,-69 305.5,-69 305.5,-50 198.5,-50"/>
<text text-anchor="middle" x="252" y="-57" font-family="Helvetica,sans-Serif" font-size="10.00">BeamEngine::update</text>
</a>
</g>
</g>
<!-- Node119&#45;&gt;Node120 -->
<g id="edge1" class="edge"><title>Node119&#45;&gt;Node120</title>
<path fill="none" stroke="midnightblue" d="M149.481,-47.689C166.046,-49.6162 183.126,-51.6033 198.44,-53.385"/>
<polygon fill="midnightblue" stroke="midnightblue" points="149.592,-44.1783 139.254,-46.4991 148.783,-51.1314 149.592,-44.1783"/>
</g>
<!-- Node124 -->
<g id="node6" class="node"><title>Node124</title>
<g id="a_node6"><a xlink:href="../../d6/de4/class_beam_engine.html#abc2a45e43ee553e818feb2f505d6f309" target="_top" xlink:title="BeamEngine::getBrakingTorque">
<polygon fill="white" stroke="black" points="175,-9 175,-28 329,-28 329,-9 175,-9"/>
<text text-anchor="middle" x="252" y="-16" font-family="Helvetica,sans-Serif" font-size="10.00">BeamEngine::getBrakingTorque</text>
</a>
</g>
</g>
<!-- Node119&#45;&gt;Node124 -->
<g id="edge5" class="edge"><title>Node119&#45;&gt;Node124</title>
<path fill="none" stroke="midnightblue" d="M149.47,-29.7499C157.915,-28.8141 166.495,-27.8634 174.906,-26.9314"/>
<polygon fill="midnightblue" stroke="midnightblue" points="148.808,-26.3017 139.254,-30.8818 149.579,-33.2591 148.808,-26.3017"/>
</g>
<!-- Node121 -->
<g id="node3" class="node"><title>Node121</title>
<g id="a_node3"><a xlink:href="../../d6/de4/class_beam_engine.html#aeb6647883d8e1f5d10be1e07a2054f41" target="_top" xlink:title="BeamEngine::getTorqueCurve">
<polygon fill="white" stroke="black" points="365,-88 365,-107 510,-107 510,-88 365,-88"/>
<text text-anchor="middle" x="437.5" y="-95" font-family="Helvetica,sans-Serif" font-size="10.00">BeamEngine::getTorqueCurve</text>
</a>
</g>
</g>
<!-- Node120&#45;&gt;Node121 -->
<g id="edge2" class="edge"><title>Node120&#45;&gt;Node121</title>
<path fill="none" stroke="midnightblue" d="M309.407,-71.181C335.43,-76.5699 365.93,-82.8861 390.528,-87.9799"/>
<polygon fill="midnightblue" stroke="midnightblue" points="309.807,-67.6896 299.305,-69.089 308.387,-74.5442 309.807,-67.6896"/>
</g>
<!-- Node122 -->
<g id="node4" class="node"><title>Node122</title>
<g id="a_node4"><a xlink:href="../../d5/d53/class_ro_r_1_1_beam_factory.html#a87e6c050f0af4ef2e39976749ac9762c" target="_top" xlink:title="RoR::BeamFactory::update">
<polygon fill="white" stroke="black" points="370,-50 370,-69 505,-69 505,-50 370,-50"/>
<text text-anchor="middle" x="437.5" y="-57" font-family="Helvetica,sans-Serif" font-size="10.00">RoR::BeamFactory::update</text>
</a>
</g>
</g>
<!-- Node120&#45;&gt;Node122 -->
<g id="edge3" class="edge"><title>Node120&#45;&gt;Node122</title>
<path fill="none" stroke="midnightblue" d="M315.661,-59.5C333.121,-59.5 352.148,-59.5 369.83,-59.5"/>
<polygon fill="midnightblue" stroke="midnightblue" points="315.584,-56.0001 305.584,-59.5 315.584,-63.0001 315.584,-56.0001"/>
</g>
<!-- Node123 -->
<g id="node5" class="node"><title>Node123</title>
<g id="a_node5"><a xlink:href="../../dd/dbe/class_ro_r_frame_listener.html#acdda0026f9324c3b7f48568624e07115" target="_top" xlink:title="RoRFrameListener::frameStarted">
<polygon fill="white" stroke="black" points="546,-50 546,-69 705,-69 705,-50 546,-50"/>
<text text-anchor="middle" x="625.5" y="-57" font-family="Helvetica,sans-Serif" font-size="10.00">RoRFrameListener::frameStarted</text>
</a>
</g>
</g>
<!-- Node122&#45;&gt;Node123 -->
<g id="edge4" class="edge"><title>Node122&#45;&gt;Node123</title>
<path fill="none" stroke="midnightblue" d="M515.181,-59.5C525.345,-59.5 535.777,-59.5 545.972,-59.5"/>
<polygon fill="midnightblue" stroke="midnightblue" points="515.125,-56.0001 505.125,-59.5 515.125,-63.0001 515.125,-56.0001"/>
</g>
<!-- Node125 -->
<g id="node7" class="node"><title>Node125</title>
<g id="a_node7"><a xlink:href="../../da/dba/struct_ro_r_1_1_land_vehicle_simulation.html#a20e0e3bfb3deaa213ffb06d283ae81c8" target="_top" xlink:title="RoR::LandVehicleSimulation\l::UpdateCruiseControl">
<polygon fill="white" stroke="black" points="367.5,-0.5 367.5,-30.5 507.5,-30.5 507.5,-0.5 367.5,-0.5"/>
<text text-anchor="start" x="375.5" y="-18.5" font-family="Helvetica,sans-Serif" font-size="10.00">RoR::LandVehicleSimulation</text>
<text text-anchor="middle" x="437.5" y="-7.5" font-family="Helvetica,sans-Serif" font-size="10.00">::UpdateCruiseControl</text>
</a>
</g>
</g>
<!-- Node124&#45;&gt;Node125 -->
<g id="edge6" class="edge"><title>Node124&#45;&gt;Node125</title>
<path fill="none" stroke="midnightblue" d="M339.337,-17.0885C348.699,-16.9354 358.136,-16.7812 367.257,-16.632"/>
<polygon fill="midnightblue" stroke="midnightblue" points="339.168,-13.5907 329.226,-17.2538 339.282,-20.5898 339.168,-13.5907"/>
</g>
<!-- Node126 -->
<g id="node8" class="node"><title>Node126</title>
<g id="a_node8"><a xlink:href="../../da/dba/struct_ro_r_1_1_land_vehicle_simulation.html#a830e19b0460db3df601abe83096f78d7" target="_top" xlink:title="RoR::LandVehicleSimulation\l::UpdateVehicle">
<polygon fill="white" stroke="black" points="555.5,-0.5 555.5,-30.5 695.5,-30.5 695.5,-0.5 555.5,-0.5"/>
<text text-anchor="start" x="563.5" y="-18.5" font-family="Helvetica,sans-Serif" font-size="10.00">RoR::LandVehicleSimulation</text>
<text text-anchor="middle" x="625.5" y="-7.5" font-family="Helvetica,sans-Serif" font-size="10.00">::UpdateVehicle</text>
</a>
</g>
</g>
<!-- Node125&#45;&gt;Node126 -->
<g id="edge7" class="edge"><title>Node125&#45;&gt;Node126</title>
<path fill="none" stroke="midnightblue" d="M518.111,-15.5C530.551,-15.5 543.316,-15.5 555.492,-15.5"/>
<polygon fill="midnightblue" stroke="midnightblue" points="517.76,-12.0001 507.76,-15.5 517.76,-19.0001 517.76,-12.0001"/>
</g>
</g>
</svg>
