<?xml version="1.0" encoding="UTF-8" standalone="no"?>
<!DOCTYPE svg PUBLIC "-//W3C//DTD SVG 1.1//EN"
 "http://www.w3.org/Graphics/SVG/1.1/DTD/svg11.dtd">
<!-- Generated by graphviz version 2.38.0 (20140413.2041)
 -->
<!-- Title: fast_normalise Pages: 1 -->
<!--zoomable 307 -->
<svg id="main" version="1.1" xmlns="http://www.w3.org/2000/svg" xmlns:xlink="http://www.w3.org/1999/xlink" xml:space="preserve" onload="init(evt)">
<style type="text/css"><![CDATA[
.edge:hover path { stroke: red; }
.edge:hover polygon { stroke: red; fill: red; }
]]></style>
<script type="text/javascript"><![CDATA[
var edges = document.getElementsByTagName('g');
if (edges && edges.length) {
  for (var i=0;i<edges.length;i++) {
    if (edges[i].id.substr(0,4)=='edge') {
      edges[i].setAttribute('class','edge');
    }
  }
}
]]></script>
        <defs>
                <circle id="rim" cx="0" cy="0" r="7"/>
                <circle id="rim2" cx="0" cy="0" r="3.5"/>
                <g id="zoomPlus">
                        <use xlink:href="#rim" fill="#404040">
                                <set attributeName="fill" to="#808080" begin="zoomplus.mouseover" end="zoomplus.mouseout"/>
                        </use>
                        <path d="M-4,0h8M0,-4v8" fill="none" stroke="white" stroke-width="1.5" pointer-events="none"/>
                </g>
                <g id="zoomMin">
                        <use xlink:href="#rim" fill="#404040">
                                <set attributeName="fill" to="#808080" begin="zoomminus.mouseover" end="zoomminus.mouseout"/>
                        </use>
                        <path d="M-4,0h8" fill="none" stroke="white" stroke-width="1.5" pointer-events="none"/>
                </g>
                <g id="dirArrow">
                        <path fill="none" stroke="white" stroke-width="1.5" d="M0,-3.0v7 M-2.5,-0.5L0,-3.0L2.5,-0.5"/>
                </g>
               <g id="resetDef">
                       <use xlink:href="#rim2" fill="#404040">
                               <set attributeName="fill" to="#808080" begin="reset.mouseover" end="reset.mouseout"/>
                       </use>
               </g>
        </defs>

<script type="text/javascript">
var viewWidth = 1021;
var viewHeight = 307;
var sectionId = 'dynsection-13';
</script>
<script xlink:href="../../svgpan.js"/>
<svg id="graph" class="graph">
<g id="viewport">
<title>fast_normalise</title>
<polygon fill="white" stroke="none" points="-4,4 -4,-302.5 1017,-302.5 1017,4 -4,4"/>
<!-- Node107 -->
<g id="node1" class="node"><title>Node107</title>
<polygon fill="#bfbfbf" stroke="black" points="0,-95.5 0,-114.5 80,-114.5 80,-95.5 0,-95.5"/>
<text text-anchor="middle" x="40" y="-102.5" font-family="Helvetica,sans-Serif" font-size="10.00">fast_normalise</text>
</g>
<!-- Node108 -->
<g id="node2" class="node"><title>Node108</title>
<g id="a_node2"><a xlink:href="../../df/df9/class_beam.html#a006ef9ec922c3ba72b4e53288779a548" target="_top" xlink:title="Beam::updateVisual">
<polygon fill="white" stroke="black" points="143,-152.5 143,-171.5 247,-171.5 247,-152.5 143,-152.5"/>
<text text-anchor="middle" x="195" y="-159.5" font-family="Helvetica,sans-Serif" font-size="10.00">Beam::updateVisual</text>
</a>
</g>
</g>
<!-- Node107&#45;&gt;Node108 -->
<g id="edge1" class="edge"><title>Node107&#45;&gt;Node108</title>
<path fill="none" stroke="midnightblue" d="M66.3305,-119.676C80.566,-127.449 98.868,-136.669 116,-143 125.936,-146.671 136.847,-149.838 147.278,-152.475"/>
<polygon fill="midnightblue" stroke="midnightblue" points="67.6278,-116.393 57.1892,-114.58 64.219,-122.507 67.6278,-116.393"/>
</g>
<!-- Node120 -->
<g id="node14" class="node"><title>Node120</title>
<g id="a_node14"><a xlink:href="../../df/df9/class_beam.html#a6c440445640a12a8bf52fa0127365708" target="_top" xlink:title="Beam::calcForcesEulerCompute">
<polygon fill="white" stroke="black" points="116,-223.5 116,-242.5 274,-242.5 274,-223.5 116,-223.5"/>
<text text-anchor="middle" x="195" y="-230.5" font-family="Helvetica,sans-Serif" font-size="10.00">Beam::calcForcesEulerCompute</text>
</a>
</g>
</g>
<!-- Node107&#45;&gt;Node120 -->
<g id="edge19" class="edge"><title>Node107&#45;&gt;Node120</title>
<path fill="none" stroke="midnightblue" d="M55.9903,-122.091C70.523,-138.184 93.5988,-162.511 116,-181 135.958,-197.472 161.213,-213.542 177.487,-223.355"/>
<polygon fill="midnightblue" stroke="midnightblue" points="58.4874,-119.633 49.2182,-114.501 53.2642,-124.293 58.4874,-119.633"/>
</g>
<!-- Node123 -->
<g id="node17" class="node"><title>Node123</title>
<g id="a_node17"><a xlink:href="../../d4/d49/class_flex_body.html#a80124e902b1dae109e9b4fdccd4fc59b" target="_top" xlink:title="FlexBody::FlexBody">
<polygon fill="white" stroke="black" points="142.5,-114.5 142.5,-133.5 247.5,-133.5 247.5,-114.5 142.5,-114.5"/>
<text text-anchor="middle" x="195" y="-121.5" font-family="Helvetica,sans-Serif" font-size="10.00">FlexBody::FlexBody</text>
</a>
</g>
</g>
<!-- Node107&#45;&gt;Node123 -->
<g id="edge24" class="edge"><title>Node107&#45;&gt;Node123</title>
<path fill="none" stroke="midnightblue" d="M90.1007,-111.097C106.787,-113.17 125.477,-115.491 142.356,-117.587"/>
<polygon fill="midnightblue" stroke="midnightblue" points="90.3594,-107.603 80.0042,-109.844 89.4967,-114.549 90.3594,-107.603"/>
</g>
<!-- Node124 -->
<g id="node18" class="node"><title>Node124</title>
<g id="a_node18"><a xlink:href="../../d4/d49/class_flex_body.html#aebd1dda9199b5d65f493c568eb617677" target="_top" xlink:title="FlexBody::flexitPrepare">
<polygon fill="white" stroke="black" points="136,-76.5 136,-95.5 254,-95.5 254,-76.5 136,-76.5"/>
<text text-anchor="middle" x="195" y="-83.5" font-family="Helvetica,sans-Serif" font-size="10.00">FlexBody::flexitPrepare</text>
</a>
</g>
</g>
<!-- Node107&#45;&gt;Node124 -->
<g id="edge25" class="edge"><title>Node107&#45;&gt;Node124</title>
<path fill="none" stroke="midnightblue" d="M90.3039,-98.8773C104.865,-97.069 120.938,-95.0731 135.994,-93.2034"/>
<polygon fill="midnightblue" stroke="midnightblue" points="89.4967,-95.4506 80.0042,-100.156 90.3594,-102.397 89.4967,-95.4506"/>
</g>
<!-- Node125 -->
<g id="node19" class="node"><title>Node125</title>
<g id="a_node19"><a xlink:href="../../d4/d49/class_flex_body.html#aaa4c925559229c765234c39f990e943e" target="_top" xlink:title="FlexBody::flexitCompute">
<polygon fill="white" stroke="black" points="133.5,-38.5 133.5,-57.5 256.5,-57.5 256.5,-38.5 133.5,-38.5"/>
<text text-anchor="middle" x="195" y="-45.5" font-family="Helvetica,sans-Serif" font-size="10.00">FlexBody::flexitCompute</text>
</a>
</g>
</g>
<!-- Node107&#45;&gt;Node125 -->
<g id="edge26" class="edge"><title>Node107&#45;&gt;Node125</title>
<path fill="none" stroke="midnightblue" d="M66.3305,-90.3235C80.566,-82.5507 98.868,-73.3305 116,-67 125.936,-63.3285 136.847,-60.1624 147.278,-57.5252"/>
<polygon fill="midnightblue" stroke="midnightblue" points="64.219,-87.4935 57.1892,-95.4201 67.6278,-93.6074 64.219,-87.4935"/>
</g>
<!-- Node126 -->
<g id="node20" class="node"><title>Node126</title>
<g id="a_node20"><a xlink:href="../../de/dec/_slide_node_8h.html#a1374c7f675026994ece6f0dfef2009eb" target="_top" xlink:title="nearestPointOnLine">
<polygon fill="white" stroke="black" points="144,-0.5 144,-19.5 246,-19.5 246,-0.5 144,-0.5"/>
<text text-anchor="middle" x="195" y="-7.5" font-family="Helvetica,sans-Serif" font-size="10.00">nearestPointOnLine</text>
</a>
</g>
</g>
<!-- Node107&#45;&gt;Node126 -->
<g id="edge27" class="edge"><title>Node107&#45;&gt;Node126</title>
<path fill="none" stroke="midnightblue" d="M53.8199,-87.152C67.322,-69.6837 90.1791,-43.6294 116,-29 124.489,-24.1906 134.167,-20.5907 143.75,-17.8986"/>
<polygon fill="midnightblue" stroke="midnightblue" points="50.8376,-85.2956 47.6458,-95.3982 56.441,-89.491 50.8376,-85.2956"/>
</g>
<!-- Node109 -->
<g id="node3" class="node"><title>Node109</title>
<g id="a_node3"><a xlink:href="../../dd/dbe/class_ro_r_frame_listener.html#abc123f9d1e56e13a72e5f80fdaa5a17e" target="_top" xlink:title="RoRFrameListener::Finalize\lTruckSpawning">
<polygon fill="white" stroke="black" points="497,-224 497,-254 634,-254 634,-224 497,-224"/>
<text text-anchor="start" x="505" y="-242" font-family="Helvetica,sans-Serif" font-size="10.00">RoRFrameListener::Finalize</text>
<text text-anchor="middle" x="565.5" y="-231" font-family="Helvetica,sans-Serif" font-size="10.00">TruckSpawning</text>
</a>
</g>
</g>
<!-- Node108&#45;&gt;Node109 -->
<g id="edge2" class="edge"><title>Node108&#45;&gt;Node109</title>
<path fill="none" stroke="midnightblue" d="M219.478,-177.132C241.796,-190.675 276.794,-209.773 310,-219 371.705,-236.146 444.836,-240.308 496.835,-240.681"/>
<polygon fill="midnightblue" stroke="midnightblue" points="221.075,-174.005 210.731,-171.713 217.389,-179.955 221.075,-174.005"/>
</g>
<!-- Node112 -->
<g id="node6" class="node"><title>Node112</title>
<g id="a_node6"><a xlink:href="../../df/df9/class_beam.html#a0d55b25fa0d1623305f3ac51694cbd42" target="_top" xlink:title="Beam::Beam">
<polygon fill="white" stroke="black" points="714,-92.5 714,-111.5 788,-111.5 788,-92.5 714,-92.5"/>
<text text-anchor="middle" x="751" y="-99.5" font-family="Helvetica,sans-Serif" font-size="10.00">Beam::Beam</text>
</a>
</g>
</g>
<!-- Node108&#45;&gt;Node112 -->
<g id="edge5" class="edge"><title>Node108&#45;&gt;Node112</title>
<path fill="none" stroke="midnightblue" d="M255.423,-149.577C261.785,-147.643 268.087,-145.456 274,-143 291.316,-135.806 292.064,-126.467 310,-121 454.265,-77.0284 637.436,-89.5378 713.91,-97.5952"/>
<polygon fill="midnightblue" stroke="midnightblue" points="254.091,-146.317 245.425,-152.413 256.001,-153.052 254.091,-146.317"/>
</g>
<!-- Node113 -->
<g id="node7" class="node"><title>Node113</title>
<g id="a_node7"><a xlink:href="../../df/df9/class_beam.html#aabe018af621de69910d145fe2967ad11" target="_top" xlink:title="Beam::IsNodeIdValid">
<polygon fill="white" stroke="black" points="325,-54.5 325,-73.5 432,-73.5 432,-54.5 325,-54.5"/>
<text text-anchor="middle" x="378.5" y="-61.5" font-family="Helvetica,sans-Serif" font-size="10.00">Beam::IsNodeIdValid</text>
</a>
</g>
</g>
<!-- Node108&#45;&gt;Node113 -->
<g id="edge6" class="edge"><title>Node108&#45;&gt;Node113</title>
<path fill="none" stroke="midnightblue" d="M256.804,-152.078C262.907,-149.675 268.771,-146.694 274,-143 297.861,-126.142 287.036,-106.06 310,-88 317.919,-81.7723 327.584,-77.0828 337.098,-73.5817"/>
<polygon fill="midnightblue" stroke="midnightblue" points="255.407,-148.857 247.074,-155.4 257.669,-155.481 255.407,-148.857"/>
</g>
<!-- Node117 -->
<g id="node11" class="node"><title>Node117</title>
<g id="a_node11"><a xlink:href="../../d5/d53/class_ro_r_1_1_beam_factory.html#a508cb7a834236ed7786f780bbe6f84f6" target="_top" xlink:title="RoR::BeamFactory::repair\lTruck">
<polygon fill="white" stroke="black" points="313.5,-180 313.5,-210 443.5,-210 443.5,-180 313.5,-180"/>
<text text-anchor="start" x="321.5" y="-198" font-family="Helvetica,sans-Serif" font-size="10.00">RoR::BeamFactory::repair</text>
<text text-anchor="middle" x="378.5" y="-187" font-family="Helvetica,sans-Serif" font-size="10.00">Truck</text>
</a>
</g>
</g>
<!-- Node108&#45;&gt;Node117 -->
<g id="edge12" class="edge"><title>Node108&#45;&gt;Node117</title>
<path fill="none" stroke="midnightblue" d="M256.9,-173.073C275.017,-176.367 294.919,-179.985 313.242,-183.317"/>
<polygon fill="midnightblue" stroke="midnightblue" points="257.506,-169.626 247.041,-171.28 256.253,-176.513 257.506,-169.626"/>
</g>
<!-- Node119 -->
<g id="node13" class="node"><title>Node119</title>
<g id="a_node13"><a xlink:href="../../d5/d53/class_ro_r_1_1_beam_factory.html#aa51137347e36bdae6315a62534ddc9f1" target="_top" xlink:title="RoR::BeamFactory::update\lVisual">
<polygon fill="white" stroke="black" points="311,-131 311,-161 446,-161 446,-131 311,-131"/>
<text text-anchor="start" x="319" y="-149" font-family="Helvetica,sans-Serif" font-size="10.00">RoR::BeamFactory::update</text>
<text text-anchor="middle" x="378.5" y="-138" font-family="Helvetica,sans-Serif" font-size="10.00">Visual</text>
</a>
</g>
</g>
<!-- Node108&#45;&gt;Node119 -->
<g id="edge16" class="edge"><title>Node108&#45;&gt;Node119</title>
<path fill="none" stroke="midnightblue" d="M257.026,-156.62C274.342,-155.094 293.28,-153.424 310.908,-151.87"/>
<polygon fill="midnightblue" stroke="midnightblue" points="256.695,-153.136 247.041,-157.501 257.31,-160.109 256.695,-153.136"/>
</g>
<!-- Node110 -->
<g id="node4" class="node"><title>Node110</title>
<g id="a_node4"><a xlink:href="../../dd/dbe/class_ro_r_frame_listener.html#afec2a0f00ed552c21d22aae76329bf38" target="_top" xlink:title="RoRFrameListener::Update\lInputEvents">
<polygon fill="white" stroke="black" points="684,-216 684,-246 818,-246 818,-216 684,-216"/>
<text text-anchor="start" x="692" y="-234" font-family="Helvetica,sans-Serif" font-size="10.00">RoRFrameListener::Update</text>
<text text-anchor="middle" x="751" y="-223" font-family="Helvetica,sans-Serif" font-size="10.00">InputEvents</text>
</a>
</g>
</g>
<!-- Node109&#45;&gt;Node110 -->
<g id="edge3" class="edge"><title>Node109&#45;&gt;Node110</title>
<path fill="none" stroke="midnightblue" d="M644.064,-235.618C657.292,-235.042 670.922,-234.448 683.82,-233.885"/>
<polygon fill="midnightblue" stroke="midnightblue" points="643.885,-232.123 634.047,-236.055 644.19,-239.116 643.885,-232.123"/>
</g>
<!-- Node111 -->
<g id="node5" class="node"><title>Node111</title>
<g id="a_node5"><a xlink:href="../../dd/dbe/class_ro_r_frame_listener.html#acdda0026f9324c3b7f48568624e07115" target="_top" xlink:title="RoRFrameListener::frameStarted">
<polygon fill="white" stroke="black" points="854,-177.5 854,-196.5 1013,-196.5 1013,-177.5 854,-177.5"/>
<text text-anchor="middle" x="933.5" y="-184.5" font-family="Helvetica,sans-Serif" font-size="10.00">RoRFrameListener::frameStarted</text>
</a>
</g>
</g>
<!-- Node110&#45;&gt;Node111 -->
<g id="edge4" class="edge"><title>Node110&#45;&gt;Node111</title>
<path fill="none" stroke="midnightblue" d="M823.365,-213.604C847.257,-207.779 872.998,-201.505 893.477,-196.512"/>
<polygon fill="midnightblue" stroke="midnightblue" points="822.5,-210.212 813.613,-215.981 824.157,-217.013 822.5,-210.212"/>
</g>
<!-- Node114 -->
<g id="node8" class="node"><title>Node114</title>
<g id="a_node8"><a xlink:href="../../dd/dbe/class_ro_r_frame_listener.html#a46c793a3229156a678a3829a6fe59be6" target="_top" xlink:title="RoRFrameListener::Update\lForceFeedback">
<polygon fill="white" stroke="black" points="684,-5 684,-35 818,-35 818,-5 684,-5"/>
<text text-anchor="start" x="692" y="-23" font-family="Helvetica,sans-Serif" font-size="10.00">RoRFrameListener::Update</text>
<text text-anchor="middle" x="751" y="-12" font-family="Helvetica,sans-Serif" font-size="10.00">ForceFeedback</text>
</a>
</g>
</g>
<!-- Node113&#45;&gt;Node114 -->
<g id="edge7" class="edge"><title>Node113&#45;&gt;Node114</title>
<path fill="none" stroke="midnightblue" d="M436.685,-52.5711C451.71,-49.8239 467.929,-47.0848 483,-45 551.254,-35.5584 629.829,-28.678 683.978,-24.553"/>
<polygon fill="midnightblue" stroke="midnightblue" points="435.694,-49.1954 426.503,-54.4662 436.974,-56.0772 435.694,-49.1954"/>
</g>
<!-- Node115 -->
<g id="node9" class="node"><title>Node115</title>
<g id="a_node9"><a xlink:href="../../df/df9/class_beam.html#ab0cbc6c4e3822fc5786af2c8036f7efb" target="_top" xlink:title="Beam::LoadTruck">
<polygon fill="white" stroke="black" points="519,-54.5 519,-73.5 612,-73.5 612,-54.5 519,-54.5"/>
<text text-anchor="middle" x="565.5" y="-61.5" font-family="Helvetica,sans-Serif" font-size="10.00">Beam::LoadTruck</text>
</a>
</g>
</g>
<!-- Node113&#45;&gt;Node115 -->
<g id="edge9" class="edge"><title>Node113&#45;&gt;Node115</title>
<path fill="none" stroke="midnightblue" d="M442.185,-64C467.287,-64 495.669,-64 518.77,-64"/>
<polygon fill="midnightblue" stroke="midnightblue" points="442.019,-60.5001 432.019,-64 442.019,-67.5001 442.019,-60.5001"/>
</g>
<!-- Node114&#45;&gt;Node111 -->
<g id="edge8" class="edge"><title>Node114&#45;&gt;Node111</title>
<path fill="none" stroke="midnightblue" d="M809.686,-39.6577C812.579,-41.3157 815.371,-43.0945 818,-45 870.823,-83.2838 912.775,-151.903 927.148,-177.247"/>
<polygon fill="midnightblue" stroke="midnightblue" points="811.255,-36.529 800.766,-35.0402 808.037,-42.7455 811.255,-36.529"/>
</g>
<!-- Node115&#45;&gt;Node112 -->
<g id="edge10" class="edge"><title>Node115&#45;&gt;Node112</title>
<path fill="none" stroke="midnightblue" d="M622.182,-75.5309C651.978,-81.7013 687.811,-89.1216 713.945,-94.5335"/>
<polygon fill="midnightblue" stroke="midnightblue" points="622.833,-72.0916 612.331,-73.491 621.414,-78.9462 622.833,-72.0916"/>
</g>
<!-- Node116 -->
<g id="node10" class="node"><title>Node116</title>
<g id="a_node10"><a xlink:href="../../df/df9/class_beam.html#a3176be8102041493ae018fd5d66607dd" target="_top" xlink:title="Beam::getVelocity">
<polygon fill="white" stroke="black" points="702.5,-54.5 702.5,-73.5 799.5,-73.5 799.5,-54.5 702.5,-54.5"/>
<text text-anchor="middle" x="751" y="-61.5" font-family="Helvetica,sans-Serif" font-size="10.00">Beam::getVelocity</text>
</a>
</g>
</g>
<!-- Node115&#45;&gt;Node116 -->
<g id="edge11" class="edge"><title>Node115&#45;&gt;Node116</title>
<path fill="none" stroke="midnightblue" d="M622.579,-64C648.031,-64 677.821,-64 702.194,-64"/>
<polygon fill="midnightblue" stroke="midnightblue" points="622.331,-60.5001 612.331,-64 622.331,-67.5001 622.331,-60.5001"/>
</g>
<!-- Node118 -->
<g id="node12" class="node"><title>Node118</title>
<g id="a_node12"><a xlink:href="../../d5/d53/class_ro_r_1_1_beam_factory.html#a5703b053d2b40e3dae66a063ded34578" target="_top" xlink:title="RoR::BeamFactory::getSimulation\lSpeed">
<polygon fill="white" stroke="black" points="483,-175 483,-205 648,-205 648,-175 483,-175"/>
<text text-anchor="start" x="491" y="-193" font-family="Helvetica,sans-Serif" font-size="10.00">RoR::BeamFactory::getSimulation</text>
<text text-anchor="middle" x="565.5" y="-182" font-family="Helvetica,sans-Serif" font-size="10.00">Speed</text>
</a>
</g>
</g>
<!-- Node117&#45;&gt;Node118 -->
<g id="edge13" class="edge"><title>Node117&#45;&gt;Node118</title>
<path fill="none" stroke="midnightblue" d="M453.892,-192.989C463.414,-192.732 473.202,-192.468 482.831,-192.207"/>
<polygon fill="midnightblue" stroke="midnightblue" points="453.587,-189.496 443.685,-193.265 453.776,-196.494 453.587,-189.496"/>
</g>
<!-- Node118&#45;&gt;Node110 -->
<g id="edge14" class="edge"><title>Node118&#45;&gt;Node110</title>
<path fill="none" stroke="midnightblue" d="M643.879,-207.289C657.208,-210.267 670.951,-213.338 683.947,-216.242"/>
<polygon fill="midnightblue" stroke="midnightblue" points="644.309,-203.799 633.787,-205.034 642.783,-210.63 644.309,-203.799"/>
</g>
<!-- Node118&#45;&gt;Node111 -->
<g id="edge15" class="edge"><title>Node118&#45;&gt;Node111</title>
<path fill="none" stroke="midnightblue" d="M658.45,-189.246C718.675,-188.753 796.556,-188.114 853.893,-187.644"/>
<polygon fill="midnightblue" stroke="midnightblue" points="658.153,-185.749 648.182,-189.33 658.21,-192.748 658.153,-185.749"/>
</g>
<!-- Node119&#45;&gt;Node111 -->
<g id="edge17" class="edge"><title>Node119&#45;&gt;Node111</title>
<path fill="none" stroke="midnightblue" d="M456.394,-151.308C510.086,-155.046 583.422,-160.218 648,-165 717.537,-170.149 796.611,-176.286 853.714,-180.769"/>
<polygon fill="midnightblue" stroke="midnightblue" points="456.484,-147.805 446.266,-150.603 455.999,-154.789 456.484,-147.805"/>
</g>
<!-- Node119&#45;&gt;Node118 -->
<g id="edge18" class="edge"><title>Node119&#45;&gt;Node118</title>
<path fill="none" stroke="midnightblue" d="M452.562,-163.377C468.684,-167.211 485.63,-171.242 501.322,-174.974"/>
<polygon fill="midnightblue" stroke="midnightblue" points="453.188,-159.928 442.649,-161.019 451.568,-166.738 453.188,-159.928"/>
</g>
<!-- Node121 -->
<g id="node15" class="node"><title>Node121</title>
<g id="a_node15"><a xlink:href="../../d5/d53/class_ro_r_1_1_beam_factory.html#ac25b17e65074996433c472da5028fed1" target="_top" xlink:title="RoR::BeamFactory::Update\lPhysicsSimulation">
<polygon fill="white" stroke="black" points="310,-268 310,-298 447,-298 447,-268 310,-268"/>
<text text-anchor="start" x="318" y="-286" font-family="Helvetica,sans-Serif" font-size="10.00">RoR::BeamFactory::Update</text>
<text text-anchor="middle" x="378.5" y="-275" font-family="Helvetica,sans-Serif" font-size="10.00">PhysicsSimulation</text>
</a>
</g>
</g>
<!-- Node120&#45;&gt;Node121 -->
<g id="edge20" class="edge"><title>Node120&#45;&gt;Node121</title>
<path fill="none" stroke="midnightblue" d="M240.437,-245.242C265.259,-252.08 296.397,-260.658 322.718,-267.909"/>
<polygon fill="midnightblue" stroke="midnightblue" points="241.136,-241.804 230.566,-242.522 239.277,-248.553 241.136,-241.804"/>
</g>
<!-- Node121&#45;&gt;Node118 -->
<g id="edge23" class="edge"><title>Node121&#45;&gt;Node118</title>
<path fill="none" stroke="midnightblue" d="M406.373,-261.782C426.514,-246.724 455.267,-226.961 483,-214 490.082,-210.69 497.725,-207.722 505.393,-205.096"/>
<polygon fill="midnightblue" stroke="midnightblue" points="404.144,-259.08 398.296,-267.914 408.377,-264.655 404.144,-259.08"/>
</g>
<!-- Node122 -->
<g id="node16" class="node"><title>Node122</title>
<g id="a_node16"><a xlink:href="../../d5/d53/class_ro_r_1_1_beam_factory.html#a87e6c050f0af4ef2e39976749ac9762c" target="_top" xlink:title="RoR::BeamFactory::update">
<polygon fill="white" stroke="black" points="498,-273.5 498,-292.5 633,-292.5 633,-273.5 498,-273.5"/>
<text text-anchor="middle" x="565.5" y="-280.5" font-family="Helvetica,sans-Serif" font-size="10.00">RoR::BeamFactory::update</text>
</a>
</g>
</g>
<!-- Node121&#45;&gt;Node122 -->
<g id="edge21" class="edge"><title>Node121&#45;&gt;Node122</title>
<path fill="none" stroke="midnightblue" d="M457.261,-283C470.715,-283 484.597,-283 497.727,-283"/>
<polygon fill="midnightblue" stroke="midnightblue" points="457.075,-279.5 447.075,-283 457.075,-286.5 457.075,-279.5"/>
</g>
<!-- Node122&#45;&gt;Node111 -->
<g id="edge22" class="edge"><title>Node122&#45;&gt;Node111</title>
<path fill="none" stroke="midnightblue" d="M643.258,-282.822C694.02,-280.692 761.395,-273.972 818,-255 858.554,-241.408 900.291,-211.949 920.322,-196.654"/>
<polygon fill="midnightblue" stroke="midnightblue" points="642.876,-279.333 633.012,-283.199 643.134,-286.328 642.876,-279.333"/>
</g>
<!-- Node127 -->
<g id="node21" class="node"><title>Node127</title>
<g id="a_node21"><a xlink:href="../../d5/def/class_slide_node.html#a5ee30c976fd8659e8c953e0c63957ffe" target="_top" xlink:title="SlideNode::getLenTo">
<polygon fill="white" stroke="black" points="325,-0.5 325,-19.5 432,-19.5 432,-0.5 325,-0.5"/>
<text text-anchor="middle" x="378.5" y="-7.5" font-family="Helvetica,sans-Serif" font-size="10.00">SlideNode::getLenTo</text>
</a>
</g>
</g>
<!-- Node126&#45;&gt;Node127 -->
<g id="edge28" class="edge"><title>Node126&#45;&gt;Node127</title>
<path fill="none" stroke="midnightblue" d="M256.358,-10C278.481,-10 303.328,-10 324.735,-10"/>
<polygon fill="midnightblue" stroke="midnightblue" points="256.076,-6.5001 246.076,-10 256.076,-13.5001 256.076,-6.5001"/>
</g>
</g>
</svg>
        <g id="navigator" transform="translate(0 0)" fill="#404254">
                <rect fill="#f2f5e9" fill-opacity="0.5" stroke="#606060" stroke-width=".5" x="0" y="0" width="60" height="60"/>
                <use id="zoomplus" xlink:href="#zoomPlus" x="17" y="9" onmousedown="handleZoom(evt,'in')"/>
                <use id="zoomminus" xlink:href="#zoomMin" x="42" y="9" onmousedown="handleZoom(evt,'out')"/>
                <use id="reset" xlink:href="#resetDef" x="30" y="36" onmousedown="handleReset()"/>
                <g id="arrowUp" xlink:href="#dirArrow" transform="translate(30 24)" onmousedown="handlePan(0,-1)">
                  <use xlink:href="#rim" fill="#404040">
                        <set attributeName="fill" to="#808080" begin="arrowUp.mouseover" end="arrowUp.mouseout"/>
                  </use>
                  <path fill="none" stroke="white" stroke-width="1.5" d="M0,-3.0v7 M-2.5,-0.5L0,-3.0L2.5,-0.5"/>
                </g>
                <g id="arrowRight" xlink:href="#dirArrow" transform="rotate(90) translate(36 -43)" onmousedown="handlePan(1,0)">
                  <use xlink:href="#rim" fill="#404040">
                        <set attributeName="fill" to="#808080" begin="arrowRight.mouseover" end="arrowRight.mouseout"/>
                  </use>
                  <path fill="none" stroke="white" stroke-width="1.5" d="M0,-3.0v7 M-2.5,-0.5L0,-3.0L2.5,-0.5"/>
                </g>
                <g id="arrowDown" xlink:href="#dirArrow" transform="rotate(180) translate(-30 -48)" onmousedown="handlePan(0,1)">
                  <use xlink:href="#rim" fill="#404040">
                        <set attributeName="fill" to="#808080" begin="arrowDown.mouseover" end="arrowDown.mouseout"/>
                  </use>
                  <path fill="none" stroke="white" stroke-width="1.5" d="M0,-3.0v7 M-2.5,-0.5L0,-3.0L2.5,-0.5"/>
                </g>
                <g id="arrowLeft" xlink:href="#dirArrow" transform="rotate(270) translate(-36 17)" onmousedown="handlePan(-1,0)">
                  <use xlink:href="#rim" fill="#404040">
                        <set attributeName="fill" to="#808080" begin="arrowLeft.mouseover" end="arrowLeft.mouseout"/>
                  </use>
                  <path fill="none" stroke="white" stroke-width="1.5" d="M0,-3.0v7 M-2.5,-0.5L0,-3.0L2.5,-0.5"/>
                </g>
        </g>
        <svg viewBox="0 0 15 15" width="100%" height="30px" preserveAspectRatio="xMaxYMin meet">
         <g id="arrow_out" transform="scale(0.3 0.3)">
          <a xlink:href="_approx_math_8h_a88cab057c9c3a7a5cbaa1aebb06bf864_icgraph_org.svg" target="_base">
           <rect id="button" ry="5" rx="5" y="6" x="6" height="38" width="38"
                fill="#f2f5e9" fill-opacity="0.5" stroke="#606060" stroke-width="1.0"/>
           <path id="arrow"
             d="M 11.500037,31.436501 C 11.940474,20.09759 22.043105,11.32322 32.158766,21.979434 L 37.068811,17.246167 C 37.068811,17.246167 37.088388,32 37.088388,32 L 22.160133,31.978069 C 22.160133,31.978069 26.997745,27.140456 26.997745,27.140456 C 18.528582,18.264221 13.291696,25.230495 11.500037,31.436501 z"
             style="fill:#404040;"/>
          </a>
         </g>
        </svg>
</svg>
