<?xml version="1.0" encoding="UTF-8" standalone="no"?>
<!DOCTYPE svg PUBLIC "-//W3C//DTD SVG 1.1//EN"
 "http://www.w3.org/Graphics/SVG/1.1/DTD/svg11.dtd">
<!-- Generated by graphviz version 2.38.0 (20140413.2041)
 -->
<!-- Title: approx_normalise Pages: 1 -->
<svg width="584pt" height="85pt"
 viewBox="0.00 0.00 584.00 85.00" xmlns="http://www.w3.org/2000/svg" xmlns:xlink="http://www.w3.org/1999/xlink">
<g id="graph0" class="graph" transform="scale(1 1) rotate(0) translate(4 81)">
<title>approx_normalise</title>
<polygon fill="white" stroke="none" points="-4,4 -4,-81 580,-81 580,4 -4,4"/>
<!-- Node28 -->
<g id="node1" class="node"><title>Node28</title>
<polygon fill="#bfbfbf" stroke="black" points="0,-19.5 0,-38.5 93,-38.5 93,-19.5 0,-19.5"/>
<text text-anchor="middle" x="46.5" y="-26.5" font-family="Helvetica,sans-Serif" font-size="10.00">approx_normalise</text>
</g>
<!-- Node29 -->
<g id="node2" class="node"><title>Node29</title>
<g id="a_node2"><a xlink:href="../../d9/d9b/class_flex_mesh.html#a9de659b334ac50920a0da3f784b7ba09" target="_top" xlink:title="FlexMesh::updateVertices">
<polygon fill="white" stroke="black" points="129,-38.5 129,-57.5 260,-57.5 260,-38.5 129,-38.5"/>
<text text-anchor="middle" x="194.5" y="-45.5" font-family="Helvetica,sans-Serif" font-size="10.00">FlexMesh::updateVertices</text>
</a>
</g>
</g>
<!-- Node28&#45;&gt;Node29 -->
<g id="edge1" class="edge"><title>Node28&#45;&gt;Node29</title>
<path fill="none" stroke="midnightblue" d="M103.307,-36.2626C111.671,-37.3511 120.355,-38.4811 128.884,-39.591"/>
<polygon fill="midnightblue" stroke="midnightblue" points="103.663,-32.7794 93.2947,-34.9596 102.759,-39.7209 103.663,-32.7794"/>
</g>
<!-- Node33 -->
<g id="node6" class="node"><title>Node33</title>
<g id="a_node6"><a xlink:href="../../df/d17/class_flex_obj.html#a2101e2087e8320084b9db80e2c0c8275" target="_top" xlink:title="FlexObj::UpdateMesh">
<polygon fill="white" stroke="black" points="139,-0.5 139,-19.5 250,-19.5 250,-0.5 139,-0.5"/>
<text text-anchor="middle" x="194.5" y="-7.5" font-family="Helvetica,sans-Serif" font-size="10.00">FlexObj::UpdateMesh</text>
</a>
</g>
</g>
<!-- Node28&#45;&gt;Node33 -->
<g id="edge5" class="edge"><title>Node28&#45;&gt;Node33</title>
<path fill="none" stroke="midnightblue" d="M103.352,-21.7316C115.014,-20.2139 127.296,-18.6156 138.912,-17.1039"/>
<polygon fill="midnightblue" stroke="midnightblue" points="102.759,-18.2791 93.2947,-23.0404 103.663,-25.2206 102.759,-18.2791"/>
</g>
<!-- Node30 -->
<g id="node3" class="node"><title>Node30</title>
<g id="a_node3"><a xlink:href="../../d9/d9b/class_flex_mesh.html#a6faf24b72fcdfbe4057caf888a6f27ea" target="_top" xlink:title="FlexMesh::FlexMesh">
<polygon fill="white" stroke="black" points="304.5,-57.5 304.5,-76.5 412.5,-76.5 412.5,-57.5 304.5,-57.5"/>
<text text-anchor="middle" x="358.5" y="-64.5" font-family="Helvetica,sans-Serif" font-size="10.00">FlexMesh::FlexMesh</text>
</a>
</g>
</g>
<!-- Node29&#45;&gt;Node30 -->
<g id="edge2" class="edge"><title>Node29&#45;&gt;Node30</title>
<path fill="none" stroke="midnightblue" d="M270.478,-56.7938C281.955,-58.1398 293.593,-59.5048 304.466,-60.7799"/>
<polygon fill="midnightblue" stroke="midnightblue" points="270.798,-53.3073 260.458,-55.6185 269.982,-60.2597 270.798,-53.3073"/>
</g>
<!-- Node31 -->
<g id="node4" class="node"><title>Node31</title>
<g id="a_node4"><a xlink:href="../../d9/d9b/class_flex_mesh.html#a99f2ebda1ae82eb28b82a4ca7d961d6b" target="_top" xlink:title="FlexMesh::flexitCompute">
<polygon fill="white" stroke="black" points="296,-19.5 296,-38.5 421,-38.5 421,-19.5 296,-19.5"/>
<text text-anchor="middle" x="358.5" y="-26.5" font-family="Helvetica,sans-Serif" font-size="10.00">FlexMesh::flexitCompute</text>
</a>
</g>
</g>
<!-- Node29&#45;&gt;Node31 -->
<g id="edge3" class="edge"><title>Node29&#45;&gt;Node31</title>
<path fill="none" stroke="midnightblue" d="M270.424,-39.2126C278.968,-38.2105 287.604,-37.1977 295.946,-36.2193"/>
<polygon fill="midnightblue" stroke="midnightblue" points="269.982,-35.7403 260.458,-40.3815 270.798,-42.6927 269.982,-35.7403"/>
</g>
<!-- Node32 -->
<g id="node5" class="node"><title>Node32</title>
<g id="a_node5"><a xlink:href="../../d9/d9b/class_flex_mesh.html#a88dd9fc597a31b4380a71c56051ca456" target="_top" xlink:title="FlexMesh::flexitPrepare">
<polygon fill="white" stroke="black" points="457,-19.5 457,-38.5 576,-38.5 576,-19.5 457,-19.5"/>
<text text-anchor="middle" x="516.5" y="-26.5" font-family="Helvetica,sans-Serif" font-size="10.00">FlexMesh::flexitPrepare</text>
</a>
</g>
</g>
<!-- Node31&#45;&gt;Node32 -->
<g id="edge4" class="edge"><title>Node31&#45;&gt;Node32</title>
<path fill="none" stroke="midnightblue" d="M431.17,-29C439.762,-29 448.458,-29 456.836,-29"/>
<polygon fill="midnightblue" stroke="midnightblue" points="431.155,-25.5001 421.155,-29 431.155,-32.5001 431.155,-25.5001"/>
</g>
</g>
</svg>
