<?xml version="1.0" encoding="UTF-8" standalone="no"?>
<!DOCTYPE svg PUBLIC "-//W3C//DTD SVG 1.1//EN"
 "http://www.w3.org/Graphics/SVG/1.1/DTD/svg11.dtd">
<!-- Generated by graphviz version 2.38.0 (20140413.2041)
 -->
<!-- Title: GUIInputManager::WakeUpGUI Pages: 1 -->
<svg width="1087pt" height="104pt"
 viewBox="0.00 0.00 1087.00 104.00" xmlns="http://www.w3.org/2000/svg" xmlns:xlink="http://www.w3.org/1999/xlink">
<g id="graph0" class="graph" transform="scale(1 1) rotate(0) translate(4 100)">
<title>GUIInputManager::WakeUpGUI</title>
<polygon fill="white" stroke="none" points="-4,4 -4,-100 1083,-100 1083,4 -4,4"/>
<!-- Node705 -->
<g id="node1" class="node"><title>Node705</title>
<polygon fill="#bfbfbf" stroke="black" points="0,-38.5 0,-57.5 152,-57.5 152,-38.5 0,-38.5"/>
<text text-anchor="middle" x="76" y="-45.5" font-family="Helvetica,sans-Serif" font-size="10.00">GUIInputManager::WakeUpGUI</text>
</g>
<!-- Node706 -->
<g id="node2" class="node"><title>Node706</title>
<g id="a_node2"><a xlink:href="../../db/df1/class_g_u_i_input_manager.html#a2f52a8c0b01fca8c55a954bdb7d2ab79" target="_top" xlink:title="GUIInputManager::mouseMoved">
<polygon fill="white" stroke="black" points="194,-76.5 194,-95.5 349,-95.5 349,-76.5 194,-76.5"/>
<text text-anchor="middle" x="271.5" y="-83.5" font-family="Helvetica,sans-Serif" font-size="10.00">GUIInputManager::mouseMoved</text>
</a>
</g>
</g>
<!-- Node705&#45;&gt;Node706 -->
<g id="edge1" class="edge"><title>Node705&#45;&gt;Node706</title>
<path fill="none" stroke="midnightblue" d="M135.753,-59.5381C163.352,-64.958 195.855,-71.341 222.023,-76.4799"/>
<polygon fill="midnightblue" stroke="midnightblue" points="136.315,-56.0817 125.828,-57.589 134.966,-62.9505 136.315,-56.0817"/>
</g>
<!-- Node711 -->
<g id="node7" class="node"><title>Node711</title>
<g id="a_node7"><a xlink:href="../../db/df1/class_g_u_i_input_manager.html#a2e10c3db1bd7068fc87476ce1cceb7c6" target="_top" xlink:title="GUIInputManager::mousePressed">
<polygon fill="white" stroke="black" points="190,-38.5 190,-57.5 353,-57.5 353,-38.5 190,-38.5"/>
<text text-anchor="middle" x="271.5" y="-45.5" font-family="Helvetica,sans-Serif" font-size="10.00">GUIInputManager::mousePressed</text>
</a>
</g>
</g>
<!-- Node705&#45;&gt;Node711 -->
<g id="edge6" class="edge"><title>Node705&#45;&gt;Node711</title>
<path fill="none" stroke="midnightblue" d="M162.291,-48C171.395,-48 180.635,-48 189.684,-48"/>
<polygon fill="midnightblue" stroke="midnightblue" points="162.089,-44.5001 152.089,-48 162.089,-51.5001 162.089,-44.5001"/>
</g>
<!-- Node712 -->
<g id="node8" class="node"><title>Node712</title>
<g id="a_node8"><a xlink:href="../../db/df1/class_g_u_i_input_manager.html#a5f096906671c8b2fc404353cb0cc3cf4" target="_top" xlink:title="GUIInputManager::mouseReleased">
<polygon fill="white" stroke="black" points="188,-0.5 188,-19.5 355,-19.5 355,-0.5 188,-0.5"/>
<text text-anchor="middle" x="271.5" y="-7.5" font-family="Helvetica,sans-Serif" font-size="10.00">GUIInputManager::mouseReleased</text>
</a>
</g>
</g>
<!-- Node705&#45;&gt;Node712 -->
<g id="edge8" class="edge"><title>Node705&#45;&gt;Node712</title>
<path fill="none" stroke="midnightblue" d="M135.753,-36.4619C163.352,-31.042 195.855,-24.659 222.023,-19.5201"/>
<polygon fill="midnightblue" stroke="midnightblue" points="134.966,-33.0495 125.828,-38.411 136.315,-39.9183 134.966,-33.0495"/>
</g>
<!-- Node707 -->
<g id="node3" class="node"><title>Node707</title>
<g id="a_node3"><a xlink:href="../../db/df1/class_g_u_i_input_manager.html#ab59361b8e1a9e31e53b5e5523f2b4801" target="_top" xlink:title="GUIInputManager::getLast\lMouseMoveTime">
<polygon fill="white" stroke="black" points="391,-33 391,-63 521,-63 521,-33 391,-33"/>
<text text-anchor="start" x="399" y="-51" font-family="Helvetica,sans-Serif" font-size="10.00">GUIInputManager::getLast</text>
<text text-anchor="middle" x="456" y="-40" font-family="Helvetica,sans-Serif" font-size="10.00">MouseMoveTime</text>
</a>
</g>
</g>
<!-- Node706&#45;&gt;Node707 -->
<g id="edge2" class="edge"><title>Node706&#45;&gt;Node707</title>
<path fill="none" stroke="midnightblue" d="M328.568,-74.3255C348.215,-70.2348 370.43,-65.6091 390.697,-61.389"/>
<polygon fill="midnightblue" stroke="midnightblue" points="327.629,-70.9459 318.552,-76.411 329.056,-77.799 327.629,-70.9459"/>
</g>
<!-- Node708 -->
<g id="node4" class="node"><title>Node708</title>
<g id="a_node4"><a xlink:href="../../d8/d11/class_ro_r_1_1_g_u_i_manager.html#aae1570a62049085aa74ce274ac9a70ad" target="_top" xlink:title="RoR::GUIManager::frameStarted">
<polygon fill="white" stroke="black" points="557,-38.5 557,-57.5 714,-57.5 714,-38.5 557,-38.5"/>
<text text-anchor="middle" x="635.5" y="-45.5" font-family="Helvetica,sans-Serif" font-size="10.00">RoR::GUIManager::frameStarted</text>
</a>
</g>
</g>
<!-- Node707&#45;&gt;Node708 -->
<g id="edge3" class="edge"><title>Node707&#45;&gt;Node708</title>
<path fill="none" stroke="midnightblue" d="M531.289,-48C539.748,-48 548.387,-48 556.888,-48"/>
<polygon fill="midnightblue" stroke="midnightblue" points="531.082,-44.5001 521.082,-48 531.082,-51.5001 531.082,-44.5001"/>
</g>
<!-- Node709 -->
<g id="node5" class="node"><title>Node709</title>
<g id="a_node5"><a xlink:href="../../d8/d11/class_ro_r_1_1_g_u_i_manager.html#a4ab273bd0538649818c84b38e8a06100" target="_top" xlink:title="RoR::GUIManager::GetTheme">
<polygon fill="white" stroke="black" points="750,-38.5 750,-57.5 896,-57.5 896,-38.5 750,-38.5"/>
<text text-anchor="middle" x="823" y="-45.5" font-family="Helvetica,sans-Serif" font-size="10.00">RoR::GUIManager::GetTheme</text>
</a>
</g>
</g>
<!-- Node708&#45;&gt;Node709 -->
<g id="edge4" class="edge"><title>Node708&#45;&gt;Node709</title>
<path fill="none" stroke="midnightblue" d="M724.125,-48C732.707,-48 741.349,-48 749.754,-48"/>
<polygon fill="midnightblue" stroke="midnightblue" points="724.094,-44.5001 714.094,-48 724.094,-51.5001 724.094,-44.5001"/>
</g>
<!-- Node710 -->
<g id="node6" class="node"><title>Node710</title>
<g id="a_node6"><a xlink:href="../../d4/d8f/class_ro_r_1_1_g_u_i_1_1_multiplayer_selector.html#a8c98e9ba03c8afb1d1a26ec06192862e" target="_top" xlink:title="RoR::GUI::MultiplayerSelector\l::~MultiplayerSelector">
<polygon fill="white" stroke="black" points="932,-33 932,-63 1079,-63 1079,-33 932,-33"/>
<text text-anchor="start" x="940" y="-51" font-family="Helvetica,sans-Serif" font-size="10.00">RoR::GUI::MultiplayerSelector</text>
<text text-anchor="middle" x="1005.5" y="-40" font-family="Helvetica,sans-Serif" font-size="10.00">::~MultiplayerSelector</text>
</a>
</g>
</g>
<!-- Node709&#45;&gt;Node710 -->
<g id="edge5" class="edge"><title>Node709&#45;&gt;Node710</title>
<path fill="none" stroke="midnightblue" d="M906.142,-48C914.737,-48 923.431,-48 931.909,-48"/>
<polygon fill="midnightblue" stroke="midnightblue" points="906.117,-44.5001 896.117,-48 906.117,-51.5001 906.117,-44.5001"/>
</g>
<!-- Node711&#45;&gt;Node707 -->
<g id="edge7" class="edge"><title>Node711&#45;&gt;Node707</title>
<path fill="none" stroke="midnightblue" d="M363.162,-48C372.475,-48 381.796,-48 390.738,-48"/>
<polygon fill="midnightblue" stroke="midnightblue" points="363.078,-44.5001 353.078,-48 363.078,-51.5001 363.078,-44.5001"/>
</g>
<!-- Node712&#45;&gt;Node707 -->
<g id="edge9" class="edge"><title>Node712&#45;&gt;Node707</title>
<path fill="none" stroke="midnightblue" d="M328.568,-21.6745C348.215,-25.7652 370.43,-30.3909 390.697,-34.611"/>
<polygon fill="midnightblue" stroke="midnightblue" points="329.056,-18.201 318.552,-19.589 327.629,-25.0541 329.056,-18.201"/>
</g>
</g>
</svg>
