<?xml version="1.0" encoding="UTF-8" standalone="no"?>
<!DOCTYPE svg PUBLIC "-//W3C//DTD SVG 1.1//EN"
 "http://www.w3.org/Graphics/SVG/1.1/DTD/svg11.dtd">
<!-- Generated by graphviz version 2.38.0 (20140413.2041)
 -->
<!-- Title: GUIInputManager::SupressCursor Pages: 1 -->
<!--zoomable 356 -->
<svg id="main" version="1.1" xmlns="http://www.w3.org/2000/svg" xmlns:xlink="http://www.w3.org/1999/xlink" xml:space="preserve" onload="init(evt)">
<style type="text/css"><![CDATA[
.edge:hover path { stroke: red; }
.edge:hover polygon { stroke: red; fill: red; }
]]></style>
<script type="text/javascript"><![CDATA[
var edges = document.getElementsByTagName('g');
if (edges && edges.length) {
  for (var i=0;i<edges.length;i++) {
    if (edges[i].id.substr(0,4)=='edge') {
      edges[i].setAttribute('class','edge');
    }
  }
}
]]></script>
        <defs>
                <circle id="rim" cx="0" cy="0" r="7"/>
                <circle id="rim2" cx="0" cy="0" r="3.5"/>
                <g id="zoomPlus">
                        <use xlink:href="#rim" fill="#404040">
                                <set attributeName="fill" to="#808080" begin="zoomplus.mouseover" end="zoomplus.mouseout"/>
                        </use>
                        <path d="M-4,0h8M0,-4v8" fill="none" stroke="white" stroke-width="1.5" pointer-events="none"/>
                </g>
                <g id="zoomMin">
                        <use xlink:href="#rim" fill="#404040">
                                <set attributeName="fill" to="#808080" begin="zoomminus.mouseover" end="zoomminus.mouseout"/>
                        </use>
                        <path d="M-4,0h8" fill="none" stroke="white" stroke-width="1.5" pointer-events="none"/>
                </g>
                <g id="dirArrow">
                        <path fill="none" stroke="white" stroke-width="1.5" d="M0,-3.0v7 M-2.5,-0.5L0,-3.0L2.5,-0.5"/>
                </g>
               <g id="resetDef">
                       <use xlink:href="#rim2" fill="#404040">
                               <set attributeName="fill" to="#808080" begin="reset.mouseover" end="reset.mouseout"/>
                       </use>
               </g>
        </defs>

<script type="text/javascript">
var viewWidth = 1451;
var viewHeight = 356;
var sectionId = 'dynsection-17';
</script>
<script xlink:href="../../svgpan.js"/>
<svg id="graph" class="graph">
<g id="viewport">
<title>GUIInputManager::SupressCursor</title>
<polygon fill="white" stroke="none" points="-4,4 -4,-351.66 1447,-351.66 1447,4 -4,4"/>
<!-- Node677 -->
<g id="node1" class="node"><title>Node677</title>
<polygon fill="#bfbfbf" stroke="black" points="0,-237.5 0,-267.5 134,-267.5 134,-237.5 0,-237.5"/>
<text text-anchor="start" x="8" y="-255.5" font-family="Helvetica,sans-Serif" font-size="10.00">GUIInputManager::Supress</text>
<text text-anchor="middle" x="67" y="-244.5" font-family="Helvetica,sans-Serif" font-size="10.00">Cursor</text>
</g>
<!-- Node678 -->
<g id="node2" class="node"><title>Node678</title>
<g id="a_node2"><a xlink:href="../../db/df1/class_g_u_i_input_manager.html#ab59361b8e1a9e31e53b5e5523f2b4801" target="_top" xlink:title="GUIInputManager::getLast\lMouseMoveTime">
<polygon fill="white" stroke="black" points="748,-256.5 748,-286.5 878,-286.5 878,-256.5 748,-256.5"/>
<text text-anchor="start" x="756" y="-274.5" font-family="Helvetica,sans-Serif" font-size="10.00">GUIInputManager::getLast</text>
<text text-anchor="middle" x="813" y="-263.5" font-family="Helvetica,sans-Serif" font-size="10.00">MouseMoveTime</text>
</a>
</g>
</g>
<!-- Node677&#45;&gt;Node678 -->
<g id="edge1" class="edge"><title>Node677&#45;&gt;Node678</title>
<path fill="none" stroke="midnightblue" d="M118.813,-270.918C228.067,-307.839 492.79,-382.894 707,-328.5 738.764,-320.434 771.316,-300.612 791.584,-286.618"/>
<polygon fill="midnightblue" stroke="midnightblue" points="119.636,-267.5 109.042,-267.576 117.371,-274.124 119.636,-267.5"/>
</g>
<!-- Node682 -->
<g id="node6" class="node"><title>Node682</title>
<g id="a_node6"><a xlink:href="../../d8/d11/class_ro_r_1_1_g_u_i_manager.html#a02cfc7275f30a09ee27ccda53b48cf13" target="_top" xlink:title="RoR::GUIManager::SetMouse\lCursorVisibility">
<polygon fill="white" stroke="black" points="170,-142.5 170,-172.5 316,-172.5 316,-142.5 170,-142.5"/>
<text text-anchor="start" x="178" y="-160.5" font-family="Helvetica,sans-Serif" font-size="10.00">RoR::GUIManager::SetMouse</text>
<text text-anchor="middle" x="243" y="-149.5" font-family="Helvetica,sans-Serif" font-size="10.00">CursorVisibility</text>
</a>
</g>
</g>
<!-- Node677&#45;&gt;Node682 -->
<g id="edge5" class="edge"><title>Node677&#45;&gt;Node682</title>
<path fill="none" stroke="midnightblue" d="M104.388,-232.633C137.123,-214.76 184.514,-188.886 214.271,-172.64"/>
<polygon fill="midnightblue" stroke="midnightblue" points="102.671,-229.583 95.5708,-237.447 106.025,-235.727 102.671,-229.583"/>
</g>
<!-- Node679 -->
<g id="node3" class="node"><title>Node679</title>
<g id="a_node3"><a xlink:href="../../d8/d11/class_ro_r_1_1_g_u_i_manager.html#aae1570a62049085aa74ce274ac9a70ad" target="_top" xlink:title="RoR::GUIManager::frameStarted">
<polygon fill="white" stroke="black" points="920,-224 920,-243 1077,-243 1077,-224 920,-224"/>
<text text-anchor="middle" x="998.5" y="-231" font-family="Helvetica,sans-Serif" font-size="10.00">RoR::GUIManager::frameStarted</text>
</a>
</g>
</g>
<!-- Node678&#45;&gt;Node679 -->
<g id="edge2" class="edge"><title>Node678&#45;&gt;Node679</title>
<path fill="none" stroke="midnightblue" d="M888.237,-256.127C909.657,-251.691 932.4,-246.981 951.558,-243.014"/>
<polygon fill="midnightblue" stroke="midnightblue" points="887.262,-252.754 878.179,-258.209 888.681,-259.609 887.262,-252.754"/>
</g>
<!-- Node680 -->
<g id="node4" class="node"><title>Node680</title>
<g id="a_node4"><a xlink:href="../../d8/d11/class_ro_r_1_1_g_u_i_manager.html#a4ab273bd0538649818c84b38e8a06100" target="_top" xlink:title="RoR::GUIManager::GetTheme">
<polygon fill="white" stroke="black" points="1114,-224 1114,-243 1260,-243 1260,-224 1114,-224"/>
<text text-anchor="middle" x="1187" y="-231" font-family="Helvetica,sans-Serif" font-size="10.00">RoR::GUIManager::GetTheme</text>
</a>
</g>
</g>
<!-- Node679&#45;&gt;Node680 -->
<g id="edge3" class="edge"><title>Node679&#45;&gt;Node680</title>
<path fill="none" stroke="midnightblue" d="M1087.51,-233.5C1096.3,-233.5 1105.15,-233.5 1113.75,-233.5"/>
<polygon fill="midnightblue" stroke="midnightblue" points="1087.24,-230 1077.24,-233.5 1087.24,-237 1087.24,-230"/>
</g>
<!-- Node681 -->
<g id="node5" class="node"><title>Node681</title>
<g id="a_node5"><a xlink:href="../../d4/d8f/class_ro_r_1_1_g_u_i_1_1_multiplayer_selector.html#a8c98e9ba03c8afb1d1a26ec06192862e" target="_top" xlink:title="RoR::GUI::MultiplayerSelector\l::~MultiplayerSelector">
<polygon fill="white" stroke="black" points="1296,-218.5 1296,-248.5 1443,-248.5 1443,-218.5 1296,-218.5"/>
<text text-anchor="start" x="1304" y="-236.5" font-family="Helvetica,sans-Serif" font-size="10.00">RoR::GUI::MultiplayerSelector</text>
<text text-anchor="middle" x="1369.5" y="-225.5" font-family="Helvetica,sans-Serif" font-size="10.00">::~MultiplayerSelector</text>
</a>
</g>
</g>
<!-- Node680&#45;&gt;Node681 -->
<g id="edge4" class="edge"><title>Node680&#45;&gt;Node681</title>
<path fill="none" stroke="midnightblue" d="M1270.14,-233.5C1278.74,-233.5 1287.43,-233.5 1295.91,-233.5"/>
<polygon fill="midnightblue" stroke="midnightblue" points="1270.12,-230 1260.12,-233.5 1270.12,-237 1270.12,-230"/>
</g>
<!-- Node682&#45;&gt;Node679 -->
<g id="edge17" class="edge"><title>Node682&#45;&gt;Node679</title>
<path fill="none" stroke="midnightblue" d="M326.2,-167.59C334.908,-168.6 343.634,-169.588 352,-170.5 556.843,-192.822 798.676,-215.424 919.94,-226.498"/>
<polygon fill="midnightblue" stroke="midnightblue" points="326.35,-164.083 316.01,-166.397 325.535,-171.036 326.35,-164.083"/>
</g>
<!-- Node683 -->
<g id="node7" class="node"><title>Node683</title>
<g id="a_node7"><a xlink:href="../../dd/dbe/class_ro_r_frame_listener.html#afec2a0f00ed552c21d22aae76329bf38" target="_top" xlink:title="RoRFrameListener::Update\lInputEvents">
<polygon fill="white" stroke="black" points="746,-136.5 746,-166.5 880,-166.5 880,-136.5 746,-136.5"/>
<text text-anchor="start" x="754" y="-154.5" font-family="Helvetica,sans-Serif" font-size="10.00">RoRFrameListener::Update</text>
<text text-anchor="middle" x="813" y="-143.5" font-family="Helvetica,sans-Serif" font-size="10.00">InputEvents</text>
</a>
</g>
</g>
<!-- Node682&#45;&gt;Node683 -->
<g id="edge6" class="edge"><title>Node682&#45;&gt;Node683</title>
<path fill="none" stroke="midnightblue" d="M326.248,-156.631C439.672,-155.433 641.871,-153.297 745.999,-152.197"/>
<polygon fill="midnightblue" stroke="midnightblue" points="326.188,-153.132 316.226,-156.737 326.262,-160.131 326.188,-153.132"/>
</g>
<!-- Node685 -->
<g id="node9" class="node"><title>Node685</title>
<g id="a_node9"><a xlink:href="../../dc/de3/class_camera_behavior_character.html#a3da8cbc0998e56cb30434bba70fa8f7b" target="_top" xlink:title="CameraBehaviorCharacter\l::mouseMoved">
<polygon fill="white" stroke="black" points="363.5,-49.5 363.5,-79.5 492.5,-79.5 492.5,-49.5 363.5,-49.5"/>
<text text-anchor="start" x="371.5" y="-67.5" font-family="Helvetica,sans-Serif" font-size="10.00">CameraBehaviorCharacter</text>
<text text-anchor="middle" x="428" y="-56.5" font-family="Helvetica,sans-Serif" font-size="10.00">::mouseMoved</text>
</a>
</g>
</g>
<!-- Node682&#45;&gt;Node685 -->
<g id="edge8" class="edge"><title>Node682&#45;&gt;Node685</title>
<path fill="none" stroke="midnightblue" d="M272.385,-136.472C293.511,-121.555 323.502,-101.885 352,-88.5 358.93,-85.2452 366.416,-82.2659 373.885,-79.5974"/>
<polygon fill="midnightblue" stroke="midnightblue" points="270.281,-133.673 264.184,-142.338 274.354,-139.366 270.281,-133.673"/>
</g>
<!-- Node686 -->
<g id="node10" class="node"><title>Node686</title>
<g id="a_node10"><a xlink:href="../../da/d70/class_camera_behavior_free.html#ad6f97ab15b742aa640e894d0e7b2886c" target="_top" xlink:title="CameraBehaviorFree\l::mouseMoved">
<polygon fill="white" stroke="black" points="374.5,-0.5 374.5,-30.5 481.5,-30.5 481.5,-0.5 374.5,-0.5"/>
<text text-anchor="start" x="382.5" y="-18.5" font-family="Helvetica,sans-Serif" font-size="10.00">CameraBehaviorFree</text>
<text text-anchor="middle" x="428" y="-7.5" font-family="Helvetica,sans-Serif" font-size="10.00">::mouseMoved</text>
</a>
</g>
</g>
<!-- Node682&#45;&gt;Node686 -->
<g id="edge9" class="edge"><title>Node682&#45;&gt;Node686</title>
<path fill="none" stroke="midnightblue" d="M259.886,-133.753C278.841,-107.163 312.92,-64.5302 352,-39.5 358.792,-35.1496 366.437,-31.5297 374.182,-28.5346"/>
<polygon fill="midnightblue" stroke="midnightblue" points="256.908,-131.903 254.052,-142.106 262.647,-135.911 256.908,-131.903"/>
</g>
<!-- Node687 -->
<g id="node11" class="node"><title>Node687</title>
<g id="a_node11"><a xlink:href="../../db/df1/class_g_u_i_input_manager.html#af743c86f4405a5d1d500411986acc9a8" target="_top" xlink:title="GUIInputManager::WakeUpGUI">
<polygon fill="white" stroke="black" points="352,-243 352,-262 504,-262 504,-243 352,-243"/>
<text text-anchor="middle" x="428" y="-250" font-family="Helvetica,sans-Serif" font-size="10.00">GUIInputManager::WakeUpGUI</text>
</a>
</g>
</g>
<!-- Node682&#45;&gt;Node687 -->
<g id="edge10" class="edge"><title>Node682&#45;&gt;Node687</title>
<path fill="none" stroke="midnightblue" d="M281.887,-177.168C320.535,-197.231 378.9,-227.53 408.451,-242.871"/>
<polygon fill="midnightblue" stroke="midnightblue" points="283.485,-174.054 272.997,-172.553 280.26,-180.267 283.485,-174.054"/>
</g>
<!-- Node691 -->
<g id="node15" class="node"><title>Node691</title>
<g id="a_node15"><a xlink:href="../../d2/deb/class_ro_r_1_1_g_u_i_1_1_teleport_window.html#abbaeda3e7eb3f9f57145cbff0827f8a2" target="_top" xlink:title="RoR::GUI::TeleportWindow\l::ShowAltmodeCursor">
<polygon fill="white" stroke="black" points="361.5,-98.5 361.5,-128.5 494.5,-128.5 494.5,-98.5 361.5,-98.5"/>
<text text-anchor="start" x="369.5" y="-116.5" font-family="Helvetica,sans-Serif" font-size="10.00">RoR::GUI::TeleportWindow</text>
<text text-anchor="middle" x="428" y="-105.5" font-family="Helvetica,sans-Serif" font-size="10.00">::ShowAltmodeCursor</text>
</a>
</g>
</g>
<!-- Node682&#45;&gt;Node691 -->
<g id="edge18" class="edge"><title>Node682&#45;&gt;Node691</title>
<path fill="none" stroke="midnightblue" d="M316.272,-140.123C332.22,-136.289 348.983,-132.258 364.505,-128.526"/>
<polygon fill="midnightblue" stroke="midnightblue" points="315.371,-136.74 306.466,-142.481 317.008,-143.546 315.371,-136.74"/>
</g>
<!-- Node684 -->
<g id="node8" class="node"><title>Node684</title>
<g id="a_node8"><a xlink:href="../../dd/dbe/class_ro_r_frame_listener.html#acdda0026f9324c3b7f48568624e07115" target="_top" xlink:title="RoRFrameListener::frameStarted">
<polygon fill="white" stroke="black" points="919,-118 919,-137 1078,-137 1078,-118 919,-118"/>
<text text-anchor="middle" x="998.5" y="-125" font-family="Helvetica,sans-Serif" font-size="10.00">RoRFrameListener::frameStarted</text>
</a>
</g>
</g>
<!-- Node683&#45;&gt;Node684 -->
<g id="edge7" class="edge"><title>Node683&#45;&gt;Node684</title>
<path fill="none" stroke="midnightblue" d="M890.209,-141.533C901.663,-140.035 913.45,-138.493 924.828,-137.005"/>
<polygon fill="midnightblue" stroke="midnightblue" points="889.709,-138.068 880.248,-142.835 890.617,-145.009 889.709,-138.068"/>
</g>
<!-- Node688 -->
<g id="node12" class="node"><title>Node688</title>
<g id="a_node12"><a xlink:href="../../db/df1/class_g_u_i_input_manager.html#a2f52a8c0b01fca8c55a954bdb7d2ab79" target="_top" xlink:title="GUIInputManager::mouseMoved">
<polygon fill="white" stroke="black" points="546,-300 546,-319 701,-319 701,-300 546,-300"/>
<text text-anchor="middle" x="623.5" y="-307" font-family="Helvetica,sans-Serif" font-size="10.00">GUIInputManager::mouseMoved</text>
</a>
</g>
</g>
<!-- Node687&#45;&gt;Node688 -->
<g id="edge11" class="edge"><title>Node687&#45;&gt;Node688</title>
<path fill="none" stroke="midnightblue" d="M463.795,-265.448C485.524,-273.275 514.183,-283.129 540,-290.5 552.013,-293.93 565.144,-297.177 577.326,-299.984"/>
<polygon fill="midnightblue" stroke="midnightblue" points="464.927,-262.136 454.333,-262.011 462.537,-268.715 464.927,-262.136"/>
</g>
<!-- Node689 -->
<g id="node13" class="node"><title>Node689</title>
<g id="a_node13"><a xlink:href="../../db/df1/class_g_u_i_input_manager.html#a2e10c3db1bd7068fc87476ce1cceb7c6" target="_top" xlink:title="GUIInputManager::mousePressed">
<polygon fill="white" stroke="black" points="542,-262 542,-281 705,-281 705,-262 542,-262"/>
<text text-anchor="middle" x="623.5" y="-269" font-family="Helvetica,sans-Serif" font-size="10.00">GUIInputManager::mousePressed</text>
</a>
</g>
</g>
<!-- Node687&#45;&gt;Node689 -->
<g id="edge13" class="edge"><title>Node687&#45;&gt;Node689</title>
<path fill="none" stroke="midnightblue" d="M514.291,-260.875C523.395,-261.769 532.635,-262.676 541.684,-263.565"/>
<polygon fill="midnightblue" stroke="midnightblue" points="514.383,-257.367 504.089,-259.873 513.699,-264.334 514.383,-257.367"/>
</g>
<!-- Node690 -->
<g id="node14" class="node"><title>Node690</title>
<g id="a_node14"><a xlink:href="../../db/df1/class_g_u_i_input_manager.html#a5f096906671c8b2fc404353cb0cc3cf4" target="_top" xlink:title="GUIInputManager::mouseReleased">
<polygon fill="white" stroke="black" points="540,-224 540,-243 707,-243 707,-224 540,-224"/>
<text text-anchor="middle" x="623.5" y="-231" font-family="Helvetica,sans-Serif" font-size="10.00">GUIInputManager::mouseReleased</text>
</a>
</g>
</g>
<!-- Node687&#45;&gt;Node690 -->
<g id="edge15" class="edge"><title>Node687&#45;&gt;Node690</title>
<path fill="none" stroke="midnightblue" d="M514.317,-244.123C522.764,-243.293 531.329,-242.452 539.749,-241.625"/>
<polygon fill="midnightblue" stroke="midnightblue" points="513.699,-240.666 504.089,-245.127 514.383,-247.633 513.699,-240.666"/>
</g>
<!-- Node688&#45;&gt;Node678 -->
<g id="edge12" class="edge"><title>Node688&#45;&gt;Node678</title>
<path fill="none" stroke="midnightblue" d="M681.79,-297.889C702.624,-293.667 726.303,-288.868 747.703,-284.531"/>
<polygon fill="midnightblue" stroke="midnightblue" points="680.92,-294.494 671.814,-299.911 682.31,-301.355 680.92,-294.494"/>
</g>
<!-- Node689&#45;&gt;Node678 -->
<g id="edge14" class="edge"><title>Node689&#45;&gt;Node678</title>
<path fill="none" stroke="midnightblue" d="M715.206,-271.5C726.24,-271.5 737.332,-271.5 747.867,-271.5"/>
<polygon fill="midnightblue" stroke="midnightblue" points="715.105,-268 705.105,-271.5 715.105,-275 715.105,-268"/>
</g>
<!-- Node690&#45;&gt;Node678 -->
<g id="edge16" class="edge"><title>Node690&#45;&gt;Node678</title>
<path fill="none" stroke="midnightblue" d="M681.79,-245.111C702.624,-249.333 726.303,-254.132 747.703,-258.469"/>
<polygon fill="midnightblue" stroke="midnightblue" points="682.31,-241.645 671.814,-243.089 680.92,-248.506 682.31,-241.645"/>
</g>
<!-- Node692 -->
<g id="node16" class="node"><title>Node692</title>
<g id="a_node16"><a xlink:href="../../d2/deb/class_ro_r_1_1_g_u_i_1_1_teleport_window.html#ac12c3b21c2d449c71b26173369aa3a38" target="_top" xlink:title="RoR::GUI::TeleportWindow\l::MinimapGotFocus">
<polygon fill="white" stroke="black" points="557,-49.5 557,-79.5 690,-79.5 690,-49.5 557,-49.5"/>
<text text-anchor="start" x="565" y="-67.5" font-family="Helvetica,sans-Serif" font-size="10.00">RoR::GUI::TeleportWindow</text>
<text text-anchor="middle" x="623.5" y="-56.5" font-family="Helvetica,sans-Serif" font-size="10.00">::MinimapGotFocus</text>
</a>
</g>
</g>
<!-- Node691&#45;&gt;Node692 -->
<g id="edge19" class="edge"><title>Node691&#45;&gt;Node692</title>
<path fill="none" stroke="midnightblue" d="M498.304,-95.9502C519.553,-90.5694 542.727,-84.701 563.241,-79.5062"/>
<polygon fill="midnightblue" stroke="midnightblue" points="497.206,-92.6176 488.371,-98.4654 498.925,-99.4034 497.206,-92.6176"/>
</g>
<!-- Node694 -->
<g id="node18" class="node"><title>Node694</title>
<g id="a_node18"><a xlink:href="../../d2/deb/class_ro_r_1_1_g_u_i_1_1_teleport_window.html#af5ee78f38d36e527dcf15acba2c1645d" target="_top" xlink:title="RoR::GUI::TeleportWindow\l::MinimapLostFocus">
<polygon fill="white" stroke="black" points="557,-0.5 557,-30.5 690,-30.5 690,-0.5 557,-0.5"/>
<text text-anchor="start" x="565" y="-18.5" font-family="Helvetica,sans-Serif" font-size="10.00">RoR::GUI::TeleportWindow</text>
<text text-anchor="middle" x="623.5" y="-7.5" font-family="Helvetica,sans-Serif" font-size="10.00">::MinimapLostFocus</text>
</a>
</g>
</g>
<!-- Node691&#45;&gt;Node694 -->
<g id="edge21" class="edge"><title>Node691&#45;&gt;Node694</title>
<path fill="none" stroke="midnightblue" d="M495.585,-93.896C498.515,-92.2346 501.337,-90.4392 504,-88.5 525.844,-72.5911 517.852,-54.9838 540,-39.5 545.135,-35.9103 550.805,-32.8525 556.697,-30.2487"/>
<polygon fill="midnightblue" stroke="midnightblue" points="493.867,-90.8432 486.532,-98.4883 497.033,-97.086 493.867,-90.8432"/>
</g>
<!-- Node695 -->
<g id="node19" class="node"><title>Node695</title>
<g id="a_node19"><a xlink:href="../../d2/deb/class_ro_r_1_1_g_u_i_1_1_teleport_window.html#a243abfa71535acbec366933a9c08c33b" target="_top" xlink:title="RoR::GUI::TeleportWindow\l::EnableAltMode">
<polygon fill="white" stroke="black" points="557,-98.5 557,-128.5 690,-128.5 690,-98.5 557,-98.5"/>
<text text-anchor="start" x="565" y="-116.5" font-family="Helvetica,sans-Serif" font-size="10.00">RoR::GUI::TeleportWindow</text>
<text text-anchor="middle" x="623.5" y="-105.5" font-family="Helvetica,sans-Serif" font-size="10.00">::EnableAltMode</text>
</a>
</g>
</g>
<!-- Node691&#45;&gt;Node695 -->
<g id="edge23" class="edge"><title>Node691&#45;&gt;Node695</title>
<path fill="none" stroke="midnightblue" d="M504.53,-113.5C521.763,-113.5 539.941,-113.5 556.728,-113.5"/>
<polygon fill="midnightblue" stroke="midnightblue" points="504.51,-110 494.51,-113.5 504.51,-117 504.51,-110"/>
</g>
<!-- Node693 -->
<g id="node17" class="node"><title>Node693</title>
<g id="a_node17"><a xlink:href="../../d2/deb/class_ro_r_1_1_g_u_i_1_1_teleport_window.html#a09839bd0d122825f6ae2fbd75cd8bfcb" target="_top" xlink:title="RoR::GUI::TeleportWindow\l::TeleportWindow">
<polygon fill="white" stroke="black" points="746.5,-19.5 746.5,-49.5 879.5,-49.5 879.5,-19.5 746.5,-19.5"/>
<text text-anchor="start" x="754.5" y="-37.5" font-family="Helvetica,sans-Serif" font-size="10.00">RoR::GUI::TeleportWindow</text>
<text text-anchor="middle" x="813" y="-26.5" font-family="Helvetica,sans-Serif" font-size="10.00">::TeleportWindow</text>
</a>
</g>
</g>
<!-- Node692&#45;&gt;Node693 -->
<g id="edge20" class="edge"><title>Node692&#45;&gt;Node693</title>
<path fill="none" stroke="midnightblue" d="M700.061,-52.4102C715.428,-49.9515 731.474,-47.3842 746.459,-44.9866"/>
<polygon fill="midnightblue" stroke="midnightblue" points="699.4,-48.9714 690.078,-54.0075 700.506,-55.8835 699.4,-48.9714"/>
</g>
<!-- Node694&#45;&gt;Node693 -->
<g id="edge22" class="edge"><title>Node694&#45;&gt;Node693</title>
<path fill="none" stroke="midnightblue" d="M700.061,-23.1568C715.428,-24.7141 731.474,-26.34 746.459,-27.8585"/>
<polygon fill="midnightblue" stroke="midnightblue" points="700.38,-19.6714 690.078,-22.1453 699.675,-26.6357 700.38,-19.6714"/>
</g>
<!-- Node696 -->
<g id="node20" class="node"><title>Node696</title>
<g id="a_node20"><a xlink:href="../../d2/deb/class_ro_r_1_1_g_u_i_1_1_teleport_window.html#a0068aab5f9d3800bb3e082509403e326" target="_top" xlink:title="RoR::GUI::TeleportWindow\l::TeleportWindowFrameStep">
<polygon fill="white" stroke="black" points="743,-87.5 743,-117.5 883,-117.5 883,-87.5 743,-87.5"/>
<text text-anchor="start" x="751" y="-105.5" font-family="Helvetica,sans-Serif" font-size="10.00">RoR::GUI::TeleportWindow</text>
<text text-anchor="middle" x="813" y="-94.5" font-family="Helvetica,sans-Serif" font-size="10.00">::TeleportWindowFrameStep</text>
</a>
</g>
</g>
<!-- Node695&#45;&gt;Node696 -->
<g id="edge24" class="edge"><title>Node695&#45;&gt;Node696</title>
<path fill="none" stroke="midnightblue" d="M700.241,-109.057C714.362,-108.228 729.049,-107.366 742.956,-106.551"/>
<polygon fill="midnightblue" stroke="midnightblue" points="699.856,-105.573 690.078,-109.653 700.266,-112.561 699.856,-105.573"/>
</g>
<!-- Node696&#45;&gt;Node684 -->
<g id="edge25" class="edge"><title>Node696&#45;&gt;Node684</title>
<path fill="none" stroke="midnightblue" d="M893.093,-113.276C904.549,-114.836 916.274,-116.434 927.535,-117.968"/>
<polygon fill="midnightblue" stroke="midnightblue" points="893.493,-109.798 883.112,-111.916 892.548,-116.734 893.493,-109.798"/>
</g>
</g>
</svg>
        <g id="navigator" transform="translate(0 0)" fill="#404254">
                <rect fill="#f2f5e9" fill-opacity="0.5" stroke="#606060" stroke-width=".5" x="0" y="0" width="60" height="60"/>
                <use id="zoomplus" xlink:href="#zoomPlus" x="17" y="9" onmousedown="handleZoom(evt,'in')"/>
                <use id="zoomminus" xlink:href="#zoomMin" x="42" y="9" onmousedown="handleZoom(evt,'out')"/>
                <use id="reset" xlink:href="#resetDef" x="30" y="36" onmousedown="handleReset()"/>
                <g id="arrowUp" xlink:href="#dirArrow" transform="translate(30 24)" onmousedown="handlePan(0,-1)">
                  <use xlink:href="#rim" fill="#404040">
                        <set attributeName="fill" to="#808080" begin="arrowUp.mouseover" end="arrowUp.mouseout"/>
                  </use>
                  <path fill="none" stroke="white" stroke-width="1.5" d="M0,-3.0v7 M-2.5,-0.5L0,-3.0L2.5,-0.5"/>
                </g>
                <g id="arrowRight" xlink:href="#dirArrow" transform="rotate(90) translate(36 -43)" onmousedown="handlePan(1,0)">
                  <use xlink:href="#rim" fill="#404040">
                        <set attributeName="fill" to="#808080" begin="arrowRight.mouseover" end="arrowRight.mouseout"/>
                  </use>
                  <path fill="none" stroke="white" stroke-width="1.5" d="M0,-3.0v7 M-2.5,-0.5L0,-3.0L2.5,-0.5"/>
                </g>
                <g id="arrowDown" xlink:href="#dirArrow" transform="rotate(180) translate(-30 -48)" onmousedown="handlePan(0,1)">
                  <use xlink:href="#rim" fill="#404040">
                        <set attributeName="fill" to="#808080" begin="arrowDown.mouseover" end="arrowDown.mouseout"/>
                  </use>
                  <path fill="none" stroke="white" stroke-width="1.5" d="M0,-3.0v7 M-2.5,-0.5L0,-3.0L2.5,-0.5"/>
                </g>
                <g id="arrowLeft" xlink:href="#dirArrow" transform="rotate(270) translate(-36 17)" onmousedown="handlePan(-1,0)">
                  <use xlink:href="#rim" fill="#404040">
                        <set attributeName="fill" to="#808080" begin="arrowLeft.mouseover" end="arrowLeft.mouseout"/>
                  </use>
                  <path fill="none" stroke="white" stroke-width="1.5" d="M0,-3.0v7 M-2.5,-0.5L0,-3.0L2.5,-0.5"/>
                </g>
        </g>
        <svg viewBox="0 0 15 15" width="100%" height="30px" preserveAspectRatio="xMaxYMin meet">
         <g id="arrow_out" transform="scale(0.3 0.3)">
          <a xlink:href="class_g_u_i_input_manager_a9ca9e7863ca969e2b40c1e4a05e6e501_icgraph_org.svg" target="_base">
           <rect id="button" ry="5" rx="5" y="6" x="6" height="38" width="38"
                fill="#f2f5e9" fill-opacity="0.5" stroke="#606060" stroke-width="1.0"/>
           <path id="arrow"
             d="M 11.500037,31.436501 C 11.940474,20.09759 22.043105,11.32322 32.158766,21.979434 L 37.068811,17.246167 C 37.068811,17.246167 37.088388,32 37.088388,32 L 22.160133,31.978069 C 22.160133,31.978069 26.997745,27.140456 26.997745,27.140456 C 18.528582,18.264221 13.291696,25.230495 11.500037,31.436501 z"
             style="fill:#404040;"/>
          </a>
         </g>
        </svg>
</svg>
