<?xml version="1.0" encoding="UTF-8" standalone="no"?>
<!DOCTYPE svg PUBLIC "-//W3C//DTD SVG 1.1//EN"
 "http://www.w3.org/Graphics/SVG/1.1/DTD/svg11.dtd">
<!-- Generated by graphviz version 2.38.0 (20140413.2041)
 -->
<!-- Title: GUIInputManager::keyPressed Pages: 1 -->
<!--zoomable 218 -->
<svg id="main" version="1.1" xmlns="http://www.w3.org/2000/svg" xmlns:xlink="http://www.w3.org/1999/xlink" xml:space="preserve" onload="init(evt)">
<style type="text/css"><![CDATA[
.edge:hover path { stroke: red; }
.edge:hover polygon { stroke: red; fill: red; }
]]></style>
<script type="text/javascript"><![CDATA[
var edges = document.getElementsByTagName('g');
if (edges && edges.length) {
  for (var i=0;i<edges.length;i++) {
    if (edges[i].id.substr(0,4)=='edge') {
      edges[i].setAttribute('class','edge');
    }
  }
}
]]></script>
        <defs>
                <circle id="rim" cx="0" cy="0" r="7"/>
                <circle id="rim2" cx="0" cy="0" r="3.5"/>
                <g id="zoomPlus">
                        <use xlink:href="#rim" fill="#404040">
                                <set attributeName="fill" to="#808080" begin="zoomplus.mouseover" end="zoomplus.mouseout"/>
                        </use>
                        <path d="M-4,0h8M0,-4v8" fill="none" stroke="white" stroke-width="1.5" pointer-events="none"/>
                </g>
                <g id="zoomMin">
                        <use xlink:href="#rim" fill="#404040">
                                <set attributeName="fill" to="#808080" begin="zoomminus.mouseover" end="zoomminus.mouseout"/>
                        </use>
                        <path d="M-4,0h8" fill="none" stroke="white" stroke-width="1.5" pointer-events="none"/>
                </g>
                <g id="dirArrow">
                        <path fill="none" stroke="white" stroke-width="1.5" d="M0,-3.0v7 M-2.5,-0.5L0,-3.0L2.5,-0.5"/>
                </g>
               <g id="resetDef">
                       <use xlink:href="#rim2" fill="#404040">
                               <set attributeName="fill" to="#808080" begin="reset.mouseover" end="reset.mouseout"/>
                       </use>
               </g>
        </defs>

<script type="text/javascript">
var viewWidth = 621;
var viewHeight = 218;
var sectionId = 'dynsection-4';
</script>
<script xlink:href="../../svgpan.js"/>
<svg id="graph" class="graph">
<g id="viewport">
<title>GUIInputManager::keyPressed</title>
<polygon fill="white" stroke="none" points="-4,4 -4,-214 617,-214 617,4 -4,4"/>
<!-- Node227 -->
<g id="node1" class="node"><title>Node227</title>
<polygon fill="#bfbfbf" stroke="black" points="0,-95.5 0,-114.5 149,-114.5 149,-95.5 0,-95.5"/>
<text text-anchor="middle" x="74.5" y="-102.5" font-family="Helvetica,sans-Serif" font-size="10.00">GUIInputManager::keyPressed</text>
</g>
<!-- Node228 -->
<g id="node2" class="node"><title>Node228</title>
<g id="a_node2"><a xlink:href="../../df/d86/namespace_ro_r_1_1_app.html#a68d6403d2b36006a6fa2d28f5ba8f12f" target="_top" xlink:title="RoR::App::GetGuiManager">
<polygon fill="white" stroke="black" points="196.5,-190.5 196.5,-209.5 329.5,-209.5 329.5,-190.5 196.5,-190.5"/>
<text text-anchor="middle" x="263" y="-197.5" font-family="Helvetica,sans-Serif" font-size="10.00">RoR::App::GetGuiManager</text>
</a>
</g>
</g>
<!-- Node227&#45;&gt;Node228 -->
<g id="edge1" class="edge"><title>Node227&#45;&gt;Node228</title>
<path fill="none" stroke="midnightblue" d="M86.4818,-114.704C105.314,-130.844 145.565,-163.184 185,-181 190.386,-183.433 196.13,-185.585 201.961,-187.48"/>
<polygon fill="midnightblue" stroke="midnightblue" points="201.225,-190.913 211.809,-190.434 203.236,-184.208 201.225,-190.913"/>
</g>
<!-- Node229 -->
<g id="node3" class="node"><title>Node229</title>
<g id="a_node3"><a xlink:href="../../d8/d11/class_ro_r_1_1_g_u_i_manager.html#ad563ee2d7164fa980f0b01d9dadf12c2" target="_top" xlink:title="RoR::GUIManager::GetImGui">
<polygon fill="white" stroke="black" points="191.5,-152.5 191.5,-171.5 334.5,-171.5 334.5,-152.5 191.5,-152.5"/>
<text text-anchor="middle" x="263" y="-159.5" font-family="Helvetica,sans-Serif" font-size="10.00">RoR::GUIManager::GetImGui</text>
</a>
</g>
</g>
<!-- Node227&#45;&gt;Node229 -->
<g id="edge2" class="edge"><title>Node227&#45;&gt;Node229</title>
<path fill="none" stroke="midnightblue" d="M100.949,-114.579C123.004,-122.7 155.866,-134.37 185,-143 193.16,-145.417 201.869,-147.775 210.386,-149.961"/>
<polygon fill="midnightblue" stroke="midnightblue" points="209.699,-153.397 220.251,-152.441 211.406,-146.608 209.699,-153.397"/>
</g>
<!-- Node230 -->
<g id="node4" class="node"><title>Node230</title>
<g id="a_node4"><a xlink:href="../../d5/d56/class_ogre_im_gui.html#a8a76c52f92d57d9a52f1f6d8e6513418" target="_top" xlink:title="OgreImGui::InjectKeyPressed">
<polygon fill="white" stroke="black" points="190,-114.5 190,-133.5 336,-133.5 336,-114.5 190,-114.5"/>
<text text-anchor="middle" x="263" y="-121.5" font-family="Helvetica,sans-Serif" font-size="10.00">OgreImGui::InjectKeyPressed</text>
</a>
</g>
</g>
<!-- Node227&#45;&gt;Node230 -->
<g id="edge3" class="edge"><title>Node227&#45;&gt;Node230</title>
<path fill="none" stroke="midnightblue" d="M149.21,-112.509C159.213,-113.528 169.531,-114.58 179.674,-115.613"/>
<polygon fill="midnightblue" stroke="midnightblue" points="179.437,-119.107 189.74,-116.638 180.146,-112.143 179.437,-119.107"/>
</g>
<!-- Node234 -->
<g id="node8" class="node"><title>Node234</title>
<g id="a_node8"><a xlink:href="../../dc/d7e/_g_u_i_input_manager_8cpp.html#a601a7f704723f1fbda580cd0e37ca3b4" target="_top" xlink:title="translateWin32Text">
<polygon fill="white" stroke="black" points="212.5,-76.5 212.5,-95.5 313.5,-95.5 313.5,-76.5 212.5,-76.5"/>
<text text-anchor="middle" x="263" y="-83.5" font-family="Helvetica,sans-Serif" font-size="10.00">translateWin32Text</text>
</a>
</g>
</g>
<!-- Node227&#45;&gt;Node234 -->
<g id="edge7" class="edge"><title>Node227&#45;&gt;Node234</title>
<path fill="none" stroke="midnightblue" d="M149.21,-97.4907C166.748,-95.704 185.251,-93.8189 202.085,-92.1039"/>
<polygon fill="midnightblue" stroke="midnightblue" points="202.734,-95.556 212.328,-91.0605 202.024,-88.5921 202.734,-95.556"/>
</g>
<!-- Node235 -->
<g id="node9" class="node"><title>Node235</title>
<g id="a_node9"><a xlink:href="../../df/d86/namespace_ro_r_1_1_app.html#a9cf485c85535821ad3aaf98c65263abd" target="_top" xlink:title="RoR::App::GetSceneMouse">
<polygon fill="white" stroke="black" points="194.5,-38.5 194.5,-57.5 331.5,-57.5 331.5,-38.5 194.5,-38.5"/>
<text text-anchor="middle" x="263" y="-45.5" font-family="Helvetica,sans-Serif" font-size="10.00">RoR::App::GetSceneMouse</text>
</a>
</g>
</g>
<!-- Node227&#45;&gt;Node235 -->
<g id="edge8" class="edge"><title>Node227&#45;&gt;Node235</title>
<path fill="none" stroke="midnightblue" d="M100.949,-95.4213C123.004,-87.2998 155.866,-75.6297 185,-67 193.16,-64.5828 201.869,-62.2252 210.386,-60.0393"/>
<polygon fill="midnightblue" stroke="midnightblue" points="211.406,-63.3917 220.251,-57.5588 209.699,-56.603 211.406,-63.3917"/>
</g>
<!-- Node236 -->
<g id="node10" class="node"><title>Node236</title>
<g id="a_node10"><a xlink:href="../../d7/d9d/class_ro_r_1_1_scene_mouse.html#a3757d5a1559a58aa191a08ded0068d5c" target="_top" xlink:title="RoR::SceneMouse::keyPressed">
<polygon fill="white" stroke="black" points="185,-0.5 185,-19.5 341,-19.5 341,-0.5 185,-0.5"/>
<text text-anchor="middle" x="263" y="-7.5" font-family="Helvetica,sans-Serif" font-size="10.00">RoR::SceneMouse::keyPressed</text>
</a>
</g>
</g>
<!-- Node227&#45;&gt;Node236 -->
<g id="edge9" class="edge"><title>Node227&#45;&gt;Node236</title>
<path fill="none" stroke="midnightblue" d="M86.4818,-95.2955C105.314,-79.1562 145.565,-46.8158 185,-29 190.386,-26.5668 196.13,-24.4155 201.961,-22.5198"/>
<polygon fill="midnightblue" stroke="midnightblue" points="203.236,-25.7916 211.809,-19.5664 201.225,-19.0867 203.236,-25.7916"/>
</g>
<!-- Node231 -->
<g id="node5" class="node"><title>Node231</title>
<g id="a_node5"><a xlink:href="../../df/d13/namespace_im_gui.html#a3179e560812f878f3961ce803a5d9302" target="_top" xlink:title="ImGui::GetIO">
<polygon fill="white" stroke="black" points="409,-133.5 409,-152.5 483,-152.5 483,-133.5 409,-133.5"/>
<text text-anchor="middle" x="446" y="-140.5" font-family="Helvetica,sans-Serif" font-size="10.00">ImGui::GetIO</text>
</a>
</g>
</g>
<!-- Node230&#45;&gt;Node231 -->
<g id="edge4" class="edge"><title>Node230&#45;&gt;Node231</title>
<path fill="none" stroke="midnightblue" d="M336.056,-131.564C357.184,-133.782 379.712,-136.147 398.767,-138.147"/>
<polygon fill="midnightblue" stroke="midnightblue" points="398.654,-141.654 408.965,-139.217 399.385,-134.692 398.654,-141.654"/>
</g>
<!-- Node232 -->
<g id="node6" class="node"><title>Node232</title>
<g id="a_node6"><a xlink:href="../../d5/dbc/struct_im_gui_i_o.html#a52b6bdef9278de5ae2031311a269cf14" target="_top" xlink:title="ImGuiIO::AddInputCharacter">
<polygon fill="white" stroke="black" points="377,-95.5 377,-114.5 515,-114.5 515,-95.5 377,-95.5"/>
<text text-anchor="middle" x="446" y="-102.5" font-family="Helvetica,sans-Serif" font-size="10.00">ImGuiIO::AddInputCharacter</text>
</a>
</g>
</g>
<!-- Node230&#45;&gt;Node232 -->
<g id="edge5" class="edge"><title>Node230&#45;&gt;Node232</title>
<path fill="none" stroke="midnightblue" d="M336.056,-116.436C346.112,-115.381 356.484,-114.292 366.649,-113.225"/>
<polygon fill="midnightblue" stroke="midnightblue" points="367.145,-116.692 376.725,-112.167 366.414,-109.73 367.145,-116.692"/>
</g>
<!-- Node233 -->
<g id="node7" class="node"><title>Node233</title>
<g id="a_node7"><a xlink:href="../../da/d72/imgui_8cpp.html#a66b44f8391ea7cba388700e4991a4859" target="_top" xlink:title="ImStrlenW">
<polygon fill="white" stroke="black" points="551,-95.5 551,-114.5 613,-114.5 613,-95.5 551,-95.5"/>
<text text-anchor="middle" x="582" y="-102.5" font-family="Helvetica,sans-Serif" font-size="10.00">ImStrlenW</text>
</a>
</g>
</g>
<!-- Node232&#45;&gt;Node233 -->
<g id="edge6" class="edge"><title>Node232&#45;&gt;Node233</title>
<path fill="none" stroke="midnightblue" d="M515.178,-105C523.899,-105 532.594,-105 540.67,-105"/>
<polygon fill="midnightblue" stroke="midnightblue" points="540.882,-108.5 550.882,-105 540.882,-101.5 540.882,-108.5"/>
</g>
</g>
</svg>
        <g id="navigator" transform="translate(0 0)" fill="#404254">
                <rect fill="#f2f5e9" fill-opacity="0.5" stroke="#606060" stroke-width=".5" x="0" y="0" width="60" height="60"/>
                <use id="zoomplus" xlink:href="#zoomPlus" x="17" y="9" onmousedown="handleZoom(evt,'in')"/>
                <use id="zoomminus" xlink:href="#zoomMin" x="42" y="9" onmousedown="handleZoom(evt,'out')"/>
                <use id="reset" xlink:href="#resetDef" x="30" y="36" onmousedown="handleReset()"/>
                <g id="arrowUp" xlink:href="#dirArrow" transform="translate(30 24)" onmousedown="handlePan(0,-1)">
                  <use xlink:href="#rim" fill="#404040">
                        <set attributeName="fill" to="#808080" begin="arrowUp.mouseover" end="arrowUp.mouseout"/>
                  </use>
                  <path fill="none" stroke="white" stroke-width="1.5" d="M0,-3.0v7 M-2.5,-0.5L0,-3.0L2.5,-0.5"/>
                </g>
                <g id="arrowRight" xlink:href="#dirArrow" transform="rotate(90) translate(36 -43)" onmousedown="handlePan(1,0)">
                  <use xlink:href="#rim" fill="#404040">
                        <set attributeName="fill" to="#808080" begin="arrowRight.mouseover" end="arrowRight.mouseout"/>
                  </use>
                  <path fill="none" stroke="white" stroke-width="1.5" d="M0,-3.0v7 M-2.5,-0.5L0,-3.0L2.5,-0.5"/>
                </g>
                <g id="arrowDown" xlink:href="#dirArrow" transform="rotate(180) translate(-30 -48)" onmousedown="handlePan(0,1)">
                  <use xlink:href="#rim" fill="#404040">
                        <set attributeName="fill" to="#808080" begin="arrowDown.mouseover" end="arrowDown.mouseout"/>
                  </use>
                  <path fill="none" stroke="white" stroke-width="1.5" d="M0,-3.0v7 M-2.5,-0.5L0,-3.0L2.5,-0.5"/>
                </g>
                <g id="arrowLeft" xlink:href="#dirArrow" transform="rotate(270) translate(-36 17)" onmousedown="handlePan(-1,0)">
                  <use xlink:href="#rim" fill="#404040">
                        <set attributeName="fill" to="#808080" begin="arrowLeft.mouseover" end="arrowLeft.mouseout"/>
                  </use>
                  <path fill="none" stroke="white" stroke-width="1.5" d="M0,-3.0v7 M-2.5,-0.5L0,-3.0L2.5,-0.5"/>
                </g>
        </g>
        <svg viewBox="0 0 15 15" width="100%" height="30px" preserveAspectRatio="xMaxYMin meet">
         <g id="arrow_out" transform="scale(0.3 0.3)">
          <a xlink:href="class_g_u_i_input_manager_a4c3aeb879697d033b9c34fb3500fa1d5_cgraph_org.svg" target="_base">
           <rect id="button" ry="5" rx="5" y="6" x="6" height="38" width="38"
                fill="#f2f5e9" fill-opacity="0.5" stroke="#606060" stroke-width="1.0"/>
           <path id="arrow"
             d="M 11.500037,31.436501 C 11.940474,20.09759 22.043105,11.32322 32.158766,21.979434 L 37.068811,17.246167 C 37.068811,17.246167 37.088388,32 37.088388,32 L 22.160133,31.978069 C 22.160133,31.978069 26.997745,27.140456 26.997745,27.140456 C 18.528582,18.264221 13.291696,25.230495 11.500037,31.436501 z"
             style="fill:#404040;"/>
          </a>
         </g>
        </svg>
</svg>
