<?xml version="1.0" encoding="UTF-8" standalone="no"?>
<!DOCTYPE svg PUBLIC "-//W3C//DTD SVG 1.1//EN"
 "http://www.w3.org/Graphics/SVG/1.1/DTD/svg11.dtd">
<!-- Generated by graphviz version 2.38.0 (20140413.2041)
 -->
<!-- Title: GUIInputManager::setInputViewSize Pages: 1 -->
<!--zoomable 116 -->
<svg id="main" version="1.1" xmlns="http://www.w3.org/2000/svg" xmlns:xlink="http://www.w3.org/1999/xlink" xml:space="preserve" onload="init(evt)">
<style type="text/css"><![CDATA[
.edge:hover path { stroke: red; }
.edge:hover polygon { stroke: red; fill: red; }
]]></style>
<script type="text/javascript"><![CDATA[
var edges = document.getElementsByTagName('g');
if (edges && edges.length) {
  for (var i=0;i<edges.length;i++) {
    if (edges[i].id.substr(0,4)=='edge') {
      edges[i].setAttribute('class','edge');
    }
  }
}
]]></script>
        <defs>
                <circle id="rim" cx="0" cy="0" r="7"/>
                <circle id="rim2" cx="0" cy="0" r="3.5"/>
                <g id="zoomPlus">
                        <use xlink:href="#rim" fill="#404040">
                                <set attributeName="fill" to="#808080" begin="zoomplus.mouseover" end="zoomplus.mouseout"/>
                        </use>
                        <path d="M-4,0h8M0,-4v8" fill="none" stroke="white" stroke-width="1.5" pointer-events="none"/>
                </g>
                <g id="zoomMin">
                        <use xlink:href="#rim" fill="#404040">
                                <set attributeName="fill" to="#808080" begin="zoomminus.mouseover" end="zoomminus.mouseout"/>
                        </use>
                        <path d="M-4,0h8" fill="none" stroke="white" stroke-width="1.5" pointer-events="none"/>
                </g>
                <g id="dirArrow">
                        <path fill="none" stroke="white" stroke-width="1.5" d="M0,-3.0v7 M-2.5,-0.5L0,-3.0L2.5,-0.5"/>
                </g>
               <g id="resetDef">
                       <use xlink:href="#rim2" fill="#404040">
                               <set attributeName="fill" to="#808080" begin="reset.mouseover" end="reset.mouseout"/>
                       </use>
               </g>
        </defs>

<script type="text/javascript">
var viewWidth = 946;
var viewHeight = 116;
var sectionId = 'dynsection-15';
</script>
<script xlink:href="../../svgpan.js"/>
<svg id="graph" class="graph">
<g id="viewport">
<title>GUIInputManager::setInputViewSize</title>
<polygon fill="white" stroke="none" points="-4,4 -4,-111.5 942,-111.5 942,4 -4,4"/>
<!-- Node664 -->
<g id="node1" class="node"><title>Node664</title>
<polygon fill="#bfbfbf" stroke="black" points="0,-52 0,-82 132,-82 132,-52 0,-52"/>
<text text-anchor="start" x="8" y="-70" font-family="Helvetica,sans-Serif" font-size="10.00">GUIInputManager::setInput</text>
<text text-anchor="middle" x="66" y="-59" font-family="Helvetica,sans-Serif" font-size="10.00">ViewSize</text>
</g>
<!-- Node665 -->
<g id="node2" class="node"><title>Node665</title>
<g id="a_node2"><a xlink:href="../../d8/d11/class_ro_r_1_1_g_u_i_manager.html#a383e4098572ae987a16b794ae3f504bd" target="_top" xlink:title="RoR::GUIManager::windowResized">
<polygon fill="white" stroke="black" points="168,-57.5 168,-76.5 336,-76.5 336,-57.5 168,-57.5"/>
<text text-anchor="middle" x="252" y="-64.5" font-family="Helvetica,sans-Serif" font-size="10.00">RoR::GUIManager::windowResized</text>
</a>
</g>
</g>
<!-- Node664&#45;&gt;Node665 -->
<g id="edge1" class="edge"><title>Node664&#45;&gt;Node665</title>
<path fill="none" stroke="midnightblue" d="M142.307,-67C150.746,-67 159.378,-67 167.907,-67"/>
<polygon fill="midnightblue" stroke="midnightblue" points="142.13,-63.5001 132.13,-67 142.13,-70.5001 142.13,-63.5001"/>
</g>
<!-- Node666 -->
<g id="node3" class="node"><title>Node666</title>
<g id="a_node3"><a xlink:href="../../d8/d11/class_ro_r_1_1_g_u_i_manager.html#a35dc350dea57ef0356030eb1b47485b5" target="_top" xlink:title="RoR::GUIManager::GUIManager">
<polygon fill="white" stroke="black" points="372,-76.5 372,-95.5 527,-95.5 527,-76.5 372,-76.5"/>
<text text-anchor="middle" x="449.5" y="-83.5" font-family="Helvetica,sans-Serif" font-size="10.00">RoR::GUIManager::GUIManager</text>
</a>
</g>
</g>
<!-- Node665&#45;&gt;Node666 -->
<g id="edge2" class="edge"><title>Node665&#45;&gt;Node666</title>
<path fill="none" stroke="midnightblue" d="M346.243,-76.062C354.835,-76.897 363.475,-77.7367 371.894,-78.5549"/>
<polygon fill="midnightblue" stroke="midnightblue" points="346.485,-72.5691 336.193,-75.0853 345.808,-79.5362 346.485,-72.5691"/>
</g>
<!-- Node667 -->
<g id="node4" class="node"><title>Node667</title>
<g id="a_node4"><a xlink:href="../../d3/d7b/class_input_engine.html#aa85ec07499919e7de34d3de44c869875" target="_top" xlink:title="InputEngine::windowResized">
<polygon fill="white" stroke="black" points="379.5,-38.5 379.5,-57.5 519.5,-57.5 519.5,-38.5 379.5,-38.5"/>
<text text-anchor="middle" x="449.5" y="-45.5" font-family="Helvetica,sans-Serif" font-size="10.00">InputEngine::windowResized</text>
</a>
</g>
</g>
<!-- Node665&#45;&gt;Node667 -->
<g id="edge3" class="edge"><title>Node665&#45;&gt;Node667</title>
<path fill="none" stroke="midnightblue" d="M346.331,-57.9294C357.412,-56.8526 368.568,-55.7683 379.229,-54.7322"/>
<polygon fill="midnightblue" stroke="midnightblue" points="345.808,-54.4638 336.193,-58.9147 346.485,-61.4309 345.808,-54.4638"/>
</g>
<!-- Node668 -->
<g id="node5" class="node"><title>Node668</title>
<g id="a_node5"><a xlink:href="../../dd/dbe/class_ro_r_frame_listener.html#a967b4a6d8650f6655e436dfeee0172b2" target="_top" xlink:title="RoRFrameListener::window\lResized">
<polygon fill="white" stroke="black" points="575,-77 575,-107 710,-107 710,-77 575,-77"/>
<text text-anchor="start" x="583" y="-95" font-family="Helvetica,sans-Serif" font-size="10.00">RoRFrameListener::window</text>
<text text-anchor="middle" x="642.5" y="-84" font-family="Helvetica,sans-Serif" font-size="10.00">Resized</text>
</a>
</g>
</g>
<!-- Node667&#45;&gt;Node668 -->
<g id="edge4" class="edge"><title>Node667&#45;&gt;Node668</title>
<path fill="none" stroke="midnightblue" d="M501.78,-59.8132C524.629,-65.0769 551.813,-71.3391 576.103,-76.9346"/>
<polygon fill="midnightblue" stroke="midnightblue" points="502.475,-56.3816 491.944,-57.5473 500.903,-63.203 502.475,-56.3816"/>
</g>
<!-- Node670 -->
<g id="node7" class="node"><title>Node670</title>
<g id="a_node7"><a xlink:href="../../df/d0a/main_8cpp.html#a0ddf1224851353fc92bfbff6f499fa97" target="_top" xlink:title="main">
<polygon fill="white" stroke="black" points="623.5,-38.5 623.5,-57.5 661.5,-57.5 661.5,-38.5 623.5,-38.5"/>
<text text-anchor="middle" x="642.5" y="-45.5" font-family="Helvetica,sans-Serif" font-size="10.00">main</text>
</a>
</g>
</g>
<!-- Node667&#45;&gt;Node670 -->
<g id="edge6" class="edge"><title>Node667&#45;&gt;Node670</title>
<path fill="none" stroke="midnightblue" d="M529.86,-48C564.432,-48 601.91,-48 623.457,-48"/>
<polygon fill="midnightblue" stroke="midnightblue" points="529.725,-44.5001 519.725,-48 529.725,-51.5001 529.725,-44.5001"/>
</g>
<!-- Node672 -->
<g id="node9" class="node"><title>Node672</title>
<g id="a_node9"><a xlink:href="../../d4/d14/class_ro_r_1_1_main_menu.html#a572fbb1febee0c5849cc2b16f650967d" target="_top" xlink:title="RoR::MainMenu::windowResized">
<polygon fill="white" stroke="black" points="563,-0.5 563,-19.5 722,-19.5 722,-0.5 563,-0.5"/>
<text text-anchor="middle" x="642.5" y="-7.5" font-family="Helvetica,sans-Serif" font-size="10.00">RoR::MainMenu::windowResized</text>
</a>
</g>
</g>
<!-- Node667&#45;&gt;Node672 -->
<g id="edge8" class="edge"><title>Node667&#45;&gt;Node672</title>
<path fill="none" stroke="midnightblue" d="M508.853,-36.3905C536.018,-30.986 567.932,-24.6365 593.649,-19.5201"/>
<polygon fill="midnightblue" stroke="midnightblue" points="507.822,-33.0269 498.697,-38.411 509.188,-39.8924 507.822,-33.0269"/>
</g>
<!-- Node669 -->
<g id="node6" class="node"><title>Node669</title>
<g id="a_node6"><a xlink:href="../../dd/dbe/class_ro_r_frame_listener.html#a3fc07ee118bafb7f186254c2a976f8bf" target="_top" xlink:title="RoRFrameListener::GetSkidmarkConf">
<polygon fill="white" stroke="black" points="758,-82.5 758,-101.5 938,-101.5 938,-82.5 758,-82.5"/>
<text text-anchor="middle" x="848" y="-89.5" font-family="Helvetica,sans-Serif" font-size="10.00">RoRFrameListener::GetSkidmarkConf</text>
</a>
</g>
</g>
<!-- Node668&#45;&gt;Node669 -->
<g id="edge5" class="edge"><title>Node668&#45;&gt;Node669</title>
<path fill="none" stroke="midnightblue" d="M720.253,-92C732.463,-92 745.184,-92 757.654,-92"/>
<polygon fill="midnightblue" stroke="midnightblue" points="720.134,-88.5001 710.134,-92 720.133,-95.5001 720.134,-88.5001"/>
</g>
<!-- Node671 -->
<g id="node8" class="node"><title>Node671</title>
<g id="a_node8"><a xlink:href="../../df/d0a/main_8cpp.html#a2922bc5d5c2d77a3020cfbf9df12aab0" target="_top" xlink:title="WinMain">
<polygon fill="white" stroke="black" points="820.5,-38.5 820.5,-57.5 875.5,-57.5 875.5,-38.5 820.5,-38.5"/>
<text text-anchor="middle" x="848" y="-45.5" font-family="Helvetica,sans-Serif" font-size="10.00">WinMain</text>
</a>
</g>
</g>
<!-- Node670&#45;&gt;Node671 -->
<g id="edge7" class="edge"><title>Node670&#45;&gt;Node671</title>
<path fill="none" stroke="midnightblue" d="M671.778,-48C711.154,-48 781.981,-48 820.425,-48"/>
<polygon fill="midnightblue" stroke="midnightblue" points="671.559,-44.5001 661.559,-48 671.559,-51.5001 671.559,-44.5001"/>
</g>
</g>
</svg>
        <g id="navigator" transform="translate(0 0)" fill="#404254">
                <rect fill="#f2f5e9" fill-opacity="0.5" stroke="#606060" stroke-width=".5" x="0" y="0" width="60" height="60"/>
                <use id="zoomplus" xlink:href="#zoomPlus" x="17" y="9" onmousedown="handleZoom(evt,'in')"/>
                <use id="zoomminus" xlink:href="#zoomMin" x="42" y="9" onmousedown="handleZoom(evt,'out')"/>
                <use id="reset" xlink:href="#resetDef" x="30" y="36" onmousedown="handleReset()"/>
                <g id="arrowUp" xlink:href="#dirArrow" transform="translate(30 24)" onmousedown="handlePan(0,-1)">
                  <use xlink:href="#rim" fill="#404040">
                        <set attributeName="fill" to="#808080" begin="arrowUp.mouseover" end="arrowUp.mouseout"/>
                  </use>
                  <path fill="none" stroke="white" stroke-width="1.5" d="M0,-3.0v7 M-2.5,-0.5L0,-3.0L2.5,-0.5"/>
                </g>
                <g id="arrowRight" xlink:href="#dirArrow" transform="rotate(90) translate(36 -43)" onmousedown="handlePan(1,0)">
                  <use xlink:href="#rim" fill="#404040">
                        <set attributeName="fill" to="#808080" begin="arrowRight.mouseover" end="arrowRight.mouseout"/>
                  </use>
                  <path fill="none" stroke="white" stroke-width="1.5" d="M0,-3.0v7 M-2.5,-0.5L0,-3.0L2.5,-0.5"/>
                </g>
                <g id="arrowDown" xlink:href="#dirArrow" transform="rotate(180) translate(-30 -48)" onmousedown="handlePan(0,1)">
                  <use xlink:href="#rim" fill="#404040">
                        <set attributeName="fill" to="#808080" begin="arrowDown.mouseover" end="arrowDown.mouseout"/>
                  </use>
                  <path fill="none" stroke="white" stroke-width="1.5" d="M0,-3.0v7 M-2.5,-0.5L0,-3.0L2.5,-0.5"/>
                </g>
                <g id="arrowLeft" xlink:href="#dirArrow" transform="rotate(270) translate(-36 17)" onmousedown="handlePan(-1,0)">
                  <use xlink:href="#rim" fill="#404040">
                        <set attributeName="fill" to="#808080" begin="arrowLeft.mouseover" end="arrowLeft.mouseout"/>
                  </use>
                  <path fill="none" stroke="white" stroke-width="1.5" d="M0,-3.0v7 M-2.5,-0.5L0,-3.0L2.5,-0.5"/>
                </g>
        </g>
        <svg viewBox="0 0 15 15" width="100%" height="30px" preserveAspectRatio="xMaxYMin meet">
         <g id="arrow_out" transform="scale(0.3 0.3)">
          <a xlink:href="class_g_u_i_input_manager_a5fde1d31061185a8cea4911ff2d56b61_icgraph_org.svg" target="_base">
           <rect id="button" ry="5" rx="5" y="6" x="6" height="38" width="38"
                fill="#f2f5e9" fill-opacity="0.5" stroke="#606060" stroke-width="1.0"/>
           <path id="arrow"
             d="M 11.500037,31.436501 C 11.940474,20.09759 22.043105,11.32322 32.158766,21.979434 L 37.068811,17.246167 C 37.068811,17.246167 37.088388,32 37.088388,32 L 22.160133,31.978069 C 22.160133,31.978069 26.997745,27.140456 26.997745,27.140456 C 18.528582,18.264221 13.291696,25.230495 11.500037,31.436501 z"
             style="fill:#404040;"/>
          </a>
         </g>
        </svg>
</svg>
