<?xml version="1.0" encoding="UTF-8" standalone="no"?>
<!DOCTYPE svg PUBLIC "-//W3C//DTD SVG 1.1//EN"
 "http://www.w3.org/Graphics/SVG/1.1/DTD/svg11.dtd">
<!-- Generated by graphviz version 2.38.0 (20140413.2041)
 -->
<!-- Title: RigSpawner::FinalizeRig Pages: 1 -->
<svg width="486pt" height="66pt"
 viewBox="0.00 0.00 486.00 66.00" xmlns="http://www.w3.org/2000/svg" xmlns:xlink="http://www.w3.org/1999/xlink">
<g id="graph0" class="graph" transform="scale(1 1) rotate(0) translate(4 62)">
<title>RigSpawner::FinalizeRig</title>
<polygon fill="white" stroke="none" points="-4,4 -4,-62 482,-62 482,4 -4,4"/>
<!-- Node300 -->
<g id="node1" class="node"><title>Node300</title>
<polygon fill="#bfbfbf" stroke="black" points="0,-19.5 0,-38.5 122,-38.5 122,-19.5 0,-19.5"/>
<text text-anchor="middle" x="61" y="-26.5" font-family="Helvetica,sans-Serif" font-size="10.00">RigSpawner::FinalizeRig</text>
</g>
<!-- Node301 -->
<g id="node2" class="node"><title>Node301</title>
<g id="a_node2"><a xlink:href="../../db/d35/class_rig_spawner.html#ad781548c6a3bba81b5c6a2d7096bef4e" target="_top" xlink:title="RigSpawner::SetCurrentKeyword">
<polygon fill="white" stroke="black" points="158,-38.5 158,-57.5 316,-57.5 316,-38.5 158,-38.5"/>
<text text-anchor="middle" x="237" y="-45.5" font-family="Helvetica,sans-Serif" font-size="10.00">RigSpawner::SetCurrentKeyword</text>
</a>
</g>
</g>
<!-- Node300&#45;&gt;Node301 -->
<g id="edge1" class="edge"><title>Node300&#45;&gt;Node301</title>
<path fill="none" stroke="midnightblue" d="M132.477,-36.6958C140.869,-37.6121 149.474,-38.5517 157.963,-39.4788"/>
<polygon fill="midnightblue" stroke="midnightblue" points="132.689,-33.1982 122.368,-35.592 131.929,-40.1569 132.689,-33.1982"/>
</g>
<!-- Node302 -->
<g id="node3" class="node"><title>Node302</title>
<g id="a_node3"><a xlink:href="../../db/d35/class_rig_spawner.html#a67da85dd09bd864df9dc924f6f2a7d49" target="_top" xlink:title="RigSpawner::SpawnRig">
<polygon fill="white" stroke="black" points="178,-0.5 178,-19.5 296,-19.5 296,-0.5 178,-0.5"/>
<text text-anchor="middle" x="237" y="-7.5" font-family="Helvetica,sans-Serif" font-size="10.00">RigSpawner::SpawnRig</text>
</a>
</g>
</g>
<!-- Node300&#45;&gt;Node302 -->
<g id="edge2" class="edge"><title>Node300&#45;&gt;Node302</title>
<path fill="none" stroke="midnightblue" d="M132.626,-21.288C147.631,-19.6494 163.311,-17.9373 177.791,-16.3561"/>
<polygon fill="midnightblue" stroke="midnightblue" points="131.929,-17.8431 122.368,-22.408 132.689,-24.8018 131.929,-17.8431"/>
</g>
<!-- Node303 -->
<g id="node4" class="node"><title>Node303</title>
<g id="a_node4"><a xlink:href="../../db/d35/class_rig_spawner.html#ac7a7f5955b466a52eb2507f435083b0b" target="_top" xlink:title="RigSpawner::RigSpawner">
<polygon fill="white" stroke="black" points="352,-0.5 352,-19.5 478,-19.5 478,-0.5 352,-0.5"/>
<text text-anchor="middle" x="415" y="-7.5" font-family="Helvetica,sans-Serif" font-size="10.00">RigSpawner::RigSpawner</text>
</a>
</g>
</g>
<!-- Node302&#45;&gt;Node303 -->
<g id="edge3" class="edge"><title>Node302&#45;&gt;Node303</title>
<path fill="none" stroke="midnightblue" d="M306.315,-10C321.263,-10 337.009,-10 351.707,-10"/>
<polygon fill="midnightblue" stroke="midnightblue" points="306.117,-6.5001 296.117,-10 306.117,-13.5001 306.117,-6.5001"/>
</g>
</g>
</svg>
