<?xml version="1.0" encoding="UTF-8" standalone="no"?>
<!DOCTYPE svg PUBLIC "-//W3C//DTD SVG 1.1//EN"
 "http://www.w3.org/Graphics/SVG/1.1/DTD/svg11.dtd">
<!-- Generated by graphviz version 2.38.0 (20140413.2041)
 -->
<!-- Title: RigSpawner::ProcessMeshWheel2 Pages: 1 -->
<svg width="491pt" height="28pt"
 viewBox="0.00 0.00 491.00 28.00" xmlns="http://www.w3.org/2000/svg" xmlns:xlink="http://www.w3.org/1999/xlink">
<g id="graph0" class="graph" transform="scale(1 1) rotate(0) translate(4 24)">
<title>RigSpawner::ProcessMeshWheel2</title>
<polygon fill="white" stroke="none" points="-4,4 -4,-24 487,-24 487,4 -4,4"/>
<!-- Node572 -->
<g id="node1" class="node"><title>Node572</title>
<polygon fill="#bfbfbf" stroke="black" points="0,-0.5 0,-19.5 167,-19.5 167,-0.5 0,-0.5"/>
<text text-anchor="middle" x="83.5" y="-7.5" font-family="Helvetica,sans-Serif" font-size="10.00">RigSpawner::ProcessMeshWheel2</text>
</g>
<!-- Node573 -->
<g id="node2" class="node"><title>Node573</title>
<g id="a_node2"><a xlink:href="../../db/d35/class_rig_spawner.html#a67da85dd09bd864df9dc924f6f2a7d49" target="_top" xlink:title="RigSpawner::SpawnRig">
<polygon fill="white" stroke="black" points="203,-0.5 203,-19.5 321,-19.5 321,-0.5 203,-0.5"/>
<text text-anchor="middle" x="262" y="-7.5" font-family="Helvetica,sans-Serif" font-size="10.00">RigSpawner::SpawnRig</text>
</a>
</g>
</g>
<!-- Node572&#45;&gt;Node573 -->
<g id="edge1" class="edge"><title>Node572&#45;&gt;Node573</title>
<path fill="none" stroke="midnightblue" d="M177.299,-10C186.01,-10 194.662,-10 202.914,-10"/>
<polygon fill="midnightblue" stroke="midnightblue" points="177.066,-6.5001 167.066,-10 177.065,-13.5001 177.066,-6.5001"/>
</g>
<!-- Node574 -->
<g id="node3" class="node"><title>Node574</title>
<g id="a_node3"><a xlink:href="../../db/d35/class_rig_spawner.html#ac7a7f5955b466a52eb2507f435083b0b" target="_top" xlink:title="RigSpawner::RigSpawner">
<polygon fill="white" stroke="black" points="357,-0.5 357,-19.5 483,-19.5 483,-0.5 357,-0.5"/>
<text text-anchor="middle" x="420" y="-7.5" font-family="Helvetica,sans-Serif" font-size="10.00">RigSpawner::RigSpawner</text>
</a>
</g>
</g>
<!-- Node573&#45;&gt;Node574 -->
<g id="edge2" class="edge"><title>Node573&#45;&gt;Node574</title>
<path fill="none" stroke="midnightblue" d="M331.363,-10C339.872,-10 348.536,-10 356.942,-10"/>
<polygon fill="midnightblue" stroke="midnightblue" points="331.089,-6.5001 321.089,-10 331.089,-13.5001 331.089,-6.5001"/>
</g>
</g>
</svg>
