<?xml version="1.0" encoding="UTF-8" standalone="no"?>
<!DOCTYPE svg PUBLIC "-//W3C//DTD SVG 1.1//EN"
 "http://www.w3.org/Graphics/SVG/1.1/DTD/svg11.dtd">
<!-- Generated by graphviz version 2.38.0 (20140413.2041)
 -->
<!-- Title: RigSpawner::ProcessManagedMaterial Pages: 1 -->
<svg width="323pt" height="137pt"
 viewBox="0.00 0.00 323.00 137.00" xmlns="http://www.w3.org/2000/svg" xmlns:xlink="http://www.w3.org/1999/xlink">
<g id="graph0" class="graph" transform="scale(1 1) rotate(0) translate(4 133)">
<title>RigSpawner::ProcessManagedMaterial</title>
<polygon fill="white" stroke="none" points="-4,4 -4,-133 319,-133 319,4 -4,4"/>
<!-- Node560 -->
<g id="node1" class="node"><title>Node560</title>
<polygon fill="#bfbfbf" stroke="black" points="0,-49.5 0,-79.5 150,-79.5 150,-49.5 0,-49.5"/>
<text text-anchor="start" x="8" y="-67.5" font-family="Helvetica,sans-Serif" font-size="10.00">RigSpawner::ProcessManaged</text>
<text text-anchor="middle" x="75" y="-56.5" font-family="Helvetica,sans-Serif" font-size="10.00">Material</text>
</g>
<!-- Node561 -->
<g id="node2" class="node"><title>Node561</title>
<g id="a_node2"><a xlink:href="../../df/db5/class_ro_r_1_1_ogre_subsystem.html#ae2fa22407ec624ee62a348021de98ea4" target="_top" xlink:title="RoR::OgreSubsystem\l::GetMaterialByName">
<polygon fill="white" stroke="black" points="194.5,-98.5 194.5,-128.5 306.5,-128.5 306.5,-98.5 194.5,-98.5"/>
<text text-anchor="start" x="202.5" y="-116.5" font-family="Helvetica,sans-Serif" font-size="10.00">RoR::OgreSubsystem</text>
<text text-anchor="middle" x="250.5" y="-105.5" font-family="Helvetica,sans-Serif" font-size="10.00">::GetMaterialByName</text>
</a>
</g>
</g>
<!-- Node560&#45;&gt;Node561 -->
<g id="edge1" class="edge"><title>Node560&#45;&gt;Node561</title>
<path fill="none" stroke="midnightblue" d="M129.471,-79.6014C147.531,-84.7019 167.859,-90.4429 186.581,-95.7305"/>
<polygon fill="midnightblue" stroke="midnightblue" points="185.63,-99.0987 196.205,-98.4484 187.533,-92.3622 185.63,-99.0987"/>
</g>
<!-- Node562 -->
<g id="node3" class="node"><title>Node562</title>
<g id="a_node3"><a xlink:href="../../dc/d34/struct_rig_def_1_1_managed_material.html#ac103fdc5fb34c014b05e4edbaa31e3e6" target="_top" xlink:title="RigDef::ManagedMaterial\l::HasDamagedDiffuseMap">
<polygon fill="white" stroke="black" points="186,-49.5 186,-79.5 315,-79.5 315,-49.5 186,-49.5"/>
<text text-anchor="start" x="194" y="-67.5" font-family="Helvetica,sans-Serif" font-size="10.00">RigDef::ManagedMaterial</text>
<text text-anchor="middle" x="250.5" y="-56.5" font-family="Helvetica,sans-Serif" font-size="10.00">::HasDamagedDiffuseMap</text>
</a>
</g>
</g>
<!-- Node560&#45;&gt;Node562 -->
<g id="edge2" class="edge"><title>Node560&#45;&gt;Node562</title>
<path fill="none" stroke="midnightblue" d="M150.083,-64.5C158.53,-64.5 167.14,-64.5 175.585,-64.5"/>
<polygon fill="midnightblue" stroke="midnightblue" points="175.781,-68.0001 185.781,-64.5 175.781,-61.0001 175.781,-68.0001"/>
</g>
<!-- Node563 -->
<g id="node4" class="node"><title>Node563</title>
<g id="a_node4"><a xlink:href="../../dc/d34/struct_rig_def_1_1_managed_material.html#a0a78525bf6a3ed403ad367f851d26a34" target="_top" xlink:title="RigDef::ManagedMaterial\l::HasSpecularMap">
<polygon fill="white" stroke="black" points="188,-0.5 188,-30.5 313,-30.5 313,-0.5 188,-0.5"/>
<text text-anchor="start" x="196" y="-18.5" font-family="Helvetica,sans-Serif" font-size="10.00">RigDef::ManagedMaterial</text>
<text text-anchor="middle" x="250.5" y="-7.5" font-family="Helvetica,sans-Serif" font-size="10.00">::HasSpecularMap</text>
</a>
</g>
</g>
<!-- Node560&#45;&gt;Node563 -->
<g id="edge3" class="edge"><title>Node560&#45;&gt;Node563</title>
<path fill="none" stroke="midnightblue" d="M129.471,-49.3986C147.531,-44.2981 167.859,-38.5571 186.581,-33.2695"/>
<polygon fill="midnightblue" stroke="midnightblue" points="187.533,-36.6378 196.205,-30.5516 185.63,-29.9013 187.533,-36.6378"/>
</g>
</g>
</svg>
