<?xml version="1.0" encoding="UTF-8" standalone="no"?>
<!DOCTYPE svg PUBLIC "-//W3C//DTD SVG 1.1//EN"
 "http://www.w3.org/Graphics/SVG/1.1/DTD/svg11.dtd">
<!-- Generated by graphviz version 2.38.0 (20140413.2041)
 -->
<!-- Title: RigSpawner::InitializeRig Pages: 1 -->
<svg width="488pt" height="66pt"
 viewBox="0.00 0.00 488.00 66.00" xmlns="http://www.w3.org/2000/svg" xmlns:xlink="http://www.w3.org/1999/xlink">
<g id="graph0" class="graph" transform="scale(1 1) rotate(0) translate(4 62)">
<title>RigSpawner::InitializeRig</title>
<polygon fill="white" stroke="none" points="-4,4 -4,-62 484,-62 484,4 -4,4"/>
<!-- Node406 -->
<g id="node1" class="node"><title>Node406</title>
<polygon fill="#bfbfbf" stroke="black" points="0,-19.5 0,-38.5 124,-38.5 124,-19.5 0,-19.5"/>
<text text-anchor="middle" x="62" y="-26.5" font-family="Helvetica,sans-Serif" font-size="10.00">RigSpawner::InitializeRig</text>
</g>
<!-- Node407 -->
<g id="node2" class="node"><title>Node407</title>
<g id="a_node2"><a xlink:href="../../db/d35/class_rig_spawner.html#ad781548c6a3bba81b5c6a2d7096bef4e" target="_top" xlink:title="RigSpawner::SetCurrentKeyword">
<polygon fill="white" stroke="black" points="160,-38.5 160,-57.5 318,-57.5 318,-38.5 160,-38.5"/>
<text text-anchor="middle" x="239" y="-45.5" font-family="Helvetica,sans-Serif" font-size="10.00">RigSpawner::SetCurrentKeyword</text>
</a>
</g>
</g>
<!-- Node406&#45;&gt;Node407 -->
<g id="edge1" class="edge"><title>Node406&#45;&gt;Node407</title>
<path fill="none" stroke="midnightblue" d="M134.353,-36.7469C142.774,-37.6612 151.401,-38.5979 159.909,-39.5215"/>
<polygon fill="midnightblue" stroke="midnightblue" points="134.526,-33.2452 124.207,-35.6453 133.77,-40.2043 134.526,-33.2452"/>
</g>
<!-- Node408 -->
<g id="node3" class="node"><title>Node408</title>
<g id="a_node3"><a xlink:href="../../db/d35/class_rig_spawner.html#a67da85dd09bd864df9dc924f6f2a7d49" target="_top" xlink:title="RigSpawner::SpawnRig">
<polygon fill="white" stroke="black" points="180,-0.5 180,-19.5 298,-19.5 298,-0.5 180,-0.5"/>
<text text-anchor="middle" x="239" y="-7.5" font-family="Helvetica,sans-Serif" font-size="10.00">RigSpawner::SpawnRig</text>
</a>
</g>
</g>
<!-- Node406&#45;&gt;Node408 -->
<g id="edge2" class="edge"><title>Node406&#45;&gt;Node408</title>
<path fill="none" stroke="midnightblue" d="M134.503,-21.2368C149.559,-19.6021 165.27,-17.8964 179.769,-16.3222"/>
<polygon fill="midnightblue" stroke="midnightblue" points="133.77,-17.7957 124.207,-22.3547 134.526,-24.7548 133.77,-17.7957"/>
</g>
<!-- Node409 -->
<g id="node4" class="node"><title>Node409</title>
<g id="a_node4"><a xlink:href="../../db/d35/class_rig_spawner.html#ac7a7f5955b466a52eb2507f435083b0b" target="_top" xlink:title="RigSpawner::RigSpawner">
<polygon fill="white" stroke="black" points="354,-0.5 354,-19.5 480,-19.5 480,-0.5 354,-0.5"/>
<text text-anchor="middle" x="417" y="-7.5" font-family="Helvetica,sans-Serif" font-size="10.00">RigSpawner::RigSpawner</text>
</a>
</g>
</g>
<!-- Node408&#45;&gt;Node409 -->
<g id="edge3" class="edge"><title>Node408&#45;&gt;Node409</title>
<path fill="none" stroke="midnightblue" d="M308.315,-10C323.263,-10 339.009,-10 353.707,-10"/>
<polygon fill="midnightblue" stroke="midnightblue" points="308.117,-6.5001 298.117,-10 308.117,-13.5001 308.117,-6.5001"/>
</g>
</g>
</svg>
