<?xml version="1.0" encoding="UTF-8" standalone="no"?>
<!DOCTYPE svg PUBLIC "-//W3C//DTD SVG 1.1//EN"
 "http://www.w3.org/Graphics/SVG/1.1/DTD/svg11.dtd">
<!-- Generated by graphviz version 2.38.0 (20140413.2041)
 -->
<!-- Title: RigSpawner::ProcessPistonprop Pages: 1 -->
<svg width="481pt" height="28pt"
 viewBox="0.00 0.00 481.00 28.00" xmlns="http://www.w3.org/2000/svg" xmlns:xlink="http://www.w3.org/1999/xlink">
<g id="graph0" class="graph" transform="scale(1 1) rotate(0) translate(4 24)">
<title>RigSpawner::ProcessPistonprop</title>
<polygon fill="white" stroke="none" points="-4,4 -4,-24 477,-24 477,4 -4,4"/>
<!-- Node599 -->
<g id="node1" class="node"><title>Node599</title>
<polygon fill="#bfbfbf" stroke="black" points="0,-0.5 0,-19.5 157,-19.5 157,-0.5 0,-0.5"/>
<text text-anchor="middle" x="78.5" y="-7.5" font-family="Helvetica,sans-Serif" font-size="10.00">RigSpawner::ProcessPistonprop</text>
</g>
<!-- Node600 -->
<g id="node2" class="node"><title>Node600</title>
<g id="a_node2"><a xlink:href="../../db/d35/class_rig_spawner.html#a67da85dd09bd864df9dc924f6f2a7d49" target="_top" xlink:title="RigSpawner::SpawnRig">
<polygon fill="white" stroke="black" points="193,-0.5 193,-19.5 311,-19.5 311,-0.5 193,-0.5"/>
<text text-anchor="middle" x="252" y="-7.5" font-family="Helvetica,sans-Serif" font-size="10.00">RigSpawner::SpawnRig</text>
</a>
</g>
</g>
<!-- Node599&#45;&gt;Node600 -->
<g id="edge1" class="edge"><title>Node599&#45;&gt;Node600</title>
<path fill="none" stroke="midnightblue" d="M167.345,-10C175.976,-10 184.579,-10 192.803,-10"/>
<polygon fill="midnightblue" stroke="midnightblue" points="167.221,-6.5001 157.221,-10 167.221,-13.5001 167.221,-6.5001"/>
</g>
<!-- Node601 -->
<g id="node3" class="node"><title>Node601</title>
<g id="a_node3"><a xlink:href="../../db/d35/class_rig_spawner.html#ac7a7f5955b466a52eb2507f435083b0b" target="_top" xlink:title="RigSpawner::RigSpawner">
<polygon fill="white" stroke="black" points="347,-0.5 347,-19.5 473,-19.5 473,-0.5 347,-0.5"/>
<text text-anchor="middle" x="410" y="-7.5" font-family="Helvetica,sans-Serif" font-size="10.00">RigSpawner::RigSpawner</text>
</a>
</g>
</g>
<!-- Node600&#45;&gt;Node601 -->
<g id="edge2" class="edge"><title>Node600&#45;&gt;Node601</title>
<path fill="none" stroke="midnightblue" d="M321.363,-10C329.872,-10 338.536,-10 346.942,-10"/>
<polygon fill="midnightblue" stroke="midnightblue" points="321.089,-6.5001 311.089,-10 321.089,-13.5001 321.089,-6.5001"/>
</g>
</g>
</svg>
