<?xml version="1.0" encoding="UTF-8" standalone="no"?>
<!DOCTYPE svg PUBLIC "-//W3C//DTD SVG 1.1//EN"
 "http://www.w3.org/Graphics/SVG/1.1/DTD/svg11.dtd">
<!-- Generated by graphviz version 2.38.0 (20140413.2041)
 -->
<!-- Title: RigSpawner::ProcessTorqueCurve Pages: 1 -->
<svg width="681pt" height="85pt"
 viewBox="0.00 0.00 681.00 85.00" xmlns="http://www.w3.org/2000/svg" xmlns:xlink="http://www.w3.org/1999/xlink">
<g id="graph0" class="graph" transform="scale(1 1) rotate(0) translate(4 81)">
<title>RigSpawner::ProcessTorqueCurve</title>
<polygon fill="white" stroke="none" points="-4,4 -4,-81 677,-81 677,4 -4,4"/>
<!-- Node685 -->
<g id="node1" class="node"><title>Node685</title>
<polygon fill="#bfbfbf" stroke="black" points="0,-33 0,-63 140,-63 140,-33 0,-33"/>
<text text-anchor="start" x="8" y="-51" font-family="Helvetica,sans-Serif" font-size="10.00">RigSpawner::ProcessTorque</text>
<text text-anchor="middle" x="70" y="-40" font-family="Helvetica,sans-Serif" font-size="10.00">Curve</text>
</g>
<!-- Node686 -->
<g id="node2" class="node"><title>Node686</title>
<g id="a_node2"><a xlink:href="../../d8/d12/class_torque_curve.html#a9e4decb6a9bd46ea604995d15b20007f" target="_top" xlink:title="TorqueCurve::setTorqueModel">
<polygon fill="white" stroke="black" points="362,-57.5 362,-76.5 507,-76.5 507,-57.5 362,-57.5"/>
<text text-anchor="middle" x="434.5" y="-64.5" font-family="Helvetica,sans-Serif" font-size="10.00">TorqueCurve::setTorqueModel</text>
</a>
</g>
</g>
<!-- Node685&#45;&gt;Node686 -->
<g id="edge1" class="edge"><title>Node685&#45;&gt;Node686</title>
<path fill="none" stroke="midnightblue" d="M140.232,-62.3355C152.114,-64.2763 164.376,-65.9568 176,-67 234.527,-72.2526 300.838,-72.1113 351.51,-70.7303"/>
<polygon fill="midnightblue" stroke="midnightblue" points="351.86,-74.2216 361.753,-70.4286 351.654,-67.2246 351.86,-74.2216"/>
</g>
<!-- Node689 -->
<g id="node5" class="node"><title>Node689</title>
<g id="a_node5"><a xlink:href="../../d8/d12/class_torque_curve.html#aee98faa6b93b58a0ba7b4a76a32e2700" target="_top" xlink:title="TorqueCurve::CreateNewCurve">
<polygon fill="white" stroke="black" points="177.5,-38.5 177.5,-57.5 324.5,-57.5 324.5,-38.5 177.5,-38.5"/>
<text text-anchor="middle" x="251" y="-45.5" font-family="Helvetica,sans-Serif" font-size="10.00">TorqueCurve::CreateNewCurve</text>
</a>
</g>
</g>
<!-- Node685&#45;&gt;Node689 -->
<g id="edge4" class="edge"><title>Node685&#45;&gt;Node689</title>
<path fill="none" stroke="midnightblue" d="M140.206,-48C149.069,-48 158.213,-48 167.264,-48"/>
<polygon fill="midnightblue" stroke="midnightblue" points="167.424,-51.5001 177.424,-48 167.424,-44.5001 167.424,-51.5001"/>
</g>
<!-- Node690 -->
<g id="node6" class="node"><title>Node690</title>
<g id="a_node6"><a xlink:href="../../d8/d12/class_torque_curve.html#a16cb0f36ed41f96e4f2d67f9e57643d7" target="_top" xlink:title="TorqueCurve::AddCurveSample">
<polygon fill="white" stroke="black" points="176,-0.5 176,-19.5 326,-19.5 326,-0.5 176,-0.5"/>
<text text-anchor="middle" x="251" y="-7.5" font-family="Helvetica,sans-Serif" font-size="10.00">TorqueCurve::AddCurveSample</text>
</a>
</g>
</g>
<!-- Node685&#45;&gt;Node690 -->
<g id="edge6" class="edge"><title>Node685&#45;&gt;Node690</title>
<path fill="none" stroke="midnightblue" d="M140.206,-33.3082C158.381,-29.4498 177.735,-25.3413 195.05,-21.6654"/>
<polygon fill="midnightblue" stroke="midnightblue" points="195.93,-25.0566 204.985,-19.5562 194.476,-18.2092 195.93,-25.0566"/>
</g>
<!-- Node687 -->
<g id="node3" class="node"><title>Node687</title>
<g id="a_node3"><a xlink:href="../../d9/da3/_application_8h.html#ac91efe9de379ef0fde6e0c6f369dfb35" target="_top" xlink:title="Legacy alias &#45; formerly a macro. ">
<polygon fill="white" stroke="black" points="543,-57.5 543,-76.5 580,-76.5 580,-57.5 543,-57.5"/>
<text text-anchor="middle" x="561.5" y="-64.5" font-family="Helvetica,sans-Serif" font-size="10.00">LOG</text>
</a>
</g>
</g>
<!-- Node686&#45;&gt;Node687 -->
<g id="edge2" class="edge"><title>Node686&#45;&gt;Node687</title>
<path fill="none" stroke="midnightblue" d="M507.126,-67C516.173,-67 524.959,-67 532.704,-67"/>
<polygon fill="midnightblue" stroke="midnightblue" points="532.878,-70.5001 542.878,-67 532.878,-63.5001 532.878,-70.5001"/>
</g>
<!-- Node688 -->
<g id="node4" class="node"><title>Node688</title>
<g id="a_node4"><a xlink:href="../../dd/dd2/namespace_ro_r.html#a15fdb48aba128c41a9c75357c2282694" target="_top" xlink:title="The ultimate, application&#45;wide logging function. Adds a line (any length) in &#39;RoR.log&#39; file. ">
<polygon fill="white" stroke="black" points="616,-57.5 616,-76.5 673,-76.5 673,-57.5 616,-57.5"/>
<text text-anchor="middle" x="644.5" y="-64.5" font-family="Helvetica,sans-Serif" font-size="10.00">RoR::Log</text>
</a>
</g>
</g>
<!-- Node687&#45;&gt;Node688 -->
<g id="edge3" class="edge"><title>Node687&#45;&gt;Node688</title>
<path fill="none" stroke="midnightblue" d="M580.076,-67C587.567,-67 596.618,-67 605.508,-67"/>
<polygon fill="midnightblue" stroke="midnightblue" points="605.766,-70.5001 615.766,-67 605.766,-63.5001 605.766,-70.5001"/>
</g>
<!-- Node689&#45;&gt;Node686 -->
<g id="edge5" class="edge"><title>Node689&#45;&gt;Node686</title>
<path fill="none" stroke="midnightblue" d="M324.516,-55.5912C333.484,-56.53 342.699,-57.4947 351.792,-58.4466"/>
<polygon fill="midnightblue" stroke="midnightblue" points="351.677,-61.9535 361.987,-59.5138 352.406,-54.9916 351.677,-61.9535"/>
</g>
</g>
</svg>
