<?xml version="1.0" encoding="UTF-8" standalone="no"?>
<!DOCTYPE svg PUBLIC "-//W3C//DTD SVG 1.1//EN"
 "http://www.w3.org/Graphics/SVG/1.1/DTD/svg11.dtd">
<!-- Generated by graphviz version 2.38.0 (20140413.2041)
 -->
<!-- Title: RigDef::File::KeywordToString Pages: 1 -->
<svg width="1497pt" height="600pt"
 viewBox="0.00 0.00 1497.00 599.50" xmlns="http://www.w3.org/2000/svg" xmlns:xlink="http://www.w3.org/1999/xlink">
<g id="graph0" class="graph" transform="scale(1 1) rotate(0) translate(4 595.5)">
<title>RigDef::File::KeywordToString</title>
<polygon fill="white" stroke="none" points="-4,4 -4,-595.5 1493,-595.5 1493,4 -4,4"/>
<!-- Node5 -->
<g id="node1" class="node"><title>Node5</title>
<polygon fill="#bfbfbf" stroke="black" points="0,-316 0,-335 146,-335 146,-316 0,-316"/>
<text text-anchor="middle" x="73" y="-323" font-family="Helvetica,sans-Serif" font-size="10.00">RigDef::File::KeywordToString</text>
</g>
<!-- Node6 -->
<g id="node2" class="node"><title>Node6</title>
<g id="a_node2"><a xlink:href="../../db/d35/class_rig_spawner.html#a6bfcada82322e490117f4f5441665830" target="_top" xlink:title="RigSpawner::AddMessage">
<polygon fill="white" stroke="black" points="194,-530 194,-549 325,-549 325,-530 194,-530"/>
<text text-anchor="middle" x="259.5" y="-537" font-family="Helvetica,sans-Serif" font-size="10.00">RigSpawner::AddMessage</text>
</a>
</g>
</g>
<!-- Node5&#45;&gt;Node6 -->
<g id="edge1" class="edge"><title>Node5&#45;&gt;Node6</title>
<path fill="none" stroke="midnightblue" d="M79.0072,-344.691C90.3113,-384.078 121.65,-474.218 182,-520.5 186.995,-524.331 192.665,-527.398 198.606,-529.853"/>
<polygon fill="midnightblue" stroke="midnightblue" points="82.3701,-343.72 76.3427,-335.007 75.6209,-345.577 82.3701,-343.72"/>
</g>
<!-- Node10 -->
<g id="node6" class="node"><title>Node10</title>
<g id="a_node6"><a xlink:href="../../db/d35/class_rig_spawner.html#aeec377d1768810665f38c504d5cfb58a" target="_top" xlink:title="RigSpawner::ProcessMessages\lToString">
<polygon fill="white" stroke="black" points="182,-480.5 182,-510.5 337,-510.5 337,-480.5 182,-480.5"/>
<text text-anchor="start" x="190" y="-498.5" font-family="Helvetica,sans-Serif" font-size="10.00">RigSpawner::ProcessMessages</text>
<text text-anchor="middle" x="259.5" y="-487.5" font-family="Helvetica,sans-Serif" font-size="10.00">ToString</text>
</a>
</g>
</g>
<!-- Node5&#45;&gt;Node10 -->
<g id="edge5" class="edge"><title>Node5&#45;&gt;Node10</title>
<path fill="none" stroke="midnightblue" d="M83.8109,-343.93C100.372,-373.433 136.556,-431.402 182,-465.5 189.988,-471.493 199.327,-476.452 208.681,-480.494"/>
<polygon fill="midnightblue" stroke="midnightblue" points="86.8405,-342.176 78.9618,-335.092 80.7035,-345.543 86.8405,-342.176"/>
</g>
<!-- Node13 -->
<g id="node9" class="node"><title>Node13</title>
<g id="a_node9"><a xlink:href="../../d1/da8/class_rig_def_1_1_parser.html#ab7b0d942d64f73b73ef53903a085519d" target="_top" xlink:title="Directives that should only appear in root module. ">
<polygon fill="white" stroke="black" points="373,-438.5 373,-468.5 522,-468.5 522,-438.5 373,-438.5"/>
<text text-anchor="start" x="381" y="-456.5" font-family="Helvetica,sans-Serif" font-size="10.00">RigDef::Parser::ProcessGlobal</text>
<text text-anchor="middle" x="447.5" y="-445.5" font-family="Helvetica,sans-Serif" font-size="10.00">Directive</text>
</a>
</g>
</g>
<!-- Node5&#45;&gt;Node13 -->
<g id="edge9" class="edge"><title>Node5&#45;&gt;Node13</title>
<path fill="none" stroke="midnightblue" d="M86.0067,-343.695C103.671,-368.721 139.24,-412.89 182,-432.5 242.085,-460.056 317.919,-463.317 372.966,-460.862"/>
<polygon fill="midnightblue" stroke="midnightblue" points="88.6771,-341.401 80.1356,-335.132 82.9038,-345.359 88.6771,-341.401"/>
</g>
<!-- Node23 -->
<g id="node19" class="node"><title>Node23</title>
<g id="a_node19"><a xlink:href="../../d1/da8/class_rig_def_1_1_parser.html#aa2f9091afe62e06be565fcab5d9bf11c" target="_top" xlink:title="Reports warning message if we&#39;re not in root module. ">
<polygon fill="white" stroke="black" points="188.5,-392.5 188.5,-422.5 330.5,-422.5 330.5,-392.5 188.5,-392.5"/>
<text text-anchor="start" x="196.5" y="-410.5" font-family="Helvetica,sans-Serif" font-size="10.00">RigDef::Parser::VerifyModule</text>
<text text-anchor="middle" x="259.5" y="-399.5" font-family="Helvetica,sans-Serif" font-size="10.00">IsRoot</text>
</a>
</g>
</g>
<!-- Node5&#45;&gt;Node23 -->
<g id="edge21" class="edge"><title>Node5&#45;&gt;Node23</title>
<path fill="none" stroke="midnightblue" d="M104.723,-339.155C137.821,-353.865 190.339,-377.206 224.615,-392.44"/>
<polygon fill="midnightblue" stroke="midnightblue" points="106.085,-335.93 95.5256,-335.067 103.242,-342.327 106.085,-335.93"/>
</g>
<!-- Node25 -->
<g id="node21" class="node"><title>Node25</title>
<g id="a_node21"><a xlink:href="../../d1/da8/class_rig_def_1_1_parser.html#aac59b50c9fc86f2d56d4cc0d9c55a0c4" target="_top" xlink:title="Keyword scan function. ">
<polygon fill="white" stroke="black" points="389.5,-350.5 389.5,-380.5 505.5,-380.5 505.5,-350.5 389.5,-350.5"/>
<text text-anchor="start" x="397.5" y="-368.5" font-family="Helvetica,sans-Serif" font-size="10.00">RigDef::Parser::Identify</text>
<text text-anchor="middle" x="447.5" y="-357.5" font-family="Helvetica,sans-Serif" font-size="10.00">KeywordInCurrentLine</text>
</a>
</g>
</g>
<!-- Node5&#45;&gt;Node25 -->
<g id="edge24" class="edge"><title>Node5&#45;&gt;Node25</title>
<path fill="none" stroke="midnightblue" d="M156.474,-334.356C227.174,-341.948 327.178,-352.687 389.368,-359.365"/>
<polygon fill="midnightblue" stroke="midnightblue" points="156.58,-330.848 146.263,-333.26 155.833,-337.808 156.58,-330.848"/>
</g>
<!-- Node26 -->
<g id="node22" class="node"><title>Node26</title>
<g id="a_node22"><a xlink:href="../../d4/d43/class_rig_def_1_1_sequential_importer.html#ac2e3fa72a3d0f97a7cebe79456efd2ef" target="_top" xlink:title="RigDef::SequentialImporter\l::ResolveNodeByIndex">
<polygon fill="white" stroke="black" points="193.5,-283.5 193.5,-313.5 325.5,-313.5 325.5,-283.5 193.5,-283.5"/>
<text text-anchor="start" x="201.5" y="-301.5" font-family="Helvetica,sans-Serif" font-size="10.00">RigDef::SequentialImporter</text>
<text text-anchor="middle" x="259.5" y="-290.5" font-family="Helvetica,sans-Serif" font-size="10.00">::ResolveNodeByIndex</text>
</a>
</g>
</g>
<!-- Node5&#45;&gt;Node26 -->
<g id="edge27" class="edge"><title>Node5&#45;&gt;Node26</title>
<path fill="none" stroke="midnightblue" d="M149.103,-314.509C163.794,-312.359 179.086,-310.122 193.418,-308.024"/>
<polygon fill="midnightblue" stroke="midnightblue" points="148.436,-311.07 139.048,-315.981 149.449,-317.996 148.436,-311.07"/>
</g>
<!-- Node30 -->
<g id="node26" class="node"><title>Node30</title>
<g id="a_node26"><a xlink:href="../../d4/d43/class_rig_def_1_1_sequential_importer.html#a97bec71f6d710c1c6804d9b1e03977a5" target="_top" xlink:title="RigDef::SequentialImporter\l::ResolveNode">
<polygon fill="white" stroke="black" points="193.5,-213.5 193.5,-243.5 325.5,-243.5 325.5,-213.5 193.5,-213.5"/>
<text text-anchor="start" x="201.5" y="-231.5" font-family="Helvetica,sans-Serif" font-size="10.00">RigDef::SequentialImporter</text>
<text text-anchor="middle" x="259.5" y="-220.5" font-family="Helvetica,sans-Serif" font-size="10.00">::ResolveNode</text>
</a>
</g>
</g>
<!-- Node5&#45;&gt;Node30 -->
<g id="edge33" class="edge"><title>Node5&#45;&gt;Node30</title>
<path fill="none" stroke="midnightblue" d="M101.387,-311.101C135.808,-293.005 194.618,-262.086 229.694,-243.645"/>
<polygon fill="midnightblue" stroke="midnightblue" points="99.5876,-308.093 92.3651,-315.845 102.845,-314.289 99.5876,-308.093"/>
</g>
<!-- Node31 -->
<g id="node27" class="node"><title>Node31</title>
<g id="a_node27"><a xlink:href="../../d4/d43/class_rig_def_1_1_sequential_importer.html#a42dd94aef68a0dad47617c4a24382432" target="_top" xlink:title="RigDef::SequentialImporter\l::ProcessMessagesToString">
<polygon fill="white" stroke="black" points="189.5,-160.5 189.5,-190.5 329.5,-190.5 329.5,-160.5 189.5,-160.5"/>
<text text-anchor="start" x="197.5" y="-178.5" font-family="Helvetica,sans-Serif" font-size="10.00">RigDef::SequentialImporter</text>
<text text-anchor="middle" x="259.5" y="-167.5" font-family="Helvetica,sans-Serif" font-size="10.00">::ProcessMessagesToString</text>
</a>
</g>
</g>
<!-- Node5&#45;&gt;Node31 -->
<g id="edge36" class="edge"><title>Node5&#45;&gt;Node31</title>
<path fill="none" stroke="midnightblue" d="M85.8095,-307.171C103.668,-280.798 139.956,-232.173 182,-203.5 189.478,-198.4 197.998,-194.1 206.572,-190.519"/>
<polygon fill="midnightblue" stroke="midnightblue" points="82.6957,-305.534 80.0875,-315.803 88.5301,-309.401 82.6957,-305.534"/>
</g>
<!-- Node32 -->
<g id="node28" class="node"><title>Node32</title>
<g id="a_node28"><a xlink:href="../../d4/d43/class_rig_def_1_1_sequential_importer.html#a23b668fd32d05ecca23cdbf3e842dba5" target="_top" xlink:title="RigDef::SequentialImporter\l::IterateAndPrintAllNodes">
<polygon fill="white" stroke="black" points="193.5,-103.5 193.5,-133.5 325.5,-133.5 325.5,-103.5 193.5,-103.5"/>
<text text-anchor="start" x="201.5" y="-121.5" font-family="Helvetica,sans-Serif" font-size="10.00">RigDef::SequentialImporter</text>
<text text-anchor="middle" x="259.5" y="-110.5" font-family="Helvetica,sans-Serif" font-size="10.00">::IterateAndPrintAllNodes</text>
</a>
</g>
</g>
<!-- Node5&#45;&gt;Node32 -->
<g id="edge38" class="edge"><title>Node5&#45;&gt;Node32</title>
<path fill="none" stroke="midnightblue" d="M81.2761,-306.072C95.4743,-270.582 130.095,-194.846 182,-150.5 190.1,-143.58 199.909,-137.987 209.762,-133.531"/>
<polygon fill="midnightblue" stroke="midnightblue" points="77.8887,-305.126 77.529,-315.715 84.4134,-307.662 77.8887,-305.126"/>
</g>
<!-- Node33 -->
<g id="node29" class="node"><title>Node33</title>
<g id="a_node29"><a xlink:href="../../d0/d63/class_rig_def_1_1_validator.html#a1ffed672ccc5a292ee1bdaa57ce1f357" target="_top" xlink:title="RigDef::Validator::\lCheckSection">
<polygon fill="white" stroke="black" points="212,-49.5 212,-79.5 307,-79.5 307,-49.5 212,-49.5"/>
<text text-anchor="start" x="220" y="-67.5" font-family="Helvetica,sans-Serif" font-size="10.00">RigDef::Validator::</text>
<text text-anchor="middle" x="259.5" y="-56.5" font-family="Helvetica,sans-Serif" font-size="10.00">CheckSection</text>
</a>
</g>
</g>
<!-- Node5&#45;&gt;Node33 -->
<g id="edge40" class="edge"><title>Node5&#45;&gt;Node33</title>
<path fill="none" stroke="midnightblue" d="M77.8918,-305.766C87.5905,-261.614 116.893,-153.999 182,-93.5 190.428,-85.6685 201.181,-79.8897 211.945,-75.6485"/>
<polygon fill="midnightblue" stroke="midnightblue" points="74.4657,-305.051 75.8386,-315.557 81.3167,-306.488 74.4657,-305.051"/>
</g>
<!-- Node7 -->
<g id="node3" class="node"><title>Node7</title>
<g id="a_node3"><a xlink:href="../../d5/d54/class_ro_r_1_1_flex_factory.html#a41b5f9177e83f8769b3b52d75f9fa741" target="_top" xlink:title="RoR::FlexFactory::Create\lFlexBody">
<polygon fill="white" stroke="black" points="579.5,-522.5 579.5,-552.5 707.5,-552.5 707.5,-522.5 579.5,-522.5"/>
<text text-anchor="start" x="587.5" y="-540.5" font-family="Helvetica,sans-Serif" font-size="10.00">RoR::FlexFactory::Create</text>
<text text-anchor="middle" x="643.5" y="-529.5" font-family="Helvetica,sans-Serif" font-size="10.00">FlexBody</text>
</a>
</g>
</g>
<!-- Node6&#45;&gt;Node7 -->
<g id="edge2" class="edge"><title>Node6&#45;&gt;Node7</title>
<path fill="none" stroke="midnightblue" d="M335.537,-539.107C406.671,-538.735 512.335,-538.181 579.29,-537.831"/>
<polygon fill="midnightblue" stroke="midnightblue" points="335.283,-535.608 325.301,-539.161 335.319,-542.608 335.283,-535.608"/>
</g>
<!-- Node8 -->
<g id="node4" class="node"><title>Node8</title>
<g id="a_node4"><a xlink:href="../../db/d35/class_rig_spawner.html#a67da85dd09bd864df9dc924f6f2a7d49" target="_top" xlink:title="RigSpawner::SpawnRig">
<polygon fill="white" stroke="black" points="388.5,-570 388.5,-589 506.5,-589 506.5,-570 388.5,-570"/>
<text text-anchor="middle" x="447.5" y="-577" font-family="Helvetica,sans-Serif" font-size="10.00">RigSpawner::SpawnRig</text>
</a>
</g>
</g>
<!-- Node6&#45;&gt;Node8 -->
<g id="edge3" class="edge"><title>Node6&#45;&gt;Node8</title>
<path fill="none" stroke="midnightblue" d="M315.013,-551.223C342.799,-557.199 376.151,-564.371 402.312,-569.997"/>
<polygon fill="midnightblue" stroke="midnightblue" points="315.564,-547.762 305.052,-549.081 314.092,-554.605 315.564,-547.762"/>
</g>
<!-- Node9 -->
<g id="node5" class="node"><title>Node9</title>
<g id="a_node5"><a xlink:href="../../db/d35/class_rig_spawner.html#ac7a7f5955b466a52eb2507f435083b0b" target="_top" xlink:title="RigSpawner::RigSpawner">
<polygon fill="white" stroke="black" points="580.5,-572 580.5,-591 706.5,-591 706.5,-572 580.5,-572"/>
<text text-anchor="middle" x="643.5" y="-579" font-family="Helvetica,sans-Serif" font-size="10.00">RigSpawner::RigSpawner</text>
</a>
</g>
</g>
<!-- Node8&#45;&gt;Node9 -->
<g id="edge4" class="edge"><title>Node8&#45;&gt;Node9</title>
<path fill="none" stroke="midnightblue" d="M516.974,-580.206C537.591,-580.418 560.096,-580.65 580.283,-580.859"/>
<polygon fill="midnightblue" stroke="midnightblue" points="516.742,-576.703 506.706,-580.1 516.67,-583.703 516.742,-576.703"/>
</g>
<!-- Node11 -->
<g id="node7" class="node"><title>Node11</title>
<g id="a_node7"><a xlink:href="../../db/d35/class_rig_spawner.html#a2e5c6d067c56ba916d1dd943b482810c" target="_top" xlink:title="RigSpawner::GetRig">
<polygon fill="white" stroke="black" points="395.5,-488 395.5,-507 499.5,-507 499.5,-488 395.5,-488"/>
<text text-anchor="middle" x="447.5" y="-495" font-family="Helvetica,sans-Serif" font-size="10.00">RigSpawner::GetRig</text>
</a>
</g>
</g>
<!-- Node10&#45;&gt;Node11 -->
<g id="edge6" class="edge"><title>Node10&#45;&gt;Node11</title>
<path fill="none" stroke="midnightblue" d="M347.41,-496.435C363.848,-496.611 380.54,-496.791 395.421,-496.951"/>
<polygon fill="midnightblue" stroke="midnightblue" points="347.264,-492.933 337.227,-496.325 347.189,-499.932 347.264,-492.933"/>
</g>
<!-- Node11&#45;&gt;Node7 -->
<g id="edge7" class="edge"><title>Node11&#45;&gt;Node7</title>
<path fill="none" stroke="midnightblue" d="M505.014,-509.152C528.254,-513.944 555.272,-519.515 579.175,-524.443"/>
<polygon fill="midnightblue" stroke="midnightblue" points="505.469,-505.673 494.968,-507.081 504.055,-512.528 505.469,-505.673"/>
</g>
<!-- Node12 -->
<g id="node8" class="node"><title>Node12</title>
<g id="a_node8"><a xlink:href="../../d5/d54/class_ro_r_1_1_flex_factory.html#af11df4b94b6c1815aaecc6e634416df9" target="_top" xlink:title="RoR::FlexFactory::Create\lFlexMeshWheel">
<polygon fill="white" stroke="black" points="579.5,-473.5 579.5,-503.5 707.5,-503.5 707.5,-473.5 579.5,-473.5"/>
<text text-anchor="start" x="587.5" y="-491.5" font-family="Helvetica,sans-Serif" font-size="10.00">RoR::FlexFactory::Create</text>
<text text-anchor="middle" x="643.5" y="-480.5" font-family="Helvetica,sans-Serif" font-size="10.00">FlexMeshWheel</text>
</a>
</g>
</g>
<!-- Node11&#45;&gt;Node12 -->
<g id="edge8" class="edge"><title>Node11&#45;&gt;Node12</title>
<path fill="none" stroke="midnightblue" d="M509.975,-494.648C532.045,-493.624 556.963,-492.468 579.186,-491.437"/>
<polygon fill="midnightblue" stroke="midnightblue" points="509.552,-491.164 499.725,-495.124 509.876,-498.156 509.552,-491.164"/>
</g>
<!-- Node14 -->
<g id="node10" class="node"><title>Node14</title>
<g id="a_node10"><a xlink:href="../../d1/da8/class_rig_def_1_1_parser.html#a99a49d75798b1fa5dfbd00873455fbeb" target="_top" xlink:title="RigDef::Parser::ProcessCurrentLine">
<polygon fill="white" stroke="black" points="558,-396 558,-415 729,-415 729,-396 558,-396"/>
<text text-anchor="middle" x="643.5" y="-403" font-family="Helvetica,sans-Serif" font-size="10.00">RigDef::Parser::ProcessCurrentLine</text>
</a>
</g>
</g>
<!-- Node13&#45;&gt;Node14 -->
<g id="edge10" class="edge"><title>Node13&#45;&gt;Node14</title>
<path fill="none" stroke="midnightblue" d="M519.297,-435.983C547.856,-428.917 579.69,-421.041 603.844,-415.064"/>
<polygon fill="midnightblue" stroke="midnightblue" points="518.217,-432.645 509.351,-438.444 519.898,-439.44 518.217,-432.645"/>
</g>
<!-- Node22 -->
<g id="node18" class="node"><title>Node22</title>
<g id="a_node18"><a xlink:href="../../d1/da8/class_rig_def_1_1_parser.html#a5ab95d1e21230f5477cc7c6cfca95c0e" target="_top" xlink:title="RigDef::Parser::GetMessages\lNumOther">
<polygon fill="white" stroke="black" points="771,-370.5 771,-400.5 917,-400.5 917,-370.5 771,-370.5"/>
<text text-anchor="start" x="779" y="-388.5" font-family="Helvetica,sans-Serif" font-size="10.00">RigDef::Parser::GetMessages</text>
<text text-anchor="middle" x="844" y="-377.5" font-family="Helvetica,sans-Serif" font-size="10.00">NumOther</text>
</a>
</g>
</g>
<!-- Node13&#45;&gt;Node22 -->
<g id="edge20" class="edge"><title>Node13&#45;&gt;Node22</title>
<path fill="none" stroke="midnightblue" d="M532.332,-450.697C588.602,-447.391 664.039,-440.188 729,-424.5 745.688,-420.47 748.818,-416.234 765,-410.5 774.517,-407.128 784.754,-403.703 794.581,-400.515"/>
<polygon fill="midnightblue" stroke="midnightblue" points="531.844,-447.219 522.054,-451.27 532.234,-454.208 531.844,-447.219"/>
</g>
<!-- Node15 -->
<g id="node11" class="node"><title>Node15</title>
<g id="a_node11"><a xlink:href="../../d1/da8/class_rig_def_1_1_parser.html#ad1920ba0a8dc23ac5043b2c270ef5f47" target="_top" xlink:title="RigDef::Parser::ProcessRawLine">
<polygon fill="white" stroke="black" points="765,-420 765,-439 923,-439 923,-420 765,-420"/>
<text text-anchor="middle" x="844" y="-427" font-family="Helvetica,sans-Serif" font-size="10.00">RigDef::Parser::ProcessRawLine</text>
</a>
</g>
</g>
<!-- Node14&#45;&gt;Node15 -->
<g id="edge11" class="edge"><title>Node14&#45;&gt;Node15</title>
<path fill="none" stroke="midnightblue" d="M733.226,-416.228C743.712,-417.495 754.355,-418.782 764.682,-420.031"/>
<polygon fill="midnightblue" stroke="midnightblue" points="733.585,-412.746 723.238,-415.02 732.745,-419.695 733.585,-412.746"/>
</g>
<!-- Node14&#45;&gt;Node22 -->
<g id="edge18" class="edge"><title>Node14&#45;&gt;Node22</title>
<path fill="none" stroke="midnightblue" d="M739.339,-395.944C749.891,-394.881 760.51,-393.811 770.717,-392.783"/>
<polygon fill="midnightblue" stroke="midnightblue" points="738.856,-392.475 729.258,-396.96 739.558,-399.44 738.856,-392.475"/>
</g>
<!-- Node16 -->
<g id="node12" class="node"><title>Node16</title>
<g id="a_node12"><a xlink:href="../../d1/da8/class_rig_def_1_1_parser.html#ab08d0ba4ffb90b72cb351014bb7861bd" target="_top" xlink:title="RigDef::Parser::ProcessOgre\lStream">
<polygon fill="white" stroke="black" points="959,-414.5 959,-444.5 1102,-444.5 1102,-414.5 959,-414.5"/>
<text text-anchor="start" x="967" y="-432.5" font-family="Helvetica,sans-Serif" font-size="10.00">RigDef::Parser::ProcessOgre</text>
<text text-anchor="middle" x="1030.5" y="-421.5" font-family="Helvetica,sans-Serif" font-size="10.00">Stream</text>
</a>
</g>
</g>
<!-- Node15&#45;&gt;Node16 -->
<g id="edge12" class="edge"><title>Node15&#45;&gt;Node16</title>
<path fill="none" stroke="midnightblue" d="M933.245,-429.5C941.797,-429.5 950.395,-429.5 958.745,-429.5"/>
<polygon fill="midnightblue" stroke="midnightblue" points="933.245,-426 923.245,-429.5 933.245,-433 933.245,-426"/>
</g>
<!-- Node17 -->
<g id="node13" class="node"><title>Node17</title>
<g id="a_node13"><a xlink:href="../../df/df9/class_beam.html#ab0cbc6c4e3822fc5786af2c8036f7efb" target="_top" xlink:title="Beam::LoadTruck">
<polygon fill="white" stroke="black" points="1170,-379 1170,-398 1263,-398 1263,-379 1170,-379"/>
<text text-anchor="middle" x="1216.5" y="-386" font-family="Helvetica,sans-Serif" font-size="10.00">Beam::LoadTruck</text>
</a>
</g>
</g>
<!-- Node16&#45;&gt;Node17 -->
<g id="edge13" class="edge"><title>Node16&#45;&gt;Node17</title>
<path fill="none" stroke="midnightblue" d="M1108.89,-412.255C1130.7,-407.395 1153.64,-402.285 1172.62,-398.054"/>
<polygon fill="midnightblue" stroke="midnightblue" points="1107.97,-408.875 1098.97,-414.466 1109.49,-415.707 1107.97,-408.875"/>
</g>
<!-- Node20 -->
<g id="node16" class="node"><title>Node20</title>
<g id="a_node16"><a xlink:href="../../d7/d35/class_cache_system.html#ad640fd28c3075eb6310d8d8f3475cefb" target="_top" xlink:title="CacheSystem::fillTruckDetailInfo">
<polygon fill="white" stroke="black" points="1138,-420 1138,-439 1295,-439 1295,-420 1138,-420"/>
<text text-anchor="middle" x="1216.5" y="-427" font-family="Helvetica,sans-Serif" font-size="10.00">CacheSystem::fillTruckDetailInfo</text>
</a>
</g>
</g>
<!-- Node16&#45;&gt;Node20 -->
<g id="edge16" class="edge"><title>Node16&#45;&gt;Node20</title>
<path fill="none" stroke="midnightblue" d="M1112.32,-429.5C1120.76,-429.5 1129.32,-429.5 1137.73,-429.5"/>
<polygon fill="midnightblue" stroke="midnightblue" points="1112.11,-426 1102.11,-429.5 1112.11,-433 1112.11,-426"/>
</g>
<!-- Node18 -->
<g id="node14" class="node"><title>Node18</title>
<g id="a_node14"><a xlink:href="../../df/df9/class_beam.html#a0d55b25fa0d1623305f3ac51694cbd42" target="_top" xlink:title="Beam::Beam">
<polygon fill="white" stroke="black" points="1373,-381 1373,-400 1447,-400 1447,-381 1373,-381"/>
<text text-anchor="middle" x="1410" y="-388" font-family="Helvetica,sans-Serif" font-size="10.00">Beam::Beam</text>
</a>
</g>
</g>
<!-- Node17&#45;&gt;Node18 -->
<g id="edge14" class="edge"><title>Node17&#45;&gt;Node18</title>
<path fill="none" stroke="midnightblue" d="M1273.49,-389.085C1305.52,-389.419 1344.77,-389.829 1372.77,-390.122"/>
<polygon fill="midnightblue" stroke="midnightblue" points="1273.41,-385.584 1263.37,-388.979 1273.33,-392.583 1273.41,-385.584"/>
</g>
<!-- Node19 -->
<g id="node15" class="node"><title>Node19</title>
<g id="a_node15"><a xlink:href="../../df/df9/class_beam.html#a3176be8102041493ae018fd5d66607dd" target="_top" xlink:title="Beam::getVelocity">
<polygon fill="white" stroke="black" points="1361.5,-343 1361.5,-362 1458.5,-362 1458.5,-343 1361.5,-343"/>
<text text-anchor="middle" x="1410" y="-350" font-family="Helvetica,sans-Serif" font-size="10.00">Beam::getVelocity</text>
</a>
</g>
</g>
<!-- Node17&#45;&gt;Node19 -->
<g id="edge15" class="edge"><title>Node17&#45;&gt;Node19</title>
<path fill="none" stroke="midnightblue" d="M1273.36,-378C1301.2,-372.766 1334.52,-366.501 1361.17,-361.492"/>
<polygon fill="midnightblue" stroke="midnightblue" points="1272.55,-374.59 1263.37,-379.877 1273.84,-381.469 1272.55,-374.59"/>
</g>
<!-- Node21 -->
<g id="node17" class="node"><title>Node21</title>
<g id="a_node17"><a xlink:href="../../d7/d35/class_cache_system.html#a20bd63ee907dd205ccef715db6dc9b5c" target="_top" xlink:title="CacheSystem::getUIDfromString">
<polygon fill="white" stroke="black" points="1331,-420 1331,-439 1489,-439 1489,-420 1331,-420"/>
<text text-anchor="middle" x="1410" y="-427" font-family="Helvetica,sans-Serif" font-size="10.00">CacheSystem::getUIDfromString</text>
</a>
</g>
</g>
<!-- Node20&#45;&gt;Node21 -->
<g id="edge17" class="edge"><title>Node20&#45;&gt;Node21</title>
<path fill="none" stroke="midnightblue" d="M1305.16,-429.5C1313.77,-429.5 1322.46,-429.5 1330.96,-429.5"/>
<polygon fill="midnightblue" stroke="midnightblue" points="1305.11,-426 1295.11,-429.5 1305.11,-433 1305.11,-426"/>
</g>
<!-- Node22&#45;&gt;Node17 -->
<g id="edge19" class="edge"><title>Node22&#45;&gt;Node17</title>
<path fill="none" stroke="midnightblue" d="M927.637,-386.169C1002.38,-386.774 1109.67,-387.643 1169.94,-388.131"/>
<polygon fill="midnightblue" stroke="midnightblue" points="927.344,-382.667 917.316,-386.086 927.287,-389.667 927.344,-382.667"/>
</g>
<!-- Node23&#45;&gt;Node13 -->
<g id="edge22" class="edge"><title>Node23&#45;&gt;Node13</title>
<path fill="none" stroke="midnightblue" d="M331.246,-424.996C349.213,-429.44 368.358,-434.175 385.778,-438.483"/>
<polygon fill="midnightblue" stroke="midnightblue" points="331.951,-421.565 321.403,-422.562 330.271,-428.361 331.951,-421.565"/>
</g>
<!-- Node24 -->
<g id="node20" class="node"><title>Node24</title>
<g id="a_node20"><a xlink:href="../../d1/da8/class_rig_def_1_1_parser.html#ad099ca842651c769e8ebaea2ae0fbc20" target="_top" xlink:title="RigDef::Parser::AddMessage">
<polygon fill="white" stroke="black" points="376,-400 376,-419 519,-419 519,-400 376,-400"/>
<text text-anchor="middle" x="447.5" y="-407" font-family="Helvetica,sans-Serif" font-size="10.00">RigDef::Parser::AddMessage</text>
</a>
</g>
</g>
<!-- Node23&#45;&gt;Node24 -->
<g id="edge23" class="edge"><title>Node23&#45;&gt;Node24</title>
<path fill="none" stroke="midnightblue" d="M340.741,-408.363C352.437,-408.489 364.406,-408.617 375.891,-408.741"/>
<polygon fill="midnightblue" stroke="midnightblue" points="340.591,-404.861 330.554,-408.253 340.515,-411.861 340.591,-404.861"/>
</g>
<!-- Node25&#45;&gt;Node14 -->
<g id="edge25" class="edge"><title>Node25&#45;&gt;Node14</title>
<path fill="none" stroke="midnightblue" d="M515.657,-379.347C542.22,-384.824 572.092,-390.983 596.171,-395.948"/>
<polygon fill="midnightblue" stroke="midnightblue" points="516.158,-375.877 505.657,-377.285 514.744,-382.732 516.158,-375.877"/>
</g>
<!-- Node25&#45;&gt;Node22 -->
<g id="edge26" class="edge"><title>Node25&#45;&gt;Node22</title>
<path fill="none" stroke="midnightblue" d="M516.031,-368.924C586.987,-372.521 698.177,-378.158 770.829,-381.841"/>
<polygon fill="midnightblue" stroke="midnightblue" points="516.028,-365.419 505.864,-368.408 515.674,-372.41 516.028,-365.419"/>
</g>
<!-- Node27 -->
<g id="node23" class="node"><title>Node27</title>
<g id="a_node23"><a xlink:href="../../d4/d43/class_rig_def_1_1_sequential_importer.html#a6029705326e0cfa1d42e06ff8a3937de" target="_top" xlink:title="RigDef::SequentialImporter\l::ResolveFlexbodyForset">
<polygon fill="white" stroke="black" points="381.5,-262.5 381.5,-292.5 513.5,-292.5 513.5,-262.5 381.5,-262.5"/>
<text text-anchor="start" x="389.5" y="-280.5" font-family="Helvetica,sans-Serif" font-size="10.00">RigDef::SequentialImporter</text>
<text text-anchor="middle" x="447.5" y="-269.5" font-family="Helvetica,sans-Serif" font-size="10.00">::ResolveFlexbodyForset</text>
</a>
</g>
</g>
<!-- Node26&#45;&gt;Node27 -->
<g id="edge28" class="edge"><title>Node26&#45;&gt;Node27</title>
<path fill="none" stroke="midnightblue" d="M335.892,-289.988C351.004,-288.282 366.759,-286.503 381.483,-284.841"/>
<polygon fill="midnightblue" stroke="midnightblue" points="335.098,-286.555 325.554,-291.155 335.883,-293.511 335.098,-286.555"/>
</g>
<!-- Node28 -->
<g id="node24" class="node"><title>Node28</title>
<g id="a_node24"><a xlink:href="../../d4/d43/class_rig_def_1_1_sequential_importer.html#a2a913a50fa126bf8f9bdc6f4485fb5f9" target="_top" xlink:title="RigDef::SequentialImporter\l::GetMessagesNumOther">
<polygon fill="white" stroke="black" points="577.5,-191.5 577.5,-221.5 709.5,-221.5 709.5,-191.5 577.5,-191.5"/>
<text text-anchor="start" x="585.5" y="-209.5" font-family="Helvetica,sans-Serif" font-size="10.00">RigDef::SequentialImporter</text>
<text text-anchor="middle" x="643.5" y="-198.5" font-family="Helvetica,sans-Serif" font-size="10.00">::GetMessagesNumOther</text>
</a>
</g>
</g>
<!-- Node26&#45;&gt;Node28 -->
<g id="edge32" class="edge"><title>Node26&#45;&gt;Node28</title>
<path fill="none" stroke="midnightblue" d="M335.681,-312.586C389.147,-319.468 461.854,-322.358 522,-301.5 567.808,-285.614 609.387,-244.3 629.598,-221.743"/>
<polygon fill="midnightblue" stroke="midnightblue" points="335.973,-309.094 325.592,-311.212 335.028,-316.03 335.973,-309.094"/>
</g>
<!-- Node29 -->
<g id="node25" class="node"><title>Node29</title>
<g id="a_node25"><a xlink:href="../../d4/d43/class_rig_def_1_1_sequential_importer.html#a3b5fe4ea5c9ab72bab2c88845cbe144a" target="_top" xlink:title="RigDef::SequentialImporter\l::ResolveNodeRanges">
<polygon fill="white" stroke="black" points="381.5,-213.5 381.5,-243.5 513.5,-243.5 513.5,-213.5 381.5,-213.5"/>
<text text-anchor="start" x="389.5" y="-231.5" font-family="Helvetica,sans-Serif" font-size="10.00">RigDef::SequentialImporter</text>
<text text-anchor="middle" x="447.5" y="-220.5" font-family="Helvetica,sans-Serif" font-size="10.00">::ResolveNodeRanges</text>
</a>
</g>
</g>
<!-- Node26&#45;&gt;Node29 -->
<g id="edge30" class="edge"><title>Node26&#45;&gt;Node29</title>
<path fill="none" stroke="midnightblue" d="M305.124,-279.384C325.66,-270.811 350.428,-260.787 373,-252.5 381.191,-249.493 389.96,-246.465 398.487,-243.622"/>
<polygon fill="midnightblue" stroke="midnightblue" points="303.577,-276.237 295.711,-283.335 306.286,-282.692 303.577,-276.237"/>
</g>
<!-- Node27&#45;&gt;Node28 -->
<g id="edge29" class="edge"><title>Node27&#45;&gt;Node28</title>
<path fill="none" stroke="midnightblue" d="M503.463,-259.052C509.726,-256.877 516.009,-254.661 522,-252.5 549.593,-242.544 580.5,-230.732 604.104,-221.571"/>
<polygon fill="midnightblue" stroke="midnightblue" points="501.994,-255.856 493.681,-262.425 504.276,-262.474 501.994,-255.856"/>
</g>
<!-- Node29&#45;&gt;Node28 -->
<g id="edge31" class="edge"><title>Node29&#45;&gt;Node28</title>
<path fill="none" stroke="midnightblue" d="M523.869,-219.953C541.473,-217.957 560.079,-215.847 577.203,-213.905"/>
<polygon fill="midnightblue" stroke="midnightblue" points="523.181,-216.509 513.639,-221.113 523.97,-223.464 523.181,-216.509"/>
</g>
<!-- Node30&#45;&gt;Node28 -->
<g id="edge35" class="edge"><title>Node30&#45;&gt;Node28</title>
<path fill="none" stroke="midnightblue" d="M326.551,-211.3C341.707,-208.059 357.827,-205.166 373,-203.5 442.535,-195.867 522.765,-198.172 577.484,-201.411"/>
<polygon fill="midnightblue" stroke="midnightblue" points="325.757,-207.891 316.751,-213.47 327.271,-214.725 325.757,-207.891"/>
</g>
<!-- Node30&#45;&gt;Node29 -->
<g id="edge34" class="edge"><title>Node30&#45;&gt;Node29</title>
<path fill="none" stroke="midnightblue" d="M335.892,-228.5C351.004,-228.5 366.759,-228.5 381.483,-228.5"/>
<polygon fill="midnightblue" stroke="midnightblue" points="335.554,-225 325.554,-228.5 335.554,-232 335.554,-225"/>
</g>
<!-- Node31&#45;&gt;Node28 -->
<g id="edge37" class="edge"><title>Node31&#45;&gt;Node28</title>
<path fill="none" stroke="midnightblue" d="M339.772,-180.707C391.644,-184.25 460.882,-189.237 522,-194.5 540.014,-196.051 559.523,-197.914 577.491,-199.705"/>
<polygon fill="midnightblue" stroke="midnightblue" points="339.852,-177.204 329.637,-180.018 339.377,-184.188 339.852,-177.204"/>
</g>
<!-- Node32&#45;&gt;Node28 -->
<g id="edge39" class="edge"><title>Node32&#45;&gt;Node28</title>
<path fill="none" stroke="midnightblue" d="M335.869,-135.862C406.268,-152.08 510.274,-176.04 577.216,-191.461"/>
<polygon fill="midnightblue" stroke="midnightblue" points="336.265,-132.362 325.734,-133.528 334.693,-139.183 336.265,-132.362"/>
</g>
<!-- Node34 -->
<g id="node30" class="node"><title>Node34</title>
<g id="a_node30"><a xlink:href="../../d0/d63/class_rig_def_1_1_validator.html#ae2d419ab52977f748ad5dd37331fa018" target="_top" xlink:title="RigDef::Validator::\lValidate">
<polygon fill="white" stroke="black" points="400,-49.5 400,-79.5 495,-79.5 495,-49.5 400,-49.5"/>
<text text-anchor="start" x="408" y="-67.5" font-family="Helvetica,sans-Serif" font-size="10.00">RigDef::Validator::</text>
<text text-anchor="middle" x="447.5" y="-56.5" font-family="Helvetica,sans-Serif" font-size="10.00">Validate</text>
</a>
</g>
</g>
<!-- Node33&#45;&gt;Node34 -->
<g id="edge41" class="edge"><title>Node33&#45;&gt;Node34</title>
<path fill="none" stroke="midnightblue" d="M317.675,-64.5C344.053,-64.5 374.969,-64.5 399.902,-64.5"/>
<polygon fill="midnightblue" stroke="midnightblue" points="317.436,-61.0001 307.436,-64.5 317.436,-68.0001 317.436,-61.0001"/>
</g>
<!-- Node35 -->
<g id="node31" class="node"><title>Node35</title>
<g id="a_node31"><a xlink:href="../../d0/d63/class_rig_def_1_1_validator.html#a266a1d1141ae6831557fe2d77044d3cd" target="_top" xlink:title="RigDef::Validator::\lGetMessagesNumOther">
<polygon fill="white" stroke="black" points="386.5,-0.5 386.5,-30.5 508.5,-30.5 508.5,-0.5 386.5,-0.5"/>
<text text-anchor="start" x="394.5" y="-18.5" font-family="Helvetica,sans-Serif" font-size="10.00">RigDef::Validator::</text>
<text text-anchor="middle" x="447.5" y="-7.5" font-family="Helvetica,sans-Serif" font-size="10.00">GetMessagesNumOther</text>
</a>
</g>
</g>
<!-- Node33&#45;&gt;Node35 -->
<g id="edge42" class="edge"><title>Node33&#45;&gt;Node35</title>
<path fill="none" stroke="midnightblue" d="M317.32,-49.5312C340.145,-43.5183 366.414,-36.5978 389.279,-30.5743"/>
<polygon fill="midnightblue" stroke="midnightblue" points="316.214,-46.2031 307.436,-52.1352 317.997,-52.9722 316.214,-46.2031"/>
</g>
</g>
</svg>
