<?xml version="1.0" encoding="UTF-8" standalone="no"?>
<!DOCTYPE svg PUBLIC "-//W3C//DTD SVG 1.1//EN"
 "http://www.w3.org/Graphics/SVG/1.1/DTD/svg11.dtd">
<!-- Generated by graphviz version 2.38.0 (20140413.2041)
 -->
<!-- Title: RigDef::File::SectionToString Pages: 1 -->
<svg width="809pt" height="119pt"
 viewBox="0.00 0.00 809.00 118.50" xmlns="http://www.w3.org/2000/svg" xmlns:xlink="http://www.w3.org/1999/xlink">
<g id="graph0" class="graph" transform="scale(1 1) rotate(0) translate(4 114.5)">
<title>RigDef::File::SectionToString</title>
<polygon fill="white" stroke="none" points="-4,4 -4,-114.5 805,-114.5 805,4 -4,4"/>
<!-- Node37 -->
<g id="node1" class="node"><title>Node37</title>
<polygon fill="#bfbfbf" stroke="black" points="0,-69 0,-88 142,-88 142,-69 0,-69"/>
<text text-anchor="middle" x="71" y="-76" font-family="Helvetica,sans-Serif" font-size="10.00">RigDef::File::SectionToString</text>
</g>
<!-- Node38 -->
<g id="node2" class="node"><title>Node38</title>
<g id="a_node2"><a xlink:href="../../d7/d35/class_cache_system.html#ad640fd28c3075eb6310d8d8f3475cefb" target="_top" xlink:title="CacheSystem::fillTruckDetailInfo">
<polygon fill="white" stroke="black" points="183,-91 183,-110 340,-110 340,-91 183,-91"/>
<text text-anchor="middle" x="261.5" y="-98" font-family="Helvetica,sans-Serif" font-size="10.00">CacheSystem::fillTruckDetailInfo</text>
</a>
</g>
</g>
<!-- Node37&#45;&gt;Node38 -->
<g id="edge1" class="edge"><title>Node37&#45;&gt;Node38</title>
<path fill="none" stroke="midnightblue" d="M152.271,-87.8685C162.444,-89.0557 172.838,-90.2689 182.967,-91.4511"/>
<polygon fill="midnightblue" stroke="midnightblue" points="152.529,-84.3749 142.19,-86.692 151.717,-91.3277 152.529,-84.3749"/>
</g>
<!-- Node40 -->
<g id="node4" class="node"><title>Node40</title>
<g id="a_node4"><a xlink:href="../../d1/da8/class_rig_def_1_1_parser.html#a94a43c89e6b1ce0f2af3b8433026863b" target="_top" xlink:title="RigDef::Parser::ProcessMessages\lToString">
<polygon fill="white" stroke="black" points="178,-41.5 178,-71.5 345,-71.5 345,-41.5 178,-41.5"/>
<text text-anchor="start" x="186" y="-59.5" font-family="Helvetica,sans-Serif" font-size="10.00">RigDef::Parser::ProcessMessages</text>
<text text-anchor="middle" x="261.5" y="-48.5" font-family="Helvetica,sans-Serif" font-size="10.00">ToString</text>
</a>
</g>
</g>
<!-- Node37&#45;&gt;Node40 -->
<g id="edge3" class="edge"><title>Node37&#45;&gt;Node40</title>
<path fill="none" stroke="midnightblue" d="M152.379,-69.1189C160.808,-68.1352 169.388,-67.1337 177.843,-66.147"/>
<polygon fill="midnightblue" stroke="midnightblue" points="151.717,-65.6723 142.19,-70.308 152.529,-72.6251 151.717,-65.6723"/>
</g>
<!-- Node39 -->
<g id="node3" class="node"><title>Node39</title>
<g id="a_node3"><a xlink:href="../../d7/d35/class_cache_system.html#a20bd63ee907dd205ccef715db6dc9b5c" target="_top" xlink:title="CacheSystem::getUIDfromString">
<polygon fill="white" stroke="black" points="381,-91 381,-110 539,-110 539,-91 381,-91"/>
<text text-anchor="middle" x="460" y="-98" font-family="Helvetica,sans-Serif" font-size="10.00">CacheSystem::getUIDfromString</text>
</a>
</g>
</g>
<!-- Node38&#45;&gt;Node39 -->
<g id="edge2" class="edge"><title>Node38&#45;&gt;Node39</title>
<path fill="none" stroke="midnightblue" d="M350.303,-100.5C360.511,-100.5 370.872,-100.5 380.937,-100.5"/>
<polygon fill="midnightblue" stroke="midnightblue" points="350.162,-97.0001 340.162,-100.5 350.162,-104 350.162,-97.0001"/>
</g>
<!-- Node41 -->
<g id="node5" class="node"><title>Node41</title>
<g id="a_node5"><a xlink:href="../../df/df9/class_beam.html#ab0cbc6c4e3822fc5786af2c8036f7efb" target="_top" xlink:title="Beam::LoadTruck">
<polygon fill="white" stroke="black" points="575,-28 575,-47 668,-47 668,-28 575,-28"/>
<text text-anchor="middle" x="621.5" y="-35" font-family="Helvetica,sans-Serif" font-size="10.00">Beam::LoadTruck</text>
</a>
</g>
</g>
<!-- Node40&#45;&gt;Node41 -->
<g id="edge4" class="edge"><title>Node40&#45;&gt;Node41</title>
<path fill="none" stroke="midnightblue" d="M355.314,-51.5741C425.872,-47.8294 519.897,-42.8393 574.95,-39.9174"/>
<polygon fill="midnightblue" stroke="midnightblue" points="354.882,-48.092 345.082,-52.1172 355.253,-55.0822 354.882,-48.092"/>
</g>
<!-- Node44 -->
<g id="node8" class="node"><title>Node44</title>
<g id="a_node8"><a xlink:href="../../d1/da8/class_rig_def_1_1_parser.html#a1d88ed3d8ecc1719890601463d7d2046" target="_top" xlink:title="RigDef::Parser::GetSequential\lImporter">
<polygon fill="white" stroke="black" points="386.5,-0.5 386.5,-30.5 533.5,-30.5 533.5,-0.5 386.5,-0.5"/>
<text text-anchor="start" x="394.5" y="-18.5" font-family="Helvetica,sans-Serif" font-size="10.00">RigDef::Parser::GetSequential</text>
<text text-anchor="middle" x="460" y="-7.5" font-family="Helvetica,sans-Serif" font-size="10.00">Importer</text>
</a>
</g>
</g>
<!-- Node40&#45;&gt;Node44 -->
<g id="edge7" class="edge"><title>Node40&#45;&gt;Node44</title>
<path fill="none" stroke="midnightblue" d="M344.679,-39.3532C358.717,-36.4241 373.206,-33.4011 386.955,-30.5323"/>
<polygon fill="midnightblue" stroke="midnightblue" points="343.628,-35.9971 334.554,-41.4659 345.058,-42.8495 343.628,-35.9971"/>
</g>
<!-- Node42 -->
<g id="node6" class="node"><title>Node42</title>
<g id="a_node6"><a xlink:href="../../df/df9/class_beam.html#a0d55b25fa0d1623305f3ac51694cbd42" target="_top" xlink:title="Beam::Beam">
<polygon fill="white" stroke="black" points="715.5,-47 715.5,-66 789.5,-66 789.5,-47 715.5,-47"/>
<text text-anchor="middle" x="752.5" y="-54" font-family="Helvetica,sans-Serif" font-size="10.00">Beam::Beam</text>
</a>
</g>
</g>
<!-- Node41&#45;&gt;Node42 -->
<g id="edge5" class="edge"><title>Node41&#45;&gt;Node42</title>
<path fill="none" stroke="midnightblue" d="M678.6,-45.7627C690.975,-47.5855 703.77,-49.4701 715.121,-51.1418"/>
<polygon fill="midnightblue" stroke="midnightblue" points="678.747,-42.2468 668.344,-44.2522 677.727,-49.1721 678.747,-42.2468"/>
</g>
<!-- Node43 -->
<g id="node7" class="node"><title>Node43</title>
<g id="a_node7"><a xlink:href="../../df/df9/class_beam.html#a3176be8102041493ae018fd5d66607dd" target="_top" xlink:title="Beam::getVelocity">
<polygon fill="white" stroke="black" points="704,-9 704,-28 801,-28 801,-9 704,-9"/>
<text text-anchor="middle" x="752.5" y="-16" font-family="Helvetica,sans-Serif" font-size="10.00">Beam::getVelocity</text>
</a>
</g>
</g>
<!-- Node41&#45;&gt;Node43 -->
<g id="edge6" class="edge"><title>Node41&#45;&gt;Node43</title>
<path fill="none" stroke="midnightblue" d="M678.442,-29.2605C686.833,-28.0246 695.42,-26.7598 703.623,-25.5517"/>
<polygon fill="midnightblue" stroke="midnightblue" points="677.727,-25.8279 668.344,-30.7478 678.747,-32.7532 677.727,-25.8279"/>
</g>
<!-- Node44&#45;&gt;Node41 -->
<g id="edge8" class="edge"><title>Node44&#45;&gt;Node41</title>
<path fill="none" stroke="midnightblue" d="M543.923,-26.9377C554.537,-28.4016 565.075,-29.8552 574.785,-31.1945"/>
<polygon fill="midnightblue" stroke="midnightblue" points="544.133,-23.4336 533.749,-25.5343 543.177,-30.3679 544.133,-23.4336"/>
</g>
</g>
</svg>
