<?xml version="1.0" encoding="UTF-8" standalone="no"?>
<!DOCTYPE svg PUBLIC "-//W3C//DTD SVG 1.1//EN"
 "http://www.w3.org/Graphics/SVG/1.1/DTD/svg11.dtd">
<!-- Generated by graphviz version 2.38.0 (20140413.2041)
 -->
<!-- Title: ScriptDictionaryFactory_Generic Pages: 1 -->
<svg width="534pt" height="88pt"
 viewBox="0.00 0.00 534.00 88.00" xmlns="http://www.w3.org/2000/svg" xmlns:xlink="http://www.w3.org/1999/xlink">
<g id="graph0" class="graph" transform="scale(1 1) rotate(0) translate(4 84)">
<title>ScriptDictionaryFactory_Generic</title>
<polygon fill="white" stroke="none" points="-4,4 -4,-84 530,-84 530,4 -4,4"/>
<!-- Node327 -->
<g id="node1" class="node"><title>Node327</title>
<polygon fill="#bfbfbf" stroke="black" points="0,-24.5 0,-54.5 119,-54.5 119,-24.5 0,-24.5"/>
<text text-anchor="start" x="8" y="-42.5" font-family="Helvetica,sans-Serif" font-size="10.00">ScriptDictionaryFactory</text>
<text text-anchor="middle" x="59.5" y="-31.5" font-family="Helvetica,sans-Serif" font-size="10.00">_Generic</text>
</g>
<!-- Node328 -->
<g id="node2" class="node"><title>Node328</title>
<g id="a_node2"><a xlink:href="../../df/d67/scriptdictionary_8h.html#a7c41a379d66a350e692e11acfea995cb" target="_top" xlink:title="RegisterScriptDictionary\l_Native">
<polygon fill="white" stroke="black" points="155,-49.5 155,-79.5 277,-79.5 277,-49.5 155,-49.5"/>
<text text-anchor="start" x="163" y="-67.5" font-family="Helvetica,sans-Serif" font-size="10.00">RegisterScriptDictionary</text>
<text text-anchor="middle" x="216" y="-56.5" font-family="Helvetica,sans-Serif" font-size="10.00">_Native</text>
</a>
</g>
</g>
<!-- Node327&#45;&gt;Node328 -->
<g id="edge1" class="edge"><title>Node327&#45;&gt;Node328</title>
<path fill="none" stroke="midnightblue" d="M129.25,-50.6246C137.759,-52.0015 146.408,-53.4009 154.775,-54.7549"/>
<polygon fill="midnightblue" stroke="midnightblue" points="129.781,-47.1651 119.351,-49.0227 128.663,-54.0752 129.781,-47.1651"/>
</g>
<!-- Node331 -->
<g id="node5" class="node"><title>Node331</title>
<g id="a_node5"><a xlink:href="../../df/d67/scriptdictionary_8h.html#af8fc6fbf1a623e6c2ff14605df4e0570" target="_top" xlink:title="RegisterScriptDictionary\l_Generic">
<polygon fill="white" stroke="black" points="155,-0.5 155,-30.5 277,-30.5 277,-0.5 155,-0.5"/>
<text text-anchor="start" x="163" y="-18.5" font-family="Helvetica,sans-Serif" font-size="10.00">RegisterScriptDictionary</text>
<text text-anchor="middle" x="216" y="-7.5" font-family="Helvetica,sans-Serif" font-size="10.00">_Generic</text>
</a>
</g>
</g>
<!-- Node327&#45;&gt;Node331 -->
<g id="edge4" class="edge"><title>Node327&#45;&gt;Node331</title>
<path fill="none" stroke="midnightblue" d="M129.25,-28.8203C137.759,-27.4985 146.408,-26.1551 154.775,-24.8553"/>
<polygon fill="midnightblue" stroke="midnightblue" points="128.695,-25.3646 119.351,-30.3582 129.769,-32.2816 128.695,-25.3646"/>
</g>
<!-- Node329 -->
<g id="node3" class="node"><title>Node329</title>
<g id="a_node3"><a xlink:href="../../df/d67/scriptdictionary_8h.html#abf884a3f2b4b07a009c5fc055b48f901" target="_top" xlink:title="RegisterScriptDictionary">
<polygon fill="white" stroke="black" points="313,-30 313,-49 435,-49 435,-30 313,-30"/>
<text text-anchor="middle" x="374" y="-37" font-family="Helvetica,sans-Serif" font-size="10.00">RegisterScriptDictionary</text>
</a>
</g>
</g>
<!-- Node328&#45;&gt;Node329 -->
<g id="edge2" class="edge"><title>Node328&#45;&gt;Node329</title>
<path fill="none" stroke="midnightblue" d="M287.196,-53.2506C296.021,-51.8364 304.981,-50.4005 313.617,-49.0165"/>
<polygon fill="midnightblue" stroke="midnightblue" points="286.634,-49.796 277.314,-54.8343 287.742,-56.7078 286.634,-49.796"/>
</g>
<!-- Node330 -->
<g id="node4" class="node"><title>Node330</title>
<g id="a_node4"><a xlink:href="../../d4/d5f/_script_engine_8cpp.html#a72e7735b6ca109323b2aa797f7b7b45d" target="_top" xlink:title="logString">
<polygon fill="white" stroke="black" points="471,-30 471,-49 526,-49 526,-30 471,-30"/>
<text text-anchor="middle" x="498.5" y="-37" font-family="Helvetica,sans-Serif" font-size="10.00">logString</text>
</a>
</g>
</g>
<!-- Node329&#45;&gt;Node330 -->
<g id="edge3" class="edge"><title>Node329&#45;&gt;Node330</title>
<path fill="none" stroke="midnightblue" d="M445.175,-39.5C454.331,-39.5 463.215,-39.5 470.985,-39.5"/>
<polygon fill="midnightblue" stroke="midnightblue" points="445.173,-36.0001 435.173,-39.5 445.173,-43.0001 445.173,-36.0001"/>
</g>
<!-- Node331&#45;&gt;Node329 -->
<g id="edge5" class="edge"><title>Node331&#45;&gt;Node329</title>
<path fill="none" stroke="midnightblue" d="M287.259,-26.3091C295.802,-27.6234 304.469,-28.9568 312.847,-30.2457"/>
<polygon fill="midnightblue" stroke="midnightblue" points="287.73,-22.8404 277.314,-24.779 286.665,-29.759 287.73,-22.8404"/>
</g>
</g>
</svg>
