<?xml version="1.0" encoding="UTF-8" standalone="no"?>
<!DOCTYPE svg PUBLIC "-//W3C//DTD SVG 1.1//EN"
 "http://www.w3.org/Graphics/SVG/1.1/DTD/svg11.dtd">
<!-- Generated by graphviz version 2.38.0 (20140413.2041)
 -->
<!-- Title: ScriptDictionaryListFactory_Generic Pages: 1 -->
<svg width="549pt" height="88pt"
 viewBox="0.00 0.00 549.00 88.00" xmlns="http://www.w3.org/2000/svg" xmlns:xlink="http://www.w3.org/1999/xlink">
<g id="graph0" class="graph" transform="scale(1 1) rotate(0) translate(4 84)">
<title>ScriptDictionaryListFactory_Generic</title>
<polygon fill="white" stroke="none" points="-4,4 -4,-84 545,-84 545,4 -4,4"/>
<!-- Node376 -->
<g id="node1" class="node"><title>Node376</title>
<polygon fill="#bfbfbf" stroke="black" points="0,-24.5 0,-54.5 134,-54.5 134,-24.5 0,-24.5"/>
<text text-anchor="start" x="8" y="-42.5" font-family="Helvetica,sans-Serif" font-size="10.00">ScriptDictionaryListFactory</text>
<text text-anchor="middle" x="67" y="-31.5" font-family="Helvetica,sans-Serif" font-size="10.00">_Generic</text>
</g>
<!-- Node377 -->
<g id="node2" class="node"><title>Node377</title>
<g id="a_node2"><a xlink:href="../../df/d67/scriptdictionary_8h.html#a7c41a379d66a350e692e11acfea995cb" target="_top" xlink:title="RegisterScriptDictionary\l_Native">
<polygon fill="white" stroke="black" points="170,-49.5 170,-79.5 292,-79.5 292,-49.5 170,-49.5"/>
<text text-anchor="start" x="178" y="-67.5" font-family="Helvetica,sans-Serif" font-size="10.00">RegisterScriptDictionary</text>
<text text-anchor="middle" x="231" y="-56.5" font-family="Helvetica,sans-Serif" font-size="10.00">_Native</text>
</a>
</g>
</g>
<!-- Node376&#45;&gt;Node377 -->
<g id="edge1" class="edge"><title>Node376&#45;&gt;Node377</title>
<path fill="none" stroke="midnightblue" d="M144.391,-51.2887C152.983,-52.6146 161.645,-53.9513 169.987,-55.2388"/>
<polygon fill="midnightblue" stroke="midnightblue" points="144.776,-47.8068 134.359,-49.7406 143.708,-54.7249 144.776,-47.8068"/>
</g>
<!-- Node380 -->
<g id="node5" class="node"><title>Node380</title>
<g id="a_node5"><a xlink:href="../../df/d67/scriptdictionary_8h.html#af8fc6fbf1a623e6c2ff14605df4e0570" target="_top" xlink:title="RegisterScriptDictionary\l_Generic">
<polygon fill="white" stroke="black" points="170,-0.5 170,-30.5 292,-30.5 292,-0.5 170,-0.5"/>
<text text-anchor="start" x="178" y="-18.5" font-family="Helvetica,sans-Serif" font-size="10.00">RegisterScriptDictionary</text>
<text text-anchor="middle" x="231" y="-7.5" font-family="Helvetica,sans-Serif" font-size="10.00">_Generic</text>
</a>
</g>
</g>
<!-- Node376&#45;&gt;Node380 -->
<g id="edge4" class="edge"><title>Node376&#45;&gt;Node380</title>
<path fill="none" stroke="midnightblue" d="M144.391,-28.1829C152.983,-26.9099 161.645,-25.6267 169.987,-24.3908"/>
<polygon fill="midnightblue" stroke="midnightblue" points="143.738,-24.7413 134.359,-29.669 144.764,-31.6657 143.738,-24.7413"/>
</g>
<!-- Node378 -->
<g id="node3" class="node"><title>Node378</title>
<g id="a_node3"><a xlink:href="../../df/d67/scriptdictionary_8h.html#abf884a3f2b4b07a009c5fc055b48f901" target="_top" xlink:title="RegisterScriptDictionary">
<polygon fill="white" stroke="black" points="328,-30 328,-49 450,-49 450,-30 328,-30"/>
<text text-anchor="middle" x="389" y="-37" font-family="Helvetica,sans-Serif" font-size="10.00">RegisterScriptDictionary</text>
</a>
</g>
</g>
<!-- Node377&#45;&gt;Node378 -->
<g id="edge2" class="edge"><title>Node377&#45;&gt;Node378</title>
<path fill="none" stroke="midnightblue" d="M302.196,-53.2506C311.021,-51.8364 319.981,-50.4005 328.617,-49.0165"/>
<polygon fill="midnightblue" stroke="midnightblue" points="301.634,-49.796 292.314,-54.8343 302.742,-56.7078 301.634,-49.796"/>
</g>
<!-- Node379 -->
<g id="node4" class="node"><title>Node379</title>
<g id="a_node4"><a xlink:href="../../d4/d5f/_script_engine_8cpp.html#a72e7735b6ca109323b2aa797f7b7b45d" target="_top" xlink:title="logString">
<polygon fill="white" stroke="black" points="486,-30 486,-49 541,-49 541,-30 486,-30"/>
<text text-anchor="middle" x="513.5" y="-37" font-family="Helvetica,sans-Serif" font-size="10.00">logString</text>
</a>
</g>
</g>
<!-- Node378&#45;&gt;Node379 -->
<g id="edge3" class="edge"><title>Node378&#45;&gt;Node379</title>
<path fill="none" stroke="midnightblue" d="M460.175,-39.5C469.331,-39.5 478.215,-39.5 485.985,-39.5"/>
<polygon fill="midnightblue" stroke="midnightblue" points="460.173,-36.0001 450.173,-39.5 460.173,-43.0001 460.173,-36.0001"/>
</g>
<!-- Node380&#45;&gt;Node378 -->
<g id="edge5" class="edge"><title>Node380&#45;&gt;Node378</title>
<path fill="none" stroke="midnightblue" d="M302.259,-26.3091C310.802,-27.6234 319.469,-28.9568 327.847,-30.2457"/>
<polygon fill="midnightblue" stroke="midnightblue" points="302.73,-22.8404 292.314,-24.779 301.665,-29.759 302.73,-22.8404"/>
</g>
</g>
</svg>
