<?xml version="1.0" encoding="UTF-8" standalone="no"?>
<!DOCTYPE svg PUBLIC "-//W3C//DTD SVG 1.1//EN"
 "http://www.w3.org/Graphics/SVG/1.1/DTD/svg11.dtd">
<!-- Generated by graphviz version 2.38.0 (20140413.2041)
 -->
<!-- Title: ScriptDictionaryDeleteAll_Generic Pages: 1 -->
<svg width="540pt" height="39pt"
 viewBox="0.00 0.00 540.00 39.00" xmlns="http://www.w3.org/2000/svg" xmlns:xlink="http://www.w3.org/1999/xlink">
<g id="graph0" class="graph" transform="scale(1 1) rotate(0) translate(4 35)">
<title>ScriptDictionaryDeleteAll_Generic</title>
<polygon fill="white" stroke="none" points="-4,4 -4,-35 536,-35 536,4 -4,4"/>
<!-- Node309 -->
<g id="node1" class="node"><title>Node309</title>
<polygon fill="#bfbfbf" stroke="black" points="0,-0.5 0,-30.5 125,-30.5 125,-0.5 0,-0.5"/>
<text text-anchor="start" x="8" y="-18.5" font-family="Helvetica,sans-Serif" font-size="10.00">ScriptDictionaryDeleteAll</text>
<text text-anchor="middle" x="62.5" y="-7.5" font-family="Helvetica,sans-Serif" font-size="10.00">_Generic</text>
</g>
<!-- Node310 -->
<g id="node2" class="node"><title>Node310</title>
<g id="a_node2"><a xlink:href="../../df/d67/scriptdictionary_8h.html#af8fc6fbf1a623e6c2ff14605df4e0570" target="_top" xlink:title="RegisterScriptDictionary\l_Generic">
<polygon fill="white" stroke="black" points="161,-0.5 161,-30.5 283,-30.5 283,-0.5 161,-0.5"/>
<text text-anchor="start" x="169" y="-18.5" font-family="Helvetica,sans-Serif" font-size="10.00">RegisterScriptDictionary</text>
<text text-anchor="middle" x="222" y="-7.5" font-family="Helvetica,sans-Serif" font-size="10.00">_Generic</text>
</a>
</g>
</g>
<!-- Node309&#45;&gt;Node310 -->
<g id="edge1" class="edge"><title>Node309&#45;&gt;Node310</title>
<path fill="none" stroke="midnightblue" d="M135.565,-15.5C144.048,-15.5 152.636,-15.5 160.929,-15.5"/>
<polygon fill="midnightblue" stroke="midnightblue" points="135.296,-12.0001 125.296,-15.5 135.296,-19.0001 135.296,-12.0001"/>
</g>
<!-- Node311 -->
<g id="node3" class="node"><title>Node311</title>
<g id="a_node3"><a xlink:href="../../df/d67/scriptdictionary_8h.html#abf884a3f2b4b07a009c5fc055b48f901" target="_top" xlink:title="RegisterScriptDictionary">
<polygon fill="white" stroke="black" points="319,-6 319,-25 441,-25 441,-6 319,-6"/>
<text text-anchor="middle" x="380" y="-13" font-family="Helvetica,sans-Serif" font-size="10.00">RegisterScriptDictionary</text>
</a>
</g>
</g>
<!-- Node310&#45;&gt;Node311 -->
<g id="edge2" class="edge"><title>Node310&#45;&gt;Node311</title>
<path fill="none" stroke="midnightblue" d="M293.538,-15.5C301.99,-15.5 310.56,-15.5 318.847,-15.5"/>
<polygon fill="midnightblue" stroke="midnightblue" points="293.314,-12.0001 283.314,-15.5 293.314,-19.0001 293.314,-12.0001"/>
</g>
<!-- Node312 -->
<g id="node4" class="node"><title>Node312</title>
<g id="a_node4"><a xlink:href="../../d4/d5f/_script_engine_8cpp.html#a72e7735b6ca109323b2aa797f7b7b45d" target="_top" xlink:title="logString">
<polygon fill="white" stroke="black" points="477,-6 477,-25 532,-25 532,-6 477,-6"/>
<text text-anchor="middle" x="504.5" y="-13" font-family="Helvetica,sans-Serif" font-size="10.00">logString</text>
</a>
</g>
</g>
<!-- Node311&#45;&gt;Node312 -->
<g id="edge3" class="edge"><title>Node311&#45;&gt;Node312</title>
<path fill="none" stroke="midnightblue" d="M451.175,-15.5C460.331,-15.5 469.215,-15.5 476.985,-15.5"/>
<polygon fill="midnightblue" stroke="midnightblue" points="451.173,-12.0001 441.173,-15.5 451.173,-19.0001 451.173,-12.0001"/>
</g>
</g>
</svg>
