<?xml version="1.0" encoding="UTF-8" standalone="no"?>
<!DOCTYPE svg PUBLIC "-//W3C//DTD SVG 1.1//EN"
 "http://www.w3.org/Graphics/SVG/1.1/DTD/svg11.dtd">
<!-- Generated by graphviz version 2.38.0 (20140413.2041)
 -->
<!-- Title: CScriptDictValue_opCast Pages: 1 -->
<svg width="736pt" height="104pt"
 viewBox="0.00 0.00 736.00 104.00" xmlns="http://www.w3.org/2000/svg" xmlns:xlink="http://www.w3.org/1999/xlink">
<g id="graph0" class="graph" transform="scale(1 1) rotate(0) translate(4 100)">
<title>CScriptDictValue_opCast</title>
<polygon fill="white" stroke="none" points="-4,4 -4,-100 732,-100 732,4 -4,4"/>
<!-- Node94 -->
<g id="node1" class="node"><title>Node94</title>
<polygon fill="#bfbfbf" stroke="black" points="0,-38.5 0,-57.5 127,-57.5 127,-38.5 0,-38.5"/>
<text text-anchor="middle" x="63.5" y="-45.5" font-family="Helvetica,sans-Serif" font-size="10.00">CScriptDictValue_opCast</text>
</g>
<!-- Node95 -->
<g id="node2" class="node"><title>Node95</title>
<g id="a_node2"><a xlink:href="../../d0/dc5/scriptdictionary_8cpp.html#a3910fccc4dc26fca723645de69e3e0f9" target="_top" xlink:title="CScriptDictValue_opConvInt">
<polygon fill="white" stroke="black" points="173,-76.5 173,-95.5 311,-95.5 311,-76.5 173,-76.5"/>
<text text-anchor="middle" x="242" y="-83.5" font-family="Helvetica,sans-Serif" font-size="10.00">CScriptDictValue_opConvInt</text>
</a>
</g>
</g>
<!-- Node94&#45;&gt;Node95 -->
<g id="edge1" class="edge"><title>Node94&#45;&gt;Node95</title>
<path fill="none" stroke="midnightblue" d="M119.088,-59.7526C144.045,-65.1258 173.227,-71.4086 196.782,-76.4799"/>
<polygon fill="midnightblue" stroke="midnightblue" points="119.551,-56.2722 109.038,-57.589 118.078,-63.1154 119.551,-56.2722"/>
</g>
<!-- Node96 -->
<g id="node3" class="node"><title>Node96</title>
<g id="a_node3"><a xlink:href="../../df/d67/scriptdictionary_8h.html#a7c41a379d66a350e692e11acfea995cb" target="_top" xlink:title="RegisterScriptDictionary\l_Native">
<polygon fill="white" stroke="black" points="357,-33 357,-63 479,-63 479,-33 357,-33"/>
<text text-anchor="start" x="365" y="-51" font-family="Helvetica,sans-Serif" font-size="10.00">RegisterScriptDictionary</text>
<text text-anchor="middle" x="418" y="-40" font-family="Helvetica,sans-Serif" font-size="10.00">_Native</text>
</a>
</g>
</g>
<!-- Node94&#45;&gt;Node96 -->
<g id="edge7" class="edge"><title>Node94&#45;&gt;Node96</title>
<path fill="none" stroke="midnightblue" d="M137.267,-48C202.14,-48 295.975,-48 356.735,-48"/>
<polygon fill="midnightblue" stroke="midnightblue" points="137.114,-44.5001 127.114,-48 137.114,-51.5001 137.114,-44.5001"/>
</g>
<!-- Node99 -->
<g id="node6" class="node"><title>Node99</title>
<g id="a_node6"><a xlink:href="../../d0/dc5/scriptdictionary_8cpp.html#aab890491cac45d4e0a8c82b701f8b36f" target="_top" xlink:title="CScriptDictValue_opConvDouble">
<polygon fill="white" stroke="black" points="163,-0.5 163,-19.5 321,-19.5 321,-0.5 163,-0.5"/>
<text text-anchor="middle" x="242" y="-7.5" font-family="Helvetica,sans-Serif" font-size="10.00">CScriptDictValue_opConvDouble</text>
</a>
</g>
</g>
<!-- Node94&#45;&gt;Node99 -->
<g id="edge5" class="edge"><title>Node94&#45;&gt;Node99</title>
<path fill="none" stroke="midnightblue" d="M119.088,-36.2474C144.045,-30.8742 173.227,-24.5914 196.782,-19.5201"/>
<polygon fill="midnightblue" stroke="midnightblue" points="118.078,-32.8846 109.038,-38.411 119.551,-39.7278 118.078,-32.8846"/>
</g>
<!-- Node95&#45;&gt;Node96 -->
<g id="edge2" class="edge"><title>Node95&#45;&gt;Node96</title>
<path fill="none" stroke="midnightblue" d="M296.861,-74.2373C315.812,-70.0986 337.229,-65.4213 356.677,-61.1739"/>
<polygon fill="midnightblue" stroke="midnightblue" points="295.93,-70.8579 286.908,-76.411 297.424,-77.6967 295.93,-70.8579"/>
</g>
<!-- Node97 -->
<g id="node4" class="node"><title>Node97</title>
<g id="a_node4"><a xlink:href="../../df/d67/scriptdictionary_8h.html#abf884a3f2b4b07a009c5fc055b48f901" target="_top" xlink:title="RegisterScriptDictionary">
<polygon fill="white" stroke="black" points="515,-38.5 515,-57.5 637,-57.5 637,-38.5 515,-38.5"/>
<text text-anchor="middle" x="576" y="-45.5" font-family="Helvetica,sans-Serif" font-size="10.00">RegisterScriptDictionary</text>
</a>
</g>
</g>
<!-- Node96&#45;&gt;Node97 -->
<g id="edge3" class="edge"><title>Node96&#45;&gt;Node97</title>
<path fill="none" stroke="midnightblue" d="M489.538,-48C497.99,-48 506.56,-48 514.847,-48"/>
<polygon fill="midnightblue" stroke="midnightblue" points="489.314,-44.5001 479.314,-48 489.314,-51.5001 489.314,-44.5001"/>
</g>
<!-- Node98 -->
<g id="node5" class="node"><title>Node98</title>
<g id="a_node5"><a xlink:href="../../d4/d5f/_script_engine_8cpp.html#a72e7735b6ca109323b2aa797f7b7b45d" target="_top" xlink:title="logString">
<polygon fill="white" stroke="black" points="673,-38.5 673,-57.5 728,-57.5 728,-38.5 673,-38.5"/>
<text text-anchor="middle" x="700.5" y="-45.5" font-family="Helvetica,sans-Serif" font-size="10.00">logString</text>
</a>
</g>
</g>
<!-- Node97&#45;&gt;Node98 -->
<g id="edge4" class="edge"><title>Node97&#45;&gt;Node98</title>
<path fill="none" stroke="midnightblue" d="M647.175,-48C656.331,-48 665.215,-48 672.985,-48"/>
<polygon fill="midnightblue" stroke="midnightblue" points="647.173,-44.5001 637.173,-48 647.173,-51.5001 647.173,-44.5001"/>
</g>
<!-- Node99&#45;&gt;Node96 -->
<g id="edge6" class="edge"><title>Node99&#45;&gt;Node96</title>
<path fill="none" stroke="midnightblue" d="M296.861,-21.7627C315.812,-25.9014 337.229,-30.5787 356.677,-34.8261"/>
<polygon fill="midnightblue" stroke="midnightblue" points="297.424,-18.3033 286.908,-19.589 295.93,-25.1421 297.424,-18.3033"/>
</g>
</g>
</svg>
