<?xml version="1.0" encoding="UTF-8" standalone="no"?>
<!DOCTYPE svg PUBLIC "-//W3C//DTD SVG 1.1//EN"
 "http://www.w3.org/Graphics/SVG/1.1/DTD/svg11.dtd">
<!-- Generated by graphviz version 2.38.0 (20140413.2041)
 -->
<!-- Title: ScriptDictionaryGetGCFlag_Generic Pages: 1 -->
<svg width="549pt" height="39pt"
 viewBox="0.00 0.00 549.00 39.00" xmlns="http://www.w3.org/2000/svg" xmlns:xlink="http://www.w3.org/1999/xlink">
<g id="graph0" class="graph" transform="scale(1 1) rotate(0) translate(4 35)">
<title>ScriptDictionaryGetGCFlag_Generic</title>
<polygon fill="white" stroke="none" points="-4,4 -4,-35 545,-35 545,4 -4,4"/>
<!-- Node346 -->
<g id="node1" class="node"><title>Node346</title>
<polygon fill="#bfbfbf" stroke="black" points="0,-0.5 0,-30.5 134,-30.5 134,-0.5 0,-0.5"/>
<text text-anchor="start" x="8" y="-18.5" font-family="Helvetica,sans-Serif" font-size="10.00">ScriptDictionaryGetGCFlag</text>
<text text-anchor="middle" x="67" y="-7.5" font-family="Helvetica,sans-Serif" font-size="10.00">_Generic</text>
</g>
<!-- Node347 -->
<g id="node2" class="node"><title>Node347</title>
<g id="a_node2"><a xlink:href="../../df/d67/scriptdictionary_8h.html#af8fc6fbf1a623e6c2ff14605df4e0570" target="_top" xlink:title="RegisterScriptDictionary\l_Generic">
<polygon fill="white" stroke="black" points="170,-0.5 170,-30.5 292,-30.5 292,-0.5 170,-0.5"/>
<text text-anchor="start" x="178" y="-18.5" font-family="Helvetica,sans-Serif" font-size="10.00">RegisterScriptDictionary</text>
<text text-anchor="middle" x="231" y="-7.5" font-family="Helvetica,sans-Serif" font-size="10.00">_Generic</text>
</a>
</g>
</g>
<!-- Node346&#45;&gt;Node347 -->
<g id="edge1" class="edge"><title>Node346&#45;&gt;Node347</title>
<path fill="none" stroke="midnightblue" d="M144.391,-15.5C152.983,-15.5 161.645,-15.5 169.987,-15.5"/>
<polygon fill="midnightblue" stroke="midnightblue" points="144.359,-12.0001 134.359,-15.5 144.359,-19.0001 144.359,-12.0001"/>
</g>
<!-- Node348 -->
<g id="node3" class="node"><title>Node348</title>
<g id="a_node3"><a xlink:href="../../df/d67/scriptdictionary_8h.html#abf884a3f2b4b07a009c5fc055b48f901" target="_top" xlink:title="RegisterScriptDictionary">
<polygon fill="white" stroke="black" points="328,-6 328,-25 450,-25 450,-6 328,-6"/>
<text text-anchor="middle" x="389" y="-13" font-family="Helvetica,sans-Serif" font-size="10.00">RegisterScriptDictionary</text>
</a>
</g>
</g>
<!-- Node347&#45;&gt;Node348 -->
<g id="edge2" class="edge"><title>Node347&#45;&gt;Node348</title>
<path fill="none" stroke="midnightblue" d="M302.538,-15.5C310.99,-15.5 319.56,-15.5 327.847,-15.5"/>
<polygon fill="midnightblue" stroke="midnightblue" points="302.314,-12.0001 292.314,-15.5 302.314,-19.0001 302.314,-12.0001"/>
</g>
<!-- Node349 -->
<g id="node4" class="node"><title>Node349</title>
<g id="a_node4"><a xlink:href="../../d4/d5f/_script_engine_8cpp.html#a72e7735b6ca109323b2aa797f7b7b45d" target="_top" xlink:title="logString">
<polygon fill="white" stroke="black" points="486,-6 486,-25 541,-25 541,-6 486,-6"/>
<text text-anchor="middle" x="513.5" y="-13" font-family="Helvetica,sans-Serif" font-size="10.00">logString</text>
</a>
</g>
</g>
<!-- Node348&#45;&gt;Node349 -->
<g id="edge3" class="edge"><title>Node348&#45;&gt;Node349</title>
<path fill="none" stroke="midnightblue" d="M460.175,-15.5C469.331,-15.5 478.215,-15.5 485.985,-15.5"/>
<polygon fill="midnightblue" stroke="midnightblue" points="460.173,-12.0001 450.173,-15.5 460.173,-19.0001 460.173,-12.0001"/>
</g>
</g>
</svg>
