<?xml version="1.0" encoding="UTF-8" standalone="no"?>
<!DOCTYPE svg PUBLIC "-//W3C//DTD SVG 1.1//EN"
 "http://www.w3.org/Graphics/SVG/1.1/DTD/svg11.dtd">
<!-- Generated by graphviz version 2.38.0 (20140413.2041)
 -->
<!-- Title: RoR::GUI::VehicleDescription::SetVisible Pages: 1 -->
<svg width="500pt" height="88pt"
 viewBox="0.00 0.00 500.00 88.00" xmlns="http://www.w3.org/2000/svg" xmlns:xlink="http://www.w3.org/1999/xlink">
<g id="graph0" class="graph" transform="scale(1 1) rotate(0) translate(4 84)">
<title>RoR::GUI::VehicleDescription::SetVisible</title>
<polygon fill="white" stroke="none" points="-4,4 -4,-84 496,-84 496,4 -4,4"/>
<!-- Node42 -->
<g id="node1" class="node"><title>Node42</title>
<polygon fill="#bfbfbf" stroke="black" points="0,-24.5 0,-54.5 145,-54.5 145,-24.5 0,-24.5"/>
<text text-anchor="start" x="8" y="-42.5" font-family="Helvetica,sans-Serif" font-size="10.00">RoR::GUI::VehicleDescription</text>
<text text-anchor="middle" x="72.5" y="-31.5" font-family="Helvetica,sans-Serif" font-size="10.00">::SetVisible</text>
</g>
<!-- Node43 -->
<g id="node2" class="node"><title>Node43</title>
<g id="a_node2"><a xlink:href="../../d8/d11/class_ro_r_1_1_g_u_i_manager.html#ad46c5b182f16d522a6a84c4da2464299" target="_top" xlink:title="RoR::GUIManager::SetVisible\l_VehicleDescription">
<polygon fill="white" stroke="black" points="181,-49.5 181,-79.5 327,-79.5 327,-49.5 181,-49.5"/>
<text text-anchor="start" x="189" y="-67.5" font-family="Helvetica,sans-Serif" font-size="10.00">RoR::GUIManager::SetVisible</text>
<text text-anchor="middle" x="254" y="-56.5" font-family="Helvetica,sans-Serif" font-size="10.00">_VehicleDescription</text>
</a>
</g>
</g>
<!-- Node42&#45;&gt;Node43 -->
<g id="edge1" class="edge"><title>Node42&#45;&gt;Node43</title>
<path fill="none" stroke="midnightblue" d="M155.187,-50.877C163.734,-52.0675 172.38,-53.2716 180.811,-54.4458"/>
<polygon fill="midnightblue" stroke="midnightblue" points="155.604,-47.4014 145.217,-49.4884 154.639,-54.3345 155.604,-47.4014"/>
</g>
<!-- Node44 -->
<g id="node3" class="node"><title>Node44</title>
<g id="a_node3"><a xlink:href="../../d8/d11/class_ro_r_1_1_g_u_i_manager.html#ab4ed29f54999b3bf85033f937b3736b9" target="_top" xlink:title="RoR::GUIManager::Reflect\lGameState">
<polygon fill="white" stroke="black" points="188.5,-0.5 188.5,-30.5 319.5,-30.5 319.5,-0.5 188.5,-0.5"/>
<text text-anchor="start" x="196.5" y="-18.5" font-family="Helvetica,sans-Serif" font-size="10.00">RoR::GUIManager::Reflect</text>
<text text-anchor="middle" x="254" y="-7.5" font-family="Helvetica,sans-Serif" font-size="10.00">GameState</text>
</a>
</g>
</g>
<!-- Node42&#45;&gt;Node44 -->
<g id="edge2" class="edge"><title>Node42&#45;&gt;Node44</title>
<path fill="none" stroke="midnightblue" d="M155.326,-28.5594C166.405,-27.0781 177.647,-25.5751 188.368,-24.1416"/>
<polygon fill="midnightblue" stroke="midnightblue" points="154.665,-25.1166 145.217,-29.9111 155.593,-32.0549 154.665,-25.1166"/>
</g>
<!-- Node45 -->
<g id="node4" class="node"><title>Node45</title>
<g id="a_node4"><a xlink:href="../../df/d0a/main_8cpp.html#a0ddf1224851353fc92bfbff6f499fa97" target="_top" xlink:title="main">
<polygon fill="white" stroke="black" points="363,-6 363,-25 401,-25 401,-6 363,-6"/>
<text text-anchor="middle" x="382" y="-13" font-family="Helvetica,sans-Serif" font-size="10.00">main</text>
</a>
</g>
</g>
<!-- Node44&#45;&gt;Node45 -->
<g id="edge3" class="edge"><title>Node44&#45;&gt;Node45</title>
<path fill="none" stroke="midnightblue" d="M330.149,-15.5C342.29,-15.5 353.805,-15.5 362.797,-15.5"/>
<polygon fill="midnightblue" stroke="midnightblue" points="329.846,-12.0001 319.845,-15.5 329.845,-19.0001 329.846,-12.0001"/>
</g>
<!-- Node46 -->
<g id="node5" class="node"><title>Node46</title>
<g id="a_node5"><a xlink:href="../../df/d0a/main_8cpp.html#a2922bc5d5c2d77a3020cfbf9df12aab0" target="_top" xlink:title="WinMain">
<polygon fill="white" stroke="black" points="437,-6 437,-25 492,-25 492,-6 437,-6"/>
<text text-anchor="middle" x="464.5" y="-13" font-family="Helvetica,sans-Serif" font-size="10.00">WinMain</text>
</a>
</g>
</g>
<!-- Node45&#45;&gt;Node46 -->
<g id="edge4" class="edge"><title>Node45&#45;&gt;Node46</title>
<path fill="none" stroke="midnightblue" d="M411.519,-15.5C419.73,-15.5 428.653,-15.5 436.752,-15.5"/>
<polygon fill="midnightblue" stroke="midnightblue" points="411.267,-12.0001 401.267,-15.5 411.267,-19.0001 411.267,-12.0001"/>
</g>
</g>
</svg>
