<?xml version="1.0" encoding="UTF-8" standalone="no"?>
<!DOCTYPE svg PUBLIC "-//W3C//DTD SVG 1.1//EN"
 "http://www.w3.org/Graphics/SVG/1.1/DTD/svg11.dtd">
<!-- Generated by graphviz version 2.38.0 (20140413.2041)
 -->
<!-- Title: ImVector::insert Pages: 1 -->
<!--zoomable 172 -->
<svg id="main" version="1.1" xmlns="http://www.w3.org/2000/svg" xmlns:xlink="http://www.w3.org/1999/xlink" xml:space="preserve" onload="init(evt)">
<style type="text/css"><![CDATA[
.edge:hover path { stroke: red; }
.edge:hover polygon { stroke: red; fill: red; }
]]></style>
<script type="text/javascript"><![CDATA[
var edges = document.getElementsByTagName('g');
if (edges && edges.length) {
  for (var i=0;i<edges.length;i++) {
    if (edges[i].id.substr(0,4)=='edge') {
      edges[i].setAttribute('class','edge');
    }
  }
}
]]></script>
        <defs>
                <circle id="rim" cx="0" cy="0" r="7"/>
                <circle id="rim2" cx="0" cy="0" r="3.5"/>
                <g id="zoomPlus">
                        <use xlink:href="#rim" fill="#404040">
                                <set attributeName="fill" to="#808080" begin="zoomplus.mouseover" end="zoomplus.mouseout"/>
                        </use>
                        <path d="M-4,0h8M0,-4v8" fill="none" stroke="white" stroke-width="1.5" pointer-events="none"/>
                </g>
                <g id="zoomMin">
                        <use xlink:href="#rim" fill="#404040">
                                <set attributeName="fill" to="#808080" begin="zoomminus.mouseover" end="zoomminus.mouseout"/>
                        </use>
                        <path d="M-4,0h8" fill="none" stroke="white" stroke-width="1.5" pointer-events="none"/>
                </g>
                <g id="dirArrow">
                        <path fill="none" stroke="white" stroke-width="1.5" d="M0,-3.0v7 M-2.5,-0.5L0,-3.0L2.5,-0.5"/>
                </g>
               <g id="resetDef">
                       <use xlink:href="#rim2" fill="#404040">
                               <set attributeName="fill" to="#808080" begin="reset.mouseover" end="reset.mouseout"/>
                       </use>
               </g>
        </defs>

<script type="text/javascript">
var viewWidth = 554;
var viewHeight = 172;
var sectionId = 'dynsection-8';
</script>
<script xlink:href="../../svgpan.js"/>
<svg id="graph" class="graph">
<g id="viewport">
<title>ImVector::insert</title>
<polygon fill="white" stroke="none" points="-4,4 -4,-167.5 550,-167.5 550,4 -4,4"/>
<!-- Node2061 -->
<g id="node1" class="node"><title>Node2061</title>
<polygon fill="#bfbfbf" stroke="black" points="0,-87 0,-106 86,-106 86,-87 0,-87"/>
<text text-anchor="middle" x="43" y="-94" font-family="Helvetica,sans-Serif" font-size="10.00">ImVector::insert</text>
</g>
<!-- Node2062 -->
<g id="node2" class="node"><title>Node2062</title>
<g id="a_node2"><a xlink:href="../../df/d15/struct_im_gui_storage.html#a28673fa7839263f3066ccb8e93e748a9" target="_top" xlink:title="ImGuiStorage::GetIntRef">
<polygon fill="white" stroke="black" points="133,-144 133,-163 255,-163 255,-144 133,-144"/>
<text text-anchor="middle" x="194" y="-151" font-family="Helvetica,sans-Serif" font-size="10.00">ImGuiStorage::GetIntRef</text>
</a>
</g>
</g>
<!-- Node2061&#45;&gt;Node2062 -->
<g id="edge1" class="edge"><title>Node2061&#45;&gt;Node2062</title>
<path fill="none" stroke="midnightblue" d="M70.3335,-110.899C85.1963,-118.624 104.289,-127.886 122,-134.5 131.563,-138.071 142.083,-141.266 152.027,-143.971"/>
<polygon fill="midnightblue" stroke="midnightblue" points="71.7108,-107.668 61.2344,-106.089 68.4391,-113.857 71.7108,-107.668"/>
</g>
<!-- Node2063 -->
<g id="node3" class="node"><title>Node2063</title>
<g id="a_node3"><a xlink:href="../../df/d15/struct_im_gui_storage.html#a4b51cc8c92c65d4224af65a8ce7752ee" target="_top" xlink:title="ImGuiStorage::GetFloatRef">
<polygon fill="white" stroke="black" points="127,-106 127,-125 261,-125 261,-106 127,-106"/>
<text text-anchor="middle" x="194" y="-113" font-family="Helvetica,sans-Serif" font-size="10.00">ImGuiStorage::GetFloatRef</text>
</a>
</g>
</g>
<!-- Node2061&#45;&gt;Node2063 -->
<g id="edge2" class="edge"><title>Node2061&#45;&gt;Node2063</title>
<path fill="none" stroke="midnightblue" d="M96.3536,-103.176C106.232,-104.436 116.682,-105.768 126.918,-107.073"/>
<polygon fill="midnightblue" stroke="midnightblue" points="96.6613,-99.6869 86.2989,-101.894 95.7758,-106.631 96.6613,-99.6869"/>
</g>
<!-- Node2064 -->
<g id="node4" class="node"><title>Node2064</title>
<g id="a_node4"><a xlink:href="../../df/d15/struct_im_gui_storage.html#a2b203317f3f488818e9b9f416fe35332" target="_top" xlink:title="ImGuiStorage::GetVoidPtrRef">
<polygon fill="white" stroke="black" points="122,-68 122,-87 266,-87 266,-68 122,-68"/>
<text text-anchor="middle" x="194" y="-75" font-family="Helvetica,sans-Serif" font-size="10.00">ImGuiStorage::GetVoidPtrRef</text>
</a>
</g>
</g>
<!-- Node2061&#45;&gt;Node2064 -->
<g id="edge3" class="edge"><title>Node2061&#45;&gt;Node2064</title>
<path fill="none" stroke="midnightblue" d="M96.4619,-89.8102C104.678,-88.7625 113.287,-87.6647 121.838,-86.5744"/>
<polygon fill="midnightblue" stroke="midnightblue" points="95.7758,-86.3693 86.2989,-91.1062 96.6613,-93.3131 95.7758,-86.3693"/>
</g>
<!-- Node2065 -->
<g id="node5" class="node"><title>Node2065</title>
<g id="a_node5"><a xlink:href="../../da/d72/imgui_8cpp.html#ab4943d763d83691a98d6e80bb5d586a1" target="_top" xlink:title="CreateNewWindow">
<polygon fill="white" stroke="black" points="145,-30 145,-49 243,-49 243,-30 145,-30"/>
<text text-anchor="middle" x="194" y="-37" font-family="Helvetica,sans-Serif" font-size="10.00">CreateNewWindow</text>
</a>
</g>
</g>
<!-- Node2061&#45;&gt;Node2065 -->
<g id="edge4" class="edge"><title>Node2061&#45;&gt;Node2065</title>
<path fill="none" stroke="midnightblue" d="M70.3335,-82.1008C85.1963,-74.3765 104.289,-65.114 122,-58.5 131.563,-54.9287 142.083,-51.734 152.027,-49.0293"/>
<polygon fill="midnightblue" stroke="midnightblue" points="68.4391,-79.1432 61.2344,-86.9113 71.7108,-85.3316 68.4391,-79.1432"/>
</g>
<!-- Node2066 -->
<g id="node6" class="node"><title>Node2066</title>
<g id="a_node6"><a xlink:href="../../df/d13/namespace_im_gui.html#a030e4ac6eed5b4b960a3fef538fcbad0" target="_top" xlink:title="ImGui::Begin">
<polygon fill="white" stroke="black" points="302,-30 302,-49 375,-49 375,-30 302,-30"/>
<text text-anchor="middle" x="338.5" y="-37" font-family="Helvetica,sans-Serif" font-size="10.00">ImGui::Begin</text>
</a>
</g>
</g>
<!-- Node2065&#45;&gt;Node2066 -->
<g id="edge5" class="edge"><title>Node2065&#45;&gt;Node2066</title>
<path fill="none" stroke="midnightblue" d="M253.341,-39.5C269.809,-39.5 287.228,-39.5 301.92,-39.5"/>
<polygon fill="midnightblue" stroke="midnightblue" points="253.244,-36.0001 243.244,-39.5 253.244,-43.0001 253.244,-36.0001"/>
</g>
<!-- Node2067 -->
<g id="node7" class="node"><title>Node2067</title>
<g id="a_node7"><a xlink:href="../../df/d0a/struct_im_gui_list_clipper.html#a0dc870fa31a56d3ace7625450f42937a" target="_top" xlink:title="ImGuiListClipper::ImGuiList\lClipper">
<polygon fill="white" stroke="black" points="411,-49.5 411,-79.5 546,-79.5 546,-49.5 411,-49.5"/>
<text text-anchor="start" x="419" y="-67.5" font-family="Helvetica,sans-Serif" font-size="10.00">ImGuiListClipper::ImGuiList</text>
<text text-anchor="middle" x="478.5" y="-56.5" font-family="Helvetica,sans-Serif" font-size="10.00">Clipper</text>
</a>
</g>
</g>
<!-- Node2066&#45;&gt;Node2067 -->
<g id="edge6" class="edge"><title>Node2066&#45;&gt;Node2067</title>
<path fill="none" stroke="midnightblue" d="M384.933,-47.7307C393.29,-49.2446 402.171,-50.8535 410.998,-52.4525"/>
<polygon fill="midnightblue" stroke="midnightblue" points="385.502,-44.2768 375.038,-45.9381 384.254,-51.1647 385.502,-44.2768"/>
</g>
<!-- Node2068 -->
<g id="node8" class="node"><title>Node2068</title>
<g id="a_node8"><a xlink:href="../../df/d0a/struct_im_gui_list_clipper.html#ada915f0ae4446df73c1a2372bde65293" target="_top" xlink:title="ImGuiListClipper::\l~ImGuiListClipper">
<polygon fill="white" stroke="black" points="431.5,-0.5 431.5,-30.5 525.5,-30.5 525.5,-0.5 431.5,-0.5"/>
<text text-anchor="start" x="439.5" y="-18.5" font-family="Helvetica,sans-Serif" font-size="10.00">ImGuiListClipper::</text>
<text text-anchor="middle" x="478.5" y="-7.5" font-family="Helvetica,sans-Serif" font-size="10.00">~ImGuiListClipper</text>
</a>
</g>
</g>
<!-- Node2066&#45;&gt;Node2068 -->
<g id="edge7" class="edge"><title>Node2066&#45;&gt;Node2068</title>
<path fill="none" stroke="midnightblue" d="M385.041,-31.5798C399.929,-28.9906 416.471,-26.1138 431.4,-23.5175"/>
<polygon fill="midnightblue" stroke="midnightblue" points="384.291,-28.1577 375.038,-33.3194 385.49,-35.0542 384.291,-28.1577"/>
</g>
</g>
</svg>
        <g id="navigator" transform="translate(0 0)" fill="#404254">
                <rect fill="#f2f5e9" fill-opacity="0.5" stroke="#606060" stroke-width=".5" x="0" y="0" width="60" height="60"/>
                <use id="zoomplus" xlink:href="#zoomPlus" x="17" y="9" onmousedown="handleZoom(evt,'in')"/>
                <use id="zoomminus" xlink:href="#zoomMin" x="42" y="9" onmousedown="handleZoom(evt,'out')"/>
                <use id="reset" xlink:href="#resetDef" x="30" y="36" onmousedown="handleReset()"/>
                <g id="arrowUp" xlink:href="#dirArrow" transform="translate(30 24)" onmousedown="handlePan(0,-1)">
                  <use xlink:href="#rim" fill="#404040">
                        <set attributeName="fill" to="#808080" begin="arrowUp.mouseover" end="arrowUp.mouseout"/>
                  </use>
                  <path fill="none" stroke="white" stroke-width="1.5" d="M0,-3.0v7 M-2.5,-0.5L0,-3.0L2.5,-0.5"/>
                </g>
                <g id="arrowRight" xlink:href="#dirArrow" transform="rotate(90) translate(36 -43)" onmousedown="handlePan(1,0)">
                  <use xlink:href="#rim" fill="#404040">
                        <set attributeName="fill" to="#808080" begin="arrowRight.mouseover" end="arrowRight.mouseout"/>
                  </use>
                  <path fill="none" stroke="white" stroke-width="1.5" d="M0,-3.0v7 M-2.5,-0.5L0,-3.0L2.5,-0.5"/>
                </g>
                <g id="arrowDown" xlink:href="#dirArrow" transform="rotate(180) translate(-30 -48)" onmousedown="handlePan(0,1)">
                  <use xlink:href="#rim" fill="#404040">
                        <set attributeName="fill" to="#808080" begin="arrowDown.mouseover" end="arrowDown.mouseout"/>
                  </use>
                  <path fill="none" stroke="white" stroke-width="1.5" d="M0,-3.0v7 M-2.5,-0.5L0,-3.0L2.5,-0.5"/>
                </g>
                <g id="arrowLeft" xlink:href="#dirArrow" transform="rotate(270) translate(-36 17)" onmousedown="handlePan(-1,0)">
                  <use xlink:href="#rim" fill="#404040">
                        <set attributeName="fill" to="#808080" begin="arrowLeft.mouseover" end="arrowLeft.mouseout"/>
                  </use>
                  <path fill="none" stroke="white" stroke-width="1.5" d="M0,-3.0v7 M-2.5,-0.5L0,-3.0L2.5,-0.5"/>
                </g>
        </g>
        <svg viewBox="0 0 15 15" width="100%" height="30px" preserveAspectRatio="xMaxYMin meet">
         <g id="arrow_out" transform="scale(0.3 0.3)">
          <a xlink:href="class_im_vector_a52fdb731c13c82a1fd971186c6a701b5_icgraph_org.svg" target="_base">
           <rect id="button" ry="5" rx="5" y="6" x="6" height="38" width="38"
                fill="#f2f5e9" fill-opacity="0.5" stroke="#606060" stroke-width="1.0"/>
           <path id="arrow"
             d="M 11.500037,31.436501 C 11.940474,20.09759 22.043105,11.32322 32.158766,21.979434 L 37.068811,17.246167 C 37.068811,17.246167 37.088388,32 37.088388,32 L 22.160133,31.978069 C 22.160133,31.978069 26.997745,27.140456 26.997745,27.140456 C 18.528582,18.264221 13.291696,25.230495 11.500037,31.436501 z"
             style="fill:#404040;"/>
          </a>
         </g>
        </svg>
</svg>
