<?xml version="1.0" encoding="UTF-8" standalone="no"?>
<!DOCTYPE svg PUBLIC "-//W3C//DTD SVG 1.1//EN"
 "http://www.w3.org/Graphics/SVG/1.1/DTD/svg11.dtd">
<!-- Generated by graphviz version 2.38.0 (20140413.2041)
 -->
<!-- Title: Character::SetSimController Pages: 1 -->
<!--zoomable 97 -->
<svg id="main" version="1.1" xmlns="http://www.w3.org/2000/svg" xmlns:xlink="http://www.w3.org/1999/xlink" xml:space="preserve" onload="init(evt)">
<style type="text/css"><![CDATA[
.edge:hover path { stroke: red; }
.edge:hover polygon { stroke: red; fill: red; }
]]></style>
<script type="text/javascript"><![CDATA[
var edges = document.getElementsByTagName('g');
if (edges && edges.length) {
  for (var i=0;i<edges.length;i++) {
    if (edges[i].id.substr(0,4)=='edge') {
      edges[i].setAttribute('class','edge');
    }
  }
}
]]></script>
        <defs>
                <circle id="rim" cx="0" cy="0" r="7"/>
                <circle id="rim2" cx="0" cy="0" r="3.5"/>
                <g id="zoomPlus">
                        <use xlink:href="#rim" fill="#404040">
                                <set attributeName="fill" to="#808080" begin="zoomplus.mouseover" end="zoomplus.mouseout"/>
                        </use>
                        <path d="M-4,0h8M0,-4v8" fill="none" stroke="white" stroke-width="1.5" pointer-events="none"/>
                </g>
                <g id="zoomMin">
                        <use xlink:href="#rim" fill="#404040">
                                <set attributeName="fill" to="#808080" begin="zoomminus.mouseover" end="zoomminus.mouseout"/>
                        </use>
                        <path d="M-4,0h8" fill="none" stroke="white" stroke-width="1.5" pointer-events="none"/>
                </g>
                <g id="dirArrow">
                        <path fill="none" stroke="white" stroke-width="1.5" d="M0,-3.0v7 M-2.5,-0.5L0,-3.0L2.5,-0.5"/>
                </g>
               <g id="resetDef">
                       <use xlink:href="#rim2" fill="#404040">
                               <set attributeName="fill" to="#808080" begin="reset.mouseover" end="reset.mouseout"/>
                       </use>
               </g>
        </defs>

<script type="text/javascript">
var viewWidth = 793;
var viewHeight = 97;
var sectionId = 'dynsection-27';
</script>
<script xlink:href="../../svgpan.js"/>
<svg id="graph" class="graph">
<g id="viewport">
<title>Character::SetSimController</title>
<polygon fill="white" stroke="none" points="-4,4 -4,-92.5 789,-92.5 789,4 -4,4"/>
<!-- Node1256 -->
<g id="node1" class="node"><title>Node1256</title>
<polygon fill="#bfbfbf" stroke="black" points="0,-41.5 0,-60.5 138,-60.5 138,-41.5 0,-41.5"/>
<text text-anchor="middle" x="69" y="-48.5" font-family="Helvetica,sans-Serif" font-size="10.00">Character::SetSimController</text>
</g>
<!-- Node1257 -->
<g id="node2" class="node"><title>Node1257</title>
<g id="a_node2"><a xlink:href="../../d0/db2/class_ro_r_1_1_character_factory.html#ad71015f567d69271e88269e994da747b" target="_top" xlink:title="RoR::CharacterFactory\l::createLocal">
<polygon fill="white" stroke="black" points="174,-36 174,-66 290,-66 290,-36 174,-36"/>
<text text-anchor="start" x="182" y="-54" font-family="Helvetica,sans-Serif" font-size="10.00">RoR::CharacterFactory</text>
<text text-anchor="middle" x="232" y="-43" font-family="Helvetica,sans-Serif" font-size="10.00">::createLocal</text>
</a>
</g>
</g>
<!-- Node1256&#45;&gt;Node1257 -->
<g id="edge1" class="edge"><title>Node1256&#45;&gt;Node1257</title>
<path fill="none" stroke="midnightblue" d="M148.32,-51C156.906,-51 165.526,-51 173.788,-51"/>
<polygon fill="midnightblue" stroke="midnightblue" points="148.279,-47.5001 138.278,-51 148.278,-54.5001 148.279,-47.5001"/>
</g>
<!-- Node1258 -->
<g id="node3" class="node"><title>Node1258</title>
<g id="a_node3"><a xlink:href="../../d0/db2/class_ro_r_1_1_character_factory.html#a74013a41babb84f35bcff5e6c796df48" target="_top" xlink:title="RoR::CharacterFactory\l::CharacterFactory">
<polygon fill="white" stroke="black" points="365,-58 365,-88 481,-88 481,-58 365,-58"/>
<text text-anchor="start" x="373" y="-76" font-family="Helvetica,sans-Serif" font-size="10.00">RoR::CharacterFactory</text>
<text text-anchor="middle" x="423" y="-65" font-family="Helvetica,sans-Serif" font-size="10.00">::CharacterFactory</text>
</a>
</g>
</g>
<!-- Node1257&#45;&gt;Node1258 -->
<g id="edge2" class="edge"><title>Node1257&#45;&gt;Node1258</title>
<path fill="none" stroke="midnightblue" d="M300.411,-58.8468C321.538,-61.3061 344.638,-63.995 364.975,-66.3622"/>
<polygon fill="midnightblue" stroke="midnightblue" points="300.557,-55.3402 290.219,-57.6604 299.747,-62.2933 300.557,-55.3402"/>
</g>
<!-- Node1259 -->
<g id="node4" class="node"><title>Node1259</title>
<g id="a_node4"><a xlink:href="../../dd/dbe/class_ro_r_frame_listener.html#aca3931d7a75f2ad4b9d36c4fcd03a3c9" target="_top" xlink:title="RoRFrameListener::SetupGameplayLoop">
<polygon fill="white" stroke="black" points="326,-19.5 326,-38.5 520,-38.5 520,-19.5 326,-19.5"/>
<text text-anchor="middle" x="423" y="-26.5" font-family="Helvetica,sans-Serif" font-size="10.00">RoRFrameListener::SetupGameplayLoop</text>
</a>
</g>
</g>
<!-- Node1257&#45;&gt;Node1259 -->
<g id="edge3" class="edge"><title>Node1257&#45;&gt;Node1259</title>
<path fill="none" stroke="midnightblue" d="M300.388,-43.1559C313.289,-41.6542 326.928,-40.0666 340.224,-38.5189"/>
<polygon fill="midnightblue" stroke="midnightblue" points="299.747,-39.7067 290.219,-44.3396 300.557,-46.6598 299.747,-39.7067"/>
</g>
<!-- Node1260 -->
<g id="node5" class="node"><title>Node1260</title>
<g id="a_node5"><a xlink:href="../../dd/dbe/class_ro_r_frame_listener.html#ad598075b5f183208c0de43b9248bb44b" target="_top" xlink:title="RoRFrameListener::getTime">
<polygon fill="white" stroke="black" points="556,-38.5 556,-57.5 694,-57.5 694,-38.5 556,-38.5"/>
<text text-anchor="middle" x="625" y="-45.5" font-family="Helvetica,sans-Serif" font-size="10.00">RoRFrameListener::getTime</text>
</a>
</g>
</g>
<!-- Node1259&#45;&gt;Node1260 -->
<g id="edge4" class="edge"><title>Node1259&#45;&gt;Node1260</title>
<path fill="none" stroke="midnightblue" d="M530.326,-39.101C538.948,-39.92 547.506,-40.7331 555.744,-41.5157"/>
<polygon fill="midnightblue" stroke="midnightblue" points="530.478,-35.5998 520.192,-38.1383 529.816,-42.5684 530.478,-35.5998"/>
</g>
<!-- Node1261 -->
<g id="node6" class="node"><title>Node1261</title>
<g id="a_node6"><a xlink:href="../../df/d0a/main_8cpp.html#a0ddf1224851353fc92bfbff6f499fa97" target="_top" xlink:title="main">
<polygon fill="white" stroke="black" points="606,-0.5 606,-19.5 644,-19.5 644,-0.5 606,-0.5"/>
<text text-anchor="middle" x="625" y="-7.5" font-family="Helvetica,sans-Serif" font-size="10.00">main</text>
</a>
</g>
</g>
<!-- Node1259&#45;&gt;Node1261 -->
<g id="edge5" class="edge"><title>Node1259&#45;&gt;Node1261</title>
<path fill="none" stroke="midnightblue" d="M530.516,-18.881C559.662,-16.1121 588.067,-13.4136 605.77,-11.7318"/>
<polygon fill="midnightblue" stroke="midnightblue" points="529.816,-15.4316 520.192,-19.8617 530.478,-22.4002 529.816,-15.4316"/>
</g>
<!-- Node1262 -->
<g id="node7" class="node"><title>Node1262</title>
<g id="a_node7"><a xlink:href="../../df/d0a/main_8cpp.html#a2922bc5d5c2d77a3020cfbf9df12aab0" target="_top" xlink:title="WinMain">
<polygon fill="white" stroke="black" points="730,-0.5 730,-19.5 785,-19.5 785,-0.5 730,-0.5"/>
<text text-anchor="middle" x="757.5" y="-7.5" font-family="Helvetica,sans-Serif" font-size="10.00">WinMain</text>
</a>
</g>
</g>
<!-- Node1261&#45;&gt;Node1262 -->
<g id="edge6" class="edge"><title>Node1261&#45;&gt;Node1262</title>
<path fill="none" stroke="midnightblue" d="M654.393,-10C676.844,-10 707.959,-10 729.924,-10"/>
<polygon fill="midnightblue" stroke="midnightblue" points="654.146,-6.5001 644.145,-10 654.145,-13.5001 654.146,-6.5001"/>
</g>
</g>
</svg>
        <g id="navigator" transform="translate(0 0)" fill="#404254">
                <rect fill="#f2f5e9" fill-opacity="0.5" stroke="#606060" stroke-width=".5" x="0" y="0" width="60" height="60"/>
                <use id="zoomplus" xlink:href="#zoomPlus" x="17" y="9" onmousedown="handleZoom(evt,'in')"/>
                <use id="zoomminus" xlink:href="#zoomMin" x="42" y="9" onmousedown="handleZoom(evt,'out')"/>
                <use id="reset" xlink:href="#resetDef" x="30" y="36" onmousedown="handleReset()"/>
                <g id="arrowUp" xlink:href="#dirArrow" transform="translate(30 24)" onmousedown="handlePan(0,-1)">
                  <use xlink:href="#rim" fill="#404040">
                        <set attributeName="fill" to="#808080" begin="arrowUp.mouseover" end="arrowUp.mouseout"/>
                  </use>
                  <path fill="none" stroke="white" stroke-width="1.5" d="M0,-3.0v7 M-2.5,-0.5L0,-3.0L2.5,-0.5"/>
                </g>
                <g id="arrowRight" xlink:href="#dirArrow" transform="rotate(90) translate(36 -43)" onmousedown="handlePan(1,0)">
                  <use xlink:href="#rim" fill="#404040">
                        <set attributeName="fill" to="#808080" begin="arrowRight.mouseover" end="arrowRight.mouseout"/>
                  </use>
                  <path fill="none" stroke="white" stroke-width="1.5" d="M0,-3.0v7 M-2.5,-0.5L0,-3.0L2.5,-0.5"/>
                </g>
                <g id="arrowDown" xlink:href="#dirArrow" transform="rotate(180) translate(-30 -48)" onmousedown="handlePan(0,1)">
                  <use xlink:href="#rim" fill="#404040">
                        <set attributeName="fill" to="#808080" begin="arrowDown.mouseover" end="arrowDown.mouseout"/>
                  </use>
                  <path fill="none" stroke="white" stroke-width="1.5" d="M0,-3.0v7 M-2.5,-0.5L0,-3.0L2.5,-0.5"/>
                </g>
                <g id="arrowLeft" xlink:href="#dirArrow" transform="rotate(270) translate(-36 17)" onmousedown="handlePan(-1,0)">
                  <use xlink:href="#rim" fill="#404040">
                        <set attributeName="fill" to="#808080" begin="arrowLeft.mouseover" end="arrowLeft.mouseout"/>
                  </use>
                  <path fill="none" stroke="white" stroke-width="1.5" d="M0,-3.0v7 M-2.5,-0.5L0,-3.0L2.5,-0.5"/>
                </g>
        </g>
        <svg viewBox="0 0 15 15" width="100%" height="30px" preserveAspectRatio="xMaxYMin meet">
         <g id="arrow_out" transform="scale(0.3 0.3)">
          <a xlink:href="class_character_a4ab056000a798334a44f46feea18367b_icgraph_org.svg" target="_base">
           <rect id="button" ry="5" rx="5" y="6" x="6" height="38" width="38"
                fill="#f2f5e9" fill-opacity="0.5" stroke="#606060" stroke-width="1.0"/>
           <path id="arrow"
             d="M 11.500037,31.436501 C 11.940474,20.09759 22.043105,11.32322 32.158766,21.979434 L 37.068811,17.246167 C 37.068811,17.246167 37.088388,32 37.088388,32 L 22.160133,31.978069 C 22.160133,31.978069 26.997745,27.140456 26.997745,27.140456 C 18.528582,18.264221 13.291696,25.230495 11.500037,31.436501 z"
             style="fill:#404040;"/>
          </a>
         </g>
        </svg>
</svg>
