<?xml version="1.0" encoding="UTF-8" standalone="no"?>
<!DOCTYPE svg PUBLIC "-//W3C//DTD SVG 1.1//EN"
 "http://www.w3.org/Graphics/SVG/1.1/DTD/svg11.dtd">
<!-- Generated by graphviz version 2.38.0 (20140413.2041)
 -->
<!-- Title: Character::getRotation Pages: 1 -->
<!--zoomable 302 -->
<svg id="main" version="1.1" xmlns="http://www.w3.org/2000/svg" xmlns:xlink="http://www.w3.org/1999/xlink" xml:space="preserve" onload="init(evt)">
<style type="text/css"><![CDATA[
.edge:hover path { stroke: red; }
.edge:hover polygon { stroke: red; fill: red; }
]]></style>
<script type="text/javascript"><![CDATA[
var edges = document.getElementsByTagName('g');
if (edges && edges.length) {
  for (var i=0;i<edges.length;i++) {
    if (edges[i].id.substr(0,4)=='edge') {
      edges[i].setAttribute('class','edge');
    }
  }
}
]]></script>
        <defs>
                <circle id="rim" cx="0" cy="0" r="7"/>
                <circle id="rim2" cx="0" cy="0" r="3.5"/>
                <g id="zoomPlus">
                        <use xlink:href="#rim" fill="#404040">
                                <set attributeName="fill" to="#808080" begin="zoomplus.mouseover" end="zoomplus.mouseout"/>
                        </use>
                        <path d="M-4,0h8M0,-4v8" fill="none" stroke="white" stroke-width="1.5" pointer-events="none"/>
                </g>
                <g id="zoomMin">
                        <use xlink:href="#rim" fill="#404040">
                                <set attributeName="fill" to="#808080" begin="zoomminus.mouseover" end="zoomminus.mouseout"/>
                        </use>
                        <path d="M-4,0h8" fill="none" stroke="white" stroke-width="1.5" pointer-events="none"/>
                </g>
                <g id="dirArrow">
                        <path fill="none" stroke="white" stroke-width="1.5" d="M0,-3.0v7 M-2.5,-0.5L0,-3.0L2.5,-0.5"/>
                </g>
               <g id="resetDef">
                       <use xlink:href="#rim2" fill="#404040">
                               <set attributeName="fill" to="#808080" begin="reset.mouseover" end="reset.mouseout"/>
                       </use>
               </g>
        </defs>

<script type="text/javascript">
var viewWidth = 638;
var viewHeight = 302;
var sectionId = 'dynsection-11';
</script>
<script xlink:href="../../svgpan.js"/>
<svg id="graph" class="graph">
<g id="viewport">
<title>Character::getRotation</title>
<polygon fill="white" stroke="none" points="-4,4 -4,-297.5 634,-297.5 634,4 -4,4"/>
<!-- Node457 -->
<g id="node1" class="node"><title>Node457</title>
<polygon fill="#bfbfbf" stroke="black" points="0,-142.5 0,-161.5 114,-161.5 114,-142.5 0,-142.5"/>
<text text-anchor="middle" x="57" y="-149.5" font-family="Helvetica,sans-Serif" font-size="10.00">Character::getRotation</text>
</g>
<!-- Node458 -->
<g id="node2" class="node"><title>Node458</title>
<g id="a_node2"><a xlink:href="../../dd/dbe/class_ro_r_frame_listener.html#afec2a0f00ed552c21d22aae76329bf38" target="_top" xlink:title="RoRFrameListener::Update\lInputEvents">
<polygon fill="white" stroke="black" points="180,-263 180,-293 314,-293 314,-263 180,-263"/>
<text text-anchor="start" x="188" y="-281" font-family="Helvetica,sans-Serif" font-size="10.00">RoRFrameListener::Update</text>
<text text-anchor="middle" x="247" y="-270" font-family="Helvetica,sans-Serif" font-size="10.00">InputEvents</text>
</a>
</g>
</g>
<!-- Node457&#45;&gt;Node458 -->
<g id="edge1" class="edge"><title>Node457&#45;&gt;Node458</title>
<path fill="none" stroke="midnightblue" d="M70.7008,-169.987C86.8,-191.516 116.52,-227.252 150,-248 159.796,-254.071 170.922,-259.005 182.041,-262.986"/>
<polygon fill="midnightblue" stroke="midnightblue" points="73.3863,-167.73 64.6638,-161.716 67.7321,-171.856 73.3863,-167.73"/>
</g>
<!-- Node459 -->
<g id="node3" class="node"><title>Node459</title>
<g id="a_node3"><a xlink:href="../../dd/dbe/class_ro_r_frame_listener.html#acdda0026f9324c3b7f48568624e07115" target="_top" xlink:title="RoRFrameListener::frameStarted">
<polygon fill="white" stroke="black" points="380,-243.5 380,-262.5 539,-262.5 539,-243.5 380,-243.5"/>
<text text-anchor="middle" x="459.5" y="-250.5" font-family="Helvetica,sans-Serif" font-size="10.00">RoRFrameListener::frameStarted</text>
</a>
</g>
</g>
<!-- Node457&#45;&gt;Node459 -->
<g id="edge3" class="edge"><title>Node457&#45;&gt;Node459</title>
<path fill="none" stroke="midnightblue" d="M76.0796,-168.324C93.6232,-183.152 121.679,-204.292 150,-215 224.704,-243.247 316.141,-251.534 379.996,-253.499"/>
<polygon fill="midnightblue" stroke="midnightblue" points="78.2044,-165.534 68.3567,-161.625 73.6177,-170.822 78.2044,-165.534"/>
</g>
<!-- Node460 -->
<g id="node4" class="node"><title>Node460</title>
<g id="a_node4"><a xlink:href="../../dd/dbe/class_ro_r_frame_listener.html#aca3931d7a75f2ad4b9d36c4fcd03a3c9" target="_top" xlink:title="RoRFrameListener::SetupGameplayLoop">
<polygon fill="white" stroke="black" points="150,-186.5 150,-205.5 344,-205.5 344,-186.5 150,-186.5"/>
<text text-anchor="middle" x="247" y="-193.5" font-family="Helvetica,sans-Serif" font-size="10.00">RoRFrameListener::SetupGameplayLoop</text>
</a>
</g>
</g>
<!-- Node457&#45;&gt;Node460 -->
<g id="edge4" class="edge"><title>Node457&#45;&gt;Node460</title>
<path fill="none" stroke="midnightblue" d="M100.865,-164.316C116.295,-168.572 133.873,-173.218 150,-177 164.225,-180.336 179.727,-183.575 194.042,-186.406"/>
<polygon fill="midnightblue" stroke="midnightblue" points="101.645,-160.9 91.0728,-161.589 99.767,-167.643 101.645,-160.9"/>
</g>
<!-- Node464 -->
<g id="node8" class="node"><title>Node464</title>
<g id="a_node8"><a xlink:href="../../dc/de3/class_camera_behavior_character.html#a325a21bfc3a39744a03f9b5c7d4df7ca" target="_top" xlink:title="CameraBehaviorCharacter\l::update">
<polygon fill="white" stroke="black" points="182.5,-137 182.5,-167 311.5,-167 311.5,-137 182.5,-137"/>
<text text-anchor="start" x="190.5" y="-155" font-family="Helvetica,sans-Serif" font-size="10.00">CameraBehaviorCharacter</text>
<text text-anchor="middle" x="247" y="-144" font-family="Helvetica,sans-Serif" font-size="10.00">::update</text>
</a>
</g>
</g>
<!-- Node457&#45;&gt;Node464 -->
<g id="edge8" class="edge"><title>Node457&#45;&gt;Node464</title>
<path fill="none" stroke="midnightblue" d="M124.403,-152C143.193,-152 163.597,-152 182.228,-152"/>
<polygon fill="midnightblue" stroke="midnightblue" points="124.152,-148.5 114.152,-152 124.152,-155.5 124.152,-148.5"/>
</g>
<!-- Node465 -->
<g id="node9" class="node"><title>Node465</title>
<g id="a_node9"><a xlink:href="../../dc/de3/class_camera_behavior_character.html#a3da8cbc0998e56cb30434bba70fa8f7b" target="_top" xlink:title="CameraBehaviorCharacter\l::mouseMoved">
<polygon fill="white" stroke="black" points="182.5,-88 182.5,-118 311.5,-118 311.5,-88 182.5,-88"/>
<text text-anchor="start" x="190.5" y="-106" font-family="Helvetica,sans-Serif" font-size="10.00">CameraBehaviorCharacter</text>
<text text-anchor="middle" x="247" y="-95" font-family="Helvetica,sans-Serif" font-size="10.00">::mouseMoved</text>
</a>
</g>
</g>
<!-- Node457&#45;&gt;Node465 -->
<g id="edge9" class="edge"><title>Node457&#45;&gt;Node465</title>
<path fill="none" stroke="midnightblue" d="M104.507,-139.864C119.072,-136.064 135.205,-131.856 150,-128 162.416,-124.764 175.736,-121.294 188.382,-118.001"/>
<polygon fill="midnightblue" stroke="midnightblue" points="103.501,-136.509 94.7089,-142.42 105.269,-143.282 103.501,-136.509"/>
</g>
<!-- Node466 -->
<g id="node10" class="node"><title>Node466</title>
<g id="a_node10"><a xlink:href="../../d5/d90/class_camera_behavior_static.html#a66f42dd626971b23645028994a55c773" target="_top" xlink:title="CameraBehaviorStatic\l::update">
<polygon fill="white" stroke="black" points="190.5,-39 190.5,-69 303.5,-69 303.5,-39 190.5,-39"/>
<text text-anchor="start" x="198.5" y="-57" font-family="Helvetica,sans-Serif" font-size="10.00">CameraBehaviorStatic</text>
<text text-anchor="middle" x="247" y="-46" font-family="Helvetica,sans-Serif" font-size="10.00">::update</text>
</a>
</g>
</g>
<!-- Node457&#45;&gt;Node466 -->
<g id="edge10" class="edge"><title>Node457&#45;&gt;Node466</title>
<path fill="none" stroke="midnightblue" d="M74.8449,-134.998C92.2244,-118.39 120.836,-93.5493 150,-79 162.483,-72.7724 176.678,-67.9829 190.251,-64.3449"/>
<polygon fill="midnightblue" stroke="midnightblue" points="71.9677,-132.916 67.2623,-142.408 76.8604,-137.922 71.9677,-132.916"/>
</g>
<!-- Node467 -->
<g id="node11" class="node"><title>Node467</title>
<g id="a_node11"><a xlink:href="../../d5/de5/class_game_script.html#ac1dfcbd6c8028497ca827863816576c2" target="_top" xlink:title="GameScript::getPersonRotation">
<polygon fill="white" stroke="black" points="169.5,-0.5 169.5,-19.5 324.5,-19.5 324.5,-0.5 169.5,-0.5"/>
<text text-anchor="middle" x="247" y="-7.5" font-family="Helvetica,sans-Serif" font-size="10.00">GameScript::getPersonRotation</text>
</a>
</g>
</g>
<!-- Node457&#45;&gt;Node467 -->
<g id="edge11" class="edge"><title>Node457&#45;&gt;Node467</title>
<path fill="none" stroke="midnightblue" d="M66.847,-132.889C80.5704,-105.498 109.671,-55.5682 150,-30 156.758,-25.7156 164.27,-22.3303 172.032,-19.6583"/>
<polygon fill="midnightblue" stroke="midnightblue" points="63.5538,-131.659 62.3489,-142.185 69.8549,-134.708 63.5538,-131.659"/>
</g>
<!-- Node458&#45;&gt;Node459 -->
<g id="edge2" class="edge"><title>Node458&#45;&gt;Node459</title>
<path fill="none" stroke="midnightblue" d="M323.964,-268.978C342.114,-266.823 361.526,-264.517 379.796,-262.347"/>
<polygon fill="midnightblue" stroke="midnightblue" points="323.543,-265.503 314.026,-270.158 324.369,-272.455 323.543,-265.503"/>
</g>
<!-- Node461 -->
<g id="node5" class="node"><title>Node461</title>
<g id="a_node5"><a xlink:href="../../dd/dbe/class_ro_r_frame_listener.html#ad598075b5f183208c0de43b9248bb44b" target="_top" xlink:title="RoRFrameListener::getTime">
<polygon fill="white" stroke="black" points="390.5,-205.5 390.5,-224.5 528.5,-224.5 528.5,-205.5 390.5,-205.5"/>
<text text-anchor="middle" x="459.5" y="-212.5" font-family="Helvetica,sans-Serif" font-size="10.00">RoRFrameListener::getTime</text>
</a>
</g>
</g>
<!-- Node460&#45;&gt;Node461 -->
<g id="edge5" class="edge"><title>Node460&#45;&gt;Node461</title>
<path fill="none" stroke="midnightblue" d="M354.282,-205.593C366.522,-206.698 378.743,-207.801 390.284,-208.843"/>
<polygon fill="midnightblue" stroke="midnightblue" points="354.284,-202.079 344.01,-204.666 353.655,-209.051 354.284,-202.079"/>
</g>
<!-- Node462 -->
<g id="node6" class="node"><title>Node462</title>
<g id="a_node6"><a xlink:href="../../df/d0a/main_8cpp.html#a0ddf1224851353fc92bfbff6f499fa97" target="_top" xlink:title="main">
<polygon fill="white" stroke="black" points="440.5,-167.5 440.5,-186.5 478.5,-186.5 478.5,-167.5 440.5,-167.5"/>
<text text-anchor="middle" x="459.5" y="-174.5" font-family="Helvetica,sans-Serif" font-size="10.00">main</text>
</a>
</g>
</g>
<!-- Node460&#45;&gt;Node462 -->
<g id="edge6" class="edge"><title>Node460&#45;&gt;Node462</title>
<path fill="none" stroke="midnightblue" d="M354.282,-186.407C387.412,-183.417 420.405,-180.438 440.13,-178.658"/>
<polygon fill="midnightblue" stroke="midnightblue" points="353.655,-182.949 344.01,-187.334 354.284,-189.921 353.655,-182.949"/>
</g>
<!-- Node463 -->
<g id="node7" class="node"><title>Node463</title>
<g id="a_node7"><a xlink:href="../../df/d0a/main_8cpp.html#a2922bc5d5c2d77a3020cfbf9df12aab0" target="_top" xlink:title="WinMain">
<polygon fill="white" stroke="black" points="575,-167.5 575,-186.5 630,-186.5 630,-167.5 575,-167.5"/>
<text text-anchor="middle" x="602.5" y="-174.5" font-family="Helvetica,sans-Serif" font-size="10.00">WinMain</text>
</a>
</g>
</g>
<!-- Node462&#45;&gt;Node463 -->
<g id="edge7" class="edge"><title>Node462&#45;&gt;Node463</title>
<path fill="none" stroke="midnightblue" d="M488.96,-177C514.015,-177 550.229,-177 574.756,-177"/>
<polygon fill="midnightblue" stroke="midnightblue" points="488.645,-173.5 478.645,-177 488.645,-180.5 488.645,-173.5"/>
</g>
</g>
</svg>
        <g id="navigator" transform="translate(0 0)" fill="#404254">
                <rect fill="#f2f5e9" fill-opacity="0.5" stroke="#606060" stroke-width=".5" x="0" y="0" width="60" height="60"/>
                <use id="zoomplus" xlink:href="#zoomPlus" x="17" y="9" onmousedown="handleZoom(evt,'in')"/>
                <use id="zoomminus" xlink:href="#zoomMin" x="42" y="9" onmousedown="handleZoom(evt,'out')"/>
                <use id="reset" xlink:href="#resetDef" x="30" y="36" onmousedown="handleReset()"/>
                <g id="arrowUp" xlink:href="#dirArrow" transform="translate(30 24)" onmousedown="handlePan(0,-1)">
                  <use xlink:href="#rim" fill="#404040">
                        <set attributeName="fill" to="#808080" begin="arrowUp.mouseover" end="arrowUp.mouseout"/>
                  </use>
                  <path fill="none" stroke="white" stroke-width="1.5" d="M0,-3.0v7 M-2.5,-0.5L0,-3.0L2.5,-0.5"/>
                </g>
                <g id="arrowRight" xlink:href="#dirArrow" transform="rotate(90) translate(36 -43)" onmousedown="handlePan(1,0)">
                  <use xlink:href="#rim" fill="#404040">
                        <set attributeName="fill" to="#808080" begin="arrowRight.mouseover" end="arrowRight.mouseout"/>
                  </use>
                  <path fill="none" stroke="white" stroke-width="1.5" d="M0,-3.0v7 M-2.5,-0.5L0,-3.0L2.5,-0.5"/>
                </g>
                <g id="arrowDown" xlink:href="#dirArrow" transform="rotate(180) translate(-30 -48)" onmousedown="handlePan(0,1)">
                  <use xlink:href="#rim" fill="#404040">
                        <set attributeName="fill" to="#808080" begin="arrowDown.mouseover" end="arrowDown.mouseout"/>
                  </use>
                  <path fill="none" stroke="white" stroke-width="1.5" d="M0,-3.0v7 M-2.5,-0.5L0,-3.0L2.5,-0.5"/>
                </g>
                <g id="arrowLeft" xlink:href="#dirArrow" transform="rotate(270) translate(-36 17)" onmousedown="handlePan(-1,0)">
                  <use xlink:href="#rim" fill="#404040">
                        <set attributeName="fill" to="#808080" begin="arrowLeft.mouseover" end="arrowLeft.mouseout"/>
                  </use>
                  <path fill="none" stroke="white" stroke-width="1.5" d="M0,-3.0v7 M-2.5,-0.5L0,-3.0L2.5,-0.5"/>
                </g>
        </g>
        <svg viewBox="0 0 15 15" width="100%" height="30px" preserveAspectRatio="xMaxYMin meet">
         <g id="arrow_out" transform="scale(0.3 0.3)">
          <a xlink:href="class_character_a7e18e6ea7965b2e32946a06256ec8984_icgraph_org.svg" target="_base">
           <rect id="button" ry="5" rx="5" y="6" x="6" height="38" width="38"
                fill="#f2f5e9" fill-opacity="0.5" stroke="#606060" stroke-width="1.0"/>
           <path id="arrow"
             d="M 11.500037,31.436501 C 11.940474,20.09759 22.043105,11.32322 32.158766,21.979434 L 37.068811,17.246167 C 37.068811,17.246167 37.088388,32 37.088388,32 L 22.160133,31.978069 C 22.160133,31.978069 26.997745,27.140456 26.997745,27.140456 C 18.528582,18.264221 13.291696,25.230495 11.500037,31.436501 z"
             style="fill:#404040;"/>
          </a>
         </g>
        </svg>
</svg>
