<?xml version="1.0" encoding="UTF-8" standalone="no"?>
<!DOCTYPE svg PUBLIC "-//W3C//DTD SVG 1.1//EN"
 "http://www.w3.org/Graphics/SVG/1.1/DTD/svg11.dtd">
<!-- Generated by graphviz version 2.38.0 (20140413.2041)
 -->
<!-- Title: Profiler::average Pages: 1 -->
<svg width="373pt" height="123pt"
 viewBox="0.00 0.00 373.00 123.00" xmlns="http://www.w3.org/2000/svg" xmlns:xlink="http://www.w3.org/1999/xlink">
<g id="graph0" class="graph" transform="scale(1 1) rotate(0) translate(4 119)">
<title>Profiler::average</title>
<polygon fill="white" stroke="none" points="-4,4 -4,-119 369,-119 369,4 -4,4"/>
<!-- Node1 -->
<g id="node1" class="node"><title>Node1</title>
<polygon fill="#bfbfbf" stroke="black" points="0,-38.5 0,-57.5 86,-57.5 86,-38.5 0,-38.5"/>
<text text-anchor="middle" x="43" y="-45.5" font-family="Helvetica,sans-Serif" font-size="10.00">Profiler::average</text>
</g>
<!-- Node2 -->
<g id="node2" class="node"><title>Node2</title>
<g id="a_node2"><a xlink:href="../../df/df9/class_beam.html#ab0cbc6c4e3822fc5786af2c8036f7efb" target="_top" xlink:title="Beam::LoadTruck">
<polygon fill="white" stroke="black" points="130.5,-76.5 130.5,-95.5 223.5,-95.5 223.5,-76.5 130.5,-76.5"/>
<text text-anchor="middle" x="177" y="-83.5" font-family="Helvetica,sans-Serif" font-size="10.00">Beam::LoadTruck</text>
</a>
</g>
</g>
<!-- Node1&#45;&gt;Node2 -->
<g id="edge1" class="edge"><title>Node1&#45;&gt;Node2</title>
<path fill="none" stroke="midnightblue" d="M87.0409,-60.3906C105.118,-65.5945 125.819,-71.5541 142.701,-76.4141"/>
<polygon fill="midnightblue" stroke="midnightblue" points="87.8872,-56.9921 77.3092,-57.589 85.9506,-63.7189 87.8872,-56.9921"/>
</g>
<!-- Node5 -->
<g id="node5" class="node"><title>Node5</title>
<g id="a_node5"><a xlink:href="../../dd/dfc/struct_profiler_1_1_timer.html#a26eb476a94c7a92fa48fef98e8d0570b" target="_top" xlink:title="Profiler::Timer::avg">
<polygon fill="white" stroke="black" points="128.5,-38.5 128.5,-57.5 225.5,-57.5 225.5,-38.5 128.5,-38.5"/>
<text text-anchor="middle" x="177" y="-45.5" font-family="Helvetica,sans-Serif" font-size="10.00">Profiler::Timer::avg</text>
</a>
</g>
</g>
<!-- Node1&#45;&gt;Node5 -->
<g id="edge4" class="edge"><title>Node1&#45;&gt;Node5</title>
<path fill="none" stroke="midnightblue" d="M96.4451,-48C106.963,-48 117.962,-48 128.309,-48"/>
<polygon fill="midnightblue" stroke="midnightblue" points="96.1286,-44.5001 86.1285,-48 96.1285,-51.5001 96.1286,-44.5001"/>
</g>
<!-- Node6 -->
<g id="node6" class="node"><title>Node6</title>
<g id="a_node6"><a xlink:href="../../dd/dfc/struct_profiler_1_1_timer.html#ada03a3198fa3c26511b2bd97a56231bf" target="_top" xlink:title="Profiler::Timer::avgms">
<polygon fill="white" stroke="black" points="122,-0.5 122,-19.5 232,-19.5 232,-0.5 122,-0.5"/>
<text text-anchor="middle" x="177" y="-7.5" font-family="Helvetica,sans-Serif" font-size="10.00">Profiler::Timer::avgms</text>
</a>
</g>
</g>
<!-- Node1&#45;&gt;Node6 -->
<g id="edge5" class="edge"><title>Node1&#45;&gt;Node6</title>
<path fill="none" stroke="midnightblue" d="M87.0409,-35.6094C105.118,-30.4055 125.819,-24.4459 142.701,-19.5859"/>
<polygon fill="midnightblue" stroke="midnightblue" points="85.9506,-32.2811 77.3092,-38.411 87.8872,-39.0079 85.9506,-32.2811"/>
</g>
<!-- Node3 -->
<g id="node3" class="node"><title>Node3</title>
<g id="a_node3"><a xlink:href="../../df/df9/class_beam.html#a0d55b25fa0d1623305f3ac51694cbd42" target="_top" xlink:title="Beam::Beam">
<polygon fill="white" stroke="black" points="279.5,-95.5 279.5,-114.5 353.5,-114.5 353.5,-95.5 279.5,-95.5"/>
<text text-anchor="middle" x="316.5" y="-102.5" font-family="Helvetica,sans-Serif" font-size="10.00">Beam::Beam</text>
</a>
</g>
</g>
<!-- Node2&#45;&gt;Node3 -->
<g id="edge2" class="edge"><title>Node2&#45;&gt;Node3</title>
<path fill="none" stroke="midnightblue" d="M233.755,-93.7043C249.175,-95.8351 265.501,-98.0911 279.475,-100.022"/>
<polygon fill="midnightblue" stroke="midnightblue" points="234.17,-90.2286 223.786,-92.3267 233.212,-97.1627 234.17,-90.2286"/>
</g>
<!-- Node4 -->
<g id="node4" class="node"><title>Node4</title>
<g id="a_node4"><a xlink:href="../../df/df9/class_beam.html#a3176be8102041493ae018fd5d66607dd" target="_top" xlink:title="Beam::getVelocity">
<polygon fill="white" stroke="black" points="268,-57.5 268,-76.5 365,-76.5 365,-57.5 268,-57.5"/>
<text text-anchor="middle" x="316.5" y="-64.5" font-family="Helvetica,sans-Serif" font-size="10.00">Beam::getVelocity</text>
</a>
</g>
</g>
<!-- Node2&#45;&gt;Node4 -->
<g id="edge3" class="edge"><title>Node2&#45;&gt;Node4</title>
<path fill="none" stroke="midnightblue" d="M233.876,-78.2789C245.046,-76.7354 256.686,-75.127 267.56,-73.6244"/>
<polygon fill="midnightblue" stroke="midnightblue" points="233.212,-74.8373 223.786,-79.6733 234.17,-81.7714 233.212,-74.8373"/>
</g>
</g>
</svg>
