<?xml version="1.0" encoding="UTF-8" standalone="no"?>
<!DOCTYPE svg PUBLIC "-//W3C//DTD SVG 1.1//EN"
 "http://www.w3.org/Graphics/SVG/1.1/DTD/svg11.dtd">
<!-- Generated by graphviz version 2.38.0 (20140413.2041)
 -->
<!-- Title: source/main/gfx/hydrax/GodRaysManager.h Pages: 1 -->
<svg width="296pt" height="431pt"
 viewBox="0.00 0.00 296.00 431.00" xmlns="http://www.w3.org/2000/svg" xmlns:xlink="http://www.w3.org/1999/xlink">
<g id="graph0" class="graph" transform="scale(1 1) rotate(0) translate(4 427)">
<title>source/main/gfx/hydrax/GodRaysManager.h</title>
<polygon fill="white" stroke="none" points="-4,4 -4,-427 292,-427 292,4 -4,4"/>
<!-- Node0 -->
<g id="node1" class="node"><title>Node0</title>
<polygon fill="#bfbfbf" stroke="black" points="64,-392.5 64,-422.5 182,-422.5 182,-392.5 64,-392.5"/>
<text text-anchor="start" x="72" y="-410.5" font-family="Helvetica,sans-Serif" font-size="10.00">source/main/gfx/hydrax</text>
<text text-anchor="middle" x="123" y="-399.5" font-family="Helvetica,sans-Serif" font-size="10.00">/GodRaysManager.h</text>
</g>
<!-- Node1 -->
<g id="node2" class="node"><title>Node1</title>
<g id="a_node2"><a xlink:href="../../dc/d89/hydrax_2_prerequisites_8h.html" target="_top" xlink:title="Prerequisites.h">
<polygon fill="white" stroke="black" points="60,-56.5 60,-75.5 142,-75.5 142,-56.5 60,-56.5"/>
<text text-anchor="middle" x="101" y="-63.5" font-family="Helvetica,sans-Serif" font-size="10.00">Prerequisites.h</text>
</a>
</g>
</g>
<!-- Node0&#45;&gt;Node1 -->
<g id="edge1" class="edge"><title>Node0&#45;&gt;Node1</title>
<path fill="none" stroke="midnightblue" d="M89.3897,-392.385C52.9717,-374.575 0,-340.212 0,-291 0,-291 0,-291 0,-177 0,-132.593 45.2128,-98.3671 75.1375,-80.5772"/>
<polygon fill="midnightblue" stroke="midnightblue" points="76.9196,-83.5901 83.8667,-75.5909 73.4475,-77.5119 76.9196,-83.5901"/>
</g>
<!-- Node3 -->
<g id="node4" class="node"><title>Node3</title>
<g id="a_node4"><a xlink:href="../../d0/d0b/_perlin_8h.html" target="_top" xlink:title="Perlin.h">
<polygon fill="white" stroke="black" points="98,-336.5 98,-355.5 148,-355.5 148,-336.5 98,-336.5"/>
<text text-anchor="middle" x="123" y="-343.5" font-family="Helvetica,sans-Serif" font-size="10.00">Perlin.h</text>
</a>
</g>
</g>
<!-- Node0&#45;&gt;Node3 -->
<g id="edge3" class="edge"><title>Node0&#45;&gt;Node3</title>
<path fill="none" stroke="midnightblue" d="M123,-392.399C123,-384.466 123,-374.458 123,-365.858"/>
<polygon fill="midnightblue" stroke="midnightblue" points="126.5,-365.658 123,-355.658 119.5,-365.658 126.5,-365.658"/>
</g>
<!-- Node6 -->
<g id="node7" class="node"><title>Node6</title>
<g id="a_node7"><a xlink:href="../../d7/d86/_enums_8h.html" target="_top" xlink:title="Enums.h">
<polygon fill="white" stroke="black" points="166,-112.5 166,-131.5 222,-131.5 222,-112.5 166,-112.5"/>
<text text-anchor="middle" x="194" y="-119.5" font-family="Helvetica,sans-Serif" font-size="10.00">Enums.h</text>
</a>
</g>
</g>
<!-- Node0&#45;&gt;Node6 -->
<g id="edge15" class="edge"><title>Node0&#45;&gt;Node6</title>
<path fill="none" stroke="midnightblue" d="M178.861,-392.367C226.729,-376.505 288,-345.548 288,-291 288,-291 288,-291 288,-233 288,-189.932 245.84,-155.214 217.99,-136.978"/>
<polygon fill="midnightblue" stroke="midnightblue" points="219.849,-134.013 209.522,-131.647 216.12,-139.937 219.849,-134.013"/>
</g>
<!-- Node2 -->
<g id="node3" class="node"><title>Node2</title>
<polygon fill="white" stroke="#bfbfbf" points="78,-0.5 78,-19.5 124,-19.5 124,-0.5 78,-0.5"/>
<text text-anchor="middle" x="101" y="-7.5" font-family="Helvetica,sans-Serif" font-size="10.00">Ogre.h</text>
</g>
<!-- Node1&#45;&gt;Node2 -->
<g id="edge2" class="edge"><title>Node1&#45;&gt;Node2</title>
<path fill="none" stroke="midnightblue" d="M101,-56.083C101,-49.0059 101,-38.8611 101,-29.9865"/>
<polygon fill="midnightblue" stroke="midnightblue" points="104.5,-29.751 101,-19.7511 97.5001,-29.7511 104.5,-29.751"/>
</g>
<!-- Node4 -->
<g id="node5" class="node"><title>Node4</title>
<g id="a_node5"><a xlink:href="../../d0/dde/_noise_8h.html" target="_top" xlink:title="Noise.h">
<polygon fill="white" stroke="black" points="98,-280.5 98,-299.5 148,-299.5 148,-280.5 98,-280.5"/>
<text text-anchor="middle" x="123" y="-287.5" font-family="Helvetica,sans-Serif" font-size="10.00">Noise.h</text>
</a>
</g>
</g>
<!-- Node3&#45;&gt;Node4 -->
<g id="edge4" class="edge"><title>Node3&#45;&gt;Node4</title>
<path fill="none" stroke="midnightblue" d="M123,-336.083C123,-329.006 123,-318.861 123,-309.986"/>
<polygon fill="midnightblue" stroke="midnightblue" points="126.5,-309.751 123,-299.751 119.5,-309.751 126.5,-309.751"/>
</g>
<!-- Node4&#45;&gt;Node1 -->
<g id="edge5" class="edge"><title>Node4&#45;&gt;Node1</title>
<path fill="none" stroke="midnightblue" d="M113.649,-280.322C105.21,-271.901 93.1973,-258.325 87,-244 63.6873,-190.114 82.8147,-118.432 94.1347,-85.2639"/>
<polygon fill="midnightblue" stroke="midnightblue" points="97.5285,-86.1681 97.6018,-75.5736 90.9376,-83.81 97.5285,-86.1681"/>
</g>
<!-- Node5 -->
<g id="node6" class="node"><title>Node5</title>
<g id="a_node6"><a xlink:href="../../de/daf/_g_p_u_normal_map_manager_8h.html" target="_top" xlink:title="GPUNormalMapManager.h">
<polygon fill="white" stroke="black" points="96.5,-224.5 96.5,-243.5 229.5,-243.5 229.5,-224.5 96.5,-224.5"/>
<text text-anchor="middle" x="163" y="-231.5" font-family="Helvetica,sans-Serif" font-size="10.00">GPUNormalMapManager.h</text>
</a>
</g>
</g>
<!-- Node4&#45;&gt;Node5 -->
<g id="edge6" class="edge"><title>Node4&#45;&gt;Node5</title>
<path fill="none" stroke="midnightblue" d="M129.605,-280.083C135.255,-272.455 143.545,-261.264 150.451,-251.941"/>
<polygon fill="midnightblue" stroke="midnightblue" points="153.378,-253.87 156.518,-243.751 147.753,-249.703 153.378,-253.87"/>
</g>
<!-- Node5&#45;&gt;Node1 -->
<g id="edge7" class="edge"><title>Node5&#45;&gt;Node1</title>
<path fill="none" stroke="midnightblue" d="M174.569,-224.413C200.573,-204.065 259.234,-151.651 231,-112 213.171,-86.9622 180.414,-75.7256 152.244,-70.7418"/>
<polygon fill="midnightblue" stroke="midnightblue" points="152.526,-67.2439 142.109,-69.1745 151.457,-74.1617 152.526,-67.2439"/>
</g>
<!-- Node5&#45;&gt;Node6 -->
<g id="edge8" class="edge"><title>Node5&#45;&gt;Node6</title>
<path fill="none" stroke="midnightblue" d="M165.433,-224.368C170.458,-206.537 182.08,-165.295 188.851,-141.272"/>
<polygon fill="midnightblue" stroke="midnightblue" points="192.235,-142.166 191.579,-131.591 185.497,-140.267 192.235,-142.166"/>
</g>
<!-- Node7 -->
<g id="node8" class="node"><title>Node7</title>
<g id="a_node8"><a xlink:href="../../d8/db0/_rtt_manager_8h.html" target="_top" xlink:title="RttManager.h">
<polygon fill="white" stroke="black" points="88.5,-168.5 88.5,-187.5 163.5,-187.5 163.5,-168.5 88.5,-168.5"/>
<text text-anchor="middle" x="126" y="-175.5" font-family="Helvetica,sans-Serif" font-size="10.00">RttManager.h</text>
</a>
</g>
</g>
<!-- Node5&#45;&gt;Node7 -->
<g id="edge10" class="edge"><title>Node5&#45;&gt;Node7</title>
<path fill="none" stroke="midnightblue" d="M156.89,-224.083C151.718,-216.534 144.154,-205.495 137.806,-196.23"/>
<polygon fill="midnightblue" stroke="midnightblue" points="140.536,-194.022 131.996,-187.751 134.761,-197.979 140.536,-194.022"/>
</g>
<!-- Node6&#45;&gt;Node1 -->
<g id="edge9" class="edge"><title>Node6&#45;&gt;Node1</title>
<path fill="none" stroke="midnightblue" d="M179.058,-112.324C164.415,-103.822 141.866,-90.7288 124.762,-80.7975"/>
<polygon fill="midnightblue" stroke="midnightblue" points="126.31,-77.6491 115.905,-75.6545 122.795,-83.7027 126.31,-77.6491"/>
</g>
<!-- Node7&#45;&gt;Node1 -->
<g id="edge11" class="edge"><title>Node7&#45;&gt;Node1</title>
<path fill="none" stroke="midnightblue" d="M117.517,-168.234C109.946,-159.75 99.3964,-146.131 95,-132 90.2658,-116.783 92.5433,-98.6701 95.5577,-85.4347"/>
<polygon fill="midnightblue" stroke="midnightblue" points="98.9764,-86.1954 98.1253,-75.6348 92.205,-84.4211 98.9764,-86.1954"/>
</g>
<!-- Node7&#45;&gt;Node6 -->
<g id="edge12" class="edge"><title>Node7&#45;&gt;Node6</title>
<path fill="none" stroke="midnightblue" d="M136.925,-168.324C147.175,-160.185 162.721,-147.839 175.001,-138.087"/>
<polygon fill="midnightblue" stroke="midnightblue" points="177.221,-140.794 182.876,-131.834 172.868,-135.312 177.221,-140.794"/>
</g>
<!-- Node8 -->
<g id="node9" class="node"><title>Node8</title>
<g id="a_node9"><a xlink:href="../../d7/d8e/_help_8h.html" target="_top" xlink:title="Help.h">
<polygon fill="white" stroke="black" points="104,-112.5 104,-131.5 148,-131.5 148,-112.5 104,-112.5"/>
<text text-anchor="middle" x="126" y="-119.5" font-family="Helvetica,sans-Serif" font-size="10.00">Help.h</text>
</a>
</g>
</g>
<!-- Node7&#45;&gt;Node8 -->
<g id="edge13" class="edge"><title>Node7&#45;&gt;Node8</title>
<path fill="none" stroke="midnightblue" d="M126,-168.083C126,-161.006 126,-150.861 126,-141.986"/>
<polygon fill="midnightblue" stroke="midnightblue" points="129.5,-141.751 126,-131.751 122.5,-141.751 129.5,-141.751"/>
</g>
<!-- Node8&#45;&gt;Node1 -->
<g id="edge14" class="edge"><title>Node8&#45;&gt;Node1</title>
<path fill="none" stroke="midnightblue" d="M121.872,-112.083C118.486,-104.77 113.584,-94.1814 109.381,-85.1034"/>
<polygon fill="midnightblue" stroke="midnightblue" points="112.429,-83.3553 105.051,-75.7511 106.077,-86.2962 112.429,-83.3553"/>
</g>
</g>
</svg>
