<?xml version="1.0" encoding="UTF-8" standalone="no"?>
<!DOCTYPE svg PUBLIC "-//W3C//DTD SVG 1.1//EN"
 "http://www.w3.org/Graphics/SVG/1.1/DTD/svg11.dtd">
<!-- Generated by graphviz version 2.38.0 (20140413.2041)
 -->
<!-- Title: Hydrax::Module::RadialGrid::remove Pages: 1 -->
<svg width="447pt" height="137pt"
 viewBox="0.00 0.00 447.00 137.00" xmlns="http://www.w3.org/2000/svg" xmlns:xlink="http://www.w3.org/1999/xlink">
<g id="graph0" class="graph" transform="scale(1 1) rotate(0) translate(4 133)">
<title>Hydrax::Module::RadialGrid::remove</title>
<polygon fill="white" stroke="none" points="-4,4 -4,-133 443,-133 443,4 -4,4"/>
<!-- Node330 -->
<g id="node1" class="node"><title>Node330</title>
<polygon fill="#bfbfbf" stroke="black" points="0,-49.5 0,-79.5 136,-79.5 136,-49.5 0,-49.5"/>
<text text-anchor="start" x="8" y="-67.5" font-family="Helvetica,sans-Serif" font-size="10.00">Hydrax::Module::RadialGrid</text>
<text text-anchor="middle" x="68" y="-56.5" font-family="Helvetica,sans-Serif" font-size="10.00">::remove</text>
</g>
<!-- Node331 -->
<g id="node2" class="node"><title>Node331</title>
<g id="a_node2"><a xlink:href="../../d9/d88/class_hydrax_1_1_module_1_1_module.html#a589e4b79899235d162286f11726b80e4" target="_top" xlink:title="Hydrax::Module::Module\l::isCreated">
<polygon fill="white" stroke="black" points="172,-98.5 172,-128.5 294,-128.5 294,-98.5 172,-98.5"/>
<text text-anchor="start" x="180" y="-116.5" font-family="Helvetica,sans-Serif" font-size="10.00">Hydrax::Module::Module</text>
<text text-anchor="middle" x="233" y="-105.5" font-family="Helvetica,sans-Serif" font-size="10.00">::isCreated</text>
</a>
</g>
</g>
<!-- Node330&#45;&gt;Node331 -->
<g id="edge1" class="edge"><title>Node330&#45;&gt;Node331</title>
<path fill="none" stroke="midnightblue" d="M119.235,-79.6014C135.891,-84.6083 154.6,-90.2324 171.919,-95.439"/>
<polygon fill="midnightblue" stroke="midnightblue" points="171.346,-98.9213 181.93,-98.4484 173.361,-92.2177 171.346,-98.9213"/>
</g>
<!-- Node332 -->
<g id="node3" class="node"><title>Node332</title>
<g id="a_node3"><a xlink:href="../../d9/d88/class_hydrax_1_1_module_1_1_module.html#a21f60a53a99d72ff00d3fe5565518165" target="_top" xlink:title="Hydrax::Module::Module\l::remove">
<polygon fill="white" stroke="black" points="172,-49.5 172,-79.5 294,-79.5 294,-49.5 172,-49.5"/>
<text text-anchor="start" x="180" y="-67.5" font-family="Helvetica,sans-Serif" font-size="10.00">Hydrax::Module::Module</text>
<text text-anchor="middle" x="233" y="-56.5" font-family="Helvetica,sans-Serif" font-size="10.00">::remove</text>
</a>
</g>
</g>
<!-- Node330&#45;&gt;Node332 -->
<g id="edge2" class="edge"><title>Node330&#45;&gt;Node332</title>
<path fill="none" stroke="midnightblue" d="M136.239,-64.5C144.656,-64.5 153.282,-64.5 161.744,-64.5"/>
<polygon fill="midnightblue" stroke="midnightblue" points="161.958,-68.0001 171.958,-64.5 161.958,-61.0001 161.958,-68.0001"/>
</g>
<!-- Node334 -->
<g id="node5" class="node"><title>Node334</title>
<g id="a_node5"><a xlink:href="../../d9/d88/class_hydrax_1_1_module_1_1_module.html#a522cdc115b168a9d73d9ae27d0ff997a" target="_top" xlink:title="Hydrax::Module::Module\l::getNormalMode">
<polygon fill="white" stroke="black" points="172,-0.5 172,-30.5 294,-30.5 294,-0.5 172,-0.5"/>
<text text-anchor="start" x="180" y="-18.5" font-family="Helvetica,sans-Serif" font-size="10.00">Hydrax::Module::Module</text>
<text text-anchor="middle" x="233" y="-7.5" font-family="Helvetica,sans-Serif" font-size="10.00">::getNormalMode</text>
</a>
</g>
</g>
<!-- Node330&#45;&gt;Node334 -->
<g id="edge4" class="edge"><title>Node330&#45;&gt;Node334</title>
<path fill="none" stroke="midnightblue" d="M119.235,-49.3986C135.891,-44.3917 154.6,-38.7676 171.919,-33.561"/>
<polygon fill="midnightblue" stroke="midnightblue" points="173.361,-36.7823 181.93,-30.5516 171.346,-30.0787 173.361,-36.7823"/>
</g>
<!-- Node333 -->
<g id="node4" class="node"><title>Node333</title>
<g id="a_node4"><a xlink:href="../../da/d26/class_hydrax_1_1_noise_1_1_noise.html#a00c4aaa7604ea492740318d01f651606" target="_top" xlink:title="Hydrax::Noise::Noise\l::remove">
<polygon fill="white" stroke="black" points="330,-49.5 330,-79.5 439,-79.5 439,-49.5 330,-49.5"/>
<text text-anchor="start" x="338" y="-67.5" font-family="Helvetica,sans-Serif" font-size="10.00">Hydrax::Noise::Noise</text>
<text text-anchor="middle" x="384.5" y="-56.5" font-family="Helvetica,sans-Serif" font-size="10.00">::remove</text>
</a>
</g>
</g>
<!-- Node332&#45;&gt;Node333 -->
<g id="edge3" class="edge"><title>Node332&#45;&gt;Node333</title>
<path fill="none" stroke="midnightblue" d="M294.376,-64.5C302.673,-64.5 311.215,-64.5 319.572,-64.5"/>
<polygon fill="midnightblue" stroke="midnightblue" points="319.646,-68.0001 329.646,-64.5 319.646,-61.0001 319.646,-68.0001"/>
</g>
</g>
</svg>
