<?xml version="1.0" encoding="UTF-8" standalone="no"?>
<!DOCTYPE svg PUBLIC "-//W3C//DTD SVG 1.1//EN"
 "http://www.w3.org/Graphics/SVG/1.1/DTD/svg11.dtd">
<!-- Generated by graphviz version 2.38.0 (20140413.2041)
 -->
<!-- Title: RoR::GUI::TopMenubar::getUserString Pages: 1 -->
<!--zoomable 356 -->
<svg id="main" version="1.1" xmlns="http://www.w3.org/2000/svg" xmlns:xlink="http://www.w3.org/1999/xlink" xml:space="preserve" onload="init(evt)">
<style type="text/css"><![CDATA[
.edge:hover path { stroke: red; }
.edge:hover polygon { stroke: red; fill: red; }
]]></style>
<script type="text/javascript"><![CDATA[
var edges = document.getElementsByTagName('g');
if (edges && edges.length) {
  for (var i=0;i<edges.length;i++) {
    if (edges[i].id.substr(0,4)=='edge') {
      edges[i].setAttribute('class','edge');
    }
  }
}
]]></script>
        <defs>
                <circle id="rim" cx="0" cy="0" r="7"/>
                <circle id="rim2" cx="0" cy="0" r="3.5"/>
                <g id="zoomPlus">
                        <use xlink:href="#rim" fill="#404040">
                                <set attributeName="fill" to="#808080" begin="zoomplus.mouseover" end="zoomplus.mouseout"/>
                        </use>
                        <path d="M-4,0h8M0,-4v8" fill="none" stroke="white" stroke-width="1.5" pointer-events="none"/>
                </g>
                <g id="zoomMin">
                        <use xlink:href="#rim" fill="#404040">
                                <set attributeName="fill" to="#808080" begin="zoomminus.mouseover" end="zoomminus.mouseout"/>
                        </use>
                        <path d="M-4,0h8" fill="none" stroke="white" stroke-width="1.5" pointer-events="none"/>
                </g>
                <g id="dirArrow">
                        <path fill="none" stroke="white" stroke-width="1.5" d="M0,-3.0v7 M-2.5,-0.5L0,-3.0L2.5,-0.5"/>
                </g>
               <g id="resetDef">
                       <use xlink:href="#rim2" fill="#404040">
                               <set attributeName="fill" to="#808080" begin="reset.mouseover" end="reset.mouseout"/>
                       </use>
               </g>
        </defs>

<script type="text/javascript">
var viewWidth = 1304;
var viewHeight = 356;
var sectionId = 'dynsection-6';
</script>
<script xlink:href="../../svgpan.js"/>
<svg id="graph" class="graph">
<g id="viewport">
<title>RoR::GUI::TopMenubar::getUserString</title>
<polygon fill="white" stroke="none" points="-4,4 -4,-351.96 1300,-351.96 1300,4 -4,4"/>
<!-- Node751 -->
<g id="node1" class="node"><title>Node751</title>
<polygon fill="#bfbfbf" stroke="black" points="0,-149.5 0,-179.5 117,-179.5 117,-149.5 0,-149.5"/>
<text text-anchor="start" x="8" y="-167.5" font-family="Helvetica,sans-Serif" font-size="10.00">RoR::GUI::TopMenubar</text>
<text text-anchor="middle" x="58.5" y="-156.5" font-family="Helvetica,sans-Serif" font-size="10.00">::getUserString</text>
</g>
<!-- Node752 -->
<g id="node2" class="node"><title>Node752</title>
<g id="a_node2"><a xlink:href="../../de/d80/namespace_ro_r_1_1_chat_system.html#a86899695cb4028cfac8466b79f993141" target="_top" xlink:title="RoR::ChatSystem::GetColouredName">
<polygon fill="white" stroke="black" points="153,-184 153,-203 334,-203 334,-184 153,-184"/>
<text text-anchor="middle" x="243.5" y="-191" font-family="Helvetica,sans-Serif" font-size="10.00">RoR::ChatSystem::GetColouredName</text>
</a>
</g>
</g>
<!-- Node751&#45;&gt;Node752 -->
<g id="edge1" class="edge"><title>Node751&#45;&gt;Node752</title>
<path fill="none" stroke="midnightblue" d="M117.151,-173.636C134.654,-176.41 154.08,-179.488 172.311,-182.377"/>
<polygon fill="midnightblue" stroke="midnightblue" points="171.872,-185.851 182.297,-183.96 172.968,-178.937 171.872,-185.851"/>
</g>
<!-- Node771 -->
<g id="node21" class="node"><title>Node771</title>
<g id="a_node21"><a xlink:href="../../d6/dad/_utils_8cpp.html#aebe76599ecdd7fc4db8b64cba0beb94e" target="_top" xlink:title="ANSI_TO_UTF">
<polygon fill="white" stroke="black" points="203.5,-127 203.5,-146 283.5,-146 283.5,-127 203.5,-127"/>
<text text-anchor="middle" x="243.5" y="-134" font-family="Helvetica,sans-Serif" font-size="10.00">ANSI_TO_UTF</text>
</a>
</g>
</g>
<!-- Node751&#45;&gt;Node771 -->
<g id="edge26" class="edge"><title>Node751&#45;&gt;Node771</title>
<path fill="none" stroke="midnightblue" d="M117.151,-155.679C141.609,-151.937 169.824,-147.62 193.284,-144.03"/>
<polygon fill="midnightblue" stroke="midnightblue" points="194.004,-147.461 203.359,-142.489 192.945,-140.542 194.004,-147.461"/>
</g>
<!-- Node753 -->
<g id="node3" class="node"><title>Node753</title>
<g id="a_node3"><a xlink:href="../../d6/dad/_utils_8cpp.html#aef0f4c4a8529a99aa149b9d72aa3a3f4" target="_top" xlink:title="tryConvertUTF">
<polygon fill="white" stroke="black" points="412,-194 412,-213 490,-213 490,-194 412,-194"/>
<text text-anchor="middle" x="451" y="-201" font-family="Helvetica,sans-Serif" font-size="10.00">tryConvertUTF</text>
</a>
</g>
</g>
<!-- Node752&#45;&gt;Node753 -->
<g id="edge2" class="edge"><title>Node752&#45;&gt;Node753</title>
<path fill="none" stroke="midnightblue" d="M334.037,-197.857C357.248,-198.987 381.373,-200.16 401.569,-201.143"/>
<polygon fill="midnightblue" stroke="midnightblue" points="401.588,-204.648 411.746,-201.638 401.928,-197.656 401.588,-204.648"/>
</g>
<!-- Node768 -->
<g id="node18" class="node"><title>Node768</title>
<g id="a_node18"><a xlink:href="../../df/d86/namespace_ro_r_1_1_app.html#a68d6403d2b36006a6fa2d28f5ba8f12f" target="_top" xlink:title="RoR::App::GetGuiManager">
<polygon fill="white" stroke="black" points="384.5,-156 384.5,-175 517.5,-175 517.5,-156 384.5,-156"/>
<text text-anchor="middle" x="451" y="-163" font-family="Helvetica,sans-Serif" font-size="10.00">RoR::App::GetGuiManager</text>
</a>
</g>
</g>
<!-- Node752&#45;&gt;Node768 -->
<g id="edge23" class="edge"><title>Node752&#45;&gt;Node768</title>
<path fill="none" stroke="midnightblue" d="M314.36,-183.981C333.681,-181.349 354.738,-178.48 374.371,-175.805"/>
<polygon fill="midnightblue" stroke="midnightblue" points="375.055,-179.244 384.491,-174.426 374.11,-172.308 375.055,-179.244"/>
</g>
<!-- Node769 -->
<g id="node19" class="node"><title>Node769</title>
<g id="a_node19"><a xlink:href="../../d8/d11/class_ro_r_1_1_g_u_i_manager.html#a1800f11b608bda375d794ca4e7a86ed3" target="_top" xlink:title="RoR::GUIManager::pushMessage\lChatBox">
<polygon fill="white" stroke="black" points="370,-232.5 370,-262.5 532,-262.5 532,-232.5 370,-232.5"/>
<text text-anchor="start" x="378" y="-250.5" font-family="Helvetica,sans-Serif" font-size="10.00">RoR::GUIManager::pushMessage</text>
<text text-anchor="middle" x="451" y="-239.5" font-family="Helvetica,sans-Serif" font-size="10.00">ChatBox</text>
</a>
</g>
</g>
<!-- Node752&#45;&gt;Node769 -->
<g id="edge24" class="edge"><title>Node752&#45;&gt;Node769</title>
<path fill="none" stroke="midnightblue" d="M280.766,-203.03C308.977,-210.443 348.905,-220.935 382.894,-229.866"/>
<polygon fill="midnightblue" stroke="midnightblue" points="382.207,-233.305 392.769,-232.461 383.986,-226.534 382.207,-233.305"/>
</g>
<!-- Node754 -->
<g id="node4" class="node"><title>Node754</title>
<g id="a_node4"><a xlink:href="../../da/d4c/namespace_ro_r_1_1_utils.html#ac62ee4a4a513a67cba1bdc7d9eb9c7a4" target="_top" xlink:title="RoR::Utils::SanitizeUtf8\lString">
<polygon fill="white" stroke="black" points="572.5,-147.5 572.5,-177.5 691.5,-177.5 691.5,-147.5 572.5,-147.5"/>
<text text-anchor="start" x="580.5" y="-165.5" font-family="Helvetica,sans-Serif" font-size="10.00">RoR::Utils::SanitizeUtf8</text>
<text text-anchor="middle" x="632" y="-154.5" font-family="Helvetica,sans-Serif" font-size="10.00">String</text>
</a>
</g>
</g>
<!-- Node753&#45;&gt;Node754 -->
<g id="edge3" class="edge"><title>Node753&#45;&gt;Node754</title>
<path fill="none" stroke="midnightblue" d="M490.4,-194.704C511.347,-189.907 537.909,-183.822 562.292,-178.238"/>
<polygon fill="midnightblue" stroke="midnightblue" points="563.26,-181.607 572.226,-175.962 561.697,-174.783 563.26,-181.607"/>
</g>
<!-- Node755 -->
<g id="node5" class="node"><title>Node755</title>
<g id="a_node5"><a xlink:href="../../dd/de8/namespaceutf8.html#a07dcd36a2185e5c9f0b19dd88859cd6c" target="_top" xlink:title="utf8::replace_invalid">
<polygon fill="white" stroke="black" points="732,-153 732,-172 833,-172 833,-153 732,-153"/>
<text text-anchor="middle" x="782.5" y="-160" font-family="Helvetica,sans-Serif" font-size="10.00">utf8::replace_invalid</text>
</a>
</g>
</g>
<!-- Node754&#45;&gt;Node755 -->
<g id="edge4" class="edge"><title>Node754&#45;&gt;Node755</title>
<path fill="none" stroke="midnightblue" d="M691.691,-162.5C701.559,-162.5 711.811,-162.5 721.706,-162.5"/>
<polygon fill="midnightblue" stroke="midnightblue" points="721.858,-166 731.858,-162.5 721.858,-159 721.858,-166"/>
</g>
<!-- Node756 -->
<g id="node6" class="node"><title>Node756</title>
<g id="a_node6"><a xlink:href="../../d0/d96/namespaceutf8_1_1internal.html#abe95547575fcc81911e381df03f8ebfe" target="_top" xlink:title="utf8::internal::validate_next">
<polygon fill="white" stroke="black" points="869,-153 869,-172 1001,-172 1001,-153 869,-153"/>
<text text-anchor="middle" x="935" y="-160" font-family="Helvetica,sans-Serif" font-size="10.00">utf8::internal::validate_next</text>
</a>
</g>
</g>
<!-- Node755&#45;&gt;Node756 -->
<g id="edge5" class="edge"><title>Node755&#45;&gt;Node756</title>
<path fill="none" stroke="midnightblue" d="M833.196,-162.5C841.381,-162.5 850.024,-162.5 858.667,-162.5"/>
<polygon fill="midnightblue" stroke="midnightblue" points="858.788,-166 868.788,-162.5 858.788,-159 858.788,-166"/>
</g>
<!-- Node766 -->
<g id="node16" class="node"><title>Node766</title>
<g id="a_node16"><a xlink:href="../../dd/de8/namespaceutf8.html#a3827e78596fc38cfdebd721e9c45c901" target="_top" xlink:title="The library API &#45; functions intended to be called by the users. ">
<polygon fill="white" stroke="black" points="900,-61 900,-80 970,-80 970,-61 900,-61"/>
<text text-anchor="middle" x="935" y="-68" font-family="Helvetica,sans-Serif" font-size="10.00">utf8::append</text>
</a>
</g>
</g>
<!-- Node755&#45;&gt;Node766 -->
<g id="edge19" class="edge"><title>Node755&#45;&gt;Node766</title>
<path fill="none" stroke="midnightblue" d="M799.322,-152.828C825.585,-136.774 878.365,-104.51 909.482,-85.4877"/>
<polygon fill="midnightblue" stroke="midnightblue" points="911.684,-88.2441 918.39,-80.0421 908.033,-82.2716 911.684,-88.2441"/>
</g>
<!-- Node767 -->
<g id="node17" class="node"><title>Node767</title>
<g id="a_node17"><a xlink:href="../../d0/d96/namespaceutf8_1_1internal.html#ab4820484159ba613b4901476ceb24516" target="_top" xlink:title="utf8::internal::is\l_trail">
<polygon fill="white" stroke="black" points="893.5,-264.5 893.5,-294.5 976.5,-294.5 976.5,-264.5 893.5,-264.5"/>
<text text-anchor="start" x="901.5" y="-282.5" font-family="Helvetica,sans-Serif" font-size="10.00">utf8::internal::is</text>
<text text-anchor="middle" x="935" y="-271.5" font-family="Helvetica,sans-Serif" font-size="10.00">_trail</text>
</a>
</g>
</g>
<!-- Node755&#45;&gt;Node767 -->
<g id="edge21" class="edge"><title>Node755&#45;&gt;Node767</title>
<path fill="none" stroke="midnightblue" d="M795.816,-172.075C819.789,-190.712 873.253,-232.275 906.206,-257.893"/>
<polygon fill="midnightblue" stroke="midnightblue" points="904.47,-260.976 914.513,-264.35 908.766,-255.45 904.47,-260.976"/>
</g>
<!-- Node757 -->
<g id="node7" class="node"><title>Node757</title>
<g id="a_node7"><a xlink:href="../../d0/d96/namespaceutf8_1_1internal.html#aadbe437cba7bfcc4df2638f633e9787c" target="_top" xlink:title="utf8::internal::sequence\l_length">
<polygon fill="white" stroke="black" points="1037,-147.5 1037,-177.5 1155,-177.5 1155,-147.5 1037,-147.5"/>
<text text-anchor="start" x="1045" y="-165.5" font-family="Helvetica,sans-Serif" font-size="10.00">utf8::internal::sequence</text>
<text text-anchor="middle" x="1096" y="-154.5" font-family="Helvetica,sans-Serif" font-size="10.00">_length</text>
</a>
</g>
</g>
<!-- Node756&#45;&gt;Node757 -->
<g id="edge6" class="edge"><title>Node756&#45;&gt;Node757</title>
<path fill="none" stroke="midnightblue" d="M1001.13,-162.5C1009.54,-162.5 1018.18,-162.5 1026.64,-162.5"/>
<polygon fill="midnightblue" stroke="midnightblue" points="1026.86,-166 1036.86,-162.5 1026.86,-159 1026.86,-166"/>
</g>
<!-- Node759 -->
<g id="node9" class="node"><title>Node759</title>
<g id="a_node9"><a xlink:href="../../d0/d96/namespaceutf8_1_1internal.html#a6e5df73716136aec55e8fcf3309038b6" target="_top" xlink:title="get_sequence_x functions decode utf&#45;8 sequences of the length x ">
<polygon fill="white" stroke="black" points="1051.5,-98.5 1051.5,-128.5 1140.5,-128.5 1140.5,-98.5 1051.5,-98.5"/>
<text text-anchor="start" x="1059.5" y="-116.5" font-family="Helvetica,sans-Serif" font-size="10.00">utf8::internal::get</text>
<text text-anchor="middle" x="1096" y="-105.5" font-family="Helvetica,sans-Serif" font-size="10.00">_sequence_1</text>
</a>
</g>
</g>
<!-- Node756&#45;&gt;Node759 -->
<g id="edge8" class="edge"><title>Node756&#45;&gt;Node759</title>
<path fill="none" stroke="midnightblue" d="M967.034,-152.936C988.257,-146.396 1016.93,-137.559 1041.76,-129.908"/>
<polygon fill="midnightblue" stroke="midnightblue" points="1042.89,-133.222 1051.41,-126.932 1040.83,-126.533 1042.89,-133.222"/>
</g>
<!-- Node760 -->
<g id="node10" class="node"><title>Node760</title>
<g id="a_node10"><a xlink:href="../../d0/d96/namespaceutf8_1_1internal.html#a9d641b9546be985f9f0fd4955ac42a24" target="_top" xlink:title="utf8::internal::get\l_sequence_2">
<polygon fill="white" stroke="black" points="1051.5,-49.5 1051.5,-79.5 1140.5,-79.5 1140.5,-49.5 1051.5,-49.5"/>
<text text-anchor="start" x="1059.5" y="-67.5" font-family="Helvetica,sans-Serif" font-size="10.00">utf8::internal::get</text>
<text text-anchor="middle" x="1096" y="-56.5" font-family="Helvetica,sans-Serif" font-size="10.00">_sequence_2</text>
</a>
</g>
</g>
<!-- Node756&#45;&gt;Node760 -->
<g id="edge10" class="edge"><title>Node756&#45;&gt;Node760</title>
<path fill="none" stroke="midnightblue" d="M947.201,-152.885C965.214,-137.757 1002.14,-108.107 1037,-88.5 1039.85,-86.8974 1042.83,-85.3408 1045.87,-83.8415"/>
<polygon fill="midnightblue" stroke="midnightblue" points="1047.51,-86.9349 1055.09,-79.5264 1044.55,-80.5947 1047.51,-86.9349"/>
</g>
<!-- Node761 -->
<g id="node11" class="node"><title>Node761</title>
<g id="a_node11"><a xlink:href="../../d0/d96/namespaceutf8_1_1internal.html#ac1809a1fb3fa6983d64a0d3a39646008" target="_top" xlink:title="utf8::internal::get\l_sequence_3">
<polygon fill="white" stroke="black" points="1051.5,-294.5 1051.5,-324.5 1140.5,-324.5 1140.5,-294.5 1051.5,-294.5"/>
<text text-anchor="start" x="1059.5" y="-312.5" font-family="Helvetica,sans-Serif" font-size="10.00">utf8::internal::get</text>
<text text-anchor="middle" x="1096" y="-301.5" font-family="Helvetica,sans-Serif" font-size="10.00">_sequence_3</text>
</a>
</g>
</g>
<!-- Node756&#45;&gt;Node761 -->
<g id="edge12" class="edge"><title>Node756&#45;&gt;Node761</title>
<path fill="none" stroke="midnightblue" d="M941.6,-172.173C955.198,-194.897 992.159,-252.266 1037,-285.5 1038.85,-286.871 1040.79,-288.179 1042.79,-289.425"/>
<polygon fill="midnightblue" stroke="midnightblue" points="1041.44,-292.68 1051.88,-294.496 1044.85,-286.568 1041.44,-292.68"/>
</g>
<!-- Node762 -->
<g id="node12" class="node"><title>Node762</title>
<g id="a_node12"><a xlink:href="../../d0/d96/namespaceutf8_1_1internal.html#ad1958e7c6746ba6b1fbb0d81b88b346c" target="_top" xlink:title="utf8::internal::get\l_sequence_4">
<polygon fill="white" stroke="black" points="1051.5,-196.5 1051.5,-226.5 1140.5,-226.5 1140.5,-196.5 1051.5,-196.5"/>
<text text-anchor="start" x="1059.5" y="-214.5" font-family="Helvetica,sans-Serif" font-size="10.00">utf8::internal::get</text>
<text text-anchor="middle" x="1096" y="-203.5" font-family="Helvetica,sans-Serif" font-size="10.00">_sequence_4</text>
</a>
</g>
</g>
<!-- Node756&#45;&gt;Node762 -->
<g id="edge14" class="edge"><title>Node756&#45;&gt;Node762</title>
<path fill="none" stroke="midnightblue" d="M967.034,-172.064C988.257,-178.604 1016.93,-187.441 1041.76,-195.092"/>
<polygon fill="midnightblue" stroke="midnightblue" points="1040.83,-198.467 1051.41,-198.068 1042.89,-191.778 1040.83,-198.467"/>
</g>
<!-- Node763 -->
<g id="node13" class="node"><title>Node763</title>
<g id="a_node13"><a xlink:href="../../d0/d96/namespaceutf8_1_1internal.html#a97b553137aaeda6e8ca6f8d46f78fd79" target="_top" xlink:title="utf8::internal::is\l_code_point_valid">
<polygon fill="white" stroke="black" points="1049.5,-0.5 1049.5,-30.5 1142.5,-30.5 1142.5,-0.5 1049.5,-0.5"/>
<text text-anchor="start" x="1057.5" y="-18.5" font-family="Helvetica,sans-Serif" font-size="10.00">utf8::internal::is</text>
<text text-anchor="middle" x="1096" y="-7.5" font-family="Helvetica,sans-Serif" font-size="10.00">_code_point_valid</text>
</a>
</g>
</g>
<!-- Node756&#45;&gt;Node763 -->
<g id="edge16" class="edge"><title>Node756&#45;&gt;Node763</title>
<path fill="none" stroke="midnightblue" d="M945.164,-152.863C958.062,-139.154 982.107,-113.068 1001,-89.5 1018.13,-68.1349 1015.53,-56.4949 1037,-39.5 1038.6,-38.2319 1040.28,-37.0207 1042.02,-35.8651"/>
<polygon fill="midnightblue" stroke="midnightblue" points="1044.23,-38.6265 1051.07,-30.5419 1040.68,-32.5917 1044.23,-38.6265"/>
</g>
<!-- Node765 -->
<g id="node15" class="node"><title>Node765</title>
<g id="a_node15"><a xlink:href="../../d0/d96/namespaceutf8_1_1internal.html#a3160f6f24dff465f64f83cb0e66995c6" target="_top" xlink:title="utf8::internal::is\l_overlong_sequence">
<polygon fill="white" stroke="black" points="1044,-245.5 1044,-275.5 1148,-275.5 1148,-245.5 1044,-245.5"/>
<text text-anchor="start" x="1052" y="-263.5" font-family="Helvetica,sans-Serif" font-size="10.00">utf8::internal::is</text>
<text text-anchor="middle" x="1096" y="-252.5" font-family="Helvetica,sans-Serif" font-size="10.00">_overlong_sequence</text>
</a>
</g>
</g>
<!-- Node756&#45;&gt;Node765 -->
<g id="edge18" class="edge"><title>Node756&#45;&gt;Node765</title>
<path fill="none" stroke="midnightblue" d="M947.555,-172.154C965.753,-187.048 1002.57,-215.951 1037,-235.5 1040.39,-237.425 1043.96,-239.297 1047.58,-241.094"/>
<polygon fill="midnightblue" stroke="midnightblue" points="1046.13,-244.279 1056.67,-245.394 1049.13,-237.952 1046.13,-244.279"/>
</g>
<!-- Node758 -->
<g id="node8" class="node"><title>Node758</title>
<g id="a_node8"><a xlink:href="../../d0/d96/namespaceutf8_1_1internal.html#adf6e0469e279b9562aa461b4c3c1e7e4" target="_top" xlink:title="utf8::internal::mask8">
<polygon fill="white" stroke="black" points="1191,-177 1191,-196 1296,-196 1296,-177 1191,-177"/>
<text text-anchor="middle" x="1243.5" y="-184" font-family="Helvetica,sans-Serif" font-size="10.00">utf8::internal::mask8</text>
</a>
</g>
</g>
<!-- Node757&#45;&gt;Node758 -->
<g id="edge7" class="edge"><title>Node757&#45;&gt;Node758</title>
<path fill="none" stroke="midnightblue" d="M1155.34,-172.123C1163.66,-173.496 1172.24,-174.911 1180.62,-176.294"/>
<polygon fill="midnightblue" stroke="midnightblue" points="1180.29,-179.785 1190.72,-177.959 1181.42,-172.878 1180.29,-179.785"/>
</g>
<!-- Node759&#45;&gt;Node758 -->
<g id="edge9" class="edge"><title>Node759&#45;&gt;Node758</title>
<path fill="none" stroke="midnightblue" d="M1135.35,-128.616C1141.96,-131.436 1148.72,-134.458 1155,-137.5 1176.68,-148.01 1200.49,-161.474 1217.79,-171.629"/>
<polygon fill="midnightblue" stroke="midnightblue" points="1216.29,-174.808 1226.68,-176.89 1219.85,-168.784 1216.29,-174.808"/>
</g>
<!-- Node760&#45;&gt;Node758 -->
<g id="edge11" class="edge"><title>Node760&#45;&gt;Node758</title>
<path fill="none" stroke="midnightblue" d="M1139.69,-79.5348C1145.04,-82.1705 1150.29,-85.1576 1155,-88.5 1186.74,-111.022 1215.04,-147.056 1230.39,-168.586"/>
<polygon fill="midnightblue" stroke="midnightblue" points="1227.55,-170.641 1236.14,-176.843 1233.29,-166.638 1227.55,-170.641"/>
</g>
<!-- Node761&#45;&gt;Node758 -->
<g id="edge13" class="edge"><title>Node761&#45;&gt;Node758</title>
<path fill="none" stroke="midnightblue" d="M1139.7,-294.488C1145.06,-291.848 1150.3,-288.854 1155,-285.5 1186.86,-262.77 1215.12,-226.361 1230.43,-204.604"/>
<polygon fill="midnightblue" stroke="midnightblue" points="1233.38,-206.482 1236.17,-196.259 1227.62,-202.516 1233.38,-206.482"/>
</g>
<!-- Node762&#45;&gt;Node758 -->
<g id="edge15" class="edge"><title>Node762&#45;&gt;Node758</title>
<path fill="none" stroke="midnightblue" d="M1140.65,-203.999C1153.26,-201.833 1167.26,-199.427 1180.75,-197.11"/>
<polygon fill="midnightblue" stroke="midnightblue" points="1181.67,-200.503 1190.93,-195.361 1180.48,-193.605 1181.67,-200.503"/>
</g>
<!-- Node764 -->
<g id="node14" class="node"><title>Node764</title>
<g id="a_node14"><a xlink:href="../../d0/d96/namespaceutf8_1_1internal.html#a31a185a6bc8b9bf454191a8a95a93595" target="_top" xlink:title="utf8::internal::is\l_surrogate">
<polygon fill="white" stroke="black" points="1202,-0.5 1202,-30.5 1285,-30.5 1285,-0.5 1202,-0.5"/>
<text text-anchor="start" x="1210" y="-18.5" font-family="Helvetica,sans-Serif" font-size="10.00">utf8::internal::is</text>
<text text-anchor="middle" x="1243.5" y="-7.5" font-family="Helvetica,sans-Serif" font-size="10.00">_surrogate</text>
</a>
</g>
</g>
<!-- Node763&#45;&gt;Node764 -->
<g id="edge17" class="edge"><title>Node763&#45;&gt;Node764</title>
<path fill="none" stroke="midnightblue" d="M1142.64,-15.5C1158.23,-15.5 1175.75,-15.5 1191.72,-15.5"/>
<polygon fill="midnightblue" stroke="midnightblue" points="1191.95,-19.0001 1201.95,-15.5 1191.95,-12.0001 1191.95,-19.0001"/>
</g>
<!-- Node766&#45;&gt;Node763 -->
<g id="edge20" class="edge"><title>Node766&#45;&gt;Node763</title>
<path fill="none" stroke="midnightblue" d="M963.696,-60.9197C985.155,-53.4967 1015.53,-42.9883 1041.67,-33.9485"/>
<polygon fill="midnightblue" stroke="midnightblue" points="1043.14,-37.1422 1051.45,-30.5654 1040.85,-30.5268 1043.14,-37.1422"/>
</g>
<!-- Node767&#45;&gt;Node758 -->
<g id="edge22" class="edge"><title>Node767&#45;&gt;Node758</title>
<path fill="none" stroke="midnightblue" d="M957.321,-294.665C998.181,-321.692 1089.28,-371.99 1155,-334.5 1203.92,-306.594 1228.26,-239.433 1237.68,-206.036"/>
<polygon fill="midnightblue" stroke="midnightblue" points="1241.13,-206.673 1240.31,-196.11 1234.36,-204.876 1241.13,-206.673"/>
</g>
<!-- Node770 -->
<g id="node20" class="node"><title>Node770</title>
<g id="a_node20"><a xlink:href="../../d4/d60/class_ro_r_1_1_g_u_i_1_1_game_chat_box.html#af851bd28933eaf908c540f8cfd18fbca" target="_top" xlink:title="RoR::GUI::GameChatBox\l::pushMsg">
<polygon fill="white" stroke="black" points="568,-232.5 568,-262.5 696,-262.5 696,-232.5 568,-232.5"/>
<text text-anchor="start" x="576" y="-250.5" font-family="Helvetica,sans-Serif" font-size="10.00">RoR::GUI::GameChatBox</text>
<text text-anchor="middle" x="632" y="-239.5" font-family="Helvetica,sans-Serif" font-size="10.00">::pushMsg</text>
</a>
</g>
</g>
<!-- Node769&#45;&gt;Node770 -->
<g id="edge25" class="edge"><title>Node769&#45;&gt;Node770</title>
<path fill="none" stroke="midnightblue" d="M532.076,-247.5C540.613,-247.5 549.266,-247.5 557.719,-247.5"/>
<polygon fill="midnightblue" stroke="midnightblue" points="557.909,-251 567.909,-247.5 557.909,-244 557.909,-251"/>
</g>
<!-- Node771&#45;&gt;Node754 -->
<g id="edge27" class="edge"><title>Node771&#45;&gt;Node754</title>
<path fill="none" stroke="midnightblue" d="M283.664,-136.309C339.09,-136.392 443.523,-137.846 532,-146.5 541.812,-147.46 552.127,-148.778 562.242,-150.248"/>
<polygon fill="midnightblue" stroke="midnightblue" points="561.854,-153.729 572.265,-151.763 562.9,-146.808 561.854,-153.729"/>
</g>
</g>
</svg>
        <g id="navigator" transform="translate(0 0)" fill="#404254">
                <rect fill="#f2f5e9" fill-opacity="0.5" stroke="#606060" stroke-width=".5" x="0" y="0" width="60" height="60"/>
                <use id="zoomplus" xlink:href="#zoomPlus" x="17" y="9" onmousedown="handleZoom(evt,'in')"/>
                <use id="zoomminus" xlink:href="#zoomMin" x="42" y="9" onmousedown="handleZoom(evt,'out')"/>
                <use id="reset" xlink:href="#resetDef" x="30" y="36" onmousedown="handleReset()"/>
                <g id="arrowUp" xlink:href="#dirArrow" transform="translate(30 24)" onmousedown="handlePan(0,-1)">
                  <use xlink:href="#rim" fill="#404040">
                        <set attributeName="fill" to="#808080" begin="arrowUp.mouseover" end="arrowUp.mouseout"/>
                  </use>
                  <path fill="none" stroke="white" stroke-width="1.5" d="M0,-3.0v7 M-2.5,-0.5L0,-3.0L2.5,-0.5"/>
                </g>
                <g id="arrowRight" xlink:href="#dirArrow" transform="rotate(90) translate(36 -43)" onmousedown="handlePan(1,0)">
                  <use xlink:href="#rim" fill="#404040">
                        <set attributeName="fill" to="#808080" begin="arrowRight.mouseover" end="arrowRight.mouseout"/>
                  </use>
                  <path fill="none" stroke="white" stroke-width="1.5" d="M0,-3.0v7 M-2.5,-0.5L0,-3.0L2.5,-0.5"/>
                </g>
                <g id="arrowDown" xlink:href="#dirArrow" transform="rotate(180) translate(-30 -48)" onmousedown="handlePan(0,1)">
                  <use xlink:href="#rim" fill="#404040">
                        <set attributeName="fill" to="#808080" begin="arrowDown.mouseover" end="arrowDown.mouseout"/>
                  </use>
                  <path fill="none" stroke="white" stroke-width="1.5" d="M0,-3.0v7 M-2.5,-0.5L0,-3.0L2.5,-0.5"/>
                </g>
                <g id="arrowLeft" xlink:href="#dirArrow" transform="rotate(270) translate(-36 17)" onmousedown="handlePan(-1,0)">
                  <use xlink:href="#rim" fill="#404040">
                        <set attributeName="fill" to="#808080" begin="arrowLeft.mouseover" end="arrowLeft.mouseout"/>
                  </use>
                  <path fill="none" stroke="white" stroke-width="1.5" d="M0,-3.0v7 M-2.5,-0.5L0,-3.0L2.5,-0.5"/>
                </g>
        </g>
        <svg viewBox="0 0 15 15" width="100%" height="30px" preserveAspectRatio="xMaxYMin meet">
         <g id="arrow_out" transform="scale(0.3 0.3)">
          <a xlink:href="class_ro_r_1_1_g_u_i_1_1_top_menubar_afc569f76db932594057f0ad6c6884003_cgraph_org.svg" target="_base">
           <rect id="button" ry="5" rx="5" y="6" x="6" height="38" width="38"
                fill="#f2f5e9" fill-opacity="0.5" stroke="#606060" stroke-width="1.0"/>
           <path id="arrow"
             d="M 11.500037,31.436501 C 11.940474,20.09759 22.043105,11.32322 32.158766,21.979434 L 37.068811,17.246167 C 37.068811,17.246167 37.088388,32 37.088388,32 L 22.160133,31.978069 C 22.160133,31.978069 26.997745,27.140456 26.997745,27.140456 C 18.528582,18.264221 13.291696,25.230495 11.500037,31.436501 z"
             style="fill:#404040;"/>
          </a>
         </g>
        </svg>
</svg>
