<?xml version="1.0" encoding="UTF-8" standalone="no"?>
<!DOCTYPE svg PUBLIC "-//W3C//DTD SVG 1.1//EN"
 "http://www.w3.org/Graphics/SVG/1.1/DTD/svg11.dtd">
<!-- Generated by graphviz version 2.38.0 (20140413.2041)
 -->
<!-- Title: RoR::GUI::TopMenubar::vehiclesListUpdate Pages: 1 -->
<svg width="1332pt" height="222pt"
 viewBox="0.00 0.00 1332.00 222.00" xmlns="http://www.w3.org/2000/svg" xmlns:xlink="http://www.w3.org/1999/xlink">
<g id="graph0" class="graph" transform="scale(1 1) rotate(0) translate(4 218)">
<title>RoR::GUI::TopMenubar::vehiclesListUpdate</title>
<polygon fill="white" stroke="none" points="-4,4 -4,-218 1328,-218 1328,4 -4,4"/>
<!-- Node1570 -->
<g id="node1" class="node"><title>Node1570</title>
<polygon fill="#bfbfbf" stroke="black" points="0,-71 0,-101 117,-101 117,-71 0,-71"/>
<text text-anchor="start" x="8" y="-89" font-family="Helvetica,sans-Serif" font-size="10.00">RoR::GUI::TopMenubar</text>
<text text-anchor="middle" x="58.5" y="-78" font-family="Helvetica,sans-Serif" font-size="10.00">::vehiclesListUpdate</text>
</g>
<!-- Node1571 -->
<g id="node2" class="node"><title>Node1571</title>
<g id="a_node2"><a xlink:href="../../d6/d19/class_ro_r_1_1_g_u_i_1_1_top_menubar.html#a85cdceff2c0f1196726097bc04953567" target="_top" xlink:title="RoR::GUI::TopMenubar\l::updatePositionUponMousePosition">
<polygon fill="white" stroke="black" points="153,-107 153,-137 327,-137 327,-107 153,-107"/>
<text text-anchor="start" x="161" y="-125" font-family="Helvetica,sans-Serif" font-size="10.00">RoR::GUI::TopMenubar</text>
<text text-anchor="middle" x="240" y="-114" font-family="Helvetica,sans-Serif" font-size="10.00">::updatePositionUponMousePosition</text>
</a>
</g>
</g>
<!-- Node1570&#45;&gt;Node1571 -->
<g id="edge1" class="edge"><title>Node1570&#45;&gt;Node1571</title>
<path fill="none" stroke="midnightblue" d="M127.208,-99.5793C139.205,-101.985 151.761,-104.504 163.946,-106.947"/>
<polygon fill="midnightblue" stroke="midnightblue" points="127.776,-96.1236 117.283,-97.5888 126.399,-102.987 127.776,-96.1236"/>
</g>
<!-- Node1580 -->
<g id="node11" class="node"><title>Node1580</title>
<g id="a_node11"><a xlink:href="../../d6/d19/class_ro_r_1_1_g_u_i_1_1_top_menubar.html#a1a4c2b4a27eb2a018b6b8ea49528f22a" target="_top" xlink:title="RoR::GUI::TopMenubar\l::SetSimController">
<polygon fill="white" stroke="black" points="181.5,-36 181.5,-66 298.5,-66 298.5,-36 181.5,-36"/>
<text text-anchor="start" x="189.5" y="-54" font-family="Helvetica,sans-Serif" font-size="10.00">RoR::GUI::TopMenubar</text>
<text text-anchor="middle" x="240" y="-43" font-family="Helvetica,sans-Serif" font-size="10.00">::SetSimController</text>
</a>
</g>
</g>
<!-- Node1570&#45;&gt;Node1580 -->
<g id="edge11" class="edge"><title>Node1570&#45;&gt;Node1580</title>
<path fill="none" stroke="midnightblue" d="M127.556,-72.7301C145.277,-69.2747 164.198,-65.5853 181.325,-62.2458"/>
<polygon fill="midnightblue" stroke="midnightblue" points="126.428,-69.3839 117.283,-74.7331 127.768,-76.2545 126.428,-69.3839"/>
</g>
<!-- Node1572 -->
<g id="node3" class="node"><title>Node1572</title>
<g id="a_node3"><a xlink:href="../../db/df1/class_g_u_i_input_manager.html#a2f52a8c0b01fca8c55a954bdb7d2ab79" target="_top" xlink:title="GUIInputManager::mouseMoved">
<polygon fill="white" stroke="black" points="373,-194.5 373,-213.5 528,-213.5 528,-194.5 373,-194.5"/>
<text text-anchor="middle" x="450.5" y="-201.5" font-family="Helvetica,sans-Serif" font-size="10.00">GUIInputManager::mouseMoved</text>
</a>
</g>
</g>
<!-- Node1571&#45;&gt;Node1572 -->
<g id="edge2" class="edge"><title>Node1571&#45;&gt;Node1572</title>
<path fill="none" stroke="midnightblue" d="M274.06,-142.073C298.017,-155.863 331.587,-173.66 363,-185 373.413,-188.759 384.81,-191.907 395.815,-194.489"/>
<polygon fill="midnightblue" stroke="midnightblue" points="275.774,-139.021 265.373,-137.006 272.247,-145.068 275.774,-139.021"/>
</g>
<!-- Node1577 -->
<g id="node8" class="node"><title>Node1577</title>
<g id="a_node8"><a xlink:href="../../db/df1/class_g_u_i_input_manager.html#a2e10c3db1bd7068fc87476ce1cceb7c6" target="_top" xlink:title="GUIInputManager::mousePressed">
<polygon fill="white" stroke="black" points="369,-156.5 369,-175.5 532,-175.5 532,-156.5 369,-156.5"/>
<text text-anchor="middle" x="450.5" y="-163.5" font-family="Helvetica,sans-Serif" font-size="10.00">GUIInputManager::mousePressed</text>
</a>
</g>
</g>
<!-- Node1571&#45;&gt;Node1577 -->
<g id="edge7" class="edge"><title>Node1571&#45;&gt;Node1577</title>
<path fill="none" stroke="midnightblue" d="M321.965,-139.086C349.975,-144.997 380.347,-151.407 404.424,-156.488"/>
<polygon fill="midnightblue" stroke="midnightblue" points="322.678,-135.66 312.171,-137.019 321.233,-142.509 322.678,-135.66"/>
</g>
<!-- Node1578 -->
<g id="node9" class="node"><title>Node1578</title>
<g id="a_node9"><a xlink:href="../../d6/d19/class_ro_r_1_1_g_u_i_1_1_top_menubar.html#aba4f8b1030da3a9d3b4394562d60a05a" target="_top" xlink:title="RoR::GUI::TopMenubar\l::TopMenubar">
<polygon fill="white" stroke="black" points="392,-107 392,-137 509,-137 509,-107 392,-107"/>
<text text-anchor="start" x="400" y="-125" font-family="Helvetica,sans-Serif" font-size="10.00">RoR::GUI::TopMenubar</text>
<text text-anchor="middle" x="450.5" y="-114" font-family="Helvetica,sans-Serif" font-size="10.00">::TopMenubar</text>
</a>
</g>
</g>
<!-- Node1571&#45;&gt;Node1578 -->
<g id="edge9" class="edge"><title>Node1571&#45;&gt;Node1578</title>
<path fill="none" stroke="midnightblue" d="M337.069,-122C355.817,-122 374.921,-122 391.934,-122"/>
<polygon fill="midnightblue" stroke="midnightblue" points="337.009,-118.5 327.009,-122 337.009,-125.5 337.009,-118.5"/>
</g>
<!-- Node1579 -->
<g id="node10" class="node"><title>Node1579</title>
<g id="a_node10"><a xlink:href="../../d6/d19/class_ro_r_1_1_g_u_i_1_1_top_menubar.html#a180dd47d14be5a44450e0569c5dd8522" target="_top" xlink:title="RoR::GUI::TopMenubar\l::getMenuHeight">
<polygon fill="white" stroke="black" points="392,-58 392,-88 509,-88 509,-58 392,-58"/>
<text text-anchor="start" x="400" y="-76" font-family="Helvetica,sans-Serif" font-size="10.00">RoR::GUI::TopMenubar</text>
<text text-anchor="middle" x="450.5" y="-65" font-family="Helvetica,sans-Serif" font-size="10.00">::getMenuHeight</text>
</a>
</g>
</g>
<!-- Node1571&#45;&gt;Node1579 -->
<g id="edge10" class="edge"><title>Node1571&#45;&gt;Node1579</title>
<path fill="none" stroke="midnightblue" d="M314.864,-104.641C340.083,-98.7144 367.901,-92.1767 391.673,-86.5901"/>
<polygon fill="midnightblue" stroke="midnightblue" points="313.908,-101.27 304.974,-106.965 315.509,-108.085 313.908,-101.27"/>
</g>
<!-- Node1573 -->
<g id="node4" class="node"><title>Node1573</title>
<g id="a_node4"><a xlink:href="../../db/df1/class_g_u_i_input_manager.html#ab59361b8e1a9e31e53b5e5523f2b4801" target="_top" xlink:title="GUIInputManager::getLast\lMouseMoveTime">
<polygon fill="white" stroke="black" points="605,-170 605,-200 735,-200 735,-170 605,-170"/>
<text text-anchor="start" x="613" y="-188" font-family="Helvetica,sans-Serif" font-size="10.00">GUIInputManager::getLast</text>
<text text-anchor="middle" x="670" y="-177" font-family="Helvetica,sans-Serif" font-size="10.00">MouseMoveTime</text>
</a>
</g>
</g>
<!-- Node1572&#45;&gt;Node1573 -->
<g id="edge3" class="edge"><title>Node1572&#45;&gt;Node1573</title>
<path fill="none" stroke="midnightblue" d="M538.29,-196.418C560.516,-194.477 584.018,-192.424 604.872,-190.602"/>
<polygon fill="midnightblue" stroke="midnightblue" points="537.84,-192.944 528.182,-197.301 538.449,-199.918 537.84,-192.944"/>
</g>
<!-- Node1574 -->
<g id="node5" class="node"><title>Node1574</title>
<g id="a_node5"><a xlink:href="../../d8/d11/class_ro_r_1_1_g_u_i_manager.html#aae1570a62049085aa74ce274ac9a70ad" target="_top" xlink:title="RoR::GUIManager::frameStarted">
<polygon fill="white" stroke="black" points="802,-175.5 802,-194.5 959,-194.5 959,-175.5 802,-175.5"/>
<text text-anchor="middle" x="880.5" y="-182.5" font-family="Helvetica,sans-Serif" font-size="10.00">RoR::GUIManager::frameStarted</text>
</a>
</g>
</g>
<!-- Node1573&#45;&gt;Node1574 -->
<g id="edge4" class="edge"><title>Node1573&#45;&gt;Node1574</title>
<path fill="none" stroke="midnightblue" d="M745.301,-185C763.659,-185 783.37,-185 801.881,-185"/>
<polygon fill="midnightblue" stroke="midnightblue" points="745.258,-181.5 735.258,-185 745.258,-188.5 745.258,-181.5"/>
</g>
<!-- Node1575 -->
<g id="node6" class="node"><title>Node1575</title>
<g id="a_node6"><a xlink:href="../../d8/d11/class_ro_r_1_1_g_u_i_manager.html#a4ab273bd0538649818c84b38e8a06100" target="_top" xlink:title="RoR::GUIManager::GetTheme">
<polygon fill="white" stroke="black" points="995,-175.5 995,-194.5 1141,-194.5 1141,-175.5 995,-175.5"/>
<text text-anchor="middle" x="1068" y="-182.5" font-family="Helvetica,sans-Serif" font-size="10.00">RoR::GUIManager::GetTheme</text>
</a>
</g>
</g>
<!-- Node1574&#45;&gt;Node1575 -->
<g id="edge5" class="edge"><title>Node1574&#45;&gt;Node1575</title>
<path fill="none" stroke="midnightblue" d="M969.125,-185C977.707,-185 986.349,-185 994.754,-185"/>
<polygon fill="midnightblue" stroke="midnightblue" points="969.094,-181.5 959.094,-185 969.094,-188.5 969.094,-181.5"/>
</g>
<!-- Node1576 -->
<g id="node7" class="node"><title>Node1576</title>
<g id="a_node7"><a xlink:href="../../d4/d8f/class_ro_r_1_1_g_u_i_1_1_multiplayer_selector.html#a8c98e9ba03c8afb1d1a26ec06192862e" target="_top" xlink:title="RoR::GUI::MultiplayerSelector\l::~MultiplayerSelector">
<polygon fill="white" stroke="black" points="1177,-170 1177,-200 1324,-200 1324,-170 1177,-170"/>
<text text-anchor="start" x="1185" y="-188" font-family="Helvetica,sans-Serif" font-size="10.00">RoR::GUI::MultiplayerSelector</text>
<text text-anchor="middle" x="1250.5" y="-177" font-family="Helvetica,sans-Serif" font-size="10.00">::~MultiplayerSelector</text>
</a>
</g>
</g>
<!-- Node1575&#45;&gt;Node1576 -->
<g id="edge6" class="edge"><title>Node1575&#45;&gt;Node1576</title>
<path fill="none" stroke="midnightblue" d="M1151.14,-185C1159.74,-185 1168.43,-185 1176.91,-185"/>
<polygon fill="midnightblue" stroke="midnightblue" points="1151.12,-181.5 1141.12,-185 1151.12,-188.5 1151.12,-181.5"/>
</g>
<!-- Node1577&#45;&gt;Node1573 -->
<g id="edge8" class="edge"><title>Node1577&#45;&gt;Node1573</title>
<path fill="none" stroke="midnightblue" d="M542.38,-173.939C563.335,-175.77 585.201,-177.68 604.748,-179.387"/>
<polygon fill="midnightblue" stroke="midnightblue" points="542.447,-170.432 532.18,-173.048 541.837,-177.405 542.447,-170.432"/>
</g>
<!-- Node1581 -->
<g id="node12" class="node"><title>Node1581</title>
<g id="a_node12"><a xlink:href="../../d8/d11/class_ro_r_1_1_g_u_i_manager.html#a875185e93587aeb2ab73220c1d2d4fc8" target="_top" xlink:title="RoR::GUIManager::SetSimController">
<polygon fill="white" stroke="black" points="363,-19.5 363,-38.5 538,-38.5 538,-19.5 363,-19.5"/>
<text text-anchor="middle" x="450.5" y="-26.5" font-family="Helvetica,sans-Serif" font-size="10.00">RoR::GUIManager::SetSimController</text>
</a>
</g>
</g>
<!-- Node1580&#45;&gt;Node1581 -->
<g id="edge12" class="edge"><title>Node1580&#45;&gt;Node1581</title>
<path fill="none" stroke="midnightblue" d="M308.528,-43.8747C325.85,-42.047 344.724,-40.0556 362.864,-38.1415"/>
<polygon fill="midnightblue" stroke="midnightblue" points="308.103,-40.4001 298.525,-44.9302 308.838,-47.3614 308.103,-40.4001"/>
</g>
<!-- Node1582 -->
<g id="node13" class="node"><title>Node1582</title>
<g id="a_node13"><a xlink:href="../../dd/dbe/class_ro_r_frame_listener.html#a9e239911ad148aa76c58202920090f76" target="_top" xlink:title="RoRFrameListener::EnterGameplayLoop">
<polygon fill="white" stroke="black" points="574,-19.5 574,-38.5 766,-38.5 766,-19.5 574,-19.5"/>
<text text-anchor="middle" x="670" y="-26.5" font-family="Helvetica,sans-Serif" font-size="10.00">RoRFrameListener::EnterGameplayLoop</text>
</a>
</g>
</g>
<!-- Node1581&#45;&gt;Node1582 -->
<g id="edge13" class="edge"><title>Node1581&#45;&gt;Node1582</title>
<path fill="none" stroke="midnightblue" d="M548.333,-29C556.784,-29 565.333,-29 573.771,-29"/>
<polygon fill="midnightblue" stroke="midnightblue" points="548.087,-25.5001 538.087,-29 548.087,-32.5001 548.087,-25.5001"/>
</g>
<!-- Node1583 -->
<g id="node14" class="node"><title>Node1583</title>
<g id="a_node14"><a xlink:href="../../dd/dbe/class_ro_r_frame_listener.html#ad598075b5f183208c0de43b9248bb44b" target="_top" xlink:title="RoRFrameListener::getTime">
<polygon fill="white" stroke="black" points="811.5,-38.5 811.5,-57.5 949.5,-57.5 949.5,-38.5 811.5,-38.5"/>
<text text-anchor="middle" x="880.5" y="-45.5" font-family="Helvetica,sans-Serif" font-size="10.00">RoRFrameListener::getTime</text>
</a>
</g>
</g>
<!-- Node1582&#45;&gt;Node1583 -->
<g id="edge14" class="edge"><title>Node1582&#45;&gt;Node1583</title>
<path fill="none" stroke="midnightblue" d="M776.13,-38.5802C788.086,-39.6697 800.026,-40.7578 811.322,-41.7871"/>
<polygon fill="midnightblue" stroke="midnightblue" points="776.374,-35.088 766.098,-37.666 775.739,-42.0592 776.374,-35.088"/>
</g>
<!-- Node1584 -->
<g id="node15" class="node"><title>Node1584</title>
<g id="a_node15"><a xlink:href="../../df/d0a/main_8cpp.html#a0ddf1224851353fc92bfbff6f499fa97" target="_top" xlink:title="main">
<polygon fill="white" stroke="black" points="861.5,-0.5 861.5,-19.5 899.5,-19.5 899.5,-0.5 861.5,-0.5"/>
<text text-anchor="middle" x="880.5" y="-7.5" font-family="Helvetica,sans-Serif" font-size="10.00">main</text>
</a>
</g>
</g>
<!-- Node1582&#45;&gt;Node1584 -->
<g id="edge15" class="edge"><title>Node1582&#45;&gt;Node1584</title>
<path fill="none" stroke="midnightblue" d="M776.272,-19.4069C809.087,-16.4165 841.767,-13.4385 861.305,-11.6581"/>
<polygon fill="midnightblue" stroke="midnightblue" points="775.739,-15.9408 766.098,-20.334 776.374,-22.912 775.739,-15.9408"/>
</g>
<!-- Node1585 -->
<g id="node16" class="node"><title>Node1585</title>
<g id="a_node16"><a xlink:href="../../df/d0a/main_8cpp.html#a2922bc5d5c2d77a3020cfbf9df12aab0" target="_top" xlink:title="WinMain">
<polygon fill="white" stroke="black" points="1040.5,-0.5 1040.5,-19.5 1095.5,-19.5 1095.5,-0.5 1040.5,-0.5"/>
<text text-anchor="middle" x="1068" y="-7.5" font-family="Helvetica,sans-Serif" font-size="10.00">WinMain</text>
</a>
</g>
</g>
<!-- Node1584&#45;&gt;Node1585 -->
<g id="edge16" class="edge"><title>Node1584&#45;&gt;Node1585</title>
<path fill="none" stroke="midnightblue" d="M909.764,-10C945.186,-10 1005.45,-10 1040.18,-10"/>
<polygon fill="midnightblue" stroke="midnightblue" points="909.624,-6.5001 899.624,-10 909.624,-13.5001 909.624,-6.5001"/>
</g>
</g>
</svg>
