<?xml version="1.0" encoding="UTF-8" standalone="no"?>
<!DOCTYPE svg PUBLIC "-//W3C//DTD SVG 1.1//EN"
 "http://www.w3.org/Graphics/SVG/1.1/DTD/svg11.dtd">
<!-- Generated by graphviz version 2.38.0 (20140413.2041)
 -->
<!-- Title: RoR::SceneMouse::releaseMousePick Pages: 1 -->
<svg width="1281pt" height="104pt"
 viewBox="0.00 0.00 1281.00 104.00" xmlns="http://www.w3.org/2000/svg" xmlns:xlink="http://www.w3.org/1999/xlink">
<g id="graph0" class="graph" transform="scale(1 1) rotate(0) translate(4 100)">
<title>RoR::SceneMouse::releaseMousePick</title>
<polygon fill="white" stroke="none" points="-4,4 -4,-100 1277,-100 1277,4 -4,4"/>
<!-- Node212 -->
<g id="node1" class="node"><title>Node212</title>
<polygon fill="#bfbfbf" stroke="black" points="0,-33 0,-63 136,-63 136,-33 0,-33"/>
<text text-anchor="start" x="8" y="-51" font-family="Helvetica,sans-Serif" font-size="10.00">RoR::SceneMouse::release</text>
<text text-anchor="middle" x="68" y="-40" font-family="Helvetica,sans-Serif" font-size="10.00">MousePick</text>
</g>
<!-- Node213 -->
<g id="node2" class="node"><title>Node213</title>
<g id="a_node2"><a xlink:href="../../d7/d9d/class_ro_r_1_1_scene_mouse.html#a8577d57989d294eea1054d9c21abe567" target="_top" xlink:title="RoR::SceneMouse::SceneMouse">
<polygon fill="white" stroke="black" points="178.5,-76.5 178.5,-95.5 339.5,-95.5 339.5,-76.5 178.5,-76.5"/>
<text text-anchor="middle" x="259" y="-83.5" font-family="Helvetica,sans-Serif" font-size="10.00">RoR::SceneMouse::SceneMouse</text>
</a>
</g>
</g>
<!-- Node212&#45;&gt;Node213 -->
<g id="edge1" class="edge"><title>Node212&#45;&gt;Node213</title>
<path fill="none" stroke="midnightblue" d="M146.1,-63.5016C167.955,-67.8957 191.096,-72.5484 210.627,-76.4754"/>
<polygon fill="midnightblue" stroke="midnightblue" points="146.66,-60.0443 136.166,-61.5044 145.28,-66.9069 146.66,-60.0443"/>
</g>
<!-- Node214 -->
<g id="node3" class="node"><title>Node214</title>
<g id="a_node3"><a xlink:href="../../d7/d9d/class_ro_r_1_1_scene_mouse.html#a4b6998ce12990478a6a2bf2e59b2eb1d" target="_top" xlink:title="RoR::SceneMouse::mouseMoved">
<polygon fill="white" stroke="black" points="178.5,-38.5 178.5,-57.5 339.5,-57.5 339.5,-38.5 178.5,-38.5"/>
<text text-anchor="middle" x="259" y="-45.5" font-family="Helvetica,sans-Serif" font-size="10.00">RoR::SceneMouse::mouseMoved</text>
</a>
</g>
</g>
<!-- Node212&#45;&gt;Node214 -->
<g id="edge2" class="edge"><title>Node212&#45;&gt;Node214</title>
<path fill="none" stroke="midnightblue" d="M146.24,-48C156.862,-48 167.785,-48 178.448,-48"/>
<polygon fill="midnightblue" stroke="midnightblue" points="146.167,-44.5001 136.166,-48 146.166,-51.5001 146.167,-44.5001"/>
</g>
<!-- Node220 -->
<g id="node9" class="node"><title>Node220</title>
<g id="a_node9"><a xlink:href="../../d7/d9d/class_ro_r_1_1_scene_mouse.html#a3acc549dff8747f1a0af196526895dc0" target="_top" xlink:title="RoR::SceneMouse::mouseReleased">
<polygon fill="white" stroke="black" points="172,-0.5 172,-19.5 346,-19.5 346,-0.5 172,-0.5"/>
<text text-anchor="middle" x="259" y="-7.5" font-family="Helvetica,sans-Serif" font-size="10.00">RoR::SceneMouse::mouseReleased</text>
</a>
</g>
</g>
<!-- Node212&#45;&gt;Node220 -->
<g id="edge8" class="edge"><title>Node212&#45;&gt;Node220</title>
<path fill="none" stroke="midnightblue" d="M146.1,-32.4984C167.955,-28.1043 191.096,-23.4516 210.627,-19.5246"/>
<polygon fill="midnightblue" stroke="midnightblue" points="145.28,-29.0931 136.166,-34.4956 146.66,-35.9557 145.28,-29.0931"/>
</g>
<!-- Node215 -->
<g id="node4" class="node"><title>Node215</title>
<g id="a_node4"><a xlink:href="../../db/df1/class_g_u_i_input_manager.html#a2f52a8c0b01fca8c55a954bdb7d2ab79" target="_top" xlink:title="GUIInputManager::mouseMoved">
<polygon fill="white" stroke="black" points="388,-38.5 388,-57.5 543,-57.5 543,-38.5 388,-38.5"/>
<text text-anchor="middle" x="465.5" y="-45.5" font-family="Helvetica,sans-Serif" font-size="10.00">GUIInputManager::mouseMoved</text>
</a>
</g>
</g>
<!-- Node214&#45;&gt;Node215 -->
<g id="edge3" class="edge"><title>Node214&#45;&gt;Node215</title>
<path fill="none" stroke="midnightblue" d="M349.743,-48C362.417,-48 375.35,-48 387.749,-48"/>
<polygon fill="midnightblue" stroke="midnightblue" points="349.651,-44.5001 339.651,-48 349.651,-51.5001 349.651,-44.5001"/>
</g>
<!-- Node216 -->
<g id="node5" class="node"><title>Node216</title>
<g id="a_node5"><a xlink:href="../../db/df1/class_g_u_i_input_manager.html#ab59361b8e1a9e31e53b5e5523f2b4801" target="_top" xlink:title="GUIInputManager::getLast\lMouseMoveTime">
<polygon fill="white" stroke="black" points="585,-14 585,-44 715,-44 715,-14 585,-14"/>
<text text-anchor="start" x="593" y="-32" font-family="Helvetica,sans-Serif" font-size="10.00">GUIInputManager::getLast</text>
<text text-anchor="middle" x="650" y="-21" font-family="Helvetica,sans-Serif" font-size="10.00">MouseMoveTime</text>
</a>
</g>
</g>
<!-- Node215&#45;&gt;Node216 -->
<g id="edge4" class="edge"><title>Node215&#45;&gt;Node216</title>
<path fill="none" stroke="midnightblue" d="M553.23,-38.9706C563.837,-37.8662 574.527,-36.7534 584.723,-35.6919"/>
<polygon fill="midnightblue" stroke="midnightblue" points="552.687,-35.5081 543.103,-40.0249 553.412,-42.4705 552.687,-35.5081"/>
</g>
<!-- Node217 -->
<g id="node6" class="node"><title>Node217</title>
<g id="a_node6"><a xlink:href="../../d8/d11/class_ro_r_1_1_g_u_i_manager.html#aae1570a62049085aa74ce274ac9a70ad" target="_top" xlink:title="RoR::GUIManager::frameStarted">
<polygon fill="white" stroke="black" points="751,-19.5 751,-38.5 908,-38.5 908,-19.5 751,-19.5"/>
<text text-anchor="middle" x="829.5" y="-26.5" font-family="Helvetica,sans-Serif" font-size="10.00">RoR::GUIManager::frameStarted</text>
</a>
</g>
</g>
<!-- Node216&#45;&gt;Node217 -->
<g id="edge5" class="edge"><title>Node216&#45;&gt;Node217</title>
<path fill="none" stroke="midnightblue" d="M725.289,-29C733.748,-29 742.387,-29 750.888,-29"/>
<polygon fill="midnightblue" stroke="midnightblue" points="725.082,-25.5001 715.082,-29 725.082,-32.5001 725.082,-25.5001"/>
</g>
<!-- Node218 -->
<g id="node7" class="node"><title>Node218</title>
<g id="a_node7"><a xlink:href="../../d8/d11/class_ro_r_1_1_g_u_i_manager.html#a4ab273bd0538649818c84b38e8a06100" target="_top" xlink:title="RoR::GUIManager::GetTheme">
<polygon fill="white" stroke="black" points="944,-19.5 944,-38.5 1090,-38.5 1090,-19.5 944,-19.5"/>
<text text-anchor="middle" x="1017" y="-26.5" font-family="Helvetica,sans-Serif" font-size="10.00">RoR::GUIManager::GetTheme</text>
</a>
</g>
</g>
<!-- Node217&#45;&gt;Node218 -->
<g id="edge6" class="edge"><title>Node217&#45;&gt;Node218</title>
<path fill="none" stroke="midnightblue" d="M918.125,-29C926.707,-29 935.349,-29 943.754,-29"/>
<polygon fill="midnightblue" stroke="midnightblue" points="918.094,-25.5001 908.094,-29 918.094,-32.5001 918.094,-25.5001"/>
</g>
<!-- Node219 -->
<g id="node8" class="node"><title>Node219</title>
<g id="a_node8"><a xlink:href="../../d4/d8f/class_ro_r_1_1_g_u_i_1_1_multiplayer_selector.html#a8c98e9ba03c8afb1d1a26ec06192862e" target="_top" xlink:title="RoR::GUI::MultiplayerSelector\l::~MultiplayerSelector">
<polygon fill="white" stroke="black" points="1126,-14 1126,-44 1273,-44 1273,-14 1126,-14"/>
<text text-anchor="start" x="1134" y="-32" font-family="Helvetica,sans-Serif" font-size="10.00">RoR::GUI::MultiplayerSelector</text>
<text text-anchor="middle" x="1199.5" y="-21" font-family="Helvetica,sans-Serif" font-size="10.00">::~MultiplayerSelector</text>
</a>
</g>
</g>
<!-- Node218&#45;&gt;Node219 -->
<g id="edge7" class="edge"><title>Node218&#45;&gt;Node219</title>
<path fill="none" stroke="midnightblue" d="M1100.14,-29C1108.74,-29 1117.43,-29 1125.91,-29"/>
<polygon fill="midnightblue" stroke="midnightblue" points="1100.12,-25.5001 1090.12,-29 1100.12,-32.5001 1100.12,-25.5001"/>
</g>
<!-- Node221 -->
<g id="node10" class="node"><title>Node221</title>
<g id="a_node10"><a xlink:href="../../db/df1/class_g_u_i_input_manager.html#a5f096906671c8b2fc404353cb0cc3cf4" target="_top" xlink:title="GUIInputManager::mouseReleased">
<polygon fill="white" stroke="black" points="382,-0.5 382,-19.5 549,-19.5 549,-0.5 382,-0.5"/>
<text text-anchor="middle" x="465.5" y="-7.5" font-family="Helvetica,sans-Serif" font-size="10.00">GUIInputManager::mouseReleased</text>
</a>
</g>
</g>
<!-- Node220&#45;&gt;Node221 -->
<g id="edge9" class="edge"><title>Node220&#45;&gt;Node221</title>
<path fill="none" stroke="midnightblue" d="M356.136,-10C364.691,-10 373.303,-10 381.732,-10"/>
<polygon fill="midnightblue" stroke="midnightblue" points="356.134,-6.5001 346.134,-10 356.134,-13.5001 356.134,-6.5001"/>
</g>
<!-- Node221&#45;&gt;Node216 -->
<g id="edge10" class="edge"><title>Node221&#45;&gt;Node216</title>
<path fill="none" stroke="midnightblue" d="M559.341,-19.6656C567.982,-20.5653 576.605,-21.463 584.898,-22.3264"/>
<polygon fill="midnightblue" stroke="midnightblue" points="559.515,-16.1649 549.206,-18.6105 558.79,-23.1273 559.515,-16.1649"/>
</g>
</g>
</svg>
