<?xml version="1.0" encoding="UTF-8" standalone="no"?>
<!DOCTYPE svg PUBLIC "-//W3C//DTD SVG 1.1//EN"
 "http://www.w3.org/Graphics/SVG/1.1/DTD/svg11.dtd">
<!-- Generated by graphviz version 2.38.0 (20140413.2041)
 -->
<!-- Title: RoR::SceneMouse::mouseReleased Pages: 1 -->
<svg width="1109pt" height="39pt"
 viewBox="0.00 0.00 1109.00 39.00" xmlns="http://www.w3.org/2000/svg" xmlns:xlink="http://www.w3.org/1999/xlink">
<g id="graph0" class="graph" transform="scale(1 1) rotate(0) translate(4 35)">
<title>RoR::SceneMouse::mouseReleased</title>
<polygon fill="white" stroke="none" points="-4,4 -4,-35 1105,-35 1105,4 -4,4"/>
<!-- Node204 -->
<g id="node1" class="node"><title>Node204</title>
<polygon fill="#bfbfbf" stroke="black" points="0,-6 0,-25 174,-25 174,-6 0,-6"/>
<text text-anchor="middle" x="87" y="-13" font-family="Helvetica,sans-Serif" font-size="10.00">RoR::SceneMouse::mouseReleased</text>
</g>
<!-- Node205 -->
<g id="node2" class="node"><title>Node205</title>
<g id="a_node2"><a xlink:href="../../db/df1/class_g_u_i_input_manager.html#a5f096906671c8b2fc404353cb0cc3cf4" target="_top" xlink:title="GUIInputManager::mouseReleased">
<polygon fill="white" stroke="black" points="210,-6 210,-25 377,-25 377,-6 210,-6"/>
<text text-anchor="middle" x="293.5" y="-13" font-family="Helvetica,sans-Serif" font-size="10.00">GUIInputManager::mouseReleased</text>
</a>
</g>
</g>
<!-- Node204&#45;&gt;Node205 -->
<g id="edge1" class="edge"><title>Node204&#45;&gt;Node205</title>
<path fill="none" stroke="midnightblue" d="M184.136,-15.5C192.691,-15.5 201.303,-15.5 209.732,-15.5"/>
<polygon fill="midnightblue" stroke="midnightblue" points="184.134,-12.0001 174.134,-15.5 184.134,-19.0001 184.134,-12.0001"/>
</g>
<!-- Node206 -->
<g id="node3" class="node"><title>Node206</title>
<g id="a_node3"><a xlink:href="../../db/df1/class_g_u_i_input_manager.html#ab59361b8e1a9e31e53b5e5523f2b4801" target="_top" xlink:title="GUIInputManager::getLast\lMouseMoveTime">
<polygon fill="white" stroke="black" points="413,-0.5 413,-30.5 543,-30.5 543,-0.5 413,-0.5"/>
<text text-anchor="start" x="421" y="-18.5" font-family="Helvetica,sans-Serif" font-size="10.00">GUIInputManager::getLast</text>
<text text-anchor="middle" x="478" y="-7.5" font-family="Helvetica,sans-Serif" font-size="10.00">MouseMoveTime</text>
</a>
</g>
</g>
<!-- Node205&#45;&gt;Node206 -->
<g id="edge2" class="edge"><title>Node205&#45;&gt;Node206</title>
<path fill="none" stroke="midnightblue" d="M387.341,-15.5C395.982,-15.5 404.605,-15.5 412.898,-15.5"/>
<polygon fill="midnightblue" stroke="midnightblue" points="387.206,-12.0001 377.206,-15.5 387.206,-19.0001 387.206,-12.0001"/>
</g>
<!-- Node207 -->
<g id="node4" class="node"><title>Node207</title>
<g id="a_node4"><a xlink:href="../../d8/d11/class_ro_r_1_1_g_u_i_manager.html#aae1570a62049085aa74ce274ac9a70ad" target="_top" xlink:title="RoR::GUIManager::frameStarted">
<polygon fill="white" stroke="black" points="579,-6 579,-25 736,-25 736,-6 579,-6"/>
<text text-anchor="middle" x="657.5" y="-13" font-family="Helvetica,sans-Serif" font-size="10.00">RoR::GUIManager::frameStarted</text>
</a>
</g>
</g>
<!-- Node206&#45;&gt;Node207 -->
<g id="edge3" class="edge"><title>Node206&#45;&gt;Node207</title>
<path fill="none" stroke="midnightblue" d="M553.289,-15.5C561.748,-15.5 570.387,-15.5 578.888,-15.5"/>
<polygon fill="midnightblue" stroke="midnightblue" points="553.082,-12.0001 543.082,-15.5 553.082,-19.0001 553.082,-12.0001"/>
</g>
<!-- Node208 -->
<g id="node5" class="node"><title>Node208</title>
<g id="a_node5"><a xlink:href="../../d8/d11/class_ro_r_1_1_g_u_i_manager.html#a4ab273bd0538649818c84b38e8a06100" target="_top" xlink:title="RoR::GUIManager::GetTheme">
<polygon fill="white" stroke="black" points="772,-6 772,-25 918,-25 918,-6 772,-6"/>
<text text-anchor="middle" x="845" y="-13" font-family="Helvetica,sans-Serif" font-size="10.00">RoR::GUIManager::GetTheme</text>
</a>
</g>
</g>
<!-- Node207&#45;&gt;Node208 -->
<g id="edge4" class="edge"><title>Node207&#45;&gt;Node208</title>
<path fill="none" stroke="midnightblue" d="M746.125,-15.5C754.707,-15.5 763.349,-15.5 771.754,-15.5"/>
<polygon fill="midnightblue" stroke="midnightblue" points="746.094,-12.0001 736.094,-15.5 746.094,-19.0001 746.094,-12.0001"/>
</g>
<!-- Node209 -->
<g id="node6" class="node"><title>Node209</title>
<g id="a_node6"><a xlink:href="../../d4/d8f/class_ro_r_1_1_g_u_i_1_1_multiplayer_selector.html#a8c98e9ba03c8afb1d1a26ec06192862e" target="_top" xlink:title="RoR::GUI::MultiplayerSelector\l::~MultiplayerSelector">
<polygon fill="white" stroke="black" points="954,-0.5 954,-30.5 1101,-30.5 1101,-0.5 954,-0.5"/>
<text text-anchor="start" x="962" y="-18.5" font-family="Helvetica,sans-Serif" font-size="10.00">RoR::GUI::MultiplayerSelector</text>
<text text-anchor="middle" x="1027.5" y="-7.5" font-family="Helvetica,sans-Serif" font-size="10.00">::~MultiplayerSelector</text>
</a>
</g>
</g>
<!-- Node208&#45;&gt;Node209 -->
<g id="edge5" class="edge"><title>Node208&#45;&gt;Node209</title>
<path fill="none" stroke="midnightblue" d="M928.142,-15.5C936.737,-15.5 945.431,-15.5 953.909,-15.5"/>
<polygon fill="midnightblue" stroke="midnightblue" points="928.117,-12.0001 918.117,-15.5 928.117,-19.0001 928.117,-12.0001"/>
</g>
</g>
</svg>
