<?xml version="1.0" encoding="UTF-8" standalone="no"?>
<!DOCTYPE svg PUBLIC "-//W3C//DTD SVG 1.1//EN"
 "http://www.w3.org/Graphics/SVG/1.1/DTD/svg11.dtd">
<!-- Generated by graphviz version 2.38.0 (20140413.2041)
 -->
<!-- Title: Hydrax::Noise::Noise::removeGPUNormalMapResources Pages: 1 -->
<!--zoomable 572 -->
<svg id="main" version="1.1" xmlns="http://www.w3.org/2000/svg" xmlns:xlink="http://www.w3.org/1999/xlink" xml:space="preserve" onload="init(evt)">
<style type="text/css"><![CDATA[
.edge:hover path { stroke: red; }
.edge:hover polygon { stroke: red; fill: red; }
]]></style>
<script type="text/javascript"><![CDATA[
var edges = document.getElementsByTagName('g');
if (edges && edges.length) {
  for (var i=0;i<edges.length;i++) {
    if (edges[i].id.substr(0,4)=='edge') {
      edges[i].setAttribute('class','edge');
    }
  }
}
]]></script>
        <defs>
                <circle id="rim" cx="0" cy="0" r="7"/>
                <circle id="rim2" cx="0" cy="0" r="3.5"/>
                <g id="zoomPlus">
                        <use xlink:href="#rim" fill="#404040">
                                <set attributeName="fill" to="#808080" begin="zoomplus.mouseover" end="zoomplus.mouseout"/>
                        </use>
                        <path d="M-4,0h8M0,-4v8" fill="none" stroke="white" stroke-width="1.5" pointer-events="none"/>
                </g>
                <g id="zoomMin">
                        <use xlink:href="#rim" fill="#404040">
                                <set attributeName="fill" to="#808080" begin="zoomminus.mouseover" end="zoomminus.mouseout"/>
                        </use>
                        <path d="M-4,0h8" fill="none" stroke="white" stroke-width="1.5" pointer-events="none"/>
                </g>
                <g id="dirArrow">
                        <path fill="none" stroke="white" stroke-width="1.5" d="M0,-3.0v7 M-2.5,-0.5L0,-3.0L2.5,-0.5"/>
                </g>
               <g id="resetDef">
                       <use xlink:href="#rim2" fill="#404040">
                               <set attributeName="fill" to="#808080" begin="reset.mouseover" end="reset.mouseout"/>
                       </use>
               </g>
        </defs>

<script type="text/javascript">
var viewWidth = 1071;
var viewHeight = 572;
var sectionId = 'dynsection-13';
</script>
<script xlink:href="../../svgpan.js"/>
<svg id="graph" class="graph">
<g id="viewport">
<title>Hydrax::Noise::Noise::removeGPUNormalMapResources</title>
<polygon fill="white" stroke="none" points="-4,4 -4,-568.163 1067,-568.163 1067,4 -4,4"/>
<!-- Node188 -->
<g id="node1" class="node"><title>Node188</title>
<polygon fill="#bfbfbf" stroke="black" points="0,-278.663 0,-308.663 170,-308.663 170,-278.663 0,-278.663"/>
<text text-anchor="start" x="8" y="-296.663" font-family="Helvetica,sans-Serif" font-size="10.00">Hydrax::Noise::Noise</text>
<text text-anchor="middle" x="85" y="-285.663" font-family="Helvetica,sans-Serif" font-size="10.00">::removeGPUNormalMapResources</text>
</g>
<!-- Node189 -->
<g id="node2" class="node"><title>Node189</title>
<g id="a_node2"><a xlink:href="../../de/d4c/class_hydrax_1_1_noise_1_1_f_f_t.html#a9567d90d8fae8dbd74d05d1e3b8281e4" target="_top" xlink:title="Hydrax::Noise::FFT\l::remove">
<polygon fill="white" stroke="black" points="239,-366.663 239,-396.663 340,-396.663 340,-366.663 239,-366.663"/>
<text text-anchor="start" x="247" y="-384.663" font-family="Helvetica,sans-Serif" font-size="10.00">Hydrax::Noise::FFT</text>
<text text-anchor="middle" x="289.5" y="-373.663" font-family="Helvetica,sans-Serif" font-size="10.00">::remove</text>
</a>
</g>
</g>
<!-- Node188&#45;&gt;Node189 -->
<g id="edge1" class="edge"><title>Node188&#45;&gt;Node189</title>
<path fill="none" stroke="midnightblue" d="M124.412,-313.459C147.739,-325.171 178.271,-339.955 206,-351.663 218.356,-356.879 231.965,-362.054 244.507,-366.6"/>
<polygon fill="midnightblue" stroke="midnightblue" points="125.711,-310.194 115.207,-308.809 122.554,-316.442 125.711,-310.194"/>
</g>
<!-- Node190 -->
<g id="node3" class="node"><title>Node190</title>
<g id="a_node3"><a xlink:href="../../d9/d88/class_hydrax_1_1_module_1_1_module.html#af591ded25b7cbba848ec2853402fa91e" target="_top" xlink:title="Hydrax::Module::Module\l::setNoise">
<polygon fill="white" stroke="black" points="431.5,-425.663 431.5,-455.663 553.5,-455.663 553.5,-425.663 431.5,-425.663"/>
<text text-anchor="start" x="439.5" y="-443.663" font-family="Helvetica,sans-Serif" font-size="10.00">Hydrax::Module::Module</text>
<text text-anchor="middle" x="492.5" y="-432.663" font-family="Helvetica,sans-Serif" font-size="10.00">::setNoise</text>
</a>
</g>
</g>
<!-- Node188&#45;&gt;Node190 -->
<g id="edge2" class="edge"><title>Node188&#45;&gt;Node190</title>
<path fill="none" stroke="midnightblue" d="M170.528,-310.832C252.135,-327.666 364.602,-351.653 373,-357.663 397.98,-375.54 384.602,-397.999 409,-416.663 415.635,-421.738 423.314,-425.741 431.265,-428.899"/>
<polygon fill="midnightblue" stroke="midnightblue" points="170.737,-307.302 160.237,-308.714 169.326,-314.158 170.737,-307.302"/>
</g>
<!-- Node191 -->
<g id="node4" class="node"><title>Node191</title>
<g id="a_node4"><a xlink:href="../../da/d26/class_hydrax_1_1_noise_1_1_noise.html#a59f0e03e88a5de69065838adc35ff2d8" target="_top" xlink:title="Hydrax::Noise::Noise\l::createGPUNormalMapResources">
<polygon fill="white" stroke="black" points="206,-278.663 206,-308.663 373,-308.663 373,-278.663 206,-278.663"/>
<text text-anchor="start" x="214" y="-296.663" font-family="Helvetica,sans-Serif" font-size="10.00">Hydrax::Noise::Noise</text>
<text text-anchor="middle" x="289.5" y="-285.663" font-family="Helvetica,sans-Serif" font-size="10.00">::createGPUNormalMapResources</text>
</a>
</g>
</g>
<!-- Node188&#45;&gt;Node191 -->
<g id="edge3" class="edge"><title>Node188&#45;&gt;Node191</title>
<path fill="none" stroke="midnightblue" d="M180.174,-293.663C188.779,-293.663 197.453,-293.663 205.945,-293.663"/>
<polygon fill="midnightblue" stroke="midnightblue" points="180.119,-290.163 170.119,-293.663 180.119,-297.163 180.119,-290.163"/>
</g>
<!-- Node210 -->
<g id="node23" class="node"><title>Node210</title>
<g id="a_node23"><a xlink:href="../../db/d29/class_hydrax_1_1_noise_1_1_perlin.html#a666010a5142bbb2b03c97aa5aa7bdef1" target="_top" xlink:title="Hydrax::Noise::Perlin\l::remove">
<polygon fill="white" stroke="black" points="235,-216.663 235,-246.663 344,-246.663 344,-216.663 235,-216.663"/>
<text text-anchor="start" x="243" y="-234.663" font-family="Helvetica,sans-Serif" font-size="10.00">Hydrax::Noise::Perlin</text>
<text text-anchor="middle" x="289.5" y="-223.663" font-family="Helvetica,sans-Serif" font-size="10.00">::remove</text>
</a>
</g>
</g>
<!-- Node188&#45;&gt;Node210 -->
<g id="edge28" class="edge"><title>Node188&#45;&gt;Node210</title>
<path fill="none" stroke="midnightblue" d="M144.919,-275.623C174.846,-266.46 210.792,-255.455 239.23,-246.748"/>
<polygon fill="midnightblue" stroke="midnightblue" points="143.557,-272.38 135.02,-278.654 145.606,-279.073 143.557,-272.38"/>
</g>
<!-- Node211 -->
<g id="node24" class="node"><title>Node211</title>
<g id="a_node24"><a xlink:href="../../de/d5e/class_hydrax_1_1_noise_1_1_real.html#a2d87dc48e9afca9c4f220ae2ef57aed0" target="_top" xlink:title="Hydrax::Noise::Real\l::remove">
<polygon fill="white" stroke="black" points="440.5,-69.6626 440.5,-99.6626 544.5,-99.6626 544.5,-69.6626 440.5,-69.6626"/>
<text text-anchor="start" x="448.5" y="-87.6626" font-family="Helvetica,sans-Serif" font-size="10.00">Hydrax::Noise::Real</text>
<text text-anchor="middle" x="492.5" y="-76.6626" font-family="Helvetica,sans-Serif" font-size="10.00">::remove</text>
</a>
</g>
</g>
<!-- Node188&#45;&gt;Node211 -->
<g id="edge30" class="edge"><title>Node188&#45;&gt;Node211</title>
<path fill="none" stroke="midnightblue" d="M112.976,-271.968C136.695,-253.423 172.554,-226.645 206,-206.663 292.005,-155.28 315.465,-144.557 409,-108.663 419.027,-104.815 429.94,-101.233 440.447,-98.0716"/>
<polygon fill="midnightblue" stroke="midnightblue" points="110.502,-269.462 104.814,-278.4 114.835,-274.96 110.502,-269.462"/>
</g>
<!-- Node191&#45;&gt;Node190 -->
<g id="edge10" class="edge"><title>Node191&#45;&gt;Node190</title>
<path fill="none" stroke="midnightblue" d="M360.381,-313.853C364.944,-316.707 369.219,-319.958 373,-323.663 404.661,-354.679 376.338,-386.702 409,-416.663 415.376,-422.511 423.097,-426.941 431.227,-430.296"/>
<polygon fill="midnightblue" stroke="midnightblue" points="361.748,-310.61 351.302,-308.843 358.366,-316.739 361.748,-310.61"/>
</g>
<!-- Node192 -->
<g id="node5" class="node"><title>Node192</title>
<g id="a_node5"><a xlink:href="../../de/d4c/class_hydrax_1_1_noise_1_1_f_f_t.html#aa8e2b9d2b8307c07be2d2cd9cf115560" target="_top" xlink:title="Hydrax::Noise::FFT\l::createGPUNormalMapResources">
<polygon fill="white" stroke="black" points="409,-376.663 409,-406.663 576,-406.663 576,-376.663 409,-376.663"/>
<text text-anchor="start" x="417" y="-394.663" font-family="Helvetica,sans-Serif" font-size="10.00">Hydrax::Noise::FFT</text>
<text text-anchor="middle" x="492.5" y="-383.663" font-family="Helvetica,sans-Serif" font-size="10.00">::createGPUNormalMapResources</text>
</a>
</g>
</g>
<!-- Node191&#45;&gt;Node192 -->
<g id="edge4" class="edge"><title>Node191&#45;&gt;Node192</title>
<path fill="none" stroke="midnightblue" d="M354.555,-312.981C361.041,-316.088 367.321,-319.634 373,-323.663 393.609,-338.28 387.922,-353.73 409,-367.663 414.226,-371.117 419.958,-374.085 425.89,-376.631"/>
<polygon fill="midnightblue" stroke="midnightblue" points="355.514,-309.578 344.953,-308.737 352.684,-315.981 355.514,-309.578"/>
</g>
<!-- Node196 -->
<g id="node9" class="node"><title>Node196</title>
<g id="a_node9"><a xlink:href="../../db/d29/class_hydrax_1_1_noise_1_1_perlin.html#adb347b98692bd7ce6ad7ce76c605d15a" target="_top" xlink:title="Hydrax::Noise::Perlin\l::createGPUNormalMapResources">
<polygon fill="white" stroke="black" points="409,-327.663 409,-357.663 576,-357.663 576,-327.663 409,-327.663"/>
<text text-anchor="start" x="417" y="-345.663" font-family="Helvetica,sans-Serif" font-size="10.00">Hydrax::Noise::Perlin</text>
<text text-anchor="middle" x="492.5" y="-334.663" font-family="Helvetica,sans-Serif" font-size="10.00">::createGPUNormalMapResources</text>
</a>
</g>
</g>
<!-- Node191&#45;&gt;Node196 -->
<g id="edge11" class="edge"><title>Node191&#45;&gt;Node196</title>
<path fill="none" stroke="midnightblue" d="M361.891,-311.066C384.126,-316.487 408.442,-322.415 429.944,-327.656"/>
<polygon fill="midnightblue" stroke="midnightblue" points="362.717,-307.665 352.173,-308.697 361.059,-314.466 362.717,-307.665"/>
</g>
<!-- Node198 -->
<g id="node11" class="node"><title>Node198</title>
<g id="a_node11"><a xlink:href="../../de/dda/class_hydrax_1_1_module_1_1_projected_grid.html#a04d04b9cfc173538038a5f51094c1ffa" target="_top" xlink:title="Hydrax::Module::Projected\lGrid::setOptions">
<polygon fill="white" stroke="black" points="426.5,-278.663 426.5,-308.663 558.5,-308.663 558.5,-278.663 426.5,-278.663"/>
<text text-anchor="start" x="434.5" y="-296.663" font-family="Helvetica,sans-Serif" font-size="10.00">Hydrax::Module::Projected</text>
<text text-anchor="middle" x="492.5" y="-285.663" font-family="Helvetica,sans-Serif" font-size="10.00">Grid::setOptions</text>
</a>
</g>
</g>
<!-- Node191&#45;&gt;Node198 -->
<g id="edge13" class="edge"><title>Node191&#45;&gt;Node198</title>
<path fill="none" stroke="midnightblue" d="M383.179,-293.663C397.775,-293.663 412.593,-293.663 426.391,-293.663"/>
<polygon fill="midnightblue" stroke="midnightblue" points="383.125,-290.163 373.125,-293.663 383.124,-297.163 383.125,-290.163"/>
</g>
<!-- Node202 -->
<g id="node15" class="node"><title>Node202</title>
<g id="a_node15"><a xlink:href="../../db/d22/class_hydrax_1_1_module_1_1_radial_grid.html#acfc2ae157df9b6159302a90561ffc038" target="_top" xlink:title="Hydrax::Module::RadialGrid\l::setOptions">
<polygon fill="white" stroke="black" points="424.5,-208.663 424.5,-238.663 560.5,-238.663 560.5,-208.663 424.5,-208.663"/>
<text text-anchor="start" x="432.5" y="-226.663" font-family="Helvetica,sans-Serif" font-size="10.00">Hydrax::Module::RadialGrid</text>
<text text-anchor="middle" x="492.5" y="-215.663" font-family="Helvetica,sans-Serif" font-size="10.00">::setOptions</text>
</a>
</g>
</g>
<!-- Node191&#45;&gt;Node202 -->
<g id="edge18" class="edge"><title>Node191&#45;&gt;Node202</title>
<path fill="none" stroke="midnightblue" d="M343.447,-275.223C376.083,-263.858 417.412,-249.464 448.105,-238.775"/>
<polygon fill="midnightblue" stroke="midnightblue" points="341.912,-272.052 333.62,-278.646 344.214,-278.662 341.912,-272.052"/>
</g>
<!-- Node206 -->
<g id="node19" class="node"><title>Node206</title>
<g id="a_node19"><a xlink:href="../../d6/dec/class_hydrax_1_1_module_1_1_simple_grid.html#a6b83cb95b2803b068a53bf76afaa9ac4" target="_top" xlink:title="Hydrax::Module::SimpleGrid\l::setOptions">
<polygon fill="white" stroke="black" points="423,-118.663 423,-148.663 562,-148.663 562,-118.663 423,-118.663"/>
<text text-anchor="start" x="431" y="-136.663" font-family="Helvetica,sans-Serif" font-size="10.00">Hydrax::Module::SimpleGrid</text>
<text text-anchor="middle" x="492.5" y="-125.663" font-family="Helvetica,sans-Serif" font-size="10.00">::setOptions</text>
</a>
</g>
</g>
<!-- Node191&#45;&gt;Node206 -->
<g id="edge23" class="edge"><title>Node191&#45;&gt;Node206</title>
<path fill="none" stroke="midnightblue" d="M344.532,-274.249C354.644,-269.152 364.646,-262.983 373,-255.663 395.535,-235.915 388.943,-220.922 409,-198.663 426.577,-179.156 450.483,-161.028 468.037,-148.9"/>
<polygon fill="midnightblue" stroke="midnightblue" points="342.806,-271.193 335.26,-278.63 345.796,-277.522 342.806,-271.193"/>
</g>
<!-- Node193 -->
<g id="node6" class="node"><title>Node193</title>
<g id="a_node6"><a xlink:href="../../de/d4c/class_hydrax_1_1_noise_1_1_f_f_t.html#a1d7ec06eb11cda608cc8f73256c35be5" target="_top" xlink:title="Hydrax::Noise::FFT\l::setOptions">
<polygon fill="white" stroke="black" points="631,-495.663 631,-525.663 732,-525.663 732,-495.663 631,-495.663"/>
<text text-anchor="start" x="639" y="-513.663" font-family="Helvetica,sans-Serif" font-size="10.00">Hydrax::Noise::FFT</text>
<text text-anchor="middle" x="681.5" y="-502.663" font-family="Helvetica,sans-Serif" font-size="10.00">::setOptions</text>
</a>
</g>
</g>
<!-- Node192&#45;&gt;Node193 -->
<g id="edge5" class="edge"><title>Node192&#45;&gt;Node193</title>
<path fill="none" stroke="midnightblue" d="M569.41,-411.952C571.701,-413.415 573.906,-414.982 576,-416.663 601.452,-437.09 587.803,-458.763 612,-480.663 618.642,-486.674 626.68,-491.624 634.878,-495.649"/>
<polygon fill="midnightblue" stroke="midnightblue" points="570.642,-408.632 560.203,-406.817 567.232,-414.745 570.642,-408.632"/>
</g>
<!-- Node195 -->
<g id="node8" class="node"><title>Node195</title>
<g id="a_node8"><a xlink:href="../../d3/db5/struct_hydrax_1_1_noise_1_1_f_f_t_1_1_options.html#adfe9c5cc180b233f7ef6ba50fec06563" target="_top" xlink:title="Hydrax::Noise::FFT\l::Options::Options">
<polygon fill="white" stroke="black" points="962,-489.663 962,-519.663 1063,-519.663 1063,-489.663 962,-489.663"/>
<text text-anchor="start" x="970" y="-507.663" font-family="Helvetica,sans-Serif" font-size="10.00">Hydrax::Noise::FFT</text>
<text text-anchor="middle" x="1012.5" y="-496.663" font-family="Helvetica,sans-Serif" font-size="10.00">::Options::Options</text>
</a>
</g>
</g>
<!-- Node192&#45;&gt;Node195 -->
<g id="edge9" class="edge"><title>Node192&#45;&gt;Node195</title>
<path fill="none" stroke="midnightblue" d="M563.042,-410.387C567.514,-412.306 571.873,-414.394 576,-416.663 594.504,-426.833 592.775,-438.931 612,-447.663 673.477,-475.584 868.856,-493.773 961.648,-501.057"/>
<polygon fill="midnightblue" stroke="midnightblue" points="564.328,-407.132 553.743,-406.684 561.739,-413.635 564.328,-407.132"/>
</g>
<!-- Node194 -->
<g id="node7" class="node"><title>Node194</title>
<g id="a_node7"><a xlink:href="../../de/d4c/class_hydrax_1_1_noise_1_1_f_f_t.html#a64245b9e56eeb8627ac3f5260dc203dd" target="_top" xlink:title="Hydrax::Noise::FFT\l::loadCfg">
<polygon fill="white" stroke="black" points="806,-533.663 806,-563.663 907,-563.663 907,-533.663 806,-533.663"/>
<text text-anchor="start" x="814" y="-551.663" font-family="Helvetica,sans-Serif" font-size="10.00">Hydrax::Noise::FFT</text>
<text text-anchor="middle" x="856.5" y="-540.663" font-family="Helvetica,sans-Serif" font-size="10.00">::loadCfg</text>
</a>
</g>
</g>
<!-- Node193&#45;&gt;Node194 -->
<g id="edge6" class="edge"><title>Node193&#45;&gt;Node194</title>
<path fill="none" stroke="midnightblue" d="M742.081,-523.75C762.891,-528.321 786.01,-533.399 805.918,-537.772"/>
<polygon fill="midnightblue" stroke="midnightblue" points="742.593,-520.279 732.075,-521.552 741.091,-527.116 742.593,-520.279"/>
</g>
<!-- Node193&#45;&gt;Node195 -->
<g id="edge8" class="edge"><title>Node193&#45;&gt;Node195</title>
<path fill="none" stroke="midnightblue" d="M742.273,-509.573C805.142,-508.426 902.945,-506.642 961.755,-505.57"/>
<polygon fill="midnightblue" stroke="midnightblue" points="742.045,-506.076 732.111,-509.758 742.173,-513.075 742.045,-506.076"/>
</g>
<!-- Node194&#45;&gt;Node195 -->
<g id="edge7" class="edge"><title>Node194&#45;&gt;Node195</title>
<path fill="none" stroke="midnightblue" d="M916.692,-531.751C931.572,-527.499 947.39,-522.98 961.755,-518.876"/>
<polygon fill="midnightblue" stroke="midnightblue" points="915.728,-528.386 907.074,-534.499 917.651,-535.117 915.728,-528.386"/>
</g>
<!-- Node197 -->
<g id="node10" class="node"><title>Node197</title>
<g id="a_node10"><a xlink:href="../../d5/d28/struct_hydrax_1_1_noise_1_1_perlin_1_1_options.html#a25b331fdb0c7c67b12b865ff081af5e2" target="_top" xlink:title="Hydrax::Noise::Perlin\l::Options::Options">
<polygon fill="white" stroke="black" points="627,-407.663 627,-437.663 736,-437.663 736,-407.663 627,-407.663"/>
<text text-anchor="start" x="635" y="-425.663" font-family="Helvetica,sans-Serif" font-size="10.00">Hydrax::Noise::Perlin</text>
<text text-anchor="middle" x="681.5" y="-414.663" font-family="Helvetica,sans-Serif" font-size="10.00">::Options::Options</text>
</a>
</g>
</g>
<!-- Node196&#45;&gt;Node197 -->
<g id="edge12" class="edge"><title>Node196&#45;&gt;Node197</title>
<path fill="none" stroke="midnightblue" d="M563.042,-361.387C567.514,-363.306 571.873,-365.394 576,-367.663 594.504,-377.833 593.718,-388.099 612,-398.663 617.783,-402.004 624.107,-404.991 630.501,-407.626"/>
<polygon fill="midnightblue" stroke="midnightblue" points="564.328,-358.132 553.743,-357.684 561.739,-364.635 564.328,-358.132"/>
</g>
<!-- Node199 -->
<g id="node12" class="node"><title>Node199</title>
<g id="a_node12"><a xlink:href="../../de/dda/class_hydrax_1_1_module_1_1_projected_grid.html#aa9308990b99866cbd09edd3600972443" target="_top" xlink:title="Hydrax::Module::Projected\lGrid::ProjectedGrid">
<polygon fill="white" stroke="black" points="615.5,-358.663 615.5,-388.663 747.5,-388.663 747.5,-358.663 615.5,-358.663"/>
<text text-anchor="start" x="623.5" y="-376.663" font-family="Helvetica,sans-Serif" font-size="10.00">Hydrax::Module::Projected</text>
<text text-anchor="middle" x="681.5" y="-365.663" font-family="Helvetica,sans-Serif" font-size="10.00">Grid::ProjectedGrid</text>
</a>
</g>
</g>
<!-- Node198&#45;&gt;Node199 -->
<g id="edge14" class="edge"><title>Node198&#45;&gt;Node199</title>
<path fill="none" stroke="midnightblue" d="M565.259,-312.446C568.955,-314.059 572.558,-315.796 576,-317.663 594.56,-327.73 593.787,-337.981 612,-348.663 618.334,-352.377 625.314,-355.692 632.322,-358.597"/>
<polygon fill="midnightblue" stroke="midnightblue" points="566.505,-309.175 555.922,-308.687 563.891,-315.669 566.505,-309.175"/>
</g>
<!-- Node200 -->
<g id="node13" class="node"><title>Node200</title>
<g id="a_node13"><a xlink:href="../../de/dda/class_hydrax_1_1_module_1_1_projected_grid.html#af951c58cc93cf75d57e69aa14a668d3e" target="_top" xlink:title="Hydrax::Module::Projected\lGrid::loadCfg">
<polygon fill="white" stroke="black" points="615.5,-309.663 615.5,-339.663 747.5,-339.663 747.5,-309.663 615.5,-309.663"/>
<text text-anchor="start" x="623.5" y="-327.663" font-family="Helvetica,sans-Serif" font-size="10.00">Hydrax::Module::Projected</text>
<text text-anchor="middle" x="681.5" y="-316.663" font-family="Helvetica,sans-Serif" font-size="10.00">Grid::loadCfg</text>
</a>
</g>
</g>
<!-- Node198&#45;&gt;Node200 -->
<g id="edge15" class="edge"><title>Node198&#45;&gt;Node200</title>
<path fill="none" stroke="midnightblue" d="M568.665,-306.123C584.099,-308.682 600.227,-311.355 615.276,-313.85"/>
<polygon fill="midnightblue" stroke="midnightblue" points="569.079,-302.644 558.641,-304.461 567.934,-309.55 569.079,-302.644"/>
</g>
<!-- Node201 -->
<g id="node14" class="node"><title>Node201</title>
<g id="a_node14"><a xlink:href="../../d8/d61/struct_hydrax_1_1_module_1_1_projected_grid_1_1_options.html#a74bb8c6be631094b762eeace24422509" target="_top" xlink:title="Hydrax::Module::Projected\lGrid::Options::Options">
<polygon fill="white" stroke="black" points="790.5,-287.663 790.5,-317.663 922.5,-317.663 922.5,-287.663 790.5,-287.663"/>
<text text-anchor="start" x="798.5" y="-305.663" font-family="Helvetica,sans-Serif" font-size="10.00">Hydrax::Module::Projected</text>
<text text-anchor="middle" x="856.5" y="-294.663" font-family="Helvetica,sans-Serif" font-size="10.00">Grid::Options::Options</text>
</a>
</g>
</g>
<!-- Node198&#45;&gt;Node201 -->
<g id="edge17" class="edge"><title>Node198&#45;&gt;Node201</title>
<path fill="none" stroke="midnightblue" d="M568.608,-295.306C619.97,-296.456 689.605,-298.066 751,-299.663 763.701,-299.993 777.269,-300.367 790.281,-300.736"/>
<polygon fill="midnightblue" stroke="midnightblue" points="568.663,-291.806 558.587,-295.082 568.507,-298.804 568.663,-291.806"/>
</g>
<!-- Node200&#45;&gt;Node201 -->
<g id="edge16" class="edge"><title>Node200&#45;&gt;Node201</title>
<path fill="none" stroke="midnightblue" d="M758.098,-315.049C768.826,-313.685 779.782,-312.292 790.291,-310.955"/>
<polygon fill="midnightblue" stroke="midnightblue" points="757.382,-311.612 747.904,-316.345 758.266,-318.556 757.382,-311.612"/>
</g>
<!-- Node203 -->
<g id="node16" class="node"><title>Node203</title>
<g id="a_node16"><a xlink:href="../../db/d22/class_hydrax_1_1_module_1_1_radial_grid.html#abc52ff8727a537d5303fabc1179fa45f" target="_top" xlink:title="Hydrax::Module::RadialGrid\l::RadialGrid">
<polygon fill="white" stroke="black" points="613.5,-221.663 613.5,-251.663 749.5,-251.663 749.5,-221.663 613.5,-221.663"/>
<text text-anchor="start" x="621.5" y="-239.663" font-family="Helvetica,sans-Serif" font-size="10.00">Hydrax::Module::RadialGrid</text>
<text text-anchor="middle" x="681.5" y="-228.663" font-family="Helvetica,sans-Serif" font-size="10.00">::RadialGrid</text>
</a>
</g>
</g>
<!-- Node202&#45;&gt;Node203 -->
<g id="edge19" class="edge"><title>Node202&#45;&gt;Node203</title>
<path fill="none" stroke="midnightblue" d="M570.874,-229.042C584.929,-230.019 599.486,-231.031 613.221,-231.986"/>
<polygon fill="midnightblue" stroke="midnightblue" points="570.966,-225.54 560.747,-228.338 570.48,-232.523 570.966,-225.54"/>
</g>
<!-- Node204 -->
<g id="node17" class="node"><title>Node204</title>
<g id="a_node17"><a xlink:href="../../db/d22/class_hydrax_1_1_module_1_1_radial_grid.html#a31b3bab8e74f2f1e316a1800470ac685" target="_top" xlink:title="Hydrax::Module::RadialGrid\l::loadCfg">
<polygon fill="white" stroke="black" points="613.5,-172.663 613.5,-202.663 749.5,-202.663 749.5,-172.663 613.5,-172.663"/>
<text text-anchor="start" x="621.5" y="-190.663" font-family="Helvetica,sans-Serif" font-size="10.00">Hydrax::Module::RadialGrid</text>
<text text-anchor="middle" x="681.5" y="-179.663" font-family="Helvetica,sans-Serif" font-size="10.00">::loadCfg</text>
</a>
</g>
</g>
<!-- Node202&#45;&gt;Node204 -->
<g id="edge20" class="edge"><title>Node202&#45;&gt;Node204</title>
<path fill="none" stroke="midnightblue" d="M570.874,-208.767C584.929,-206.061 599.486,-203.259 613.221,-200.615"/>
<polygon fill="midnightblue" stroke="midnightblue" points="569.905,-205.389 560.747,-210.717 571.228,-212.263 569.905,-205.389"/>
</g>
<!-- Node205 -->
<g id="node18" class="node"><title>Node205</title>
<g id="a_node18"><a xlink:href="../../da/d9f/struct_hydrax_1_1_module_1_1_radial_grid_1_1_options.html#adfd6913bd2770eb6e96358ce7cea48a3" target="_top" xlink:title="Hydrax::Module::RadialGrid\l::Options::Options">
<polygon fill="white" stroke="black" points="788.5,-150.663 788.5,-180.663 924.5,-180.663 924.5,-150.663 788.5,-150.663"/>
<text text-anchor="start" x="796.5" y="-168.663" font-family="Helvetica,sans-Serif" font-size="10.00">Hydrax::Module::RadialGrid</text>
<text text-anchor="middle" x="856.5" y="-157.663" font-family="Helvetica,sans-Serif" font-size="10.00">::Options::Options</text>
</a>
</g>
</g>
<!-- Node202&#45;&gt;Node205 -->
<g id="edge22" class="edge"><title>Node202&#45;&gt;Node205</title>
<path fill="none" stroke="midnightblue" d="M523.578,-203.058C546.628,-188.578 579.839,-170.455 612,-162.663 670.346,-148.527 738.884,-150.996 788.356,-155.998"/>
<polygon fill="midnightblue" stroke="midnightblue" points="521.48,-200.246 514.962,-208.599 525.266,-206.134 521.48,-200.246"/>
</g>
<!-- Node204&#45;&gt;Node205 -->
<g id="edge21" class="edge"><title>Node204&#45;&gt;Node205</title>
<path fill="none" stroke="midnightblue" d="M760.036,-177.803C769.466,-176.603 779.04,-175.386 788.302,-174.208"/>
<polygon fill="midnightblue" stroke="midnightblue" points="759.36,-174.36 749.882,-179.094 760.243,-181.304 759.36,-174.36"/>
</g>
<!-- Node207 -->
<g id="node20" class="node"><title>Node207</title>
<g id="a_node20"><a xlink:href="../../d6/dec/class_hydrax_1_1_module_1_1_simple_grid.html#aae091cd103798dcc8f8b92af7dbfccef" target="_top" xlink:title="Hydrax::Module::SimpleGrid\l::SimpleGrid">
<polygon fill="white" stroke="black" points="612,-84.6626 612,-114.663 751,-114.663 751,-84.6626 612,-84.6626"/>
<text text-anchor="start" x="620" y="-102.663" font-family="Helvetica,sans-Serif" font-size="10.00">Hydrax::Module::SimpleGrid</text>
<text text-anchor="middle" x="681.5" y="-91.6626" font-family="Helvetica,sans-Serif" font-size="10.00">::SimpleGrid</text>
</a>
</g>
</g>
<!-- Node206&#45;&gt;Node207 -->
<g id="edge24" class="edge"><title>Node206&#45;&gt;Node207</title>
<path fill="none" stroke="midnightblue" d="M572.095,-119.373C585.333,-116.966 598.98,-114.484 611.938,-112.128"/>
<polygon fill="midnightblue" stroke="midnightblue" points="571.283,-115.963 562.07,-121.195 572.535,-122.85 571.283,-115.963"/>
</g>
<!-- Node208 -->
<g id="node21" class="node"><title>Node208</title>
<g id="a_node21"><a xlink:href="../../d6/dec/class_hydrax_1_1_module_1_1_simple_grid.html#a3741ec1a3df1863e730711fd9d3b14e1" target="_top" xlink:title="Hydrax::Module::SimpleGrid\l::loadCfg">
<polygon fill="white" stroke="black" points="612,-35.6626 612,-65.6626 751,-65.6626 751,-35.6626 612,-35.6626"/>
<text text-anchor="start" x="620" y="-53.6626" font-family="Helvetica,sans-Serif" font-size="10.00">Hydrax::Module::SimpleGrid</text>
<text text-anchor="middle" x="681.5" y="-42.6626" font-family="Helvetica,sans-Serif" font-size="10.00">::loadCfg</text>
</a>
</g>
</g>
<!-- Node206&#45;&gt;Node208 -->
<g id="edge25" class="edge"><title>Node206&#45;&gt;Node208</title>
<path fill="none" stroke="midnightblue" d="M564.339,-114.629C568.368,-112.802 572.286,-110.817 576,-108.663 595.038,-97.6218 593.202,-86.108 612,-74.6626 617.489,-71.3205 623.51,-68.3574 629.632,-65.7551"/>
<polygon fill="midnightblue" stroke="midnightblue" points="562.665,-111.534 554.78,-118.61 565.357,-117.996 562.665,-111.534"/>
</g>
<!-- Node209 -->
<g id="node22" class="node"><title>Node209</title>
<g id="a_node22"><a xlink:href="../../db/dc4/struct_hydrax_1_1_module_1_1_simple_grid_1_1_options.html#a92c116257b26710c6a1e6c456738da7d" target="_top" xlink:title="Hydrax::Module::SimpleGrid\l::Options::Options">
<polygon fill="white" stroke="black" points="787,-13.6626 787,-43.6626 926,-43.6626 926,-13.6626 787,-13.6626"/>
<text text-anchor="start" x="795" y="-31.6626" font-family="Helvetica,sans-Serif" font-size="10.00">Hydrax::Module::SimpleGrid</text>
<text text-anchor="middle" x="856.5" y="-20.6626" font-family="Helvetica,sans-Serif" font-size="10.00">::Options::Options</text>
</a>
</g>
</g>
<!-- Node206&#45;&gt;Node209 -->
<g id="edge27" class="edge"><title>Node206&#45;&gt;Node209</title>
<path fill="none" stroke="midnightblue" d="M570.417,-113.103C572.363,-111.718 574.23,-110.24 576,-108.663 606.019,-81.9115 578.383,-47.7244 612,-25.6626 670.85,12.9595 756.152,0.0736762 808.603,-13.657"/>
<polygon fill="midnightblue" stroke="midnightblue" points="568.146,-110.39 561.446,-118.597 571.802,-116.359 568.146,-110.39"/>
</g>
<!-- Node208&#45;&gt;Node209 -->
<g id="edge26" class="edge"><title>Node208&#45;&gt;Node209</title>
<path fill="none" stroke="midnightblue" d="M761.316,-40.6398C769.844,-39.5553 778.472,-38.4581 786.866,-37.3907"/>
<polygon fill="midnightblue" stroke="midnightblue" points="760.85,-37.1708 751.371,-41.9044 761.733,-44.1149 760.85,-37.1708"/>
</g>
<!-- Node210&#45;&gt;Node211 -->
<g id="edge29" class="edge"><title>Node210&#45;&gt;Node211</title>
<path fill="none" stroke="midnightblue" d="M327.751,-211.171C343.05,-201.501 360.15,-188.942 373,-174.663 395.351,-149.826 382.962,-129.602 409,-108.663 418.067,-101.371 429.268,-96.2951 440.46,-92.7611"/>
<polygon fill="midnightblue" stroke="midnightblue" points="325.705,-208.32 318.997,-216.521 329.355,-214.292 325.705,-208.32"/>
</g>
</g>
</svg>
        <g id="navigator" transform="translate(0 0)" fill="#404254">
                <rect fill="#f2f5e9" fill-opacity="0.5" stroke="#606060" stroke-width=".5" x="0" y="0" width="60" height="60"/>
                <use id="zoomplus" xlink:href="#zoomPlus" x="17" y="9" onmousedown="handleZoom(evt,'in')"/>
                <use id="zoomminus" xlink:href="#zoomMin" x="42" y="9" onmousedown="handleZoom(evt,'out')"/>
                <use id="reset" xlink:href="#resetDef" x="30" y="36" onmousedown="handleReset()"/>
                <g id="arrowUp" xlink:href="#dirArrow" transform="translate(30 24)" onmousedown="handlePan(0,-1)">
                  <use xlink:href="#rim" fill="#404040">
                        <set attributeName="fill" to="#808080" begin="arrowUp.mouseover" end="arrowUp.mouseout"/>
                  </use>
                  <path fill="none" stroke="white" stroke-width="1.5" d="M0,-3.0v7 M-2.5,-0.5L0,-3.0L2.5,-0.5"/>
                </g>
                <g id="arrowRight" xlink:href="#dirArrow" transform="rotate(90) translate(36 -43)" onmousedown="handlePan(1,0)">
                  <use xlink:href="#rim" fill="#404040">
                        <set attributeName="fill" to="#808080" begin="arrowRight.mouseover" end="arrowRight.mouseout"/>
                  </use>
                  <path fill="none" stroke="white" stroke-width="1.5" d="M0,-3.0v7 M-2.5,-0.5L0,-3.0L2.5,-0.5"/>
                </g>
                <g id="arrowDown" xlink:href="#dirArrow" transform="rotate(180) translate(-30 -48)" onmousedown="handlePan(0,1)">
                  <use xlink:href="#rim" fill="#404040">
                        <set attributeName="fill" to="#808080" begin="arrowDown.mouseover" end="arrowDown.mouseout"/>
                  </use>
                  <path fill="none" stroke="white" stroke-width="1.5" d="M0,-3.0v7 M-2.5,-0.5L0,-3.0L2.5,-0.5"/>
                </g>
                <g id="arrowLeft" xlink:href="#dirArrow" transform="rotate(270) translate(-36 17)" onmousedown="handlePan(-1,0)">
                  <use xlink:href="#rim" fill="#404040">
                        <set attributeName="fill" to="#808080" begin="arrowLeft.mouseover" end="arrowLeft.mouseout"/>
                  </use>
                  <path fill="none" stroke="white" stroke-width="1.5" d="M0,-3.0v7 M-2.5,-0.5L0,-3.0L2.5,-0.5"/>
                </g>
        </g>
        <svg viewBox="0 0 15 15" width="100%" height="30px" preserveAspectRatio="xMaxYMin meet">
         <g id="arrow_out" transform="scale(0.3 0.3)">
          <a xlink:href="class_hydrax_1_1_noise_1_1_noise_a9d3ca345d3f5b629e43ab276236d93b7_icgraph_org.svg" target="_base">
           <rect id="button" ry="5" rx="5" y="6" x="6" height="38" width="38"
                fill="#f2f5e9" fill-opacity="0.5" stroke="#606060" stroke-width="1.0"/>
           <path id="arrow"
             d="M 11.500037,31.436501 C 11.940474,20.09759 22.043105,11.32322 32.158766,21.979434 L 37.068811,17.246167 C 37.068811,17.246167 37.088388,32 37.088388,32 L 22.160133,31.978069 C 22.160133,31.978069 26.997745,27.140456 26.997745,27.140456 C 18.528582,18.264221 13.291696,25.230495 11.500037,31.436501 z"
             style="fill:#404040;"/>
          </a>
         </g>
        </svg>
</svg>
