<?xml version="1.0" encoding="UTF-8" standalone="no"?>
<!DOCTYPE svg PUBLIC "-//W3C//DTD SVG 1.1//EN"
 "http://www.w3.org/Graphics/SVG/1.1/DTD/svg11.dtd">
<!-- Generated by graphviz version 2.38.0 (20140413.2041)
 -->
<!-- Title: RoR::ConfigFile::getSetting Pages: 1 -->
<!--zoomable 113 -->
<svg id="main" version="1.1" xmlns="http://www.w3.org/2000/svg" xmlns:xlink="http://www.w3.org/1999/xlink" xml:space="preserve" onload="init(evt)">
<style type="text/css"><![CDATA[
.edge:hover path { stroke: red; }
.edge:hover polygon { stroke: red; fill: red; }
]]></style>
<script type="text/javascript"><![CDATA[
var edges = document.getElementsByTagName('g');
if (edges && edges.length) {
  for (var i=0;i<edges.length;i++) {
    if (edges[i].id.substr(0,4)=='edge') {
      edges[i].setAttribute('class','edge');
    }
  }
}
]]></script>
        <defs>
                <circle id="rim" cx="0" cy="0" r="7"/>
                <circle id="rim2" cx="0" cy="0" r="3.5"/>
                <g id="zoomPlus">
                        <use xlink:href="#rim" fill="#404040">
                                <set attributeName="fill" to="#808080" begin="zoomplus.mouseover" end="zoomplus.mouseout"/>
                        </use>
                        <path d="M-4,0h8M0,-4v8" fill="none" stroke="white" stroke-width="1.5" pointer-events="none"/>
                </g>
                <g id="zoomMin">
                        <use xlink:href="#rim" fill="#404040">
                                <set attributeName="fill" to="#808080" begin="zoomminus.mouseover" end="zoomminus.mouseout"/>
                        </use>
                        <path d="M-4,0h8" fill="none" stroke="white" stroke-width="1.5" pointer-events="none"/>
                </g>
                <g id="dirArrow">
                        <path fill="none" stroke="white" stroke-width="1.5" d="M0,-3.0v7 M-2.5,-0.5L0,-3.0L2.5,-0.5"/>
                </g>
               <g id="resetDef">
                       <use xlink:href="#rim2" fill="#404040">
                               <set attributeName="fill" to="#808080" begin="reset.mouseover" end="reset.mouseout"/>
                       </use>
               </g>
        </defs>

<script type="text/javascript">
var viewWidth = 1511;
var viewHeight = 113;
var sectionId = 'dynsection-7';
</script>
<script xlink:href="../../svgpan.js"/>
<svg id="graph" class="graph">
<g id="viewport">
<title>RoR::ConfigFile::getSetting</title>
<polygon fill="white" stroke="none" points="-4,4 -4,-109.392 1507,-109.392 1507,4 -4,4"/>
<!-- Node59 -->
<g id="node1" class="node"><title>Node59</title>
<polygon fill="#bfbfbf" stroke="black" points="0,-41.5 0,-60.5 134,-60.5 134,-41.5 0,-41.5"/>
<text text-anchor="middle" x="67" y="-48.5" font-family="Helvetica,sans-Serif" font-size="10.00">RoR::ConfigFile::getSetting</text>
</g>
<!-- Node60 -->
<g id="node2" class="node"><title>Node60</title>
<g id="a_node2"><a xlink:href="../../d5/d25/class_ro_r_1_1_config_file.html#a958d11a898703248fb908127888b85c0" target="_top" xlink:title="RoR::ConfigFile::GetString">
<polygon fill="white" stroke="black" points="170,-41.5 170,-60.5 301,-60.5 301,-41.5 170,-41.5"/>
<text text-anchor="middle" x="235.5" y="-48.5" font-family="Helvetica,sans-Serif" font-size="10.00">RoR::ConfigFile::GetString</text>
</a>
</g>
</g>
<!-- Node59&#45;&gt;Node60 -->
<g id="edge1" class="edge"><title>Node59&#45;&gt;Node60</title>
<path fill="none" stroke="midnightblue" d="M144.522,-51C152.973,-51 161.516,-51 169.802,-51"/>
<polygon fill="midnightblue" stroke="midnightblue" points="144.284,-47.5001 134.284,-51 144.284,-54.5001 144.284,-47.5001"/>
</g>
<!-- Node61 -->
<g id="node3" class="node"><title>Node61</title>
<g id="a_node3"><a xlink:href="../../d7/d35/class_cache_system.html#a51fe1554d751cdaeab716e7a4255bd8a" target="_top" xlink:title="Checks if update is needed. ">
<polygon fill="white" stroke="black" points="339.5,-63.5 339.5,-82.5 480.5,-82.5 480.5,-63.5 339.5,-63.5"/>
<text text-anchor="middle" x="410" y="-70.5" font-family="Helvetica,sans-Serif" font-size="10.00">CacheSystem::IsCacheValid</text>
</a>
</g>
</g>
<!-- Node60&#45;&gt;Node61 -->
<g id="edge2" class="edge"><title>Node60&#45;&gt;Node61</title>
<path fill="none" stroke="midnightblue" d="M311.241,-60.5322C320.558,-61.7204 330.058,-62.932 339.294,-64.11"/>
<polygon fill="midnightblue" stroke="midnightblue" points="311.586,-57.0479 301.223,-59.2546 310.7,-63.9917 311.586,-57.0479"/>
</g>
<!-- Node66 -->
<g id="node8" class="node"><title>Node66</title>
<g id="a_node8"><a xlink:href="../../d8/d18/class_ro_r_1_1_o_t_c_parser.html#aebcc8c907374cb8101b29050cdbab968" target="_top" xlink:title="RoR::OTCParser::LoadMaster\lConfig">
<polygon fill="white" stroke="black" points="337,-14 337,-44 483,-44 483,-14 337,-14"/>
<text text-anchor="start" x="345" y="-32" font-family="Helvetica,sans-Serif" font-size="10.00">RoR::OTCParser::LoadMaster</text>
<text text-anchor="middle" x="410" y="-21" font-family="Helvetica,sans-Serif" font-size="10.00">Config</text>
</a>
</g>
</g>
<!-- Node60&#45;&gt;Node66 -->
<g id="edge8" class="edge"><title>Node60&#45;&gt;Node66</title>
<path fill="none" stroke="midnightblue" d="M311.177,-41.476C319.734,-40.3847 328.445,-39.2736 336.967,-38.1868"/>
<polygon fill="midnightblue" stroke="midnightblue" points="310.7,-38.0083 301.223,-42.7454 311.586,-44.9521 310.7,-38.0083"/>
</g>
<!-- Node62 -->
<g id="node4" class="node"><title>Node62</title>
<g id="a_node4"><a xlink:href="../../d7/d35/class_cache_system.html#ae010322c2422bf8f8dbfce904257da31" target="_top" xlink:title="CacheSystem::Startup">
<polygon fill="white" stroke="black" points="873,-63.5 873,-82.5 989,-82.5 989,-63.5 873,-63.5"/>
<text text-anchor="middle" x="931" y="-70.5" font-family="Helvetica,sans-Serif" font-size="10.00">CacheSystem::Startup</text>
</a>
</g>
</g>
<!-- Node61&#45;&gt;Node62 -->
<g id="edge3" class="edge"><title>Node61&#45;&gt;Node62</title>
<path fill="none" stroke="midnightblue" d="M491.019,-73C596.722,-73 780.301,-73 872.981,-73"/>
<polygon fill="midnightblue" stroke="midnightblue" points="490.725,-69.5001 480.725,-73 490.725,-76.5001 490.725,-69.5001"/>
</g>
<!-- Node63 -->
<g id="node5" class="node"><title>Node63</title>
<g id="a_node5"><a xlink:href="../../df/d0a/main_8cpp.html#a0ddf1224851353fc92bfbff6f499fa97" target="_top" xlink:title="main">
<polygon fill="white" stroke="black" points="1324,-63.5 1324,-82.5 1362,-82.5 1362,-63.5 1324,-63.5"/>
<text text-anchor="middle" x="1343" y="-70.5" font-family="Helvetica,sans-Serif" font-size="10.00">main</text>
</a>
</g>
</g>
<!-- Node62&#45;&gt;Node63 -->
<g id="edge4" class="edge"><title>Node62&#45;&gt;Node63</title>
<path fill="none" stroke="midnightblue" d="M975.233,-84.9783C995.872,-90.0954 1021.03,-95.467 1044,-98 1129.7,-107.449 1152.38,-108.147 1238,-98 1268.61,-94.3724 1303.25,-84.9375 1323.83,-78.752"/>
<polygon fill="midnightblue" stroke="midnightblue" points="976.048,-81.5741 965.493,-82.5002 974.322,-88.3579 976.048,-81.5741"/>
</g>
<!-- Node65 -->
<g id="node7" class="node"><title>Node65</title>
<g id="a_node7"><a xlink:href="../../da/d05/class_ro_r_1_1_content_manager.html#a861b35694f428e463a800052ac0e9f90" target="_top" xlink:title="RoR::ContentManager\l::RegenCache">
<polygon fill="white" stroke="black" points="1084.5,-58 1084.5,-88 1197.5,-88 1197.5,-58 1084.5,-58"/>
<text text-anchor="start" x="1092.5" y="-76" font-family="Helvetica,sans-Serif" font-size="10.00">RoR::ContentManager</text>
<text text-anchor="middle" x="1141" y="-65" font-family="Helvetica,sans-Serif" font-size="10.00">::RegenCache</text>
</a>
</g>
</g>
<!-- Node62&#45;&gt;Node65 -->
<g id="edge6" class="edge"><title>Node62&#45;&gt;Node65</title>
<path fill="none" stroke="midnightblue" d="M999.437,-73C1026.92,-73 1058.32,-73 1084.45,-73"/>
<polygon fill="midnightblue" stroke="midnightblue" points="999.112,-69.5001 989.112,-73 999.112,-76.5001 999.112,-69.5001"/>
</g>
<!-- Node64 -->
<g id="node6" class="node"><title>Node64</title>
<g id="a_node6"><a xlink:href="../../df/d0a/main_8cpp.html#a2922bc5d5c2d77a3020cfbf9df12aab0" target="_top" xlink:title="WinMain">
<polygon fill="white" stroke="black" points="1448,-63.5 1448,-82.5 1503,-82.5 1503,-63.5 1448,-63.5"/>
<text text-anchor="middle" x="1475.5" y="-70.5" font-family="Helvetica,sans-Serif" font-size="10.00">WinMain</text>
</a>
</g>
</g>
<!-- Node63&#45;&gt;Node64 -->
<g id="edge5" class="edge"><title>Node63&#45;&gt;Node64</title>
<path fill="none" stroke="midnightblue" d="M1372.39,-73C1394.84,-73 1425.96,-73 1447.92,-73"/>
<polygon fill="midnightblue" stroke="midnightblue" points="1372.15,-69.5001 1362.15,-73 1372.15,-76.5001 1372.15,-69.5001"/>
</g>
<!-- Node65&#45;&gt;Node63 -->
<g id="edge7" class="edge"><title>Node65&#45;&gt;Node63</title>
<path fill="none" stroke="midnightblue" d="M1207.85,-73C1248.53,-73 1297.78,-73 1323.81,-73"/>
<polygon fill="midnightblue" stroke="midnightblue" points="1207.71,-69.5001 1197.71,-73 1207.71,-76.5001 1207.71,-69.5001"/>
</g>
<!-- Node67 -->
<g id="node9" class="node"><title>Node67</title>
<g id="a_node9"><a xlink:href="../../d2/d9a/class_terrain_geometry_manager.html#a1be850a57cfa62aca477b22c8aee0607" target="_top" xlink:title="TerrainGeometryManager\l::InitTerrain">
<polygon fill="white" stroke="black" points="519,-14 519,-44 645,-44 645,-14 519,-14"/>
<text text-anchor="start" x="527" y="-32" font-family="Helvetica,sans-Serif" font-size="10.00">TerrainGeometryManager</text>
<text text-anchor="middle" x="582" y="-21" font-family="Helvetica,sans-Serif" font-size="10.00">::InitTerrain</text>
</a>
</g>
</g>
<!-- Node66&#45;&gt;Node67 -->
<g id="edge9" class="edge"><title>Node66&#45;&gt;Node67</title>
<path fill="none" stroke="midnightblue" d="M493.158,-29C501.763,-29 510.407,-29 518.737,-29"/>
<polygon fill="midnightblue" stroke="midnightblue" points="493.095,-25.5001 483.095,-29 493.095,-32.5001 493.095,-25.5001"/>
</g>
<!-- Node68 -->
<g id="node10" class="node"><title>Node68</title>
<g id="a_node10"><a xlink:href="../../d3/d16/class_terrain_manager.html#a9a04c837bf2ea6528c465b27ca62f730" target="_top" xlink:title="TerrainManager::loadTerrain">
<polygon fill="white" stroke="black" points="681,-19.5 681,-38.5 818,-38.5 818,-19.5 681,-19.5"/>
<text text-anchor="middle" x="749.5" y="-26.5" font-family="Helvetica,sans-Serif" font-size="10.00">TerrainManager::loadTerrain</text>
</a>
</g>
</g>
<!-- Node67&#45;&gt;Node68 -->
<g id="edge10" class="edge"><title>Node67&#45;&gt;Node68</title>
<path fill="none" stroke="midnightblue" d="M655.32,-29C663.782,-29 672.391,-29 680.787,-29"/>
<polygon fill="midnightblue" stroke="midnightblue" points="655.097,-25.5001 645.097,-29 655.097,-32.5001 655.097,-25.5001"/>
</g>
<!-- Node69 -->
<g id="node11" class="node"><title>Node69</title>
<g id="a_node11"><a xlink:href="../../dd/dbe/class_ro_r_frame_listener.html#a9757c059e840019a3e2659d5ef63ea02" target="_top" xlink:title="Reads GVar &#39;sim_terrain_pending&#39;. ">
<polygon fill="white" stroke="black" points="854,-19.5 854,-38.5 1008,-38.5 1008,-19.5 854,-19.5"/>
<text text-anchor="middle" x="931" y="-26.5" font-family="Helvetica,sans-Serif" font-size="10.00">RoRFrameListener::LoadTerrain</text>
</a>
</g>
</g>
<!-- Node68&#45;&gt;Node69 -->
<g id="edge11" class="edge"><title>Node68&#45;&gt;Node69</title>
<path fill="none" stroke="midnightblue" d="M828.301,-29C836.734,-29 845.311,-29 853.726,-29"/>
<polygon fill="midnightblue" stroke="midnightblue" points="828.106,-25.5001 818.105,-29 828.105,-32.5001 828.106,-25.5001"/>
</g>
<!-- Node70 -->
<g id="node12" class="node"><title>Node70</title>
<g id="a_node12"><a xlink:href="../../dd/dbe/class_ro_r_frame_listener.html#aca3931d7a75f2ad4b9d36c4fcd03a3c9" target="_top" xlink:title="RoRFrameListener::SetupGameplayLoop">
<polygon fill="white" stroke="black" points="1044,-19.5 1044,-38.5 1238,-38.5 1238,-19.5 1044,-19.5"/>
<text text-anchor="middle" x="1141" y="-26.5" font-family="Helvetica,sans-Serif" font-size="10.00">RoRFrameListener::SetupGameplayLoop</text>
</a>
</g>
</g>
<!-- Node69&#45;&gt;Node70 -->
<g id="edge12" class="edge"><title>Node69&#45;&gt;Node70</title>
<path fill="none" stroke="midnightblue" d="M1018.43,-29C1026.84,-29 1035.41,-29 1043.91,-29"/>
<polygon fill="midnightblue" stroke="midnightblue" points="1018.27,-25.5001 1008.27,-29 1018.27,-32.5001 1018.27,-25.5001"/>
</g>
<!-- Node71 -->
<g id="node13" class="node"><title>Node71</title>
<g id="a_node13"><a xlink:href="../../dd/dbe/class_ro_r_frame_listener.html#ad598075b5f183208c0de43b9248bb44b" target="_top" xlink:title="RoRFrameListener::getTime">
<polygon fill="white" stroke="black" points="1274,-0.5 1274,-19.5 1412,-19.5 1412,-0.5 1274,-0.5"/>
<text text-anchor="middle" x="1343" y="-7.5" font-family="Helvetica,sans-Serif" font-size="10.00">RoRFrameListener::getTime</text>
</a>
</g>
</g>
<!-- Node69&#45;&gt;Node71 -->
<g id="edge15" class="edge"><title>Node69&#45;&gt;Node71</title>
<path fill="none" stroke="midnightblue" d="M987.559,-17.6792C1005.49,-14.5348 1025.51,-11.5569 1044,-10 1122.62,-3.3787 1213.32,-4.64606 1273.81,-6.75313"/>
<polygon fill="midnightblue" stroke="midnightblue" points="986.77,-14.265 977.552,-19.4877 988.015,-21.1534 986.77,-14.265"/>
</g>
<!-- Node70&#45;&gt;Node63 -->
<g id="edge14" class="edge"><title>Node70&#45;&gt;Node63</title>
<path fill="none" stroke="midnightblue" d="M1202.23,-40.533C1214.11,-42.9158 1226.46,-45.4722 1238,-48 1268.11,-54.5962 1302.9,-63.1498 1323.64,-68.3487"/>
<polygon fill="midnightblue" stroke="midnightblue" points="1202.89,-37.0954 1192.4,-38.5766 1201.53,-43.9609 1202.89,-37.0954"/>
</g>
<!-- Node70&#45;&gt;Node71 -->
<g id="edge13" class="edge"><title>Node70&#45;&gt;Node71</title>
<path fill="none" stroke="midnightblue" d="M1248.33,-18.899C1256.95,-18.08 1265.51,-17.2669 1273.74,-16.4843"/>
<polygon fill="midnightblue" stroke="midnightblue" points="1247.82,-15.4316 1238.19,-19.8617 1248.48,-22.4002 1247.82,-15.4316"/>
</g>
</g>
</svg>
        <g id="navigator" transform="translate(0 0)" fill="#404254">
                <rect fill="#f2f5e9" fill-opacity="0.5" stroke="#606060" stroke-width=".5" x="0" y="0" width="60" height="60"/>
                <use id="zoomplus" xlink:href="#zoomPlus" x="17" y="9" onmousedown="handleZoom(evt,'in')"/>
                <use id="zoomminus" xlink:href="#zoomMin" x="42" y="9" onmousedown="handleZoom(evt,'out')"/>
                <use id="reset" xlink:href="#resetDef" x="30" y="36" onmousedown="handleReset()"/>
                <g id="arrowUp" xlink:href="#dirArrow" transform="translate(30 24)" onmousedown="handlePan(0,-1)">
                  <use xlink:href="#rim" fill="#404040">
                        <set attributeName="fill" to="#808080" begin="arrowUp.mouseover" end="arrowUp.mouseout"/>
                  </use>
                  <path fill="none" stroke="white" stroke-width="1.5" d="M0,-3.0v7 M-2.5,-0.5L0,-3.0L2.5,-0.5"/>
                </g>
                <g id="arrowRight" xlink:href="#dirArrow" transform="rotate(90) translate(36 -43)" onmousedown="handlePan(1,0)">
                  <use xlink:href="#rim" fill="#404040">
                        <set attributeName="fill" to="#808080" begin="arrowRight.mouseover" end="arrowRight.mouseout"/>
                  </use>
                  <path fill="none" stroke="white" stroke-width="1.5" d="M0,-3.0v7 M-2.5,-0.5L0,-3.0L2.5,-0.5"/>
                </g>
                <g id="arrowDown" xlink:href="#dirArrow" transform="rotate(180) translate(-30 -48)" onmousedown="handlePan(0,1)">
                  <use xlink:href="#rim" fill="#404040">
                        <set attributeName="fill" to="#808080" begin="arrowDown.mouseover" end="arrowDown.mouseout"/>
                  </use>
                  <path fill="none" stroke="white" stroke-width="1.5" d="M0,-3.0v7 M-2.5,-0.5L0,-3.0L2.5,-0.5"/>
                </g>
                <g id="arrowLeft" xlink:href="#dirArrow" transform="rotate(270) translate(-36 17)" onmousedown="handlePan(-1,0)">
                  <use xlink:href="#rim" fill="#404040">
                        <set attributeName="fill" to="#808080" begin="arrowLeft.mouseover" end="arrowLeft.mouseout"/>
                  </use>
                  <path fill="none" stroke="white" stroke-width="1.5" d="M0,-3.0v7 M-2.5,-0.5L0,-3.0L2.5,-0.5"/>
                </g>
        </g>
        <svg viewBox="0 0 15 15" width="100%" height="30px" preserveAspectRatio="xMaxYMin meet">
         <g id="arrow_out" transform="scale(0.3 0.3)">
          <a xlink:href="class_ro_r_1_1_config_file_a1f1f8cf6afb0f048ef2dd9f08c65ba25_icgraph_org.svg" target="_base">
           <rect id="button" ry="5" rx="5" y="6" x="6" height="38" width="38"
                fill="#f2f5e9" fill-opacity="0.5" stroke="#606060" stroke-width="1.0"/>
           <path id="arrow"
             d="M 11.500037,31.436501 C 11.940474,20.09759 22.043105,11.32322 32.158766,21.979434 L 37.068811,17.246167 C 37.068811,17.246167 37.088388,32 37.088388,32 L 22.160133,31.978069 C 22.160133,31.978069 26.997745,27.140456 26.997745,27.140456 C 18.528582,18.264221 13.291696,25.230495 11.500037,31.436501 z"
             style="fill:#404040;"/>
          </a>
         </g>
        </svg>
</svg>
