<?xml version="1.0" encoding="UTF-8" standalone="no"?>
<!DOCTYPE svg PUBLIC "-//W3C//DTD SVG 1.1//EN"
 "http://www.w3.org/Graphics/SVG/1.1/DTD/svg11.dtd">
<!-- Generated by graphviz version 2.38.0 (20140413.2041)
 -->
<!-- Title: Beam::SetPropsCastShadows Pages: 1 -->
<svg width="1036pt" height="116pt"
 viewBox="0.00 0.00 1036.00 115.50" xmlns="http://www.w3.org/2000/svg" xmlns:xlink="http://www.w3.org/1999/xlink">
<g id="graph0" class="graph" transform="scale(1 1) rotate(0) translate(4 111.5)">
<title>Beam::SetPropsCastShadows</title>
<polygon fill="white" stroke="none" points="-4,4 -4,-111.5 1032,-111.5 1032,4 -4,4"/>
<!-- Node2842 -->
<g id="node1" class="node"><title>Node2842</title>
<polygon fill="#bfbfbf" stroke="black" points="0,-66 0,-85 149,-85 149,-66 0,-66"/>
<text text-anchor="middle" x="74.5" y="-73" font-family="Helvetica,sans-Serif" font-size="10.00">Beam::SetPropsCastShadows</text>
</g>
<!-- Node2843 -->
<g id="node2" class="node"><title>Node2843</title>
<g id="a_node2"><a xlink:href="../../df/df9/class_beam.html#a859ef85440d3f1a3d9d2b16a0b48d8c1" target="_top" xlink:title="Beam::InterPointCD">
<polygon fill="white" stroke="black" points="185,-66 185,-85 288,-85 288,-66 185,-66"/>
<text text-anchor="middle" x="236.5" y="-73" font-family="Helvetica,sans-Serif" font-size="10.00">Beam::InterPointCD</text>
</a>
</g>
</g>
<!-- Node2842&#45;&gt;Node2843 -->
<g id="edge1" class="edge"><title>Node2842&#45;&gt;Node2843</title>
<path fill="none" stroke="midnightblue" d="M159.517,-75.5C168.122,-75.5 176.665,-75.5 184.746,-75.5"/>
<polygon fill="midnightblue" stroke="midnightblue" points="159.412,-72.0001 149.411,-75.5 159.411,-79.0001 159.412,-72.0001"/>
</g>
<!-- Node2844 -->
<g id="node3" class="node"><title>Node2844</title>
<g id="a_node3"><a xlink:href="../../d5/d53/class_ro_r_1_1_beam_factory.html#ac25b17e65074996433c472da5028fed1" target="_top" xlink:title="RoR::BeamFactory::Update\lPhysicsSimulation">
<polygon fill="white" stroke="black" points="324,-60.5 324,-90.5 461,-90.5 461,-60.5 324,-60.5"/>
<text text-anchor="start" x="332" y="-78.5" font-family="Helvetica,sans-Serif" font-size="10.00">RoR::BeamFactory::Update</text>
<text text-anchor="middle" x="392.5" y="-67.5" font-family="Helvetica,sans-Serif" font-size="10.00">PhysicsSimulation</text>
</a>
</g>
</g>
<!-- Node2843&#45;&gt;Node2844 -->
<g id="edge2" class="edge"><title>Node2843&#45;&gt;Node2844</title>
<path fill="none" stroke="midnightblue" d="M298.418,-75.5C306.801,-75.5 315.451,-75.5 323.945,-75.5"/>
<polygon fill="midnightblue" stroke="midnightblue" points="298.352,-72.0001 288.352,-75.5 298.352,-79.0001 298.352,-72.0001"/>
</g>
<!-- Node2845 -->
<g id="node4" class="node"><title>Node2845</title>
<g id="a_node4"><a xlink:href="../../d5/d53/class_ro_r_1_1_beam_factory.html#a87e6c050f0af4ef2e39976749ac9762c" target="_top" xlink:title="RoR::BeamFactory::update">
<polygon fill="white" stroke="black" points="698,-88 698,-107 833,-107 833,-88 698,-88"/>
<text text-anchor="middle" x="765.5" y="-95" font-family="Helvetica,sans-Serif" font-size="10.00">RoR::BeamFactory::update</text>
</a>
</g>
</g>
<!-- Node2844&#45;&gt;Node2845 -->
<g id="edge3" class="edge"><title>Node2844&#45;&gt;Node2845</title>
<path fill="none" stroke="midnightblue" d="M471.218,-80.1086C538.353,-84.0897 634.327,-89.7808 697.974,-93.555"/>
<polygon fill="midnightblue" stroke="midnightblue" points="471.305,-76.6077 461.116,-79.5096 470.891,-83.5955 471.305,-76.6077"/>
</g>
<!-- Node2847 -->
<g id="node6" class="node"><title>Node2847</title>
<g id="a_node6"><a xlink:href="../../d5/d53/class_ro_r_1_1_beam_factory.html#a5703b053d2b40e3dae66a063ded34578" target="_top" xlink:title="RoR::BeamFactory::getSimulation\lSpeed">
<polygon fill="white" stroke="black" points="497,-38.5 497,-68.5 662,-68.5 662,-38.5 497,-38.5"/>
<text text-anchor="start" x="505" y="-56.5" font-family="Helvetica,sans-Serif" font-size="10.00">RoR::BeamFactory::getSimulation</text>
<text text-anchor="middle" x="579.5" y="-45.5" font-family="Helvetica,sans-Serif" font-size="10.00">Speed</text>
</a>
</g>
</g>
<!-- Node2844&#45;&gt;Node2847 -->
<g id="edge5" class="edge"><title>Node2844&#45;&gt;Node2847</title>
<path fill="none" stroke="midnightblue" d="M471.033,-66.2798C479.601,-65.261 488.344,-64.2212 496.959,-63.1967"/>
<polygon fill="midnightblue" stroke="midnightblue" points="470.591,-62.8076 461.075,-67.4641 471.418,-69.7587 470.591,-62.8076"/>
</g>
<!-- Node2846 -->
<g id="node5" class="node"><title>Node2846</title>
<g id="a_node5"><a xlink:href="../../dd/dbe/class_ro_r_frame_listener.html#acdda0026f9324c3b7f48568624e07115" target="_top" xlink:title="RoRFrameListener::frameStarted">
<polygon fill="white" stroke="black" points="869,-50 869,-69 1028,-69 1028,-50 869,-50"/>
<text text-anchor="middle" x="948.5" y="-57" font-family="Helvetica,sans-Serif" font-size="10.00">RoRFrameListener::frameStarted</text>
</a>
</g>
</g>
<!-- Node2845&#45;&gt;Node2846 -->
<g id="edge4" class="edge"><title>Node2845&#45;&gt;Node2846</title>
<path fill="none" stroke="midnightblue" d="M822.138,-85.819C847.807,-80.4301 877.891,-74.1139 902.154,-69.0201"/>
<polygon fill="midnightblue" stroke="midnightblue" points="821.241,-82.4309 812.174,-87.911 822.68,-89.2816 821.241,-82.4309"/>
</g>
<!-- Node2847&#45;&gt;Node2846 -->
<g id="edge8" class="edge"><title>Node2847&#45;&gt;Node2846</title>
<path fill="none" stroke="midnightblue" d="M672.719,-55.0077C733.216,-55.9967 811.474,-57.2761 868.991,-58.2165"/>
<polygon fill="midnightblue" stroke="midnightblue" points="672.461,-51.5031 662.405,-54.839 672.347,-58.5021 672.461,-51.5031"/>
</g>
<!-- Node2848 -->
<g id="node7" class="node"><title>Node2848</title>
<g id="a_node7"><a xlink:href="../../dd/dbe/class_ro_r_frame_listener.html#afec2a0f00ed552c21d22aae76329bf38" target="_top" xlink:title="RoRFrameListener::Update\lInputEvents">
<polygon fill="white" stroke="black" points="698.5,-0.5 698.5,-30.5 832.5,-30.5 832.5,-0.5 698.5,-0.5"/>
<text text-anchor="start" x="706.5" y="-18.5" font-family="Helvetica,sans-Serif" font-size="10.00">RoRFrameListener::Update</text>
<text text-anchor="middle" x="765.5" y="-7.5" font-family="Helvetica,sans-Serif" font-size="10.00">InputEvents</text>
</a>
</g>
</g>
<!-- Node2847&#45;&gt;Node2848 -->
<g id="edge6" class="edge"><title>Node2847&#45;&gt;Node2848</title>
<path fill="none" stroke="midnightblue" d="M663.062,-36.4492C674.855,-34.0136 686.858,-31.5348 698.283,-29.1752"/>
<polygon fill="midnightblue" stroke="midnightblue" points="662.307,-33.0311 653.222,-38.4814 663.723,-39.8864 662.307,-33.0311"/>
</g>
<!-- Node2848&#45;&gt;Node2846 -->
<g id="edge7" class="edge"><title>Node2848&#45;&gt;Node2846</title>
<path fill="none" stroke="midnightblue" d="M838.062,-32.8964C862.021,-38.7206 887.833,-44.9954 908.369,-49.9876"/>
<polygon fill="midnightblue" stroke="midnightblue" points="838.827,-29.4805 828.284,-30.5192 837.174,-36.2824 838.827,-29.4805"/>
</g>
</g>
</svg>
