<?xml version="1.0" encoding="UTF-8" standalone="no"?>
<!DOCTYPE svg PUBLIC "-//W3C//DTD SVG 1.1//EN"
 "http://www.w3.org/Graphics/SVG/1.1/DTD/svg11.dtd">
<!-- Generated by graphviz version 2.38.0 (20140413.2041)
 -->
<!-- Title: Beam::getReplay Pages: 1 -->
<svg width="641pt" height="39pt"
 viewBox="0.00 0.00 641.00 39.00" xmlns="http://www.w3.org/2000/svg" xmlns:xlink="http://www.w3.org/1999/xlink">
<g id="graph0" class="graph" transform="scale(1 1) rotate(0) translate(4 35)">
<title>Beam::getReplay</title>
<polygon fill="white" stroke="none" points="-4,4 -4,-35 637,-35 637,4 -4,4"/>
<!-- Node1212 -->
<g id="node1" class="node"><title>Node1212</title>
<polygon fill="#bfbfbf" stroke="black" points="0,-6 0,-25 92,-25 92,-6 0,-6"/>
<text text-anchor="middle" x="46" y="-13" font-family="Helvetica,sans-Serif" font-size="10.00">Beam::getReplay</text>
</g>
<!-- Node1213 -->
<g id="node2" class="node"><title>Node1213</title>
<g id="a_node2"><a xlink:href="../../dd/dbe/class_ro_r_frame_listener.html#a519eb1268f9cc62d177d723bdb8190e1" target="_top" xlink:title="RoRFrameListener::HideGUI">
<polygon fill="white" stroke="black" points="128,-6 128,-25 268,-25 268,-6 128,-6"/>
<text text-anchor="middle" x="198" y="-13" font-family="Helvetica,sans-Serif" font-size="10.00">RoRFrameListener::HideGUI</text>
</a>
</g>
</g>
<!-- Node1212&#45;&gt;Node1213 -->
<g id="edge1" class="edge"><title>Node1212&#45;&gt;Node1213</title>
<path fill="none" stroke="midnightblue" d="M102.05,-15.5C110.457,-15.5 119.225,-15.5 127.888,-15.5"/>
<polygon fill="midnightblue" stroke="midnightblue" points="102.005,-12.0001 92.0049,-15.5 102.005,-19.0001 102.005,-12.0001"/>
</g>
<!-- Node1214 -->
<g id="node3" class="node"><title>Node1214</title>
<g id="a_node3"><a xlink:href="../../dd/dbe/class_ro_r_frame_listener.html#afec2a0f00ed552c21d22aae76329bf38" target="_top" xlink:title="RoRFrameListener::Update\lInputEvents">
<polygon fill="white" stroke="black" points="304,-0.5 304,-30.5 438,-30.5 438,-0.5 304,-0.5"/>
<text text-anchor="start" x="312" y="-18.5" font-family="Helvetica,sans-Serif" font-size="10.00">RoRFrameListener::Update</text>
<text text-anchor="middle" x="371" y="-7.5" font-family="Helvetica,sans-Serif" font-size="10.00">InputEvents</text>
</a>
</g>
</g>
<!-- Node1213&#45;&gt;Node1214 -->
<g id="edge2" class="edge"><title>Node1213&#45;&gt;Node1214</title>
<path fill="none" stroke="midnightblue" d="M278.074,-15.5C286.656,-15.5 295.325,-15.5 303.733,-15.5"/>
<polygon fill="midnightblue" stroke="midnightblue" points="278.059,-12.0001 268.059,-15.5 278.059,-19.0001 278.059,-12.0001"/>
</g>
<!-- Node1215 -->
<g id="node4" class="node"><title>Node1215</title>
<g id="a_node4"><a xlink:href="../../dd/dbe/class_ro_r_frame_listener.html#acdda0026f9324c3b7f48568624e07115" target="_top" xlink:title="RoRFrameListener::frameStarted">
<polygon fill="white" stroke="black" points="474,-6 474,-25 633,-25 633,-6 474,-6"/>
<text text-anchor="middle" x="553.5" y="-13" font-family="Helvetica,sans-Serif" font-size="10.00">RoRFrameListener::frameStarted</text>
</a>
</g>
</g>
<!-- Node1214&#45;&gt;Node1215 -->
<g id="edge3" class="edge"><title>Node1214&#45;&gt;Node1215</title>
<path fill="none" stroke="midnightblue" d="M448.343,-15.5C456.753,-15.5 465.328,-15.5 473.767,-15.5"/>
<polygon fill="midnightblue" stroke="midnightblue" points="448.187,-12.0001 438.187,-15.5 448.187,-19.0001 448.187,-12.0001"/>
</g>
</g>
</svg>
