<?xml version="1.0" encoding="UTF-8" standalone="no"?>
<!DOCTYPE svg PUBLIC "-//W3C//DTD SVG 1.1//EN"
 "http://www.w3.org/Graphics/SVG/1.1/DTD/svg11.dtd">
<!-- Generated by graphviz version 2.38.0 (20140413.2041)
 -->
<!-- Title: Beam::updateFlares Pages: 1 -->
<!--zoomable 110 -->
<svg id="main" version="1.1" xmlns="http://www.w3.org/2000/svg" xmlns:xlink="http://www.w3.org/1999/xlink" xml:space="preserve" onload="init(evt)">
<style type="text/css"><![CDATA[
.edge:hover path { stroke: red; }
.edge:hover polygon { stroke: red; fill: red; }
]]></style>
<script type="text/javascript"><![CDATA[
var edges = document.getElementsByTagName('g');
if (edges && edges.length) {
  for (var i=0;i<edges.length;i++) {
    if (edges[i].id.substr(0,4)=='edge') {
      edges[i].setAttribute('class','edge');
    }
  }
}
]]></script>
        <defs>
                <circle id="rim" cx="0" cy="0" r="7"/>
                <circle id="rim2" cx="0" cy="0" r="3.5"/>
                <g id="zoomPlus">
                        <use xlink:href="#rim" fill="#404040">
                                <set attributeName="fill" to="#808080" begin="zoomplus.mouseover" end="zoomplus.mouseout"/>
                        </use>
                        <path d="M-4,0h8M0,-4v8" fill="none" stroke="white" stroke-width="1.5" pointer-events="none"/>
                </g>
                <g id="zoomMin">
                        <use xlink:href="#rim" fill="#404040">
                                <set attributeName="fill" to="#808080" begin="zoomminus.mouseover" end="zoomminus.mouseout"/>
                        </use>
                        <path d="M-4,0h8" fill="none" stroke="white" stroke-width="1.5" pointer-events="none"/>
                </g>
                <g id="dirArrow">
                        <path fill="none" stroke="white" stroke-width="1.5" d="M0,-3.0v7 M-2.5,-0.5L0,-3.0L2.5,-0.5"/>
                </g>
               <g id="resetDef">
                       <use xlink:href="#rim2" fill="#404040">
                               <set attributeName="fill" to="#808080" begin="reset.mouseover" end="reset.mouseout"/>
                       </use>
               </g>
        </defs>

<script type="text/javascript">
var viewWidth = 708;
var viewHeight = 110;
var sectionId = 'dynsection-142';
</script>
<script xlink:href="../../svgpan.js"/>
<svg id="graph" class="graph">
<g id="viewport">
<title>Beam::updateFlares</title>
<polygon fill="white" stroke="none" points="-4,4 -4,-106 704,-106 704,4 -4,4"/>
<!-- Node3131 -->
<g id="node1" class="node"><title>Node3131</title>
<polygon fill="#bfbfbf" stroke="black" points="0,-60.5 0,-79.5 104,-79.5 104,-60.5 0,-60.5"/>
<text text-anchor="middle" x="52" y="-67.5" font-family="Helvetica,sans-Serif" font-size="10.00">Beam::updateFlares</text>
</g>
<!-- Node3132 -->
<g id="node2" class="node"><title>Node3132</title>
<g id="a_node2"><a xlink:href="../../df/d86/namespace_ro_r_1_1_app.html#a21fb1ba18d55ba3c4b0dfd2f36df7891" target="_top" xlink:title="RoR::App::GetInputEngine">
<polygon fill="white" stroke="black" points="140,-82.5 140,-101.5 271,-101.5 271,-82.5 140,-82.5"/>
<text text-anchor="middle" x="205.5" y="-89.5" font-family="Helvetica,sans-Serif" font-size="10.00">RoR::App::GetInputEngine</text>
</a>
</g>
</g>
<!-- Node3131&#45;&gt;Node3132 -->
<g id="edge1" class="edge"><title>Node3131&#45;&gt;Node3132</title>
<path fill="none" stroke="midnightblue" d="M104.291,-77.4482C112.497,-78.6398 121.132,-79.8938 129.75,-81.1452"/>
<polygon fill="midnightblue" stroke="midnightblue" points="129.432,-84.6357 139.832,-82.6092 130.438,-77.7084 129.432,-84.6357"/>
</g>
<!-- Node3133 -->
<g id="node3" class="node"><title>Node3133</title>
<g id="a_node3"><a xlink:href="../../d3/d7b/class_input_engine.html#a72145988ab99faec6f618c2a4011d236" target="_top" xlink:title="InputEngine::getEventBool\lValue">
<polygon fill="white" stroke="black" points="140,-33 140,-63 271,-63 271,-33 140,-33"/>
<text text-anchor="start" x="148" y="-51" font-family="Helvetica,sans-Serif" font-size="10.00">InputEngine::getEventBool</text>
<text text-anchor="middle" x="205.5" y="-40" font-family="Helvetica,sans-Serif" font-size="10.00">Value</text>
</a>
</g>
</g>
<!-- Node3131&#45;&gt;Node3133 -->
<g id="edge2" class="edge"><title>Node3131&#45;&gt;Node3133</title>
<path fill="none" stroke="midnightblue" d="M104.291,-62.5518C112.497,-61.3602 121.132,-60.1062 129.75,-58.8548"/>
<polygon fill="midnightblue" stroke="midnightblue" points="130.438,-62.2916 139.832,-57.3908 129.432,-55.3643 130.438,-62.2916"/>
</g>
<!-- Node3134 -->
<g id="node4" class="node"><title>Node3134</title>
<g id="a_node4"><a xlink:href="../../d3/d7b/class_input_engine.html#a251be92f16fe445542e240fc121354d8" target="_top" xlink:title="InputEngine::getEventValue">
<polygon fill="white" stroke="black" points="307,-38.5 307,-57.5 443,-57.5 443,-38.5 307,-38.5"/>
<text text-anchor="middle" x="375" y="-45.5" font-family="Helvetica,sans-Serif" font-size="10.00">InputEngine::getEventValue</text>
</a>
</g>
</g>
<!-- Node3133&#45;&gt;Node3134 -->
<g id="edge3" class="edge"><title>Node3133&#45;&gt;Node3134</title>
<path fill="none" stroke="midnightblue" d="M271.26,-48C279.663,-48 288.336,-48 296.914,-48"/>
<polygon fill="midnightblue" stroke="midnightblue" points="296.92,-51.5001 306.92,-48 296.92,-44.5001 296.92,-51.5001"/>
</g>
<!-- Node3135 -->
<g id="node5" class="node"><title>Node3135</title>
<g id="a_node5"><a xlink:href="../../d9/da3/_application_8h.html#ac91efe9de379ef0fde6e0c6f369dfb35" target="_top" xlink:title="Legacy alias &#45; formerly a macro. ">
<polygon fill="white" stroke="black" points="524.5,-76.5 524.5,-95.5 561.5,-95.5 561.5,-76.5 524.5,-76.5"/>
<text text-anchor="middle" x="543" y="-83.5" font-family="Helvetica,sans-Serif" font-size="10.00">LOG</text>
</a>
</g>
</g>
<!-- Node3134&#45;&gt;Node3135 -->
<g id="edge4" class="edge"><title>Node3134&#45;&gt;Node3135</title>
<path fill="none" stroke="midnightblue" d="M417.889,-57.589C448.11,-64.5071 488.059,-73.6521 514.366,-79.6742"/>
<polygon fill="midnightblue" stroke="midnightblue" points="513.873,-83.1518 524.402,-81.9716 515.435,-76.3283 513.873,-83.1518"/>
</g>
<!-- Node3137 -->
<g id="node7" class="node"><title>Node3137</title>
<g id="a_node7"><a xlink:href="../../d3/d7b/class_input_engine.html#a3e63861375a5873297281b885c8aa8f9" target="_top" xlink:title="InputEngine::axisLinearity">
<polygon fill="white" stroke="black" points="479,-38.5 479,-57.5 607,-57.5 607,-38.5 479,-38.5"/>
<text text-anchor="middle" x="543" y="-45.5" font-family="Helvetica,sans-Serif" font-size="10.00">InputEngine::axisLinearity</text>
</a>
</g>
</g>
<!-- Node3134&#45;&gt;Node3137 -->
<g id="edge6" class="edge"><title>Node3134&#45;&gt;Node3137</title>
<path fill="none" stroke="midnightblue" d="M443.04,-48C451.42,-48 460.026,-48 468.498,-48"/>
<polygon fill="midnightblue" stroke="midnightblue" points="468.742,-51.5001 478.742,-48 468.742,-44.5001 468.742,-51.5001"/>
</g>
<!-- Node3138 -->
<g id="node8" class="node"><title>Node3138</title>
<g id="a_node8"><a xlink:href="../../d3/d7b/class_input_engine.html#aaa9f701b9f4420b8e97cf4ae775038c1" target="_top" xlink:title="InputEngine::deadZone">
<polygon fill="white" stroke="black" points="485,-0.5 485,-19.5 601,-19.5 601,-0.5 485,-0.5"/>
<text text-anchor="middle" x="543" y="-7.5" font-family="Helvetica,sans-Serif" font-size="10.00">InputEngine::deadZone</text>
</a>
</g>
</g>
<!-- Node3134&#45;&gt;Node3138 -->
<g id="edge7" class="edge"><title>Node3134&#45;&gt;Node3138</title>
<path fill="none" stroke="midnightblue" d="M417.889,-38.411C439.893,-33.3739 467.055,-27.1562 490.352,-21.8229"/>
<polygon fill="midnightblue" stroke="midnightblue" points="491.446,-25.1633 500.412,-19.5201 489.884,-18.3398 491.446,-25.1633"/>
</g>
<!-- Node3136 -->
<g id="node6" class="node"><title>Node3136</title>
<g id="a_node6"><a xlink:href="../../dd/dd2/namespace_ro_r.html#a15fdb48aba128c41a9c75357c2282694" target="_top" xlink:title="The ultimate, application&#45;wide logging function. Adds a line (any length) in &#39;RoR.log&#39; file. ">
<polygon fill="white" stroke="black" points="643,-76.5 643,-95.5 700,-95.5 700,-76.5 643,-76.5"/>
<text text-anchor="middle" x="671.5" y="-83.5" font-family="Helvetica,sans-Serif" font-size="10.00">RoR::Log</text>
</a>
</g>
</g>
<!-- Node3135&#45;&gt;Node3136 -->
<g id="edge5" class="edge"><title>Node3135&#45;&gt;Node3136</title>
<path fill="none" stroke="midnightblue" d="M561.589,-86C579.922,-86 609.212,-86 632.802,-86"/>
<polygon fill="midnightblue" stroke="midnightblue" points="632.847,-89.5001 642.847,-86 632.847,-82.5001 632.847,-89.5001"/>
</g>
</g>
</svg>
        <g id="navigator" transform="translate(0 0)" fill="#404254">
                <rect fill="#f2f5e9" fill-opacity="0.5" stroke="#606060" stroke-width=".5" x="0" y="0" width="60" height="60"/>
                <use id="zoomplus" xlink:href="#zoomPlus" x="17" y="9" onmousedown="handleZoom(evt,'in')"/>
                <use id="zoomminus" xlink:href="#zoomMin" x="42" y="9" onmousedown="handleZoom(evt,'out')"/>
                <use id="reset" xlink:href="#resetDef" x="30" y="36" onmousedown="handleReset()"/>
                <g id="arrowUp" xlink:href="#dirArrow" transform="translate(30 24)" onmousedown="handlePan(0,-1)">
                  <use xlink:href="#rim" fill="#404040">
                        <set attributeName="fill" to="#808080" begin="arrowUp.mouseover" end="arrowUp.mouseout"/>
                  </use>
                  <path fill="none" stroke="white" stroke-width="1.5" d="M0,-3.0v7 M-2.5,-0.5L0,-3.0L2.5,-0.5"/>
                </g>
                <g id="arrowRight" xlink:href="#dirArrow" transform="rotate(90) translate(36 -43)" onmousedown="handlePan(1,0)">
                  <use xlink:href="#rim" fill="#404040">
                        <set attributeName="fill" to="#808080" begin="arrowRight.mouseover" end="arrowRight.mouseout"/>
                  </use>
                  <path fill="none" stroke="white" stroke-width="1.5" d="M0,-3.0v7 M-2.5,-0.5L0,-3.0L2.5,-0.5"/>
                </g>
                <g id="arrowDown" xlink:href="#dirArrow" transform="rotate(180) translate(-30 -48)" onmousedown="handlePan(0,1)">
                  <use xlink:href="#rim" fill="#404040">
                        <set attributeName="fill" to="#808080" begin="arrowDown.mouseover" end="arrowDown.mouseout"/>
                  </use>
                  <path fill="none" stroke="white" stroke-width="1.5" d="M0,-3.0v7 M-2.5,-0.5L0,-3.0L2.5,-0.5"/>
                </g>
                <g id="arrowLeft" xlink:href="#dirArrow" transform="rotate(270) translate(-36 17)" onmousedown="handlePan(-1,0)">
                  <use xlink:href="#rim" fill="#404040">
                        <set attributeName="fill" to="#808080" begin="arrowLeft.mouseover" end="arrowLeft.mouseout"/>
                  </use>
                  <path fill="none" stroke="white" stroke-width="1.5" d="M0,-3.0v7 M-2.5,-0.5L0,-3.0L2.5,-0.5"/>
                </g>
        </g>
        <svg viewBox="0 0 15 15" width="100%" height="30px" preserveAspectRatio="xMaxYMin meet">
         <g id="arrow_out" transform="scale(0.3 0.3)">
          <a xlink:href="class_beam_a896d4c6db3a6a630353cfef781f04b10_cgraph_org.svg" target="_base">
           <rect id="button" ry="5" rx="5" y="6" x="6" height="38" width="38"
                fill="#f2f5e9" fill-opacity="0.5" stroke="#606060" stroke-width="1.0"/>
           <path id="arrow"
             d="M 11.500037,31.436501 C 11.940474,20.09759 22.043105,11.32322 32.158766,21.979434 L 37.068811,17.246167 C 37.068811,17.246167 37.088388,32 37.088388,32 L 22.160133,31.978069 C 22.160133,31.978069 26.997745,27.140456 26.997745,27.140456 C 18.528582,18.264221 13.291696,25.230495 11.500037,31.436501 z"
             style="fill:#404040;"/>
          </a>
         </g>
        </svg>
</svg>
