<?xml version="1.0" encoding="UTF-8" standalone="no"?>
<!DOCTYPE svg PUBLIC "-//W3C//DTD SVG 1.1//EN"
 "http://www.w3.org/Graphics/SVG/1.1/DTD/svg11.dtd">
<!-- Generated by graphviz version 2.38.0 (20140413.2041)
 -->
<!-- Title: Beam::mouseMove Pages: 1 -->
<!--zoomable 249 -->
<svg id="main" version="1.1" xmlns="http://www.w3.org/2000/svg" xmlns:xlink="http://www.w3.org/1999/xlink" xml:space="preserve" onload="init(evt)">
<style type="text/css"><![CDATA[
.edge:hover path { stroke: red; }
.edge:hover polygon { stroke: red; fill: red; }
]]></style>
<script type="text/javascript"><![CDATA[
var edges = document.getElementsByTagName('g');
if (edges && edges.length) {
  for (var i=0;i<edges.length;i++) {
    if (edges[i].id.substr(0,4)=='edge') {
      edges[i].setAttribute('class','edge');
    }
  }
}
]]></script>
        <defs>
                <circle id="rim" cx="0" cy="0" r="7"/>
                <circle id="rim2" cx="0" cy="0" r="3.5"/>
                <g id="zoomPlus">
                        <use xlink:href="#rim" fill="#404040">
                                <set attributeName="fill" to="#808080" begin="zoomplus.mouseover" end="zoomplus.mouseout"/>
                        </use>
                        <path d="M-4,0h8M0,-4v8" fill="none" stroke="white" stroke-width="1.5" pointer-events="none"/>
                </g>
                <g id="zoomMin">
                        <use xlink:href="#rim" fill="#404040">
                                <set attributeName="fill" to="#808080" begin="zoomminus.mouseover" end="zoomminus.mouseout"/>
                        </use>
                        <path d="M-4,0h8" fill="none" stroke="white" stroke-width="1.5" pointer-events="none"/>
                </g>
                <g id="dirArrow">
                        <path fill="none" stroke="white" stroke-width="1.5" d="M0,-3.0v7 M-2.5,-0.5L0,-3.0L2.5,-0.5"/>
                </g>
               <g id="resetDef">
                       <use xlink:href="#rim2" fill="#404040">
                               <set attributeName="fill" to="#808080" begin="reset.mouseover" end="reset.mouseout"/>
                       </use>
               </g>
        </defs>

<script type="text/javascript">
var viewWidth = 1417;
var viewHeight = 249;
var sectionId = 'dynsection-92';
</script>
<script xlink:href="../../svgpan.js"/>
<svg id="graph" class="graph">
<g id="viewport">
<title>Beam::mouseMove</title>
<polygon fill="white" stroke="none" points="-4,4 -4,-245 1413,-245 1413,4 -4,4"/>
<!-- Node2535 -->
<g id="node1" class="node"><title>Node2535</title>
<polygon fill="#bfbfbf" stroke="black" points="0,-107.5 0,-126.5 100,-126.5 100,-107.5 0,-107.5"/>
<text text-anchor="middle" x="50" y="-114.5" font-family="Helvetica,sans-Serif" font-size="10.00">Beam::mouseMove</text>
</g>
<!-- Node2536 -->
<g id="node2" class="node"><title>Node2536</title>
<g id="a_node2"><a xlink:href="../../d7/d9d/class_ro_r_1_1_scene_mouse.html#a7a0d8c6d6ebe7f330e27f7bab0eb18d9" target="_top" xlink:title="RoR::SceneMouse::release\lMousePick">
<polygon fill="white" stroke="black" points="136,-162 136,-192 272,-192 272,-162 136,-162"/>
<text text-anchor="start" x="144" y="-180" font-family="Helvetica,sans-Serif" font-size="10.00">RoR::SceneMouse::release</text>
<text text-anchor="middle" x="204" y="-169" font-family="Helvetica,sans-Serif" font-size="10.00">MousePick</text>
</a>
</g>
</g>
<!-- Node2535&#45;&gt;Node2536 -->
<g id="edge1" class="edge"><title>Node2535&#45;&gt;Node2536</title>
<path fill="none" stroke="midnightblue" d="M84.3902,-130.18C108.129,-139.551 140.063,-152.157 164.816,-161.927"/>
<polygon fill="midnightblue" stroke="midnightblue" points="85.6715,-126.923 75.0849,-126.507 83.1013,-133.434 85.6715,-126.923"/>
</g>
<!-- Node2546 -->
<g id="node12" class="node"><title>Node2546</title>
<g id="a_node12"><a xlink:href="../../d7/d9d/class_ro_r_1_1_scene_mouse.html#ac2615c541157fa61b08a7ca5bdd340f9" target="_top" xlink:title="RoR::SceneMouse::update">
<polygon fill="white" stroke="black" points="137,-107.5 137,-126.5 271,-126.5 271,-107.5 137,-107.5"/>
<text text-anchor="middle" x="204" y="-114.5" font-family="Helvetica,sans-Serif" font-size="10.00">RoR::SceneMouse::update</text>
</a>
</g>
</g>
<!-- Node2535&#45;&gt;Node2546 -->
<g id="edge12" class="edge"><title>Node2535&#45;&gt;Node2546</title>
<path fill="none" stroke="midnightblue" d="M110.63,-117C119.203,-117 128.066,-117 136.757,-117"/>
<polygon fill="midnightblue" stroke="midnightblue" points="110.35,-113.5 100.35,-117 110.35,-120.5 110.35,-113.5"/>
</g>
<!-- Node2548 -->
<g id="node14" class="node"><title>Node2548</title>
<g id="a_node14"><a xlink:href="../../df/df9/class_beam.html#aabe018af621de69910d145fe2967ad11" target="_top" xlink:title="Beam::IsNodeIdValid">
<polygon fill="white" stroke="black" points="150.5,-63.5 150.5,-82.5 257.5,-82.5 257.5,-63.5 150.5,-63.5"/>
<text text-anchor="middle" x="204" y="-70.5" font-family="Helvetica,sans-Serif" font-size="10.00">Beam::IsNodeIdValid</text>
</a>
</g>
</g>
<!-- Node2535&#45;&gt;Node2548 -->
<g id="edge14" class="edge"><title>Node2535&#45;&gt;Node2548</title>
<path fill="none" stroke="midnightblue" d="M93.6332,-104.659C117.843,-97.6507 147.689,-89.0112 170.083,-82.5287"/>
<polygon fill="midnightblue" stroke="midnightblue" points="92.6142,-101.31 83.9817,-107.453 94.5606,-108.034 92.6142,-101.31"/>
</g>
<!-- Node2537 -->
<g id="node3" class="node"><title>Node2537</title>
<g id="a_node3"><a xlink:href="../../d7/d9d/class_ro_r_1_1_scene_mouse.html#a8577d57989d294eea1054d9c21abe567" target="_top" xlink:title="RoR::SceneMouse::SceneMouse">
<polygon fill="white" stroke="black" points="314.5,-221.5 314.5,-240.5 475.5,-240.5 475.5,-221.5 314.5,-221.5"/>
<text text-anchor="middle" x="395" y="-228.5" font-family="Helvetica,sans-Serif" font-size="10.00">RoR::SceneMouse::SceneMouse</text>
</a>
</g>
</g>
<!-- Node2536&#45;&gt;Node2537 -->
<g id="edge2" class="edge"><title>Node2536&#45;&gt;Node2537</title>
<path fill="none" stroke="midnightblue" d="M255.315,-195.334C271.965,-201.068 290.666,-207.156 308,-212 320.37,-215.457 333.882,-218.691 346.454,-221.476"/>
<polygon fill="midnightblue" stroke="midnightblue" points="256.371,-191.996 245.776,-192.011 254.068,-198.606 256.371,-191.996"/>
</g>
<!-- Node2538 -->
<g id="node4" class="node"><title>Node2538</title>
<g id="a_node4"><a xlink:href="../../d7/d9d/class_ro_r_1_1_scene_mouse.html#a4b6998ce12990478a6a2bf2e59b2eb1d" target="_top" xlink:title="RoR::SceneMouse::mouseMoved">
<polygon fill="white" stroke="black" points="314.5,-183.5 314.5,-202.5 475.5,-202.5 475.5,-183.5 314.5,-183.5"/>
<text text-anchor="middle" x="395" y="-190.5" font-family="Helvetica,sans-Serif" font-size="10.00">RoR::SceneMouse::mouseMoved</text>
</a>
</g>
</g>
<!-- Node2536&#45;&gt;Node2538 -->
<g id="edge3" class="edge"><title>Node2536&#45;&gt;Node2538</title>
<path fill="none" stroke="midnightblue" d="M282.24,-183.539C292.862,-184.438 303.785,-185.363 314.448,-186.265"/>
<polygon fill="midnightblue" stroke="midnightblue" points="282.426,-180.042 272.166,-182.686 281.836,-187.017 282.426,-180.042"/>
</g>
<!-- Node2544 -->
<g id="node10" class="node"><title>Node2544</title>
<g id="a_node10"><a xlink:href="../../d7/d9d/class_ro_r_1_1_scene_mouse.html#a3acc549dff8747f1a0af196526895dc0" target="_top" xlink:title="RoR::SceneMouse::mouseReleased">
<polygon fill="white" stroke="black" points="308,-145.5 308,-164.5 482,-164.5 482,-145.5 308,-145.5"/>
<text text-anchor="middle" x="395" y="-152.5" font-family="Helvetica,sans-Serif" font-size="10.00">RoR::SceneMouse::mouseReleased</text>
</a>
</g>
</g>
<!-- Node2536&#45;&gt;Node2544 -->
<g id="edge9" class="edge"><title>Node2536&#45;&gt;Node2544</title>
<path fill="none" stroke="midnightblue" d="M282.309,-168.001C292.149,-166.856 302.246,-165.68 312.154,-164.527"/>
<polygon fill="midnightblue" stroke="midnightblue" points="281.695,-164.549 272.166,-169.182 282.504,-171.502 281.695,-164.549"/>
</g>
<!-- Node2539 -->
<g id="node5" class="node"><title>Node2539</title>
<g id="a_node5"><a xlink:href="../../db/df1/class_g_u_i_input_manager.html#a2f52a8c0b01fca8c55a954bdb7d2ab79" target="_top" xlink:title="GUIInputManager::mouseMoved">
<polygon fill="white" stroke="black" points="524,-183.5 524,-202.5 679,-202.5 679,-183.5 524,-183.5"/>
<text text-anchor="middle" x="601.5" y="-190.5" font-family="Helvetica,sans-Serif" font-size="10.00">GUIInputManager::mouseMoved</text>
</a>
</g>
</g>
<!-- Node2538&#45;&gt;Node2539 -->
<g id="edge4" class="edge"><title>Node2538&#45;&gt;Node2539</title>
<path fill="none" stroke="midnightblue" d="M485.743,-193C498.417,-193 511.35,-193 523.749,-193"/>
<polygon fill="midnightblue" stroke="midnightblue" points="485.651,-189.5 475.651,-193 485.651,-196.5 485.651,-189.5"/>
</g>
<!-- Node2540 -->
<g id="node6" class="node"><title>Node2540</title>
<g id="a_node6"><a xlink:href="../../db/df1/class_g_u_i_input_manager.html#ab59361b8e1a9e31e53b5e5523f2b4801" target="_top" xlink:title="GUIInputManager::getLast\lMouseMoveTime">
<polygon fill="white" stroke="black" points="721,-159 721,-189 851,-189 851,-159 721,-159"/>
<text text-anchor="start" x="729" y="-177" font-family="Helvetica,sans-Serif" font-size="10.00">GUIInputManager::getLast</text>
<text text-anchor="middle" x="786" y="-166" font-family="Helvetica,sans-Serif" font-size="10.00">MouseMoveTime</text>
</a>
</g>
</g>
<!-- Node2539&#45;&gt;Node2540 -->
<g id="edge5" class="edge"><title>Node2539&#45;&gt;Node2540</title>
<path fill="none" stroke="midnightblue" d="M689.23,-183.971C699.837,-182.866 710.527,-181.753 720.723,-180.692"/>
<polygon fill="midnightblue" stroke="midnightblue" points="688.687,-180.508 679.103,-185.025 689.412,-187.47 688.687,-180.508"/>
</g>
<!-- Node2541 -->
<g id="node7" class="node"><title>Node2541</title>
<g id="a_node7"><a xlink:href="../../d8/d11/class_ro_r_1_1_g_u_i_manager.html#aae1570a62049085aa74ce274ac9a70ad" target="_top" xlink:title="RoR::GUIManager::frameStarted">
<polygon fill="white" stroke="black" points="887,-164.5 887,-183.5 1044,-183.5 1044,-164.5 887,-164.5"/>
<text text-anchor="middle" x="965.5" y="-171.5" font-family="Helvetica,sans-Serif" font-size="10.00">RoR::GUIManager::frameStarted</text>
</a>
</g>
</g>
<!-- Node2540&#45;&gt;Node2541 -->
<g id="edge6" class="edge"><title>Node2540&#45;&gt;Node2541</title>
<path fill="none" stroke="midnightblue" d="M861.289,-174C869.748,-174 878.387,-174 886.888,-174"/>
<polygon fill="midnightblue" stroke="midnightblue" points="861.082,-170.5 851.082,-174 861.082,-177.5 861.082,-170.5"/>
</g>
<!-- Node2542 -->
<g id="node8" class="node"><title>Node2542</title>
<g id="a_node8"><a xlink:href="../../d8/d11/class_ro_r_1_1_g_u_i_manager.html#a4ab273bd0538649818c84b38e8a06100" target="_top" xlink:title="RoR::GUIManager::GetTheme">
<polygon fill="white" stroke="black" points="1080,-164.5 1080,-183.5 1226,-183.5 1226,-164.5 1080,-164.5"/>
<text text-anchor="middle" x="1153" y="-171.5" font-family="Helvetica,sans-Serif" font-size="10.00">RoR::GUIManager::GetTheme</text>
</a>
</g>
</g>
<!-- Node2541&#45;&gt;Node2542 -->
<g id="edge7" class="edge"><title>Node2541&#45;&gt;Node2542</title>
<path fill="none" stroke="midnightblue" d="M1054.12,-174C1062.71,-174 1071.35,-174 1079.75,-174"/>
<polygon fill="midnightblue" stroke="midnightblue" points="1054.09,-170.5 1044.09,-174 1054.09,-177.5 1054.09,-170.5"/>
</g>
<!-- Node2543 -->
<g id="node9" class="node"><title>Node2543</title>
<g id="a_node9"><a xlink:href="../../d4/d8f/class_ro_r_1_1_g_u_i_1_1_multiplayer_selector.html#a8c98e9ba03c8afb1d1a26ec06192862e" target="_top" xlink:title="RoR::GUI::MultiplayerSelector\l::~MultiplayerSelector">
<polygon fill="white" stroke="black" points="1262,-159 1262,-189 1409,-189 1409,-159 1262,-159"/>
<text text-anchor="start" x="1270" y="-177" font-family="Helvetica,sans-Serif" font-size="10.00">RoR::GUI::MultiplayerSelector</text>
<text text-anchor="middle" x="1335.5" y="-166" font-family="Helvetica,sans-Serif" font-size="10.00">::~MultiplayerSelector</text>
</a>
</g>
</g>
<!-- Node2542&#45;&gt;Node2543 -->
<g id="edge8" class="edge"><title>Node2542&#45;&gt;Node2543</title>
<path fill="none" stroke="midnightblue" d="M1236.14,-174C1244.74,-174 1253.43,-174 1261.91,-174"/>
<polygon fill="midnightblue" stroke="midnightblue" points="1236.12,-170.5 1226.12,-174 1236.12,-177.5 1236.12,-170.5"/>
</g>
<!-- Node2545 -->
<g id="node11" class="node"><title>Node2545</title>
<g id="a_node11"><a xlink:href="../../db/df1/class_g_u_i_input_manager.html#a5f096906671c8b2fc404353cb0cc3cf4" target="_top" xlink:title="GUIInputManager::mouseReleased">
<polygon fill="white" stroke="black" points="518,-145.5 518,-164.5 685,-164.5 685,-145.5 518,-145.5"/>
<text text-anchor="middle" x="601.5" y="-152.5" font-family="Helvetica,sans-Serif" font-size="10.00">GUIInputManager::mouseReleased</text>
</a>
</g>
</g>
<!-- Node2544&#45;&gt;Node2545 -->
<g id="edge10" class="edge"><title>Node2544&#45;&gt;Node2545</title>
<path fill="none" stroke="midnightblue" d="M492.136,-155C500.691,-155 509.303,-155 517.732,-155"/>
<polygon fill="midnightblue" stroke="midnightblue" points="492.134,-151.5 482.134,-155 492.134,-158.5 492.134,-151.5"/>
</g>
<!-- Node2545&#45;&gt;Node2540 -->
<g id="edge11" class="edge"><title>Node2545&#45;&gt;Node2540</title>
<path fill="none" stroke="midnightblue" d="M695.341,-164.666C703.982,-165.565 712.605,-166.463 720.898,-167.326"/>
<polygon fill="midnightblue" stroke="midnightblue" points="695.515,-161.165 685.206,-163.611 694.79,-168.127 695.515,-161.165"/>
</g>
<!-- Node2547 -->
<g id="node13" class="node"><title>Node2547</title>
<g id="a_node13"><a xlink:href="../../dd/dbe/class_ro_r_frame_listener.html#acdda0026f9324c3b7f48568624e07115" target="_top" xlink:title="RoRFrameListener::frameStarted">
<polygon fill="white" stroke="black" points="522,-92.5 522,-111.5 681,-111.5 681,-92.5 522,-92.5"/>
<text text-anchor="middle" x="601.5" y="-99.5" font-family="Helvetica,sans-Serif" font-size="10.00">RoRFrameListener::frameStarted</text>
</a>
</g>
</g>
<!-- Node2546&#45;&gt;Node2547 -->
<g id="edge13" class="edge"><title>Node2546&#45;&gt;Node2547</title>
<path fill="none" stroke="midnightblue" d="M281.584,-114.095C350.731,-111.473 452.04,-107.631 521.826,-104.984"/>
<polygon fill="midnightblue" stroke="midnightblue" points="281.058,-110.613 271.198,-114.489 281.323,-117.608 281.058,-110.613"/>
</g>
<!-- Node2549 -->
<g id="node15" class="node"><title>Node2549</title>
<g id="a_node15"><a xlink:href="../../dd/dbe/class_ro_r_frame_listener.html#a46c793a3229156a678a3829a6fe59be6" target="_top" xlink:title="RoRFrameListener::Update\lForceFeedback">
<polygon fill="white" stroke="black" points="328,-58 328,-88 462,-88 462,-58 328,-58"/>
<text text-anchor="start" x="336" y="-76" font-family="Helvetica,sans-Serif" font-size="10.00">RoRFrameListener::Update</text>
<text text-anchor="middle" x="395" y="-65" font-family="Helvetica,sans-Serif" font-size="10.00">ForceFeedback</text>
</a>
</g>
</g>
<!-- Node2548&#45;&gt;Node2549 -->
<g id="edge15" class="edge"><title>Node2548&#45;&gt;Node2549</title>
<path fill="none" stroke="midnightblue" d="M267.817,-73C287.076,-73 308.322,-73 327.799,-73"/>
<polygon fill="midnightblue" stroke="midnightblue" points="267.647,-69.5001 257.647,-73 267.647,-76.5001 267.647,-69.5001"/>
</g>
<!-- Node2550 -->
<g id="node16" class="node"><title>Node2550</title>
<g id="a_node16"><a xlink:href="../../df/df9/class_beam.html#ab0cbc6c4e3822fc5786af2c8036f7efb" target="_top" xlink:title="Beam::LoadTruck">
<polygon fill="white" stroke="black" points="348.5,-19.5 348.5,-38.5 441.5,-38.5 441.5,-19.5 348.5,-19.5"/>
<text text-anchor="middle" x="395" y="-26.5" font-family="Helvetica,sans-Serif" font-size="10.00">Beam::LoadTruck</text>
</a>
</g>
</g>
<!-- Node2548&#45;&gt;Node2550 -->
<g id="edge17" class="edge"><title>Node2548&#45;&gt;Node2550</title>
<path fill="none" stroke="midnightblue" d="M253.431,-61.0266C270.642,-56.8294 290.168,-52.1334 308,-48 321.555,-44.858 336.34,-41.5489 349.768,-38.5886"/>
<polygon fill="midnightblue" stroke="midnightblue" points="252.477,-57.6566 243.595,-63.4322 254.14,-64.4562 252.477,-57.6566"/>
</g>
<!-- Node2549&#45;&gt;Node2547 -->
<g id="edge16" class="edge"><title>Node2549&#45;&gt;Node2547</title>
<path fill="none" stroke="midnightblue" d="M472.135,-83.7966C492.183,-86.6396 513.666,-89.6862 533.212,-92.4579"/>
<polygon fill="midnightblue" stroke="midnightblue" points="472.505,-80.3142 462.113,-82.3754 471.522,-87.2449 472.505,-80.3142"/>
</g>
<!-- Node2551 -->
<g id="node17" class="node"><title>Node2551</title>
<g id="a_node17"><a xlink:href="../../df/df9/class_beam.html#a0d55b25fa0d1623305f3ac51694cbd42" target="_top" xlink:title="Beam::Beam">
<polygon fill="white" stroke="black" points="564.5,-38.5 564.5,-57.5 638.5,-57.5 638.5,-38.5 564.5,-38.5"/>
<text text-anchor="middle" x="601.5" y="-45.5" font-family="Helvetica,sans-Serif" font-size="10.00">Beam::Beam</text>
</a>
</g>
</g>
<!-- Node2550&#45;&gt;Node2551 -->
<g id="edge18" class="edge"><title>Node2550&#45;&gt;Node2551</title>
<path fill="none" stroke="midnightblue" d="M451.928,-34.1962C487.695,-37.5194 533.051,-41.7333 564.185,-44.626"/>
<polygon fill="midnightblue" stroke="midnightblue" points="451.92,-30.6805 441.639,-33.2403 451.273,-37.6505 451.92,-30.6805"/>
</g>
<!-- Node2552 -->
<g id="node18" class="node"><title>Node2552</title>
<g id="a_node18"><a xlink:href="../../df/df9/class_beam.html#a3176be8102041493ae018fd5d66607dd" target="_top" xlink:title="Beam::getVelocity">
<polygon fill="white" stroke="black" points="553,-0.5 553,-19.5 650,-19.5 650,-0.5 553,-0.5"/>
<text text-anchor="middle" x="601.5" y="-7.5" font-family="Helvetica,sans-Serif" font-size="10.00">Beam::getVelocity</text>
</a>
</g>
</g>
<!-- Node2550&#45;&gt;Node2552 -->
<g id="edge19" class="edge"><title>Node2550&#45;&gt;Node2552</title>
<path fill="none" stroke="midnightblue" d="M451.639,-23.8306C483.327,-20.8865 522.612,-17.2365 552.868,-14.4255"/>
<polygon fill="midnightblue" stroke="midnightblue" points="451.273,-20.3495 441.639,-24.7597 451.92,-27.3195 451.273,-20.3495"/>
</g>
</g>
</svg>
        <g id="navigator" transform="translate(0 0)" fill="#404254">
                <rect fill="#f2f5e9" fill-opacity="0.5" stroke="#606060" stroke-width=".5" x="0" y="0" width="60" height="60"/>
                <use id="zoomplus" xlink:href="#zoomPlus" x="17" y="9" onmousedown="handleZoom(evt,'in')"/>
                <use id="zoomminus" xlink:href="#zoomMin" x="42" y="9" onmousedown="handleZoom(evt,'out')"/>
                <use id="reset" xlink:href="#resetDef" x="30" y="36" onmousedown="handleReset()"/>
                <g id="arrowUp" xlink:href="#dirArrow" transform="translate(30 24)" onmousedown="handlePan(0,-1)">
                  <use xlink:href="#rim" fill="#404040">
                        <set attributeName="fill" to="#808080" begin="arrowUp.mouseover" end="arrowUp.mouseout"/>
                  </use>
                  <path fill="none" stroke="white" stroke-width="1.5" d="M0,-3.0v7 M-2.5,-0.5L0,-3.0L2.5,-0.5"/>
                </g>
                <g id="arrowRight" xlink:href="#dirArrow" transform="rotate(90) translate(36 -43)" onmousedown="handlePan(1,0)">
                  <use xlink:href="#rim" fill="#404040">
                        <set attributeName="fill" to="#808080" begin="arrowRight.mouseover" end="arrowRight.mouseout"/>
                  </use>
                  <path fill="none" stroke="white" stroke-width="1.5" d="M0,-3.0v7 M-2.5,-0.5L0,-3.0L2.5,-0.5"/>
                </g>
                <g id="arrowDown" xlink:href="#dirArrow" transform="rotate(180) translate(-30 -48)" onmousedown="handlePan(0,1)">
                  <use xlink:href="#rim" fill="#404040">
                        <set attributeName="fill" to="#808080" begin="arrowDown.mouseover" end="arrowDown.mouseout"/>
                  </use>
                  <path fill="none" stroke="white" stroke-width="1.5" d="M0,-3.0v7 M-2.5,-0.5L0,-3.0L2.5,-0.5"/>
                </g>
                <g id="arrowLeft" xlink:href="#dirArrow" transform="rotate(270) translate(-36 17)" onmousedown="handlePan(-1,0)">
                  <use xlink:href="#rim" fill="#404040">
                        <set attributeName="fill" to="#808080" begin="arrowLeft.mouseover" end="arrowLeft.mouseout"/>
                  </use>
                  <path fill="none" stroke="white" stroke-width="1.5" d="M0,-3.0v7 M-2.5,-0.5L0,-3.0L2.5,-0.5"/>
                </g>
        </g>
        <svg viewBox="0 0 15 15" width="100%" height="30px" preserveAspectRatio="xMaxYMin meet">
         <g id="arrow_out" transform="scale(0.3 0.3)">
          <a xlink:href="class_beam_a465164195a8158babeaa9506f91d52de_icgraph_org.svg" target="_base">
           <rect id="button" ry="5" rx="5" y="6" x="6" height="38" width="38"
                fill="#f2f5e9" fill-opacity="0.5" stroke="#606060" stroke-width="1.0"/>
           <path id="arrow"
             d="M 11.500037,31.436501 C 11.940474,20.09759 22.043105,11.32322 32.158766,21.979434 L 37.068811,17.246167 C 37.068811,17.246167 37.088388,32 37.088388,32 L 22.160133,31.978069 C 22.160133,31.978069 26.997745,27.140456 26.997745,27.140456 C 18.528582,18.264221 13.291696,25.230495 11.500037,31.436501 z"
             style="fill:#404040;"/>
          </a>
         </g>
        </svg>
</svg>
