<?xml version="1.0" encoding="UTF-8" standalone="no"?>
<!DOCTYPE svg PUBLIC "-//W3C//DTD SVG 1.1//EN"
 "http://www.w3.org/Graphics/SVG/1.1/DTD/svg11.dtd">
<!-- Generated by graphviz version 2.38.0 (20140413.2041)
 -->
<!-- Title: Beam::joinFlexbodyTasks Pages: 1 -->
<!--zoomable 228 -->
<svg id="main" version="1.1" xmlns="http://www.w3.org/2000/svg" xmlns:xlink="http://www.w3.org/1999/xlink" xml:space="preserve" onload="init(evt)">
<style type="text/css"><![CDATA[
.edge:hover path { stroke: red; }
.edge:hover polygon { stroke: red; fill: red; }
]]></style>
<script type="text/javascript"><![CDATA[
var edges = document.getElementsByTagName('g');
if (edges && edges.length) {
  for (var i=0;i<edges.length;i++) {
    if (edges[i].id.substr(0,4)=='edge') {
      edges[i].setAttribute('class','edge');
    }
  }
}
]]></script>
        <defs>
                <circle id="rim" cx="0" cy="0" r="7"/>
                <circle id="rim2" cx="0" cy="0" r="3.5"/>
                <g id="zoomPlus">
                        <use xlink:href="#rim" fill="#404040">
                                <set attributeName="fill" to="#808080" begin="zoomplus.mouseover" end="zoomplus.mouseout"/>
                        </use>
                        <path d="M-4,0h8M0,-4v8" fill="none" stroke="white" stroke-width="1.5" pointer-events="none"/>
                </g>
                <g id="zoomMin">
                        <use xlink:href="#rim" fill="#404040">
                                <set attributeName="fill" to="#808080" begin="zoomminus.mouseover" end="zoomminus.mouseout"/>
                        </use>
                        <path d="M-4,0h8" fill="none" stroke="white" stroke-width="1.5" pointer-events="none"/>
                </g>
                <g id="dirArrow">
                        <path fill="none" stroke="white" stroke-width="1.5" d="M0,-3.0v7 M-2.5,-0.5L0,-3.0L2.5,-0.5"/>
                </g>
               <g id="resetDef">
                       <use xlink:href="#rim2" fill="#404040">
                               <set attributeName="fill" to="#808080" begin="reset.mouseover" end="reset.mouseout"/>
                       </use>
               </g>
        </defs>

<script type="text/javascript">
var viewWidth = 900;
var viewHeight = 228;
var sectionId = 'dynsection-86';
</script>
<script xlink:href="../../svgpan.js"/>
<svg id="graph" class="graph">
<g id="viewport">
<title>Beam::joinFlexbodyTasks</title>
<polygon fill="white" stroke="none" points="-4,4 -4,-224 896,-224 896,4 -4,4"/>
<!-- Node2116 -->
<g id="node1" class="node"><title>Node2116</title>
<polygon fill="#bfbfbf" stroke="black" points="0,-113 0,-132 129,-132 129,-113 0,-113"/>
<text text-anchor="middle" x="64.5" y="-120" font-family="Helvetica,sans-Serif" font-size="10.00">Beam::joinFlexbodyTasks</text>
</g>
<!-- Node2117 -->
<g id="node2" class="node"><title>Node2117</title>
<g id="a_node2"><a xlink:href="../../df/df9/class_beam.html#aabe018af621de69910d145fe2967ad11" target="_top" xlink:title="Beam::IsNodeIdValid">
<polygon fill="white" stroke="black" points="192,-138 192,-157 299,-157 299,-138 192,-138"/>
<text text-anchor="middle" x="245.5" y="-145" font-family="Helvetica,sans-Serif" font-size="10.00">Beam::IsNodeIdValid</text>
</a>
</g>
</g>
<!-- Node2116&#45;&gt;Node2117 -->
<g id="edge1" class="edge"><title>Node2116&#45;&gt;Node2117</title>
<path fill="none" stroke="midnightblue" d="M139.341,-132.813C156.912,-135.267 175.315,-137.837 191.725,-140.129"/>
<polygon fill="midnightblue" stroke="midnightblue" points="139.501,-129.301 129.113,-131.384 138.532,-136.234 139.501,-129.301"/>
</g>
<!-- Node2123 -->
<g id="node8" class="node"><title>Node2123</title>
<g id="a_node8"><a xlink:href="../../d5/d53/class_ro_r_1_1_beam_factory.html#aad83a6e4fd6bf213dfa691a2635e58c4" target="_top" xlink:title="TIGHT&#45;LOOP; Logic: flexbodies. ">
<polygon fill="white" stroke="black" points="165,-82.5 165,-112.5 326,-112.5 326,-82.5 165,-82.5"/>
<text text-anchor="start" x="173" y="-100.5" font-family="Helvetica,sans-Serif" font-size="10.00">RoR::BeamFactory::joinFlexbody</text>
<text text-anchor="middle" x="245.5" y="-89.5" font-family="Helvetica,sans-Serif" font-size="10.00">Tasks</text>
</a>
</g>
</g>
<!-- Node2116&#45;&gt;Node2123 -->
<g id="edge7" class="edge"><title>Node2116&#45;&gt;Node2123</title>
<path fill="none" stroke="midnightblue" d="M139.271,-112.197C147.694,-111.02 156.309,-109.817 164.805,-108.631"/>
<polygon fill="midnightblue" stroke="midnightblue" points="138.532,-108.766 129.113,-113.616 139.501,-115.699 138.532,-108.766"/>
</g>
<!-- Node2118 -->
<g id="node3" class="node"><title>Node2118</title>
<g id="a_node3"><a xlink:href="../../dd/dbe/class_ro_r_frame_listener.html#a46c793a3229156a678a3829a6fe59be6" target="_top" xlink:title="RoRFrameListener::Update\lForceFeedback">
<polygon fill="white" stroke="black" points="377.5,-189.5 377.5,-219.5 511.5,-219.5 511.5,-189.5 377.5,-189.5"/>
<text text-anchor="start" x="385.5" y="-207.5" font-family="Helvetica,sans-Serif" font-size="10.00">RoRFrameListener::Update</text>
<text text-anchor="middle" x="444.5" y="-196.5" font-family="Helvetica,sans-Serif" font-size="10.00">ForceFeedback</text>
</a>
</g>
</g>
<!-- Node2117&#45;&gt;Node2118 -->
<g id="edge2" class="edge"><title>Node2117&#45;&gt;Node2118</title>
<path fill="none" stroke="midnightblue" d="M289.234,-159.865C319.261,-168.553 359.599,-180.224 391.496,-189.453"/>
<polygon fill="midnightblue" stroke="midnightblue" points="290.052,-156.458 279.473,-157.041 288.107,-163.182 290.052,-156.458"/>
</g>
<!-- Node2120 -->
<g id="node5" class="node"><title>Node2120</title>
<g id="a_node5"><a xlink:href="../../df/df9/class_beam.html#ab0cbc6c4e3822fc5786af2c8036f7efb" target="_top" xlink:title="Beam::LoadTruck">
<polygon fill="white" stroke="black" points="398,-138 398,-157 491,-157 491,-138 398,-138"/>
<text text-anchor="middle" x="444.5" y="-145" font-family="Helvetica,sans-Serif" font-size="10.00">Beam::LoadTruck</text>
</a>
</g>
</g>
<!-- Node2117&#45;&gt;Node2120 -->
<g id="edge4" class="edge"><title>Node2117&#45;&gt;Node2120</title>
<path fill="none" stroke="midnightblue" d="M309.387,-147.5C338.121,-147.5 371.528,-147.5 397.812,-147.5"/>
<polygon fill="midnightblue" stroke="midnightblue" points="309.034,-144 299.034,-147.5 309.034,-151 309.034,-144"/>
</g>
<!-- Node2119 -->
<g id="node4" class="node"><title>Node2119</title>
<g id="a_node4"><a xlink:href="../../dd/dbe/class_ro_r_frame_listener.html#acdda0026f9324c3b7f48568624e07115" target="_top" xlink:title="RoRFrameListener::frameStarted">
<polygon fill="white" stroke="black" points="733,-69 733,-88 892,-88 892,-69 733,-69"/>
<text text-anchor="middle" x="812.5" y="-76" font-family="Helvetica,sans-Serif" font-size="10.00">RoRFrameListener::frameStarted</text>
</a>
</g>
</g>
<!-- Node2118&#45;&gt;Node2119 -->
<g id="edge3" class="edge"><title>Node2118&#45;&gt;Node2119</title>
<path fill="none" stroke="midnightblue" d="M521.839,-214.754C573.457,-218.422 641.976,-216.772 697,-192.5 749.1,-169.518 790.57,-111.301 805.508,-88.1804"/>
<polygon fill="midnightblue" stroke="midnightblue" points="521.995,-211.255 511.75,-213.954 521.442,-218.233 521.995,-211.255"/>
</g>
<!-- Node2121 -->
<g id="node6" class="node"><title>Node2121</title>
<g id="a_node6"><a xlink:href="../../df/df9/class_beam.html#a0d55b25fa0d1623305f3ac51694cbd42" target="_top" xlink:title="Beam::Beam">
<polygon fill="white" stroke="black" points="593,-164 593,-183 667,-183 667,-164 593,-164"/>
<text text-anchor="middle" x="630" y="-171" font-family="Helvetica,sans-Serif" font-size="10.00">Beam::Beam</text>
</a>
</g>
</g>
<!-- Node2120&#45;&gt;Node2121 -->
<g id="edge5" class="edge"><title>Node2120&#45;&gt;Node2121</title>
<path fill="none" stroke="midnightblue" d="M501.571,-155.445C531.29,-159.656 566.924,-164.705 592.945,-168.391"/>
<polygon fill="midnightblue" stroke="midnightblue" points="501.724,-151.931 491.331,-153.994 500.742,-158.862 501.724,-151.931"/>
</g>
<!-- Node2122 -->
<g id="node7" class="node"><title>Node2122</title>
<g id="a_node7"><a xlink:href="../../df/df9/class_beam.html#a3176be8102041493ae018fd5d66607dd" target="_top" xlink:title="Beam::getVelocity">
<polygon fill="white" stroke="black" points="581.5,-126 581.5,-145 678.5,-145 678.5,-126 581.5,-126"/>
<text text-anchor="middle" x="630" y="-133" font-family="Helvetica,sans-Serif" font-size="10.00">Beam::getVelocity</text>
</a>
</g>
</g>
<!-- Node2120&#45;&gt;Node2122 -->
<g id="edge6" class="edge"><title>Node2120&#45;&gt;Node2122</title>
<path fill="none" stroke="midnightblue" d="M501.579,-143.833C527.031,-142.168 556.821,-140.22 581.194,-138.626"/>
<polygon fill="midnightblue" stroke="midnightblue" points="501.082,-140.358 491.331,-144.503 501.539,-147.343 501.082,-140.358"/>
</g>
<!-- Node2123&#45;&gt;Node2119 -->
<g id="edge8" class="edge"><title>Node2123&#45;&gt;Node2119</title>
<path fill="none" stroke="midnightblue" d="M336.27,-94.4812C445.582,-90.8052 628.471,-84.655 732.608,-81.153"/>
<polygon fill="midnightblue" stroke="midnightblue" points="336.129,-90.9838 326.252,-94.8181 336.364,-97.9799 336.129,-90.9838"/>
</g>
<!-- Node2124 -->
<g id="node9" class="node"><title>Node2124</title>
<g id="a_node9"><a xlink:href="../../d5/d53/class_ro_r_1_1_beam_factory.html#a5703b053d2b40e3dae66a063ded34578" target="_top" xlink:title="RoR::BeamFactory::getSimulation\lSpeed">
<polygon fill="white" stroke="black" points="362,-38.5 362,-68.5 527,-68.5 527,-38.5 362,-38.5"/>
<text text-anchor="start" x="370" y="-56.5" font-family="Helvetica,sans-Serif" font-size="10.00">RoR::BeamFactory::getSimulation</text>
<text text-anchor="middle" x="444.5" y="-45.5" font-family="Helvetica,sans-Serif" font-size="10.00">Speed</text>
</a>
</g>
</g>
<!-- Node2123&#45;&gt;Node2124 -->
<g id="edge9" class="edge"><title>Node2123&#45;&gt;Node2124</title>
<path fill="none" stroke="midnightblue" d="M323.815,-80.2316C341.128,-76.3648 359.357,-72.2934 376.224,-68.5262"/>
<polygon fill="midnightblue" stroke="midnightblue" points="322.742,-76.8851 313.745,-82.4808 324.268,-83.7167 322.742,-76.8851"/>
</g>
<!-- Node2124&#45;&gt;Node2119 -->
<g id="edge12" class="edge"><title>Node2124&#45;&gt;Node2119</title>
<path fill="none" stroke="midnightblue" d="M537.45,-59.7807C597.675,-63.8945 675.556,-69.2142 732.893,-73.1307"/>
<polygon fill="midnightblue" stroke="midnightblue" points="537.397,-56.2691 527.182,-59.0794 536.92,-63.2528 537.397,-56.2691"/>
</g>
<!-- Node2125 -->
<g id="node10" class="node"><title>Node2125</title>
<g id="a_node10"><a xlink:href="../../dd/dbe/class_ro_r_frame_listener.html#afec2a0f00ed552c21d22aae76329bf38" target="_top" xlink:title="RoRFrameListener::Update\lInputEvents">
<polygon fill="white" stroke="black" points="563,-0.5 563,-30.5 697,-30.5 697,-0.5 563,-0.5"/>
<text text-anchor="start" x="571" y="-18.5" font-family="Helvetica,sans-Serif" font-size="10.00">RoRFrameListener::Update</text>
<text text-anchor="middle" x="630" y="-7.5" font-family="Helvetica,sans-Serif" font-size="10.00">InputEvents</text>
</a>
</g>
</g>
<!-- Node2124&#45;&gt;Node2125 -->
<g id="edge10" class="edge"><title>Node2124&#45;&gt;Node2125</title>
<path fill="none" stroke="midnightblue" d="M527.837,-36.4492C539.599,-34.0136 551.569,-31.5348 562.963,-29.1752"/>
<polygon fill="midnightblue" stroke="midnightblue" points="527.107,-33.0262 518.024,-38.4814 528.526,-39.8808 527.107,-33.0262"/>
</g>
<!-- Node2125&#45;&gt;Node2119 -->
<g id="edge11" class="edge"><title>Node2125&#45;&gt;Node2119</title>
<path fill="none" stroke="midnightblue" d="M683.706,-33.896C716.56,-45.3631 757.492,-59.6496 784.045,-68.9175"/>
<polygon fill="midnightblue" stroke="midnightblue" points="684.829,-30.581 674.234,-30.5901 682.522,-37.19 684.829,-30.581"/>
</g>
</g>
</svg>
        <g id="navigator" transform="translate(0 0)" fill="#404254">
                <rect fill="#f2f5e9" fill-opacity="0.5" stroke="#606060" stroke-width=".5" x="0" y="0" width="60" height="60"/>
                <use id="zoomplus" xlink:href="#zoomPlus" x="17" y="9" onmousedown="handleZoom(evt,'in')"/>
                <use id="zoomminus" xlink:href="#zoomMin" x="42" y="9" onmousedown="handleZoom(evt,'out')"/>
                <use id="reset" xlink:href="#resetDef" x="30" y="36" onmousedown="handleReset()"/>
                <g id="arrowUp" xlink:href="#dirArrow" transform="translate(30 24)" onmousedown="handlePan(0,-1)">
                  <use xlink:href="#rim" fill="#404040">
                        <set attributeName="fill" to="#808080" begin="arrowUp.mouseover" end="arrowUp.mouseout"/>
                  </use>
                  <path fill="none" stroke="white" stroke-width="1.5" d="M0,-3.0v7 M-2.5,-0.5L0,-3.0L2.5,-0.5"/>
                </g>
                <g id="arrowRight" xlink:href="#dirArrow" transform="rotate(90) translate(36 -43)" onmousedown="handlePan(1,0)">
                  <use xlink:href="#rim" fill="#404040">
                        <set attributeName="fill" to="#808080" begin="arrowRight.mouseover" end="arrowRight.mouseout"/>
                  </use>
                  <path fill="none" stroke="white" stroke-width="1.5" d="M0,-3.0v7 M-2.5,-0.5L0,-3.0L2.5,-0.5"/>
                </g>
                <g id="arrowDown" xlink:href="#dirArrow" transform="rotate(180) translate(-30 -48)" onmousedown="handlePan(0,1)">
                  <use xlink:href="#rim" fill="#404040">
                        <set attributeName="fill" to="#808080" begin="arrowDown.mouseover" end="arrowDown.mouseout"/>
                  </use>
                  <path fill="none" stroke="white" stroke-width="1.5" d="M0,-3.0v7 M-2.5,-0.5L0,-3.0L2.5,-0.5"/>
                </g>
                <g id="arrowLeft" xlink:href="#dirArrow" transform="rotate(270) translate(-36 17)" onmousedown="handlePan(-1,0)">
                  <use xlink:href="#rim" fill="#404040">
                        <set attributeName="fill" to="#808080" begin="arrowLeft.mouseover" end="arrowLeft.mouseout"/>
                  </use>
                  <path fill="none" stroke="white" stroke-width="1.5" d="M0,-3.0v7 M-2.5,-0.5L0,-3.0L2.5,-0.5"/>
                </g>
        </g>
        <svg viewBox="0 0 15 15" width="100%" height="30px" preserveAspectRatio="xMaxYMin meet">
         <g id="arrow_out" transform="scale(0.3 0.3)">
          <a xlink:href="class_beam_a036152207b14fed59e2216c2dc16a2a8_icgraph_org.svg" target="_base">
           <rect id="button" ry="5" rx="5" y="6" x="6" height="38" width="38"
                fill="#f2f5e9" fill-opacity="0.5" stroke="#606060" stroke-width="1.0"/>
           <path id="arrow"
             d="M 11.500037,31.436501 C 11.940474,20.09759 22.043105,11.32322 32.158766,21.979434 L 37.068811,17.246167 C 37.068811,17.246167 37.088388,32 37.088388,32 L 22.160133,31.978069 C 22.160133,31.978069 26.997745,27.140456 26.997745,27.140456 C 18.528582,18.264221 13.291696,25.230495 11.500037,31.436501 z"
             style="fill:#404040;"/>
          </a>
         </g>
        </svg>
</svg>
