<?xml version="1.0" encoding="UTF-8" standalone="no"?>
<!DOCTYPE svg PUBLIC "-//W3C//DTD SVG 1.1//EN"
 "http://www.w3.org/Graphics/SVG/1.1/DTD/svg11.dtd">
<!-- Generated by graphviz version 2.38.0 (20140413.2041)
 -->
<!-- Title: Beam::resetPosition Pages: 1 -->
<svg width="864pt" height="247pt"
 viewBox="0.00 0.00 864.00 247.00" xmlns="http://www.w3.org/2000/svg" xmlns:xlink="http://www.w3.org/1999/xlink">
<g id="graph0" class="graph" transform="scale(1 1) rotate(0) translate(4 243)">
<title>Beam::resetPosition</title>
<polygon fill="white" stroke="none" points="-4,4 -4,-243 860,-243 860,4 -4,4"/>
<!-- Node2719 -->
<g id="node1" class="node"><title>Node2719</title>
<polygon fill="#bfbfbf" stroke="black" points="0,-107 0,-126 105,-126 105,-107 0,-107"/>
<text text-anchor="middle" x="52.5" y="-114" font-family="Helvetica,sans-Serif" font-size="10.00">Beam::resetPosition</text>
</g>
<!-- Node2720 -->
<g id="node2" class="node"><title>Node2720</title>
<g id="a_node2"><a xlink:href="../../dd/dbe/class_ro_r_frame_listener.html#abc123f9d1e56e13a72e5f80fdaa5a17e" target="_top" xlink:title="RoRFrameListener::Finalize\lTruckSpawning">
<polygon fill="white" stroke="black" points="340,-208.5 340,-238.5 477,-238.5 477,-208.5 340,-208.5"/>
<text text-anchor="start" x="348" y="-226.5" font-family="Helvetica,sans-Serif" font-size="10.00">RoRFrameListener::Finalize</text>
<text text-anchor="middle" x="408.5" y="-215.5" font-family="Helvetica,sans-Serif" font-size="10.00">TruckSpawning</text>
</a>
</g>
</g>
<!-- Node2719&#45;&gt;Node2720 -->
<g id="edge1" class="edge"><title>Node2719&#45;&gt;Node2720</title>
<path fill="none" stroke="midnightblue" d="M65.3118,-134.283C80.2054,-155.017 107.905,-188.373 141,-203.5 203.981,-232.287 284.108,-234.306 339.981,-230.984"/>
<polygon fill="midnightblue" stroke="midnightblue" points="68.1438,-132.225 59.5652,-126.007 62.3941,-136.217 68.1438,-132.225"/>
</g>
<!-- Node2723 -->
<g id="node5" class="node"><title>Node2723</title>
<g id="a_node5"><a xlink:href="../../d0/d9f/class_ro_r_1_1_console.html#a39381023fb19b10edfad9592ce2e1554" target="_top" xlink:title="RoR::Console::eventCommand\lAccept">
<polygon fill="white" stroke="black" points="141,-164.5 141,-194.5 290,-194.5 290,-164.5 141,-164.5"/>
<text text-anchor="start" x="149" y="-182.5" font-family="Helvetica,sans-Serif" font-size="10.00">RoR::Console::eventCommand</text>
<text text-anchor="middle" x="215.5" y="-171.5" font-family="Helvetica,sans-Serif" font-size="10.00">Accept</text>
</a>
</g>
</g>
<!-- Node2719&#45;&gt;Node2723 -->
<g id="edge4" class="edge"><title>Node2719&#45;&gt;Node2723</title>
<path fill="none" stroke="midnightblue" d="M83.4614,-130.235C100.242,-137.745 121.629,-147.014 141,-154.5 149.801,-157.901 159.284,-161.311 168.418,-164.472"/>
<polygon fill="midnightblue" stroke="midnightblue" points="84.7182,-126.963 74.1633,-126.044 81.8415,-133.344 84.7182,-126.963"/>
</g>
<!-- Node2725 -->
<g id="node7" class="node"><title>Node2725</title>
<g id="a_node7"><a xlink:href="../../df/df9/class_beam.html#ab0cbc6c4e3822fc5786af2c8036f7efb" target="_top" xlink:title="Beam::LoadTruck">
<polygon fill="white" stroke="black" points="169,-126 169,-145 262,-145 262,-126 169,-126"/>
<text text-anchor="middle" x="215.5" y="-133" font-family="Helvetica,sans-Serif" font-size="10.00">Beam::LoadTruck</text>
</a>
</g>
</g>
<!-- Node2719&#45;&gt;Node2725 -->
<g id="edge6" class="edge"><title>Node2719&#45;&gt;Node2725</title>
<path fill="none" stroke="midnightblue" d="M115.572,-123.825C133.266,-125.913 152.214,-128.15 168.744,-130.1"/>
<polygon fill="midnightblue" stroke="midnightblue" points="115.669,-120.313 105.328,-122.616 114.848,-127.264 115.669,-120.313"/>
</g>
<!-- Node2727 -->
<g id="node9" class="node"><title>Node2727</title>
<g id="a_node9"><a xlink:href="../../df/df9/class_beam.html#a3176be8102041493ae018fd5d66607dd" target="_top" xlink:title="Beam::getVelocity">
<polygon fill="white" stroke="black" points="360,-88 360,-107 457,-107 457,-88 360,-88"/>
<text text-anchor="middle" x="408.5" y="-95" font-family="Helvetica,sans-Serif" font-size="10.00">Beam::getVelocity</text>
</a>
</g>
</g>
<!-- Node2719&#45;&gt;Node2727 -->
<g id="edge10" class="edge"><title>Node2719&#45;&gt;Node2727</title>
<path fill="none" stroke="midnightblue" d="M115.736,-113.16C185.371,-109.422 296.665,-103.449 359.764,-100.062"/>
<polygon fill="midnightblue" stroke="midnightblue" points="115.152,-109.686 105.354,-113.717 115.527,-116.676 115.152,-109.686"/>
</g>
<!-- Node2728 -->
<g id="node10" class="node"><title>Node2728</title>
<g id="a_node10"><a xlink:href="../../df/df9/class_beam.html#aa2f4785d060499243482e165b6bcdd5f" target="_top" xlink:title="Beam::Beam">
<polygon fill="white" stroke="black" points="178.5,-50 178.5,-69 252.5,-69 252.5,-50 178.5,-50"/>
<text text-anchor="middle" x="215.5" y="-57" font-family="Helvetica,sans-Serif" font-size="10.00">Beam::Beam</text>
</a>
</g>
</g>
<!-- Node2719&#45;&gt;Node2728 -->
<g id="edge9" class="edge"><title>Node2719&#45;&gt;Node2728</title>
<path fill="none" stroke="midnightblue" d="M87.4699,-103.282C103.623,-97.1008 123.243,-89.744 141,-83.5 155.183,-78.5127 171.024,-73.2956 184.358,-69.0043"/>
<polygon fill="midnightblue" stroke="midnightblue" points="85.9858,-100.103 77.9078,-106.958 88.4977,-106.636 85.9858,-100.103"/>
</g>
<!-- Node2729 -->
<g id="node11" class="node"><title>Node2729</title>
<g id="a_node11"><a xlink:href="../../d5/d53/class_ro_r_1_1_beam_factory.html#a508cb7a834236ed7786f780bbe6f84f6" target="_top" xlink:title="RoR::BeamFactory::repair\lTruck">
<polygon fill="white" stroke="black" points="150.5,-0.5 150.5,-30.5 280.5,-30.5 280.5,-0.5 150.5,-0.5"/>
<text text-anchor="start" x="158.5" y="-18.5" font-family="Helvetica,sans-Serif" font-size="10.00">RoR::BeamFactory::repair</text>
<text text-anchor="middle" x="215.5" y="-7.5" font-family="Helvetica,sans-Serif" font-size="10.00">Truck</text>
</a>
</g>
</g>
<!-- Node2719&#45;&gt;Node2729 -->
<g id="edge11" class="edge"><title>Node2719&#45;&gt;Node2729</title>
<path fill="none" stroke="midnightblue" d="M69.1927,-99.4432C85.6457,-82.4425 112.963,-56.6093 141,-40.5 147.544,-36.7397 154.743,-33.4282 161.996,-30.5491"/>
<polygon fill="midnightblue" stroke="midnightblue" points="66.3713,-97.3322 62.033,-106.998 71.4521,-102.147 66.3713,-97.3322"/>
</g>
<!-- Node2721 -->
<g id="node3" class="node"><title>Node2721</title>
<g id="a_node3"><a xlink:href="../../dd/dbe/class_ro_r_frame_listener.html#afec2a0f00ed552c21d22aae76329bf38" target="_top" xlink:title="RoRFrameListener::Update\lInputEvents">
<polygon fill="white" stroke="black" points="527,-63.5 527,-93.5 661,-93.5 661,-63.5 527,-63.5"/>
<text text-anchor="start" x="535" y="-81.5" font-family="Helvetica,sans-Serif" font-size="10.00">RoRFrameListener::Update</text>
<text text-anchor="middle" x="594" y="-70.5" font-family="Helvetica,sans-Serif" font-size="10.00">InputEvents</text>
</a>
</g>
</g>
<!-- Node2720&#45;&gt;Node2721 -->
<g id="edge2" class="edge"><title>Node2720&#45;&gt;Node2721</title>
<path fill="none" stroke="midnightblue" d="M481.283,-204.13C484.653,-202.404 487.913,-200.531 491,-198.5 533.713,-170.395 568.451,-119.32 584.073,-93.8284"/>
<polygon fill="midnightblue" stroke="midnightblue" points="479.749,-200.983 472.148,-208.364 482.693,-207.334 479.749,-200.983"/>
</g>
<!-- Node2722 -->
<g id="node4" class="node"><title>Node2722</title>
<g id="a_node4"><a xlink:href="../../dd/dbe/class_ro_r_frame_listener.html#acdda0026f9324c3b7f48568624e07115" target="_top" xlink:title="RoRFrameListener::frameStarted">
<polygon fill="white" stroke="black" points="697,-47 697,-66 856,-66 856,-47 697,-47"/>
<text text-anchor="middle" x="776.5" y="-54" font-family="Helvetica,sans-Serif" font-size="10.00">RoRFrameListener::frameStarted</text>
</a>
</g>
</g>
<!-- Node2721&#45;&gt;Node2722 -->
<g id="edge3" class="edge"><title>Node2721&#45;&gt;Node2722</title>
<path fill="none" stroke="midnightblue" d="M671.239,-69.2077C679.888,-68.1535 688.713,-67.0779 697.386,-66.0208"/>
<polygon fill="midnightblue" stroke="midnightblue" points="670.69,-65.7487 661.187,-70.4329 671.537,-72.6973 670.69,-65.7487"/>
</g>
<!-- Node2724 -->
<g id="node6" class="node"><title>Node2724</title>
<g id="a_node6"><a xlink:href="../../d0/d9f/class_ro_r_1_1_console.html#aba16cfd9f0894eb1312b1bc1155b6646" target="_top" xlink:title="RoR::Console::Console">
<polygon fill="white" stroke="black" points="349.5,-170 349.5,-189 467.5,-189 467.5,-170 349.5,-170"/>
<text text-anchor="middle" x="408.5" y="-177" font-family="Helvetica,sans-Serif" font-size="10.00">RoR::Console::Console</text>
</a>
</g>
</g>
<!-- Node2723&#45;&gt;Node2724 -->
<g id="edge5" class="edge"><title>Node2723&#45;&gt;Node2724</title>
<path fill="none" stroke="midnightblue" d="M300.303,-179.5C316.862,-179.5 333.898,-179.5 349.378,-179.5"/>
<polygon fill="midnightblue" stroke="midnightblue" points="300.072,-176 290.072,-179.5 300.072,-183 300.072,-176"/>
</g>
<!-- Node2726 -->
<g id="node8" class="node"><title>Node2726</title>
<g id="a_node8"><a xlink:href="../../df/df9/class_beam.html#a0d55b25fa0d1623305f3ac51694cbd42" target="_top" xlink:title="Beam::Beam">
<polygon fill="white" stroke="black" points="371.5,-126 371.5,-145 445.5,-145 445.5,-126 371.5,-126"/>
<text text-anchor="middle" x="408.5" y="-133" font-family="Helvetica,sans-Serif" font-size="10.00">Beam::Beam</text>
</a>
</g>
</g>
<!-- Node2725&#45;&gt;Node2726 -->
<g id="edge7" class="edge"><title>Node2725&#45;&gt;Node2726</title>
<path fill="none" stroke="midnightblue" d="M272.346,-135.5C304.294,-135.5 343.442,-135.5 371.366,-135.5"/>
<polygon fill="midnightblue" stroke="midnightblue" points="272.249,-132 262.249,-135.5 272.249,-139 272.249,-132"/>
</g>
<!-- Node2725&#45;&gt;Node2727 -->
<g id="edge8" class="edge"><title>Node2725&#45;&gt;Node2727</title>
<path fill="none" stroke="midnightblue" d="M272.21,-124.416C299.979,-118.892 333.214,-112.279 359.794,-106.991"/>
<polygon fill="midnightblue" stroke="midnightblue" points="271.374,-121.014 262.249,-126.398 272.74,-127.879 271.374,-121.014"/>
</g>
<!-- Node2730 -->
<g id="node12" class="node"><title>Node2730</title>
<g id="a_node12"><a xlink:href="../../d5/d53/class_ro_r_1_1_beam_factory.html#a5703b053d2b40e3dae66a063ded34578" target="_top" xlink:title="RoR::BeamFactory::getSimulation\lSpeed">
<polygon fill="white" stroke="black" points="326,-19.5 326,-49.5 491,-49.5 491,-19.5 326,-19.5"/>
<text text-anchor="start" x="334" y="-37.5" font-family="Helvetica,sans-Serif" font-size="10.00">RoR::BeamFactory::getSimulation</text>
<text text-anchor="middle" x="408.5" y="-26.5" font-family="Helvetica,sans-Serif" font-size="10.00">Speed</text>
</a>
</g>
</g>
<!-- Node2729&#45;&gt;Node2730 -->
<g id="edge12" class="edge"><title>Node2729&#45;&gt;Node2730</title>
<path fill="none" stroke="midnightblue" d="M290.652,-22.8763C302.203,-24.0254 314.193,-25.2182 325.899,-26.3827"/>
<polygon fill="midnightblue" stroke="midnightblue" points="290.929,-19.3867 280.632,-21.8796 290.236,-26.3524 290.929,-19.3867"/>
</g>
<!-- Node2730&#45;&gt;Node2721 -->
<g id="edge13" class="edge"><title>Node2730&#45;&gt;Node2721</title>
<path fill="none" stroke="midnightblue" d="M481.97,-51.8769C497.961,-55.7112 514.77,-59.7418 530.334,-63.4738"/>
<polygon fill="midnightblue" stroke="midnightblue" points="482.678,-48.4475 472.137,-49.5192 481.045,-55.2546 482.678,-48.4475"/>
</g>
<!-- Node2730&#45;&gt;Node2722 -->
<g id="edge14" class="edge"><title>Node2730&#45;&gt;Node2722</title>
<path fill="none" stroke="midnightblue" d="M501.45,-40.027C561.675,-43.6471 639.556,-48.3285 696.893,-51.775"/>
<polygon fill="midnightblue" stroke="midnightblue" points="501.374,-36.5163 491.182,-39.4098 500.954,-43.5036 501.374,-36.5163"/>
</g>
</g>
</svg>
