<?xml version="1.0" encoding="UTF-8" standalone="no"?>
<!DOCTYPE svg PUBLIC "-//W3C//DTD SVG 1.1//EN"
 "http://www.w3.org/Graphics/SVG/1.1/DTD/svg11.dtd">
<!-- Generated by graphviz version 2.38.0 (20140413.2041)
 -->
<!-- Title: Beam::resolveCollisions Pages: 1 -->
<!--zoomable 138 -->
<svg id="main" version="1.1" xmlns="http://www.w3.org/2000/svg" xmlns:xlink="http://www.w3.org/1999/xlink" xml:space="preserve" onload="init(evt)">
<style type="text/css"><![CDATA[
.edge:hover path { stroke: red; }
.edge:hover polygon { stroke: red; fill: red; }
]]></style>
<script type="text/javascript"><![CDATA[
var edges = document.getElementsByTagName('g');
if (edges && edges.length) {
  for (var i=0;i<edges.length;i++) {
    if (edges[i].id.substr(0,4)=='edge') {
      edges[i].setAttribute('class','edge');
    }
  }
}
]]></script>
        <defs>
                <circle id="rim" cx="0" cy="0" r="7"/>
                <circle id="rim2" cx="0" cy="0" r="3.5"/>
                <g id="zoomPlus">
                        <use xlink:href="#rim" fill="#404040">
                                <set attributeName="fill" to="#808080" begin="zoomplus.mouseover" end="zoomplus.mouseout"/>
                        </use>
                        <path d="M-4,0h8M0,-4v8" fill="none" stroke="white" stroke-width="1.5" pointer-events="none"/>
                </g>
                <g id="zoomMin">
                        <use xlink:href="#rim" fill="#404040">
                                <set attributeName="fill" to="#808080" begin="zoomminus.mouseover" end="zoomminus.mouseout"/>
                        </use>
                        <path d="M-4,0h8" fill="none" stroke="white" stroke-width="1.5" pointer-events="none"/>
                </g>
                <g id="dirArrow">
                        <path fill="none" stroke="white" stroke-width="1.5" d="M0,-3.0v7 M-2.5,-0.5L0,-3.0L2.5,-0.5"/>
                </g>
               <g id="resetDef">
                       <use xlink:href="#rim2" fill="#404040">
                               <set attributeName="fill" to="#808080" begin="reset.mouseover" end="reset.mouseout"/>
                       </use>
               </g>
        </defs>

<script type="text/javascript">
var viewWidth = 836;
var viewHeight = 138;
var sectionId = 'dynsection-107';
</script>
<script xlink:href="../../svgpan.js"/>
<svg id="graph" class="graph">
<g id="viewport">
<title>Beam::resolveCollisions</title>
<polygon fill="white" stroke="none" points="-4,4 -4,-133.5 832,-133.5 832,4 -4,4"/>
<!-- Node2738 -->
<g id="node1" class="node"><title>Node2738</title>
<polygon fill="#bfbfbf" stroke="black" points="0,-55.5 0,-74.5 120,-74.5 120,-55.5 0,-55.5"/>
<text text-anchor="middle" x="60" y="-62.5" font-family="Helvetica,sans-Serif" font-size="10.00">Beam::resolveCollisions</text>
</g>
<!-- Node2739 -->
<g id="node2" class="node"><title>Node2739</title>
<g id="a_node2"><a xlink:href="../../dd/dbe/class_ro_r_frame_listener.html#abc123f9d1e56e13a72e5f80fdaa5a17e" target="_top" xlink:title="RoRFrameListener::Finalize\lTruckSpawning">
<polygon fill="white" stroke="black" points="156,-99 156,-129 293,-129 293,-99 156,-99"/>
<text text-anchor="start" x="164" y="-117" font-family="Helvetica,sans-Serif" font-size="10.00">RoRFrameListener::Finalize</text>
<text text-anchor="middle" x="224.5" y="-106" font-family="Helvetica,sans-Serif" font-size="10.00">TruckSpawning</text>
</a>
</g>
</g>
<!-- Node2738&#45;&gt;Node2739 -->
<g id="edge1" class="edge"><title>Node2738&#45;&gt;Node2739</title>
<path fill="none" stroke="midnightblue" d="M102.302,-77.4541C124.008,-83.9992 150.777,-92.0713 173.633,-98.963"/>
<polygon fill="midnightblue" stroke="midnightblue" points="103.302,-74.1001 92.7174,-74.564 101.281,-80.802 103.302,-74.1001"/>
</g>
<!-- Node2742 -->
<g id="node5" class="node"><title>Node2742</title>
<g id="a_node5"><a xlink:href="../../df/df9/class_beam.html#a97d790f2b5c6c2385913c2e57af947e4" target="_top" xlink:title="Beam::calculateCollision\lOffset">
<polygon fill="white" stroke="black" points="162.5,-50 162.5,-80 286.5,-80 286.5,-50 162.5,-50"/>
<text text-anchor="start" x="170.5" y="-68" font-family="Helvetica,sans-Serif" font-size="10.00">Beam::calculateCollision</text>
<text text-anchor="middle" x="224.5" y="-57" font-family="Helvetica,sans-Serif" font-size="10.00">Offset</text>
</a>
</g>
</g>
<!-- Node2738&#45;&gt;Node2742 -->
<g id="edge4" class="edge"><title>Node2738&#45;&gt;Node2742</title>
<path fill="none" stroke="midnightblue" d="M130.217,-65C140.858,-65 151.781,-65 162.233,-65"/>
<polygon fill="midnightblue" stroke="midnightblue" points="130.126,-61.5001 120.126,-65 130.126,-68.5001 130.126,-61.5001"/>
</g>
<!-- Node2743 -->
<g id="node6" class="node"><title>Node2743</title>
<g id="a_node6"><a xlink:href="../../df/df9/class_beam.html#aabe018af621de69910d145fe2967ad11" target="_top" xlink:title="Beam::IsNodeIdValid">
<polygon fill="white" stroke="black" points="342.5,-35.5 342.5,-54.5 449.5,-54.5 449.5,-35.5 342.5,-35.5"/>
<text text-anchor="middle" x="396" y="-42.5" font-family="Helvetica,sans-Serif" font-size="10.00">Beam::IsNodeIdValid</text>
</a>
</g>
</g>
<!-- Node2738&#45;&gt;Node2743 -->
<g id="edge11" class="edge"><title>Node2738&#45;&gt;Node2743</title>
<path fill="none" stroke="midnightblue" d="M99.3714,-52.4969C116.5,-47.5437 137.054,-42.4512 156,-40 219.591,-31.7728 293.477,-35.2973 342.07,-39.3854"/>
<polygon fill="midnightblue" stroke="midnightblue" points="98.3026,-49.1632 89.7206,-55.3761 100.304,-55.8711 98.3026,-49.1632"/>
</g>
<!-- Node2740 -->
<g id="node3" class="node"><title>Node2740</title>
<g id="a_node3"><a xlink:href="../../dd/dbe/class_ro_r_frame_listener.html#afec2a0f00ed552c21d22aae76329bf38" target="_top" xlink:title="RoRFrameListener::Update\lInputEvents">
<polygon fill="white" stroke="black" points="329,-99 329,-129 463,-129 463,-99 329,-99"/>
<text text-anchor="start" x="337" y="-117" font-family="Helvetica,sans-Serif" font-size="10.00">RoRFrameListener::Update</text>
<text text-anchor="middle" x="396" y="-106" font-family="Helvetica,sans-Serif" font-size="10.00">InputEvents</text>
</a>
</g>
</g>
<!-- Node2739&#45;&gt;Node2740 -->
<g id="edge2" class="edge"><title>Node2739&#45;&gt;Node2740</title>
<path fill="none" stroke="midnightblue" d="M303.698,-114C312.14,-114 320.67,-114 328.949,-114"/>
<polygon fill="midnightblue" stroke="midnightblue" points="303.466,-110.5 293.465,-114 303.465,-117.5 303.466,-110.5"/>
</g>
<!-- Node2741 -->
<g id="node4" class="node"><title>Node2741</title>
<g id="a_node4"><a xlink:href="../../dd/dbe/class_ro_r_frame_listener.html#acdda0026f9324c3b7f48568624e07115" target="_top" xlink:title="RoRFrameListener::frameStarted">
<polygon fill="white" stroke="black" points="669,-90.5 669,-109.5 828,-109.5 828,-90.5 669,-90.5"/>
<text text-anchor="middle" x="748.5" y="-97.5" font-family="Helvetica,sans-Serif" font-size="10.00">RoRFrameListener::frameStarted</text>
</a>
</g>
</g>
<!-- Node2740&#45;&gt;Node2741 -->
<g id="edge3" class="edge"><title>Node2740&#45;&gt;Node2741</title>
<path fill="none" stroke="midnightblue" d="M473.519,-110.944C531.366,-108.633 610.515,-105.472 668.871,-103.141"/>
<polygon fill="midnightblue" stroke="midnightblue" points="473.191,-107.454 463.338,-111.35 473.47,-114.448 473.191,-107.454"/>
</g>
<!-- Node2742&#45;&gt;Node2743 -->
<g id="edge5" class="edge"><title>Node2742&#45;&gt;Node2743</title>
<path fill="none" stroke="midnightblue" d="M296.639,-56.606C311.939,-54.8007 327.848,-52.9236 342.298,-51.2185"/>
<polygon fill="midnightblue" stroke="midnightblue" points="296.214,-53.1318 286.693,-57.7795 297.035,-60.0835 296.214,-53.1318"/>
</g>
<!-- Node2744 -->
<g id="node7" class="node"><title>Node2744</title>
<g id="a_node7"><a xlink:href="../../dd/dbe/class_ro_r_frame_listener.html#a46c793a3229156a678a3829a6fe59be6" target="_top" xlink:title="RoRFrameListener::Update\lForceFeedback">
<polygon fill="white" stroke="black" points="499,-55 499,-85 633,-85 633,-55 499,-55"/>
<text text-anchor="start" x="507" y="-73" font-family="Helvetica,sans-Serif" font-size="10.00">RoRFrameListener::Update</text>
<text text-anchor="middle" x="566" y="-62" font-family="Helvetica,sans-Serif" font-size="10.00">ForceFeedback</text>
</a>
</g>
</g>
<!-- Node2743&#45;&gt;Node2744 -->
<g id="edge6" class="edge"><title>Node2743&#45;&gt;Node2744</title>
<path fill="none" stroke="midnightblue" d="M459.76,-54.3392C472.527,-56.2391 485.995,-58.2433 498.875,-60.16"/>
<polygon fill="midnightblue" stroke="midnightblue" points="460.102,-50.8517 449.695,-52.8416 459.071,-57.7754 460.102,-50.8517"/>
</g>
<!-- Node2745 -->
<g id="node8" class="node"><title>Node2745</title>
<g id="a_node8"><a xlink:href="../../df/df9/class_beam.html#ab0cbc6c4e3822fc5786af2c8036f7efb" target="_top" xlink:title="Beam::LoadTruck">
<polygon fill="white" stroke="black" points="519.5,-16.5 519.5,-35.5 612.5,-35.5 612.5,-16.5 519.5,-16.5"/>
<text text-anchor="middle" x="566" y="-23.5" font-family="Helvetica,sans-Serif" font-size="10.00">Beam::LoadTruck</text>
</a>
</g>
</g>
<!-- Node2743&#45;&gt;Node2745 -->
<g id="edge8" class="edge"><title>Node2743&#45;&gt;Node2745</title>
<path fill="none" stroke="midnightblue" d="M459.839,-37.8932C479.576,-35.661 500.98,-33.2403 519.294,-31.1691"/>
<polygon fill="midnightblue" stroke="midnightblue" points="459.239,-34.4387 449.695,-39.0404 460.025,-41.3944 459.239,-34.4387"/>
</g>
<!-- Node2744&#45;&gt;Node2741 -->
<g id="edge7" class="edge"><title>Node2744&#45;&gt;Node2741</title>
<path fill="none" stroke="midnightblue" d="M643.398,-82.6978C659.095,-85.3066 675.364,-88.0107 690.245,-90.484"/>
<polygon fill="midnightblue" stroke="midnightblue" points="643.625,-79.1875 633.187,-81.0005 642.477,-86.0928 643.625,-79.1875"/>
</g>
<!-- Node2746 -->
<g id="node9" class="node"><title>Node2746</title>
<g id="a_node9"><a xlink:href="../../df/df9/class_beam.html#a0d55b25fa0d1623305f3ac51694cbd42" target="_top" xlink:title="Beam::Beam">
<polygon fill="white" stroke="black" points="711.5,-38.5 711.5,-57.5 785.5,-57.5 785.5,-38.5 711.5,-38.5"/>
<text text-anchor="middle" x="748.5" y="-45.5" font-family="Helvetica,sans-Serif" font-size="10.00">Beam::Beam</text>
</a>
</g>
</g>
<!-- Node2745&#45;&gt;Node2746 -->
<g id="edge9" class="edge"><title>Node2745&#45;&gt;Node2746</title>
<path fill="none" stroke="midnightblue" d="M622.512,-32.766C651.411,-36.2883 685.918,-40.4942 711.346,-43.5934"/>
<polygon fill="midnightblue" stroke="midnightblue" points="622.898,-29.2872 612.548,-31.5515 622.051,-36.2358 622.898,-29.2872"/>
</g>
<!-- Node2747 -->
<g id="node10" class="node"><title>Node2747</title>
<g id="a_node10"><a xlink:href="../../df/df9/class_beam.html#a3176be8102041493ae018fd5d66607dd" target="_top" xlink:title="Beam::getVelocity">
<polygon fill="white" stroke="black" points="700,-0.5 700,-19.5 797,-19.5 797,-0.5 700,-0.5"/>
<text text-anchor="middle" x="748.5" y="-7.5" font-family="Helvetica,sans-Serif" font-size="10.00">Beam::getVelocity</text>
</a>
</g>
</g>
<!-- Node2745&#45;&gt;Node2747 -->
<g id="edge10" class="edge"><title>Node2745&#45;&gt;Node2747</title>
<path fill="none" stroke="midnightblue" d="M622.834,-21.0507C647.471,-18.8668 676.133,-16.3261 699.758,-14.2319"/>
<polygon fill="midnightblue" stroke="midnightblue" points="622.2,-17.5931 612.548,-21.9625 622.818,-24.5658 622.2,-17.5931"/>
</g>
</g>
</svg>
        <g id="navigator" transform="translate(0 0)" fill="#404254">
                <rect fill="#f2f5e9" fill-opacity="0.5" stroke="#606060" stroke-width=".5" x="0" y="0" width="60" height="60"/>
                <use id="zoomplus" xlink:href="#zoomPlus" x="17" y="9" onmousedown="handleZoom(evt,'in')"/>
                <use id="zoomminus" xlink:href="#zoomMin" x="42" y="9" onmousedown="handleZoom(evt,'out')"/>
                <use id="reset" xlink:href="#resetDef" x="30" y="36" onmousedown="handleReset()"/>
                <g id="arrowUp" xlink:href="#dirArrow" transform="translate(30 24)" onmousedown="handlePan(0,-1)">
                  <use xlink:href="#rim" fill="#404040">
                        <set attributeName="fill" to="#808080" begin="arrowUp.mouseover" end="arrowUp.mouseout"/>
                  </use>
                  <path fill="none" stroke="white" stroke-width="1.5" d="M0,-3.0v7 M-2.5,-0.5L0,-3.0L2.5,-0.5"/>
                </g>
                <g id="arrowRight" xlink:href="#dirArrow" transform="rotate(90) translate(36 -43)" onmousedown="handlePan(1,0)">
                  <use xlink:href="#rim" fill="#404040">
                        <set attributeName="fill" to="#808080" begin="arrowRight.mouseover" end="arrowRight.mouseout"/>
                  </use>
                  <path fill="none" stroke="white" stroke-width="1.5" d="M0,-3.0v7 M-2.5,-0.5L0,-3.0L2.5,-0.5"/>
                </g>
                <g id="arrowDown" xlink:href="#dirArrow" transform="rotate(180) translate(-30 -48)" onmousedown="handlePan(0,1)">
                  <use xlink:href="#rim" fill="#404040">
                        <set attributeName="fill" to="#808080" begin="arrowDown.mouseover" end="arrowDown.mouseout"/>
                  </use>
                  <path fill="none" stroke="white" stroke-width="1.5" d="M0,-3.0v7 M-2.5,-0.5L0,-3.0L2.5,-0.5"/>
                </g>
                <g id="arrowLeft" xlink:href="#dirArrow" transform="rotate(270) translate(-36 17)" onmousedown="handlePan(-1,0)">
                  <use xlink:href="#rim" fill="#404040">
                        <set attributeName="fill" to="#808080" begin="arrowLeft.mouseover" end="arrowLeft.mouseout"/>
                  </use>
                  <path fill="none" stroke="white" stroke-width="1.5" d="M0,-3.0v7 M-2.5,-0.5L0,-3.0L2.5,-0.5"/>
                </g>
        </g>
        <svg viewBox="0 0 15 15" width="100%" height="30px" preserveAspectRatio="xMaxYMin meet">
         <g id="arrow_out" transform="scale(0.3 0.3)">
          <a xlink:href="class_beam_a5c084695a06ee65598bdb046e3c9cabb_icgraph_org.svg" target="_base">
           <rect id="button" ry="5" rx="5" y="6" x="6" height="38" width="38"
                fill="#f2f5e9" fill-opacity="0.5" stroke="#606060" stroke-width="1.0"/>
           <path id="arrow"
             d="M 11.500037,31.436501 C 11.940474,20.09759 22.043105,11.32322 32.158766,21.979434 L 37.068811,17.246167 C 37.068811,17.246167 37.088388,32 37.088388,32 L 22.160133,31.978069 C 22.160133,31.978069 26.997745,27.140456 26.997745,27.140456 C 18.528582,18.264221 13.291696,25.230495 11.500037,31.436501 z"
             style="fill:#404040;"/>
          </a>
         </g>
        </svg>
</svg>
