<?xml version="1.0" encoding="UTF-8" standalone="no"?>
<!DOCTYPE svg PUBLIC "-//W3C//DTD SVG 1.1//EN"
 "http://www.w3.org/Graphics/SVG/1.1/DTD/svg11.dtd">
<!-- Generated by graphviz version 2.38.0 (20140413.2041)
 -->
<!-- Title: CameraBehaviorVehicleCineCam::switchBehavior Pages: 1 -->
<svg width="314pt" height="66pt"
 viewBox="0.00 0.00 314.00 66.00" xmlns="http://www.w3.org/2000/svg" xmlns:xlink="http://www.w3.org/1999/xlink">
<g id="graph0" class="graph" transform="scale(1 1) rotate(0) translate(4 62)">
<title>CameraBehaviorVehicleCineCam::switchBehavior</title>
<polygon fill="white" stroke="none" points="-4,4 -4,-62 310,-62 310,4 -4,4"/>
<!-- Node30 -->
<g id="node1" class="node"><title>Node30</title>
<polygon fill="#bfbfbf" stroke="black" points="0,-14 0,-44 139,-44 139,-14 0,-14"/>
<text text-anchor="start" x="8" y="-32" font-family="Helvetica,sans-Serif" font-size="10.00">CameraBehaviorVehicleCine</text>
<text text-anchor="middle" x="69.5" y="-21" font-family="Helvetica,sans-Serif" font-size="10.00">Cam::switchBehavior</text>
</g>
<!-- Node31 -->
<g id="node2" class="node"><title>Node31</title>
<g id="a_node2"><a xlink:href="../../df/df9/class_beam.html#a39d38800d5ab3b85b305d94b2c8ea502" target="_top" xlink:title="Beam::GetCameraContext">
<polygon fill="white" stroke="black" points="175,-38.5 175,-57.5 306,-57.5 306,-38.5 175,-38.5"/>
<text text-anchor="middle" x="240.5" y="-45.5" font-family="Helvetica,sans-Serif" font-size="10.00">Beam::GetCameraContext</text>
</a>
</g>
</g>
<!-- Node30&#45;&gt;Node31 -->
<g id="edge1" class="edge"><title>Node30&#45;&gt;Node31</title>
<path fill="none" stroke="midnightblue" d="M139.239,-36.728C147.712,-37.6806 156.404,-38.6578 164.958,-39.6196"/>
<polygon fill="midnightblue" stroke="midnightblue" points="164.587,-43.0998 174.915,-40.739 165.369,-36.1436 164.587,-43.0998"/>
</g>
<!-- Node32 -->
<g id="node3" class="node"><title>Node32</title>
<g id="a_node3"><a xlink:href="../../df/df9/class_beam.html#a23fbbd95dce6d7440124a59ff905e4d5" target="_top" xlink:title="Beam::changedCamera">
<polygon fill="white" stroke="black" points="181,-0.5 181,-19.5 300,-19.5 300,-0.5 181,-0.5"/>
<text text-anchor="middle" x="240.5" y="-7.5" font-family="Helvetica,sans-Serif" font-size="10.00">Beam::changedCamera</text>
</a>
</g>
</g>
<!-- Node30&#45;&gt;Node32 -->
<g id="edge2" class="edge"><title>Node30&#45;&gt;Node32</title>
<path fill="none" stroke="midnightblue" d="M139.239,-21.272C149.588,-20.1084 160.264,-18.9082 170.617,-17.7443"/>
<polygon fill="midnightblue" stroke="midnightblue" points="171.29,-21.1907 180.837,-16.5953 170.508,-14.2345 171.29,-21.1907"/>
</g>
</g>
</svg>
