<?xml version="1.0" encoding="UTF-8" standalone="no"?>
<!DOCTYPE svg PUBLIC "-//W3C//DTD SVG 1.1//EN"
 "http://www.w3.org/Graphics/SVG/1.1/DTD/svg11.dtd">
<!-- Generated by graphviz version 2.38.0 (20140413.2041)
 -->
<!-- Title: source/main/utils/Utils.h Pages: 1 -->
<svg width="5695pt" height="106pt"
 viewBox="0.00 0.00 5694.50 106.00" xmlns="http://www.w3.org/2000/svg" xmlns:xlink="http://www.w3.org/1999/xlink">
<g id="graph0" class="graph" transform="scale(1 1) rotate(0) translate(4 102)">
<title>source/main/utils/Utils.h</title>
<polygon fill="white" stroke="none" points="-4,4 -4,-102 5690.5,-102 5690.5,4 -4,4"/>
<!-- Node26 -->
<g id="node1" class="node"><title>Node26</title>
<polygon fill="#bfbfbf" stroke="black" points="2782.5,-78.5 2782.5,-97.5 2904.5,-97.5 2904.5,-78.5 2782.5,-78.5"/>
<text text-anchor="middle" x="2843.5" y="-85.5" font-family="Helvetica,sans-Serif" font-size="10.00">source/main/utils/Utils.h</text>
</g>
<!-- Node27 -->
<g id="node2" class="node"><title>Node27</title>
<g id="a_node2"><a xlink:href="../../d0/dbf/_character_8cpp.html" target="_top" xlink:title="source/main/gameplay\l/Character.cpp">
<polygon fill="white" stroke="black" points="0,-6 0,-36 115,-36 115,-6 0,-6"/>
<text text-anchor="start" x="8" y="-24" font-family="Helvetica,sans-Serif" font-size="10.00">source/main/gameplay</text>
<text text-anchor="middle" x="57.5" y="-13" font-family="Helvetica,sans-Serif" font-size="10.00">/Character.cpp</text>
</a>
</g>
</g>
<!-- Node26&#45;&gt;Node27 -->
<g id="edge1" class="edge"><title>Node26&#45;&gt;Node27</title>
<path fill="none" stroke="midnightblue" d="M2772.45,-87.002C2370.65,-86.8564 391.597,-83.9977 123.5,-42 114.983,-40.6659 106.037,-38.5001 97.5755,-36.0761"/>
<polygon fill="midnightblue" stroke="midnightblue" points="2772.49,-90.5019 2782.49,-87.0052 2772.49,-83.5019 2772.49,-90.5019"/>
</g>
<!-- Node28 -->
<g id="node3" class="node"><title>Node28</title>
<g id="a_node3"><a xlink:href="../../d2/d2f/_chat_system_8cpp.html" target="_top" xlink:title="source/main/gameplay\l/ChatSystem.cpp">
<polygon fill="white" stroke="black" points="133,-6 133,-36 248,-36 248,-6 133,-6"/>
<text text-anchor="start" x="141" y="-24" font-family="Helvetica,sans-Serif" font-size="10.00">source/main/gameplay</text>
<text text-anchor="middle" x="190.5" y="-13" font-family="Helvetica,sans-Serif" font-size="10.00">/ChatSystem.cpp</text>
</a>
</g>
</g>
<!-- Node26&#45;&gt;Node28 -->
<g id="edge2" class="edge"><title>Node26&#45;&gt;Node28</title>
<path fill="none" stroke="midnightblue" d="M2772.2,-86.9363C2381.7,-86.4302 510.655,-81.9245 256.5,-42 247.984,-40.6622 239.037,-38.4949 230.576,-36.0705"/>
<polygon fill="midnightblue" stroke="midnightblue" points="2772.23,-90.4362 2782.23,-86.9488 2772.24,-83.4362 2772.23,-90.4362"/>
</g>
<!-- Node29 -->
<g id="node4" class="node"><title>Node29</title>
<g id="a_node4"><a xlink:href="../../d4/d57/_replay_8cpp.html" target="_top" xlink:title="source/main/gameplay\l/Replay.cpp">
<polygon fill="white" stroke="black" points="266,-6 266,-36 381,-36 381,-6 266,-6"/>
<text text-anchor="start" x="274" y="-24" font-family="Helvetica,sans-Serif" font-size="10.00">source/main/gameplay</text>
<text text-anchor="middle" x="323.5" y="-13" font-family="Helvetica,sans-Serif" font-size="10.00">/Replay.cpp</text>
</a>
</g>
</g>
<!-- Node26&#45;&gt;Node29 -->
<g id="edge3" class="edge"><title>Node26&#45;&gt;Node29</title>
<path fill="none" stroke="midnightblue" d="M2771.96,-86.863C2393.15,-85.9805 629.74,-79.8546 389.5,-42 380.985,-40.6582 372.038,-38.4892 363.577,-36.0643"/>
<polygon fill="midnightblue" stroke="midnightblue" points="2772.23,-90.3636 2782.24,-86.8865 2772.24,-83.3636 2772.23,-90.3636"/>
</g>
<!-- Node30 -->
<g id="node5" class="node"><title>Node30</title>
<g id="a_node5"><a xlink:href="../../de/dbe/_ro_r_frame_listener_8cpp.html" target="_top" xlink:title="source/main/gameplay\l/RoRFrameListener.cpp">
<polygon fill="white" stroke="black" points="399,-6 399,-36 518,-36 518,-6 399,-6"/>
<text text-anchor="start" x="407" y="-24" font-family="Helvetica,sans-Serif" font-size="10.00">source/main/gameplay</text>
<text text-anchor="middle" x="458.5" y="-13" font-family="Helvetica,sans-Serif" font-size="10.00">/RoRFrameListener.cpp</text>
</a>
</g>
</g>
<!-- Node26&#45;&gt;Node30 -->
<g id="edge4" class="edge"><title>Node26&#45;&gt;Node30</title>
<path fill="none" stroke="midnightblue" d="M2772.16,-86.7455C2406.69,-85.2898 752.663,-76.8143 526.5,-42 517.743,-40.652 508.533,-38.4802 499.817,-36.0547"/>
<polygon fill="midnightblue" stroke="midnightblue" points="2772.32,-90.246 2782.34,-86.7855 2772.35,-83.2461 2772.32,-90.246"/>
</g>
<!-- Node31 -->
<g id="node6" class="node"><title>Node31</title>
<g id="a_node6"><a xlink:href="../../df/de6/_skin_manager_8cpp.html" target="_top" xlink:title="source/main/gameplay\l/SkinManager.cpp">
<polygon fill="white" stroke="black" points="536,-6 536,-36 651,-36 651,-6 536,-6"/>
<text text-anchor="start" x="544" y="-24" font-family="Helvetica,sans-Serif" font-size="10.00">source/main/gameplay</text>
<text text-anchor="middle" x="593.5" y="-13" font-family="Helvetica,sans-Serif" font-size="10.00">/SkinManager.cpp</text>
</a>
</g>
</g>
<!-- Node26&#45;&gt;Node31 -->
<g id="edge5" class="edge"><title>Node26&#45;&gt;Node31</title>
<path fill="none" stroke="midnightblue" d="M2772.28,-86.6893C2419.95,-84.9969 871.724,-75.6867 659.5,-42 650.986,-40.6486 642.041,-38.4753 633.58,-36.0494"/>
<polygon fill="midnightblue" stroke="midnightblue" points="2772.34,-90.1896 2782.36,-86.7372 2772.37,-83.1896 2772.34,-90.1896"/>
</g>
<!-- Node32 -->
<g id="node7" class="node"><title>Node32</title>
<g id="a_node7"><a xlink:href="../../d2/df1/_torque_curve_8cpp.html" target="_top" xlink:title="source/main/gameplay\l/TorqueCurve.cpp">
<polygon fill="white" stroke="black" points="669,-6 669,-36 784,-36 784,-6 669,-6"/>
<text text-anchor="start" x="677" y="-24" font-family="Helvetica,sans-Serif" font-size="10.00">source/main/gameplay</text>
<text text-anchor="middle" x="726.5" y="-13" font-family="Helvetica,sans-Serif" font-size="10.00">/TorqueCurve.cpp</text>
</a>
</g>
</g>
<!-- Node26&#45;&gt;Node32 -->
<g id="edge6" class="edge"><title>Node26&#45;&gt;Node32</title>
<path fill="none" stroke="midnightblue" d="M2772.31,-86.5686C2433.43,-84.3627 991.893,-73.2064 793.5,-42 784.866,-40.6419 775.789,-38.4657 767.201,-36.039"/>
<polygon fill="midnightblue" stroke="midnightblue" points="2772.46,-90.0696 2782.49,-86.6343 2772.51,-83.0697 2772.46,-90.0696"/>
</g>
<!-- Node33 -->
<g id="node8" class="node"><title>Node33</title>
<g id="a_node8"><a xlink:href="../../da/d60/_ogre_subsystem_8cpp.html" target="_top" xlink:title="source/main/gfx/OgreSubsystem.cpp">
<polygon fill="white" stroke="black" points="802.5,-11.5 802.5,-30.5 980.5,-30.5 980.5,-11.5 802.5,-11.5"/>
<text text-anchor="middle" x="891.5" y="-18.5" font-family="Helvetica,sans-Serif" font-size="10.00">source/main/gfx/OgreSubsystem.cpp</text>
</a>
</g>
</g>
<!-- Node26&#45;&gt;Node33 -->
<g id="edge7" class="edge"><title>Node26&#45;&gt;Node33</title>
<path fill="none" stroke="midnightblue" d="M2771.85,-86.9567C2475.47,-86.5155 1344.21,-82.1789 989.5,-42 968.105,-39.5765 944.443,-34.8084 925.731,-30.5356"/>
<polygon fill="midnightblue" stroke="midnightblue" points="2772.04,-90.4568 2782.04,-86.9708 2772.05,-83.4568 2772.04,-90.4568"/>
</g>
<!-- Node34 -->
<g id="node9" class="node"><title>Node34</title>
<g id="a_node9"><a xlink:href="../../d1/d79/_skidmark_8cpp.html" target="_top" xlink:title="source/main/gfx/Skidmark.cpp">
<polygon fill="white" stroke="black" points="999,-11.5 999,-30.5 1148,-30.5 1148,-11.5 999,-11.5"/>
<text text-anchor="middle" x="1073.5" y="-18.5" font-family="Helvetica,sans-Serif" font-size="10.00">source/main/gfx/Skidmark.cpp</text>
</a>
</g>
</g>
<!-- Node26&#45;&gt;Node34 -->
<g id="edge8" class="edge"><title>Node26&#45;&gt;Node34</title>
<path fill="none" stroke="midnightblue" d="M2771.93,-87.0888C2492.67,-87.1256 1476.07,-84.287 1156.5,-42 1138.28,-39.5889 1118.24,-34.8212 1102.41,-30.5455"/>
<polygon fill="midnightblue" stroke="midnightblue" points="2772.33,-90.5888 2782.33,-87.086 2772.33,-83.5888 2772.33,-90.5888"/>
</g>
<!-- Node35 -->
<g id="node10" class="node"><title>Node35</title>
<g id="a_node10"><a xlink:href="../../d8/df7/_dash_board_manager_8cpp.html" target="_top" xlink:title="source/main/gui/DashBoard\lManager.cpp">
<polygon fill="white" stroke="black" points="1166,-6 1166,-36 1303,-36 1303,-6 1166,-6"/>
<text text-anchor="start" x="1174" y="-24" font-family="Helvetica,sans-Serif" font-size="10.00">source/main/gui/DashBoard</text>
<text text-anchor="middle" x="1234.5" y="-13" font-family="Helvetica,sans-Serif" font-size="10.00">Manager.cpp</text>
</a>
</g>
</g>
<!-- Node26&#45;&gt;Node35 -->
<g id="edge9" class="edge"><title>Node26&#45;&gt;Node35</title>
<path fill="none" stroke="midnightblue" d="M2772.04,-86.998C2509.67,-86.664 1599.78,-82.5404 1312.5,-42 1302.67,-40.613 1292.3,-38.457 1282.43,-36.0652"/>
<polygon fill="midnightblue" stroke="midnightblue" points="2772.21,-90.4981 2782.21,-87.0094 2772.21,-83.4981 2772.21,-90.4981"/>
</g>
<!-- Node36 -->
<g id="node11" class="node"><title>Node36</title>
<g id="a_node11"><a xlink:href="../../d3/dfd/_overlay_wrapper_8cpp.html" target="_top" xlink:title="source/main/gui/OverlayWrapper.cpp">
<polygon fill="white" stroke="black" points="1321.5,-11.5 1321.5,-30.5 1497.5,-30.5 1497.5,-11.5 1321.5,-11.5"/>
<text text-anchor="middle" x="1409.5" y="-18.5" font-family="Helvetica,sans-Serif" font-size="10.00">source/main/gui/OverlayWrapper.cpp</text>
</a>
</g>
</g>
<!-- Node26&#45;&gt;Node36 -->
<g id="edge10" class="edge"><title>Node26&#45;&gt;Node36</title>
<path fill="none" stroke="midnightblue" d="M2772.1,-86.1956C2531.99,-83.2398 1754.9,-71.5721 1506.5,-42 1485.5,-39.4999 1462.29,-34.7852 1443.84,-30.5612"/>
<polygon fill="midnightblue" stroke="midnightblue" points="2772.41,-89.6995 2782.45,-86.3217 2772.49,-82.7 2772.41,-89.6995"/>
</g>
<!-- Node37 -->
<g id="node12" class="node"><title>Node37</title>
<g id="a_node12"><a xlink:href="../../d2/d59/_g_u_i___debug_options_8cpp.html" target="_top" xlink:title="source/main/gui/panels\l/GUI_DebugOptions.cpp">
<polygon fill="white" stroke="black" points="1515.5,-6 1515.5,-36 1637.5,-36 1637.5,-6 1515.5,-6"/>
<text text-anchor="start" x="1523.5" y="-24" font-family="Helvetica,sans-Serif" font-size="10.00">source/main/gui/panels</text>
<text text-anchor="middle" x="1576.5" y="-13" font-family="Helvetica,sans-Serif" font-size="10.00">/GUI_DebugOptions.cpp</text>
</a>
</g>
</g>
<!-- Node26&#45;&gt;Node37 -->
<g id="edge11" class="edge"><title>Node26&#45;&gt;Node37</title>
<path fill="none" stroke="midnightblue" d="M2772.02,-86.5659C2548.59,-84.8541 1865.21,-76.8334 1646.5,-42 1637.64,-40.5886 1628.31,-38.4217 1619.45,-36.0269"/>
<polygon fill="midnightblue" stroke="midnightblue" points="2772.29,-90.0679 2782.31,-86.6428 2772.34,-83.0681 2772.29,-90.0679"/>
</g>
<!-- Node38 -->
<g id="node13" class="node"><title>Node38</title>
<g id="a_node13"><a xlink:href="../../d3/d93/_g_u_i___friction_settings_8cpp.html" target="_top" xlink:title="source/main/gui/panels\l/GUI_FrictionSettings.cpp">
<polygon fill="white" stroke="black" points="1655.5,-6 1655.5,-36 1783.5,-36 1783.5,-6 1655.5,-6"/>
<text text-anchor="start" x="1663.5" y="-24" font-family="Helvetica,sans-Serif" font-size="10.00">source/main/gui/panels</text>
<text text-anchor="middle" x="1719.5" y="-13" font-family="Helvetica,sans-Serif" font-size="10.00">/GUI_FrictionSettings.cpp</text>
</a>
</g>
</g>
<!-- Node26&#45;&gt;Node38 -->
<g id="edge12" class="edge"><title>Node26&#45;&gt;Node38</title>
<path fill="none" stroke="midnightblue" d="M2772.47,-86.0362C2568.26,-82.9355 1982.03,-71.6347 1792.5,-42 1783.41,-40.579 1773.84,-38.4398 1764.72,-36.0813"/>
<polygon fill="midnightblue" stroke="midnightblue" points="2772.43,-89.5359 2782.49,-86.1863 2772.54,-82.5367 2772.43,-89.5359"/>
</g>
<!-- Node39 -->
<g id="node14" class="node"><title>Node39</title>
<g id="a_node14"><a xlink:href="../../d7/d57/_g_u_i___game_about_8cpp.html" target="_top" xlink:title="source/main/gui/panels\l/GUI_GameAbout.cpp">
<polygon fill="white" stroke="black" points="1802,-6 1802,-36 1919,-36 1919,-6 1802,-6"/>
<text text-anchor="start" x="1810" y="-24" font-family="Helvetica,sans-Serif" font-size="10.00">source/main/gui/panels</text>
<text text-anchor="middle" x="1860.5" y="-13" font-family="Helvetica,sans-Serif" font-size="10.00">/GUI_GameAbout.cpp</text>
</a>
</g>
</g>
<!-- Node26&#45;&gt;Node39 -->
<g id="edge13" class="edge"><title>Node26&#45;&gt;Node39</title>
<path fill="none" stroke="midnightblue" d="M2772.18,-85.6742C2586.34,-81.8701 2090.39,-69.3894 1928.5,-42 1920.01,-40.5631 1911.07,-38.4166 1902.58,-36.0561"/>
<polygon fill="midnightblue" stroke="midnightblue" points="2772.32,-89.1776 2782.39,-85.8807 2772.46,-82.179 2772.32,-89.1776"/>
</g>
<!-- Node40 -->
<g id="node15" class="node"><title>Node40</title>
<g id="a_node15"><a xlink:href="../../db/d11/_g_u_i___game_chat_box_8cpp.html" target="_top" xlink:title="source/main/gui/panels\l/GUI_GameChatBox.cpp">
<polygon fill="white" stroke="black" points="1937.5,-6 1937.5,-36 2061.5,-36 2061.5,-6 1937.5,-6"/>
<text text-anchor="start" x="1945.5" y="-24" font-family="Helvetica,sans-Serif" font-size="10.00">source/main/gui/panels</text>
<text text-anchor="middle" x="1999.5" y="-13" font-family="Helvetica,sans-Serif" font-size="10.00">/GUI_GameChatBox.cpp</text>
</a>
</g>
</g>
<!-- Node26&#45;&gt;Node40 -->
<g id="edge14" class="edge"><title>Node26&#45;&gt;Node40</title>
<path fill="none" stroke="midnightblue" d="M2772.45,-84.831C2607.86,-79.4879 2204.33,-64.4721 2070.5,-42 2061.79,-40.5368 2052.61,-38.4094 2043.86,-36.0821"/>
<polygon fill="midnightblue" stroke="midnightblue" points="2772.36,-88.3299 2782.47,-85.1539 2772.59,-81.3335 2772.36,-88.3299"/>
</g>
<!-- Node41 -->
<g id="node16" class="node"><title>Node41</title>
<g id="a_node16"><a xlink:href="../../db/db8/_g_u_i___game_console_8cpp.html" target="_top" xlink:title="source/main/gui/panels\l/GUI_GameConsole.cpp">
<polygon fill="white" stroke="black" points="2079.5,-6 2079.5,-36 2201.5,-36 2201.5,-6 2079.5,-6"/>
<text text-anchor="start" x="2087.5" y="-24" font-family="Helvetica,sans-Serif" font-size="10.00">source/main/gui/panels</text>
<text text-anchor="middle" x="2140.5" y="-13" font-family="Helvetica,sans-Serif" font-size="10.00">/GUI_GameConsole.cpp</text>
</a>
</g>
</g>
<!-- Node26&#45;&gt;Node41 -->
<g id="edge15" class="edge"><title>Node26&#45;&gt;Node41</title>
<path fill="none" stroke="midnightblue" d="M2771.99,-86.724C2654.1,-85.1976 2411.92,-77.5374 2210.5,-42 2202.04,-40.5067 2193.13,-38.3956 2184.61,-36.1002"/>
<polygon fill="midnightblue" stroke="midnightblue" points="2772.28,-90.2276 2782.32,-86.8461 2772.37,-83.2281 2772.28,-90.2276"/>
</g>
<!-- Node42 -->
<g id="node17" class="node"><title>Node42</title>
<g id="a_node17"><a xlink:href="../../d5/d6f/_g_u_i___loading_window_8cpp.html" target="_top" xlink:title="source/main/gui/panels\l/GUI_LoadingWindow.cpp">
<polygon fill="white" stroke="black" points="2219.5,-6 2219.5,-36 2347.5,-36 2347.5,-6 2219.5,-6"/>
<text text-anchor="start" x="2227.5" y="-24" font-family="Helvetica,sans-Serif" font-size="10.00">source/main/gui/panels</text>
<text text-anchor="middle" x="2283.5" y="-13" font-family="Helvetica,sans-Serif" font-size="10.00">/GUI_LoadingWindow.cpp</text>
</a>
</g>
</g>
<!-- Node26&#45;&gt;Node42 -->
<g id="edge16" class="edge"><title>Node26&#45;&gt;Node42</title>
<path fill="none" stroke="midnightblue" d="M2772.19,-84.3245C2676.83,-79.8572 2502.8,-68.5874 2356.5,-42 2347.84,-40.4257 2338.71,-38.3055 2329.95,-36.0331"/>
<polygon fill="midnightblue" stroke="midnightblue" points="2772.15,-87.8261 2782.3,-84.7862 2772.47,-80.8334 2772.15,-87.8261"/>
</g>
<!-- Node43 -->
<g id="node18" class="node"><title>Node43</title>
<g id="a_node18"><a xlink:href="../../dd/d68/_g_u_i___main_selector_8cpp.html" target="_top" xlink:title="source/main/gui/panels\l/GUI_MainSelector.cpp">
<polygon fill="white" stroke="black" points="2366,-6 2366,-36 2483,-36 2483,-6 2366,-6"/>
<text text-anchor="start" x="2374" y="-24" font-family="Helvetica,sans-Serif" font-size="10.00">source/main/gui/panels</text>
<text text-anchor="middle" x="2424.5" y="-13" font-family="Helvetica,sans-Serif" font-size="10.00">/GUI_MainSelector.cpp</text>
</a>
</g>
</g>
<!-- Node26&#45;&gt;Node43 -->
<g id="edge17" class="edge"><title>Node26&#45;&gt;Node43</title>
<path fill="none" stroke="midnightblue" d="M2772.02,-81.3025C2700.49,-74.7977 2587.58,-62.3402 2491.5,-42 2483.78,-40.3658 2475.66,-38.2721 2467.84,-36.0576"/>
<polygon fill="midnightblue" stroke="midnightblue" points="2771.99,-84.8141 2782.26,-82.2193 2772.61,-77.8419 2771.99,-84.8141"/>
</g>
<!-- Node44 -->
<g id="node19" class="node"><title>Node44</title>
<g id="a_node19"><a xlink:href="../../df/dd4/_g_u_i___message_box_8cpp.html" target="_top" xlink:title="source/main/gui/panels\l/GUI_MessageBox.cpp">
<polygon fill="white" stroke="black" points="2501,-6 2501,-36 2618,-36 2618,-6 2501,-6"/>
<text text-anchor="start" x="2509" y="-24" font-family="Helvetica,sans-Serif" font-size="10.00">source/main/gui/panels</text>
<text text-anchor="middle" x="2559.5" y="-13" font-family="Helvetica,sans-Serif" font-size="10.00">/GUI_MessageBox.cpp</text>
</a>
</g>
</g>
<!-- Node26&#45;&gt;Node44 -->
<g id="edge18" class="edge"><title>Node26&#45;&gt;Node44</title>
<path fill="none" stroke="midnightblue" d="M2786.75,-76.6104C2742.79,-68.2309 2680.49,-55.6296 2626.5,-42 2619.44,-40.2172 2612.01,-38.1715 2604.77,-36.084"/>
<polygon fill="midnightblue" stroke="midnightblue" points="2786.2,-80.0682 2796.67,-78.4902 2787.5,-73.1905 2786.2,-80.0682"/>
</g>
<!-- Node45 -->
<g id="node20" class="node"><title>Node45</title>
<g id="a_node20"><a xlink:href="../../d1/d61/_g_u_i___sim_utils_8cpp.html" target="_top" xlink:title="source/main/gui/panels\l/GUI_SimUtils.cpp">
<polygon fill="white" stroke="black" points="2636,-6 2636,-36 2753,-36 2753,-6 2636,-6"/>
<text text-anchor="start" x="2644" y="-24" font-family="Helvetica,sans-Serif" font-size="10.00">source/main/gui/panels</text>
<text text-anchor="middle" x="2694.5" y="-13" font-family="Helvetica,sans-Serif" font-size="10.00">/GUI_SimUtils.cpp</text>
</a>
</g>
</g>
<!-- Node26&#45;&gt;Node45 -->
<g id="edge19" class="edge"><title>Node26&#45;&gt;Node45</title>
<path fill="none" stroke="midnightblue" d="M2814.31,-74.267C2789.09,-63.2656 2752.71,-47.3916 2726.66,-36.0281"/>
<polygon fill="midnightblue" stroke="midnightblue" points="2813.15,-77.578 2823.71,-78.3685 2815.95,-71.1619 2813.15,-77.578"/>
</g>
<!-- Node46 -->
<g id="node21" class="node"><title>Node46</title>
<g id="a_node21"><a xlink:href="../../d0/d5b/_g_u_i___texture_tool_window_8cpp.html" target="_top" xlink:title="source/main/gui/panels\l/GUI_TextureToolWindow.cpp">
<polygon fill="white" stroke="black" points="2771,-6 2771,-36 2916,-36 2916,-6 2771,-6"/>
<text text-anchor="start" x="2779" y="-24" font-family="Helvetica,sans-Serif" font-size="10.00">source/main/gui/panels</text>
<text text-anchor="middle" x="2843.5" y="-13" font-family="Helvetica,sans-Serif" font-size="10.00">/GUI_TextureToolWindow.cpp</text>
</a>
</g>
</g>
<!-- Node26&#45;&gt;Node46 -->
<g id="edge20" class="edge"><title>Node26&#45;&gt;Node46</title>
<path fill="none" stroke="midnightblue" d="M2843.5,-67.9107C2843.5,-57.722 2843.5,-45.401 2843.5,-36.089"/>
<polygon fill="midnightblue" stroke="midnightblue" points="2840,-68.2338 2843.5,-78.2338 2847,-68.2338 2840,-68.2338"/>
</g>
<!-- Node47 -->
<g id="node22" class="node"><title>Node47</title>
<g id="a_node22"><a xlink:href="../../db/d56/_g_u_i___top_menubar_8cpp.html" target="_top" xlink:title="source/main/gui/panels\l/GUI_TopMenubar.cpp">
<polygon fill="white" stroke="black" points="2934,-6 2934,-36 3051,-36 3051,-6 2934,-6"/>
<text text-anchor="start" x="2942" y="-24" font-family="Helvetica,sans-Serif" font-size="10.00">source/main/gui/panels</text>
<text text-anchor="middle" x="2992.5" y="-13" font-family="Helvetica,sans-Serif" font-size="10.00">/GUI_TopMenubar.cpp</text>
</a>
</g>
</g>
<!-- Node26&#45;&gt;Node47 -->
<g id="edge21" class="edge"><title>Node26&#45;&gt;Node47</title>
<path fill="none" stroke="midnightblue" d="M2872.69,-74.267C2897.91,-63.2656 2934.29,-47.3916 2960.34,-36.0281"/>
<polygon fill="midnightblue" stroke="midnightblue" points="2871.05,-71.1619 2863.29,-78.3685 2873.85,-77.578 2871.05,-71.1619"/>
</g>
<!-- Node48 -->
<g id="node23" class="node"><title>Node48</title>
<g id="a_node23"><a xlink:href="../../d9/df9/_g_u_i___vehicle_description_8cpp.html" target="_top" xlink:title="source/main/gui/panels\l/GUI_VehicleDescription.cpp">
<polygon fill="white" stroke="black" points="3069,-6 3069,-36 3210,-36 3210,-6 3069,-6"/>
<text text-anchor="start" x="3077" y="-24" font-family="Helvetica,sans-Serif" font-size="10.00">source/main/gui/panels</text>
<text text-anchor="middle" x="3139.5" y="-13" font-family="Helvetica,sans-Serif" font-size="10.00">/GUI_VehicleDescription.cpp</text>
</a>
</g>
</g>
<!-- Node26&#45;&gt;Node48 -->
<g id="edge22" class="edge"><title>Node26&#45;&gt;Node48</title>
<path fill="none" stroke="midnightblue" d="M2897.59,-76.4629C2941.57,-67.7301 3005.19,-54.7295 3060.5,-42 3068.5,-40.1595 3076.93,-38.1264 3085.18,-36.0824"/>
<polygon fill="midnightblue" stroke="midnightblue" points="2896.81,-73.049 2887.68,-78.4238 2898.17,-79.9158 2896.81,-73.049"/>
</g>
<!-- Node49 -->
<g id="node24" class="node"><title>Node49</title>
<g id="a_node24"><a xlink:href="../../df/d0a/main_8cpp.html" target="_top" xlink:title="source/main/main.cpp">
<polygon fill="white" stroke="black" points="3228,-11.5 3228,-30.5 3341,-30.5 3341,-11.5 3228,-11.5"/>
<text text-anchor="middle" x="3284.5" y="-18.5" font-family="Helvetica,sans-Serif" font-size="10.00">source/main/main.cpp</text>
</a>
</g>
</g>
<!-- Node26&#45;&gt;Node49 -->
<g id="edge23" class="edge"><title>Node26&#45;&gt;Node49</title>
<path fill="none" stroke="midnightblue" d="M2915.03,-82.2761C2991.14,-76.3595 3114.77,-64.1922 3219.5,-42 3233.24,-39.0875 3248.26,-34.5611 3260.39,-30.5506"/>
<polygon fill="midnightblue" stroke="midnightblue" points="2914.32,-78.8201 2904.61,-83.0699 2914.85,-85.7999 2914.32,-78.8201"/>
</g>
<!-- Node50 -->
<g id="node25" class="node"><title>Node50</title>
<g id="a_node25"><a xlink:href="../../dc/df0/_main_menu_8cpp.html" target="_top" xlink:title="source/main/MainMenu.cpp">
<polygon fill="white" stroke="black" points="3359,-11.5 3359,-30.5 3496,-30.5 3496,-11.5 3359,-11.5"/>
<text text-anchor="middle" x="3427.5" y="-18.5" font-family="Helvetica,sans-Serif" font-size="10.00">source/main/MainMenu.cpp</text>
</a>
</g>
</g>
<!-- Node26&#45;&gt;Node50 -->
<g id="edge24" class="edge"><title>Node26&#45;&gt;Node50</title>
<path fill="none" stroke="midnightblue" d="M2914.94,-84.3878C3013.54,-79.9372 3196.6,-68.6275 3350.5,-42 3366.83,-39.1743 3384.77,-34.6032 3399.22,-30.5438"/>
<polygon fill="midnightblue" stroke="midnightblue" points="2914.63,-80.8979 2904.8,-84.8349 2914.94,-87.8911 2914.63,-80.8979"/>
</g>
<!-- Node51 -->
<g id="node26" class="node"><title>Node51</title>
<g id="a_node26"><a xlink:href="../../d1/dc9/_beam_factory_8cpp.html" target="_top" xlink:title="source/main/physics\l/BeamFactory.cpp">
<polygon fill="white" stroke="black" points="3514,-6 3514,-36 3621,-36 3621,-6 3514,-6"/>
<text text-anchor="start" x="3522" y="-24" font-family="Helvetica,sans-Serif" font-size="10.00">source/main/physics</text>
<text text-anchor="middle" x="3567.5" y="-13" font-family="Helvetica,sans-Serif" font-size="10.00">/BeamFactory.cpp</text>
</a>
</g>
</g>
<!-- Node26&#45;&gt;Node51 -->
<g id="edge25" class="edge"><title>Node26&#45;&gt;Node51</title>
<path fill="none" stroke="midnightblue" d="M2915.18,-87.8189C3037.44,-87.9535 3293.63,-82.7375 3505.5,-42 3513.16,-40.5265 3521.2,-38.3943 3528.85,-36.0657"/>
<polygon fill="midnightblue" stroke="midnightblue" points="2914.84,-84.3182 2904.83,-87.7942 2914.82,-91.3181 2914.84,-84.3182"/>
</g>
<!-- Node52 -->
<g id="node27" class="node"><title>Node52</title>
<g id="a_node27"><a xlink:href="../../d4/df7/_cmd_key_inertia_8cpp.html" target="_top" xlink:title="source/main/physics\l/CmdKeyInertia.cpp">
<polygon fill="white" stroke="black" points="3639,-6 3639,-36 3746,-36 3746,-6 3639,-6"/>
<text text-anchor="start" x="3647" y="-24" font-family="Helvetica,sans-Serif" font-size="10.00">source/main/physics</text>
<text text-anchor="middle" x="3692.5" y="-13" font-family="Helvetica,sans-Serif" font-size="10.00">/CmdKeyInertia.cpp</text>
</a>
</g>
</g>
<!-- Node26&#45;&gt;Node52 -->
<g id="edge26" class="edge"><title>Node26&#45;&gt;Node52</title>
<path fill="none" stroke="midnightblue" d="M2914.68,-85.2501C3081.6,-80.7715 3494.36,-67.4173 3630.5,-42 3638.28,-40.547 3646.44,-38.3932 3654.2,-36.0305"/>
<polygon fill="midnightblue" stroke="midnightblue" points="2914.43,-81.7554 2904.52,-85.5197 2914.61,-88.753 2914.43,-81.7554"/>
</g>
<!-- Node53 -->
<g id="node28" class="node"><title>Node53</title>
<g id="a_node28"><a xlink:href="../../df/df5/_rig_spawner_8cpp.html" target="_top" xlink:title="Vehicle spawning logic. ">
<polygon fill="white" stroke="black" points="3764,-6 3764,-36 3871,-36 3871,-6 3764,-6"/>
<text text-anchor="start" x="3772" y="-24" font-family="Helvetica,sans-Serif" font-size="10.00">source/main/physics</text>
<text text-anchor="middle" x="3817.5" y="-13" font-family="Helvetica,sans-Serif" font-size="10.00">/RigSpawner.cpp</text>
</a>
</g>
</g>
<!-- Node26&#45;&gt;Node53 -->
<g id="edge27" class="edge"><title>Node26&#45;&gt;Node53</title>
<path fill="none" stroke="midnightblue" d="M2914.95,-85.895C3100.55,-82.6376 3594.6,-71.3899 3755.5,-42 3763.29,-40.5774 3771.45,-38.4374 3779.21,-36.0787"/>
<polygon fill="midnightblue" stroke="midnightblue" points="2914.7,-82.3988 2904.76,-86.0713 2914.82,-89.3977 2914.7,-82.3988"/>
</g>
<!-- Node54 -->
<g id="node29" class="node"><title>Node54</title>
<g id="a_node29"><a xlink:href="../../d3/d99/_cache_system_8cpp.html" target="_top" xlink:title="source/main/resources\l/CacheSystem.cpp">
<polygon fill="white" stroke="black" points="3889.5,-6 3889.5,-36 4005.5,-36 4005.5,-6 3889.5,-6"/>
<text text-anchor="start" x="3897.5" y="-24" font-family="Helvetica,sans-Serif" font-size="10.00">source/main/resources</text>
<text text-anchor="middle" x="3947.5" y="-13" font-family="Helvetica,sans-Serif" font-size="10.00">/CacheSystem.cpp</text>
</a>
</g>
</g>
<!-- Node26&#45;&gt;Node54 -->
<g id="edge28" class="edge"><title>Node26&#45;&gt;Node54</title>
<path fill="none" stroke="midnightblue" d="M2914.98,-86.19C3117.8,-83.5276 3694.26,-73.3422 3880.5,-42 3888.88,-40.5898 3897.69,-38.4555 3906.06,-36.0984"/>
<polygon fill="midnightblue" stroke="midnightblue" points="2914.7,-82.6932 2904.74,-86.3221 2914.79,-89.6927 2914.7,-82.6932"/>
</g>
<!-- Node55 -->
<g id="node30" class="node"><title>Node55</title>
<g id="a_node30"><a xlink:href="../../dc/db0/_content_manager_8cpp.html" target="_top" xlink:title="source/main/resources\l/ContentManager.cpp">
<polygon fill="white" stroke="black" points="4023.5,-6 4023.5,-36 4139.5,-36 4139.5,-6 4023.5,-6"/>
<text text-anchor="start" x="4031.5" y="-24" font-family="Helvetica,sans-Serif" font-size="10.00">source/main/resources</text>
<text text-anchor="middle" x="4081.5" y="-13" font-family="Helvetica,sans-Serif" font-size="10.00">/ContentManager.cpp</text>
</a>
</g>
</g>
<!-- Node26&#45;&gt;Node55 -->
<g id="edge29" class="edge"><title>Node26&#45;&gt;Node55</title>
<path fill="none" stroke="midnightblue" d="M2914.96,-86.6053C3135.16,-85.0183 3801.24,-77.3455 4014.5,-42 4023,-40.5907 4031.94,-38.4248 4040.42,-36.0303"/>
<polygon fill="midnightblue" stroke="midnightblue" points="2914.79,-83.1063 2904.82,-86.6764 2914.84,-90.1061 2914.79,-83.1063"/>
</g>
<!-- Node56 -->
<g id="node31" class="node"><title>Node56</title>
<g id="a_node31"><a xlink:href="../../df/d0e/_o_t_c_fileformat_8cpp.html" target="_top" xlink:title="source/main/resources\l/otc_fileformat/OTCFileformat.cpp">
<polygon fill="white" stroke="black" points="4158,-6 4158,-36 4319,-36 4319,-6 4158,-6"/>
<text text-anchor="start" x="4166" y="-24" font-family="Helvetica,sans-Serif" font-size="10.00">source/main/resources</text>
<text text-anchor="middle" x="4238.5" y="-13" font-family="Helvetica,sans-Serif" font-size="10.00">/otc_fileformat/OTCFileformat.cpp</text>
</a>
</g>
</g>
<!-- Node26&#45;&gt;Node56 -->
<g id="edge30" class="edge"><title>Node26&#45;&gt;Node56</title>
<path fill="none" stroke="midnightblue" d="M2914.83,-86.2715C3151.09,-83.5867 3906.83,-72.7525 4148.5,-42 4159.61,-40.5857 4171.38,-38.4494 4182.61,-36.0918"/>
<polygon fill="midnightblue" stroke="midnightblue" points="2914.6,-82.7738 2904.64,-86.3859 2914.68,-89.7733 2914.6,-82.7738"/>
</g>
<!-- Node57 -->
<g id="node32" class="node"><title>Node57</title>
<g id="a_node32"><a xlink:href="../../d4/d54/_rig_def___parser_8cpp.html" target="_top" xlink:title="source/main/resources\l/rig_def_fileformat/RigDef\l_Parser.cpp">
<polygon fill="white" stroke="black" points="4337.5,-0.5 4337.5,-41.5 4461.5,-41.5 4461.5,-0.5 4337.5,-0.5"/>
<text text-anchor="start" x="4345.5" y="-29.5" font-family="Helvetica,sans-Serif" font-size="10.00">source/main/resources</text>
<text text-anchor="start" x="4345.5" y="-18.5" font-family="Helvetica,sans-Serif" font-size="10.00">/rig_def_fileformat/RigDef</text>
<text text-anchor="middle" x="4399.5" y="-7.5" font-family="Helvetica,sans-Serif" font-size="10.00">_Parser.cpp</text>
</a>
</g>
</g>
<!-- Node26&#45;&gt;Node57 -->
<g id="edge31" class="edge"><title>Node26&#45;&gt;Node57</title>
<path fill="none" stroke="midnightblue" d="M2914.96,-87.1425C3172.31,-87.2963 4051.11,-84.6137 4328.5,-42 4331.41,-41.5528 4334.37,-41.0244 4337.35,-40.4332"/>
<polygon fill="midnightblue" stroke="midnightblue" points="2914.62,-83.6424 2904.62,-87.1346 2914.62,-90.6424 2914.62,-83.6424"/>
</g>
<!-- Node58 -->
<g id="node33" class="node"><title>Node58</title>
<g id="a_node33"><a xlink:href="../../df/d4d/_terrn2_fileformat_8cpp.html" target="_top" xlink:title="source/main/resources\l/terrn2_fileformat/Terrn2Fileformat.cpp">
<polygon fill="white" stroke="black" points="4479.5,-6 4479.5,-36 4659.5,-36 4659.5,-6 4479.5,-6"/>
<text text-anchor="start" x="4487.5" y="-24" font-family="Helvetica,sans-Serif" font-size="10.00">source/main/resources</text>
<text text-anchor="middle" x="4569.5" y="-13" font-family="Helvetica,sans-Serif" font-size="10.00">/terrn2_fileformat/Terrn2Fileformat.cpp</text>
</a>
</g>
</g>
<!-- Node26&#45;&gt;Node58 -->
<g id="edge32" class="edge"><title>Node26&#45;&gt;Node58</title>
<path fill="none" stroke="midnightblue" d="M2914.77,-86.6569C3187.15,-85.0928 4162.47,-77.1104 4470.5,-42 4482.87,-40.5901 4495.99,-38.4238 4508.5,-36.0292"/>
<polygon fill="midnightblue" stroke="midnightblue" points="2914.59,-83.1577 2904.61,-86.7141 2914.63,-90.1576 2914.59,-83.1577"/>
</g>
<!-- Node59 -->
<g id="node34" class="node"><title>Node59</title>
<g id="a_node34"><a xlink:href="../../d5/da6/_game_script_8cpp.html" target="_top" xlink:title="source/main/scripting\l/GameScript.cpp">
<polygon fill="white" stroke="black" points="4677.5,-6 4677.5,-36 4787.5,-36 4787.5,-6 4677.5,-6"/>
<text text-anchor="start" x="4685.5" y="-24" font-family="Helvetica,sans-Serif" font-size="10.00">source/main/scripting</text>
<text text-anchor="middle" x="4732.5" y="-13" font-family="Helvetica,sans-Serif" font-size="10.00">/GameScript.cpp</text>
</a>
</g>
</g>
<!-- Node26&#45;&gt;Node59 -->
<g id="edge33" class="edge"><title>Node26&#45;&gt;Node59</title>
<path fill="none" stroke="midnightblue" d="M2914.94,-86.4121C3230.74,-83.6541 4493.62,-70.8991 4668.5,-42 4676.77,-40.6335 4685.45,-38.4536 4693.66,-36.026"/>
<polygon fill="midnightblue" stroke="midnightblue" points="2914.51,-82.9155 2904.55,-86.5022 2914.58,-89.9153 2914.51,-82.9155"/>
</g>
<!-- Node60 -->
<g id="node35" class="node"><title>Node60</title>
<g id="a_node35"><a xlink:href="../../dd/d14/_terrain_geometry_manager_8cpp.html" target="_top" xlink:title="source/main/terrain\l/TerrainGeometryManager.cpp">
<polygon fill="white" stroke="black" points="4805.5,-6 4805.5,-36 4953.5,-36 4953.5,-6 4805.5,-6"/>
<text text-anchor="start" x="4813.5" y="-24" font-family="Helvetica,sans-Serif" font-size="10.00">source/main/terrain</text>
<text text-anchor="middle" x="4879.5" y="-13" font-family="Helvetica,sans-Serif" font-size="10.00">/TerrainGeometryManager.cpp</text>
</a>
</g>
</g>
<!-- Node26&#45;&gt;Node60 -->
<g id="edge34" class="edge"><title>Node26&#45;&gt;Node60</title>
<path fill="none" stroke="midnightblue" d="M2914.95,-87.3937C3220.9,-88.7655 4421.99,-90.8655 4796.5,-42 4807.08,-40.6192 4818.28,-38.4331 4828.9,-36.0039"/>
<polygon fill="midnightblue" stroke="midnightblue" points="2914.89,-83.8935 2904.87,-87.3473 2914.85,-90.8934 2914.89,-83.8935"/>
</g>
<!-- Node61 -->
<g id="node36" class="node"><title>Node61</title>
<g id="a_node36"><a xlink:href="../../d8/d4d/_terrain_manager_8cpp.html" target="_top" xlink:title="source/main/terrain\l/TerrainManager.cpp">
<polygon fill="white" stroke="black" points="4972,-6 4972,-36 5077,-36 5077,-6 4972,-6"/>
<text text-anchor="start" x="4980" y="-24" font-family="Helvetica,sans-Serif" font-size="10.00">source/main/terrain</text>
<text text-anchor="middle" x="5024.5" y="-13" font-family="Helvetica,sans-Serif" font-size="10.00">/TerrainManager.cpp</text>
</a>
</g>
</g>
<!-- Node26&#45;&gt;Node61 -->
<g id="edge35" class="edge"><title>Node26&#45;&gt;Node61</title>
<path fill="none" stroke="midnightblue" d="M2914.84,-86.7147C3260.99,-85.1648 4757.34,-76.5069 4962.5,-42 4970.53,-40.6493 4978.95,-38.4763 4986.9,-36.0505"/>
<polygon fill="midnightblue" stroke="midnightblue" points="2914.68,-83.2153 2904.69,-86.7596 2914.71,-90.2152 2914.68,-83.2153"/>
</g>
<!-- Node62 -->
<g id="node37" class="node"><title>Node62</title>
<g id="a_node37"><a xlink:href="../../d2/d0a/_terrain_object_manager_8cpp.html" target="_top" xlink:title="source/main/terrain\l/TerrainObjectManager.cpp">
<polygon fill="white" stroke="black" points="5095.5,-6 5095.5,-36 5229.5,-36 5229.5,-6 5095.5,-6"/>
<text text-anchor="start" x="5103.5" y="-24" font-family="Helvetica,sans-Serif" font-size="10.00">source/main/terrain</text>
<text text-anchor="middle" x="5162.5" y="-13" font-family="Helvetica,sans-Serif" font-size="10.00">/TerrainObjectManager.cpp</text>
</a>
</g>
</g>
<!-- Node26&#45;&gt;Node62 -->
<g id="edge36" class="edge"><title>Node26&#45;&gt;Node62</title>
<path fill="none" stroke="midnightblue" d="M2914.85,-86.5752C3273.14,-84.3065 4867.58,-72.559 5086.5,-42 5096.23,-40.6419 5106.5,-38.4657 5116.23,-36.0391"/>
<polygon fill="midnightblue" stroke="midnightblue" points="2914.59,-83.0766 2904.61,-86.6395 2914.63,-90.0765 2914.59,-83.0766"/>
</g>
<!-- Node63 -->
<g id="node38" class="node"><title>Node63</title>
<g id="a_node38"><a xlink:href="../../dd/d9a/_config_file_8cpp.html" target="_top" xlink:title="source/main/utils/Config\lFile.cpp">
<polygon fill="white" stroke="black" points="5248,-6 5248,-36 5369,-36 5369,-6 5248,-6"/>
<text text-anchor="start" x="5256" y="-24" font-family="Helvetica,sans-Serif" font-size="10.00">source/main/utils/Config</text>
<text text-anchor="middle" x="5308.5" y="-13" font-family="Helvetica,sans-Serif" font-size="10.00">File.cpp</text>
</a>
</g>
</g>
<!-- Node26&#45;&gt;Node63 -->
<g id="edge37" class="edge"><title>Node26&#45;&gt;Node63</title>
<path fill="none" stroke="midnightblue" d="M2914.82,-86.7616C3287.62,-85.3681 5004.07,-77.0809 5238.5,-42 5247.5,-40.6532 5256.97,-38.4819 5265.94,-36.0565"/>
<polygon fill="midnightblue" stroke="midnightblue" points="2914.69,-83.262 2904.7,-86.799 2914.72,-90.262 2914.69,-83.262"/>
</g>
<!-- Node64 -->
<g id="node39" class="node"><title>Node64</title>
<g id="a_node39"><a xlink:href="../../d6/dcd/_settings_8cpp.html" target="_top" xlink:title="source/main/utils/Settings.cpp">
<polygon fill="white" stroke="black" points="5387,-11.5 5387,-30.5 5536,-30.5 5536,-11.5 5387,-11.5"/>
<text text-anchor="middle" x="5461.5" y="-18.5" font-family="Helvetica,sans-Serif" font-size="10.00">source/main/utils/Settings.cpp</text>
</a>
</g>
</g>
<!-- Node26&#45;&gt;Node64 -->
<g id="edge38" class="edge"><title>Node26&#45;&gt;Node64</title>
<path fill="none" stroke="midnightblue" d="M2914.87,-86.6646C3300.67,-84.7266 5128.76,-73.9143 5378.5,-42 5396.88,-39.6514 5417.1,-34.828 5432.98,-30.5065"/>
<polygon fill="midnightblue" stroke="midnightblue" points="2914.66,-83.1654 2904.68,-86.7154 2914.7,-90.1654 2914.66,-83.1654"/>
</g>
<!-- Node65 -->
<g id="node40" class="node"><title>Node65</title>
<g id="a_node40"><a xlink:href="../../d6/dad/_utils_8cpp.html" target="_top" xlink:title="source/main/utils/Utils.cpp">
<polygon fill="white" stroke="black" points="5554.5,-11.5 5554.5,-30.5 5686.5,-30.5 5686.5,-11.5 5554.5,-11.5"/>
<text text-anchor="middle" x="5620.5" y="-18.5" font-family="Helvetica,sans-Serif" font-size="10.00">source/main/utils/Utils.cpp</text>
</a>
</g>
</g>
<!-- Node26&#45;&gt;Node65 -->
<g id="edge39" class="edge"><title>Node26&#45;&gt;Node65</title>
<path fill="none" stroke="midnightblue" d="M2914.7,-86.8516C3315.2,-85.8787 5278.66,-79.2303 5545.5,-42 5562.18,-39.6723 5580.46,-34.8494 5594.79,-30.5229"/>
<polygon fill="midnightblue" stroke="midnightblue" points="2914.69,-83.3516 2904.7,-86.8755 2914.71,-90.3515 2914.69,-83.3516"/>
</g>
</g>
</svg>
