<?xml version="1.0" encoding="UTF-8" standalone="no"?>
<!DOCTYPE svg PUBLIC "-//W3C//DTD SVG 1.1//EN"
 "http://www.w3.org/Graphics/SVG/1.1/DTD/svg11.dtd">
<!-- Generated by graphviz version 2.38.0 (20140413.2041)
 -->
<!-- Title: source/main/gameplay/SceneMouse.h Pages: 1 -->
<svg width="563pt" height="106pt"
 viewBox="0.00 0.00 563.00 106.00" xmlns="http://www.w3.org/2000/svg" xmlns:xlink="http://www.w3.org/1999/xlink">
<g id="graph0" class="graph" transform="scale(1 1) rotate(0) translate(4 102)">
<title>source/main/gameplay/SceneMouse.h</title>
<polygon fill="white" stroke="none" points="-4,4 -4,-102 559,-102 559,4 -4,4"/>
<!-- Node21 -->
<g id="node1" class="node"><title>Node21</title>
<polygon fill="#bfbfbf" stroke="black" points="227.5,-67.5 227.5,-97.5 342.5,-97.5 342.5,-67.5 227.5,-67.5"/>
<text text-anchor="start" x="235.5" y="-85.5" font-family="Helvetica,sans-Serif" font-size="10.00">source/main/gameplay</text>
<text text-anchor="middle" x="285" y="-74.5" font-family="Helvetica,sans-Serif" font-size="10.00">/SceneMouse.h</text>
</g>
<!-- Node22 -->
<g id="node2" class="node"><title>Node22</title>
<g id="a_node2"><a xlink:href="../../d0/d42/_application_8cpp.html" target="_top" xlink:title="source/main/Application.cpp">
<polygon fill="white" stroke="black" points="0,-6 0,-25 140,-25 140,-6 0,-6"/>
<text text-anchor="middle" x="70" y="-13" font-family="Helvetica,sans-Serif" font-size="10.00">source/main/Application.cpp</text>
</a>
</g>
</g>
<!-- Node21&#45;&gt;Node22 -->
<g id="edge1" class="edge"><title>Node21&#45;&gt;Node22</title>
<path fill="none" stroke="midnightblue" d="M228.803,-64.5102C186.844,-51.8251 131.265,-35.0219 98.2102,-25.0287"/>
<polygon fill="midnightblue" stroke="midnightblue" points="228.028,-67.9323 238.613,-67.476 230.054,-61.2318 228.028,-67.9323"/>
</g>
<!-- Node23 -->
<g id="node3" class="node"><title>Node23</title>
<g id="a_node3"><a xlink:href="../../de/dbe/_ro_r_frame_listener_8cpp.html" target="_top" xlink:title="source/main/gameplay\l/RoRFrameListener.cpp">
<polygon fill="white" stroke="black" points="158.5,-0.5 158.5,-30.5 277.5,-30.5 277.5,-0.5 158.5,-0.5"/>
<text text-anchor="start" x="166.5" y="-18.5" font-family="Helvetica,sans-Serif" font-size="10.00">source/main/gameplay</text>
<text text-anchor="middle" x="218" y="-7.5" font-family="Helvetica,sans-Serif" font-size="10.00">/RoRFrameListener.cpp</text>
</a>
</g>
</g>
<!-- Node21&#45;&gt;Node23 -->
<g id="edge2" class="edge"><title>Node21&#45;&gt;Node23</title>
<path fill="none" stroke="midnightblue" d="M263.16,-60.3115C253.109,-50.5612 241.459,-39.259 232.51,-30.5765"/>
<polygon fill="midnightblue" stroke="midnightblue" points="260.847,-62.9449 270.462,-67.396 265.722,-57.9207 260.847,-62.9449"/>
</g>
<!-- Node24 -->
<g id="node4" class="node"><title>Node24</title>
<g id="a_node4"><a xlink:href="../../d5/d11/_scene_mouse_8cpp.html" target="_top" xlink:title="source/main/gameplay\l/SceneMouse.cpp">
<polygon fill="white" stroke="black" points="295.5,-0.5 295.5,-30.5 410.5,-30.5 410.5,-0.5 295.5,-0.5"/>
<text text-anchor="start" x="303.5" y="-18.5" font-family="Helvetica,sans-Serif" font-size="10.00">source/main/gameplay</text>
<text text-anchor="middle" x="353" y="-7.5" font-family="Helvetica,sans-Serif" font-size="10.00">/SceneMouse.cpp</text>
</a>
</g>
</g>
<!-- Node21&#45;&gt;Node24 -->
<g id="edge3" class="edge"><title>Node21&#45;&gt;Node24</title>
<path fill="none" stroke="midnightblue" d="M307.166,-60.3115C317.367,-50.5612 329.191,-39.259 338.274,-30.5765"/>
<polygon fill="midnightblue" stroke="midnightblue" points="304.565,-57.9561 299.755,-67.396 309.402,-63.0162 304.565,-57.9561"/>
</g>
<!-- Node25 -->
<g id="node5" class="node"><title>Node25</title>
<g id="a_node5"><a xlink:href="../../dc/d7e/_g_u_i_input_manager_8cpp.html" target="_top" xlink:title="source/main/gui/GUIInput\lManager.cpp">
<polygon fill="white" stroke="black" points="429,-0.5 429,-30.5 555,-30.5 555,-0.5 429,-0.5"/>
<text text-anchor="start" x="437" y="-18.5" font-family="Helvetica,sans-Serif" font-size="10.00">source/main/gui/GUIInput</text>
<text text-anchor="middle" x="492" y="-7.5" font-family="Helvetica,sans-Serif" font-size="10.00">Manager.cpp</text>
</a>
</g>
</g>
<!-- Node21&#45;&gt;Node25 -->
<g id="edge4" class="edge"><title>Node21&#45;&gt;Node25</title>
<path fill="none" stroke="midnightblue" d="M339.316,-64.4442C372.871,-53.9078 415.412,-40.5495 447.062,-30.6109"/>
<polygon fill="midnightblue" stroke="midnightblue" points="338.153,-61.1408 329.661,-67.476 340.25,-67.8193 338.153,-61.1408"/>
</g>
</g>
</svg>
