<?xml version="1.0" encoding="UTF-8" standalone="no"?>
<!DOCTYPE svg PUBLIC "-//W3C//DTD SVG 1.1//EN"
 "http://www.w3.org/Graphics/SVG/1.1/DTD/svg11.dtd">
<!-- Generated by graphviz version 2.38.0 (20140413.2041)
 -->
<!-- Title: source/main/gfx/ColoredTextAreaOverlayElement.h Pages: 1 -->
<svg width="312pt" height="173pt"
 viewBox="0.00 0.00 312.00 173.00" xmlns="http://www.w3.org/2000/svg" xmlns:xlink="http://www.w3.org/1999/xlink">
<g id="graph0" class="graph" transform="scale(1 1) rotate(0) translate(4 169)">
<title>source/main/gfx/ColoredTextAreaOverlayElement.h</title>
<polygon fill="white" stroke="none" points="-4,4 -4,-169 308,-169 308,4 -4,4"/>
<!-- Node21 -->
<g id="node1" class="node"><title>Node21</title>
<polygon fill="#bfbfbf" stroke="black" points="80,-134.5 80,-164.5 220,-164.5 220,-134.5 80,-134.5"/>
<text text-anchor="start" x="88" y="-152.5" font-family="Helvetica,sans-Serif" font-size="10.00">source/main/gfx/ColoredText</text>
<text text-anchor="middle" x="150" y="-141.5" font-family="Helvetica,sans-Serif" font-size="10.00">AreaOverlayElement.h</text>
</g>
<!-- Node22 -->
<g id="node2" class="node"><title>Node22</title>
<g id="a_node2"><a xlink:href="../../df/dad/_colored_text_area_overlay_element_8cpp.html" target="_top" xlink:title="source/main/gfx/ColoredText\lAreaOverlayElement.cpp">
<polygon fill="white" stroke="black" points="0,-67.5 0,-97.5 140,-97.5 140,-67.5 0,-67.5"/>
<text text-anchor="start" x="8" y="-85.5" font-family="Helvetica,sans-Serif" font-size="10.00">source/main/gfx/ColoredText</text>
<text text-anchor="middle" x="70" y="-74.5" font-family="Helvetica,sans-Serif" font-size="10.00">AreaOverlayElement.cpp</text>
</a>
</g>
</g>
<!-- Node21&#45;&gt;Node22 -->
<g id="edge1" class="edge"><title>Node21&#45;&gt;Node22</title>
<path fill="none" stroke="midnightblue" d="M124.625,-127.883C112.468,-118.005 98.2207,-106.429 87.3249,-97.5765"/>
<polygon fill="midnightblue" stroke="midnightblue" points="122.673,-130.806 132.641,-134.396 127.087,-125.374 122.673,-130.806"/>
</g>
<!-- Node23 -->
<g id="node3" class="node"><title>Node23</title>
<g id="a_node3"><a xlink:href="../../dd/da6/_colored_text_area_overlay_element_factory_8h.html" target="_top" xlink:title="source/main/gfx/ColoredText\lAreaOverlayElementFactory.h">
<polygon fill="white" stroke="black" points="158,-67.5 158,-97.5 304,-97.5 304,-67.5 158,-67.5"/>
<text text-anchor="start" x="166" y="-85.5" font-family="Helvetica,sans-Serif" font-size="10.00">source/main/gfx/ColoredText</text>
<text text-anchor="middle" x="231" y="-74.5" font-family="Helvetica,sans-Serif" font-size="10.00">AreaOverlayElementFactory.h</text>
</a>
</g>
</g>
<!-- Node21&#45;&gt;Node23 -->
<g id="edge2" class="edge"><title>Node21&#45;&gt;Node23</title>
<path fill="none" stroke="midnightblue" d="M175.692,-127.883C188.001,-118.005 202.427,-106.429 213.459,-97.5765"/>
<polygon fill="midnightblue" stroke="midnightblue" points="173.185,-125.407 167.576,-134.396 177.566,-130.867 173.185,-125.407"/>
</g>
<!-- Node24 -->
<g id="node4" class="node"><title>Node24</title>
<g id="a_node4"><a xlink:href="../../dc/db0/_content_manager_8cpp.html" target="_top" xlink:title="source/main/resources\l/ContentManager.cpp">
<polygon fill="white" stroke="black" points="173,-0.5 173,-30.5 289,-30.5 289,-0.5 173,-0.5"/>
<text text-anchor="start" x="181" y="-18.5" font-family="Helvetica,sans-Serif" font-size="10.00">source/main/resources</text>
<text text-anchor="middle" x="231" y="-7.5" font-family="Helvetica,sans-Serif" font-size="10.00">/ContentManager.cpp</text>
</a>
</g>
</g>
<!-- Node23&#45;&gt;Node24 -->
<g id="edge3" class="edge"><title>Node23&#45;&gt;Node24</title>
<path fill="none" stroke="midnightblue" d="M231,-57.1081C231,-48.1539 231,-38.3227 231,-30.5765"/>
<polygon fill="midnightblue" stroke="midnightblue" points="227.5,-57.3959 231,-67.396 234.5,-57.396 227.5,-57.3959"/>
</g>
</g>
</svg>
