<?xml version="1.0" encoding="UTF-8" standalone="no"?>
<!DOCTYPE svg PUBLIC "-//W3C//DTD SVG 1.1//EN"
 "http://www.w3.org/Graphics/SVG/1.1/DTD/svg11.dtd">
<!-- Generated by graphviz version 2.38.0 (20140413.2041)
 -->
<!-- Title: RigDef::Node::Id::Invalidate Pages: 1 -->
<svg width="795pt" height="215pt"
 viewBox="0.00 0.00 795.00 214.50" xmlns="http://www.w3.org/2000/svg" xmlns:xlink="http://www.w3.org/1999/xlink">
<g id="graph0" class="graph" transform="scale(1 1) rotate(0) translate(4 210.5)">
<title>RigDef::Node::Id::Invalidate</title>
<polygon fill="white" stroke="none" points="-4,4 -4,-210.5 791,-210.5 791,4 -4,4"/>
<!-- Node15 -->
<g id="node1" class="node"><title>Node15</title>
<polygon fill="#bfbfbf" stroke="black" points="0,-118 0,-137 133,-137 133,-118 0,-118"/>
<text text-anchor="middle" x="66.5" y="-125" font-family="Helvetica,sans-Serif" font-size="10.00">RigDef::Node::Id::Invalidate</text>
</g>
<!-- Node16 -->
<g id="node2" class="node"><title>Node16</title>
<g id="a_node2"><a xlink:href="../../de/db5/class_rig_def_1_1_node_1_1_id.html#aa25736a01a4ca045abbd01c08c825e31" target="_top" xlink:title="RigDef::Node::Id::Num">
<polygon fill="white" stroke="black" points="169,-143 169,-162 282,-162 282,-143 169,-143"/>
<text text-anchor="middle" x="225.5" y="-150" font-family="Helvetica,sans-Serif" font-size="10.00">RigDef::Node::Id::Num</text>
</a>
</g>
</g>
<!-- Node15&#45;&gt;Node16 -->
<g id="edge1" class="edge"><title>Node15&#45;&gt;Node16</title>
<path fill="none" stroke="midnightblue" d="M137.367,-138.625C147.958,-140.312 158.762,-142.032 168.994,-143.661"/>
<polygon fill="midnightblue" stroke="midnightblue" points="137.729,-135.139 127.303,-137.023 136.628,-142.052 137.729,-135.139"/>
</g>
<!-- Node22 -->
<g id="node8" class="node"><title>Node22</title>
<g id="a_node8"><a xlink:href="../../d2/dad/class_rig_def_1_1_node_1_1_ref.html#ac3dba4ad09233070bbfce30dd2b02a74" target="_top" xlink:title="RigDef::Node::Ref::\lGetLineNumber">
<polygon fill="white" stroke="black" points="175.5,-66.5 175.5,-96.5 275.5,-96.5 275.5,-66.5 175.5,-66.5"/>
<text text-anchor="start" x="183.5" y="-84.5" font-family="Helvetica,sans-Serif" font-size="10.00">RigDef::Node::Ref::</text>
<text text-anchor="middle" x="225.5" y="-73.5" font-family="Helvetica,sans-Serif" font-size="10.00">GetLineNumber</text>
</a>
</g>
</g>
<!-- Node15&#45;&gt;Node22 -->
<g id="edge7" class="edge"><title>Node15&#45;&gt;Node22</title>
<path fill="none" stroke="midnightblue" d="M109.875,-115.085C130.055,-109.172 154.308,-102.066 175.299,-95.9157"/>
<polygon fill="midnightblue" stroke="midnightblue" points="108.643,-111.798 100.031,-117.969 110.611,-118.516 108.643,-111.798"/>
</g>
<!-- Node17 -->
<g id="node3" class="node"><title>Node17</title>
<g id="a_node3"><a xlink:href="../../db/d35/class_rig_spawner.html#a6518929c282a78ec26de9cf88a3c2032" target="_top" xlink:title="RigSpawner::ProcessNode">
<polygon fill="white" stroke="black" points="318,-187 318,-206 451,-206 451,-187 318,-187"/>
<text text-anchor="middle" x="384.5" y="-194" font-family="Helvetica,sans-Serif" font-size="10.00">RigSpawner::ProcessNode</text>
</a>
</g>
</g>
<!-- Node16&#45;&gt;Node17 -->
<g id="edge2" class="edge"><title>Node16&#45;&gt;Node17</title>
<path fill="none" stroke="midnightblue" d="M270.203,-164.748C295.267,-171.772 326.266,-180.46 349.5,-186.971"/>
<polygon fill="midnightblue" stroke="midnightblue" points="271.14,-161.376 260.567,-162.047 269.251,-168.116 271.14,-161.376"/>
</g>
<!-- Node20 -->
<g id="node6" class="node"><title>Node20</title>
<g id="a_node6"><a xlink:href="../../db/d08/class_rig_def_1_1_serializer.html#a8c9186f75ca10d02b4557395a8076f02" target="_top" xlink:title="RigDef::Serializer\l::ProcessNodes">
<polygon fill="white" stroke="black" points="338.5,-137.5 338.5,-167.5 430.5,-167.5 430.5,-137.5 338.5,-137.5"/>
<text text-anchor="start" x="346.5" y="-155.5" font-family="Helvetica,sans-Serif" font-size="10.00">RigDef::Serializer</text>
<text text-anchor="middle" x="384.5" y="-144.5" font-family="Helvetica,sans-Serif" font-size="10.00">::ProcessNodes</text>
</a>
</g>
</g>
<!-- Node16&#45;&gt;Node20 -->
<g id="edge5" class="edge"><title>Node16&#45;&gt;Node20</title>
<path fill="none" stroke="midnightblue" d="M292.375,-152.5C307.903,-152.5 324.107,-152.5 338.472,-152.5"/>
<polygon fill="midnightblue" stroke="midnightblue" points="292.294,-149 282.294,-152.5 292.294,-156 292.294,-149"/>
</g>
<!-- Node18 -->
<g id="node4" class="node"><title>Node18</title>
<g id="a_node4"><a xlink:href="../../db/d35/class_rig_spawner.html#a67da85dd09bd864df9dc924f6f2a7d49" target="_top" xlink:title="RigSpawner::SpawnRig">
<polygon fill="white" stroke="black" points="494,-187 494,-206 612,-206 612,-187 494,-187"/>
<text text-anchor="middle" x="553" y="-194" font-family="Helvetica,sans-Serif" font-size="10.00">RigSpawner::SpawnRig</text>
</a>
</g>
</g>
<!-- Node17&#45;&gt;Node18 -->
<g id="edge3" class="edge"><title>Node17&#45;&gt;Node18</title>
<path fill="none" stroke="midnightblue" d="M461.64,-196.5C472.497,-196.5 483.517,-196.5 493.953,-196.5"/>
<polygon fill="midnightblue" stroke="midnightblue" points="461.305,-193 451.305,-196.5 461.305,-200 461.305,-193"/>
</g>
<!-- Node19 -->
<g id="node5" class="node"><title>Node19</title>
<g id="a_node5"><a xlink:href="../../db/d35/class_rig_spawner.html#ac7a7f5955b466a52eb2507f435083b0b" target="_top" xlink:title="RigSpawner::RigSpawner">
<polygon fill="white" stroke="black" points="658,-187 658,-206 784,-206 784,-187 658,-187"/>
<text text-anchor="middle" x="721" y="-194" font-family="Helvetica,sans-Serif" font-size="10.00">RigSpawner::RigSpawner</text>
</a>
</g>
</g>
<!-- Node18&#45;&gt;Node19 -->
<g id="edge4" class="edge"><title>Node18&#45;&gt;Node19</title>
<path fill="none" stroke="midnightblue" d="M622.254,-196.5C634.002,-196.5 646.157,-196.5 657.738,-196.5"/>
<polygon fill="midnightblue" stroke="midnightblue" points="622.059,-193 612.059,-196.5 622.059,-200 622.059,-193"/>
</g>
<!-- Node21 -->
<g id="node7" class="node"><title>Node21</title>
<g id="a_node7"><a xlink:href="../../db/d08/class_rig_def_1_1_serializer.html#a0d25ba7124bac77109b3251d0d5014ec" target="_top" xlink:title="RigDef::Serializer\l::Serialize">
<polygon fill="white" stroke="black" points="507,-137.5 507,-167.5 599,-167.5 599,-137.5 507,-137.5"/>
<text text-anchor="start" x="515" y="-155.5" font-family="Helvetica,sans-Serif" font-size="10.00">RigDef::Serializer</text>
<text text-anchor="middle" x="553" y="-144.5" font-family="Helvetica,sans-Serif" font-size="10.00">::Serialize</text>
</a>
</g>
</g>
<!-- Node20&#45;&gt;Node21 -->
<g id="edge6" class="edge"><title>Node20&#45;&gt;Node21</title>
<path fill="none" stroke="midnightblue" d="M440.836,-152.5C462.29,-152.5 486.542,-152.5 506.907,-152.5"/>
<polygon fill="midnightblue" stroke="midnightblue" points="440.557,-149 430.557,-152.5 440.557,-156 440.557,-149"/>
</g>
<!-- Node23 -->
<g id="node9" class="node"><title>Node23</title>
<g id="a_node9"><a xlink:href="../../d4/d43/class_rig_def_1_1_sequential_importer.html#a97bec71f6d710c1c6804d9b1e03977a5" target="_top" xlink:title="RigDef::SequentialImporter\l::ResolveNode">
<polygon fill="white" stroke="black" points="318.5,-44.5 318.5,-74.5 450.5,-74.5 450.5,-44.5 318.5,-44.5"/>
<text text-anchor="start" x="326.5" y="-62.5" font-family="Helvetica,sans-Serif" font-size="10.00">RigDef::SequentialImporter</text>
<text text-anchor="middle" x="384.5" y="-51.5" font-family="Helvetica,sans-Serif" font-size="10.00">::ResolveNode</text>
</a>
</g>
</g>
<!-- Node22&#45;&gt;Node23 -->
<g id="edge8" class="edge"><title>Node22&#45;&gt;Node23</title>
<path fill="none" stroke="midnightblue" d="M285.755,-73.1968C296.384,-71.7073 307.515,-70.1475 318.301,-68.6361"/>
<polygon fill="midnightblue" stroke="midnightblue" points="285.163,-69.7455 275.745,-74.5994 286.134,-76.6778 285.163,-69.7455"/>
</g>
<!-- Node24 -->
<g id="node10" class="node"><title>Node24</title>
<g id="a_node10"><a xlink:href="../../d4/d43/class_rig_def_1_1_sequential_importer.html#a3b5fe4ea5c9ab72bab2c88845cbe144a" target="_top" xlink:title="RigDef::SequentialImporter\l::ResolveNodeRanges">
<polygon fill="white" stroke="black" points="487,-88.5 487,-118.5 619,-118.5 619,-88.5 487,-88.5"/>
<text text-anchor="start" x="495" y="-106.5" font-family="Helvetica,sans-Serif" font-size="10.00">RigDef::SequentialImporter</text>
<text text-anchor="middle" x="553" y="-95.5" font-family="Helvetica,sans-Serif" font-size="10.00">::ResolveNodeRanges</text>
</a>
</g>
</g>
<!-- Node22&#45;&gt;Node24 -->
<g id="edge14" class="edge"><title>Node22&#45;&gt;Node24</title>
<path fill="none" stroke="midnightblue" d="M285.839,-85.5106C342.624,-89.3486 428.08,-95.1244 486.755,-99.0902"/>
<polygon fill="midnightblue" stroke="midnightblue" points="285.796,-81.9998 275.583,-84.8174 285.324,-88.9839 285.796,-81.9998"/>
</g>
<!-- Node26 -->
<g id="node12" class="node"><title>Node26</title>
<g id="a_node12"><a xlink:href="../../d4/d43/class_rig_def_1_1_sequential_importer.html#a6029705326e0cfa1d42e06ff8a3937de" target="_top" xlink:title="RigDef::SequentialImporter\l::ResolveFlexbodyForset">
<polygon fill="white" stroke="black" points="487,-0.5 487,-30.5 619,-30.5 619,-0.5 487,-0.5"/>
<text text-anchor="start" x="495" y="-18.5" font-family="Helvetica,sans-Serif" font-size="10.00">RigDef::SequentialImporter</text>
<text text-anchor="middle" x="553" y="-7.5" font-family="Helvetica,sans-Serif" font-size="10.00">::ResolveFlexbodyForset</text>
</a>
</g>
</g>
<!-- Node22&#45;&gt;Node26 -->
<g id="edge12" class="edge"><title>Node22&#45;&gt;Node26</title>
<path fill="none" stroke="midnightblue" d="M258.452,-61.1386C275.463,-51.3389 297.134,-40.4498 318,-34.5 373.561,-18.6574 439.336,-14.5339 486.979,-14.0088"/>
<polygon fill="midnightblue" stroke="midnightblue" points="256.336,-58.3244 249.516,-66.4325 259.903,-64.347 256.336,-58.3244"/>
</g>
<!-- Node23&#45;&gt;Node24 -->
<g id="edge9" class="edge"><title>Node23&#45;&gt;Node24</title>
<path fill="none" stroke="midnightblue" d="M452.078,-77.0941C466.34,-80.8632 481.284,-84.8122 495.139,-88.4738"/>
<polygon fill="midnightblue" stroke="midnightblue" points="452.897,-73.6904 442.334,-74.5192 451.108,-80.4581 452.897,-73.6904"/>
</g>
<!-- Node25 -->
<g id="node11" class="node"><title>Node25</title>
<g id="a_node11"><a xlink:href="../../d4/d43/class_rig_def_1_1_sequential_importer.html#a2a913a50fa126bf8f9bdc6f4485fb5f9" target="_top" xlink:title="RigDef::SequentialImporter\l::GetMessagesNumOther">
<polygon fill="white" stroke="black" points="655,-44.5 655,-74.5 787,-74.5 787,-44.5 655,-44.5"/>
<text text-anchor="start" x="663" y="-62.5" font-family="Helvetica,sans-Serif" font-size="10.00">RigDef::SequentialImporter</text>
<text text-anchor="middle" x="721" y="-51.5" font-family="Helvetica,sans-Serif" font-size="10.00">::GetMessagesNumOther</text>
</a>
</g>
</g>
<!-- Node23&#45;&gt;Node25 -->
<g id="edge11" class="edge"><title>Node23&#45;&gt;Node25</title>
<path fill="none" stroke="midnightblue" d="M461.057,-59.5C519.412,-59.5 599.322,-59.5 654.876,-59.5"/>
<polygon fill="midnightblue" stroke="midnightblue" points="460.789,-56.0001 450.789,-59.5 460.789,-63.0001 460.789,-56.0001"/>
</g>
<!-- Node24&#45;&gt;Node25 -->
<g id="edge10" class="edge"><title>Node24&#45;&gt;Node25</title>
<path fill="none" stroke="midnightblue" d="M620.378,-85.9059C634.598,-82.1368 649.496,-78.1878 663.31,-74.5262"/>
<polygon fill="midnightblue" stroke="midnightblue" points="619.433,-82.5354 610.663,-88.4808 621.226,-89.3017 619.433,-82.5354"/>
</g>
<!-- Node26&#45;&gt;Node25 -->
<g id="edge13" class="edge"><title>Node26&#45;&gt;Node25</title>
<path fill="none" stroke="midnightblue" d="M620.378,-33.0941C634.598,-36.8632 649.496,-40.8122 663.31,-44.4738"/>
<polygon fill="midnightblue" stroke="midnightblue" points="621.226,-29.6983 610.663,-30.5192 619.433,-36.4646 621.226,-29.6983"/>
</g>
</g>
</svg>
