<?xml version="1.0" encoding="UTF-8" standalone="no"?>
<!DOCTYPE svg PUBLIC "-//W3C//DTD SVG 1.1//EN"
 "http://www.w3.org/Graphics/SVG/1.1/DTD/svg11.dtd">
<!-- Generated by graphviz version 2.38.0 (20140413.2041)
 -->
<!-- Title: Ogre::TerrainPSSMMaterialGenerator::SM2Profile::ShaderHelper::getChannel Pages: 1 -->
<svg width="360pt" height="122pt"
 viewBox="0.00 0.00 360.00 121.50" xmlns="http://www.w3.org/2000/svg" xmlns:xlink="http://www.w3.org/1999/xlink">
<g id="graph0" class="graph" transform="scale(1 1) rotate(0) translate(4 117.5)">
<title>Ogre::TerrainPSSMMaterialGenerator::SM2Profile::ShaderHelper::getChannel</title>
<polygon fill="white" stroke="none" points="-4,4 -4,-117.5 356,-117.5 356,4 -4,4"/>
<!-- Node112 -->
<g id="node1" class="node"><title>Node112</title>
<polygon fill="#bfbfbf" stroke="black" points="0,-33.5 0,-74.5 136,-74.5 136,-33.5 0,-33.5"/>
<text text-anchor="start" x="8" y="-62.5" font-family="Helvetica,sans-Serif" font-size="10.00">Ogre::TerrainPSSMMaterial</text>
<text text-anchor="start" x="8" y="-51.5" font-family="Helvetica,sans-Serif" font-size="10.00">Generator::SM2Profile::</text>
<text text-anchor="middle" x="68" y="-40.5" font-family="Helvetica,sans-Serif" font-size="10.00">ShaderHelper::getChannel</text>
</g>
<!-- Node113 -->
<g id="node2" class="node"><title>Node113</title>
<g id="a_node2"><a xlink:href="../../dd/d33/class_ogre_1_1_terrain_p_s_s_m_material_generator_1_1_s_m2_profile_1_1_shader_helper_cg.html#af0951aad9d95e4b3240b880bb9a30b37" target="_top" xlink:title="Ogre::TerrainPSSMMaterial\lGenerator::SM2Profile::\lShaderHelperCg::generateFpDynamic\lShadowsHelpers">
<polygon fill="white" stroke="black" points="172,-61 172,-113 352,-113 352,-61 172,-61"/>
<text text-anchor="start" x="180" y="-101" font-family="Helvetica,sans-Serif" font-size="10.00">Ogre::TerrainPSSMMaterial</text>
<text text-anchor="start" x="180" y="-90" font-family="Helvetica,sans-Serif" font-size="10.00">Generator::SM2Profile::</text>
<text text-anchor="start" x="180" y="-79" font-family="Helvetica,sans-Serif" font-size="10.00">ShaderHelperCg::generateFpDynamic</text>
<text text-anchor="middle" x="262" y="-68" font-family="Helvetica,sans-Serif" font-size="10.00">ShadowsHelpers</text>
</a>
</g>
</g>
<!-- Node112&#45;&gt;Node113 -->
<g id="edge1" class="edge"><title>Node112&#45;&gt;Node113</title>
<path fill="none" stroke="midnightblue" d="M146.045,-67.242C154.567,-68.7068 163.297,-70.2073 171.951,-71.6947"/>
<polygon fill="midnightblue" stroke="midnightblue" points="146.601,-63.7864 136.152,-65.5418 145.415,-70.6852 146.601,-63.7864"/>
</g>
<!-- Node114 -->
<g id="node3" class="node"><title>Node114</title>
<g id="a_node3"><a xlink:href="../../d7/d75/class_ogre_1_1_terrain_p_s_s_m_material_generator_1_1_s_m2_profile_1_1_shader_helper.html#ab95641c2ba501d35606692caee36a3d1" target="_top" xlink:title="Ogre::TerrainPSSMMaterial\lGenerator::SM2Profile::\lShaderHelper::~ShaderHelper">
<polygon fill="white" stroke="black" points="189,-0.5 189,-41.5 335,-41.5 335,-0.5 189,-0.5"/>
<text text-anchor="start" x="197" y="-29.5" font-family="Helvetica,sans-Serif" font-size="10.00">Ogre::TerrainPSSMMaterial</text>
<text text-anchor="start" x="197" y="-18.5" font-family="Helvetica,sans-Serif" font-size="10.00">Generator::SM2Profile::</text>
<text text-anchor="middle" x="262" y="-7.5" font-family="Helvetica,sans-Serif" font-size="10.00">ShaderHelper::~ShaderHelper</text>
</a>
</g>
</g>
<!-- Node112&#45;&gt;Node114 -->
<g id="edge2" class="edge"><title>Node112&#45;&gt;Node114</title>
<path fill="none" stroke="midnightblue" d="M146.299,-40.7142C160.395,-38.2915 175.051,-35.7726 188.986,-33.3775"/>
<polygon fill="midnightblue" stroke="midnightblue" points="145.415,-37.3148 136.152,-42.4582 146.601,-44.2136 145.415,-37.3148"/>
</g>
</g>
</svg>
