<?xml version="1.0" encoding="UTF-8" standalone="no"?>
<!DOCTYPE svg PUBLIC "-//W3C//DTD SVG 1.1//EN"
 "http://www.w3.org/Graphics/SVG/1.1/DTD/svg11.dtd">
<!-- Generated by graphviz version 2.38.0 (20140413.2041)
 -->
<!-- Title: Hydrax::Mesh::remove Pages: 1 -->
<!--zoomable 384 -->
<svg id="main" version="1.1" xmlns="http://www.w3.org/2000/svg" xmlns:xlink="http://www.w3.org/1999/xlink" xml:space="preserve" onload="init(evt)">
<style type="text/css"><![CDATA[
.edge:hover path { stroke: red; }
.edge:hover polygon { stroke: red; fill: red; }
]]></style>
<script type="text/javascript"><![CDATA[
var edges = document.getElementsByTagName('g');
if (edges && edges.length) {
  for (var i=0;i<edges.length;i++) {
    if (edges[i].id.substr(0,4)=='edge') {
      edges[i].setAttribute('class','edge');
    }
  }
}
]]></script>
        <defs>
                <circle id="rim" cx="0" cy="0" r="7"/>
                <circle id="rim2" cx="0" cy="0" r="3.5"/>
                <g id="zoomPlus">
                        <use xlink:href="#rim" fill="#404040">
                                <set attributeName="fill" to="#808080" begin="zoomplus.mouseover" end="zoomplus.mouseout"/>
                        </use>
                        <path d="M-4,0h8M0,-4v8" fill="none" stroke="white" stroke-width="1.5" pointer-events="none"/>
                </g>
                <g id="zoomMin">
                        <use xlink:href="#rim" fill="#404040">
                                <set attributeName="fill" to="#808080" begin="zoomminus.mouseover" end="zoomminus.mouseout"/>
                        </use>
                        <path d="M-4,0h8" fill="none" stroke="white" stroke-width="1.5" pointer-events="none"/>
                </g>
                <g id="dirArrow">
                        <path fill="none" stroke="white" stroke-width="1.5" d="M0,-3.0v7 M-2.5,-0.5L0,-3.0L2.5,-0.5"/>
                </g>
               <g id="resetDef">
                       <use xlink:href="#rim2" fill="#404040">
                               <set attributeName="fill" to="#808080" begin="reset.mouseover" end="reset.mouseout"/>
                       </use>
               </g>
        </defs>

<script type="text/javascript">
var viewWidth = 647;
var viewHeight = 384;
var sectionId = 'dynsection-21';
</script>
<script xlink:href="../../svgpan.js"/>
<svg id="graph" class="graph">
<g id="viewport">
<title>Hydrax::Mesh::remove</title>
<polygon fill="white" stroke="none" points="-4,4 -4,-380 643,-380 643,4 -4,4"/>
<!-- Node169 -->
<g id="node1" class="node"><title>Node169</title>
<polygon fill="#bfbfbf" stroke="black" points="0,-165 0,-184 114,-184 114,-165 0,-165"/>
<text text-anchor="middle" x="57" y="-172" font-family="Helvetica,sans-Serif" font-size="10.00">Hydrax::Mesh::remove</text>
</g>
<!-- Node170 -->
<g id="node2" class="node"><title>Node170</title>
<g id="a_node2"><a xlink:href="../../de/dda/class_hydrax_1_1_module_1_1_projected_grid.html#a04d04b9cfc173538038a5f51094c1ffa" target="_top" xlink:title="Hydrax::Module::Projected\lGrid::setOptions">
<polygon fill="white" stroke="black" points="153.5,-274.5 153.5,-304.5 285.5,-304.5 285.5,-274.5 153.5,-274.5"/>
<text text-anchor="start" x="161.5" y="-292.5" font-family="Helvetica,sans-Serif" font-size="10.00">Hydrax::Module::Projected</text>
<text text-anchor="middle" x="219.5" y="-281.5" font-family="Helvetica,sans-Serif" font-size="10.00">Grid::setOptions</text>
</a>
</g>
</g>
<!-- Node169&#45;&gt;Node170 -->
<g id="edge1" class="edge"><title>Node169&#45;&gt;Node170</title>
<path fill="none" stroke="midnightblue" d="M79.7819,-190.107C110.729,-212.281 167.045,-252.632 197.537,-274.48"/>
<polygon fill="midnightblue" stroke="midnightblue" points="81.5754,-187.086 71.4081,-184.107 77.4983,-192.777 81.5754,-187.086"/>
</g>
<!-- Node174 -->
<g id="node6" class="node"><title>Node174</title>
<g id="a_node6"><a xlink:href="../../db/d22/class_hydrax_1_1_module_1_1_radial_grid.html#acfc2ae157df9b6159302a90561ffc038" target="_top" xlink:title="Hydrax::Module::RadialGrid\l::setOptions">
<polygon fill="white" stroke="black" points="151.5,-159.5 151.5,-189.5 287.5,-189.5 287.5,-159.5 151.5,-159.5"/>
<text text-anchor="start" x="159.5" y="-177.5" font-family="Helvetica,sans-Serif" font-size="10.00">Hydrax::Module::RadialGrid</text>
<text text-anchor="middle" x="219.5" y="-166.5" font-family="Helvetica,sans-Serif" font-size="10.00">::setOptions</text>
</a>
</g>
</g>
<!-- Node169&#45;&gt;Node174 -->
<g id="edge6" class="edge"><title>Node169&#45;&gt;Node174</title>
<path fill="none" stroke="midnightblue" d="M124.151,-174.5C133.136,-174.5 142.365,-174.5 151.367,-174.5"/>
<polygon fill="midnightblue" stroke="midnightblue" points="124.135,-171 114.135,-174.5 124.135,-178 124.135,-171"/>
</g>
<!-- Node178 -->
<g id="node10" class="node"><title>Node178</title>
<g id="a_node10"><a xlink:href="../../d6/dec/class_hydrax_1_1_module_1_1_simple_grid.html#a6b83cb95b2803b068a53bf76afaa9ac4" target="_top" xlink:title="Hydrax::Module::SimpleGrid\l::setOptions">
<polygon fill="white" stroke="black" points="150,-47.5 150,-77.5 289,-77.5 289,-47.5 150,-47.5"/>
<text text-anchor="start" x="158" y="-65.5" font-family="Helvetica,sans-Serif" font-size="10.00">Hydrax::Module::SimpleGrid</text>
<text text-anchor="middle" x="219.5" y="-54.5" font-family="Helvetica,sans-Serif" font-size="10.00">::setOptions</text>
</a>
</g>
</g>
<!-- Node169&#45;&gt;Node178 -->
<g id="edge11" class="edge"><title>Node169&#45;&gt;Node178</title>
<path fill="none" stroke="midnightblue" d="M80.0211,-159.133C110.774,-137.673 166.24,-98.9684 196.813,-77.6339"/>
<polygon fill="midnightblue" stroke="midnightblue" points="77.8819,-156.358 71.6841,-164.951 81.8878,-162.099 77.8819,-156.358"/>
</g>
<!-- Node171 -->
<g id="node3" class="node"><title>Node171</title>
<g id="a_node3"><a xlink:href="../../de/dda/class_hydrax_1_1_module_1_1_projected_grid.html#aa9308990b99866cbd09edd3600972443" target="_top" xlink:title="Hydrax::Module::Projected\lGrid::ProjectedGrid">
<polygon fill="white" stroke="black" points="328.5,-345.5 328.5,-375.5 460.5,-375.5 460.5,-345.5 328.5,-345.5"/>
<text text-anchor="start" x="336.5" y="-363.5" font-family="Helvetica,sans-Serif" font-size="10.00">Hydrax::Module::Projected</text>
<text text-anchor="middle" x="394.5" y="-352.5" font-family="Helvetica,sans-Serif" font-size="10.00">Grid::ProjectedGrid</text>
</a>
</g>
</g>
<!-- Node170&#45;&gt;Node171 -->
<g id="edge2" class="edge"><title>Node170&#45;&gt;Node171</title>
<path fill="none" stroke="midnightblue" d="M261.53,-308.933C280.656,-317.738 303.821,-328.045 325,-336.5 332.607,-339.537 340.767,-342.579 348.709,-345.427"/>
<polygon fill="midnightblue" stroke="midnightblue" points="262.756,-305.644 252.211,-304.615 259.813,-311.995 262.756,-305.644"/>
</g>
<!-- Node172 -->
<g id="node4" class="node"><title>Node172</title>
<g id="a_node4"><a xlink:href="../../de/dda/class_hydrax_1_1_module_1_1_projected_grid.html#af951c58cc93cf75d57e69aa14a668d3e" target="_top" xlink:title="Hydrax::Module::Projected\lGrid::loadCfg">
<polygon fill="white" stroke="black" points="328.5,-296.5 328.5,-326.5 460.5,-326.5 460.5,-296.5 328.5,-296.5"/>
<text text-anchor="start" x="336.5" y="-314.5" font-family="Helvetica,sans-Serif" font-size="10.00">Hydrax::Module::Projected</text>
<text text-anchor="middle" x="394.5" y="-303.5" font-family="Helvetica,sans-Serif" font-size="10.00">Grid::loadCfg</text>
</a>
</g>
</g>
<!-- Node170&#45;&gt;Node172 -->
<g id="edge3" class="edge"><title>Node170&#45;&gt;Node172</title>
<path fill="none" stroke="midnightblue" d="M296.098,-299.114C306.826,-300.478 317.782,-301.871 328.291,-303.207"/>
<polygon fill="midnightblue" stroke="midnightblue" points="296.266,-295.607 285.904,-297.817 295.382,-302.551 296.266,-295.607"/>
</g>
<!-- Node173 -->
<g id="node5" class="node"><title>Node173</title>
<g id="a_node5"><a xlink:href="../../d8/d61/struct_hydrax_1_1_module_1_1_projected_grid_1_1_options.html#a74bb8c6be631094b762eeace24422509" target="_top" xlink:title="Hydrax::Module::Projected\lGrid::Options::Options">
<polygon fill="white" stroke="black" points="503.5,-274.5 503.5,-304.5 635.5,-304.5 635.5,-274.5 503.5,-274.5"/>
<text text-anchor="start" x="511.5" y="-292.5" font-family="Helvetica,sans-Serif" font-size="10.00">Hydrax::Module::Projected</text>
<text text-anchor="middle" x="569.5" y="-281.5" font-family="Helvetica,sans-Serif" font-size="10.00">Grid::Options::Options</text>
</a>
</g>
</g>
<!-- Node170&#45;&gt;Node173 -->
<g id="edge5" class="edge"><title>Node170&#45;&gt;Node173</title>
<path fill="none" stroke="midnightblue" d="M295.869,-287.886C305.669,-287.726 315.573,-287.59 325,-287.5 386.775,-286.909 402.225,-286.909 464,-287.5 476.701,-287.622 490.27,-287.826 503.282,-288.059"/>
<polygon fill="midnightblue" stroke="midnightblue" points="295.657,-284.389 285.718,-288.059 295.777,-291.388 295.657,-284.389"/>
</g>
<!-- Node172&#45;&gt;Node173 -->
<g id="edge4" class="edge"><title>Node172&#45;&gt;Node173</title>
<path fill="none" stroke="midnightblue" d="M471.098,-301.886C481.826,-300.522 492.782,-299.129 503.291,-297.793"/>
<polygon fill="midnightblue" stroke="midnightblue" points="470.382,-298.449 460.904,-303.183 471.266,-305.393 470.382,-298.449"/>
</g>
<!-- Node175 -->
<g id="node7" class="node"><title>Node175</title>
<g id="a_node7"><a xlink:href="../../db/d22/class_hydrax_1_1_module_1_1_radial_grid.html#abc52ff8727a537d5303fabc1179fa45f" target="_top" xlink:title="Hydrax::Module::RadialGrid\l::RadialGrid">
<polygon fill="white" stroke="black" points="326.5,-208.5 326.5,-238.5 462.5,-238.5 462.5,-208.5 326.5,-208.5"/>
<text text-anchor="start" x="334.5" y="-226.5" font-family="Helvetica,sans-Serif" font-size="10.00">Hydrax::Module::RadialGrid</text>
<text text-anchor="middle" x="394.5" y="-215.5" font-family="Helvetica,sans-Serif" font-size="10.00">::RadialGrid</text>
</a>
</g>
</g>
<!-- Node174&#45;&gt;Node175 -->
<g id="edge7" class="edge"><title>Node174&#45;&gt;Node175</title>
<path fill="none" stroke="midnightblue" d="M283.677,-192.394C302.285,-197.664 322.448,-203.376 340.359,-208.448"/>
<polygon fill="midnightblue" stroke="midnightblue" points="284.393,-188.959 273.817,-189.601 282.485,-195.694 284.393,-188.959"/>
</g>
<!-- Node176 -->
<g id="node8" class="node"><title>Node176</title>
<g id="a_node8"><a xlink:href="../../db/d22/class_hydrax_1_1_module_1_1_radial_grid.html#a31b3bab8e74f2f1e316a1800470ac685" target="_top" xlink:title="Hydrax::Module::RadialGrid\l::loadCfg">
<polygon fill="white" stroke="black" points="326.5,-159.5 326.5,-189.5 462.5,-189.5 462.5,-159.5 326.5,-159.5"/>
<text text-anchor="start" x="334.5" y="-177.5" font-family="Helvetica,sans-Serif" font-size="10.00">Hydrax::Module::RadialGrid</text>
<text text-anchor="middle" x="394.5" y="-166.5" font-family="Helvetica,sans-Serif" font-size="10.00">::loadCfg</text>
</a>
</g>
</g>
<!-- Node174&#45;&gt;Node176 -->
<g id="edge8" class="edge"><title>Node174&#45;&gt;Node176</title>
<path fill="none" stroke="midnightblue" d="M298.036,-174.5C307.466,-174.5 317.04,-174.5 326.302,-174.5"/>
<polygon fill="midnightblue" stroke="midnightblue" points="297.882,-171 287.882,-174.5 297.882,-178 297.882,-171"/>
</g>
<!-- Node177 -->
<g id="node9" class="node"><title>Node177</title>
<g id="a_node9"><a xlink:href="../../da/d9f/struct_hydrax_1_1_module_1_1_radial_grid_1_1_options.html#adfd6913bd2770eb6e96358ce7cea48a3" target="_top" xlink:title="Hydrax::Module::RadialGrid\l::Options::Options">
<polygon fill="white" stroke="black" points="501.5,-137.5 501.5,-167.5 637.5,-167.5 637.5,-137.5 501.5,-137.5"/>
<text text-anchor="start" x="509.5" y="-155.5" font-family="Helvetica,sans-Serif" font-size="10.00">Hydrax::Module::RadialGrid</text>
<text text-anchor="middle" x="569.5" y="-144.5" font-family="Helvetica,sans-Serif" font-size="10.00">::Options::Options</text>
</a>
</g>
</g>
<!-- Node174&#45;&gt;Node177 -->
<g id="edge10" class="edge"><title>Node174&#45;&gt;Node177</title>
<path fill="none" stroke="midnightblue" d="M285.259,-157.241C298.324,-154.436 312.03,-151.97 325,-150.5 384.334,-143.774 452.323,-145.079 501.352,-147.601"/>
<polygon fill="midnightblue" stroke="midnightblue" points="284.411,-153.844 275.416,-159.442 285.938,-160.676 284.411,-153.844"/>
</g>
<!-- Node176&#45;&gt;Node177 -->
<g id="edge9" class="edge"><title>Node176&#45;&gt;Node177</title>
<path fill="none" stroke="midnightblue" d="M473.036,-164.64C482.466,-163.441 492.04,-162.223 501.302,-161.045"/>
<polygon fill="midnightblue" stroke="midnightblue" points="472.36,-161.198 462.882,-165.931 473.243,-168.142 472.36,-161.198"/>
</g>
<!-- Node179 -->
<g id="node11" class="node"><title>Node179</title>
<g id="a_node11"><a xlink:href="../../d6/dec/class_hydrax_1_1_module_1_1_simple_grid.html#aae091cd103798dcc8f8b92af7dbfccef" target="_top" xlink:title="Hydrax::Module::SimpleGrid\l::SimpleGrid">
<polygon fill="white" stroke="black" points="325,-71.5 325,-101.5 464,-101.5 464,-71.5 325,-71.5"/>
<text text-anchor="start" x="333" y="-89.5" font-family="Helvetica,sans-Serif" font-size="10.00">Hydrax::Module::SimpleGrid</text>
<text text-anchor="middle" x="394.5" y="-78.5" font-family="Helvetica,sans-Serif" font-size="10.00">::SimpleGrid</text>
</a>
</g>
</g>
<!-- Node178&#45;&gt;Node179 -->
<g id="edge12" class="edge"><title>Node178&#45;&gt;Node179</title>
<path fill="none" stroke="midnightblue" d="M299.316,-73.434C307.844,-74.6171 316.472,-75.8141 324.866,-76.9785"/>
<polygon fill="midnightblue" stroke="midnightblue" points="299.757,-69.9618 289.371,-72.0544 298.795,-76.8954 299.757,-69.9618"/>
</g>
<!-- Node180 -->
<g id="node12" class="node"><title>Node180</title>
<g id="a_node12"><a xlink:href="../../d6/dec/class_hydrax_1_1_module_1_1_simple_grid.html#a3741ec1a3df1863e730711fd9d3b14e1" target="_top" xlink:title="Hydrax::Module::SimpleGrid\l::loadCfg">
<polygon fill="white" stroke="black" points="325,-22.5 325,-52.5 464,-52.5 464,-22.5 325,-22.5"/>
<text text-anchor="start" x="333" y="-40.5" font-family="Helvetica,sans-Serif" font-size="10.00">Hydrax::Module::SimpleGrid</text>
<text text-anchor="middle" x="394.5" y="-29.5" font-family="Helvetica,sans-Serif" font-size="10.00">::loadCfg</text>
</a>
</g>
</g>
<!-- Node178&#45;&gt;Node180 -->
<g id="edge13" class="edge"><title>Node178&#45;&gt;Node180</title>
<path fill="none" stroke="midnightblue" d="M299.316,-51.1104C307.844,-49.8781 316.472,-48.6312 324.866,-47.4183"/>
<polygon fill="midnightblue" stroke="midnightblue" points="298.768,-47.6532 289.371,-52.5475 299.769,-54.5812 298.768,-47.6532"/>
</g>
<!-- Node181 -->
<g id="node13" class="node"><title>Node181</title>
<g id="a_node13"><a xlink:href="../../db/dc4/struct_hydrax_1_1_module_1_1_simple_grid_1_1_options.html#a92c116257b26710c6a1e6c456738da7d" target="_top" xlink:title="Hydrax::Module::SimpleGrid\l::Options::Options">
<polygon fill="white" stroke="black" points="500,-0.5 500,-30.5 639,-30.5 639,-0.5 500,-0.5"/>
<text text-anchor="start" x="508" y="-18.5" font-family="Helvetica,sans-Serif" font-size="10.00">Hydrax::Module::SimpleGrid</text>
<text text-anchor="middle" x="569.5" y="-7.5" font-family="Helvetica,sans-Serif" font-size="10.00">::Options::Options</text>
</a>
</g>
</g>
<!-- Node178&#45;&gt;Node181 -->
<g id="edge15" class="edge"><title>Node178&#45;&gt;Node181</title>
<path fill="none" stroke="midnightblue" d="M252.959,-42.3109C272.921,-31.1045 299.487,-18.2893 325,-12.5 382.927,0.644626 450.616,-1.54267 499.902,-6.19202"/>
<polygon fill="midnightblue" stroke="midnightblue" points="251.195,-39.2882 244.28,-47.3156 254.691,-45.3524 251.195,-39.2882"/>
</g>
<!-- Node180&#45;&gt;Node181 -->
<g id="edge14" class="edge"><title>Node180&#45;&gt;Node181</title>
<path fill="none" stroke="midnightblue" d="M474.316,-27.4772C482.844,-26.3927 491.472,-25.2955 499.866,-24.2281"/>
<polygon fill="midnightblue" stroke="midnightblue" points="473.85,-24.0082 464.371,-28.7418 474.733,-30.9522 473.85,-24.0082"/>
</g>
</g>
</svg>
        <g id="navigator" transform="translate(0 0)" fill="#404254">
                <rect fill="#f2f5e9" fill-opacity="0.5" stroke="#606060" stroke-width=".5" x="0" y="0" width="60" height="60"/>
                <use id="zoomplus" xlink:href="#zoomPlus" x="17" y="9" onmousedown="handleZoom(evt,'in')"/>
                <use id="zoomminus" xlink:href="#zoomMin" x="42" y="9" onmousedown="handleZoom(evt,'out')"/>
                <use id="reset" xlink:href="#resetDef" x="30" y="36" onmousedown="handleReset()"/>
                <g id="arrowUp" xlink:href="#dirArrow" transform="translate(30 24)" onmousedown="handlePan(0,-1)">
                  <use xlink:href="#rim" fill="#404040">
                        <set attributeName="fill" to="#808080" begin="arrowUp.mouseover" end="arrowUp.mouseout"/>
                  </use>
                  <path fill="none" stroke="white" stroke-width="1.5" d="M0,-3.0v7 M-2.5,-0.5L0,-3.0L2.5,-0.5"/>
                </g>
                <g id="arrowRight" xlink:href="#dirArrow" transform="rotate(90) translate(36 -43)" onmousedown="handlePan(1,0)">
                  <use xlink:href="#rim" fill="#404040">
                        <set attributeName="fill" to="#808080" begin="arrowRight.mouseover" end="arrowRight.mouseout"/>
                  </use>
                  <path fill="none" stroke="white" stroke-width="1.5" d="M0,-3.0v7 M-2.5,-0.5L0,-3.0L2.5,-0.5"/>
                </g>
                <g id="arrowDown" xlink:href="#dirArrow" transform="rotate(180) translate(-30 -48)" onmousedown="handlePan(0,1)">
                  <use xlink:href="#rim" fill="#404040">
                        <set attributeName="fill" to="#808080" begin="arrowDown.mouseover" end="arrowDown.mouseout"/>
                  </use>
                  <path fill="none" stroke="white" stroke-width="1.5" d="M0,-3.0v7 M-2.5,-0.5L0,-3.0L2.5,-0.5"/>
                </g>
                <g id="arrowLeft" xlink:href="#dirArrow" transform="rotate(270) translate(-36 17)" onmousedown="handlePan(-1,0)">
                  <use xlink:href="#rim" fill="#404040">
                        <set attributeName="fill" to="#808080" begin="arrowLeft.mouseover" end="arrowLeft.mouseout"/>
                  </use>
                  <path fill="none" stroke="white" stroke-width="1.5" d="M0,-3.0v7 M-2.5,-0.5L0,-3.0L2.5,-0.5"/>
                </g>
        </g>
        <svg viewBox="0 0 15 15" width="100%" height="30px" preserveAspectRatio="xMaxYMin meet">
         <g id="arrow_out" transform="scale(0.3 0.3)">
          <a xlink:href="class_hydrax_1_1_mesh_a5091867b361900642f5892e56661c790_icgraph_org.svg" target="_base">
           <rect id="button" ry="5" rx="5" y="6" x="6" height="38" width="38"
                fill="#f2f5e9" fill-opacity="0.5" stroke="#606060" stroke-width="1.0"/>
           <path id="arrow"
             d="M 11.500037,31.436501 C 11.940474,20.09759 22.043105,11.32322 32.158766,21.979434 L 37.068811,17.246167 C 37.068811,17.246167 37.088388,32 37.088388,32 L 22.160133,31.978069 C 22.160133,31.978069 26.997745,27.140456 26.997745,27.140456 C 18.528582,18.264221 13.291696,25.230495 11.500037,31.436501 z"
             style="fill:#404040;"/>
          </a>
         </g>
        </svg>
</svg>
