<?xml version="1.0" encoding="UTF-8" standalone="no"?>
<!DOCTYPE svg PUBLIC "-//W3C//DTD SVG 1.1//EN"
 "http://www.w3.org/Graphics/SVG/1.1/DTD/svg11.dtd">
<!-- Generated by graphviz version 2.38.0 (20140413.2041)
 -->
<!-- Title: Hydrax::Mesh::getOptions Pages: 1 -->
<!--zoomable 314 -->
<svg id="main" version="1.1" xmlns="http://www.w3.org/2000/svg" xmlns:xlink="http://www.w3.org/1999/xlink" xml:space="preserve" onload="init(evt)">
<style type="text/css"><![CDATA[
.edge:hover path { stroke: red; }
.edge:hover polygon { stroke: red; fill: red; }
]]></style>
<script type="text/javascript"><![CDATA[
var edges = document.getElementsByTagName('g');
if (edges && edges.length) {
  for (var i=0;i<edges.length;i++) {
    if (edges[i].id.substr(0,4)=='edge') {
      edges[i].setAttribute('class','edge');
    }
  }
}
]]></script>
        <defs>
                <circle id="rim" cx="0" cy="0" r="7"/>
                <circle id="rim2" cx="0" cy="0" r="3.5"/>
                <g id="zoomPlus">
                        <use xlink:href="#rim" fill="#404040">
                                <set attributeName="fill" to="#808080" begin="zoomplus.mouseover" end="zoomplus.mouseout"/>
                        </use>
                        <path d="M-4,0h8M0,-4v8" fill="none" stroke="white" stroke-width="1.5" pointer-events="none"/>
                </g>
                <g id="zoomMin">
                        <use xlink:href="#rim" fill="#404040">
                                <set attributeName="fill" to="#808080" begin="zoomminus.mouseover" end="zoomminus.mouseout"/>
                        </use>
                        <path d="M-4,0h8" fill="none" stroke="white" stroke-width="1.5" pointer-events="none"/>
                </g>
                <g id="dirArrow">
                        <path fill="none" stroke="white" stroke-width="1.5" d="M0,-3.0v7 M-2.5,-0.5L0,-3.0L2.5,-0.5"/>
                </g>
               <g id="resetDef">
                       <use xlink:href="#rim2" fill="#404040">
                               <set attributeName="fill" to="#808080" begin="reset.mouseover" end="reset.mouseout"/>
                       </use>
               </g>
        </defs>

<script type="text/javascript">
var viewWidth = 1151;
var viewHeight = 314;
var sectionId = 'dynsection-12';
</script>
<script xlink:href="../../svgpan.js"/>
<svg id="graph" class="graph">
<g id="viewport">
<title>Hydrax::Mesh::getOptions</title>
<polygon fill="white" stroke="none" points="-4,4 -4,-310 1147,-310 1147,4 -4,4"/>
<!-- Node102 -->
<g id="node1" class="node"><title>Node102</title>
<polygon fill="#bfbfbf" stroke="black" points="0,-153 0,-172 131,-172 131,-153 0,-153"/>
<text text-anchor="middle" x="65.5" y="-160" font-family="Helvetica,sans-Serif" font-size="10.00">Hydrax::Mesh::getOptions</text>
</g>
<!-- Node103 -->
<g id="node2" class="node"><title>Node103</title>
<g id="a_node2"><a xlink:href="../../da/d12/class_hydrax_1_1_material_manager.html#a20f50f4b2b7d133fcc5be5e31d136856" target="_top" xlink:title="Hydrax::MaterialManager\l::_createWaterMaterial">
<polygon fill="white" stroke="black" points="167,-196.5 167,-226.5 292,-226.5 292,-196.5 167,-196.5"/>
<text text-anchor="start" x="175" y="-214.5" font-family="Helvetica,sans-Serif" font-size="10.00">Hydrax::MaterialManager</text>
<text text-anchor="middle" x="229.5" y="-203.5" font-family="Helvetica,sans-Serif" font-size="10.00">::_createWaterMaterial</text>
</a>
</g>
</g>
<!-- Node102&#45;&gt;Node103 -->
<g id="edge1" class="edge"><title>Node102&#45;&gt;Node103</title>
<path fill="none" stroke="midnightblue" d="M107.967,-175.043C129.554,-181.572 156.104,-189.602 178.786,-196.463"/>
<polygon fill="midnightblue" stroke="midnightblue" points="108.705,-171.609 98.1198,-172.064 106.678,-178.309 108.705,-171.609"/>
</g>
<!-- Node106 -->
<g id="node5" class="node"><title>Node106</title>
<g id="a_node5"><a xlink:href="../../da/d12/class_hydrax_1_1_material_manager.html#a2961836553f7a30a8baffb9e82f7216e" target="_top" xlink:title="Hydrax::MaterialManager\l::reload">
<polygon fill="white" stroke="black" points="167,-98.5 167,-128.5 292,-128.5 292,-98.5 167,-98.5"/>
<text text-anchor="start" x="175" y="-116.5" font-family="Helvetica,sans-Serif" font-size="10.00">Hydrax::MaterialManager</text>
<text text-anchor="middle" x="229.5" y="-105.5" font-family="Helvetica,sans-Serif" font-size="10.00">::reload</text>
</a>
</g>
</g>
<!-- Node102&#45;&gt;Node106 -->
<g id="edge4" class="edge"><title>Node102&#45;&gt;Node106</title>
<path fill="none" stroke="midnightblue" d="M107.967,-149.957C129.554,-143.428 156.104,-135.398 178.786,-128.537"/>
<polygon fill="midnightblue" stroke="midnightblue" points="106.678,-146.691 98.1198,-152.936 108.705,-153.391 106.678,-146.691"/>
</g>
<!-- Node104 -->
<g id="node3" class="node"><title>Node104</title>
<g id="a_node3"><a xlink:href="../../da/d12/class_hydrax_1_1_material_manager.html#a6aa7b0a92b824348577d506f7bcf581b" target="_top" xlink:title="Hydrax::MaterialManager\l::createMaterials">
<polygon fill="white" stroke="black" points="346,-245.5 346,-275.5 471,-275.5 471,-245.5 346,-245.5"/>
<text text-anchor="start" x="354" y="-263.5" font-family="Helvetica,sans-Serif" font-size="10.00">Hydrax::MaterialManager</text>
<text text-anchor="middle" x="408.5" y="-252.5" font-family="Helvetica,sans-Serif" font-size="10.00">::createMaterials</text>
</a>
</g>
</g>
<!-- Node103&#45;&gt;Node104 -->
<g id="edge2" class="edge"><title>Node103&#45;&gt;Node104</title>
<path fill="none" stroke="midnightblue" d="M294.875,-229.321C313.985,-234.612 334.721,-240.352 353.13,-245.448"/>
<polygon fill="midnightblue" stroke="midnightblue" points="295.621,-225.896 285.05,-226.601 293.754,-232.643 295.621,-225.896"/>
</g>
<!-- Node105 -->
<g id="node4" class="node"><title>Node105</title>
<g id="a_node4"><a xlink:href="../../da/d12/class_hydrax_1_1_material_manager.html#a964a29c17a27037791f2b1c76bdf2aea" target="_top" xlink:title="Hydrax::MaterialManager\l::getDepthTechniques">
<polygon fill="white" stroke="black" points="346,-196.5 346,-226.5 471,-226.5 471,-196.5 346,-196.5"/>
<text text-anchor="start" x="354" y="-214.5" font-family="Helvetica,sans-Serif" font-size="10.00">Hydrax::MaterialManager</text>
<text text-anchor="middle" x="408.5" y="-203.5" font-family="Helvetica,sans-Serif" font-size="10.00">::getDepthTechniques</text>
</a>
</g>
</g>
<!-- Node103&#45;&gt;Node105 -->
<g id="edge3" class="edge"><title>Node103&#45;&gt;Node105</title>
<path fill="none" stroke="midnightblue" d="M302.719,-211.5C317.057,-211.5 331.985,-211.5 345.928,-211.5"/>
<polygon fill="midnightblue" stroke="midnightblue" points="302.406,-208 292.406,-211.5 302.406,-215 302.406,-208"/>
</g>
<!-- Node107 -->
<g id="node6" class="node"><title>Node107</title>
<g id="a_node6"><a xlink:href="../../da/d5f/class_hydrax_1_1_g_p_u_normal_map_manager.html#a7398a504e11ea902839868d69bcf956b" target="_top" xlink:title="Hydrax::GPUNormalMapManager\l::create">
<polygon fill="white" stroke="black" points="328,-147.5 328,-177.5 489,-177.5 489,-147.5 328,-147.5"/>
<text text-anchor="start" x="336" y="-165.5" font-family="Helvetica,sans-Serif" font-size="10.00">Hydrax::GPUNormalMapManager</text>
<text text-anchor="middle" x="408.5" y="-154.5" font-family="Helvetica,sans-Serif" font-size="10.00">::create</text>
</a>
</g>
</g>
<!-- Node106&#45;&gt;Node107 -->
<g id="edge5" class="edge"><title>Node106&#45;&gt;Node107</title>
<path fill="none" stroke="midnightblue" d="M294.875,-131.321C313.985,-136.612 334.721,-142.352 353.13,-147.448"/>
<polygon fill="midnightblue" stroke="midnightblue" points="295.621,-127.896 285.05,-128.601 293.754,-134.643 295.621,-127.896"/>
</g>
<!-- Node114 -->
<g id="node13" class="node"><title>Node114</title>
<g id="a_node13"><a xlink:href="../../d6/d76/class_hydrax_1_1_rtt_manager.html#abf7d8e05771b9f904efa09fe94ab0907" target="_top" xlink:title="Hydrax::RttManager\l::setTextureSize">
<polygon fill="white" stroke="black" points="356.5,-98.5 356.5,-128.5 460.5,-128.5 460.5,-98.5 356.5,-98.5"/>
<text text-anchor="start" x="364.5" y="-116.5" font-family="Helvetica,sans-Serif" font-size="10.00">Hydrax::RttManager</text>
<text text-anchor="middle" x="408.5" y="-105.5" font-family="Helvetica,sans-Serif" font-size="10.00">::setTextureSize</text>
</a>
</g>
</g>
<!-- Node106&#45;&gt;Node114 -->
<g id="edge14" class="edge"><title>Node106&#45;&gt;Node114</title>
<path fill="none" stroke="midnightblue" d="M302.611,-113.5C320.668,-113.5 339.667,-113.5 356.46,-113.5"/>
<polygon fill="midnightblue" stroke="midnightblue" points="302.406,-110 292.406,-113.5 302.406,-117 302.406,-110"/>
</g>
<!-- Node120 -->
<g id="node19" class="node"><title>Node120</title>
<g id="a_node19"><a xlink:href="../../d6/d76/class_hydrax_1_1_rtt_manager.html#ad54dd87efa7baa4a5037faa2e5241738" target="_top" xlink:title="Hydrax::RttManager\l::setTexturesSize">
<polygon fill="white" stroke="black" points="356.5,-49.5 356.5,-79.5 460.5,-79.5 460.5,-49.5 356.5,-49.5"/>
<text text-anchor="start" x="364.5" y="-67.5" font-family="Helvetica,sans-Serif" font-size="10.00">Hydrax::RttManager</text>
<text text-anchor="middle" x="408.5" y="-56.5" font-family="Helvetica,sans-Serif" font-size="10.00">::setTexturesSize</text>
</a>
</g>
</g>
<!-- Node106&#45;&gt;Node120 -->
<g id="edge20" class="edge"><title>Node106&#45;&gt;Node120</title>
<path fill="none" stroke="midnightblue" d="M294.838,-95.689C315.117,-90.0748 337.23,-83.9532 356.453,-78.6317"/>
<polygon fill="midnightblue" stroke="midnightblue" points="293.754,-92.3573 285.05,-98.3986 295.621,-99.1036 293.754,-92.3573"/>
</g>
<!-- Node121 -->
<g id="node20" class="node"><title>Node121</title>
<g id="a_node20"><a xlink:href="../../d5/daf/class_hydrax_1_1_texture_manager.html#a30bfb59332540e897c43193474b4aa19" target="_top" xlink:title="Hydrax::TextureManager\l::create">
<polygon fill="white" stroke="black" points="347,-0.5 347,-30.5 470,-30.5 470,-0.5 347,-0.5"/>
<text text-anchor="start" x="355" y="-18.5" font-family="Helvetica,sans-Serif" font-size="10.00">Hydrax::TextureManager</text>
<text text-anchor="middle" x="408.5" y="-7.5" font-family="Helvetica,sans-Serif" font-size="10.00">::create</text>
</a>
</g>
</g>
<!-- Node106&#45;&gt;Node121 -->
<g id="edge22" class="edge"><title>Node106&#45;&gt;Node121</title>
<path fill="none" stroke="midnightblue" d="M254.013,-91.8015C272.816,-75.4459 300.498,-53.512 328,-39.5 334.552,-36.1621 341.648,-33.2017 348.812,-30.6007"/>
<polygon fill="midnightblue" stroke="midnightblue" points="251.693,-89.1813 246.524,-98.4302 256.332,-94.4229 251.693,-89.1813"/>
</g>
<!-- Node108 -->
<g id="node7" class="node"><title>Node108</title>
<g id="a_node7"><a xlink:href="../../de/d4c/class_hydrax_1_1_noise_1_1_f_f_t.html#aa8e2b9d2b8307c07be2d2cd9cf115560" target="_top" xlink:title="Hydrax::Noise::FFT\l::createGPUNormalMapResources">
<polygon fill="white" stroke="black" points="525,-196.5 525,-226.5 692,-226.5 692,-196.5 525,-196.5"/>
<text text-anchor="start" x="533" y="-214.5" font-family="Helvetica,sans-Serif" font-size="10.00">Hydrax::Noise::FFT</text>
<text text-anchor="middle" x="608.5" y="-203.5" font-family="Helvetica,sans-Serif" font-size="10.00">::createGPUNormalMapResources</text>
</a>
</g>
</g>
<!-- Node107&#45;&gt;Node108 -->
<g id="edge6" class="edge"><title>Node107&#45;&gt;Node108</title>
<path fill="none" stroke="midnightblue" d="M480.121,-179.977C501.944,-185.377 525.777,-191.276 546.863,-196.494"/>
<polygon fill="midnightblue" stroke="midnightblue" points="480.8,-176.539 470.252,-177.535 479.118,-183.334 480.8,-176.539"/>
</g>
<!-- Node112 -->
<g id="node11" class="node"><title>Node112</title>
<g id="a_node11"><a xlink:href="../../db/d29/class_hydrax_1_1_noise_1_1_perlin.html#adb347b98692bd7ce6ad7ce76c605d15a" target="_top" xlink:title="Hydrax::Noise::Perlin\l::createGPUNormalMapResources">
<polygon fill="white" stroke="black" points="525,-147.5 525,-177.5 692,-177.5 692,-147.5 525,-147.5"/>
<text text-anchor="start" x="533" y="-165.5" font-family="Helvetica,sans-Serif" font-size="10.00">Hydrax::Noise::Perlin</text>
<text text-anchor="middle" x="608.5" y="-154.5" font-family="Helvetica,sans-Serif" font-size="10.00">::createGPUNormalMapResources</text>
</a>
</g>
</g>
<!-- Node107&#45;&gt;Node112 -->
<g id="edge12" class="edge"><title>Node107&#45;&gt;Node112</title>
<path fill="none" stroke="midnightblue" d="M499.413,-162.5C507.854,-162.5 516.383,-162.5 524.753,-162.5"/>
<polygon fill="midnightblue" stroke="midnightblue" points="499.178,-159 489.178,-162.5 499.178,-166 499.178,-159"/>
</g>
<!-- Node109 -->
<g id="node8" class="node"><title>Node109</title>
<g id="a_node8"><a xlink:href="../../de/d4c/class_hydrax_1_1_noise_1_1_f_f_t.html#a1d7ec06eb11cda608cc8f73256c35be5" target="_top" xlink:title="Hydrax::Noise::FFT\l::setOptions">
<polygon fill="white" stroke="black" points="738,-237.5 738,-267.5 839,-267.5 839,-237.5 738,-237.5"/>
<text text-anchor="start" x="746" y="-255.5" font-family="Helvetica,sans-Serif" font-size="10.00">Hydrax::Noise::FFT</text>
<text text-anchor="middle" x="788.5" y="-244.5" font-family="Helvetica,sans-Serif" font-size="10.00">::setOptions</text>
</a>
</g>
</g>
<!-- Node108&#45;&gt;Node109 -->
<g id="edge7" class="edge"><title>Node108&#45;&gt;Node109</title>
<path fill="none" stroke="midnightblue" d="M684.655,-228.811C702.625,-232.95 721.368,-237.267 737.854,-241.065"/>
<polygon fill="midnightblue" stroke="midnightblue" points="685.3,-225.368 674.77,-226.534 683.729,-232.189 685.3,-225.368"/>
</g>
<!-- Node111 -->
<g id="node10" class="node"><title>Node111</title>
<g id="a_node10"><a xlink:href="../../d3/db5/struct_hydrax_1_1_noise_1_1_f_f_t_1_1_options.html#adfe9c5cc180b233f7ef6ba50fec06563" target="_top" xlink:title="Hydrax::Noise::FFT\l::Options::Options">
<polygon fill="white" stroke="black" points="1042,-231.5 1042,-261.5 1143,-261.5 1143,-231.5 1042,-231.5"/>
<text text-anchor="start" x="1050" y="-249.5" font-family="Helvetica,sans-Serif" font-size="10.00">Hydrax::Noise::FFT</text>
<text text-anchor="middle" x="1092.5" y="-238.5" font-family="Helvetica,sans-Serif" font-size="10.00">::Options::Options</text>
</a>
</g>
</g>
<!-- Node108&#45;&gt;Node111 -->
<g id="edge11" class="edge"><title>Node108&#45;&gt;Node111</title>
<path fill="none" stroke="midnightblue" d="M702.277,-218.015C746.678,-221.151 800.594,-224.986 849,-228.5 915.738,-233.345 992.794,-239.091 1041.81,-242.764"/>
<polygon fill="midnightblue" stroke="midnightblue" points="702.303,-214.509 692.082,-217.296 701.811,-221.491 702.303,-214.509"/>
</g>
<!-- Node110 -->
<g id="node9" class="node"><title>Node110</title>
<g id="a_node9"><a xlink:href="../../de/d4c/class_hydrax_1_1_noise_1_1_f_f_t.html#a64245b9e56eeb8627ac3f5260dc203dd" target="_top" xlink:title="Hydrax::Noise::FFT\l::loadCfg">
<polygon fill="white" stroke="black" points="895,-275.5 895,-305.5 996,-305.5 996,-275.5 895,-275.5"/>
<text text-anchor="start" x="903" y="-293.5" font-family="Helvetica,sans-Serif" font-size="10.00">Hydrax::Noise::FFT</text>
<text text-anchor="middle" x="945.5" y="-282.5" font-family="Helvetica,sans-Serif" font-size="10.00">::loadCfg</text>
</a>
</g>
</g>
<!-- Node109&#45;&gt;Node110 -->
<g id="edge8" class="edge"><title>Node109&#45;&gt;Node110</title>
<path fill="none" stroke="midnightblue" d="M849.175,-267.13C864.306,-270.84 880.395,-274.784 894.963,-278.355"/>
<polygon fill="midnightblue" stroke="midnightblue" points="849.942,-263.714 839.396,-264.733 848.275,-270.513 849.942,-263.714"/>
</g>
<!-- Node109&#45;&gt;Node111 -->
<g id="edge10" class="edge"><title>Node109&#45;&gt;Node111</title>
<path fill="none" stroke="midnightblue" d="M849.229,-251.313C905.608,-250.193 989.158,-248.533 1041.94,-247.485"/>
<polygon fill="midnightblue" stroke="midnightblue" points="848.959,-247.818 839.031,-251.516 849.099,-254.817 848.959,-247.818"/>
</g>
<!-- Node110&#45;&gt;Node111 -->
<g id="edge9" class="edge"><title>Node110&#45;&gt;Node111</title>
<path fill="none" stroke="midnightblue" d="M1005.86,-272.487C1017.78,-268.871 1030.19,-265.106 1041.74,-261.601"/>
<polygon fill="midnightblue" stroke="midnightblue" points="1004.55,-269.228 995.995,-275.481 1006.58,-275.926 1004.55,-269.228"/>
</g>
<!-- Node113 -->
<g id="node12" class="node"><title>Node113</title>
<g id="a_node12"><a xlink:href="../../d5/d28/struct_hydrax_1_1_noise_1_1_perlin_1_1_options.html#a25b331fdb0c7c67b12b865ff081af5e2" target="_top" xlink:title="Hydrax::Noise::Perlin\l::Options::Options">
<polygon fill="white" stroke="black" points="734,-147.5 734,-177.5 843,-177.5 843,-147.5 734,-147.5"/>
<text text-anchor="start" x="742" y="-165.5" font-family="Helvetica,sans-Serif" font-size="10.00">Hydrax::Noise::Perlin</text>
<text text-anchor="middle" x="788.5" y="-154.5" font-family="Helvetica,sans-Serif" font-size="10.00">::Options::Options</text>
</a>
</g>
</g>
<!-- Node112&#45;&gt;Node113 -->
<g id="edge13" class="edge"><title>Node112&#45;&gt;Node113</title>
<path fill="none" stroke="midnightblue" d="M702.554,-162.5C713.3,-162.5 723.968,-162.5 733.928,-162.5"/>
<polygon fill="midnightblue" stroke="midnightblue" points="702.247,-159 692.247,-162.5 702.247,-166 702.247,-159"/>
</g>
<!-- Node115 -->
<g id="node14" class="node"><title>Node115</title>
<g id="a_node14"><a xlink:href="../../d6/de1/class_hydrax_1_1_cfg_file_manager.html#a3971753dfe7ad0b217844419c2b3d1fb" target="_top" xlink:title="Hydrax::CfgFileManager\l::_loadRttSettings">
<polygon fill="white" stroke="black" points="548,-98.5 548,-128.5 669,-128.5 669,-98.5 548,-98.5"/>
<text text-anchor="start" x="556" y="-116.5" font-family="Helvetica,sans-Serif" font-size="10.00">Hydrax::CfgFileManager</text>
<text text-anchor="middle" x="608.5" y="-105.5" font-family="Helvetica,sans-Serif" font-size="10.00">::_loadRttSettings</text>
</a>
</g>
</g>
<!-- Node114&#45;&gt;Node115 -->
<g id="edge15" class="edge"><title>Node114&#45;&gt;Node115</title>
<path fill="none" stroke="midnightblue" d="M470.978,-113.5C495.41,-113.5 523.421,-113.5 547.686,-113.5"/>
<polygon fill="midnightblue" stroke="midnightblue" points="470.747,-110 460.747,-113.5 470.747,-117 470.747,-110"/>
</g>
<!-- Node117 -->
<g id="node16" class="node"><title>Node117</title>
<g id="a_node16"><a xlink:href="../../d6/d76/class_hydrax_1_1_rtt_manager.html#a7a555bfe00cebdc0628f9b535db500ff" target="_top" xlink:title="Hydrax::RttManager\l::getTextureSize">
<polygon fill="white" stroke="black" points="556.5,-49.5 556.5,-79.5 660.5,-79.5 660.5,-49.5 556.5,-49.5"/>
<text text-anchor="start" x="564.5" y="-67.5" font-family="Helvetica,sans-Serif" font-size="10.00">Hydrax::RttManager</text>
<text text-anchor="middle" x="608.5" y="-56.5" font-family="Helvetica,sans-Serif" font-size="10.00">::getTextureSize</text>
</a>
</g>
</g>
<!-- Node114&#45;&gt;Node117 -->
<g id="edge17" class="edge"><title>Node114&#45;&gt;Node117</title>
<path fill="none" stroke="midnightblue" d="M470.657,-98.3653C498.169,-91.5566 530.273,-83.6119 556.467,-77.1293"/>
<polygon fill="midnightblue" stroke="midnightblue" points="469.614,-95.0177 460.747,-100.818 471.295,-101.813 469.614,-95.0177"/>
</g>
<!-- Node116 -->
<g id="node15" class="node"><title>Node116</title>
<g id="a_node15"><a xlink:href="../../d6/de1/class_hydrax_1_1_cfg_file_manager.html#a0e050d2bf65e31ee39c0e28c481702f8" target="_top" xlink:title="Hydrax::CfgFileManager\l::load">
<polygon fill="white" stroke="black" points="728,-98.5 728,-128.5 849,-128.5 849,-98.5 728,-98.5"/>
<text text-anchor="start" x="736" y="-116.5" font-family="Helvetica,sans-Serif" font-size="10.00">Hydrax::CfgFileManager</text>
<text text-anchor="middle" x="788.5" y="-105.5" font-family="Helvetica,sans-Serif" font-size="10.00">::load</text>
</a>
</g>
</g>
<!-- Node115&#45;&gt;Node116 -->
<g id="edge16" class="edge"><title>Node115&#45;&gt;Node116</title>
<path fill="none" stroke="midnightblue" d="M679.616,-113.5C695.586,-113.5 712.407,-113.5 727.891,-113.5"/>
<polygon fill="midnightblue" stroke="midnightblue" points="679.267,-110 669.267,-113.5 679.267,-117 679.267,-110"/>
</g>
<!-- Node118 -->
<g id="node17" class="node"><title>Node118</title>
<g id="a_node17"><a xlink:href="../../d6/de1/class_hydrax_1_1_cfg_file_manager.html#a7836862e6b5d435d19f9ff62cf5ffca6" target="_top" xlink:title="Hydrax::CfgFileManager\l::_getRttCfgString">
<polygon fill="white" stroke="black" points="728,-49.5 728,-79.5 849,-79.5 849,-49.5 728,-49.5"/>
<text text-anchor="start" x="736" y="-67.5" font-family="Helvetica,sans-Serif" font-size="10.00">Hydrax::CfgFileManager</text>
<text text-anchor="middle" x="788.5" y="-56.5" font-family="Helvetica,sans-Serif" font-size="10.00">::_getRttCfgString</text>
</a>
</g>
</g>
<!-- Node117&#45;&gt;Node118 -->
<g id="edge18" class="edge"><title>Node117&#45;&gt;Node118</title>
<path fill="none" stroke="midnightblue" d="M670.612,-64.5C689.175,-64.5 709.539,-64.5 727.996,-64.5"/>
<polygon fill="midnightblue" stroke="midnightblue" points="670.508,-61.0001 660.508,-64.5 670.508,-68.0001 670.508,-61.0001"/>
</g>
<!-- Node119 -->
<g id="node18" class="node"><title>Node119</title>
<g id="a_node18"><a xlink:href="../../d6/de1/class_hydrax_1_1_cfg_file_manager.html#a7bb4d0c2124c8c68e49f8fcc26e1add7" target="_top" xlink:title="Hydrax::CfgFileManager\l::save">
<polygon fill="white" stroke="black" points="885,-49.5 885,-79.5 1006,-79.5 1006,-49.5 885,-49.5"/>
<text text-anchor="start" x="893" y="-67.5" font-family="Helvetica,sans-Serif" font-size="10.00">Hydrax::CfgFileManager</text>
<text text-anchor="middle" x="945.5" y="-56.5" font-family="Helvetica,sans-Serif" font-size="10.00">::save</text>
</a>
</g>
</g>
<!-- Node118&#45;&gt;Node119 -->
<g id="edge19" class="edge"><title>Node118&#45;&gt;Node119</title>
<path fill="none" stroke="midnightblue" d="M859.661,-64.5C868.122,-64.5 876.7,-64.5 884.988,-64.5"/>
<polygon fill="midnightblue" stroke="midnightblue" points="859.427,-61.0001 849.427,-64.5 859.427,-68.0001 859.427,-61.0001"/>
</g>
<!-- Node120&#45;&gt;Node117 -->
<g id="edge21" class="edge"><title>Node120&#45;&gt;Node117</title>
<path fill="none" stroke="midnightblue" d="M471.019,-64.5C498.451,-64.5 530.387,-64.5 556.467,-64.5"/>
<polygon fill="midnightblue" stroke="midnightblue" points="470.747,-61.0001 460.747,-64.5 470.747,-68.0001 470.747,-61.0001"/>
</g>
</g>
</svg>
        <g id="navigator" transform="translate(0 0)" fill="#404254">
                <rect fill="#f2f5e9" fill-opacity="0.5" stroke="#606060" stroke-width=".5" x="0" y="0" width="60" height="60"/>
                <use id="zoomplus" xlink:href="#zoomPlus" x="17" y="9" onmousedown="handleZoom(evt,'in')"/>
                <use id="zoomminus" xlink:href="#zoomMin" x="42" y="9" onmousedown="handleZoom(evt,'out')"/>
                <use id="reset" xlink:href="#resetDef" x="30" y="36" onmousedown="handleReset()"/>
                <g id="arrowUp" xlink:href="#dirArrow" transform="translate(30 24)" onmousedown="handlePan(0,-1)">
                  <use xlink:href="#rim" fill="#404040">
                        <set attributeName="fill" to="#808080" begin="arrowUp.mouseover" end="arrowUp.mouseout"/>
                  </use>
                  <path fill="none" stroke="white" stroke-width="1.5" d="M0,-3.0v7 M-2.5,-0.5L0,-3.0L2.5,-0.5"/>
                </g>
                <g id="arrowRight" xlink:href="#dirArrow" transform="rotate(90) translate(36 -43)" onmousedown="handlePan(1,0)">
                  <use xlink:href="#rim" fill="#404040">
                        <set attributeName="fill" to="#808080" begin="arrowRight.mouseover" end="arrowRight.mouseout"/>
                  </use>
                  <path fill="none" stroke="white" stroke-width="1.5" d="M0,-3.0v7 M-2.5,-0.5L0,-3.0L2.5,-0.5"/>
                </g>
                <g id="arrowDown" xlink:href="#dirArrow" transform="rotate(180) translate(-30 -48)" onmousedown="handlePan(0,1)">
                  <use xlink:href="#rim" fill="#404040">
                        <set attributeName="fill" to="#808080" begin="arrowDown.mouseover" end="arrowDown.mouseout"/>
                  </use>
                  <path fill="none" stroke="white" stroke-width="1.5" d="M0,-3.0v7 M-2.5,-0.5L0,-3.0L2.5,-0.5"/>
                </g>
                <g id="arrowLeft" xlink:href="#dirArrow" transform="rotate(270) translate(-36 17)" onmousedown="handlePan(-1,0)">
                  <use xlink:href="#rim" fill="#404040">
                        <set attributeName="fill" to="#808080" begin="arrowLeft.mouseover" end="arrowLeft.mouseout"/>
                  </use>
                  <path fill="none" stroke="white" stroke-width="1.5" d="M0,-3.0v7 M-2.5,-0.5L0,-3.0L2.5,-0.5"/>
                </g>
        </g>
        <svg viewBox="0 0 15 15" width="100%" height="30px" preserveAspectRatio="xMaxYMin meet">
         <g id="arrow_out" transform="scale(0.3 0.3)">
          <a xlink:href="class_hydrax_1_1_mesh_abad9141d1c65e111ff23d64dc4b1ba8e_icgraph_org.svg" target="_base">
           <rect id="button" ry="5" rx="5" y="6" x="6" height="38" width="38"
                fill="#f2f5e9" fill-opacity="0.5" stroke="#606060" stroke-width="1.0"/>
           <path id="arrow"
             d="M 11.500037,31.436501 C 11.940474,20.09759 22.043105,11.32322 32.158766,21.979434 L 37.068811,17.246167 C 37.068811,17.246167 37.088388,32 37.088388,32 L 22.160133,31.978069 C 22.160133,31.978069 26.997745,27.140456 26.997745,27.140456 C 18.528582,18.264221 13.291696,25.230495 11.500037,31.436501 z"
             style="fill:#404040;"/>
          </a>
         </g>
        </svg>
</svg>
