<?xml version="1.0" encoding="UTF-8" standalone="no"?>
<!DOCTYPE svg PUBLIC "-//W3C//DTD SVG 1.1//EN"
 "http://www.w3.org/Graphics/SVG/1.1/DTD/svg11.dtd">
<!-- Generated by graphviz version 2.38.0 (20140413.2041)
 -->
<!-- Title: ExampleAppLog Pages: 1 -->
<svg width="321pt" height="240pt"
 viewBox="0.00 0.00 321.00 240.00" xmlns="http://www.w3.org/2000/svg" xmlns:xlink="http://www.w3.org/1999/xlink">
<g id="graph0" class="graph" transform="scale(1 1) rotate(0) translate(4 236)">
<title>ExampleAppLog</title>
<polygon fill="white" stroke="none" points="-4,4 -4,-236 317,-236 317,4 -4,4"/>
<!-- Node1 -->
<g id="node1" class="node"><title>Node1</title>
<polygon fill="#bfbfbf" stroke="black" points="125,-0.5 125,-19.5 213,-19.5 213,-0.5 125,-0.5"/>
<text text-anchor="middle" x="169" y="-7.5" font-family="Helvetica,sans-Serif" font-size="10.00">ExampleAppLog</text>
</g>
<!-- Node2 -->
<g id="node2" class="node"><title>Node2</title>
<g id="a_node2"><a xlink:href="../../da/d7d/struct_im_gui_text_buffer.html" target="_top" xlink:title="ImGuiTextBuffer">
<polygon fill="white" stroke="black" points="10,-67.5 10,-86.5 96,-86.5 96,-67.5 10,-67.5"/>
<text text-anchor="middle" x="53" y="-74.5" font-family="Helvetica,sans-Serif" font-size="10.00">ImGuiTextBuffer</text>
</a>
</g>
</g>
<!-- Node2&#45;&gt;Node1 -->
<g id="edge1" class="edge"><title>Node2&#45;&gt;Node1</title>
<path fill="none" stroke="#9a32cd" stroke-dasharray="5,2" d="M77.4721,-62.2872C100.462,-49.4047 134.157,-30.5243 153.604,-19.6273"/>
<polygon fill="#9a32cd" stroke="#9a32cd" points="75.6571,-59.2921 68.6443,-67.2338 79.079,-65.3988 75.6571,-59.2921"/>
<text text-anchor="middle" x="127" y="-41" font-family="Helvetica,sans-Serif" font-size="10.00"> Buf</text>
</g>
<!-- Node3 -->
<g id="node3" class="node"><title>Node3</title>
<g id="a_node3"><a xlink:href="../../d9/de0/class_im_vector.html" target="_top" xlink:title="ImVector\&lt; char \&gt;">
<polygon fill="white" stroke="black" points="0,-140 0,-159 92,-159 92,-140 0,-140"/>
<text text-anchor="middle" x="46" y="-147" font-family="Helvetica,sans-Serif" font-size="10.00">ImVector&lt; char &gt;</text>
</a>
</g>
</g>
<!-- Node3&#45;&gt;Node2 -->
<g id="edge2" class="edge"><title>Node3&#45;&gt;Node2</title>
<path fill="none" stroke="#9a32cd" stroke-dasharray="5,2" d="M47.851,-129.858C49.2373,-115.895 51.0711,-97.4263 52.1346,-86.7154"/>
<polygon fill="#9a32cd" stroke="#9a32cd" points="44.3636,-129.558 46.8583,-139.855 51.3294,-130.25 44.3636,-129.558"/>
<text text-anchor="middle" x="60" y="-108" font-family="Helvetica,sans-Serif" font-size="10.00"> Buf</text>
</g>
<!-- Node4 -->
<g id="node4" class="node"><title>Node4</title>
<g id="a_node4"><a xlink:href="../../d5/de6/struct_im_gui_text_filter.html" target="_top" xlink:title="ImGuiTextFilter">
<polygon fill="white" stroke="black" points="127.5,-67.5 127.5,-86.5 210.5,-86.5 210.5,-67.5 127.5,-67.5"/>
<text text-anchor="middle" x="169" y="-74.5" font-family="Helvetica,sans-Serif" font-size="10.00">ImGuiTextFilter</text>
</a>
</g>
</g>
<!-- Node4&#45;&gt;Node1 -->
<g id="edge3" class="edge"><title>Node4&#45;&gt;Node1</title>
<path fill="none" stroke="#9a32cd" stroke-dasharray="5,2" d="M169,-57.037C169,-44.6703 169,-29.1198 169,-19.6273"/>
<polygon fill="#9a32cd" stroke="#9a32cd" points="165.5,-57.2338 169,-67.2338 172.5,-57.2338 165.5,-57.2338"/>
<text text-anchor="middle" x="181.5" y="-41" font-family="Helvetica,sans-Serif" font-size="10.00"> Filter</text>
</g>
<!-- Node5 -->
<g id="node5" class="node"><title>Node5</title>
<g id="a_node5"><a xlink:href="../../d9/de0/class_im_vector.html" target="_top" xlink:title="ImVector\&lt; ImGuiTextFilter\l::TextRange \&gt;">
<polygon fill="white" stroke="black" points="110.5,-134.5 110.5,-164.5 241.5,-164.5 241.5,-134.5 110.5,-134.5"/>
<text text-anchor="start" x="118.5" y="-152.5" font-family="Helvetica,sans-Serif" font-size="10.00">ImVector&lt; ImGuiTextFilter</text>
<text text-anchor="middle" x="176" y="-141.5" font-family="Helvetica,sans-Serif" font-size="10.00">::TextRange &gt;</text>
</a>
</g>
</g>
<!-- Node5&#45;&gt;Node4 -->
<g id="edge4" class="edge"><title>Node5&#45;&gt;Node4</title>
<path fill="none" stroke="#9a32cd" stroke-dasharray="5,2" d="M173.576,-124.091C172.298,-111.214 170.807,-96.1974 169.883,-86.8932"/>
<polygon fill="#9a32cd" stroke="#9a32cd" points="170.112,-124.628 174.583,-134.233 177.078,-123.936 170.112,-124.628"/>
<text text-anchor="middle" x="188.5" y="-108" font-family="Helvetica,sans-Serif" font-size="10.00"> Filters</text>
</g>
<!-- Node6 -->
<g id="node6" class="node"><title>Node6</title>
<g id="a_node6"><a xlink:href="../../d7/db3/struct_im_gui_text_filter_1_1_text_range.html" target="_top" xlink:title="ImGuiTextFilter::TextRange">
<polygon fill="white" stroke="black" points="108.5,-212.5 108.5,-231.5 243.5,-231.5 243.5,-212.5 108.5,-212.5"/>
<text text-anchor="middle" x="176" y="-219.5" font-family="Helvetica,sans-Serif" font-size="10.00">ImGuiTextFilter::TextRange</text>
</a>
</g>
</g>
<!-- Node6&#45;&gt;Node5 -->
<g id="edge5" class="edge"><title>Node6&#45;&gt;Node5</title>
<path fill="none" stroke="#9a32cd" stroke-dasharray="5,2" d="M176,-202.236C176,-190.408 176,-175.383 176,-164.576"/>
<polygon fill="#9a32cd" stroke="#9a32cd" points="172.5,-202.355 176,-212.355 179.5,-202.355 172.5,-202.355"/>
<text text-anchor="middle" x="188" y="-186" font-family="Helvetica,sans-Serif" font-size="10.00"> Data</text>
</g>
<!-- Node7 -->
<g id="node7" class="node"><title>Node7</title>
<g id="a_node7"><a xlink:href="../../d9/de0/class_im_vector.html" target="_top" xlink:title="ImVector\&lt; int \&gt;">
<polygon fill="white" stroke="black" points="229,-67.5 229,-86.5 313,-86.5 313,-67.5 229,-67.5"/>
<text text-anchor="middle" x="271" y="-74.5" font-family="Helvetica,sans-Serif" font-size="10.00">ImVector&lt; int &gt;</text>
</a>
</g>
</g>
<!-- Node7&#45;&gt;Node1 -->
<g id="edge6" class="edge"><title>Node7&#45;&gt;Node1</title>
<path fill="none" stroke="#9a32cd" stroke-dasharray="5,2" d="M248.668,-61.7687C228.478,-48.9026 199.41,-30.379 182.538,-19.6273"/>
<polygon fill="#9a32cd" stroke="#9a32cd" points="246.93,-64.8113 257.244,-67.2338 250.692,-58.908 246.93,-64.8113"/>
<text text-anchor="middle" x="253" y="-41" font-family="Helvetica,sans-Serif" font-size="10.00"> LineOffsets</text>
</g>
</g>
</svg>
