<?xml version="1.0" encoding="UTF-8" standalone="no"?>
<!DOCTYPE svg PUBLIC "-//W3C//DTD SVG 1.1//EN"
 "http://www.w3.org/Graphics/SVG/1.1/DTD/svg11.dtd">
<!-- Generated by graphviz version 2.38.0 (20140413.2041)
 -->
<!-- Title: source/main/utils/MeshObject.h Pages: 1 -->
<svg width="576pt" height="95pt"
 viewBox="0.00 0.00 576.00 95.00" xmlns="http://www.w3.org/2000/svg" xmlns:xlink="http://www.w3.org/1999/xlink">
<g id="graph0" class="graph" transform="scale(1 1) rotate(0) translate(4 91)">
<title>source/main/utils/MeshObject.h</title>
<polygon fill="white" stroke="none" points="-4,4 -4,-91 572,-91 572,4 -4,4"/>
<!-- Node20 -->
<g id="node1" class="node"><title>Node20</title>
<polygon fill="#bfbfbf" stroke="black" points="170,-67.5 170,-86.5 325,-86.5 325,-67.5 170,-67.5"/>
<text text-anchor="middle" x="247.5" y="-74.5" font-family="Helvetica,sans-Serif" font-size="10.00">source/main/utils/MeshObject.h</text>
</g>
<!-- Node21 -->
<g id="node2" class="node"><title>Node21</title>
<g id="a_node2"><a xlink:href="../../d2/d74/_beam_8cpp.html" target="_top" xlink:title="source/main/physics\l/Beam.cpp">
<polygon fill="white" stroke="black" points="0,-0.5 0,-30.5 107,-30.5 107,-0.5 0,-0.5"/>
<text text-anchor="start" x="8" y="-18.5" font-family="Helvetica,sans-Serif" font-size="10.00">source/main/physics</text>
<text text-anchor="middle" x="53.5" y="-7.5" font-family="Helvetica,sans-Serif" font-size="10.00">/Beam.cpp</text>
</a>
</g>
</g>
<!-- Node20&#45;&gt;Node21 -->
<g id="edge1" class="edge"><title>Node20&#45;&gt;Node21</title>
<path fill="none" stroke="midnightblue" d="M209.95,-64.4832C178.32,-54.7823 132.962,-40.8711 99.222,-30.523"/>
<polygon fill="midnightblue" stroke="midnightblue" points="209.118,-67.889 219.705,-67.4751 211.17,-61.1967 209.118,-67.889"/>
</g>
<!-- Node22 -->
<g id="node3" class="node"><title>Node22</title>
<g id="a_node3"><a xlink:href="../../df/df5/_rig_spawner_8cpp.html" target="_top" xlink:title="Vehicle spawning logic. ">
<polygon fill="white" stroke="black" points="125,-0.5 125,-30.5 232,-30.5 232,-0.5 125,-0.5"/>
<text text-anchor="start" x="133" y="-18.5" font-family="Helvetica,sans-Serif" font-size="10.00">source/main/physics</text>
<text text-anchor="middle" x="178.5" y="-7.5" font-family="Helvetica,sans-Serif" font-size="10.00">/RigSpawner.cpp</text>
</a>
</g>
</g>
<!-- Node20&#45;&gt;Node22 -->
<g id="edge2" class="edge"><title>Node20&#45;&gt;Node22</title>
<path fill="none" stroke="midnightblue" d="M230.014,-60.9215C219.18,-51.579 205.36,-39.6616 194.762,-30.523"/>
<polygon fill="midnightblue" stroke="midnightblue" points="227.755,-63.5952 237.614,-67.4751 232.326,-58.294 227.755,-63.5952"/>
</g>
<!-- Node23 -->
<g id="node4" class="node"><title>Node23</title>
<g id="a_node4"><a xlink:href="../../d2/d0a/_terrain_object_manager_8cpp.html" target="_top" xlink:title="source/main/terrain\l/TerrainObjectManager.cpp">
<polygon fill="white" stroke="black" points="250.5,-0.5 250.5,-30.5 384.5,-30.5 384.5,-0.5 250.5,-0.5"/>
<text text-anchor="start" x="258.5" y="-18.5" font-family="Helvetica,sans-Serif" font-size="10.00">source/main/terrain</text>
<text text-anchor="middle" x="317.5" y="-7.5" font-family="Helvetica,sans-Serif" font-size="10.00">/TerrainObjectManager.cpp</text>
</a>
</g>
</g>
<!-- Node20&#45;&gt;Node23 -->
<g id="edge3" class="edge"><title>Node20&#45;&gt;Node23</title>
<path fill="none" stroke="midnightblue" d="M265.239,-60.9215C276.231,-51.579 290.251,-39.6616 301.002,-30.523"/>
<polygon fill="midnightblue" stroke="midnightblue" points="262.882,-58.3318 257.529,-67.4751 267.415,-63.6654 262.882,-58.3318"/>
</g>
<!-- Node24 -->
<g id="node5" class="node"><title>Node24</title>
<g id="a_node5"><a xlink:href="../../df/d8a/_mesh_object_8cpp.html" target="_top" xlink:title="source/main/utils/MeshObject.cpp">
<polygon fill="white" stroke="black" points="403,-6 403,-25 568,-25 568,-6 403,-6"/>
<text text-anchor="middle" x="485.5" y="-13" font-family="Helvetica,sans-Serif" font-size="10.00">source/main/utils/MeshObject.cpp</text>
</a>
</g>
</g>
<!-- Node20&#45;&gt;Node24 -->
<g id="edge4" class="edge"><title>Node20&#45;&gt;Node24</title>
<path fill="none" stroke="midnightblue" d="M291.335,-65.0412C337.54,-53.49 409.342,-35.5394 451.464,-25.0091"/>
<polygon fill="midnightblue" stroke="midnightblue" points="290.452,-61.6542 281.6,-67.4751 292.15,-68.4452 290.452,-61.6542"/>
</g>
</g>
</svg>
