<?xml version="1.0" encoding="UTF-8" standalone="no"?>
<!DOCTYPE svg PUBLIC "-//W3C//DTD SVG 1.1//EN"
 "http://www.w3.org/Graphics/SVG/1.1/DTD/svg11.dtd">
<!-- Generated by graphviz version 2.38.0 (20140413.2041)
 -->
<!-- Title: Hydrax::Noise::FFT Pages: 1 -->
<svg width="2108pt" height="939pt"
 viewBox="0.00 0.00 2108.00 938.50" xmlns="http://www.w3.org/2000/svg" xmlns:xlink="http://www.w3.org/1999/xlink">
<g id="graph0" class="graph" transform="scale(1 1) rotate(0) translate(4 934.5)">
<title>Hydrax::Noise::FFT</title>
<polygon fill="white" stroke="none" points="-4,4 -4,-934.5 2104,-934.5 2104,4 -4,4"/>
<!-- Node2 -->
<g id="node1" class="node"><title>Node2</title>
<polygon fill="#bfbfbf" stroke="black" points="1533,-773 1533,-792 1634,-792 1634,-773 1533,-773"/>
<text text-anchor="middle" x="1583.5" y="-780" font-family="Helvetica,sans-Serif" font-size="10.00">Hydrax::Noise::FFT</text>
</g>
<!-- Node3 -->
<g id="node2" class="node"><title>Node3</title>
<g id="a_node2"><a xlink:href="../../da/d26/class_hydrax_1_1_noise_1_1_noise.html" target="_top" xlink:title="Hydrax::Noise::Noise">
<polygon fill="white" stroke="black" points="160,-833 160,-852 269,-852 269,-833 160,-833"/>
<text text-anchor="middle" x="214.5" y="-840" font-family="Helvetica,sans-Serif" font-size="10.00">Hydrax::Noise::Noise</text>
</a>
</g>
</g>
<!-- Node3&#45;&gt;Node2 -->
<g id="edge1" class="edge"><title>Node3&#45;&gt;Node2</title>
<path fill="none" stroke="midnightblue" d="M279.356,-842.5C331.463,-842.5 406.99,-842.5 473,-842.5 473,-842.5 473,-842.5 1289.5,-842.5 1388.14,-842.5 1417.29,-859.286 1511,-828.5 1534.56,-820.761 1557.99,-803.369 1571.31,-792.326"/>
<polygon fill="midnightblue" stroke="midnightblue" points="279.257,-839 269.257,-842.5 279.257,-846 279.257,-839"/>
</g>
<!-- Node28 -->
<g id="node27" class="node"><title>Node28</title>
<g id="a_node27"><a xlink:href="../../d9/d88/class_hydrax_1_1_module_1_1_module.html" target="_top" xlink:title="Hydrax::Module::Module">
<polygon fill="white" stroke="black" points="413,-511 413,-530 535,-530 535,-511 413,-511"/>
<text text-anchor="middle" x="474" y="-518" font-family="Helvetica,sans-Serif" font-size="10.00">Hydrax::Module::Module</text>
</a>
</g>
</g>
<!-- Node3&#45;&gt;Node28 -->
<g id="edge43" class="edge"><title>Node3&#45;&gt;Node28</title>
<path fill="none" stroke="#9a32cd" stroke-dasharray="5,2" d="M235.738,-825.938C271.14,-796.257 345.268,-730.877 395,-664.5 429.778,-618.082 458.659,-554.201 468.957,-530.165"/>
<polygon fill="#9a32cd" stroke="#9a32cd" points="233.063,-823.61 227.61,-832.694 237.538,-828.994 233.063,-823.61"/>
<text text-anchor="middle" x="343" y="-778.5" font-family="Helvetica,sans-Serif" font-size="10.00"> mNoise</text>
</g>
<!-- Node31 -->
<g id="node30" class="node"><title>Node31</title>
<g id="a_node30"><a xlink:href="../../db/d29/class_hydrax_1_1_noise_1_1_perlin.html" target="_top" xlink:title="Hydrax::Noise::Perlin">
<polygon fill="white" stroke="black" points="1529,-844 1529,-863 1638,-863 1638,-844 1529,-844"/>
<text text-anchor="middle" x="1583.5" y="-851" font-family="Helvetica,sans-Serif" font-size="10.00">Hydrax::Noise::Perlin</text>
</a>
</g>
</g>
<!-- Node3&#45;&gt;Node31 -->
<g id="edge50" class="edge"><title>Node3&#45;&gt;Node31</title>
<path fill="none" stroke="midnightblue" d="M240.132,-857.037C284.889,-882.033 383.244,-930.5 473,-930.5 473,-930.5 473,-930.5 1289.5,-930.5 1389.54,-930.5 1416.3,-922.736 1511,-890.5 1531.38,-883.564 1553.11,-871.583 1567.2,-863.137"/>
<polygon fill="midnightblue" stroke="midnightblue" points="241.841,-853.982 231.417,-852.085 238.382,-860.068 241.841,-853.982"/>
</g>
<!-- Node4 -->
<g id="node3" class="node"><title>Node4</title>
<g id="a_node3"><a xlink:href="../../d3/db5/struct_hydrax_1_1_noise_1_1_f_f_t_1_1_options.html" target="_top" xlink:title="Hydrax::Noise::FFT\l::Options">
<polygon fill="white" stroke="black" points="1238,-773.5 1238,-803.5 1339,-803.5 1339,-773.5 1238,-773.5"/>
<text text-anchor="start" x="1246" y="-791.5" font-family="Helvetica,sans-Serif" font-size="10.00">Hydrax::Noise::FFT</text>
<text text-anchor="middle" x="1288.5" y="-780.5" font-family="Helvetica,sans-Serif" font-size="10.00">::Options</text>
</a>
</g>
</g>
<!-- Node4&#45;&gt;Node2 -->
<g id="edge2" class="edge"><title>Node4&#45;&gt;Node2</title>
<path fill="none" stroke="#9a32cd" stroke-dasharray="5,2" d="M1349.36,-784.994C1361.8,-784.388 1374.82,-783.843 1387,-783.5 1436.53,-782.104 1493.16,-781.975 1532.67,-782.122"/>
<polygon fill="#9a32cd" stroke="#9a32cd" points="1348.89,-781.513 1339.08,-785.514 1349.25,-788.504 1348.89,-781.513"/>
<text text-anchor="middle" x="1449" y="-786.5" font-family="Helvetica,sans-Serif" font-size="10.00"> mOptions</text>
</g>
<!-- Node5 -->
<g id="node4" class="node"><title>Node5</title>
<g id="a_node4"><a xlink:href="../../da/d5f/class_hydrax_1_1_g_p_u_normal_map_manager.html" target="_top" xlink:title="Hydrax::GPUNormalMapManager">
<polygon fill="white" stroke="black" points="1208,-735 1208,-754 1369,-754 1369,-735 1208,-735"/>
<text text-anchor="middle" x="1288.5" y="-742" font-family="Helvetica,sans-Serif" font-size="10.00">Hydrax::GPUNormalMapManager</text>
</a>
</g>
</g>
<!-- Node5&#45;&gt;Node2 -->
<g id="edge3" class="edge"><title>Node5&#45;&gt;Node2</title>
<path fill="none" stroke="#9a32cd" stroke-dasharray="5,2" d="M1379.3,-751.701C1419.68,-755.484 1467.86,-760.754 1511,-767.5 1520.65,-769.009 1530.96,-770.967 1540.67,-772.968"/>
<polygon fill="#9a32cd" stroke="#9a32cd" points="1379.49,-748.203 1369.21,-750.771 1378.85,-755.174 1379.49,-748.203"/>
<text text-anchor="middle" x="1449" y="-770.5" font-family="Helvetica,sans-Serif" font-size="10.00"> mGPUNormalMapManager</text>
</g>
<!-- Node6 -->
<g id="node5" class="node"><title>Node6</title>
<g id="a_node5"><a xlink:href="../../dd/d65/class_hydrax_1_1_hydrax.html" target="_top" xlink:title="Hydrax::Hydrax">
<polygon fill="white" stroke="black" points="649.5,-365 649.5,-384 733.5,-384 733.5,-365 649.5,-365"/>
<text text-anchor="middle" x="691.5" y="-372" font-family="Helvetica,sans-Serif" font-size="10.00">Hydrax::Hydrax</text>
</a>
</g>
</g>
<!-- Node5&#45;&gt;Node6 -->
<g id="edge45" class="edge"><title>Node5&#45;&gt;Node6</title>
<path fill="none" stroke="#9a32cd" stroke-dasharray="5,2" d="M1201.77,-755.122C1070.81,-769.214 829.96,-786.017 772,-727.5 721.493,-676.508 697.812,-435.311 693.307,-384.08"/>
<polygon fill="#9a32cd" stroke="#9a32cd" points="1202.22,-758.594 1211.78,-754.027 1201.46,-751.635 1202.22,-758.594"/>
<text text-anchor="middle" x="950.5" y="-772.5" font-family="Helvetica,sans-Serif" font-size="10.00"> mGPUNormalMapManager</text>
</g>
<!-- Node5&#45;&gt;Node31 -->
<g id="edge52" class="edge"><title>Node5&#45;&gt;Node31</title>
<path fill="none" stroke="#9a32cd" stroke-dasharray="5,2" d="M1360.95,-758.374C1363.77,-759.91 1366.46,-761.613 1369,-763.5 1381.78,-773.01 1374.5,-784.62 1387,-794.5 1427.88,-826.819 1486.28,-841.475 1528.59,-848.097"/>
<polygon fill="#9a32cd" stroke="#9a32cd" points="1362.19,-755.087 1351.65,-754.014 1359.22,-761.426 1362.19,-755.087"/>
<text text-anchor="middle" x="1449" y="-847.5" font-family="Helvetica,sans-Serif" font-size="10.00"> mGPUNormalMapManager</text>
</g>
<!-- Node6&#45;&gt;Node5 -->
<g id="edge4" class="edge"><title>Node6&#45;&gt;Node5</title>
<path fill="none" stroke="#9a32cd" stroke-dasharray="5,2" d="M694.314,-394.242C700.672,-458.772 724.202,-661.652 772,-702.5 804.339,-730.137 1071.27,-739.872 1207.76,-743.065"/>
<polygon fill="#9a32cd" stroke="#9a32cd" points="697.788,-393.802 693.353,-384.181 690.819,-394.468 697.788,-393.802"/>
<text text-anchor="middle" x="950.5" y="-739.5" font-family="Helvetica,sans-Serif" font-size="10.00"> mHydrax</text>
</g>
<!-- Node7 -->
<g id="node6" class="node"><title>Node7</title>
<g id="a_node6"><a xlink:href="../../d1/dc4/class_hydrax_1_1_mesh.html" target="_top" xlink:title="Hydrax::Mesh">
<polygon fill="white" stroke="black" points="912,-161 912,-180 989,-180 989,-161 912,-161"/>
<text text-anchor="middle" x="950.5" y="-168" font-family="Helvetica,sans-Serif" font-size="10.00">Hydrax::Mesh</text>
</a>
</g>
</g>
<!-- Node6&#45;&gt;Node7 -->
<g id="edge6" class="edge"><title>Node6&#45;&gt;Node7</title>
<path fill="none" stroke="#9a32cd" stroke-dasharray="5,2" d="M696.074,-354.802C703.537,-319.623 724.22,-246.162 772,-208.5 793.347,-191.674 866.518,-180.27 911.98,-174.621"/>
<polygon fill="#9a32cd" stroke="#9a32cd" points="692.606,-354.295 694.097,-364.785 699.473,-355.655 692.606,-354.295"/>
<text text-anchor="middle" x="814" y="-211.5" font-family="Helvetica,sans-Serif" font-size="10.00"> mHydrax</text>
</g>
<!-- Node10 -->
<g id="node9" class="node"><title>Node10</title>
<g id="a_node9"><a xlink:href="../../da/d12/class_hydrax_1_1_material_manager.html" target="_top" xlink:title="Hydrax::MaterialManager">
<polygon fill="white" stroke="black" points="888,-37 888,-56 1013,-56 1013,-37 888,-37"/>
<text text-anchor="middle" x="950.5" y="-44" font-family="Helvetica,sans-Serif" font-size="10.00">Hydrax::MaterialManager</text>
</a>
</g>
</g>
<!-- Node6&#45;&gt;Node10 -->
<g id="edge10" class="edge"><title>Node6&#45;&gt;Node10</title>
<path fill="none" stroke="#9a32cd" stroke-dasharray="5,2" d="M692.966,-354.664C695.133,-306.58 707.081,-182.408 772,-109.5 790.483,-88.7419 862.692,-67.7715 909.122,-56.0246"/>
<polygon fill="#9a32cd" stroke="#9a32cd" points="689.459,-354.818 692.605,-364.934 696.454,-355.064 689.459,-354.818"/>
<text text-anchor="middle" x="814" y="-112.5" font-family="Helvetica,sans-Serif" font-size="10.00"> mHydrax</text>
</g>
<!-- Node14 -->
<g id="node13" class="node"><title>Node14</title>
<g id="a_node13"><a xlink:href="../../d6/dbe/class_hydrax_1_1_decals_manager.html" target="_top" xlink:title="Hydrax::DecalsManager">
<polygon fill="white" stroke="black" points="890,-386 890,-405 1011,-405 1011,-386 890,-386"/>
<text text-anchor="middle" x="950.5" y="-393" font-family="Helvetica,sans-Serif" font-size="10.00">Hydrax::DecalsManager</text>
</a>
</g>
</g>
<!-- Node6&#45;&gt;Node14 -->
<g id="edge16" class="edge"><title>Node6&#45;&gt;Node14</title>
<path fill="none" stroke="#9a32cd" stroke-dasharray="5,2" d="M743.778,-373.76C753.166,-373.652 762.877,-373.557 772,-373.5 809.333,-373.265 818.916,-369.196 856,-373.5 876.54,-375.884 899.119,-381.12 916.942,-385.886"/>
<polygon fill="#9a32cd" stroke="#9a32cd" points="743.718,-370.261 733.761,-373.882 743.803,-377.26 743.718,-370.261"/>
<text text-anchor="middle" x="814" y="-376.5" font-family="Helvetica,sans-Serif" font-size="10.00"> mHydrax</text>
</g>
<!-- Node15 -->
<g id="node14" class="node"><title>Node15</title>
<g id="a_node14"><a xlink:href="../../d6/d76/class_hydrax_1_1_rtt_manager.html" target="_top" xlink:title="Hydrax::RttManager">
<polygon fill="white" stroke="black" points="898.5,-467 898.5,-486 1002.5,-486 1002.5,-467 898.5,-467"/>
<text text-anchor="middle" x="950.5" y="-474" font-family="Helvetica,sans-Serif" font-size="10.00">Hydrax::RttManager</text>
</a>
</g>
</g>
<!-- Node6&#45;&gt;Node15 -->
<g id="edge29" class="edge"><title>Node6&#45;&gt;Node15</title>
<path fill="none" stroke="#9a32cd" stroke-dasharray="5,2" d="M724.562,-388.003C739.024,-394.044 756.34,-401.207 772,-407.5 826.147,-429.259 890.004,-453.813 924.444,-466.965"/>
<polygon fill="#9a32cd" stroke="#9a32cd" points="725.637,-384.659 715.061,-384.025 722.933,-391.115 725.637,-384.659"/>
<text text-anchor="middle" x="814" y="-443.5" font-family="Helvetica,sans-Serif" font-size="10.00"> mHydrax</text>
</g>
<!-- Node26 -->
<g id="node25" class="node"><title>Node26</title>
<g id="a_node25"><a xlink:href="../../d1/d00/class_hydrax_1_1_hydrax_1_1_device_listener.html" target="_top" xlink:title="Hydrax::Hydrax::DeviceListener">
<polygon fill="white" stroke="black" points="874,-673 874,-692 1027,-692 1027,-673 874,-673"/>
<text text-anchor="middle" x="950.5" y="-680" font-family="Helvetica,sans-Serif" font-size="10.00">Hydrax::Hydrax::DeviceListener</text>
</a>
</g>
</g>
<!-- Node6&#45;&gt;Node26 -->
<g id="edge41" class="edge"><title>Node6&#45;&gt;Node26</title>
<path fill="none" stroke="#9a32cd" stroke-dasharray="5,2" d="M692.741,-394.29C694.431,-441.073 705.438,-559.218 772,-621.5 800.1,-647.793 821.97,-624.532 856,-642.5 865.465,-647.498 864.696,-653.208 874,-658.5 884.64,-664.553 897.007,-669.298 908.614,-672.913"/>
<polygon fill="#9a32cd" stroke="#9a32cd" points="696.233,-393.921 692.484,-384.011 689.235,-394.096 696.233,-393.921"/>
<text text-anchor="middle" x="814" y="-645.5" font-family="Helvetica,sans-Serif" font-size="10.00"> mHydrax</text>
</g>
<!-- Node29 -->
<g id="node28" class="node"><title>Node29</title>
<g id="a_node28"><a xlink:href="../../d6/de1/class_hydrax_1_1_cfg_file_manager.html" target="_top" xlink:title="Hydrax::CfgFileManager">
<polygon fill="white" stroke="black" points="890,-210 890,-229 1011,-229 1011,-210 890,-210"/>
<text text-anchor="middle" x="950.5" y="-217" font-family="Helvetica,sans-Serif" font-size="10.00">Hydrax::CfgFileManager</text>
</a>
</g>
</g>
<!-- Node6&#45;&gt;Node29 -->
<g id="edge47" class="edge"><title>Node6&#45;&gt;Node29</title>
<path fill="none" stroke="#9a32cd" stroke-dasharray="5,2" d="M705.129,-356.76C719.512,-337.597 744.595,-307.175 772,-287.5 805.139,-263.709 820.228,-270.11 856,-250.5 864.431,-245.878 865.21,-242.397 874,-238.5 882.526,-234.72 891.941,-231.598 901.146,-229.053"/>
<polygon fill="#9a32cd" stroke="#9a32cd" points="702.228,-354.797 699.133,-364.93 707.871,-358.938 702.228,-354.797"/>
<text text-anchor="middle" x="814" y="-290.5" font-family="Helvetica,sans-Serif" font-size="10.00"> mHydrax</text>
</g>
<!-- Node30 -->
<g id="node29" class="node"><title>Node30</title>
<g id="a_node29"><a xlink:href="../../d2/dd3/class_hydrax_1_1_god_rays_manager.html" target="_top" xlink:title="Hydrax::GodRaysManager">
<polygon fill="white" stroke="black" points="1711,-447 1711,-466 1842,-466 1842,-447 1711,-447"/>
<text text-anchor="middle" x="1776.5" y="-454" font-family="Helvetica,sans-Serif" font-size="10.00">Hydrax::GodRaysManager</text>
</a>
</g>
</g>
<!-- Node6&#45;&gt;Node30 -->
<g id="edge56" class="edge"><title>Node6&#45;&gt;Node30</title>
<path fill="none" stroke="#9a32cd" stroke-dasharray="5,2" d="M704.288,-392.488C719.557,-415.638 747.165,-456.986 772,-491.5 815.715,-552.253 811.468,-584.369 874,-625.5 932.538,-664.004 970.034,-622.707 1027,-663.5 1039.03,-672.113 1032.02,-684.411 1045,-691.5 1101.56,-722.381 1126.09,-699.751 1190,-691.5 1431.16,-660.367 1694.36,-506.507 1760.02,-466.187"/>
<polygon fill="#9a32cd" stroke="#9a32cd" points="707.139,-390.453 698.719,-384.022 701.29,-394.3 707.139,-390.453"/>
<text text-anchor="middle" x="1288.5" y="-692.5" font-family="Helvetica,sans-Serif" font-size="10.00"> mHydrax</text>
</g>
<!-- Node34 -->
<g id="node33" class="node"><title>Node34</title>
<g id="a_node33"><a xlink:href="../../d5/daf/class_hydrax_1_1_texture_manager.html" target="_top" xlink:title="Hydrax::TextureManager">
<polygon fill="white" stroke="black" points="889,-297 889,-316 1012,-316 1012,-297 889,-297"/>
<text text-anchor="middle" x="950.5" y="-304" font-family="Helvetica,sans-Serif" font-size="10.00">Hydrax::TextureManager</text>
</a>
</g>
</g>
<!-- Node6&#45;&gt;Node34 -->
<g id="edge58" class="edge"><title>Node6&#45;&gt;Node34</title>
<path fill="none" stroke="#9a32cd" stroke-dasharray="5,2" d="M709.131,-357.854C724.143,-344.018 747.566,-325.233 772,-316.5 809.202,-303.203 853.577,-300.703 888.651,-301.527"/>
<polygon fill="#9a32cd" stroke="#9a32cd" points="706.525,-355.503 701.703,-364.936 711.356,-360.569 706.525,-355.503"/>
<text text-anchor="middle" x="814" y="-319.5" font-family="Helvetica,sans-Serif" font-size="10.00"> mHydrax</text>
</g>
<!-- Node7&#45;&gt;Node6 -->
<g id="edge5" class="edge"><title>Node7&#45;&gt;Node6</title>
<path fill="none" stroke="#9a32cd" stroke-dasharray="5,2" d="M908.61,-158.619C869.929,-149.978 811.998,-144.043 772,-171.5 704.598,-217.769 694.34,-330.478 692.78,-364.569"/>
<polygon fill="#9a32cd" stroke="#9a32cd" points="907.952,-162.061 918.492,-160.979 909.578,-155.252 907.952,-162.061"/>
<text text-anchor="middle" x="814" y="-174.5" font-family="Helvetica,sans-Serif" font-size="10.00"> mMesh</text>
</g>
<!-- Node8 -->
<g id="node7" class="node"><title>Node8</title>
<g id="a_node7"><a xlink:href="../../d8/df3/struct_hydrax_1_1_mesh_1_1_options.html" target="_top" xlink:title="Hydrax::Mesh::Options">
<polygon fill="white" stroke="black" points="156,-511 156,-530 273,-530 273,-511 156,-511"/>
<text text-anchor="middle" x="214.5" y="-518" font-family="Helvetica,sans-Serif" font-size="10.00">Hydrax::Mesh::Options</text>
</a>
</g>
</g>
<!-- Node8&#45;&gt;Node7 -->
<g id="edge7" class="edge"><title>Node8&#45;&gt;Node7</title>
<path fill="none" stroke="#9a32cd" stroke-dasharray="5,2" d="M232.045,-503.721C295.046,-441.189 528.695,-221.497 772,-147.5 824.918,-131.406 890.061,-148.812 924.845,-160.913"/>
<polygon fill="#9a32cd" stroke="#9a32cd" points="229.505,-501.312 224.91,-510.859 234.455,-506.261 229.505,-501.312"/>
<text text-anchor="middle" x="582" y="-251.5" font-family="Helvetica,sans-Serif" font-size="10.00"> mOptions</text>
</g>
<!-- Node8&#45;&gt;Node28 -->
<g id="edge44" class="edge"><title>Node8&#45;&gt;Node28</title>
<path fill="none" stroke="#9a32cd" stroke-dasharray="5,2" d="M283.523,-520.5C323.661,-520.5 374.012,-520.5 412.719,-520.5"/>
<polygon fill="#9a32cd" stroke="#9a32cd" points="283.288,-517 273.288,-520.5 283.288,-524 283.288,-517"/>
<text text-anchor="middle" x="343" y="-523.5" font-family="Helvetica,sans-Serif" font-size="10.00"> mMeshOptions</text>
</g>
<!-- Node9 -->
<g id="node8" class="node"><title>Node9</title>
<g id="a_node8"><a xlink:href="../../d8/dd3/struct_hydrax_1_1_size.html" target="_top" xlink:title="Hydrax::Size">
<polygon fill="white" stroke="black" points="0,-551 0,-570 73,-570 73,-551 0,-551"/>
<text text-anchor="middle" x="36.5" y="-558" font-family="Helvetica,sans-Serif" font-size="10.00">Hydrax::Size</text>
</a>
</g>
</g>
<!-- Node9&#45;&gt;Node8 -->
<g id="edge8" class="edge"><title>Node9&#45;&gt;Node8</title>
<path fill="none" stroke="#9a32cd" stroke-dasharray="5,2" d="M83.1869,-550.117C110.453,-543.92 144.832,-536.106 171.431,-530.061"/>
<polygon fill="#9a32cd" stroke="#9a32cd" points="82.0919,-546.776 73.1162,-552.405 83.6433,-553.602 82.0919,-546.776"/>
<text text-anchor="middle" x="114.5" y="-551.5" font-family="Helvetica,sans-Serif" font-size="10.00"> MeshSize</text>
</g>
<!-- Node16 -->
<g id="node15" class="node"><title>Node16</title>
<g id="a_node15"><a xlink:href="../../d6/d3b/struct_hydrax_1_1_rtt_manager_1_1_rtt_options.html" target="_top" xlink:title="Hydrax::RttManager\l::RttOptions">
<polygon fill="white" stroke="black" points="291,-625.5 291,-655.5 395,-655.5 395,-625.5 291,-625.5"/>
<text text-anchor="start" x="299" y="-643.5" font-family="Helvetica,sans-Serif" font-size="10.00">Hydrax::RttManager</text>
<text text-anchor="middle" x="343" y="-632.5" font-family="Helvetica,sans-Serif" font-size="10.00">::RttOptions</text>
</a>
</g>
</g>
<!-- Node9&#45;&gt;Node16 -->
<g id="edge19" class="edge"><title>Node9&#45;&gt;Node16</title>
<path fill="none" stroke="#9a32cd" stroke-dasharray="5,2" d="M82.9525,-572.442C138.597,-587.061 232.585,-611.754 290.748,-627.035"/>
<polygon fill="#9a32cd" stroke="#9a32cd" points="83.5871,-568.99 73.026,-569.834 81.8084,-575.76 83.5871,-568.99"/>
<text text-anchor="middle" x="114.5" y="-588.5" font-family="Helvetica,sans-Serif" font-size="10.00"> Size_</text>
</g>
<!-- Node10&#45;&gt;Node6 -->
<g id="edge9" class="edge"><title>Node10&#45;&gt;Node6</title>
<path fill="none" stroke="#9a32cd" stroke-dasharray="5,2" d="M877.482,-39.5238C835.622,-37.0867 788.045,-37.6217 772,-50.5 720.621,-91.7394 697.776,-315.557 693.326,-364.881"/>
<polygon fill="#9a32cd" stroke="#9a32cd" points="877.495,-43.0318 887.7,-40.182 877.945,-36.0463 877.495,-43.0318"/>
<text text-anchor="middle" x="814" y="-53.5" font-family="Helvetica,sans-Serif" font-size="10.00"> mMaterialManager</text>
</g>
<!-- Node11 -->
<g id="node10" class="node"><title>Node11</title>
<g id="a_node10"><a xlink:href="../../df/d34/class_hydrax_1_1_material_manager_1_1_underwater_compositor_listener.html" target="_top" xlink:title="Hydrax::MaterialManager\l::UnderwaterCompositorListener">
<polygon fill="white" stroke="black" points="1211,-34.5 1211,-64.5 1366,-64.5 1366,-34.5 1211,-34.5"/>
<text text-anchor="start" x="1219" y="-52.5" font-family="Helvetica,sans-Serif" font-size="10.00">Hydrax::MaterialManager</text>
<text text-anchor="middle" x="1288.5" y="-41.5" font-family="Helvetica,sans-Serif" font-size="10.00">::UnderwaterCompositorListener</text>
</a>
</g>
</g>
<!-- Node10&#45;&gt;Node11 -->
<g id="edge13" class="edge"><title>Node10&#45;&gt;Node11</title>
<path fill="none" stroke="#9a32cd" stroke-dasharray="5,2" d="M1023.18,-47.14C1078.38,-47.6329 1154.54,-48.3128 1210.93,-48.8163"/>
<polygon fill="#9a32cd" stroke="#9a32cd" points="1023.16,-43.6398 1013.13,-47.0502 1023.1,-50.6395 1023.16,-43.6398"/>
<text text-anchor="middle" x="1117.5" y="-52.5" font-family="Helvetica,sans-Serif" font-size="10.00"> mMaterialManager</text>
</g>
<!-- Node11&#45;&gt;Node10 -->
<g id="edge11" class="edge"><title>Node11&#45;&gt;Node10</title>
<path fill="none" stroke="#9a32cd" stroke-dasharray="5,2" d="M1230.93,-31.7518C1217.63,-28.3268 1203.43,-25.2595 1190,-23.5 1126.1,-15.1266 1108.98,-15.7468 1045,-23.5 1023.76,-26.0743 1000.38,-31.8243 982.319,-36.9307"/>
<polygon fill="#9a32cd" stroke="#9a32cd" points="1230.32,-35.2127 1240.89,-34.4249 1232.13,-28.452 1230.32,-35.2127"/>
<text text-anchor="middle" x="1117.5" y="-26.5" font-family="Helvetica,sans-Serif" font-size="10.00"> mUnderwaterCompositorListener</text>
</g>
<!-- Node12 -->
<g id="node11" class="node"><title>Node12</title>
<polygon fill="white" stroke="#bfbfbf" points="925,-75 925,-94 976,-94 976,-75 925,-75"/>
<text text-anchor="middle" x="950.5" y="-82" font-family="Helvetica,sans-Serif" font-size="10.00">Listener</text>
</g>
<!-- Node12&#45;&gt;Node11 -->
<g id="edge12" class="edge"><title>Node12&#45;&gt;Node11</title>
<path fill="none" stroke="midnightblue" d="M986.432,-82.3283C1032.97,-79.2617 1117.84,-73.0658 1190,-64.5 1196.8,-63.6925 1203.86,-62.7711 1210.93,-61.7911"/>
<polygon fill="midnightblue" stroke="midnightblue" points="986.03,-78.8469 976.277,-82.9876 986.483,-85.8322 986.03,-78.8469"/>
</g>
<!-- Node13 -->
<g id="node12" class="node"><title>Node13</title>
<g id="a_node12"><a xlink:href="../../de/d6e/struct_hydrax_1_1_material_manager_1_1_options.html" target="_top" xlink:title="Hydrax::MaterialManager\l::Options">
<polygon fill="white" stroke="black" points="629,-0.5 629,-30.5 754,-30.5 754,-0.5 629,-0.5"/>
<text text-anchor="start" x="637" y="-18.5" font-family="Helvetica,sans-Serif" font-size="10.00">Hydrax::MaterialManager</text>
<text text-anchor="middle" x="691.5" y="-7.5" font-family="Helvetica,sans-Serif" font-size="10.00">::Options</text>
</a>
</g>
</g>
<!-- Node13&#45;&gt;Node10 -->
<g id="edge14" class="edge"><title>Node13&#45;&gt;Node10</title>
<path fill="none" stroke="#9a32cd" stroke-dasharray="5,2" d="M764.528,-11.2421C793.158,-10.7704 826.291,-11.7575 856,-16.5 880.747,-20.4504 907.903,-29.7558 926.542,-36.9638"/>
<polygon fill="#9a32cd" stroke="#9a32cd" points="764.116,-7.75051 754.198,-11.4776 764.276,-14.7487 764.116,-7.75051"/>
<text text-anchor="middle" x="814" y="-19.5" font-family="Helvetica,sans-Serif" font-size="10.00"> mOptions</text>
</g>
<!-- Node14&#45;&gt;Node6 -->
<g id="edge15" class="edge"><title>Node14&#45;&gt;Node6</title>
<path fill="none" stroke="#9a32cd" stroke-dasharray="5,2" d="M879.449,-393.55C846.744,-392.229 807.321,-390.052 772,-386.5 759.5,-385.243 745.964,-383.387 733.664,-381.508"/>
<polygon fill="#9a32cd" stroke="#9a32cd" points="879.69,-397.062 889.817,-393.949 879.959,-390.067 879.69,-397.062"/>
<text text-anchor="middle" x="814" y="-395.5" font-family="Helvetica,sans-Serif" font-size="10.00"> mDecalsManager</text>
</g>
<!-- Node15&#45;&gt;Node5 -->
<g id="edge59" class="edge"><title>Node15&#45;&gt;Node5</title>
<path fill="none" stroke="#9a32cd" stroke-dasharray="5,2" d="M965.263,-494.297C981.375,-515.647 1008.24,-552.901 1027,-587.5 1036.88,-605.713 1030.95,-615.27 1045,-630.5 1094.19,-683.837 1129.55,-665.372 1190,-705.5 1198.68,-711.259 1198.83,-715.563 1208,-720.5 1219.3,-726.584 1232.35,-731.338 1244.57,-734.952"/>
<polygon fill="#9a32cd" stroke="#9a32cd" points="967.917,-492.005 959.071,-486.174 962.35,-496.249 967.917,-492.005"/>
<text text-anchor="middle" x="1117.5" y="-708.5" font-family="Helvetica,sans-Serif" font-size="10.00"> mRttManager</text>
</g>
<!-- Node15&#45;&gt;Node6 -->
<g id="edge17" class="edge"><title>Node15&#45;&gt;Node6</title>
<path fill="none" stroke="#9a32cd" stroke-dasharray="5,2" d="M888.168,-478.645C852.607,-477.567 807.906,-472.108 772,-454.5 738.421,-438.034 710.694,-401.606 698.779,-384.169"/>
<polygon fill="#9a32cd" stroke="#9a32cd" points="888.348,-482.149 898.414,-478.844 888.484,-475.151 888.348,-482.149"/>
<text text-anchor="middle" x="814" y="-479.5" font-family="Helvetica,sans-Serif" font-size="10.00"> mRttManager</text>
</g>
<!-- Node17 -->
<g id="node16" class="node"><title>Node17</title>
<g id="a_node16"><a xlink:href="../../d5/de1/class_hydrax_1_1_rtt_manager_1_1_c_reflection_listener.html" target="_top" xlink:title="Hydrax::RttManager\l::CReflectionListener">
<polygon fill="white" stroke="black" points="1530,-254.5 1530,-284.5 1637,-284.5 1637,-254.5 1530,-254.5"/>
<text text-anchor="start" x="1538" y="-272.5" font-family="Helvetica,sans-Serif" font-size="10.00">Hydrax::RttManager</text>
<text text-anchor="middle" x="1583.5" y="-261.5" font-family="Helvetica,sans-Serif" font-size="10.00">::CReflectionListener</text>
</a>
</g>
</g>
<!-- Node15&#45;&gt;Node17 -->
<g id="edge22" class="edge"><title>Node15&#45;&gt;Node17</title>
<path fill="none" stroke="#9a32cd" stroke-dasharray="5,2" d="M977.292,-461.391C993.86,-450.398 1014.54,-434.05 1027,-414.5 1044.27,-387.412 1020.88,-365.717 1045,-344.5 1123.35,-275.575 1408.31,-305.042 1511,-286.5 1517.15,-285.389 1523.57,-284.081 1529.92,-282.691"/>
<polygon fill="#9a32cd" stroke="#9a32cd" points="975.144,-458.609 968.589,-466.933 978.904,-464.514 975.144,-458.609"/>
<text text-anchor="middle" x="1288.5" y="-303.5" font-family="Helvetica,sans-Serif" font-size="10.00"> mRttManager</text>
</g>
<!-- Node19 -->
<g id="node18" class="node"><title>Node19</title>
<g id="a_node18"><a xlink:href="../../de/daa/class_hydrax_1_1_rtt_manager_1_1_c_reflection_listener_1_1_c_reflection_queue_listener.html" target="_top" xlink:title="Hydrax::RttManager\l::CReflectionListener\l::CReflectionQueueListener">
<polygon fill="white" stroke="black" points="1221,-207 1221,-248 1356,-248 1356,-207 1221,-207"/>
<text text-anchor="start" x="1229" y="-236" font-family="Helvetica,sans-Serif" font-size="10.00">Hydrax::RttManager</text>
<text text-anchor="start" x="1229" y="-225" font-family="Helvetica,sans-Serif" font-size="10.00">::CReflectionListener</text>
<text text-anchor="middle" x="1288.5" y="-214" font-family="Helvetica,sans-Serif" font-size="10.00">::CReflectionQueueListener</text>
</a>
</g>
</g>
<!-- Node15&#45;&gt;Node19 -->
<g id="edge25" class="edge"><title>Node15&#45;&gt;Node19</title>
<path fill="none" stroke="#9a32cd" stroke-dasharray="5,2" d="M978.95,-461.589C995.839,-450.851 1016.25,-434.715 1027,-414.5 1046.92,-377.056 1013.63,-253.04 1045,-224.5 1069.88,-201.869 1158.14,-208.651 1220.99,-216.949"/>
<polygon fill="#9a32cd" stroke="#9a32cd" points="976.76,-458.823 970.012,-466.99 980.381,-464.813 976.76,-458.823"/>
<text text-anchor="middle" x="1117.5" y="-227.5" font-family="Helvetica,sans-Serif" font-size="10.00"> mRttManager</text>
</g>
<!-- Node21 -->
<g id="node20" class="node"><title>Node21</title>
<g id="a_node20"><a xlink:href="../../db/dfb/class_hydrax_1_1_rtt_manager_1_1_c_refraction_listener.html" target="_top" xlink:title="Hydrax::RttManager\l::CRefractionListener">
<polygon fill="white" stroke="black" points="1235,-503.5 1235,-533.5 1342,-533.5 1342,-503.5 1235,-503.5"/>
<text text-anchor="start" x="1243" y="-521.5" font-family="Helvetica,sans-Serif" font-size="10.00">Hydrax::RttManager</text>
<text text-anchor="middle" x="1288.5" y="-510.5" font-family="Helvetica,sans-Serif" font-size="10.00">::CRefractionListener</text>
</a>
</g>
</g>
<!-- Node15&#45;&gt;Node21 -->
<g id="edge28" class="edge"><title>Node15&#45;&gt;Node21</title>
<path fill="none" stroke="#9a32cd" stroke-dasharray="5,2" d="M1000.93,-488.233C1015.1,-491.28 1030.6,-494.316 1045,-496.5 1109.99,-506.362 1185.5,-512.361 1234.77,-515.55"/>
<polygon fill="#9a32cd" stroke="#9a32cd" points="1001.41,-484.754 990.887,-486.025 999.902,-491.591 1001.41,-484.754"/>
<text text-anchor="middle" x="1117.5" y="-515.5" font-family="Helvetica,sans-Serif" font-size="10.00"> mRttManager</text>
</g>
<!-- Node22 -->
<g id="node21" class="node"><title>Node22</title>
<g id="a_node21"><a xlink:href="../../d9/d1c/class_hydrax_1_1_rtt_manager_1_1_c_g_p_u_normal_map_listener.html" target="_top" xlink:title="Hydrax::RttManager\l::CGPUNormalMapListener">
<polygon fill="white" stroke="black" points="1221.5,-361.5 1221.5,-391.5 1355.5,-391.5 1355.5,-361.5 1221.5,-361.5"/>
<text text-anchor="start" x="1229.5" y="-379.5" font-family="Helvetica,sans-Serif" font-size="10.00">Hydrax::RttManager</text>
<text text-anchor="middle" x="1288.5" y="-368.5" font-family="Helvetica,sans-Serif" font-size="10.00">::CGPUNormalMapListener</text>
</a>
</g>
</g>
<!-- Node15&#45;&gt;Node22 -->
<g id="edge32" class="edge"><title>Node15&#45;&gt;Node22</title>
<path fill="none" stroke="#9a32cd" stroke-dasharray="5,2" d="M971.472,-460.924C989.631,-447.568 1017.69,-428.885 1045,-418.5 1102.31,-396.708 1171.57,-386.15 1221.37,-381.079"/>
<polygon fill="#9a32cd" stroke="#9a32cd" points="969.289,-458.187 963.399,-466.994 973.496,-463.782 969.289,-458.187"/>
<text text-anchor="middle" x="1117.5" y="-421.5" font-family="Helvetica,sans-Serif" font-size="10.00"> mRttManager</text>
</g>
<!-- Node23 -->
<g id="node22" class="node"><title>Node23</title>
<g id="a_node22"><a xlink:href="../../d3/d95/class_hydrax_1_1_rtt_manager_1_1_c_depth_listener.html" target="_top" xlink:title="Hydrax::RttManager\l::CDepthListener">
<polygon fill="white" stroke="black" points="1236.5,-605.5 1236.5,-635.5 1340.5,-635.5 1340.5,-605.5 1236.5,-605.5"/>
<text text-anchor="start" x="1244.5" y="-623.5" font-family="Helvetica,sans-Serif" font-size="10.00">Hydrax::RttManager</text>
<text text-anchor="middle" x="1288.5" y="-612.5" font-family="Helvetica,sans-Serif" font-size="10.00">::CDepthListener</text>
</a>
</g>
</g>
<!-- Node15&#45;&gt;Node23 -->
<g id="edge35" class="edge"><title>Node15&#45;&gt;Node23</title>
<path fill="none" stroke="#9a32cd" stroke-dasharray="5,2" d="M959.828,-495.457C973.252,-523.463 1002.54,-575.099 1045,-598.5 1061.31,-607.49 1170.11,-614.529 1236.31,-618.043"/>
<polygon fill="#9a32cd" stroke="#9a32cd" points="962.972,-493.918 955.605,-486.304 956.616,-496.85 962.972,-493.918"/>
<text text-anchor="middle" x="1117.5" y="-618.5" font-family="Helvetica,sans-Serif" font-size="10.00"> mRttManager</text>
</g>
<!-- Node25 -->
<g id="node24" class="node"><title>Node25</title>
<g id="a_node24"><a xlink:href="../../d8/dff/class_hydrax_1_1_rtt_manager_1_1_c_depth_reflection_listener.html" target="_top" xlink:title="Hydrax::RttManager\l::CDepthReflectionListener">
<polygon fill="white" stroke="black" points="1222.5,-410.5 1222.5,-440.5 1354.5,-440.5 1354.5,-410.5 1222.5,-410.5"/>
<text text-anchor="start" x="1230.5" y="-428.5" font-family="Helvetica,sans-Serif" font-size="10.00">Hydrax::RttManager</text>
<text text-anchor="middle" x="1288.5" y="-417.5" font-family="Helvetica,sans-Serif" font-size="10.00">::CDepthReflectionListener</text>
</a>
</g>
</g>
<!-- Node15&#45;&gt;Node25 -->
<g id="edge38" class="edge"><title>Node15&#45;&gt;Node25</title>
<path fill="none" stroke="#9a32cd" stroke-dasharray="5,2" d="M1012.85,-477.981C1061.43,-477.94 1130.74,-475.172 1190,-462.5 1212.48,-457.692 1236.66,-448.548 1255.31,-440.554"/>
<polygon fill="#9a32cd" stroke="#9a32cd" points="1012.82,-474.481 1002.81,-477.951 1012.8,-481.481 1012.82,-474.481"/>
<text text-anchor="middle" x="1117.5" y="-480.5" font-family="Helvetica,sans-Serif" font-size="10.00"> mRttManager</text>
</g>
<!-- Node16&#45;&gt;Node15 -->
<g id="edge18" class="edge"><title>Node16&#45;&gt;Node15</title>
<path fill="none" stroke="#9a32cd" stroke-dasharray="5,2" d="M405.06,-656.815C525.788,-687.438 789.13,-745.603 856,-689.5 891.266,-659.912 856.67,-630.147 874,-587.5 890.846,-546.044 924.892,-504.335 940.862,-486.071"/>
<polygon fill="#9a32cd" stroke="#9a32cd" points="405.779,-653.386 395.224,-654.301 404.045,-660.168 405.779,-653.386"/>
<text text-anchor="middle" x="582" y="-702.5" font-family="Helvetica,sans-Serif" font-size="10.00"> mRttOptions</text>
</g>
<!-- Node17&#45;&gt;Node15 -->
<g id="edge20" class="edge"><title>Node17&#45;&gt;Node15</title>
<path fill="none" stroke="#9a32cd" stroke-dasharray="5,2" d="M1519.79,-270.846C1378.93,-273.938 1049.37,-281.581 1045,-285.5 1001.9,-324.146 1055.31,-364.005 1027,-414.5 1013.73,-438.171 987.555,-456.472 969.79,-466.869"/>
<polygon fill="#9a32cd" stroke="#9a32cd" points="1520.08,-274.341 1530,-270.623 1519.92,-267.342 1520.08,-274.341"/>
<text text-anchor="middle" x="1288.5" y="-281.5" font-family="Helvetica,sans-Serif" font-size="10.00"> mReflectionListener</text>
</g>
<!-- Node18 -->
<g id="node17" class="node"><title>Node18</title>
<polygon fill="white" stroke="#bfbfbf" points="896,-335 896,-354 1005,-354 1005,-335 896,-335"/>
<text text-anchor="middle" x="950.5" y="-342" font-family="Helvetica,sans-Serif" font-size="10.00">RenderTargetListener</text>
</g>
<!-- Node18&#45;&gt;Node17 -->
<g id="edge21" class="edge"><title>Node18&#45;&gt;Node17</title>
<path fill="none" stroke="midnightblue" d="M1014.43,-335.225C1019.11,-332.659 1023.4,-329.466 1027,-325.5 1063.23,-285.55 1005.01,-241.684 1045,-205.5 1098.78,-156.836 1135.49,-199.278 1208,-197.5 1279.53,-195.746 1298.15,-187.476 1369,-197.5 1434.04,-206.702 1449.18,-216.278 1511,-238.5 1523.99,-243.168 1537.98,-249.038 1550.11,-254.411"/>
<polygon fill="midnightblue" stroke="midnightblue" points="1012.72,-332.153 1005.01,-339.421 1015.57,-338.546 1012.72,-332.153"/>
</g>
<!-- Node18&#45;&gt;Node21 -->
<g id="edge27" class="edge"><title>Node18&#45;&gt;Node21</title>
<path fill="none" stroke="midnightblue" d="M1000.98,-358.055C1010.65,-362.605 1019.96,-368.61 1027,-376.5 1045.82,-397.593 1024.07,-418.496 1045,-437.5 1093.59,-481.626 1128.22,-443.344 1190,-465.5 1216.84,-475.125 1245.23,-491.336 1264.41,-503.3"/>
<polygon fill="midnightblue" stroke="midnightblue" points="1002.24,-354.786 991.665,-354.125 999.519,-361.236 1002.24,-354.786"/>
</g>
<!-- Node18&#45;&gt;Node22 -->
<g id="edge31" class="edge"><title>Node18&#45;&gt;Node22</title>
<path fill="none" stroke="midnightblue" d="M1012.39,-331.754C1017.44,-329.928 1022.38,-327.853 1027,-325.5 1036.28,-320.778 1035.21,-314.045 1045,-310.5 1105.6,-288.561 1135.18,-276.62 1190,-310.5 1205.22,-319.905 1194.72,-334.518 1208,-346.5 1214.79,-352.627 1222.96,-357.545 1231.43,-361.482"/>
<polygon fill="midnightblue" stroke="midnightblue" points="1011,-328.526 1002.59,-334.97 1013.18,-335.177 1011,-328.526"/>
</g>
<!-- Node18&#45;&gt;Node25 -->
<g id="edge37" class="edge"><title>Node18&#45;&gt;Node25</title>
<path fill="none" stroke="midnightblue" d="M1015.3,-345.918C1075.88,-348.334 1161.75,-354.862 1190,-372.5 1202.55,-380.335 1196.24,-391.523 1208,-400.5 1213.06,-404.363 1218.73,-407.637 1224.65,-410.41"/>
<polygon fill="midnightblue" stroke="midnightblue" points="1015.18,-342.411 1005.06,-345.539 1014.92,-349.407 1015.18,-342.411"/>
</g>
<!-- Node33 -->
<g id="node32" class="node"><title>Node33</title>
<g id="a_node32"><a xlink:href="../../de/d31/class_hydrax_1_1_god_rays_manager_1_1_depth_map_listener.html" target="_top" xlink:title="Hydrax::GodRaysManager\l::DepthMapListener">
<polygon fill="white" stroke="black" points="1969,-407.5 1969,-437.5 2100,-437.5 2100,-407.5 1969,-407.5"/>
<text text-anchor="start" x="1977" y="-425.5" font-family="Helvetica,sans-Serif" font-size="10.00">Hydrax::GodRaysManager</text>
<text text-anchor="middle" x="2034.5" y="-414.5" font-family="Helvetica,sans-Serif" font-size="10.00">::DepthMapListener</text>
</a>
</g>
</g>
<!-- Node18&#45;&gt;Node33 -->
<g id="edge54" class="edge"><title>Node18&#45;&gt;Node33</title>
<path fill="none" stroke="midnightblue" d="M1014.54,-335.328C1019.2,-332.741 1023.46,-329.514 1027,-325.5 1070.55,-276.148 999.246,-225.818 1045,-178.5 1120.83,-100.075 1178.41,-140.5 1287.5,-140.5 1287.5,-140.5 1287.5,-140.5 1777.5,-140.5 1922.97,-140.5 2007.48,-348.764 2028.37,-407.338"/>
<polygon fill="midnightblue" stroke="midnightblue" points="1012.84,-332.256 1005.16,-339.553 1015.72,-338.638 1012.84,-332.256"/>
</g>
<!-- Node19&#45;&gt;Node17 -->
<g id="edge23" class="edge"><title>Node19&#45;&gt;Node17</title>
<path fill="none" stroke="#9a32cd" stroke-dasharray="5,2" d="M1366.42,-238.526C1417.81,-245.892 1484.07,-255.391 1529.59,-261.916"/>
<polygon fill="#9a32cd" stroke="#9a32cd" points="1366.75,-235.037 1356.35,-237.083 1365.76,-241.967 1366.75,-235.037"/>
<text text-anchor="middle" x="1449" y="-261.5" font-family="Helvetica,sans-Serif" font-size="10.00"> mCReflectionQueueListener</text>
</g>
<!-- Node20 -->
<g id="node19" class="node"><title>Node20</title>
<polygon fill="white" stroke="#bfbfbf" points="882,-248 882,-267 1019,-267 1019,-248 882,-248"/>
<text text-anchor="middle" x="950.5" y="-255" font-family="Helvetica,sans-Serif" font-size="10.00">Ogre::RenderQueueListener</text>
</g>
<!-- Node20&#45;&gt;Node19 -->
<g id="edge24" class="edge"><title>Node20&#45;&gt;Node19</title>
<path fill="none" stroke="midnightblue" d="M1020.45,-243.109C1022.74,-241.71 1024.93,-240.178 1027,-238.5 1041.19,-226.969 1029.5,-211.199 1045,-201.5 1105.13,-163.886 1190.39,-186.624 1242.15,-206.841"/>
<polygon fill="midnightblue" stroke="midnightblue" points="1018.49,-240.182 1011.2,-247.871 1021.69,-246.405 1018.49,-240.182"/>
</g>
<!-- Node21&#45;&gt;Node15 -->
<g id="edge26" class="edge"><title>Node21&#45;&gt;Node15</title>
<path fill="none" stroke="#9a32cd" stroke-dasharray="5,2" d="M1225,-531.998C1175.36,-540.254 1104.61,-546.478 1045,-530.5 1012.77,-521.862 980.157,-499.129 963.275,-486.079"/>
<polygon fill="#9a32cd" stroke="#9a32cd" points="1225.7,-535.429 1234.95,-530.269 1224.5,-528.533 1225.7,-535.429"/>
<text text-anchor="middle" x="1117.5" y="-543.5" font-family="Helvetica,sans-Serif" font-size="10.00"> mRefractionListener</text>
</g>
<!-- Node22&#45;&gt;Node15 -->
<g id="edge30" class="edge"><title>Node22&#45;&gt;Node15</title>
<path fill="none" stroke="#9a32cd" stroke-dasharray="5,2" d="M1211.4,-360.391C1150.34,-349.342 1070.73,-339.743 1045,-358.5 1023.87,-373.9 1041.7,-392.881 1027,-414.5 1011.46,-437.362 985.097,-456.246 967.998,-466.95"/>
<polygon fill="#9a32cd" stroke="#9a32cd" points="1210.94,-363.866 1221.41,-362.246 1212.21,-356.983 1210.94,-363.866"/>
<text text-anchor="middle" x="1117.5" y="-361.5" font-family="Helvetica,sans-Serif" font-size="10.00"> mGPUNormalMapListener</text>
</g>
<!-- Node23&#45;&gt;Node15 -->
<g id="edge33" class="edge"><title>Node23&#45;&gt;Node15</title>
<path fill="none" stroke="#9a32cd" stroke-dasharray="5,2" d="M1236.51,-602.074C1221.62,-597.011 1205.25,-591.75 1190,-587.5 1126.43,-569.784 1104.15,-584.761 1045,-555.5 1009,-537.692 975.193,-503.119 959.963,-486.242"/>
<polygon fill="#9a32cd" stroke="#9a32cd" points="1235.46,-605.414 1246.06,-605.359 1237.74,-598.795 1235.46,-605.414"/>
<text text-anchor="middle" x="1117.5" y="-590.5" font-family="Helvetica,sans-Serif" font-size="10.00"> mDepthListener</text>
</g>
<!-- Node24 -->
<g id="node23" class="node"><title>Node24</title>
<polygon fill="white" stroke="#bfbfbf" points="882.5,-597 882.5,-616 1018.5,-616 1018.5,-597 882.5,-597"/>
<text text-anchor="middle" x="950.5" y="-604" font-family="Helvetica,sans-Serif" font-size="10.00">Ogre::RenderTargetListener</text>
</g>
<!-- Node24&#45;&gt;Node23 -->
<g id="edge34" class="edge"><title>Node24&#45;&gt;Node23</title>
<path fill="none" stroke="midnightblue" d="M988.089,-619.155C1005.16,-624.413 1025.88,-629.891 1045,-632.5 1110.57,-641.447 1186.92,-634.907 1236.17,-628.51"/>
<polygon fill="midnightblue" stroke="midnightblue" points="989.092,-615.802 978.502,-616.108 986.972,-622.473 989.092,-615.802"/>
</g>
<!-- Node25&#45;&gt;Node15 -->
<g id="edge36" class="edge"><title>Node25&#45;&gt;Node15</title>
<path fill="none" stroke="#9a32cd" stroke-dasharray="5,2" d="M1212.24,-430.556C1164.13,-434.529 1100.57,-441.155 1045,-451.5 1023.86,-455.436 1000.48,-461.686 982.392,-466.952"/>
<polygon fill="#9a32cd" stroke="#9a32cd" points="1212.57,-434.041 1222.26,-429.749 1212.01,-427.063 1212.57,-434.041"/>
<text text-anchor="middle" x="1117.5" y="-454.5" font-family="Helvetica,sans-Serif" font-size="10.00"> mDepthReflectionListener</text>
</g>
<!-- Node26&#45;&gt;Node6 -->
<g id="edge39" class="edge"><title>Node26&#45;&gt;Node6</title>
<path fill="none" stroke="#9a32cd" stroke-dasharray="5,2" d="M863.634,-688.072C831.481,-685.752 796.78,-677.367 772,-655.5 729.233,-617.761 700.231,-429.294 693.834,-384.203"/>
<polygon fill="#9a32cd" stroke="#9a32cd" points="863.797,-691.586 873.968,-688.622 864.168,-684.595 863.797,-691.586"/>
<text text-anchor="middle" x="814" y="-690.5" font-family="Helvetica,sans-Serif" font-size="10.00"> mDeviceListener</text>
</g>
<!-- Node27 -->
<g id="node26" class="node"><title>Node27</title>
<polygon fill="white" stroke="#bfbfbf" points="637.5,-783.5 637.5,-813.5 745.5,-813.5 745.5,-783.5 637.5,-783.5"/>
<text text-anchor="start" x="645.5" y="-801.5" font-family="Helvetica,sans-Serif" font-size="10.00">Ogre::RenderSystem</text>
<text text-anchor="middle" x="691.5" y="-790.5" font-family="Helvetica,sans-Serif" font-size="10.00">::Listener</text>
</g>
<!-- Node27&#45;&gt;Node26 -->
<g id="edge40" class="edge"><title>Node27&#45;&gt;Node26</title>
<path fill="none" stroke="midnightblue" d="M734.325,-779.038C767.674,-763.219 815.359,-739.928 856,-717.5 864.209,-712.97 865.471,-710.393 874,-706.5 886.512,-700.789 900.77,-695.878 913.5,-692.013"/>
<polygon fill="midnightblue" stroke="midnightblue" points="732.435,-776.059 724.888,-783.495 735.425,-782.388 732.435,-776.059"/>
</g>
<!-- Node28&#45;&gt;Node6 -->
<g id="edge42" class="edge"><title>Node28&#45;&gt;Node6</title>
<path fill="none" stroke="#9a32cd" stroke-dasharray="5,2" d="M497.524,-505.24C541.949,-475.143 639.72,-408.903 676.308,-384.115"/>
<polygon fill="#9a32cd" stroke="#9a32cd" points="495.455,-502.414 489.14,-510.921 499.382,-508.209 495.455,-502.414"/>
<text text-anchor="middle" x="582" y="-468.5" font-family="Helvetica,sans-Serif" font-size="10.00"> mModule</text>
</g>
<!-- Node29&#45;&gt;Node6 -->
<g id="edge46" class="edge"><title>Node29&#45;&gt;Node6</title>
<path fill="none" stroke="#9a32cd" stroke-dasharray="5,2" d="M879.681,-221.052C837.876,-223.179 789.546,-228.12 772,-239.5 724.763,-270.138 701.938,-339.495 694.931,-364.923"/>
<polygon fill="#9a32cd" stroke="#9a32cd" points="880.04,-224.539 889.867,-220.581 879.716,-217.547 880.04,-224.539"/>
<text text-anchor="middle" x="814" y="-242.5" font-family="Helvetica,sans-Serif" font-size="10.00"> mCfgFileManager</text>
</g>
<!-- Node30&#45;&gt;Node6 -->
<g id="edge48" class="edge"><title>Node30&#45;&gt;Node6</title>
<path fill="none" stroke="#9a32cd" stroke-dasharray="5,2" d="M1768.07,-437.374C1743.14,-376.378 1655.78,-186.936 1511,-126.5 1435.19,-94.8545 837.073,-98.3628 772,-148.5 700.174,-203.84 693.027,-328.815 692.487,-364.698"/>
<polygon fill="#9a32cd" stroke="#9a32cd" points="1764.92,-438.93 1771.89,-446.916 1771.42,-436.331 1764.92,-438.93"/>
<text text-anchor="middle" x="1288.5" y="-112.5" font-family="Helvetica,sans-Serif" font-size="10.00"> mGodRaysManager</text>
</g>
<!-- Node30&#45;&gt;Node33 -->
<g id="edge55" class="edge"><title>Node30&#45;&gt;Node33</title>
<path fill="none" stroke="#9a32cd" stroke-dasharray="5,2" d="M1852.38,-447.309C1882.98,-443.475 1918.7,-438.897 1951,-434.5 1956.74,-433.719 1962.69,-432.889 1968.66,-432.045"/>
<polygon fill="#9a32cd" stroke="#9a32cd" points="1851.7,-443.867 1842.21,-448.58 1852.57,-450.813 1851.7,-443.867"/>
<text text-anchor="middle" x="1905.5" y="-449.5" font-family="Helvetica,sans-Serif" font-size="10.00"> mGodRaysManager</text>
</g>
<!-- Node31&#45;&gt;Node30 -->
<g id="edge49" class="edge"><title>Node31&#45;&gt;Node30</title>
<path fill="none" stroke="#9a32cd" stroke-dasharray="5,2" d="M1603.41,-836.934C1614.11,-827.13 1627.42,-814.182 1638,-801.5 1666.11,-767.801 1674.02,-759.064 1693,-719.5 1737.92,-625.878 1765.97,-502.004 1773.47,-466.433"/>
<polygon fill="#9a32cd" stroke="#9a32cd" points="1600.92,-834.469 1595.83,-843.761 1605.6,-839.671 1600.92,-834.469"/>
<text text-anchor="middle" x="1674.5" y="-782.5" font-family="Helvetica,sans-Serif" font-size="10.00"> mPerlin</text>
</g>
<!-- Node32 -->
<g id="node31" class="node"><title>Node32</title>
<g id="a_node31"><a xlink:href="../../d5/d28/struct_hydrax_1_1_noise_1_1_perlin_1_1_options.html" target="_top" xlink:title="Hydrax::Noise::Perlin\l::Options">
<polygon fill="white" stroke="black" points="1234,-871.5 1234,-901.5 1343,-901.5 1343,-871.5 1234,-871.5"/>
<text text-anchor="start" x="1242" y="-889.5" font-family="Helvetica,sans-Serif" font-size="10.00">Hydrax::Noise::Perlin</text>
<text text-anchor="middle" x="1288.5" y="-878.5" font-family="Helvetica,sans-Serif" font-size="10.00">::Options</text>
</a>
</g>
</g>
<!-- Node32&#45;&gt;Node31 -->
<g id="edge51" class="edge"><title>Node32&#45;&gt;Node31</title>
<path fill="none" stroke="#9a32cd" stroke-dasharray="5,2" d="M1353.43,-879.3C1405.82,-873.399 1479.15,-865.14 1528.6,-859.57"/>
<polygon fill="#9a32cd" stroke="#9a32cd" points="1352.79,-875.85 1343.24,-880.447 1353.57,-882.806 1352.79,-875.85"/>
<text text-anchor="middle" x="1449" y="-878.5" font-family="Helvetica,sans-Serif" font-size="10.00"> mOptions</text>
</g>
<!-- Node33&#45;&gt;Node30 -->
<g id="edge53" class="edge"><title>Node33&#45;&gt;Node30</title>
<path fill="none" stroke="#9a32cd" stroke-dasharray="5,2" d="M1958.44,-416.852C1927.67,-416.106 1891.87,-417.267 1860,-423.5 1836.84,-428.03 1811.89,-438.933 1795.57,-446.973"/>
<polygon fill="#9a32cd" stroke="#9a32cd" points="1958.56,-420.357 1968.66,-417.173 1958.78,-413.36 1958.56,-420.357"/>
<text text-anchor="middle" x="1905.5" y="-426.5" font-family="Helvetica,sans-Serif" font-size="10.00"> mDepthMapListener</text>
</g>
<!-- Node34&#45;&gt;Node6 -->
<g id="edge57" class="edge"><title>Node34&#45;&gt;Node6</title>
<path fill="none" stroke="#9a32cd" stroke-dasharray="5,2" d="M901.073,-318.556C892.067,-320.835 882.742,-323.22 874,-325.5 822.837,-338.843 763.745,-354.921 727.248,-364.929"/>
<polygon fill="#9a32cd" stroke="#9a32cd" points="902.218,-321.877 911.059,-316.039 900.506,-315.089 902.218,-321.877"/>
<text text-anchor="middle" x="814" y="-355.5" font-family="Helvetica,sans-Serif" font-size="10.00"> mTextureManager</text>
</g>
</g>
</svg>
