<?xml version="1.0" encoding="UTF-8" standalone="no"?>
<!DOCTYPE svg PUBLIC "-//W3C//DTD SVG 1.1//EN"
 "http://www.w3.org/Graphics/SVG/1.1/DTD/svg11.dtd">
<!-- Generated by graphviz version 2.38.0 (20140413.2041)
 -->
<!-- Title: ApplySizeFullWithConstraint Pages: 1 -->
<svg width="240pt" height="66pt"
 viewBox="0.00 0.00 240.00 66.00" xmlns="http://www.w3.org/2000/svg" xmlns:xlink="http://www.w3.org/1999/xlink">
<g id="graph0" class="graph" transform="scale(1 1) rotate(0) translate(4 62)">
<title>ApplySizeFullWithConstraint</title>
<polygon fill="white" stroke="none" points="-4,4 -4,-62 236,-62 236,4 -4,4"/>
<!-- Node332 -->
<g id="node1" class="node"><title>Node332</title>
<polygon fill="#bfbfbf" stroke="black" points="0,-19.5 0,-38.5 141,-38.5 141,-19.5 0,-19.5"/>
<text text-anchor="middle" x="70.5" y="-26.5" font-family="Helvetica,sans-Serif" font-size="10.00">ApplySizeFullWithConstraint</text>
</g>
<!-- Node333 -->
<g id="node2" class="node"><title>Node333</title>
<g id="a_node2"><a xlink:href="../../d1/da2/imgui__internal_8h.html#a0025e40e8a0c14fa07c9081cc70b857a" target="_top" xlink:title="ImClamp">
<polygon fill="white" stroke="black" points="177,-38.5 177,-57.5 232,-57.5 232,-38.5 177,-38.5"/>
<text text-anchor="middle" x="204.5" y="-45.5" font-family="Helvetica,sans-Serif" font-size="10.00">ImClamp</text>
</a>
</g>
</g>
<!-- Node332&#45;&gt;Node333 -->
<g id="edge1" class="edge"><title>Node332&#45;&gt;Node333</title>
<path fill="none" stroke="midnightblue" d="M137.887,-38.5557C147.854,-39.9903 157.809,-41.4233 166.843,-42.7237"/>
<polygon fill="midnightblue" stroke="midnightblue" points="166.575,-46.221 176.971,-44.1815 167.572,-39.2924 166.575,-46.221"/>
</g>
<!-- Node334 -->
<g id="node3" class="node"><title>Node334</title>
<g id="a_node3"><a xlink:href="../../d1/da2/imgui__internal_8h.html#a6fb8dd1bd2fa0e1c6065dc7123cb7f3e" target="_top" xlink:title="ImMax">
<polygon fill="white" stroke="black" points="181.5,-0.5 181.5,-19.5 227.5,-19.5 227.5,-0.5 181.5,-0.5"/>
<text text-anchor="middle" x="204.5" y="-7.5" font-family="Helvetica,sans-Serif" font-size="10.00">ImMax</text>
</a>
</g>
</g>
<!-- Node332&#45;&gt;Node334 -->
<g id="edge2" class="edge"><title>Node332&#45;&gt;Node334</title>
<path fill="none" stroke="midnightblue" d="M137.887,-19.4443C149.513,-17.7709 161.123,-16.0997 171.274,-14.6385"/>
<polygon fill="midnightblue" stroke="midnightblue" points="171.865,-18.0897 181.264,-13.2006 170.868,-11.1611 171.865,-18.0897"/>
</g>
</g>
</svg>
