<?xml version="1.0" encoding="UTF-8" standalone="no"?>
<!DOCTYPE svg PUBLIC "-//W3C//DTD SVG 1.1//EN"
 "http://www.w3.org/Graphics/SVG/1.1/DTD/svg11.dtd">
<!-- Generated by graphviz version 2.38.0 (20140413.2041)
 -->
<!-- Title: SaveIniSettingsToDisk Pages: 1 -->
<!--zoomable 110 -->
<svg id="main" version="1.1" xmlns="http://www.w3.org/2000/svg" xmlns:xlink="http://www.w3.org/1999/xlink" xml:space="preserve" onload="init(evt)">
<style type="text/css"><![CDATA[
.edge:hover path { stroke: red; }
.edge:hover polygon { stroke: red; fill: red; }
]]></style>
<script type="text/javascript"><![CDATA[
var edges = document.getElementsByTagName('g');
if (edges && edges.length) {
  for (var i=0;i<edges.length;i++) {
    if (edges[i].id.substr(0,4)=='edge') {
      edges[i].setAttribute('class','edge');
    }
  }
}
]]></script>
        <defs>
                <circle id="rim" cx="0" cy="0" r="7"/>
                <circle id="rim2" cx="0" cy="0" r="3.5"/>
                <g id="zoomPlus">
                        <use xlink:href="#rim" fill="#404040">
                                <set attributeName="fill" to="#808080" begin="zoomplus.mouseover" end="zoomplus.mouseout"/>
                        </use>
                        <path d="M-4,0h8M0,-4v8" fill="none" stroke="white" stroke-width="1.5" pointer-events="none"/>
                </g>
                <g id="zoomMin">
                        <use xlink:href="#rim" fill="#404040">
                                <set attributeName="fill" to="#808080" begin="zoomminus.mouseover" end="zoomminus.mouseout"/>
                        </use>
                        <path d="M-4,0h8" fill="none" stroke="white" stroke-width="1.5" pointer-events="none"/>
                </g>
                <g id="dirArrow">
                        <path fill="none" stroke="white" stroke-width="1.5" d="M0,-3.0v7 M-2.5,-0.5L0,-3.0L2.5,-0.5"/>
                </g>
               <g id="resetDef">
                       <use xlink:href="#rim2" fill="#404040">
                               <set attributeName="fill" to="#808080" begin="reset.mouseover" end="reset.mouseout"/>
                       </use>
               </g>
        </defs>

<script type="text/javascript">
var viewWidth = 946;
var viewHeight = 110;
var sectionId = 'dynsection-95';
</script>
<script xlink:href="../../svgpan.js"/>
<svg id="graph" class="graph">
<g id="viewport">
<title>SaveIniSettingsToDisk</title>
<polygon fill="white" stroke="none" points="-4,4 -4,-106 942,-106 942,4 -4,4"/>
<!-- Node10399 -->
<g id="node1" class="node"><title>Node10399</title>
<polygon fill="#bfbfbf" stroke="black" points="0,-19.5 0,-38.5 113,-38.5 113,-19.5 0,-19.5"/>
<text text-anchor="middle" x="56.5" y="-26.5" font-family="Helvetica,sans-Serif" font-size="10.00">SaveIniSettingsToDisk</text>
</g>
<!-- Node10400 -->
<g id="node2" class="node"><title>Node10400</title>
<g id="a_node2"><a xlink:href="../../df/d13/namespace_im_gui.html#ab3f1fc018f903b7ad79fd10663375774" target="_top" xlink:title="ImGui::NewFrame">
<polygon fill="white" stroke="black" points="149,-38.5 149,-57.5 244,-57.5 244,-38.5 149,-38.5"/>
<text text-anchor="middle" x="196.5" y="-45.5" font-family="Helvetica,sans-Serif" font-size="10.00">ImGui::NewFrame</text>
</a>
</g>
</g>
<!-- Node10399&#45;&gt;Node10400 -->
<g id="edge1" class="edge"><title>Node10399&#45;&gt;Node10400</title>
<path fill="none" stroke="midnightblue" d="M123.3,-38.0594C131.93,-39.2477 140.628,-40.4451 148.85,-41.5772"/>
<polygon fill="midnightblue" stroke="midnightblue" points="123.616,-34.57 113.232,-36.6733 122.661,-41.5046 123.616,-34.57"/>
</g>
<!-- Node10408 -->
<g id="node10" class="node"><title>Node10408</title>
<g id="a_node10"><a xlink:href="../../df/d13/namespace_im_gui.html#aeba34069558d4fbcf734a9c92ce3b773" target="_top" xlink:title="ImGui::Shutdown">
<polygon fill="white" stroke="black" points="151,-0.5 151,-19.5 242,-19.5 242,-0.5 151,-0.5"/>
<text text-anchor="middle" x="196.5" y="-7.5" font-family="Helvetica,sans-Serif" font-size="10.00">ImGui::Shutdown</text>
</a>
</g>
</g>
<!-- Node10399&#45;&gt;Node10408 -->
<g id="edge9" class="edge"><title>Node10399&#45;&gt;Node10408</title>
<path fill="none" stroke="midnightblue" d="M123.222,-19.9513C132.486,-18.6759 141.829,-17.3895 150.581,-16.1846"/>
<polygon fill="midnightblue" stroke="midnightblue" points="122.661,-16.4954 113.232,-21.3267 123.616,-23.43 122.661,-16.4954"/>
</g>
<!-- Node10401 -->
<g id="node3" class="node"><title>Node10401</title>
<g id="a_node3"><a xlink:href="../../d5/d56/class_ogre_im_gui.html#a6c64d0f1f8c3b156e8a5cbe02ccb93eb" target="_top" xlink:title="OgreImGui::NewFrame">
<polygon fill="white" stroke="black" points="280,-38.5 280,-57.5 396,-57.5 396,-38.5 280,-38.5"/>
<text text-anchor="middle" x="338" y="-45.5" font-family="Helvetica,sans-Serif" font-size="10.00">OgreImGui::NewFrame</text>
</a>
</g>
</g>
<!-- Node10400&#45;&gt;Node10401 -->
<g id="edge2" class="edge"><title>Node10400&#45;&gt;Node10401</title>
<path fill="none" stroke="midnightblue" d="M254.42,-48C262.816,-48 271.469,-48 279.87,-48"/>
<polygon fill="midnightblue" stroke="midnightblue" points="254.34,-44.5001 244.34,-48 254.34,-51.5001 254.34,-44.5001"/>
</g>
<!-- Node10402 -->
<g id="node4" class="node"><title>Node10402</title>
<g id="a_node4"><a xlink:href="../../d8/d11/class_ro_r_1_1_g_u_i_manager.html#a19dfcebef9a9cbb45429c6cc218a8759" target="_top" xlink:title="RoR::GUIManager::NewImGui\lFrame">
<polygon fill="white" stroke="black" points="432,-55 432,-85 578,-85 578,-55 432,-55"/>
<text text-anchor="start" x="440" y="-73" font-family="Helvetica,sans-Serif" font-size="10.00">RoR::GUIManager::NewImGui</text>
<text text-anchor="middle" x="505" y="-62" font-family="Helvetica,sans-Serif" font-size="10.00">Frame</text>
</a>
</g>
</g>
<!-- Node10401&#45;&gt;Node10402 -->
<g id="edge3" class="edge"><title>Node10401&#45;&gt;Node10402</title>
<path fill="none" stroke="midnightblue" d="M406.33,-56.9773C414.704,-58.0939 423.295,-59.2393 431.74,-60.3654"/>
<polygon fill="midnightblue" stroke="midnightblue" points="406.621,-53.4852 396.246,-55.6328 405.696,-60.4238 406.621,-53.4852"/>
</g>
<!-- Node10407 -->
<g id="node9" class="node"><title>Node10407</title>
<g id="a_node9"><a xlink:href="../../d5/d56/class_ogre_im_gui.html#ad19fd285bb4aaa44039201a20c39a75f" target="_top" xlink:title="OgreImGui::OgreImGui">
<polygon fill="white" stroke="black" points="447,-16.5 447,-35.5 563,-35.5 563,-16.5 447,-16.5"/>
<text text-anchor="middle" x="505" y="-23.5" font-family="Helvetica,sans-Serif" font-size="10.00">OgreImGui::OgreImGui</text>
</a>
</g>
</g>
<!-- Node10401&#45;&gt;Node10407 -->
<g id="edge8" class="edge"><title>Node10401&#45;&gt;Node10407</title>
<path fill="none" stroke="midnightblue" d="M406.386,-39.0152C419.819,-37.2241 433.806,-35.3592 446.855,-33.6193"/>
<polygon fill="midnightblue" stroke="midnightblue" points="405.696,-35.5762 396.246,-40.3672 406.621,-42.5148 405.696,-35.5762"/>
</g>
<!-- Node10403 -->
<g id="node5" class="node"><title>Node10403</title>
<g id="a_node5"><a xlink:href="../../dd/dbe/class_ro_r_frame_listener.html#acdda0026f9324c3b7f48568624e07115" target="_top" xlink:title="RoRFrameListener::frameStarted">
<polygon fill="white" stroke="black" points="614,-82.5 614,-101.5 773,-101.5 773,-82.5 614,-82.5"/>
<text text-anchor="middle" x="693.5" y="-89.5" font-family="Helvetica,sans-Serif" font-size="10.00">RoRFrameListener::frameStarted</text>
</a>
</g>
</g>
<!-- Node10402&#45;&gt;Node10403 -->
<g id="edge4" class="edge"><title>Node10402&#45;&gt;Node10403</title>
<path fill="none" stroke="midnightblue" d="M588.059,-79.6798C596.602,-80.6876 605.272,-81.7104 613.777,-82.7136"/>
<polygon fill="midnightblue" stroke="midnightblue" points="588.447,-76.2015 578.106,-78.5058 587.627,-83.1533 588.447,-76.2015"/>
</g>
<!-- Node10404 -->
<g id="node6" class="node"><title>Node10404</title>
<g id="a_node6"><a xlink:href="../../d4/d14/class_ro_r_1_1_main_menu.html#a582e508f1bb1578d1124260de49e438b" target="_top" xlink:title="RoR::MainMenu::EnterMain\lMenuLoop">
<polygon fill="white" stroke="black" points="625,-33 625,-63 762,-63 762,-33 625,-33"/>
<text text-anchor="start" x="633" y="-51" font-family="Helvetica,sans-Serif" font-size="10.00">RoR::MainMenu::EnterMain</text>
<text text-anchor="middle" x="693.5" y="-40" font-family="Helvetica,sans-Serif" font-size="10.00">MenuLoop</text>
</a>
</g>
</g>
<!-- Node10402&#45;&gt;Node10404 -->
<g id="edge5" class="edge"><title>Node10402&#45;&gt;Node10404</title>
<path fill="none" stroke="midnightblue" d="M588.293,-60.2925C600.515,-58.8508 612.991,-57.3791 624.866,-55.9782"/>
<polygon fill="midnightblue" stroke="midnightblue" points="587.627,-56.8467 578.106,-61.4942 588.447,-63.7985 587.627,-56.8467"/>
</g>
<!-- Node10405 -->
<g id="node7" class="node"><title>Node10405</title>
<g id="a_node7"><a xlink:href="../../df/d0a/main_8cpp.html#a0ddf1224851353fc92bfbff6f499fa97" target="_top" xlink:title="main">
<polygon fill="white" stroke="black" points="809,-38.5 809,-57.5 847,-57.5 847,-38.5 809,-38.5"/>
<text text-anchor="middle" x="828" y="-45.5" font-family="Helvetica,sans-Serif" font-size="10.00">main</text>
</a>
</g>
</g>
<!-- Node10404&#45;&gt;Node10405 -->
<g id="edge6" class="edge"><title>Node10404&#45;&gt;Node10405</title>
<path fill="none" stroke="midnightblue" d="M772.325,-48C785.972,-48 798.944,-48 808.824,-48"/>
<polygon fill="midnightblue" stroke="midnightblue" points="772.303,-44.5001 762.303,-48 772.303,-51.5001 772.303,-44.5001"/>
</g>
<!-- Node10406 -->
<g id="node8" class="node"><title>Node10406</title>
<g id="a_node8"><a xlink:href="../../df/d0a/main_8cpp.html#a2922bc5d5c2d77a3020cfbf9df12aab0" target="_top" xlink:title="WinMain">
<polygon fill="white" stroke="black" points="883,-38.5 883,-57.5 938,-57.5 938,-38.5 883,-38.5"/>
<text text-anchor="middle" x="910.5" y="-45.5" font-family="Helvetica,sans-Serif" font-size="10.00">WinMain</text>
</a>
</g>
</g>
<!-- Node10405&#45;&gt;Node10406 -->
<g id="edge7" class="edge"><title>Node10405&#45;&gt;Node10406</title>
<path fill="none" stroke="midnightblue" d="M857.519,-48C865.73,-48 874.653,-48 882.752,-48"/>
<polygon fill="midnightblue" stroke="midnightblue" points="857.267,-44.5001 847.267,-48 857.267,-51.5001 857.267,-44.5001"/>
</g>
</g>
</svg>
        <g id="navigator" transform="translate(0 0)" fill="#404254">
                <rect fill="#f2f5e9" fill-opacity="0.5" stroke="#606060" stroke-width=".5" x="0" y="0" width="60" height="60"/>
                <use id="zoomplus" xlink:href="#zoomPlus" x="17" y="9" onmousedown="handleZoom(evt,'in')"/>
                <use id="zoomminus" xlink:href="#zoomMin" x="42" y="9" onmousedown="handleZoom(evt,'out')"/>
                <use id="reset" xlink:href="#resetDef" x="30" y="36" onmousedown="handleReset()"/>
                <g id="arrowUp" xlink:href="#dirArrow" transform="translate(30 24)" onmousedown="handlePan(0,-1)">
                  <use xlink:href="#rim" fill="#404040">
                        <set attributeName="fill" to="#808080" begin="arrowUp.mouseover" end="arrowUp.mouseout"/>
                  </use>
                  <path fill="none" stroke="white" stroke-width="1.5" d="M0,-3.0v7 M-2.5,-0.5L0,-3.0L2.5,-0.5"/>
                </g>
                <g id="arrowRight" xlink:href="#dirArrow" transform="rotate(90) translate(36 -43)" onmousedown="handlePan(1,0)">
                  <use xlink:href="#rim" fill="#404040">
                        <set attributeName="fill" to="#808080" begin="arrowRight.mouseover" end="arrowRight.mouseout"/>
                  </use>
                  <path fill="none" stroke="white" stroke-width="1.5" d="M0,-3.0v7 M-2.5,-0.5L0,-3.0L2.5,-0.5"/>
                </g>
                <g id="arrowDown" xlink:href="#dirArrow" transform="rotate(180) translate(-30 -48)" onmousedown="handlePan(0,1)">
                  <use xlink:href="#rim" fill="#404040">
                        <set attributeName="fill" to="#808080" begin="arrowDown.mouseover" end="arrowDown.mouseout"/>
                  </use>
                  <path fill="none" stroke="white" stroke-width="1.5" d="M0,-3.0v7 M-2.5,-0.5L0,-3.0L2.5,-0.5"/>
                </g>
                <g id="arrowLeft" xlink:href="#dirArrow" transform="rotate(270) translate(-36 17)" onmousedown="handlePan(-1,0)">
                  <use xlink:href="#rim" fill="#404040">
                        <set attributeName="fill" to="#808080" begin="arrowLeft.mouseover" end="arrowLeft.mouseout"/>
                  </use>
                  <path fill="none" stroke="white" stroke-width="1.5" d="M0,-3.0v7 M-2.5,-0.5L0,-3.0L2.5,-0.5"/>
                </g>
        </g>
        <svg viewBox="0 0 15 15" width="100%" height="30px" preserveAspectRatio="xMaxYMin meet">
         <g id="arrow_out" transform="scale(0.3 0.3)">
          <a xlink:href="imgui_8cpp_ac0fd9a5a4fa22a676a8e3726bf3b058f_icgraph_org.svg" target="_base">
           <rect id="button" ry="5" rx="5" y="6" x="6" height="38" width="38"
                fill="#f2f5e9" fill-opacity="0.5" stroke="#606060" stroke-width="1.0"/>
           <path id="arrow"
             d="M 11.500037,31.436501 C 11.940474,20.09759 22.043105,11.32322 32.158766,21.979434 L 37.068811,17.246167 C 37.068811,17.246167 37.088388,32 37.088388,32 L 22.160133,31.978069 C 22.160133,31.978069 26.997745,27.140456 26.997745,27.140456 C 18.528582,18.264221 13.291696,25.230495 11.500037,31.436501 z"
             style="fill:#404040;"/>
          </a>
         </g>
        </svg>
</svg>
