<?xml version="1.0" encoding="UTF-8" standalone="no"?>
<!DOCTYPE svg PUBLIC "-//W3C//DTD SVG 1.1//EN"
 "http://www.w3.org/Graphics/SVG/1.1/DTD/svg11.dtd">
<!-- Generated by graphviz version 2.38.0 (20140413.2041)
 -->
<!-- Title: ApplySizeFullWithConstraint Pages: 1 -->
<svg width="429pt" height="88pt"
 viewBox="0.00 0.00 429.00 88.00" xmlns="http://www.w3.org/2000/svg" xmlns:xlink="http://www.w3.org/1999/xlink">
<g id="graph0" class="graph" transform="scale(1 1) rotate(0) translate(4 84)">
<title>ApplySizeFullWithConstraint</title>
<polygon fill="white" stroke="none" points="-4,4 -4,-84 425,-84 425,4 -4,4"/>
<!-- Node335 -->
<g id="node1" class="node"><title>Node335</title>
<polygon fill="#bfbfbf" stroke="black" points="0,-30 0,-49 141,-49 141,-30 0,-30"/>
<text text-anchor="middle" x="70.5" y="-37" font-family="Helvetica,sans-Serif" font-size="10.00">ApplySizeFullWithConstraint</text>
</g>
<!-- Node336 -->
<g id="node2" class="node"><title>Node336</title>
<g id="a_node2"><a xlink:href="../../df/d13/namespace_im_gui.html#a030e4ac6eed5b4b960a3fef538fcbad0" target="_top" xlink:title="ImGui::Begin">
<polygon fill="white" stroke="black" points="177,-30 177,-49 250,-49 250,-30 177,-30"/>
<text text-anchor="middle" x="213.5" y="-37" font-family="Helvetica,sans-Serif" font-size="10.00">ImGui::Begin</text>
</a>
</g>
</g>
<!-- Node335&#45;&gt;Node336 -->
<g id="edge1" class="edge"><title>Node335&#45;&gt;Node336</title>
<path fill="none" stroke="midnightblue" d="M151.281,-39.5C160.185,-39.5 168.888,-39.5 176.809,-39.5"/>
<polygon fill="midnightblue" stroke="midnightblue" points="151.174,-36.0001 141.174,-39.5 151.174,-43.0001 151.174,-36.0001"/>
</g>
<!-- Node337 -->
<g id="node3" class="node"><title>Node337</title>
<g id="a_node3"><a xlink:href="../../df/d0a/struct_im_gui_list_clipper.html#a0dc870fa31a56d3ace7625450f42937a" target="_top" xlink:title="ImGuiListClipper::ImGuiList\lClipper">
<polygon fill="white" stroke="black" points="286,-49.5 286,-79.5 421,-79.5 421,-49.5 286,-49.5"/>
<text text-anchor="start" x="294" y="-67.5" font-family="Helvetica,sans-Serif" font-size="10.00">ImGuiListClipper::ImGuiList</text>
<text text-anchor="middle" x="353.5" y="-56.5" font-family="Helvetica,sans-Serif" font-size="10.00">Clipper</text>
</a>
</g>
</g>
<!-- Node336&#45;&gt;Node337 -->
<g id="edge2" class="edge"><title>Node336&#45;&gt;Node337</title>
<path fill="none" stroke="midnightblue" d="M259.933,-47.7307C268.29,-49.2446 277.171,-50.8535 285.998,-52.4525"/>
<polygon fill="midnightblue" stroke="midnightblue" points="260.502,-44.2768 250.038,-45.9381 259.254,-51.1647 260.502,-44.2768"/>
</g>
<!-- Node338 -->
<g id="node4" class="node"><title>Node338</title>
<g id="a_node4"><a xlink:href="../../df/d0a/struct_im_gui_list_clipper.html#ada915f0ae4446df73c1a2372bde65293" target="_top" xlink:title="ImGuiListClipper::\l~ImGuiListClipper">
<polygon fill="white" stroke="black" points="306.5,-0.5 306.5,-30.5 400.5,-30.5 400.5,-0.5 306.5,-0.5"/>
<text text-anchor="start" x="314.5" y="-18.5" font-family="Helvetica,sans-Serif" font-size="10.00">ImGuiListClipper::</text>
<text text-anchor="middle" x="353.5" y="-7.5" font-family="Helvetica,sans-Serif" font-size="10.00">~ImGuiListClipper</text>
</a>
</g>
</g>
<!-- Node336&#45;&gt;Node338 -->
<g id="edge3" class="edge"><title>Node336&#45;&gt;Node338</title>
<path fill="none" stroke="midnightblue" d="M260.041,-31.5798C274.929,-28.9906 291.471,-26.1138 306.4,-23.5175"/>
<polygon fill="midnightblue" stroke="midnightblue" points="259.291,-28.1577 250.038,-33.3194 260.49,-35.0542 259.291,-28.1577"/>
</g>
</g>
</svg>
