<?xml version="1.0" encoding="UTF-8" standalone="no"?>
<!DOCTYPE svg PUBLIC "-//W3C//DTD SVG 1.1//EN"
 "http://www.w3.org/Graphics/SVG/1.1/DTD/svg11.dtd">
<!-- Generated by graphviz version 2.38.0 (20140413.2041)
 -->
<!-- Title: LoadIniSettingsFromDisk Pages: 1 -->
<svg width="531pt" height="218pt"
 viewBox="0.00 0.00 531.00 218.00" xmlns="http://www.w3.org/2000/svg" xmlns:xlink="http://www.w3.org/1999/xlink">
<g id="graph0" class="graph" transform="scale(1 1) rotate(0) translate(4 214)">
<title>LoadIniSettingsFromDisk</title>
<polygon fill="white" stroke="none" points="-4,4 -4,-214 527,-214 527,4 -4,4"/>
<!-- Node8784 -->
<g id="node1" class="node"><title>Node8784</title>
<polygon fill="#bfbfbf" stroke="black" points="0,-95.5 0,-114.5 125,-114.5 125,-95.5 0,-95.5"/>
<text text-anchor="middle" x="62.5" y="-102.5" font-family="Helvetica,sans-Serif" font-size="10.00">LoadIniSettingsFromDisk</text>
</g>
<!-- Node8785 -->
<g id="node2" class="node"><title>Node8785</title>
<g id="a_node2"><a xlink:href="../../da/d72/imgui_8cpp.html#a9dd28ad50861880f29fe7b40c33c3591" target="_top" xlink:title="ImFileLoadToMemory">
<polygon fill="white" stroke="black" points="161,-190.5 161,-209.5 271,-209.5 271,-190.5 161,-190.5"/>
<text text-anchor="middle" x="216" y="-197.5" font-family="Helvetica,sans-Serif" font-size="10.00">ImFileLoadToMemory</text>
</a>
</g>
</g>
<!-- Node8784&#45;&gt;Node8785 -->
<g id="edge1" class="edge"><title>Node8784&#45;&gt;Node8785</title>
<path fill="none" stroke="midnightblue" d="M73.526,-114.645C90.3742,-130.41 125.972,-161.854 161,-181 164.728,-183.038 168.717,-184.925 172.775,-186.654"/>
<polygon fill="midnightblue" stroke="midnightblue" points="171.695,-189.991 182.282,-190.402 174.263,-183.479 171.695,-189.991"/>
</g>
<!-- Node8786 -->
<g id="node3" class="node"><title>Node8786</title>
<g id="a_node3"><a xlink:href="../../da/d72/imgui_8cpp.html#a8ecb7a593ac00a93a0332beb2a9be9e2" target="_top" xlink:title="ImFormatString">
<polygon fill="white" stroke="black" points="174.5,-152.5 174.5,-171.5 257.5,-171.5 257.5,-152.5 174.5,-152.5"/>
<text text-anchor="middle" x="216" y="-159.5" font-family="Helvetica,sans-Serif" font-size="10.00">ImFormatString</text>
</a>
</g>
</g>
<!-- Node8784&#45;&gt;Node8786 -->
<g id="edge2" class="edge"><title>Node8784&#45;&gt;Node8786</title>
<path fill="none" stroke="midnightblue" d="M87.456,-114.593C107.141,-122.414 135.789,-133.655 161,-143 166.3,-144.965 171.91,-146.994 177.432,-148.963"/>
<polygon fill="midnightblue" stroke="midnightblue" points="176.593,-152.378 187.187,-152.413 178.927,-145.779 176.593,-152.378"/>
</g>
<!-- Node8787 -->
<g id="node4" class="node"><title>Node8787</title>
<g id="a_node4"><a xlink:href="../../da/d72/imgui_8cpp.html#a01f05000cacef4d55048cf52015f5913" target="_top" xlink:title="FindWindowSettings">
<polygon fill="white" stroke="black" points="163,-114.5 163,-133.5 269,-133.5 269,-114.5 163,-114.5"/>
<text text-anchor="middle" x="216" y="-121.5" font-family="Helvetica,sans-Serif" font-size="10.00">FindWindowSettings</text>
</a>
</g>
</g>
<!-- Node8784&#45;&gt;Node8787 -->
<g id="edge3" class="edge"><title>Node8784&#45;&gt;Node8787</title>
<path fill="none" stroke="midnightblue" d="M125.121,-112.728C134.168,-113.863 143.494,-115.032 152.557,-116.169"/>
<polygon fill="midnightblue" stroke="midnightblue" points="152.292,-119.663 162.65,-117.435 153.163,-112.717 152.292,-119.663"/>
</g>
<!-- Node8789 -->
<g id="node6" class="node"><title>Node8789</title>
<g id="a_node6"><a xlink:href="../../da/d72/imgui_8cpp.html#a4542f2ec58848f2825fe22c6ed8d2244" target="_top" xlink:title="AddWindowSettings">
<polygon fill="white" stroke="black" points="164,-76.5 164,-95.5 268,-95.5 268,-76.5 164,-76.5"/>
<text text-anchor="middle" x="216" y="-83.5" font-family="Helvetica,sans-Serif" font-size="10.00">AddWindowSettings</text>
</a>
</g>
</g>
<!-- Node8784&#45;&gt;Node8789 -->
<g id="edge5" class="edge"><title>Node8784&#45;&gt;Node8789</title>
<path fill="none" stroke="midnightblue" d="M125.121,-97.272C134.506,-96.095 144.191,-94.8803 153.572,-93.7038"/>
<polygon fill="midnightblue" stroke="midnightblue" points="154.117,-97.163 163.603,-92.4458 153.245,-90.2175 154.117,-97.163"/>
</g>
<!-- Node8794 -->
<g id="node11" class="node"><title>Node8794</title>
<g id="a_node11"><a xlink:href="../../d1/da2/imgui__internal_8h.html#a6fb8dd1bd2fa0e1c6065dc7123cb7f3e" target="_top" xlink:title="ImMax">
<polygon fill="white" stroke="black" points="193,-38.5 193,-57.5 239,-57.5 239,-38.5 193,-38.5"/>
<text text-anchor="middle" x="216" y="-45.5" font-family="Helvetica,sans-Serif" font-size="10.00">ImMax</text>
</a>
</g>
</g>
<!-- Node8784&#45;&gt;Node8794 -->
<g id="edge11" class="edge"><title>Node8784&#45;&gt;Node8794</title>
<path fill="none" stroke="midnightblue" d="M87.456,-95.4067C107.141,-87.5858 135.789,-76.3453 161,-67 168.175,-64.3402 175.92,-61.5615 183.242,-58.9761"/>
<polygon fill="midnightblue" stroke="midnightblue" points="184.592,-62.2115 192.871,-55.5996 182.276,-55.6058 184.592,-62.2115"/>
</g>
<!-- Node8795 -->
<g id="node12" class="node"><title>Node8795</title>
<g id="a_node12"><a xlink:href="../../df/d13/namespace_im_gui.html#a269ec695c6e722ec3da85dae37f0675d" target="_top" xlink:title="ImGui::MemFree">
<polygon fill="white" stroke="black" points="171.5,-0.5 171.5,-19.5 260.5,-19.5 260.5,-0.5 171.5,-0.5"/>
<text text-anchor="middle" x="216" y="-7.5" font-family="Helvetica,sans-Serif" font-size="10.00">ImGui::MemFree</text>
</a>
</g>
</g>
<!-- Node8784&#45;&gt;Node8795 -->
<g id="edge12" class="edge"><title>Node8784&#45;&gt;Node8795</title>
<path fill="none" stroke="midnightblue" d="M73.526,-95.3549C90.3742,-79.5903 125.972,-48.1459 161,-29 164.728,-26.9623 168.717,-25.0753 172.775,-23.3455"/>
<polygon fill="midnightblue" stroke="midnightblue" points="174.263,-26.5215 182.282,-19.5977 171.695,-20.0093 174.263,-26.5215"/>
</g>
<!-- Node8788 -->
<g id="node5" class="node"><title>Node8788</title>
<g id="a_node5"><a xlink:href="../../da/d72/imgui_8cpp.html#aa55e55e944172fc87494a342da489970" target="_top" xlink:title="ImHash">
<polygon fill="white" stroke="black" points="326,-114.5 326,-133.5 376,-133.5 376,-114.5 326,-114.5"/>
<text text-anchor="middle" x="351" y="-121.5" font-family="Helvetica,sans-Serif" font-size="10.00">ImHash</text>
</a>
</g>
</g>
<!-- Node8787&#45;&gt;Node8788 -->
<g id="edge4" class="edge"><title>Node8787&#45;&gt;Node8788</title>
<path fill="none" stroke="midnightblue" d="M269.183,-124C284.725,-124 301.363,-124 315.477,-124"/>
<polygon fill="midnightblue" stroke="midnightblue" points="315.719,-127.5 325.719,-124 315.719,-120.5 315.719,-127.5"/>
</g>
<!-- Node8789&#45;&gt;Node8788 -->
<g id="edge10" class="edge"><title>Node8789&#45;&gt;Node8788</title>
<path fill="none" stroke="midnightblue" d="M250.562,-95.589C270.574,-101.307 295.912,-108.546 316.001,-114.286"/>
<polygon fill="midnightblue" stroke="midnightblue" points="315.106,-117.67 325.683,-117.052 317.029,-110.94 315.106,-117.67"/>
</g>
<!-- Node8790 -->
<g id="node7" class="node"><title>Node8790</title>
<g id="a_node7"><a xlink:href="../../d9/de0/class_im_vector.html#ac371dd62e56ae486b1a5038cf07eee56" target="_top" xlink:title="ImVector::resize">
<polygon fill="white" stroke="black" points="307,-76.5 307,-95.5 395,-95.5 395,-76.5 307,-76.5"/>
<text text-anchor="middle" x="351" y="-83.5" font-family="Helvetica,sans-Serif" font-size="10.00">ImVector::resize</text>
</a>
</g>
</g>
<!-- Node8789&#45;&gt;Node8790 -->
<g id="edge6" class="edge"><title>Node8789&#45;&gt;Node8790</title>
<path fill="none" stroke="midnightblue" d="M268.041,-86C277.402,-86 287.195,-86 296.622,-86"/>
<polygon fill="midnightblue" stroke="midnightblue" points="296.669,-89.5001 306.669,-86 296.669,-82.5001 296.669,-89.5001"/>
</g>
<!-- Node8791 -->
<g id="node8" class="node"><title>Node8791</title>
<g id="a_node8"><a xlink:href="../../d9/de0/class_im_vector.html#a3e4424d3fca190894598a6575f9d2401" target="_top" xlink:title="ImVector::back">
<polygon fill="white" stroke="black" points="309.5,-38.5 309.5,-57.5 392.5,-57.5 392.5,-38.5 309.5,-38.5"/>
<text text-anchor="middle" x="351" y="-45.5" font-family="Helvetica,sans-Serif" font-size="10.00">ImVector::back</text>
</a>
</g>
</g>
<!-- Node8789&#45;&gt;Node8791 -->
<g id="edge7" class="edge"><title>Node8789&#45;&gt;Node8791</title>
<path fill="none" stroke="midnightblue" d="M250.562,-76.411C267.573,-71.5506 288.432,-65.5909 306.645,-60.3873"/>
<polygon fill="midnightblue" stroke="midnightblue" points="307.796,-63.6986 316.449,-57.5859 305.872,-56.9679 307.796,-63.6986"/>
</g>
<!-- Node8792 -->
<g id="node9" class="node"><title>Node8792</title>
<g id="a_node9"><a xlink:href="../../da/d72/imgui_8cpp.html#a079f29569de5779052f1fbf3dd283e0f" target="_top" xlink:title="ImStrdup">
<polygon fill="white" stroke="black" points="323,-0.5 323,-19.5 379,-19.5 379,-0.5 323,-0.5"/>
<text text-anchor="middle" x="351" y="-7.5" font-family="Helvetica,sans-Serif" font-size="10.00">ImStrdup</text>
</a>
</g>
</g>
<!-- Node8789&#45;&gt;Node8792 -->
<g id="edge8" class="edge"><title>Node8789&#45;&gt;Node8792</title>
<path fill="none" stroke="midnightblue" d="M251.852,-76.48C258.481,-73.9215 265.163,-70.7856 271,-67 290.519,-54.3407 287.988,-42.4082 307,-29 309.376,-27.3243 311.924,-25.747 314.549,-24.2732"/>
<polygon fill="midnightblue" stroke="midnightblue" points="316.299,-27.3102 323.637,-19.6684 313.135,-21.0659 316.299,-27.3102"/>
</g>
<!-- Node8793 -->
<g id="node10" class="node"><title>Node8793</title>
<g id="a_node10"><a xlink:href="../../df/d13/namespace_im_gui.html#a15efb2cac4a54b35489c5984ba1b661a" target="_top" xlink:title="ImGui::MemAlloc">
<polygon fill="white" stroke="black" points="431,-0.5 431,-19.5 523,-19.5 523,-0.5 431,-0.5"/>
<text text-anchor="middle" x="477" y="-7.5" font-family="Helvetica,sans-Serif" font-size="10.00">ImGui::MemAlloc</text>
</a>
</g>
</g>
<!-- Node8792&#45;&gt;Node8793 -->
<g id="edge9" class="edge"><title>Node8792&#45;&gt;Node8793</title>
<path fill="none" stroke="midnightblue" d="M379.212,-10C391.374,-10 406.177,-10 420.51,-10"/>
<polygon fill="midnightblue" stroke="midnightblue" points="420.819,-13.5001 430.819,-10 420.819,-6.5001 420.819,-13.5001"/>
</g>
</g>
</svg>
