<?xml version="1.0" encoding="UTF-8" standalone="no"?>
<!DOCTYPE svg PUBLIC "-//W3C//DTD SVG 1.1//EN"
 "http://www.w3.org/Graphics/SVG/1.1/DTD/svg11.dtd">
<!-- Generated by graphviz version 2.38.0 (20140413.2041)
 -->
<!-- Title: LogRenderedText Pages: 1 -->
<!--zoomable 104 -->
<svg id="main" version="1.1" xmlns="http://www.w3.org/2000/svg" xmlns:xlink="http://www.w3.org/1999/xlink" xml:space="preserve" onload="init(evt)">
<style type="text/css"><![CDATA[
.edge:hover path { stroke: red; }
.edge:hover polygon { stroke: red; fill: red; }
]]></style>
<script type="text/javascript"><![CDATA[
var edges = document.getElementsByTagName('g');
if (edges && edges.length) {
  for (var i=0;i<edges.length;i++) {
    if (edges[i].id.substr(0,4)=='edge') {
      edges[i].setAttribute('class','edge');
    }
  }
}
]]></script>
        <defs>
                <circle id="rim" cx="0" cy="0" r="7"/>
                <circle id="rim2" cx="0" cy="0" r="3.5"/>
                <g id="zoomPlus">
                        <use xlink:href="#rim" fill="#404040">
                                <set attributeName="fill" to="#808080" begin="zoomplus.mouseover" end="zoomplus.mouseout"/>
                        </use>
                        <path d="M-4,0h8M0,-4v8" fill="none" stroke="white" stroke-width="1.5" pointer-events="none"/>
                </g>
                <g id="zoomMin">
                        <use xlink:href="#rim" fill="#404040">
                                <set attributeName="fill" to="#808080" begin="zoomminus.mouseover" end="zoomminus.mouseout"/>
                        </use>
                        <path d="M-4,0h8" fill="none" stroke="white" stroke-width="1.5" pointer-events="none"/>
                </g>
                <g id="dirArrow">
                        <path fill="none" stroke="white" stroke-width="1.5" d="M0,-3.0v7 M-2.5,-0.5L0,-3.0L2.5,-0.5"/>
                </g>
               <g id="resetDef">
                       <use xlink:href="#rim2" fill="#404040">
                               <set attributeName="fill" to="#808080" begin="reset.mouseover" end="reset.mouseout"/>
                       </use>
               </g>
        </defs>

<script type="text/javascript">
var viewWidth = 577;
var viewHeight = 104;
var sectionId = 'dynsection-84';
</script>
<script xlink:href="../../svgpan.js"/>
<svg id="graph" class="graph">
<g id="viewport">
<title>LogRenderedText</title>
<polygon fill="white" stroke="none" points="-4,4 -4,-100 573,-100 573,4 -4,4"/>
<!-- Node8805 -->
<g id="node1" class="node"><title>Node8805</title>
<polygon fill="#bfbfbf" stroke="black" points="0,-38.5 0,-57.5 92,-57.5 92,-38.5 0,-38.5"/>
<text text-anchor="middle" x="46" y="-45.5" font-family="Helvetica,sans-Serif" font-size="10.00">LogRenderedText</text>
</g>
<!-- Node8806 -->
<g id="node2" class="node"><title>Node8806</title>
<g id="a_node2"><a xlink:href="../../df/d13/namespace_im_gui.html#a408f9ddac92f8629a7e273ced5f8c3aa" target="_top" xlink:title="ImGui::GetCurrentWindowRead">
<polygon fill="white" stroke="black" points="128,-76.5 128,-95.5 280,-95.5 280,-76.5 128,-76.5"/>
<text text-anchor="middle" x="204" y="-83.5" font-family="Helvetica,sans-Serif" font-size="10.00">ImGui::GetCurrentWindowRead</text>
</a>
</g>
</g>
<!-- Node8805&#45;&gt;Node8806 -->
<g id="edge1" class="edge"><title>Node8805&#45;&gt;Node8806</title>
<path fill="none" stroke="midnightblue" d="M86.3654,-57.589C106.951,-62.6035 132.34,-68.7881 154.169,-74.1053"/>
<polygon fill="midnightblue" stroke="midnightblue" points="153.373,-77.5137 163.918,-76.4799 155.03,-70.7126 153.373,-77.5137"/>
</g>
<!-- Node8807 -->
<g id="node3" class="node"><title>Node8807</title>
<g id="a_node3"><a xlink:href="../../df/d13/namespace_im_gui.html#a7671e1dbc803a31b06081b52a771d83f" target="_top" xlink:title="ImGui::FindRenderedTextEnd">
<polygon fill="white" stroke="black" points="132,-38.5 132,-57.5 276,-57.5 276,-38.5 132,-38.5"/>
<text text-anchor="middle" x="204" y="-45.5" font-family="Helvetica,sans-Serif" font-size="10.00">ImGui::FindRenderedTextEnd</text>
</a>
</g>
</g>
<!-- Node8805&#45;&gt;Node8807 -->
<g id="edge2" class="edge"><title>Node8805&#45;&gt;Node8807</title>
<path fill="none" stroke="midnightblue" d="M92.1217,-48C101.435,-48 111.514,-48 121.669,-48"/>
<polygon fill="midnightblue" stroke="midnightblue" points="121.823,-51.5001 131.823,-48 121.823,-44.5001 121.823,-51.5001"/>
</g>
<!-- Node8808 -->
<g id="node4" class="node"><title>Node8808</title>
<g id="a_node4"><a xlink:href="../../df/d13/namespace_im_gui.html#a64ed35f1ee0903215f91073cf7acfc70" target="_top" xlink:title="ImGui::LogText">
<polygon fill="white" stroke="black" points="162.5,-0.5 162.5,-19.5 245.5,-19.5 245.5,-0.5 162.5,-0.5"/>
<text text-anchor="middle" x="204" y="-7.5" font-family="Helvetica,sans-Serif" font-size="10.00">ImGui::LogText</text>
</a>
</g>
</g>
<!-- Node8805&#45;&gt;Node8808 -->
<g id="edge3" class="edge"><title>Node8805&#45;&gt;Node8808</title>
<path fill="none" stroke="midnightblue" d="M86.3654,-38.411C106.951,-33.3965 132.34,-27.2119 154.169,-21.8947"/>
<polygon fill="midnightblue" stroke="midnightblue" points="155.03,-25.2874 163.918,-19.5201 153.373,-18.4863 155.03,-25.2874"/>
</g>
<!-- Node8809 -->
<g id="node5" class="node"><title>Node8809</title>
<g id="a_node5"><a xlink:href="../../da/d7d/struct_im_gui_text_buffer.html#aeb9702dcb536ffc5919954e0f45a4c30" target="_top" xlink:title="ImGuiTextBuffer::appendv">
<polygon fill="white" stroke="black" points="316,-0.5 316,-19.5 443,-19.5 443,-0.5 316,-0.5"/>
<text text-anchor="middle" x="379.5" y="-7.5" font-family="Helvetica,sans-Serif" font-size="10.00">ImGuiTextBuffer::appendv</text>
</a>
</g>
</g>
<!-- Node8808&#45;&gt;Node8809 -->
<g id="edge4" class="edge"><title>Node8808&#45;&gt;Node8809</title>
<path fill="none" stroke="midnightblue" d="M245.678,-10C263.668,-10 285.381,-10 305.991,-10"/>
<polygon fill="midnightblue" stroke="midnightblue" points="305.999,-13.5001 315.999,-10 305.999,-6.5001 305.999,-13.5001"/>
</g>
<!-- Node8810 -->
<g id="node6" class="node"><title>Node8810</title>
<g id="a_node6"><a xlink:href="../../da/d72/imgui_8cpp.html#a1c61ee979ec8d777ba415296e12950a3" target="_top" xlink:title="ImFormatStringV">
<polygon fill="white" stroke="black" points="479,-0.5 479,-19.5 569,-19.5 569,-0.5 479,-0.5"/>
<text text-anchor="middle" x="524" y="-7.5" font-family="Helvetica,sans-Serif" font-size="10.00">ImFormatStringV</text>
</a>
</g>
</g>
<!-- Node8809&#45;&gt;Node8810 -->
<g id="edge5" class="edge"><title>Node8809&#45;&gt;Node8810</title>
<path fill="none" stroke="midnightblue" d="M443.003,-10C451.615,-10 460.401,-10 468.846,-10"/>
<polygon fill="midnightblue" stroke="midnightblue" points="468.944,-13.5001 478.944,-10 468.944,-6.5001 468.944,-13.5001"/>
</g>
</g>
</svg>
        <g id="navigator" transform="translate(0 0)" fill="#404254">
                <rect fill="#f2f5e9" fill-opacity="0.5" stroke="#606060" stroke-width=".5" x="0" y="0" width="60" height="60"/>
                <use id="zoomplus" xlink:href="#zoomPlus" x="17" y="9" onmousedown="handleZoom(evt,'in')"/>
                <use id="zoomminus" xlink:href="#zoomMin" x="42" y="9" onmousedown="handleZoom(evt,'out')"/>
                <use id="reset" xlink:href="#resetDef" x="30" y="36" onmousedown="handleReset()"/>
                <g id="arrowUp" xlink:href="#dirArrow" transform="translate(30 24)" onmousedown="handlePan(0,-1)">
                  <use xlink:href="#rim" fill="#404040">
                        <set attributeName="fill" to="#808080" begin="arrowUp.mouseover" end="arrowUp.mouseout"/>
                  </use>
                  <path fill="none" stroke="white" stroke-width="1.5" d="M0,-3.0v7 M-2.5,-0.5L0,-3.0L2.5,-0.5"/>
                </g>
                <g id="arrowRight" xlink:href="#dirArrow" transform="rotate(90) translate(36 -43)" onmousedown="handlePan(1,0)">
                  <use xlink:href="#rim" fill="#404040">
                        <set attributeName="fill" to="#808080" begin="arrowRight.mouseover" end="arrowRight.mouseout"/>
                  </use>
                  <path fill="none" stroke="white" stroke-width="1.5" d="M0,-3.0v7 M-2.5,-0.5L0,-3.0L2.5,-0.5"/>
                </g>
                <g id="arrowDown" xlink:href="#dirArrow" transform="rotate(180) translate(-30 -48)" onmousedown="handlePan(0,1)">
                  <use xlink:href="#rim" fill="#404040">
                        <set attributeName="fill" to="#808080" begin="arrowDown.mouseover" end="arrowDown.mouseout"/>
                  </use>
                  <path fill="none" stroke="white" stroke-width="1.5" d="M0,-3.0v7 M-2.5,-0.5L0,-3.0L2.5,-0.5"/>
                </g>
                <g id="arrowLeft" xlink:href="#dirArrow" transform="rotate(270) translate(-36 17)" onmousedown="handlePan(-1,0)">
                  <use xlink:href="#rim" fill="#404040">
                        <set attributeName="fill" to="#808080" begin="arrowLeft.mouseover" end="arrowLeft.mouseout"/>
                  </use>
                  <path fill="none" stroke="white" stroke-width="1.5" d="M0,-3.0v7 M-2.5,-0.5L0,-3.0L2.5,-0.5"/>
                </g>
        </g>
        <svg viewBox="0 0 15 15" width="100%" height="30px" preserveAspectRatio="xMaxYMin meet">
         <g id="arrow_out" transform="scale(0.3 0.3)">
          <a xlink:href="imgui_8cpp_aa74dba97dc9a2606bb3b213bf143e3a4_cgraph_org.svg" target="_base">
           <rect id="button" ry="5" rx="5" y="6" x="6" height="38" width="38"
                fill="#f2f5e9" fill-opacity="0.5" stroke="#606060" stroke-width="1.0"/>
           <path id="arrow"
             d="M 11.500037,31.436501 C 11.940474,20.09759 22.043105,11.32322 32.158766,21.979434 L 37.068811,17.246167 C 37.068811,17.246167 37.088388,32 37.088388,32 L 22.160133,31.978069 C 22.160133,31.978069 26.997745,27.140456 26.997745,27.140456 C 18.528582,18.264221 13.291696,25.230495 11.500037,31.436501 z"
             style="fill:#404040;"/>
          </a>
         </g>
        </svg>
</svg>
