<?xml version="1.0" encoding="UTF-8" standalone="no"?>
<!DOCTYPE svg PUBLIC "-//W3C//DTD SVG 1.1//EN"
 "http://www.w3.org/Graphics/SVG/1.1/DTD/svg11.dtd">
<!-- Generated by graphviz version 2.38.0 (20140413.2041)
 -->
<!-- Title: ClosePopupToLevel Pages: 1 -->
<svg width="534pt" height="180pt"
 viewBox="0.00 0.00 534.00 180.00" xmlns="http://www.w3.org/2000/svg" xmlns:xlink="http://www.w3.org/1999/xlink">
<g id="graph0" class="graph" transform="scale(1 1) rotate(0) translate(4 176)">
<title>ClosePopupToLevel</title>
<polygon fill="white" stroke="none" points="-4,4 -4,-176 530,-176 530,4 -4,4"/>
<!-- Node1676 -->
<g id="node1" class="node"><title>Node1676</title>
<polygon fill="#bfbfbf" stroke="black" points="0,-57.5 0,-76.5 101,-76.5 101,-57.5 0,-57.5"/>
<text text-anchor="middle" x="50.5" y="-64.5" font-family="Helvetica,sans-Serif" font-size="10.00">ClosePopupToLevel</text>
</g>
<!-- Node1677 -->
<g id="node2" class="node"><title>Node1677</title>
<g id="a_node2"><a xlink:href="../../df/d13/namespace_im_gui.html#ade4c08e7e7ad7bbfa4835248f5f3a7c6" target="_top" xlink:title="ImGui::FocusWindow">
<polygon fill="white" stroke="black" points="137,-76.5 137,-95.5 247,-95.5 247,-76.5 137,-76.5"/>
<text text-anchor="middle" x="192" y="-83.5" font-family="Helvetica,sans-Serif" font-size="10.00">ImGui::FocusWindow</text>
</a>
</g>
</g>
<!-- Node1676&#45;&gt;Node1677 -->
<g id="edge1" class="edge"><title>Node1676&#45;&gt;Node1677</title>
<path fill="none" stroke="midnightblue" d="M101.075,-73.7522C109.406,-74.8868 118.156,-76.0787 126.793,-77.255"/>
<polygon fill="midnightblue" stroke="midnightblue" points="126.466,-80.7427 136.847,-78.6244 127.411,-73.8067 126.466,-80.7427"/>
</g>
<!-- Node1684 -->
<g id="node9" class="node"><title>Node1684</title>
<g id="a_node9"><a xlink:href="../../d9/de0/class_im_vector.html#ac371dd62e56ae486b1a5038cf07eee56" target="_top" xlink:title="ImVector::resize">
<polygon fill="white" stroke="black" points="148,-38.5 148,-57.5 236,-57.5 236,-38.5 148,-38.5"/>
<text text-anchor="middle" x="192" y="-45.5" font-family="Helvetica,sans-Serif" font-size="10.00">ImVector::resize</text>
</a>
</g>
</g>
<!-- Node1676&#45;&gt;Node1684 -->
<g id="edge8" class="edge"><title>Node1676&#45;&gt;Node1684</title>
<path fill="none" stroke="midnightblue" d="M101.075,-60.2478C112.826,-58.6474 125.412,-56.9331 137.336,-55.3091"/>
<polygon fill="midnightblue" stroke="midnightblue" points="138.169,-58.728 147.605,-53.9104 137.224,-51.7921 138.169,-58.728"/>
</g>
<!-- Node1678 -->
<g id="node3" class="node"><title>Node1678</title>
<g id="a_node3"><a xlink:href="../../df/d13/namespace_im_gui.html#a17ff60ad1e2669130ac38a04d16eb354" target="_top" xlink:title="ImGui::ClearActiveID">
<polygon fill="white" stroke="black" points="284.5,-152.5 284.5,-171.5 390.5,-171.5 390.5,-152.5 284.5,-152.5"/>
<text text-anchor="middle" x="337.5" y="-159.5" font-family="Helvetica,sans-Serif" font-size="10.00">ImGui::ClearActiveID</text>
</a>
</g>
</g>
<!-- Node1677&#45;&gt;Node1678 -->
<g id="edge2" class="edge"><title>Node1677&#45;&gt;Node1678</title>
<path fill="none" stroke="midnightblue" d="M206.174,-95.6746C223.243,-107.89 254.229,-128.999 283,-143 287.15,-145.02 291.572,-146.936 296.028,-148.72"/>
<polygon fill="midnightblue" stroke="midnightblue" points="295.151,-152.131 305.743,-152.4 297.631,-145.585 295.151,-152.131"/>
</g>
<!-- Node1680 -->
<g id="node5" class="node"><title>Node1680</title>
<g id="a_node5"><a xlink:href="../../d9/de0/class_im_vector.html#a3e4424d3fca190894598a6575f9d2401" target="_top" xlink:title="ImVector::back">
<polygon fill="white" stroke="black" points="296,-114.5 296,-133.5 379,-133.5 379,-114.5 296,-114.5"/>
<text text-anchor="middle" x="337.5" y="-121.5" font-family="Helvetica,sans-Serif" font-size="10.00">ImVector::back</text>
</a>
</g>
</g>
<!-- Node1677&#45;&gt;Node1680 -->
<g id="edge4" class="edge"><title>Node1677&#45;&gt;Node1680</title>
<path fill="none" stroke="midnightblue" d="M229.211,-95.589C247.821,-100.517 270.697,-106.575 290.539,-111.829"/>
<polygon fill="midnightblue" stroke="midnightblue" points="289.738,-115.238 300.3,-114.414 291.53,-108.471 289.738,-115.238"/>
</g>
<!-- Node1681 -->
<g id="node6" class="node"><title>Node1681</title>
<g id="a_node6"><a xlink:href="../../d9/de0/class_im_vector.html#a1e1fd9b678be9d4b4432fbefde976045" target="_top" xlink:title="ImVector::erase">
<polygon fill="white" stroke="black" points="294.5,-76.5 294.5,-95.5 380.5,-95.5 380.5,-76.5 294.5,-76.5"/>
<text text-anchor="middle" x="337.5" y="-83.5" font-family="Helvetica,sans-Serif" font-size="10.00">ImVector::erase</text>
</a>
</g>
</g>
<!-- Node1677&#45;&gt;Node1681 -->
<g id="edge5" class="edge"><title>Node1677&#45;&gt;Node1681</title>
<path fill="none" stroke="midnightblue" d="M247.251,-86C259.283,-86 272.014,-86 283.975,-86"/>
<polygon fill="midnightblue" stroke="midnightblue" points="284.252,-89.5001 294.252,-86 284.252,-82.5001 284.252,-89.5001"/>
</g>
<!-- Node1682 -->
<g id="node7" class="node"><title>Node1682</title>
<g id="a_node7"><a xlink:href="../../d9/de0/class_im_vector.html#a300a8b559cd87a78063046ef81151bce" target="_top" xlink:title="ImVector::begin">
<polygon fill="white" stroke="black" points="295,-38.5 295,-57.5 380,-57.5 380,-38.5 295,-38.5"/>
<text text-anchor="middle" x="337.5" y="-45.5" font-family="Helvetica,sans-Serif" font-size="10.00">ImVector::begin</text>
</a>
</g>
</g>
<!-- Node1677&#45;&gt;Node1682 -->
<g id="edge6" class="edge"><title>Node1677&#45;&gt;Node1682</title>
<path fill="none" stroke="midnightblue" d="M229.211,-76.411C247.821,-71.4831 270.697,-65.4251 290.539,-60.1709"/>
<polygon fill="midnightblue" stroke="midnightblue" points="291.53,-63.5292 300.3,-57.5859 289.738,-56.7625 291.53,-63.5292"/>
</g>
<!-- Node1683 -->
<g id="node8" class="node"><title>Node1683</title>
<g id="a_node8"><a xlink:href="../../d9/de0/class_im_vector.html#a68387993f2a5f5c3b2a7139d9ab778b8" target="_top" xlink:title="ImVector::push_back">
<polygon fill="white" stroke="black" points="283,-0.5 283,-19.5 392,-19.5 392,-0.5 283,-0.5"/>
<text text-anchor="middle" x="337.5" y="-7.5" font-family="Helvetica,sans-Serif" font-size="10.00">ImVector::push_back</text>
</a>
</g>
</g>
<!-- Node1677&#45;&gt;Node1683 -->
<g id="edge7" class="edge"><title>Node1677&#45;&gt;Node1683</title>
<path fill="none" stroke="midnightblue" d="M227.852,-76.48C234.481,-73.9215 241.163,-70.7856 247,-67 266.519,-54.3407 263.5,-41.6878 283,-29 286.072,-27.001 289.381,-25.1818 292.792,-23.5324"/>
<polygon fill="midnightblue" stroke="midnightblue" points="294.187,-26.7428 301.971,-19.556 291.404,-20.3196 294.187,-26.7428"/>
</g>
<!-- Node1679 -->
<g id="node4" class="node"><title>Node1679</title>
<g id="a_node4"><a xlink:href="../../df/d13/namespace_im_gui.html#a27b8ace13a8c421ee8405f0cbebe4ead" target="_top" xlink:title="ImGui::SetActiveID">
<polygon fill="white" stroke="black" points="428,-152.5 428,-171.5 526,-171.5 526,-152.5 428,-152.5"/>
<text text-anchor="middle" x="477" y="-159.5" font-family="Helvetica,sans-Serif" font-size="10.00">ImGui::SetActiveID</text>
</a>
</g>
</g>
<!-- Node1678&#45;&gt;Node1679 -->
<g id="edge3" class="edge"><title>Node1678&#45;&gt;Node1679</title>
<path fill="none" stroke="midnightblue" d="M390.875,-162C399.603,-162 408.704,-162 417.572,-162"/>
<polygon fill="midnightblue" stroke="midnightblue" points="417.837,-165.5 427.837,-162 417.837,-158.5 417.837,-165.5"/>
</g>
</g>
</svg>
