<?xml version="1.0" encoding="UTF-8" standalone="no"?>
<!DOCTYPE svg PUBLIC "-//W3C//DTD SVG 1.1//EN"
 "http://www.w3.org/Graphics/SVG/1.1/DTD/svg11.dtd">
<!-- Generated by graphviz version 2.38.0 (20140413.2041)
 -->
<!-- Title: GetVisibleRect Pages: 1 -->
<svg width="541pt" height="88pt"
 viewBox="0.00 0.00 541.00 88.00" xmlns="http://www.w3.org/2000/svg" xmlns:xlink="http://www.w3.org/1999/xlink">
<g id="graph0" class="graph" transform="scale(1 1) rotate(0) translate(4 84)">
<title>GetVisibleRect</title>
<polygon fill="white" stroke="none" points="-4,4 -4,-84 537,-84 537,4 -4,4"/>
<!-- Node3769 -->
<g id="node1" class="node"><title>Node3769</title>
<polygon fill="#bfbfbf" stroke="black" points="0,-30 0,-49 82,-49 82,-30 0,-30"/>
<text text-anchor="middle" x="41" y="-37" font-family="Helvetica,sans-Serif" font-size="10.00">GetVisibleRect</text>
</g>
<!-- Node3770 -->
<g id="node2" class="node"><title>Node3770</title>
<g id="a_node2"><a xlink:href="../../da/d72/imgui_8cpp.html#ac85ca341514941ccdcafe058a77b0a0c" target="_top" xlink:title="FindBestPopupWindowPos">
<polygon fill="white" stroke="black" points="118,-49 118,-68 253,-68 253,-49 118,-49"/>
<text text-anchor="middle" x="185.5" y="-56" font-family="Helvetica,sans-Serif" font-size="10.00">FindBestPopupWindowPos</text>
</a>
</g>
</g>
<!-- Node3769&#45;&gt;Node3770 -->
<g id="edge1" class="edge"><title>Node3769&#45;&gt;Node3770</title>
<path fill="none" stroke="midnightblue" d="M91.9919,-46.1656C100.325,-47.2767 109.086,-48.4448 117.757,-49.601"/>
<polygon fill="midnightblue" stroke="midnightblue" points="92.4483,-42.6955 82.0734,-44.8431 91.5231,-49.6341 92.4483,-42.6955"/>
</g>
<!-- Node3771 -->
<g id="node3" class="node"><title>Node3771</title>
<g id="a_node3"><a xlink:href="../../df/d13/namespace_im_gui.html#a030e4ac6eed5b4b960a3fef538fcbad0" target="_top" xlink:title="ImGui::Begin">
<polygon fill="white" stroke="black" points="289,-30 289,-49 362,-49 362,-30 289,-30"/>
<text text-anchor="middle" x="325.5" y="-37" font-family="Helvetica,sans-Serif" font-size="10.00">ImGui::Begin</text>
</a>
</g>
</g>
<!-- Node3769&#45;&gt;Node3771 -->
<g id="edge5" class="edge"><title>Node3769&#45;&gt;Node3771</title>
<path fill="none" stroke="midnightblue" d="M92.3244,-39.5C148.879,-39.5 239.257,-39.5 288.926,-39.5"/>
<polygon fill="midnightblue" stroke="midnightblue" points="92.1754,-36.0001 82.1753,-39.5 92.1753,-43.0001 92.1754,-36.0001"/>
</g>
<!-- Node3770&#45;&gt;Node3771 -->
<g id="edge2" class="edge"><title>Node3770&#45;&gt;Node3771</title>
<path fill="none" stroke="midnightblue" d="M263.13,-47.9495C272,-46.7283 280.7,-45.5305 288.633,-44.4382"/>
<polygon fill="midnightblue" stroke="midnightblue" points="262.504,-44.5026 253.075,-49.3339 263.459,-51.4372 262.504,-44.5026"/>
</g>
<!-- Node3772 -->
<g id="node4" class="node"><title>Node3772</title>
<g id="a_node4"><a xlink:href="../../df/d0a/struct_im_gui_list_clipper.html#a0dc870fa31a56d3ace7625450f42937a" target="_top" xlink:title="ImGuiListClipper::ImGuiList\lClipper">
<polygon fill="white" stroke="black" points="398,-49.5 398,-79.5 533,-79.5 533,-49.5 398,-49.5"/>
<text text-anchor="start" x="406" y="-67.5" font-family="Helvetica,sans-Serif" font-size="10.00">ImGuiListClipper::ImGuiList</text>
<text text-anchor="middle" x="465.5" y="-56.5" font-family="Helvetica,sans-Serif" font-size="10.00">Clipper</text>
</a>
</g>
</g>
<!-- Node3771&#45;&gt;Node3772 -->
<g id="edge3" class="edge"><title>Node3771&#45;&gt;Node3772</title>
<path fill="none" stroke="midnightblue" d="M371.933,-47.7307C380.29,-49.2446 389.171,-50.8535 397.998,-52.4525"/>
<polygon fill="midnightblue" stroke="midnightblue" points="372.502,-44.2768 362.038,-45.9381 371.254,-51.1647 372.502,-44.2768"/>
</g>
<!-- Node3773 -->
<g id="node5" class="node"><title>Node3773</title>
<g id="a_node5"><a xlink:href="../../df/d0a/struct_im_gui_list_clipper.html#ada915f0ae4446df73c1a2372bde65293" target="_top" xlink:title="ImGuiListClipper::\l~ImGuiListClipper">
<polygon fill="white" stroke="black" points="418.5,-0.5 418.5,-30.5 512.5,-30.5 512.5,-0.5 418.5,-0.5"/>
<text text-anchor="start" x="426.5" y="-18.5" font-family="Helvetica,sans-Serif" font-size="10.00">ImGuiListClipper::</text>
<text text-anchor="middle" x="465.5" y="-7.5" font-family="Helvetica,sans-Serif" font-size="10.00">~ImGuiListClipper</text>
</a>
</g>
</g>
<!-- Node3771&#45;&gt;Node3773 -->
<g id="edge4" class="edge"><title>Node3771&#45;&gt;Node3773</title>
<path fill="none" stroke="midnightblue" d="M372.041,-31.5798C386.929,-28.9906 403.471,-26.1138 418.4,-23.5175"/>
<polygon fill="midnightblue" stroke="midnightblue" points="371.291,-28.1577 362.038,-33.3194 372.49,-35.0542 371.291,-28.1577"/>
</g>
</g>
</svg>
