<?xml version="1.0" encoding="UTF-8" standalone="no"?>
<!DOCTYPE svg PUBLIC "-//W3C//DTD SVG 1.1//EN"
 "http://www.w3.org/Graphics/SVG/1.1/DTD/svg11.dtd">
<!-- Generated by graphviz version 2.38.0 (20140413.2041)
 -->
<!-- Title: SetWindowPos Pages: 1 -->
<svg width="413pt" height="96pt"
 viewBox="0.00 0.00 413.00 95.50" xmlns="http://www.w3.org/2000/svg" xmlns:xlink="http://www.w3.org/1999/xlink">
<g id="graph0" class="graph" transform="scale(1 1) rotate(0) translate(4 91.5)">
<title>SetWindowPos</title>
<polygon fill="white" stroke="none" points="-4,4 -4,-91.5 409,-91.5 409,4 -4,4"/>
<!-- Node11641 -->
<g id="node1" class="node"><title>Node11641</title>
<polygon fill="#bfbfbf" stroke="black" points="0,-19.5 0,-38.5 83,-38.5 83,-19.5 0,-19.5"/>
<text text-anchor="middle" x="41.5" y="-26.5" font-family="Helvetica,sans-Serif" font-size="10.00">SetWindowPos</text>
</g>
<!-- Node11642 -->
<g id="node2" class="node"><title>Node11642</title>
<g id="a_node2"><a xlink:href="../../df/d13/namespace_im_gui.html#a030e4ac6eed5b4b960a3fef538fcbad0" target="_top" xlink:title="ImGui::Begin">
<polygon fill="white" stroke="black" points="140,-38.5 140,-57.5 213,-57.5 213,-38.5 140,-38.5"/>
<text text-anchor="middle" x="176.5" y="-45.5" font-family="Helvetica,sans-Serif" font-size="10.00">ImGui::Begin</text>
</a>
</g>
</g>
<!-- Node11641&#45;&gt;Node11642 -->
<g id="edge1" class="edge"><title>Node11641&#45;&gt;Node11642</title>
<path fill="none" stroke="midnightblue" d="M93.0984,-36.2283C108.599,-38.4427 125.324,-40.8319 139.629,-42.8755"/>
<polygon fill="midnightblue" stroke="midnightblue" points="93.5216,-32.7533 83.1271,-34.8039 92.5316,-39.683 93.5216,-32.7533"/>
</g>
<!-- Node11645 -->
<g id="node5" class="node"><title>Node11645</title>
<g id="a_node5"><a xlink:href="../../df/d13/namespace_im_gui.html#a2c7d49fea581b2917761bf0076ccda4a" target="_top" xlink:title="ImGui::SetWindowPos">
<polygon fill="white" stroke="black" points="119,-0.5 119,-19.5 234,-19.5 234,-0.5 119,-0.5"/>
<text text-anchor="middle" x="176.5" y="-7.5" font-family="Helvetica,sans-Serif" font-size="10.00">ImGui::SetWindowPos</text>
</a>
</g>
</g>
<!-- Node11641&#45;&gt;Node11645 -->
<g id="edge4" class="edge"><title>Node11641&#45;&gt;Node11645</title>
<path fill="none" stroke="midnightblue" d="M93.1885,-21.7588C101.616,-20.5549 110.402,-19.2997 118.963,-18.0767"/>
<polygon fill="midnightblue" stroke="midnightblue" points="92.5316,-18.317 83.1271,-23.1961 93.5216,-25.2467 92.5316,-18.317"/>
</g>
<!-- Node11643 -->
<g id="node3" class="node"><title>Node11643</title>
<g id="a_node3"><a xlink:href="../../df/d0a/struct_im_gui_list_clipper.html#a0dc870fa31a56d3ace7625450f42937a" target="_top" xlink:title="ImGuiListClipper::ImGuiList\lClipper">
<polygon fill="white" stroke="black" points="270,-57 270,-87 405,-87 405,-57 270,-57"/>
<text text-anchor="start" x="278" y="-75" font-family="Helvetica,sans-Serif" font-size="10.00">ImGuiListClipper::ImGuiList</text>
<text text-anchor="middle" x="337.5" y="-64" font-family="Helvetica,sans-Serif" font-size="10.00">Clipper</text>
</a>
</g>
</g>
<!-- Node11642&#45;&gt;Node11643 -->
<g id="edge2" class="edge"><title>Node11642&#45;&gt;Node11643</title>
<path fill="none" stroke="midnightblue" d="M223.396,-54.9278C237.918,-57.1197 254.272,-59.5883 269.938,-61.9529"/>
<polygon fill="midnightblue" stroke="midnightblue" points="223.593,-51.4179 213.183,-53.3861 222.548,-58.3395 223.593,-51.4179"/>
</g>
<!-- Node11644 -->
<g id="node4" class="node"><title>Node11644</title>
<g id="a_node4"><a xlink:href="../../df/d0a/struct_im_gui_list_clipper.html#ada915f0ae4446df73c1a2372bde65293" target="_top" xlink:title="ImGuiListClipper::\l~ImGuiListClipper">
<polygon fill="white" stroke="black" points="290.5,-8 290.5,-38 384.5,-38 384.5,-8 290.5,-8"/>
<text text-anchor="start" x="298.5" y="-26" font-family="Helvetica,sans-Serif" font-size="10.00">ImGuiListClipper::</text>
<text text-anchor="middle" x="337.5" y="-15" font-family="Helvetica,sans-Serif" font-size="10.00">~ImGuiListClipper</text>
</a>
</g>
</g>
<!-- Node11642&#45;&gt;Node11644 -->
<g id="edge3" class="edge"><title>Node11642&#45;&gt;Node11644</title>
<path fill="none" stroke="midnightblue" d="M223.182,-40.8174C244.257,-37.5037 269.229,-33.5773 290.36,-30.2548"/>
<polygon fill="midnightblue" stroke="midnightblue" points="222.518,-37.3787 213.183,-42.3895 223.605,-44.2937 222.518,-37.3787"/>
</g>
</g>
</svg>
