<?xml version="1.0" encoding="UTF-8" standalone="no"?>
<!DOCTYPE svg PUBLIC "-//W3C//DTD SVG 1.1//EN"
 "http://www.w3.org/Graphics/SVG/1.1/DTD/svg11.dtd">
<!-- Generated by graphviz version 2.38.0 (20140413.2041)
 -->
<!-- Title: ImStrlenW Pages: 1 -->
<svg width="1335pt" height="91pt"
 viewBox="0.00 0.00 1335.00 90.50" xmlns="http://www.w3.org/2000/svg" xmlns:xlink="http://www.w3.org/1999/xlink">
<g id="graph0" class="graph" transform="scale(1 1) rotate(0) translate(4 86.5)">
<title>ImStrlenW</title>
<polygon fill="white" stroke="none" points="-4,4 -4,-86.5 1331,-86.5 1331,4 -4,4"/>
<!-- Node5015 -->
<g id="node1" class="node"><title>Node5015</title>
<polygon fill="#bfbfbf" stroke="black" points="0,-19.5 0,-38.5 62,-38.5 62,-19.5 0,-19.5"/>
<text text-anchor="middle" x="31" y="-26.5" font-family="Helvetica,sans-Serif" font-size="10.00">ImStrlenW</text>
</g>
<!-- Node5016 -->
<g id="node2" class="node"><title>Node5016</title>
<g id="a_node2"><a xlink:href="../../d5/dbc/struct_im_gui_i_o.html#a52b6bdef9278de5ae2031311a269cf14" target="_top" xlink:title="ImGuiIO::AddInputCharacter">
<polygon fill="white" stroke="black" points="98,-38.5 98,-57.5 236,-57.5 236,-38.5 98,-38.5"/>
<text text-anchor="middle" x="167" y="-45.5" font-family="Helvetica,sans-Serif" font-size="10.00">ImGuiIO::AddInputCharacter</text>
</a>
</g>
</g>
<!-- Node5015&#45;&gt;Node5016 -->
<g id="edge1" class="edge"><title>Node5015&#45;&gt;Node5016</title>
<path fill="none" stroke="midnightblue" d="M72.0085,-34.6728C80.4728,-35.873 89.6271,-37.171 98.7868,-38.4698"/>
<polygon fill="midnightblue" stroke="midnightblue" points="72.4646,-31.2026 62.0722,-33.264 71.4818,-38.1333 72.4646,-31.2026"/>
</g>
<!-- Node5024 -->
<g id="node10" class="node"><title>Node5024</title>
<g id="a_node10"><a xlink:href="../../d1/da2/imgui__internal_8h.html#adae096c61c812293ec61ac541c146674" target="_top" xlink:title="ImUpperPowerOfTwo">
<polygon fill="white" stroke="black" points="113.5,-0.5 113.5,-19.5 220.5,-19.5 220.5,-0.5 113.5,-0.5"/>
<text text-anchor="middle" x="167" y="-7.5" font-family="Helvetica,sans-Serif" font-size="10.00">ImUpperPowerOfTwo</text>
</a>
</g>
</g>
<!-- Node5015&#45;&gt;Node5024 -->
<g id="edge9" class="edge"><title>Node5015&#45;&gt;Node5024</title>
<path fill="none" stroke="midnightblue" d="M72.0832,-23.3166C85.0563,-21.4771 99.6444,-19.4086 113.385,-17.4603"/>
<polygon fill="midnightblue" stroke="midnightblue" points="71.4818,-19.8667 62.0722,-24.736 72.4646,-26.7974 71.4818,-19.8667"/>
</g>
<!-- Node5017 -->
<g id="node3" class="node"><title>Node5017</title>
<g id="a_node3"><a xlink:href="../../d5/d56/class_ogre_im_gui.html#a8a76c52f92d57d9a52f1f6d8e6513418" target="_top" xlink:title="OgreImGui::InjectKeyPressed">
<polygon fill="white" stroke="black" points="272,-38.5 272,-57.5 418,-57.5 418,-38.5 272,-38.5"/>
<text text-anchor="middle" x="345" y="-45.5" font-family="Helvetica,sans-Serif" font-size="10.00">OgreImGui::InjectKeyPressed</text>
</a>
</g>
</g>
<!-- Node5016&#45;&gt;Node5017 -->
<g id="edge2" class="edge"><title>Node5016&#45;&gt;Node5017</title>
<path fill="none" stroke="midnightblue" d="M246.299,-48C254.772,-48 263.366,-48 271.762,-48"/>
<polygon fill="midnightblue" stroke="midnightblue" points="246.046,-44.5001 236.046,-48 246.046,-51.5001 246.046,-44.5001"/>
</g>
<!-- Node5018 -->
<g id="node4" class="node"><title>Node5018</title>
<g id="a_node4"><a xlink:href="../../db/df1/class_g_u_i_input_manager.html#a4c3aeb879697d033b9c34fb3500fa1d5" target="_top" xlink:title="GUIInputManager::keyPressed">
<polygon fill="white" stroke="black" points="454,-57.5 454,-76.5 603,-76.5 603,-57.5 454,-57.5"/>
<text text-anchor="middle" x="528.5" y="-64.5" font-family="Helvetica,sans-Serif" font-size="10.00">GUIInputManager::keyPressed</text>
</a>
</g>
</g>
<!-- Node5017&#45;&gt;Node5018 -->
<g id="edge3" class="edge"><title>Node5017&#45;&gt;Node5018</title>
<path fill="none" stroke="midnightblue" d="M428.458,-56.632C436.878,-57.5134 445.393,-58.4048 453.712,-59.2756"/>
<polygon fill="midnightblue" stroke="midnightblue" points="428.565,-53.1241 418.255,-55.5639 427.836,-60.0861 428.565,-53.1241"/>
</g>
<!-- Node5023 -->
<g id="node9" class="node"><title>Node5023</title>
<g id="a_node9"><a xlink:href="../../d5/d56/class_ogre_im_gui.html#ad19fd285bb4aaa44039201a20c39a75f" target="_top" xlink:title="OgreImGui::OgreImGui">
<polygon fill="white" stroke="black" points="470.5,-19.5 470.5,-38.5 586.5,-38.5 586.5,-19.5 470.5,-19.5"/>
<text text-anchor="middle" x="528.5" y="-26.5" font-family="Helvetica,sans-Serif" font-size="10.00">OgreImGui::OgreImGui</text>
</a>
</g>
</g>
<!-- Node5017&#45;&gt;Node5023 -->
<g id="edge8" class="edge"><title>Node5017&#45;&gt;Node5023</title>
<path fill="none" stroke="midnightblue" d="M428.479,-39.3658C442.613,-37.8863 457.016,-36.3785 470.303,-34.9876"/>
<polygon fill="midnightblue" stroke="midnightblue" points="427.836,-35.9139 418.255,-40.4361 428.565,-42.8759 427.836,-35.9139"/>
</g>
<!-- Node5019 -->
<g id="node5" class="node"><title>Node5019</title>
<g id="a_node5"><a xlink:href="../../db/df1/class_g_u_i_input_manager.html#ab59361b8e1a9e31e53b5e5523f2b4801" target="_top" xlink:title="GUIInputManager::getLast\lMouseMoveTime">
<polygon fill="white" stroke="black" points="639,-52 639,-82 769,-82 769,-52 639,-52"/>
<text text-anchor="start" x="647" y="-70" font-family="Helvetica,sans-Serif" font-size="10.00">GUIInputManager::getLast</text>
<text text-anchor="middle" x="704" y="-59" font-family="Helvetica,sans-Serif" font-size="10.00">MouseMoveTime</text>
</a>
</g>
</g>
<!-- Node5018&#45;&gt;Node5019 -->
<g id="edge4" class="edge"><title>Node5018&#45;&gt;Node5019</title>
<path fill="none" stroke="midnightblue" d="M613.192,-67C621.84,-67 630.528,-67 638.913,-67"/>
<polygon fill="midnightblue" stroke="midnightblue" points="613.08,-63.5001 603.08,-67 613.08,-70.5001 613.08,-63.5001"/>
</g>
<!-- Node5020 -->
<g id="node6" class="node"><title>Node5020</title>
<g id="a_node6"><a xlink:href="../../d8/d11/class_ro_r_1_1_g_u_i_manager.html#aae1570a62049085aa74ce274ac9a70ad" target="_top" xlink:title="RoR::GUIManager::frameStarted">
<polygon fill="white" stroke="black" points="805,-57.5 805,-76.5 962,-76.5 962,-57.5 805,-57.5"/>
<text text-anchor="middle" x="883.5" y="-64.5" font-family="Helvetica,sans-Serif" font-size="10.00">RoR::GUIManager::frameStarted</text>
</a>
</g>
</g>
<!-- Node5019&#45;&gt;Node5020 -->
<g id="edge5" class="edge"><title>Node5019&#45;&gt;Node5020</title>
<path fill="none" stroke="midnightblue" d="M779.289,-67C787.748,-67 796.387,-67 804.888,-67"/>
<polygon fill="midnightblue" stroke="midnightblue" points="779.082,-63.5001 769.082,-67 779.082,-70.5001 779.082,-63.5001"/>
</g>
<!-- Node5021 -->
<g id="node7" class="node"><title>Node5021</title>
<g id="a_node7"><a xlink:href="../../d8/d11/class_ro_r_1_1_g_u_i_manager.html#a4ab273bd0538649818c84b38e8a06100" target="_top" xlink:title="RoR::GUIManager::GetTheme">
<polygon fill="white" stroke="black" points="998,-57.5 998,-76.5 1144,-76.5 1144,-57.5 998,-57.5"/>
<text text-anchor="middle" x="1071" y="-64.5" font-family="Helvetica,sans-Serif" font-size="10.00">RoR::GUIManager::GetTheme</text>
</a>
</g>
</g>
<!-- Node5020&#45;&gt;Node5021 -->
<g id="edge6" class="edge"><title>Node5020&#45;&gt;Node5021</title>
<path fill="none" stroke="midnightblue" d="M972.125,-67C980.707,-67 989.349,-67 997.754,-67"/>
<polygon fill="midnightblue" stroke="midnightblue" points="972.094,-63.5001 962.094,-67 972.094,-70.5001 972.094,-63.5001"/>
</g>
<!-- Node5022 -->
<g id="node8" class="node"><title>Node5022</title>
<g id="a_node8"><a xlink:href="../../d4/d8f/class_ro_r_1_1_g_u_i_1_1_multiplayer_selector.html#a8c98e9ba03c8afb1d1a26ec06192862e" target="_top" xlink:title="RoR::GUI::MultiplayerSelector\l::~MultiplayerSelector">
<polygon fill="white" stroke="black" points="1180,-52 1180,-82 1327,-82 1327,-52 1180,-52"/>
<text text-anchor="start" x="1188" y="-70" font-family="Helvetica,sans-Serif" font-size="10.00">RoR::GUI::MultiplayerSelector</text>
<text text-anchor="middle" x="1253.5" y="-59" font-family="Helvetica,sans-Serif" font-size="10.00">::~MultiplayerSelector</text>
</a>
</g>
</g>
<!-- Node5021&#45;&gt;Node5022 -->
<g id="edge7" class="edge"><title>Node5021&#45;&gt;Node5022</title>
<path fill="none" stroke="midnightblue" d="M1154.14,-67C1162.74,-67 1171.43,-67 1179.91,-67"/>
<polygon fill="midnightblue" stroke="midnightblue" points="1154.12,-63.5001 1144.12,-67 1154.12,-70.5001 1154.12,-63.5001"/>
</g>
<!-- Node5025 -->
<g id="node11" class="node"><title>Node5025</title>
<g id="a_node11"><a xlink:href="../../d5/d9e/struct_im_font_atlas.html#a81e39e30dffa4dd7e458a53297451e27" target="_top" xlink:title="ImFontAtlas::Build">
<polygon fill="white" stroke="black" points="296.5,-0.5 296.5,-19.5 393.5,-19.5 393.5,-0.5 296.5,-0.5"/>
<text text-anchor="middle" x="345" y="-7.5" font-family="Helvetica,sans-Serif" font-size="10.00">ImFontAtlas::Build</text>
</a>
</g>
</g>
<!-- Node5024&#45;&gt;Node5025 -->
<g id="edge10" class="edge"><title>Node5024&#45;&gt;Node5025</title>
<path fill="none" stroke="midnightblue" d="M230.86,-10C252.417,-10 276.172,-10 296.327,-10"/>
<polygon fill="midnightblue" stroke="midnightblue" points="230.806,-6.5001 220.806,-10 230.806,-13.5001 230.806,-6.5001"/>
</g>
</g>
</svg>
