<?xml version="1.0" encoding="UTF-8" standalone="no"?>
<!DOCTYPE svg PUBLIC "-//W3C//DTD SVG 1.1//EN"
 "http://www.w3.org/Graphics/SVG/1.1/DTD/svg11.dtd">
<!-- Generated by graphviz version 2.38.0 (20140413.2041)
 -->
<!-- Title: DashBoardManager::updateFeatures Pages: 1 -->
<svg width="512pt" height="39pt"
 viewBox="0.00 0.00 512.00 39.00" xmlns="http://www.w3.org/2000/svg" xmlns:xlink="http://www.w3.org/1999/xlink">
<g id="graph0" class="graph" transform="scale(1 1) rotate(0) translate(4 35)">
<title>DashBoardManager::updateFeatures</title>
<polygon fill="white" stroke="none" points="-4,4 -4,-35 508,-35 508,4 -4,4"/>
<!-- Node173 -->
<g id="node1" class="node"><title>Node173</title>
<polygon fill="#bfbfbf" stroke="black" points="0,-0.5 0,-30.5 137,-30.5 137,-0.5 0,-0.5"/>
<text text-anchor="start" x="8" y="-18.5" font-family="Helvetica,sans-Serif" font-size="10.00">DashBoardManager::update</text>
<text text-anchor="middle" x="68.5" y="-7.5" font-family="Helvetica,sans-Serif" font-size="10.00">Features</text>
</g>
<!-- Node174 -->
<g id="node2" class="node"><title>Node174</title>
<g id="a_node2"><a xlink:href="../../d4/d1e/class_dash_board.html#ac291995b6c1d4ad6e13e97c48378662b" target="_top" xlink:title="DashBoard::updateFeatures">
<polygon fill="white" stroke="black" points="173,-6 173,-25 311,-25 311,-6 173,-6"/>
<text text-anchor="middle" x="242" y="-13" font-family="Helvetica,sans-Serif" font-size="10.00">DashBoard::updateFeatures</text>
</a>
</g>
</g>
<!-- Node173&#45;&gt;Node174 -->
<g id="edge1" class="edge"><title>Node173&#45;&gt;Node174</title>
<path fill="none" stroke="midnightblue" d="M137.281,-15.5C145.602,-15.5 154.158,-15.5 162.619,-15.5"/>
<polygon fill="midnightblue" stroke="midnightblue" points="162.868,-19.0001 172.868,-15.5 162.868,-12.0001 162.868,-19.0001"/>
</g>
<!-- Node175 -->
<g id="node3" class="node"><title>Node175</title>
<g id="a_node3"><a xlink:href="../../d9/d86/class_dash_board_manager.html#aea1386055abf3eb9149c5eb90d961f0e" target="_top" xlink:title="DashBoardManager::getEnabled">
<polygon fill="white" stroke="black" points="347,-6 347,-25 504,-25 504,-6 347,-6"/>
<text text-anchor="middle" x="425.5" y="-13" font-family="Helvetica,sans-Serif" font-size="10.00">DashBoardManager::getEnabled</text>
</a>
</g>
</g>
<!-- Node174&#45;&gt;Node175 -->
<g id="edge2" class="edge"><title>Node174&#45;&gt;Node175</title>
<path fill="none" stroke="midnightblue" d="M311.1,-15.5C319.487,-15.5 328.149,-15.5 336.775,-15.5"/>
<polygon fill="midnightblue" stroke="midnightblue" points="336.865,-19.0001 346.865,-15.5 336.865,-12.0001 336.865,-19.0001"/>
</g>
</g>
</svg>
