<?xml version="1.0" encoding="UTF-8" standalone="no"?>
<!DOCTYPE svg PUBLIC "-//W3C//DTD SVG 1.1//EN"
 "http://www.w3.org/Graphics/SVG/1.1/DTD/svg11.dtd">
<!-- Generated by graphviz version 2.38.0 (20140413.2041)
 -->
<!-- Title: Buoyance::computePressureForceSub Pages: 1 -->
<svg width="517pt" height="39pt"
 viewBox="0.00 0.00 517.00 39.00" xmlns="http://www.w3.org/2000/svg" xmlns:xlink="http://www.w3.org/1999/xlink">
<g id="graph0" class="graph" transform="scale(1 1) rotate(0) translate(4 35)">
<title>Buoyance::computePressureForceSub</title>
<polygon fill="white" stroke="none" points="-4,4 -4,-35 513,-35 513,4 -4,4"/>
<!-- Node28 -->
<g id="node1" class="node"><title>Node28</title>
<polygon fill="#bfbfbf" stroke="black" points="0,-0.5 0,-30.5 143,-30.5 143,-0.5 0,-0.5"/>
<text text-anchor="start" x="8" y="-18.5" font-family="Helvetica,sans-Serif" font-size="10.00">Buoyance::computePressure</text>
<text text-anchor="middle" x="71.5" y="-7.5" font-family="Helvetica,sans-Serif" font-size="10.00">ForceSub</text>
</g>
<!-- Node29 -->
<g id="node2" class="node"><title>Node29</title>
<g id="a_node2"><a xlink:href="../../d5/da4/class_buoyance.html#a99e957022f7cdedf2cd5631bc5473411" target="_top" xlink:title="Buoyance::computePressure\lForce">
<polygon fill="white" stroke="black" points="179,-0.5 179,-30.5 322,-30.5 322,-0.5 179,-0.5"/>
<text text-anchor="start" x="187" y="-18.5" font-family="Helvetica,sans-Serif" font-size="10.00">Buoyance::computePressure</text>
<text text-anchor="middle" x="250.5" y="-7.5" font-family="Helvetica,sans-Serif" font-size="10.00">Force</text>
</a>
</g>
</g>
<!-- Node28&#45;&gt;Node29 -->
<g id="edge1" class="edge"><title>Node28&#45;&gt;Node29</title>
<path fill="none" stroke="midnightblue" d="M153.494,-15.5C161.973,-15.5 170.544,-15.5 178.894,-15.5"/>
<polygon fill="midnightblue" stroke="midnightblue" points="153.218,-12.0001 143.218,-15.5 153.218,-19.0001 153.218,-12.0001"/>
</g>
<!-- Node30 -->
<g id="node3" class="node"><title>Node30</title>
<g id="a_node3"><a xlink:href="../../d5/da4/class_buoyance.html#a1ce2bd1818fabce450d1d2b5f79197c8" target="_top" xlink:title="Buoyance::computeNodeForce">
<polygon fill="white" stroke="black" points="358,-6 358,-25 509,-25 509,-6 358,-6"/>
<text text-anchor="middle" x="433.5" y="-13" font-family="Helvetica,sans-Serif" font-size="10.00">Buoyance::computeNodeForce</text>
</a>
</g>
</g>
<!-- Node29&#45;&gt;Node30 -->
<g id="edge2" class="edge"><title>Node29&#45;&gt;Node30</title>
<path fill="none" stroke="midnightblue" d="M332.499,-15.5C340.957,-15.5 349.528,-15.5 357.91,-15.5"/>
<polygon fill="midnightblue" stroke="midnightblue" points="332.257,-12.0001 322.257,-15.5 332.257,-19.0001 332.257,-12.0001"/>
</g>
</g>
</svg>
