<?xml version="1.0" encoding="UTF-8" standalone="no"?>
<!DOCTYPE svg PUBLIC "-//W3C//DTD SVG 1.1//EN"
 "http://www.w3.org/Graphics/SVG/1.1/DTD/svg11.dtd">
<!-- Generated by graphviz version 2.38.0 (20140413.2041)
 -->
<!-- Title: OgreImGui::NewFrame Pages: 1 -->
<!--zoomable 94 -->
<svg id="main" version="1.1" xmlns="http://www.w3.org/2000/svg" xmlns:xlink="http://www.w3.org/1999/xlink" xml:space="preserve" onload="init(evt)">
<style type="text/css"><![CDATA[
.edge:hover path { stroke: red; }
.edge:hover polygon { stroke: red; fill: red; }
]]></style>
<script type="text/javascript"><![CDATA[
var edges = document.getElementsByTagName('g');
if (edges && edges.length) {
  for (var i=0;i<edges.length;i++) {
    if (edges[i].id.substr(0,4)=='edge') {
      edges[i].setAttribute('class','edge');
    }
  }
}
]]></script>
        <defs>
                <circle id="rim" cx="0" cy="0" r="7"/>
                <circle id="rim2" cx="0" cy="0" r="3.5"/>
                <g id="zoomPlus">
                        <use xlink:href="#rim" fill="#404040">
                                <set attributeName="fill" to="#808080" begin="zoomplus.mouseover" end="zoomplus.mouseout"/>
                        </use>
                        <path d="M-4,0h8M0,-4v8" fill="none" stroke="white" stroke-width="1.5" pointer-events="none"/>
                </g>
                <g id="zoomMin">
                        <use xlink:href="#rim" fill="#404040">
                                <set attributeName="fill" to="#808080" begin="zoomminus.mouseover" end="zoomminus.mouseout"/>
                        </use>
                        <path d="M-4,0h8" fill="none" stroke="white" stroke-width="1.5" pointer-events="none"/>
                </g>
                <g id="dirArrow">
                        <path fill="none" stroke="white" stroke-width="1.5" d="M0,-3.0v7 M-2.5,-0.5L0,-3.0L2.5,-0.5"/>
                </g>
               <g id="resetDef">
                       <use xlink:href="#rim2" fill="#404040">
                               <set attributeName="fill" to="#808080" begin="reset.mouseover" end="reset.mouseout"/>
                       </use>
               </g>
        </defs>

<script type="text/javascript">
var viewWidth = 666;
var viewHeight = 94;
var sectionId = 'dynsection-17';
</script>
<script xlink:href="../../svgpan.js"/>
<svg id="graph" class="graph">
<g id="viewport">
<title>OgreImGui::NewFrame</title>
<polygon fill="white" stroke="none" points="-4,4 -4,-90 662,-90 662,4 -4,4"/>
<!-- Node556 -->
<g id="node1" class="node"><title>Node556</title>
<polygon fill="#bfbfbf" stroke="black" points="0,-22.5 0,-41.5 116,-41.5 116,-22.5 0,-22.5"/>
<text text-anchor="middle" x="58" y="-29.5" font-family="Helvetica,sans-Serif" font-size="10.00">OgreImGui::NewFrame</text>
</g>
<!-- Node557 -->
<g id="node2" class="node"><title>Node557</title>
<g id="a_node2"><a xlink:href="../../d8/d11/class_ro_r_1_1_g_u_i_manager.html#a19dfcebef9a9cbb45429c6cc218a8759" target="_top" xlink:title="RoR::GUIManager::NewImGui\lFrame">
<polygon fill="white" stroke="black" points="152,-39 152,-69 298,-69 298,-39 152,-39"/>
<text text-anchor="start" x="160" y="-57" font-family="Helvetica,sans-Serif" font-size="10.00">RoR::GUIManager::NewImGui</text>
<text text-anchor="middle" x="225" y="-46" font-family="Helvetica,sans-Serif" font-size="10.00">Frame</text>
</a>
</g>
</g>
<!-- Node556&#45;&gt;Node557 -->
<g id="edge1" class="edge"><title>Node556&#45;&gt;Node557</title>
<path fill="none" stroke="midnightblue" d="M126.33,-40.9773C134.704,-42.0939 143.295,-43.2393 151.74,-44.3654"/>
<polygon fill="midnightblue" stroke="midnightblue" points="126.621,-37.4852 116.246,-39.6328 125.696,-44.4238 126.621,-37.4852"/>
</g>
<!-- Node562 -->
<g id="node7" class="node"><title>Node562</title>
<g id="a_node7"><a xlink:href="../../d5/d56/class_ogre_im_gui.html#ad19fd285bb4aaa44039201a20c39a75f" target="_top" xlink:title="OgreImGui::OgreImGui">
<polygon fill="white" stroke="black" points="167,-0.5 167,-19.5 283,-19.5 283,-0.5 167,-0.5"/>
<text text-anchor="middle" x="225" y="-7.5" font-family="Helvetica,sans-Serif" font-size="10.00">OgreImGui::OgreImGui</text>
</a>
</g>
</g>
<!-- Node556&#45;&gt;Node562 -->
<g id="edge6" class="edge"><title>Node556&#45;&gt;Node562</title>
<path fill="none" stroke="midnightblue" d="M126.386,-23.0152C139.819,-21.2241 153.806,-19.3592 166.855,-17.6193"/>
<polygon fill="midnightblue" stroke="midnightblue" points="125.696,-19.5762 116.246,-24.3672 126.621,-26.5148 125.696,-19.5762"/>
</g>
<!-- Node558 -->
<g id="node3" class="node"><title>Node558</title>
<g id="a_node3"><a xlink:href="../../dd/dbe/class_ro_r_frame_listener.html#acdda0026f9324c3b7f48568624e07115" target="_top" xlink:title="RoRFrameListener::frameStarted">
<polygon fill="white" stroke="black" points="334,-66.5 334,-85.5 493,-85.5 493,-66.5 334,-66.5"/>
<text text-anchor="middle" x="413.5" y="-73.5" font-family="Helvetica,sans-Serif" font-size="10.00">RoRFrameListener::frameStarted</text>
</a>
</g>
</g>
<!-- Node557&#45;&gt;Node558 -->
<g id="edge2" class="edge"><title>Node557&#45;&gt;Node558</title>
<path fill="none" stroke="midnightblue" d="M308.059,-63.6798C316.602,-64.6876 325.272,-65.7104 333.777,-66.7136"/>
<polygon fill="midnightblue" stroke="midnightblue" points="308.447,-60.2015 298.106,-62.5058 307.627,-67.1533 308.447,-60.2015"/>
</g>
<!-- Node559 -->
<g id="node4" class="node"><title>Node559</title>
<g id="a_node4"><a xlink:href="../../d4/d14/class_ro_r_1_1_main_menu.html#a582e508f1bb1578d1124260de49e438b" target="_top" xlink:title="RoR::MainMenu::EnterMain\lMenuLoop">
<polygon fill="white" stroke="black" points="345,-17 345,-47 482,-47 482,-17 345,-17"/>
<text text-anchor="start" x="353" y="-35" font-family="Helvetica,sans-Serif" font-size="10.00">RoR::MainMenu::EnterMain</text>
<text text-anchor="middle" x="413.5" y="-24" font-family="Helvetica,sans-Serif" font-size="10.00">MenuLoop</text>
</a>
</g>
</g>
<!-- Node557&#45;&gt;Node559 -->
<g id="edge3" class="edge"><title>Node557&#45;&gt;Node559</title>
<path fill="none" stroke="midnightblue" d="M308.293,-44.2925C320.515,-42.8508 332.991,-41.3791 344.866,-39.9782"/>
<polygon fill="midnightblue" stroke="midnightblue" points="307.627,-40.8467 298.106,-45.4942 308.447,-47.7985 307.627,-40.8467"/>
</g>
<!-- Node560 -->
<g id="node5" class="node"><title>Node560</title>
<g id="a_node5"><a xlink:href="../../df/d0a/main_8cpp.html#a0ddf1224851353fc92bfbff6f499fa97" target="_top" xlink:title="main">
<polygon fill="white" stroke="black" points="529,-22.5 529,-41.5 567,-41.5 567,-22.5 529,-22.5"/>
<text text-anchor="middle" x="548" y="-29.5" font-family="Helvetica,sans-Serif" font-size="10.00">main</text>
</a>
</g>
</g>
<!-- Node559&#45;&gt;Node560 -->
<g id="edge4" class="edge"><title>Node559&#45;&gt;Node560</title>
<path fill="none" stroke="midnightblue" d="M492.325,-32C505.972,-32 518.944,-32 528.824,-32"/>
<polygon fill="midnightblue" stroke="midnightblue" points="492.303,-28.5001 482.303,-32 492.303,-35.5001 492.303,-28.5001"/>
</g>
<!-- Node561 -->
<g id="node6" class="node"><title>Node561</title>
<g id="a_node6"><a xlink:href="../../df/d0a/main_8cpp.html#a2922bc5d5c2d77a3020cfbf9df12aab0" target="_top" xlink:title="WinMain">
<polygon fill="white" stroke="black" points="603,-22.5 603,-41.5 658,-41.5 658,-22.5 603,-22.5"/>
<text text-anchor="middle" x="630.5" y="-29.5" font-family="Helvetica,sans-Serif" font-size="10.00">WinMain</text>
</a>
</g>
</g>
<!-- Node560&#45;&gt;Node561 -->
<g id="edge5" class="edge"><title>Node560&#45;&gt;Node561</title>
<path fill="none" stroke="midnightblue" d="M577.519,-32C585.73,-32 594.653,-32 602.752,-32"/>
<polygon fill="midnightblue" stroke="midnightblue" points="577.267,-28.5001 567.267,-32 577.267,-35.5001 577.267,-28.5001"/>
</g>
</g>
</svg>
        <g id="navigator" transform="translate(0 0)" fill="#404254">
                <rect fill="#f2f5e9" fill-opacity="0.5" stroke="#606060" stroke-width=".5" x="0" y="0" width="60" height="60"/>
                <use id="zoomplus" xlink:href="#zoomPlus" x="17" y="9" onmousedown="handleZoom(evt,'in')"/>
                <use id="zoomminus" xlink:href="#zoomMin" x="42" y="9" onmousedown="handleZoom(evt,'out')"/>
                <use id="reset" xlink:href="#resetDef" x="30" y="36" onmousedown="handleReset()"/>
                <g id="arrowUp" xlink:href="#dirArrow" transform="translate(30 24)" onmousedown="handlePan(0,-1)">
                  <use xlink:href="#rim" fill="#404040">
                        <set attributeName="fill" to="#808080" begin="arrowUp.mouseover" end="arrowUp.mouseout"/>
                  </use>
                  <path fill="none" stroke="white" stroke-width="1.5" d="M0,-3.0v7 M-2.5,-0.5L0,-3.0L2.5,-0.5"/>
                </g>
                <g id="arrowRight" xlink:href="#dirArrow" transform="rotate(90) translate(36 -43)" onmousedown="handlePan(1,0)">
                  <use xlink:href="#rim" fill="#404040">
                        <set attributeName="fill" to="#808080" begin="arrowRight.mouseover" end="arrowRight.mouseout"/>
                  </use>
                  <path fill="none" stroke="white" stroke-width="1.5" d="M0,-3.0v7 M-2.5,-0.5L0,-3.0L2.5,-0.5"/>
                </g>
                <g id="arrowDown" xlink:href="#dirArrow" transform="rotate(180) translate(-30 -48)" onmousedown="handlePan(0,1)">
                  <use xlink:href="#rim" fill="#404040">
                        <set attributeName="fill" to="#808080" begin="arrowDown.mouseover" end="arrowDown.mouseout"/>
                  </use>
                  <path fill="none" stroke="white" stroke-width="1.5" d="M0,-3.0v7 M-2.5,-0.5L0,-3.0L2.5,-0.5"/>
                </g>
                <g id="arrowLeft" xlink:href="#dirArrow" transform="rotate(270) translate(-36 17)" onmousedown="handlePan(-1,0)">
                  <use xlink:href="#rim" fill="#404040">
                        <set attributeName="fill" to="#808080" begin="arrowLeft.mouseover" end="arrowLeft.mouseout"/>
                  </use>
                  <path fill="none" stroke="white" stroke-width="1.5" d="M0,-3.0v7 M-2.5,-0.5L0,-3.0L2.5,-0.5"/>
                </g>
        </g>
        <svg viewBox="0 0 15 15" width="100%" height="30px" preserveAspectRatio="xMaxYMin meet">
         <g id="arrow_out" transform="scale(0.3 0.3)">
          <a xlink:href="class_ogre_im_gui_a6c64d0f1f8c3b156e8a5cbe02ccb93eb_icgraph_org.svg" target="_base">
           <rect id="button" ry="5" rx="5" y="6" x="6" height="38" width="38"
                fill="#f2f5e9" fill-opacity="0.5" stroke="#606060" stroke-width="1.0"/>
           <path id="arrow"
             d="M 11.500037,31.436501 C 11.940474,20.09759 22.043105,11.32322 32.158766,21.979434 L 37.068811,17.246167 C 37.068811,17.246167 37.088388,32 37.088388,32 L 22.160133,31.978069 C 22.160133,31.978069 26.997745,27.140456 26.997745,27.140456 C 18.528582,18.264221 13.291696,25.230495 11.500037,31.436501 z"
             style="fill:#404040;"/>
          </a>
         </g>
        </svg>
</svg>
