<?xml version="1.0" encoding="UTF-8" standalone="no"?>
<!DOCTYPE svg PUBLIC "-//W3C//DTD SVG 1.1//EN"
 "http://www.w3.org/Graphics/SVG/1.1/DTD/svg11.dtd">
<!-- Generated by graphviz version 2.38.0 (20140413.2041)
 -->
<!-- Title: OgreImGui::Init Pages: 1 -->
<svg width="577pt" height="104pt"
 viewBox="0.00 0.00 577.00 104.00" xmlns="http://www.w3.org/2000/svg" xmlns:xlink="http://www.w3.org/1999/xlink">
<g id="graph0" class="graph" transform="scale(1 1) rotate(0) translate(4 100)">
<title>OgreImGui::Init</title>
<polygon fill="white" stroke="none" points="-4,4 -4,-100 573,-100 573,4 -4,4"/>
<!-- Node268 -->
<g id="node1" class="node"><title>Node268</title>
<polygon fill="#bfbfbf" stroke="black" points="0,-38.5 0,-57.5 82,-57.5 82,-38.5 0,-38.5"/>
<text text-anchor="middle" x="41" y="-45.5" font-family="Helvetica,sans-Serif" font-size="10.00">OgreImGui::Init</text>
</g>
<!-- Node269 -->
<g id="node2" class="node"><title>Node269</title>
<g id="a_node2"><a xlink:href="../../df/d13/namespace_im_gui.html#a3179e560812f878f3961ce803a5d9302" target="_top" xlink:title="ImGui::GetIO">
<polygon fill="white" stroke="black" points="334.5,-76.5 334.5,-95.5 408.5,-95.5 408.5,-76.5 334.5,-76.5"/>
<text text-anchor="middle" x="371.5" y="-83.5" font-family="Helvetica,sans-Serif" font-size="10.00">ImGui::GetIO</text>
</a>
</g>
</g>
<!-- Node268&#45;&gt;Node269 -->
<g id="edge1" class="edge"><title>Node268&#45;&gt;Node269</title>
<path fill="none" stroke="midnightblue" d="M75.0416,-57.5588C88.2915,-61.0502 103.768,-64.7026 118,-67 189.459,-78.5351 273.452,-83.0919 324.293,-84.8751"/>
<polygon fill="midnightblue" stroke="midnightblue" points="324.204,-88.374 334.314,-85.2055 324.435,-81.3778 324.204,-88.374"/>
</g>
<!-- Node270 -->
<g id="node3" class="node"><title>Node270</title>
<g id="a_node3"><a xlink:href="../../d5/d56/class_ogre_im_gui.html#a9b4b9c3befcbb6525fada527427426fb" target="_top" xlink:title="OgreImGui::createFontTexture">
<polygon fill="white" stroke="black" points="118,-38.5 118,-57.5 266,-57.5 266,-38.5 118,-38.5"/>
<text text-anchor="middle" x="192" y="-45.5" font-family="Helvetica,sans-Serif" font-size="10.00">OgreImGui::createFontTexture</text>
</a>
</g>
</g>
<!-- Node268&#45;&gt;Node270 -->
<g id="edge2" class="edge"><title>Node268&#45;&gt;Node270</title>
<path fill="none" stroke="midnightblue" d="M82.3215,-48C90.3368,-48 99.0259,-48 107.88,-48"/>
<polygon fill="midnightblue" stroke="midnightblue" points="107.919,-51.5001 117.919,-48 107.919,-44.5001 107.919,-51.5001"/>
</g>
<!-- Node273 -->
<g id="node6" class="node"><title>Node273</title>
<g id="a_node6"><a xlink:href="../../d5/d56/class_ogre_im_gui.html#a134e7a4974763bf927768729d902f5b2" target="_top" xlink:title="OgreImGui::createMaterial">
<polygon fill="white" stroke="black" points="126.5,-0.5 126.5,-19.5 257.5,-19.5 257.5,-0.5 126.5,-0.5"/>
<text text-anchor="middle" x="192" y="-7.5" font-family="Helvetica,sans-Serif" font-size="10.00">OgreImGui::createMaterial</text>
</a>
</g>
</g>
<!-- Node268&#45;&gt;Node273 -->
<g id="edge6" class="edge"><title>Node268&#45;&gt;Node273</title>
<path fill="none" stroke="midnightblue" d="M79.599,-38.411C99.084,-33.4417 123.075,-27.3233 143.796,-22.0387"/>
<polygon fill="midnightblue" stroke="midnightblue" points="144.846,-25.3828 153.671,-19.5201 143.117,-18.5999 144.846,-25.3828"/>
</g>
<!-- Node270&#45;&gt;Node269 -->
<g id="edge3" class="edge"><title>Node270&#45;&gt;Node269</title>
<path fill="none" stroke="midnightblue" d="M237.791,-57.589C264.291,-63.2623 297.787,-70.4334 324.497,-76.1515"/>
<polygon fill="midnightblue" stroke="midnightblue" points="323.862,-79.5947 334.373,-78.2658 325.327,-72.7498 323.862,-79.5947"/>
</g>
<!-- Node271 -->
<g id="node4" class="node"><title>Node271</title>
<g id="a_node4"><a xlink:href="../../d5/d9e/struct_im_font_atlas.html#a8abb0c4e67ebb38249d4df71218c4eec" target="_top" xlink:title="ImFontAtlas::GetTexDataAs\lRGBA32">
<polygon fill="white" stroke="black" points="302,-27 302,-57 441,-57 441,-27 302,-27"/>
<text text-anchor="start" x="310" y="-45" font-family="Helvetica,sans-Serif" font-size="10.00">ImFontAtlas::GetTexDataAs</text>
<text text-anchor="middle" x="371.5" y="-34" font-family="Helvetica,sans-Serif" font-size="10.00">RGBA32</text>
</a>
</g>
</g>
<!-- Node270&#45;&gt;Node271 -->
<g id="edge4" class="edge"><title>Node270&#45;&gt;Node271</title>
<path fill="none" stroke="midnightblue" d="M266.221,-45.5249C274.572,-45.2427 283.112,-44.954 291.533,-44.6693"/>
<polygon fill="midnightblue" stroke="midnightblue" points="291.849,-48.1607 301.725,-44.3248 291.612,-41.1647 291.849,-48.1607"/>
</g>
<!-- Node272 -->
<g id="node5" class="node"><title>Node272</title>
<g id="a_node5"><a xlink:href="../../df/d13/namespace_im_gui.html#a15efb2cac4a54b35489c5984ba1b661a" target="_top" xlink:title="ImGui::MemAlloc">
<polygon fill="white" stroke="black" points="477,-32.5 477,-51.5 569,-51.5 569,-32.5 477,-32.5"/>
<text text-anchor="middle" x="523" y="-39.5" font-family="Helvetica,sans-Serif" font-size="10.00">ImGui::MemAlloc</text>
</a>
</g>
</g>
<!-- Node271&#45;&gt;Node272 -->
<g id="edge5" class="edge"><title>Node271&#45;&gt;Node272</title>
<path fill="none" stroke="midnightblue" d="M441.124,-42C449.747,-42 458.478,-42 466.856,-42"/>
<polygon fill="midnightblue" stroke="midnightblue" points="466.869,-45.5001 476.869,-42 466.869,-38.5001 466.869,-45.5001"/>
</g>
</g>
</svg>
