<?xml version="1.0" encoding="UTF-8" standalone="no"?>
<!DOCTYPE svg PUBLIC "-//W3C//DTD SVG 1.1//EN"
 "http://www.w3.org/Graphics/SVG/1.1/DTD/svg11.dtd">
<!-- Generated by graphviz version 2.38.0 (20140413.2041)
 -->
<!-- Title: OgreImGui::createFontTexture Pages: 1 -->
<!--zoomable 85 -->
<svg id="main" version="1.1" xmlns="http://www.w3.org/2000/svg" xmlns:xlink="http://www.w3.org/1999/xlink" xml:space="preserve" onload="init(evt)">
<style type="text/css"><![CDATA[
.edge:hover path { stroke: red; }
.edge:hover polygon { stroke: red; fill: red; }
]]></style>
<script type="text/javascript"><![CDATA[
var edges = document.getElementsByTagName('g');
if (edges && edges.length) {
  for (var i=0;i<edges.length;i++) {
    if (edges[i].id.substr(0,4)=='edge') {
      edges[i].setAttribute('class','edge');
    }
  }
}
]]></script>
        <defs>
                <circle id="rim" cx="0" cy="0" r="7"/>
                <circle id="rim2" cx="0" cy="0" r="3.5"/>
                <g id="zoomPlus">
                        <use xlink:href="#rim" fill="#404040">
                                <set attributeName="fill" to="#808080" begin="zoomplus.mouseover" end="zoomplus.mouseout"/>
                        </use>
                        <path d="M-4,0h8M0,-4v8" fill="none" stroke="white" stroke-width="1.5" pointer-events="none"/>
                </g>
                <g id="zoomMin">
                        <use xlink:href="#rim" fill="#404040">
                                <set attributeName="fill" to="#808080" begin="zoomminus.mouseover" end="zoomminus.mouseout"/>
                        </use>
                        <path d="M-4,0h8" fill="none" stroke="white" stroke-width="1.5" pointer-events="none"/>
                </g>
                <g id="dirArrow">
                        <path fill="none" stroke="white" stroke-width="1.5" d="M0,-3.0v7 M-2.5,-0.5L0,-3.0L2.5,-0.5"/>
                </g>
               <g id="resetDef">
                       <use xlink:href="#rim2" fill="#404040">
                               <set attributeName="fill" to="#808080" begin="reset.mouseover" end="reset.mouseout"/>
                       </use>
               </g>
        </defs>

<script type="text/javascript">
var viewWidth = 836;
var viewHeight = 85;
var sectionId = 'dynsection-2';
</script>
<script xlink:href="../../svgpan.js"/>
<svg id="graph" class="graph">
<g id="viewport">
<title>OgreImGui::createFontTexture</title>
<polygon fill="white" stroke="none" points="-4,4 -4,-81 832,-81 832,4 -4,4"/>
<!-- Node253 -->
<g id="node1" class="node"><title>Node253</title>
<polygon fill="#bfbfbf" stroke="black" points="0,-19.5 0,-38.5 148,-38.5 148,-19.5 0,-19.5"/>
<text text-anchor="middle" x="74" y="-26.5" font-family="Helvetica,sans-Serif" font-size="10.00">OgreImGui::createFontTexture</text>
</g>
<!-- Node254 -->
<g id="node2" class="node"><title>Node254</title>
<g id="a_node2"><a xlink:href="../../d5/d56/class_ogre_im_gui.html#abd3a0ed753e5987d88b249f3ff8ff7a3" target="_top" xlink:title="OgreImGui::Init">
<polygon fill="white" stroke="black" points="184,-19.5 184,-38.5 266,-38.5 266,-19.5 184,-19.5"/>
<text text-anchor="middle" x="225" y="-26.5" font-family="Helvetica,sans-Serif" font-size="10.00">OgreImGui::Init</text>
</a>
</g>
</g>
<!-- Node253&#45;&gt;Node254 -->
<g id="edge1" class="edge"><title>Node253&#45;&gt;Node254</title>
<path fill="none" stroke="midnightblue" d="M158.196,-29C167.02,-29 175.678,-29 183.668,-29"/>
<polygon fill="midnightblue" stroke="midnightblue" points="158.191,-25.5001 148.19,-29 158.19,-32.5001 158.191,-25.5001"/>
</g>
<!-- Node255 -->
<g id="node3" class="node"><title>Node255</title>
<g id="a_node3"><a xlink:href="../../d8/d11/class_ro_r_1_1_g_u_i_manager.html#ada62f2a3ed1916148c573d45c00b45bc" target="_top" xlink:title="RoR::GUIManager::SetupImGui">
<polygon fill="white" stroke="black" points="302,-38.5 302,-57.5 454,-57.5 454,-38.5 302,-38.5"/>
<text text-anchor="middle" x="378" y="-45.5" font-family="Helvetica,sans-Serif" font-size="10.00">RoR::GUIManager::SetupImGui</text>
</a>
</g>
</g>
<!-- Node254&#45;&gt;Node255 -->
<g id="edge2" class="edge"><title>Node254&#45;&gt;Node255</title>
<path fill="none" stroke="midnightblue" d="M276.266,-35.3248C284.536,-36.3655 293.263,-37.4635 301.981,-38.5606"/>
<polygon fill="midnightblue" stroke="midnightblue" points="276.428,-31.8177 266.069,-34.0418 275.554,-38.7629 276.428,-31.8177"/>
</g>
<!-- Node259 -->
<g id="node7" class="node"><title>Node259</title>
<g id="a_node7"><a xlink:href="../../d5/d56/class_ogre_im_gui.html#ad19fd285bb4aaa44039201a20c39a75f" target="_top" xlink:title="OgreImGui::OgreImGui">
<polygon fill="white" stroke="black" points="320,-0.5 320,-19.5 436,-19.5 436,-0.5 320,-0.5"/>
<text text-anchor="middle" x="378" y="-7.5" font-family="Helvetica,sans-Serif" font-size="10.00">OgreImGui::OgreImGui</text>
</a>
</g>
</g>
<!-- Node254&#45;&gt;Node259 -->
<g id="edge6" class="edge"><title>Node254&#45;&gt;Node259</title>
<path fill="none" stroke="midnightblue" d="M276.046,-22.7028C290.118,-20.9321 305.526,-18.9934 319.973,-17.1756"/>
<polygon fill="midnightblue" stroke="midnightblue" points="275.554,-19.2371 266.069,-23.9582 276.428,-26.1823 275.554,-19.2371"/>
</g>
<!-- Node256 -->
<g id="node4" class="node"><title>Node256</title>
<g id="a_node4"><a xlink:href="../../d8/d11/class_ro_r_1_1_g_u_i_manager.html#a35dc350dea57ef0356030eb1b47485b5" target="_top" xlink:title="RoR::GUIManager::GUIManager">
<polygon fill="white" stroke="black" points="490,-57.5 490,-76.5 645,-76.5 645,-57.5 490,-57.5"/>
<text text-anchor="middle" x="567.5" y="-64.5" font-family="Helvetica,sans-Serif" font-size="10.00">RoR::GUIManager::GUIManager</text>
</a>
</g>
</g>
<!-- Node255&#45;&gt;Node256 -->
<g id="edge3" class="edge"><title>Node255&#45;&gt;Node256</title>
<path fill="none" stroke="midnightblue" d="M464.147,-56.6283C472.688,-57.4937 481.324,-58.3688 489.77,-59.2246"/>
<polygon fill="midnightblue" stroke="midnightblue" points="464.485,-53.1446 454.183,-55.6185 463.779,-60.109 464.485,-53.1446"/>
</g>
<!-- Node257 -->
<g id="node5" class="node"><title>Node257</title>
<g id="a_node5"><a xlink:href="../../d8/d11/class_ro_r_1_1_g_u_i_manager.html#a4ab273bd0538649818c84b38e8a06100" target="_top" xlink:title="RoR::GUIManager::GetTheme">
<polygon fill="white" stroke="black" points="494.5,-19.5 494.5,-38.5 640.5,-38.5 640.5,-19.5 494.5,-19.5"/>
<text text-anchor="middle" x="567.5" y="-26.5" font-family="Helvetica,sans-Serif" font-size="10.00">RoR::GUIManager::GetTheme</text>
</a>
</g>
</g>
<!-- Node255&#45;&gt;Node257 -->
<g id="edge4" class="edge"><title>Node255&#45;&gt;Node257</title>
<path fill="none" stroke="midnightblue" d="M464.196,-39.3668C474.27,-38.346 484.477,-37.3116 494.347,-36.3115"/>
<polygon fill="midnightblue" stroke="midnightblue" points="463.779,-35.891 454.183,-40.3815 464.485,-42.8554 463.779,-35.891"/>
</g>
<!-- Node258 -->
<g id="node6" class="node"><title>Node258</title>
<g id="a_node6"><a xlink:href="../../d4/d8f/class_ro_r_1_1_g_u_i_1_1_multiplayer_selector.html#a8c98e9ba03c8afb1d1a26ec06192862e" target="_top" xlink:title="RoR::GUI::MultiplayerSelector\l::~MultiplayerSelector">
<polygon fill="white" stroke="black" points="681,-14 681,-44 828,-44 828,-14 681,-14"/>
<text text-anchor="start" x="689" y="-32" font-family="Helvetica,sans-Serif" font-size="10.00">RoR::GUI::MultiplayerSelector</text>
<text text-anchor="middle" x="754.5" y="-21" font-family="Helvetica,sans-Serif" font-size="10.00">::~MultiplayerSelector</text>
</a>
</g>
</g>
<!-- Node257&#45;&gt;Node258 -->
<g id="edge5" class="edge"><title>Node257&#45;&gt;Node258</title>
<path fill="none" stroke="midnightblue" d="M650.853,-29C660.809,-29 670.923,-29 680.727,-29"/>
<polygon fill="midnightblue" stroke="midnightblue" points="650.556,-25.5001 640.556,-29 650.556,-32.5001 650.556,-25.5001"/>
</g>
</g>
</svg>
        <g id="navigator" transform="translate(0 0)" fill="#404254">
                <rect fill="#f2f5e9" fill-opacity="0.5" stroke="#606060" stroke-width=".5" x="0" y="0" width="60" height="60"/>
                <use id="zoomplus" xlink:href="#zoomPlus" x="17" y="9" onmousedown="handleZoom(evt,'in')"/>
                <use id="zoomminus" xlink:href="#zoomMin" x="42" y="9" onmousedown="handleZoom(evt,'out')"/>
                <use id="reset" xlink:href="#resetDef" x="30" y="36" onmousedown="handleReset()"/>
                <g id="arrowUp" xlink:href="#dirArrow" transform="translate(30 24)" onmousedown="handlePan(0,-1)">
                  <use xlink:href="#rim" fill="#404040">
                        <set attributeName="fill" to="#808080" begin="arrowUp.mouseover" end="arrowUp.mouseout"/>
                  </use>
                  <path fill="none" stroke="white" stroke-width="1.5" d="M0,-3.0v7 M-2.5,-0.5L0,-3.0L2.5,-0.5"/>
                </g>
                <g id="arrowRight" xlink:href="#dirArrow" transform="rotate(90) translate(36 -43)" onmousedown="handlePan(1,0)">
                  <use xlink:href="#rim" fill="#404040">
                        <set attributeName="fill" to="#808080" begin="arrowRight.mouseover" end="arrowRight.mouseout"/>
                  </use>
                  <path fill="none" stroke="white" stroke-width="1.5" d="M0,-3.0v7 M-2.5,-0.5L0,-3.0L2.5,-0.5"/>
                </g>
                <g id="arrowDown" xlink:href="#dirArrow" transform="rotate(180) translate(-30 -48)" onmousedown="handlePan(0,1)">
                  <use xlink:href="#rim" fill="#404040">
                        <set attributeName="fill" to="#808080" begin="arrowDown.mouseover" end="arrowDown.mouseout"/>
                  </use>
                  <path fill="none" stroke="white" stroke-width="1.5" d="M0,-3.0v7 M-2.5,-0.5L0,-3.0L2.5,-0.5"/>
                </g>
                <g id="arrowLeft" xlink:href="#dirArrow" transform="rotate(270) translate(-36 17)" onmousedown="handlePan(-1,0)">
                  <use xlink:href="#rim" fill="#404040">
                        <set attributeName="fill" to="#808080" begin="arrowLeft.mouseover" end="arrowLeft.mouseout"/>
                  </use>
                  <path fill="none" stroke="white" stroke-width="1.5" d="M0,-3.0v7 M-2.5,-0.5L0,-3.0L2.5,-0.5"/>
                </g>
        </g>
        <svg viewBox="0 0 15 15" width="100%" height="30px" preserveAspectRatio="xMaxYMin meet">
         <g id="arrow_out" transform="scale(0.3 0.3)">
          <a xlink:href="class_ogre_im_gui_a9b4b9c3befcbb6525fada527427426fb_icgraph_org.svg" target="_base">
           <rect id="button" ry="5" rx="5" y="6" x="6" height="38" width="38"
                fill="#f2f5e9" fill-opacity="0.5" stroke="#606060" stroke-width="1.0"/>
           <path id="arrow"
             d="M 11.500037,31.436501 C 11.940474,20.09759 22.043105,11.32322 32.158766,21.979434 L 37.068811,17.246167 C 37.068811,17.246167 37.088388,32 37.088388,32 L 22.160133,31.978069 C 22.160133,31.978069 26.997745,27.140456 26.997745,27.140456 C 18.528582,18.264221 13.291696,25.230495 11.500037,31.436501 z"
             style="fill:#404040;"/>
          </a>
         </g>
        </svg>
</svg>
