<?xml version="1.0" encoding="UTF-8" standalone="no"?>
<!DOCTYPE svg PUBLIC "-//W3C//DTD SVG 1.1//EN"
 "http://www.w3.org/Graphics/SVG/1.1/DTD/svg11.dtd">
<!-- Generated by graphviz version 2.38.0 (20140413.2041)
 -->
<!-- Title: OgreImGui::createFontTexture Pages: 1 -->
<svg width="459pt" height="78pt"
 viewBox="0.00 0.00 459.00 77.50" xmlns="http://www.w3.org/2000/svg" xmlns:xlink="http://www.w3.org/1999/xlink">
<g id="graph0" class="graph" transform="scale(1 1) rotate(0) translate(4 73.5)">
<title>OgreImGui::createFontTexture</title>
<polygon fill="white" stroke="none" points="-4,4 -4,-73.5 455,-73.5 455,4 -4,4"/>
<!-- Node249 -->
<g id="node1" class="node"><title>Node249</title>
<polygon fill="#bfbfbf" stroke="black" points="0,-28 0,-47 148,-47 148,-28 0,-28"/>
<text text-anchor="middle" x="74" y="-35" font-family="Helvetica,sans-Serif" font-size="10.00">OgreImGui::createFontTexture</text>
</g>
<!-- Node250 -->
<g id="node2" class="node"><title>Node250</title>
<g id="a_node2"><a xlink:href="../../df/d13/namespace_im_gui.html#a3179e560812f878f3961ce803a5d9302" target="_top" xlink:title="ImGui::GetIO">
<polygon fill="white" stroke="black" points="216.5,-50 216.5,-69 290.5,-69 290.5,-50 216.5,-50"/>
<text text-anchor="middle" x="253.5" y="-57" font-family="Helvetica,sans-Serif" font-size="10.00">ImGui::GetIO</text>
</a>
</g>
</g>
<!-- Node249&#45;&gt;Node250 -->
<g id="edge1" class="edge"><title>Node249&#45;&gt;Node250</title>
<path fill="none" stroke="midnightblue" d="M148.221,-46.5753C167.859,-49.0093 188.544,-51.573 206.267,-53.7697"/>
<polygon fill="midnightblue" stroke="midnightblue" points="205.975,-57.2602 216.329,-55.0169 206.836,-50.3134 205.975,-57.2602"/>
</g>
<!-- Node251 -->
<g id="node3" class="node"><title>Node251</title>
<g id="a_node3"><a xlink:href="../../d5/d9e/struct_im_font_atlas.html#a8abb0c4e67ebb38249d4df71218c4eec" target="_top" xlink:title="ImFontAtlas::GetTexDataAs\lRGBA32">
<polygon fill="white" stroke="black" points="184,-0.5 184,-30.5 323,-30.5 323,-0.5 184,-0.5"/>
<text text-anchor="start" x="192" y="-18.5" font-family="Helvetica,sans-Serif" font-size="10.00">ImFontAtlas::GetTexDataAs</text>
<text text-anchor="middle" x="253.5" y="-7.5" font-family="Helvetica,sans-Serif" font-size="10.00">RGBA32</text>
</a>
</g>
</g>
<!-- Node249&#45;&gt;Node251 -->
<g id="edge2" class="edge"><title>Node249&#45;&gt;Node251</title>
<path fill="none" stroke="midnightblue" d="M148.221,-28.4247C156.572,-27.3897 165.112,-26.3312 173.533,-25.2875"/>
<polygon fill="midnightblue" stroke="midnightblue" points="174.231,-28.7278 183.725,-24.0242 173.37,-21.7809 174.231,-28.7278"/>
</g>
<!-- Node252 -->
<g id="node4" class="node"><title>Node252</title>
<g id="a_node4"><a xlink:href="../../df/d13/namespace_im_gui.html#a15efb2cac4a54b35489c5984ba1b661a" target="_top" xlink:title="ImGui::MemAlloc">
<polygon fill="white" stroke="black" points="359,-6 359,-25 451,-25 451,-6 359,-6"/>
<text text-anchor="middle" x="405" y="-13" font-family="Helvetica,sans-Serif" font-size="10.00">ImGui::MemAlloc</text>
</a>
</g>
</g>
<!-- Node251&#45;&gt;Node252 -->
<g id="edge3" class="edge"><title>Node251&#45;&gt;Node252</title>
<path fill="none" stroke="midnightblue" d="M323.124,-15.5C331.747,-15.5 340.478,-15.5 348.856,-15.5"/>
<polygon fill="midnightblue" stroke="midnightblue" points="348.869,-19.0001 358.869,-15.5 348.869,-12.0001 348.869,-19.0001"/>
</g>
</g>
</svg>
