<?xml version="1.0" encoding="UTF-8" standalone="no"?>
<!DOCTYPE svg PUBLIC "-//W3C//DTD SVG 1.1//EN"
 "http://www.w3.org/Graphics/SVG/1.1/DTD/svg11.dtd">
<!-- Generated by graphviz version 2.38.0 (20140413.2041)
 -->
<!-- Title: FlexBody::flexitPrepare Pages: 1 -->
<svg width="425pt" height="66pt"
 viewBox="0.00 0.00 425.00 66.00" xmlns="http://www.w3.org/2000/svg" xmlns:xlink="http://www.w3.org/1999/xlink">
<g id="graph0" class="graph" transform="scale(1 1) rotate(0) translate(4 62)">
<title>FlexBody::flexitPrepare</title>
<polygon fill="white" stroke="none" points="-4,4 -4,-62 421,-62 421,4 -4,4"/>
<!-- Node14 -->
<g id="node1" class="node"><title>Node14</title>
<polygon fill="#bfbfbf" stroke="black" points="0,-19.5 0,-38.5 118,-38.5 118,-19.5 0,-19.5"/>
<text text-anchor="middle" x="59" y="-26.5" font-family="Helvetica,sans-Serif" font-size="10.00">FlexBody::flexitPrepare</text>
</g>
<!-- Node15 -->
<g id="node2" class="node"><title>Node15</title>
<g id="a_node2"><a xlink:href="../../d4/d49/class_flex_body.html#a41377c167bf00200b30d25fdd660054c" target="_top" xlink:title="FlexBody::updateBlend">
<polygon fill="white" stroke="black" points="154,-38.5 154,-57.5 272,-57.5 272,-38.5 154,-38.5"/>
<text text-anchor="middle" x="213" y="-45.5" font-family="Helvetica,sans-Serif" font-size="10.00">FlexBody::updateBlend</text>
</a>
</g>
</g>
<!-- Node14&#45;&gt;Node15 -->
<g id="edge1" class="edge"><title>Node14&#45;&gt;Node15</title>
<path fill="none" stroke="midnightblue" d="M118.332,-36.2916C126.697,-37.3371 135.363,-38.4204 143.895,-39.4869"/>
<polygon fill="midnightblue" stroke="midnightblue" points="143.467,-42.9605 153.824,-40.728 144.335,-36.0145 143.467,-42.9605"/>
</g>
<!-- Node17 -->
<g id="node4" class="node"><title>Node17</title>
<g id="a_node4"><a xlink:href="../../df/d52/_approx_math_8h.html#a88cab057c9c3a7a5cbaa1aebb06bf864" target="_top" xlink:title="fast_normalise">
<polygon fill="white" stroke="black" points="173,-0.5 173,-19.5 253,-19.5 253,-0.5 173,-0.5"/>
<text text-anchor="middle" x="213" y="-7.5" font-family="Helvetica,sans-Serif" font-size="10.00">fast_normalise</text>
</a>
</g>
</g>
<!-- Node14&#45;&gt;Node17 -->
<g id="edge3" class="edge"><title>Node14&#45;&gt;Node17</title>
<path fill="none" stroke="midnightblue" d="M118.332,-21.7084C133.019,-19.8726 148.637,-17.9204 162.825,-16.1469"/>
<polygon fill="midnightblue" stroke="midnightblue" points="163.38,-19.6048 172.869,-14.8914 162.512,-12.6589 163.38,-19.6048"/>
</g>
<!-- Node16 -->
<g id="node3" class="node"><title>Node16</title>
<g id="a_node3"><a xlink:href="../../d4/d49/class_flex_body.html#aa96f6ec571c0b0c0256731014f08d252" target="_top" xlink:title="FlexBody::writeBlend">
<polygon fill="white" stroke="black" points="308,-38.5 308,-57.5 417,-57.5 417,-38.5 308,-38.5"/>
<text text-anchor="middle" x="362.5" y="-45.5" font-family="Helvetica,sans-Serif" font-size="10.00">FlexBody::writeBlend</text>
</a>
</g>
</g>
<!-- Node15&#45;&gt;Node16 -->
<g id="edge2" class="edge"><title>Node15&#45;&gt;Node16</title>
<path fill="none" stroke="midnightblue" d="M272.296,-48C280.654,-48 289.29,-48 297.747,-48"/>
<polygon fill="midnightblue" stroke="midnightblue" points="297.943,-51.5001 307.943,-48 297.943,-44.5001 297.943,-51.5001"/>
</g>
<!-- Node18 -->
<g id="node5" class="node"><title>Node18</title>
<g id="a_node5"><a xlink:href="../../df/d52/_approx_math_8h.html#a08e9e14c091640464aae072f3823b855" target="_top" xlink:title="fast_invSqrt">
<polygon fill="white" stroke="black" points="329,-0.5 329,-19.5 396,-19.5 396,-0.5 329,-0.5"/>
<text text-anchor="middle" x="362.5" y="-7.5" font-family="Helvetica,sans-Serif" font-size="10.00">fast_invSqrt</text>
</a>
</g>
</g>
<!-- Node17&#45;&gt;Node18 -->
<g id="edge4" class="edge"><title>Node17&#45;&gt;Node18</title>
<path fill="none" stroke="midnightblue" d="M253.14,-10C273.291,-10 297.901,-10 318.571,-10"/>
<polygon fill="midnightblue" stroke="midnightblue" points="318.671,-13.5001 328.671,-10 318.67,-6.5001 318.671,-13.5001"/>
</g>
</g>
</svg>
