<?xml version="1.0" encoding="UTF-8" standalone="no"?>
<!DOCTYPE svg PUBLIC "-//W3C//DTD SVG 1.1//EN"
 "http://www.w3.org/Graphics/SVG/1.1/DTD/svg11.dtd">
<!-- Generated by graphviz version 2.38.0 (20140413.2041)
 -->
<!-- Title: FlexBody::writeBlend Pages: 1 -->
<svg width="425pt" height="66pt"
 viewBox="0.00 0.00 425.00 66.00" xmlns="http://www.w3.org/2000/svg" xmlns:xlink="http://www.w3.org/1999/xlink">
<g id="graph0" class="graph" transform="scale(1 1) rotate(0) translate(4 62)">
<title>FlexBody::writeBlend</title>
<polygon fill="white" stroke="none" points="-4,4 -4,-62 421,-62 421,4 -4,4"/>
<!-- Node44 -->
<g id="node1" class="node"><title>Node44</title>
<polygon fill="#bfbfbf" stroke="black" points="0,-19.5 0,-38.5 109,-38.5 109,-19.5 0,-19.5"/>
<text text-anchor="middle" x="54.5" y="-26.5" font-family="Helvetica,sans-Serif" font-size="10.00">FlexBody::writeBlend</text>
</g>
<!-- Node45 -->
<g id="node2" class="node"><title>Node45</title>
<g id="a_node2"><a xlink:href="../../d4/d49/class_flex_body.html#ac72f93946b60214bfe17069354e7eada" target="_top" xlink:title="FlexBody::reset">
<polygon fill="white" stroke="black" points="161,-38.5 161,-57.5 247,-57.5 247,-38.5 161,-38.5"/>
<text text-anchor="middle" x="204" y="-45.5" font-family="Helvetica,sans-Serif" font-size="10.00">FlexBody::reset</text>
</a>
</g>
</g>
<!-- Node44&#45;&gt;Node45 -->
<g id="edge1" class="edge"><title>Node44&#45;&gt;Node45</title>
<path fill="none" stroke="midnightblue" d="M119.257,-37.2127C133.271,-39.018 147.776,-40.8864 160.697,-42.5508"/>
<polygon fill="midnightblue" stroke="midnightblue" points="119.533,-33.7195 109.168,-35.9132 118.639,-40.6622 119.533,-33.7195"/>
</g>
<!-- Node46 -->
<g id="node3" class="node"><title>Node46</title>
<g id="a_node3"><a xlink:href="../../d4/d49/class_flex_body.html#a41377c167bf00200b30d25fdd660054c" target="_top" xlink:title="FlexBody::updateBlend">
<polygon fill="white" stroke="black" points="145,-0.5 145,-19.5 263,-19.5 263,-0.5 145,-0.5"/>
<text text-anchor="middle" x="204" y="-7.5" font-family="Helvetica,sans-Serif" font-size="10.00">FlexBody::updateBlend</text>
</a>
</g>
</g>
<!-- Node44&#45;&gt;Node46 -->
<g id="edge2" class="edge"><title>Node44&#45;&gt;Node46</title>
<path fill="none" stroke="midnightblue" d="M119.11,-20.8062C127.676,-19.7028 136.428,-18.5754 144.892,-17.4851"/>
<polygon fill="midnightblue" stroke="midnightblue" points="118.639,-17.3378 109.168,-22.0868 119.533,-24.2805 118.639,-17.3378"/>
</g>
<!-- Node47 -->
<g id="node4" class="node"><title>Node47</title>
<g id="a_node4"><a xlink:href="../../d4/d49/class_flex_body.html#aebd1dda9199b5d65f493c568eb617677" target="_top" xlink:title="FlexBody::flexitPrepare">
<polygon fill="white" stroke="black" points="299,-0.5 299,-19.5 417,-19.5 417,-0.5 299,-0.5"/>
<text text-anchor="middle" x="358" y="-7.5" font-family="Helvetica,sans-Serif" font-size="10.00">FlexBody::flexitPrepare</text>
</a>
</g>
</g>
<!-- Node46&#45;&gt;Node47 -->
<g id="edge3" class="edge"><title>Node46&#45;&gt;Node47</title>
<path fill="none" stroke="midnightblue" d="M273.542,-10C281.986,-10 290.554,-10 298.824,-10"/>
<polygon fill="midnightblue" stroke="midnightblue" points="273.332,-6.5001 263.332,-10 273.332,-13.5001 273.332,-6.5001"/>
</g>
</g>
</svg>
