<?xml version="1.0" encoding="UTF-8" standalone="no"?>
<!DOCTYPE svg PUBLIC "-//W3C//DTD SVG 1.1//EN"
 "http://www.w3.org/Graphics/SVG/1.1/DTD/svg11.dtd">
<!-- Generated by graphviz version 2.38.0 (20140413.2041)
 -->
<!-- Title: SkyX::VClouds::GeometryBlock Pages: 1 -->
<!--zoomable 361 -->
<svg id="main" version="1.1" xmlns="http://www.w3.org/2000/svg" xmlns:xlink="http://www.w3.org/1999/xlink" xml:space="preserve" onload="init(evt)">
<style type="text/css"><![CDATA[
.edge:hover path { stroke: red; }
.edge:hover polygon { stroke: red; fill: red; }
]]></style>
<script type="text/javascript"><![CDATA[
var edges = document.getElementsByTagName('g');
if (edges && edges.length) {
  for (var i=0;i<edges.length;i++) {
    if (edges[i].id.substr(0,4)=='edge') {
      edges[i].setAttribute('class','edge');
    }
  }
}
]]></script>
        <defs>
                <circle id="rim" cx="0" cy="0" r="7"/>
                <circle id="rim2" cx="0" cy="0" r="3.5"/>
                <g id="zoomPlus">
                        <use xlink:href="#rim" fill="#404040">
                                <set attributeName="fill" to="#808080" begin="zoomplus.mouseover" end="zoomplus.mouseout"/>
                        </use>
                        <path d="M-4,0h8M0,-4v8" fill="none" stroke="white" stroke-width="1.5" pointer-events="none"/>
                </g>
                <g id="zoomMin">
                        <use xlink:href="#rim" fill="#404040">
                                <set attributeName="fill" to="#808080" begin="zoomminus.mouseover" end="zoomminus.mouseout"/>
                        </use>
                        <path d="M-4,0h8" fill="none" stroke="white" stroke-width="1.5" pointer-events="none"/>
                </g>
                <g id="dirArrow">
                        <path fill="none" stroke="white" stroke-width="1.5" d="M0,-3.0v7 M-2.5,-0.5L0,-3.0L2.5,-0.5"/>
                </g>
               <g id="resetDef">
                       <use xlink:href="#rim2" fill="#404040">
                               <set attributeName="fill" to="#808080" begin="reset.mouseover" end="reset.mouseout"/>
                       </use>
               </g>
        </defs>

<script type="text/javascript">
var viewWidth = 733;
var viewHeight = 361;
var sectionId = 'dynsection-0';
</script>
<script xlink:href="../../svgpan.js"/>
<svg id="graph" class="graph">
<g id="viewport">
<title>SkyX::VClouds::GeometryBlock</title>
<polygon fill="white" stroke="none" points="-4,4 -4,-356.503 729,-356.503 729,4 -4,4"/>
<!-- Node1 -->
<g id="node1" class="node"><title>Node1</title>
<polygon fill="#bfbfbf" stroke="black" points="563.5,-288.503 563.5,-307.503 718.5,-307.503 718.5,-288.503 563.5,-288.503"/>
<text text-anchor="middle" x="641" y="-295.503" font-family="Helvetica,sans-Serif" font-size="10.00">SkyX::VClouds::GeometryBlock</text>
</g>
<!-- Node2 -->
<g id="node2" class="node"><title>Node2</title>
<g id="a_node2"><a xlink:href="../../d6/d26/struct_sky_x_1_1_v_clouds_1_1_geometry_block_1_1_v_e_r_t_e_x.html" target="_top" xlink:title="SkyX::VClouds::GeometryBlock\l::VERTEX">
<polygon fill="white" stroke="black" points="269,-322.003 269,-352.003 424,-352.003 424,-322.003 269,-322.003"/>
<text text-anchor="start" x="277" y="-340.003" font-family="Helvetica,sans-Serif" font-size="10.00">SkyX::VClouds::GeometryBlock</text>
<text text-anchor="middle" x="346.5" y="-329.003" font-family="Helvetica,sans-Serif" font-size="10.00">::VERTEX</text>
</a>
</g>
</g>
<!-- Node2&#45;&gt;Node1 -->
<g id="edge1" class="edge"><title>Node2&#45;&gt;Node1</title>
<path fill="none" stroke="#9a32cd" stroke-dasharray="5,2" d="M434.477,-325.406C477.272,-319.7 528.218,-312.907 568.68,-307.512"/>
<polygon fill="#9a32cd" stroke="#9a32cd" points="433.801,-321.965 424.351,-326.756 434.726,-328.904 433.801,-321.965"/>
<text text-anchor="middle" x="493" y="-326.003" font-family="Helvetica,sans-Serif" font-size="10.00"> mVertices</text>
</g>
<!-- Node3 -->
<g id="node3" class="node"><title>Node3</title>
<g id="a_node3"><a xlink:href="../../d5/db6/class_sky_x_1_1_v_clouds_1_1_v_clouds.html" target="_top" xlink:title="SkyX::VClouds::VClouds">
<polygon fill="white" stroke="black" points="284,-102.503 284,-121.503 409,-121.503 409,-102.503 284,-102.503"/>
<text text-anchor="middle" x="346.5" y="-109.503" font-family="Helvetica,sans-Serif" font-size="10.00">SkyX::VClouds::VClouds</text>
</a>
</g>
</g>
<!-- Node3&#45;&gt;Node1 -->
<g id="edge2" class="edge"><title>Node3&#45;&gt;Node1</title>
<path fill="none" stroke="#9a32cd" stroke-dasharray="5,2" d="M369,-127.868C387.078,-142.149 412.537,-164.594 429,-189.003 441.276,-207.204 430.515,-220.504 447,-235.003 478.648,-262.838 498.875,-245.104 539,-258.003 566.83,-266.949 597.985,-279.726 618.237,-288.415"/>
<polygon fill="#9a32cd" stroke="#9a32cd" points="370.847,-124.873 360.79,-121.541 366.574,-130.417 370.847,-124.873"/>
<text text-anchor="middle" x="493" y="-261.003" font-family="Helvetica,sans-Serif" font-size="10.00"> mVClouds</text>
</g>
<!-- Node4 -->
<g id="node4" class="node"><title>Node4</title>
<g id="a_node4"><a xlink:href="../../dd/d4b/class_sky_x_1_1_v_clouds_1_1_data_manager.html" target="_top" xlink:title="SkyX::VClouds::DataManager">
<polygon fill="white" stroke="black" points="568,-187.503 568,-206.503 714,-206.503 714,-187.503 568,-187.503"/>
<text text-anchor="middle" x="641" y="-194.503" font-family="Helvetica,sans-Serif" font-size="10.00">SkyX::VClouds::DataManager</text>
</a>
</g>
</g>
<!-- Node3&#45;&gt;Node4 -->
<g id="edge6" class="edge"><title>Node3&#45;&gt;Node4</title>
<path fill="none" stroke="#9a32cd" stroke-dasharray="5,2" d="M373.925,-126.288C393.591,-136.403 421.353,-149.611 447,-158.003 488.099,-171.45 535.706,-181.131 573.355,-187.483"/>
<polygon fill="#9a32cd" stroke="#9a32cd" points="375.45,-123.136 364.966,-121.606 372.208,-129.34 375.45,-123.136"/>
<text text-anchor="middle" x="493" y="-184.003" font-family="Helvetica,sans-Serif" font-size="10.00"> mVClouds</text>
</g>
<!-- Node9 -->
<g id="node9" class="node"><title>Node9</title>
<g id="a_node9"><a xlink:href="../../d2/df0/class_sky_x_1_1_v_clouds_1_1_lightning_manager.html" target="_top" xlink:title="SkyX::VClouds::Lightning\lManager">
<polygon fill="white" stroke="black" points="577.5,-18.0028 577.5,-48.0028 704.5,-48.0028 704.5,-18.0028 577.5,-18.0028"/>
<text text-anchor="start" x="585.5" y="-36.0028" font-family="Helvetica,sans-Serif" font-size="10.00">SkyX::VClouds::Lightning</text>
<text text-anchor="middle" x="641" y="-25.0028" font-family="Helvetica,sans-Serif" font-size="10.00">Manager</text>
</a>
</g>
</g>
<!-- Node3&#45;&gt;Node9 -->
<g id="edge10" class="edge"><title>Node3&#45;&gt;Node9</title>
<path fill="none" stroke="#9a32cd" stroke-dasharray="5,2" d="M372.687,-97.3164C392.316,-86.5064 420.583,-72.3013 447,-64.0028 489.413,-50.6794 538.957,-42.8742 577.228,-38.4284"/>
<polygon fill="#9a32cd" stroke="#9a32cd" points="370.799,-94.3628 363.792,-102.31 374.225,-100.467 370.799,-94.3628"/>
<text text-anchor="middle" x="493" y="-67.0028" font-family="Helvetica,sans-Serif" font-size="10.00"> mVClouds</text>
</g>
<!-- Node10 -->
<g id="node10" class="node"><title>Node10</title>
<g id="a_node10"><a xlink:href="../../d4/da3/class_sky_x_1_1_v_clouds_1_1_geometry_manager.html" target="_top" xlink:title="SkyX::VClouds::GeometryManager">
<polygon fill="white" stroke="black" points="557,-79.5028 557,-98.5028 725,-98.5028 725,-79.5028 557,-79.5028"/>
<text text-anchor="middle" x="641" y="-86.5028" font-family="Helvetica,sans-Serif" font-size="10.00">SkyX::VClouds::GeometryManager</text>
</a>
</g>
</g>
<!-- Node3&#45;&gt;Node10 -->
<g id="edge12" class="edge"><title>Node3&#45;&gt;Node10</title>
<path fill="none" stroke="#9a32cd" stroke-dasharray="5,2" d="M382.464,-99.1726C401.3,-92.9374 425.107,-86.1282 447,-83.0028 482.676,-77.9098 522.422,-78.1521 556.529,-80.147"/>
<polygon fill="#9a32cd" stroke="#9a32cd" points="381.167,-95.9167 372.83,-102.454 383.424,-102.543 381.167,-95.9167"/>
<text text-anchor="middle" x="493" y="-86.0028" font-family="Helvetica,sans-Serif" font-size="10.00"> mVClouds</text>
</g>
<!-- Node4&#45;&gt;Node3 -->
<g id="edge3" class="edge"><title>Node4&#45;&gt;Node3</title>
<path fill="none" stroke="#9a32cd" stroke-dasharray="5,2" d="M615.41,-182.397C595.453,-171.149 566.255,-156.041 539,-147.003 496.816,-133.013 447.44,-124.16 409.392,-118.859"/>
<polygon fill="#9a32cd" stroke="#9a32cd" points="613.736,-185.471 624.152,-187.411 617.219,-179.399 613.736,-185.471"/>
<text text-anchor="middle" x="493" y="-150.003" font-family="Helvetica,sans-Serif" font-size="10.00"> mDataManager</text>
</g>
<!-- Node5 -->
<g id="node5" class="node"><title>Node5</title>
<g id="a_node5"><a xlink:href="../../d9/dcd/class_sky_x_1_1_v_clouds_1_1_fast_fake_random.html" target="_top" xlink:title="SkyX::VClouds::FastFakeRandom">
<polygon fill="white" stroke="black" points="264,-283.503 264,-302.503 429,-302.503 429,-283.503 264,-283.503"/>
<text text-anchor="middle" x="346.5" y="-290.503" font-family="Helvetica,sans-Serif" font-size="10.00">SkyX::VClouds::FastFakeRandom</text>
</a>
</g>
</g>
<!-- Node5&#45;&gt;Node4 -->
<g id="edge4" class="edge"><title>Node5&#45;&gt;Node4</title>
<path fill="none" stroke="#9a32cd" stroke-dasharray="5,2" d="M439.737,-292.024C472.013,-289.201 507.931,-283.173 539,-271.003 577.051,-256.097 613.685,-223.176 630.461,-206.738"/>
<polygon fill="#9a32cd" stroke="#9a32cd" points="439.093,-288.563 429.396,-292.832 439.639,-295.542 439.093,-288.563"/>
<text text-anchor="middle" x="493" y="-294.003" font-family="Helvetica,sans-Serif" font-size="10.00"> mFFRandom</text>
</g>
<!-- Node6 -->
<g id="node6" class="node"><title>Node6</title>
<g id="a_node6"><a xlink:href="../../dc/d27/struct_sky_x_1_1_v_clouds_1_1_data_manager_1_1_cell.html" target="_top" xlink:title="SkyX::VClouds::DataManager\l::Cell">
<polygon fill="white" stroke="black" points="273.5,-199.003 273.5,-229.003 419.5,-229.003 419.5,-199.003 273.5,-199.003"/>
<text text-anchor="start" x="281.5" y="-217.003" font-family="Helvetica,sans-Serif" font-size="10.00">SkyX::VClouds::DataManager</text>
<text text-anchor="middle" x="346.5" y="-206.003" font-family="Helvetica,sans-Serif" font-size="10.00">::Cell</text>
</a>
</g>
</g>
<!-- Node6&#45;&gt;Node4 -->
<g id="edge5" class="edge"><title>Node6&#45;&gt;Node4</title>
<path fill="none" stroke="#9a32cd" stroke-dasharray="5,2" d="M430.042,-209.205C473.399,-206.686 526.042,-203.626 567.768,-201.201"/>
<polygon fill="#9a32cd" stroke="#9a32cd" points="429.583,-205.726 419.803,-209.801 429.99,-212.714 429.583,-205.726"/>
<text text-anchor="middle" x="493" y="-223.003" font-family="Helvetica,sans-Serif" font-size="10.00"> mCellsCurrent</text>
<text text-anchor="middle" x="493" y="-212.003" font-family="Helvetica,sans-Serif" font-size="10.00">mCellsTmp</text>
</g>
<!-- Node7 -->
<g id="node7" class="node"><title>Node7</title>
<g id="a_node7"><a xlink:href="../../d0/df2/struct_sky_x_1_1_v_clouds_1_1_v_clouds_1_1_render_queue_groups.html" target="_top" xlink:title="SkyX::VClouds::VClouds\l::RenderQueueGroups">
<polygon fill="white" stroke="black" points="0,-122.003 0,-152.003 125,-152.003 125,-122.003 0,-122.003"/>
<text text-anchor="start" x="8" y="-140.003" font-family="Helvetica,sans-Serif" font-size="10.00">SkyX::VClouds::VClouds</text>
<text text-anchor="middle" x="62.5" y="-129.003" font-family="Helvetica,sans-Serif" font-size="10.00">::RenderQueueGroups</text>
</a>
</g>
</g>
<!-- Node7&#45;&gt;Node3 -->
<g id="edge7" class="edge"><title>Node7&#45;&gt;Node3</title>
<path fill="none" stroke="#9a32cd" stroke-dasharray="5,2" d="M135.198,-130.647C181.018,-126.585 239.832,-121.37 283.607,-117.49"/>
<polygon fill="#9a32cd" stroke="#9a32cd" points="134.689,-127.178 125.038,-131.547 135.308,-134.15 134.689,-127.178"/>
<text text-anchor="middle" x="194.5" y="-133.003" font-family="Helvetica,sans-Serif" font-size="10.00"> mRenderQueueGroups</text>
</g>
<!-- Node8 -->
<g id="node8" class="node"><title>Node8</title>
<g id="a_node8"><a xlink:href="../../da/d3c/struct_sky_x_1_1_v_clouds_1_1_v_clouds_1_1_geometry_settings.html" target="_top" xlink:title="SkyX::VClouds::VClouds\l::GeometrySettings">
<polygon fill="white" stroke="black" points="0,-73.0028 0,-103.003 125,-103.003 125,-73.0028 0,-73.0028"/>
<text text-anchor="start" x="8" y="-91.0028" font-family="Helvetica,sans-Serif" font-size="10.00">SkyX::VClouds::VClouds</text>
<text text-anchor="middle" x="62.5" y="-80.0028" font-family="Helvetica,sans-Serif" font-size="10.00">::GeometrySettings</text>
</a>
</g>
</g>
<!-- Node8&#45;&gt;Node3 -->
<g id="edge8" class="edge"><title>Node8&#45;&gt;Node3</title>
<path fill="none" stroke="#9a32cd" stroke-dasharray="5,2" d="M135.198,-94.1048C181.018,-98.0043 239.832,-103.01 283.607,-106.735"/>
<polygon fill="#9a32cd" stroke="#9a32cd" points="135.298,-90.6007 125.038,-93.24 134.705,-97.5755 135.298,-90.6007"/>
<text text-anchor="middle" x="194.5" y="-106.003" font-family="Helvetica,sans-Serif" font-size="10.00"> mGeometrySettings</text>
</g>
<!-- Node9&#45;&gt;Node3 -->
<g id="edge9" class="edge"><title>Node9&#45;&gt;Node3</title>
<path fill="none" stroke="#9a32cd" stroke-dasharray="5,2" d="M592.604,-14.9088C552.357,-2.46546 493.844,8.60634 447,-11.0028 401.589,-30.0118 366.403,-80.9647 353.182,-102.347"/>
<polygon fill="#9a32cd" stroke="#9a32cd" points="591.578,-18.2554 602.169,-17.9983 593.729,-11.5942 591.578,-18.2554"/>
<text text-anchor="middle" x="493" y="-14.0028" font-family="Helvetica,sans-Serif" font-size="10.00"> mLightningManager</text>
</g>
<!-- Node10&#45;&gt;Node3 -->
<g id="edge11" class="edge"><title>Node10&#45;&gt;Node3</title>
<path fill="none" stroke="#9a32cd" stroke-dasharray="5,2" d="M546.708,-96.3385C501.747,-99.8739 449.065,-104.016 409.174,-107.153"/>
<polygon fill="#9a32cd" stroke="#9a32cd" points="547.073,-99.8207 556.768,-95.5475 546.525,-92.8423 547.073,-99.8207"/>
<text text-anchor="middle" x="493" y="-107.003" font-family="Helvetica,sans-Serif" font-size="10.00"> mGeometryManager</text>
</g>
</g>
</svg>
        <g id="navigator" transform="translate(0 0)" fill="#404254">
                <rect fill="#f2f5e9" fill-opacity="0.5" stroke="#606060" stroke-width=".5" x="0" y="0" width="60" height="60"/>
                <use id="zoomplus" xlink:href="#zoomPlus" x="17" y="9" onmousedown="handleZoom(evt,'in')"/>
                <use id="zoomminus" xlink:href="#zoomMin" x="42" y="9" onmousedown="handleZoom(evt,'out')"/>
                <use id="reset" xlink:href="#resetDef" x="30" y="36" onmousedown="handleReset()"/>
                <g id="arrowUp" xlink:href="#dirArrow" transform="translate(30 24)" onmousedown="handlePan(0,-1)">
                  <use xlink:href="#rim" fill="#404040">
                        <set attributeName="fill" to="#808080" begin="arrowUp.mouseover" end="arrowUp.mouseout"/>
                  </use>
                  <path fill="none" stroke="white" stroke-width="1.5" d="M0,-3.0v7 M-2.5,-0.5L0,-3.0L2.5,-0.5"/>
                </g>
                <g id="arrowRight" xlink:href="#dirArrow" transform="rotate(90) translate(36 -43)" onmousedown="handlePan(1,0)">
                  <use xlink:href="#rim" fill="#404040">
                        <set attributeName="fill" to="#808080" begin="arrowRight.mouseover" end="arrowRight.mouseout"/>
                  </use>
                  <path fill="none" stroke="white" stroke-width="1.5" d="M0,-3.0v7 M-2.5,-0.5L0,-3.0L2.5,-0.5"/>
                </g>
                <g id="arrowDown" xlink:href="#dirArrow" transform="rotate(180) translate(-30 -48)" onmousedown="handlePan(0,1)">
                  <use xlink:href="#rim" fill="#404040">
                        <set attributeName="fill" to="#808080" begin="arrowDown.mouseover" end="arrowDown.mouseout"/>
                  </use>
                  <path fill="none" stroke="white" stroke-width="1.5" d="M0,-3.0v7 M-2.5,-0.5L0,-3.0L2.5,-0.5"/>
                </g>
                <g id="arrowLeft" xlink:href="#dirArrow" transform="rotate(270) translate(-36 17)" onmousedown="handlePan(-1,0)">
                  <use xlink:href="#rim" fill="#404040">
                        <set attributeName="fill" to="#808080" begin="arrowLeft.mouseover" end="arrowLeft.mouseout"/>
                  </use>
                  <path fill="none" stroke="white" stroke-width="1.5" d="M0,-3.0v7 M-2.5,-0.5L0,-3.0L2.5,-0.5"/>
                </g>
        </g>
        <svg viewBox="0 0 15 15" width="100%" height="30px" preserveAspectRatio="xMaxYMin meet">
         <g id="arrow_out" transform="scale(0.3 0.3)">
          <a xlink:href="class_sky_x_1_1_v_clouds_1_1_geometry_block__coll__graph_org.svg" target="_base">
           <rect id="button" ry="5" rx="5" y="6" x="6" height="38" width="38"
                fill="#f2f5e9" fill-opacity="0.5" stroke="#606060" stroke-width="1.0"/>
           <path id="arrow"
             d="M 11.500037,31.436501 C 11.940474,20.09759 22.043105,11.32322 32.158766,21.979434 L 37.068811,17.246167 C 37.068811,17.246167 37.088388,32 37.088388,32 L 22.160133,31.978069 C 22.160133,31.978069 26.997745,27.140456 26.997745,27.140456 C 18.528582,18.264221 13.291696,25.230495 11.500037,31.436501 z"
             style="fill:#404040;"/>
          </a>
         </g>
        </svg>
</svg>
